<svg width="16" height="16" viewBox="0 0 16 16" fill="none" xmlns="http://www.w3.org/2000/svg">
<g clip-path="url(#clip0_2918_72848)">
<path fill-rule="evenodd" clip-rule="evenodd" d="M11.8106 13.5092C14.8386 13.4133 16.0032 11.4266 16.0032 11.4266C16.0032 7.0148 14.0302 3.43875 14.0302 3.43875C12.0572 1.95901 10.1801 2.00011 10.1801 2.00011L9.98828 2.21934C12.3175 2.9318 13.3999 3.95941 13.3999 3.95941C11.975 3.17843 10.5774 2.79479 9.27581 2.64408C8.28931 2.53447 7.34392 2.56187 6.50814 2.67148L6.27521 2.69888C5.79567 2.73999 4.63105 2.9181 3.16501 3.56207C2.65806 3.79499 2.35663 3.95941 2.35663 3.95941C2.35663 3.95941 3.49384 2.877 5.96008 2.16453L5.82307 2.00011C5.82307 2.00011 3.94599 1.95901 1.97299 3.43875C1.97299 3.43875 0 7.0148 0 11.4266C0 11.4266 1.15091 13.4133 4.17891 13.5092C4.17891 13.5092 4.68586 12.8927 5.0969 12.372C3.35683 11.8514 2.69916 10.7553 2.69916 10.7553L3.0828 10.9882L3.13761 11.0293L3.19127 11.0601L3.20726 11.067L3.26092 11.0978C3.60345 11.2896 3.94599 11.4403 4.26112 11.5637C4.82287 11.7829 5.49424 12.0021 6.27521 12.1528C7.30282 12.3446 8.50853 12.4131 9.82386 12.1665C10.4678 12.0569 11.1255 11.8651 11.8106 11.5774C12.2901 11.3992 12.8245 11.1389 13.3862 10.769C13.3862 10.769 12.7011 11.8925 10.9063 12.3994C11.3173 12.9201 11.8106 13.5092 11.8106 13.5092ZM5.43943 7.11071C4.65846 7.11071 4.0419 7.79578 4.0419 8.63156C4.0419 9.46734 4.67216 10.1524 5.43943 10.1524C6.22041 10.1524 6.83697 9.46734 6.83697 8.63156C6.85067 7.79578 6.22041 7.11071 5.43943 7.11071ZM10.4404 7.11071C9.65945 7.11071 9.04289 7.79578 9.04289 8.63156C9.04289 9.46734 9.67315 10.1524 10.4404 10.1524C11.2214 10.1524 11.838 9.46734 11.838 8.63156C11.838 7.79578 11.2214 7.11071 10.4404 7.11071Z" fill="#3B00B9"/>
</g>
<defs>
<clipPath id="clip0_2918_72848">
<rect width="16" height="16" fill="white"/>
</clipPath>
</defs>
</svg>
