<svg width="16" height="16" viewBox="0 0 16 16" fill="none" xmlns="http://www.w3.org/2000/svg">
<path fill-rule="evenodd" clip-rule="evenodd" d="M1.39259 14.2015L4.91992 13.4175C5.88566 13.9338 6.96416 14.2031 8.05925 14.2015C11.7413 14.2015 14.7259 11.2168 14.7259 7.53483C14.7259 3.85283 11.7413 0.868164 8.05925 0.868164C4.37725 0.868164 1.39259 3.85283 1.39259 7.53483C1.39094 8.62993 1.66027 9.70842 2.17659 10.6742L1.39259 14.2015ZM8.73591 5.84348C9.33222 5.29959 9.89714 5.0237 10.415 5.0237C11.6547 5.0237 12.6629 6.04448 12.6668 7.30175C12.6668 7.48305 12.6432 7.66041 12.604 7.82988C12.6025 7.83634 12.5987 7.85077 12.5917 7.87156C12.3376 8.84172 11.4601 9.56014 10.4199 9.56401C9.55851 9.56401 8.68799 8.73704 8.04235 7.99101L8.03869 7.99543C8.03869 7.99543 7.74839 7.66829 7.43059 7.31752C7.43059 7.31752 7.06967 6.89974 6.6852 6.53321C6.58049 6.43352 6.18918 6.11791 5.72351 5.93214C5.69492 5.92799 5.66947 5.92642 5.64716 5.92642C4.90177 5.93431 4.29762 6.54519 4.29762 7.29404C4.29762 8.05076 4.90177 8.66165 5.64716 8.66165C5.84331 8.66165 6.19245 8.55917 6.72208 8.07835C7.00844 7.81822 7.25559 7.53051 7.42824 7.31769C7.74601 7.66845 8.03631 7.99556 8.03631 7.99556C7.85584 8.21631 7.60868 8.49216 7.32624 8.74838C6.72991 9.29227 6.16501 9.56815 5.64716 9.56815C4.40354 9.56815 3.39531 8.54736 3.39531 7.2901C3.39531 7.1088 3.41885 6.93144 3.45808 6.76197C3.46082 6.7503 3.47117 6.71267 3.49362 6.65849C3.76685 5.71766 4.63005 5.02749 5.64953 5.0237C6.51066 5.0237 7.38083 5.85012 8.02376 6.59595L8.02684 6.5923L8.02799 6.5936C8.20827 6.37334 8.45457 6.09864 8.73591 5.84348ZM10.415 8.66543C10.4031 8.66543 10.3903 8.66499 10.3766 8.66394C9.89559 8.48289 9.48785 8.15689 9.38028 8.05451C9.00842 7.70001 8.6586 7.29756 8.63604 7.27154C8.80856 7.05896 9.05486 6.77255 9.34004 6.5135C9.86967 6.02872 10.2149 5.93019 10.415 5.93019C11.1604 5.93019 11.7645 6.54108 11.7645 7.29782C11.7645 8.04666 11.1604 8.65753 10.415 8.66543Z" fill="#3B00B9"/>
</svg>
