<svg xmlns="http://www.w3.org/2000/svg" width="860" height="520" fill="none" viewBox="0 0 860 520"><g clip-path="url(#a)"><path fill="#fff" fill-rule="evenodd" d="M323.707 147C318.737 147 314.707 151.029 314.707 156V248.535C314.707 249.096 314.64 249.655 314.506 250.2L310.092 268.224C309.418 270.978 312.588 273.044 314.836 271.315L341.074 251.122C342.298 250.18 343.799 249.669 345.343 249.669H437.707C442.678 249.669 446.707 245.64 446.707 240.669V156C446.707 151.029 442.678 147 437.707 147H323.707ZM316.707 156C316.707 152.134 319.841 149 323.707 149H437.707C441.573 149 444.707 152.134 444.707 156V240.669C444.707 244.535 441.573 247.669 437.707 247.669H345.343C343.358 247.669 341.428 248.326 339.854 249.537L313.616 269.73C312.867 270.306 311.81 269.618 312.035 268.7L316.449 250.675C316.621 249.975 316.707 249.256 316.707 248.535V156ZM342.707 176C342.155 176 341.707 176.448 341.707 177C341.707 177.552 342.155 178 342.707 178H418.707C419.26 178 419.707 177.552 419.707 177C419.707 176.448 419.26 176 418.707 176H342.707ZM341.707 195C341.707 194.448 342.155 194 342.707 194H418.707C419.26 194 419.707 194.448 419.707 195C419.707 195.552 419.26 196 418.707 196H342.707C342.155 196 341.707 195.552 341.707 195ZM342.707 212C342.155 212 341.707 212.448 341.707 213C341.707 213.552 342.155 214 342.707 214H418.707C419.26 214 419.707 213.552 419.707 213C419.707 212.448 419.26 212 418.707 212H342.707Z" clip-rule="evenodd"/><path fill="#fff" fill-rule="evenodd" d="M536.707 288C541.677 288 545.707 292.029 545.707 297V389.535C545.707 390.096 545.774 390.655 545.908 391.2L550.322 409.224C550.996 411.978 547.826 414.044 545.578 412.315L519.34 392.122C518.116 391.18 516.615 390.669 515.071 390.669H422.707C417.736 390.669 413.707 386.64 413.707 381.669V297C413.707 292.029 417.736 288 422.707 288H536.707ZM543.707 297C543.707 293.134 540.573 290 536.707 290H422.707C418.841 290 415.707 293.134 415.707 297V381.669C415.707 385.535 418.841 388.669 422.707 388.669H515.071C517.056 388.669 518.986 389.326 520.56 390.537L546.798 410.73C547.547 411.306 548.604 410.618 548.379 409.7L543.965 391.675C543.794 390.975 543.707 390.256 543.707 389.535V297ZM517.707 317C518.259 317 518.707 317.448 518.707 318C518.707 318.552 518.259 319 517.707 319H441.707C441.155 319 440.707 318.552 440.707 318C440.707 317.448 441.155 317 441.707 317H517.707ZM518.707 336C518.707 335.448 518.259 335 517.707 335H441.707C441.155 335 440.707 335.448 440.707 336C440.707 336.552 441.155 337 441.707 337H517.707C518.259 337 518.707 336.552 518.707 336ZM517.707 353C518.259 353 518.707 353.448 518.707 354C518.707 354.552 518.259 355 517.707 355H441.707C441.155 355 440.707 354.552 440.707 354C440.707 353.448 441.155 353 441.707 353H517.707Z" clip-rule="evenodd"/><g stroke="#fff" stroke-linejoin="round" stroke-width="2" opacity=".2"><path d="M183.001 55L124.001 89.3085L183.001 123.617L242 89.3085L183.001 55Z"/><path d="M124 146.74V89.2651L182.999 123.574L182.999 181L124 146.74Z"/><path d="M241.947 146.74L241.947 89.2651L182.947 123.574L182.947 181L241.947 146.74Z"/></g><path stroke="#fff" stroke-linejoin="round" stroke-width="2" d="M635.138 122.929L599.148 103.194V70.3322M635.138 122.929V90.067M635.138 122.929L671.128 103.194V70.3322L635.138 90.067M635.138 90.067L599.148 70.3322M599.148 70.3322L635.198 90.0521L671.053 70.2581L635.003 51.9753L599.148 70.3322ZM688.734 164.147C698.217 155.998 702.944 142.634 702.974 126.781C702.989 115.476 700.64 102.927 695.943 90.0522M688.734 164.147C687.522 162.413 685.502 161.272 683.214 161.272C679.534 161.272 676.542 164.235 676.542 167.895C676.542 168.873 676.752 169.806 677.141 170.636M688.734 164.147C689.467 165.213 689.9 166.502 689.9 167.895C689.9 171.554 686.909 174.503 683.214 174.503C680.521 174.503 678.188 172.918 677.141 170.636M677.141 170.636C664.92 174.562 650.051 171.88 635.153 163.85M635.153 163.85C625.385 158.605 615.617 151.049 606.552 141.582C600.27 135.033 594.346 127.551 589.006 119.284C582.784 109.654 577.892 99.7714 574.347 90.0522M635.153 163.85C644.906 158.605 654.674 151.064 663.738 141.582C670.021 135.033 675.944 127.566 681.284 119.284C687.507 109.654 692.398 99.7862 695.943 90.0522M635.153 163.85C619.461 172.295 603.815 174.844 591.235 169.954M574.347 90.0522C569.635 77.1475 567.287 64.5392 567.317 53.2198C567.377 38.078 571.715 25.2178 580.405 16.9949M574.347 90.0522C569.65 102.912 567.317 115.476 567.317 126.781C567.347 141.952 571.67 154.827 580.346 163.05M574.347 90.0522C577.892 80.3329 582.784 70.4508 589.006 60.8352C594.391 52.4939 600.36 44.9822 606.687 38.3891C615.707 28.981 625.445 21.4842 635.153 16.269M580.405 16.9949C581.587 18.0765 583.173 18.7285 584.893 18.7285C588.573 18.7285 591.564 15.7652 591.564 12.1057C591.564 11.4242 591.46 10.7575 591.265 10.15M580.405 16.9949C579.044 15.7948 578.207 14.0466 578.207 12.1057C578.207 8.46097 581.198 5.4978 584.893 5.4978C587.885 5.4978 590.412 7.45354 591.265 10.15M591.265 10.15C603.83 5.2756 619.476 7.8239 635.153 16.269M635.153 16.269C644.861 21.499 654.584 28.9958 663.603 38.3891C669.931 44.9822 675.899 52.4939 681.284 60.8352C687.507 70.4508 692.398 80.3329 695.943 90.0522M635.153 16.269C650.036 8.23874 664.89 5.54225 677.111 9.46847M695.943 90.0522C700.655 77.1475 703.004 64.5392 702.974 53.2198C702.914 37.3816 698.187 24.0473 688.674 15.9134M591.235 169.954C591.445 169.303 591.564 168.606 591.564 167.895C591.564 164.235 588.573 161.272 584.893 161.272C583.143 161.272 581.542 161.939 580.346 163.05M591.235 169.954C590.368 172.606 587.855 174.503 584.893 174.503C581.198 174.503 578.207 171.554 578.207 167.895C578.207 165.984 579.029 164.25 580.346 163.05M677.111 9.46847C676.737 10.2685 676.543 11.1723 676.543 12.1057C676.543 15.7652 679.534 18.7285 683.214 18.7285C685.473 18.7285 687.477 17.6172 688.674 15.9134M677.111 9.46847C678.128 7.12755 680.477 5.4978 683.214 5.4978C686.909 5.4978 689.9 8.46097 689.9 12.1057C689.9 13.528 689.452 14.8466 688.674 15.9134M727.401 89.9929C727.401 119.958 686.093 144.249 635.138 144.249C584.183 144.249 542.875 119.958 542.875 89.9929C542.875 60.0282 584.183 35.7371 635.138 35.7371C686.093 35.7371 727.401 60.0282 727.401 89.9929Z" opacity=".4"/><path fill="#fff" fill-rule="evenodd" d="M736.966 264H630.276C627.914 264 626 265.914 626 268.276V332.603H626.569V340.677C626.569 340.796 626.573 340.915 626.581 341.033C627.322 342.302 628.7 343.155 630.276 343.155H736.966C738.542 343.155 739.919 342.302 740.66 341.033C740.668 340.915 740.672 340.796 740.672 340.677V332.603H741.241V268.276C741.241 265.914 739.327 264 736.966 264ZM624 338.879C624 339.864 624.227 340.796 624.631 341.625C624.782 342.773 625.205 343.873 625.872 344.831L628.986 349.31C630.346 351.265 632.577 352.431 634.959 352.431H732.282C734.664 352.431 736.895 351.265 738.255 349.31L741.37 344.831C742.036 343.873 742.459 342.773 742.61 341.625C743.015 340.796 743.241 339.864 743.241 338.879V268.276C743.241 264.81 740.432 262 736.966 262H630.276C626.81 262 624 264.81 624 268.276V338.879ZM630.628 348.168L628.316 344.843C628.933 345.046 629.591 345.155 630.276 345.155H736.966C737.65 345.155 738.309 345.046 738.925 344.843L736.613 348.168C735.627 349.586 734.009 350.431 732.282 350.431H634.959C633.232 350.431 631.614 349.586 630.628 348.168ZM644.397 276.552H672.638C674.999 276.552 676.914 278.466 676.914 280.828V311.726C676.196 311.128 675.14 310.375 673.683 309.627C670.59 308.041 665.725 306.5 658.517 306.5C651.309 306.5 646.444 308.041 643.352 309.627C641.895 310.375 640.838 311.128 640.121 311.726V280.828C640.121 278.466 642.035 276.552 644.397 276.552ZM640.121 323.19V326.328C640.121 328.689 642.035 330.603 644.397 330.603H672.638C674.999 330.603 676.914 328.689 676.914 326.328V323.19H676.345V313.917C676.21 313.778 676.011 313.584 675.739 313.352C675.133 312.834 674.168 312.124 672.77 311.407C669.979 309.976 665.43 308.5 658.517 308.5C651.605 308.5 647.056 309.976 644.265 311.407C642.867 312.124 641.901 312.834 641.296 313.352C641.024 313.584 640.824 313.778 640.69 313.917V323.19H640.121ZM638.121 280.828C638.121 277.362 640.93 274.552 644.397 274.552H672.638C676.104 274.552 678.914 277.362 678.914 280.828V326.328C678.914 329.794 676.104 332.603 672.638 332.603H644.397C640.93 332.603 638.121 329.794 638.121 326.328V280.828ZM692.035 320.052C692.035 319.499 692.482 319.052 693.035 319.052H711.862C712.414 319.052 712.862 319.499 712.862 320.052C712.862 320.604 712.414 321.052 711.862 321.052H693.035C692.482 321.052 692.035 320.604 692.035 320.052ZM693.035 311.207C692.482 311.207 692.035 311.655 692.035 312.207C692.035 312.759 692.482 313.207 693.035 313.207H724.414C724.966 313.207 725.414 312.759 725.414 312.207C725.414 311.655 724.966 311.207 724.414 311.207H693.035ZM692.035 304.362C692.035 303.81 692.482 303.362 693.035 303.362H724.414C724.966 303.362 725.414 303.81 725.414 304.362C725.414 304.914 724.966 305.362 724.414 305.362H693.035C692.482 305.362 692.035 304.914 692.035 304.362ZM693.819 289.103H723.629C725.558 289.103 727.121 290.667 727.121 292.595C727.121 294.523 725.558 296.086 723.629 296.086H693.819C691.891 296.086 690.328 294.523 690.328 292.595C690.328 290.667 691.891 289.103 693.819 289.103ZM688.328 292.595C688.328 289.562 690.786 287.103 693.819 287.103H723.629C726.662 287.103 729.121 289.562 729.121 292.595C729.121 295.628 726.662 298.086 723.629 298.086H693.819C690.786 298.086 688.328 295.628 688.328 292.595ZM658.517 300.793C663.478 300.793 667.5 296.771 667.5 291.81C667.5 286.849 663.478 282.828 658.517 282.828C653.556 282.828 649.535 286.849 649.535 291.81C649.535 296.771 653.556 300.793 658.517 300.793ZM658.517 302.793C664.583 302.793 669.5 297.876 669.5 291.81C669.5 285.745 664.583 280.828 658.517 280.828C652.452 280.828 647.535 285.745 647.535 291.81C647.535 297.876 652.452 302.793 658.517 302.793Z" clip-rule="evenodd" opacity=".2"/><path stroke="#fff" stroke-linecap="round" stroke-linejoin="round" stroke-opacity=".7" stroke-width="2.667" d="M221.21 426.565C216.829 418.7 214.333 409.642 214.333 400C214.333 369.809 238.808 345.333 269 345.333C299.191 345.333 323.667 369.809 323.667 400C323.667 430.192 299.191 454.667 269 454.667C251.623 454.667 236.139 446.559 226.126 433.92"/><path stroke="#fff" stroke-linecap="round" stroke-linejoin="round" stroke-width="2.667" d="M278.002 384.192C275.288 385.64 269.891 391.03 269.771 401.084M269.771 401.084C269.769 401.198 269.769 401.312 269.769 401.427V426.674M269.771 401.084C270.686 401.524 271.707 401.899 272.842 402.195C283.293 404.917 289.198 394.914 290.845 389.571M269.771 401.084C262.257 397.477 261.785 389.533 262.633 385.619C263.951 380.277 270.559 369.571 286.454 369.483C297.321 369.483 300.724 372.557 300.724 372.557C299.005 373.801 295.28 377.079 294.138 380.24M269.769 426.674V435.127M269.769 426.674C269.769 421.781 266.859 417.134 263.183 413.545M250.558 406.586C253.52 406.586 258.877 409.34 263.183 413.545M263.183 413.545C261.084 417.4 256.421 419.21 253.193 419.21C248.912 419.21 246.826 417.783 242.106 412.184C238.33 407.706 235.19 406.586 234.093 406.586C235.41 404.061 239.801 397.914 251.876 397.914C261.536 397.914 264.17 405.378 264.28 409.111C264.28 410.812 263.868 412.287 263.183 413.545Z"/></g><defs><clipPath id="a"><rect width="860" height="520" fill="#fff"/></clipPath></defs></svg>