<svg version="1.1" xmlns="http://www.w3.org/2000/svg" viewBox="0 0 621.1653137207031 756.631591796875" width="1242.3306274414062" height="1513.26318359375">
  <!-- svg-source:excalidraw -->
  
  <defs>
    <style class="style-fonts">
      @font-face {
        font-family: "Virgil";
        src: url("https://excalidraw.com/Virgil.woff2");
      }
      @font-face {
        font-family: "Cascadia";
        src: url("https://excalidraw.com/Cascadia.woff2");
      }
      @font-face {
        font-family: "Assistant";
        src: url("https://excalidraw.com/Assistant-Regular.woff2");
      }
    </style>
    
  </defs>
  <rect x="0" y="0" width="621.1653137207031" height="756.631591796875" fill="#ffffff"></rect><g stroke-linecap="round"><g transform="translate(427.0403137207031 543.00390625) rotate(0 -0.275390625 43.41015625)"><path d="M0.82 0.75 C0.91 15.17, 0.26 71.78, 0.16 86.02 M-0.21 0.1 C-0.17 14.69, -0.42 72.63, -0.42 87.13" stroke="#1e1e1e" stroke-width="2" fill="none"></path></g><g transform="translate(427.0403137207031 543.00390625) rotate(0 -0.275390625 43.41015625)"><path d="M-8.91 63.62 C-5.51 70.99, -5.84 77.27, -0.42 87.13 M-8.91 63.62 C-6.48 69.99, -5.84 75.1, -0.42 87.13" stroke="#1e1e1e" stroke-width="2" fill="none"></path></g><g transform="translate(427.0403137207031 543.00390625) rotate(0 -0.275390625 43.41015625)"><path d="M8.19 63.66 C7.05 71.13, 2.18 77.4, -0.42 87.13 M8.19 63.66 C6.46 69.97, 2.94 75.07, -0.42 87.13" stroke="#1e1e1e" stroke-width="2" fill="none"></path></g></g><mask></mask><g stroke-linecap="round"><g transform="translate(433.1175749415696 131.5) rotate(0 -0.7994439643716191 43.00390625)"><path d="M-0.54 0.09 C-0.58 14.56, -0.38 71.92, -0.42 86.3 M1.37 -0.91 C1.3 13.22, -0.33 70.14, -0.74 84.33" stroke="#1e1e1e" stroke-width="2" fill="none"></path></g><g transform="translate(433.1175749415696 131.5) rotate(0 -0.7994439643716191 43.00390625)"><path d="M-8.62 60.61 C-6.36 69.29, -3.8 75.39, -0.74 84.33 M-8.62 60.61 C-7.11 68.26, -3.98 75.47, -0.74 84.33" stroke="#1e1e1e" stroke-width="2" fill="none"></path></g><g transform="translate(433.1175749415696 131.5) rotate(0 -0.7994439643716191 43.00390625)"><path d="M8.47 61.09 C5.93 69.56, 3.67 75.53, -0.74 84.33 M8.47 61.09 C4.34 68.63, 1.83 75.68, -0.74 84.33" stroke="#1e1e1e" stroke-width="2" fill="none"></path></g></g><mask></mask><g stroke-linecap="round"><g transform="translate(431.86968063784684 340.9355914953471) rotate(0 -1.0047434140864198 38.95212612732644)"><path d="M0.11 0.17 C0.14 12.87, -0.54 64.38, -1.01 77.33 M-1.29 -0.79 C-1.22 12.58, -1.61 65.24, -1.43 78.56" stroke="#1e1e1e" stroke-width="2" fill="none"></path></g><g transform="translate(431.86968063784684 340.9355914953471) rotate(0 -1.0047434140864198 38.95212612732644)"><path d="M-10.03 55.08 C-7.8 61.46, -7.32 63.33, -1.43 78.56 M-10.03 55.08 C-7.21 61.26, -4.34 68.53, -1.43 78.56" stroke="#1e1e1e" stroke-width="2" fill="none"></path></g><g transform="translate(431.86968063784684 340.9355914953471) rotate(0 -1.0047434140864198 38.95212612732644)"><path d="M7.08 55.05 C5.86 61.45, 2.91 63.33, -1.43 78.56 M7.08 55.05 C4.84 61.3, 2.65 68.58, -1.43 78.56" stroke="#1e1e1e" stroke-width="2" fill="none"></path></g></g><mask></mask><g transform="translate(139.68844376172046 10) rotate(0 113.92186737060547 55.5518437525689)"><text x="113.92186737060547" y="0" font-family="Virgil, Segoe UI Emoji" font-size="22.22073750102756px" fill="#1e1e1e" text-anchor="middle" style="white-space: pre;" direction="ltr" dominant-baseline="text-before-edge">Canister is </text><text x="113.92186737060547" y="27.77592187628445" font-family="Virgil, Segoe UI Emoji" font-size="22.22073750102756px" fill="#1e1e1e" text-anchor="middle" style="white-space: pre;" direction="ltr" dominant-baseline="text-before-edge">created by compiling</text><text x="113.92186737060547" y="55.5518437525689" font-family="Virgil, Segoe UI Emoji" font-size="22.22073750102756px" fill="#1e1e1e" text-anchor="middle" style="white-space: pre;" direction="ltr" dominant-baseline="text-before-edge">code into Wasm </text><text x="113.92186737060547" y="83.32776562885334" font-family="Virgil, Segoe UI Emoji" font-size="22.22073750102756px" fill="#1e1e1e" text-anchor="middle" style="white-space: pre;" direction="ltr" dominant-baseline="text-before-edge">and deploying to ICP</text></g><g transform="translate(151.1213607788086 241.62251562371557) rotate(0 101.35645294189453 41.66388281442667)"><text x="101.35645294189453" y="0" font-family="Virgil, Segoe UI Emoji" font-size="22.22073750102756px" fill="#1e1e1e" text-anchor="middle" style="white-space: pre;" direction="ltr" dominant-baseline="text-before-edge">Canister runs</text><text x="101.35645294189453" y="27.77592187628445" font-family="Virgil, Segoe UI Emoji" font-size="22.22073750102756px" fill="#1e1e1e" text-anchor="middle" style="white-space: pre;" direction="ltr" dominant-baseline="text-before-edge">and provides</text><text x="101.35645294189453" y="55.5518437525689" font-family="Virgil, Segoe UI Emoji" font-size="22.22073750102756px" fill="#1e1e1e" text-anchor="middle" style="white-space: pre;" direction="ltr" dominant-baseline="text-before-edge">service or function</text></g><g stroke-linecap="round" transform="translate(386.7278137207031 19.17578125) rotate(0 47.583984375 47.19140625)"><path d="M23.6 0 C37.52 1.66, 51.5 0.43, 71.57 0 M23.6 0 C41.64 -0.95, 62.04 0.54, 71.57 0 M71.57 0 C87.73 -1.35, 95.69 7.36, 95.17 23.6 M71.57 0 C86.27 0.02, 95.38 6.89, 95.17 23.6 M95.17 23.6 C96.37 36.37, 92.94 50.33, 95.17 70.79 M95.17 23.6 C95.3 41.84, 95.77 59.23, 95.17 70.79 M95.17 70.79 C95.66 86.47, 85.74 92.66, 71.57 94.38 M95.17 70.79 C97.17 87.88, 87.56 93.08, 71.57 94.38 M71.57 94.38 C61.74 95.99, 50.03 92.75, 23.6 94.38 M71.57 94.38 C58.98 94.43, 48.1 95.12, 23.6 94.38 M23.6 94.38 C7.86 93.01, 0.49 85.56, 0 70.79 M23.6 94.38 C9.09 96.06, -2.14 85.9, 0 70.79 M0 70.79 C0.49 58.5, -2.02 47.84, 0 23.6 M0 70.79 C0.93 54.7, 0.89 36.93, 0 23.6 M0 23.6 C0.31 7.4, 8.94 0.41, 23.6 0 M0 23.6 C-0.67 9.3, 9.24 1.42, 23.6 0" stroke="#1e1e1e" stroke-width="2" fill="none"></path></g><g transform="translate(429.43379974365234 43.8671875) rotate(0 4.877998352050781 22.5)"><text x="4.877998352050781" y="0" font-family="Virgil, Segoe UI Emoji" font-size="36px" fill="#1e1e1e" text-anchor="middle" style="white-space: pre;" direction="ltr" dominant-baseline="text-before-edge">1</text></g><g stroke-linecap="round" transform="translate(382.6633605957031 233.4609375) rotate(0 47.583984375 47.19140625)"><path d="M23.6 0 C33.09 0.76, 45.67 -1, 71.57 0 M23.6 0 C40.72 0.96, 55.84 0.31, 71.57 0 M71.57 0 C88.59 -1.58, 96.13 6.59, 95.17 23.6 M71.57 0 C89.04 -2.01, 96.11 6.65, 95.17 23.6 M95.17 23.6 C94.4 43.27, 96.85 62.24, 95.17 70.79 M95.17 23.6 C95.36 37.79, 95.68 50.91, 95.17 70.79 M95.17 70.79 C95.96 84.72, 88.23 96.23, 71.57 94.38 M95.17 70.79 C93.54 87.16, 86.79 93.05, 71.57 94.38 M71.57 94.38 C55.85 92.01, 35.44 92.98, 23.6 94.38 M71.57 94.38 C55.44 95.64, 41.7 93.99, 23.6 94.38 M23.6 94.38 C8.84 93.61, -0.98 85.41, 0 70.79 M23.6 94.38 C9.33 96.19, -0.41 85.52, 0 70.79 M0 70.79 C-0.18 61.61, 0.45 51.66, 0 23.6 M0 70.79 C-0.1 57.38, 0.16 45.62, 0 23.6 M0 23.6 C-0.28 8.38, 5.91 0.67, 23.6 0 M0 23.6 C-0.7 6.51, 10.13 1.16, 23.6 0" stroke="#1e1e1e" stroke-width="2" fill="none"></path></g><g transform="translate(417.4313507080078 258.15234375) rotate(0 12.815994262695312 22.5)"><text x="12.815994262695312" y="0" font-family="Virgil, Segoe UI Emoji" font-size="36px" fill="#1e1e1e" text-anchor="middle" style="white-space: pre;" direction="ltr" dominant-baseline="text-before-edge">2</text></g><g stroke-linecap="round" transform="translate(383.3117980957031 432.54296875) rotate(0 47.583984375 47.19140625)"><path d="M23.6 0 C37.59 1.74, 49.66 1.72, 71.57 0 M23.6 0 C34.94 -0.23, 46.23 0.7, 71.57 0 M71.57 0 C87.12 0.82, 96.04 7.32, 95.17 23.6 M71.57 0 C88.19 0.86, 94.76 9.57, 95.17 23.6 M95.17 23.6 C92.93 43.06, 94.04 61.95, 95.17 70.79 M95.17 23.6 C96.03 35.76, 95.86 46.64, 95.17 70.79 M95.17 70.79 C93.23 84.83, 87.9 94.24, 71.57 94.38 M95.17 70.79 C94.92 88.56, 85.14 94.33, 71.57 94.38 M71.57 94.38 C58.1 92.53, 48.13 93.57, 23.6 94.38 M71.57 94.38 C59.62 94.09, 49 95.07, 23.6 94.38 M23.6 94.38 C6.75 93.75, 1.32 88.41, 0 70.79 M23.6 94.38 C9.1 92.97, -0.91 86.32, 0 70.79 M0 70.79 C1.36 54.36, -0.06 40.1, 0 23.6 M0 70.79 C0.4 59.47, -0.37 46.94, 0 23.6 M0 23.6 C1.58 6.28, 6.06 -0.2, 23.6 0 M0 23.6 C-0.3 6.44, 7.89 -0.17, 23.6 0" stroke="#1e1e1e" stroke-width="2" fill="none"></path></g><g transform="translate(418.6377868652344 457.234375) rotate(0 12.25799560546875 22.5)"><text x="12.25799560546875" y="0" font-family="Virgil, Segoe UI Emoji" font-size="36px" fill="#1e1e1e" text-anchor="middle" style="white-space: pre;" direction="ltr" dominant-baseline="text-before-edge">3</text></g><g transform="translate(79.73187255859375 451.79705468557336) rotate(0 144.50765991210938 27.77592187628443)"><text x="144.50765991210938" y="0" font-family="Virgil, Segoe UI Emoji" font-size="22.22073750102756px" fill="#1e1e1e" text-anchor="middle" style="white-space: pre;" direction="ltr" dominant-baseline="text-before-edge">Canister is maintained</text><text x="144.50765991210938" y="27.77592187628445" font-family="Virgil, Segoe UI Emoji" font-size="22.22073750102756px" fill="#1e1e1e" text-anchor="middle" style="white-space: pre;" direction="ltr" dominant-baseline="text-before-edge">(upgraded, topped up, etc)</text></g><g stroke-linecap="round" transform="translate(378.2610168457031 652.248779296875) rotate(0 47.583984375 47.19140625)"><path d="M23.6 0 C33.99 0.98, 46.03 0.88, 71.57 0 M23.6 0 C39.07 -0.07, 53.42 -1, 71.57 0 M71.57 0 C89.11 0.16, 94.62 7.77, 95.17 23.6 M71.57 0 C86.86 0.8, 95.96 8.5, 95.17 23.6 M95.17 23.6 C94.13 40.93, 95.02 61.21, 95.17 70.79 M95.17 23.6 C94.93 39.21, 95.48 54.34, 95.17 70.79 M95.17 70.79 C94.67 88.05, 86.13 93.02, 71.57 94.38 M95.17 70.79 C95.16 84.41, 87.2 94.43, 71.57 94.38 M71.57 94.38 C58.37 95.41, 49.16 93.9, 23.6 94.38 M71.57 94.38 C59.92 93.82, 47.81 95.05, 23.6 94.38 M23.6 94.38 C7.04 93.23, -0.66 86.86, 0 70.79 M23.6 94.38 C7.39 93.05, 1.8 87.69, 0 70.79 M0 70.79 C-0.82 57.87, 0.96 47.21, 0 23.6 M0 70.79 C0.61 59.52, -0.38 49.8, 0 23.6 M0 23.6 C1.77 6.61, 8.38 -0.2, 23.6 0 M0 23.6 C-1.65 8.57, 6.14 1.63, 23.6 0" stroke="#1e1e1e" stroke-width="2" fill="none"></path></g><g transform="translate(395.0650100708008 676.940185546875) rotate(0 30.779991149902344 22.5)"><text x="30.779991149902344" y="0" font-family="Virgil, Segoe UI Emoji" font-size="36px" fill="#1e1e1e" text-anchor="middle" style="white-space: pre;" direction="ltr" dominant-baseline="text-before-edge">End</text></g><g transform="translate(10 656.3075527324484) rotate(0 170.36062622070312 41.66388281442664)"><text x="170.36062622070312" y="0" font-family="Virgil, Segoe UI Emoji" font-size="22.22073750102756px" fill="#1e1e1e" text-anchor="middle" style="white-space: pre;" direction="ltr" dominant-baseline="text-before-edge">Canister is deleted once no</text><text x="170.36062622070312" y="27.77592187628445" font-family="Virgil, Segoe UI Emoji" font-size="22.22073750102756px" fill="#1e1e1e" text-anchor="middle" style="white-space: pre;" direction="ltr" dominant-baseline="text-before-edge">longer needed or  </text><text x="170.36062622070312" y="55.5518437525689" font-family="Virgil, Segoe UI Emoji" font-size="22.22073750102756px" fill="#1e1e1e" text-anchor="middle" style="white-space: pre;" direction="ltr" dominant-baseline="text-before-edge">maintained (runs out of cycles)</text></g><g stroke-linecap="round" transform="translate(610.9348449707031 219.092529296875) rotate(0 0.115234375 0.115234375)"><path d="M0.06 0 C0.1 0, 0.13 0, 0.17 0 M0.06 0 C0.1 0, 0.14 0, 0.17 0 M0.17 0 C-0.33 0.35, -0.29 0.36, 0.23 0.06 M0.17 0 C-0.23 -0.65, 0.31 -0.08, 0.23 0.06 M0.23 0.06 C0.23 0.09, 0.23 0.11, 0.23 0.17 M0.23 0.06 C0.23 0.09, 0.23 0.13, 0.23 0.17 M0.23 0.17 C0.13 0.59, 0.08 0.58, 0.17 0.23 M0.23 0.17 C-0.08 0.97, -0.43 0.58, 0.17 0.23 M0.17 0.23 C0.13 0.23, 0.09 0.23, 0.06 0.23 M0.17 0.23 C0.13 0.23, 0.09 0.23, 0.06 0.23 M0.06 0.23 C-0.09 -0.26, 0.34 0.13, 0 0.17 M0.06 0.23 C-0.3 -0.14, 0.62 -0.46, 0 0.17 M0 0.17 C0 0.14, 0 0.12, 0 0.06 M0 0.17 C0 0.13, 0 0.1, 0 0.06 M0 0.06 C0.44 -0.19, -0.46 -0.61, 0.06 0 M0 0.06 C-0.12 -0.66, 0.75 -0.3, 0.06 0" stroke="#1e1e1e" stroke-width="2" fill="none"></path></g></svg>