<svg width="30" height="30" viewBox="0 0 30 30" fill="none"
  xmlns="http://www.w3.org/2000/svg">
  <g clip-path="url(#clip0_2085_30846)">
    <path fill-rule="evenodd" clip-rule="evenodd" d="M22.1448 25.3298C27.8223 25.15 30.0059 21.4249 30.0059 21.4249C30.0059 13.1528 26.3066 6.44767 26.3066 6.44767C22.6072 3.67314 19.0877 3.75021 19.0877 3.75021L18.728 4.16125C23.0953 5.49713 25.1248 7.42389 25.1248 7.42389C22.4531 5.95955 19.8327 5.24023 17.3921 4.95764C15.5425 4.75212 13.7698 4.8035 12.2028 5.00902L11.766 5.0604C10.8669 5.13747 8.68322 5.47144 5.93439 6.67888C4.98386 7.11561 4.41868 7.42389 4.41868 7.42389C4.41868 7.42389 6.55095 5.39437 11.1752 4.05849L10.9183 3.75021C10.9183 3.75021 7.39872 3.67314 3.69936 6.44767C3.69936 6.44767 0 13.1528 0 21.4249C0 21.4249 2.15796 25.15 7.83545 25.3298C7.83545 25.3298 8.78598 24.1738 9.55669 23.1976C6.29405 22.2213 5.06093 20.1661 5.06093 20.1661L5.78025 20.6029L5.88301 20.6799L5.98363 20.7377L6.0136 20.7506L6.11422 20.8084C6.75647 21.168 7.39872 21.4506 7.98959 21.6818C9.04288 22.0929 10.3017 22.5039 11.766 22.7865C13.6928 23.1462 15.9535 23.2746 18.4197 22.8122C19.6272 22.6067 20.8603 22.247 22.1448 21.7075C23.0439 21.3736 24.0459 20.8855 25.0991 20.1918C25.0991 20.1918 23.8146 22.2984 20.4493 23.2489C21.22 24.2252 22.1448 25.3298 22.1448 25.3298ZM10.1989 13.3326C8.7346 13.3326 7.57855 14.6171 7.57855 16.1842C7.57855 17.7513 8.76029 19.0358 10.1989 19.0358C11.6633 19.0358 12.8193 17.7513 12.8193 16.1842C12.845 14.6171 11.6633 13.3326 10.1989 13.3326ZM19.5758 13.3326C18.1115 13.3326 16.9554 14.6171 16.9554 16.1842C16.9554 17.7513 18.1371 19.0358 19.5758 19.0358C21.0401 19.0358 22.1962 17.7513 22.1962 16.1842C22.1962 14.6171 21.0401 13.3326 19.5758 13.3326Z" fill="currentColor"/>
  </g>
  <defs>
    <clipPath id="clip0_2085_30846">
      <rect width="30" height="30" fill="white"/>
    </clipPath>
  </defs>
</svg>
