<svg width="30" height="30" viewBox="0 0 30 30" fill="none"
  xmlns="http://www.w3.org/2000/svg">
  <path fill-rule="evenodd" clip-rule="evenodd" d="M2.61134 26.6279L9.22509 25.1579C11.0359 26.126 13.058 26.631 15.1113 26.6279C22.0151 26.6279 27.6113 21.0317 27.6113 14.1279C27.6113 7.22418 22.0151 1.62793 15.1113 1.62793C8.20759 1.62793 2.61134 7.22418 2.61134 14.1279C2.60825 16.1812 3.11326 18.2034 4.08134 20.0142L2.61134 26.6279ZM16.379 10.9569C17.4971 9.93709 18.5563 9.4198 19.5274 9.4198C21.8518 9.4198 23.7421 11.3338 23.7495 13.6911C23.7495 14.0311 23.7053 14.3636 23.6317 14.6814C23.629 14.6929 23.6224 14.7179 23.6105 14.7538C23.1361 16.5758 21.4893 17.9256 19.5369 17.9329C17.9218 17.9329 16.2896 16.3823 15.079 14.9835L15.0721 14.9918C15.0721 14.9918 14.5278 14.3784 13.932 13.7207C13.932 13.7207 13.2552 12.9374 12.5344 12.2501C12.338 12.0632 11.6043 11.4714 10.7312 11.1231C10.6776 11.1154 10.63 11.1124 10.5882 11.1124C9.19057 11.1272 8.05778 12.2726 8.05778 13.6767C8.05778 15.0955 9.19057 16.241 10.5882 16.241C10.956 16.241 11.6106 16.0488 12.6037 15.1473C13.1406 14.6595 13.604 14.1201 13.9277 13.7211C14.5235 14.3787 15.0678 14.9921 15.0678 14.9921C14.7294 15.406 14.266 15.9232 13.7364 16.4036C12.6183 17.4234 11.5591 17.9407 10.5882 17.9407C8.2564 17.9407 6.36597 16.0267 6.36597 13.6693C6.36597 13.3294 6.41011 12.9968 6.48366 12.6791C6.48876 12.6573 6.50804 12.5872 6.5498 12.4862C7.06172 10.7216 8.68052 9.42691 10.5925 9.4198C12.2071 9.4198 13.8387 10.9693 15.0442 12.3678L15.0499 12.3609L15.0519 12.3631C15.3899 11.9502 15.8516 11.4352 16.379 10.9569ZM19.5274 16.248C19.5052 16.248 19.4814 16.2472 19.4559 16.2453C18.5539 15.9058 17.7893 15.2945 17.5876 15.1026C16.8892 14.4368 16.2323 13.6808 16.192 13.6342C16.5154 13.2357 16.9772 12.6988 17.5118 12.2132C18.5048 11.3042 19.1521 11.1195 19.5274 11.1195C20.9249 11.1195 22.0577 12.2649 22.0577 13.6838C22.0577 15.0878 20.9249 16.2332 19.5274 16.248Z" fill="currentColor"/>
</svg>
