<svg width="30" height="30" viewBox="0 0 30 30" fill="none"
  xmlns="http://www.w3.org/2000/svg">
  <path d="M2.77778 1.25H27.2222C27.6274 1.25 28.016 1.41096 28.3025 1.69748C28.589 1.98399 28.75 2.37259 28.75 2.77778V27.2222C28.75 27.6274 28.589 28.016 28.3025 28.3025C28.016 28.589 27.6274 28.75 27.2222 28.75H2.77778C2.37259 28.75 1.98399 28.589 1.69748 28.3025C1.41096 28.016 1.25 27.6274 1.25 27.2222V2.77778C1.25 2.37259 1.41096 1.98399 1.69748 1.69748C1.98399 1.41096 2.37259 1.25 2.77778 1.25ZM23.0972 21.0194C22.9444 20.9431 22.8681 20.7139 22.8681 20.5596V8.89806C22.8681 8.74528 22.9444 8.51611 23.0972 8.36181L24.5562 6.67361V6.59722H19.3389L15.4278 16.4942L10.9758 6.59722H5.60722V6.67361L6.98681 8.5925C7.29389 8.89806 7.37028 9.35944 7.37028 9.74292V18.1808C7.44667 18.6422 7.37028 19.1785 7.14111 19.6383L5.06944 22.4769V22.5533H10.5939V22.4769L8.52222 19.7162C8.29306 19.2549 8.21514 18.795 8.29306 18.2588V10.5847C8.36944 10.7375 8.44583 10.7375 8.52222 11.0446L13.7381 22.7061H13.8144L18.8806 10.05C18.8042 10.5083 18.8042 11.0461 18.8042 11.4311V20.4832C18.8042 20.7124 18.7278 20.8651 18.575 21.0194L17.0396 22.4769V22.5533H24.5578V22.4769L23.1003 21.0194H23.0972Z" fill="currentColor"/>
</svg>
