<svg width="30" height="30" viewBox="0 0 30 30" fill="none"
  xmlns="http://www.w3.org/2000/svg">
  <path d="M15 30C6.7155 30 0 23.2845 0 15C0 6.7155 6.7155 0 15 0C23.2845 0 30 6.7155 30 15C30 23.2845 23.2845 30 15 30ZM25.005 15C24.9896 14.5778 24.8523 14.169 24.6098 13.8231C24.3673 13.4771 24.0299 13.2086 23.6383 13.0501C23.2467 12.8915 22.8175 12.8496 22.4027 12.9295C21.9878 13.0093 21.6048 13.2074 21.3 13.5C19.5936 12.3401 17.5878 11.6993 15.525 11.655L16.5 6.975L19.71 7.65C19.7482 8.00472 19.9115 8.33423 20.1707 8.57938C20.4299 8.82452 20.768 8.96925 21.1243 8.98758C21.4806 9.00591 21.8318 8.89665 22.1148 8.6794C22.3978 8.46215 22.5941 8.15114 22.6684 7.80221C22.7428 7.45328 22.6904 7.08926 22.5205 6.77551C22.3507 6.46175 22.0746 6.21881 21.7418 6.09028C21.409 5.96175 21.0412 5.95606 20.7046 6.07422C20.368 6.19238 20.0845 6.42666 19.905 6.735L16.23 6C16.1699 5.98681 16.1078 5.98569 16.0472 5.99669C15.9867 6.00769 15.9289 6.0306 15.8773 6.06408C15.8257 6.09757 15.7812 6.14097 15.7465 6.19176C15.7118 6.24256 15.6875 6.29974 15.675 6.36L14.565 11.565C12.4768 11.5965 10.4434 12.2378 8.715 13.41C8.48376 13.1924 8.20798 13.0277 7.90677 12.9273C7.60555 12.8269 7.28611 12.7933 6.97058 12.8286C6.65505 12.8639 6.35097 12.9674 6.07943 13.132C5.80788 13.2965 5.57535 13.5181 5.39796 13.7814C5.22058 14.0448 5.10257 14.3435 5.05211 14.657C5.00166 14.9705 5.01997 15.2911 5.10578 15.5968C5.19158 15.9025 5.34283 16.1859 5.54904 16.4273C5.75525 16.6687 6.01149 16.8624 6.3 16.995C6.28311 17.2147 6.28311 17.4353 6.3 17.655C6.3 21.015 10.215 23.745 15.045 23.745C19.875 23.745 23.79 21.015 23.79 17.655C23.8069 17.4353 23.8069 17.2147 23.79 16.995C24.1602 16.811 24.4707 16.526 24.6857 16.173C24.9007 15.82 25.0114 15.4133 25.005 15ZM10.005 16.5C10.005 16.1022 10.163 15.7206 10.4443 15.4393C10.7256 15.158 11.1072 15 11.505 15C11.9028 15 12.2844 15.158 12.5657 15.4393C12.847 15.7206 13.005 16.1022 13.005 16.5C13.005 16.8978 12.847 17.2794 12.5657 17.5607C12.2844 17.842 11.9028 18 11.505 18C11.1072 18 10.7256 17.842 10.4443 17.5607C10.163 17.2794 10.005 16.8978 10.005 16.5ZM18.72 20.625C17.6558 21.427 16.3464 21.8352 15.015 21.78C13.6836 21.8352 12.3742 21.427 11.31 20.625C11.2462 20.5473 11.2136 20.4486 11.2185 20.3482C11.2235 20.2478 11.2656 20.1528 11.3367 20.0817C11.4078 20.0106 11.5028 19.9685 11.6032 19.9636C11.7036 19.9586 11.8023 19.9912 11.88 20.055C12.7818 20.7165 13.8827 21.0499 15 21C16.1187 21.0608 17.2247 20.738 18.135 20.085C18.1734 20.042 18.2202 20.0074 18.2725 19.9833C18.3248 19.9592 18.3815 19.9461 18.4391 19.9448C18.4967 19.9436 18.5539 19.9542 18.6072 19.976C18.6605 19.9977 18.7088 20.0303 18.749 20.0715C18.7892 20.1128 18.8205 20.1618 18.841 20.2157C18.8614 20.2695 18.8706 20.327 18.8678 20.3846C18.8651 20.4421 18.8506 20.4985 18.8251 20.5502C18.7997 20.6018 18.7639 20.6477 18.72 20.685V20.625ZM18.45 18.06C18.1533 18.06 17.8633 17.972 17.6166 17.8072C17.37 17.6424 17.1777 17.4081 17.0642 17.134C16.9506 16.8599 16.9209 16.5583 16.9788 16.2674C17.0367 15.9764 17.1796 15.7091 17.3893 15.4993C17.5991 15.2896 17.8664 15.1467 18.1574 15.0888C18.4483 15.0309 18.7499 15.0606 19.024 15.1742C19.2981 15.2877 19.5324 15.48 19.6972 15.7266C19.862 15.9733 19.95 16.2633 19.95 16.56C19.9581 16.7632 19.9249 16.966 19.8522 17.156C19.7795 17.346 19.669 17.5192 19.5273 17.6651C19.3856 17.811 19.2157 17.9266 19.0279 18.0048C18.8401 18.083 18.6384 18.1222 18.435 18.12L18.45 18.06Z" fill="currentColor"/>
</svg>
