<svg width="30" height="30" viewBox="0 0 30 30" fill="none"
  xmlns="http://www.w3.org/2000/svg">
  <path d="M28.4198 7.26281C29.0625 9.76875 29.0625 15 29.0625 15C29.0625 15 29.0625 20.2313 28.4198 22.7372C28.0627 24.1223 27.0178 25.2122 25.6945 25.5806C23.2913 26.25 15 26.25 15 26.25C15 26.25 6.71297 26.25 4.30547 25.5806C2.97656 25.2066 1.93313 24.1181 1.58016 22.7372C0.9375 20.2313 0.9375 15 0.9375 15C0.9375 15 0.9375 9.76875 1.58016 7.26281C1.93734 5.87766 2.98219 4.78781 4.30547 4.41937C6.71297 3.75 15 3.75 15 3.75C15 3.75 23.2913 3.75 25.6945 4.41937C27.0234 4.79344 28.0669 5.88188 28.4198 7.26281ZM12.1875 19.9219L20.625 15L12.1875 10.0781V19.9219Z" fill="currentColor"/>
</svg>
