<svg fill="none" viewBox="0 0 540 540" xmlns="http://www.w3.org/2000/svg" xmlns:xlink="http://www.w3.org/1999/xlink"><linearGradient id="a" gradientUnits="userSpaceOnUse" x1="280.98" x2="280.98" y1="419.7" y2="82.9997"><stop offset=".03" stop-color="#28aae1"/><stop offset="1" stop-color="#2a3b8e"/></linearGradient><linearGradient id="b" gradientUnits="userSpaceOnUse" x1="186.96" x2="186.96" y1="419.22" y2="84.0803"><stop offset="0" stop-color="#ea2b7b"/><stop offset="1" stop-color="#2a3b8e"/></linearGradient><linearGradient id="c"><stop offset="0" stop-color="#ea2b7b"/><stop offset="1" stop-color="#8f288c"/></linearGradient><linearGradient id="d" gradientUnits="userSpaceOnUse" x1="161.135" x2="161.135" xlink:href="#c" y1="250.002" y2="175.732"/><linearGradient id="e" gradientUnits="userSpaceOnUse" x1="65.4083" x2="66.5003" xlink:href="#c" y1="255.832" y2="188.993"/><linearGradient id="f" gradientUnits="userSpaceOnUse" x1="177.744" x2="174.829" y1="122.801" y2="98.1728"><stop offset="0" stop-color="#fff" stop-opacity="0"/><stop offset="1" stop-color="#fff"/></linearGradient><mask id="g" height="336" maskUnits="userSpaceOnUse" width="310" x="32" y="84"><path d="m254.54 274.82c5.34 45.07 77.64 42.73 78.27 78.83.76 43.59-66.5 58.87-113.25 64.4-91.87 10.86-175.1502-54.74-186.0002-146.53s54.78-174.9997 146.6402-185.8597c65.31-7.72 161.38 12.6 161.38 67.5497-.02 24.65-90.18 95.08-87.04 121.61z" fill="#fff"/></mask><mask id="h" height="76" maskUnits="userSpaceOnUse" width="46" x="138" y="175"><path d="m183.513 213.438c.336-20.509-9.419-37.3-21.788-37.503-12.37-.203-22.67 16.259-23.006 36.768-.337 20.509 9.418 37.299 21.787 37.502 12.37.203 22.67-16.258 23.007-36.767z" fill="#fff"/></mask><mask id="i" height="68" maskUnits="userSpaceOnUse" width="31" x="46" y="177"><path d="m76.8381 211.855c.5207-18.527-5.8821-33.738-14.3011-33.975s-15.6661 14.591-16.1869 33.118c-.5207 18.528 5.8821 33.739 14.3011 33.975 8.419.237 15.6661-14.591 16.1869-33.118z" fill="#fff"/></mask><path d="m221.72 83.1804c118-1 198.21 44.0596 230.26 60.3996 38.22 19.49 47.62 33.4 44.93 44.71-4.91 20.71-100.1 14.71-100.32 22.05s86.75 21.58 83.86 52.36-99.34 34.2-99.36 45.88c0 13.42 70.84 29.36 69.32 50.55-1 14.57-66.3 48.87-214.21 60.06-191.4197 14.47-148.4797-143.34-139.6697-212 6.3197-49.31-13.7101-122.7996 125.1897-124.0096z" fill="#3dc5ee"/><path d="m212.41 83.1797c86.22-2.66 159.09 25.2503 202 46.4603 58.73 29 71 43.15 70.11 54.86-1.7 21.59-110 7.28-111.41 20.18s91.56 25.25 88.65 56.32-98.93 34.49-101.76 45.94c-3.75 15.06 68.69 33.67 67.65 50.22s-71 49-188.44 60.86c-196.4803 19.78-162.9203-140-154.0003-209.42 6.34-49.72-12.96-121.1003 127.2003-125.4203z" fill="url(#a)"/><path d="m254.54 274.82c5.34 45.07 77.64 42.73 78.27 78.83.76 43.59-66.5 58.87-113.25 64.4-91.87 10.86-175.1502-54.74-186.0002-146.53s54.78-174.9997 146.6402-185.8597c65.31-7.72 161.38 12.6 161.38 67.5497-.02 24.65-90.18 95.08-87.04 121.61z" fill="url(#b)"/><g mask="url(#g)"><path d="m132.19 306.97c62.419 0 113.02-36.708 113.02-81.99s-50.601-81.99-113.02-81.99c-62.4193 0-113.0201 36.708-113.0201 81.99s50.6008 81.99 113.0201 81.99z" fill="#3a2416"/></g><path d="m183.513 213.438c.336-20.509-9.419-37.3-21.788-37.503-12.37-.203-22.67 16.259-23.006 36.768-.337 20.509 9.418 37.299 21.787 37.502 12.37.203 22.67-16.258 23.007-36.767z" fill="url(#d)"/><g mask="url(#h)"><path d="m197.085 213.44c.336-20.509-9.418-37.3-21.788-37.503-12.369-.203-22.67 16.259-23.006 36.768-.337 20.509 9.418 37.299 21.788 37.502 12.369.203 22.669-16.258 23.006-36.767z" fill="#f7ea2f"/></g><path d="m76.8381 211.855c.5207-18.527-5.8821-33.738-14.3011-33.975s-15.6661 14.591-16.1869 33.118c-.5207 18.528 5.8821 33.739 14.3011 33.975 8.419.237 15.6661-14.591 16.1869-33.118z" fill="url(#e)"/><g mask="url(#i)"><path d="m89.926 210.142c.5207-18.527-5.8821-33.738-14.3011-33.975s-15.6661 14.591-16.1869 33.118c-.5207 18.528 5.8821 33.739 14.3011 33.975 8.419.237 15.6661-14.59 16.1869-33.118z" fill="#f7ea2f"/></g><path d="m236.68 483c67.202 0 121.68-7.495 121.68-16.74 0-9.246-54.478-16.74-121.68-16.74s-121.68 7.494-121.68 16.74c0 9.245 54.478 16.74 121.68 16.74z" fill="#4a3f5a"/><path d="m236.661 106.91c.8 6.76-23.43 11.53-55.72 15.35s-63 9-63.8 2.25 28.61-22.91 60.9-26.7299c32.29-3.82 57.82 2.3699 58.62 9.1299z" fill="url(#f)" opacity=".5"/><path d="m494.631 318.91c-.07 9-10.37 16.23-23 16.13s-42.39-7.65-42.32-16.66 30-16.07 42.58-16 22.81 7.52 22.74 16.53zm13.729-102.18c.15 4.5-4.83 8.32-11.14 8.54s-21.34-2.91-21.5-7.41 14.62-8.67 20.93-8.89 11.55 3.25 11.71 7.76z" fill="#3dc5ee"/></svg>