<svg width="79" height="48" viewBox="0 0 79 48" fill="none" xmlns="http://www.w3.org/2000/svg">
<path d="M74.5403 47.6148L73.2275 43.9189H66.1744L64.8616 47.6148H60.5885L67.4614 29.418H72.1721L78.9677 47.6148H74.5403ZM69.7524 33.9351L67.5129 40.2231H71.9404L69.7524 33.9351Z" fill="#110128"/>
<path d="M46.6442 41.994V40.7877L50.5054 40.1204V41.7887C50.5054 43.4056 51.5351 44.1499 52.7192 44.1499C54.0577 44.1499 54.8557 43.1746 54.8557 41.8144V29.418H58.9228V41.917C58.9228 45.2279 56.3744 47.9997 52.7449 47.9997C49.1411 47.9997 46.6442 45.6128 46.6442 41.994Z" fill="#110128"/>
<path d="M44.0864 47.6148H39.7876L32.2712 35.6547V47.6148H28.2298V29.418H33.1722L40.0193 40.4798V29.418H44.0864V47.6148Z" fill="#110128"/>
<path d="M24.1032 47.6148H19.9846V29.418H24.1032V47.6148Z" fill="#110128"/>
<path d="M15.8566 47.6148H11.5578L4.04137 35.6547V47.6148H0V29.418H4.94231L11.7895 40.4798V29.418H15.8566V47.6148Z" fill="#110128"/>
<path d="M32.021 12.77H34.3892C35.9337 12.77 36.9891 11.8717 36.9891 10.4601C36.9891 8.99718 35.9337 8.12456 34.3892 8.12456H32.021V12.77ZM34.8011 16.2605H31.9953V22.8052H27.9282V4.6084H34.8011C38.5078 4.6084 41.0562 7.04661 41.0562 10.4344C41.0562 13.8736 38.5078 16.2605 34.8011 16.2605Z" fill="#0C0025"/>
<path d="M16.6626 23.1904C11.4114 23.1904 7.18983 19.4176 7.18983 13.7455C7.18983 8.07345 11.5144 4.22363 16.6111 4.22363C22.094 4.22363 24.5137 7.7398 25.1057 10.3577L21.2703 11.5639C20.9871 10.3063 19.8288 8.17611 16.6111 8.17611C14.1657 8.17611 11.4114 9.92136 11.4114 13.7455C11.4114 17.159 13.934 19.1352 16.6626 19.1352C19.8288 19.1352 21.0901 17.0307 21.4505 15.7217L25.3374 16.8254C24.7453 19.3406 22.3257 23.1904 16.6626 23.1904Z" fill="#0C0025"/>
<path d="M4.11859 22.8052H0V4.6084H4.11859V22.8052Z" fill="#0C0025"/>
<path fill-rule="evenodd" clip-rule="evenodd" d="M44.0567 4.56238L54.91 7.88183L64.2161 1.2629L60.6859 12.1037L68.0258 21.5795L56.6033 17.7312L47.1066 24.7248L50.7624 13.4694L44.0567 4.56238ZM55.9595 14.0271C56.6596 13.8647 57.0957 13.1716 56.9336 12.4791C56.7715 11.7866 56.0725 11.3569 55.3724 11.5193C54.6723 11.6817 54.2362 12.3747 54.3983 13.0672C54.5604 13.7597 55.2594 14.1895 55.9595 14.0271Z" fill="#FF00A8"/>
</svg>
