<svg version="1.1" xmlns="http://www.w3.org/2000/svg" viewBox="0 0 1086.5036615818353 805.5208333333333" width="2173.0073231636707" height="1611.0416666666665">
  <!-- svg-source:excalidraw -->
  
  <defs>
    <style class="style-fonts">
      @font-face {
        font-family: "Virgil";
        src: url("https://excalidraw.com/Virgil.woff2");
      }
      @font-face {
        font-family: "Cascadia";
        src: url("https://excalidraw.com/Cascadia.woff2");
      }
      @font-face {
        font-family: "Assistant";
        src: url("https://excalidraw.com/Assistant-Regular.woff2");
      }
    </style>
    
  </defs>
  <g stroke-linecap="round" transform="translate(10 10) rotate(0 528.9501953125 392.76041666666663)"><path d="M32 0 C245.57 -3, 457.13 -1.95, 1025.9 0 M32 0 C256.07 1.72, 479.77 1.65, 1025.9 0 M1025.9 0 C1046.1 1.02, 1057.6 10.99, 1057.9 32 M1025.9 0 C1046.24 0.67, 1056.68 9.21, 1057.9 32 M1057.9 32 C1059.94 200.78, 1059.7 370.05, 1057.9 753.52 M1057.9 32 C1059.74 269.33, 1059.06 507.51, 1057.9 753.52 M1057.9 753.52 C1059.32 773.93, 1046.39 786.46, 1025.9 785.52 M1057.9 753.52 C1056.17 772.59, 1049.23 785.36, 1025.9 785.52 M1025.9 785.52 C712.28 783.01, 400.01 782.78, 32 785.52 M1025.9 785.52 C663.55 787.8, 300.37 787.79, 32 785.52 M32 785.52 C9.29 786.86, 1.63 775.48, 0 753.52 M32 785.52 C9.71 783.81, 0.57 776.73, 0 753.52 M0 753.52 C1.33 488.9, 0.7 226.24, 0 32 M0 753.52 C1.48 568.14, 0.69 383.58, 0 32 M0 32 C-1.5 11.57, 11.02 1.58, 32 0 M0 32 C0.48 12.42, 9.9 -1.07, 32 0" stroke="#1e1e1e" stroke-width="2" fill="none"></path></g><g transform="translate(431.74580383300804 282.7376302083333) rotate(0 112.01396179199219 22.5)"><text x="112.01396179199219" y="31.536" font-family="Virgil, Segoe UI Emoji" font-size="36px" fill="#1e1e1e" text-anchor="middle" style="white-space: pre;" direction="ltr" dominant-baseline="alphabetic">Wasm module</text></g><g stroke-opacity="0" fill-opacity="0" stroke-linecap="round" transform="translate(348.3666511586366 568.1030880163477) rotate(0 69.90695261056658 69.90695261056658)"><path d="M64.04 -0.12 C73.38 -1.84, 85.46 1.72, 94.92 5.35 C104.38 8.97, 113.73 14.52, 120.77 21.64 C127.82 28.76, 134.13 38.45, 137.19 48.06 C140.25 57.67, 140.64 69.24, 139.11 79.31 C137.58 89.37, 133.61 99.81, 128 108.45 C122.38 117.09, 114.22 126.09, 105.43 131.15 C96.63 136.2, 85.45 138.26, 75.22 138.76 C64.99 139.26, 53.45 137.61, 44.06 134.14 C34.66 130.67, 25.68 125.06, 18.85 117.95 C12.02 110.84, 6.17 101.15, 3.07 91.49 C-0.02 81.83, -1.05 70.15, 0.27 59.97 C1.59 49.79, 5.17 38.67, 11 30.41 C16.82 22.16, 25.87 15.52, 35.21 10.43 C44.54 5.33, 61.37 1.35, 67.01 -0.15 C72.65 -1.65, 68.96 0.2, 69.07 1.43 M39.29 6.55 C47.41 1.56, 58.8 -0.26, 69.05 -0.09 C79.29 0.08, 91.25 3.27, 100.77 7.55 C110.3 11.83, 120.03 17.79, 126.2 25.6 C132.37 33.41, 135.72 44.25, 137.79 54.41 C139.86 64.58, 141.03 76.51, 138.64 86.61 C136.25 96.7, 129.97 107.24, 123.45 114.97 C116.93 122.7, 108.49 128.86, 99.5 132.98 C90.52 137.1, 79.5 139.55, 69.56 139.69 C59.61 139.83, 49.05 137.98, 39.85 133.82 C30.64 129.66, 20.57 122.95, 14.35 114.75 C8.14 106.55, 4.62 94.69, 2.56 84.61 C0.5 74.53, -0.19 63.95, 1.97 54.27 C4.12 44.6, 9 34.31, 15.5 26.58 C22 18.85, 36.59 10.92, 40.98 7.88 C45.37 4.84, 41.4 7.38, 41.86 8.35" stroke="#1e1e1e" stroke-width="1" fill="none"></path></g><g transform="translate(316.98733383091053 647.8014957746425) rotate(0 104.21996307373047 45)"><text x="104.21996307373047" y="31.536" font-family="Virgil, Segoe UI Emoji" font-size="36px" fill="#1e1e1e" text-anchor="middle" style="white-space: pre;" direction="ltr" dominant-baseline="alphabetic">Wasm heap </text><text x="104.21996307373047" y="76.536" font-family="Virgil, Segoe UI Emoji" font-size="36px" fill="#1e1e1e" text-anchor="middle" style="white-space: pre;" direction="ltr" dominant-baseline="alphabetic">storage</text></g><g stroke-linecap="round"><g transform="translate(343.8655654407985 532.828609853548) rotate(0 76.02524056860568 8.1390638308946)"><path d="M0.13 -0.33 C0.17 8.01, -2.23 39.33, 0.05 50.92 C2.33 62.51, 8.36 64.6, 13.81 69.19 C19.26 73.79, 25.32 76.36, 32.73 78.5 C40.13 80.64, 48.29 81.43, 58.25 82.03 C68.21 82.63, 82.79 82.84, 92.49 82.11 C102.19 81.37, 109.01 79.73, 116.43 77.61 C123.84 75.5, 131.99 72.82, 136.98 69.42 C141.97 66.01, 144.14 62.51, 146.39 57.17 C148.64 51.83, 149.5 50.39, 150.49 37.38 C151.47 24.37, 152.12 -7.7, 152.31 -20.9 C152.51 -34.1, 154.76 -35.91, 151.63 -41.83 C148.51 -47.74, 143.15 -52.51, 133.57 -56.38 C123.99 -60.24, 107.37 -63.53, 94.14 -65.03 C80.91 -66.53, 66.43 -66.67, 54.19 -65.38 C41.95 -64.09, 29.07 -61.24, 20.69 -57.29 C12.32 -53.34, 7.27 -47.16, 3.92 -41.7 C0.57 -36.24, 1.32 -31.37, 0.6 -24.51 C-0.13 -17.65, -0.26 -4.58, -0.43 -0.53 M-1.27 -1.54 C-1.4 6.91, -3.57 40.35, -1.12 52.35 C1.34 64.34, 7.82 66.44, 13.45 70.43 C19.09 74.43, 24.95 74.32, 32.69 76.32 C40.43 78.32, 49.75 81.63, 59.88 82.43 C70.02 83.24, 84.02 82.15, 93.49 81.14 C102.97 80.14, 109.56 78.46, 116.73 76.42 C123.9 74.38, 131.33 71.8, 136.51 68.9 C141.7 66, 145.51 64.36, 147.86 59.03 C150.21 53.69, 149.82 50.06, 150.64 36.88 C151.46 23.71, 152.78 -6.77, 152.77 -20 C152.77 -33.24, 153.76 -36.85, 150.61 -42.54 C147.46 -48.22, 143.44 -50.41, 133.87 -54.14 C124.29 -57.86, 106.91 -62.89, 93.17 -64.86 C79.42 -66.83, 63.33 -67.36, 51.41 -65.97 C39.48 -64.57, 29.72 -60.7, 21.6 -56.5 C13.48 -52.3, 6.38 -46.06, 2.68 -40.76 C-1.01 -35.47, -0.4 -31.4, -0.58 -24.7 C-0.75 -18, 1.54 -4.93, 1.62 -0.56" stroke="#1e1e1e" stroke-width="1" fill="none"></path></g></g><mask></mask><g stroke-linecap="round"><g transform="translate(345.0292170821542 498.13935542398656) rotate(0 75.83129862837961 15.709297158308829)"><path d="M-0.41 -0.22 C2.41 2.85, 8.1 12.88, 17.07 18.08 C26.03 23.28, 40.75 28.74, 53.38 30.97 C66 33.19, 80.31 33.09, 92.81 31.45 C105.31 29.8, 118.68 25.64, 128.38 21.09 C138.09 16.54, 146.97 7.1, 151.02 4.17 M1.57 -1.37 C4.3 1.91, 8.07 14.48, 16.53 19.54 C24.99 24.6, 39.67 26.82, 52.33 29 C64.99 31.17, 79.53 33.81, 92.5 32.57 C105.47 31.33, 120.23 26.44, 130.16 21.56 C140.1 16.68, 148.75 5.93, 152.1 3.29" stroke="#1e1e1e" stroke-width="1" fill="none"></path></g></g><mask></mask><g stroke-linecap="round"><g transform="translate(343.78384397272737 530.9686817322249) rotate(0 75.83129862837956 15.709297158308829)"><path d="M0.78 -0.15 C3.47 3.04, 7.07 13.87, 15.75 18.94 C24.43 24.01, 39.97 28.18, 52.86 30.28 C65.75 32.39, 80.47 33.07, 93.09 31.56 C105.7 30.06, 118.59 25.91, 128.53 21.24 C138.47 16.57, 149.04 6.57, 152.73 3.54 M-0.27 -1.27 C2.25 1.59, 5.28 11.71, 14.52 17.19 C23.77 22.67, 42.13 29.03, 55.19 31.62 C68.26 34.21, 80.39 34.38, 92.92 32.74 C105.45 31.1, 120.69 26.86, 130.38 21.79 C140.07 16.72, 147.63 5.12, 151.04 2.32" stroke="#1e1e1e" stroke-width="1" fill="none"></path></g></g><mask></mask><g stroke-linecap="round"><g transform="translate(342.71772890378793 554.7535238225792) rotate(0 75.83129862837961 15.7092971583088)"><path d="M-0.54 0.71 C1.87 3.78, 6.29 13.31, 15.23 18.26 C24.18 23.21, 40.13 28.16, 53.13 30.4 C66.13 32.64, 80.38 33.34, 93.23 31.71 C106.08 30.08, 120.66 25.38, 130.23 20.61 C139.8 15.84, 147.29 5.89, 150.67 3.09 M1.38 0.04 C4.08 3.33, 8.35 14.52, 17.39 19.81 C26.43 25.11, 42.99 29.6, 55.62 31.79 C68.24 33.99, 80.86 34.8, 93.14 32.97 C105.42 31.14, 119.58 25.43, 129.32 20.82 C139.05 16.21, 148.03 8.36, 151.56 5.3" stroke="#1e1e1e" stroke-width="1" fill="none"></path></g></g><mask></mask><g transform="translate(32.87981669108058 668.2373078352965) rotate(0 111.10325622558594 21.591549295774655)"><text x="111.10325622558594" y="30.877971830985917" font-family="Virgil, Segoe UI Emoji" font-size="32.901408450704224px" fill="#000000" text-anchor="middle" style="white-space: pre;" direction="ltr" dominant-baseline="alphabetic">Canister code</text></g><g stroke-linecap="round" transform="translate(69.91527979710077 457.86346602942865) rotate(0 73.52738122576227 94.66452876223798)"><path d="M32 0 C51.47 -2.39, 66.7 0.48, 115.05 0 M32 0 C51.13 -1.03, 70.99 -0.99, 115.05 0 M115.05 0 C137.08 1.9, 147.63 10.11, 147.05 32 M115.05 0 C137.5 -1.36, 146.96 11.17, 147.05 32 M147.05 32 C148.24 73.72, 146.7 115.19, 147.05 157.33 M147.05 32 C147.49 57.18, 147.15 83.5, 147.05 157.33 M147.05 157.33 C146.38 179.01, 135.53 190.05, 115.05 189.33 M147.05 157.33 C147.27 179.42, 134.42 187.27, 115.05 189.33 M115.05 189.33 C82.73 190.41, 47.03 189.35, 32 189.33 M115.05 189.33 C89.25 188.92, 62.93 189.44, 32 189.33 M32 189.33 C11.24 191.03, 1.58 179.68, 0 157.33 M32 189.33 C11.48 189.23, -2.16 179.29, 0 157.33 M0 157.33 C-0.69 115.45, -0.15 77.65, 0 32 M0 157.33 C-0.39 110.98, 0.39 62.48, 0 32 M0 32 C-1.58 10.4, 9.34 -0.56, 32 0 M0 32 C0.35 12.82, 11.09 1.94, 32 0" stroke="#000000" stroke-width="1" fill="none"></path></g><g stroke-linecap="round"><g transform="translate(88.53336600955646 514.5097730571093) rotate(0 56.32118540457131 -3.518969391372906)"><path d="M-1.05 -1.17 C5.28 -4.01, 26.36 -18.08, 38.87 -16.34 C51.38 -14.6, 61.84 8.96, 74.02 9.27 C86.2 9.57, 105.61 -10.55, 111.96 -14.51 M0.61 0.83 C6.75 -1.93, 25.64 -16.28, 38.28 -15.2 C50.91 -14.12, 64.14 7.06, 76.4 7.3 C88.67 7.54, 105.57 -10.12, 111.85 -13.74" stroke="#000000" stroke-width="1" fill="none"></path></g></g><mask></mask><g stroke-linecap="round"><g transform="translate(88.36330338128278 559.7663565329788) rotate(0 56.32118540457131 -3.518969391372906)"><path d="M0.68 -0.75 C7.05 -3.04, 24.95 -16.31, 37.22 -14.87 C49.49 -13.42, 61.83 7.53, 74.32 7.91 C86.81 8.3, 105.7 -9.43, 112.15 -12.55 M-0.43 1.46 C6.41 -1.06, 27.15 -17.85, 39.42 -16.61 C51.69 -15.37, 61.07 8.09, 73.19 8.9 C85.31 9.71, 105.71 -8.02, 112.14 -11.75" stroke="#000000" stroke-width="1" fill="none"></path></g></g><mask></mask><g stroke-linecap="round"><g transform="translate(90.59744140651497 595.8824299208262) rotate(0 56.32118540457131 -3.518969391372906)"><path d="M-0.98 0.72 C5.16 -1.86, 24.93 -17.43, 37.51 -16.22 C50.1 -15.01, 61.92 7.06, 74.51 7.96 C87.1 8.86, 106.64 -7.44, 113.05 -10.82 M0.71 0.05 C7.19 -2.31, 27.74 -16.5, 39.87 -15.02 C52 -13.53, 61.21 8.59, 73.48 8.97 C85.76 9.34, 107.15 -9.27, 113.52 -12.77" stroke="#000000" stroke-width="1" fill="none"></path></g></g><mask></mask><g stroke-linecap="round" transform="translate(628.207760027985 458.10319010416663) rotate(0 56.912000058302226 17.992358762826484)"><path d="M113.82 17.99 C113.82 18.85, 113.63 19.71, 113.24 20.55 C112.86 21.4, 112.28 22.24, 111.52 23.06 C110.76 23.88, 109.8 24.69, 108.68 25.47 C107.56 26.24, 106.25 27, 104.79 27.72 C103.33 28.44, 101.69 29.13, 99.92 29.77 C98.16 30.42, 96.22 31.03, 94.18 31.59 C92.14 32.15, 89.95 32.67, 87.68 33.13 C85.41 33.59, 83.01 34, 80.55 34.36 C78.1 34.71, 75.54 35.02, 72.95 35.26 C70.36 35.5, 67.68 35.68, 65.01 35.8 C62.34 35.92, 59.61 35.98, 56.91 35.98 C54.21 35.98, 51.48 35.92, 48.81 35.8 C46.14 35.68, 43.47 35.5, 40.88 35.26 C38.29 35.02, 35.73 34.71, 33.27 34.36 C30.81 34, 28.41 33.59, 26.14 33.13 C23.87 32.67, 21.68 32.15, 19.64 31.59 C17.6 31.03, 15.67 30.42, 13.9 29.77 C12.13 29.13, 10.49 28.44, 9.03 27.72 C7.57 27, 6.26 26.24, 5.14 25.47 C4.02 24.69, 3.07 23.88, 2.31 23.06 C1.54 22.24, 0.96 21.4, 0.58 20.55 C0.2 19.71, 0 18.85, 0 17.99 C0 17.14, 0.2 16.28, 0.58 15.43 C0.96 14.59, 1.54 13.74, 2.31 12.92 C3.07 12.1, 4.02 11.29, 5.14 10.52 C6.26 9.74, 7.57 8.98, 9.03 8.26 C10.49 7.55, 12.13 6.85, 13.9 6.21 C15.67 5.56, 17.6 4.95, 19.64 4.39 C21.68 3.84, 23.87 3.32, 26.14 2.86 C28.41 2.39, 30.81 1.98, 33.27 1.63 C35.73 1.27, 38.29 0.97, 40.88 0.73 C43.47 0.49, 46.14 0.3, 48.81 0.18 C51.48 0.06, 54.21 0, 56.91 0 C59.61 0, 62.34 0.06, 65.01 0.18 C67.68 0.3, 70.36 0.49, 72.95 0.73 C75.54 0.97, 78.1 1.27, 80.55 1.63 C83.01 1.98, 85.41 2.39, 87.68 2.86 C89.95 3.32, 92.14 3.84, 94.18 4.39 C96.22 4.95, 98.16 5.56, 99.92 6.21 C101.69 6.85, 103.33 7.55, 104.79 8.26 C106.25 8.98, 107.56 9.74, 108.68 10.52 C109.8 11.29, 110.76 12.1, 111.52 12.92 C112.28 13.74, 112.86 14.59, 113.24 15.43 C113.63 16.28, 113.73 17.57, 113.82 17.99 C113.92 18.42, 113.92 17.57, 113.82 17.99" stroke="none" stroke-width="0" fill="#ffffff"></path><path d="M113.82 17.99 C113.82 18.85, 113.63 19.71, 113.24 20.55 C112.86 21.4, 112.28 22.24, 111.52 23.06 C110.76 23.88, 109.8 24.69, 108.68 25.47 C107.56 26.24, 106.25 27, 104.79 27.72 C103.33 28.44, 101.69 29.13, 99.92 29.77 C98.16 30.42, 96.22 31.03, 94.18 31.59 C92.14 32.15, 89.95 32.67, 87.68 33.13 C85.41 33.59, 83.01 34, 80.55 34.36 C78.1 34.71, 75.54 35.02, 72.95 35.26 C70.36 35.5, 67.68 35.68, 65.01 35.8 C62.34 35.92, 59.61 35.98, 56.91 35.98 C54.21 35.98, 51.48 35.92, 48.81 35.8 C46.14 35.68, 43.47 35.5, 40.88 35.26 C38.29 35.02, 35.73 34.71, 33.27 34.36 C30.81 34, 28.41 33.59, 26.14 33.13 C23.87 32.67, 21.68 32.15, 19.64 31.59 C17.6 31.03, 15.67 30.42, 13.9 29.77 C12.13 29.13, 10.49 28.44, 9.03 27.72 C7.57 27, 6.26 26.24, 5.14 25.47 C4.02 24.69, 3.07 23.88, 2.31 23.06 C1.54 22.24, 0.96 21.4, 0.58 20.55 C0.2 19.71, 0 18.85, 0 17.99 C0 17.14, 0.2 16.28, 0.58 15.43 C0.96 14.59, 1.54 13.74, 2.31 12.92 C3.07 12.1, 4.02 11.29, 5.14 10.52 C6.26 9.74, 7.57 8.98, 9.03 8.26 C10.49 7.55, 12.13 6.85, 13.9 6.21 C15.67 5.56, 17.6 4.95, 19.64 4.39 C21.68 3.84, 23.87 3.32, 26.14 2.86 C28.41 2.39, 30.81 1.98, 33.27 1.63 C35.73 1.27, 38.29 0.97, 40.88 0.73 C43.47 0.49, 46.14 0.3, 48.81 0.18 C51.48 0.06, 54.21 0, 56.91 0 C59.61 0, 62.34 0.06, 65.01 0.18 C67.68 0.3, 70.36 0.49, 72.95 0.73 C75.54 0.97, 78.1 1.27, 80.55 1.63 C83.01 1.98, 85.41 2.39, 87.68 2.86 C89.95 3.32, 92.14 3.84, 94.18 4.39 C96.22 4.95, 98.16 5.56, 99.92 6.21 C101.69 6.85, 103.33 7.55, 104.79 8.26 C106.25 8.98, 107.56 9.74, 108.68 10.52 C109.8 11.29, 110.76 12.1, 111.52 12.92 C112.28 13.74, 112.86 14.59, 113.24 15.43 C113.63 16.28, 113.73 17.57, 113.82 17.99 C113.92 18.42, 113.92 17.57, 113.82 17.99" stroke="#1e1e1e" stroke-width="2" fill="none"></path></g><g stroke-linecap="round"><g transform="translate(743.3078139575559 475.32991657921326) rotate(0 6.380269064832078 74.64914805853542)"><path d="M0 0 C3.62 42.31, 7.23 84.62, 12.76 149.3 M0 0 C3.08 36.03, 6.16 72.05, 12.76 149.3" stroke="#1e1e1e" stroke-width="2" fill="none"></path></g></g><mask></mask><g stroke-linecap="round" transform="translate(620.041015625 602.1696655880752) rotate(0 68.396484375 22.45854710820896)"><path d="M136.79 22.46 C136.79 23.44, 136.6 24.42, 136.21 25.39 C135.82 26.36, 135.23 27.33, 134.46 28.27 C133.69 29.22, 132.73 30.15, 131.59 31.05 C130.45 31.96, 129.12 32.84, 127.63 33.69 C126.14 34.53, 124.47 35.36, 122.66 36.13 C120.85 36.91, 118.86 37.65, 116.76 38.34 C114.66 39.03, 112.39 39.68, 110.03 40.28 C107.67 40.87, 105.17 41.42, 102.59 41.91 C100.02 42.4, 97.32 42.83, 94.57 43.21 C91.82 43.58, 88.97 43.9, 86.1 44.15 C83.22 44.4, 80.27 44.6, 77.32 44.72 C74.37 44.85, 71.37 44.92, 68.4 44.92 C65.42 44.92, 62.42 44.85, 59.47 44.72 C56.52 44.6, 53.57 44.4, 50.69 44.15 C47.82 43.9, 44.97 43.58, 42.22 43.21 C39.47 42.83, 36.78 42.4, 34.2 41.91 C31.62 41.42, 29.12 40.87, 26.76 40.28 C24.4 39.68, 22.14 39.03, 20.03 38.34 C17.93 37.65, 15.95 36.91, 14.13 36.13 C12.32 35.36, 10.65 34.53, 9.16 33.69 C7.68 32.84, 6.35 31.96, 5.21 31.05 C4.07 30.15, 3.1 29.22, 2.33 28.27 C1.56 27.33, 0.97 26.36, 0.59 25.39 C0.2 24.42, 0 23.44, 0 22.46 C0 21.48, 0.2 20.5, 0.59 19.53 C0.97 18.56, 1.56 17.59, 2.33 16.65 C3.1 15.7, 4.07 14.77, 5.21 13.86 C6.35 12.96, 7.68 12.08, 9.16 11.23 C10.65 10.38, 12.32 9.56, 14.13 8.79 C15.95 8.01, 17.93 7.27, 20.03 6.58 C22.14 5.89, 24.4 5.24, 26.76 4.64 C29.12 4.05, 31.62 3.5, 34.2 3.01 C36.78 2.52, 39.47 2.08, 42.22 1.71 C44.97 1.34, 47.82 1.02, 50.69 0.77 C53.57 0.51, 56.52 0.32, 59.47 0.19 C62.42 0.06, 65.42 0, 68.4 0 C71.37 0, 74.37 0.06, 77.32 0.19 C80.27 0.32, 83.22 0.51, 86.1 0.77 C88.97 1.02, 91.82 1.34, 94.57 1.71 C97.32 2.08, 100.02 2.52, 102.59 3.01 C105.17 3.5, 107.67 4.05, 110.03 4.64 C112.39 5.24, 114.66 5.89, 116.76 6.58 C118.86 7.27, 120.85 8.01, 122.66 8.79 C124.47 9.56, 126.14 10.38, 127.63 11.23 C129.12 12.08, 130.45 12.96, 131.59 13.86 C132.73 14.77, 133.69 15.7, 134.46 16.65 C135.23 17.59, 135.82 18.56, 136.21 19.53 C136.6 20.5, 136.7 21.97, 136.79 22.46 C136.89 22.95, 136.89 21.97, 136.79 22.46" stroke="none" stroke-width="0" fill="#ffffff"></path><path d="M136.79 22.46 C136.79 23.44, 136.6 24.42, 136.21 25.39 C135.82 26.36, 135.23 27.33, 134.46 28.27 C133.69 29.22, 132.73 30.15, 131.59 31.05 C130.45 31.96, 129.12 32.84, 127.63 33.69 C126.14 34.53, 124.47 35.36, 122.66 36.13 C120.85 36.91, 118.86 37.65, 116.76 38.34 C114.66 39.03, 112.39 39.68, 110.03 40.28 C107.67 40.87, 105.17 41.42, 102.59 41.91 C100.02 42.4, 97.32 42.83, 94.57 43.21 C91.82 43.58, 88.97 43.9, 86.1 44.15 C83.22 44.4, 80.27 44.6, 77.32 44.72 C74.37 44.85, 71.37 44.92, 68.4 44.92 C65.42 44.92, 62.42 44.85, 59.47 44.72 C56.52 44.6, 53.57 44.4, 50.69 44.15 C47.82 43.9, 44.97 43.58, 42.22 43.21 C39.47 42.83, 36.78 42.4, 34.2 41.91 C31.62 41.42, 29.12 40.87, 26.76 40.28 C24.4 39.68, 22.14 39.03, 20.03 38.34 C17.93 37.65, 15.95 36.91, 14.13 36.13 C12.32 35.36, 10.65 34.53, 9.16 33.69 C7.68 32.84, 6.35 31.96, 5.21 31.05 C4.07 30.15, 3.1 29.22, 2.33 28.27 C1.56 27.33, 0.97 26.36, 0.59 25.39 C0.2 24.42, 0 23.44, 0 22.46 C0 21.48, 0.2 20.5, 0.59 19.53 C0.97 18.56, 1.56 17.59, 2.33 16.65 C3.1 15.7, 4.07 14.77, 5.21 13.86 C6.35 12.96, 7.68 12.08, 9.16 11.23 C10.65 10.38, 12.32 9.56, 14.13 8.79 C15.95 8.01, 17.93 7.27, 20.03 6.58 C22.14 5.89, 24.4 5.24, 26.76 4.64 C29.12 4.05, 31.62 3.5, 34.2 3.01 C36.78 2.52, 39.47 2.08, 42.22 1.71 C44.97 1.34, 47.82 1.02, 50.69 0.77 C53.57 0.51, 56.52 0.32, 59.47 0.19 C62.42 0.06, 65.42 0, 68.4 0 C71.37 0, 74.37 0.06, 77.32 0.19 C80.27 0.32, 83.22 0.51, 86.1 0.77 C88.97 1.02, 91.82 1.34, 94.57 1.71 C97.32 2.08, 100.02 2.52, 102.59 3.01 C105.17 3.5, 107.67 4.05, 110.03 4.64 C112.39 5.24, 114.66 5.89, 116.76 6.58 C118.86 7.27, 120.85 8.01, 122.66 8.79 C124.47 9.56, 126.14 10.38, 127.63 11.23 C129.12 12.08, 130.45 12.96, 131.59 13.86 C132.73 14.77, 133.69 15.7, 134.46 16.65 C135.23 17.59, 135.82 18.56, 136.21 19.53 C136.6 20.5, 136.7 21.97, 136.79 22.46 C136.89 22.95, 136.89 21.97, 136.79 22.46" stroke="#1e1e1e" stroke-width="2" fill="none"></path></g><g stroke-linecap="round"><g transform="translate(628.4629707905783 478.5200511116293) rotate(0 -3.828161438899258 74.01112115205223)"><path d="M0 0 C-2.6 50.35, -5.21 100.7, -7.66 148.02 M0 0 C-2.62 50.64, -5.24 101.28, -7.66 148.02" stroke="#1e1e1e" stroke-width="2" fill="none"></path></g></g><mask></mask><g transform="translate(562.2826690673828 670.9520704958919) rotate(0 122.99662780761719 21.591549295774655)"><text x="122.99662780761719" y="30.877971830985917" font-family="Virgil, Segoe UI Emoji" font-size="32.901408450704224px" fill="#000000" text-anchor="middle" style="white-space: pre;" direction="ltr" dominant-baseline="alphabetic">Runtime system</text></g><g stroke-linecap="round"><g transform="translate(642.5074210285889 550.1945196759516) rotate(0 43.264346076840184 2.2350584689142465)"><path d="M0 0 C0.17 -0.45, 0.71 -1.92, 1.04 -2.71 C1.37 -3.51, 1.54 -4, 2 -4.79 C2.45 -5.57, 3.19 -6.71, 3.75 -7.42 C4.31 -8.14, 4.74 -8.5, 5.35 -9.1 C5.96 -9.7, 6.64 -10.39, 7.42 -11.02 C8.21 -11.64, 9.1 -12.27, 10.06 -12.85 C11.02 -13.44, 12.16 -14.1, 13.17 -14.53 C14.18 -14.95, 15.01 -15.18, 16.12 -15.41 C17.24 -15.63, 18.65 -15.84, 19.88 -15.88 C21.1 -15.92, 22.28 -15.95, 23.47 -15.65 C24.65 -15.34, 25.96 -14.53, 26.98 -14.05 C28 -13.57, 28.74 -13.28, 29.61 -12.77 C30.49 -12.27, 31.37 -11.71, 32.25 -11.02 C33.13 -10.32, 34.07 -9.27, 34.88 -8.62 C35.69 -7.97, 36.24 -7.92, 37.12 -7.1 C38 -6.29, 37.41 -6.82, 40.15 -3.75 C42.89 -0.68, 50.58 8.17, 53.56 11.33 C56.54 14.5, 56.41 14.05, 58.03 15.25 C59.65 16.44, 61.68 17.72, 63.3 18.52 C64.92 19.32, 66.17 19.73, 67.77 20.04 C69.37 20.34, 71.3 20.49, 72.88 20.35 C74.46 20.22, 75.91 19.74, 77.27 19.24 C78.63 18.73, 79.97 18.03, 81.02 17.32 C82.07 16.62, 82.79 15.96, 83.58 15.01 C84.36 14.05, 85.24 13.08, 85.73 11.57 C86.22 10.07, 86.46 7.58, 86.53 5.99 C86.6 4.39, 86.34 3.17, 86.13 2 C85.92 0.82, 85.65 0.07, 85.25 -1.04 C84.85 -2.14, 84.27 -3.59, 83.73 -4.63 C83.2 -5.67, 82.64 -6.48, 82.06 -7.26 C81.47 -8.05, 80.95 -8.58, 80.22 -9.34 C79.49 -10.1, 78.73 -11.03, 77.67 -11.81 C76.6 -12.6, 74.98 -13.52, 73.84 -14.05 C72.69 -14.58, 71.75 -14.73, 70.8 -15.01 C69.86 -15.29, 69.3 -15.61, 68.17 -15.73 C67.04 -15.84, 65.24 -15.86, 64.02 -15.73 C62.79 -15.59, 62.06 -15.35, 60.83 -14.93 C59.59 -14.5, 57.83 -13.84, 56.59 -13.17 C55.36 -12.51, 54.43 -11.68, 53.4 -10.94 C52.38 -10.19, 51.71 -9.79, 50.45 -8.7 C49.18 -7.61, 47.08 -5.71, 45.82 -4.39 C44.55 -3.07, 43.36 -1.4, 42.87 -0.8 M0 0 C0.17 -0.45, 0.71 -1.92, 1.04 -2.71 C1.37 -3.51, 1.54 -4, 2 -4.79 C2.45 -5.57, 3.19 -6.71, 3.75 -7.42 C4.31 -8.14, 4.74 -8.5, 5.35 -9.1 C5.96 -9.7, 6.64 -10.39, 7.42 -11.02 C8.21 -11.64, 9.1 -12.27, 10.06 -12.85 C11.02 -13.44, 12.16 -14.1, 13.17 -14.53 C14.18 -14.95, 15.01 -15.18, 16.12 -15.41 C17.24 -15.63, 18.65 -15.84, 19.88 -15.88 C21.1 -15.92, 22.28 -15.95, 23.47 -15.65 C24.65 -15.34, 25.96 -14.53, 26.98 -14.05 C28 -13.57, 28.74 -13.28, 29.61 -12.77 C30.49 -12.27, 31.37 -11.71, 32.25 -11.02 C33.13 -10.32, 34.07 -9.27, 34.88 -8.62 C35.69 -7.97, 36.24 -7.92, 37.12 -7.1 C38 -6.29, 37.41 -6.82, 40.15 -3.75 C42.89 -0.68, 50.58 8.17, 53.56 11.33 C56.54 14.5, 56.41 14.05, 58.03 15.25 C59.65 16.44, 61.68 17.72, 63.3 18.52 C64.92 19.32, 66.17 19.73, 67.77 20.04 C69.37 20.34, 71.3 20.49, 72.88 20.35 C74.46 20.22, 75.91 19.74, 77.27 19.24 C78.63 18.73, 79.97 18.03, 81.02 17.32 C82.07 16.62, 82.79 15.96, 83.58 15.01 C84.36 14.05, 85.24 13.08, 85.73 11.57 C86.22 10.07, 86.46 7.58, 86.53 5.99 C86.6 4.39, 86.34 3.17, 86.13 2 C85.92 0.82, 85.65 0.07, 85.25 -1.04 C84.85 -2.14, 84.27 -3.59, 83.73 -4.63 C83.2 -5.67, 82.64 -6.48, 82.06 -7.26 C81.47 -8.05, 80.95 -8.58, 80.22 -9.34 C79.49 -10.1, 78.73 -11.03, 77.67 -11.81 C76.6 -12.6, 74.98 -13.52, 73.84 -14.05 C72.69 -14.58, 71.75 -14.73, 70.8 -15.01 C69.86 -15.29, 69.3 -15.61, 68.17 -15.73 C67.04 -15.84, 65.24 -15.86, 64.02 -15.73 C62.79 -15.59, 62.06 -15.35, 60.83 -14.93 C59.59 -14.5, 57.83 -13.84, 56.59 -13.17 C55.36 -12.51, 54.43 -11.68, 53.4 -10.94 C52.38 -10.19, 51.71 -9.79, 50.45 -8.7 C49.18 -7.61, 47.08 -5.71, 45.82 -4.39 C44.55 -3.07, 43.36 -1.4, 42.87 -0.8" stroke="#1e1e1e" stroke-width="2" fill="none"></path></g></g><mask></mask><g stroke-linecap="round"><g transform="translate(642.427597511845 550.513813742939) rotate(0 21.113320179564994 13.8094683972202)"><path d="M0 0 C-0.08 0.39, -0.37 1.57, -0.48 2.31 C-0.59 3.06, -0.63 3.77, -0.64 4.47 C-0.65 5.18, -0.59 5.79, -0.56 6.55 C-0.53 7.3, -0.56 8.26, -0.48 9.02 C-0.4 9.78, -0.31 10.32, -0.08 11.1 C0.15 11.87, 0.53 12.79, 0.88 13.65 C1.22 14.51, 1.54 15.42, 2 16.28 C2.45 17.15, 3.1 18.12, 3.59 18.84 C4.08 19.56, 4.4 20.01, 4.95 20.59 C5.49 21.18, 6.23 21.81, 6.86 22.35 C7.5 22.9, 8.1 23.37, 8.78 23.87 C9.46 24.36, 10.22 24.9, 10.94 25.3 C11.65 25.7, 12.28 25.98, 13.09 26.26 C13.9 26.54, 14.89 26.75, 15.81 26.98 C16.72 27.21, 17.72 27.51, 18.6 27.62 C19.48 27.73, 20.25 27.67, 21.07 27.62 C21.9 27.57, 22.51 27.62, 23.55 27.3 C24.59 26.98, 26.32 26.12, 27.3 25.7 C28.28 25.29, 28.82 25.14, 29.45 24.83 C30.09 24.51, 30.65 24.09, 31.13 23.79 C31.61 23.48, 31.88 23.32, 32.33 22.99 C32.78 22.66, 33.1 22.4, 33.85 21.79 C34.59 21.18, 35.3 20.86, 36.8 19.32 C38.3 17.77, 41.85 13.66, 42.87 12.53 M0 0 C-0.08 0.39, -0.37 1.57, -0.48 2.31 C-0.59 3.06, -0.63 3.77, -0.64 4.47 C-0.65 5.18, -0.59 5.79, -0.56 6.55 C-0.53 7.3, -0.56 8.26, -0.48 9.02 C-0.4 9.78, -0.31 10.32, -0.08 11.1 C0.15 11.87, 0.53 12.79, 0.88 13.65 C1.22 14.51, 1.54 15.42, 2 16.28 C2.45 17.15, 3.1 18.12, 3.59 18.84 C4.08 19.56, 4.4 20.01, 4.95 20.59 C5.49 21.18, 6.23 21.81, 6.86 22.35 C7.5 22.9, 8.1 23.37, 8.78 23.87 C9.46 24.36, 10.22 24.9, 10.94 25.3 C11.65 25.7, 12.28 25.98, 13.09 26.26 C13.9 26.54, 14.89 26.75, 15.81 26.98 C16.72 27.21, 17.72 27.51, 18.6 27.62 C19.48 27.73, 20.25 27.67, 21.07 27.62 C21.9 27.57, 22.51 27.62, 23.55 27.3 C24.59 26.98, 26.32 26.12, 27.3 25.7 C28.28 25.29, 28.82 25.14, 29.45 24.83 C30.09 24.51, 30.65 24.09, 31.13 23.79 C31.61 23.48, 31.88 23.32, 32.33 22.99 C32.78 22.66, 33.1 22.4, 33.85 21.79 C34.59 21.18, 35.3 20.86, 36.8 19.32 C38.3 17.77, 41.85 13.66, 42.87 12.53" stroke="#1e1e1e" stroke-width="2" fill="none"></path></g></g><mask></mask><g stroke-linecap="round"><g transform="translate(691.1199427274751 555.7023423314893) rotate(0 14.647615323063064 0.6385881339755031)"><path d="M0 0 C1.14 -1.22, 5.2 -5.69, 6.86 -7.34 C8.53 -8.99, 9.06 -9.21, 9.98 -9.9 C10.9 -10.59, 11.64 -11.12, 12.37 -11.49 C13.1 -11.87, 13.72 -11.96, 14.37 -12.13 C15.02 -12.31, 15.67 -12.49, 16.28 -12.53 C16.9 -12.57, 17.4 -12.44, 18.04 -12.37 C18.68 -12.31, 19.48 -12.32, 20.12 -12.13 C20.75 -11.95, 21.25 -11.61, 21.87 -11.26 C22.5 -10.9, 23.23 -10.44, 23.87 -9.98 C24.51 -9.51, 25.17 -9.02, 25.7 -8.46 C26.24 -7.9, 26.62 -7.29, 27.06 -6.63 C27.5 -5.96, 28.02 -5.16, 28.34 -4.47 C28.66 -3.78, 28.82 -3.27, 28.98 -2.47 C29.14 -1.68, 29.26 -0.67, 29.3 0.32 C29.34 1.3, 29.38 2.45, 29.22 3.43 C29.06 4.42, 28.7 5.41, 28.34 6.23 C27.98 7.04, 27.49 7.74, 27.06 8.3 C26.63 8.86, 26.42 8.97, 25.78 9.58 C25.14 10.19, 23.93 11.44, 23.23 11.97 C22.52 12.51, 22.23 12.52, 21.55 12.77 C20.87 13.02, 19.92 13.32, 19.16 13.49 C18.4 13.66, 17.36 13.76, 17 13.81 M0 0 C1.14 -1.22, 5.2 -5.69, 6.86 -7.34 C8.53 -8.99, 9.06 -9.21, 9.98 -9.9 C10.9 -10.59, 11.64 -11.12, 12.37 -11.49 C13.1 -11.87, 13.72 -11.96, 14.37 -12.13 C15.02 -12.31, 15.67 -12.49, 16.28 -12.53 C16.9 -12.57, 17.4 -12.44, 18.04 -12.37 C18.68 -12.31, 19.48 -12.32, 20.12 -12.13 C20.75 -11.95, 21.25 -11.61, 21.87 -11.26 C22.5 -10.9, 23.23 -10.44, 23.87 -9.98 C24.51 -9.51, 25.17 -9.02, 25.7 -8.46 C26.24 -7.9, 26.62 -7.29, 27.06 -6.63 C27.5 -5.96, 28.02 -5.16, 28.34 -4.47 C28.66 -3.78, 28.82 -3.27, 28.98 -2.47 C29.14 -1.68, 29.26 -0.67, 29.3 0.32 C29.34 1.3, 29.38 2.45, 29.22 3.43 C29.06 4.42, 28.7 5.41, 28.34 6.23 C27.98 7.04, 27.49 7.74, 27.06 8.3 C26.63 8.86, 26.42 8.97, 25.78 9.58 C25.14 10.19, 23.93 11.44, 23.23 11.97 C22.52 12.51, 22.23 12.52, 21.55 12.77 C20.87 13.02, 19.92 13.32, 19.16 13.49 C18.4 13.66, 17.36 13.76, 17 13.81" stroke="#1e1e1e" stroke-width="2" fill="none"></path></g></g><mask></mask><g stroke-linecap="round"><g transform="translate(642.5074210285889 550.8331078099263) rotate(0 5.507822655538689 -4.310469904334639)"><path d="M0 0 C0.19 -0.39, 0.77 -1.77, 1.12 -2.31 C1.46 -2.86, 1.68 -2.83, 2.08 -3.27 C2.47 -3.71, 3.07 -4.48, 3.51 -4.95 C3.95 -5.41, 4.34 -5.77, 4.71 -6.07 C5.08 -6.36, 5.29 -6.45, 5.75 -6.71 C6.2 -6.96, 6.81 -7.34, 7.42 -7.58 C8.04 -7.82, 8.82 -7.97, 9.42 -8.14 C10.02 -8.31, 10.75 -8.54, 11.02 -8.62 M0 0 C0.19 -0.39, 0.77 -1.77, 1.12 -2.31 C1.46 -2.86, 1.68 -2.83, 2.08 -3.27 C2.47 -3.71, 3.07 -4.48, 3.51 -4.95 C3.95 -5.41, 4.34 -5.77, 4.71 -6.07 C5.08 -6.36, 5.29 -6.45, 5.75 -6.71 C6.2 -6.96, 6.81 -7.34, 7.42 -7.58 C8.04 -7.82, 8.82 -7.97, 9.42 -8.14 C10.02 -8.31, 10.75 -8.54, 11.02 -8.62" stroke="#1e1e1e" stroke-width="2" fill="none"></path></g></g><mask></mask><g stroke-linecap="round"><g transform="translate(653.5230663396643 542.1323444845113) rotate(0 37.517052871060685 17.68090895944667)"><path d="M0 0 C0.33 -0.03, 1.33 -0.11, 2 -0.16 C2.66 -0.21, 3.29 -0.33, 3.99 -0.32 C4.7 -0.31, 5.52 -0.19, 6.23 -0.08 C6.93 0.03, 7.64 0.16, 8.22 0.32 C8.81 0.48, 9.18 0.64, 9.74 0.88 C10.3 1.12, 11 1.46, 11.57 1.76 C12.15 2.05, 12.53 2.25, 13.17 2.63 C13.81 3.02, 14.75 3.65, 15.41 4.07 C16.06 4.5, 16.52 4.78, 17.08 5.19 C17.64 5.6, 18.04 5.92, 18.76 6.55 C19.48 7.17, 17.76 5.08, 21.39 8.94 C25.02 12.8, 35.59 25.24, 40.55 29.69 C45.51 34.15, 47.39 34.91, 51.17 35.68 C54.95 36.45, 59.85 35.73, 63.22 34.32 C66.59 32.91, 69.39 29.73, 71.36 27.22 C73.33 24.71, 74.42 20.57, 75.03 19.24 M0 0 C0.33 -0.03, 1.33 -0.11, 2 -0.16 C2.66 -0.21, 3.29 -0.33, 3.99 -0.32 C4.7 -0.31, 5.52 -0.19, 6.23 -0.08 C6.93 0.03, 7.64 0.16, 8.22 0.32 C8.81 0.48, 9.18 0.64, 9.74 0.88 C10.3 1.12, 11 1.46, 11.57 1.76 C12.15 2.05, 12.53 2.25, 13.17 2.63 C13.81 3.02, 14.75 3.65, 15.41 4.07 C16.06 4.5, 16.52 4.78, 17.08 5.19 C17.64 5.6, 18.04 5.92, 18.76 6.55 C19.48 7.17, 17.76 5.08, 21.39 8.94 C25.02 12.8, 35.59 25.24, 40.55 29.69 C45.51 34.15, 47.39 34.91, 51.17 35.68 C54.95 36.45, 59.85 35.73, 63.22 34.32 C66.59 32.91, 69.39 29.73, 71.36 27.22 C73.33 24.71, 74.42 20.57, 75.03 19.24" stroke="#1e1e1e" stroke-width="2" fill="none"></path></g></g><mask></mask><g stroke-linecap="round"><g transform="translate(679.5455327991651 556.5005774989603) rotate(0 -14.687527081436542 -1.5409540411805267)"><path d="M0 0 C-1.25 1.41, -5.48 6.55, -7.5 8.46 C-9.53 10.38, -10.92 10.82, -12.13 11.49 C-13.34 12.17, -13.86 12.28, -14.77 12.53 C-15.67 12.79, -16.59 13.06, -17.56 13.01 C-18.53 12.96, -19.65 12.55, -20.59 12.21 C-21.54 11.88, -22.47 11.49, -23.23 11.02 C-23.99 10.54, -24.56 9.84, -25.14 9.34 C-25.73 8.83, -26.28 8.54, -26.74 7.98 C-27.21 7.42, -27.58 6.72, -27.94 5.99 C-28.3 5.26, -28.66 4.46, -28.9 3.59 C-29.14 2.73, -29.31 1.84, -29.38 0.8 C-29.44 -0.24, -29.43 -1.58, -29.3 -2.63 C-29.16 -3.69, -28.96 -4.66, -28.58 -5.51 C-28.19 -6.36, -27.57 -6.93, -26.98 -7.74 C-26.39 -8.55, -25.76 -9.73, -25.06 -10.38 C-24.37 -11.03, -23.64 -11.28, -22.83 -11.65 C-22.02 -12.03, -21.14 -12.36, -20.2 -12.61 C-19.25 -12.86, -15.85 -12.59, -17.16 -13.17 C-18.47 -13.75, -26.25 -15.61, -28.07 -16.09 M0 0 C-1.25 1.41, -5.48 6.55, -7.5 8.46 C-9.53 10.38, -10.92 10.82, -12.13 11.49 C-13.34 12.17, -13.86 12.28, -14.77 12.53 C-15.67 12.79, -16.59 13.06, -17.56 13.01 C-18.53 12.96, -19.65 12.55, -20.59 12.21 C-21.54 11.88, -22.47 11.49, -23.23 11.02 C-23.99 10.54, -24.56 9.84, -25.14 9.34 C-25.73 8.83, -26.28 8.54, -26.74 7.98 C-27.21 7.42, -27.58 6.72, -27.94 5.99 C-28.3 5.26, -28.66 4.46, -28.9 3.59 C-29.14 2.73, -29.31 1.84, -29.38 0.8 C-29.44 -0.24, -29.43 -1.58, -29.3 -2.63 C-29.16 -3.69, -28.96 -4.66, -28.58 -5.51 C-28.19 -6.36, -27.57 -6.93, -26.98 -7.74 C-26.39 -8.55, -25.76 -9.73, -25.06 -10.38 C-24.37 -11.03, -23.64 -11.28, -22.83 -11.65 C-22.02 -12.03, -21.14 -12.36, -20.2 -12.61 C-19.25 -12.86, -15.85 -12.59, -17.16 -13.17 C-18.47 -13.75, -26.25 -15.61, -28.07 -16.09" stroke="#1e1e1e" stroke-width="2" fill="none"></path></g></g><mask></mask><g stroke-opacity="0" fill-opacity="0" stroke-linecap="round" transform="translate(829.6682134181647 454.4873459051439) rotate(0 123.41772408183544 123.41772408183544)"><path d="M87.88 5.33 C100.15 -0.42, 115.68 -0.12, 129.6 0.47 C143.51 1.06, 158.33 3.4, 171.36 8.89 C184.4 14.38, 197.51 23.72, 207.79 33.4 C218.07 43.09, 226.61 54.62, 233.03 67 C239.44 79.37, 244.42 93.75, 246.27 107.65 C248.11 121.54, 247.2 136.59, 244.09 150.39 C240.97 164.19, 235.21 178.61, 227.59 190.43 C219.97 202.25, 209.76 212.71, 198.36 221.3 C186.96 229.89, 172.64 237.71, 159.16 241.96 C145.69 246.21, 131.36 247.72, 117.5 246.8 C103.65 245.88, 88.97 242.02, 76.04 236.44 C63.11 230.85, 50.4 222.7, 39.92 213.32 C29.45 203.93, 19.81 192.52, 13.17 180.13 C6.53 167.74, 1.63 153.09, 0.09 138.97 C-1.45 124.85, 0.5 109.34, 3.91 95.41 C7.32 81.47, 12.92 67.09, 20.53 55.38 C28.14 43.66, 37.55 33.52, 49.55 25.11 C61.56 16.71, 84.76 8.37, 92.55 4.95 C100.34 1.53, 96.05 2.75, 96.29 4.59 M97.35 2.01 C110.39 -2.53, 126.98 -0.48, 140.67 1.57 C154.37 3.62, 167.08 7.83, 179.51 14.3 C191.94 20.76, 205.36 30.15, 215.25 40.36 C225.15 50.57, 233.56 62.68, 238.88 75.55 C244.21 88.42, 246.6 103.16, 247.21 117.57 C247.81 131.99, 246.8 148.3, 242.51 162.05 C238.23 175.79, 230.34 189.36, 221.51 200.06 C212.68 210.77, 201.61 218.72, 189.52 226.26 C177.44 233.81, 162.7 241.89, 149.01 245.33 C135.32 248.77, 121.34 248.99, 107.39 246.88 C93.44 244.76, 77.66 239.46, 65.29 232.63 C52.92 225.8, 42.29 216.11, 33.18 205.9 C24.07 195.69, 16.14 184.49, 10.61 171.37 C5.08 158.24, 0.59 141.5, 0 127.14 C-0.59 112.78, 2.89 98.35, 7.08 85.18 C11.26 72.02, 16.83 59.4, 25.09 48.17 C33.36 36.94, 44.45 25.54, 56.66 17.8 C68.86 10.06, 91.67 3.81, 98.33 1.72 C104.99 -0.37, 96.47 2.96, 96.62 5.25" stroke="#1e1e1e" stroke-width="1" fill="none"></path></g><g stroke-linecap="round"><g transform="translate(948.5922391403681 540.2965564048757) rotate(0 1.3373040105180962 -1.3373040105182952)"><path d="M-0.71 -0.82 C0.78 0.26, 3.82 7.39, 8.12 5.82 C12.41 4.25, 21.95 -9.67, 25.06 -10.23 C28.17 -10.78, 28.24 -2.18, 26.77 2.5 C25.29 7.17, 20.08 14.59, 16.2 17.82 C12.32 21.05, 7.43 21.39, 3.51 21.88 C-0.41 22.38, -2.95 18.78, -7.33 20.79 C-11.72 22.81, -22.22 30.55, -22.8 33.97 C-23.39 37.4, -16.46 40.23, -10.84 41.36 C-5.21 42.49, 4.23 42.88, 10.95 40.74 C17.67 38.6, 24.19 33.57, 29.48 28.53 C34.77 23.5, 40.5 17.55, 42.69 10.55 C44.88 3.54, 44.45 -6.68, 42.63 -13.51 C40.82 -20.35, 36.17 -25.83, 31.8 -30.47 C27.43 -35.11, 22.55 -39.1, 16.41 -41.37 C10.28 -43.65, 2.48 -45.9, -5.03 -44.1 C-12.53 -42.3, -22.85 -35.86, -28.61 -30.58 C-34.36 -25.29, -37.56 -18.95, -39.56 -12.4 C-41.56 -5.86, -41.7 3.14, -40.61 8.69 C-39.52 14.25, -36.41 21.23, -33 20.91 C-29.59 20.58, -21.93 10.94, -20.13 6.74 C-18.34 2.54, -22.94 -0.45, -22.23 -4.28 C-21.51 -8.11, -18.83 -12.38, -15.82 -16.23 C-12.81 -20.09, -8.73 -25.89, -4.19 -27.43 C0.35 -28.96, 11.41 -28.8, 11.41 -25.44 C11.4 -22.09, -2.2 -11.57, -4.24 -7.3 C-6.28 -3.02, -1.65 -1.03, -0.85 0.21 M1.12 1.37 C2.55 2.13, 3.54 5.71, 7.4 3.95 C11.26 2.18, 20.98 -9.09, 24.28 -9.19 C27.58 -9.29, 28.28 -1.25, 27.2 3.33 C26.11 7.9, 21.47 15.39, 17.77 18.26 C14.07 21.13, 9.14 20.34, 5.01 20.57 C0.88 20.8, -2.74 17.43, -7.03 19.66 C-11.32 21.88, -20.33 30.45, -20.73 33.92 C-21.14 37.38, -14.82 39.31, -9.45 40.45 C-4.08 41.6, 5.04 42.63, 11.5 40.79 C17.96 38.95, 24.3 34.44, 29.31 29.4 C34.32 24.37, 39.3 17.75, 41.57 10.57 C43.85 3.38, 44.75 -6.92, 42.95 -13.71 C41.15 -20.5, 35.16 -25.43, 30.77 -30.16 C26.37 -34.89, 22.9 -39.86, 16.58 -42.06 C10.27 -44.26, 0.54 -44.86, -7.13 -43.36 C-14.8 -41.86, -23.81 -38.32, -29.44 -33.04 C-35.06 -27.76, -39.34 -18.73, -40.9 -11.7 C-42.45 -4.67, -40.2 3.89, -38.77 9.13 C-37.33 14.37, -35.29 20.33, -32.29 19.74 C-29.28 19.15, -22.36 9.29, -20.73 5.59 C-19.11 1.89, -23.36 1.36, -22.55 -2.46 C-21.74 -6.29, -19.13 -13.62, -15.9 -17.37 C-12.67 -21.13, -7.42 -23.65, -3.17 -25.01 C1.07 -26.37, 10.12 -28.48, 9.59 -25.52 C9.07 -22.56, -4.77 -11.47, -6.34 -7.24 C-7.91 -3, -0.66 -1.09, 0.17 -0.11" stroke="#1e1e1e" stroke-width="1" fill="none"></path></g></g><mask></mask><g stroke-linecap="round"><g transform="translate(951.6011731640342 466.0761838211086) rotate(0 -2.17311901709229 72.38157956930425)"><path d="M0.43 0.47 C3.16 0.63, 11.92 -0.93, 15.7 0.14 C19.47 1.2, 22.11 3.95, 23.09 6.84 C24.06 9.73, 19.8 14.53, 21.55 17.48 C23.3 20.44, 30.05 24.12, 33.6 24.56 C37.14 25, 39.79 20.28, 42.82 20.12 C45.84 19.97, 47.77 18.96, 51.75 23.61 C55.74 28.26, 64 41.9, 66.73 48.05 C69.45 54.19, 69.59 57.65, 68.12 60.47 C66.65 63.29, 59.69 62.04, 57.9 64.97 C56.11 67.91, 55.77 74.56, 57.4 78.08 C59.03 81.6, 65.96 83.09, 67.71 86.11 C69.46 89.14, 70.22 90.3, 67.91 96.24 C65.6 102.18, 57.71 116.97, 53.86 121.78 C50.01 126.58, 48.11 125.05, 44.79 125.07 C41.46 125.08, 37.55 121.39, 33.91 121.88 C30.27 122.37, 25.02 125.48, 22.96 128.02 C20.91 130.55, 22.32 134.09, 21.58 137.08 C20.83 140.06, 24.83 144.65, 18.49 145.94 C12.15 147.23, -8.89 146.01, -16.46 144.82 C-24.02 143.63, -25.4 141.36, -26.91 138.81 C-28.42 136.26, -23.51 132.61, -25.52 129.53 C-27.53 126.45, -35.58 121.04, -38.96 120.34 C-42.33 119.65, -43.3 124.94, -45.76 125.34 C-48.22 125.74, -49.56 127.45, -53.72 122.76 C-57.88 118.06, -67.96 103.34, -70.72 97.17 C-73.49 91, -72.18 89, -70.3 85.74 C-68.42 82.48, -61.17 80.93, -59.42 77.59 C-57.66 74.25, -58.69 68.18, -59.8 65.68 C-60.9 63.18, -63.9 64.94, -66.04 62.59 C-68.19 60.24, -74.29 58.23, -72.65 51.58 C-71.01 44.93, -60.34 27.73, -56.21 22.66 C-52.08 17.59, -51.12 20.67, -47.9 21.16 C-44.68 21.66, -40.63 26.07, -36.9 25.64 C-33.17 25.21, -27.56 21.5, -25.53 18.58 C-23.49 15.65, -25.85 10.89, -24.71 8.08 C-23.57 5.27, -22.8 3.25, -18.7 1.71 C-14.59 0.17, -3.38 -0.77, -0.09 -1.19 M-0.8 -0.33 C1.83 0.06, 10.86 0.02, 14.74 1.39 C18.63 2.76, 21.44 5.01, 22.51 7.89 C23.58 10.76, 19.56 15.84, 21.17 18.64 C22.79 21.44, 28.43 24.57, 32.21 24.68 C36 24.79, 40.62 19.65, 43.89 19.29 C47.16 18.94, 47.69 17.73, 51.83 22.55 C55.98 27.36, 65.75 42.01, 68.76 48.18 C71.77 54.36, 71.66 56.88, 69.89 59.59 C68.13 62.29, 60.15 61.7, 58.17 64.41 C56.19 67.12, 56.65 72.2, 58.02 75.85 C59.39 79.5, 64.75 82.97, 66.39 86.32 C68.02 89.66, 70.04 90.06, 67.81 95.92 C65.57 101.77, 57.3 116.16, 53 121.45 C48.69 126.74, 45.52 127.92, 41.98 127.66 C38.43 127.4, 35.1 119.67, 31.71 119.91 C28.32 120.15, 23.02 126.15, 21.65 129.1 C20.29 132.05, 24.24 135.28, 23.52 137.62 C22.8 139.96, 24.44 142.25, 17.33 143.16 C10.22 144.07, -12.1 143.46, -19.14 143.07 C-26.19 142.67, -23.92 142.71, -24.94 140.8 C-25.97 138.88, -22.84 134.57, -25.29 131.57 C-27.73 128.57, -35.88 123.42, -39.6 122.78 C-43.32 122.14, -44.97 127.66, -47.59 127.74 C-50.21 127.82, -51.59 128.35, -55.32 123.25 C-59.06 118.15, -67.2 103.44, -70.01 97.13 C-72.82 90.82, -73.68 88.36, -72.2 85.38 C-70.71 82.41, -63.22 82.36, -61.1 79.29 C-58.98 76.23, -58.44 69.9, -59.49 66.98 C-60.54 64.07, -65.19 64.59, -67.43 61.81 C-69.66 59.03, -74.75 56.61, -72.9 50.31 C-71.05 44.01, -60.71 28.85, -56.34 24.01 C-51.98 19.16, -49.64 21.31, -46.71 21.24 C-43.77 21.18, -42.46 24.19, -38.74 23.62 C-35.01 23.05, -26.84 20.24, -24.37 17.83 C-21.89 15.41, -24.66 11.99, -23.91 9.15 C-23.15 6.32, -23.9 2.12, -19.82 0.79 C-15.74 -0.53, -2.86 1.41, 0.59 1.19" stroke="#1e1e1e" stroke-width="1" fill="none"></path></g></g><mask></mask><g transform="translate(875.5681773753786 627.8356408961058) rotate(0 75.2399673461914 45)"><text x="75.2399673461914" y="31.536" font-family="Virgil, Segoe UI Emoji" font-size="36px" fill="#1e1e1e" text-anchor="middle" style="white-space: pre;" direction="ltr" dominant-baseline="alphabetic">Garbage</text><text x="75.2399673461914" y="76.536" font-family="Virgil, Segoe UI Emoji" font-size="36px" fill="#1e1e1e" text-anchor="middle" style="white-space: pre;" direction="ltr" dominant-baseline="alphabetic">collector</text></g><g stroke-linecap="round"><g transform="translate(82.314453125 439.73124186197913) rotate(0 225.32958984375 -43.02978515625)"><path d="M0.26 -0.34 C49.5 -3.2, 220.19 -1.74, 295.37 -16.2 C370.55 -30.66, 425.58 -75.45, 451.35 -87.12 M-1.06 -1.56 C48.11 -4.83, 219.59 -3.68, 294.93 -17.82 C370.26 -31.95, 425.12 -75.13, 450.94 -86.37" stroke="#1e1e1e" stroke-width="2" fill="none"></path></g></g><mask></mask><g stroke-linecap="round"><g transform="translate(1009.8688595295334 441.7028262003243) rotate(0.17737328974558833 -236.69924250604896 -43.09731861280696)"><path d="M0.42 -0.18 C-52.72 -3.54, -238.92 -5.89, -317.79 -20.17 C-396.66 -34.45, -446.79 -74.92, -472.82 -85.86 M-0.82 -1.33 C-54.22 -5.05, -240 -7.62, -318.74 -22.06 C-397.48 -36.51, -447.41 -77.63, -473.27 -88.02" stroke="#1e1e1e" stroke-width="2" fill="none"></path></g></g><mask></mask><g stroke-linecap="round" transform="translate(483.6822090718283 92.84596700336206) rotate(0 53.21553973297574 16.823746866254663)"><path d="M106.43 16.82 C106.43 17.62, 106.25 18.43, 105.89 19.22 C105.53 20.01, 104.99 20.8, 104.28 21.56 C103.56 22.33, 102.67 23.09, 101.62 23.81 C100.57 24.54, 99.35 25.25, 97.98 25.92 C96.62 26.59, 95.09 27.24, 93.43 27.84 C91.78 28.44, 89.97 29.02, 88.06 29.54 C86.16 30.06, 84.11 30.55, 81.99 30.98 C79.86 31.41, 77.62 31.8, 75.32 32.13 C73.03 32.46, 70.63 32.74, 68.21 32.97 C65.79 33.19, 63.29 33.36, 60.79 33.48 C58.29 33.59, 55.74 33.65, 53.22 33.65 C50.69 33.65, 48.14 33.59, 45.64 33.48 C43.14 33.36, 40.65 33.19, 38.22 32.97 C35.8 32.74, 33.41 32.46, 31.11 32.13 C28.81 31.8, 26.57 31.41, 24.45 30.98 C22.32 30.55, 20.27 30.06, 18.37 29.54 C16.46 29.02, 14.65 28.44, 13 27.84 C11.34 27.24, 9.81 26.59, 8.45 25.92 C7.08 25.25, 5.86 24.54, 4.81 23.81 C3.76 23.09, 2.87 22.33, 2.16 21.56 C1.44 20.8, 0.9 20.01, 0.54 19.22 C0.18 18.43, 0 17.62, 0 16.82 C0 16.03, 0.18 15.22, 0.54 14.43 C0.9 13.64, 1.44 12.85, 2.16 12.08 C2.87 11.32, 3.76 10.56, 4.81 9.83 C5.86 9.11, 7.08 8.4, 8.45 7.73 C9.81 7.06, 11.34 6.41, 13 5.81 C14.65 5.2, 16.46 4.63, 18.37 4.11 C20.27 3.59, 22.32 3.1, 24.45 2.67 C26.57 2.24, 28.81 1.85, 31.11 1.52 C33.41 1.19, 35.8 0.91, 38.22 0.68 C40.65 0.46, 43.14 0.28, 45.64 0.17 C48.14 0.06, 50.69 0, 53.22 0 C55.74 0, 58.29 0.06, 60.79 0.17 C63.29 0.28, 65.79 0.46, 68.21 0.68 C70.63 0.91, 73.03 1.19, 75.32 1.52 C77.62 1.85, 79.86 2.24, 81.99 2.67 C84.11 3.1, 86.16 3.59, 88.06 4.11 C89.97 4.63, 91.78 5.2, 93.43 5.81 C95.09 6.41, 96.62 7.06, 97.98 7.73 C99.35 8.4, 100.57 9.11, 101.62 9.83 C102.67 10.56, 103.56 11.32, 104.28 12.08 C104.99 12.85, 105.53 13.64, 105.89 14.43 C106.25 15.22, 106.34 16.42, 106.43 16.82 C106.52 17.22, 106.52 16.42, 106.43 16.82" stroke="none" stroke-width="0" fill="#ffffff"></path><path d="M106.43 16.82 C106.43 17.62, 106.25 18.43, 105.89 19.22 C105.53 20.01, 104.99 20.8, 104.28 21.56 C103.56 22.33, 102.67 23.09, 101.62 23.81 C100.57 24.54, 99.35 25.25, 97.98 25.92 C96.62 26.59, 95.09 27.24, 93.43 27.84 C91.78 28.44, 89.97 29.02, 88.06 29.54 C86.16 30.06, 84.11 30.55, 81.99 30.98 C79.86 31.41, 77.62 31.8, 75.32 32.13 C73.03 32.46, 70.63 32.74, 68.21 32.97 C65.79 33.19, 63.29 33.36, 60.79 33.48 C58.29 33.59, 55.74 33.65, 53.22 33.65 C50.69 33.65, 48.14 33.59, 45.64 33.48 C43.14 33.36, 40.65 33.19, 38.22 32.97 C35.8 32.74, 33.41 32.46, 31.11 32.13 C28.81 31.8, 26.57 31.41, 24.45 30.98 C22.32 30.55, 20.27 30.06, 18.37 29.54 C16.46 29.02, 14.65 28.44, 13 27.84 C11.34 27.24, 9.81 26.59, 8.45 25.92 C7.08 25.25, 5.86 24.54, 4.81 23.81 C3.76 23.09, 2.87 22.33, 2.16 21.56 C1.44 20.8, 0.9 20.01, 0.54 19.22 C0.18 18.43, 0 17.62, 0 16.82 C0 16.03, 0.18 15.22, 0.54 14.43 C0.9 13.64, 1.44 12.85, 2.16 12.08 C2.87 11.32, 3.76 10.56, 4.81 9.83 C5.86 9.11, 7.08 8.4, 8.45 7.73 C9.81 7.06, 11.34 6.41, 13 5.81 C14.65 5.2, 16.46 4.63, 18.37 4.11 C20.27 3.59, 22.32 3.1, 24.45 2.67 C26.57 2.24, 28.81 1.85, 31.11 1.52 C33.41 1.19, 35.8 0.91, 38.22 0.68 C40.65 0.46, 43.14 0.28, 45.64 0.17 C48.14 0.06, 50.69 0, 53.22 0 C55.74 0, 58.29 0.06, 60.79 0.17 C63.29 0.28, 65.79 0.46, 68.21 0.68 C70.63 0.91, 73.03 1.19, 75.32 1.52 C77.62 1.85, 79.86 2.24, 81.99 2.67 C84.11 3.1, 86.16 3.59, 88.06 4.11 C89.97 4.63, 91.78 5.2, 93.43 5.81 C95.09 6.41, 96.62 7.06, 97.98 7.73 C99.35 8.4, 100.57 9.11, 101.62 9.83 C102.67 10.56, 103.56 11.32, 104.28 12.08 C104.99 12.85, 105.53 13.64, 105.89 14.43 C106.25 15.22, 106.34 16.42, 106.43 16.82 C106.52 17.22, 106.52 16.42, 106.43 16.82" stroke="#1e1e1e" stroke-width="2" fill="none"></path></g><g stroke-linecap="round"><g transform="translate(591.3064620743936 108.95380974764842) rotate(0 5.965867683069007 69.80065189190765)"><path d="M0 0 C2.79 32.61, 5.57 65.22, 11.93 139.6 M0 0 C4.59 53.71, 9.18 107.43, 11.93 139.6" stroke="#1e1e1e" stroke-width="2" fill="none"></path></g></g><mask></mask><g stroke-linecap="round" transform="translate(476.0458984375 227.55525928706075) rotate(0 63.9541015625 20.999854244402982)"><path d="M127.91 21 C127.91 21.91, 127.72 22.84, 127.36 23.74 C127 24.65, 126.45 25.55, 125.73 26.44 C125.01 27.32, 124.1 28.19, 123.04 29.04 C121.98 29.88, 120.73 30.71, 119.34 31.5 C117.95 32.29, 116.39 33.06, 114.69 33.78 C113 34.51, 111.14 35.2, 109.18 35.85 C107.21 36.5, 105.09 37.1, 102.89 37.66 C100.68 38.22, 98.34 38.73, 95.93 39.19 C93.52 39.64, 91 40.05, 88.43 40.4 C85.86 40.75, 83.19 41.05, 80.51 41.28 C77.82 41.52, 75.06 41.7, 72.3 41.82 C69.54 41.94, 66.74 42, 63.95 42 C61.17 42, 58.37 41.94, 55.61 41.82 C52.85 41.7, 50.09 41.52, 47.4 41.28 C44.71 41.05, 42.05 40.75, 39.48 40.4 C36.91 40.05, 34.39 39.64, 31.98 39.19 C29.57 38.73, 27.23 38.22, 25.02 37.66 C22.81 37.1, 20.7 36.5, 18.73 35.85 C16.76 35.2, 14.91 34.51, 13.22 33.78 C11.52 33.06, 9.96 32.29, 8.57 31.5 C7.18 30.71, 5.93 29.88, 4.87 29.04 C3.8 28.19, 2.9 27.32, 2.18 26.44 C1.46 25.55, 0.91 24.65, 0.55 23.74 C0.18 22.84, 0 21.91, 0 21 C0 20.09, 0.18 19.16, 0.55 18.26 C0.91 17.35, 1.46 16.45, 2.18 15.56 C2.9 14.68, 3.8 13.81, 4.87 12.96 C5.93 12.12, 7.18 11.29, 8.57 10.5 C9.96 9.71, 11.52 8.94, 13.22 8.22 C14.91 7.49, 16.76 6.8, 18.73 6.15 C20.7 5.5, 22.81 4.9, 25.02 4.34 C27.23 3.78, 29.57 3.27, 31.98 2.81 C34.39 2.36, 36.91 1.95, 39.48 1.6 C42.05 1.25, 44.71 0.95, 47.4 0.72 C50.09 0.48, 52.85 0.3, 55.61 0.18 C58.37 0.06, 61.17 0, 63.95 0 C66.74 0, 69.54 0.06, 72.3 0.18 C75.06 0.3, 77.82 0.48, 80.51 0.72 C83.19 0.95, 85.86 1.25, 88.43 1.6 C91 1.95, 93.52 2.36, 95.93 2.81 C98.34 3.27, 100.68 3.78, 102.89 4.34 C105.09 4.9, 107.21 5.5, 109.18 6.15 C111.14 6.8, 113 7.49, 114.69 8.22 C116.39 8.94, 117.95 9.71, 119.34 10.5 C120.73 11.29, 121.98 12.12, 123.04 12.96 C124.1 13.81, 125.01 14.68, 125.73 15.56 C126.45 16.45, 127 17.35, 127.36 18.26 C127.72 19.16, 127.82 20.54, 127.91 21 C128 21.46, 128 20.54, 127.91 21" stroke="none" stroke-width="0" fill="#ffffff"></path><path d="M127.91 21 C127.91 21.91, 127.72 22.84, 127.36 23.74 C127 24.65, 126.45 25.55, 125.73 26.44 C125.01 27.32, 124.1 28.19, 123.04 29.04 C121.98 29.88, 120.73 30.71, 119.34 31.5 C117.95 32.29, 116.39 33.06, 114.69 33.78 C113 34.51, 111.14 35.2, 109.18 35.85 C107.21 36.5, 105.09 37.1, 102.89 37.66 C100.68 38.22, 98.34 38.73, 95.93 39.19 C93.52 39.64, 91 40.05, 88.43 40.4 C85.86 40.75, 83.19 41.05, 80.51 41.28 C77.82 41.52, 75.06 41.7, 72.3 41.82 C69.54 41.94, 66.74 42, 63.95 42 C61.17 42, 58.37 41.94, 55.61 41.82 C52.85 41.7, 50.09 41.52, 47.4 41.28 C44.71 41.05, 42.05 40.75, 39.48 40.4 C36.91 40.05, 34.39 39.64, 31.98 39.19 C29.57 38.73, 27.23 38.22, 25.02 37.66 C22.81 37.1, 20.7 36.5, 18.73 35.85 C16.76 35.2, 14.91 34.51, 13.22 33.78 C11.52 33.06, 9.96 32.29, 8.57 31.5 C7.18 30.71, 5.93 29.88, 4.87 29.04 C3.8 28.19, 2.9 27.32, 2.18 26.44 C1.46 25.55, 0.91 24.65, 0.55 23.74 C0.18 22.84, 0 21.91, 0 21 C0 20.09, 0.18 19.16, 0.55 18.26 C0.91 17.35, 1.46 16.45, 2.18 15.56 C2.9 14.68, 3.8 13.81, 4.87 12.96 C5.93 12.12, 7.18 11.29, 8.57 10.5 C9.96 9.71, 11.52 8.94, 13.22 8.22 C14.91 7.49, 16.76 6.8, 18.73 6.15 C20.7 5.5, 22.81 4.9, 25.02 4.34 C27.23 3.78, 29.57 3.27, 31.98 2.81 C34.39 2.36, 36.91 1.95, 39.48 1.6 C42.05 1.25, 44.71 0.95, 47.4 0.72 C50.09 0.48, 52.85 0.3, 55.61 0.18 C58.37 0.06, 61.17 0, 63.95 0 C66.74 0, 69.54 0.06, 72.3 0.18 C75.06 0.3, 77.82 0.48, 80.51 0.72 C83.19 0.95, 85.86 1.25, 88.43 1.6 C91 1.95, 93.52 2.36, 95.93 2.81 C98.34 3.27, 100.68 3.78, 102.89 4.34 C105.09 4.9, 107.21 5.5, 109.18 6.15 C111.14 6.8, 113 7.49, 114.69 8.22 C116.39 8.94, 117.95 9.71, 119.34 10.5 C120.73 11.29, 121.98 12.12, 123.04 12.96 C124.1 13.81, 125.01 14.68, 125.73 15.56 C126.45 16.45, 127 17.35, 127.36 18.26 C127.72 19.16, 127.82 20.54, 127.91 21 C128 21.46, 128 20.54, 127.91 21" stroke="#1e1e1e" stroke-width="2" fill="none"></path></g><g stroke-linecap="round"><g transform="translate(483.92084377915114 111.93674358918295) rotate(0 -3.5795206098414383 69.20406512360076)"><path d="M0 0 C-2.1 40.64, -4.2 81.27, -7.16 138.41 M0 0 C-2.42 46.71, -4.83 93.42, -7.16 138.41" stroke="#1e1e1e" stroke-width="2" fill="none"></path></g></g><mask></mask><g stroke-linecap="round" transform="translate(514.3534781492377 148.17706466224115) rotate(0 23.39359887848724 30.11863032473798)"><path d="M11.7 0 C19.05 0.98, 27.59 -1.66, 35.09 0 M11.7 0 C19.09 0.92, 27.36 0.55, 35.09 0 M35.09 0 C44.19 -1.75, 47.71 2.65, 46.79 11.7 M35.09 0 C43.47 2.23, 49.01 2.21, 46.79 11.7 M46.79 11.7 C48.49 24.52, 47.71 40.31, 46.79 48.54 M46.79 11.7 C46.69 24.4, 46.04 36.17, 46.79 48.54 M46.79 48.54 C45.91 55.15, 42.48 61.75, 35.09 60.24 M46.79 48.54 C45.66 58.31, 43.24 60.87, 35.09 60.24 M35.09 60.24 C27.38 62.15, 18.04 61.19, 11.7 60.24 M35.09 60.24 C25.43 59.23, 16.93 59.17, 11.7 60.24 M11.7 60.24 C2.8 59.78, 1.22 58.24, 0 48.54 M11.7 60.24 C5.55 59.26, 2.3 57.75, 0 48.54 M0 48.54 C2.32 35.91, -1.03 21.77, 0 11.7 M0 48.54 C0.57 34.38, 0.17 19.81, 0 11.7 M0 11.7 C-1.81 2.89, 5.34 -1.41, 11.7 0 M0 11.7 C-0.45 5.98, 3.09 -0.15, 11.7 0" stroke="#000000" stroke-width="1" fill="none"></path></g><g stroke-linecap="round"><g transform="translate(520.277040684424 166.19975175460954) rotate(0 17.91924583401061 -1.1196013925028652)"><path d="M0.23 0.32 C2.23 -0.49, 7.7 -5.27, 11.66 -4.85 C15.63 -4.43, 20 2.68, 24.02 2.84 C28.04 3.01, 33.76 -2.73, 35.8 -3.88 M-0.31 0.01 C1.87 -0.98, 8.63 -6.35, 12.64 -5.76 C16.65 -5.18, 19.88 3.34, 23.75 3.51 C27.62 3.67, 33.88 -3.56, 35.89 -4.77" stroke="#000000" stroke-width="1" fill="none"></path></g></g><mask></mask><g stroke-linecap="round"><g transform="translate(520.2229332642529 180.5986646873921) rotate(0 17.91924583401061 -1.1196013925028652)"><path d="M-0.49 0.11 C1.52 -0.75, 8.26 -5.36, 12.31 -4.83 C16.36 -4.31, 19.83 3.03, 23.82 3.25 C27.81 3.48, 34.17 -2.22, 36.24 -3.48 M0.26 -0.31 C2.19 -1.37, 8.09 -6.2, 11.96 -5.74 C15.82 -5.27, 19.35 2.25, 23.45 2.46 C27.55 2.67, 34.51 -3.33, 36.55 -4.47" stroke="#000000" stroke-width="1" fill="none"></path></g></g><mask></mask><g stroke-linecap="round"><g transform="translate(520.9337504854047 192.0894171093658) rotate(0 17.91924583401061 -1.1196013925028652)"><path d="M0.16 0.12 C2.26 -0.63, 8.09 -4.91, 12.11 -4.42 C16.13 -3.94, 20.24 3.03, 24.26 3.05 C28.27 3.07, 34.22 -3.09, 36.2 -4.29 M-0.43 -0.29 C1.64 -1.19, 7.57 -5.52, 11.66 -5.12 C15.75 -4.71, 19.98 1.97, 24.11 2.15 C28.25 2.33, 34.58 -2.98, 36.49 -4.03" stroke="#000000" stroke-width="1" fill="none"></path></g></g><mask></mask></svg>