<svg xmlns="http://www.w3.org/2000/svg" width="24" height="25" fill="none" viewBox="0 0 24 25"><path fill="#3B00B9" d="M20.1307 14.7792C19.9566 14.8992 19.7533 14.97 19.5423 14.9842C19.3313 14.9983 19.1204 14.9553 18.9318 14.8597C18.489 14.6096 18.2504 14.0231 18.2504 13.2238V10.7742C18.2504 9.59835 17.7846 8.7617 17.0055 8.53457C15.6887 8.14931 14.7054 9.76222 14.3259 10.3689L11.9971 14.1381V9.53797C11.9712 8.47707 11.6262 7.84168 10.9736 7.65193C10.5423 7.52542 9.89545 7.57718 9.26581 8.53745L4.05907 16.8953C3.36629 15.5698 3.00708 14.0955 3.01255 12.5999C3.01255 7.5628 7.03764 3.46583 11.9971 3.46583C16.9566 3.46583 20.9961 7.5628 20.9961 12.5999V12.6258C20.9961 12.6258 20.9961 12.643 20.9961 12.6517C21.045 13.6263 20.7287 14.4026 20.1336 14.7792H20.1307ZM23.0058 12.6028V12.5539C22.9655 6.41565 18.0434 1.43604 11.9971 1.43604C5.95086 1.43604 1 6.4444 1 12.5999C1 18.7554 5.93361 23.7667 11.9971 23.7667C14.7781 23.7665 17.4533 22.7006 19.4723 20.7881C19.6683 20.6035 19.7836 20.349 19.7933 20.08C19.803 19.8109 19.7062 19.5488 19.524 19.3506C19.4369 19.2541 19.3315 19.1759 19.2139 19.1203C19.0964 19.0648 18.969 19.033 18.8392 19.0269C18.7093 19.0207 18.5795 19.0403 18.4572 19.0845C18.335 19.1287 18.2227 19.1967 18.1268 19.2844C17.2575 20.109 16.2306 20.7494 15.1077 21.1672C13.9848 21.585 12.7891 21.7715 11.5923 21.7157C10.3955 21.6598 9.22229 21.3627 8.14317 20.8421C7.06406 20.3216 6.10127 19.5883 5.3126 18.6864L9.99895 11.1538V14.6297C9.99895 16.3001 10.6458 16.8406 11.1892 16.9988C11.7326 17.1569 12.5635 17.0476 13.4347 15.6331L16.0222 11.4441C16.1027 11.309 16.1803 11.194 16.2493 11.0934V13.2238C16.2493 14.785 16.8761 16.0327 17.9744 16.648C18.4738 16.9176 19.0365 17.0479 19.6036 17.0251C20.1707 17.0023 20.7212 16.8274 21.1973 16.5186C22.4049 15.7337 23.0633 14.3135 22.9943 12.6028H23.0058Z"/></svg>