<svg width="24" height="25" viewBox="0 0 24 25" fill="none" xmlns="http://www.w3.org/2000/svg">
<g clip-path="url(#clip0_516_7201)">
<path fill-rule="evenodd" clip-rule="evenodd" d="M17.7158 20.6999C22.2578 20.556 24.0047 17.576 24.0047 17.576C24.0047 10.9582 21.0453 5.59417 21.0453 5.59417C18.0858 3.37455 15.2701 3.43621 15.2701 3.43621L14.9824 3.76504C18.4763 4.83374 20.0999 6.37514 20.0999 6.37514C17.9625 5.20368 15.8662 4.62822 13.9137 4.40215C12.434 4.23773 11.0159 4.27884 9.7622 4.44325L9.41282 4.48436C8.6935 4.54601 6.94658 4.81319 4.74751 5.77914C3.98709 6.12852 3.53495 6.37514 3.53495 6.37514C3.53495 6.37514 5.24076 4.75153 8.94013 3.68283L8.7346 3.43621C8.7346 3.43621 5.91898 3.37455 2.95949 5.59417C2.95949 5.59417 0 10.9582 0 17.576C0 17.576 1.72637 20.556 6.26836 20.6999C6.26836 20.6999 7.02879 19.7751 7.64535 18.9941C5.03524 18.2131 4.04875 16.5689 4.04875 16.5689L4.6242 16.9183L4.70641 16.98L4.78691 17.0262L4.81088 17.0365L4.89138 17.0827C5.40518 17.3705 5.91898 17.5965 6.39167 17.7815C7.23431 18.1103 8.24136 18.4392 9.41282 18.6652C10.9542 18.953 12.7628 19.0557 14.7358 18.6858C15.7017 18.5214 16.6882 18.2337 17.7158 17.8021C18.4352 17.5349 19.2367 17.1444 20.0793 16.5895C20.0793 16.5895 19.0517 18.2748 16.3594 19.0352C16.976 19.8162 17.7158 20.6999 17.7158 20.6999ZM8.15915 11.1021C6.98768 11.1021 6.06284 12.1297 6.06284 13.3834C6.06284 14.6371 7.00824 15.6647 8.15915 15.6647C9.33061 15.6647 10.2555 14.6371 10.2555 13.3834C10.276 12.1297 9.33061 11.1021 8.15915 11.1021ZM15.6606 11.1021C14.4892 11.1021 13.5643 12.1297 13.5643 13.3834C13.5643 14.6371 14.5097 15.6647 15.6606 15.6647C16.8321 15.6647 17.7569 14.6371 17.7569 13.3834C17.7569 12.1297 16.8321 11.1021 15.6606 11.1021Z" fill="#3B00B9"/>
</g>
<defs>
<clipPath id="clip0_516_7201">
<rect width="24" height="24" fill="white" transform="translate(0 0.436035)"/>
</clipPath>
</defs>
</svg>
