<svg xmlns="http://www.w3.org/2000/svg" width="24" height="25" fill="none" viewBox="0 0 24 25"><path fill="#3B00B9" fill-rule="evenodd" d="M4.375 9.93604H6.625C6.83211 9.93604 7 10.1039 7 10.311V17.061C7 17.2681 7.16789 17.436 7.375 17.436H14.125C14.3321 17.436 14.5 17.6039 14.5 17.811V20.061C14.5 20.2681 14.3321 20.436 14.125 20.436H4.375C4.16789 20.436 4 20.2681 4 20.061V10.311C4 10.1039 4.16789 9.93604 4.375 9.93604Z" clip-rule="evenodd"/><path fill="#3B00B9" fill-rule="evenodd" d="M8.125 5.43604H17.875C18.0821 5.43604 18.25 5.60393 18.25 5.81104V15.561C18.25 15.7681 18.0821 15.936 17.875 15.936H15.625C15.4179 15.936 15.25 15.7681 15.25 15.561V8.81104C15.25 8.60393 15.0821 8.43604 14.875 8.43604H8.125C7.91789 8.43604 7.75 8.26814 7.75 8.06104V5.81104C7.75 5.60393 7.91789 5.43604 8.125 5.43604Z" clip-rule="evenodd"/><path fill="#3B00B9" fill-rule="evenodd" d="M19.375 2.43604H21.625C21.8321 2.43604 22 2.60393 22 2.81104V5.06104C22 5.26814 21.8321 5.43604 21.625 5.43604H19.375C19.1679 5.43604 19 5.26814 19 5.06104V2.81104C19 2.60393 19.1679 2.43604 19.375 2.43604Z" clip-rule="evenodd"/></svg>