<svg width="24" height="25" viewBox="0 0 24 25" fill="none" xmlns="http://www.w3.org/2000/svg">
<mask id="mask0_516_7219" style="mask-type:luminance" maskUnits="userSpaceOnUse" x="0" y="1" width="23" height="23">
<path d="M22.9999 1.21655H0.799805V23.4156H22.9999V1.21655Z" fill="white"/>
</mask>
<g mask="url(#mask0_516_7219)">
<path d="M15.5569 1.83248C14.4968 1.46239 13.3839 1.25356 12.2604 1.2192C12.1388 1.21655 12.0172 1.21655 11.8983 1.21655C11.1766 1.21655 10.4576 1.29586 9.75439 1.45182C9.74144 1.45896 9.72901 1.46609 9.71606 1.47323C9.72796 1.46609 9.73959 1.45896 9.75175 1.45182C6.75138 2.12855 4.52555 4.23278 3.4285 7.34153C2.38961 10.5798 3.2276 14.13 5.6041 16.5647C8.60183 19.6338 13.6403 20.5035 16.8654 17.2758L16.8673 17.271C19.6041 14.5294 19.6025 10.0865 16.8628 7.34418C14.1558 4.63723 11.0444 4.84607 7.84314 6.50354L7.64488 6.60664L7.81142 11.7191C7.82305 11.6845 7.83548 11.6517 7.84843 11.62C7.8368 11.653 7.82517 11.6858 7.81406 11.7191L7.91452 14.8147L8.01761 14.9125C8.8556 15.724 9.75439 15.999 10.5897 16.1787L10.4681 8.48089C10.4465 8.49146 10.4253 8.50256 10.4039 8.51366C10.425 8.50123 10.4465 8.48934 10.4681 8.47824C12.2974 7.88345 14.2087 8.26412 15.4115 9.87137C15.4136 9.87295 15.4154 9.87454 15.4176 9.87613C16.4295 11.2317 16.5736 13.0504 15.7869 14.5477C14.1214 17.7357 9.34201 17.5586 7.02101 15.1848C5.8896 14.0269 5.18114 12.5175 5.0146 10.9049C4.69209 7.84908 6.34164 4.92537 9.12524 3.62477L9.53234 3.50582C10.3042 3.29698 11.0999 3.19388 11.8983 3.19388C16.9341 3.19124 21.0157 7.27016 21.021 12.3033C21.021 13.8154 20.6456 15.3037 19.9292 16.6334C19.9168 16.658 19.9041 16.682 19.8917 16.7066C19.4777 17.4603 18.9577 18.1494 18.3484 18.7588C15.4009 21.7036 10.8329 22.2059 7.18227 20.3158C2.66982 17.9816 0.938326 12.721 2.46891 7.99448C2.56672 7.69312 2.41604 7.36797 2.12261 7.24637L2.03538 7.20936L1.89263 7.51072C1.73402 7.8438 1.58863 8.18481 1.46438 8.53375C-0.621337 14.3045 2.36582 20.67 8.13657 22.7557C8.17094 22.769 8.2053 22.7795 8.24231 22.7927C8.34303 22.8118 8.44348 22.8295 8.54393 22.8467C8.44216 22.8298 8.33986 22.812 8.23702 22.7927C14.0263 24.8124 20.3548 21.7591 22.3771 15.9725C24.3967 10.1833 21.3435 3.85476 15.5569 1.83248Z" fill="#3B00B9"/>
</g>
</svg>
