<svg width="24" height="25" viewBox="0 0 24 25" fill="none" xmlns="http://www.w3.org/2000/svg">
<path fill-rule="evenodd" clip-rule="evenodd" d="M2.08888 21.7383L7.37988 20.5623C8.8285 21.3367 10.4462 21.7408 12.0889 21.7383C17.6119 21.7383 22.0889 17.2613 22.0889 11.7383C22.0889 6.21528 17.6119 1.73828 12.0889 1.73828C6.56588 1.73828 2.08888 6.21528 2.08888 11.7383C2.08641 13.3809 2.49041 14.9987 3.26488 16.4473L2.08888 21.7383ZM13.1039 9.20126C13.9983 8.38542 14.8457 7.97158 15.6225 7.97158C17.482 7.97158 18.9943 9.50276 19.0003 11.3887C19.0003 11.6606 18.9648 11.9267 18.906 12.1809C18.9038 12.1906 18.898 12.2122 18.8875 12.2434C18.5065 13.6986 17.1901 14.7762 15.6298 14.782C14.3378 14.782 13.032 13.5416 12.0635 12.4226L12.058 12.4292C12.058 12.4292 11.6226 11.9385 11.1459 11.4123C11.1459 11.4123 10.6045 10.7856 10.0278 10.2358C9.87073 10.0863 9.28377 9.6129 8.58526 9.33424C8.54238 9.32803 8.5042 9.32567 8.47074 9.32567C7.35266 9.33749 6.44642 10.2538 6.44642 11.3771C6.44642 12.5122 7.35266 13.4285 8.47074 13.4285C8.76496 13.4285 9.28868 13.2748 10.0831 12.5536C10.5127 12.1634 10.8834 11.7318 11.1424 11.4126C11.619 11.9387 12.0545 12.4294 12.0545 12.4294C11.7838 12.7605 11.413 13.1743 10.9894 13.5586C10.0949 14.3744 9.24751 14.7883 8.47074 14.7883C6.60532 14.7883 5.09297 13.2571 5.09297 11.3712C5.09297 11.0992 5.12828 10.8332 5.18712 10.579C5.19122 10.5615 5.20675 10.505 5.24043 10.4238C5.65027 9.01253 6.94507 7.97727 8.47429 7.97158C9.76598 7.97158 11.0712 9.21121 12.0356 10.33L12.0403 10.3245L12.042 10.3264C12.3124 9.99604 12.6819 9.58399 13.1039 9.20126ZM15.6225 13.4342C15.6047 13.4342 15.5855 13.4335 15.565 13.4319C14.8434 13.1604 14.2318 12.6714 14.0704 12.5178C13.5126 11.9861 12.9879 11.3824 12.9541 11.3433C13.2128 11.0245 13.5823 10.5949 14.0101 10.2063C14.8045 9.47912 15.3223 9.33132 15.6225 9.33132C16.7405 9.33132 17.6468 10.2477 17.6468 11.3828C17.6468 12.506 16.7405 13.4223 15.6225 13.4342Z" fill="#3B00B9"/>
</svg>
