<svg width="24" height="25" viewBox="0 0 24 25" fill="none" xmlns="http://www.w3.org/2000/svg">
<g clip-path="url(#clip0_516_7204)">
<path d="M12 0.436035C5.374 0.436035 0 5.80904 0 12.436C0 17.738 3.438 22.236 8.207 23.823C8.806 23.934 9 23.562 9 23.246V21.012C5.662 21.738 4.967 19.596 4.967 19.596C4.421 18.209 3.634 17.84 3.634 17.84C2.545 17.095 3.717 17.111 3.717 17.111C4.922 17.195 5.556 18.348 5.556 18.348C6.626 20.182 8.363 19.652 9.048 19.345C9.155 18.57 9.466 18.04 9.81 17.741C7.145 17.436 4.343 16.407 4.343 11.81C4.343 10.499 4.812 9.42904 5.579 8.58904C5.455 8.28604 5.044 7.06504 5.696 5.41304C5.696 5.41304 6.704 5.09103 8.997 6.64303C9.954 6.37703 10.98 6.24404 12 6.23904C13.02 6.24404 14.047 6.37703 15.006 6.64303C17.297 5.09103 18.303 5.41304 18.303 5.41304C18.956 7.06604 18.545 8.28704 18.421 8.58904C19.191 9.42904 19.656 10.5 19.656 11.81C19.656 16.419 16.849 17.434 14.177 17.731C14.607 18.103 15 18.833 15 19.953V23.246C15 23.565 15.192 23.94 15.801 23.822C20.566 22.233 24 17.736 24 12.436C24 5.80904 18.627 0.436035 12 0.436035Z" fill="#3B00B9"/>
</g>
<defs>
<clipPath id="clip0_516_7204">
<rect width="24" height="24" fill="white" transform="translate(0 0.436035)"/>
</clipPath>
</defs>
</svg>
