<svg width="24" height="25" viewBox="0 0 24 25" fill="none" xmlns="http://www.w3.org/2000/svg">
<path d="M2.22222 1.43604H21.7778C22.1019 1.43604 22.4128 1.5648 22.642 1.79402C22.8712 2.02323 23 2.3341 23 2.65826V22.2138C23 22.538 22.8712 22.8488 22.642 23.0781C22.4128 23.3073 22.1019 23.436 21.7778 23.436H2.22222C1.89807 23.436 1.58719 23.3073 1.35798 23.0781C1.12877 22.8488 1 22.538 1 22.2138V2.65826C1 2.3341 1.12877 2.02323 1.35798 1.79402C1.58719 1.5648 1.89807 1.43604 2.22222 1.43604V1.43604ZM18.4778 17.2516C18.3556 17.1905 18.2944 17.0071 18.2944 16.8837V7.55448C18.2944 7.43226 18.3556 7.24892 18.4778 7.12548L19.645 5.77492V5.71381H15.4711L12.3422 13.6314L8.78067 5.71381H4.48578V5.77492L5.58944 7.31004C5.83511 7.55448 5.89622 7.92359 5.89622 8.23037V14.9807C5.95733 15.3498 5.89622 15.7788 5.71289 16.1467L4.05556 18.4176V18.4787H8.47511V18.4176L6.81778 16.209C6.63444 15.8399 6.57211 15.472 6.63444 15.043V8.90381C6.69556 9.02603 6.75667 9.02604 6.81778 9.2717L10.9904 18.6009H11.0516L15.1044 8.47604C15.0433 8.8427 15.0433 9.27292 15.0433 9.58092V16.8226C15.0433 17.0059 14.9822 17.1281 14.86 17.2516L13.6317 18.4176V18.4787H19.6462V18.4176L18.4802 17.2516H18.4778Z" fill="#3B00B9"/>
</svg>
