<svg xmlns="http://www.w3.org/2000/svg" width="24" height="25" fill="none" viewBox="0 0 24 25"><g clip-path="url(#a)"><path fill="#3B00B9" d="M12 24.436C5.3724 24.436 0 19.0636 0 12.436C0 5.80844 5.3724 0.436035 12 0.436035C18.6276 0.436035 24 5.80844 24 12.436C24 19.0636 18.6276 24.436 12 24.436ZM20.004 12.436C19.9917 12.0983 19.8819 11.7713 19.6879 11.4945C19.4939 11.2177 19.2239 11.0029 18.9106 10.8761C18.5973 10.7492 18.254 10.7157 17.9221 10.7796C17.5902 10.8435 17.2839 11.002 17.04 11.236C15.6749 10.3081 14.0702 9.79544 12.42 9.76004L13.2 6.01604L15.768 6.55604C15.7985 6.83981 15.9292 7.10342 16.1366 7.29954C16.3439 7.49565 16.6144 7.61143 16.8995 7.6261C17.1845 7.64076 17.4654 7.55335 17.6918 7.37955C17.9182 7.20576 18.0753 6.95695 18.1348 6.6778C18.1942 6.39866 18.1523 6.10744 18.0164 5.85644C17.8806 5.60544 17.6597 5.41108 17.3934 5.30826C17.1272 5.20544 16.833 5.20088 16.5637 5.29541C16.2944 5.38994 16.0676 5.57736 15.924 5.82404L12.984 5.23604C12.9359 5.22549 12.8862 5.22459 12.8378 5.23339C12.7894 5.24219 12.7431 5.26051 12.7018 5.2873C12.6605 5.31409 12.625 5.34881 12.5972 5.38945C12.5694 5.43008 12.55 5.47583 12.54 5.52404L11.652 9.68804C9.98146 9.71322 8.35473 10.2263 6.972 11.164C6.78701 10.99 6.56638 10.8582 6.32541 10.7779C6.08444 10.6976 5.82889 10.6706 5.57646 10.6989C5.32404 10.7272 5.08078 10.81 4.86354 10.9416C4.6463 11.0732 4.46028 11.2505 4.31837 11.4612C4.17646 11.6718 4.08205 11.9108 4.04169 12.1616C4.00133 12.4124 4.01598 12.6689 4.08462 12.9135C4.15327 13.1581 4.27427 13.3848 4.43923 13.5779C4.6042 13.771 4.80919 13.926 5.04 14.032C5.02649 14.2078 5.02649 14.3843 5.04 14.56C5.04 17.248 8.172 19.432 12.036 19.432C15.9 19.432 19.032 17.248 19.032 14.56C19.0455 14.3843 19.0455 14.2078 19.032 14.032C19.3281 13.8849 19.5765 13.6569 19.7485 13.3744C19.9206 13.092 20.0091 12.7667 20.004 12.436V12.436ZM8.004 13.636C8.004 13.3178 8.13043 13.0126 8.35547 12.7875C8.58052 12.5625 8.88574 12.436 9.204 12.436C9.52226 12.436 9.82748 12.5625 10.0525 12.7875C10.2776 13.0126 10.404 13.3178 10.404 13.636C10.404 13.9543 10.2776 14.2595 10.0525 14.4846C9.82748 14.7096 9.52226 14.836 9.204 14.836C8.88574 14.836 8.58052 14.7096 8.35547 14.4846C8.13043 14.2595 8.004 13.9543 8.004 13.636ZM14.976 16.936C14.1246 17.5776 13.0771 17.9042 12.012 17.86C10.9469 17.9042 9.89937 17.5776 9.048 16.936C8.99697 16.8739 8.97089 16.7949 8.97484 16.7146C8.97879 16.6343 9.01247 16.5583 9.06935 16.5014C9.12622 16.4445 9.20222 16.4108 9.28256 16.4069C9.36289 16.4029 9.44183 16.429 9.504 16.48C10.2255 17.0092 11.1061 17.276 12 17.236C12.895 17.2847 13.7797 17.0265 14.508 16.504C14.5387 16.4697 14.5761 16.442 14.618 16.4227C14.6598 16.4034 14.7052 16.3929 14.7513 16.3919C14.7973 16.3909 14.8431 16.3994 14.8858 16.4168C14.9284 16.4342 14.967 16.4603 14.9992 16.4933C15.0314 16.5262 15.0564 16.5655 15.0728 16.6086C15.0891 16.6517 15.0964 16.6977 15.0943 16.7437C15.0921 16.7897 15.0805 16.8348 15.0601 16.8762C15.0398 16.9175 15.0111 16.9542 14.976 16.984V16.936V16.936ZM14.76 14.884C14.5227 14.884 14.2907 14.8137 14.0933 14.6818C13.896 14.5499 13.7422 14.3625 13.6513 14.1433C13.5605 13.924 13.5368 13.6827 13.5831 13.4499C13.6294 13.2172 13.7436 13.0033 13.9115 12.8355C14.0793 12.6677 14.2931 12.5534 14.5259 12.5071C14.7587 12.4608 14.9999 12.4846 15.2192 12.5754C15.4385 12.6662 15.6259 12.82 15.7578 13.0174C15.8896 13.2147 15.96 13.4467 15.96 13.684C15.9665 13.8466 15.9399 14.0089 15.8818 14.1608C15.8236 14.3128 15.7352 14.4514 15.6218 14.5681C15.5085 14.6849 15.3725 14.7773 15.2223 14.8399C15.0721 14.9024 14.9107 14.9338 14.748 14.932L14.76 14.884Z"/></g><defs><clipPath id="a"><rect width="24" height="24" fill="#fff" transform="translate(0 0.436035)"/></clipPath></defs></svg>