<svg width="24" height="24" viewBox="0 0 24 24" fill="none" xmlns="http://www.w3.org/2000/svg">
<g clip-path="url(#clip0_1073_198124)">
<path fill-rule="evenodd" clip-rule="evenodd" d="M24 12C24 18.6274 18.6274 24 12 24C5.37258 24 0 18.6274 0 12C0 5.37258 5.37258 0 12 0C18.6274 0 24 5.37258 24 12ZM12.4301 8.85759C11.263 9.34306 8.93026 10.3479 5.43201 11.872C4.86395 12.0979 4.56638 12.3189 4.53929 12.535C4.49351 12.9002 4.95084 13.044 5.5736 13.2398C5.65831 13.2664 5.74608 13.294 5.83606 13.3233C6.44876 13.5224 7.27295 13.7554 7.70141 13.7647C8.09007 13.7731 8.52385 13.6129 9.00276 13.284C12.2713 11.0777 13.9585 9.96247 14.0644 9.93843C14.1392 9.92147 14.2427 9.90014 14.3129 9.96251C14.3831 10.0249 14.3762 10.143 14.3687 10.1747C14.3234 10.3678 12.5282 12.0368 11.5992 12.9004C11.3096 13.1697 11.1042 13.3607 11.0622 13.4043C10.9681 13.502 10.8722 13.5944 10.7801 13.6833C10.2109 14.232 9.78403 14.6435 10.8037 15.3155C11.2938 15.6384 11.6859 15.9054 12.0771 16.1718C12.5043 16.4627 12.9304 16.7529 13.4817 17.1143C13.6222 17.2064 13.7563 17.302 13.887 17.3952C14.3842 17.7496 14.8309 18.0681 15.3827 18.0173C15.7034 17.9878 16.0346 17.6863 16.2028 16.787C16.6003 14.6618 17.3817 10.0571 17.5623 8.15963C17.5782 7.99339 17.5583 7.78063 17.5423 7.68723C17.5263 7.59384 17.4929 7.46077 17.3715 7.36226C17.2277 7.24559 17.0058 7.22099 16.9065 7.22274C16.4551 7.23069 15.7627 7.47147 12.4301 8.85759Z" fill="#3B00B9"/>
</g>
<defs>
<clipPath id="clip0_1073_198124">
<rect width="24" height="24" fill="white"/>
</clipPath>
</defs>
</svg>
