<svg width="25" height="24" viewBox="0 0 25 24" fill="none"
  xmlns="http://www.w3.org/2000/svg">
  <g clip-path="url(#clip0_518_23080)">
    <path d="M0.225746 1.0135C0.2159 1.02791 1.01342 2.08906 1.99308 3.36628C2.97275 4.64351 5.05516 7.36121 6.62065 9.40189L9.46612 13.1135L9.28397 13.3152C9.18059 13.4256 7.08833 15.6296 4.63671 18.2128C2.18508 20.8009 0.171593 22.9328 0.16667 22.9568C0.156824 22.9808 0.585121 23 1.20049 22.9952L2.24908 22.9904L2.59368 22.6207C2.78568 22.419 4.56779 20.5416 6.55666 18.4433C8.54553 16.345 10.2292 14.5684 10.2981 14.4916L10.4212 14.3523L11.4058 15.6392C11.9473 16.345 13.4389 18.2944 14.7189 19.9654L17.0524 23H20.6215C23.5901 23 24.1857 22.9904 24.166 22.9376C24.1513 22.8992 23.2454 21.7084 22.1526 20.2823C21.0597 18.861 19.8092 17.2285 19.376 16.6619C18.9379 16.0953 17.653 14.4099 16.5109 12.9263C15.3687 11.4378 14.4334 10.1989 14.4334 10.1797C14.4334 10.1461 20.4689 3.75521 22.5218 1.6185L23.1076 1.0087H22.0295L20.9563 1.0135L19.7009 2.33874C19.0117 3.06858 17.3231 4.85478 15.9447 6.30006L13.4488 8.93133L10.4212 4.98442L7.38863 1.03271L3.8195 1.0087C1.85524 0.994294 0.235591 0.999095 0.225746 1.0135ZM8.68337 5.26771C9.85011 6.79462 11.6519 9.1426 12.6857 10.4918C13.7195 11.8363 16.0136 14.8325 17.7859 17.1421C19.5582 19.4564 21.0252 21.3723 21.0498 21.4059C21.0794 21.4491 20.7298 21.4635 19.4548 21.4635H17.8253L14.5958 17.2477C7.14249 7.53407 3.38135 2.62684 3.33705 2.55481C3.30751 2.5116 3.64227 2.49719 4.92716 2.49719H6.55666L8.68337 5.26771Z" fill="#3B00B9"/>
  </g>
  <defs>
    <clipPath id="clip0_518_23080">
      <rect width="24" height="24" fill="white" transform="translate(0.166504)"/>
    </clipPath>
  </defs>
</svg>
