<svg width="24" height="25" viewBox="0 0 24 25" fill="none" xmlns="http://www.w3.org/2000/svg">
<path d="M22.7359 6.24629C23.25 8.25104 23.25 12.436 23.25 12.436C23.25 12.436 23.25 16.621 22.7359 18.6258C22.4501 19.7339 21.6142 20.6058 20.5556 20.9005C18.633 21.436 12 21.436 12 21.436C12 21.436 5.37037 21.436 3.44437 20.9005C2.38125 20.6013 1.5465 19.7305 1.26413 18.6258C0.75 16.621 0.75 12.436 0.75 12.436C0.75 12.436 0.75 8.25104 1.26413 6.24629C1.54988 5.13816 2.38575 4.26628 3.44437 3.97153C5.37037 3.43603 12 3.43604 12 3.43604C12 3.43604 18.633 3.43603 20.5556 3.97153C21.6187 4.27078 22.4535 5.14154 22.7359 6.24629V6.24629ZM9.75 16.3735L16.5 12.436L9.75 8.49854V16.3735Z" fill="#3B00B9"/>
</svg>
