<svg width="118" height="120" viewBox="0 0 118 120" fill="none" xmlns="http://www.w3.org/2000/svg">
<g id="Icons-Line/100% on-chain">
<path id="Vector" d="M8.12998 84.1414L50.84 108.32C51.11 108.473 51.45 108.473 51.72 108.31C51.99 108.146 52.16 107.849 52.16 107.532V67.2656C52.16 66.9383 51.99 66.6315 51.7 66.4781L8.98998 42.2894C8.71998 42.1359 8.37998 42.1359 8.10998 42.2996C7.83998 42.4632 7.66998 42.7598 7.66998 43.0769V83.3437C7.66998 83.6709 7.83998 83.9778 8.12998 84.1312V84.1414ZM9.43998 82.8118V57.7844L50.38 80.3162V105.988L9.43998 82.8118ZM50.38 67.7872V78.2605L9.43998 55.7287V44.6213L50.38 67.7974V67.7872Z" fill="white"/>
<path id="Vector_2" d="M109.8 42.2996C109.53 42.1359 109.2 42.1359 108.92 42.2894L66.21 66.4678C65.93 66.6315 65.75 66.9281 65.75 67.2554V107.522C65.75 107.839 65.92 108.136 66.19 108.299C66.46 108.463 66.79 108.463 67.07 108.31L109.78 84.1312C110.06 83.9676 110.24 83.6709 110.24 83.3437V43.0769C110.24 42.7598 110.07 42.4632 109.8 42.2996ZM67.53 67.7872L108.47 44.6111V82.8118L67.53 105.988V67.7872Z" fill="white"/>
<path id="Vector_3" d="M117.59 30.7933C117.51 30.7012 117.42 30.6092 117.31 30.5478L59.13 0.0997209C58.87 -0.0332403 58.58 -0.0332403 58.32 0.0997209L0.47 30.691C0.47 30.691 0.46 30.691 0.45 30.7012C0.45 30.7012 0.43 30.7012 0.43 30.7115C0.4 30.7319 0.37 30.7524 0.35 30.7831C0.32 30.8035 0.29 30.824 0.27 30.8444C0.24 30.8751 0.22 30.9058 0.19 30.9467C0.17 30.9774 0.14 31.0081 0.12 31.0388C0.1 31.0797 0.09 31.1206 0.07 31.1513C0.06 31.1819 0.04 31.2126 0.03 31.2535C0.02 31.3047 0.01 31.3558 0.01 31.3967C0.01 31.4274 0 31.4479 0 31.4786V86.2279C0 86.5552 0.17 86.862 0.46 87.0154L58.54 119.887C58.54 119.887 58.6 119.908 58.64 119.928C58.68 119.939 58.71 119.959 58.75 119.969C58.79 119.969 58.82 119.98 58.86 119.99C58.9 119.99 58.93 120 58.97 120C59.01 120 59.04 120 59.08 119.99C59.12 119.99 59.16 119.99 59.19 119.969C59.23 119.969 59.26 119.939 59.3 119.928C59.33 119.918 59.37 119.908 59.4 119.887L117.48 87.0154C117.76 86.8518 117.94 86.5552 117.94 86.2279V31.4888C117.94 31.2126 117.81 30.9672 117.61 30.7933H117.59ZM58.73 1.92027L115.03 31.3967L68.51 57.9276L59.02 63.2972L2.75 31.5195L58.73 1.92027ZM58.07 117.576L1.76 85.7063V33.0229L58.07 64.8927V117.576ZM59.84 64.9336L69.33 59.5231L116.15 33.0229V85.7063L59.84 117.576V64.9336Z" fill="white"/>
<path id="Vector_4" d="M83.21 72.5227C82.79 72.267 82.25 72.4204 82 72.85L75.83 83.6505C75.69 83.896 75.67 84.1824 75.77 84.4483C75.87 84.704 76.08 84.9085 76.35 84.9801L82.27 86.6984C82.74 86.8314 83.23 86.5552 83.36 86.0745C83.49 85.5938 83.22 85.0926 82.75 84.9597L77.93 83.5585L83.52 73.7705C83.77 73.3409 83.62 72.7886 83.2 72.5329L83.21 72.5227Z" fill="white"/>
<path id="Vector_5" d="M102.8 65.0154C102.7 64.7597 102.49 64.5551 102.22 64.4835L96.3 62.7653C95.83 62.6323 95.34 62.9085 95.21 63.3892C95.08 63.8699 95.35 64.371 95.82 64.504L100.64 65.9052L95.05 75.6932C94.8 76.1228 94.95 76.6751 95.37 76.9308C95.79 77.1864 96.33 77.033 96.58 76.6035L102.75 65.8029C102.89 65.5575 102.91 65.2711 102.81 65.0052L102.8 65.0154Z" fill="white"/>
<path id="Vector_6" d="M90.51 65.6802C90.03 65.6087 89.58 65.9564 89.51 66.4473L87.33 82.0345C87.26 82.5254 87.6 82.9856 88.08 83.0572C88.56 83.1288 89.01 82.7811 89.08 82.2902L91.26 66.703C91.33 66.2121 90.99 65.7518 90.51 65.6802Z" fill="white"/>
<path id="Vector_7" d="M13.63 55.616C13.96 55.7899 14.33 55.8922 14.69 55.8922C15.17 55.8922 15.65 55.7183 16.02 55.391C16.39 55.0637 16.63 54.6137 16.74 54.1126C16.78 53.908 16.8 53.7034 16.8 53.4989C16.8 52.9159 16.64 52.3534 16.36 51.8624C16.08 51.3715 15.68 50.9419 15.15 50.6658C14.82 50.4919 14.45 50.3896 14.09 50.3896C13.61 50.3896 13.13 50.5635 12.76 50.8908C12.39 51.2181 12.15 51.6681 12.04 52.1693C12 52.3738 11.98 52.5784 11.98 52.7829C11.98 53.3659 12.14 53.9285 12.42 54.4194C12.7 54.9103 13.1 55.3399 13.63 55.616ZM13.78 52.5477C13.82 52.3738 13.88 52.292 13.93 52.2511L14.1 52.1897C14.16 52.1897 14.24 52.2 14.35 52.2613C14.52 52.3534 14.7 52.5273 14.83 52.7625C14.96 52.9875 15.03 53.2637 15.03 53.4989L15.01 53.7239C14.97 53.8978 14.91 53.9796 14.86 54.0205L14.69 54.0819C14.63 54.0819 14.55 54.0716 14.44 54.0103C14.27 53.9182 14.09 53.7444 13.96 53.5091C13.83 53.2841 13.76 53.008 13.76 52.7727L13.78 52.5477Z" fill="white"/>
<path id="Vector_8" d="M19.8 58.8787C20.13 59.0526 20.5 59.1549 20.86 59.1549C21.34 59.1549 21.82 58.981 22.19 58.6537C22.56 58.3264 22.8 57.8764 22.91 57.3753C22.95 57.1707 22.97 56.9661 22.97 56.7616C22.97 56.1786 22.81 55.6161 22.53 55.1251C22.25 54.6342 21.85 54.2046 21.32 53.9285C20.99 53.7546 20.62 53.6523 20.26 53.6523C19.78 53.6523 19.3 53.8262 18.93 54.1535C18.56 54.4808 18.32 54.9308 18.21 55.432C18.17 55.6365 18.15 55.8411 18.15 56.0456C18.15 56.6286 18.31 57.1912 18.59 57.6821C18.87 58.173 19.27 58.6026 19.8 58.8787ZM19.95 55.8104C19.99 55.6365 20.05 55.5547 20.1 55.5138L20.27 55.4524C20.33 55.4524 20.41 55.4627 20.52 55.524C20.69 55.6161 20.87 55.79 21 56.0252C21.13 56.2502 21.2 56.5263 21.2 56.7616L21.18 56.9866C21.14 57.1605 21.08 57.2423 21.03 57.2832L20.86 57.3446C20.8 57.3446 20.72 57.3343 20.61 57.273C20.44 57.1809 20.26 57.0071 20.13 56.7718C20 56.5468 19.93 56.2707 19.93 56.0354L19.95 55.8104Z" fill="white"/>
<path id="Vector_9" d="M57.54 36.6334C57.54 38.1573 58.24 39.3233 58.88 40.0904C59.48 40.7961 60.03 41.1643 60.16 41.2563C60.16 41.2563 60.16 41.2563 60.17 41.2563L60.2 41.2768C63.25 43.4655 66.42 44.2224 69.24 44.2224C72.2 44.2224 74.8 43.4144 76.64 42.5859C77.77 42.0745 78.83 41.2256 79.64 40.162C80.44 39.0983 81 37.7993 81 36.3879C81 35.3447 80.67 34.2503 79.96 33.2684C79.25 32.2866 78.17 31.407 76.67 30.6706C73.78 29.2387 70.93 28.8296 68.6 28.8296C65.36 28.8296 63.11 29.6171 63.05 29.6376L63.63 31.3456H63.64C63.83 31.274 65.83 30.6297 68.6 30.6297C70.73 30.6297 73.3 31.0081 75.9 32.2968C77.2 32.9411 78.04 33.6571 78.54 34.3423C79.04 35.0378 79.23 35.7026 79.23 36.3777C79.23 37.2777 78.86 38.2187 78.24 39.0471C77.62 39.8653 76.77 40.5506 75.93 40.9188C74.26 41.6654 71.88 42.4018 69.24 42.4018C66.7 42.4018 63.92 41.737 61.17 39.7528L61.15 39.7324H61.13C61.13 39.7324 60.62 39.3744 60.16 38.8221C59.7 38.2596 59.3 37.513 59.3 36.6129C59.3 36.48 59.3 36.3368 59.33 36.1833C59.52 34.7719 60.09 32.3172 60.1 29.8626C60.1 28.7682 59.99 27.6738 59.65 26.6306C59.32 25.5976 58.74 24.6157 57.84 23.8589C55.59 21.977 52.06 20.7087 48.12 20.6985C45.89 20.6985 43.53 21.1076 41.23 22.0792C39.65 22.744 38.45 23.6032 37.64 24.626C36.83 25.6385 36.41 26.8249 36.41 28.0011C36.41 29.2489 36.86 30.466 37.64 31.5399C38.42 32.6139 39.54 33.5446 40.92 34.2605C43.82 35.764 47.15 36.0811 49.62 36.0811C51.72 36.0811 53.19 35.8356 53.23 35.8356L52.95 34.0457H52.9C52.63 34.0969 51.35 34.2708 49.62 34.2708C47.31 34.2708 44.21 33.9435 41.72 32.6445C40.54 32.0309 39.64 31.2638 39.05 30.4456C38.46 29.6273 38.17 28.7887 38.17 27.9909C38.17 27.234 38.42 26.4874 39 25.7612C39.58 25.0351 40.52 24.3191 41.89 23.7464C43.97 22.877 46.1 22.4986 48.11 22.4986C51.67 22.4986 54.87 23.685 56.71 25.2396C57.31 25.751 57.71 26.3954 57.96 27.1829C58.22 27.9704 58.32 28.8807 58.32 29.8421C58.32 32.0309 57.78 34.3526 57.57 35.9174C57.54 36.1424 57.52 36.3777 57.52 36.5925L57.54 36.6334Z" fill="white"/>
</g>
</svg>
