<svg width="121" height="120" viewBox="0 0 121 120" fill="none" xmlns="http://www.w3.org/2000/svg">
<g id="Icons-Line/icon-convert">
<path id="Vector" d="M82.4887 11L82.4887 11.885L82.4887 11ZM82.4887 54.3771L82.4887 55.2621L82.4887 54.3771ZM87.8401 11L87.8401 10.115L87.8401 11ZM109.513 32.6885L110.398 32.6885L109.513 32.6885ZM87.84 54.3771L87.84 53.4921L87.84 54.3771ZM86.2776 108.555C86.623 108.9 87.1834 108.9 87.5291 108.555C87.8749 108.209 87.8751 107.649 87.5296 107.303L86.2776 108.555ZM66.2809 87.2915L65.6549 86.6659L65.0298 87.2915L65.6549 87.9171L66.2809 87.2915ZM66.1671 86.4066C65.6783 86.4066 65.2821 86.8028 65.2821 87.2916C65.2821 87.7804 65.6783 88.1766 66.1671 88.1766L66.1671 86.4066ZM53.7452 32.7085L54.3712 33.3341L54.9963 32.7085L54.3712 32.083L53.7452 32.7085ZM32.4965 52.7204C32.151 53.0662 32.1512 53.6265 32.4969 53.972C32.8427 54.3175 33.403 54.3173 33.7485 53.9716L32.4965 52.7204ZM10.513 31.8234C10.0243 31.8234 9.62803 32.2196 9.62803 32.7084C9.62803 33.1972 10.0243 33.5934 10.513 33.5934L10.513 31.8234ZM37.5374 65.623L37.5374 64.738L37.5374 65.623ZM59.2103 87.3115L60.0953 87.3115L59.2103 87.3115ZM37.5374 109L37.5374 109.885L37.5374 109ZM32.186 66.508C43.6663 66.508 52.974 75.8214 52.974 87.3115L54.744 87.3115C54.744 74.8451 44.645 64.738 32.186 64.738L32.186 66.508ZM52.974 87.3115C52.974 98.8015 43.6663 108.115 32.186 108.115L32.186 109.885C44.645 109.885 54.744 99.7779 54.744 87.3115L52.974 87.3115ZM32.186 108.115C20.7057 108.115 11.398 98.8015 11.398 87.3115L9.62803 87.3115C9.62803 99.7779 19.727 109.885 32.186 109.885L32.186 108.115ZM11.398 87.3115C11.398 75.8214 20.7057 66.508 32.186 66.508L32.186 64.738C19.727 64.738 9.62803 74.8451 9.62803 87.3115L11.398 87.3115ZM82.4887 11.885C93.969 11.885 103.277 21.1985 103.277 32.6885L105.047 32.6885C105.047 20.2221 94.9477 10.115 82.4887 10.115L82.4887 11.885ZM103.277 32.6885C103.277 44.1786 93.969 53.4921 82.4887 53.4921L82.4887 55.2621C94.9477 55.2621 105.047 45.1549 105.047 32.6885L103.277 32.6885ZM82.4887 53.4921C71.0084 53.4921 61.7007 44.1786 61.7007 32.6885L59.9307 32.6885C59.9307 45.1549 70.0297 55.2621 82.4887 55.2621L82.4887 53.4921ZM61.7007 32.6885C61.7007 21.1985 71.0084 11.885 82.4887 11.885L82.4887 10.115C70.0297 10.115 59.9307 20.2221 59.9307 32.6885L61.7007 32.6885ZM87.8401 11.885C99.3203 11.885 108.628 21.1985 108.628 32.6885L110.398 32.6885C110.398 20.2221 100.299 10.115 87.8401 10.115L87.8401 11.885ZM108.628 32.6885C108.628 44.1786 99.3203 53.4921 87.84 53.4921L87.84 55.2621C100.299 55.2621 110.398 45.1549 110.398 32.6885L108.628 32.6885ZM87.8401 10.115L82.4887 10.115L82.4887 11.885L87.8401 11.885L87.8401 10.115ZM87.84 53.4921L82.4887 53.4921L82.4887 55.2621L87.84 55.2621L87.84 53.4921ZM87.5296 107.303L66.9069 86.6659L65.6549 87.9171L86.2776 108.555L87.5296 107.303ZM66.9069 87.9171L87.5296 67.2796L86.2776 66.0285L65.6549 86.6659L66.9069 87.9171ZM66.1671 88.1766L109.513 88.1766L109.513 86.4066L66.1671 86.4066L66.1671 88.1766ZM32.4965 12.6966L53.1191 33.3341L54.3712 32.083L33.7485 11.4455L32.4965 12.6966ZM53.1191 32.083L32.4965 52.7204L33.7485 53.9716L54.3712 33.3341L53.1191 32.083ZM53.859 31.8234L10.513 31.8234L10.513 33.5934L53.859 33.5934L53.859 31.8234ZM37.5374 66.508C49.0176 66.508 58.3253 75.8214 58.3253 87.3115L60.0953 87.3115C60.0953 74.8451 49.9964 64.738 37.5374 64.738L37.5374 66.508ZM58.3253 87.3115C58.3253 98.8015 49.0176 108.115 37.5374 108.115L37.5374 109.885C49.9964 109.885 60.0953 99.7779 60.0953 87.3115L58.3253 87.3115ZM37.5374 64.738L32.186 64.738L32.186 66.508L37.5374 66.508L37.5374 64.738ZM37.5374 108.115L32.186 108.115L32.186 109.885L37.5374 109.885L37.5374 108.115Z" fill="white"/>
</g>
</svg>
