<svg width="121" height="120" viewBox="0 0 121 120" fill="none" xmlns="http://www.w3.org/2000/svg">
<g id="Icons-Line/icon-secure">
<path id="Vector" d="M50.6658 51.4976L96.1321 25.2476C100.198 22.9004 105.396 24.2934 107.743 28.3588C110.091 32.4243 108.698 37.6228 104.632 39.9701L103.119 40.8434C102.985 40.921 102.818 40.916 102.689 40.8305L101.034 39.738L70.699 57.2519C69.3869 58.0095 68.7685 59.5869 67.8835 60.8166C67.5891 61.2256 67.2074 61.5756 66.7547 61.8365L58.6656 66.4977M94.2709 39.0239L95.5396 38.2947C97.2985 37.2836 99.5401 37.8097 100.665 39.4978M89.3068 38.4258L92.8068 44.488M85.0126 48.988L81.5126 42.9258M79.5485 47.5239L70.1079 53.031C68.215 54.1352 67.563 56.5571 68.6458 58.4624L68.6659 58.4978M58.2666 68.2984C58.2666 81.7189 47.3871 92.5984 33.9666 92.5984C20.5461 92.5984 9.66663 81.7189 9.66663 68.2984M58.2666 68.2984C58.2666 54.8779 47.3871 43.9984 33.9666 43.9984C20.5461 43.9984 9.66663 54.8779 9.66663 68.2984M58.2666 68.2984L58.2666 74.2984C58.2666 87.7189 47.3871 98.5984 33.9666 98.5984C20.5461 98.5984 9.66662 87.7189 9.66663 74.2984L9.66663 68.2984" stroke="white" stroke-width="1.77"/>
</g>
</svg>
