<svg width="80" height="122" viewBox="0 0 80 122" fill="none" xmlns="http://www.w3.org/2000/svg">
<g id="Group 33876">
<path id="Vector" d="M1.7193 57.463L40.14 79.2021V42.9815L1.7193 21.2424V57.463Z" stroke="white" stroke-width="1.77" stroke-linejoin="round"/>
<path id="Vector_2" d="M78.5613 57.463L40.1407 79.2021V42.9815L78.5613 21.2424V57.463Z" stroke="white" stroke-width="1.77" stroke-linejoin="round"/>
<path id="Vector_3" d="M40.2056 42.9796L1.7193 21.2406L39.9978 1L78.4841 21.1511L40.2056 42.9796Z" stroke="white" stroke-width="1.77" stroke-linejoin="round"/>
<path id="Vector_4" d="M43.0587 20.5812C43.0587 20.5812 47.29 19.0939 51.6197 21.241C55.9494 23.388 53.8939 27.0112 51.6197 28.04C49.3455 29.0688 45.2017 30.0417 41.2874 27.2125C41.2874 27.2125 39.5709 26.1278 39.8223 24.2827C40.0738 22.4375 41.1562 18.4565 39.046 16.6785C36.9359 14.9004 32.6608 13.9052 28.6482 15.5937C24.6356 17.2823 25.1932 20.8496 28.4951 22.5717C31.7971 24.2938 36.2798 23.5558 36.2798 23.5558" stroke="white" stroke-width="1.77"/>
<path id="Vector_5" d="M34.3219 76.3955C29.7845 87.2427 40.1714 98.3918 40.1714 98.3918H40.1386C40.1386 98.3918 50.5255 87.2427 45.9881 76.3955" stroke="white" stroke-width="1.77" stroke-linejoin="round"/>
<path id="Vector_6" d="M50.5254 92.8899V110.838" stroke="white" stroke-width="1.77" stroke-linecap="round" stroke-linejoin="round"/>
<path id="Vector_7" d="M40.1385 102.832V120.78" stroke="white" stroke-width="1.77" stroke-linecap="round" stroke-linejoin="round"/>
<path id="Vector_8" d="M57.4465 82.5764V90.3595" stroke="white" stroke-width="1.77" stroke-linecap="round" stroke-linejoin="round"/>
<path id="Vector_9" d="M29.8178 92.8899V110.838" stroke="white" stroke-width="1.77" stroke-linecap="round" stroke-linejoin="round"/>
<path id="Vector_10" d="M22.8967 82.5764V90.3595" stroke="white" stroke-width="1.77" stroke-linecap="round" stroke-linejoin="round"/>
<path id="Vector_11" d="M68.1614 63.8586C74.9621 68.4547 67.079 80.3195 67.079 80.3195C67.079 80.3195 67.8553 72.0891 59.3599 69.3158" stroke="white" stroke-width="1.77" stroke-linecap="round" stroke-linejoin="round"/>
<path id="Vector_12" d="M12.3667 63.8586C5.56597 68.4547 13.4491 80.3195 13.4491 80.3195C13.4491 80.3195 12.6728 72.0891 21.1682 69.3158" stroke="white" stroke-width="1.77" stroke-linecap="round" stroke-linejoin="round"/>
</g>
</svg>
