<svg width="123" height="122" viewBox="0 0 123 122" fill="none" xmlns="http://www.w3.org/2000/svg">
<g id="Icons-Line/icon-bitcoin">
<path id="Vector" opacity="0.7" d="M119.537 75.5147C111.523 107.658 78.9637 127.219 46.8134 119.204C14.6763 111.19 -4.8877 78.6328 3.13065 46.4919C11.1415 14.3453 43.7006 -5.2182 75.8415 2.79547C107.99 10.8091 127.552 43.3701 119.537 75.5147V75.5147Z" stroke="white" stroke-width="1.77"/>
<path id="Vector_2" d="M88.6096 52.5844C89.8224 44.4785 83.65 40.121 75.21 37.2141L77.9478 26.2337L71.2633 24.5679L68.5978 35.259C66.8405 34.8212 65.0356 34.4081 63.2421 33.9988L65.9266 23.2373L59.2459 21.5715L56.5062 32.5481C55.0516 32.2169 53.6237 31.8895 52.2377 31.5449L52.2453 31.5107L43.0267 29.2091L41.2484 36.3479C41.2484 36.3479 46.2081 37.4844 46.1033 37.5548C48.8107 38.2306 49.3 40.022 49.2181 41.4421C46.7166 51.4759 44.2201 61.487 41.7167 71.5222C41.3855 72.3446 40.5459 73.5782 38.6534 73.1099C38.7201 73.207 33.7947 71.8972 33.7947 71.8972L30.4762 79.5482L39.1751 81.7164C40.7934 82.1219 42.3793 82.5464 43.9405 82.9462L41.1742 94.0523L47.8511 95.718L50.5908 84.7299C52.4147 85.2249 54.1854 85.6818 55.9179 86.112L53.1877 97.0487L59.8723 98.7144L62.6386 87.6293C74.0372 89.7861 82.6085 88.9161 86.2164 78.6077C89.1237 70.3077 86.0717 65.5199 80.0744 62.3979C84.442 61.3908 87.7319 58.5182 88.6096 52.5844ZM73.3366 73.9989C71.2708 82.299 57.2944 77.812 52.7631 76.6869L56.4338 61.9733C60.9651 63.1041 75.4956 65.3429 73.3366 73.9989ZM75.4042 52.4645C73.5193 60.0145 61.8866 56.1785 58.1131 55.2381L61.4411 41.8934C65.2146 42.8338 77.3671 44.5889 75.4042 52.4645Z" stroke="white" stroke-width="1.77"/>
</g>
</svg>
