<svg width="121" height="120" viewBox="0 0 121 120" fill="none" xmlns="http://www.w3.org/2000/svg">
<g id="Icons-Line/icon-owned">
<path id="Vector" d="M10.5555 106.794C10.1381 107.049 10.0061 107.593 10.2605 108.011C10.5149 108.428 11.0594 108.56 11.4768 108.306L10.5555 106.794ZM32.9161 94.2L32.8321 93.319L32.6294 93.3384L32.4555 93.4443L32.9161 94.2ZM69.0661 90.75L69.1502 91.631L69.2428 91.6222L69.3316 91.5943L69.0661 90.75ZM108.666 78.3L108.932 79.1443L108.939 79.142L108.946 79.1396L108.666 78.3ZM111.666 72.45L110.818 72.7014L111.666 72.45ZM105.816 69.45L105.653 68.5802L105.816 69.45ZM9.06231 75.8188C8.60324 75.9866 8.36712 76.4948 8.53492 76.9538C8.70272 77.4129 9.21089 77.649 9.66996 77.4812L9.06231 75.8188ZM31.1161 68.7V67.815H30.9595L30.8123 67.8688L31.1161 68.7ZM74.0161 76.65L74.1732 77.521L74.1744 77.5207L74.0161 76.65ZM69.1663 2L69.6112 1.23495C69.3361 1.07502 68.9964 1.07502 68.7214 1.23495L69.1663 2ZM98.666 19.1542L99.1109 19.9193C99.3833 19.7608 99.551 19.4694 99.551 19.1542C99.551 18.839 99.3833 18.5476 99.1109 18.3892L98.666 19.1542ZM69.1663 36.3085L68.7214 37.0735C68.9964 37.2335 69.3361 37.2335 69.6112 37.0735L69.1663 36.3085ZM39.6666 19.1542L39.2217 18.3892C38.9493 18.5476 38.7816 18.839 38.7816 19.1542C38.7816 19.4694 38.9493 19.7608 39.2217 19.9193L39.6666 19.1542ZM98.6666 47.87L99.111 48.6353C99.3838 48.4769 99.5516 48.1854 99.5516 47.87H98.6666ZM98.6666 19.1326H99.5516C99.5516 18.8159 99.3824 18.5234 99.1079 18.3654C98.8334 18.2075 98.4955 18.2083 98.2217 18.3675L98.6666 19.1326ZM69.167 36.2868L68.7221 35.5218C68.4496 35.6802 68.282 35.9716 68.282 36.2868H69.167ZM69.1669 65H68.2819C68.2819 65.3166 68.451 65.609 68.7254 65.767C68.9998 65.9249 69.3376 65.9243 69.6114 65.7653L69.1669 65ZM39.6932 47.87H38.8082C38.8082 48.1854 38.9761 48.4769 39.2488 48.6353L39.6932 47.87ZM39.6932 19.1326L40.1381 18.3675C39.8644 18.2083 39.5264 18.2075 39.2519 18.3654C38.9774 18.5234 38.8082 18.8159 38.8082 19.1326H39.6932ZM69.1929 36.2868H70.0779C70.0779 35.9716 69.9103 35.6802 69.6378 35.5218L69.1929 36.2868ZM69.1929 65L68.7485 65.7653C69.0223 65.9243 69.3601 65.9249 69.6345 65.767C69.9088 65.609 70.0779 65.3166 70.0779 65H69.1929ZM11.4768 108.306L33.3768 94.9557L32.4555 93.4443L10.5555 106.794L11.4768 108.306ZM33.0002 95.081L69.1502 91.631L68.9821 89.869L32.8321 93.319L33.0002 95.081ZM69.3316 91.5943L108.932 79.1443L108.401 77.4557L68.8007 89.9057L69.3316 91.5943ZM108.946 79.1396C109.752 78.8709 110.936 78.2174 111.781 77.086C112.659 75.9119 113.129 74.2734 112.515 72.1986L110.818 72.7014C111.27 74.2266 110.915 75.2881 110.363 76.0265C109.78 76.8076 108.93 77.2792 108.386 77.4604L108.946 79.1396ZM112.515 72.1986C112.073 70.7071 111.169 69.6155 109.917 68.9993C108.687 68.3939 107.208 68.2887 105.653 68.5802L105.979 70.3199C107.275 70.077 108.342 70.1968 109.136 70.5874C109.908 70.9673 110.504 71.6429 110.818 72.7014L112.515 72.1986ZM105.653 68.5802C103.755 68.9361 86.5023 71.5222 78.0859 72.7747L78.3464 74.5254C86.7299 73.2778 104.038 70.6839 105.979 70.3199L105.653 68.5802ZM9.66996 77.4812L31.42 69.5312L30.8123 67.8688L9.06231 75.8188L9.66996 77.4812ZM31.1161 69.585H74.0161V67.815H31.1161V69.585ZM74.0161 69.585C74.5911 69.585 75.4431 69.7178 76.1243 70.1815C76.7494 70.6071 77.3311 71.3754 77.3311 72.9H79.1011C79.1011 70.8246 78.2579 69.4929 77.1205 68.7185C76.0391 67.9823 74.7912 67.815 74.0161 67.815V69.585ZM77.3311 72.9C77.3311 73.9075 76.883 74.5126 76.244 74.9386C75.5568 75.3968 74.6556 75.6342 73.8578 75.7793L74.1744 77.5207C75.0266 77.3658 76.2255 77.0782 77.2258 76.4114C78.2743 75.7124 79.1011 74.5925 79.1011 72.9H77.3311ZM73.8591 75.7791L55.5591 79.0791L55.8732 80.821L74.1732 77.521L73.8591 75.7791ZM68.7214 2.76505L98.2211 19.9193L99.1109 18.3892L69.6112 1.23495L68.7214 2.76505ZM98.2211 18.3892L68.7214 35.5434L69.6112 37.0735L99.1109 19.9193L98.2211 18.3892ZM69.6112 35.5434L40.1115 18.3892L39.2217 19.9193L68.7214 37.0735L69.6112 35.5434ZM40.1115 19.9193L69.6112 2.76505L68.7214 1.23495L39.2217 18.3892L40.1115 19.9193ZM99.5516 47.87V19.1326H97.7816V47.87H99.5516ZM98.2217 18.3675L68.7221 35.5218L69.6118 37.0519L99.1115 19.8976L98.2217 18.3675ZM68.282 36.2868L68.2819 65H70.0519L70.0519 36.2868H68.282ZM69.6114 65.7653L99.111 48.6353L98.2222 47.1046L68.7225 64.2347L69.6114 65.7653ZM40.5782 47.87L40.5782 19.1326H38.8082L38.8082 47.87H40.5782ZM39.2484 19.8976L68.748 37.0519L69.6378 35.5218L40.1381 18.3675L39.2484 19.8976ZM68.3079 36.2868L68.3079 65H70.0779L70.0779 36.2868H68.3079ZM69.6373 64.2347L40.1377 47.1046L39.2488 48.6353L68.7485 65.7653L69.6373 64.2347Z" fill="white"/>
</g>
</svg>
