<svg width="108" height="94" viewBox="0 0 108 94" fill="none" xmlns="http://www.w3.org/2000/svg">
<g id="Group 33900">
<g id="Group">
<path id="Vector" d="M35.4575 27.9602L53.6644 38.0327V21.2543L35.4575 11.1818V27.9602Z" stroke="white" stroke-width="1.77" stroke-linejoin="round"/>
<path id="Vector_2" d="M71.86 27.9602L53.6621 38.0327V21.2543L71.86 11.1818V27.9602Z" stroke="white" stroke-width="1.77" stroke-linejoin="round"/>
<path id="Vector_3" d="M53.6917 21.2477L35.4575 11.1843L53.5916 1.80334L71.8259 11.1388L53.6917 21.2477Z" stroke="white" stroke-width="1.77" stroke-linejoin="round"/>
</g>
<g id="Group_2">
<path id="Vector_4" d="M35.4575 82.1201L53.6644 92.1926V75.4142L35.4575 65.3417V82.1201Z" stroke="white" stroke-width="1.77" stroke-linejoin="round"/>
<path id="Vector_5" d="M71.86 82.1201L53.6621 92.1926V75.4142L71.86 65.3417V82.1201Z" stroke="white" stroke-width="1.77" stroke-linejoin="round"/>
<path id="Vector_6" d="M53.6917 75.4077L35.4575 65.3442L53.5916 55.9633L71.8259 65.2988L53.6917 75.4077Z" stroke="white" stroke-width="1.77" stroke-linejoin="round"/>
</g>
<g id="Group_3">
<path id="Vector_7" d="M70.5959 54.8103L88.8029 64.8828V48.1044L70.5959 38.0319V54.8103Z" stroke="white" stroke-width="1.77" stroke-linejoin="round"/>
<path id="Vector_8" d="M106.998 54.8103L88.8006 64.8828V48.1044L106.998 38.0319V54.8103Z" stroke="white" stroke-width="1.77" stroke-linejoin="round"/>
<path id="Vector_9" d="M88.8302 48.1082L70.5959 38.0357L88.7301 28.6638L106.964 37.9993L88.8302 48.1082Z" stroke="white" stroke-width="1.77" stroke-linejoin="round"/>
</g>
<g id="Group_4">
<path id="Vector_10" d="M1.00177 54.8103L19.2087 64.8828V48.1044L1.00177 38.0319V54.8103Z" stroke="white" stroke-width="1.77" stroke-linejoin="round"/>
<path id="Vector_11" d="M37.4134 54.8103L19.2064 64.8828V48.1044L37.4134 38.0319V54.8103Z" stroke="white" stroke-width="1.77" stroke-linejoin="round"/>
<path id="Vector_12" d="M19.236 48.1082L1.00177 38.0357L19.1359 28.6638L37.3702 37.9993L19.236 48.1082Z" stroke="white" stroke-width="1.77" stroke-linejoin="round"/>
</g>
<path id="Vector_13" d="M61.9534 24.9615L78.3678 33.7693" stroke="white" stroke-width="1.77" stroke-linecap="round" stroke-linejoin="round"/>
<path id="Vector_14" d="M27.8524 51.5543L44.2669 60.3712" stroke="white" stroke-width="1.77" stroke-linecap="round" stroke-linejoin="round"/>
<path id="Vector_15" d="M62.4847 60.3712L78.8992 51.5543" stroke="white" stroke-width="1.77" stroke-linecap="round" stroke-linejoin="round"/>
<path id="Vector_16" d="M29.1981 33.7693L45.6217 24.9615" stroke="white" stroke-width="1.77" stroke-linecap="round" stroke-linejoin="round"/>
</g>
</svg>
