<svg width="75" height="122" viewBox="0 0 75 122" fill="none" xmlns="http://www.w3.org/2000/svg">
<g id="Icons-Line/Vector">
<path id="Vector" d="M54.0529 46.2521L54.9366 46.3002L54.9873 45.3671H54.0529V46.2521ZM53.9765 47.3437L54.8583 47.4191L54.859 47.4103L53.9765 47.3437ZM1.51829 47.3437L0.637073 47.4254L0.637177 47.4265L1.51829 47.3437ZM1.54694 40.4811L2.42884 40.4071L2.42782 40.3949L2.42647 40.3828L1.54694 40.4811ZM51.5413 45.265L51.9351 44.4724L51.9311 44.4705L51.5413 45.265ZM53.5659 46.1572L53.2408 46.9804L53.2488 46.9835L53.2568 46.9865L53.5659 46.1572ZM37.646 28.3126L38.4832 28.0258L38.483 28.0252L37.646 28.3126ZM53.9479 108.423L54.829 108.506L54.8291 108.505L53.9479 108.423ZM1.48964 108.423L0.607849 108.499L0.607867 108.499L1.48964 108.423ZM1.53739 101.732L2.41699 101.634L2.41428 101.61L2.41021 101.585L1.53739 101.732ZM53.9192 101.561L53.0464 101.414L53.0403 101.451L53.0372 101.488L53.9192 101.561ZM54.1293 46.2616V45.3766H53.2443V46.2616H54.1293ZM39.9826 59.2179C39.9826 58.7291 39.5864 58.3329 39.0976 58.3329C38.6088 58.3329 38.2126 58.7291 38.2126 59.2179H39.9826ZM38.2126 85.4722C38.2126 85.961 38.6088 86.3572 39.0976 86.3572C39.5864 86.3572 39.9826 85.961 39.9826 85.4722H38.2126ZM39.9826 94.2237C39.9826 93.7349 39.5864 93.3387 39.0976 93.3387C38.6088 93.3387 38.2126 93.7349 38.2126 94.2237H39.9826ZM38.2126 111.717C38.2126 112.206 38.6088 112.602 39.0976 112.602C39.5864 112.602 39.9826 112.206 39.9826 111.717H38.2126ZM29.3184 44.4867L29.7517 43.715L29.7286 43.7021L29.7048 43.6905L29.3184 44.4867ZM14.153 33.5236L14.4715 34.3493L14.4734 34.3486L14.153 33.5236ZM34.9338 10.1928L34.049 10.1719L34.0489 10.1764L34.9338 10.1928ZM36.3949 8.68361L36.3482 7.79982L36.3427 7.80015L36.3949 8.68361ZM52.4199 1.69765L53.0366 2.3324L53.0374 2.33162L52.4199 1.69765ZM55.8388 1.69765L55.2213 2.33162L55.2233 2.33355L55.8388 1.69765ZM71.8637 8.68361L71.9153 7.8001L71.9104 7.79984L71.8637 8.68361ZM73.3248 10.1928L72.4399 10.2033L72.44 10.2096L73.3248 10.1928ZM54.6928 46.1572L55.0118 46.9827L55.0129 46.9823L54.6928 46.1572ZM57.1312 18.7829C57.1312 19.2716 57.5274 19.6679 58.0162 19.6679C58.5049 19.6679 58.9012 19.2716 58.9012 18.7829H57.1312ZM49.3575 18.7829C49.3575 19.2716 49.7537 19.6679 50.2425 19.6679C50.7312 19.6679 51.1275 19.2716 51.1275 18.7829H49.3575ZM53.2539 29.613C53.2539 30.1018 53.6501 30.498 54.1389 30.498C54.6276 30.498 55.0239 30.1018 55.0239 29.613H53.2539ZM53.1692 46.2041C53.1508 46.5434 53.1231 46.8918 53.094 47.2771L54.859 47.4103C54.8872 47.0362 54.9169 46.6632 54.9366 46.3002L53.1692 46.2041ZM53.0947 47.2682C52.8387 50.2602 50.256 53.2009 45.6824 55.4314C41.1537 57.6399 34.8815 59.0353 27.7426 59.0353V60.8053C35.0912 60.8053 41.6398 59.3721 46.4582 57.0223C51.2317 54.6943 54.5222 51.3467 54.8583 47.4191L53.0947 47.2682ZM27.7426 59.0353C20.6042 59.0353 14.3489 57.6377 9.82996 55.4282C5.26773 53.1976 2.6808 50.255 2.39941 47.2609L0.637177 47.4265C1.00519 51.3424 4.28674 54.6882 9.05249 57.0183C13.8615 59.3696 20.3937 60.8053 27.7426 60.8053V59.0353ZM2.39952 47.262C2.1456 44.5234 2.16874 42.3395 2.42257 40.6096L0.67132 40.3526C0.39035 42.2675 0.375286 44.6018 0.637074 47.4254L2.39952 47.262ZM0.665047 40.5552C0.988397 44.4063 4.39986 47.6176 9.19225 49.8285C14.045 52.0673 20.5844 53.4207 27.7426 53.4207V51.6507C20.7859 51.6507 14.5092 50.3322 9.93372 48.2213C5.29786 46.0826 2.66894 43.2667 2.42884 40.4071L0.665047 40.5552ZM27.7426 53.4207C33.0891 53.4207 38.085 52.6672 42.2902 51.3577C46.4819 50.0525 49.95 48.1751 52.1763 45.8814L50.9062 44.6486C48.9591 46.6547 45.7948 48.4126 41.7639 49.6678C37.7465 50.9188 32.9298 51.6507 27.7426 51.6507V53.4207ZM51.1474 46.0575C51.8242 46.3939 52.5261 46.6982 53.2408 46.9804L53.8909 45.3341C53.2113 45.0657 52.5571 44.7815 51.9351 44.4725L51.1474 46.0575ZM53.2568 46.9865C53.484 47.0712 53.7617 47.1371 54.0529 47.1371V45.3671C54.0194 45.3671 53.9533 45.3572 53.8749 45.3279L53.2568 46.9865ZM2.42647 40.3828C2.41109 40.2453 2.40329 40.1073 2.40329 39.9591H0.633295C0.633295 40.1716 0.644596 40.3753 0.667423 40.5794L2.42647 40.3828ZM2.40329 39.9591C2.40329 37.0254 4.91687 34.1056 9.58405 31.8668C14.1868 29.6588 20.6066 28.2674 27.7426 28.2674V26.4974C20.4009 26.4974 13.7085 27.9251 8.8185 30.2709C3.99297 32.5857 0.633295 35.9542 0.633295 39.9591H2.40329ZM27.7426 28.2674C31.1923 28.2674 34.4779 28.5945 37.476 29.1812L37.8159 27.4441C34.7021 26.8348 31.3026 26.4974 27.7426 26.4974V28.2674ZM36.8088 28.5995C39.1263 35.3645 43.3804 42.2469 51.1515 46.0595L51.9311 44.4705C44.7277 40.9364 40.7115 34.5303 38.4832 28.0258L36.8088 28.5995ZM53.0667 108.341C52.7853 111.339 50.1962 114.282 45.6329 116.511C41.1127 118.72 34.8574 120.115 27.7235 120.115V121.885C35.0675 121.885 41.5997 120.452 46.4098 118.102C51.1768 115.773 54.461 112.427 54.829 108.506L53.0667 108.341ZM27.7235 120.115C20.5895 120.115 14.3172 118.72 9.78729 116.511C5.21219 114.28 2.62742 111.34 2.37142 108.348L0.607867 108.499C0.943967 112.427 4.23723 115.774 9.01159 118.102C13.8311 120.452 20.3797 121.885 27.7235 121.885V120.115ZM2.37144 108.348C2.14593 105.705 2.17734 103.572 2.41412 101.852L0.660665 101.611C0.400846 103.498 0.374954 105.769 0.607849 108.499L2.37144 108.348ZM0.657795 101.829C1.07903 105.624 4.50439 108.785 9.28561 110.963C14.126 113.169 20.6184 114.5 27.7235 114.5V112.73C20.8188 112.73 14.5858 111.433 10.0194 109.353C5.39389 107.245 2.73111 104.464 2.41699 101.634L0.657795 101.829ZM27.7235 114.5C34.8302 114.5 41.3714 113.144 46.2373 110.905C51.0398 108.695 54.4829 105.484 54.8012 101.634L53.0372 101.488C52.8016 104.339 50.1518 107.155 45.4974 109.297C40.9064 111.41 34.6267 112.73 27.7235 112.73V114.5ZM53.0436 101.689C53.2974 103.419 53.3205 105.603 53.0666 108.342L54.8291 108.505C55.0909 105.682 55.0758 103.347 54.7948 101.432L53.0436 101.689ZM53.0629 101.048C53.0629 101.231 53.0609 101.328 53.0464 101.414L54.792 101.707C54.8349 101.452 54.8329 101.207 54.8329 101.048H53.0629ZM53.0372 101.488C52.8013 104.342 50.1738 107.157 45.5359 109.297C40.9592 111.41 34.68 112.73 27.7235 112.73V114.5C34.882 114.5 41.4237 113.145 46.2776 110.905C51.0704 108.693 54.4832 105.481 54.8012 101.634L53.0372 101.488ZM27.7235 112.73C20.7655 112.73 14.5331 111.433 9.98088 109.353C5.37189 107.247 2.73142 104.467 2.41699 101.634L0.657795 101.829C1.07872 105.622 4.47386 108.783 9.24537 110.963C14.0737 113.169 20.5667 114.5 27.7235 114.5V112.73ZM2.41021 101.585C2.3836 101.427 2.37464 101.254 2.37464 101.048H0.604645C0.604645 101.298 0.614784 101.581 0.66458 101.878L2.41021 101.585ZM2.37464 101.048C2.37464 98.1097 4.88845 95.19 9.55636 92.9525C14.1602 90.7457 20.5824 89.3566 27.7235 89.3566V87.5866C20.3773 87.5866 13.6825 89.0119 8.79129 91.3564C3.9641 93.6702 0.604645 97.0388 0.604645 101.048H2.37464ZM27.7235 89.3566C34.8647 89.3566 41.2844 90.7457 45.8858 92.9524C50.551 95.1897 53.0629 98.1094 53.0629 101.048H54.8329C54.8329 97.0391 51.4763 93.6705 46.6511 91.3565C41.7622 89.0119 35.0697 87.5866 27.7235 87.5866V89.3566ZM55.0143 104.152V46.2616H53.2443V104.152H55.0143ZM38.2126 59.2179V85.4722H39.9826V59.2179H38.2126ZM38.2126 94.2237V111.717H39.9826V94.2237H38.2126ZM0.614194 43.7748V104.152H2.38419V43.7748H0.614194ZM31.4385 37.8139C31.7163 38.6542 31.7161 38.6543 31.7159 38.6543C31.7158 38.6543 31.7156 38.6544 31.7155 38.6544C31.7153 38.6545 31.7152 38.6546 31.7151 38.6546C31.715 38.6546 31.7152 38.6545 31.7157 38.6544C31.7167 38.654 31.719 38.6533 31.7224 38.6522C31.7292 38.6501 31.7408 38.6464 31.7569 38.6414C31.7892 38.6315 31.8399 38.6163 31.9078 38.5971C32.0435 38.5587 32.2476 38.5045 32.5104 38.4445C33.0367 38.3243 33.7952 38.182 34.7099 38.0972C36.5456 37.927 38.9712 37.9923 41.4052 38.8995L42.0234 37.2409C39.2622 36.2118 36.5499 36.149 34.5465 36.3347C33.5416 36.4279 32.7052 36.5845 32.1166 36.7189C31.8219 36.7861 31.5885 36.848 31.4261 36.8939C31.3449 36.9169 31.2813 36.9359 31.2367 36.9496C31.2144 36.9565 31.1968 36.962 31.184 36.9661C31.1777 36.9681 31.1725 36.9698 31.1686 36.9711C31.1667 36.9717 31.165 36.9722 31.1637 36.9727C31.163 36.9729 31.1624 36.9731 31.1619 36.9732C31.1617 36.9733 31.1613 36.9734 31.1612 36.9735C31.1609 36.9736 31.1606 36.9737 31.4385 37.8139ZM41.4052 38.8995C42.609 39.3481 43.2528 39.8579 43.571 40.3015C43.8696 40.7175 43.9244 41.1317 43.8253 41.5525C43.6048 42.4888 42.5828 43.5157 41.3785 44.0095L42.0501 45.6472C43.5771 45.021 45.1527 43.637 45.5482 41.9583C45.757 41.0716 45.6245 40.1272 45.0092 39.2696C44.4136 38.4395 43.4172 37.7604 42.0234 37.2409L41.4052 38.8995ZM41.3785 44.0095C38.75 45.0874 34.104 46.1592 29.7517 43.715L28.885 45.2583C33.93 48.0915 39.216 46.8094 42.0501 45.6472L41.3785 44.0095ZM29.3184 44.4867C29.7048 43.6905 29.7051 43.6906 29.7054 43.6908C29.7055 43.6908 29.7058 43.691 29.706 43.691C29.7063 43.6912 29.7066 43.6914 29.7069 43.6915C29.7075 43.6918 29.708 43.692 29.7083 43.6922C29.709 43.6925 29.7092 43.6926 29.709 43.6925C29.7085 43.6923 29.7063 43.6912 29.7024 43.6892C29.6946 43.6851 29.6803 43.6776 29.6605 43.6666C29.6207 43.6445 29.5596 43.6089 29.4852 43.5604C29.334 43.462 29.1397 43.3179 28.9573 43.1339C28.5865 42.7599 28.3491 42.3164 28.4351 41.7789L26.6873 41.4993C26.4772 42.8128 27.1184 43.793 27.7002 44.38C27.9941 44.6765 28.2946 44.8973 28.5192 45.0436C28.6326 45.1175 28.7296 45.1742 28.801 45.2139C28.8367 45.2337 28.8662 45.2494 28.8884 45.2609C28.8995 45.2666 28.9087 45.2713 28.916 45.275C28.9197 45.2768 28.9228 45.2784 28.9255 45.2797C28.9268 45.2803 28.928 45.2809 28.9291 45.2814C28.9296 45.2817 28.9301 45.2819 28.9306 45.2822C28.9308 45.2823 28.9312 45.2825 28.9313 45.2825C28.9316 45.2827 28.9319 45.2828 29.3184 44.4867ZM28.4351 41.7789C28.56 40.998 28.9927 39.3457 29.0414 37.8366C29.0914 36.288 28.7712 34.4641 27.1115 33.3727L26.139 34.8516C27.0196 35.4307 27.3154 36.4449 27.2723 37.7794C27.2279 39.1535 26.8584 40.4293 26.6873 41.4993L28.4351 41.7789ZM27.1115 33.3727C24.3023 31.5253 18.8777 30.7387 13.8325 32.6987L14.4734 34.3486C19.0547 32.5688 23.8676 33.3579 26.139 34.8516L27.1115 33.3727ZM13.8344 32.6979C11.297 33.6768 9.79441 35.2616 9.88225 37.1479C9.96718 38.972 11.5294 40.4555 13.6377 41.2856L14.2862 39.6387C12.4408 38.9121 11.6872 37.8566 11.6503 37.0656C11.6164 36.3369 12.1862 35.2309 14.4715 34.3493L13.8344 32.6979ZM13.6377 41.2856C15.7762 42.1276 18.2492 42.2805 20.1339 42.2392C21.0863 42.2183 21.9103 42.1471 22.4975 42.0811C22.7914 42.048 23.027 42.0161 23.1907 41.9921C23.2726 41.9802 23.3366 41.9702 23.381 41.963C23.4032 41.9595 23.4205 41.9566 23.4328 41.9545C23.4389 41.9535 23.4437 41.9527 23.4473 41.9521C23.449 41.9518 23.4505 41.9515 23.4516 41.9513C23.4522 41.9512 23.4526 41.9512 23.453 41.9511C23.4532 41.9511 23.4535 41.951 23.4536 41.951C23.4538 41.951 23.454 41.9509 23.3019 41.0791C23.1498 40.2073 23.1499 40.2072 23.1501 40.2072C23.1501 40.2072 23.1502 40.2072 23.1502 40.2072C23.1503 40.2072 23.1503 40.2072 23.1502 40.2072C23.15 40.2072 23.1495 40.2073 23.1486 40.2075C23.147 40.2077 23.144 40.2083 23.1398 40.209C23.1314 40.2104 23.118 40.2126 23.0998 40.2155C23.0634 40.2214 23.0078 40.2301 22.9347 40.2407C22.7884 40.2621 22.5723 40.2915 22.2995 40.3222C21.7533 40.3836 20.9836 40.4501 20.0952 40.4696C18.2983 40.509 16.1014 40.3534 14.2862 39.6387L13.6377 41.2856ZM38.483 28.0252C35.9434 20.6298 35.7622 13.2495 35.8186 10.2092L34.0489 10.1764C33.9908 13.3058 34.1725 20.9225 36.809 28.6001L38.483 28.0252ZM35.8185 10.2137C35.8266 9.87189 36.0999 9.58761 36.4472 9.56706L36.3427 7.80015C35.0855 7.87452 34.0791 8.90011 34.049 10.1719L35.8185 10.2137ZM36.4417 9.56737C44.8095 9.12499 50.3969 4.897 53.0366 2.33239L51.8032 1.0629C49.3431 3.45301 44.139 7.38796 36.3482 7.79984L36.4417 9.56737ZM53.0374 2.33162C53.6487 1.73613 54.6099 1.73613 55.2213 2.33162L56.4563 1.06368C55.1576 -0.201226 53.101 -0.201226 51.8024 1.06368L53.0374 2.33162ZM55.2233 2.33355C57.871 4.89645 63.4486 9.12496 71.817 9.56737L71.9104 7.79984C64.1202 7.38799 58.9253 3.45356 56.4543 1.06175L55.2233 2.33355ZM71.812 9.5671C72.1736 9.58824 72.436 9.87473 72.4399 10.2033L74.2098 10.1823C74.1946 8.89727 73.1772 7.87389 71.9153 7.80012L71.812 9.5671ZM72.44 10.2096C72.4965 13.1836 72.3273 20.3194 69.944 27.5491C67.5625 34.7735 63.0122 41.9796 54.3726 45.3322L55.0129 46.9823C64.3273 43.3679 69.1504 35.6101 71.625 28.1033C74.0979 20.6017 74.2678 13.2388 74.2097 10.176L72.44 10.2096ZM54.3737 45.3317C54.3012 45.3597 54.2182 45.3766 54.1293 45.3766V47.1466C54.4415 47.1466 54.7405 47.0876 55.0118 46.9827L54.3737 45.3317ZM49.1156 19.6679H59.1526V17.8979H49.1156V19.6679ZM59.1526 19.6679C60.7418 19.6679 62.0208 20.9468 62.0208 22.5132H63.7908C63.7908 19.9591 61.7091 17.8979 59.1526 17.8979V19.6679ZM62.0208 22.5132V29.6035H63.7908V22.5132H62.0208ZM62.0208 29.6035C62.0208 31.1698 60.7418 32.4488 59.1526 32.4488V34.2188C61.7091 34.2188 63.7908 32.1576 63.7908 29.6035H62.0208ZM59.1526 32.4488H49.1156V34.2188H59.1526V32.4488ZM49.1156 32.4488C47.5264 32.4488 46.2474 31.1698 46.2474 29.6035H44.4774C44.4774 32.1576 46.5591 34.2188 49.1156 34.2188V32.4488ZM46.2474 29.6035V22.5132H44.4774V29.6035H46.2474ZM46.2474 22.5132C46.2474 20.9468 47.5264 19.6679 49.1156 19.6679V17.8979C46.5591 17.8979 44.4774 19.9591 44.4774 22.5132H46.2474ZM58.9012 18.7829V13.8756H57.1312V18.7829H58.9012ZM58.9012 13.8756C58.9012 11.2461 56.7617 9.12746 54.1293 9.12746V10.8975C55.7944 10.8975 57.1312 12.2338 57.1312 13.8756H58.9012ZM54.1293 9.12746C51.4969 9.12746 49.3575 11.2461 49.3575 13.8756H51.1275C51.1275 12.2338 52.4642 10.8975 54.1293 10.8975V9.12746ZM49.3575 13.8756V18.7829H51.1275V13.8756H49.3575ZM55.1448 24.8861C55.1448 25.4302 54.6995 25.8805 54.1389 25.8805V27.6505C55.6668 27.6505 56.9148 26.4179 56.9148 24.8861H55.1448ZM54.1389 25.8805C53.5782 25.8805 53.133 25.4302 53.133 24.8861H51.363C51.363 26.4179 52.6109 27.6505 54.1389 27.6505V25.8805ZM53.133 24.8861C53.133 24.342 53.5782 23.8917 54.1389 23.8917V22.1217C52.6109 22.1217 51.363 23.3543 51.363 24.8861H53.133ZM54.1389 23.8917C54.6995 23.8917 55.1448 24.342 55.1448 24.8861H56.9148C56.9148 23.3543 55.6668 22.1217 54.1389 22.1217V23.8917ZM53.2539 26.7655V29.613H55.0239V26.7655H53.2539Z" fill="white"/>
</g>
</svg>
