<svg width="107" height="84" viewBox="0 0 107 84" fill="none" xmlns="http://www.w3.org/2000/svg">
<g id="Group 33899">
<g id="Group">
<path id="Vector" d="M62.7489 52.863C62.7489 57.9837 58.5954 62.1373 53.4746 62.1373C48.3539 62.1373 44.2003 57.9837 44.2003 52.863C44.2003 47.7422 48.3539 43.5887 53.4746 43.5887C58.5954 43.5887 62.7489 47.7422 62.7489 52.863Z" stroke="white" stroke-width="1.77"/>
<path id="Vector_2" d="M72.2404 73.2886C68.0774 67.4092 61.2308 63.5781 53.4738 63.5781C45.7168 63.5781 39.3538 67.1532 35.1623 72.6817" stroke="white" stroke-width="1.77"/>
<path id="Vector_3" d="M62.7489 52.863C62.7489 57.9837 58.5954 62.1373 53.4746 62.1373C48.3539 62.1373 44.2003 57.9837 44.2003 52.863C44.2003 47.7422 48.3539 43.5887 53.4746 43.5887C58.5954 43.5887 62.7489 47.7422 62.7489 52.863Z" stroke="white" stroke-width="1.77"/>
</g>
<g id="Group_2">
<path id="Vector_4" d="M74.5664 50.9196C71.0388 42.7644 62.912 37.0557 53.467 37.0557C44.0221 37.0557 36.1608 42.5842 32.5573 50.5308C31.2297 53.4231 30.4995 56.6473 30.4995 60.0327C30.4995 62.6594 30.9357 65.1819 31.7607 67.5241C34.8521 76.5329 43.4057 83.0002 53.467 83.0002C61.224 83.0002 68.0801 79.1596 72.2241 73.2802C73.5517 71.4216 74.5948 69.3543 75.3155 67.1448C76.0457 64.9069 76.444 62.5172 76.444 60.0327C76.444 56.7895 75.7707 53.7076 74.5664 50.9196ZM53.467 62.1379C48.3463 62.1379 44.1928 57.9844 44.1928 52.8636C44.1928 47.7429 48.3463 43.5894 53.467 43.5894C58.5878 43.5894 62.7413 47.7429 62.7413 52.8636C62.7413 57.9844 58.5878 62.1379 53.467 62.1379Z" stroke="white" stroke-width="1.77"/>
<path id="Vector_5" d="M105.679 58.3719C105.679 61.909 104.569 65.1711 102.663 67.8548C99.6856 72.0652 94.7829 74.8152 89.2354 74.8152C83.375 74.8152 78.2353 71.7522 75.3146 67.1436C76.0448 64.9056 76.443 62.5159 76.443 60.0314C76.443 56.7883 75.7698 53.7063 74.5654 50.9184C77.287 45.5795 82.8345 41.9286 89.2354 41.9286C98.3105 41.9286 105.679 49.2873 105.679 58.3719Z" stroke="white" stroke-width="1.77"/>
<path id="Vector_6" d="M102.663 67.8665C99.6853 63.6561 94.7827 60.9155 89.2352 60.9155C83.6877 60.9155 79.1265 63.4759 76.1299 67.4303" stroke="white" stroke-width="1.77"/>
<path id="Vector_7" d="M89.2357 59.8709C92.9018 59.8709 95.8737 56.8989 95.8737 53.2329C95.8737 49.5668 92.9018 46.5948 89.2357 46.5948C85.5697 46.5948 82.5977 49.5668 82.5977 53.2329C82.5977 56.8989 85.5697 59.8709 89.2357 59.8709Z" stroke="white" stroke-width="1.77"/>
</g>
<g id="Group_3">
<path id="Vector_8" d="M30.505 60.036C30.505 62.6628 30.9412 65.1852 31.7662 67.5275C31.6904 67.6413 31.6145 67.7456 31.5292 67.8499C28.5705 72.0603 23.6584 74.8198 18.1014 74.8198C9.01682 74.8198 1.65811 67.4516 1.65811 58.3765C1.65811 49.3014 9.01682 41.9332 18.1014 41.9332C24.3506 41.9332 29.7748 45.4134 32.5628 50.5342C31.2352 53.4265 30.505 56.6507 30.505 60.036Z" stroke="white" stroke-width="1.77"/>
<path id="Vector_9" d="M31.5402 67.8678C28.5626 63.6574 23.66 60.9169 18.1125 60.9169C12.565 60.9169 8.00375 63.4772 5.00716 67.4316" stroke="white" stroke-width="1.77"/>
<path id="Vector_10" d="M18.1029 59.8722C21.7689 59.8722 24.7409 56.9003 24.7409 53.2342C24.7409 49.5681 21.7689 46.5962 18.1029 46.5962C14.4368 46.5962 11.4648 49.5681 11.4648 53.2342C11.4648 56.9003 14.4368 59.8722 18.1029 59.8722Z" stroke="white" stroke-width="1.77"/>
</g>
<path id="Vector_11" d="M53.4751 20.3927L60.2459 24.2048L58.8424 16.353L64.4373 10.8624L56.7941 9.81929L53.4751 3.0011L50.1656 9.81929L42.5224 10.8624L48.1173 16.353L46.7043 24.2048L53.4751 20.3927Z" stroke="white" stroke-width="1.77"/>
<path id="Vector_12" d="M76.3887 22.993L77.6879 27.6112L80.4948 23.5715L85.3311 23.6189L82.4483 19.8257L83.9845 15.4067L79.556 16.9335L75.7723 14.0507L75.8103 18.8869L71.78 21.6939L76.3887 22.993Z" stroke="white" stroke-width="1.77"/>
<path id="Vector_13" d="M26.4029 23.6025L27.6925 28.2207L30.5089 24.181L35.3452 24.2284L32.4624 20.4352L33.9892 16.0162L29.5701 17.543L25.7865 14.6602L25.8244 19.4964L21.7847 22.3034L26.4029 23.6025Z" stroke="white" stroke-width="1.77"/>
</g>
</svg>
