<svg width="203" height="48" viewBox="0 0 203 48" fill="none" xmlns="http://www.w3.org/2000/svg">
<g clip-path="url(#clip0_3722_92810)">
<path d="M53.506 28.5727L57.1833 28.5727C57.1095 29.7828 56.7774 30.8571 56.1872 31.7954C55.6049 32.7339 54.7892 33.4666 53.7397 33.9934C52.6985 34.5203 51.444 34.7837 49.9765 34.7837C48.8287 34.7837 47.7996 34.5862 46.8895 34.191C45.9794 33.7876 45.2006 33.2113 44.5529 32.4622C43.9134 31.7131 43.4255 30.8077 43.0894 29.7457C42.7533 28.6839 42.5852 27.4943 42.5852 26.1772L42.5852 24.9301C42.5852 23.613 42.7573 22.4234 43.1017 21.3616C43.4543 20.2915 43.9544 19.3818 44.6021 18.6327C45.258 17.8836 46.041 17.3073 46.9511 16.904C47.8612 16.5006 48.8778 16.299 50.0011 16.299C51.4933 16.299 52.7518 16.5706 53.7766 17.1139C54.8097 17.6573 55.6091 18.4064 56.1749 19.3612C56.7487 20.3161 57.0931 21.4028 57.208 22.6211L53.5183 22.6211C53.4773 21.8966 53.3339 21.2834 53.0879 20.7812C52.8419 20.2708 52.4689 19.888 51.9688 19.6329C51.4769 19.3694 50.8209 19.2378 50.0011 19.2378C49.3861 19.2378 48.8491 19.353 48.39 19.5834C47.9309 19.814 47.5455 20.1638 47.2339 20.633C46.9224 21.1023 46.6887 21.695 46.5329 22.4111C46.3854 23.119 46.3115 23.9504 46.3115 24.9054L46.3115 26.1772C46.3115 27.1074 46.3813 27.9265 46.5207 28.6344C46.6601 29.3342 46.8732 29.9269 47.1601 30.4126C47.4553 30.89 47.8325 31.2522 48.2916 31.4991C48.759 31.7378 49.3205 31.8573 49.9765 31.8573C50.7472 31.8573 51.3826 31.7338 51.8827 31.4868C52.3828 31.2398 52.7641 30.8735 53.0265 30.3879C53.297 29.9022 53.4569 29.2971 53.506 28.5727ZM66.5669 31.5239L66.5669 25.5721C66.5669 25.1442 66.4972 24.7778 66.3579 24.4732C66.2185 24.1605 66.0012 23.9176 65.7061 23.7448C65.4191 23.5718 65.046 23.4854 64.5869 23.4854C64.1933 23.4854 63.8531 23.5554 63.5662 23.6953C63.2792 23.8271 63.0578 24.0204 62.9021 24.2757C62.7463 24.5227 62.6684 24.8149 62.6684 25.1523L59.1264 25.1523C59.1264 24.5843 59.2576 24.0451 59.52 23.5347C59.7824 23.0245 60.1637 22.5757 60.6638 22.1888C61.1639 21.7938 61.7583 21.4851 62.447 21.2628C63.1438 21.0406 63.9228 20.9295 64.7837 20.9295C65.8168 20.9295 66.735 21.1023 67.5386 21.448C68.342 21.7938 68.9734 22.3123 69.4325 23.0038C69.8999 23.6953 70.1335 24.5596 70.1335 25.5968L70.1335 31.314C70.1335 32.0465 70.1786 32.6475 70.2687 33.1168C70.359 33.5777 70.4901 33.9811 70.6623 34.3268L70.6623 34.5367L67.0835 34.5367C66.9113 34.1745 66.7802 33.7217 66.6899 33.1784C66.6079 32.6269 66.5669 32.0753 66.5669 31.5239ZM67.0343 26.3995L67.0589 28.4121L65.0789 28.4121C64.6116 28.4121 64.2056 28.4657 63.8613 28.5727C63.5169 28.6798 63.2341 28.8321 63.0127 29.0296C62.7914 29.2188 62.6274 29.4411 62.5207 29.6964C62.4224 29.9515 62.3733 30.2314 62.3733 30.5359C62.3733 30.8405 62.443 31.1163 62.5823 31.3633C62.7217 31.602 62.9225 31.7914 63.1848 31.9313C63.4472 32.0631 63.7548 32.1288 64.1073 32.1288C64.6402 32.1288 65.1034 32.0219 65.497 31.8078C65.8905 31.5938 66.1939 31.3304 66.4071 31.0175C66.6285 30.7048 66.7432 30.4084 66.7515 30.1285L67.6861 31.635C67.5549 31.9725 67.3746 32.3223 67.1449 32.6845C66.9236 33.0468 66.6408 33.3883 66.2964 33.7094C65.9521 34.0222 65.538 34.2816 65.0543 34.4872C64.5706 34.6849 63.9966 34.7837 63.3325 34.7837C62.488 34.7837 61.7213 34.615 61.0328 34.2774C60.3521 33.9316 59.811 33.4583 59.4093 32.8574C59.0157 32.2482 58.819 31.5568 58.819 30.7829C58.819 30.0833 58.9502 29.4617 59.2126 28.9185C59.4749 28.3752 59.8603 27.9183 60.3685 27.5478C60.8851 27.1692 61.5287 26.8851 62.2994 26.6958C63.0701 26.4982 63.9638 26.3995 64.9804 26.3995L67.0343 26.3995ZM76.4057 24.0905L76.4057 34.5367L72.8637 34.5367L72.8637 21.1763L76.1966 21.1763L76.4057 24.0905ZM80.4149 21.0899L80.3535 24.3868C80.1812 24.3621 79.9722 24.3416 79.7262 24.325C79.4884 24.3004 79.2711 24.288 79.0744 24.288C78.5743 24.288 78.1397 24.3539 77.7708 24.4856C77.4101 24.6091 77.1067 24.7942 76.8607 25.0412C76.623 25.2882 76.4425 25.5887 76.3196 25.9426C76.2047 26.2966 76.1392 26.7 76.1227 27.1526L75.4095 26.9304C75.4095 26.0661 75.4956 25.2718 75.6677 24.5472C75.8399 23.8147 76.09 23.1768 76.418 22.6333C76.7541 22.0901 77.1641 21.6703 77.6478 21.374C78.1315 21.0775 78.685 20.9295 79.3081 20.9295C79.5048 20.9295 79.7057 20.9459 79.9107 20.9788C80.1156 21.0035 80.2838 21.0406 80.4149 21.0899ZM82.0874 15.5704L85.6294 15.5704L85.6294 31.4744L85.2728 34.5367L82.0874 34.5367L82.0874 15.5704ZM94.0538 27.7206L94.0538 27.98C94.0538 28.9761 93.9472 29.8898 93.7341 30.7213C93.5291 31.5527 93.2093 32.273 92.7747 32.8821C92.3403 33.483 91.7991 33.9523 91.1514 34.2897C90.5118 34.619 89.7576 34.7837 88.8885 34.7837C88.0768 34.7837 87.3717 34.619 86.7732 34.2897C86.1829 33.9604 85.6868 33.4954 85.2851 32.8945C84.8833 32.2935 84.5594 31.5896 84.3134 30.7829C84.0676 29.9762 83.883 29.0955 83.76 28.1406L83.76 27.5726C83.883 26.6177 84.0676 25.7368 84.3134 24.9301C84.5594 24.1234 84.8833 23.4195 85.2851 22.8186C85.6868 22.2176 86.1829 21.7526 86.7732 21.4233C87.3634 21.094 88.0604 20.9295 88.8639 20.9295C89.7412 20.9295 90.5037 21.0982 91.1514 21.4356C91.8073 21.765 92.3484 22.2342 92.7747 22.8434C93.2093 23.4442 93.5291 24.1605 93.7341 24.9919C93.9472 25.815 94.0538 26.7247 94.0538 27.7206ZM90.5118 27.98L90.5118 27.7206C90.5118 27.1774 90.4708 26.667 90.3888 26.1896C90.3151 25.7039 90.184 25.2799 89.9953 24.9177C89.8067 24.5472 89.5485 24.255 89.2206 24.0411C88.9008 23.8271 88.4868 23.72 87.9784 23.72C87.4947 23.72 87.0847 23.8024 86.7486 23.967C86.4123 24.1317 86.1336 24.3621 85.9122 24.6585C85.6991 24.9548 85.5392 25.3087 85.4327 25.7203C85.3261 26.1237 85.2605 26.5682 85.2358 27.0539L85.2358 28.6715C85.2605 29.3218 85.3671 29.898 85.5556 30.4002C85.7524 30.8941 86.0475 31.285 86.4412 31.5732C86.8429 31.853 87.3634 31.9931 88.003 31.9931C88.5031 31.9931 88.9172 31.8942 89.2452 31.6967C89.573 31.4991 89.8273 31.2193 90.0076 30.8571C90.1961 30.4948 90.3274 30.0709 90.4011 29.5852C90.475 29.0913 90.5118 28.5563 90.5118 27.98ZM95.6894 27.9924L95.6894 27.733C95.6894 26.7535 95.8288 25.8521 96.1077 25.0288C96.3864 24.1974 96.7922 23.4771 97.3252 22.868C97.858 22.2588 98.514 21.7855 99.2929 21.448C100.072 21.1023 100.965 20.9295 101.974 20.9295C102.982 20.9295 103.88 21.1023 104.667 21.448C105.454 21.7855 106.114 22.2588 106.647 22.868C107.188 23.4771 107.598 24.1974 107.877 25.0288C108.156 25.8521 108.295 26.7535 108.295 27.733L108.295 27.9924C108.295 28.9637 108.156 29.8651 107.877 30.6965C107.598 31.5197 107.188 32.24 106.647 32.8574C106.114 33.4666 105.458 33.9399 104.68 34.2774C103.901 34.615 103.007 34.7837 101.998 34.7837C100.99 34.7837 100.092 34.615 99.3052 34.2774C98.5263 33.9399 97.8663 33.4666 97.3252 32.8574C96.7922 32.24 96.3864 31.5197 96.1077 30.6965C95.8288 29.8651 95.6894 28.9637 95.6894 27.9924ZM99.2314 27.733L99.2314 27.9924C99.2314 28.5521 99.2805 29.0748 99.3791 29.5605C99.4774 30.0462 99.6332 30.4743 99.8463 30.8447C100.068 31.2069 100.355 31.4909 100.707 31.6967C101.06 31.9025 101.49 32.0053 101.998 32.0053C102.49 32.0053 102.913 31.9025 103.265 31.6967C103.618 31.4909 103.901 31.2069 104.114 30.8447C104.327 30.4743 104.483 30.0462 104.581 29.5605C104.688 29.0748 104.741 28.5521 104.741 27.9924L104.741 27.733C104.741 27.1897 104.688 26.6793 104.581 26.2019C104.483 25.7163 104.323 25.2882 104.102 24.9177C103.888 24.5391 103.606 24.2428 103.253 24.0287C102.9 23.8147 102.474 23.7077 101.974 23.7077C101.474 23.7077 101.047 23.8147 100.695 24.0287C100.351 24.2428 100.068 24.5391 99.8463 24.9177C99.6332 25.2882 99.4774 25.7163 99.3791 26.2019C99.2805 26.6793 99.2314 27.1897 99.2314 27.733ZM113.94 24.0287L113.94 34.5367L110.398 34.5367L110.398 21.1763L113.719 21.1763L113.94 24.0287ZM113.424 27.3873L112.464 27.3873C112.464 26.3995 112.591 25.5104 112.846 24.7202C113.1 23.9216 113.457 23.2425 113.916 22.6828C114.375 22.1148 114.92 21.6826 115.551 21.3862C116.191 21.0818 116.904 20.9295 117.691 20.9295C118.314 20.9295 118.884 21.0199 119.401 21.201C119.917 21.3821 120.36 21.6703 120.729 22.0653C121.106 22.4605 121.393 22.9833 121.59 23.6336C121.795 24.2838 121.897 25.0783 121.897 26.0166L121.897 34.5367L118.331 34.5367L118.331 26.0044C118.331 25.4117 118.249 24.9507 118.085 24.6214C117.921 24.2921 117.679 24.0616 117.359 23.9299C117.048 23.79 116.662 23.72 116.203 23.72C115.728 23.72 115.313 23.8147 114.961 24.004C114.617 24.1933 114.33 24.4568 114.1 24.7942C113.879 25.1235 113.711 25.5104 113.596 25.955C113.481 26.3995 113.424 26.877 113.424 27.3873ZM141.464 28.5727L145.141 28.5727C145.067 29.7828 144.736 30.8571 144.145 31.7954C143.563 32.7339 142.747 33.4666 141.698 33.9934C140.656 34.5203 139.402 34.7837 137.934 34.7837C136.786 34.7837 135.758 34.5862 134.847 34.191C133.937 33.7876 133.159 33.2113 132.511 32.4622C131.871 31.7131 131.383 30.8077 131.047 29.7457C130.711 28.6839 130.543 27.4943 130.543 26.1772L130.543 24.9301C130.543 23.613 130.715 22.4234 131.06 21.3616C131.412 20.2915 131.912 19.3818 132.56 18.6327C133.216 17.8836 133.999 17.3073 134.909 16.904C135.819 16.5006 136.836 16.299 137.959 16.299C139.451 16.299 140.71 16.5706 141.734 17.1139C142.768 17.6573 143.567 18.4064 144.133 19.3612C144.706 20.3161 145.05 21.4028 145.165 22.6211L141.477 22.6211C141.435 21.8966 141.292 21.2834 141.046 20.7812C140.8 20.2708 140.427 19.888 139.927 19.6329C139.435 19.3694 138.779 19.2378 137.959 19.2378C137.344 19.2378 136.807 19.353 136.348 19.5834C135.889 19.814 135.503 20.1638 135.192 20.633C134.88 21.1023 134.647 21.695 134.491 22.4111C134.343 23.119 134.269 23.9504 134.269 24.9054L134.269 26.1772C134.269 27.1074 134.339 27.9265 134.478 28.6344C134.618 29.3342 134.831 29.9269 135.118 30.4126C135.413 30.89 135.79 31.2522 136.25 31.4991C136.717 31.7378 137.278 31.8573 137.934 31.8573C138.705 31.8573 139.34 31.7338 139.841 31.4868C140.341 31.2398 140.722 30.8735 140.984 30.3879C141.256 29.9022 141.415 29.2971 141.464 28.5727ZM150.884 24.0905L150.884 34.5367L147.342 34.5367L147.342 21.1763L150.676 21.1763L150.884 24.0905ZM154.894 21.0899L154.833 24.3868C154.661 24.3621 154.451 24.3416 154.205 24.325C153.967 24.3004 153.75 24.288 153.554 24.288C153.053 24.288 152.619 24.3539 152.25 24.4856C151.889 24.6091 151.585 24.7942 151.34 25.0412C151.102 25.2882 150.922 25.5887 150.799 25.9426C150.684 26.2966 150.618 26.7 150.601 27.1526L149.888 26.9304C149.888 26.0661 149.975 25.2718 150.147 24.5472C150.319 23.8147 150.569 23.1768 150.897 22.6333C151.232 22.0901 151.642 21.6703 152.127 21.374C152.611 21.0775 153.163 20.9295 153.788 20.9295C153.983 20.9295 154.185 20.9459 154.389 20.9788C154.595 21.0035 154.763 21.0406 154.894 21.0899ZM155.632 27.9924L155.632 27.733C155.632 26.7535 155.772 25.8521 156.05 25.0288C156.329 24.1974 156.734 23.4771 157.268 22.868C157.801 22.2588 158.456 21.7855 159.235 21.448C160.014 21.1023 160.907 20.9295 161.916 20.9295C162.925 20.9295 163.822 21.1023 164.61 21.448C165.396 21.7855 166.056 22.2588 166.59 22.868C167.131 23.4771 167.541 24.1974 167.82 25.0288C168.098 25.8521 168.238 26.7535 168.238 27.733L168.238 27.9924C168.238 28.9637 168.098 29.8651 167.82 30.6965C167.541 31.5197 167.131 32.24 166.59 32.8574C166.056 33.4666 165.4 33.9399 164.622 34.2774C163.843 34.615 162.949 34.7837 161.941 34.7837C160.932 34.7837 160.034 34.615 159.248 34.2774C158.468 33.9399 157.809 33.4666 157.268 32.8574C156.734 32.24 156.329 31.5197 156.05 30.6965C155.772 29.8651 155.632 28.9637 155.632 27.9924ZM159.173 27.733L159.173 27.9924C159.173 28.5521 159.222 29.0748 159.322 29.5605C159.42 30.0462 159.575 30.4743 159.789 30.8447C160.01 31.2069 160.297 31.4909 160.65 31.6967C161.002 31.9025 161.432 32.0053 161.941 32.0053C162.432 32.0053 162.855 31.9025 163.207 31.6967C163.56 31.4909 163.843 31.2069 164.055 30.8447C164.27 30.4743 164.425 30.0462 164.523 29.5605C164.631 29.0748 164.684 28.5521 164.684 27.9924L164.684 27.733C164.684 27.1897 164.631 26.6793 164.523 26.2019C164.425 25.7163 164.265 25.2882 164.044 24.9177C163.83 24.5391 163.548 24.2428 163.195 24.0287C162.842 23.8147 162.417 23.7077 161.916 23.7077C161.416 23.7077 160.99 23.8147 160.637 24.0287C160.293 24.2428 160.01 24.5391 159.789 24.9177C159.575 25.2882 159.42 25.7163 159.322 26.2019C159.222 26.6793 159.173 27.1897 159.173 27.733ZM174.214 31.0794L176.982 21.1763L179.232 21.1763L178.507 25.0659L175.739 34.5367L173.857 34.5367L174.214 31.0794ZM172.812 21.1763L174.792 31.067L174.977 34.5367L172.763 34.5367L169.394 21.1763L172.812 21.1763ZM181.766 30.9064L183.697 21.1763L187.128 21.1763L183.759 34.5367L181.556 34.5367L181.766 30.9064ZM179.54 21.1763L182.295 31.0052L182.676 34.5367L180.782 34.5367L178.015 25.0783L177.314 21.1763L179.54 21.1763ZM196.769 31.6226L196.769 15.5704L200.336 15.5704L200.336 34.5367L197.126 34.5367L196.769 31.6226ZM188.358 28.0171L188.358 27.7577C188.358 26.7369 188.473 25.811 188.702 24.9795C188.932 24.1398 189.268 23.4195 189.71 22.8186C190.153 22.2176 190.698 21.7526 191.346 21.4233C191.993 21.094 192.732 20.9295 193.559 20.9295C194.339 20.9295 195.019 21.094 195.601 21.4233C196.191 21.7526 196.692 22.2218 197.102 22.831C197.519 23.4319 197.856 24.1439 198.11 24.9672C198.364 25.7822 198.549 26.6753 198.664 27.6466L198.664 28.2146C198.549 29.1448 198.364 30.0091 198.11 30.8077C197.856 31.6062 197.519 32.3058 197.102 32.9067C196.692 33.4995 196.191 33.9604 195.601 34.2897C195.012 34.619 194.322 34.7837 193.535 34.7837C192.707 34.7837 191.97 34.615 191.322 34.2774C190.682 33.9399 190.141 33.4666 189.699 32.8574C189.263 32.2482 188.932 31.532 188.702 30.7089C188.473 29.8858 188.358 28.9884 188.358 28.0171ZM191.9 27.7577L191.9 28.0171C191.9 28.5686 191.94 29.0831 192.023 29.5605C192.112 30.038 192.257 30.4619 192.452 30.8324C192.658 31.1946 192.92 31.4785 193.24 31.6843C193.568 31.882 193.965 31.9808 194.432 31.9808C195.04 31.9808 195.539 31.8449 195.934 31.5732C196.327 31.2933 196.627 30.9105 196.831 30.4248C197.045 29.9391 197.168 29.3794 197.2 28.7455L197.2 27.1281C197.175 26.6094 197.102 26.1443 196.979 25.7327C196.864 25.3129 196.692 24.9548 196.463 24.6585C196.24 24.3621 195.962 24.1317 195.626 23.967C195.299 23.8024 194.908 23.72 194.458 23.72C193.999 23.72 193.605 23.8271 193.277 24.0411C192.949 24.2469 192.682 24.5308 192.478 24.893C192.28 25.2553 192.133 25.6833 192.035 26.1772C191.945 26.6629 191.9 27.1897 191.9 27.7577Z" fill="#194F3C"/>
<path d="M5.41322 37.8528L8.47856 33.7348C4.28701 28.9954 3.21927 23.7197 6.14452 18.0475C8.66055 13.1671 12.9293 11.0481 18.4269 11.3026C18.4964 10.7816 18.5725 10.2267 18.6475 9.67071C18.7578 8.81763 18.857 7.96237 18.9862 7.11257C19.0313 6.8122 18.9938 6.6418 18.6905 6.48123C18.0475 6.13624 17.5524 5.57231 17.2969 4.89378C17.0414 4.21525 17.0428 3.46805 17.3007 2.79041C17.5441 2.11364 18.0271 1.54732 18.6603 1.19658C19.2934 0.845845 20.0335 0.734518 20.7432 0.883272C22.1331 1.14979 23.1699 2.49986 23.1158 3.97116C23.0574 5.52111 21.7647 6.8111 20.2282 6.85916C20.108 6.85916 19.9887 6.85916 19.8443 6.85916C19.6458 8.39601 19.4504 9.90226 19.253 11.4271C24.0369 12.5074 27.3713 15.3168 28.9433 19.9785C30.5084 24.624 29.5973 28.9146 26.5795 32.7878C27.3934 33.7655 28.2186 34.754 29.0425 35.7425C29.2862 36.0341 29.4837 36.3979 29.7859 36.5978C30.1356 36.8227 30.4478 36.3979 30.8018 36.3334C32.0438 36.1073 33.0929 36.4317 33.8695 37.4387C34.6459 38.4459 34.7331 39.5458 34.1639 40.6622C33.5948 41.7784 32.6296 42.3409 31.3842 42.2951C30.2504 42.2546 29.3778 41.6976 28.8473 40.6773C28.3167 39.6572 28.3874 38.6173 28.9907 37.6277C29.0547 37.5185 29.1308 37.4268 29.2178 37.3001L25.9739 33.4116C24.6745 34.7405 23.0986 35.7734 21.3554 36.4382L22.9912 41.2202C24.038 41.0106 24.97 41.2202 25.762 41.9368C26.2817 42.4017 26.6168 43.0349 26.7074 43.7226C26.8179 44.4373 26.6647 45.1674 26.276 45.7795C25.8873 46.3915 25.2889 46.8443 24.5907 47.0552C23.9088 47.2589 23.1757 47.214 22.5245 46.9283C21.8733 46.6429 21.347 46.1356 21.041 45.4987C20.3528 44.0886 20.8017 42.5495 22.2312 41.5402L20.5767 36.7015C18.618 37.2716 16.5461 37.3456 14.5509 36.917C12.5557 36.4885 10.701 35.5708 9.15692 34.2482L6.08606 38.3727C6.76995 39.1373 7.0788 40.0253 6.90121 41.052C6.79017 41.7236 6.44612 42.3358 5.92833 42.7833C5.39878 43.2534 4.71635 43.5195 4.00533 43.5331C3.29432 43.5467 2.60199 43.3069 2.05446 42.8576C1.49915 42.396 1.12501 41.7559 0.99722 41.0492C0.869429 40.3424 0.99609 39.6137 1.35514 38.9898C1.99269 37.8812 3.55128 36.9789 5.41322 37.8528Z" fill="#194F3C"/>
</g>
<defs>
<clipPath id="clip0_3722_92810">
<rect width="201.496" height="46.362" fill="white" transform="translate(0.94873 0.81897)"/>
</clipPath>
</defs>
</svg>
