<?xml version="1.0" standalone="no"?>
<!DOCTYPE svg PUBLIC "-//W3C//DTD SVG 20010904//EN"
 "http://www.w3.org/TR/2001/REC-SVG-20010904/DTD/svg10.dtd">
<svg version="1.0" xmlns="http://www.w3.org/2000/svg"
 width="253.000000pt" height="96.000000pt" viewBox="0 0 253.000000 96.000000"
 preserveAspectRatio="xMidYMid meet">

<g transform="translate(0.000000,96.000000) scale(0.100000,-0.100000)"
fill="#000000" stroke="none">
<path d="M670 832 l35 -8 -32 -17 c-18 -10 -59 -41 -90 -71 -146 -134 -136
-127 -199 -124 l-58 3 100 86 c100 87 127 105 173 120 17 5 20 8 8 8 -10 1
-35 -8 -55 -18 -33 -17 -66 -44 -205 -168 l-38 -34 21 -34 c17 -28 28 -35 53
-35 31 0 31 -2 -52 -78 l-85 -78 23 -32 c22 -31 25 -32 95 -32 39 0 77 5 83
11 8 8 13 8 17 0 4 -6 22 -11 39 -11 32 -1 32 -1 -42 -69 l-75 -68 23 -36 c22
-37 23 -37 89 -37 54 0 70 4 89 22 18 17 26 19 35 10 7 -7 40 -12 76 -12 64 0
65 0 131 57 150 130 178 164 202 242 47 157 -13 315 -145 383 -32 17 -63 22
-146 24 -61 2 -90 0 -70 -4z m217 -34 c93 -43 147 -140 147 -263 1 -118 -25
-167 -148 -280 -119 -111 -120 -111 -140 -81 -15 24 -14 25 62 92 141 124 161
154 169 243 10 106 -36 193 -122 232 -84 39 -133 21 -261 -96 -52 -47 -98 -85
-102 -85 -10 0 -38 48 -31 53 2 2 42 37 89 78 114 100 142 119 192 128 53 10
91 5 145 -21z m-141 -83 c18 -13 16 -14 -25 -15 -37 0 -42 2 -31 15 16 19 31
19 56 0z m118 -55 c19 -17 40 -47 47 -67 15 -47 6 -128 -18 -161 -11 -15 -89
-89 -172 -165 -142 -129 -153 -138 -166 -120 -8 10 -15 23 -15 29 0 7 66 72
148 144 137 124 182 175 182 208 0 29 -32 80 -57 91 -14 6 -35 9 -47 5 -11 -4
-90 -69 -174 -145 -83 -77 -155 -139 -160 -139 -11 0 -33 40 -27 49 8 14 287
265 315 284 41 28 103 22 144 -13z m-236 -39 c-7 -10 -65 -66 -128 -124 l-114
-107 -58 0 c-32 0 -58 2 -58 4 0 2 36 35 80 75 63 55 88 71 111 71 22 0 48 15
95 55 62 52 100 66 72 26z m-172 -38 c21 -28 17 -31 -40 -32 -47 0 -56 3 -70
24 l-16 25 56 0 c42 0 60 -4 70 -17z m264 -39 c0 -9 -10 -14 -27 -14 -25 0
-26 1 -8 20 19 21 35 18 35 -6z m245 -38 c-4 -22 -16 -60 -28 -83 -28 -55
-213 -223 -244 -223 -13 0 -23 2 -23 4 0 2 52 50 116 107 124 111 141 134 150
203 5 33 10 43 21 39 11 -4 13 -16 8 -47z m-177 7 c20 -15 39 -28 41 -30 7 -5
-23 -36 -162 -165 l-139 -128 -61 0 -61 0 69 65 c56 51 77 64 103 65 26 0 49
14 110 67 42 37 79 71 80 75 2 5 -3 20 -12 33 -16 24 -21 45 -10 45 3 0 22
-12 42 -27z m-41 -29 c12 -19 8 -25 -59 -84 l-72 -62 -19 23 -19 23 69 63 c37
34 72 61 77 60 5 -2 15 -12 23 -23z m-132 -44 c-34 -35 -57 -50 -75 -50 -23 1
-21 5 30 50 30 28 64 50 75 50 15 0 9 -10 -30 -50z m-217 -88 l15 -23 -58 3
c-47 2 -60 7 -73 26 l-15 23 58 -3 c47 -2 60 -7 73 -26z m178 11 c22 -29 17
-33 -39 -33 -63 0 -73 7 -50 32 21 23 72 23 89 1z m154 -193 c10 -19 8 -20
-45 -20 -30 0 -55 4 -55 8 0 35 83 45 100 12z m-202 -12 c22 -22 13 -28 -41
-28 -41 0 -55 4 -65 20 -12 19 -10 20 41 20 29 0 58 -5 65 -12z"/>
<path d="M1256 642 c-11 -18 -96 -264 -96 -278 0 -24 40 -16 52 11 10 23 17
25 75 25 59 0 64 -2 73 -25 12 -31 66 -38 56 -7 -4 9 -27 75 -54 147 -43 119
-49 130 -74 133 -14 2 -29 -1 -32 -6z m50 -114 c9 -29 19 -59 22 -65 3 -9 -9
-13 -43 -13 -34 0 -46 4 -42 13 2 6 13 36 23 65 10 28 20 52 21 52 1 0 9 -24
19 -52z"/>
<path d="M1450 500 l0 -150 25 0 c19 0 25 5 25 21 l0 20 26 -20 c66 -52 161
-7 171 80 13 111 -98 178 -174 107 l-23 -21 0 56 c0 54 -1 57 -25 57 l-25 0 0
-150z m175 15 c28 -27 31 -45 14 -78 -16 -30 -28 -37 -66 -37 -37 0 -63 29
-63 70 0 30 8 43 35 58 31 18 54 14 80 -13z"/>
<path d="M2020 501 l0 -151 25 0 26 0 -3 148 c-3 144 -3 147 -25 150 -23 3
-23 3 -23 -147z"/>
<path d="M2125 638 c-3 -8 -4 -75 -3 -149 l3 -134 25 0 25 0 0 145 c0 143 0
145 -23 148 -12 2 -24 -3 -27 -10z"/>
<path d="M1804 576 c-91 -40 -99 -167 -14 -211 49 -26 104 -20 145 16 19 17
35 35 35 40 0 15 -57 10 -70 -6 -25 -30 -110 -10 -110 26 0 5 43 9 96 9 l97 0
-7 32 c-9 47 -33 78 -71 94 -42 17 -61 17 -101 0z m102 -57 c26 -22 14 -29
-51 -29 -36 0 -65 3 -65 7 0 3 8 15 17 26 19 21 72 19 99 -4z"/>
</g>
</svg>
