<svg xmlns="http://www.w3.org/2000/svg" width="112" height="112"><path fill="#FCFDFD" d="M0 0h112v112H0z"/><path fill="#FEFEFE" d="M58 51v13h4v-4c3.875 1.875 3.875 1.875 5 3 1.996 0 3.992-.003 5.988-.031 2.135.033 3.986.356 6.012 1.031v-5c2 1.375 2 1.375 4 3v2l2.688-.5A45 45 0 0 1 94 63l1-3h2v4h3v-8c1.938-.562 1.938-.562 4-1 1 1 1 1 1.098 2.848L105 64h7v48H0V58l3 1-1 5c2.97-.342 2.97-.342 6-1l1-2h5l1 3h6v-2l12 2v-2h2v2h3v-9h4v9h2l-.062-3.937A59 59 0 0 1 44 56c1-1 1-1 3.563-1.062L50 55v9h3V52c2-1 2-1 5-1"/><path fill="#BDD8F7" d="m89.848 52.612 2.215-.01 2.414-.012 2.523.035 2.523-.035 4.63.022C106 53 106 53 108 56c.258 2.695.089 5.285 0 8h-3l-1-8h-3l-1 8h-3v-4h-2l-1 4c-4.45.36-4.45.36-6.812-1.188-1.6-2.44-1.546-3.945-1.188-6.812 2-3 2-3 3.848-3.388"/><path fill="#1A1948" d="M43 48v2h-5v3h15v11h-3v-9l-5 1-1 8h-2v-9h-4v9h-2v-9h-3v-2h3v-5c2.667-1.333 4.167-.671 7 0"/><path fill="#33345D" d="M25.066 52.902 32 53v11c-7.303.36-7.303.36-10.062-1.062-1.505-3.11-.666-5.664.062-8.938 1-1 1-1 3.066-1.098"/><path fill="#5E627D" d="m8 49 3 1c.73 1.848.73 1.848 1.188 4.063l.48 2.222L13 58l-5 1 4 2H9l-1 3H2l.125-2.375C2.287 58.839 2.287 58.839 0 57l2-3h4z"/><path fill="#2F3463" d="M73 53c2 2 2 2 2.313 4.938C75 61 75 61 73.813 62.875 71.345 64.407 69.855 64.428 67 64c-1.875-1.062-1.875-1.062-3-3 .313-3.687.313-3.687 1-7 2.969-.99 4.909-1.238 8-1"/><path fill="#C5D5E3" d="M11 49h2l1.023 1.863 1.352 2.45 1.336 2.425C17.735 57.535 18.853 59.28 20 61v3c-2.312.188-2.312.188-5 0q-1.53-1.47-3-3c-2.606-.722-2.606-.722-5-1l1-2h5l-1.562-2.812C10 52 10 52 11 49"/><path fill="#364174" d="M77 47h2l1 9 3-3h2l-1.187 2.688c-1.185 3.315-1.185 3.315.562 6.187L86 64h-3c-1.687-2-1.687-2-3-4l-1 4h-2z"/><path fill="#121547" d="M50 48h16v2h-5v14h-2V50l-9 1z"/><path fill="#82ACD2" d="m98 53 3.875-.187 2.18-.106L106 53c2.68 4.019 2.156 6.242 2 11h-3l-1-8h-3l-1 8h-2z"/><path fill="#0F1040" d="M43 48v2h-5v14h-2v-9h-3v-2h3v-5c2.667-1.333 4.167-.671 7 0"/><path fill="#536BA0" d="m88 54 2 1-1 2h6v2h-6l1 2h5l-1 3c-4.45.36-4.45.36-6.812-1.187C85.598 60.386 85.635 58.846 86 56z"/><path fill="#1E1E4E" d="M32 53v11h-8l-1-3 6-1v-6c2-1 2-1 3-1"/><path fill="#DDE0F3" d="m8 52 1 3h2v2l-1.937.375L7 58l-1 2 2 1v2H3c.506-2.169 1-4 2-6l-3-1 5-1z"/><path fill="#3E3E64" d="M49 53h4v11h-3z"/><path fill="#C3C5D9" d="m32 53 1 2h3v9l-1-2h-2l-1 2z"/><path fill="#92CAD8" d="M109 53h3v11h-3z"/><path fill="#DEE3F2" d="M68 55q2.514.428 5 1l-1 5h-5a100 100 0 0 1 0-5z"/><path fill="#CEDBF2" d="M83 52h3v2l2 1-1 1a100 100 0 0 0 0 5v3l-5-5 3-6z"/><path fill="#475385" d="M83 53h2l-1.187 2.688c-1.185 3.315-1.185 3.315.562 6.187L86 64h-3c-2.187-2.5-2.187-2.5-4-5 1.152-2.468 2.048-4.048 4-6"/><path fill="#E7E9F6" d="M25 55c2.063.438 2.063.438 4 1l1 4-5 1a88 88 0 0 1-1-5z"/><path fill="#ABB3DC" d="M76 47h1v17h-5l2-3c.45-2.383.816-4.782 1.125-7.187l.508-3.856z"/><path fill="#8AA9D4" d="M88 53c2.875-.125 2.875-.125 6 0l2 2c-.375 2.125-.375 2.125-1 4v-2h-6z"/><path fill="#D9F3FE" d="M101 55c2.063.438 2.063.438 4 1v8h-1v-6h-3v6h-1c-.098-6.152-.098-6.152 0-8z"/><path fill="#383A63" d="M50 48h11c-2.398 2.398-3.333 2.343-6.625 2.625l-2.477.227L50 51z"/><path fill="#3C395F" d="M43 48v2h-5l-1 3-1-5c2.667-1.333 4.167-.671 7 0"/></svg>