<?xml version="1.0" encoding="UTF-8"?>
<svg xmlns="http://www.w3.org/2000/svg" xmlns:xlink="http://www.w3.org/1999/xlink" width="77px" height="112px" viewBox="0 0 77 111" version="1.1">
<g id="surface1">
<path style="fill-rule:nonzero;fill:rgb(11.764706%,11.764706%,11.764706%);fill-opacity:1;stroke-width:0.5;stroke-linecap:butt;stroke-linejoin:miter;stroke:rgb(100%,100%,100%);stroke-opacity:1;stroke-miterlimit:4;" d="M 253.95414 724.978041 L 247.74026 724.978041 L 247.791193 724.7481 C 247.74026 724.978041 247.74026 724.978041 247.74026 724.978041 L 247.714793 724.978041 L 247.638393 724.952492 C 247.587459 724.952492 247.511059 724.926943 247.383726 724.901394 C 247.154525 724.850296 246.823458 724.773649 246.365057 724.671453 C 245.499188 724.467061 244.200386 724.186022 242.595982 723.777238 C 239.336242 722.98522 234.777699 721.809966 229.455154 720.251478 C 218.835532 717.134502 205.236303 712.561233 193.292411 706.608319 C 181.323052 700.680954 174.778105 694.344806 171.238231 689.464949 C 169.45556 687.037796 168.436891 684.993877 167.851157 683.537584 C 167.545556 682.796664 167.367289 682.209037 167.265422 681.825802 C 167.214489 681.62141 167.163555 681.468117 167.138088 681.365921 C 167.138088 681.340372 167.138088 681.340372 167.138088 681.314823 C 154.786729 674.084459 142.97017 665.959882 131.815747 656.992188 C 121.883726 649.1231 116.663048 641.611698 113.938109 636.067568 C 112.562906 633.282728 111.824371 631.008868 111.416903 629.399282 C 111.238636 628.607264 111.111303 627.994088 111.034903 627.559755 C 111.009436 627.355363 110.983969 627.17652 110.983969 627.074324 C 110.983969 627.074324 110.983969 627.048775 110.983969 627.048775 L 110.933036 627.023226 C 110.805702 626.972128 110.627435 626.895481 110.423701 626.793285 C 109.9653 626.588894 109.328632 626.282306 108.564631 625.873522 C 106.985694 625.030405 104.871956 623.778505 102.579951 622.066723 C 98.046875 618.694257 92.928064 613.533361 90.636059 606.532939 C 88.369521 599.583615 86.20485 593.375211 84.600446 588.904139 C 83.785511 586.655828 83.123377 584.867399 82.664976 583.615498 C 82.435775 583.002323 82.257508 582.516892 82.130175 582.184755 C 82.079241 582.031461 82.028308 581.903716 82.002841 581.827069 L 81.977374 581.724873 L 81.900974 581.648226 C 81.850041 581.571579 81.748174 581.469383 81.62084 581.31609 C 81.39164 581.035051 81.035106 580.626267 80.627638 580.089738 C 79.787236 579.04223 78.641234 577.585938 77.393364 575.899704 C 74.923093 572.527238 72.07082 568.235008 70.644683 564.65815 C 69.218547 561.055743 68.88748 555.716005 68.912946 551.29603 C 68.912946 549.073269 69.014813 547.105997 69.11668 545.649704 C 69.142147 544.934333 69.19308 544.372255 69.244014 543.963471 C 69.244014 543.784628 69.269481 543.631334 69.269481 543.529139 C 69.19308 543.478041 69.091213 543.426943 68.96388 543.375845 C 68.632812 543.197002 68.199878 542.967061 67.63961 542.609375 C 66.544541 541.919552 65.042005 540.795397 63.437601 539.109164 C 60.203328 535.736698 56.53612 530.090372 54.702516 521.04603 C 52.359578 508.348184 50.907975 495.497044 50.347707 482.594806 L 50.32224 482.569257 L 50.220373 482.313767 C 50.118506 482.083826 49.991173 481.777238 49.812906 481.368454 C 49.456372 480.525338 48.921571 479.324535 48.310369 477.868243 C 47.0625 474.904561 45.35623 470.867821 43.548093 466.447846 C 39.931818 457.633446 35.933543 447.311655 34.354606 441.435389 C 32.77567 435.508024 31.578734 421.967061 30.738332 409.933488 C 30.330864 403.929476 30.025264 398.257601 29.82153 394.118666 C 29.719663 392.049198 29.617796 390.337416 29.566863 389.162162 C 29.541396 388.574535 29.515929 388.114654 29.515929 387.808066 L 29.490463 387.45038 L 29.490463 387.373733 L 29.439529 387.271537 C 29.363129 387.169341 29.261262 386.990498 29.133929 386.760557 C 28.904728 386.326225 28.522727 385.661951 28.03886 384.767736 C 27.071124 383.004856 25.644988 380.373311 23.836851 376.898649 C 20.220576 369.974873 15.076299 359.704181 8.913352 346.342061 C 2.724939 332.954392 0.662135 316.194257 0.764002 299.868454 C 0.840402 283.542652 3.132407 267.625633 5.679079 255.847551 C 8.225751 244.043919 12.555093 238.601985 16.298701 236.098184 C 18.157772 234.871833 19.864042 234.360853 21.111912 234.18201 C 21.74858 234.079814 22.257914 234.054265 22.614448 234.079814 C 22.690848 234.079814 22.792715 234.079814 22.869115 234.079814 L 22.818182 233.44109 C 22.767248 232.827914 22.690848 231.933699 22.588981 230.809544 C 22.436181 228.561233 22.181514 225.342061 21.875913 221.509713 C 21.315645 213.870566 20.57711 203.778716 19.940442 194.044552 C 19.278308 184.259291 21.264712 172.404561 24.397119 159.885557 C 27.504058 147.46875 31.782468 134.36212 35.831676 121.970861 L 35.933543 121.689823 C 37.996347 115.430321 42.300223 108.506546 48.259436 101.250633 C 54.193182 93.994721 61.782265 86.381123 70.390016 78.690878 C 87.605519 63.259291 108.895698 47.470017 129.269075 33.469172 C 149.693385 19.468328 178.598113 11.267103 202.38403 6.591639 C 214.276989 4.266681 224.922078 2.810389 232.562094 1.916174 C 236.382102 1.481841 239.463575 1.200802 241.60278 0.99641 C 242.646916 0.919764 243.487317 0.843117 244.047585 0.817568 C 244.327719 0.792019 244.531453 0.76647 244.684253 0.76647 L 244.837054 0.76647 L 244.887987 0.740921 C 244.887987 0.740921 244.887987 0.740921 244.913454 0.99641 L 244.887987 0.740921 L 257.239347 0.740921 L 257.21388 0.99641 C 257.239347 0.740921 257.239347 0.740921 257.239347 0.740921 L 257.29028 0.76647 L 257.44308 0.76647 C 257.595881 0.76647 257.799614 0.792019 258.079748 0.817568 C 258.640016 0.843117 259.454951 0.919764 260.524554 0.99641 C 262.663758 1.175253 265.745231 1.481841 269.565239 1.916174 C 277.205256 2.78484 287.824878 4.241132 299.717837 6.56609 C 323.503754 11.241554 352.408482 19.41723 372.832792 33.469172 C 393.206169 47.521115 414.521814 63.310389 431.737317 78.716427 C 440.370536 86.432221 447.959619 94.045819 453.918831 101.301731 C 459.852577 108.557644 464.18192 115.45587 466.193791 121.740921 L 466.677658 123.248311 C 470.574067 135.281883 474.674209 147.903083 477.679282 159.885557 C 480.786222 172.353463 482.747159 184.182644 482.110491 193.967905 C 481.473823 203.702069 480.735288 213.76837 480.149554 221.433066 C 479.86942 225.239865 479.614752 228.459037 479.436485 230.707348 C 479.334619 231.831503 479.258218 232.725718 479.232752 233.338894 L 479.181818 233.977618 C 479.232752 233.977618 479.334619 233.977618 479.436485 233.952069 C 479.767553 233.952069 480.276887 233.977618 480.913555 234.079814 C 482.161425 234.258657 483.867695 234.769637 485.752232 236.021537 C 489.49584 238.525338 493.825183 243.967272 496.346388 255.745355 C 498.89306 267.497889 501.159598 283.414907 501.235998 299.740709 C 501.337865 316.066512 499.275061 332.826647 493.137581 346.239865 C 487.000101 359.627534 481.855824 369.923775 478.23955 376.847551 C 476.431412 380.322213 475.005276 382.953758 474.037541 384.716639 C 473.528206 385.610853 473.171672 386.275127 472.917005 386.709459 C 472.789671 386.9394 472.687804 387.092694 472.636871 387.220439 L 472.560471 387.322635 L 472.560471 387.399282 L 472.535004 387.756968 C 472.535004 388.063556 472.509537 388.523438 472.484071 389.111064 C 472.433137 390.286318 472.356737 391.9981 472.25487 394.067568 C 472.02567 398.206503 471.720069 403.878378 471.312601 409.88239 C 470.4722 421.941512 469.275264 435.456926 467.696327 441.358742 C 466.11739 447.260557 462.119115 457.582348 458.502841 466.396748 C 456.72017 470.816723 455.0139 474.853463 453.740564 477.791596 C 453.129363 479.273438 452.620028 480.47424 452.263494 481.291807 C 452.059761 481.72614 451.932427 482.032728 451.83056 482.262669 L 451.728693 482.49261 L 451.703226 482.543708 C 451.142959 495.445946 449.691356 508.297086 447.348417 520.994932 C 445.514813 530.039274 441.847606 535.6856 438.613332 539.058066 C 437.008929 540.744299 435.506392 541.868454 434.411323 542.558277 C 433.876522 542.915963 433.418121 543.145904 433.11252 543.324747 C 432.95972 543.375845 432.857853 543.426943 432.781453 543.478041 C 432.781453 543.580236 432.80692 543.707981 432.832386 543.912373 C 432.857853 544.295608 432.908787 544.883235 432.95972 545.598606 C 433.061587 547.02935 433.137987 549.022171 433.163454 551.244932 C 433.163454 555.639358 432.832386 560.979096 431.40625 564.607052 C 429.954647 568.18391 427.127841 572.47614 424.657569 575.848606 C 423.4097 577.53484 422.263697 578.991132 421.423295 580.03864 C 421.015828 580.575169 420.659294 580.983953 420.430093 581.264992 C 420.30276 581.418285 420.22636 581.520481 420.149959 581.597128 L 420.073559 581.673775 L 420.048093 581.750422 C 420.022626 581.852618 419.971692 581.980363 419.920759 582.133657 C 419.793425 582.465794 419.615158 582.951225 419.385958 583.5644 C 418.927557 584.816301 418.265422 586.60473 417.450487 588.853041 C 415.846084 593.324113 413.681412 599.532517 411.414874 606.481841 C 409.148336 613.482264 404.004058 618.643159 399.470982 622.015625 C 397.204444 623.727407 395.065239 624.979307 393.511769 625.796875 C 392.722301 626.231208 392.085633 626.537796 391.627232 626.742188 C 391.423498 626.844383 391.245231 626.92103 391.117898 626.972128 C 391.117898 626.972128 391.092431 626.997677 391.092431 626.997677 C 391.066964 626.997677 391.066964 626.997677 391.066964 627.023226 C 391.066964 627.125422 391.041498 627.304265 391.016031 627.508657 C 390.939631 627.94299 390.837764 628.556166 390.63403 629.373733 C 390.226562 630.95777 389.488028 633.257179 388.138291 636.042019 C 385.413352 641.611698 380.243608 649.1231 370.337054 656.992188 M 253.95414 724.978041 L 370.158787 656.787796 M 253.95414 724.978041 L 253.979606 724.978041 L 253.95414 724.901394 C 253.979606 724.978041 253.979606 724.978041 253.979606 724.978041 L 254.056006 724.952492 C 254.10694 724.952492 254.208807 724.926943 254.310674 724.901394 C 254.565341 724.850296 254.896408 724.773649 255.354809 724.671453 C 256.246144 724.467061 257.544947 724.186022 259.200284 723.777238 C 262.460024 722.98522 267.094968 721.809966 272.468446 720.251478 C 283.189935 717.134502 296.916498 712.561233 308.86039 706.608319 C 320.804282 700.680954 327.349229 694.344806 330.91457 689.464949 C 332.671774 687.037796 333.715909 684.993877 334.301644 683.537584 C 334.581778 682.796664 334.760045 682.209037 334.887378 681.825802 C 334.938312 681.62141 334.963778 681.468117 334.989245 681.365921 C 334.989245 681.340372 334.989245 681.340372 335.014712 681.314823 M 253.95414 724.978041 L 334.785511 681.161529 M 370.337054 656.992188 L 370.158787 656.787796 M 370.337054 656.992188 L 370.158787 656.787796 M 370.337054 656.992188 C 359.157163 665.959882 347.366071 674.084459 335.014712 681.314823 M 370.158787 656.787796 C 358.978896 665.781039 347.162338 673.905617 334.785511 681.161529 M 335.014712 681.314823 C 335.014712 681.289274 335.014712 681.263725 335.014712 681.238176 L 335.014712 681.187078 C 335.014712 681.187078 335.014712 681.187078 334.785511 681.161529 M 335.014712 681.314823 C 334.963778 681.340372 334.938312 681.340372 334.912845 681.365921 L 334.785511 681.161529 M 479.156351 234.233108 C 478.978084 234.233108 478.901684 234.258657 478.901684 234.258657 C 478.901684 234.258657 478.901684 234.156461 478.927151 234.003167 Z M 479.156351 234.233108 " transform="matrix(0.153386,0,0,0.152893,0,0)"/>
<path style=" stroke:none;fill-rule:nonzero;fill:rgb(100%,100%,100%);fill-opacity:1;" d="M 38.859375 107.671875 L 45.246094 106.769531 L 46.808594 105.226562 L 49.148438 101.359375 L 48.308594 99.410156 L 50.359375 101.695312 C 51.785156 100.855469 53.148438 99.910156 54.441406 98.878906 C 56.730469 97.070312 56.945312 95.160156 56.945312 95.160156 C 56.945312 95.160156 54.835938 96.246094 53.179688 96.753906 C 51.523438 97.257812 49.148438 96.753906 49.148438 96.753906 C 49.148438 96.753906 53.652344 95.269531 55.019531 94.039062 C 56.382812 92.808594 56.117188 90.242188 56.117188 90.242188 C 56.117188 90.242188 58.183594 89.339844 59.171875 87.660156 C 60.160156 85.984375 59.296875 84.148438 59.296875 84.148438 L 54.226562 77.675781 L 57.726562 64.976562 L 53.882812 59.78125 L 51.082031 65.507812 L 52.921875 70.65625 L 50.25 73.152344 L 50.25 77.722656 L 45.363281 68.625 C 45.363281 68.625 50.246094 69.433594 50.25 69.53125 C 50.253906 69.628906 47.164062 62.445312 47.164062 62.445312 L 44.402344 66.3125 C 44.402344 66.3125 43.328125 65.972656 41.765625 65.554688 C 40.820312 65.300781 39.851562 65.144531 38.875 65.085938 L 37.753906 65.101562 C 36.910156 65.167969 36.074219 65.320312 35.261719 65.554688 C 33.699219 65.964844 32.621094 66.3125 32.621094 66.3125 L 29.863281 62.445312 C 29.863281 62.445312 26.765625 69.628906 26.777344 69.53125 C 26.789062 69.433594 31.664062 68.625 31.664062 68.625 L 26.777344 77.722656 L 26.777344 73.160156 L 24.109375 70.660156 L 25.945312 65.515625 L 23.140625 59.78125 L 19.296875 64.976562 L 22.796875 77.675781 L 17.722656 84.148438 C 17.722656 84.148438 16.859375 85.980469 17.851562 87.660156 C 18.839844 89.34375 20.902344 90.242188 20.902344 90.242188 C 20.902344 90.242188 20.636719 92.808594 22.003906 94.039062 C 23.371094 95.269531 27.875 96.753906 27.875 96.753906 C 27.875 96.753906 25.5 97.257812 23.84375 96.753906 C 22.183594 96.246094 20.074219 95.160156 20.074219 95.160156 C 20.074219 95.160156 20.292969 97.070312 22.582031 98.878906 C 23.875 99.910156 25.238281 100.855469 26.664062 101.695312 L 28.71875 99.410156 L 27.878906 101.359375 L 30.21875 105.226562 L 31.785156 106.769531 L 38.355469 107.671875 Z M 38.859375 107.671875 "/>
<path style=" stroke:none;fill-rule:nonzero;fill:rgb(100%,100%,100%);fill-opacity:1;" d="M 43.699219 37.972656 C 43.699219 37.972656 44.414062 36.117188 47.152344 35.445312 C 49.890625 34.769531 53.425781 36.125 53.425781 36.125 C 53.425781 36.125 55.089844 36.863281 54.1875 37.976562 C 53.285156 39.09375 51.050781 38.597656 51.050781 38.597656 C 51.050781 38.597656 52.746094 39.566406 54.453125 39.269531 C 56.164062 38.976562 53.308594 40.792969 51.03125 40.566406 C 48.75 40.335938 46.125 39.257812 46.125 39.257812 C 46.125 39.257812 46.171875 40.304688 48.246094 41.019531 C 50.324219 41.734375 52.007812 42.753906 54.1875 41.550781 C 56.367188 40.347656 58.910156 39.316406 60.730469 39.542969 C 62.550781 39.769531 64.820312 42.105469 64.820312 42.105469 L 59.355469 42.105469 C 59.355469 42.105469 58.222656 45.929688 59.476562 47.117188 C 60.726562 48.304688 63.355469 50.804688 63.355469 50.804688 C 63.355469 50.804688 62.351562 50.304688 60.132812 52.441406 C 57.914062 54.574219 59.050781 59.671875 59.050781 59.671875 L 60.730469 63.539062 C 60.730469 63.539062 56.960938 59.945312 53.652344 57.867188 C 50.347656 55.785156 48.53125 55.378906 47.382812 53.027344 C 46.234375 50.679688 48.292969 48.519531 48.292969 48.519531 L 42.644531 39.40625 L 44.707031 41.085938 Z M 43.699219 37.972656 "/>
<path style=" stroke:none;fill-rule:nonzero;fill:rgb(100%,100%,100%);fill-opacity:1;" d="M 63.71875 69.917969 L 60.878906 76.855469 L 62.375 80.628906 L 59.164062 85.941406 L 67.066406 79.574219 Z M 63.71875 69.917969 "/>
<path style=" stroke:none;fill-rule:nonzero;fill:rgb(100%,100%,100%);fill-opacity:1;" d="M 38.726562 30.84375 C 38.726562 30.84375 43.511719 31.386719 45.644531 30.828125 C 47.773438 30.269531 48.097656 29.207031 48.097656 29.207031 C 48.097656 29.207031 51.855469 30.101562 54.8125 30.828125 C 57.769531 31.558594 58.4375 30.828125 58.4375 30.828125 C 58.4375 30.828125 60.355469 29.050781 59.296875 27.457031 C 58.234375 25.863281 54.253906 24.613281 54.253906 24.613281 C 54.253906 24.613281 58.105469 24.796875 60.382812 26.179688 C 62.664062 27.5625 65.261719 25.753906 66.886719 24.160156 C 68.511719 22.566406 67.394531 21.183594 67.394531 21.183594 C 67.394531 21.183594 64.835938 21.820312 62.355469 20.519531 C 59.878906 19.21875 58.863281 17.996094 57.550781 16.195312 C 56.238281 14.398438 57.53125 12.695312 57.550781 10.019531 C 57.574219 7.34375 54.441406 6.300781 54.441406 6.300781 C 54.441406 6.300781 54.707031 7.574219 52.847656 10.984375 C 50.988281 14.390625 47.160156 14.472656 47.160156 14.472656 C 47.160156 14.472656 51.605469 12.175781 50.300781 7.164062 C 49.726562 4.953125 45.0625 2.589844 45.0625 2.589844 C 45.0625 2.589844 46.496094 4.703125 45.859375 7.148438 C 45.21875 9.59375 41.875 10.648438 41.875 10.648438 C 41.875 10.648438 44.578125 7.824219 43.761719 4.617188 C 42.945312 1.40625 39.992188 1.570312 39.992188 1.570312 L 37.035156 1.570312 C 37.035156 1.570312 34.089844 1.398438 33.261719 4.617188 C 32.4375 7.832031 35.148438 10.664062 35.148438 10.664062 C 35.148438 10.664062 31.804688 9.601562 31.164062 7.164062 C 30.523438 4.726562 31.960938 2.605469 31.960938 2.605469 C 31.960938 2.605469 27.296875 4.96875 26.722656 7.175781 C 25.417969 12.191406 29.863281 14.488281 29.863281 14.488281 C 29.863281 14.488281 26.03125 14.394531 24.171875 10.988281 C 22.3125 7.582031 22.582031 6.308594 22.582031 6.308594 C 22.582031 6.308594 19.449219 7.335938 19.46875 10.027344 C 19.488281 12.714844 20.78125 14.402344 19.46875 16.203125 C 18.15625 18.003906 17.148438 19.21875 14.671875 20.519531 C 12.191406 21.820312 9.632812 21.183594 9.632812 21.183594 C 9.632812 21.183594 8.511719 22.566406 10.140625 24.160156 C 11.769531 25.757812 14.363281 27.5625 16.644531 26.179688 C 18.925781 24.796875 22.773438 24.613281 22.773438 24.613281 C 22.773438 24.613281 18.792969 25.859375 17.730469 27.457031 C 16.667969 29.050781 18.59375 30.828125 18.59375 30.828125 C 18.59375 30.828125 19.261719 31.558594 22.222656 30.828125 C 25.179688 30.101562 28.925781 29.207031 28.925781 29.207031 C 28.925781 29.207031 29.246094 30.269531 31.375 30.828125 C 33.507812 31.386719 38.433594 30.828125 38.433594 30.828125 Z M 38.726562 30.84375 "/>
<path style=" stroke:none;fill-rule:nonzero;fill:rgb(100%,100%,100%);fill-opacity:1;" d="M 33.300781 37.972656 C 33.300781 37.972656 32.589844 36.117188 29.851562 35.445312 C 27.113281 34.769531 23.578125 36.125 23.578125 36.125 C 23.578125 36.125 21.914062 36.863281 22.816406 37.976562 C 23.71875 39.09375 25.953125 38.597656 25.953125 38.597656 C 25.953125 38.597656 24.257812 39.566406 22.546875 39.269531 C 20.839844 38.976562 23.691406 40.792969 25.972656 40.566406 C 28.257812 40.335938 30.878906 39.257812 30.878906 39.257812 C 30.878906 39.257812 30.832031 40.304688 28.753906 41.019531 C 26.679688 41.734375 24.996094 42.753906 22.816406 41.550781 C 20.636719 40.347656 18.089844 39.316406 16.273438 39.542969 C 14.453125 39.769531 12.183594 42.101562 12.183594 42.101562 L 17.644531 42.101562 C 17.644531 42.101562 18.78125 45.925781 17.527344 47.109375 C 16.277344 48.296875 13.648438 50.796875 13.648438 50.796875 C 13.648438 50.796875 14.652344 50.296875 16.871094 52.433594 C 19.085938 54.570312 17.953125 59.667969 17.953125 59.667969 L 16.273438 63.535156 C 16.273438 63.535156 20.035156 59.945312 23.347656 57.867188 C 26.664062 55.785156 28.476562 55.371094 29.621094 53.023438 C 30.765625 50.671875 28.710938 48.511719 28.710938 48.511719 L 34.359375 39.402344 L 32.292969 41.082031 Z M 33.300781 37.972656 "/>
<path style=" stroke:none;fill-rule:nonzero;fill:rgb(100%,100%,100%);fill-opacity:1;" d="M 39.382812 57.957031 L 42.660156 54.773438 L 46.609375 57.871094 L 49.992188 56.894531 L 52.972656 58.664062 L 52.1875 62.605469 L 46.578125 59.519531 L 38.589844 59.195312 L 38.4375 59.195312 L 30.453125 59.519531 L 24.839844 62.605469 L 24.054688 58.664062 L 27.035156 56.894531 L 30.417969 57.871094 L 34.367188 54.773438 L 37.789062 57.957031 Z M 39.382812 57.957031 "/>
<path style=" stroke:none;fill-rule:nonzero;fill:rgb(100%,100%,100%);fill-opacity:1;" d="M 39.914062 60.882812 L 43.058594 61.027344 L 45.007812 62.753906 L 41.796875 63.316406 L 39.113281 63.53125 L 37.515625 63.53125 L 35.234375 63.316406 L 32.023438 62.753906 L 33.972656 61.027344 L 37.914062 60.84375 Z M 39.914062 60.882812 "/>
<path style=" stroke:none;fill-rule:nonzero;fill:rgb(100%,100%,100%);fill-opacity:1;" d="M 13.300781 69.917969 L 16.144531 76.855469 L 14.648438 80.628906 L 17.859375 85.941406 L 9.957031 79.574219 Z M 13.300781 69.917969 "/>
<path style=" stroke:none;fill-rule:nonzero;fill:rgb(100%,100%,100%);fill-opacity:1;" d="M 38.441406 32.550781 C 37.972656 32.402344 37.675781 32.464844 36.625 33.449219 C 35.511719 34.476562 36.957031 35.746094 36.957031 35.746094 L 35.59375 44.1875 L 33.835938 43.011719 L 32.023438 46.375 L 34.449219 45.917969 L 34.371094 48.433594 L 35.199219 49.800781 L 38.398438 51.515625 L 39.089844 51.5 L 41.832031 49.800781 L 42.660156 48.433594 L 42.582031 45.917969 L 45.007812 46.382812 L 43.191406 43.023438 L 41.433594 44.203125 L 40.074219 35.761719 C 40.074219 35.761719 41.59375 34.203125 40.394531 33.261719 C 39.199219 32.324219 38.585938 32.5625 38.585938 32.5625 Z M 38.441406 32.550781 "/>
</g>
</svg>
