<svg height="112" viewBox="0 0 77 111" width="77" xmlns="http://www.w3.org/2000/svg"><path d="m253.954 724.978h-6.214l.051-.23-.05.23h-.026l-.077-.026c-.05 0-.127-.025-.254-.05-.23-.052-.56-.128-1.019-.23-.866-.205-2.165-.486-3.769-.895a295.59 295.59 0 0 1 -13.14-3.526c-10.62-3.116-24.22-7.69-36.164-13.643-11.969-5.927-18.514-12.263-22.054-17.143-1.782-2.427-2.801-4.471-3.387-5.927a13.794 13.794 0 0 1 -.586-1.712c-.05-.205-.101-.358-.127-.46v-.051a290.995 290.995 0 0 1 -35.322-24.323c-9.932-7.869-15.153-15.38-17.878-20.924-1.375-2.785-2.114-5.06-2.521-6.669a42.607 42.607 0 0 1 -.382-1.84c-.026-.204-.051-.382-.051-.485v-.025l-.051-.026a6.779 6.779 0 0 1 -.51-.23 29.561 29.561 0 0 1 -1.858-.92 47.337 47.337 0 0 1 -5.985-3.806c-4.533-3.373-9.652-8.534-11.944-15.534a649.517 649.517 0 0 0 -6.036-17.629c-.814-2.248-1.477-4.037-1.935-5.289-.23-.613-.407-1.098-.535-1.43-.05-.154-.102-.281-.127-.358l-.026-.102-.076-.077c-.051-.076-.153-.179-.28-.332-.23-.28-.586-.69-.993-1.226a136.319 136.319 0 0 1 -3.235-4.19c-2.47-3.373-5.322-7.665-6.748-11.242-1.426-3.602-1.758-8.942-1.732-13.362 0-2.223.102-4.19.204-5.646.025-.716.076-1.278.127-1.687 0-.178.025-.332.025-.434a1.694 1.694 0 0 0 -.305-.153c-.331-.179-.764-.409-1.324-.767-1.095-.69-2.598-1.814-4.202-3.5-3.235-3.372-6.902-9.019-8.735-18.063a278.518 278.518 0 0 1 -4.355-38.451l-.026-.026-.102-.255c-.101-.23-.229-.537-.407-.946-.357-.843-.891-2.043-1.503-3.5-1.248-2.963-2.954-7-4.762-11.42-3.616-8.815-7.614-19.136-9.193-25.013-1.58-5.927-2.776-19.468-3.617-31.502a869.464 869.464 0 0 1 -.916-15.814c-.102-2.07-.204-3.782-.255-4.957-.026-.587-.051-1.047-.051-1.354l-.026-.358v-.076l-.05-.102a5.253 5.253 0 0 1 -.306-.511c-.23-.435-.611-1.099-1.095-1.993a397.712 397.712 0 0 1 -4.202-7.87c-3.616-6.923-8.76-17.194-14.924-30.556-6.188-13.388-8.25-30.148-8.149-46.474.076-16.325 2.368-32.242 4.915-44.02 2.547-11.804 6.876-17.246 10.62-19.75 1.859-1.226 3.565-1.737 4.813-1.916.637-.102 1.146-.128 1.502-.102h.255l-.05-.639c-.052-.613-.128-1.507-.23-2.631a912.69 912.69 0 0 0 -.713-9.3c-.56-7.64-1.299-17.731-1.936-27.465-.662-9.786 1.325-21.64 4.457-34.16 3.107-12.416 7.385-25.523 11.435-37.914l.102-.281c2.062-6.26 6.366-13.183 12.325-20.44 5.934-7.255 13.523-14.869 22.131-22.56 17.216-15.43 38.506-31.22 58.88-45.22 20.423-14.002 49.328-22.203 73.114-26.878 11.893-2.325 22.538-3.782 30.178-4.676 3.82-.434 6.902-.715 9.04-.92 1.045-.076 1.885-.153 2.446-.178.28-.026.483-.052.636-.052h.153l.051-.025.025.255-.025-.255h12.351l-.025.255.025-.255.051.025h.153c.153 0 .357.026.637.052.56.025 1.375.102 2.445.178 2.139.18 5.22.486 9.04.92 7.64.869 18.26 2.325 30.153 4.65 23.786 4.676 52.69 12.851 73.115 26.903 20.373 14.052 41.689 29.841 58.904 45.247 8.634 7.716 16.223 15.33 22.182 22.586 5.934 7.256 10.263 14.154 12.275 20.439l.484 1.507c3.896 12.034 7.996 24.655 11.001 36.638 3.107 12.467 5.068 24.297 4.431 34.082-.636 9.734-1.375 19.8-1.96 27.465-.28 3.807-.535 7.026-.714 9.274-.101 1.125-.178 2.019-.203 2.632l-.051.639c.05 0 .153 0 .254-.026.332 0 .84.026 1.478.128 1.247.179 2.954.69 4.838 1.942 3.744 2.503 8.073 7.945 10.594 19.723 2.547 11.753 4.814 27.67 4.89 43.996.102 16.326-1.96 33.086-8.098 46.499-6.138 13.388-11.282 23.684-14.898 30.608a397.726 397.726 0 0 1 -4.202 7.869c-.51.894-.866 1.558-1.121 1.992-.127.23-.23.384-.28.511l-.077.103v.076l-.025.358c0 .307-.025.766-.05 1.354-.052 1.175-.128 2.887-.23 4.957-.23 4.139-.535 9.81-.942 15.814-.84 12.06-2.038 25.575-3.617 31.477s-5.577 16.223-9.193 25.038a496.544 496.544 0 0 1 -4.762 11.395 199.55 199.55 0 0 1 -1.478 3.5c-.203.434-.33.74-.432.97l-.102.23-.026.052a278.517 278.517 0 0 1 -4.355 38.45c-1.833 9.045-5.5 14.692-8.735 18.064-1.604 1.686-3.107 2.81-4.202 3.5-.534.358-.993.588-1.298.767a1.36 1.36 0 0 0 -.332.153c0 .102.026.23.051.434.026.384.077.971.128 1.687.102 1.43.178 3.423.203 5.646 0 4.394-.33 9.734-1.757 13.362-1.451 3.577-4.278 7.87-6.748 11.242a136.317 136.317 0 0 1 -3.235 4.19c-.407.536-.764.945-.993 1.226-.127.153-.204.255-.28.332l-.076.077-.026.076c-.025.103-.076.23-.127.384-.128.332-.306.817-.535 1.43-.458 1.252-1.12 3.04-1.936 5.289a649.52 649.52 0 0 0 -6.035 17.629c-2.267 7-7.41 12.161-11.944 15.534a43.997 43.997 0 0 1 -5.96 3.78c-.789.435-1.425.742-1.884.946a6.78 6.78 0 0 1 -.51.23l-.025.026c-.025 0-.025 0-.025.025 0 .102-.026.281-.051.486-.076.434-.178 1.047-.382 1.865-.407 1.584-1.146 3.883-2.496 6.668-2.725 5.57-7.894 13.081-17.8 20.95m-116.384 67.986 116.205-68.19m-116.205 68.19h.026l-.026-.077.026.077.076-.026c.05 0 .153-.025.255-.05.254-.052.585-.128 1.044-.23.891-.205 2.19-.486 3.845-.895 3.26-.792 7.895-1.967 13.268-3.526 10.722-3.116 24.448-7.69 36.392-13.643 11.944-5.927 18.49-12.263 22.055-17.143 1.757-2.427 2.8-4.471 3.387-5.927.28-.741.458-1.329.585-1.712.051-.205.077-.358.102-.46 0-.026 0-.026.026-.051m-81.06 43.663 80.83-43.816m35.552-24.17-.178-.204m.178.204-.178-.204m.178.204a292.995 292.995 0 0 1 -35.322 24.323m35.144-24.527a291.957 291.957 0 0 1 -35.373 24.374m.229.153v-.127l-.23-.026m.23.153c-.051.025-.077.025-.102.05l-.127-.203m144.37-446.929c-.178 0-.254.026-.254.026s0-.103.025-.256zm0 0" fill="#1e1e1e" stroke="#fff" stroke-width=".5" transform="scale(.15339 .1529)"/><g fill="#fff"><path d="m38.86 107.672 6.386-.902 1.563-1.543 2.34-3.868-.84-1.949 2.05 2.285a35.234 35.234 0 0 0 4.082-2.816c2.29-1.809 2.504-3.719 2.504-3.719s-2.11 1.086-3.765 1.594c-1.657.504-4.032 0-4.032 0s4.504-1.484 5.872-2.715c1.363-1.23 1.097-3.797 1.097-3.797s2.067-.902 3.055-2.582c.988-1.676.125-3.512.125-3.512l-5.07-6.472 3.5-12.7-3.844-5.195-2.801 5.727 1.84 5.148-2.672 2.496v4.57l-4.887-9.097s4.883.809 4.887.906c.004.098-3.086-7.086-3.086-7.086l-2.762 3.867s-1.074-.34-2.636-.757a14.489 14.489 0 0 0 -2.891-.47l-1.121.017a12.55 12.55 0 0 0 -2.492.453c-1.563.41-2.64.757-2.64.757l-2.759-3.867s-3.097 7.184-3.086 7.086c.012-.097 4.887-.906 4.887-.906l-4.887 9.098v-4.563l-2.668-2.5 1.836-5.144-2.804-5.735-3.844 5.196 3.5 12.699-5.074 6.472s-.864 1.832.129 3.512c.988 1.684 3.05 2.582 3.05 2.582s-.265 2.567 1.102 3.797 5.871 2.715 5.871 2.715-2.375.504-4.031 0c-1.66-.508-3.77-1.594-3.77-1.594s.219 1.91 2.508 3.719a35.234 35.234 0 0 0 4.082 2.816l2.055-2.285-.84 1.95 2.34 3.867 1.566 1.543 6.57.902zm4.84-69.699s.714-1.856 3.452-2.528c2.739-.675 6.274.68 6.274.68s1.664.738.761 1.852c-.902 1.117-3.136.62-3.136.62s1.695.97 3.402.673c1.711-.293-1.144 1.523-3.422 1.296-2.281-.23-4.906-1.308-4.906-1.308s.047 1.047 2.121 1.762c2.078.714 3.762 1.734 5.941.53 2.18-1.202 4.723-2.234 6.543-2.007s4.09 2.562 4.09 2.562h-5.465s-1.132 3.825.122 5.012l3.878 3.688s-1.003-.5-3.222 1.636c-2.219 2.133-1.082 7.23-1.082 7.23l1.68 3.868s-3.77-3.594-7.079-5.672c-3.304-2.082-5.12-2.488-6.27-4.84-1.148-2.347.911-4.507.911-4.507l-5.648-9.114 2.062 1.68zm0 0"/><path d="m63.719 69.918-2.84 6.937 1.496 3.774-3.21 5.312 7.901-6.367zm-24.992-39.074s4.785.543 6.918-.016c2.128-.558 2.453-1.621 2.453-1.621s3.757.895 6.715 1.621c2.957.73 3.624 0 3.624 0s1.918-1.777.86-3.371c-1.063-1.594-5.043-2.844-5.043-2.844s3.851.184 6.129 1.567c2.281 1.383 4.879-.426 6.504-2.02s.508-2.976.508-2.976-2.56.636-5.04-.664c-2.476-1.301-3.492-2.524-4.804-4.325-1.313-1.797-.02-3.5 0-6.175.023-2.676-3.11-3.72-3.11-3.72s.266 1.274-1.593 4.684c-1.86 3.407-5.688 3.489-5.688 3.489s4.445-2.297 3.14-7.309c-.573-2.21-5.237-4.574-5.237-4.574s1.433 2.113.796 4.558c-.64 2.446-3.984 3.5-3.984 3.5s2.703-2.824 1.887-6.03c-.817-3.212-3.77-3.048-3.77-3.048h-2.957s-2.945-.172-3.773 3.047c-.825 3.215 1.886 6.047 1.886 6.047s-3.343-1.062-3.984-3.5c-.64-2.437.797-4.559.797-4.559s-4.664 2.364-5.238 4.57c-1.305 5.016 3.14 7.313 3.14 7.313s-3.832-.093-5.691-3.5c-1.86-3.406-1.59-4.68-1.59-4.68s-3.133 1.028-3.113 3.72c.02 2.687 1.312 4.374 0 6.175-1.313 1.8-2.32 3.016-4.797 4.317-2.48 1.3-5.04.664-5.04.664s-1.12 1.382.509 2.976c1.629 1.598 4.222 3.402 6.504 2.02 2.28-1.383 6.128-1.567 6.128-1.567s-3.98 1.246-5.043 2.844c-1.062 1.594.864 3.371.864 3.371s.668.73 3.629 0c2.957-.726 6.703-1.621 6.703-1.621s.32 1.063 2.449 1.621c2.133.559 7.059 0 7.059 0zm-5.427 7.129s-.71-1.856-3.448-2.528c-2.739-.675-6.274.68-6.274.68s-1.664.738-.762 1.852c.903 1.117 3.137.62 3.137.62s-1.695.97-3.406.673c-1.707-.293 1.144 1.523 3.426 1.296 2.285-.23 4.906-1.308 4.906-1.308s-.047 1.047-2.125 1.762c-2.074.714-3.758 1.734-5.938.53-2.18-1.202-4.726-2.234-6.543-2.007-1.82.227-4.09 2.559-4.09 2.559h5.462s1.136 3.824-.118 5.007l-3.879 3.688s1.004-.5 3.223 1.637c2.215 2.136 1.082 7.234 1.082 7.234l-1.68 3.867s3.762-3.59 7.075-5.668c3.316-2.082 5.129-2.496 6.273-4.844 1.145-2.351-.91-4.511-.91-4.511l5.648-9.11-2.066 1.68zm6.083 19.984 3.277-3.184 3.95 3.098 3.382-.976 2.98 1.77-.785 3.94-5.609-3.085-7.988-.325h-.153l-7.984.325-5.613 3.085-.785-3.94 2.98-1.77 3.383.976 3.95-3.098 3.421 3.184zm0 0"/><path d="m39.914 60.883 3.145.144 1.949 1.727-3.211.562-2.684.215h-1.597l-2.282-.215-3.21-.562 1.949-1.727 3.941-.183zm-26.614 9.035 2.845 6.937-1.497 3.774 3.211 5.312-7.902-6.367zm25.141-37.368c-.468-.148-.765-.085-1.816.9-1.113 1.027.332 2.296.332 2.296l-1.363 8.441-1.758-1.175-1.813 3.363 2.426-.457-.078 2.516.828 1.367 3.2 1.715.69-.016 2.743-1.7.828-1.366-.078-2.516 2.426.465-1.817-3.36-1.757 1.18-1.36-8.441s1.52-1.559.32-2.5c-1.195-.938-1.808-.7-1.808-.7zm0 0"/></g></svg>