<svg width="72" height="70" viewBox="0 0 72 70" fill="none" xmlns="http://www.w3.org/2000/svg">
<path d="M64.9128 54.3695V15.0048H50.8369V42.2572L64.9128 54.3695Z" fill="#522785" stroke="#522785"/>
<path d="M15.0752 14.2477V1H51.9768L64.5309 14.2477H15.0752Z" fill="#29ABE2" stroke="#29ABE2"/>
<path d="M14.315 50.5845H1L1 13.8693L14.315 1.37859L14.315 50.5845Z" fill="#F15A24" stroke="#F15A24"/>
<path d="M13.5536 63.4536L1.37988 50.9629H43.9879L56.1616 63.4536H13.5536Z" fill="#FBB03B" stroke="#FBB03B"/>
<rect x="33.7178" y="32.416" width="3.80429" height="3.78507" fill="#FBB03B"/>
<rect x="32.958" y="43.7712" width="3.04343" height="3.02876" fill="#FBB03B"/>
<rect x="52.6902" y="55.0765" width="3.14343" height="3.12876" fill="#522785" stroke="black" stroke-width="0.1"/>
<rect x="60.3438" y="41.5002" width="2.28257" height="2.27157" fill="black"/>
<rect x="36" y="55.1265" width="2.28257" height="2.27157" fill="black"/>
<rect x="47.4131" y="44.1498" width="3.80429" height="3.78507" fill="#FBB03B"/>
<rect x="54.2588" y="36.9581" width="3.80429" height="3.78507" fill="black"/>
<rect x="45.1299" y="57.3976" width="3.80429" height="3.78507" fill="black"/>
<rect x="67.1463" y="53.5624" width="3.90429" height="3.88507" fill="#522785" stroke="black" stroke-width="0.1"/>
<rect x="55.7322" y="65.6746" width="3.90429" height="3.88507" fill="#522785" stroke="black" stroke-width="0.1"/>
<rect x="45.1299" y="30.902" width="4.56514" height="4.54208" fill="#FBB03B"/>
<rect x="66.3836" y="64.9177" width="4.66514" height="4.64208" fill="#522785" stroke="black" stroke-width="0.1"/>
<rect x="39.8018" y="38.4722" width="5.326" height="5.29909" fill="#FBB03B"/>
<rect x="58.7752" y="57.3476" width="5.426" height="5.39909" fill="#522785" stroke="black" stroke-width="0.1"/>
<rect x="42.0869" y="49.8274" width="5.326" height="5.29909" fill="black"/>
<rect x="42.8438" y="49.0703" width="5.326" height="5.29909" fill="#FBB03B"/>
<rect x="56.542" y="48.3132" width="5.326" height="5.29909" fill="black"/>
<rect x="55.7322" y="49.0203" width="5.426" height="5.39909" fill="#522785" stroke="black" stroke-width="0.1"/>
<path d="M64.9128 54.3695V15.0048H50.8369V42.2572L64.9128 54.3695Z" fill="#522785" stroke="#522785"/>
<path d="M15.0752 14.2477V1H51.9768L64.5309 14.2477H15.0752Z" fill="#29ABE2" stroke="#29ABE2"/>
<path d="M14.315 50.5845H1L1 13.8693L14.315 1.37859L14.315 50.5845Z" fill="#F15A24" stroke="#F15A24"/>
<path d="M13.5536 63.4536L1.37988 50.9629H43.9879L56.1616 63.4536H13.5536Z" fill="#FBB03B" stroke="#FBB03B"/>
<rect x="33.7178" y="32.416" width="3.80429" height="3.78507" fill="#FBB03B"/>
<rect x="32.958" y="43.7712" width="3.04343" height="3.02876" fill="#FBB03B"/>
<rect x="52.6902" y="55.0765" width="3.14343" height="3.12876" fill="#522785" stroke="white" stroke-width="0.1"/>
<rect x="60.3438" y="41.5002" width="2.28257" height="2.27157" fill="white"/>
<rect x="36" y="55.1265" width="2.28257" height="2.27157" fill="white"/>
<rect x="47.4131" y="44.1498" width="3.80429" height="3.78507" fill="#FBB03B"/>
<rect x="54.2588" y="36.9581" width="3.80429" height="3.78507" fill="white"/>
<rect x="45.1299" y="57.3976" width="3.80429" height="3.78507" fill="white"/>
<rect x="67.1463" y="53.5624" width="3.90429" height="3.88507" fill="#522785" stroke="white" stroke-width="0.1"/>
<rect x="55.7322" y="65.6746" width="3.90429" height="3.88507" fill="#522785" stroke="white" stroke-width="0.1"/>
<rect x="45.1299" y="30.902" width="4.56514" height="4.54208" fill="#FBB03B"/>
<rect x="66.3836" y="64.9177" width="4.66514" height="4.64208" fill="#522785" stroke="white" stroke-width="0.1"/>
<rect x="39.8018" y="38.4722" width="5.326" height="5.29909" fill="#FBB03B"/>
<rect x="58.7752" y="57.3476" width="5.426" height="5.39909" fill="#522785" stroke="white" stroke-width="0.1"/>
<rect x="42.0869" y="49.8274" width="5.326" height="5.29909" fill="white"/>
<rect x="42.8438" y="49.0703" width="5.326" height="5.29909" fill="#FBB03B"/>
<rect x="56.542" y="48.3132" width="5.326" height="5.29909" fill="white"/>
<rect x="55.7322" y="49.0203" width="5.426" height="5.39909" fill="#522785" stroke="white" stroke-width="0.1"/>
</svg>
