<svg xmlns="http://www.w3.org/2000/svg" width="112" height="112" fill="none" viewBox="0 0 112 112"><circle cx="56" cy="56" r="56" fill="#000"/><path stroke="#fff" stroke-linecap="round" stroke-linejoin="round" stroke-width="10" d="M88 70.403V41.597a7.273 7.273 0 0 0-.954-3.596 7.156 7.156 0 0 0-2.602-2.633L59.556 20.965A7.043 7.043 0 0 0 56 20a7.043 7.043 0 0 0-3.556.965L27.556 35.368A7.156 7.156 0 0 0 24.954 38 7.273 7.273 0 0 0 24 41.597v28.806a7.273 7.273 0 0 0 .954 3.596 7.156 7.156 0 0 0 2.602 2.633l24.888 14.403A7.043 7.043 0 0 0 56 92a7.043 7.043 0 0 0 3.556-.965l24.888-14.403A7.156 7.156 0 0 0 87.046 74 7.273 7.273 0 0 0 88 70.403Z"/></svg>