<?xml version="1.0" standalone="no"?>
<!DOCTYPE svg PUBLIC "-//W3C//DTD SVG 20010904//EN"
 "http://www.w3.org/TR/2001/REC-SVG-20010904/DTD/svg10.dtd">
<svg version="1.0" xmlns="http://www.w3.org/2000/svg"
 width="300.000000pt" height="98.000000pt" viewBox="0 0 300.000000 98.000000"
 preserveAspectRatio="xMidYMid meet">
<metadata>
Created by potrace 1.10, written by Peter Selinger 2001-2011
</metadata>
<g transform="translate(0.000000,98.000000) scale(0.100000,-0.100000)"
fill="#000000" stroke="none">
<path d="M513 973 c-41 -8 -119 -112 -256 -341 -152 -254 -219 -388 -244 -486
-20 -82 -13 -92 46 -71 24 8 56 15 70 15 27 0 92 41 142 90 281 273 403 380
430 380 22 0 4 -22 -58 -73 -38 -30 -147 -133 -243 -229 -120 -120 -194 -186
-235 -209 -40 -22 -54 -35 -43 -37 44 -8 117 47 303 229 178 173 314 289 339
289 6 0 21 -19 34 -43 30 -57 104 -140 148 -168 45 -28 124 -35 163 -14 43 22
73 77 73 134 0 131 -119 221 -293 221 -44 0 -79 -3 -77 -7 38 -79 41 -83 78
-83 101 0 200 -64 200 -130 0 -31 -22 -60 -47 -60 -31 0 -83 42 -129 105 -26
35 -51 62 -56 59 -12 -8 -12 -8 37 -65 25 -29 45 -56 45 -61 0 -4 20 -32 45
-63 50 -61 47 -69 -11 -27 -40 29 -78 71 -139 154 -19 26 -43 49 -53 52 -24 8
-52 57 -52 92 0 35 -54 143 -97 193 -44 52 -82 67 -119 48 -34 -18 -75 -60
-101 -103 -10 -17 -31 -55 -48 -83 -16 -28 -33 -51 -37 -51 -5 0 -8 -6 -8 -13
0 -8 -14 -33 -30 -55 -17 -23 -31 -45 -31 -49 -4 -24 -20 -53 -29 -53 -6 0 -9
-4 -5 -9 3 -5 1 -12 -5 -16 -6 -3 -17 -23 -26 -43 -8 -20 -18 -39 -22 -42 -11
-8 -42 -79 -42 -95 0 -8 -3 -15 -8 -15 -11 0 -32 -75 -32 -115 0 -32 -2 -35
-30 -35 -25 0 -30 4 -30 25 0 13 5 37 11 52 6 15 15 37 19 48 31 78 64 143 72
139 4 -3 8 6 8 20 0 14 4 26 8 26 4 0 21 26 37 58 17 31 32 59 35 62 10 10 31
45 36 63 4 9 10 17 15 17 5 0 9 4 9 10 0 5 20 41 45 80 25 39 45 74 45 78 0 4
11 19 25 34 14 15 25 31 25 35 0 16 103 123 117 123 15 0 113 -97 113 -111 0
-4 6 -14 14 -22 8 -8 36 -47 62 -88 49 -76 67 -95 72 -79 5 13 -78 149 -135
223 -60 77 -97 100 -150 90z m79 -150 c25 -27 47 -61 101 -154 l27 -47 -78
-58 c-42 -32 -159 -138 -259 -236 -243 -237 -299 -272 -272 -173 19 68 151
310 291 535 101 160 139 187 190 133z m444 -220 c63 -31 113 -82 115 -118 1
-14 2 -33 2 -42 2 -43 -15 -80 -44 -97 -30 -18 -59 -16 -59 4 0 5 6 10 13 10
27 0 51 40 51 86 1 41 -4 50 -39 83 -36 33 -87 56 -167 75 -46 10 -32 26 23
26 34 0 68 -8 105 -27z"/>
<path d="M1263 636 l-28 -24 -5 -162 c-3 -89 -2 -164 2 -166 4 -3 25 18 48 47
39 50 40 52 40 133 0 50 5 87 12 94 16 16 150 16 166 0 7 -7 12 -29 12 -50 l0
-37 -77 -3 -78 -3 0 -45 0 -45 79 -3 79 -3 43 -47 43 -47 1 163 0 164 -29 29
c-29 29 -30 29 -155 29 -118 0 -127 -1 -153 -24z m285 -30 c20 -20 23 -33 26
-129 3 -116 1 -119 -50 -92 -16 8 -54 15 -86 15 -51 0 -56 2 -51 20 4 17 14
20 56 20 66 0 87 19 87 76 0 55 -24 72 -106 80 -48 4 -65 1 -91 -15 -32 -20
-33 -23 -33 -89 0 -79 -25 -148 -42 -117 -6 9 -8 61 -6 115 5 137 24 152 188
143 71 -3 89 -8 108 -27z"/>
<path d="M1646 644 c-9 -8 -16 -29 -16 -45 l0 -29 154 0 c127 0 157 -3 170
-16 19 -19 21 -58 3 -73 -8 -6 -75 -12 -168 -13 l-154 -3 -3 -79 c-4 -113 -1
-117 58 -62 l49 46 136 0 c191 0 215 16 215 146 0 70 -17 117 -49 134 -12 6
-95 10 -200 10 -150 0 -182 -3 -195 -16z m390 -36 c16 -16 23 -36 24 -68 3
-77 1 -88 -23 -113 -21 -24 -29 -25 -170 -29 -88 -2 -151 -8 -155 -15 -4 -5
-17 -15 -29 -22 -22 -11 -23 -10 -23 28 0 22 5 41 13 44 6 2 71 5 142 6 l130
1 28 30 c33 37 34 59 2 94 -24 25 -27 26 -150 26 -69 0 -128 0 -131 -1 -4 0
-11 5 -15 13 -19 30 20 37 179 34 147 -4 156 -5 178 -28z"/>
<path d="M2100 623 c11 -21 20 -42 20 -48 0 -6 33 -9 89 -7 111 5 133 -5 129
-56 l-3 -37 -107 -3 c-68 -2 -108 -7 -108 -13 0 -35 -37 -83 -77 -101 -33 -14
-43 -24 -43 -42 0 -12 3 -25 6 -29 3 -3 43 14 89 38 82 42 86 43 194 47 97 3
113 6 132 25 48 47 44 198 -6 240 -25 22 -34 23 -181 23 l-154 0 20 -37z m308
-18 c19 -19 27 -39 30 -80 4 -53 3 -55 -36 -93 l-41 -40 -116 -1 c-98 -2 -115
0 -115 14 0 8 6 15 14 15 8 0 16 5 18 11 2 6 26 11 53 10 97 0 126 8 139 41
31 73 -6 108 -118 110 -42 1 -76 6 -76 10 0 4 -8 8 -17 8 -17 1 -17 1 -1 14
13 9 48 12 129 9 104 -3 113 -5 137 -28z"/>
<path d="M2475 638 c-3 -13 -4 -95 -3 -183 l3 -160 50 0 50 0 0 180 0 180 -47
3 c-42 3 -48 1 -53 -20z m73 -157 c3 -151 -4 -179 -34 -149 -13 13 -18 44 -22
142 -5 131 2 160 37 154 14 -3 16 -25 19 -147z"/>
<path d="M2653 648 c-38 -18 -53 -67 -53 -171 0 -178 12 -187 235 -187 127 0
155 3 155 14 0 55 -43 76 -158 76 -55 0 -92 4 -100 12 -16 16 -16 150 0 166 8
8 47 12 109 12 87 0 101 2 123 23 13 12 27 32 31 45 l6 22 -163 -1 c-93 0
-172 -5 -185 -11z m277 -30 c0 -12 -8 -18 -22 -19 -13 -1 -56 -3 -97 -5 -104
-5 -121 -22 -121 -120 0 -91 16 -114 81 -118 25 -2 51 -6 57 -10 7 -4 12 -3
12 2 0 9 88 -3 98 -13 14 -14 -20 -19 -132 -18 -120 0 -124 1 -152 27 -27 25
-29 31 -32 121 -4 91 -3 96 23 127 30 36 64 43 212 43 63 0 73 -2 73 -17z"/>
<path d="M20 42 c0 -13 23 -32 39 -32 11 0 10 4 -4 20 -19 21 -35 26 -35 12z"/>
</g>
</svg>
