<svg fill="none" height="158" viewBox="0 0 955 158" width="955" xmlns="http://www.w3.org/2000/svg" xmlns:xlink="http://www.w3.org/1999/xlink"><linearGradient id="a"><stop offset="0" stop-color="#f72382"/><stop offset="1" stop-color="#42baf9"/></linearGradient><linearGradient id="b" gradientUnits="userSpaceOnUse" x1="22.823" x2="107.559" xlink:href="#a" y1="119.822" y2="-3.942"/><linearGradient id="c" gradientUnits="userSpaceOnUse" x1="256.239" x2="285.353" xlink:href="#a" y1="134.918" y2="-56.106"/><path d="m63.456 116.989c-9.147 0-13.721-6.361-13.721-19.082 0-8.29 2.43-16.937 7.29-25.942 7.432-13.436 16.58-20.154 27.443-20.154 2.858 0 5.074.858 6.646 2.573 1.715 1.572 2.573 3.002 2.573 4.288s-.429 2.144-1.287 2.573c-.857.429-1.715.643-2.572.643-.715-.143-1.072-.5-1.072-1.072 0-2.43-1.43-3.645-4.288-3.645-5.86 0-11.22 4.717-16.08 14.15-5.003 10.006-7.504 18.94-7.504 26.8 0 7.862 1.215 12.364 3.644 13.508 2.86 0 6.218-2.859 10.077-8.576 5.718-8.29 10.006-15.437 12.864-21.44l7.719-15.866c1-2.43 1.858-3.788 2.572-4.073.858-.43 1.644-.644 2.359-.644 1.572 0 2.644 1 3.216 3.002.715 2.001.715 4.86 0 8.576l-1.715 8.576c-.429 2.144-.929 5.146-1.501 9.005s-.858 6.932-.858 9.219c0 2.144.143 4.431.43 6.861.571 4.717 2.786 7.075 6.645 7.075 9.291 0 16.652-7.218 22.084-21.654 2.43-6.432 3.644-13.222 3.644-20.368 0-7.147-1.786-14.651-5.36-22.512-6.574-14.294-20.296-21.44-41.164-21.44-20.726 0-37.234 8.647-49.527 25.942-9.147 13.15-13.721 27.8-13.721 43.952 0 18.867 5.574 32.803 16.723 41.808 6.575 5.289 14.58 7.933 24.013 7.933 10.148 0 17.938-2.144 23.37-6.432 4.573-3.859 7.36-7.218 8.36-10.077l.644-1.93 3.43.215c-.571 2.287-1.786 4.86-3.644 7.718-1.858 2.859-4.074 5.289-6.647 7.29-2.43 2.001-6.074 3.788-10.934 5.36-4.717 1.715-10.148 2.573-16.294 2.573-20.154 0-34.447-7.647-42.88-22.941-4.574-8.29-6.861-16.509-6.861-24.656s.929-15.723 2.787-22.727c5.003-18.58 14.936-33.374 29.802-44.38 13.006-9.434 28.086-14.15 45.238-14.15 22.44 0 37.305 8.146 44.595 24.44 2.859 6.433 4.288 13.15 4.288 20.154 0 6.861-1.215 13.936-3.645 21.226-4.288 12.864-10.648 21.583-19.081 26.157-3.145 1.715-6.361 2.573-9.648 2.573-11.15 0-16.724-6.718-16.724-20.154 0-3.002.286-6.29.858-9.862-10.863 19.724-19.725 29.587-26.586 29.587z" fill="url(#b)"/><path d="m213.372 112.585h-34.846l-5.586 16.492h-23.807l33.782-93.366h26.334l33.782 93.366h-24.073zm-5.852-17.556-11.571-34.18-11.438 34.18zm72.526-27.797c2.66-4.078 5.985-7.27 9.975-9.576 3.99-2.394 8.423-3.59 13.3-3.59v24.072h-6.251c-5.675 0-9.931 1.241-12.768 3.724-2.838 2.394-4.256 6.65-4.256 12.768v34.447h-22.743v-74.214h22.743v12.37zm33.613 24.738c0-7.714 1.552-14.453 4.655-20.216 3.192-5.763 7.581-10.197 13.167-13.3 5.675-3.103 12.148-4.655 19.418-4.655 9.31 0 17.069 2.438 23.275 7.315 6.296 4.877 10.419 11.748 12.369 20.615h-24.206c-2.039-5.674-5.985-8.512-11.837-8.512-4.167 0-7.492 1.64-9.975 4.921-2.482 3.192-3.724 7.803-3.724 13.832 0 6.03 1.242 10.684 3.724 13.965 2.483 3.192 5.808 4.788 9.975 4.788 5.852 0 9.798-2.837 11.837-8.512h24.206c-1.95 8.689-6.073 15.517-12.369 20.482-6.295 4.965-14.053 7.448-23.275 7.448-7.27 0-13.743-1.552-19.418-4.655-5.586-3.103-9.975-7.537-13.167-13.3-3.103-5.763-4.655-12.502-4.655-20.216zm194.775-56.259v93.366h-22.743v-55.993l-20.881 55.993h-18.354l-21.014-56.126v56.126h-22.743v-93.366h26.866l26.201 64.638 25.935-64.638zm31.783 11.438c-3.99 0-7.271-1.153-9.842-3.458-2.483-2.394-3.724-5.32-3.724-8.778 0-3.546 1.241-6.472 3.724-8.778 2.571-2.394 5.852-3.59 9.842-3.59 3.901 0 7.093 1.196 9.576 3.59 2.571 2.305 3.857 5.231 3.857 8.778 0 3.458-1.286 6.384-3.857 8.778-2.483 2.305-5.675 3.458-9.576 3.458zm11.305 7.714v74.214h-22.743v-74.214zm65.691-.798c8.689 0 15.605 2.838 20.748 8.512 5.231 5.586 7.847 13.3 7.847 23.142v43.358h-22.61v-40.299c0-4.965-1.286-8.822-3.857-11.57-2.571-2.75-6.029-4.124-10.374-4.124s-7.803 1.374-10.374 4.123-3.857 6.606-3.857 11.571v40.299h-22.743v-74.214h22.743v9.842c2.305-3.28 5.409-5.852 9.31-7.714 3.901-1.95 8.29-2.926 13.167-2.926zm43.867 37.772c0-7.625 1.419-14.32 4.256-20.083 2.926-5.763 6.872-10.197 11.837-13.3 4.966-3.103 10.507-4.655 16.625-4.655 4.877 0 9.31 1.02 13.3 3.06 4.079 2.038 7.271 4.787 9.576 8.245v-34.447h22.743v98.42h-22.743v-10.64c-2.128 3.547-5.187 6.384-9.177 8.512-3.901 2.128-8.467 3.192-13.699 3.192-6.118 0-11.659-1.552-16.625-4.655-4.965-3.192-8.911-7.67-11.837-13.433-2.837-5.852-4.256-12.59-4.256-20.216zm55.594.133c0-5.674-1.596-10.152-4.788-13.433-3.103-3.28-6.916-4.92-11.438-4.92s-8.379 1.64-11.571 4.92c-3.103 3.192-4.655 7.625-4.655 13.3s1.552 10.197 4.655 13.566c3.192 3.281 7.049 4.921 11.571 4.921s8.335-1.64 11.438-4.921c3.192-3.281 4.788-7.758 4.788-13.433zm133.482 20.615h-34.846l-5.586 16.492h-23.807l33.782-93.366h26.334l33.782 93.366h-24.073zm-5.852-17.556-11.571-34.18-11.438 34.18zm72.526-59.318v93.366h-22.743v-93.366z" fill="url(#c)"/></svg>