<svg xmlns="http://www.w3.org/2000/svg" xmlns:xlink="http://www.w3.org/1999/xlink" width="112" zoomAndPan="magnify" viewBox="0 0 84 83.999999" height="112" preserveAspectRatio="xMidYMid meet" version="1.0"><defs><g/><clipPath id="d80e0a6ba4"><path d="M 16.128906 33.378906 L 70.441406 33.378906 L 70.441406 49.949219 L 16.128906 49.949219 Z M 16.128906 33.378906 " clip-rule="nonzero"/></clipPath><clipPath id="cbedefbdfa"><path d="M 16.144531 33.378906 L 70.128906 33.378906 L 70.128906 49.878906 L 16.144531 49.878906 Z M 16.144531 33.378906 " clip-rule="nonzero"/></clipPath></defs><g clip-path="url(#d80e0a6ba4)"><path fill="#000000" d="M 16.128906 33.378906 L 70.429688 33.378906 L 70.429688 49.949219 L 16.128906 49.949219 Z M 16.128906 33.378906 " fill-opacity="1" fill-rule="nonzero"/></g><g clip-path="url(#cbedefbdfa)"><path stroke-linecap="butt" transform="matrix(0.75, 0, 0, 0.75, 16.143052, 33.379878)" fill="none" stroke-linejoin="miter" d="M 0.00197256 -0.00129616 L 72.371763 -0.00129616 L 72.371763 22.076829 L 0.00197256 22.076829 Z M 0.00197256 -0.00129616 " stroke="#ffffff" stroke-width="2" stroke-opacity="1" stroke-miterlimit="4"/></g><g fill="#ffffff" fill-opacity="1"><g transform="translate(17.552653, 44.901655)"><g><path d="M 6.6875 -8.140625 L 8.46875 0 L 6.203125 0 L 5.90625 -1.421875 L 2.984375 -1.421875 L 2.203125 0 L -0.046875 0 L 4.375 -8.140625 Z M 3.828125 -3.03125 L 5.59375 -3.03125 L 5.140625 -5.625 L 5.125 -5.625 Z M 3.828125 -3.03125 "/></g></g></g><g fill="#ffffff" fill-opacity="1"><g transform="translate(24.836539, 44.901655)"><g><path d="M 4.765625 -8.359375 C 5.640625 -8.359375 6.457031 -8.132812 7.21875 -7.6875 L 6.125 -6.046875 C 5.738281 -6.410156 5.296875 -6.59375 4.796875 -6.59375 C 4.546875 -6.59375 4.3125 -6.515625 4.09375 -6.359375 C 3.882812 -6.210938 3.78125 -6.03125 3.78125 -5.8125 C 3.78125 -5.65625 3.851562 -5.515625 4 -5.390625 C 4.15625 -5.273438 4.4375 -5.160156 4.84375 -5.046875 C 5.382812 -4.878906 5.773438 -4.71875 6.015625 -4.5625 C 6.265625 -4.414062 6.457031 -4.226562 6.59375 -4 C 6.726562 -3.769531 6.796875 -3.488281 6.796875 -3.15625 C 6.796875 -2.664062 6.671875 -2.144531 6.421875 -1.59375 C 6.171875 -1.050781 5.757812 -0.617188 5.1875 -0.296875 C 4.613281 0.0234375 3.9375 0.195312 3.15625 0.21875 C 2.144531 0.21875 1.238281 -0.09375 0.4375 -0.71875 L 1.609375 -2.421875 C 2.171875 -1.859375 2.75 -1.578125 3.34375 -1.578125 C 3.675781 -1.578125 3.957031 -1.660156 4.1875 -1.828125 C 4.414062 -2.003906 4.53125 -2.226562 4.53125 -2.5 C 4.53125 -2.84375 4.179688 -3.109375 3.484375 -3.296875 C 2.648438 -3.523438 2.109375 -3.769531 1.859375 -4.03125 C 1.617188 -4.289062 1.5 -4.640625 1.5 -5.078125 C 1.5 -6.003906 1.8125 -6.78125 2.4375 -7.40625 C 3.070312 -8.039062 3.847656 -8.359375 4.765625 -8.359375 Z M 4.765625 -8.359375 "/></g></g></g><g fill="#ffffff" fill-opacity="1"><g transform="translate(30.3291, 44.901655)"><g><path d="M 6.96875 -8.140625 L 6.6875 -6.34375 L 4.9375 -6.34375 L 3.9375 0 L 1.8125 0 L 2.8125 -6.34375 L 1.0625 -6.34375 L 1.34375 -8.140625 Z M 6.96875 -8.140625 "/></g></g></g><g fill="#ffffff" fill-opacity="1"><g transform="translate(34.936791, 44.901655)"><g><path d="M 5.1875 -8.140625 C 5.925781 -8.140625 6.515625 -7.96875 6.953125 -7.625 C 7.398438 -7.28125 7.625 -6.78125 7.625 -6.125 C 7.625 -5.4375 7.414062 -4.828125 7 -4.296875 C 6.59375 -3.773438 6.070312 -3.457031 5.4375 -3.34375 L 7.453125 0 L 4.828125 0 L 3.328125 -3.125 L 3.296875 -3.125 L 2.8125 0 L 0.6875 0 L 1.96875 -8.140625 Z M 3.515625 -4.484375 L 3.8125 -4.484375 C 4.3125 -4.484375 4.695312 -4.585938 4.96875 -4.796875 C 5.238281 -5.015625 5.375 -5.320312 5.375 -5.71875 C 5.375 -6.25 4.9375 -6.515625 4.0625 -6.515625 L 3.84375 -6.515625 Z M 3.515625 -4.484375 "/></g></g></g><g fill="#ffffff" fill-opacity="1"><g transform="translate(41.130775, 44.901655)"><g><path d="M 10.015625 -4.859375 C 10.015625 -4.078125 9.785156 -3.265625 9.328125 -2.421875 C 8.867188 -1.578125 8.226562 -0.914062 7.40625 -0.4375 C 6.582031 0.03125 5.691406 0.265625 4.734375 0.265625 C 3.585938 0.265625 2.660156 -0.0664062 1.953125 -0.734375 C 1.242188 -1.410156 0.890625 -2.300781 0.890625 -3.40625 C 0.890625 -4.3125 1.128906 -5.144531 1.609375 -5.90625 C 2.085938 -6.675781 2.738281 -7.285156 3.5625 -7.734375 C 4.382812 -8.179688 5.234375 -8.40625 6.109375 -8.40625 C 6.804688 -8.40625 7.457031 -8.253906 8.0625 -7.953125 C 8.675781 -7.648438 9.15625 -7.226562 9.5 -6.6875 C 9.84375 -6.15625 10.015625 -5.546875 10.015625 -4.859375 Z M 5.0625 -1.78125 C 5.550781 -1.78125 6.003906 -1.914062 6.421875 -2.1875 C 6.835938 -2.457031 7.164062 -2.804688 7.40625 -3.234375 C 7.65625 -3.660156 7.78125 -4.082031 7.78125 -4.5 C 7.78125 -5.019531 7.582031 -5.457031 7.1875 -5.8125 C 6.789062 -6.175781 6.320312 -6.359375 5.78125 -6.359375 C 5.351562 -6.359375 4.929688 -6.242188 4.515625 -6.015625 C 4.097656 -5.785156 3.757812 -5.472656 3.5 -5.078125 C 3.25 -4.691406 3.125 -4.265625 3.125 -3.796875 C 3.125 -3.210938 3.300781 -2.726562 3.65625 -2.34375 C 4.019531 -1.96875 4.488281 -1.78125 5.0625 -1.78125 Z M 5.0625 -1.78125 "/></g></g></g><path stroke-linecap="butt" transform="matrix(0.202353, 0, 0, 0.202353, 47.875611, 34.344925)" fill="none" stroke-linejoin="miter" d="M 34.821577 12.792813 L 43.624247 53.003253 L 32.466477 53.003253 L 30.999366 46.015169 L 16.598507 46.015169 L 12.699079 53.003253 L 1.599222 53.003253 L 23.412854 12.792813 Z M 20.748889 38.023272 L 29.435733 38.023272 L 27.196458 25.224654 L 27.099937 25.224654 Z M 63.835639 12.792813 C 67.715763 12.792813 70.765811 13.661498 73.005086 15.418171 C 75.244362 17.15554 76.363999 19.703681 76.363999 23.081899 C 76.363999 25.745864 75.765572 28.487046 74.607326 31.286141 C 73.429776 34.104539 71.537975 36.22799 68.893313 37.656494 C 66.267955 39.065693 63.314428 39.741336 60.052035 39.66412 L 53.816811 39.66412 L 51.674056 53.003253 L 41.211234 53.003253 L 47.581587 12.792813 Z M 56.693122 21.209401 L 55.12949 31.247533 L 57.696935 31.247533 C 60.650462 31.247533 62.658089 30.707018 63.70051 29.645292 C 64.742932 28.583567 65.264142 26.981327 65.264142 24.838572 C 65.264142 23.525893 64.839452 22.599296 63.970768 22.058781 C 63.102083 21.498962 61.712188 21.209401 59.781778 21.209401 Z M 100.05013 12.792813 L 98.660234 21.653395 L 86.228394 21.653395 L 85.166669 28.371222 L 96.94217 28.371222 L 95.571579 37.212499 L 83.776774 37.212499 L 82.657136 44.142671 L 95.088976 44.142671 L 93.699081 53.003253 L 70.823723 53.003253 L 77.174772 12.792813 Z M 100.05013 12.792813 " stroke="#000000" stroke-width="5.399997" stroke-opacity="1" stroke-miterlimit="4"/><g fill="#ffffff" fill-opacity="1"><g transform="translate(48.242376, 45.069654)"><g><path d="M 6.6875 -8.140625 L 8.46875 0 L 6.203125 0 L 5.90625 -1.421875 L 2.984375 -1.421875 L 2.203125 0 L -0.046875 0 L 4.375 -8.140625 Z M 3.828125 -3.03125 L 5.59375 -3.03125 L 5.140625 -5.625 L 5.125 -5.625 Z M 3.828125 -3.03125 "/></g></g></g><g fill="#ffffff" fill-opacity="1"><g transform="translate(55.526263, 45.069654)"><g><path d="M 5.265625 -8.140625 C 6.054688 -8.140625 6.675781 -7.960938 7.125 -7.609375 C 7.582031 -7.253906 7.8125 -6.738281 7.8125 -6.0625 C 7.8125 -5.519531 7.691406 -4.960938 7.453125 -4.390625 C 7.210938 -3.828125 6.828125 -3.398438 6.296875 -3.109375 C 5.765625 -2.816406 5.164062 -2.679688 4.5 -2.703125 L 3.234375 -2.703125 L 2.8125 0 L 0.6875 0 L 1.96875 -8.140625 Z M 3.828125 -6.4375 L 3.515625 -4.40625 L 4.03125 -4.40625 C 4.625 -4.40625 5.023438 -4.507812 5.234375 -4.71875 C 5.453125 -4.9375 5.5625 -5.265625 5.5625 -5.703125 C 5.5625 -5.960938 5.472656 -6.148438 5.296875 -6.265625 C 5.117188 -6.378906 4.835938 -6.4375 4.453125 -6.4375 Z M 3.828125 -6.4375 "/></g></g></g><g fill="#ffffff" fill-opacity="1"><g transform="translate(61.515216, 45.069654)"><g><path d="M 6.609375 -8.140625 L 6.328125 -6.34375 L 3.8125 -6.34375 L 3.59375 -4.984375 L 5.984375 -4.984375 L 5.703125 -3.203125 L 3.3125 -3.203125 L 3.09375 -1.796875 L 5.609375 -1.796875 L 5.328125 0 L 0.6875 0 L 1.96875 -8.140625 Z M 6.609375 -8.140625 "/></g></g></g></svg>