<svg width="34" height="39" viewBox="0 0 34 39" fill="none" xmlns="http://www.w3.org/2000/svg">
<g id="Vector">
<path d="M7.33838 2.06179C8.02283 0.872552 9.7247 0.833204 10.4634 1.98954L17.2827 12.6645C18.0512 13.8676 17.2058 15.448 15.7785 15.4764L2.66515 15.7374C1.24306 15.7657 0.33484 14.2306 1.04435 12.9978L7.33838 2.06179Z" fill="#EE4817"/>
<path d="M19.2556 38.046C18.5397 38.9546 17.1706 38.9784 16.4236 38.0951L1.75986 20.7539C0.764186 19.5764 1.58388 17.771 3.12568 17.7456L31.8231 17.2731C33.3634 17.2477 34.2426 19.0221 33.2892 20.2322L19.2556 38.046Z" fill="url(#paint0_radial_1078_6)"/>
<path d="M22.7509 1.92056C23.4345 0.693339 25.1894 0.663779 25.914 1.86728L32.331 12.5251C33.0584 13.7332 32.2019 15.2752 30.7919 15.296L18.3349 15.4799C16.9283 15.5007 16.0263 13.9913 16.711 12.7623L22.7509 1.92056Z" fill="#4AD5F4"/>
<path d="M24.7807 4.72005C25.4695 3.51794 27.1929 3.48896 27.9217 4.66724L32.6701 12.3446C33.417 13.5522 32.5621 15.1131 31.1423 15.1341L21.9173 15.2703C20.5008 15.2912 19.5999 13.7628 20.3041 12.5336L24.7807 4.72005Z" fill="#D05EBC"/>
</g>
<defs>
<radialGradient id="paint0_radial_1078_6" cx="0" cy="0" r="1" gradientUnits="userSpaceOnUse" gradientTransform="translate(14.908 -0.756333) rotate(82.6186) scale(31.6324 28.7293)">
<stop stop-color="#CD095B"/>
<stop offset="0.519986" stop-color="#EA3581"/>
</radialGradient>
</defs>
</svg>
