<svg xmlns="http://www.w3.org/2000/svg" width="112" height="112" fill="none" viewBox="0 0 112 112"><path fill="url(#a)" fill-rule="evenodd" d="M16 99.126V21.371c3.096 6.13 19.785 10.813 39.908 10.813S92.72 27.5 95.816 21.37v77.755c0 7.11-17.867 12.874-39.908 12.874C33.868 112 16 106.236 16 99.126Z" clip-rule="evenodd"/><path fill="url(#b)" fill-rule="evenodd" d="M55.908 49.82c-13.2 9.012-33.214 8.369-33.729-.128v46.227h.004c.27 4.77 15.265 8.614 33.725 8.614s33.456-3.844 33.725-8.614h.004V47.89c-8.379-10.316-24.203-4.572-33.729 1.932Z" clip-rule="evenodd"/><path fill="url(#c)" fill-opacity=".2" fill-rule="evenodd" d="M55.908 49.82c-13.2 9.012-33.214 8.369-33.729-.128v46.227h.004c.27 4.77 15.265 8.614 33.725 8.614s33.456-3.844 33.725-8.614h.004V47.89c-8.379-10.316-24.203-4.572-33.729 1.932Z" clip-rule="evenodd"/><ellipse cx="55.908" cy="95.789" fill="url(#d)" fill-opacity=".1" rx="33.729" ry="8.745"/><path fill="url(#e)" d="M55.908 49.82s-8.368 6.432-20.34 6.566c-7.724.087-13.517-2.188-13.389-7.209 0-4.764 7.34-6.694 12.23-6.566 9.784.258 21.5 7.21 21.5 7.21Z"/><path fill="url(#f)" d="M55.908 49.82s8.368 5.144 20.34 5.279c7.724.087 13.517-2.189 13.389-7.21 0 0-3.862-5.664-12.359-5.664-10.942 0-21.37 7.596-21.37 7.596Z"/><path fill="#fff" fill-opacity=".9" d="m52.655 93.05-1.707-5.68c-2.867-.125-5.73-.36-8.58-.705-.571 1.801-1.146 3.597-1.723 5.387a109.664 109.664 0 0 1-5.335-.872c2.788-7.315 5.541-14.87 8.262-22.44 2.032.217 4.07.38 6.111.488 2.815 8.078 5.564 15.971 8.377 23.846-1.802.035-3.604.027-5.405-.024Zm-2.897-9.935-1.709-5.593a66.052 66.052 0 0 0-.435-1.434c-.173-.594-.35-1.193-.534-1.8a45.138 45.138 0 0 1-.422-1.597c-.106.432-.255.969-.447 1.609a142.514 142.514 0 0 1-.897 3.002c-.56 1.776-1.123 3.549-1.686 5.315 2.038.222 4.082.388 6.13.498Zm26.603 8.072a110.944 110.944 0 0 1-17.492 1.868l-.004-3.245a682.38 682.38 0 0 0 11.29-17.077 114.79 114.79 0 0 1-10.984.843l.005-4.133c5.66-.161 11.307-.737 16.882-1.728-.008 1.074-.014 2.148-.02 3.222A750.146 750.146 0 0 1 64.82 88.603c3.861-.31 7.707-.82 11.516-1.53.007 1.371.015 2.743.025 4.114Z"/><path fill="url(#g)" d="M22.18 32.184c4.119 11.715 65.655 10.685 67.457 0V47.89c-7.982-9.913-24.023-4.892-33.729 1.93-13.002 9.14-33.986 8.626-33.729-.643V32.184Z"/><path fill="url(#h)" fill-rule="evenodd" d="M89.637 32.18v-7.463H73.533c-5.13-.816-11.165-1.287-17.625-1.287-6.46 0-12.496.47-17.624 1.287H22.179v7.724h.016c.544 4.706 15.43 8.478 33.713 8.478 18.284 0 33.17-3.772 33.713-8.478h.016v-.26Z" clip-rule="evenodd"/><path fill="url(#i)" fill-rule="evenodd" d="M55.908 34.244c22.04 0 39.908-5.764 39.908-12.874v-8.496H85.89c-7.314-2.684-18.035-4.377-29.982-4.377S33.24 10.19 25.926 12.874H16v8.496c0 7.11 17.867 12.874 39.908 12.874Z" clip-rule="evenodd"/><ellipse cx="55.908" cy="12.874" fill="#212121" rx="39.908" ry="12.874"/><path fill="#9C711E" d="M42.262.772C46.164.32 48.712.155 53.848.015l25.49 23.286c-4.676 1.074-7.368 1.51-12.359 1.931L42.262.772Z"/><path fill="#CCA725" d="M66.98 25.232c4.941-.456 7.64-.896 12.358-1.93v36.56c-2.832-.386-3.855-.689-6.18-1.287-1.1.733-3.218 1.93-6.179 3.218v-36.56Z"/><path fill="#fff" d="M73.16 39.482c-1.118.169-1.943.54-2.5 1.183-.553.64-.833 1.544-.827 2.725.019 3.987.012 7.976-.022 11.966.471-.03.942-.062 1.412-.102.025-1.286.046-2.572.06-3.857.444.42 1.215.599 2.22.42a4.457 4.457 0 0 0 2.764-1.61c.625-.783.987-1.792 1.01-2.993.028-1.411-.807-2.033-2.252-2.172.905-.734 1.401-1.834 1.43-3.258.017-.898-.204-1.53-.64-1.914-.437-.385-1.096-.527-2.007-.462-.203.015-.42.04-.648.074Zm.144 1.148c.173-.027.333-.042.48-.043.862-.006 1.281.443 1.253 1.423-.034 1.141-.497 2.004-1.32 2.505-.37.231-.83.386-1.398.457l-.003 1.325a10.06 10.06 0 0 1 1.381-.159c1.29-.02 2.03.387 2.017 1.529-.018 1.559-.757 2.623-2.045 2.895a2.738 2.738 0 0 1-.112.023c-.925.167-1.696-.215-2.256-1.058.016-2.071.017-4.142.004-6.212-.011-1.63.66-2.475 2-2.685Z" opacity=".9"/><defs><linearGradient id="a" x1="16" x2="95.816" y1="69.26" y2="69.26" gradientUnits="userSpaceOnUse"><stop stop-color="#A3B5BD" stop-opacity=".9"/><stop offset=".06" stop-color="#C3D7E0" stop-opacity=".9"/><stop offset=".18" stop-color="#C3D7E0" stop-opacity=".9"/><stop offset="1" stop-color="#EDF5F9" stop-opacity=".9"/></linearGradient><linearGradient id="b" x1="22.179" x2="89.38" y1="74.391" y2="74.391" gradientUnits="userSpaceOnUse"><stop offset=".08" stop-color="#016FBA"/><stop offset=".118" stop-color="#017ACC"/><stop offset=".911" stop-color="#017ACC"/><stop offset="1" stop-color="#016FBA"/></linearGradient><linearGradient id="c" x1="55.908" x2="55.908" y1="42.225" y2="65.655" gradientUnits="userSpaceOnUse"><stop stop-color="#035"/><stop offset="1" stop-opacity="0"/></linearGradient><linearGradient id="e" x1="22.179" x2="89.637" y1="48.21" y2="48.21" gradientUnits="userSpaceOnUse"><stop offset=".021" stop-color="#016FBA"/><stop offset=".123" stop-color="#017ACC"/><stop offset="1" stop-color="#016FBA"/></linearGradient><linearGradient id="f" x1="72.773" x2="72.773" y1="42.225" y2="55.101" gradientUnits="userSpaceOnUse"><stop stop-color="#fff" stop-opacity=".11"/><stop offset="1" stop-color="#fff" stop-opacity="0"/></linearGradient><linearGradient id="g" x1="22.179" x2="89.637" y1="44.285" y2="44.285" gradientUnits="userSpaceOnUse"><stop offset=".08" stop-opacity=".05"/><stop offset=".115" stop-opacity="0"/><stop offset=".901" stop-opacity="0"/><stop offset=".917" stop-opacity=".05"/></linearGradient><linearGradient id="h" x1="22.179" x2="89.38" y1="53.953" y2="53.953" gradientUnits="userSpaceOnUse"><stop offset=".08" stop-color="#212121"/><stop offset=".119" stop-color="#343434"/><stop offset=".911" stop-color="#343434"/><stop offset="1" stop-color="#212121"/></linearGradient><linearGradient id="i" x1="16" x2="95.816" y1="21.37" y2="21.37" gradientUnits="userSpaceOnUse"><stop offset=".078" stop-color="#212121"/><stop offset=".178" stop-color="#424242"/><stop offset=".91" stop-color="#424242"/><stop offset="1" stop-color="#212121"/></linearGradient><radialGradient id="d" cx="0" cy="0" r="1" gradientTransform="matrix(0 8.11035 -29.0943 0 51.274 96.423)" gradientUnits="userSpaceOnUse"><stop offset=".632" stop-color="#016FBA"/><stop offset=".885" stop-opacity=".4"/><stop offset="1" stop-opacity=".5"/></radialGradient></defs></svg>