<svg width="619" height="144" viewBox="0 0 619 144" fill="none" xmlns="http://www.w3.org/2000/svg">
<circle cx="72" cy="72" r="72" fill="#F7931A"/>
<path d="M48.645 111.668L51.912 98.541L59.773 100.65C61.931 101.234 64.023 101.775 66.071 102.284L74.015 104.077L70.745 117.179L62.845 115.21L66.071 102.284C64.023 101.775 61.931 101.234 59.773 100.65L56.536 113.637L48.645 111.668Z" fill="url(#paint0_linear_5_46)"/>
<path d="M92.108 31.511L88.873 44.489L81.058 42.178C78.979 41.66 76.848 41.172 74.727 40.689L66.765 38.976L70.004 26L77.898 27.969L74.727 40.689C76.848 41.172 78.979 41.66 81.058 42.178L84.209 29.542L92.108 31.511Z" fill="#00ACE5"/>
<path fill-rule="evenodd" clip-rule="evenodd" d="M104.711 62.6563C106.144 53.0743 98.848 47.9253 88.873 44.4893L81.058 42.1783C78.979 41.6603 76.848 41.1723 74.727 40.6893L66.765 38.9763C61.4329 37.7604 56.1395 36.3549 50.834 35.0303L48.732 43.4673C48.732 43.4673 54.593 44.8103 54.469 44.8943C57.669 45.6933 58.246 47.8103 58.15 49.4883L54.465 64.2733L54.452 64.3303L53.1605 69.5078C53.1605 69.5078 59 71.9466 69 74.2543C79 76.562 86.5633 76.2145 94.623 74.2543C99.784 73.0643 103.674 69.6683 104.711 62.6563ZM68.667 65.7923C73.127 66.9043 86.876 71.4393 89.102 62.5153C91.423 53.2073 77.058 51.1323 72.599 50.0203L68.667 65.7923Z" fill="#00ACE5"/>
<path fill-rule="evenodd" clip-rule="evenodd" d="M53.786 67L49.286 85.04C48.894 86.012 47.901 87.471 45.665 86.917C45.744 87.031 39.92 85.484 39.92 85.484L36 94.525L46.28 97.088C48.191 97.567 50.068 98.067 51.912 98.541L59.773 100.65C61.931 101.234 64.023 101.775 66.071 102.284L74.015 104.077C87.488 106.625 97.619 105.597 101.881 93.414C105.318 83.604 101.711 77.945 94.623 74.254C85 73 66.682 69 53.786 67ZM66.682 73.754L62.344 91.143C62.7861 91.2528 63.3042 91.3897 63.8841 91.5429C70.3319 93.2464 84.4197 96.9684 86.662 87.967C88.9562 78.7616 75.2847 75.6963 68.6189 74.2017C67.8755 74.0351 67.2193 73.8879 66.682 73.754Z" fill="url(#paint1_linear_5_46)"/>
<path fill-rule="evenodd" clip-rule="evenodd" d="M603.172 127.4C596.545 127.4 591.318 126.56 587.492 124.88C583.758 123.107 581.052 120.727 579.372 117.74C577.785 114.753 576.992 111.347 576.992 107.52C577.085 103.6 577.645 99.4468 578.672 95.0601L596.452 20.7201L618.152 17.3601L598.692 98.0001C598.318 99.6801 598.085 101.22 597.992 102.62C597.992 104.02 598.272 105.28 598.832 106.4C599.392 107.427 600.325 108.267 601.632 108.92C603.032 109.573 604.945 109.993 607.372 110.18L603.172 127.4ZM559.367 94.2202C558.06 99.5402 557.687 104.907 558.247 110.32C558.807 115.64 559.88 120.4 561.467 124.6L542.847 127.26C542.287 126.14 541.774 125.067 541.307 124.04C540.84 123.014 540.374 121.847 539.907 120.54C537.294 122.687 534.4 124.46 531.227 125.86C528.054 127.26 524.507 127.96 520.587 127.96C515.92 127.96 511.907 127.167 508.547 125.58C505.28 123.9 502.574 121.707 500.427 119C498.374 116.2 496.88 112.98 495.947 109.34C495.014 105.607 494.547 101.64 494.547 97.4402C494.547 91.0002 495.667 84.9335 497.907 79.2402C500.24 73.5468 503.414 68.6002 507.427 64.4002C511.534 60.1068 516.34 56.7468 521.847 54.3202C527.354 51.8935 533.327 50.6802 539.767 50.6802C540.607 50.6802 542.054 50.7268 544.107 50.8202C546.254 50.9135 548.68 51.1469 551.387 51.5202C554.094 51.8002 556.94 52.3135 559.927 53.0602C562.914 53.8069 565.76 54.8335 568.467 56.1402L559.367 94.2202ZM544.807 68.4602C543.594 68.2735 542.474 68.1335 541.447 68.0402C540.514 67.9468 539.347 67.9002 537.947 67.9002C534.774 67.9002 531.787 68.6935 528.987 70.2802C526.28 71.8668 523.9 73.9668 521.847 76.5802C519.794 79.1002 518.16 82.0402 516.947 85.4002C515.827 88.7602 515.267 92.2602 515.267 95.9002C515.267 100.38 516.014 103.927 517.507 106.54C519 109.154 521.754 110.46 525.767 110.46C527.914 110.46 529.827 110.04 531.507 109.2C533.28 108.36 535.147 106.96 537.107 105C537.294 102.667 537.574 100.24 537.947 97.7202C538.414 95.1068 538.88 92.7268 539.347 90.5802L544.807 68.4602ZM468.8 29.8201C464.133 28.5134 458.86 27.8601 452.98 27.8601C448.967 27.8601 444.673 28.0468 440.1 28.4201C435.62 28.7934 430.86 29.4468 425.82 30.3801L403 126H424.7L432.54 93.5201H438C445.56 93.5201 452.56 92.8668 459 91.5601C465.44 90.2534 471.04 88.1068 475.8 85.1201C480.56 82.1334 484.293 78.2134 487 73.3601C489.707 68.5068 491.06 62.5801 491.06 55.5801C491.06 51.2868 490.173 47.4134 488.4 43.9601C486.627 40.5068 484.107 37.6134 480.84 35.2801C477.573 32.8534 473.56 31.0334 468.8 29.8201ZM447.1 46.3401C448.22 46.2468 449.573 46.2001 451.16 46.2001C456.76 46.2001 461.053 47.0868 464.04 48.8601C467.12 50.6334 468.66 53.6201 468.66 57.8201C468.66 60.9934 468.007 63.7001 466.7 65.9401C465.487 68.0868 463.713 69.8601 461.38 71.2601C459.14 72.6601 456.387 73.6868 453.12 74.3401C449.947 74.9001 446.4 75.1801 442.48 75.1801H437.02L443.74 46.6201L447.1 46.3401Z" fill="url(#paint2_linear_5_46)"/>
<path d="M382.477 126H361.757L379.257 52.3601H400.117L382.477 126ZM392.557 43.4001C389.664 43.4001 387.05 42.5601 384.717 40.8801C382.384 39.1068 381.217 36.4468 381.217 32.9001C381.217 30.9401 381.59 29.1201 382.337 27.4401C383.177 25.6668 384.25 24.1734 385.557 22.9601C386.864 21.6534 388.357 20.6268 390.037 19.8801C391.81 19.1334 393.677 18.7601 395.637 18.7601C398.53 18.7601 401.144 19.6468 403.477 21.4201C405.81 23.1001 406.977 25.7134 406.977 29.2601C406.977 31.2201 406.557 33.0868 405.717 34.8601C404.97 36.5401 403.944 38.0334 402.637 39.3401C401.33 40.5534 399.79 41.5334 398.017 42.2801C396.337 43.0268 394.517 43.4001 392.557 43.4001ZM360.357 17.3601C364.557 17.3601 367.964 17.6868 370.577 18.3401C373.19 18.9934 375.29 19.6934 376.877 20.4401L369.457 36.6801C367.777 36.2134 366.144 35.8401 364.557 35.5601C363.064 35.1868 361.384 35.0001 359.517 35.0001C354.384 35.0001 350.557 36.3068 348.037 38.9201C345.61 41.5334 343.93 44.8001 342.997 48.7201L342.157 52.3601H366.797L362.597 69.4401H338.097L329.557 105.14C327.646 113.176 325.634 120.13 323.52 126H302.626C303.375 124.053 304.045 122.093 304.637 120.12C305.85 116.293 306.83 112.747 307.577 109.48L322.137 48.4401C324.47 38.5468 328.67 30.8934 334.737 25.4801C340.804 20.0668 349.344 17.3601 360.357 17.3601Z" fill="#F7931A"/>
<path d="M284.168 126H263.448L280.948 52.36H301.808L284.168 126ZM294.248 43.4C291.355 43.4 288.742 42.56 286.408 40.88C284.075 39.1067 282.908 36.4467 282.908 32.9C282.908 30.94 283.282 29.12 284.028 27.44C284.868 25.6667 285.942 24.1733 287.248 22.96C288.555 21.6533 290.048 20.6267 291.728 19.88C293.502 19.1333 295.368 18.76 297.328 18.76C300.222 18.76 302.835 19.6467 305.168 21.42C307.502 23.1 308.668 25.7133 308.668 29.26C308.668 31.22 308.248 33.0867 307.408 34.86C306.662 36.54 305.635 38.0333 304.328 39.34C303.022 40.5533 301.482 41.5333 299.708 42.28C298.028 43.0267 296.208 43.4 294.248 43.4Z" fill="#F7931A"/>
<path d="M205.18 127.26C199.58 127.26 193.84 127.027 187.96 126.56C182.08 126.093 176.76 125.347 172 124.32L194.4 30.5201C199.72 29.4934 205.273 28.7934 211.06 28.4201C216.94 28.0468 222.307 27.8601 227.16 27.8601C232.76 27.8601 237.567 28.4668 241.58 29.6801C245.687 30.8001 249 32.3401 251.52 34.3001C254.133 36.2601 256.047 38.5934 257.26 41.3001C258.567 43.9134 259.22 46.7134 259.22 49.7001C259.22 51.7534 258.987 53.9001 258.52 56.1401C258.147 58.3801 257.307 60.6201 256 62.8601C254.787 65.0068 253.06 67.0601 250.82 69.0201C248.673 70.9801 245.827 72.7534 242.28 74.3401C246.48 76.2068 249.56 78.7734 251.52 82.0401C253.48 85.2134 254.46 88.7601 254.46 92.6801C254.46 97.1601 253.573 101.5 251.8 105.7C250.027 109.807 247.18 113.493 243.26 116.76C239.34 119.933 234.253 122.5 228 124.46C221.747 126.327 214.14 127.26 205.18 127.26ZM203.22 83.5801L197.2 108.78C198.693 109.06 200.56 109.293 202.8 109.48C205.133 109.573 207.28 109.62 209.24 109.62C212.04 109.62 214.793 109.433 217.5 109.06C220.3 108.593 222.773 107.8 224.92 106.68C227.16 105.56 228.98 104.02 230.38 102.06C231.78 100.1 232.48 97.5801 232.48 94.5001C232.48 93.1935 232.2 91.8868 231.64 90.5801C231.173 89.2734 230.38 88.1068 229.26 87.0801C228.14 86.0534 226.647 85.2134 224.78 84.5601C223.007 83.9068 220.86 83.5801 218.34 83.5801H203.22ZM207.28 67.2001H221C226.6 67.2001 230.753 65.9868 233.46 63.5601C236.26 61.1334 237.66 58.2401 237.66 54.8801C237.66 53.1068 237.24 51.6134 236.4 50.4001C235.653 49.0934 234.627 48.0668 233.32 47.3201C232.013 46.5734 230.52 46.0601 228.84 45.7801C227.16 45.4068 225.433 45.2201 223.66 45.2201C221.7 45.2201 219.6 45.3134 217.36 45.5001C215.12 45.5934 213.44 45.7334 212.32 45.9201L207.28 67.2001Z" fill="#F7931A"/>
<defs>
<linearGradient id="paint0_linear_5_46" x1="61.33" y1="98.541" x2="61.33" y2="117.179" gradientUnits="userSpaceOnUse">
<stop stop-color="#AA00CC"/>
<stop offset="1" stop-color="#FF3398"/>
</linearGradient>
<linearGradient id="paint1_linear_5_46" x1="36" y1="70.1203" x2="104.891" y2="70.1203" gradientUnits="userSpaceOnUse">
<stop stop-color="#AA00CC"/>
<stop offset="1" stop-color="#FF3398"/>
</linearGradient>
<linearGradient id="paint2_linear_5_46" x1="392.5" y1="74.0001" x2="607.5" y2="74.0001" gradientUnits="userSpaceOnUse">
<stop stop-color="#FF0179"/>
<stop offset="1" stop-color="#00ACE5"/>
</linearGradient>
</defs>
</svg>
