<svg id="Layer_1" xmlns="http://www.w3.org/2000/svg" viewBox="0 0 411.66 588.79">
	<polygon points="14.45 308.71 44.78 324.14 45.79 224.06 13.78 240.34 14.45 308.71" style="fill: #65b741;" />
	<polygon points="399.16 308.71 368.82 324.14 367.81 224.06 399.82 240.34 399.16 308.71" style="fill: #65b741;" />
	<g>
		<path d="M388.21,177.52h-31.51c-.99-71.26-67.71-128.76-149.89-128.76S57.89,106.27,56.91,177.52h-31.51c-6.96,0-12.61,5.65-12.61,12.61v15c0,6.96,5.65,12.61,12.61,12.61h362.81c6.96,0,12.61-5.65,12.61-12.61v-15c0-6.96-5.65-12.61-12.61-12.61ZM93.89,170.23h-7.11l-3.55-6.15,3.55-6.15h7.11l3.55,6.15-3.55,6.15ZM326.83,170.23h-7.11l-3.55-6.15,3.55-6.15h7.11l3.55,6.15-3.55,6.15Z" style="fill: #65b741;" />
		<rect x="129.61" y="38.33" width="154.38" height="132.47" rx="5.29" ry="5.29" style="fill: #59893f;" />
		<rect x="162.62" y="16.9" width="88.36" height="132.47" rx="5.29" ry="5.29" style="fill: #65b741;" />
		<circle cx="206.8" cy="140.56" r="63.63" style="fill: #59893f; stroke: #fff; stroke-miterlimit: 10; stroke-width: 2px;" />
		<circle cx="206.8" cy="138.96" r="41.17" style="fill: #65b741;" />
	</g>
	<polygon points="207.13 571.9 354.14 438.43 354.14 229.22 59.46 229.22 61.69 229.22 59.46 440.31 207.13 571.9" style="fill: none; stroke: #65b741; stroke-miterlimit: 10; stroke-width: 9px;" />
	<path d="M58.3,282.49v26.64l45.12,41.97v103.58l55.96,52.06h93.5l55.73-51.85v-103.49l46.7-43.45v-25.57l-297,.1ZM259.41,407.72c-10.77,14.2-27.59,29.06-53.46,29.06s-42.43-14.86-53.6-29.06v-15.08c13,15.75,30.08,27.95,53.73,27.95s40.33-11.98,53.33-27.95v15.08Z" style="fill: #65b741;" />
	<path d="M55.99,222.06v67.87h105.7l46.28,61.46.63-.22,46.81-62.81h102.2v-66.3H55.99ZM300.38,271.95H113.22v-34.54h187.16v34.54Z" style="fill: #59893f;" />
</svg>
