<svg width="5134" height="1412" viewBox="0 0 5134 1412" fill="none" xmlns="http://www.w3.org/2000/svg">
<path d="M657.919 0.183594C657.919 0.183594 667.125 6.06861 682.769 17.1928C786.226 90.6534 1172.84 391.653 1077.37 726.783C1050.13 822.565 994.985 916.3 927.52 1003.1C881.326 1062.5 829.45 1118.6 776.578 1169.85C719.167 1225.82 660.631 1276.13 607.537 1318.67C584.698 1336.96 562.911 1353.82 542.636 1369.09C464.804 1427.74 357.011 1424.97 282.352 1362.41C282.352 1362.41 1080.81 720.455 657.919 0.183594Z" fill="url(#paint0_linear_1303_551)"/>
<path d="M129.578 1219.33C206.562 1278.99 314.484 1277.55 390.029 1216.06C414.602 1196.03 441.536 1173.36 469.744 1148.42C634.781 1003.04 844.352 781.057 899.77 553.72C954.174 330.645 800.021 130.501 658.191 0.0175785C658.173 -0.000869687 745.082 749.806 129.578 1219.33Z" fill="url(#paint1_linear_1303_551)"/>
<path d="M0 1079.05C76.9841 1138.71 184.906 1137.36 260.451 1075.78C295.281 1047.49 334.631 1013.95 375.807 976.22C534.148 831.31 718.777 624.635 770.192 413.441C807.641 259.823 746.246 116.997 658.009 0.386719C657.99 0.368271 453.326 724.219 0 1079.05Z" fill="url(#paint2_linear_1303_551)"/>
<path d="M1033.64 1362.41C958.976 1424.97 851.184 1427.74 773.351 1369.09C753.077 1353.8 731.289 1336.94 708.45 1318.67C655.375 1276.15 596.821 1225.84 539.41 1169.85C486.538 1118.6 434.661 1062.5 388.467 1003.1C320.984 916.282 265.861 822.565 238.613 726.783C143.144 391.672 529.762 90.6718 633.219 17.1928C648.863 6.06861 658.069 0.183594 658.069 0.183594C235.182 720.455 1033.64 1362.41 1033.64 1362.41Z" fill="url(#paint3_linear_1303_551)"/>
<path d="M657.811 0C515.981 130.502 361.828 330.628 416.232 553.703C471.632 781.039 681.203 1003.04 846.259 1148.4C874.466 1173.34 901.4 1196.01 925.973 1216.05C1001.52 1277.53 1109.42 1278.97 1186.42 1219.31C570.901 749.807 657.811 0 657.811 0Z" fill="url(#paint4_linear_1303_551)"/>
<path d="M657.99 0.369141C569.753 116.98 508.357 259.805 545.807 413.423C597.222 624.618 781.851 831.292 940.192 976.203C981.368 1013.93 1020.72 1047.49 1055.55 1075.77C1131.09 1137.35 1239 1138.69 1316 1079.03C862.654 724.219 657.99 0.369141 657.99 0.369141Z" fill="url(#paint5_linear_1303_551)"/>
<path d="M1926.3 699.337C1959.9 705.337 1988.4 723.037 2011.8 752.437C2035.2 781.837 2046.9 815.137 2046.9 852.337C2046.9 884.137 2038.5 912.937 2021.7 938.737C2005.5 963.937 1981.8 984.037 1950.6 999.037C1919.4 1013.44 1883.1 1020.64 1841.7 1020.64H1591.5V395.137H1830C1872.6 395.137 1909.2 402.337 1939.8 416.737C1970.4 431.137 1993.5 450.637 2009.1 475.237C2024.7 499.237 2032.5 526.237 2032.5 556.237C2032.5 592.237 2022.9 622.237 2003.7 646.237C1984.5 670.237 1958.7 687.937 1926.3 699.337ZM1694.1 657.937H1821C1854.6 657.937 1880.7 650.437 1899.3 635.437C1918.5 619.837 1928.1 597.637 1928.1 568.837C1928.1 540.637 1918.5 518.737 1899.3 503.137C1880.7 486.937 1854.6 478.837 1821 478.837H1694.1V657.937ZM1832.7 936.937C1867.5 936.937 1894.8 928.537 1914.6 911.737C1934.4 894.937 1944.3 871.537 1944.3 841.537C1944.3 810.937 1933.8 786.637 1912.8 768.637C1891.8 750.637 1863.9 741.637 1829.1 741.637H1694.1V936.937H1832.7ZM2642.59 1134.04L2532.79 1015.24C2505.79 1023.04 2476.09 1026.94 2443.69 1026.94C2385.49 1026.94 2331.79 1013.44 2282.59 986.437C2233.99 958.837 2195.29 920.737 2166.49 872.137C2138.29 822.937 2124.19 767.737 2124.19 706.537C2124.19 645.337 2138.29 590.437 2166.49 541.837C2195.29 493.237 2233.99 455.437 2282.59 428.437C2331.79 400.837 2385.49 387.037 2443.69 387.037C2502.49 387.037 2556.19 400.837 2604.79 428.437C2653.99 455.437 2692.69 493.237 2720.89 541.837C2749.09 590.437 2763.19 645.337 2763.19 706.537C2763.19 764.137 2750.59 816.337 2725.39 863.137C2700.79 909.337 2666.59 946.537 2622.79 974.737L2773.09 1134.04H2642.59ZM2229.49 706.537C2229.49 752.737 2238.49 793.537 2256.49 828.937C2275.09 863.737 2300.59 890.737 2332.99 909.937C2365.39 928.537 2402.29 937.837 2443.69 937.837C2485.09 937.837 2521.99 928.537 2554.39 909.937C2586.79 890.737 2611.99 863.737 2629.99 828.937C2648.59 793.537 2657.89 752.737 2657.89 706.537C2657.89 660.337 2648.59 619.837 2629.99 585.037C2611.99 550.237 2586.79 523.537 2554.39 504.937C2521.99 486.337 2485.09 477.037 2443.69 477.037C2402.29 477.037 2365.39 486.337 2332.99 504.937C2300.59 523.537 2275.09 550.237 2256.49 585.037C2238.49 619.837 2229.49 660.337 2229.49 706.537ZM3203.18 937.837H3414.68V1020.64H3100.58V395.137H3203.18V937.837ZM3466.28 770.437C3466.28 720.637 3476.48 676.537 3496.88 638.137C3517.88 599.737 3546.08 570.037 3581.48 549.037C3617.48 527.437 3657.08 516.637 3700.28 516.637C3739.28 516.637 3773.18 524.437 3801.98 540.037C3831.38 555.037 3854.78 573.937 3872.18 596.737V524.737H3975.68V1020.64H3872.18V946.837C3854.78 970.237 3831.08 989.737 3801.08 1005.34C3771.08 1020.94 3736.88 1028.74 3698.48 1028.74C3655.88 1028.74 3616.88 1017.94 3581.48 996.337C3546.08 974.137 3517.88 943.537 3496.88 904.537C3476.48 864.937 3466.28 820.237 3466.28 770.437ZM3872.18 772.237C3872.18 738.037 3864.98 708.337 3850.58 683.137C3836.78 657.937 3818.48 638.737 3795.68 625.537C3772.88 612.337 3748.28 605.737 3721.88 605.737C3695.48 605.737 3670.88 612.337 3648.08 625.537C3625.28 638.137 3606.68 657.037 3592.28 682.237C3578.48 706.837 3571.58 736.237 3571.58 770.437C3571.58 804.637 3578.48 834.637 3592.28 860.437C3606.68 886.237 3625.28 906.037 3648.08 919.837C3671.48 933.037 3696.08 939.637 3721.88 939.637C3748.28 939.637 3772.88 933.037 3795.68 919.837C3818.48 906.637 3836.78 887.437 3850.58 862.237C3864.98 836.437 3872.18 806.437 3872.18 772.237ZM4213.05 598.537C4230.45 574.537 4254.15 555.037 4284.15 540.037C4314.75 524.437 4348.65 516.637 4385.85 516.637C4429.65 516.637 4469.25 527.137 4504.65 548.137C4540.05 569.137 4567.95 599.137 4588.35 638.137C4608.75 676.537 4618.95 720.637 4618.95 770.437C4618.95 820.237 4608.75 864.937 4588.35 904.537C4567.95 943.537 4539.75 974.137 4503.75 996.337C4468.35 1017.94 4429.05 1028.74 4385.85 1028.74C4347.45 1028.74 4313.25 1021.24 4283.25 1006.24C4253.85 991.237 4230.45 972.037 4213.05 948.637V1020.64H4110.45V354.637H4213.05V598.537ZM4514.55 770.437C4514.55 736.237 4507.35 706.837 4492.95 682.237C4479.15 657.037 4460.55 638.137 4437.15 625.537C4414.35 612.337 4389.75 605.737 4363.35 605.737C4337.55 605.737 4312.95 612.337 4289.55 625.537C4266.75 638.737 4248.15 657.937 4233.75 683.137C4219.95 708.337 4213.05 738.037 4213.05 772.237C4213.05 806.437 4219.95 836.437 4233.75 862.237C4248.15 887.437 4266.75 906.637 4289.55 919.837C4312.95 933.037 4337.55 939.637 4363.35 939.637C4389.75 939.637 4414.35 933.037 4437.15 919.837C4460.55 906.037 4479.15 886.237 4492.95 860.437C4507.35 834.637 4514.55 804.637 4514.55 770.437ZM4900.41 1028.74C4861.41 1028.74 4826.31 1021.84 4795.11 1008.04C4764.51 993.637 4740.21 974.437 4722.21 950.437C4704.21 925.837 4694.61 898.537 4693.41 868.537H4799.61C4801.41 889.537 4811.31 907.237 4829.31 921.637C4847.91 935.437 4871.01 942.337 4898.61 942.337C4927.41 942.337 4949.61 936.937 4965.21 926.137C4981.41 914.737 4989.51 900.337 4989.51 882.937C4989.51 864.337 4980.51 850.537 4962.51 841.537C4945.11 832.537 4917.21 822.637 4878.81 811.837C4841.61 801.637 4811.31 791.737 4787.91 782.137C4764.51 772.537 4744.11 757.837 4726.71 738.037C4709.91 718.237 4701.51 692.137 4701.51 659.737C4701.51 633.337 4709.31 609.337 4724.91 587.737C4740.51 565.537 4762.71 548.137 4791.51 535.537C4820.91 522.937 4854.51 516.637 4892.31 516.637C4948.71 516.637 4994.01 531.037 5028.21 559.837C5063.01 588.037 5081.61 626.737 5084.01 675.937H4981.41C4979.61 653.737 4970.61 636.037 4954.41 622.837C4938.21 609.637 4916.31 603.037 4888.71 603.037C4861.71 603.037 4841.01 608.137 4826.61 618.337C4812.21 628.537 4805.01 642.037 4805.01 658.837C4805.01 672.037 4809.81 683.137 4819.41 692.137C4829.01 701.137 4840.71 708.337 4854.51 713.737C4868.31 718.537 4888.71 724.837 4915.71 732.637C4951.71 742.237 4981.11 752.137 5003.91 762.337C5027.31 771.937 5047.41 786.337 5064.21 805.537C5081.01 824.737 5089.71 850.237 5090.31 882.037C5090.31 910.237 5082.51 935.437 5066.91 957.637C5051.31 979.837 5029.11 997.237 5000.31 1009.84C4972.11 1022.44 4938.81 1028.74 4900.41 1028.74Z" fill="white"/>
<defs>
<linearGradient id="paint0_linear_1303_551" x1="1088.92" y1="727.201" x2="308.089" y2="697.352" gradientUnits="userSpaceOnUse">
<stop offset="0.00537635" stop-color="#007ADF"/>
<stop offset="1" stop-color="#00ECBC"/>
</linearGradient>
<linearGradient id="paint1_linear_1303_551" x1="910.941" y1="631.58" x2="129.574" y2="631.58" gradientUnits="userSpaceOnUse">
<stop offset="0.00537635" stop-color="#007ADF"/>
<stop offset="1" stop-color="#00ECBC"/>
</linearGradient>
<linearGradient id="paint2_linear_1303_551" x1="781.357" y1="561.629" x2="-0.00703251" y2="561.629" gradientUnits="userSpaceOnUse">
<stop offset="0.00537635" stop-color="#007ADF"/>
<stop offset="1" stop-color="#00ECBC"/>
</linearGradient>
<linearGradient id="paint3_linear_1303_551" x1="227.498" y1="726.894" x2="1008.33" y2="697.046" gradientUnits="userSpaceOnUse">
<stop offset="0.00537635" stop-color="#007ADF"/>
<stop offset="1" stop-color="#00ECBC"/>
</linearGradient>
<linearGradient id="paint4_linear_1303_551" x1="405.042" y1="631.581" x2="1186.41" y2="631.581" gradientUnits="userSpaceOnUse">
<stop offset="0.00537635" stop-color="#007ADF"/>
<stop offset="1" stop-color="#00ECBC"/>
</linearGradient>
<linearGradient id="paint5_linear_1303_551" x1="534.624" y1="561.63" x2="1315.99" y2="561.63" gradientUnits="userSpaceOnUse">
<stop offset="0.00537635" stop-color="#007ADF"/>
<stop offset="1" stop-color="#00ECBC"/>
</linearGradient>
</defs>
</svg>
