<svg width="112" height="112" viewBox="0 0 112 112" fill="none" xmlns="http://www.w3.org/2000/svg">
<rect width="112" height="112" rx="56" fill="#1F1F1F"/>
<circle cx="56" cy="56" r="28" stroke="#657982" stroke-width="8"/>
<path d="M69.36 55.659C69.36 63.1982 63.2397 69.318 55.68 69.318C48.1203 69.318 42 63.1982 42 55.659C42 48.1198 48.1203 42 55.68 42C63.2397 42 69.36 48.1198 69.36 55.659Z" stroke="white" stroke-width="8"/>
<path d="M98.36 55.6246C98.36 79.161 79.256 98.2492 55.68 98.2492C32.104 98.2492 13 79.161 13 55.6246C13 32.0882 32.104 13 55.68 13C79.256 13 98.36 32.0882 98.36 55.6246Z" stroke="white" stroke-width="8"/>
<rect x="63" y="52" width="12" height="8" fill="#1F1F1F"/>
<rect x="93" y="52" width="12" height="8" fill="#1F1F1F"/>
<rect x="7" y="52" width="12" height="8" fill="#1F1F1F"/>
</svg>
