<svg width="321" height="50" viewBox="0 0 321 50" fill="none" xmlns="http://www.w3.org/2000/svg">
<path d="M247.063 31.3795L260.253 44.1193C260.896 44.6984 261.154 45.4062 261.154 46.1139C261.154 47.7868 259.416 49.4598 257.422 49.4598C256.585 49.4598 255.685 49.138 254.912 48.3659L239.728 33.4384C239.856 36.4625 239.985 40.4518 239.985 45.8566C239.985 47.7225 238.505 49.5884 236.317 49.5884C234.323 49.5884 232.65 47.8512 232.65 45.8566V4.2912C232.65 2.29658 234.323 0.559326 236.317 0.559326C238.376 0.559326 239.985 2.29658 239.985 4.2912C239.985 16.2589 239.985 23.4653 239.663 29.3205L254.655 16.7737C255.749 15.8729 256.907 15.4868 257.937 15.4868C259.803 15.4868 261.218 16.7093 261.218 18.1892C261.218 18.9613 260.832 19.8621 259.803 20.6986L247.063 31.3795Z" fill="#404040"/>
<path d="M211.969 15.1006C219.047 15.1006 225.481 19.4115 225.481 29.642V45.7277C225.481 48.2371 223.615 49.5882 221.749 49.5882C219.883 49.5882 218.017 48.2371 218.017 45.7277V30.7359C218.017 23.6582 213.964 21.4705 209.781 21.4705C204.569 21.4705 201.095 24.8163 201.031 31.1219V45.8564C201.031 48.2371 199.165 49.5239 197.299 49.5239C195.433 49.5239 193.567 48.2371 193.567 45.8564V19.1542C193.567 16.7092 195.433 15.4866 197.299 15.4866C199.165 15.4866 201.031 16.7092 201.031 19.1542V21.1488C203.154 17.3526 206.821 15.1006 211.969 15.1006Z" fill="#404040"/>
<path d="M182.281 11.6262C179.9 11.6262 177.906 9.69592 177.906 7.31524C177.906 4.87022 179.9 2.93994 182.281 2.93994C184.662 2.93994 186.592 4.93457 186.592 7.31524C186.592 9.69592 184.662 11.6262 182.281 11.6262ZM178.549 45.8565V19.1543C178.549 16.7093 180.415 15.4868 182.281 15.4868C184.083 15.4868 185.949 16.7093 185.949 19.1543V45.8565C185.949 48.3015 184.083 49.5884 182.281 49.5884C180.479 49.5884 178.549 48.3015 178.549 45.8565Z" fill="#404040"/>
<path d="M163.532 45.8566V4.2912C163.532 1.84618 165.398 0.559326 167.2 0.559326C169.066 0.559326 170.867 1.84618 170.867 4.2912V45.8566C170.867 48.3016 169.066 49.5884 167.2 49.5884C165.398 49.5884 163.532 48.3016 163.532 45.8566Z" fill="#404040"/>
<path d="M144.024 15.1006C150.522 15.1006 156.377 19.1542 156.377 28.5482V45.7277C156.377 48.2371 154.511 49.5882 152.646 49.5882C150.78 49.5882 148.914 48.2371 148.914 45.7277V29.7064C148.914 23.4008 145.825 21.4705 142.608 21.4705C138.49 21.4705 135.788 24.559 135.788 30.0924V45.7277C135.788 48.2371 133.922 49.5882 132.056 49.5882C130.19 49.5882 128.324 48.2371 128.324 45.7277V29.7064C128.324 23.4008 125.236 21.4705 122.018 21.4705C117.901 21.4705 115.262 24.4946 115.198 30.0924V45.8564C115.198 48.2371 113.332 49.5239 111.466 49.5239C109.6 49.5239 107.734 48.2371 107.734 45.8564V19.1542C107.734 16.7092 109.665 15.4866 111.531 15.4866C113.332 15.4866 115.198 16.6448 115.198 19.0255V20.3123C116.935 16.9665 120.088 15.1006 124.206 15.1006C128.195 15.1006 131.734 16.8378 133.6 20.8271C135.53 17.2239 139.069 15.1006 144.024 15.1006Z" fill="#404040"/>
<path d="M96.449 11.6262C94.0684 11.6262 92.0737 9.69592 92.0737 7.31524C92.0737 4.87022 94.0684 2.93994 96.449 2.93994C98.8297 2.93994 100.76 4.93457 100.76 7.31524C100.76 9.69592 98.8297 11.6262 96.449 11.6262ZM92.7172 45.8565V19.1543C92.7172 16.7093 94.5831 15.4868 96.449 15.4868C98.2506 15.4868 100.117 16.7093 100.117 19.1543V45.8565C100.117 48.3015 98.2506 49.5884 96.449 49.5884C94.6474 49.5884 92.7172 48.3015 92.7172 45.8565Z" fill="#404040"/>
<path d="M81.3798 15.551C83.1814 15.551 85.0473 16.7735 85.0473 19.2185V45.9207C85.0473 48.3014 83.2458 49.5882 81.3798 49.5882C79.5139 49.5882 77.6479 48.3014 77.6479 45.9207V42.3819C75.782 46.9502 71.085 49.8456 65.0368 49.8456C54.935 49.8456 48.6294 42.0602 48.6294 32.4088C48.6294 22.5 55.1923 15.1006 65.4228 15.1006C70.3772 15.1006 75.1386 17.5456 77.6479 21.8566V19.2185C77.6479 16.7735 79.5139 15.551 81.3798 15.551ZM66.9027 43.2183C73.144 43.2183 77.5836 38.5857 77.5836 32.4731C77.5836 26.4249 73.144 21.7922 66.9027 21.7922C60.5971 21.7922 56.0931 26.2319 56.0931 32.4731C56.0931 38.7787 60.5971 43.2183 66.9027 43.2183Z" fill="#404040"/>
<path d="M35.3491 45.8566V4.2912C35.3491 1.84618 37.2151 0.559326 39.0167 0.559326C40.8826 0.559326 42.6842 1.84618 42.6842 4.2912V45.8566C42.6842 48.3016 40.8826 49.5884 39.0167 49.5884C37.2151 49.5884 35.3491 48.3016 35.3491 45.8566Z" fill="#404040"/>
<path d="M26.8309 47.4649C24.1285 49.0091 20.847 49.8456 17.5012 49.8456C8.87929 49.8456 0 44.3121 0 32.4731C0 20.5697 8.87929 15.2292 17.4369 15.2292C20.847 15.2292 24.1285 16.0657 26.8309 17.6099C28.2464 18.4464 28.8899 19.6689 28.8899 20.8914C28.8899 22.4356 27.8604 23.8512 26.2518 23.8512C25.8014 23.8512 25.2867 23.7225 24.7076 23.4008C22.8416 22.4356 20.654 21.9209 18.5307 21.9209C12.8685 21.9209 7.33506 25.2667 7.33506 32.5374C7.33506 39.3577 12.6112 43.0896 18.402 43.0896C20.461 43.0896 22.6486 42.6392 24.6432 41.6097C25.158 41.3524 25.6084 41.2237 26.0588 41.2237C27.6673 41.2237 28.7612 42.7036 28.7612 44.3121C28.7612 45.4703 28.1821 46.6928 26.8309 47.4649Z" fill="#404040"/>
<path d="M270.647 4.54546C270.647 2.03507 272.682 0 275.192 0H316.102C318.612 0 320.647 2.03507 320.647 4.54545V45.4545C320.647 47.9649 318.612 50 316.102 50H275.192C272.682 50 270.647 47.9649 270.647 45.4545V4.54546Z" fill="#3B00B9"/>
<path fill-rule="evenodd" clip-rule="evenodd" d="M282.462 7.8291L309.735 7.8291C311.409 7.8291 312.765 9.18582 312.765 10.8594V38.1321C312.765 39.8057 311.409 41.1624 309.735 41.1624C308.062 41.1624 306.705 39.8057 306.705 38.1321V18.1752L283.09 41.79C281.907 42.9734 279.988 42.9734 278.805 41.79C277.621 40.6066 277.621 38.6879 278.805 37.5045L302.419 13.8897L282.462 13.8897C280.789 13.8897 279.432 12.533 279.432 10.8594C279.432 9.18581 280.789 7.8291 282.462 7.8291Z" fill="white"/>
</svg>
