<?xml version="1.0" encoding="UTF-8"?>
<svg version="1.1" xmlns="http://www.w3.org/2000/svg" width="1667" height="1667">
<path d="M0 0 C3.54049467 0.00460749 7.08064374 -0.00222511 10.62109375 -0.02050781 C43.6760796 -0.18926347 76.59915935 1.37360046 109.40258789 5.62817383 C110.22682251 5.73205414 111.05105713 5.83593445 111.90026855 5.94296265 C190.80712131 15.91017346 267.99921313 37.25491804 415.7956543 106.74682617 C418.45938376 108.27650674 421.13660143 109.77884783 423.82055664 111.27270508 C436.17567451 118.17581236 448.05053187 125.68066273 459.83081055 133.52124023 C462.34345897 135.19315459 464.86207924 136.85557433 467.38305664 138.51489258 C490.0830203 153.49328617 511.85563281 169.62509245 532.84057617 186.9284668 C534.36401948 188.18117372 535.89645424 189.42292642 537.42993164 190.66333008 C548.68911035 199.77317951 559.57491019 209.30789339 570.16333008 219.18701172 C572.2736186 221.15392307 574.39217612 223.11079562 576.52368164 225.0546875 C583.93881041 231.82603495 591.14542723 238.77606956 598.23217773 245.88989258 C599.91934747 247.5824873 601.61188985 249.2695798 603.30493164 250.95629883 C608.37501058 256.02327604 613.35944747 261.1024668 618.01538086 266.55834961 C620.54942654 269.5031447 623.23732146 272.30264888 625.90258789 275.12817383 C630.53355004 280.07662355 634.93256984 285.13440127 639.16821289 290.42895508 C641.42928111 293.1953945 643.75939697 295.87981362 646.12133789 298.55957031 C653.1030253 306.48909588 659.56450029 314.72578427 665.90698242 323.17163086 C667.50299818 325.28314192 669.11846734 327.37794738 670.74243164 329.46801758 C698.20669678 364.86371922 721.96222008 403.1244693 743.07299805 442.59887695 C744.03427187 444.39428734 745.00001791 446.18731122 745.97045898 447.9777832 C785.11189573 520.25111584 811.87950747 600.78704866 836.52758789 754.31567383 C836.60170898 755.09726868 836.67583008 755.87886353 836.75219727 756.68414307 C841.24486432 804.28313458 841.89873407 853.67255605 837.52758789 901.31567383 C837.39680978 902.81920511 837.26662843 904.32278838 837.13696289 905.82641602 C829.97231689 987.92519049 810.98197187 1068.62600369 757.52758789 1196.31567383 C757.21672241 1196.95696228 756.90585693 1197.59825073 756.58557129 1198.25897217 C747.82807668 1216.29088539 738.6960318 1234.02964478 728.52758789 1251.31567383 C728.03339355 1252.15952637 727.53919922 1253.00337891 727.0300293 1253.87280273 C715.91158274 1272.80381595 704.1814062 1291.37194458 691.52758789 1309.31567383 C691.12652832 1309.88624512 690.72546875 1310.45681641 690.31225586 1311.04467773 C687.41569141 1315.15810702 684.47981073 1319.24205609 681.52758789 1323.31567383 C680.74061523 1324.40452881 680.74061523 1324.40452881 679.93774414 1325.51538086 C672.24564895 1336.13642338 664.31572723 1346.49184145 655.95141602 1356.59204102 C653.93918316 1359.02797448 651.95451039 1361.48609858 649.96508789 1363.94067383 C642.33427064 1373.24552776 634.50099004 1382.36113651 626.32543945 1391.19165039 C623.79898344 1393.9205173 621.32406369 1396.68090203 618.90258789 1399.50317383 C615.68006406 1403.22680783 612.20353144 1406.65551476 608.69946289 1410.11254883 C606.79992154 1412.03942171 605.02735845 1414.00406297 603.27758789 1416.06567383 C596.31038868 1424.16971208 588.56234378 1431.73155328 580.41821289 1438.64379883 C578.1911171 1440.61321411 576.11543835 1442.69941724 574.02758789 1444.81567383 C570.6750201 1448.20835781 567.23283107 1451.40668067 563.61352539 1454.51098633 C561.27733288 1456.53218659 558.99793938 1458.60946222 556.71508789 1460.69067383 C552.39984213 1464.58492 547.95667034 1468.28222107 543.43774414 1471.93676758 C540.85843594 1474.0452222 538.31799113 1476.18898473 535.78735352 1478.35498047 C529.43990436 1483.78386956 522.94640819 1488.96631305 516.27709961 1493.99584961 C514.43133819 1495.3882842 512.59083497 1496.78750714 510.75024414 1498.18676758 C479.55253011 1521.8292698 446.69280105 1543.22409677 412.52758789 1562.31567383 C411.26736816 1563.02409424 411.26736816 1563.02409424 409.98168945 1563.74682617 C360.58380039 1591.4464883 308.52226583 1613.31986161 254.52758789 1630.31567383 C253.81900635 1630.5389032 253.1104248 1630.76213257 252.38037109 1630.99212646 C189.87458288 1650.61273721 124.88243922 1662.16311822 59.52758789 1666.31567383 C58.82376984 1666.36266418 58.11995178 1666.40965454 57.39480591 1666.45806885 C40.64383543 1667.55121703 23.86943487 1667.56111514 7.09008789 1667.56567383 C5.96880367 1667.56633661 5.96880367 1667.56633661 4.82486725 1667.56701279 C-21.37263955 1667.57510467 -47.382868 1666.88109826 -73.47241211 1664.31567383 C-74.34160278 1664.23081726 -75.21079346 1664.14596069 -76.10632324 1664.05853271 C-158.57684961 1655.9083662 -239.78389438 1635.71729868 -349.47583008 1588.73608398 C-352.44932385 1587.3266179 -355.43065291 1585.93500193 -358.41381836 1584.54614258 C-370.76494138 1578.76232793 -382.79939081 1572.52597156 -394.69995117 1565.8659668 C-397.50171812 1564.29928662 -400.31092301 1562.7465688 -403.12084961 1561.19458008 C-430.61385153 1545.92512945 -456.97442847 1528.71134776 -482.47241211 1510.31567383 C-483.2379541 1509.76411621 -484.00349609 1509.21255859 -484.79223633 1508.64428711 C-495.37948103 1500.99254757 -505.68351241 1493.07518221 -515.74438477 1484.74389648 C-518.20395389 1482.71105114 -520.68330026 1480.70269759 -523.15991211 1478.69067383 C-532.21143881 1471.2676077 -541.13486454 1463.73662389 -549.74194336 1455.80004883 C-551.92796514 1453.81105047 -554.13450308 1451.85786336 -556.36303711 1449.91723633 C-567.86640685 1439.87518917 -578.72969335 1429.15950951 -589.53491211 1418.37817383 C-590.07534149 1417.84033264 -590.61577087 1417.30249146 -591.1725769 1416.74835205 C-596.59854437 1411.34289962 -601.95592076 1405.92297636 -606.93603516 1400.09716797 C-609.48073087 1397.14648553 -612.17430633 1394.3370341 -614.84741211 1391.50317383 C-619.49556744 1386.5359429 -623.91719747 1381.4599135 -628.17163086 1376.14770508 C-630.83151588 1372.87365305 -633.5851259 1369.69069693 -636.34741211 1366.50317383 C-642.28714263 1359.61226419 -647.9236563 1352.5232835 -653.47241211 1345.31567383 C-654.08665039 1344.52209473 -654.70088867 1343.72851562 -655.33374023 1342.91088867 C-663.47564964 1332.38331226 -671.461265 1321.80209181 -678.85522461 1310.73413086 C-680.79208447 1307.83761308 -682.74228849 1304.95021521 -684.69116211 1302.06176758 C-698.87879236 1280.99118375 -712.19039936 1259.55984515 -724.47241211 1237.31567383 C-725.01929688 1236.32631836 -725.56618164 1235.33696289 -726.12963867 1234.31762695 C-767.86293195 1158.59485759 -797.27904021 1076.64999411 -827.67553711 856.94067383 C-827.67977818 855.66726639 -827.67977818 855.66726639 -827.68410492 854.36813354 C-827.69897742 849.85341095 -827.70827554 845.33871919 -827.71264648 840.82397461 C-827.7169783 837.1946376 -827.73067899 833.56554543 -827.75366211 829.9362793 C-828.14660644 766.53233374 -820.50884681 704.11084689 -806.47241211 642.31567383 C-806.31470337 641.62082886 -806.15699463 640.92598389 -805.99450684 640.21008301 C-791.89836641 578.44309031 -769.28353402 519.13419465 -741.47241211 462.31567383 C-741.01366699 461.37095215 -740.55492187 460.42623047 -740.08227539 459.45288086 C-733.09587861 445.08007394 -725.48847291 431.13843861 -717.47241211 417.31567383 C-716.68761475 415.95490723 -716.68761475 415.95490723 -715.88696289 414.56665039 C-704.11216911 394.18734074 -691.61106286 374.24193154 -677.80883789 355.16967773 C-676.51628365 353.37653618 -675.23964499 351.57326028 -673.96850586 349.76489258 C-667.38815537 340.42134752 -660.47106805 331.34869762 -653.47241211 322.31567383 C-652.98595215 321.6859668 -652.49949219 321.05625977 -651.99829102 320.4074707 C-645.82463505 312.4263185 -639.46561131 304.63347111 -632.89477539 296.97631836 C-631.42424211 295.25943416 -629.96144288 293.53618701 -628.49975586 291.81176758 C-622.89802258 285.21755133 -617.20042361 278.73725506 -611.31542969 272.39428711 C-609.58143422 270.52249579 -607.86410271 268.63982438 -606.15698242 266.74316406 C-598.421554 258.16845571 -590.30417431 249.99475728 -582.12841797 241.84130859 C-579.77511911 239.49340327 -577.42725821 237.14015415 -575.07983398 234.78637695 C-573.56127453 233.26847786 -572.04240515 231.75088877 -570.52319336 230.23364258 C-569.83340897 229.54183395 -569.14362457 228.85002533 -568.43293762 228.13725281 C-564.49157388 224.21458225 -560.45021552 220.46590089 -556.23425293 216.83940125 C-553.64855767 214.60316361 -551.16140686 212.27073747 -548.65991211 209.94067383 C-544.03941662 205.67172189 -539.28134459 201.63536088 -534.37866211 197.69067383 C-531.67109018 195.4780344 -529.02094363 193.21461563 -526.37988281 190.92382812 C-519.90560034 185.30970919 -513.27752829 179.96329952 -506.43383789 174.80444336 C-504.16359616 173.08127506 -501.90978199 171.33766414 -499.65600586 169.59301758 C-488.92607307 161.31054377 -478.0390886 153.37858064 -466.76782227 145.84936523 C-464.49131541 144.32830418 -462.22159709 142.79754299 -459.95288086 141.26489258 C-433.37577073 123.36159265 -405.88269539 107.14185913 -377.47241211 92.31567383 C-376.87233337 92.00243164 -376.27225464 91.68918945 -375.6539917 91.36645508 C-344.55554098 75.16488275 -312.48390669 61.15395304 -279.47241211 49.31567383 C-278.80935059 49.07717712 -278.14628906 48.83868042 -277.46313477 48.59295654 C-255.06011088 40.54541566 -232.45791755 33.50175591 -209.47241211 27.31567383 C-208.27664551 26.99260254 -207.08087891 26.66953125 -205.84887695 26.33666992 C-165.88480057 15.66098347 -125.02480589 8.45368485 -83.90991211 4.06567383 C-83.19471405 3.98845093 -82.47951599 3.91122803 -81.74264526 3.83166504 C-76.32485395 3.25552972 -70.90168729 2.76982429 -65.47241211 2.31567383 C-63.95077957 2.18486923 -63.95077957 2.18486923 -62.39840698 2.05142212 C-41.59142297 0.31168726 -20.86993212 -0.02937931 0 0 Z " fill="#00AEEF" transform="translate(827.472412109375,-0.315673828125)"/>
<path d="M0 0 C3.45979189 0.01925489 6.91953257 0.02312527 10.37937069 0.02685642 C45.08539888 0.06771814 45.08539888 0.06771814 61.00378418 1.26428223 C61.72488373 1.31719421 62.44598328 1.3701062 63.18893433 1.42462158 C68.40575461 1.81881873 73.61151088 2.29772279 78.81628418 2.82678223 C80.03277145 2.95024521 80.03277145 2.95024521 81.27383423 3.07620239 C165.41730917 11.80335279 248.11187161 35.86994343 375.00378418 99.26428223 C375.91821289 99.80198242 376.8326416 100.33968262 377.77478027 100.89367676 C421.05678925 126.45878605 462.24505841 156.35307456 499.08972168 190.59631348 C501.24435285 192.56898518 503.41813556 194.48415822 505.63293457 196.38635254 C510.22662881 200.40152032 514.5443086 204.66064108 518.85144043 208.97912598 C520.07473305 210.20098351 520.07473305 210.20098351 521.32273865 211.44752502 C523.03576426 213.15987416 524.74754383 214.87347065 526.45812988 216.58825684 C529.0588197 219.19430238 531.66480374 221.79496745 534.2713623 224.3951416 C535.94420904 226.06864922 537.61674552 227.74246705 539.28894043 229.41662598 C540.05891861 230.18457993 540.82889679 230.95253387 541.62220764 231.74375916 C546.28353712 236.42509475 550.70858233 241.24616229 555.00378418 246.26428223 C556.01419234 247.42037688 557.02571691 248.57549795 558.03894043 249.72912598 C569.32299898 262.65211688 580.37857755 275.78354432 590.68151855 289.50744629 C591.59498772 290.72113242 592.51327212 291.93120403 593.4354248 293.13830566 C609.95713003 314.7819516 625.29268516 337.7361672 639.00378418 361.26428223 C639.4527002 362.02901855 639.90161621 362.79375488 640.36413574 363.58166504 C704.00378418 472.28671046 704.00378418 472.28671046 704.00378418 505.26428223 C663.14576072 505.83719783 622.28826299 506.2773675 581.42702148 506.54091546 C576.59705235 506.57218106 571.76709113 506.60453931 566.93713379 506.63757324 C565.49486985 506.64740988 565.49486985 506.64740988 564.02346926 506.65744524 C548.47849091 506.7660689 532.93583686 506.96308446 517.39223493 507.19310213 C501.4286129 507.42735519 485.46620317 507.5658458 469.50093311 507.6164946 C459.65726992 507.65071051 449.82017553 507.75849894 439.97853672 507.9621939 C433.21845984 508.09493372 426.46174872 508.13416354 419.70046503 508.10181666 C415.80332978 508.08587558 411.91760606 508.10923671 408.02253532 508.2444191 C385.39356696 508.99129046 385.39356696 508.99129046 378.13138843 502.82556415 C372.93929987 496.86912443 369.23488185 490.36171755 365.65404022 483.32018936 C363.22099776 478.81473589 360.19565936 474.87680992 357.00378418 470.88928223 C355.95656216 469.54710499 354.90963411 468.20469828 353.86315918 466.86193848 C352.91146795 465.66158158 351.95843087 464.46228998 351.00378418 463.26428223 C350.18394043 462.23174316 349.36409668 461.1992041 348.51940918 460.13537598 C344.28694849 454.88858419 339.88793246 449.82146358 335.33972168 444.84631348 C334.07837935 443.45208725 332.8228575 442.05197095 331.60339355 440.62097168 C326.48107641 434.62963445 320.96933942 429.04370554 315.39880371 423.47399902 C313.7655097 421.83852341 312.14039948 420.19520515 310.51550293 418.5513916 C303.99996445 412.00129219 297.24870072 406.01349798 290.00378418 400.26428223 C288.87904067 399.3172331 287.75943076 398.36400291 286.64831543 397.40100098 C225.64659539 344.64503068 145.32085244 309.52377702 65.41296387 299.68615723 C63.17220521 299.40887056 60.9331237 299.11760775 58.69616699 298.81115723 C-49.75355337 284.10181193 -165.63304754 312.96472006 -259.99621582 382.26428223 C-260.59466309 382.71110352 -261.19311035 383.1579248 -261.80969238 383.61828613 C-273.74361965 392.54340492 -284.99730713 402.21883931 -295.99621582 412.26428223 C-296.9527002 413.1279541 -297.90918457 413.99162598 -298.89465332 414.88146973 C-307.77407014 422.92144588 -316.48866549 431.13338788 -324.26965332 440.26037598 C-326.21362628 442.51661608 -328.229451 444.69792115 -330.24621582 446.88928223 C-335.83274705 453.09023737 -340.92118443 459.64452748 -345.99621582 466.26428223 C-346.47993652 466.89108887 -346.96365723 467.51789551 -347.46203613 468.16369629 C-359.02648124 483.17839168 -369.51485724 498.85569267 -378.99621582 515.26428223 C-379.36891602 515.90140137 -379.74161621 516.53852051 -380.12561035 517.19494629 C-422.57089092 590.03513626 -442.57632019 674.87522592 -426.99621582 840.26428223 C-426.71407227 841.40494141 -426.43192871 842.54560059 -426.14123535 843.7208252 C-419.36424064 870.87544295 -410.36509281 896.69921202 -398.99621582 922.26428223 C-398.61497559 923.12602051 -398.23373535 923.98775879 -397.84094238 924.87561035 C-380.48918013 963.75727706 -356.11462808 999.41540068 -327.99621582 1031.26428223 C-327.55293945 1031.76685547 -327.10966309 1032.26942871 -326.6529541 1032.78723145 C-320.14423169 1040.11166842 -313.28203748 1047.09878506 -306.38238525 1054.05334473 C-304.97768485 1055.46994084 -303.57697174 1056.8904873 -302.1763916 1058.31115723 C-296.89701487 1063.59717946 -291.45976892 1068.47216146 -285.62316895 1073.13439941 C-283.13542192 1075.15141661 -280.74949566 1077.24079387 -278.37512207 1079.38928223 C-274.06520194 1083.25684079 -269.5734798 1086.8021837 -264.93371582 1090.26428223 C-264.08301514 1090.89946777 -263.23231445 1091.53465332 -262.35583496 1092.18908691 C-245.95130468 1104.30766884 -228.89824351 1115.48688365 -210.99621582 1125.26428223 C-209.70094971 1125.97463623 -209.70094971 1125.97463623 -208.3795166 1126.69934082 C-144.57551632 1161.44431999 -72.52126584 1180.78381372 0.25378418 1180.63928223 C1.25359314 1180.63907074 2.2534021 1180.63885925 3.2835083 1180.63864136 C72.01206059 1180.49564043 141.85692943 1165.44671606 202.95007324 1133.33605957 C205.2575368 1132.13185546 207.57926238 1130.95783514 209.90222168 1129.78381348 C228.92069933 1120.09790221 246.791667 1108.868529 264.00378418 1096.26428223 C264.68279785 1095.77073242 265.36181152 1095.27718262 266.06140137 1094.76867676 C275.76721898 1087.69755833 285.0163895 1080.22667299 294.00378418 1072.26428223 C294.87390137 1071.49471191 295.74401855 1070.7251416 296.64050293 1069.93225098 C299.10982036 1067.72537308 301.56018406 1065.49959984 304.00378418 1063.26428223 C304.51828125 1062.79490234 305.03277832 1062.32552246 305.56286621 1061.84191895 C314.1109544 1054.03648826 322.55583394 1046.23644145 330.10534668 1037.44006348 C332.27123423 1034.95776025 334.51255375 1032.55373078 336.75378418 1030.13928223 C342.05426941 1024.32481055 346.89072235 1018.20796595 351.68200684 1011.97131348 C352.8909625 1010.40998765 354.12393983 1008.86733852 355.35925293 1007.32678223 C363.39026221 997.21067004 370.37707864 986.38745127 377.4666748 975.60168457 C378.63939921 973.81838352 379.81986043 972.04016785 381.00378418 970.26428223 C383.32326663 969.89168674 383.32326663 969.89168674 386.29429054 969.89513874 C387.42340941 969.8891656 388.55252828 969.88319245 389.71586287 969.8770383 C390.96681349 969.88577682 392.2177641 969.89451535 393.50662231 969.90351868 C394.84066082 969.9022115 396.17469857 969.8995867 397.5087322 969.89575118 C401.18701961 969.8890169 404.86504687 969.90107894 408.54330111 969.91608536 C412.50512996 969.92899933 416.46694326 969.92465957 420.42878723 969.92237854 C427.29706952 969.92080286 434.16526654 969.93024279 441.03352737 969.94709206 C450.96395633 969.97143764 460.8943439 969.97928277 470.82479946 969.98305603 C486.93494016 969.98962751 503.04503538 970.00960751 519.15515137 970.03796387 C534.80781832 970.06548645 550.46047293 970.08672883 566.11315918 970.0994873 C567.0774333 970.10027548 568.04170743 970.10106365 569.03520198 970.1018757 C573.87251565 970.10579071 578.70982941 970.10958186 583.54714322 970.11331141 C623.69938873 970.14442898 663.85158346 970.19728369 704.00378418 970.26428223 C703.69448607 971.69463219 703.38282218 973.12447071 703.07017517 974.55409241 C702.81022341 975.74853643 702.81022341 975.74853643 702.5450201 976.96711063 C701.83197966 979.9934734 700.85267432 982.87125848 699.78894043 985.79162598 C699.13937378 987.5777832 699.13937378 987.5777832 698.47668457 989.40002441 C698.00732548 990.66756403 697.53717177 991.93480965 697.06628418 993.20178223 C696.82457489 993.85634399 696.5828656 994.51090576 696.33383179 995.18530273 C682.11132644 1033.63230266 664.52457958 1070.79394809 644.00378418 1106.26428223 C643.56711426 1107.02547363 643.13044434 1107.78666504 642.68054199 1108.57092285 C632.30394861 1126.65795874 621.05147256 1144.24546029 609.00378418 1161.26428223 C608.50556152 1161.96972168 608.00733887 1162.67516113 607.49401855 1163.40197754 C596.58334912 1178.80327741 585.10911665 1193.780734 573.00378418 1208.26428223 C572.57500977 1208.77797363 572.14623535 1209.29166504 571.70446777 1209.82092285 C566.34024472 1216.2374394 560.90609726 1222.57217911 555.26940918 1228.75256348 C553.37687011 1230.85067145 551.51468901 1232.96880838 549.66003418 1235.10021973 C540.53124175 1245.54964413 530.85928416 1255.50213624 521.06628418 1265.32678223 C520.2860791 1266.11157959 519.50587402 1266.89637695 518.70202637 1267.70495605 C514.55694147 1271.83898385 510.32716518 1275.8032401 505.89074707 1279.62243652 C502.9137734 1282.2127002 500.0614034 1284.93199784 497.19128418 1287.63928223 C492.20313281 1292.30662856 487.10779537 1296.7537308 481.77331543 1301.02600098 C479.23589444 1303.07669523 476.74976548 1305.17283981 474.27233887 1307.2947998 C467.92009793 1312.73270304 461.41716775 1317.91837589 454.7401123 1322.95324707 C452.93278061 1324.31789431 451.13226604 1325.69123095 449.33190918 1327.06506348 C419.24058778 1349.93492697 387.32135697 1370.41483867 354.00378418 1388.26428223 C353.14671875 1388.72367188 352.28965332 1389.18306152 351.40661621 1389.65637207 C309.30918059 1412.11783096 265.77266108 1430.18332733 220.19421387 1444.27502441 C217.32588096 1445.16440955 214.46555746 1446.07579033 211.60534668 1446.99084473 C180.2859587 1456.77454591 147.48073768 1463.71439069 115.00378418 1468.26428223 C113.48620072 1468.47990226 111.96862288 1468.69556183 110.4510498 1468.91125488 C91.35702213 1471.6081002 72.26097243 1474.08874669 53.00378418 1475.26428223 C51.72640381 1475.35040771 50.44902344 1475.4365332 49.13293457 1475.52526855 C34.36939653 1476.45987066 19.60451378 1476.46209952 4.81628418 1476.45178223 C3.47431437 1476.45183837 2.13234456 1476.45189944 0.79037476 1476.45196533 C-18.89014575 1476.44477457 -38.38774162 1476.01424486 -57.99621582 1474.26428223 C-59.77470694 1474.12813131 -61.5533456 1473.99388854 -63.33215332 1473.86193848 C-80.30780402 1472.51832817 -97.17066685 1469.83265451 -113.99621582 1467.26428223 C-115.24467285 1467.07495117 -116.49312988 1466.88562012 -117.77941895 1466.69055176 C-184.45557525 1456.39523892 -249.36435495 1435.31023507 -310.29064941 1406.53918457 C-312.97447067 1405.27452886 -315.66604986 1404.02781461 -318.35949707 1402.78381348 C-366.22811155 1380.53003779 -411.88826608 1351.35584353 -452.99621582 1318.26428223 C-453.63269043 1317.75397461 -454.26916504 1317.24366699 -454.92492676 1316.71789551 C-467.01936629 1307.01106007 -478.92027545 1297.08204193 -490.38757324 1286.63757324 C-492.07647512 1285.10104398 -493.77065573 1283.57028872 -495.47106934 1282.04650879 C-504.0745133 1274.27425942 -512.28457765 1266.12868822 -520.47058105 1257.92028809 C-522.81848638 1255.56698923 -525.1717355 1253.21912833 -527.5255127 1250.8717041 C-529.04341179 1249.35314465 -530.56100088 1247.83427526 -532.07824707 1246.31506348 C-532.77005569 1245.62527908 -533.46186432 1244.93549469 -534.17463684 1244.22480774 C-538.1113381 1240.26934644 -541.87306363 1236.21210248 -545.51521301 1231.98339844 C-547.42470856 1229.76689707 -549.39733303 1227.61095286 -551.37121582 1225.45178223 C-555.21671764 1221.18547634 -558.89352848 1216.81258923 -562.50402832 1212.34631348 C-564.30015191 1210.12508854 -566.10630118 1207.91527846 -567.92590332 1205.71350098 C-585.62820712 1184.22707879 -601.78673191 1161.57050618 -616.99621582 1138.26428223 C-617.47526367 1137.5304834 -617.95431152 1136.79668457 -618.44787598 1136.04064941 C-633.45421729 1112.9344386 -646.64829948 1088.86965397 -658.99621582 1064.26428223 C-659.51780273 1063.2304541 -660.03938965 1062.19662598 -660.57678223 1061.13146973 C-698.20019892 986.15381201 -721.83747436 902.54027096 -734.19934082 760.94396973 C-734.2021682 760.08820469 -734.20499557 759.23243965 -734.20790863 758.35074234 C-734.22280032 753.80173705 -734.23208703 749.25276253 -734.2364502 744.70373535 C-734.24078858 741.03338426 -734.25451263 737.36327438 -734.27746582 733.69299316 C-734.43030121 708.72322852 -733.53110109 684.10964416 -730.99621582 659.26428223 C-730.89379578 658.24560059 -730.79137573 657.22691895 -730.68585205 656.17736816 C-730.14971831 650.96372531 -729.52189591 645.76898266 -728.80871582 640.57678223 C-728.70805817 639.82619537 -728.60740051 639.07560852 -728.50369263 638.30227661 C-718.691909 565.71151009 -698.25312713 493.39629113 -666.45959473 427.3145752 C-664.96709923 424.20359109 -663.50102353 421.08118205 -662.03918457 417.95568848 C-651.03692536 394.5490099 -638.44236246 372.26224973 -624.85852051 350.28234863 C-623.31225157 347.77645238 -621.77870255 345.26380343 -620.25402832 342.74475098 C-605.80177864 319.01216666 -589.13462575 296.37889473 -571.42004395 274.98791504 C-569.40781109 272.55198158 -567.42313832 270.09385747 -565.43371582 267.63928223 C-557.50878141 257.97578816 -549.35683306 248.52692464 -540.85925293 239.36291504 C-539.06298764 237.42368415 -537.28039128 235.47458829 -535.50500488 233.51599121 C-529.1551363 226.51402971 -522.6214357 219.73270582 -515.92468262 213.06237793 C-514.2956501 211.43875993 -512.67210854 209.80978619 -511.0489502 208.18029785 C-506.07198567 203.20016759 -501.06299458 198.30554343 -495.7064209 193.72937012 C-493.12956497 191.52184514 -490.66656747 189.2019804 -488.18371582 186.88928223 C-483.5358304 182.59552842 -478.75205234 178.52896382 -473.82043457 174.56115723 C-471.33394857 172.53895285 -468.89335783 170.47266344 -466.4642334 168.38220215 C-458.94691078 161.92709738 -451.14649612 155.88527024 -443.2232666 149.93811035 C-441.76811735 148.84443536 -440.31583295 147.74693538 -438.86682129 146.6451416 C-408.71031015 123.71759877 -376.35550128 103.40142198 -342.84484863 85.76867676 C-340.07075507 84.30364723 -337.30999312 82.81593088 -334.55090332 81.32287598 C-297.42085096 61.38217039 -258.12293562 45.99214228 -217.99621582 33.26428223 C-216.99944824 32.94411133 -216.00268066 32.62394043 -214.97570801 32.29406738 C-145.62257846 10.08734201 -72.72969948 -0.48372784 0 0 Z " fill="#FEFEFE" transform="translate(827.9962158203125,95.7357177734375)"/>
<path d="M0 0 C3.77573981 0.0095282 7.55145211 0.00137436 11.32719389 -0.00439831 C17.92553715 -0.01210948 24.52380134 -0.00882008 31.12213931 0.00192526 C40.93346804 0.01785847 50.74474229 0.01643104 60.55608007 0.01163298 C77.06526637 0.00406435 93.57441911 0.01052318 110.08359943 0.02524451 C126.42004949 0.03979469 142.75648485 0.0485322 159.09294162 0.04942969 C160.11038659 0.04949078 161.12783155 0.04955188 162.17610818 0.04961482 C166.30631688 0.04984435 170.43652557 0.05003152 174.56673426 0.05016296 C212.16459811 0.05137293 249.7624414 0.06704823 287.36029659 0.09174994 C322.86615758 0.11507244 358.37200611 0.12922114 393.87787471 0.13276557 C395.52070097 0.13293284 395.52070097 0.13293284 397.19671565 0.13310349 C401.61215903 0.13355234 406.02760242 0.13399432 410.44304581 0.13443592 C412.64337503 0.1346563 414.84370425 0.13487759 417.04403346 0.1350998 C419.23891317 0.13532116 421.43379287 0.13553993 423.62867257 0.1357561 C458.53538375 0.13926687 493.44209258 0.15072468 528.34880141 0.16356244 C538.57250576 0.16728438 548.79620994 0.17054843 559.01991472 0.1728113 C580.51065382 0.17761273 602.00138547 0.1846641 623.49211937 0.20095897 C632.38127806 0.20762575 641.27043065 0.21275872 650.15959201 0.21341971 C657.52226055 0.21396931 664.88491738 0.2177822 672.24758133 0.22619563 C675.95921135 0.23033999 679.67082405 0.23286648 683.38245636 0.23108042 C687.36652055 0.22920752 691.35055161 0.23495644 695.33461128 0.24157218 C696.50546121 0.2398027 697.67631115 0.23803323 698.88264138 0.23621014 C699.93332582 0.23922611 700.98401025 0.24224208 702.0665336 0.24534944 C703.43533655 0.2461223 703.43533655 0.2461223 704.83179208 0.24691077 C706.88056026 0.37299994 706.88056026 0.37299994 707.88056026 1.37299994 C708.96284502 6.21256543 709.77257863 11.11392648 710.63056026 15.99799994 C710.76306178 16.75195044 710.89556331 17.50590094 711.03208003 18.28269843 C724.48834673 95.46800591 743.31517441 222.50377163 706.88056026 295.37299994 C636.82897267 295.40728146 566.77738407 295.43908009 496.72579036 295.45768622 C495.68888465 295.45796233 494.65197893 295.45823845 493.58365184 295.45852293 C471.04850366 295.46450885 448.51335539 295.4700492 425.978207 295.4751306 C414.92685924 295.47762526 403.8755115 295.48021837 392.82416377 295.48286322 C391.72442609 295.48312474 390.62468842 295.48338626 389.49162535 295.4836557 C353.8506351 295.49217728 318.2096512 295.50719908 282.56866479 295.52559438 C245.94070332 295.54446473 209.31274537 295.55677203 172.68477912 295.56082992 C167.51047205 295.56140622 162.336165 295.5620575 157.16185794 295.56275443 C156.14348738 295.56288927 155.12511682 295.56302412 154.07588655 295.56316305 C137.68774542 295.56552581 121.29961516 295.57480013 104.91147846 295.58666401 C88.43296501 295.59844563 71.95446231 295.6029341 55.47594479 295.60000269 C45.68767698 295.5984824 35.89944857 295.60252938 26.11118788 295.61459503 C19.56746022 295.62210956 13.02375827 295.62231687 6.48002881 295.61666357 C2.75482971 295.61365206 -0.970295 295.61374063 -4.69548604 295.6227663 C-21.65314356 295.66145969 -38.07432325 295.6573987 -54.55693974 291.18549994 C-55.35132451 290.9719184 -56.14570927 290.75833685 -56.96416631 290.53828314 C-65.05456432 288.26235446 -72.5902757 285.07800971 -80.11943974 281.37299994 C-80.75333623 281.064914 -81.38723271 280.75682807 -82.04033818 280.43940619 C-115.38112871 264.04954282 -142.75974566 234.60968326 -155.08062138 199.36030463 C-157.93171764 190.81996499 -160.47877089 182.23492257 -162.11943974 173.37299994 C-162.32311162 172.3533515 -162.52678349 171.33370307 -162.73662724 170.28315619 C-169.32348642 132.3410427 -158.51054725 93.7899794 -137.11943974 62.37299994 C-134.29005638 58.53479829 -131.29059789 54.93155961 -128.11943974 51.37299994 C-127.32924443 50.45132025 -126.53904912 49.52964057 -125.72490849 48.58003119 C-92.93202799 11.13934085 -47.76314909 -0.16351363 0 0 Z " fill="#FEFEFE" transform="translate(848.1194397425279,685.6270000599325)"/>
</svg>
