<svg xmlns="http://www.w3.org/2000/svg" version="1.1" viewBox="0 0 1667 1667"><path d="M827 0h11a737 737 0 0 1 101 6 951 951 0 0 1 356 132 765 765 0 0 1 150 128l8 9a260 260 0 0 1 21 23 405 405 0 0 1 24 31 797 797 0 0 1 75 119c40 72 66 152 91 306v2a788 788 0 0 1 1 150 916 916 0 0 1-109 345l-1 3a792 792 0 0 1-46 69l-2 2c-7 11-15 21-24 31l-6 8a601 601 0 0 1-31 35l-10 11-5 6a206 206 0 0 1-30 29 172 172 0 0 1-17 15 321 321 0 0 1-21 18l-19 16-6 4c-31 24-64 45-98 64l-3 1a820 820 0 0 1-402 104h-3a795 795 0 0 1-408-106c-27-15-54-33-79-51l-2-2c-11-7-21-15-31-24l-8-6a604 604 0 0 1-66-60l-2-2-15-16-8-9a263 263 0 0 1-22-25l-17-21-2-2-23-33-6-8c-14-21-28-43-40-65l-2-3c-41-76-71-158-101-377v-3a5823 5823 0 0 1 0-24 821 821 0 0 1 86-368l1-3 23-42 2-3a688 688 0 0 1 104-142 533 533 0 0 0 29-30 3991 3991 0 0 0 12-12l2-2 12-11 8-7a275 275 0 0 1 22-19 374 374 0 0 1 27-22 591 591 0 0 1 40-28c26-18 54-34 82-49l2-1c31-16 63-30 96-42l2-1c22-8 45-15 68-21l4-1c40-11 80-18 122-22h2l16-2h3c21-2 42-2 62-2Z" fill="#00AEEF"/><path d="M828 96h10l51 1h2l16 2h2c84 9 167 33 294 96l3 2a704 704 0 0 1 161 128l3 2a261 261 0 0 1 16 18 697 697 0 0 1 81 112l1 2c64 109 64 109 64 142a16190 16190 0 0 1-137 1h-3a5971 5971 0 0 0-156 2c-23 1-23 1-30-5-5-6-9-13-12-20a83 83 0 0 0-12-16 1865 1865 0 0 0-39-44 1354 1354 0 0 1-25-23l-3-3a425 425 0 0 0-228-98 442 442 0 0 0-319 83l-2 1-34 29-3 3-25 25-6 7-16 19-1 2c-12 15-23 31-32 47l-1 2c-43 73-63 158-47 323l1 3c7 28 16 53 27 79l1 3c18 38 42 74 70 106l1 2a535 535 0 0 0 62 57l3 2c16 12 33 23 51 33l3 1c63 35 135 55 208 54h3a433 433 0 0 0 327-143l7-7a279 279 0 0 0 18-23l22-32 4-5h13a2112 2112 0 0 0 15 0h11a7681 7681 0 0 1 164 0h120l-1 4v3l-3 9-2 3a3362 3362 0 0 1-2 6c-14 38-31 76-52 111l-1 2-34 53-2 2a709 709 0 0 1-86 102l-2 2-13 12-9 8a265 265 0 0 1-23 20 404 404 0 0 1-25 20c-30 23-62 43-95 61l-3 1a744 744 0 0 1-298 86h-4a693 693 0 0 1-112-1l-51-7-4-1a704 704 0 0 1-337-150 745 745 0 0 1-77-70l-2-2-12-12-5-7a319 319 0 0 1-17-20c-18-21-34-44-49-67l-1-2c-15-23-29-47-41-72l-2-3c-37-75-61-159-73-300v-3a5896 5896 0 0 1 0-25c0-25 0-49 3-74v-3l2-16v-2a708 708 0 0 1 158-363l6-8a616 616 0 0 1 69-74l8-6a276 276 0 0 1 22-19 451 451 0 0 1 27-22 689 689 0 0 1 221-113l3-1c69-22 142-33 215-32Z" fill="#FEFEFE"/><path d="M848 686h11a7077 7077 0 0 1 148 0h3a521724 521724 0 0 0 537 0h6l3 1 3 15v2c14 77 32 204-4 277h-213a1684317 1684317 0 0 1-101 0h-3a385958 385958 0 0 0-233 0h-3a84802 84802 0 0 0-159 0c-17 0-33 0-49-4l-3-1c-8-2-15-5-23-9l-2-1a146 146 0 0 1-80-107l-1-3a148 148 0 0 1 35-119l2-3c33-37 78-49 126-48Z" fill="#FEFEFE"/></svg>