<svg width="170" height="164" viewBox="0 0 170 164" fill="none" xmlns="http://www.w3.org/2000/svg">
<path d="M142.604 164C141.9 164 141.186 163.969 140.471 163.918C129.94 163.132 120.671 156.049 116.85 145.872C116.353 144.555 115.97 143.208 115.701 141.881C113.816 132.562 108.317 124.651 100.613 120.19L97.7546 118.537C92.991 115.771 87.5129 114.311 81.9209 114.311C76.3289 114.311 70.3642 115.852 65.2278 118.782C58.6624 122.518 51.165 124.488 43.5536 124.488C31.1891 124.488 19.3527 119.272 11.0994 110.187C2.73209 100.97 -1.10982 89.0685 0.277822 76.6565C2.49391 56.834 18.721 40.9413 38.8522 38.859C40.4159 38.6957 42.0003 38.6141 43.5536 38.6141C51.2375 38.6141 58.797 40.6249 65.4038 44.422C70.6334 47.4331 76.505 49.0255 82.3766 49.0255C87.8857 49.0255 93.281 47.6066 97.9927 44.9221L100.499 43.4931C108.317 39.0326 113.733 31.3771 115.732 21.9558C116.022 20.5778 116.446 19.1999 116.974 17.8423C120.972 7.71669 130.302 0.74513 140.74 0.0612435C141.362 0.0204145 141.983 0 142.604 0C150.392 0 157.837 3.28674 163.036 9.01301C168.297 14.8209 170.709 22.3131 169.819 30.1318C168.39 42.6765 157.672 52.9042 144.872 53.9147C144.116 53.976 143.35 54.0066 142.604 54.0066C138.804 54.0066 135.138 53.2513 131.69 51.7712C127.547 49.9951 123.188 49.0867 118.714 49.0867C113.153 49.0867 107.696 50.5259 102.912 53.2513C93.0635 58.8652 87.0159 69.5625 87.1194 81.1579V81.5458C87.1194 81.8316 87.1194 82.1174 87.1194 82.4032C86.8916 93.8557 92.8771 104.522 102.725 110.228L103.139 110.463C107.944 113.25 113.474 114.719 119.097 114.719C123.498 114.719 127.806 113.852 131.907 112.127C135.293 110.708 138.897 109.983 142.604 109.983C144.033 109.983 145.483 110.095 146.912 110.31C158.179 112.004 167.478 120.874 169.518 131.878C171.01 139.931 168.876 148.087 163.647 154.262C158.417 160.438 150.744 163.99 142.594 163.99L142.604 164ZM42.632 58.7019C29.6047 58.7019 19.0006 69.1542 19.0006 81.9949C19.0006 94.8356 29.6047 105.288 42.632 105.288C55.6593 105.288 66.2634 94.8356 66.2634 81.9949C66.2634 69.1542 55.6593 58.7019 42.632 58.7019Z" fill="url(#paint0_linear_1062_31477)"/>
<defs>
<linearGradient id="paint0_linear_1062_31477" x1="170" y1="82" x2="0" y2="82" gradientUnits="userSpaceOnUse">
<stop stop-color="#F9A6A7"/>
<stop offset="0.248" stop-color="#E382AF"/>
<stop offset="0.5" stop-color="#5D87FF"/>
<stop offset="1" stop-color="#62B6FF"/>
</linearGradient>
</defs>
</svg>
