<?xml version="1.0" encoding="UTF-8" standalone="no"?>
<!DOCTYPE svg PUBLIC "-//W3C//DTD SVG 1.1//EN" "http://www.w3.org/Graphics/SVG/1.1/DTD/svg11.dtd">
<svg width="100%" height="100%" viewBox="0 0 44 44" version="1.1" xmlns="http://www.w3.org/2000/svg" xmlns:xlink="http://www.w3.org/1999/xlink" xml:space="preserve" xmlns:serif="http://www.serif.com/" style="fill-rule:evenodd;clip-rule:evenodd;stroke-linejoin:round;stroke-miterlimit:2;">
    <g transform="matrix(1,0,0,1,2.14125,1.53125)">
        <path d="M20.469,30.802C26.176,30.802 30.802,26.176 30.802,20.469C30.802,14.762 26.176,10.135 20.469,10.135C14.761,10.135 10.135,14.762 10.135,20.469C10.135,26.176 14.761,30.802 20.469,30.802ZM20.469,34.702C28.329,34.702 34.702,28.33 34.702,20.469C34.702,12.608 28.329,6.236 20.469,6.236C12.608,6.236 6.235,12.608 6.235,20.469C6.235,28.33 12.608,34.702 20.469,34.702Z" style="fill:rgb(222,222,222);"/>
    </g>
    <g transform="matrix(1,0,0,1,2.14125,1.53125)">
        <path d="M23.904,0.28L23.261,4.126C22.366,3.977 21.445,3.899 20.503,3.899C19.56,3.899 18.639,3.977 17.744,4.126L17.101,0.28C18.207,0.096 19.344,0 20.503,0C21.661,0 22.798,0.096 23.904,0.28ZM13.336,1.285L14.701,4.938C12.957,5.588 11.35,6.523 9.937,7.689L7.449,4.684C9.192,3.246 11.178,2.089 13.336,1.285ZM4.692,7.436L7.702,9.92C6.534,11.331 5.597,12.936 4.946,14.677L1.288,13.314C2.093,11.159 3.251,9.177 4.692,7.436ZM0.281,17.073C0.096,18.177 0,19.312 0,20.469C0,21.626 0.096,22.76 0.281,23.865L4.133,23.223C3.983,22.329 3.905,21.41 3.905,20.469C3.905,19.528 3.983,18.608 4.133,17.715L0.281,17.073ZM1.288,27.624L4.946,26.261C5.597,28.002 6.534,29.606 7.702,31.017L4.692,33.501C3.251,31.761 2.093,29.778 1.288,27.624ZM7.449,36.253L9.937,33.248C11.35,34.414 12.957,35.35 14.701,35.999L13.336,39.652C11.178,38.848 9.192,37.692 7.449,36.253ZM17.101,40.657L17.744,36.812C18.639,36.961 19.56,37.039 20.503,37.039C21.445,37.039 22.366,36.961 23.261,36.812L23.904,40.657C22.798,40.842 21.661,40.938 20.503,40.938C19.344,40.938 18.207,40.842 17.101,40.657ZM27.67,39.652L26.304,35.999C28.048,35.35 29.655,34.414 31.068,33.248L33.557,36.253C31.813,37.692 29.827,38.848 27.67,39.652ZM36.313,33.501L33.303,31.017C34.471,29.606 35.408,28.002 36.059,26.261L39.718,27.624C38.912,29.778 37.754,31.761 36.313,33.501Z" style="fill:rgb(215,61,116);"/>
    </g>
</svg>
