<svg width="112" height="112" viewBox="0 0 112 112" fill="none" xmlns="http://www.w3.org/2000/svg">
<path d="M52.7963 2.13842C58.5956 1.65004 64.233 2.49704 69.8185 4.00149C80.3678 6.89067 89.9065 13.3677 96.5856 22.003C101.303 28.0208 104.586 35.0326 106.186 42.5064C107.655 48.5835 107.83 54.8626 106.988 61.0456C105.244 57.7927 103.329 54.6266 101.543 51.3962C101.221 50.6925 101.296 49.791 101.191 49.031C100.527 41.4817 97.7472 34.3456 93.5566 28.0667C90.34 23.4362 86.3384 19.4024 81.7321 16.1471C77.252 13.0815 72.2805 10.8028 67.0321 9.4095C59.965 7.66234 52.5806 7.64068 45.5033 9.34636C40.161 10.7298 35.1006 13.0312 30.5484 16.1476C24.4973 20.4525 19.283 26.1645 15.9218 32.8053C13.2478 37.9468 11.5244 43.5522 11.0628 49.335C10.9807 49.9959 11.0321 50.788 10.7379 51.3968C8.95123 54.6256 7.03632 57.7917 5.29249 61.0461C4.43928 54.7964 4.63591 48.4474 6.14054 42.3087C8.74261 30.1432 16.1081 19.0998 26.2109 11.8548C33.9609 6.14624 43.2328 2.95811 52.7963 2.13842Z" fill="white"/>
<path d="M49.7589 24.3857C49.9194 25.3232 49.7435 26.1702 49.68 27.106C49.4767 30.0106 49.2339 32.9153 49.0321 35.8199C48.9739 36.1666 48.91 36.5102 48.8406 36.8508C48.391 36.6084 47.8014 35.8621 47.2537 36.0398C45.3217 36.4308 43.3913 36.8526 41.4544 37.2454C40.3599 37.4059 39.7464 38.4253 39.0417 39.1664L38.83 39.1818C39.1034 36.7057 39.5342 34.2501 39.8061 31.7759C38.8844 32.3889 38.2263 33.2479 37.3629 33.9308C36.0297 33.5637 34.6875 33.2256 33.3364 32.9166C30.6949 34.4773 28.0724 36.0706 25.4221 37.6176C25.8529 36.7433 26.2393 35.6061 27.1541 35.1416C29.1681 33.919 31.1565 32.6554 33.1689 31.4293C33.4852 31.2072 33.8011 31.0813 33.9007 30.671C34.3538 29.2657 34.67 27.8125 35.1368 26.4123C35.3214 25.818 35.7967 25.818 36.3216 25.7412C40.8035 25.3079 45.2792 24.804 49.7589 24.3857Z" fill="white"/>
<path d="M62.2571 24.4097C66.7008 24.7768 71.1529 25.3233 75.5966 25.7369C76.14 25.8121 76.6477 25.7984 76.8393 26.4132C77.308 27.8117 77.6244 29.2665 78.0755 30.6719C78.1766 31.0817 78.4928 31.2098 78.8073 31.4301C80.82 32.6562 82.8069 33.9198 84.8222 35.1425C85.737 35.6064 86.1235 36.7459 86.5542 37.6185C83.9039 36.0697 81.2815 34.4765 78.6399 32.9174C77.2908 33.2267 75.9486 33.5648 74.6132 33.9317C73.7501 33.2487 73.0883 32.3897 72.17 31.7733C72.4437 34.2474 72.8627 36.6997 73.1514 39.1706L72.9327 39.1587C72.2212 38.4278 71.6077 37.405 70.5201 37.2461C68.5848 36.855 66.6542 36.4333 64.7207 36.0405C64.1736 35.8612 63.5872 36.6057 63.1412 36.8533C63.0676 36.5097 63.0009 36.1647 62.9409 35.8185C62.7188 32.6952 62.4846 29.5731 62.2381 26.4522C62.2148 25.815 62.0081 25.0108 62.2571 24.4097Z" fill="white"/>
<path d="M34.3027 27.0222C34.0987 28.1162 33.8246 29.1959 33.482 30.2547C32.8498 30.8318 32.0628 31.2536 31.3636 31.7505C29.96 32.6525 28.6383 33.7074 27.1697 34.4997C27.6416 33.4257 28.1115 32.3105 29.0572 31.5678C30.8166 30.0703 32.5057 28.4792 34.3027 27.0222Z" fill="white"/>
<path d="M50.7928 26.9795C51.1669 27.3431 51.4379 27.7632 51.4817 28.2961C51.5637 29.5017 51.4301 30.7243 51.5242 31.9299C51.6647 32.659 51.9707 33.3626 52.208 34.0644C51.2625 36.1852 50.8282 38.5264 50.0811 40.7275C49.9083 41.361 49.5134 42.1517 49.823 42.7818C50.2301 43.3624 50.8864 43.7705 51.2541 44.3717C51.297 46.7843 51.297 49.216 51.2506 51.6322C50.8129 52.5271 49.2298 53.2596 49.2333 54.3696C49.1751 56.4223 49.2452 58.4802 49.2057 60.5308C48.7749 60.5342 48.3425 60.5376 47.9117 60.5426C47.0086 56.2258 46.2394 51.88 45.371 47.5546C45.325 47.1481 45.1316 46.6478 45.2702 46.255C46.1265 45.1026 47.2792 44.112 48.0485 42.8945C47.4619 42.8636 46.7147 42.6368 46.1557 42.8399C45.4239 43.7107 44.5538 44.5924 43.9897 45.5685C44.0597 46.4123 44.306 47.1922 44.4082 48.0243C44.3331 48.5074 43.7469 48.9037 43.439 49.2743C42.7738 50.2304 41.2899 49.7627 40.2758 49.8293C40.2381 47.8232 40.302 45.8164 40.4673 43.8168C39.0175 44.2605 37.6618 44.9608 36.2377 45.4748C36.2308 45.0071 36.2223 44.5409 36.2171 44.0727C33.0831 45.86 30.0604 47.8754 26.894 49.6C27.159 48.9751 27.6682 48.698 28.1575 48.2683C31.0145 45.8675 33.864 43.4575 36.7061 41.0383C37.0363 40.7384 37.4578 40.558 37.9029 40.5261C41.9685 39.8947 46.0242 39.206 50.09 38.5692C50.4266 34.7265 50.548 30.8349 50.7928 26.9795Z" fill="white"/>
<path d="M61.1887 26.9827C61.4228 30.8368 61.5629 34.7165 61.8811 38.5654C66.0355 39.2245 70.1799 39.9127 74.3348 40.5756C74.7143 40.6234 74.9878 40.8027 75.2735 41.0395C78.1218 43.4526 80.9713 45.8625 83.8219 48.2694C84.3109 48.6996 84.8256 48.9731 85.0837 49.6015C81.9206 47.8748 78.8961 45.8618 75.7624 44.0734C75.7556 44.5412 75.7467 45.0074 75.7418 45.4752C74.3157 44.9631 72.9617 44.2612 71.5118 43.8171C71.6774 45.8168 71.7413 47.8235 71.7032 49.8296C70.8825 49.8502 70.0347 49.9149 69.221 49.8143C68.6003 49.4555 68.096 48.8069 67.6257 48.2722C67.4529 47.386 68.1576 46.2146 67.8995 45.3593C67.2634 44.5088 66.5351 43.6326 65.8239 42.8423C65.2698 42.6353 64.5226 42.8625 63.9395 42.8901C64.6934 44.1194 65.8546 45.0962 66.7077 46.2525C66.8478 46.6433 66.653 47.1456 66.6065 47.5518C65.738 51.8771 64.9686 56.2232 64.0661 60.5397C63.6354 60.5362 63.2026 60.5313 62.7718 60.5279C62.7323 58.4755 62.8024 56.4172 62.7446 54.3671C62.7481 53.2552 61.1611 52.5243 60.7269 51.6297C60.6809 49.2132 60.6844 46.7818 60.7234 44.3688C61.091 43.7675 61.7478 43.3579 62.1545 42.7789C62.4641 42.1475 62.0691 41.3583 61.8964 40.7249C61.1493 38.5238 60.715 36.1843 59.7695 34.0617C60.0073 33.36 60.3134 32.653 60.4533 31.9273C60.5475 30.72 60.4139 29.4991 60.4962 28.2934C60.5442 27.763 60.8074 27.3448 61.1887 26.9827Z" fill="white"/>
<path d="M77.6787 27.0222C79.4721 28.4783 81.1612 30.0703 82.9205 31.5696C83.866 32.3123 84.3397 33.4308 84.8081 34.5015C83.5892 33.8701 82.5055 32.9903 81.3493 32.2492C80.4142 31.5729 79.368 31.0077 78.4961 30.2547C78.1529 29.1963 77.8798 28.1165 77.6787 27.0222V27.0222Z" fill="white"/>
<path d="M52.7588 34.9932C54.9166 34.9416 57.0776 34.9897 59.2355 34.9727C59.8992 37.1004 60.4667 39.2622 61.1708 41.3779C60.6083 41.2072 60.21 40.8521 59.7723 40.4888C59.1354 41.0236 58.5435 41.6098 58.0026 42.2413C58.5498 42.8579 59.145 43.4213 59.7347 43.9984C59.7141 46.657 59.7007 49.3228 59.7347 51.9813C60.2904 52.8061 61.1574 53.4504 61.841 54.1791C61.8616 58.4532 61.8291 62.7257 61.8567 66.9999L61.6495 66.9111C60.5624 65.0206 59.5349 63.0569 58.3003 61.2556C58.2662 65.7362 58.1971 70.25 58.3466 74.727C57.5068 77.5719 56.7666 80.4492 55.9903 83.3108C55.2042 80.4525 54.4705 77.5733 53.6293 74.73C53.7779 70.2527 53.7077 65.7396 53.6752 61.2589C52.4597 63.0501 51.3928 64.9983 50.3565 66.9042L50.126 67.0201C50.1344 62.7372 50.1191 58.4581 50.1344 54.1771C50.8182 53.4478 51.6849 52.8059 52.2406 51.9829C52.2751 49.3205 52.2613 46.655 52.2406 43.9946C52.8307 43.4209 53.4254 42.8556 53.9727 42.2409C53.4319 41.6093 52.84 41.0232 52.2031 40.4884C51.7653 40.8522 51.3671 41.2073 50.8045 41.3815C51.528 39.2724 52.0477 37.0969 52.7588 34.9932Z" fill="white"/>
<path d="M39.0427 38.939C39.7473 38.198 40.3608 37.1785 41.4554 37.018C43.3907 36.6269 45.3208 36.2051 47.2547 35.8124C47.8019 35.6331 48.3916 36.3794 48.8416 36.6234C48.9117 36.2798 48.9756 35.9362 49.0331 35.5925C49.0366 35.9836 49.0415 36.3786 49.0518 36.7725" fill="white"/>
<path d="M62.9413 35.5903C63.0029 35.937 63.0696 36.2819 63.1411 36.6252C63.5877 36.3759 64.1733 35.633 64.7211 35.8124C66.6546 36.2035 68.583 36.6252 70.5204 37.018C71.6075 37.1751 72.2214 38.198 72.9331 38.9305C72.3746 38.9447 71.8163 38.8977 71.2681 38.7905C69.0351 38.2833 66.804 37.7607 64.5609 37.2828C64.0037 37.1635 63.4575 36.9979 62.928 36.7876C62.9373 36.3862 62.9448 35.9883 62.9413 35.5903Z" fill="white"/>
<path d="M52.2426 40.2322C52.9284 40.8241 53.5641 41.4714 54.1434 42.1675C53.5561 42.8486 52.9168 43.4708 52.2834 44.1046C51.6139 43.5088 50.9792 42.8752 50.3826 42.2067C50.5035 41.8785 50.6249 41.5464 50.7424 41.2182C51.3448 41.0278 51.7729 40.6354 52.2426 40.2322Z" fill="white"/>
<path d="M59.6405 40.2322C60.1565 40.6499 60.6262 41.0579 61.2895 41.254C61.4185 41.5993 61.5518 41.9443 61.6845 42.2857C61.0279 42.9843 60.3312 43.6443 59.598 44.2624C58.9026 43.5996 58.201 42.9524 57.5562 42.2445C58.1941 41.5173 58.8912 40.8443 59.6405 40.2322V40.2322Z" fill="white"/>
<path d="M39.5986 45.4524C38.6363 47.7797 37.5044 50.0543 36.4376 52.3357C36.0906 52.0745 35.6683 51.4466 35.2305 51.4066C33.714 52.7453 32.2796 54.1967 30.8181 55.5955C30.7793 56.388 30.7599 57.1766 30.7907 57.9691C29.8212 58.4132 28.7612 58.425 27.7816 58.8434C28.0704 59.2447 28.3594 59.6478 28.6381 60.0574L28.3526 60.2881C27.8961 61.5927 27.6842 62.9742 27.2499 64.2926C26.672 62.9929 25.7692 61.8608 25.0529 60.6296C25.4153 59.9893 25.9283 59.5093 26.4088 58.9628C24.8768 58.7902 23.333 58.7291 21.7993 58.5685C20.7086 58.3584 19.6074 59.2753 18.6383 59.7193C17.5526 60.223 17.1804 61.2527 16.597 62.2142L16.4242 62.262C16.2721 61.8523 16.1199 61.4423 15.9661 61.0357C16.7468 59.0057 17.6649 57.0266 18.4991 55.0164C18.6786 54.4309 19.2257 54.3831 19.7147 54.1273C26.0595 51.3646 32.3872 48.5573 38.7266 45.7806C39.0158 45.6675 39.3064 45.5581 39.5986 45.4524Z" fill="white"/>
<path d="M72.3813 45.449C73.2567 45.7615 74.0973 46.1474 74.946 46.5229C80.4305 48.9359 85.9159 51.3488 91.402 53.7615C92.0227 54.0433 92.6928 54.2617 93.2742 54.624C93.8915 55.8414 94.3529 57.1375 94.9154 58.3822C95.2624 59.26 95.7548 60.1218 95.9704 61.0411C95.8916 61.5123 95.6694 61.9119 95.4385 62.3216C94.8725 61.362 94.4179 60.2027 93.3392 59.7177C92.3611 59.2686 91.279 58.3634 90.1782 58.5668C88.6429 58.7103 87.0993 58.7664 85.5707 58.9646C86.0636 59.4773 86.5184 60.0252 86.9317 60.6039C86.217 61.8523 85.3023 62.9844 84.7263 64.2925C84.2886 62.9722 84.078 61.5823 83.6168 60.2762L83.3345 60.054C83.6168 59.6479 83.9058 59.2466 84.1945 58.8435C83.2184 58.4216 82.155 58.4148 81.1854 57.9692C81.2164 57.1767 81.1977 56.3881 81.1582 55.5956C79.6995 54.1973 78.2619 52.7458 76.7485 51.4067C76.3143 51.4343 75.8854 52.0814 75.5416 52.3391C74.5689 50.348 73.6732 48.3178 72.7189 46.3198C72.6 46.0326 72.4905 45.7412 72.3813 45.449Z" fill="white"/>
<path d="M19.5314 48.7615C19.3616 49.4627 19.1369 50.1496 18.8595 50.8158C17.7328 53.8419 16.6267 56.878 15.4982 59.9004C15.2947 60.4674 15.0177 61.0473 14.9356 61.6457C15.2212 62.7709 15.6127 63.8709 15.8964 64.9996C11.9484 72.7054 7.95476 80.3971 4.04469 88.1223C4.04133 87.4067 4.05152 86.6689 3.91141 85.9671C3.42242 85.3421 2.75733 84.8231 2.15674 84.2972C2.67282 83.3444 3.08336 82.342 3.51764 81.3499C7.82785 71.5823 12.1328 61.8136 16.4325 52.0438C16.5638 51.7877 16.5889 51.4903 16.5026 51.2158C17.2599 50.5513 18.0431 49.9283 18.7733 49.233C19.023 49.0705 19.2757 48.9134 19.5314 48.7615Z" fill="white"/>
<path d="M92.4519 48.7549C93.5548 49.407 94.4333 50.4026 95.4423 51.1897C95.3209 51.834 95.6882 52.3134 95.9157 52.8956C100.106 62.3747 104.287 71.86 108.458 81.3514C108.896 82.347 109.306 83.3509 109.823 84.3106C109.202 84.8143 108.568 85.3421 108.063 85.9686C107.927 86.6705 107.935 87.4083 107.933 88.1206C104.02 80.3985 100.031 72.7073 96.0814 65.001C96.3635 63.8723 96.7534 62.7727 97.0422 61.644C96.9568 61.0497 96.6834 60.4691 96.48 59.9022C95.2094 56.5024 93.9752 53.0855 92.6927 49.6856C92.6058 49.3779 92.5235 49.0674 92.4519 48.7549Z" fill="white"/>
<path d="M16.6828 51.2173C16.7265 51.3531 16.7427 51.4963 16.7305 51.6384C16.7184 51.7805 16.6781 51.9189 16.612 52.0453C12.2538 61.8094 7.90236 71.578 3.55766 81.3509C3.119 82.3431 2.70394 83.3455 2.18206 84.2982C1.78287 84.3927 1.38364 84.4929 0.984365 84.5988C0.65601 84.7048 0.327655 84.8173 0.000976562 84.9339C0.00962089 84.4385 0.325848 83.9502 0.514217 83.4977C4.90334 73.7067 9.30911 63.8316 13.6986 54.0433C14.4366 52.9438 15.7742 52.206 16.6828 51.2173Z" fill="white"/>
<path d="M35.6745 49.895C36.1742 49.9404 36.6564 50.6637 37.0527 50.9646C35.7175 52.7158 33.9412 54.1088 32.6041 55.8449C32.5138 56.8293 32.5768 57.8219 32.4577 58.8067C31.0288 59.1841 29.5962 59.5437 28.1476 59.8505C27.8275 59.3786 27.4996 58.9146 27.1697 58.4528C28.2862 57.9712 29.4984 57.9576 30.6052 57.4464C30.5701 56.5347 30.5915 55.6265 30.6364 54.7145C32.3053 53.1047 33.9431 51.4358 35.6745 49.895Z" fill="white"/>
<path d="M77.0201 50.7556C78.8732 52.2449 80.6343 53.8597 82.4202 55.4159C82.4684 56.2975 82.4915 57.1749 82.454 58.0566C83.641 58.5523 84.9441 58.5599 86.1389 59.0294C85.7853 59.4774 85.4312 59.9242 85.086 60.3761C83.534 60.0816 81.9994 59.7301 80.4626 59.3693C80.3387 58.4174 80.4058 57.4579 80.3097 56.5064C78.8792 54.8312 76.9718 53.4797 75.5417 51.7931C75.9648 51.504 76.4885 50.7863 77.0201 50.7556Z" fill="white"/>
<path d="M95.2667 51.1902C96.1839 52.1921 97.5333 52.9404 98.2831 54.0509C102.648 63.8119 107.008 73.5859 111.366 83.3729C111.596 83.9053 111.922 84.4534 111.998 85.0224C111.281 84.7632 110.546 84.5565 109.799 84.4038C109.277 83.4415 108.862 82.4347 108.42 81.4363C104.19 71.9238 99.9656 62.4119 95.7451 52.9005C95.5155 52.3151 95.144 51.8356 95.2667 51.1902Z" fill="white"/>
<path d="M22.4563 58.1166C24.2301 58.302 26.0138 58.373 27.7816 58.5721C27.2268 59.2023 26.6333 59.7562 26.2152 60.4951C25.1861 59.6932 23.3509 59.9827 22.0967 59.841C20.1314 60.1145 18.4247 61.9573 16.4436 62.3236C17.1172 61.2145 17.5497 60.0264 18.8021 59.4447C19.926 58.9325 21.196 57.8743 22.4563 58.1166Z" fill="white"/>
<path d="M90.1365 58.3275C91.3733 58.0981 92.5906 59.1201 93.6925 59.6273C94.906 60.1751 95.4195 61.4847 96.0545 62.5685C94.1983 61.9689 92.6561 60.6498 90.831 60.0326C89.4944 60.1116 87.6343 59.8744 86.4863 60.6287C86.0212 59.9756 85.5095 59.3569 84.9553 58.7773C86.6744 58.5534 88.4112 58.4882 90.1365 58.3275Z" fill="white"/>
<path d="M21.4855 60.8535C22.4208 60.8891 23.3692 60.8772 24.2997 60.9866C24.5972 61.171 24.7613 61.5638 24.9563 61.8487C25.6367 63.0271 26.3445 64.1832 27.0233 65.3632C26.4967 65.2025 25.835 64.7826 25.2879 64.8408C24.3698 65.8482 23.6038 66.9991 22.7267 68.0425C22.3898 68.5064 21.8821 68.9765 21.7299 69.5383C21.6205 70.4979 21.7094 71.4166 21.846 72.3678C21.7024 72.5503 21.5605 72.7349 21.4169 72.9209C20.5359 71.6713 19.7193 70.3776 18.9703 69.0449C18.1722 67.0924 17.5085 65.0813 16.7344 63.1192C17.926 62.4208 19.157 61.7958 20.3659 61.1316C20.6973 60.9161 21.0917 60.8182 21.4855 60.8535V60.8535Z" fill="white"/>
<path d="M87.879 60.961C88.9272 60.9067 89.9941 60.8244 91.0422 60.8791C92.4733 61.5435 93.8599 62.3512 95.2431 63.1231C94.469 65.0833 93.8052 67.0966 93.0067 69.0484C92.2633 70.3815 91.4453 71.6717 90.5566 72.9129C90.4165 72.7335 90.2744 72.5576 90.1342 72.3782C90.2245 71.1283 90.6726 69.5404 89.6568 68.5566C88.6397 67.3461 87.7387 66.0262 86.687 64.8444C86.1589 64.7694 85.4715 65.22 84.9553 65.3727C85.6595 64.1228 86.4132 62.9016 87.1336 61.6601C87.3338 61.3947 87.4842 60.9427 87.879 60.961Z" fill="white"/>
<path d="M54.0914 60.5417C54.1301 65.2604 54.2075 70.013 54.0398 74.7293C52.822 71.8557 52.928 68.6237 52.3643 65.5002C51.7189 65.875 51.0484 66.2049 50.3574 66.4874C51.5248 64.4809 52.7236 62.429 54.0914 60.5417Z" fill="white"/>
<path d="M58.0014 60.3765C59.346 62.2938 60.4633 64.3854 61.6495 66.4009C60.9417 66.1561 60.3124 65.7735 59.6776 65.386C59.1246 68.5509 59.2343 71.8162 58.0519 74.7265C57.888 69.9567 57.9642 65.1492 58.0014 60.3765Z" fill="white"/>
<path d="M24.8425 64.3447C25.4177 64.2824 26.1132 64.7327 26.6667 64.9049C26.1167 65.9504 25.3727 66.8149 24.6916 67.7688C23.5375 69.3252 22.4558 70.9219 21.2229 72.4159C21.0791 71.3979 20.9856 70.4109 21.1007 69.3819C21.2607 68.7795 21.7944 68.2758 22.1484 67.778C23.0722 66.6591 23.8773 65.425 24.8425 64.3447Z" fill="white"/>
<path d="M86.9559 64.5756C88.1708 65.7974 89.2096 67.1657 90.3868 68.4195C91.5601 69.4375 91.0429 71.0824 90.9381 72.3766C89.3224 70.6456 87.9001 68.7676 86.3636 66.9803C85.8442 66.4002 85.3732 65.7786 84.9553 65.1217C85.5517 64.9645 86.3436 64.4975 86.9559 64.5756Z" fill="white"/>
<path d="M51.5107 67.2348C50.7958 67.7144 49.8659 68.2968 49.356 67.2107C49.0037 65.7508 49.3595 64.0652 49.1764 62.554C48.8895 62.5239 48.5994 62.5541 48.3249 62.6428C46.7537 65.7454 45.3039 68.9474 43.782 72.0791C43.2263 73.1294 43.0403 74.1675 41.9577 74.8317C41.6843 75.6701 41.657 76.6981 41.2706 77.47C38.9213 78.5869 36.5294 79.6712 34.129 80.6667C34.2777 80.2379 34.4265 79.8081 34.5753 79.3773C32.3783 80.6731 30.2378 82.0705 28.0562 83.3952C27.516 83.6752 27.424 84.1723 27.2046 84.6879C26.8062 85.7688 26.3806 86.8399 25.9822 87.9202C26.9036 87.5312 28.0304 86.7268 29.058 86.9674C30.0667 87.1074 31.067 87.3153 32.0842 87.4164C32.4125 87.1039 32.7441 86.7949 33.069 86.4789C34.0196 86.6223 34.9599 86.7949 35.8945 87.0221C36.7614 87.1517 37.3751 88.0108 38.0129 88.5711C40.2644 86.5524 42.3981 84.3907 44.604 82.3246C45.5031 81.5119 46.3085 80.5606 47.2934 79.8534C47.7824 80.0841 48.2661 80.3334 48.7482 80.5759C49.3705 76.804 49.9694 73.0262 50.545 69.2425C51.0739 69.461 51.4258 69.8469 51.8512 70.2105C51.7086 69.2222 51.565 68.2334 51.5107 67.2348ZM48.3288 72.3695C47.2806 72.7332 46.2188 73.056 45.1519 73.3685C46.0668 72.1151 47.2757 71.0851 48.2706 69.8865C48.5134 69.6749 48.7625 69.4683 49.0178 69.2665C48.8602 70.3202 48.5784 71.3379 48.3288 72.3695Z" fill="white"/>
<path d="M84.2786 83.6554C82.0184 82.192 79.7086 80.7662 77.4005 79.3759C77.5492 79.8062 77.698 80.2384 77.8467 80.6686C75.7049 79.8165 73.6339 78.7834 71.5139 77.8785C71.2335 77.7145 70.7717 77.6119 70.606 77.3236C70.3598 76.5073 70.2506 75.6533 70.0197 74.8322C69.6092 74.501 69.199 74.2394 68.9834 73.7341C67.2173 70.0185 65.4343 66.3096 63.675 62.5954C63.3892 62.5681 63.1017 62.5618 62.815 62.5768C62.6694 63.9701 62.8422 65.3988 62.7414 66.7962C62.656 67.2915 62.4369 67.6911 61.9242 67.8345C61.3257 67.8548 60.9477 67.5253 60.469 67.2367C60.4143 68.2358 60.2707 69.2244 60.1221 70.2112C60.541 69.8475 60.9033 69.4615 61.4283 69.2432C62.0027 73.0255 62.6016 76.8033 63.225 80.5766C63.7091 80.3341 64.1912 80.0813 64.6802 79.8541C65.607 80.5135 66.3693 81.408 67.2138 82.1764C69.4689 84.2957 71.6575 86.4949 73.9554 88.5714C74.5965 88.0183 75.2173 87.1539 76.0788 87.0227C77.014 86.7956 77.9541 86.6215 78.9044 86.4796C79.2291 86.7956 79.5607 87.1046 79.8889 87.4171C80.9064 87.3164 81.9067 87.1078 82.9153 86.968C83.9121 86.7309 84.9825 87.5061 85.9086 87.8388C85.4486 86.4424 84.9541 84.9605 84.2786 83.6554ZM63.6493 72.3698C63.3997 71.3389 63.1174 70.317 62.9586 69.2668C63.2133 69.4669 63.4623 69.6735 63.7057 69.8868C64.6992 71.0819 65.9062 72.1169 66.824 73.3688C65.7624 73.0593 64.699 72.7369 63.6493 72.3698Z" fill="white"/>
<path d="M14.7815 76.0201C19.4865 86.5255 28.3208 95.1677 38.9653 99.58C46.1222 102.68 54.1939 103.691 61.9133 102.68C68.7726 101.872 75.4715 99.1231 81.2175 95.3404C88.2652 90.4953 94.0217 83.8311 97.5045 76C98.5764 77.9158 99.4011 79.9887 100.392 81.9494C100.493 82.2531 100.842 82.675 100.686 82.9873C93.6352 95.535 81.0536 104.893 66.928 107.838C61.0927 109.257 55.0337 109.508 49.1008 108.576C44.6571 107.841 40.2204 106.699 36.0778 104.906C26.4931 100.775 18.3812 93.8488 12.805 85.0347C12.4067 84.2919 11.7878 83.5785 11.5347 82.7773C12.2118 81.174 13.0205 79.618 13.7436 78.0335C14.0907 77.3711 14.3198 76.606 14.7815 76.0201Z" fill="white"/>
<path d="M47.2972 79.3459C47.7862 79.5878 48.2699 79.8494 48.752 80.1038C45.5361 83.3458 42.3186 86.6183 39.0735 89.8246C38.6821 90.213 38.4358 90.2347 37.9123 90.1396C36.8916 90.0573 36.2505 88.9111 35.4263 88.3502C34.9852 88.1569 34.421 88.2355 33.9457 88.2323C34.0489 88.637 34.1521 89.0441 34.2553 89.452C32.125 89.1118 30.0106 88.678 27.8798 88.3342C27.2281 88.2404 26.591 88.0641 25.9839 87.8095C26.9053 87.4011 28.0321 86.5574 29.0597 86.8102C30.0684 86.957 31.0687 87.1752 32.0859 87.2812C32.4142 86.9534 32.7458 86.6293 33.0707 86.2978C34.0213 86.4483 34.9616 86.6293 35.8962 86.8671C36.7631 87.0036 37.3768 87.9042 38.0146 88.4919C40.2661 86.3749 42.4 84.107 44.6057 81.9398C45.5088 81.083 46.3142 80.0878 47.2972 79.3459Z" fill="white"/>
<path d="M64.6802 79.3462C65.6065 80.0378 66.3693 80.9761 67.2137 81.7817C69.4688 84.0046 71.6574 86.3114 73.9551 88.4894C74.5966 87.9095 75.2169 87.0029 76.0785 86.8649C77.0141 86.6267 77.9542 86.4441 78.9051 86.2952C79.2298 86.6267 79.5614 86.9508 79.8896 87.2786C80.9071 87.173 81.907 86.9545 82.9161 86.8076C83.9129 86.5589 84.9828 87.3716 85.9093 87.7211L85.9128 87.9128C83.2199 88.572 80.4451 88.9437 77.7167 89.4513C77.8258 89.0429 77.9269 88.6365 78.0296 88.2318C77.5558 88.2318 76.9899 88.1544 76.5487 88.3497C75.5552 89.0465 75.0989 90.1482 73.7655 90.1767C73.2543 90.2841 72.9325 89.824 72.584 89.5211C69.4654 86.3976 66.3214 83.2431 63.2234 80.1035C63.7071 79.8496 64.1913 79.5845 64.6802 79.3462Z" fill="white"/>
<path d="M0.98055 84.3792C1.37879 84.2676 1.77703 84.162 2.17527 84.0625C2.7787 84.6166 3.44921 85.1618 3.944 85.8222C4.08593 86.5616 4.07496 87.3386 4.07844 88.0926C3.99574 88.2904 3.90956 88.4921 3.82673 88.6935C3.2682 88.4416 2.9441 87.9867 2.53034 87.5495C1.68771 86.6034 0.8016 85.7147 0 84.7323C0.324098 84.6103 0.653356 84.4913 0.98055 84.3792Z" fill="white"/>
<path d="M109.589 84.26C110.406 84.4134 111.211 84.6217 112 84.8833C111.1 85.8196 110.125 86.6831 109.194 87.5954C108.732 88.0168 108.386 88.4554 107.77 88.6923C107.679 88.499 107.584 88.3089 107.493 88.1154C107.497 87.393 107.486 86.6472 107.637 85.9387C108.198 85.3031 108.903 84.7695 109.589 84.26Z" fill="white"/>
</svg>
