<svg fill="none" height="112" viewBox="0 0 112 112" width="112" xmlns="http://www.w3.org/2000/svg"><g fill="#fff"><path d="m52.7963 2.13842c5.7993-.48838 11.4367.35862 17.0222 1.86307 10.5493 2.88918 20.088 9.36621 26.7671 18.00151 4.7174 6.0178 8.0004 13.0296 9.6004 20.5034 1.469 6.0771 1.644 12.3562.802 18.5392-1.744-3.2529-3.659-6.419-5.445-9.6494-.322-.7037-.247-1.6052-.352-2.3652-.664-7.5493-3.4438-14.6854-7.6344-20.9643-3.2166-4.6305-7.2182-8.6643-11.8245-11.9196-4.4801-3.0656-9.4516-5.3443-14.7-6.7376-7.0671-1.74716-14.4515-1.76882-21.5288-.06314-5.3423 1.38344-10.4027 3.68484-14.9549 6.80124-6.0511 4.3049-11.2654 10.0169-14.6266 16.6577-2.674 5.1415-4.3974 10.7469-4.859 16.5297-.0821.6609-.0307 1.453-.3249 2.0618-1.78667 3.2288-3.70158 6.3949-5.44541 9.6493-.85321-6.2497-.65658-12.5987.84805-18.7374 2.60207-12.1655 9.96756-23.2089 20.07036-30.4539 7.75-5.70856 17.0219-8.89669 26.5854-9.71638z"/><path d="m49.7589 24.3857c.1605.9375-.0154 1.7845-.0789 2.7203-.2033 2.9046-.4461 5.8093-.6479 8.7139-.0582.3467-.1221.6903-.1915 1.0309-.4496-.2424-1.0392-.9887-1.5869-.811-1.932.391-3.8624.8128-5.7993 1.2056-1.0945.1605-1.708 1.1799-2.4127 1.921l-.2117.0154c.2734-2.4761.7042-4.9317.9761-7.4059-.9217.613-1.5798 1.472-2.4432 2.1549-1.3332-.3671-2.6754-.7052-4.0265-1.0142-2.6415 1.5607-5.264 3.154-7.9143 4.701.4308-.8743.8172-2.0115 1.732-2.476 2.014-1.2226 4.0024-2.4862 6.0148-3.7123.3163-.2221.6322-.348.7318-.7583.4531-1.4053.7693-2.8585 1.2361-4.2587.1846-.5943.6599-.5943 1.1848-.6711 4.4819-.4333 8.9576-.9372 13.4373-1.3555z"/><path d="m62.2571 24.4097c4.4437.3671 8.8958.9136 13.3395 1.3272.5434.0752 1.0511.0615 1.2427.6763.4687 1.3985.7851 2.8533 1.2362 4.2587.1011.4098.4173.5379.7318.7582 2.0127 1.2261 3.9996 2.4897 6.0149 3.7124.9148.4639 1.3013 1.6034 1.732 2.476-2.6503-1.5488-5.2727-3.142-7.9143-4.7011-1.3491.3093-2.6913.6474-4.0267 1.0143-.8631-.683-1.5249-1.542-2.4432-2.1584.2737 2.4741.6927 4.9264.9814 7.3973l-.2187-.0119c-.7115-.7309-1.325-1.7537-2.4126-1.9126-1.9353-.3911-3.8659-.8128-5.7994-1.2056-.5471-.1793-1.1335.5652-1.5795.8128-.0736-.3436-.1403-.6886-.2003-1.0348-.2221-3.1233-.4563-6.2454-.7028-9.3663-.0233-.6372-.23-1.4414.019-2.0425z"/><path d="m34.3027 27.0222c-.204 1.094-.4781 2.1737-.8207 3.2325-.6322.5771-1.4192.9989-2.1184 1.4958-1.4036.902-2.7253 1.9569-4.1939 2.7492.4719-1.074.9418-2.1892 1.8875-2.9319 1.7594-1.4975 3.4485-3.0886 5.2455-4.5456z"/><path d="m50.7928 26.9795c.3741.3636.6451.7837.6889 1.3166.082 1.2056-.0516 2.4282.0425 3.6338.1405.7291.4465 1.4327.6838 2.1345-.9455 2.1208-1.3798 4.462-2.1269 6.6631-.1728.6335-.5677 1.4242-.2581 2.0543.4071.5806 1.0634.9887 1.4311 1.5899.0429 2.4126.0429 4.8443-.0035 7.2605-.4377.8949-2.0208 1.6274-2.0173 2.7374-.0582 2.0527.0119 4.1106-.0276 6.1612-.4308.0034-.8632.0068-1.294.0118-.9031-4.3168-1.6723-8.6626-2.5407-12.988-.046-.4065-.2394-.9068-.1008-1.2996.8563-1.1524 2.009-2.143 2.7783-3.3605-.5866-.0309-1.3338-.2577-1.8928-.0546-.7318.8708-1.6019 1.7525-2.166 2.7286.07.8438.3163 1.6237.4185 2.4558-.0751.4831-.6613.8794-.9692 1.25-.6652.9561-2.1491.4884-3.1632.555-.0377-2.0061.0262-4.0129.1915-6.0125-1.4498.4437-2.8055 1.144-4.2296 1.658-.0069-.4677-.0154-.9339-.0206-1.4021-3.134 1.7873-6.1567 3.8027-9.3231 5.5273.265-.6249.7742-.902 1.2635-1.3317 2.857-2.4008 5.7065-4.8108 8.5486-7.23.3302-.2999.7517-.4803 1.1968-.5122 4.0656-.6314 8.1213-1.3201 12.1871-1.9569.3366-3.8427.458-7.7343.7028-11.5897z"/><path d="m61.1887 26.9827c.2341 3.8541.3742 7.7338.6924 11.5827 4.1544.6591 8.2988 1.3473 12.4537 2.0102.3795.0478.653.2271.9387.4639 2.8483 2.4131 5.6978 4.823 8.5484 7.2299.489.4302 1.0037.7037 1.2618 1.3321-3.1631-1.7267-6.1876-3.7397-9.3213-5.5281-.0068.4678-.0157.934-.0206 1.4018-1.4261-.5121-2.7801-1.214-4.23-1.6581.1656 1.9997.2295 4.0064.1914 6.0125-.8207.0206-1.6685.0853-2.4822-.0153-.6207-.3588-1.125-1.0074-1.5953-1.5421-.1728-.8862.5319-2.0576.2738-2.9129-.6361-.8505-1.3644-1.7267-2.0756-2.517-.5541-.207-1.3013.0202-1.8844.0478.7539 1.2293 1.9151 2.2061 2.7682 3.3624.1401.3908-.0547.8931-.1012 1.2993-.8685 4.3253-1.6379 8.6714-2.5404 12.9879-.4307-.0035-.8635-.0084-1.2943-.0118-.0395-2.0524.0306-4.1107-.0272-6.1608.0035-1.1119-1.5835-1.8428-2.0177-2.7374-.046-2.4165-.0425-4.8479-.0035-7.2609.3676-.6013 1.0244-1.0109 1.4311-1.5899.3096-.6314-.0854-1.4206-.2581-2.054-.7471-2.2011-1.1814-4.5406-2.1269-6.6632.2378-.7017.5439-1.4087.6838-2.1344.0942-1.2073-.0394-2.4282.0429-3.6339.048-.5304.3112-.9486.6925-1.3107z"/><path d="m77.6787 27.0222c1.7934 1.4561 3.4825 3.0481 5.2418 4.5474.9455.7427 1.4192 1.8612 1.8876 2.9319-1.2189-.6314-2.3026-1.5112-3.4588-2.2523-.9351-.6763-1.9813-1.2415-2.8532-1.9945-.3432-1.0584-.6163-2.1382-.8174-3.2325z"/><path d="m52.7588 34.9932c2.1578-.0516 4.3188-.0035 6.4767-.0205.6637 2.1277 1.2312 4.2895 1.9353 6.4052-.5625-.1707-.9608-.5258-1.3985-.8891-.6369.5348-1.2288 1.121-1.7697 1.7525.5472.6166 1.1424 1.18 1.7321 1.7571-.0206 2.6586-.034 5.3244 0 7.9829.5557.8248 1.4227 1.4691 2.1063 2.1978.0206 4.2741-.0119 8.5466.0157 12.8208l-.2072-.0888c-1.0871-1.8905-2.1146-3.8542-3.3492-5.6555-.0341 4.4806-.1032 8.9944.0463 13.4714-.8398 2.8449-1.58 5.7222-2.3563 8.5838-.7861-2.8583-1.5198-5.7375-2.361-8.5808.1486-4.4773.0784-8.9904.0459-13.4711-1.2155 1.7912-2.2824 3.7394-3.3187 5.6453l-.2305.1159c.0084-4.2829-.0069-8.562.0084-12.843.6838-.7293 1.5505-1.3712 2.1062-2.1942.0345-2.6624.0207-5.3279 0-7.9883.5901-.5737 1.1848-1.139 1.7321-1.7537-.5408-.6316-1.1327-1.2177-1.7696-1.7525-.4378.3638-.836.7189-1.3986.8931.7235-2.1091 1.2432-4.2846 1.9543-6.3883z"/><path d="m39.0427 38.939c.7046-.741 1.3181-1.7605 2.4127-1.921 1.9353-.3911 3.8654-.8129 5.7993-1.2056.5472-.1793 1.1369.567 1.5869.811.0701-.3436.134-.6872.1915-1.0309.0035.3911.0084.7861.0187 1.18"/><path d="m62.9413 35.5903c.0616.3467.1283.6916.1998 1.0349.4466-.2493 1.0322-.9922 1.58-.8128 1.9335.3911 3.8619.8128 5.7993 1.2056 1.0871.1571 1.701 1.18 2.4127 1.9125-.5585.0142-1.1168-.0328-1.665-.14-2.233-.5072-4.4641-1.0298-6.7072-1.5077-.5572-.1193-1.1034-.2849-1.6329-.4952.0093-.4014.0168-.7993.0133-1.1973z"/><path d="m52.2426 40.2322c.6858.5919 1.3215 1.2392 1.9008 1.9353-.5873.6811-1.2266 1.3033-1.86 1.9371-.6695-.5958-1.3042-1.2294-1.9008-1.8979.1209-.3282.2423-.6603.3598-.9885.6024-.1904 1.0305-.5828 1.5002-.986z"/><path d="m59.6405 40.2322c.516.4177.9857.8257 1.649 1.0218.129.3453.2623.6903.395 1.0317-.6566.6986-1.3533 1.3586-2.0865 1.9767-.6954-.6628-1.397-1.31-2.0418-2.0179.6379-.7272 1.335-1.4002 2.0843-2.0123z"/><path d="m39.5986 45.4524c-.9623 2.3273-2.0942 4.6019-3.161 6.8833-.347-.2612-.7693-.8891-1.2071-.9291-1.5165 1.3387-2.9509 2.7901-4.4124 4.1889-.0388.7925-.0582 1.5811-.0274 2.3736-.9695.4441-2.0295.4559-3.0091.8743.2888.4013.5778.8044.8565 1.214l-.2855.2307c-.4565 1.3046-.6684 2.6861-1.1027 4.0045-.5779-1.2997-1.4807-2.4318-2.197-3.663.3624-.6403.8754-1.1203 1.3559-1.6668-1.532-.1726-3.0758-.2337-4.6095-.3943-1.0907-.2101-2.1919.7068-3.161 1.1508-1.0857.5037-1.4579 1.5334-2.0413 2.4949l-.1728.0478c-.1521-.4097-.3043-.8197-.4581-1.2263.7807-2.03 1.6988-4.0091 2.533-6.0193.1795-.5855.7266-.6333 1.2156-.8891 6.3448-2.7627 12.6725-5.57 19.0119-8.3467.2892-.1131.5798-.2225.872-.3282z"/><path d="m72.3813 45.449c.8754.3125 1.716.6984 2.5647 1.0739 5.4845 2.413 10.9699 4.8259 16.456 7.2386.6207.2818 1.2908.5002 1.8722.8625.6173 1.2174 1.0787 2.5135 1.6412 3.7582.347.8778.8394 1.7396 1.055 2.6589-.0788.4712-.301.8708-.5319 1.2805-.566-.9596-1.0206-2.1189-2.0993-2.6039-.9781-.4491-2.0602-1.3543-3.161-1.1509-1.5353.1435-3.0789.1996-4.6075.3978.4929.5127.9477 1.0606 1.361 1.6393-.7147 1.2484-1.6294 2.3805-2.2054 3.6886-.4377-1.3203-.6483-2.7102-1.1095-4.0163l-.2823-.2222c.2823-.4061.5713-.8074.86-1.2105-.9761-.4219-2.0395-.4287-3.0091-.8743.031-.7925.0123-1.5811-.0272-2.3736-1.4587-1.3983-2.8963-2.8498-4.4097-4.1889-.4342.0276-.8631.6747-1.2069.9324-.9727-1.9911-1.8684-4.0213-2.8227-6.0193-.1189-.2872-.2284-.5786-.3376-.8708z"/><path d="m19.5314 48.7615c-.1698.7012-.3945 1.3881-.6719 2.0543-1.1267 3.0261-2.2328 6.0622-3.3613 9.0846-.2035.567-.4805 1.1469-.5626 1.7453.2856 1.1252.6771 2.2252.9608 3.3539-3.948 7.7058-7.94164 15.3975-11.85171 23.1227-.00336-.7156.00683-1.4534-.13328-2.1552-.48899-.625-1.15408-1.144-1.75467-1.6699.51608-.9528.92662-1.9552 1.3609-2.9473 4.31021-9.7676 8.61516-19.5363 12.91486-29.3061.1313-.2561.1564-.5535.0701-.828.7573-.6645 1.5405-1.2875 2.2707-1.9828.2497-.1625.5024-.3196.7581-.4715z"/><path d="m92.4519 48.7549c1.1029.6521 1.9814 1.6477 2.9904 2.4348-.1214.6443.2459 1.1237.4734 1.7059 4.1903 9.4791 8.3713 18.9644 12.5423 28.4558.438.9956.848 1.9995 1.365 2.9592-.621.5037-1.255 1.0315-1.76 1.658-.136.7019-.128 1.4397-.13 2.152-3.913-7.7221-7.902-15.4133-11.8516-23.1196.2821-1.1287.672-2.2283.9608-3.357-.0854-.5943-.3588-1.1749-.5622-1.7418-1.2706-3.3998-2.5048-6.8167-3.7873-10.2166-.0869-.3077-.1692-.6182-.2408-.9307z"/><path d="m16.6828 51.2173c.0437.1358.0599.279.0477.4211-.0121.1421-.0524.2805-.1185.4069-4.3582 9.7641-8.70964 19.5327-13.05434 29.3056-.43866.9922-.85372 1.9946-1.3756 2.9473-.39919.0945-.79842.1947-1.197695.3006-.328355.106-.65671.2185-.98338844.3351.00864433-.4954.32487144-.9837.51324044-1.4362 4.389123-9.791 8.794893-19.6661 13.184383-29.4544.738-1.0995 2.0756-1.8373 2.9842-2.826z"/><path d="m35.6745 49.895c.4997.0454.9819.7687 1.3782 1.0696-1.3352 1.7512-3.1115 3.1442-4.4486 4.8803-.0903.9844-.0273 1.977-.1464 2.9618-1.4289.3774-2.8615.737-4.3101 1.0438-.3201-.4719-.648-.9359-.9779-1.3977 1.1165-.4816 2.3287-.4952 3.4355-1.0064-.0351-.9117-.0137-1.8199.0312-2.7319 1.6689-1.6098 3.3067-3.2787 5.0381-4.8195z"/><path d="m77.0201 50.7556c1.8531 1.4893 3.6142 3.1041 5.4001 4.6603.0482.8816.0713 1.759.0338 2.6407 1.187.4957 2.4901.5033 3.6849.9728-.3536.448-.7077.8948-1.0529 1.3467-1.552-.2945-3.0866-.646-4.6234-1.0068-.1239-.9519-.0568-1.9114-.1529-2.8629-1.4305-1.6752-3.3379-3.0267-4.768-4.7133.4231-.2891.9468-1.0068 1.4784-1.0375z"/><path d="m95.2667 51.1902c.9172 1.0019 2.2666 1.7502 3.0164 2.8607 4.3649 9.761 8.7249 19.535 13.0829 29.322.23.5324.556 1.0805.632 1.6495-.717-.2592-1.452-.4659-2.199-.6186-.522-.9623-.937-1.9691-1.379-2.9675-4.23-9.5125-8.4544-19.0244-12.6749-28.5358-.2296-.5854-.6011-1.0649-.4784-1.7103z"/><path d="m22.4563 58.1166c1.7738.1854 3.5575.2564 5.3253.4555-.5548.6302-1.1483 1.1841-1.5664 1.923-1.0291-.8019-2.8643-.5124-4.1185-.6541-1.9653.2735-3.672 2.1163-5.6531 2.4826.6736-1.1091 1.1061-2.2972 2.3585-2.8789 1.1239-.5122 2.3939-1.5704 3.6542-1.3281z"/><path d="m90.1365 58.3275c1.2368-.2294 2.4541.7926 3.556 1.2998 1.2135.5478 1.727 1.8574 2.362 2.9412-1.8562-.5996-3.3984-1.9187-5.2235-2.5359-1.3366.079-3.1967-.1582-4.3447.5961-.4651-.6531-.9768-1.2718-1.531-1.8514 1.7191-.2239 3.4559-.2891 5.1812-.4498z"/><path d="m21.4855 60.8535c.9353.0356 1.8837.0237 2.8142.1331.2975.1844.4616.5772.6566.8621.6804 1.1784 1.3882 2.3345 2.067 3.5145-.5266-.1607-1.1883-.5806-1.7354-.5224-.9181 1.0074-1.6841 2.1583-2.5612 3.2017-.3369.4639-.8446.934-.9968 1.4958-.1094.9596-.0205 1.8783.1161 2.8295-.1436.1825-.2855.3671-.4291.5531-.881-1.2496-1.6976-2.5433-2.4466-3.876-.7981-1.9525-1.4618-3.9636-2.2359-5.9257 1.1916-.6984 2.4226-1.3234 3.6315-1.9876.3314-.2155.7258-.3134 1.1196-.2781z"/><path d="m87.879 60.961c1.0482-.0543 2.1151-.1366 3.1632-.0819 1.4311.6644 2.8177 1.4721 4.2009 2.244-.7741 1.9602-1.4379 3.9735-2.2364 5.9253-.7434 1.3331-1.5614 2.6233-2.4501 3.8645-.1401-.1794-.2822-.3553-.4224-.5347.0903-1.2499.5384-2.8378-.4774-3.8216-1.0171-1.2105-1.9181-2.5304-2.9698-3.7122-.5281-.075-1.2155.3756-1.7317.5283.7042-1.2499 1.4579-2.4711 2.1783-3.7126.2002-.2654.3506-.7174.7454-.6991z"/><path d="m54.0914 60.5417c.0387 4.7187.1161 9.4713-.0516 14.1876-1.2178-2.8736-1.1118-6.1056-1.6755-9.2291-.6454.3748-1.3159.7047-2.0069.9872 1.1674-2.0065 2.3662-4.0584 3.734-5.9457z"/><path d="m58.0014 60.3765c1.3446 1.9173 2.4619 4.0089 3.6481 6.0244-.7078-.2448-1.3371-.6274-1.9719-1.0149-.553 3.1649-.4433 6.4302-1.6257 9.3405-.1639-4.7698-.0877-9.5773-.0505-14.35z"/><path d="m24.8425 64.3447c.5752-.0623 1.2707.388 1.8242.5602-.55 1.0455-1.294 1.91-1.9751 2.8639-1.1541 1.5564-2.2358 3.1531-3.4687 4.6471-.1438-1.018-.2373-2.005-.1222-3.034.16-.6024.6937-1.1061 1.0477-1.6039.9238-1.1189 1.7289-2.353 2.6941-3.4333z"/><path d="m86.9559 64.5756c1.2149 1.2218 2.2537 2.5901 3.4309 3.8439 1.1733 1.018.6561 2.6629.5513 3.9571-1.6157-1.731-3.038-3.609-4.5745-5.3963-.5194-.5801-.9904-1.2017-1.4083-1.8586.5964-.1572 1.3883-.6242 2.0006-.5461z"/><path d="m51.5107 67.2348c-.7149.4796-1.6448 1.062-2.1547-.0241-.3523-1.4599.0035-3.1455-.1796-4.6567-.2869-.0301-.577.0001-.8515.0888-1.5712 3.1026-3.021 6.3046-4.5429 9.4363-.5557 1.0503-.7417 2.0884-1.8243 2.7526-.2734.8384-.3007 1.8664-.6871 2.6383-2.3493 1.1169-4.7412 2.2012-7.1416 3.1967.1487-.4288.2975-.8586.4463-1.2894-2.197 1.2958-4.3375 2.6932-6.5191 4.0179-.5402.28-.6322.7771-.8516 1.2927-.3984 1.0809-.824 2.152-1.2224 3.2323.9214-.389 2.0482-1.1934 3.0758-.9528 1.0087.14 2.009.3479 3.0262.449.3283-.3125.6599-.6215.9848-.9375.9506.1434 1.8909.316 2.8255.5432.8669.1296 1.4806.9887 2.1184 1.549 2.2515-2.0187 4.3852-4.1804 6.5911-6.2465.8991-.8127 1.7045-1.764 2.6894-2.4712.489.2307.9727.48 1.4548.7225.6223-3.7719 1.2212-7.5497 1.7968-11.3334.5289.2185.8808.6044 1.3062.968-.1426-.9883-.2862-1.9771-.3405-2.9757zm-3.1819 5.1347c-1.0482.3637-2.11.6865-3.1769.999.9149-1.2534 2.1238-2.2834 3.1187-3.482.2428-.2116.4919-.4182.7472-.62-.1576 1.0537-.4394 2.0714-.689 3.103z"/><path d="m84.2786 83.6554c-2.2602-1.4634-4.57-2.8892-6.8781-4.2795.1487.4303.2975.8625.4462 1.2927-2.1418-.8521-4.2128-1.8852-6.3328-2.7901-.2804-.164-.7422-.2666-.9079-.5549-.2462-.8163-.3554-1.6703-.5863-2.4914-.4105-.3312-.8207-.5928-1.0363-1.0981-1.7661-3.7156-3.5491-7.4245-5.3084-11.1387-.2858-.0273-.5733-.0336-.86-.0186-.1456 1.3933.0272 2.822-.0736 4.2194-.0854.4953-.3045.8949-.8172 1.0383-.5985.0203-.9765-.3092-1.4552-.5978-.0547.9991-.1983 1.9877-.3469 2.9745.4189-.3637.7812-.7497 1.3062-.968.5744 3.7823 1.1733 7.5601 1.7967 11.3334.4841-.2425.9662-.4953 1.4552-.7225.9268.6594 1.6891 1.5539 2.5336 2.3223 2.2551 2.1193 4.4437 4.3185 6.7416 6.395.6411-.5531 1.2619-1.4175 2.1234-1.5487.9352-.2271 1.8753-.4012 2.8256-.5431.3247.316.6563.625.9845.9375 1.0175-.1007 2.0178-.3093 3.0264-.4491.9968-.2371 2.0672.5381 2.9933.8708-.46-1.3964-.9545-2.8783-1.63-4.1834zm-20.6293-11.2856c-.2496-1.0309-.5319-2.0528-.6907-3.103.2547.2001.5037.4067.7471.62.9935 1.1951 2.2005 2.2301 3.1183 3.482-1.0616-.3095-2.125-.6319-3.1747-.999z"/><path d="m14.7815 76.0201c4.705 10.5054 13.5393 19.1476 24.1838 23.5599 7.1569 3.1 15.2286 4.111 22.948 3.1 6.8593-.808 13.5582-3.5569 19.3042-7.3396 7.0477-4.8451 12.8042-11.5093 16.287-19.3404 1.0719 1.9158 1.8966 3.9887 2.8875 5.9494.101.3037.45.7256.294 1.0379-7.0508 12.5477-19.6324 21.9057-33.758 24.8507-5.8353 1.419-11.8943 1.67-17.8272.738-4.4437-.735-8.8804-1.877-13.023-3.67-9.5847-4.131-17.6966-11.0572-23.2728-19.8713-.3983-.7428-1.0172-1.4562-1.2703-2.2574.6771-1.6033 1.4858-3.1593 2.2089-4.7438.3471-.6624.5762-1.4275 1.0379-2.0134z"/><path d="m47.2972 79.3459c.489.2419.9727.5035 1.4548.7579-3.2159 3.242-6.4334 6.5145-9.6785 9.7208-.3914.3884-.6377.4101-1.1612.315-1.0207-.0823-1.6618-1.2285-2.486-1.7894-.4411-.1933-1.0053-.1147-1.4806-.1179.1032.4047.2064.8118.3096 1.2197-2.1303-.3402-4.2447-.774-6.3755-1.1178-.6517-.0938-1.2888-.2701-1.8959-.5247.9214-.4084 2.0482-1.2521 3.0758-.9993 1.0087.1468 2.009.365 3.0262.471.3283-.3278.6599-.6519.9848-.9834.9506.1505 1.8909.3315 2.8255.5693.8669.1365 1.4806 1.0371 2.1184 1.6248 2.2515-2.117 4.3854-4.3849 6.5911-6.5521.9031-.8568 1.7085-1.852 2.6915-2.5939z"/><path d="m64.6802 79.3462c.9263.6916 1.6891 1.6299 2.5335 2.4355 2.2551 2.2229 4.4437 4.5297 6.7414 6.7077.6415-.5799 1.2618-1.4865 2.1234-1.6245.9356-.2382 1.8757-.4208 2.8266-.5697.3247.3315.6563.6556.9845.9834 1.0175-.1056 2.0174-.3241 3.0265-.471.9968-.2487 2.0667.564 2.9932.9135l.0035.1917c-2.6929.6592-5.4677 1.0309-8.1961 1.5385.1091-.4084.2102-.8148.3129-1.2195-.4738 0-1.0397-.0774-1.4809.1179-.9935.6968-1.4498 1.7985-2.7832 1.827-.5112.1074-.833-.3527-1.1815-.6556-3.1186-3.1235-6.2626-6.278-9.3606-9.4176.4837-.2539.9679-.519 1.4568-.7573z"/><path d="m.98055 84.3792c.39824-.1116.79648-.2172 1.19472-.3167.60343.5541 1.27394 1.0993 1.76873 1.7597.14193.7394.13096 1.5164.13444 2.2704-.0827.1978-.16888.3995-.25171.6009-.55853-.2519-.88263-.7068-1.29639-1.144-.84263-.9461-1.72874-1.8348-2.53034-2.8172.324098-.122.653356-.241.98055-.3531z"/><path d="m109.589 84.26c.817.1534 1.622.3617 2.411.6233-.9.9363-1.875 1.7998-2.806 2.7121-.462.4214-.808.86-1.424 1.0969-.091-.1933-.186-.3834-.277-.5769.004-.7224-.007-1.4682.144-2.1767.561-.6356 1.266-1.1692 1.952-1.6787z"/></g></svg>