<svg fill="none" height="96" viewBox="0 0 358 96" width="358" xmlns="http://www.w3.org/2000/svg"><path d="m78.8559 45.014c.5497-.0532 1.0401.3494 1.0761.9005.4476 6.8519-1.3208 13.6764-5.0582 19.4578-3.9185 6.0617-9.7713 10.6206-16.6078 12.9363-6.8365 2.3156-14.255 2.2519-21.0507-.1807-6.7958-2.4326-12.5695-7.0913-16.3834-13.2194s-5.444-13.3657-4.6255-20.5371c.8185-7.1715 4.0375-13.8556 9.1341-18.9667 5.0967-5.1111 11.7716-8.3491 18.9407-9.1879 6.8375-.8 13.7415.6271 19.6914 4.0546.4786.2757.6232.8934.3327 1.3632l-15.2443 24.6498c-.4351.7035.1235 1.601.9468 1.5213z" fill="#595060"/><path d="m78.5203 13.7688c.2944-.4673.9128-.6089 1.3707-.3001 3.8158 2.5731 7.0351 5.9414 9.4342 9.8781 2.3992 3.9366 3.9174 8.3417 4.4554 12.9124.0646.5485-.3447 1.0333-.8949 1.0807l-28.8819 2.4875c-.8231.0709-1.3722-.8302-.932-1.5292z" fill="#cfaaff"/><path d="m129.536 55.312 5.328 2.16c-1.856 4.608-5.52 6.912-10.992 6.912-3.744 0-6.656-1.184-8.736-3.552-2.048-2.336-3.072-5.312-3.072-8.928s1.024-6.592 3.072-8.928c2.08-2.368 4.992-3.552 8.736-3.552 5.472 0 9.136 2.304 10.992 6.912l-5.328 2.16c-1.312-2.656-3.2-3.984-5.664-3.984-1.792 0-3.168.672-4.128 2.016-.96 1.312-1.44 3.104-1.44 5.376s.48 4.08 1.44 5.424c.96 1.312 2.336 1.968 4.128 1.968 2.464 0 4.352-1.328 5.664-3.984zm11.284.096v8.592h-5.952v-24.192h5.952v3.936c1.824-2.88 4.208-4.32 7.152-4.32.96 0 1.936.16 2.928.48l-1.104 5.52c-.736-.448-1.568-.672-2.496-.672-1.984 0-3.568.896-4.752 2.688-1.152 1.76-1.728 4.416-1.728 7.968zm20.104 8.976c-3.776 0-6.768-1.168-8.976-3.504s-3.312-5.328-3.312-8.976c0-3.584 1.104-6.56 3.312-8.928s5.2-3.552 8.976-3.552 6.768 1.184 8.976 3.552 3.312 5.344 3.312 8.928c0 3.648-1.104 6.64-3.312 8.976s-5.2 3.504-8.976 3.504zm-4.416-17.712c-1.088 1.376-1.632 3.12-1.632 5.232s.544 3.872 1.632 5.28c1.12 1.408 2.592 2.112 4.416 2.112s3.296-.704 4.416-2.112c1.088-1.408 1.632-3.168 1.632-5.28s-.544-3.856-1.632-5.232c-1.12-1.44-2.592-2.16-4.416-2.16-1.856 0-3.328.72-4.416 2.16zm38.918 9.744 4.32-16.608h6l-7.728 24.192h-5.28l-4.176-15.648-4.176 15.648h-5.28l-7.728-24.192h6l4.32 16.608 4.08-16.608h5.568zm19.806-16.992c1.152 0 2.272.256 3.36.768 1.088.48 1.92 1.088 2.496 1.824v-12h5.952v33.984h-5.952v-2.496c-.416.736-1.184 1.408-2.304 2.016-1.088.576-2.272.864-3.552.864-3.52 0-6.24-1.104-8.16-3.312-1.92-2.24-2.88-5.296-2.88-9.168s.96-6.912 2.88-9.12c1.92-2.24 4.64-3.36 8.16-3.36zm.816 5.088c-1.632 0-2.976.656-4.032 1.968s-1.584 3.12-1.584 5.424c0 2.336.528 4.144 1.584 5.424 1.056 1.312 2.4 1.968 4.032 1.968 1.664 0 2.992-.64 3.984-1.92 1.056-1.28 1.584-3.104 1.584-5.472 0-2.304-.528-4.112-1.584-5.424-1.024-1.312-2.352-1.968-3.984-1.968z" fill="#595060"/><path d="m260.623 51.376v2.448h-16.657c.064 1.536.608 2.832 1.632 3.888 1.056 1.056 2.416 1.584 4.08 1.584 2.464 0 4.416-1.248 5.857-3.744l4.799 1.776c-2.08 4.704-5.744 7.056-10.992 7.056-1.984 0-3.76-.368-5.328-1.104-1.536-.768-2.752-1.76-3.648-2.976-.864-1.248-1.52-2.576-1.968-3.984-.448-1.44-.672-2.912-.672-4.416s.224-2.96.672-4.368c.448-1.44 1.104-2.768 1.968-3.984.896-1.248 2.112-2.24 3.648-2.976 1.568-.768 3.344-1.152 5.328-1.152 1.888 0 3.584.368 5.089 1.104 1.503.704 2.703 1.68 3.599 2.928 1.729 2.368 2.593 5.008 2.593 7.92zm-11.281-6.864c-1.376 0-2.544.448-3.504 1.344-.928.864-1.504 1.952-1.728 3.264h10.416c-.672-3.072-2.4-4.608-5.184-4.608zm26.084 2.784-5.04-1.152c.384-2.016 1.408-3.632 3.072-4.848 1.696-1.248 3.744-1.872 6.144-1.872 6.784 0 10.176 3.376 10.176 10.128v14.448h-4.896l-.624-3.072c-1.856 2.304-4.336 3.456-7.44 3.456-2.176 0-3.952-.656-5.328-1.968-1.344-1.312-2.016-3.104-2.016-5.376 0-2.4.944-4.32 2.832-5.76 1.92-1.44 4.416-2.16 7.488-2.16h4.032v-1.056c0-2.368-1.408-3.552-4.224-3.552-2.176 0-3.568.928-4.176 2.784zm.288 9.648c0 .672.224 1.232.672 1.68s1.056.672 1.824.672c1.472 0 2.768-.464 3.888-1.392 1.152-.928 1.728-2.128 1.728-3.6v-.48h-3.984c-2.752 0-4.128 1.04-4.128 3.12zm37.705 1.776 1.392 4.8c-1.248.576-2.56.864-3.936.864-2.816 0-5.008-.752-6.576-2.256-1.536-1.536-2.304-3.76-2.304-6.672v-10.56h-3.744v-5.088h3.744v-6.048l5.952-3.744v9.792h6.384v5.088h-6.384v10.464c0 1.408.256 2.416.768 3.024s1.312.912 2.4.912c.832 0 1.6-.192 2.304-.576zm18.653-19.296c1.568 0 3.024.368 4.368 1.104 1.376.704 2.448 1.648 3.216 2.832l-3.552 3.264c-1.12-1.408-2.464-2.112-4.032-2.112-.64 0-1.168.176-1.584.528s-.624.848-.624 1.488c0 .992.768 1.776 2.304 2.352l1.728.624 2.064.72c.224.096.8.4 1.728.912.864.448 1.44.864 1.728 1.248.992 1.12 1.488 2.432 1.488 3.936 0 2.208-.8 4.112-2.4 5.712-1.568 1.568-3.632 2.352-6.192 2.352-2.304 0-4.304-.656-6-1.968-1.664-1.28-2.864-2.8-3.6-4.56l4.752-2.544c.96 2.656 2.576 3.984 4.848 3.984 1.984 0 2.976-.864 2.976-2.592 0-.8-.432-1.408-1.296-1.824-.384-.224-.832-.416-1.344-.576-.288-.128-.864-.352-1.728-.672s-1.424-.528-1.68-.624c-1.632-.704-2.864-1.552-3.696-2.544-.8-.992-1.2-2.32-1.2-3.984 0-1.952.72-3.616 2.16-4.992 1.408-1.376 3.264-2.064 5.568-2.064z" fill="#bf8dff"/></svg>