<svg fill="none" height="44" viewBox="0 0 45 44" width="45" xmlns="http://www.w3.org/2000/svg"><path d="m43.4622 12.1141-11.5239-11.34058c-.5027-.49456-1.185-.77352-1.8965-.77352h-16.2982c-.7115 0-1.3938.27808-1.8965.77352l-11.519447 11.33528c-.4106191.4039-.435398 1.0437-.073451 1.4766.023009.0273.047788.0537.073451.0801l6.694687 6.5877c.89558.997.89469 2.5001-.00354 3.4962l-6.691147 6.5851c-.025663.0255-.049557.0501-.071681.0774-.363717.4321-.3398231 1.0736.071681 1.4784l11.519447 11.3362c.5027.4945 1.185.7735 1.8965.7735h16.2982c.7115 0 1.3938-.2781 1.8965-.7735l11.5239-11.3406c.5026-.4945.7858-1.1669.7858-1.8665v-16.0388c0-.7005-.2823-1.3711-.7858-1.8665zm-12.3098 28.6985c0 1.1757-1.4442 1.7653-2.2893.9337l-16.2301-15.972-1.9381-1.9078c-1.04778-1.0305-1.04778-2.7025 0-3.7339l18.1682-17.8798c.8451-.8316 2.2893-.24288 2.2893.93368v37.62702z" fill="#2c44da"/></svg>