<?xml version="1.0" encoding="UTF-8"?>
<!DOCTYPE svg PUBLIC "-//W3C//DTD SVG 1.1//EN" "http://www.w3.org/Graphics/SVG/1.1/DTD/svg11.dtd">
<svg xmlns="http://www.w3.org/2000/svg" version="1.1" width="500px" height="500px" style="shape-rendering:geometricPrecision; text-rendering:geometricPrecision; image-rendering:optimizeQuality; fill-rule:evenodd; clip-rule:evenodd" xmlns:xlink="http://www.w3.org/1999/xlink">
<g><path style="opacity:1" fill="#000a63" d="M -0.5,-0.5 C 166.167,-0.5 332.833,-0.5 499.5,-0.5C 499.5,166.167 499.5,332.833 499.5,499.5C 332.833,499.5 166.167,499.5 -0.5,499.5C -0.5,332.833 -0.5,166.167 -0.5,-0.5 Z"/></g>
<g><path style="opacity:1" fill="#7dd8fc" d="M 266.5,89.5 C 271.725,93.54 276.891,97.8733 282,102.5C 282.374,103.416 282.874,104.25 283.5,105C 283.272,105.399 282.938,105.565 282.5,105.5C 281.609,104.89 280.609,104.557 279.5,104.5C 275.839,101.171 271.506,99.1715 266.5,98.5C 257.934,95.8421 249.267,96.0088 240.5,99C 220.875,107.293 207.375,121.459 200,141.5C 196.358,152.591 193.858,163.924 192.5,175.5C 191.021,171.091 190.354,166.424 190.5,161.5C 190.719,152.297 192.053,143.297 194.5,134.5C 202.47,110.696 218.47,95.1961 242.5,88C 250.623,87.0622 258.623,87.5622 266.5,89.5 Z"/></g>
<g><path style="opacity:1" fill="#67b6e4" d="M 266.5,89.5 C 287.426,98.2559 301.593,113.256 309,134.5C 302.36,123.029 293.527,113.695 282.5,106.5C 282.5,106.167 282.5,105.833 282.5,105.5C 282.938,105.565 283.272,105.399 283.5,105C 282.874,104.25 282.374,103.416 282,102.5C 276.891,97.8733 271.725,93.54 266.5,89.5 Z"/></g>
<g><path style="opacity:1" fill="#08b5fb" d="M 266.5,98.5 C 270.645,100.736 274.978,102.736 279.5,104.5C 280.609,104.557 281.609,104.89 282.5,105.5C 282.5,105.833 282.5,106.167 282.5,106.5C 285.473,108.806 288.14,111.473 290.5,114.5C 296.383,124.905 298.383,135.905 296.5,147.5C 293.262,137.023 288.428,127.357 282,118.5C 268.066,105.846 252.232,102.68 234.5,109C 216.509,122.134 206.676,139.968 205,162.5C 204.178,170.012 204.345,177.345 205.5,184.5C 206.171,196.524 208.505,208.191 212.5,219.5C 212.565,219.938 212.399,220.272 212,220.5C 209.333,219.167 206.667,217.833 204,216.5C 203.244,214.191 203.744,212.191 205.5,210.5C 200.074,201.391 195.907,191.724 193,181.5C 192.722,182.416 192.222,183.082 191.5,183.5C 191.401,180.763 191.735,178.096 192.5,175.5C 193.858,163.924 196.358,152.591 200,141.5C 207.375,121.459 220.875,107.293 240.5,99C 249.267,96.0088 257.934,95.8421 266.5,98.5 Z"/></g>
<g><path style="opacity:1" fill="#1b5ba7" d="M 266.5,98.5 C 271.506,99.1715 275.839,101.171 279.5,104.5C 274.978,102.736 270.645,100.736 266.5,98.5 Z"/></g>
<g><path style="opacity:1" fill="#025faf" d="M 296.5,147.5 C 296.833,148.167 297.167,148.833 297.5,149.5C 295.998,152.654 294.664,155.987 293.5,159.5C 293.043,160.298 292.376,160.631 291.5,160.5C 290.481,148.094 286.148,137.094 278.5,127.5C 267.693,111.217 254.026,108.383 237.5,119C 226.861,128.783 221.528,140.95 221.5,155.5C 215.543,190.52 224.543,221.02 248.5,247C 245.687,250.981 242.353,254.481 238.5,257.5C 218.227,234.561 207.394,207.561 206,176.5C 205.503,179.146 205.336,181.813 205.5,184.5C 204.345,177.345 204.178,170.012 205,162.5C 206.676,139.968 216.509,122.134 234.5,109C 252.232,102.68 268.066,105.846 282,118.5C 288.428,127.357 293.262,137.023 296.5,147.5 Z"/></g>
<g><path style="opacity:1" fill="#013387" d="M 278.5,127.5 C 285.22,141.734 289.553,156.734 291.5,172.5C 289.436,172.313 287.436,171.813 285.5,171C 286.428,170.612 287.095,169.945 287.5,169C 284.84,151.678 277.173,137.011 264.5,125C 253.29,116.791 243.123,117.958 234,128.5C 228.17,136.82 224.004,145.82 221.5,155.5C 221.528,140.95 226.861,128.783 237.5,119C 254.026,108.383 267.693,111.217 278.5,127.5 Z"/></g>
<g><path style="opacity:1" fill="#0594dd" d="M 290.5,114.5 C 304.373,127.572 313.039,143.572 316.5,162.5C 307.826,161.348 301.493,157.015 297.5,149.5C 297.167,148.833 296.833,148.167 296.5,147.5C 298.383,135.905 296.383,124.905 290.5,114.5 Z"/></g>
<g><path style="opacity:1" fill="#014fa0" d="M 297.5,149.5 C 301.493,157.015 307.826,161.348 316.5,162.5C 317.486,169.814 317.986,177.148 318,184.5C 310.498,179.332 302.331,175.665 293.5,173.5C 293.156,169.106 292.49,164.772 291.5,160.5C 292.376,160.631 293.043,160.298 293.5,159.5C 294.664,155.987 295.998,152.654 297.5,149.5 Z"/></g>
<g><path style="opacity:1" fill="#72bde7" d="M 194.5,134.5 C 192.053,143.297 190.719,152.297 190.5,161.5C 190.354,166.424 191.021,171.091 192.5,175.5C 191.735,178.096 191.401,180.763 191.5,183.5C 191.74,193.025 191.74,202.358 191.5,211.5C 186.953,190.614 186.453,169.614 190,148.5C 191.212,143.62 192.712,138.953 194.5,134.5 Z"/></g>
<g><path style="opacity:1" fill="#5a125d" d="M 241.5,168.5 C 244.163,179.492 250.829,186.492 261.5,189.5C 251.389,189.04 241.389,189.707 231.5,191.5C 231.073,183.947 232.073,176.614 234.5,169.5C 236.717,168.631 239.05,168.298 241.5,168.5 Z"/></g>
<g><path style="opacity:1" fill="#b82059" d="M 241.5,168.5 C 252.57,168.759 263.57,169.759 274.5,171.5C 287.508,176.171 299.841,182.171 311.5,189.5C 299.97,187.068 288.303,186.068 276.5,186.5C 276.567,187.959 276.234,189.292 275.5,190.5C 270.848,190.002 266.181,189.669 261.5,189.5C 250.829,186.492 244.163,179.492 241.5,168.5 Z"/></g>
<g><path style="opacity:1" fill="#3f0f5f" d="M 234.5,169.5 C 232.073,176.614 231.073,183.947 231.5,191.5C 229.135,192.008 226.801,192.675 224.5,193.5C 223.808,192.975 223.308,192.308 223,191.5C 221.695,184.874 221.362,178.208 222,171.5C 226.039,170.244 230.206,169.577 234.5,169.5 Z"/></g>
<g><path style="opacity:1" fill="#bc739b" d="M 274.5,171.5 C 299.662,176.584 321.995,187.25 341.5,203.5C 340.167,203.167 338.833,202.833 337.5,202.5C 330.768,197.696 323.435,194.029 315.5,191.5C 314.167,190.833 312.833,190.167 311.5,189.5C 299.841,182.171 287.508,176.171 274.5,171.5 Z"/></g>
<g><path style="opacity:1" fill="#005d7f" d="M 170.5,222.5 C 167.833,221.833 165.167,221.167 162.5,220.5C 166.458,212.39 166.458,204.39 162.5,196.5C 168.623,190.393 175.623,185.393 183.5,181.5C 184.832,190.151 185.666,198.818 186,207.5C 180.303,212.031 175.137,217.031 170.5,222.5 Z"/></g>
<g><path style="opacity:1" fill="#0194de" d="M 212.5,219.5 C 213.871,221.936 214.871,224.603 215.5,227.5C 215.994,234.51 214.161,240.843 210,246.5C 208.871,248.141 207.371,249.141 205.5,249.5C 199.455,237.366 194.788,224.699 191.5,211.5C 191.74,202.358 191.74,193.025 191.5,183.5C 192.222,183.082 192.722,182.416 193,181.5C 195.907,191.724 200.074,201.391 205.5,210.5C 203.744,212.191 203.244,214.191 204,216.5C 206.667,217.833 209.333,219.167 212,220.5C 212.399,220.272 212.565,219.938 212.5,219.5 Z"/></g>
<g><path style="opacity:1" fill="#e02155" d="M 311.5,189.5 C 312.833,190.167 314.167,190.833 315.5,191.5C 332.618,202.786 346.118,217.453 356,235.5C 361.867,248.843 362.867,262.51 359,276.5C 355.093,286.671 348.593,294.671 339.5,300.5C 334.124,303.292 328.457,305.292 322.5,306.5C 310.66,306.551 299.993,303.218 290.5,296.5C 297.827,297.166 305.161,297.832 312.5,298.5C 332.369,297.135 345.869,287.135 353,268.5C 354.625,248.863 348.125,232.53 333.5,219.5C 324.418,210.115 313.752,202.948 301.5,198C 293.02,194.784 284.354,192.284 275.5,190.5C 276.234,189.292 276.567,187.959 276.5,186.5C 288.303,186.068 299.97,187.068 311.5,189.5 Z"/></g>
<g><path style="opacity:1" fill="#70155c" d="M 333.5,219.5 C 348.125,232.53 354.625,248.863 353,268.5C 345.869,287.135 332.369,297.135 312.5,298.5C 305.161,297.832 297.827,297.166 290.5,296.5C 287.813,296.336 285.146,296.503 282.5,297C 278.008,299.998 273.675,303.165 269.5,306.5C 271.159,300.177 273.659,294.177 277,288.5C 277.816,287.177 278.983,286.511 280.5,286.5C 292.55,290.084 304.883,291.418 317.5,290.5C 344.514,284.233 351.681,268.567 339,243.5C 334.172,236.498 328.005,231.164 320.5,227.5C 295.754,208.147 267.754,200.813 236.5,205.5C 234.566,201.697 233.232,197.697 232.5,193.5C 270.308,187.034 303.975,195.7 333.5,219.5 Z"/></g>
<g><path style="opacity:1" fill="#ea8aa6" d="M 315.5,191.5 C 323.435,194.029 330.768,197.696 337.5,202.5C 358.384,221.605 367.551,245.272 365,273.5C 362.132,283.575 356.965,292.242 349.5,299.5C 344.994,302.348 340.327,303.681 335.5,303.5C 337.23,302.974 338.564,301.974 339.5,300.5C 348.593,294.671 355.093,286.671 359,276.5C 362.867,262.51 361.867,248.843 356,235.5C 346.118,217.453 332.618,202.786 315.5,191.5 Z"/></g>
<g><path style="opacity:1" fill="#4f115e" d="M 232.5,193.5 C 233.232,197.697 234.566,201.697 236.5,205.5C 233.211,206.374 229.877,207.041 226.5,207.5C 225.833,203.5 225.167,199.5 224.5,195.5C 227.267,195.142 229.933,194.475 232.5,193.5 Z"/></g>
<g><path style="opacity:1" fill="#04ae9c" d="M 162.5,196.5 C 166.458,204.39 166.458,212.39 162.5,220.5C 161.728,221.694 160.728,222.694 159.5,223.5C 159.44,222.957 159.107,222.624 158.5,222.5C 149.232,226.44 142.232,232.773 137.5,241.5C 141.443,223.938 149.776,208.938 162.5,196.5 Z"/></g>
<g><path style="opacity:1" fill="#003270" d="M 280.5,224.5 C 279.64,222.386 277.973,221.22 275.5,221C 272.518,220.502 269.518,220.335 266.5,220.5C 268.067,216.637 269.733,212.804 271.5,209C 276.225,209.244 280.892,210.077 285.5,211.5C 284.404,216.132 282.737,220.466 280.5,224.5 Z"/></g>
<g><path style="opacity:1" fill="#efb5c8" d="M 337.5,202.5 C 338.833,202.833 340.167,203.167 341.5,203.5C 363.04,220.248 372.873,242.248 371,269.5C 369.795,280.583 364.962,289.583 356.5,296.5C 354.02,297.242 351.687,298.242 349.5,299.5C 356.965,292.242 362.132,283.575 365,273.5C 367.551,245.272 358.384,221.605 337.5,202.5 Z"/></g>
<g><path style="opacity:1" fill="#002b6e" d="M 299.5,235.5 C 295.015,230.346 289.682,226.346 283.5,223.5C 285.093,220.644 286.427,217.644 287.5,214.5C 288.167,214.167 288.833,213.833 289.5,213.5C 295.481,215.662 300.814,218.829 305.5,223C 303.589,227.319 301.589,231.485 299.5,235.5 Z"/></g>
<g><path style="opacity:1" fill="#017186" d="M 162.5,220.5 C 165.167,221.167 167.833,221.833 170.5,222.5C 168.42,224.573 166.754,226.907 165.5,229.5C 155.652,240.21 151.152,252.877 152,267.5C 154.757,277.092 160.924,283.092 170.5,285.5C 180.543,288.19 190.543,287.69 200.5,284C 203.239,282.974 205.572,281.474 207.5,279.5C 235.496,268.17 255.163,248.504 266.5,220.5C 269.518,220.335 272.518,220.502 275.5,221C 277.973,221.22 279.64,222.386 280.5,224.5C 271.717,243.526 259.384,260.026 243.5,274C 239.249,276.945 235.249,280.112 231.5,283.5C 211.83,298.112 190.164,301.946 166.5,295C 152.291,287.257 144.958,275.257 144.5,259C 145.328,245.335 150.328,233.501 159.5,223.5C 160.728,222.694 161.728,221.694 162.5,220.5 Z"/></g>
<g><path style="opacity:1" fill="#012a6d" d="M 207.5,279.5 C 205.572,281.474 203.239,282.974 200.5,284C 190.543,287.69 180.543,288.19 170.5,285.5C 159.001,278.896 154.501,268.896 157,255.5C 158.486,249.7 160.653,244.2 163.5,239C 163.108,237.989 162.441,237.489 161.5,237.5C 162.361,235.089 163.694,233.089 165.5,231.5C 171.389,222.773 178.556,215.106 187,208.5C 188.581,212.73 189.248,217.064 189,221.5C 174.586,229.998 165.252,242.332 161,258.5C 158.954,271.244 164.121,279.41 176.5,283C 187.119,284.191 197.452,283.025 207.5,279.5 Z"/></g>
<g><path style="opacity:1" fill="#05daab" d="M 159.5,223.5 C 150.328,233.501 145.328,245.335 144.5,259C 144.958,275.257 152.291,287.257 166.5,295C 190.164,301.946 211.83,298.112 231.5,283.5C 247.247,274.115 260.247,261.782 270.5,246.5C 271.239,246.369 271.906,246.536 272.5,247C 266.02,262.616 257.354,276.782 246.5,289.5C 244.5,290.833 242.5,292.167 240.5,293.5C 228.635,298.955 216.301,303.122 203.5,306C 183.601,309.157 165.601,304.824 149.5,293C 141.908,285.61 137.241,276.777 135.5,266.5C 135.099,258.026 135.766,249.693 137.5,241.5C 142.232,232.773 149.232,226.44 158.5,222.5C 159.107,222.624 159.44,222.957 159.5,223.5 Z"/></g>
<g><path style="opacity:1" fill="#005d7f" d="M 283.5,223.5 C 289.682,226.346 295.015,230.346 299.5,235.5C 299.34,237.153 298.674,238.486 297.5,239.5C 288.571,237.302 280.238,238.635 272.5,243.5C 276.674,237.154 280.341,230.488 283.5,223.5 Z"/></g>
<g><path style="opacity:1" fill="#014fa0" d="M 215.5,227.5 C 221.018,237.199 227.185,246.533 234,255.5C 235.187,257.044 235.52,258.711 235,260.5C 229.972,264.361 224.806,268.028 219.5,271.5C 213.63,264.957 208.963,257.624 205.5,249.5C 207.371,249.141 208.871,248.141 210,246.5C 214.161,240.843 215.994,234.51 215.5,227.5 Z"/></g>
<g><path style="opacity:1" fill="#77b8c0" d="M 134.5,261.5 C 133.679,258.359 133.179,255.025 133,251.5C 131.049,257.346 130.215,263.346 130.5,269.5C 130.5,272.833 130.5,276.167 130.5,279.5C 126.16,264.731 126.994,250.064 133,235.5C 135.745,229.675 138.745,224.008 142,218.5C 142.654,217.304 143.154,217.304 143.5,218.5C 136.277,231.951 133.277,246.284 134.5,261.5 Z"/></g>
<g><path style="opacity:1" fill="#0ab29e" d="M 297.5,239.5 C 292.49,251.506 285.157,261.839 275.5,270.5C 268.245,276.471 260.578,281.971 252.5,287C 250.593,288.122 248.593,288.955 246.5,289.5C 257.354,276.782 266.02,262.616 272.5,247C 271.906,246.536 271.239,246.369 270.5,246.5C 271.167,245.5 271.833,244.5 272.5,243.5C 280.238,238.635 288.571,237.302 297.5,239.5 Z"/></g>
<g><path style="opacity:1" fill="#370f5f" d="M 320.5,227.5 C 328.005,231.164 334.172,236.498 339,243.5C 351.681,268.567 344.514,284.233 317.5,290.5C 305.102,289.457 292.769,287.29 280.5,284C 281.333,283.167 282.167,282.333 283,281.5C 299.736,285.11 315.903,283.277 331.5,276C 340.285,268.633 342.785,259.467 339,248.5C 337.92,246.004 336.586,243.67 335,241.5C 329.664,237.33 324.83,232.663 320.5,227.5 Z"/></g>
<g><path style="opacity:1" fill="#013b73" d="M 165.5,229.5 C 165.5,230.167 165.5,230.833 165.5,231.5C 163.694,233.089 162.361,235.089 161.5,237.5C 162.441,237.489 163.108,237.989 163.5,239C 160.653,244.2 158.486,249.7 157,255.5C 154.501,268.896 159.001,278.896 170.5,285.5C 160.924,283.092 154.757,277.092 152,267.5C 151.152,252.877 155.652,240.21 165.5,229.5 Z"/></g>
<g><path style="opacity:1" fill="#7ce9d2" d="M 134.5,261.5 C 134.216,263.415 134.549,265.081 135.5,266.5C 137.241,276.777 141.908,285.61 149.5,293C 165.601,304.824 183.601,309.157 203.5,306C 216.301,303.122 228.635,298.955 240.5,293.5C 235.038,299.068 228.705,303.401 221.5,306.5C 196.255,315.104 172.255,312.604 149.5,299C 139.655,291.342 133.322,281.509 130.5,269.5C 130.215,263.346 131.049,257.346 133,251.5C 133.179,255.025 133.679,258.359 134.5,261.5 Z"/></g>
<g><path style="opacity:1" fill="#a8eadf" d="M 130.5,269.5 C 133.322,281.509 139.655,291.342 149.5,299C 172.255,312.604 196.255,315.104 221.5,306.5C 221.5,307.167 221.5,307.833 221.5,308.5C 194.045,321.093 168.045,318.593 143.5,301C 136.976,295.113 132.643,287.946 130.5,279.5C 130.5,276.167 130.5,272.833 130.5,269.5 Z"/></g>
<g><path style="opacity:1" fill="#7bd1c9" d="M 275.5,270.5 C 260.721,287.572 242.721,300.239 221.5,308.5C 221.5,307.833 221.5,307.167 221.5,306.5C 228.705,303.401 235.038,299.068 240.5,293.5C 242.5,292.167 244.5,290.833 246.5,289.5C 248.593,288.955 250.593,288.122 252.5,287C 260.578,281.971 268.245,276.471 275.5,270.5 Z"/></g>
<g><path style="opacity:1" fill="#40105e" d="M 280.5,286.5 C 278.983,286.511 277.816,287.177 277,288.5C 273.659,294.177 271.159,300.177 269.5,306.5C 269.5,306.833 269.5,307.167 269.5,307.5C 262.584,305.418 255.918,302.751 249.5,299.5C 256.269,294.901 262.602,289.734 268.5,284C 272.687,284.216 276.687,285.049 280.5,286.5 Z"/></g>
<g><path style="opacity:1" fill="#b31e58" d="M 290.5,296.5 C 299.993,303.218 310.66,306.551 322.5,306.5C 305.035,312.634 287.368,312.967 269.5,307.5C 269.5,307.167 269.5,306.833 269.5,306.5C 273.675,303.165 278.008,299.998 282.5,297C 285.146,296.503 287.813,296.336 290.5,296.5 Z"/></g>
<g><path style="opacity:1" fill="#ba81a6" d="M 356.5,296.5 C 345.216,306.663 331.882,312.497 316.5,314C 309.167,314.667 301.833,314.667 294.5,314C 308.887,313.153 322.554,309.653 335.5,303.5C 340.327,303.681 344.994,302.348 349.5,299.5C 351.687,298.242 354.02,297.242 356.5,296.5 Z"/></g>
<g><path style="opacity:1" fill="#bae6fa" d="M 163.5,345.5 C 170.508,345.334 177.508,345.5 184.5,346C 199.793,351.761 204.293,362.261 198,377.5C 194.635,382.186 190.135,385.353 184.5,387C 177.508,387.5 170.508,387.666 163.5,387.5C 163.5,373.5 163.5,359.5 163.5,345.5 Z"/></g>
<g><path style="opacity:1" fill="#bbe8fc" d="M 242.5,345.5 C 242.5,348.167 242.5,350.833 242.5,353.5C 235.167,353.5 227.833,353.5 220.5,353.5C 220.5,356.5 220.5,359.5 220.5,362.5C 226.5,362.5 232.5,362.5 238.5,362.5C 238.5,364.833 238.5,367.167 238.5,369.5C 232.5,369.5 226.5,369.5 220.5,369.5C 220.5,372.833 220.5,376.167 220.5,379.5C 228.167,379.5 235.833,379.5 243.5,379.5C 243.5,382.167 243.5,384.833 243.5,387.5C 232.833,387.5 222.167,387.5 211.5,387.5C 211.5,373.5 211.5,359.5 211.5,345.5C 221.833,345.5 232.167,345.5 242.5,345.5 Z"/></g>
<g><path style="opacity:1" fill="#bae7fb" d="M 254.5,345.5 C 261.508,345.334 268.508,345.5 275.5,346C 289.234,350.389 294.4,359.555 291,373.5C 288.33,380.835 283.163,385.335 275.5,387C 268.508,387.5 261.508,387.666 254.5,387.5C 254.5,373.5 254.5,359.5 254.5,345.5 Z"/></g>
<g><path style="opacity:1" fill="#b7e4f9" d="M 314.5,345.5 C 318.167,345.5 321.833,345.5 325.5,345.5C 330.5,359.5 335.5,373.5 340.5,387.5C 332.454,389.78 328.454,386.78 328.5,378.5C 322.824,378.334 317.157,378.501 311.5,379C 309.804,381.587 308.804,384.421 308.5,387.5C 305.102,387.82 301.768,387.487 298.5,386.5C 303.572,372.696 308.905,359.03 314.5,345.5 Z"/></g>
<g><path style="opacity:1" fill="#627eb3" d="M 242.5,345.5 C 243.477,348.287 243.81,351.287 243.5,354.5C 236.167,354.5 228.833,354.5 221.5,354.5C 221.5,356.833 221.5,359.167 221.5,361.5C 227.358,361.178 233.025,361.511 238.5,362.5C 232.5,362.5 226.5,362.5 220.5,362.5C 220.5,359.5 220.5,356.5 220.5,353.5C 227.833,353.5 235.167,353.5 242.5,353.5C 242.5,350.833 242.5,348.167 242.5,345.5 Z"/></g>
<g><path style="opacity:1" fill="#020c64" d="M 172.5,354.5 C 187.184,352.346 193.018,358.346 190,372.5C 188.749,375.381 186.583,377.214 183.5,378C 179.848,378.499 176.182,378.665 172.5,378.5C 172.5,370.5 172.5,362.5 172.5,354.5 Z"/></g>
<g><path style="opacity:1" fill="#3c4d91" d="M 271.5,354.5 C 269.167,354.5 266.833,354.5 264.5,354.5C 264.5,362.5 264.5,370.5 264.5,378.5C 267.5,378.5 270.5,378.5 273.5,378.5C 270.375,379.479 267.042,379.813 263.5,379.5C 263.5,370.833 263.5,362.167 263.5,353.5C 266.385,353.194 269.052,353.527 271.5,354.5 Z"/></g>
<g><path style="opacity:1" fill="#020c64" d="M 271.5,354.5 C 282.725,357.349 285.558,364.016 280,374.5C 278.362,376.734 276.195,378.067 273.5,378.5C 270.5,378.5 267.5,378.5 264.5,378.5C 264.5,370.5 264.5,362.5 264.5,354.5C 266.833,354.5 269.167,354.5 271.5,354.5 Z"/></g>
<g><path style="opacity:1" fill="#11176b" d="M 318.5,356.5 C 319.497,356.47 320.164,356.97 320.5,358C 321.539,361.617 322.872,365.117 324.5,368.5C 321.216,369.657 317.882,369.824 314.5,369C 316.34,364.979 317.674,360.812 318.5,356.5 Z"/></g>
<g><path style="opacity:1" fill="#627eb3" d="M 238.5,369.5 C 233.025,370.489 227.358,370.822 221.5,370.5C 221.5,373.167 221.5,375.833 221.5,378.5C 229.019,378.175 236.352,378.508 243.5,379.5C 235.833,379.5 228.167,379.5 220.5,379.5C 220.5,376.167 220.5,372.833 220.5,369.5C 226.5,369.5 232.5,369.5 238.5,369.5 Z"/></g>
</svg>
