<svg xmlns="http://www.w3.org/2000/svg" width="512" height="512"><path fill="#EE9327" d="m255 39.813 2.08.001c10.75.026 21.306.381 31.92 2.186l2.405.407c36.423 6.361 70.66 21.079 99.267 44.675a234 234 0 0 0 5.156 4.117l2.797 2.176 2.54 1.96c.605.55 1.21 1.1 1.835 1.665v2l1.801.81c29.008 15.69 49.672 64.367 58.595 94.15L464 196l1.145 3.781c2.831 9.926 4.53 19.992 5.855 30.219l.297 2.253c.9 7.732.903 15.472.89 23.247l-.001 2.152c-.025 10.892-.344 21.594-2.186 32.348l-.407 2.4c-4.387 25.122-12.447 49.624-25.593 71.6l-1.108 1.871C432.852 382.74 420.887 397.158 407 411l-2.184 2.29c-13.825 14.328-30.351 25.186-47.8 34.616q-1.935 1.05-3.856 2.125c-20.032 11.2-42.666 17.143-65.16 20.969l-2.187.394c-22.042 3.848-45.915 2.61-67.813-1.394l-2.384-.406c-18.562-3.191-37.028-9.035-53.796-17.658-1.972-1.014-3.959-2-5.945-2.987C107.9 424.711 68.318 379.857 50.94 328.891c-18.936-57.923-15.005-117.317 11.619-172.098 1.403-2.653 2.89-5.223 4.441-7.793l1.049-1.773c8.162-13.756 17.584-25.97 28.54-37.606 2.422-2.569 2.422-2.569 4.5-5.258 1.733-2.143 3.436-3.843 5.536-5.613 2.19-1.86 4.341-3.717 6.414-5.707C144.337 63.238 187.577 46.131 230 41l2.285-.292c7.558-.875 15.114-.908 22.715-.895m-80.215 64.2a293 293 0 0 1-5.379 2.882C144.487 120.26 124.49 141.695 109 165l-1.96 2.91c-23.185 36.953-28.695 83.994-20.005 126.149 2.695 11.437 6.602 22.47 11.09 33.316l.983 2.396c1.825 4.272 3.755 7.73 6.892 11.229l.044-1.822c.776-29.016 4.464-57.57 13.353-85.287a354 354 0 0 0 1.677-5.457C132.945 210.488 154.01 175.849 180 146l2-2.34a149 149 0 0 1 10.715-11.215c1.506-1.372 1.506-1.372 1.285-3.445l1.727-.723c2.753-1.547 4.487-3.41 6.648-5.714 6.062-6.178 12.717-11.369 19.625-16.563l1.866-1.412c7.442-5.613 14.997-10.942 22.92-15.86A185 185 0 0 0 251 86v-1c-26.173-1.659-53.457 6.411-76.215 19.013M261 85c4.005 3.312 8.198 6.223 12.5 9.125 7.378 5.035 14.541 10.272 21.5 15.875l1.565 1.249c8.401 6.76 16.106 14.216 23.748 21.814l2.784 2.756c6.058 6.086 11.585 12.443 16.903 19.181l1.477 1.842C383.375 209.27 403.187 272.602 406 339c3.594-4.314 5.744-8.357 7.875-13.5l1.044-2.514C428.677 288.898 431.943 250.772 423 215l-.479-1.94C414.717 182.204 398.706 156.838 377 134l-1.754-1.914c-25.652-27.13-67.811-46.094-105.062-47.2-3.065-.01-6.12.021-9.184.114m-22.145 175.324c-2.86 4.099-4.494 7.616-4.855 12.676l-1 3a99 99 0 0 0-.062 5.188l.027 2.73L233 286h2l-.621 1.723c-.617 3.707 1.11 5.95 2.953 9.086 3.269 4.294 7.63 6.512 12.668 8.191 7.432.672 13.875.604 20-4 3.716-3.384 5.881-7.077 7-12l-1-2h2l-.062-2.25c.055-2.458.472-4.389 1.062-6.75l-1-1v-5c-3.479-10.437-10.131-16.088-19-22-7.35-1.093-15.377 5.157-20.145 10.324M109 346c13.124 31.247 48.327 55.922 78.309 68.922 43.115 17.27 91.243 19.318 134.471.893 29.15-12.885 55.045-32.248 73.783-58.252l1.266-1.756c2.205-3.15 3.914-6.17 5.171-9.807l-3.418 1.652c-45.118 21.685-91.119 35.55-141.582 35.598l-2.246.003c-48.706-.044-95.78-12.535-138.908-34.866-3.253-1.796-3.253-1.796-6.846-2.387"/><path fill="#0B6A08" d="M287.563 199.445c1.85 1.125 3.652 2.33 5.437 3.555-1.687 4.498-3.817 8.729-6 13-4.619-.871-8.308-3.319-12.344-5.625-4.747-2.458-8.746-2.561-14.094-2.625l-3.933-.078c-3.823.346-5.627.996-8.629 3.328-2.097 3.146-2.33 5.063-2.559 8.77 1.266 5.054 5.122 8.143 9.38 10.757q2.142 1.222 4.304 2.41 2.284 1.303 4.566 2.61l2.235 1.267C278.877 244.218 291.577 252.857 296 268c.285 3.441.279 6.861.25 10.313l.023 2.763c-.031 11.068-2.865 20.346-10.398 28.674-4.293 4.057-9.442 6.11-14.875 8.25l-2.23 1.117c-4.136 1.319-8.142 1.223-12.457 1.195-.898-.005-1.796-.01-2.72-.017-11.686-.214-20.145-3.316-28.792-11.334-8.617-9.015-10.405-17.32-10.272-29.487.353-9.985 2.367-18.324 9.475-25.661C237.013 242 237.013 242 242 242v-2l-1.777-.8c-4.879-2.633-8.353-6.74-11.16-11.45-1.812-6.392-1.854-12.211.125-18.562 4.635-8.152 9.934-11.724 18.468-15.301 13.712-3.636 27.75-1.298 39.906 5.558m-48.708 60.88c-2.86 4.098-4.494 7.615-4.855 12.675l-1 3a99 99 0 0 0-.062 5.188l.027 2.73L233 286h2l-.621 1.723c-.617 3.707 1.11 5.95 2.953 9.086 3.269 4.294 7.63 6.512 12.668 8.191 7.432.672 13.875.604 20-4 3.716-3.384 5.881-7.077 7-12l-1-2h2l-.062-2.25c.055-2.458.472-4.389 1.062-6.75l-1-1v-5c-3.479-10.437-10.131-16.088-19-22-7.35-1.093-15.377 5.157-20.145 10.324"/><path fill="#A2841A" d="M217 263c1.362 2.724.379 4.137-.48 6.918-.946 3.785-.995 7.635-1.145 11.52l-.117 2.505c-.094 2.019-.177 4.038-.258 6.057h-1a1005 1005 0 0 1-.625-9.062l-.195-2.569c-.326-5.276-.113-9.417 1.82-14.369z"/></svg>