<?xml version="1.0" standalone="no"?>
<!DOCTYPE svg PUBLIC "-//W3C//DTD SVG 20010904//EN"
 "http://www.w3.org/TR/2001/REC-SVG-20010904/DTD/svg10.dtd">
<svg version="1.0" xmlns="http://www.w3.org/2000/svg"
 width="1024.000000pt" height="1024.000000pt" viewBox="0 0 1024.000000 1024.000000"
 preserveAspectRatio="xMidYMid meet">

<g transform="translate(0.000000,1024.000000) scale(0.100000,-0.100000)"
fill="#000000" stroke="none">
<path d="M6860 6965 c-298 -44 -601 -191 -935 -454 -77 -61 -92 -74 -250 -218
-146 -134 -306 -303 -478 -508 -64 -76 -74 -92 -63 -105 100 -119 462 -525
467 -525 5 0 58 61 120 135 282 339 577 619 816 773 70 46 220 123 278 145 49
18 167 44 205 46 19 1 45 7 56 13 12 7 23 10 26 8 3 -3 15 7 29 22 13 14 17
23 9 18 -8 -4 21 29 65 74 79 81 93 92 79 69 -4 -7 7 0 24 16 17 16 29 33 26
37 -2 4 1 11 7 15 8 4 9 3 5 -4 -4 -7 -2 -12 3 -12 6 0 12 5 12 10 1 6 2 14 3
19 0 5 5 13 10 18 5 5 6 2 1 -7 -4 -8 35 27 88 79 53 52 94 98 92 101 -2 4 18
29 45 55 28 27 50 55 50 63 0 8 5 10 13 6 6 -4 9 -3 4 1 -4 5 -40 19 -80 32
-250 83 -508 111 -727 78z m690 -238 c0 -2 -17 -19 -37 -38 l-38 -34 34 38
c33 34 41 42 41 34z"/>
<path d="M2510 6345 c-255 -31 -493 -124 -676 -265 -76 -60 -213 -205 -262
-280 -135 -205 -165 -326 -166 -670 -1 -228 4 -282 45 -455 145 -620 608
-1132 1203 -1330 193 -65 295 -80 531 -80 198 0 216 2 318 28 181 47 313 104
497 213 277 164 562 408 865 739 106 116 255 292 255 301 0 9 -472 544 -479
544 -4 0 -57 -60 -118 -132 -474 -568 -897 -896 -1234 -956 -81 -14 -98 -14
-207 1 -246 35 -434 124 -609 290 -102 97 -164 182 -228 312 -122 247 -153
500 -96 764 107 489 558 870 1030 871 91 0 84 8 -48 50 -199 65 -396 82 -621
55z"/>
</g>
</svg>
