<svg width="2845" height="1675" viewBox="0 0 2845 1675" fill="none" xmlns="http://www.w3.org/2000/svg">
<g clip-path="url(#clip0_2388_77)">
<path d="M906.359 694.022L913.241 692.682C913.595 692.613 913.92 692.881 913.92 693.241V983.24C913.92 983.593 913.606 983.861 913.258 983.804L906.376 982.658C906.102 982.613 905.897 982.373 905.897 982.094V694.581C905.897 694.307 906.091 694.073 906.359 694.022Z" fill="#0D0D0D"/>
<path d="M880.463 708.114L886.559 706.797C886.912 706.722 887.248 706.99 887.248 707.355V970.218C887.248 970.577 886.923 970.845 886.576 970.776L880.48 969.647C880.212 969.596 880.012 969.362 880.012 969.089V708.673C880.012 708.405 880.201 708.171 880.463 708.114Z" fill="#0D0D0D"/>
<path d="M859.766 720.891L864.864 719.614C865.223 719.522 865.571 719.796 865.571 720.167V959.587C865.571 959.952 865.234 960.22 864.881 960.146L859.783 959.051C859.521 958.994 859.333 958.76 859.333 958.492V721.444C859.333 721.182 859.509 720.954 859.766 720.891Z" fill="#0D0D0D"/>
<path d="M840.705 730.552L844.867 729.326C845.232 729.218 845.597 729.491 845.597 729.873V950.356C845.597 950.727 845.249 951.001 844.89 950.909L840.727 949.86C840.477 949.798 840.294 949.569 840.294 949.307V731.099C840.294 730.848 840.459 730.626 840.705 730.552Z" fill="#0D0D0D"/>
<path d="M825.558 739.283L829.099 738.102C829.47 737.977 829.852 738.256 829.852 738.644V941.764C829.852 942.14 829.487 942.414 829.128 942.311L825.586 941.302C825.341 941.233 825.17 941.005 825.17 940.754V739.824C825.17 739.579 825.33 739.362 825.558 739.283Z" fill="#0D0D0D"/>
<path d="M813.388 746.3L816.929 745.119C817.299 744.994 817.682 745.273 817.682 745.661V935.831C817.682 936.207 817.317 936.481 816.957 936.379L813.416 935.369C813.171 935.301 813 935.073 813 934.822V746.842C813 746.596 813.16 746.38 813.388 746.3Z" fill="#0D0D0D"/>
<path d="M937.471 677.497V675.102C937.471 674.561 937.847 674.099 938.378 673.985L947.809 672.023C947.997 671.983 948.191 671.995 948.374 672.046L1054.21 704.258C1054.69 704.406 1055.02 704.845 1055.02 705.347V970.045C1055.02 970.553 1054.69 970.998 1054.21 971.14L949.286 1002.26C949.087 1002.31 948.876 1002.32 948.676 1002.27L938.326 999.589C937.825 999.458 937.471 999.007 937.471 998.483V677.497Z" fill="#0D0D0D"/>
</g>
<path d="M1232.93 963.554H1128.79V710.489H1232.93C1308.95 710.489 1340.89 753.881 1340.89 837.195C1340.89 920.856 1307.91 963.554 1232.93 963.554ZM1166.63 744.161V929.882H1232.24C1280.49 929.882 1301.32 908.359 1301.32 858.371V816.019C1301.32 764.643 1278.41 744.161 1232.24 744.161H1166.63ZM1352.28 872.256C1352.28 842.749 1360.27 819.838 1376.23 802.828C1392.2 785.818 1413.73 777.487 1440.8 777.487C1467.18 777.487 1488.36 785.818 1504.68 802.828C1520.99 819.491 1529.32 842.749 1529.32 872.256C1529.32 901.069 1521.34 924.327 1505.72 941.337C1490.1 958.347 1468.23 967.026 1440.8 967.026C1413.38 967.026 1391.86 958.694 1375.89 941.684C1360.27 924.674 1352.28 901.416 1352.28 872.256ZM1388.73 858.718V887.183C1388.73 919.12 1410.6 937.172 1440.8 937.172C1471 937.172 1492.53 918.773 1492.53 887.183V858.718C1492.53 827.822 1471 807.688 1440.8 807.688C1409.91 807.688 1388.73 827.822 1388.73 858.718ZM1539.94 872.256C1539.94 842.749 1547.92 819.838 1563.89 802.828C1579.86 785.818 1601.38 777.487 1628.46 777.487C1654.84 777.487 1676.02 785.818 1692.34 802.828C1708.65 819.491 1716.98 842.749 1716.98 872.256C1716.98 901.069 1709 924.327 1693.38 941.337C1677.76 958.347 1655.89 967.026 1628.46 967.026C1601.04 967.026 1579.51 958.694 1563.55 941.684C1547.92 924.674 1539.94 901.416 1539.94 872.256ZM1576.39 858.718V887.183C1576.39 919.12 1598.26 937.172 1628.46 937.172C1658.66 937.172 1680.19 918.773 1680.19 887.183V858.718C1680.19 827.822 1658.66 807.688 1628.46 807.688C1597.57 807.688 1576.39 827.822 1576.39 858.718ZM1727.6 872.256C1727.6 842.749 1735.58 819.838 1751.55 802.828C1767.52 785.818 1789.04 777.487 1816.12 777.487C1842.5 777.487 1863.68 785.818 1879.99 802.828C1896.31 819.491 1904.64 842.749 1904.64 872.256C1904.64 901.069 1896.66 924.327 1881.04 941.337C1865.41 958.347 1843.55 967.026 1816.12 967.026C1788.7 967.026 1767.17 958.694 1751.21 941.684C1735.58 924.674 1727.6 901.416 1727.6 872.256ZM1764.05 858.718V887.183C1764.05 919.12 1785.92 937.172 1816.12 937.172C1846.32 937.172 1867.84 918.773 1867.84 887.183V858.718C1867.84 827.822 1846.32 807.688 1816.12 807.688C1785.23 807.688 1764.05 827.822 1764.05 858.718ZM1957.34 780.958H2020.52V810.812H1961.51V963.554H1925.76V812.201C1925.76 794.15 1932.35 780.958 1957.34 780.958Z" fill="#0D0D0D"/>
<defs>
<clipPath id="clip0_2388_77">
<rect width="242.02" height="330.314" fill="white" transform="translate(813 672)"/>
</clipPath>
</defs>
</svg>
