<svg xmlns="http://www.w3.org/2000/svg" version="1.1" viewBox="0 0 1020 1020"><path d="M504.96-.391c4.199.017 8.396.007 12.594-.01 26.96-.094 53.52 1.412 80.134 6.026l2.208.376C630.078 11.184 659.21 19.652 688 30l3.763 1.35C720.176 41.707 747.265 55.154 773 71l2.534 1.545C792.69 83.028 809.284 94.455 825 107l1.92 1.527c7.697 6.132 15.25 12.351 22.455 19.059 1.382 1.271 2.77 2.537 4.203 3.751 6.694 5.686 12.836 11.926 19.031 18.142 1.949 1.954 3.903 3.903 5.858 5.851 6.055 6.052 12.036 12.098 17.533 18.67.876 1.01 1.754 2.02 2.633 3.027 19.938 23.282 37.67 48.465 53.154 74.908.843 1.434 1.69 2.866 2.543 4.294 30.243 50.749 50.175 107.91 60.045 166.083l.35 2.024c4.571 26.787 5.777 53.512 5.666 80.625-.017 4.198-.007 8.395.01 12.593.094 26.96-1.412 53.52-6.026 80.133l-.376 2.21c-5.183 30.18-13.651 59.313-23.999 88.103l-1.35 3.763C978.293 720.176 964.846 747.265 949 773l-1.545 2.534C936.972 792.69 925.545 809.284 913 825l-1.527 1.92c-6.132 7.697-12.351 15.25-19.059 22.455-1.271 1.382-2.537 2.77-3.751 4.203-5.686 6.694-11.926 12.836-18.142 19.031a2753.45 2753.45 0 0 0-5.851 5.858c-6.052 6.055-12.098 12.036-18.67 17.533-1.01.876-2.02 1.754-3.027 2.633-23.282 19.938-48.465 37.67-74.908 53.154-1.434.843-2.866 1.69-4.294 2.543-50.749 30.243-107.91 50.175-166.083 60.045l-2.024.35c-26.787 4.571-53.512 5.777-80.625 5.666a1554.75 1554.75 0 0 0-12.593.01c-26.96.094-53.52-1.412-80.134-6.026l-2.208-.376C389.922 1008.816 360.79 1000.348 332 990l-3.763-1.35C299.824 978.293 272.735 964.846 247 949l-2.534-1.545C227.31 936.972 210.716 925.545 195 913l-1.92-1.527c-7.697-6.132-15.25-12.351-22.455-19.059-1.382-1.271-2.77-2.537-4.203-3.751-6.694-5.686-12.836-11.926-19.031-18.142a2753.45 2753.45 0 0 0-5.858-5.851c-6.055-6.052-12.036-12.098-17.533-18.67-.876-1.01-1.754-2.02-2.633-3.027-19.938-23.282-37.67-48.465-53.154-74.908a720.909 720.909 0 0 0-2.543-4.294C35.427 713.022 15.495 655.86 5.625 597.687l-.35-2.023C.704 568.877-.502 542.152-.391 515.04c.017-4.198.007-8.395-.01-12.593-.094-26.96 1.412-53.52 6.026-80.134l.376-2.208C11.184 389.922 19.652 360.79 30 332l1.35-3.763C41.707 299.824 55.154 272.735 71 247l1.545-2.534C83.028 227.31 94.455 210.716 107 195l1.527-1.92c6.132-7.697 12.351-15.25 19.059-22.455 1.271-1.382 2.537-2.77 3.751-4.203 5.686-6.694 11.926-12.836 18.142-19.031a2753.45 2753.45 0 0 0 5.851-5.858c6.052-6.055 12.098-12.036 18.67-17.533 1.01-.876 2.02-1.754 3.027-2.633 23.282-19.938 48.465-37.67 74.908-53.154 1.434-.843 2.866-1.69 4.294-2.543 50.749-30.243 107.91-50.175 166.084-60.045l2.023-.35C451.123.704 477.848-.502 504.96-.391Z" fill="#FDFDFD"/><path d="M510 159h69v96l17 1c24.265 2.623 47.093 8.102 69 19l3.54 1.746c29.913 15.457 53.371 40.252 70.175 69.065a354.86 354.86 0 0 0 3.625 6.013C763.303 386.633 770.33 428.152 774 468l.218 2.231c4.37 45.794.329 96.816-14.452 140.503a664.837 664.837 0 0 0-1.625 4.875c-17.77 53.911-49.089 102.928-100.383 130.07-7.574 3.818-15.521 6.713-23.51 9.525a245.912 245.912 0 0 0-5.506 2.038C613.01 763.024 595.626 765 579 765v96h-69v-95h-62v95h-69v-95h-37V255h38v-95h68v94h62v-95Z" fill="#010101"/><path d="M446 344c136.599 0 136.599 0 152.25 6.813l2.608 1.066C610.923 356.072 619.591 361.05 628 368l2.496 1.895c2.614 2.198 4.594 4.477 6.692 7.168l2.042 2.597c3.77 4.985 3.77 4.985 3.77 9.34h2l1 6h2c4.207 9.104 6.78 18.276 9 28a3677.89 3677.89 0 0 0 1.652 7.13 768.29 768.29 0 0 1 1.042 4.55c.56 3.448.56 3.448 2.306 6.32.97 4.618 1.463 9.315 2 14l.287 2.438c1.774 16.047 1.972 32.155 2.065 48.284.015 2.36.036 4.72.065 7.079.159 14.768-.893 28.51-3.983 42.956-.63 3.26-.947 6.5-1.246 9.806-1.466 11.965-6.245 23.368-10.489 34.586a658.567 658.567 0 0 0-1.98 5.335l-1.219 3.266-1.219 3.297c-1.175 2.71-2.462 4.657-4.281 6.953-.705 2.147-.705 2.147-1 4h-2l-.809 2.207c-3.747 8.784-10.73 15.924-17.191 22.793l-1.637 1.867C613.928 655.81 606.948 660.026 600 664h-2v2c-3.47 1.294-6.953 2.556-10.438 3.813l-2.892 1.08C542.329 686.024 482.577 677 446 677V344Z" fill="#FEFEFE"/><path d="M171 127c0 3 0 3-1.708 5.07l-2.423 2.401-2.73 2.73-2.983 2.936a2745.85 2745.85 0 0 1-11.017 10.93c-2.72 2.689-5.43 5.386-8.143 8.083A7733.984 7733.984 0 0 1 126 175l-2-1c9.676-10.494 19.603-20.713 29.688-30.813l1.733-1.74c1.653-1.659 3.308-3.313 4.966-4.967l1.491-1.497A96.113 96.113 0 0 1 171 127Z" fill="#B4B4B4"/></svg>