<?xml version="1.0" encoding="UTF-8"?>
<svg xmlns="http://www.w3.org/2000/svg" xmlns:xlink="http://www.w3.org/1999/xlink" version="1.1" viewBox="0 0 2115 2150">
  <defs>
    <style>
      .cls-1 {
        fill: #fff;
      }

      .cls-1, .cls-2, .cls-3, .cls-4, .cls-5, .cls-6, .cls-7, .cls-8, .cls-9, .cls-10, .cls-11 {
        fill-rule: evenodd;
      }

      .cls-2 {
        fill: #f2de9b;
      }

      .cls-3 {
        fill: #f13136;
      }

      .cls-4 {
        fill: #2b221c;
      }

      .cls-5 {
        fill: #db2635;
      }

      .cls-6 {
        fill: #fac388;
      }

      .cls-7 {
        fill: #eb6442;
      }

      .cls-8 {
        fill: url(#linear-gradient);
      }

      .cls-9 {
        fill: #ae212f;
      }

      .cls-10 {
        fill: #221b17;
      }

      .cls-11 {
        fill: #fb7f43;
      }
    </style>
    <linearGradient id="linear-gradient" x1="1088.5" y1="9.6" x2="1088.5" y2="2041.8" gradientUnits="userSpaceOnUse">
      <stop offset="0" stop-color="#d9b759"/>
      <stop offset="1" stop-color="#d5502d"/>
    </linearGradient>
  </defs>
  <!-- Generator: Adobe Illustrator 28.7.2, SVG Export Plug-In . SVG Version: 1.2.0 Build 154)  -->
  <g>
    <g id="Tail_Fins">
      <path id="Circle_Inner" class="cls-4" d="M1113.7,87.3c535.3,0,934.9,418.7,934.9,924.8s-418.6,944.8-934.9,944.8S148.8,1538.4,148.8,1022.1,597.4,87.3,1113.7,87.3Z"/>
      <path id="Tail_Fin_1" class="cls-9" d="M227.9,941.5c20.6,6.3,140.4,54.7,145.6,72.8,34.8-44.8,75-92.1,115-123.7-28.3-20.8-206-40.9-260.6,50.9Z"/>
      <path id="Red" class="cls-3" d="M262.5,954.5c-16-6.5-29-11.3-34.6-13,54.6-91.8,232.3-71.7,260.6-50.9-26.3,20.8-52.7,48.4-77.6,77.6-88-48.7-145.5-45.7-148.4-13.6Z"/>
      <path id="Red-2" class="cls-7" d="M274.4,898.5c0,0-.1,0-.2,0,74.4-40.6,191.8-24.4,214.3-7.9-15.8,12.5-31.7,27.5-47.3,43.8-97.4-42.2-135.7-35.3-166.9-35.9Z"/>
      <path id="Tail_Fin_1_Hilite" class="cls-2" d="M260.6,906.9c72.8-51,203.9-33.9,227.9-16.2-3.3,2.6-6.6,5.3-9.9,8.2-97.8-34.5-175.3-12.2-218,8.1Z"/>
      <path id="Tail_Fin_2" class="cls-3" d="M170.9,1075.9c80.8-43.9,168.1-55.1,198.6-53-25.4,37.9-104.2,165-118.9,238.6-13.6,0-27.3,1-40.8,3.2-2.4-6.2-4.8-12.5-7.1-18.8-14.6-55.5-25.1-114.1-31.8-170Z"/>
      <path id="Ornge" class="cls-9" d="M272.9,1196.1c-10.4,23.7-18.5,46.4-22.3,65.4-13.6,0-27.3,1-40.7,3.2-.3-.8-.6-1.5-.9-2.3-.5-1.2-.9-2.5-1.4-3.7-1.6-4.2-3.2-8.5-4.8-12.8-1-4-2.1-7.9-3-11.9-.2-.9-.4-1.8-.7-2.7-.8-3.2-1.6-6.3-2.3-9.5-.1-.4-.2-.8-.3-1.3,24.6-10.7,50.2-18.8,76.5-24.4Z"/>
      <path id="Ornge-2" class="cls-7" d="M369.5,1022.9c-8.8,13.1-24,36.9-40.7,65.5-46,5.6-99.9,27-148.6,52.4,0-.2,0-.3,0-.5-.8-5-1.6-9.9-2.4-14.9-.2-1.2-.4-2.5-.6-3.8-.8-4.9-1.5-9.7-2.2-14.6-.1-1-.3-1.9-.4-2.9-.6-4.1-1.1-8.3-1.7-12.4-.2-1.3-.4-2.7-.5-4-.5-4-1-7.9-1.5-11.9,80.8-43.9,168.1-55.1,198.6-53Z"/>
      <path id="Tail_Fin_2_Hilite" class="cls-2" d="M171,1077.1c0-.4,0-.8-.1-1.2,50.1-27.2,102.6-41.8,142.6-48.6-59.3,12.5-105.4,30.9-142.1,52.5-.1-.9-.2-1.8-.3-2.8Z"/>
      <path id="Tail_Fin_3" class="cls-5" d="M243.1,1298.3c-2.5,7.1-4.8,18-7,31.1-2.8-6.6-5.6-13.2-8.4-20,5.4-4,10.5-7.7,15.4-11.1Z"/>
      <path id="Stomach-2" class="cls-3" d="M543.5,1372.5c1.1,39.4,27,116.1,49.8,131.2,65.7-3,97-26.5,109.5-20.7,4.1,20.8,13,40,43.2,44.8,4.4-7.7,5.6-11.5,8.2-18.5-5.6-3.4-35.1,2-42.4-46.3-25.4,8.8-99.5,25.3-111.1,14.8-9.9-9-40.9-84.7-34.4-120.4,13-7.9,33-19.4,47.7-26.3,29.8,21.3,70.8,63.9,208.1,109.6-74.9,97.5-102.9,245.7,6.9,386.7,15.4,17.3,31.9,33.7,49.3,49-64.5-15.2-127-36.4-186.4-60.5-10.3-.3-20.5-1.8-30.5-4.3,10.6-19.7,13.5-32.1,21.6-46.1,16.3,8.3,64.1,5.3,65.3-20.1-1.6-4.6-5.6-18.6-8.2-21.6-.1,21.8-3,25.8-16.5,32.1s-30.5-.6-48.1-9.6c-.8,12.1-12.8,37.8-26.6,61.4-2.3-.9-4.6-1.8-6.9-2.7-71.9-31-164.5-115.9-185-133-21.2-19.4-40.9-40.2-59.1-62.4,14.9-88.3,59.4-174.4,145.7-237.1Z"/>
      <path id="Neck_Hilite" class="cls-6" d="M864,1873c-1.4-.4-2.9-.7-4.3-1.1-3.5-.9-7-1.8-10.6-2.7l-4.3-1.1c-4.5-1.2-9.1-2.5-13.6-3.8l-.7-.2c-4.8-1.4-9.5-2.7-14.2-4.2-.5-.1-1-.3-1.4-.4-104.9-115.5-116.8-326.2-7.1-423.6,4.7,1.6,9.5,3.3,14.4,4.9-1.2,1.5-2.3,3.1-3.5,4.6-2.3,3.1-4.5,6.2-6.7,9.4-3.3,4.8-6.5,9.7-9.5,14.7-2,3.3-4,6.7-6,10.1-1,1.7-1.9,3.4-2.9,5.2-1.9,3.5-3.7,7-5.4,10.5-.9,1.8-1.7,3.5-2.6,5.3-18.6,39.4-29.7,83.4-29.5,129.8.3,63.3,21.5,131,73,197.1,1.5,1.6,3,3.3,4.6,5.1.9,1,1.9,2.1,2.8,3.1,2.3,2.5,4.7,5,7.2,7.6.5.5,1,1,1.4,1.5,1.3,1.3,2.6,2.7,3.9,4,.9.9,1.9,1.9,2.8,2.8,7.8,7.8,16.6,16.2,26.5,24.9-4.8-1.1-9.6-2.3-14.4-3.5Z"/>
      <path class="cls-5" d="M799.2,1474.9c-79.9-21.1-172.7-107.2-201.5-135.4,5.7-3.1,11.4-6,16.4-8.3,29.8,21.3,70.8,63.9,208.1,109.6-8.4,10.9-16,22.3-23,34.1Z"/>
      <path id="Neck_Shadow" class="cls-9" d="M656.9,1363.2c-15,18.8-59.3,77-59.8,109.8-12.2-19.3-36.6-83.6-30.7-115.6,13-7.9,33-19.4,47.7-26.3,11.2,8,24,19,42.9,32.1ZM398.2,1610c-.1-.1-.2-.3-.3-.4,14.9-88.3,59.4-174.4,145.7-237.1,1.1,39.4,27,116.1,49.8,131.2,65.7-3,97-26.5,109.5-20.7,3.1,15.6,8.8,30.3,24.3,38.8h-.7c-23.1,1.3-179.3.9-222.2,118.9-7.1,19.5-11.7,39.7-13.7,60.3-11.3-9.5-20.6-17.7-27.1-23.3-.2-.2-.4-.3-.6-.5-.3-.2-.6-.5-.8-.7s-.5-.4-.8-.7c-.2-.2-.4-.4-.7-.6-.3-.2-.5-.5-.8-.7-.2-.2-.4-.3-.6-.5-.3-.2-.6-.5-.8-.7-.1-.1-.3-.2-.4-.3-.4-.3-.8-.6-1.1-.9-2.2-2-4.3-4-6.5-6-.4-.4-.9-.8-1.3-1.3-2.1-2-4.3-4.1-6.4-6.2-.3-.3-.7-.7-1-1-2-2-4-4-6.1-6.1-.3-.3-.5-.6-.8-.8-2.2-2.2-4.4-4.5-6.6-6.8l-1.3-1.3c-2.2-2.4-4.5-4.7-6.7-7.2,0,0-.1-.2-.2-.2-2.2-2.4-4.4-4.8-6.6-7.3l-1.1-1.2c-2.2-2.5-4.4-5.1-6.7-7.6-.3-.4-.7-.8-1-1.2-2.2-2.5-4.3-5.1-6.5-7.7Z"/>
      <path id="Circles" class="cls-11" d="M713.9,1800.8c3.3-13.1,16.8-20.3,30-16s21.2,18.4,17.9,31.6c-2.8,11.1-13.3,18.4-24.6,17.1-4.2-1.5-8.3-3.1-12.5-4.7-8.8-6.2-13.5-17.4-10.8-28ZM705.6,1801.7c6,5.5,7.9,14.1,4.9,21.7-6.2-2.4-12.3-4.9-18.4-7.3-5.1-.2-9.8-.6-14.1-1.2-.4-4.4,1-8.8,3.7-12.3,5.9-7.3,16.6-7.7,23.9-.9h0ZM552.4,1624.6c-.9-14.9,9-27.4,22.1-28s24.5,11.1,25.4,25.9-9,27.4-22.1,28-24.5-11-25.4-25.9ZM568.9,1689.8c22.1-7.6,47,7,55.7,32.6s-2.1,52.7-24.2,60.3c0,0-.2,0-.2,0-19.4-11.9-39-25.8-57.4-39.8-4.7-23.4,6-46.3,26.1-53.2h0Z"/>
      <path id="Back-2" class="cls-5" d="M458.3,994.6c3.6,33.4,29,180.3,102.4,287.3-81.2,59.9-167,147.1-195.8,284.8-29.7-41.5-59.7-91.4-89.6-151.6,12.2-146.4,63.3-302.2,183-420.4Z"/>
      <path id="Back_Shad" class="cls-9" d="M478.9,1178.6c-30.8,14.2-84.3,13.7-129.1,87.2-65.2,83.2-5.1,108.2,15,109.4,18.9,1.2-46.2-6.5-70.7,76.1-.4-.8-.9-1.6-1.3-2.4l-1.1-2c-1.7-3.2-3.4-6.4-5-9.6,0-.2-.2-.3-.3-.5-1.6-3.1-3.2-6.2-4.8-9.3-.4-.8-.8-1.5-1.2-2.3-1.6-3.2-3.2-6.4-4.9-9.7,0-.2-.2-.3-.2-.5,12.2-145.8,62.9-301,181.7-419.1.9,1.2,1.5,2.5,2,3.9.2,1.4.4,3,.6,4.7-1.8,32.7-121.4,144.9,19.3,174Z"/>
      <path id="Circles-2" class="cls-11" d="M400.7,1112.1c5.6-4.1,13.7-2.1,18.1,4.4s3.4,15-2.3,19.1-13.7,2.1-18.1-4.4-3.4-15,2.3-19.1ZM487.1,1222.4c5.9,1.8,9.9,8.4,8.9,14.7s-6.6,10-12.5,8.2-9.9-8.4-8.9-14.7,6.6-10,12.5-8.2h0ZM335.5,1404.7c9.7,1.2,17.6,10.6,17.5,20.8s-7.9,17.5-17.6,16.2-17.6-10.6-17.5-20.8,7.9-17.5,17.6-16.2Z"/>
      <path class="cls-9" d="M451.1,1001.8c2.4-2.4,4.8-4.8,7.2-7.2,3.6,33.4,29,180.3,102.4,287.3-9.5,7-19.1,14.4-28.6,22.2-43.1-68.5-78.8-248-81-302.2Z"/>
      <path id="Ring_3_-_Rd_6" class="cls-8" d="M1981.3,1238.8c-1,0-2.1,0-3.1,0-.2,4.2-1.8,6.6-2.2,8.9-1.6,9,1.4,26.4,3.5,36.9,1.5.8,2.9,1.9,4.1,3.1,10.8-3.5,8.2-13.6,11.7-24.7,1.1-3.4,5.6-8.3,6.3-10.9.8-3.1-3.3-4.5-1.9-9,2-6.5,5.7-8.5,5.4-16.8-2.6-1.5-3.2-1.6-4-5.1,2.2-2.4,4.2-15.1,5.4-19.8l-.9-8c4-17.4,4.5-33,10.1-53.6.1-7.3.2-14.6.3-21.9,11.6-94.5.6-207.9-27.2-294.3,1.3-1.5,2.3-4.1,3.2-5.9,1.8.7,1,.2,2,1,10.9,5,12.2,50.8,20.7,56.1,0-.3,0-.7,0-1,5.4-6.3.8-12-.7-18.9.4-4,.8-8,1.2-11.9-2.7-1.4-5.4-2.7-7.1-5.1,2.8-2.5.3-15.5-2.8-19,3.5-5.5,2.1-12.2-.7-19.9-13-36-21.8-74.7-38.3-107.2-6.1-12-8.6-24.3-14.8-36.1-23.1-43.5-47.7-88.3-76-127.7l-9.1-9.1c-8.5-11.6-15.3-23-24.1-34.3-3.3-4.3-9.9-6.7-13.2-11.2-5.6-7.6-10.3-14.8-16.1-22.2l-7.1-5.1c-.7-2-1.3-4-2-6-3.1-3.4-8.2-5.7-11.1-9.1-13.5-16.1-27.8-31.5-44.5-44.5l-3-5c-5.9-6.3-12.4-12-19.2-17.2-7.4-5.5-33.6-24.3-36.5-31.5-1.1-1.6-1-4.1-.9-7,15.2-8.3,17.1,4.7,29.6,8.4,6.1,1.8,9.2-2.6,15.4-2.7,6.2,6.5,12.3,13.3,21.3,17.3l27.6,9.4c9.2,5.6,18,11.7,26.4,18.3,1.7,2.4,3.4,4.7,5,7.1,5.1,3.6,13.1,4,16.3,9.2.3,1.7.6,3.3.9,5,2.3,3.4,5,1.6,6.1,7.1h3.1c3,4.9,11.7,17,16.1,20.2,1.4.4,2.7.7,4.1,1.1,3.3,3.1,4.3,8.4,8,11.1,2.7,2,7.3,2.5,9.2,5.1,2.5,3.6,2.2,9.4,4.9,13l9.2,6.1c.3,1.7.6,3.3.9,5,2.3,3.4,7.8,5.7,10.1,9.1,3.5,5.1,4.7,10,8,15.1,2.8,4.3,9.4,7.5,12.1,12.1,35.3,60.4,70.8,119,99.7,185.9,3.8,8.8,4.1,16.8,7.8,26,16.8,41.3,30.7,90,43,136.2.7,2.5-1.2,4-.1,8,3.9,14.8,6.8,33.8,10.5,49,.6,7,1.1,14,1.7,21,5.8,25.5,3.6,51.9,9,77.9,1.6,7.4-2.8,15.5-1.4,21.9.5,2.1,3.6,6.2,4,8,.2.9-2.3,4.5-1.1,6.9,1.4,3,7.1,3.1,8.1,7.1-.4,2.3-.8,4.6-1.1,6.9.5.9,3.6,1.6,4.1,3.1,1.2,3.5-1.6,9.4-2.2,11.9-1.1,4.2,1.4,6.7,1.9,9,.5,2.2-.9,4.3-1.1,5-2.5,10.3-.8,19.9-1.5,28.9-.2,2.7,2.4,12.2.7,18.9-4.4,17.6-2.5,33.2-6.9,49.7-2.6,9.6-1.3,21.6-3.5,29.8-2,7.4,0,14.7-1.3,19.9-3.2,12.9-7.7,31.7-12,44.7-.4,4-.8,7.9-1.2,11.9-10.7,29.4-20.2,63-31.2,91.2-1.2,8.9-2.3,17.9-3.5,26.8-3.6,9.6-13.6,16.4-17.8,25.6-3.4,7.4-3.4,14.3-6.5,21.8-12.6,30-31,59.6-47.6,85.9-4.3,6.8-5.2,14.2-9.6,20.8-7.6,11.5-15.2,23.6-23.1,35.5-4.7,7-11.8,13-16.7,19.7-12.7,16.9-23.3,34.5-35.7,51.2-2.4,2-4.9,3.9-7.3,5.9-3,3.9-4.4,8-7.4,11.8-2.8,2.6-5.6,5.2-8.3,7.8-1.7,2.4-2.1,5.8-4.2,7.9-3.9,3.9-10,6.5-13.5,10.8-3.4,4.1-6.3,10.5-10.5,13.8-5.1,4.1-10.9,7.2-15.6,11.7-2,1.9-2.5,4.8-4.2,6.9-4.6,5.8-13.1,9-17.7,14.7-2.3,2.8-3.3,6.7-6.3,8.9-8,5.8-14.4,13.3-21.8,18.6-4.7,3.3-10.4,5.9-14.5,9.7-3.4,3.2-5.6,8.1-9.4,10.8-7.1,5.1-14.3,9-20.8,14.6-.4,1-.7,2-1.1,3-46.6,32.8-94.6,63.3-145.2,92.4-5.2,3-11,2.8-16.5,5.7-5.3,2.8-11.8,8-17.6,10.7-4.2,1.9-8.1,1.1-12.4,2.8-2.7,1.1-5.1,4.9-7.3,5.9-3.2,1.3-6.2-1.8-8.2-1.1l-6.3,6.9c-2-.4-4.1-.7-6.1-1.1-7.2,2-15,9.5-21.8,12.6-7.9,3.6-14.9,3.9-23.7,6.6-12.7,4-25.1,8.8-37.2,14.4-10.9,5.1-21.1,13.3-33.1,17.4l-25.7,1.6c-9.4,3.1-22.2,8.4-32,11.5-4.1.3-8.2.5-12.3.8-16.7,4.9-37.7,8.7-55.6,13.1-4.5,1.1-7.7-.6-10.3-.2-6.7,1.2-15.9,4-22.7,5.6-3.8.9-8.9-.1-10.3-.2-9.5-.3-24.5,3.5-32.9,5.5-3.4-.4-6.8-.8-10.2-1.2-8.1,1.1-19.9,1.7-28.8,3.5-6.5-.1-13-.2-19.5-.3-9.9,2-23.1-.9-34.9,1.4-18.2,3.6-52.5,2-70.8-2.1-7.9-1.7-19.3,2.9-28.8.6-13.9-3.4-30.2-1.8-46.1-5.7-3.4,0-6.8-.1-10.3-.2-13.8-3.5-32.9-5.4-46-10.7-7.9-3.2-18.2-9.7-26.5-12.4-9-2.9-17.1-.8-26.6-3.4-8.8-2.3-18.5-6.2-26.6-8.4l-13.3-.2c-5.9-1.7-14-2.3-21.5-4.3-8.5-2.3-14.2-6.2-22.5-8.3-7.2-.4-14.4-.9-21.5-1.3-30.4-10.4-61.5-23.4-87.7-37.2-6.1-3.2-12.7-3.8-18.4-7.3-14-8.7-28.5-19.1-42.7-27.6-16.4-9.8-31.9-16.8-46.8-27.6-8.1-5.9-16.1-16.3-24.3-22.3-6.8-4.9-13.4-6.1-21.4-10.3-8.6-4.5-15.8-12.8-23.3-18.3-4.2-3-9.1-4.2-13.2-7.2-3.4-3.4-6.7-6.7-10.1-10.1-3.7-2.5-7.8-3.4-11.2-6.2-1.4-1.1-1.7-3.9-3-5-11.6-10-24.7-17.8-35.5-28.5-1.4-1.4-1.4-3.8-3-5-20.6-15.7-38.9-34.1-54.6-54.7-9.4-12.5-25-21.8-34.4-34.4-36.6-49.1-73.7-96-103.3-152.1-3.2-6.1-9.2-13.2-13-19.1-5.5-8.6-7.3-17.9-11.9-27.1-5.3-10.6-12.6-21.9-18-32.2-2.3-4.5-1.9-8.2-3.9-13-2.6-6.1-7.5-13.6-10-20.1-1-4.7-1.9-9.3-2.9-14-3.4-7.7-10-16.4-13-25.1-12.6-36.8-21.2-74.6-32.1-112.1-3.6-12.6-2.4-22.6-5.6-35-7.2-27.6-8.9-62.4-16-91.9l-.5-31.9c-5.2-22.1-8.2-71.3-1.6-95.7.1-7.6.2-15.3.4-22.9,4.2-16.8,1.3-41.6,6.1-59.7.1-7.3.2-14.6.3-21.9,3-11.7,4.5-26.4,7.8-38.7l2.5-25.9c1.3-4.9,3.1-13.2,4.4-17.9,0-4.6.1-9.3.2-13.9,4.8-15.7,9-34.9,14.1-48.6l2.3-17.9c6.4-14.9,13.6-33.3,19.2-48.5,3-8,3.1-15.2,6.5-22.8,12.1-27.3,23.5-54.9,36.2-82.1,3.9-8.4,10.8-16.3,14.8-24.7,4.5-9.4,7.2-18.2,12.7-26.7,32.4-50,64.5-98.7,99.8-145.9,16.8-22.4,39-41.1,56.4-62.9l16.7-14.7c11.5-14.3,25.4-23.9,38.6-36.3,4.5-4.2,7.5-10.2,12.5-13.8,3.9-2.7,9.5-5.2,12.5-8.8,2.3-2.8,3.3-6.8,6.3-8.9,36.3-25.4,70.5-54.3,108-78,11.1-7,22.6-11.6,34.2-18.4,5.3-3.1,10-9,15.6-11.7,12-5.9,22.8-8.9,34.1-15.4,19.1-11,39.6-23.4,61.1-31.9,12.2-4.9,23.9-7.4,36.1-12.4,26.5-10.8,54.9-23.6,83.7-32.6l24.7-4.6c34.7-10.4,77.8-16.5,111.3-25.2l15.4.2c10.5-2.2,25.7-2.9,37-5.4l16.4.3c40.2-8.5,80.5-3.5,120.1,1.9,17,2.3,43.8.9,60.5,4.9,13.6,3.3,29.6,4.9,43,8.6l17.4,1.3c36.2,9.7,72.6,16.9,107.4,27.6,7.5,2.3,12.3,1,19.4,3.3,17.2,5.4,37.5,13.6,54.1,19.8,6.8,2.5,11.5.9,16.4,3.2,6.6,3.2,12.6,10.3,19.3,13.3h6.2c9.2,3.4,18,7.6,26.5,12.5v2s-2.1,0-2.1,0c-5,3-15.9-.1-19.5-1.3-12.6-4.1-26-3.6-37.9-7.6-4.8-1.6-14.7-1.3-16.4-.3-1,.7-2.4,3.7-3.1,3.9-2.6.9-4.8-3.6-6.1-4.1l-5.1.9c-1.9-.6-4.8-1.9-9.2-2.1-1,1.7-1.3,1.7-2.1,4h1c8.5,5.7,30.4,9,34.6,17.5.3.3.7.7,1,1h-2.1c-6.2,1.7-26.6-5.7-35.8-6.6-.6,1.3-.9,2.6-1.1,4,2.4,1.9,2.8,3.9,3,8-3.7,2.2-5.6,3-12.4,2.8-5.8-11-13-3.6-26.6-6.4-9.5-2-26.6-5.1-37.9-7.6-1-.2-4.6,1.5-7.2.9-7.7-1.8-19.2-2.1-24.6-3.4-2.9-.7-22.6-1.4-22.6-1.4-3.1,2.1-7,4.9-8.3,8.8h1c4.1,2.4,11.2.9,16.4,2.3,15.3,4,28.1,3.1,39.9,8.6-.7,1.7-.2,1-1.1,2-3,2.6-6.8,4.9-9.4,7.8-5.5-2.4-12-1.1-19.5-3.3-18.5-5.5-46.5-5.2-70.7-11.1-13-3.2-29.8.1-39-2.6-2.8-.8-7,.7-8.2.9-4.1.7-13.8-1.5-17.4-2.3l-13.4.8c-12.9-2.9-26.8-1.5-40,.4-.9.1-4.7-1.2-7.2-1.1-8.4.3-25.3-.3-33.9,1.5-10.8,2.2-20.9,1.3-30.8,3.5l-14.4-.2c-8.7,1.9-20.2,4.4-28.8,5.5-2.4.3-4.6-1.9-8.2-1.1-27,5.6-59.4,11.4-85.5,18.6h-7.2c-7.2,2-16.9,5.5-23.7,7.5l-12.3,1.8c-2.4,1.1-5.4,4.8-8.3,5.8l-9.3.9c-6.4,2.1-15.1,6.5-21.7,8.6l-12.3.8c-2.8.9-6.8,4.7-9.3,5.8-8.5,3.7-15.8,3.7-23.7,7.6-5.6,2.7-12.1,8.1-17.6,10.7-5.1,2.4-11,1.2-15.5,3.7-30.4,17.1-64.7,30-94.2,48.3-13.2,8.2-25.3,19-37.4,28.3-5.6,4.3-13.6,5.8-19.7,9.7l-6.3,6.9c-7.7,5.4-16.1,9.2-23.8,14.6-7,4.9-12.7,12.8-19.8,17.6-8.2,5.6-16.8,9.9-23.9,16.6-2.6,2.4-3.7,6.4-6.3,8.9-11.3,10.7-24.1,18.5-34.4,30.3-3.6,4.2-10,6.6-13.5,10.7-6.4,7.6-14,15-19.9,22.6-3,3.9-4.1,9.2-7.4,12.8-6.8,7.5-18.8,12.9-25,20.5-20,24.9-39.1,49.2-58.7,74.8-7.2,9.5-17.4,17.5-24,27.5-24.2,36.3-44.9,75-64.4,115.6-2.9,6-2.8,10.7-5.4,16.9-4.8,11.5-11.5,25.8-16,37.6-.4,3.3-.8,6.6-1.2,9.9-6.7,18.3-14.5,39.5-20.4,58.5-4.4,14-5.1,29.6-8.9,42.7-.4,5.3-.9,10.6-1.3,15.9-3.6,13.2-6.2,30.7-9.9,44.7-.5,10.3-1,20.6-1.5,30.9-1.6,6.7-1.8,12-3.4,17.9l-.3,18.9c-2.7,11.4-4,30.1-1.7,41.8-.4,3.6-.8,7.3-1.2,10.9-.3,10.5.3,25.4,2.5,33.9l.3,46.8c6.6,30.2,6.6,63.6,14,91.9.3,1.1-1,4.6-.1,8,1.2,4.6,3.7,10.6,4.9,15,0,3,0,6-.1,9,1.6,5.1,5.3,12.6,6.9,18.1.3,4.6.5,9.3.8,14,2.6,9.6,4.5,20.4,7.7,31,12,39.6,28.8,77.9,43.3,116.3,2.6,6.7,10.6,17.7,14,24.1,13.8,25.9,25.2,50.8,43,72.4,6.1,7.4,9.3,19.2,15,27.1,1.7,1.4,3.4,2.7,5.1,4.1,4.5,6.2,6.6,12.6,11,19.1,1.8,2.7,6,4.6,8.1,7.1,1.7,1.9.6,4.6,1.9,7,3.4,6.3,10.9,10.7,15.1,16.2l2,6c3.7,4.1,9.4,7.1,13.2,11.2,1.9,2.1,1.1,5.7,3,8,2.2,2.8,6.7,4.5,9.1,7.1,4.3,4.6,7,12.4,12.1,16.1,3.3,2.4,6.8,2.9,9.1,6.1,15.8,21.1,36.7,40.4,57.6,56.7,1.3,2,2.7,4,4,6,5.9,4.5,11.3,7.8,17.3,12.2,2.4,2.7,4.7,5.4,7.1,8.1,6.1,4.5,13.8,8,19.3,13.3,1.7,1.6,2,4.6,4,6,33.7,24.6,68.6,47.4,104.7,68.4,0,.7,0,1.3,0,2-1,0-2.1,0-3.1,0-8.2-7.9-25.4-9.6-36.7-16.5-28.9-17.7-57.4-35.6-84.3-55.1-6.2-4.5-11.1-11.7-17.2-16.2-70.7-52.8-125.5-121-175.6-193.1-2.5-3.7-2.5-8-4.9-12-2-2-4-4-6.1-6.1-5.7-8.5-7.2-18.6-12.9-27.1-11.6-17.2-24.2-35.7-33-55.3-9.6-21.3-20.9-42.8-29.8-64.2-1-4.3-1.9-8.7-2.9-13-1.3-2.4-4.8-5.2-6-8.1-9.3-22.3-13.1-45.3-22.5-68.1-1.6-3.9-5.4-8.3-7-12.1-5.5-13.2-10-45.5-24.9-47.2,0,.7,0,1.3,0,2-4.4,5.8,4.6,16,6.8,22,2.6,7.2,1.9,14.1,4.8,21,3.6,8.6,9.8,17.9,12.9,26.1,2.6,7,3.6,15,5.8,21,30.7,81.9,64.9,157.1,109.4,225.9,2.9,4.5,8,8.9,11.1,13.1,2.3,3.2,2.6,6.8,5,10,2.4,1.7,4.7,3.4,7.1,5.1,45.2,65.1,95,122.2,158.5,169.9,4.4,4.4,8.8,8.8,13.1,13.2,17.6,12.9,35.4,27,53.8,38.7,19.3,12.3,42,27.6,64.1,35.9,10.2,3.8,13.2-.2,20.6-1.7,1.2-.2,21.1,7.3,22.5,8.3,21,15.7,46.5,21.6,73.4,32,8,3.1,18.6,8.5,26.5,11.4,13.9,5,29.1,4,43,8.7,8.9,3,17,9.2,25.5,12.4,10.6,3.9,20.9,3,32.7,6.5,38.8,11.5,85.1,19.2,127.9,24.9,33.2,4.4,93.3,4.3,122.2-4.1,6.4-1.8,13.4,2.2,18.5,1.3,16.8-2.9,37.9-6.5,55.6-7.1,2.7,1.7,11.5-2.3,14.4-1.8,9.9,1.7,27.5-4.8,39.1-5.4,13-.6,25.6-5.2,36.1-8.4,8-2.4,13.2-.4,21.6-2.7,31-8.3,64-18,90.8-30.5,6.6-3.1,12.1-2.7,18.6-5.7,28.9-13.6,58.4-29.3,85.9-44.5,3.6-2,7.4-.9,11.3-2.8,1.1-1.3,2.1-2.6,3.1-3.9,3.7-2.4,8.6-2.4,12.4-4.8,4.1-2.5,7.8-7.7,12.5-9.8,2.4-.3,4.8-.6,7.2-.9,2.4-2.3,4.9-4.6,7.3-6.9,3.2-2,7.1-1.8,10.3-3.8,3.3-2.1,5.4-6.5,8.3-8.8l6.2-.9c4.2-2.3,7.5-7.2,11.4-9.8l4.1-.9c4.3-3.8,3.2-9,5.3-12.9,6.2-5.3,13.4-7.1,20.7-11.6,8.4-5.2,14.1-13.9,21.9-19.6,4.7-3.4,9.6-5.4,14.5-8.7,9-6.2,14.9-17.6,24-23.5,9.6-6.3,15.9-12.8,23.9-20.6,1.7-1,3.4-1.9,5.2-2.9,7.7-8.8,12.9-21.3,21-29.6,2.6-2.7,12-3.5,15.5-6.7,2.9-2.7,3.9-6.7,6.3-9.9,2.4-1.9,4.9-3.9,7.3-5.9,4.5-5.8,6.4-12.7,10.6-18.8,1.8-2.7,5.1-3.6,7.3-5.9,5.6-5.5,7.8-14.5,12.7-20.7,1.7-1,3.4-1.9,5.2-2.9,5.9-6.6,9.3-14.6,14.7-21.7,2.2-2.9,6.2-5.7,8.3-8.8,18.3-26.9,34.9-54.9,49.6-83.9,2.8-5.6,8.8-11.6,11.6-17.8,7.8-17.3,11.2-34.4,19.3-51.5,4.4-9.3,10.9-20.8,14.8-30.7,2-5,1.1-8.3,3.3-12.9,1-2.2,4.4-4.5,5.2-6.9,4.6-12.2,2-27.3,5.8-39.8,3.8-12.7,10.5-23.9,14.9-36.6.4-3.7.8-7.3,1.2-10.9,3.9-11.9,7.9-30.4,10.9-39.7,2.7-8.3,1.3-19.5,2.5-25.9,3.7-19.4,5.4-36.6,9-52.7.5-2.2-1.8-5.4-.9-9,4.8-19,2.9-38.3,6.1-58.7.5-3-1.6-3.5-2-5-.8-3.3.4-14.4,1.3-16.9.3.3.7.7,1,1,1.8,2.9,1.5,14,.7,18.9,1.1.5,2.1,1.2,3,2,1.8-.6,1-.2,2.1-1,5.3-5.6,1.9-19.3,1.4-25.9,1.1-1.6-1.8-6.2-.8-11,2.5-13.1-6.3-29.9-2.3-48.9h2.1c0,.4,0,.7,0,1,9.8,8.1,9.2,36,12.5,51,0,4.7-.1,9.3-.2,14,6.5,30.5,3.8,77.9-1.8,112.6-1.2,7.3,1,16.3-1.4,25.9-1.3,5.1-1.4,11.8-3.4,17.9-2.1,6.6-8.3,16.8-8.6,24.8,0,2.5,3.7,5.9,4,8,.4,3.1-3.5,6.4-4.2,8.9,0,3.6,0,7.3-.2,10.9ZM1517.3,126.6c46.9,8.1,92.3,31.2,134.8,47,14.1,5.2,27.8,9.8,40.8,14.6,7.2,2.6,12.2,1.2,17.4,4.3,16.3,9.6,28.1,24.8,44.6,33.6.5,4.1.7,6.1-.2,10-2.3.5-2.7.7-4.1,1.9-12.3-2.6-19.4-11.9-30.6-14.4-3,2.2-12.4,5.3-15.5,3.7-13-4-24.8-15.6-35.6-22.5-7.5-4.8-16.9-6.4-24.5-11.3-7.3-4.8-12.2-10.6-23.4-12.3-1.4,2.1-15.8,16-17.7,16.7-4.7-4.9-19.8-7.8-28.6-12.4-16.2-8.4-27-24.5-41.5-34.5-7.8-5.4-20.1-10-21.2-21.3,1.9-.7,3.6-1.7,5.2-2.9ZM488.1,422.2c2-11.3,27.8-32.4,36.5-39.3,11.8-9.3,21.1-22.7,33.3-31.4,15.6-11.1,29.5-22.4,45.7-33.2,3-2,5.1-7,8.4-8.8,3.5-2,7.2-1.6,10.3-3.8,79.1-55.2,170.5-102,277.2-129.1,18.6-4.7,38.5-9.4,57.7-14,17-4.1,32.1-1.9,49.4-6.2,25.7-6.4,54.7-5,80.2-10.7l11.3,1.2c1.1-.2,16.5-2.7,16.5-2.7.3-1,.7-2,1.1-3,4.5-1.8,15,1.8,20.5,1.3,26-2.3,49.4,1.2,72.8,6.1v2s-1.1,0-1.1,0c-3.8,3.1-6.2,1.3-12.4,2.8-12.1,2.9-23.3,3.3-37,5.4-2.4.4-11.1-1.2-16.4-.3-10.1,1.8-27.4-.4-40.1,2.4-7.4,1.6-19.1,1.7-27.8,3.5l-14.4-.2c-31.6,6.8-66.1,4-100.8,13.4-23.3,6.3-50.7,10.5-76.2,17.7l-15.4,1.8c-7.5,2.1-17.6,5.5-24.8,7.6h-6.2c-31.7,11.9-63.7,27.6-92,43.3-5.8,3.2-11.9,3.3-17.6,6.7-.4,1-.7,2-1.1,3-2.2,1.5-4.9.4-7.2,1.9-2.2,1.4-3.7,5.8-6.3,6.9h-6.2c-4.8,1.5-9.4,6.3-13.5,8.7-2.1,1.2-5.2.4-7.2,1.9-20,14.4-40.8,27.7-62.2,39.9-3.3,1.9-5.4,6.9-8.4,8.8-14.6,9.6-28.9,17.8-42.5,28.2-1.6,1.2-1.6,4.7-3.2,5.9-4.6,3.8-12,5-15.6,9.7-4.3,5.7-6.8,11.7-12.6,15.7-4.9,3.5-10.1,4.4-15.5,7.7-9.9,6.2-24.9,28.1-37.4,29.3ZM1493.3,152.1c4.2.9,6.3,1.7,7.1,6.1-.3.3-.7.7-1,1-2.4-1.4-4.8-2.7-7.1-4.1.4-1,.7-2,1.1-3ZM1448.9,166.3c14.2.6,28.2,8.7,40.9,12.6,1.4-.3,2.7-.6,4.1-.9,4.2,1.1,8.8,2.8,15.3,4.2,1.7,2.9,3.3,3.9,4,8-1,.6-2.1,1.3-3.1,1.9-3.3,2.5-11.2,3.7-16.4,1.7-1.6-.6-3.4-3.4-5.1-4.1-16.3-6.4-31.6-8.9-42.8-19.6v-2c1.2-.5,2.2-1.1,3.1-1.9ZM1368.8,166.1c12,0,36.2,8,38.8,15.6.9,1.3.9,2.5.9,5-2.4,1.1-3.4,2.1-6.2,2.9-8.6-5.5-35.7-11.8-38.7-20.5,1.9-.7,3.6-1.7,5.2-2.9h0ZM1585.8,210.3c6.4,1,8.3,5.3,13.2,7.2,12.8,4.8,39.5,9.4,43.8,20.6.8,1.1.6,1,1,3-3,.8-6.1,1-9.2.9-2.5-2-4.5-.5-8.2-2.1-9.2-4.1-18.9-12.9-27.4-18.4-5.1-3.3-14.5-4.8-13.2-11.2ZM1651.5,272.1c6.3.5,7.2,3.4,11.2,5.2,10.3,4.6,23.8,5.7,25.4,18.3-1,.3-2.1.6-3.1.9-1.5.9-3.4.9-6.2.9-4.2-4.2-10.4-5.4-15.3-9.2-.7-1.3-1.3-2.7-2-4-3.1-3.3-7.8-6-11.2-9.1l1.1-3ZM1966.7,856.9c3,.9,2.8.5,4.1,3.1,4.5,6.6,3.1,15.6,5.8,24,3.5,10.9,7.6,23.5,7.6,38-2.8,1.9-2.1,2.6-7.2,2.9-7.8-12.5-18.4-50.7-10.2-67.9h0ZM2103.5,1037.4c2.5,1.3.7-.4,2,2-.4,0-.7,0-1,0-1.4,2.4.4.7-2.1,2,0-.7,0-1.3,0-2,.8-1,.4-.3,1.1-2h0ZM117.3,1218.4c-4.7,14.8,3.4,31.8,7.5,46.9,8.7,32,16.1,61.8,29.4,89.1,8.7,17.9,10.6,39.9,18.6,58.1,1.9,4.4,6.8,9,9,13.1,3.7,6.8,5.1,12.3,8.9,19.1,2.6,4.6,8.5,9.4,11.1,14.1,3.2,5.9,2.5,11.8,5.9,17,2,2,4,4,6.1,6.1,3.6,5.5,3.8,11,6.9,17.1,2.1,4.1,6.6,8.1,9.1,12.1,1,3,2,6,2.9,9,2.4,4.6,7.6,8.7,10.1,13.1,2.6,4.6,3.1,8.8,6,13l8.1,8.1c1.8,2.7.9,6.3,2.9,9s7.2,4.2,9.1,7.1c4,6,5.2,12,9,18.1,6.4,10.2,16.2,18.8,23.2,28.3,1.8,2.4,1.3,4.3,3,7,3.6,5.8,10.4,11.2,15.1,16.2,2.5,2.6,2.9,6,5,9.1,6.3,9.1,21.5,20.9,30.4,28.4,3.9,3.3,5.4,9.4,9,13.1,3,3.1,8.1,4.1,11.2,7.2,7.9,7.7,12.6,18.1,26.4,20.3.9-1.5,1.9-2.8,3.1-3.9,0-.7,0-1.3,0-2-9.1-6.6-14.3-16.6-22.2-24.3-1.4-.3-2.7-.7-4.1-1.1-5.4-3.9-7.2-9.7-11.1-15.1-4.4-6.1-12.6-10.3-17.2-16.2-5.4-6.9-9.9-12.7-15.1-20.2-3-2.7-6.1-5.4-9.1-8.1-10.2-13.9-22.9-26.2-32.2-40.4-5.2-7.9-6.7-16.2-11.9-24.1-1.4-.7-2.7-1.4-4.1-2.1-2.8-4.1-3.2-8.1-6-12.1-3-2.7-6.1-5.4-9.1-8.1-1-3.3-1.9-6.7-2.9-10-2.2-3.9-8-8.1-10.1-12.1-1.9-3.6-.7-6.2-2.9-9-1.4-.7-2.7-1.4-4.1-2.1-3.3-4.6-1.9-11-4.9-16-6.7-11.2-15-23.3-22-34.2-3.2-5-2.8-10.6-5.9-16-1.7-1.3-3.4-2.7-5.1-4.1-3.7-5.6-3.8-11.9-6.9-18.1-1.5-2.9-5.4-5.5-7.1-8.1-2-3.1-1.4-6.3-2.9-10-5.3-12.6-11-23.5-15.8-37.1-2.2-6.3-8.7-13.1-11-20.1-2.8-8.6-1.7-15.6-4.8-24-4.7-13.1-12-27.5-15.8-41.1,0-2.7,0-5.3.1-8-4.5-16.1-9.5-34-15.7-49.1-2.8-1.4-3.4-2.4-7.1-3.1h0ZM1689.3,1659.6c0-1,0-2,0-3,6.2-4,9.8-10.3,14.6-15.7,1.6-1.8,5.6-2,7.2-3.9,4.8-5.5,7.9-11.1,12.6-16.7,2.4-1.6,4.8-3.3,7.3-4.9,5.6-6.8,11.1-12.9,16.7-19.7,2.4-1.6,4.8-3.3,7.3-4.9,3.9-4.7,6.7-8.9,10.5-13.8,5.2-4.6,10.4-9.1,15.6-13.7,6-7.5,11.3-15.7,17.8-22.6h2.1c0,.7,0,1.4,0,2-7.3,8.7-11.1,19.7-17.9,28.6-4.9,6.4-12.8,11.4-17.7,17.7-12.9,16.3-27.2,31.4-42.8,45.2-1.4,1.3-1.6,3.8-3.2,4.9-5.3,3.7-12.6,5.8-16.6,10.7-2,2.4-3.6,7.4-6.3,8.9-2.4.3-4.8.6-7.2.9ZM1585.2,1751.6c3.3.9,1.6-.5,3.1,2-.3,0-.7,0-1,0-3.2,2.7-7.9,7.9-11.4,9.8-2.7,1.4-5.7.4-8.2,1.9-9.4,5.2-17.8,14.4-27,19.5-7,3.9-16.5,5.8-23.8,9.6-10.2,5.2-15.4,14.9-30,15.5-.3-1-.7-2-1-3,8.7-3.8,12.6-10.9,19.8-15.6,3.1-2.1,7-1.9,10.3-3.8,2.8-1.7,5.5-5.2,8.3-6.8,9.1-5.3,19-7.1,27.9-12.5,0-.7,0-1.3,0-2,9.8-5.5,25.2-7.3,33.1-14.4ZM1482.7,1807.8c0,1,0,2,0,3-1,0-2.1,0-3.1,0-9.3,11.7-25.8,14.6-39.4,22.3-19.9,11.3-43.2,15.9-66.1,24.9-15.7,6.1-35.5,13.8-52.6,18.1-4.5.3-8.9.5-13.4.8-25.3,8.1-51.8,12.3-79.3,18.7-31.1,7.1-66.3,4.3-97.7,10.4-7.9,1.5-18.1.3-23.6,1.6-7,1.6-35.5,1-43.1-.7-1.5-.3-6.1-2-9.2-1.1-5.8,1.6-15.5-.2-23.6-1.4-2.9-.4-7.9,1.8-12.3.8-8.1-1.9-20.6-.1-30.8-2.5-10.3-2.4-23.3-4-33.8-6.5-4.8,0-9.6-.1-14.4-.2-13.3-3.7-26.9-3.3-40.9-7.6-5-1.5-13-4.8-17.4-6.2-8.1-2.7-14.6-.6-22.5-3.3-13.1-4.5-27.8-11.7-41.8-15.6-13-3.6-28.3-3.1-40.9-7.6-30.3-10.9-63.9-26.6-89.7-39.3,0-.7,0-1.3,0-2,1.4,0,2.7,0,4.1,0,3.4-1.8,15.5,4,19.4,5.3,5.8.8,11.6,1.5,17.4,2.3,15.2,4.3,30.6,9.7,46,14.7,26.2,8.5,51.1,15.6,77.6,24.1,3.4,0,6.8.1,10.3.2,2.7.7,6.9,3.4,9.2,4.1,7.7,2.5,15.1,1.1,22.5,3.3,3.7,1.1,8.4,4.3,12.2,5.2,3.1-.3,6.2-.6,9.3-.8,25.6,7.8,57.9,10.5,87,16.3,23.9,4.8,66,9.9,92.3,6.4l19.5.3c2.5-.5,8.4-2.5,11.3-2.8,28.8-2.6,55.1-1.4,81.2-8.7,5.1-.3,10.3-.5,15.4-.8,6.7-1.5,15.3-3.2,21.6-4.6,3.1,0,6.2,0,9.2.1,32.4-8.8,62.8-13.8,94.8-23.4,8.8-2.7,17.4-5.9,25.8-9.6,4.5-.9,8.9-1.9,13.4-2.8,6.5-3.3,15.1-9.2,22.8-11.6,8.9-2.8,16.8-.8,24.7-4.6,11.1-5.3,35.2-18.5,48.6-19.2Z"/>
      <path id="Horn_Shads" class="cls-4" d="M199.2,30.4c15.1-.9,22.8.2,29.9,10.7,7.8,11.5,121.1,153.9,289.6,213,31.4,19.1,339.4,116.5,337,145.6-6.9,85.9-421.2,135.2-480.5,91.6C230.3,417.6,134.6,228.8,155.7,79.2c4.3-30.6,28.4-47.9,43.5-48.8ZM720.7,1.2c9.3,2.3,13.7,4.5,16,12.2,2.5,8.4,46.3,138.6,133.7,215.3,56,49.2-154.4,40.1-154.4,40.1,0,0-69.5-184.3-41.4-245.8,8.1-17.8,36.7-24.1,46-21.8Z"/>
      <path id="Head-2" class="cls-11" d="M211.7,52.9c63.7,101.9,137.4,177.8,507.3,334.1,101.1,39.9,364.1,107.6,393.9,147.4,29.8,39.7,44.1,75.4,93.5,106.1,15.6-4.1-95.5-82.1-136.8-306.8,98.8,44.6,223.9,149.3,280.8,239.2,14.6,9-11-27.9-11-27.9,0,0,147.2,63.6,180.1,111.2,26.5,38.2,62,92.5,60,161.3-2.4,80.2-10.6,147.7,9.7,192.6,40.3,89.3,178.1,98.4,218.2,133.2,32.3,28,42.6,77,33.8,159.1-6.6,61.3-29.6,136.4-104.2,144.6s-232.7-48.8-383.8-69.3c-149-20.2-250.2-15.9-349.2-110.3-35.9-34.2-84.6-14.5-99.8,13.1-20.1,36.4,3.9,5,21.2-2.4,38.2-16.4,123.8,80.4,172.3,98,61.1,22.2,209.5,31.4,282.5,39.8,79.7,9.1,283.4,64.8,334.2,49.9,38.1-11.2,37-3.7,26,14.9-24.6,41.7-127.6,46.7-173.4,34.2s-151.6-41.3-267.9-48.7-328.3-3.6-458.1-64.9c-53.3-26.5-145.6-59.2-218.5-135.7-75.9-79.6-114.3-228.7-125-343.9,97.1,67.5,113.9,65.3,175.4,116.9,69.1,46.9,143.3,187.1,167.7,204.7s-76.6-181.4-104.7-220.7c-33.4-46.6-170.2-73.6-197.2-183.7,34.2,3.9,151.4-24.7,159.1-50.6,4-15.6-81.8,36.2-168.3-6.6-33.2-20.7-75.4-100.7-71-168.1,23.3,20.3,75.9,76.2,212.2,72.2,42.9,1.1,147.6-21.1,167.9-64-28.6-3.9-48.6,37.9-169.6,13.3-72.9-21.8-155-67.1-196.8-112.7,44.7,7.3,195.2,39.8,262.6,0,16-9.4,35.4-17.5-18.5-13.8-114.6,7.8-260.5-41.2-340.6-104.6-40-41.9-187.3-162-164.1-351Z"/>
      <g id="Eye">
        <path id="Head_Shad" class="cls-3" d="M1131.9,388.4c20.8,55,82.1,171.8,111.1,229,8.5,16.9,19,47.8,10.9,46.4-56.6-47.6-18.1-3.3-48.8-5.9-62.1-13.3-105.8-72-123.4-111.9-8.2-18.7-14.5-32.2-21.1-42.7,26.5,11.4,45.5,21.9,52.3,31,29.8,39.7,44.1,75.4,93.5,106.1,15.6-4.1-95.5-82.1-136.8-306.8,62.1,28,134.5,79.7,193.8,136.6-53.7-38.2-115.8-79.3-131.6-81.9ZM1574.7,816.6c-26.4-132.1-64.3-160.4-147.1-228.1,37.9,20.8,76.9,46,91.9,67.7,23.2,33.5,53.3,79.3,59.1,136.3,1.5,28.6.8,47.4-3.9,24h0ZM1737.1,1446.9c-74.6,8.2-232.7-48.8-383.8-69.3-149-20.2-250.2-15.9-349.2-110.3-35.9-34.2-84.6-14.5-99.8,13.1-20.1,36.4,3.9,5,21.2-2.4,38.2-16.4,123.8,80.4,172.3,98,61.1,22.2,209.5,31.4,282.6,39.8,79.7,9.1,283.4,64.8,334.2,49.9,38.1-11.2,37-3.7,26,14.9-24.6,41.7-127.6,46.7-173.4,34.2s-151.6-41.3-267.9-48.7-328.3-3.6-458.1-64.9c-53.3-26.5-145.6-59.2-218.5-135.7-75.9-79.6-114.3-228.7-125-343.9,97.1,67.5,113.9,65.3,175.4,116.9,69.1,46.9,143.3,187.1,167.7,204.7s-76.6-181.4-104.7-220.7c-33.4-46.6-170.2-73.6-197.2-183.7,34.2,3.9,151.4-24.7,159.1-50.6,4-15.6-81.8,36.2-168.3-6.6-33.2-20.7-75.4-100.7-71-168.1,23.3,20.3,75.9,76.2,212.2,72.2,42.9,1.1,147.6-21.1,167.9-64-28.6-3.9-48.6,37.9-169.6,13.3-72.9-21.8-155-67.1-196.8-112.7,44.7,7.3,195.2,39.8,262.6,0,16-9.4,35.4-17.5-18.5-13.8-114.6,7.8-260.5-41.2-340.6-104.6-40-41.9-187.3-162-164.1-351,32.2,51.5,66.9,96.3,141.2,148.3,89.1,98.5,200.8,205.9,274.5,219.3,147.1,26.7,224.1,66.2,189.6,99.3-95.2,119,99.6,80,143.6,91.7s71,16.5,113.1,66.8c-70.1-39.8-175.5-51.3-180.1-47.5-39.2,32.8-131.8,63.5-155.9,138.3-41.4,111.6-2.4,188.9,50.9,256.6,64.7,82.2,47,172,178.5,194.2,119.4,20.2,130.8,122.1,334.2,126.6,247.8,5.5,297.1,70.6,402.8,60.3,71.9-7,115.7-46.9,135.4-90.2-8.6,58.2-33.5,122.9-102.4,130.5ZM1697,1199.1c-3.9-107.7-96.5-110.3-67-138.6,0,0,0,0,.1,0,57.6,44.6,146.3,56.2,177.2,82.9,10.8,9.4,19.2,21.2,24.6,34.4-48-9.3-87.2,2.9-135,21.3h0Z"/>
        <path id="Chin_Shad" class="cls-9" d="M1630.1,1490.1c58-3.3,104.9-24.9,114.2-16.5-1.1,2.1-2.3,4.4-3.8,6.9-24.6,41.7-127.6,46.7-173.4,34.2-23.4-6.4-62.6-17.1-110.9-26.9,33.6-4.6,122.8,5.2,173.9,2.3Z"/>
        <path id="Head_Shad_Med" class="cls-9" d="M670.8,685.6c14.2.4,35.1-1.8,57.5-6.4-33.3,23.3-111.6,59.4-229.2,1.3,13.7,41.8,75.4,102.2,119.4,118-26.8,1.5-57.7-1.6-88.8-17-33.2-20.7-75.4-100.7-71-168.1,23.3,20.3,75.9,76.2,212.2,72.2ZM538.8,838.7c29.6,3.3,121.7-17.7,150.7-40.2,2.1,22.5-34.5,71.9-73.1,74.7-13.1,7.5,69.9,85.4,60.8,106.1-52.6-30.1-120.3-66.6-138.4-140.5ZM498.7,932.5c10.1,3.1,19.9,6.3,29.3,9.6,71.1,47,90.6,50.5,145,96.2,27.1,18.4,54.9,51,80.2,85.1-85.7-65.4-170.2-115.2-215.4-112.1,7.4,58.7,155.2,219.9,166.9,233.2l31.7,105.9c-.9-.5-1.9-1-2.8-1.6-65.9-57.5-135.7-128.3-186.2-209.4-26.1-66.6-41.8-141.6-48.8-207ZM797.1,508.2c-11.3,24.4-69.4,27.2-90.1,42.9-1.3,66.5,86.5,72.3,116.2,72.3-23.8,7.4-55.2,31.6-154.1,11.5-72.9-21.8-155-67.1-196.8-112.7,44.7,7.3,195.2,39.8,262.6,0,16-9.4,35.4-17.5-18.5-13.8-114.6,7.8-260.5-41.2-340.6-104.6-40-41.9-187.3-162-164.1-351,7.6,12.1,15.3,23.9,23.7,35.5-6.4,18.8-5.4,53.2,41,126.7,84.1,133.3,287.3,287.9,471.4,263.1,21.6.2,47.1,11.2,49.3,30h0Z"/>
        <path id="Head_Shad_Med-2" class="cls-5" d="M498.7,932.5c10.1,3.1,19.9,6.3,29.3,9.6,71.1,47,90.6,50.5,145,96.2,27.1,18.4,54.9,51,80.2,85.1-85.7-65.4-170.2-115.2-215.4-112.1,7.4,58.7,155.2,219.9,166.9,233.2,152.5,155.1,441,196.7,483.8,216.5-113.3-5-252.5-15.1-347.5-59.9-27.9-13.9-66.5-29.5-107.4-52.2-65.9-57.5-135.7-128.3-186.2-209.4-26.1-66.6-41.8-141.6-48.8-207Z"/>
        <path id="Snout_Hilite" class="cls-2" d="M1841.3,1302.4c-1,9.2-2.3,18.6-4.2,28.2,1.9-43.2-4.9-123.8-22.1-136.9-20.9-15.9-51.6-2.5-60.8-7.7-2.8-10.3,20.6-16.4,42.7-18.5,13.4-1.3,23.5-.6,33,5.6,14.2,29.3,17.6,70.9,11.3,129.3Z"/>
        <path id="Specular" class="cls-2" d="M1791.9,1133.1c-36.6-13.1-104.2-24.9-116.8-30.6-121.3-55.1-100.4-84.2-111.3-145.4-9.9-55.2,5.1-146.9,9.7-193.9,4.5,17.7,6.6,36,6.1,54.3-2.4,80.2-10.6,147.7,9.7,192.6,36.1,80,150.4,95.6,202.7,123Z"/>
        <path id="Specular-2" class="cls-2" d="M1275.6,500.1c-43-44-75.1-70.7-68.9-68.4,7.5,2.9,37.3,19.2,80.3,63.2,13.1,13.3,24.2,25.8,33.5,36.8,10.8,13.1,20.8,26.9,29.9,41.2.2,0,.3.2.4.2,1.2,2.3,1.7,3.8,1.6,4.5-.6,4.2-33.9-33.6-76.9-77.6Z"/>
        <path id="Horn_Hilite" class="cls-2" d="M327.8,182.8c71.7,55.4,185.8,117.4,391.2,204.2,64.8,25.5,196,62.5,289.8,96.3-58,0-195.1-41-349.1-106.9-171.9-73.6-308-154-331.9-193.5Z"/>
        <path id="Horn_Shad_Top" class="cls-5" d="M211.7,52.9c7,11.2,14.1,22.1,21.7,32.8,9.3,72.3,25.6,90,41.5,123.4-18.5,19.6-8.7,58,.2,82.1-41.3-59.8-75.6-139.6-63.5-238.2Z"/>
        <path id="Nostril" class="cls-10" d="M1697.1,1232.3c33.3-2.6,90.5,35,82.2,60.2-4.4,5.4-9,6.5-13.7,8.9-3,2.9,12.7,14.2,13.1,26.3,0,1.4-1.7,1.3-2.6.1-8-12.8-18.7-23.3-29-33.5-.9,0-1.7,0-2.6.1,0,.4,0,.9,0,1.3,6.2,5.4,22.2,23,23.8,32.4-.2,1-1.9,1.1-2.6.1-16.7-20.6-36.9-38.1-53.7-59.1-7-8.8-20.8-19.1-22.2-27.1-.4-1.4.3-3.1,1-5.5,2.5-1.7,4.2-3.6,6.2-4.4Z"/>
        <path id="Shad" class="cls-7" d="M1114.8,762.8l33.7,364.5s-64.7,18.3-139.7-67.5c-10.4-11.9-41.6-84.1-18.6-174.2-74.9-80.3-225.3-86-261.6-86.2,3.1-12.4,7-24.7,11.7-36.6,6.8-19.9,22.1-37.6,37-52.8,152-25.9,308.7,21.2,337.6,52.9Z"/>
        <path id="Eye_Under_Specular" class="cls-2" d="M1167.8,1141.8c103.8,30.6,186.1,1.1,172.5,11.8-16.6,13-83.9,44.9-187.6,14.3s-163.1-89.1-163.1-106.6c0-17.8,74.4,49.9,178.2,80.5Z"/>
        <path id="Eye_Red" class="cls-3" d="M1037.2,908.8c10.4.5,9.1,32,7.6,61.6s78.8,164.6,31.7,148.2c-37.6-13.1-59.1-119.9-57.6-149.5s7.9-60.9,18.4-60.4Z"/>
        <path id="Eye_Socket_Shad" class="cls-3" d="M1461.7,929.9c-7.6,62.8-74.5,29.1-58.3,55.3,20.6,40.6,40.1,99.2-18.8,140.2s-83.3,40.2-72.7,11.2,4-276.2,32.7-229.8c13,21,74.4,20,117.1,23.1ZM1071.9,677c-63-79.4-210.9-69.4-312.6,23,41.6,54.1,302,9.6,257.4,121.1,37.3-15.9,83.2-32.8,85.3-50.2s-198.4-80.7-207.1-90.7,106.5-14,120-11.4c13.4,2.7,8.3,5.5,57.1,8.2Z"/>
        <path id="Eye_Socket" class="cls-10" d="M1393.2,1119.6c2,.3-2.6,6.1-6.3,8.3-6.3,4.5-52.4,58.9-223.6,26-33.9-7.9-60-20.7-85.7-35.2,8.3,2.2,4.4-3.1,2.7-7.3-1.8-1.4-35.3-45-46.8-106.3-4.1-36.5-6.2-62.2.8-86.6-1.6,0-.8-.5-2.4,1.1-6.3,15.8-6.9,40.7-5.4,61.6,6.8,97.2,38.2,116.2,46.5,134.7-4.7-.2-10.4-3.4-39.2-19.3-4.6-3.2-38.5-29.4-52.1-45.9s-43.9-60.6-47.5-66.7-7.2-11.8-7.5-16.5c0,0-4.1-4.7,30.2,34.9,29.5,34,67.1,64.2,67.6,67.7,0-1.6-9.7-31.2-12-45.1-1.3-8-4.8-30.4-5.2-38.6-4.4-49.5,5.8-96.4,26.7-133.6,6.1-10.9,28.2-36.7,29.2-40.6l-3.5-.2c-7.6,5.2-14.3,11.5-19.8,18.8-15.2,20.6-41.4,70.9-38.3,104.5-1.9,1.3-4.1,1.2-4.7-.2-1.2-33.6,5.3-55.8,15.7-78.4,4-8.6,6.8-17.9,13.1-25.3-.5-2-1.5-3.3-3.5-1.4-7.9,7.4-23.3,33.3-25.9,45.7l-3.5-.2c3.6-31.9,31.9-67.6,50.3-84.1,11.7-10.5,40.2-21.3,36.7-24.2-6.2-5-35.6-17.4-91.6-35.5-24.6-7.9-46.8-14.1-71.2-18.4-10.9-1.9-27.8-5-37.4-8-11.1-3.4-22-7.7-32.5-12.8-.4-1.6-.3-3.3.2-4.9-3.4,2.2,65.6-49.5,180.6-18.3,1.4,1.5.2,3-2.5,3.6-10.8.4-26.9-.2-36.6-.6-20.7-.9-47.2-.9-62.9,5.5,0,.8,0,1.6-.1,2.5.8,0,6.5,2.2,11.7,3.1,21.9,3.9,51.7,8.1,70.3,12.2,47.2,10.1,87.2,16.1,129.6,33.7,71.8,29.9,129.9,67,184.8,111.9,22.5,18.4,43.4,38.4,66.9,56.5,10.6,8.2,20.7,19,38,20.5,8.1-1.2,19.8-10,16.5-22.7s-12.4-38-36-73.4c-8.2-13.2-19.5-30.6-28.3-44.2-3.6-8.1,9.8,2.3,21.4,15.2,24.4,27.1,41.9,50.3,56.7,85.8,8,19.2,9.1,51.6-3.4,67.9-19,24.9-56.1,19.3-80.5,2.2-5.6-3.9-26.5-23.7-27.3-22.4-1,1.2-.4.3-1.3,2.4,5.6,9.8,6.1,21.2,9,32.6,9.5,37.6,17.4,101.4,0,143.6-4.3,10.5-12.4,21.4-19.2,30-3.4,4.3-7.6,4.6-10,10.7,1.2,0,2.4.1,3.5.2,11.7-4.1,30.8-9.3,39.7-12.9s17.2-6.8,25.5-13.6Z"/>
        <path id="Eye-2" class="cls-1" d="M1215.6,858.9c0,1.3-.1,2.7-.2,4-34.6,20.1-64.1,96.6-68.7,144.1-3.1,42.1,2.8,93.8,13.1,116.6.1,3.5,3.3,8.3-36.1-26.1-18.5-16.2-39.6-57.3-47.5-83.4-19.5-64.6,6.6-148.8,55.9-164.7,28.7-9.3,69,3.4,83.4,9.5Z"/>
        <path id="Cornea" class="cls-3" d="M1243.3,875.7c4.9,3.6,15.8,57.8,9.1,103.2-21.2,91.4,40.4,108.7,65.8,128.3-8,14.9-30.1,29.2-54,39.4-28.4,3.6-70.6-.4-89.2-13.1-26.7-98.8-20.1-141.1,9.2-209.9,21.9-42.5,44.7-52.3,59.1-47.8Z"/>
        <path class="cls-7" d="M1252.9,975.2c-.2,1.3-.3,2.5-.5,3.8-8.7,37.3-3.5,62.3,7.3,80.1-11.1,29.6-35.4,49.7-62.8,48.4-11.4-.7-22.3-4.9-31.2-12-12.5-60.1-9-97.6,6.8-142.2,9.6-6.4,21-9.5,32.5-9,19.7,1,36.8,13,47.8,31Z"/>
        <path class="cls-11" d="M1256.7,1053.6c-2.7,6.5-6.6,10.8-11.4,11.8-12.9,2.6-27.6-18.9-32.8-48.1s.9-54.9,13.8-57.5c8.8-1.8,18.4,7.7,25.3,23.1-6.7,31.6-3.2,54.1,5.2,70.8Z"/>
        <path id="Specular-3" class="cls-1" d="M1253.1,928.2c13.3.7,23.3,18.1,22.3,38.9s-12.7,37.1-26.1,36.5-23.3-18.1-22.3-38.9,12.7-37.1,26-36.5Z"/>
      </g>
      <g id="Horn_Bcg">
        <path id="Horn_Bcg-2" class="cls-3" d="M718.2,16.8c16.4,43.6,48.2,152.4,133,219.1s142.5,94.9,151.6,109.1c8.3,26.1,16.9,58.5,25.8,79-40-7.5-85.3-11.3-128.3-31.1-67.4-23-150.5-155.5-183.1-268.2-13-50.6-12.5-103.6,1-107.8Z"/>
        <path class="cls-11" d="M749.7,126.3c-13.7-30.8-32.6-77.4-36.7-104.4,1.4-2.7,3.2-4.4,5.2-5.1,16.4,43.6,48.2,152.4,133,219.1,9.3,7.3,18.2,14.1,26.8,20.5,49.6,54.8,99.7,99.1,131.9,111.5,6.1,20.3,12.4,41.3,18.7,56.1-9.3-1.7-19-3.3-28.8-4.9-72.5-57.7-204.4-190.3-250.1-292.8Z"/>
        <path class="cls-7" d="M1028.6,424c-15.5-2.9-31.8-5.2-48.4-8.2-50.1-33.1-107.8-74.2-63.2-61.1,71.9,21.2,57.3.6,39-20.8-18.5-17.1,14.7,3.9,52.3,29,6.6,21.8,13.3,45,20.2,61Z"/>
        <path id="Shad-2" class="cls-5" d="M1028.6,424c-40-7.5-85.3-11.3-128.3-31.1-28.7-9.8-60.3-39.5-89.6-79.1,38.2,13.3,78,18.8,76.1,6.8,15.3,28.1,99.1,73.2,137.7,92.8,1.4,3.8,2.8,7.3,4.2,10.6Z"/>
        <path id="Shad-3" class="cls-9" d="M765.7,241.9c-20.3-38-37.3-78.8-48.5-117.3-13-50.6-12.5-103.6,1-107.8,6.2,16.3,14.5,41.9,27,71-6.8,44.7,12.7,124.9,20.5,154.1Z"/>
      </g>
    </g>
  </g>
</svg>