<svg fill="none" height="72" viewBox="0 0 60 72" width="60" xmlns="http://www.w3.org/2000/svg" xmlns:xlink="http://www.w3.org/1999/xlink"><linearGradient id="a"><stop offset="0" stop-color="#25edff"/><stop offset="1" stop-color="#29abe2"/></linearGradient><linearGradient id="b" gradientUnits="userSpaceOnUse" x1="-4.11575" x2="57.564" xlink:href="#a" y1="12.1671" y2="9.60083"/><linearGradient id="c" gradientUnits="userSpaceOnUse" x1="4.64132" x2="56.2843" xlink:href="#a" y1="16.5042" y2="16.5042"/><linearGradient id="d" gradientUnits="userSpaceOnUse" x1="28.9343" x2="39.9532" xlink:href="#a" y1="18.2128" y2="17.7562"/><linearGradient id="e" gradientUnits="userSpaceOnUse" x1="29.031" x2="40.0499" xlink:href="#a" y1="20.5782" y2="20.1148"/><linearGradient id="f"><stop offset="0" stop-color="#25edff"/><stop offset="1" stop-color="#00a2f4"/></linearGradient><linearGradient id="g" gradientUnits="userSpaceOnUse" x1="28.0004" x2="34.3641" xlink:href="#f" y1="20.6197" y2="20.3499"/><linearGradient id="h" gradientUnits="userSpaceOnUse" x1="17.023" x2="28.0489" xlink:href="#a" y1="13.6406" y2="13.1841"/><linearGradient id="i" gradientUnits="userSpaceOnUse" x1="15.9924" x2="22.3561" xlink:href="#f" y1="13.689" y2="13.4193"/><linearGradient id="j"><stop offset="0" stop-color="#ed1e79"/><stop offset="1" stop-color="#622bff"/></linearGradient><linearGradient id="k" gradientUnits="userSpaceOnUse" x1="36.3839" x2="4.22635" xlink:href="#j" y1="61.0088" y2="42.4848"/><linearGradient id="l" gradientUnits="userSpaceOnUse" x1="33.5755" x2="1.41797" xlink:href="#j" y1="65.8784" y2="47.3544"/><linearGradient id="m" gradientUnits="userSpaceOnUse" x1="30.4144" x2="59.8467" y1="42.1458" y2="42.1458"><stop offset="0" stop-color="#fbb03b"/><stop offset="1" stop-color="#f15a24"/></linearGradient><linearGradient id="n"><stop offset="0" stop-color="#fbb03b"/><stop offset="1" stop-color="#f26327"/></linearGradient><linearGradient id="o" gradientUnits="userSpaceOnUse" x1="30.4144" x2="48.3504" xlink:href="#n" y1="51.1793" y2="51.1793"/><linearGradient id="p" gradientUnits="userSpaceOnUse" x1="30.4144" x2="48.3504" xlink:href="#n" y1="65.4633" y2="65.4633"/><linearGradient id="q"><stop offset=".03" stop-color="#f26327"/><stop offset="1" stop-color="#f4742b"/></linearGradient><linearGradient id="r" gradientUnits="userSpaceOnUse" x1="30.4145" x2="48.3505" xlink:href="#q" y1="51.1798" y2="51.1798"/><linearGradient id="s" gradientUnits="userSpaceOnUse" x1="30.4145" x2="48.3505" xlink:href="#q" y1="65.4635" y2="65.4635"/><linearGradient id="t" gradientUnits="userSpaceOnUse" x1="24.9707" x2="-3.47238" y1="42.2427" y2="42.1182"><stop offset="0" stop-color="#ef59a1"/><stop offset="1" stop-color="#2a16b7"/></linearGradient><linearGradient id="u" gradientUnits="userSpaceOnUse" x1="36.2801" x2="67.7045" y1="51.2971" y2="36.868"><stop offset="0" stop-color="#f79d26"/><stop offset="1" stop-color="#d62d00"/></linearGradient><linearGradient id="v" gradientUnits="userSpaceOnUse" x1="4.64132" x2="56.2843" y1="16.5111" y2="16.5111"><stop offset="0" stop-color="#00a2f4"/><stop offset="1" stop-color="#25edff"/></linearGradient><linearGradient id="w" gradientUnits="userSpaceOnUse" x1="37.2078" x2="5.05543" xlink:href="#j" y1="59.5698" y2="41.043"/><linearGradient id="x" gradientUnits="userSpaceOnUse" x1="36.6537" x2="4.49598" xlink:href="#j" y1="60.5386" y2="42.0144"/><linearGradient id="y" gradientUnits="userSpaceOnUse" x1="37.7672" x2="5.61658" xlink:href="#j" y1="58.6017" y2="40.0778"/><linearGradient id="z" gradientUnits="userSpaceOnUse" x1="11.4893" x2="25.5103" y1="58.5672" y2="58.5672"><stop offset="0" stop-color="#4720b4"/><stop offset="1" stop-color="#ef59a1"/></linearGradient><clipPath id="A"><path d="m0 0h59.8467v72h-59.8467z"/></clipPath><g clip-path="url(#A)"><path d="m16.8846 17.4172 17.099-9.68398c.2652-.15063.4856-.36897.6387-.63269s.2335-.56336.2329-.86832v-.18675c.0008-.30306-.0784-.60096-.2296-.86363-.1512-.26266-.369-.48078-.6314-.63235s-.5602-.23121-.8633-.23088c-.303.00034-.6006.08062-.8627.23276l-17.0922 9.91224c-.2613.1513-.4783.3686-.6292.6302-.1508.2617-.2303.5584-.2303.8604s.0795.5987.2303.8603c.1509.2617.3679.479.6292.6303.2617.1472.5578.2221.858.2173.3002-.0049.5938-.0894.8506-.2449z" fill="url(#b)"/><path d="m31.9984 32.4481 22.7572-13.1425c.4654-.2691.8518-.6559 1.1204-1.1215s.41-.9937.41-1.5312c0-.5376-.1414-1.0656-.41-1.5313-.2686-.4656-.655-.8523-1.1204-1.1214-.3354-.1937-.7159-.2956-1.1032-.2956-.3874 0-.7679.1019-1.1033.2956l-21.5052 12.43c-.3353.1904-.7143.2905-1.0999.2905-.3855 0-.7645-.1001-1.0998-.2905l-2.8913-1.6739c-.3347-.193-.6127-.4707-.806-.8053-.1933-.3345-.2951-.714-.2951-1.1004s.1018-.7659.2951-1.1004c.1933-.3346.4713-.6123.806-.8053l16.6771-9.6493c.3793-.2183.6943-.5328.9134-.9117s.3344-.80878.3344-1.24644c0-.43765-.1153-.86758-.3344-1.24646s-.5341-.69333-.9134-.91167c-.3355-.19366-.716-.29562-1.1033-.29562s-.7678.10196-1.1033.29562l-21.443 12.45077c-.3354.1937-.7159.2956-1.1032.2956-.3874 0-.7679-.1019-1.1033-.2956l-2.7668-1.6186c-.3348-.193-.6128-.4707-.806-.8052-.1933-.3346-.2951-.7141-.2951-1.1005 0-.3863.1018-.7659.2951-1.1004.1932-.3345.4712-.6123.806-.8052l17.0368-9.91221c.3363-.19249.6158-.47043.8103-.80567.1944-.33525.2967-.71591.2967-1.10345s-.1023-.7682-.2967-1.10344c-.1945-.335252-.474-.613188-.8103-.805677-.3336-.1917761-.7116-.2927022-1.0964-.2927022s-.7628.1009261-1.0964.2927022l-22.13467 12.762047c-.63054.3644-1.15411.8882-1.51811 1.519-.36401.6307-.55562 1.3462-.55562 2.0744 0 .7283.19161 1.4437.55562 2.0745.364.6307.88757 1.1546 1.51811 1.5189l21.13177 12.2295c.6309.3642 1.3466.556 2.0751.556s1.4442-.1918 2.0751-.556z" fill="url(#c)"/><path d="m27.1843 24.3482c.261.1499.5567.2288.8577.2288s.5967-.0789.8577-.2288l17.1267-9.6839c.2648-.1529.4847-.3726.6377-.6373.1529-.2647.2336-.5649.2339-.8706v-.2145c.0008-.303-.0784-.6009-.2296-.8636-.1511-.2626-.3689-.4808-.6314-.6323-.2624-.1516-.5602-.2312-.8632-.2309-.3031.0003-.6007.0806-.8628.2327l-17.1267 9.933c-.2565.1535-.4688.3709-.6162.631-.1474.26-.2248.5538-.2248.8527s.0774.5927.2248.8528c.1474.26.3597.4774.6162.6309z" fill="url(#d)"/><path d="m37.961 18.1157c-.0008-.2642-.0595-.525-.172-.764-.1126-.239-.2762-.4504-.4794-.6193s-.4409-.2911-.6965-.358c-.2556-.067-.5227-.077-.7826-.0295l-8.6463 5.0357c-.2629.1518-.4812.3701-.633.6329-.1517.2629-.2316.5611-.2316.8646 0 .3036.0799.6018.2316.8646.1518.2629.3701.4812.633.633.261.1499.5567.2287.8577.2287.3009 0 .5967-.0788.8577-.2287l8.6671-4.9181c.2585-.3141.4025-.7068.4081-1.1136z" fill="url(#e)"/><path d="m37.961 18.1157c-.0008-.2642-.0595-.525-.172-.764-.1126-.239-.2762-.4504-.4794-.6193s-.4409-.2911-.6965-.358c-.2556-.067-.5227-.077-.7826-.0295l-8.6463 5.0357c-.2629.1518-.4812.3701-.633.6329-.1517.2629-.2316.5611-.2316.8646 0 .3036.0799.6018.2316.8646.1518.2629.3701.4812.633.633.261.1499.5567.2287.8577.2287.3009 0 .5967-.0788.8577-.2287l8.6671-4.9181c.2585-.3141.4025-.7068.4081-1.1136z" fill="url(#g)"/><path d="m25.9668 11.1851c-.0007-.2642-.0594-.525-.172-.7641-.1125-.239-.2762-.45039-.4793-.61927-.2032-.16887-.441-.29109-.6965-.35804-.2556-.06695-.5228-.07699-.7826-.02941l-8.6602 5.00802c-.263.1508-.4815.3684-.6335.6307-.152.2624-.232.5602-.232.8633 0 .3032.08.601.232.8634.152.2623.3705.4799.6335.6307.2605.1513.5564.2309.8577.2309.3012 0 .5972-.0796.8577-.2309l8.6671-4.918c.2576-.3147.4014-.7071.4081-1.1137z" fill="url(#h)"/><path d="m25.9668 11.1851c-.0007-.2642-.0594-.525-.172-.7641-.1125-.239-.2762-.45039-.4793-.61927-.2032-.16887-.441-.29109-.6965-.35804-.2556-.06695-.5228-.07699-.7826-.02941l-8.6602 5.00802c-.263.1508-.4815.3684-.6335.6307-.152.2624-.232.5602-.232.8633 0 .3032.08.601.232.8634.152.2623.3705.4799.6335.6307.2605.1513.5564.2309.8577.2309.3012 0 .5972-.0796.8577-.2309l8.6671-4.918c.2576-.3147.4014-.7071.4081-1.1137z" fill="url(#i)"/><path d="m29.4322 41.6755c-.0011-.501-.134-.9929-.3854-1.4264-.2513-.4334-.6122-.7931-1.0464-1.043l-21.77502-12.5614c-.63111-.3644-1.34703-.5562-2.07578-.5561s-1.44461.1921-2.07561.5567-1.154892.8889-1.518963 1.5202c-.36407.6313-.55549355 1.3473-.55502615 2.076v25.1506c.001155.5002.13330315.9914.38330215 1.4246.249999.4333.609125.7935 1.041617 1.0448.43333.2502.92491.3819 1.42528.3818s.99188-.1319 1.42515-.3822c.43327-.2502.79302-.6102 1.04305-1.0436s.38152-.925.38128-1.4254v-19.2157c.00056-.3667.0983-.7267.28324-1.0434.18495-.3166.45049-.5786.76962-.7593s.68044-.2735 1.04713-.2691.72566.1059 1.04037.2941l14.89246 8.9161 1.425.8232c.4328.2499.9237.3815 1.4235.3818.4998.0002.9908-.131 1.4239-.3804.4331-.2495.7929-.6085 1.0434-1.0409.2506-.4325.383-.9232.3839-1.423z" fill="url(#k)"/><path d="m12.4784 63.7064 12.6998 7.7817c.4214.267.9072.415 1.4059.4285.4987.0134.9918-.1082 1.427-.352.4352-.2439.7964-.6009 1.0454-1.0332.2489-.4323.3764-.9239.3688-1.4228.0007-.4863-.1268-.9643-.3697-1.3857s-.5925-.7713-1.0138-1.0145l-10.3756-6.1424c-.2091-.1207-.3829-.294-.5043-.5027-.1213-.2087-.1859-.4456-.1874-.687v-4.7175c.0038-.2409.0706-.4767.1936-.6839.1229-.2073.2979-.3788.5076-.4976s.4467-.1808.6877-.1798.4775.0649.6862.1854l6.0802 3.7283c.4219.2674.9083.4154 1.4077.4286.4993.0132.9928-.109 1.4283-.3537.4354-.2447.7966-.6027 1.045-1.036s.3749-.9258.366-1.4253c.0008-.4863-.1267-.9643-.3696-1.3857s-.5926-.7713-1.0138-1.0145l-11.344-6.7096c-.5251-.3113-1.1232-.4781-1.7337-.4834-.6104-.0054-1.2113.151-1.7418.4531-.5304.3021-.9715.7392-1.2783 1.267-.3068.5277-.4685 1.1272-.4686 1.7377v13.2462c.006.3611.1061.7145.2905 1.025.1844.3106.4467.5677.7609.7458z" fill="url(#l)"/><path d="m36.1141 43.3148 14.8925-8.9369c.3152-.1886.6748-.2901 1.0421-.2942s.7291.0894 1.0484.2709c.3194.1815.5848.4444.7693.7621.1844.3176.2812.6785.2806 1.0458v19.2087c-.0003.5004.1312.992.3813 1.4254.25.4335.6097.7934 1.043 1.0437s.9248.3821 1.4252.3822c.5003 0 .9919-.1317 1.4252-.3818.4325-.2514.7916-.6116 1.0416-1.0448.25-.4333.3822-.9244.3834-1.4247v-25.1436c.0004-.7287-.191-1.4447-.5551-2.076-.364-.6313-.8879-1.1556-1.5189-1.5202s-1.3469-.5566-2.0756-.5567c-.7288-.0001-1.4447.1917-2.0758.556l-21.782 12.5753c-.4329.2508-.7924.6109-1.0425 1.0442-.25.4334-.3819.9249-.3824 1.4252.001.4998.1334.9905.3839 1.423.2505.4324.6104.7914 1.0435 1.0409.433.2495.9241.3806 1.4239.3804.4997-.0002.9907-.1319 1.4235-.3818z" fill="url(#m)"/><path d="m47.0777 49.6022-12.5753 7.7472c-.4057.2482-.8702.3839-1.3458.3931-.4755.0091-.9449-.1086-1.3599-.3411-.4149-.2325-.7604-.5713-1.001-.9817-.2405-.4103-.3674-.8773-.3675-1.353v-.2697c.0002-.4651.1214-.922.3519-1.3259.2304-.4039.5621-.7408.9624-.9775l12.5891-7.4428c.4027-.2326.8592-.356 1.3242-.3579.4651-.0019.9225.1176 1.3272.3468.4046.2293.7424.5602.9798.9601.2374.3998.3662.8548.3738 1.3198.0001.4558-.1153.9043-.3355 1.3035-.2201.3991-.5378.736-.9234.9791z" fill="url(#o)"/><path d="m47.0777 63.8862-12.5753 7.7126c-.4057.2482-.8702.3839-1.3458.3931-.4755.0091-.9449-.1086-1.3599-.3411-.4149-.2325-.7604-.5713-1.001-.9817-.2405-.4103-.3673-.8773-.3675-1.353v-.2697c-.0012-.4653.1195-.9228.3501-1.327.2306-.4041.563-.7408.9642-.9764l12.5891-7.4428c.4059-.2409.8684-.3699 1.3404-.3738.4721-.004.9367.1173 1.3465.3514.4099.2341.7504.5727.9868.9813.2364.4085.3603.8725.359 1.3445-.0029.4584-.1225.9086-.3476 1.308s-.5483.7348-.939.9746z" fill="url(#p)"/><path d="m44.3179 45.0166-12.5822 7.4428c-.4003.2367-.732.5736-.9625.9775-.2304.4039-.3517.8609-.3518 1.3259v.2698c-.0068.4796.1153.9522.3536 1.3685.2384.4162.5842.7608 1.0013.9976.4171.2369.8902.3573 1.3698.3487s.9481-.1459 1.3564-.3976l12.5891-7.7126c.3881-.2478.7062-.5909.9241-.9965.218-.4056.3285-.8603.321-1.3207-.0002-.4699-.1244-.9315-.3601-1.3381s-.5745-.7438-.9822-.9775c-.4078-.2337-.87-.3556-1.3399-.3535-.47.0022-.9311.1283-1.3366.3657zm.5118 5.0426-8.9092 5.4645c-.2871.1773-.6163.2748-.9536.2824-.3373.0075-.6705-.0751-.9652-.2394-.2948-.1643-.5403-.4042-.7112-.6951-.171-.2909-.2612-.6222-.2613-.9596v-.1937c-.0006-.3299.0853-.6543.2492-.9407.1638-.2864.3999-.5249.6846-.6917l8.9161-5.2708c.2878-.1695.6153-.2598.9492-.262.334-.0021.6626.084.9526.2497s.531.4051.6987.6939.2561.6168.2562.9508c.0005.3239-.0826.6425-.2414.9248-.1587.2824-.3877.519-.6647.6869z" fill="url(#r)"/><path d="m44.3178 59.3004-12.5822 7.4428c-.4012.2357-.7336.5723-.9642.9765-.2306.4041-.3513.8616-.35 1.3269v.2698c.0001.4756.127.9426.3675 1.353.2405.4103.586.7491 1.001.9816.4149.2325.8843.3502 1.3599.3411.4755-.0092.94-.1448 1.3458-.3931l12.5891-7.7126c.3881-.2414.7086-.5776.9312-.9769.2227-.3992.3402-.8486.3415-1.3057.002-.4731-.1217-.9381-.3584-1.3477-.2368-.4095-.5781-.7488-.989-.9832-.411-.2343-.8768-.3552-1.3498-.3504s-.9363.1352-1.3424.3779zm.5119 5.0426-8.9092 5.4645c-.2871.1773-.6163.2748-.9536.2823-.3373.0076-.6705-.075-.9653-.2393-.2947-.1643-.5402-.4043-.7112-.6952-.1709-.2908-.2611-.6221-.2613-.9595v-.1937c-.0005-.33.0854-.6543.2493-.9407.1638-.2864.3998-.5249.6845-.6917l8.9162-5.2709c.2878-.1694.6153-.2597.9492-.2619.334-.0022.6626.084.9526.2497s.531.4051.6987.6939.2561.6168.2562.9508c.0005.3239-.0827.6425-.2414.9248-.1588.2824-.3877.519-.6647.6869z" fill="url(#s)"/><path d="m28.0004 39.2061-21.77502-12.5614c-.63111-.3644-1.34703-.5562-2.07578-.5561s-1.44461.1921-2.07561.5567-1.154893.8889-1.518963 1.5202-.55549355 1.3473-.55502615 2.076v25.1506c.001155.5002.13330315.9914.38330215 1.4246.249999.4333.609125.7935 1.041617 1.0448.30889.1789.64948.2963 1.00299.3458l.39428-26.2019c.02783-.4126.15883-.8116.381-1.1604.22216-.3488.52838-.6362.89053-.8359.36216-.1997.76864-.3052 1.18219-.3069.41354-.0017.82088.1005 1.18465.2972l22.54284 13.1771c.279-.4456.4254-.9614.4219-1.4872.002-.5027-.1287-.997-.3789-1.433s-.611-.7983-1.046-1.0502z" fill="url(#t)"/><path d="m53.6213 26.6307-21.782 12.5615c-.4328.2491-.7925.6079-1.0426 1.0402-.2502.4322-.382.9228-.3823 1.4223.0034.5257.1518 1.0403.4289 1.4871l22.5359-13.1424c.363-.1985.7701-.3023 1.1838-.3018.4137.0004.8206.1051 1.1832.3043.3625.1992.6691.4865.8913.8355.2222.3489.3529.7482.3801 1.161l.4012 26.2089c.3537-.0529.6941-.1726 1.0029-.3528.4329-.2491.7925-.6079 1.0427-1.0402.2501-.4323.382-.9228.3823-1.4223v-25.1644c.0004-.7287-.191-1.4447-.5551-2.076-.364-.6313-.8879-1.1556-1.5189-1.5202s-1.3469-.5566-2.0756-.5567c-.7288-.0001-1.4447.1917-2.0758.556z" fill="url(#u)"/><path d="m54.7556 19.3056c.6866-.3953 1.1929-1.0418 1.4123-1.803.2194-.7613.1346-1.578-.2363-2.2781l-25.2613 14.1455c-.3741.2108-.7988.3151-1.228.3017s-.8466-.1441-1.2068-.3778l-9.0683-5.9141-10.02978-5.6306c-.31895-.2262-.57644-.5284-.74919-.8792-.17276-.3508-.25533-.7391-.24023-1.1299.01511-.3907.12743-.7715.32675-1.1079.19933-.3364.47938-.6178.81484-.8188l22.36991-12.948774c-.1526-.215597-.3469-.398335-.5715-.537359-.2246-.139025-.4748-.2315021-.7359-.2719408-.5781-.0832603-1.1672.0365219-1.667.3389378l-21.96867 12.685936c-.63054.3644-1.15411.8882-1.51811 1.519-.36401.6308-.55562 1.3462-.55562 2.0744 0 .7283.19161 1.4437.55562 2.0745.364.6307.88757 1.1546 1.51811 1.519l21.13177 12.181c.6309.3642 1.3466.556 2.0751.556s1.4442-.1918 2.0751-.556z" fill="url(#v)"/><path d="m29.4253 54.8247c.0016.1764-.0146.3526-.0485.5257.0313-.1735.0475-.3494.0485-.5257z" fill="url(#w)"/><path d="m29.2108 55.918-.2836.498c.1133-.1546.2084-.3217.2836-.498z" fill="url(#x)"/><path d="m29.3975 54.4099c-.0605-.4103-.2126-.8017-.4449-1.1454-.2322-.3436-.5388-.6306-.897-.8398l-3.5346-2.0751 3.4585 2.0336c.3674.217.684.5102.9286.8598s.4115.7475.4894 1.1669z" fill="url(#y)"/><path d="m14.9617 60.9605.2075-9.1928c.0063-.2971.089-.5875.2402-.8433s.3657-.4683.6229-.6171.5484-.2287.8455-.2322.5901.0696.8508.2123l11.1918 6.1424.2836-.4981c.0629-.1543.1115-.314.1453-.4772v-.1038c.0338-.1731.0501-.3493.0484-.5257 0-.0415 0-.0761 0-.1107.0068-.0898.0068-.1799 0-.2697-.0746-.4306-.2427-.8395-.4925-1.1981-.2498-.3585-.5751-.6579-.9532-.8771l-3.4585-2.0336-7.8094-4.6137c-.5251-.3113-1.1233-.4781-1.7337-.4834-.6104-.0054-1.2114.151-1.7418.4531-.5305.3021-.9715.7392-1.2783 1.2669-.3068.5278-.4685 1.1273-.4686 1.7378v13.2462c-.0005.3551.0903.7044.2635 1.0145.1731.31.423.5704.7256.7563l12.6998 7.7817c.6096.3799 1.343.5079 2.0452.3569.7022-.1511 1.3182-.5693 1.7177-1.1662l-13.3085-8.4942c-.2063-.1303-.3744-.3128-.4874-.529s-.1667-.4585-.1559-.7022z" fill="url(#z)"/></g></svg>