<svg width="60" height="72" viewBox="0 0 60 72" fill="none" xmlns="http://www.w3.org/2000/svg">
<g clip-path="url(#clip0_376_70)">
<path d="M16.8846 17.4172L33.9836 7.73322C34.2488 7.58259 34.4692 7.36425 34.6223 7.10053C34.7754 6.83681 34.8558 6.53717 34.8552 6.23221V6.04546C34.856 5.7424 34.7768 5.4445 34.6256 5.18183C34.4744 4.91917 34.2566 4.70105 33.9942 4.54948C33.7318 4.39791 33.434 4.31827 33.1309 4.3186C32.8279 4.31894 32.5303 4.39922 32.2682 4.55136L15.176 14.4636C14.9147 14.6149 14.6977 14.8322 14.5468 15.0938C14.396 15.3555 14.3165 15.6522 14.3165 15.9542C14.3165 16.2562 14.396 16.5529 14.5468 16.8145C14.6977 17.0762 14.9147 17.2935 15.176 17.4448C15.4377 17.592 15.7338 17.6669 16.034 17.6621C16.3342 17.6572 16.6278 17.5727 16.8846 17.4172Z" fill="url(#paint0_linear_376_70)"/>
<path d="M31.9984 32.4481L54.7556 19.3056C55.221 19.0365 55.6074 18.6497 55.876 18.1841C56.1446 17.7185 56.286 17.1904 56.286 16.6529C56.286 16.1153 56.1446 15.5873 55.876 15.1216C55.6074 14.656 55.221 14.2693 54.7556 14.0002C54.4202 13.8065 54.0397 13.7046 53.6524 13.7046C53.265 13.7046 52.8845 13.8065 52.5491 14.0002L31.0439 26.4302C30.7086 26.6206 30.3296 26.7207 29.944 26.7207C29.5585 26.7207 29.1795 26.6206 28.8442 26.4302L25.9529 24.7563C25.6182 24.5633 25.3402 24.2856 25.1469 23.951C24.9536 23.6165 24.8518 23.237 24.8518 22.8506C24.8518 22.4642 24.9536 22.0847 25.1469 21.7502C25.3402 21.4156 25.6182 21.1379 25.9529 20.9449L42.63 11.2956C43.0093 11.0773 43.3243 10.7628 43.5434 10.3839C43.7625 10.005 43.8778 9.57512 43.8778 9.13746C43.8778 8.69981 43.7625 8.26988 43.5434 7.891C43.3243 7.51212 43.0093 7.19767 42.63 6.97933C42.2945 6.78567 41.914 6.68371 41.5267 6.68371C41.1394 6.68371 40.7589 6.78567 40.4234 6.97933L18.9804 19.4301C18.645 19.6238 18.2645 19.7257 17.8772 19.7257C17.4898 19.7257 17.1093 19.6238 16.7739 19.4301L14.0071 17.8115C13.6723 17.6185 13.3943 17.3408 13.2011 17.0063C13.0078 16.6717 12.906 16.2922 12.906 15.9058C12.906 15.5195 13.0078 15.1399 13.2011 14.8054C13.3943 14.4709 13.6723 14.1931 14.0071 14.0002L31.0439 4.08799C31.3802 3.8955 31.6597 3.61756 31.8542 3.28232C32.0486 2.94707 32.1509 2.56641 32.1509 2.17887C32.1509 1.79133 32.0486 1.41067 31.8542 1.07543C31.6597 0.740178 31.3802 0.462242 31.0439 0.269753C30.7103 0.0779769 30.3323 -0.0229492 29.9475 -0.0229492C29.5627 -0.0229492 29.1847 0.0779769 28.8511 0.269753L6.71643 13.0318C6.08589 13.3962 5.56232 13.92 5.19832 14.5508C4.83431 15.1815 4.6427 15.897 4.6427 16.6252C4.6427 17.3535 4.83431 18.0689 5.19832 18.6997C5.56232 19.3304 6.08589 19.8543 6.71643 20.2186L27.8482 32.4481C28.4791 32.8123 29.1948 33.0041 29.9233 33.0041C30.6518 33.0041 31.3675 32.8123 31.9984 32.4481Z" fill="url(#paint1_linear_376_70)"/>
<path d="M27.1843 24.3482C27.4453 24.4981 27.741 24.577 28.042 24.577C28.343 24.577 28.6387 24.4981 28.8997 24.3482L46.0264 14.6643C46.2912 14.5114 46.5111 14.2917 46.6641 14.027C46.817 13.7623 46.8977 13.4621 46.898 13.1564V12.9419C46.8988 12.6389 46.8196 12.341 46.6684 12.0783C46.5173 11.8157 46.2995 11.5975 46.037 11.446C45.7746 11.2944 45.4768 11.2148 45.1738 11.2151C44.8707 11.2154 44.5731 11.2957 44.311 11.4478L27.1843 21.3808C26.9278 21.5343 26.7155 21.7517 26.5681 22.0118C26.4207 22.2718 26.3433 22.5656 26.3433 22.8645C26.3433 23.1634 26.4207 23.4572 26.5681 23.7173C26.7155 23.9773 26.9278 24.1947 27.1843 24.3482Z" fill="url(#paint2_linear_376_70)"/>
<path d="M37.961 18.1157C37.9602 17.8515 37.9015 17.5907 37.789 17.3517C37.6764 17.1127 37.5128 16.9013 37.3096 16.7324C37.1064 16.5635 36.8687 16.4413 36.6131 16.3744C36.3575 16.3074 36.0904 16.2974 35.8305 16.3449L27.1842 21.3806C26.9213 21.5324 26.703 21.7507 26.5512 22.0135C26.3995 22.2764 26.3196 22.5746 26.3196 22.8781C26.3196 23.1817 26.3995 23.4799 26.5512 23.7427C26.703 24.0056 26.9213 24.2239 27.1842 24.3757C27.4452 24.5256 27.7409 24.6044 28.0419 24.6044C28.3428 24.6044 28.6386 24.5256 28.8996 24.3757L37.5667 19.4576C37.8252 19.1435 37.9692 18.7508 37.9748 18.344L37.961 18.1157Z" fill="url(#paint3_linear_376_70)"/>
<path d="M37.961 18.1157C37.9602 17.8515 37.9015 17.5907 37.789 17.3517C37.6764 17.1127 37.5128 16.9013 37.3096 16.7324C37.1064 16.5635 36.8687 16.4413 36.6131 16.3744C36.3575 16.3074 36.0904 16.2974 35.8305 16.3449L27.1842 21.3806C26.9213 21.5324 26.703 21.7507 26.5512 22.0135C26.3995 22.2764 26.3196 22.5746 26.3196 22.8781C26.3196 23.1817 26.3995 23.4799 26.5512 23.7427C26.703 24.0056 26.9213 24.2239 27.1842 24.3757C27.4452 24.5256 27.7409 24.6044 28.0419 24.6044C28.3428 24.6044 28.6386 24.5256 28.8996 24.3757L37.5667 19.4576C37.8252 19.1435 37.9692 18.7508 37.9748 18.344L37.961 18.1157Z" fill="url(#paint4_linear_376_70)"/>
<path d="M25.9668 11.1851C25.9661 10.9209 25.9074 10.6601 25.7948 10.421C25.6823 10.182 25.5186 9.97061 25.3155 9.80173C25.1123 9.63286 24.8745 9.51064 24.619 9.44369C24.3634 9.37674 24.0962 9.3667 23.8364 9.41428L15.1762 14.4223C14.9132 14.5731 14.6947 14.7907 14.5427 15.053C14.3907 15.3154 14.3107 15.6132 14.3107 15.9163C14.3107 16.2195 14.3907 16.5173 14.5427 16.7797C14.6947 17.042 14.9132 17.2596 15.1762 17.4104C15.4367 17.5617 15.7326 17.6413 16.0339 17.6413C16.3351 17.6413 16.6311 17.5617 16.8916 17.4104L25.5587 12.4924C25.8163 12.1777 25.9601 11.7853 25.9668 11.3787V11.1851Z" fill="url(#paint5_linear_376_70)"/>
<path d="M25.9668 11.1851C25.9661 10.9209 25.9074 10.6601 25.7948 10.421C25.6823 10.182 25.5186 9.97061 25.3155 9.80173C25.1123 9.63286 24.8745 9.51064 24.619 9.44369C24.3634 9.37674 24.0962 9.3667 23.8364 9.41428L15.1762 14.4223C14.9132 14.5731 14.6947 14.7907 14.5427 15.053C14.3907 15.3154 14.3107 15.6132 14.3107 15.9163C14.3107 16.2195 14.3907 16.5173 14.5427 16.7797C14.6947 17.042 14.9132 17.2596 15.1762 17.4104C15.4367 17.5617 15.7326 17.6413 16.0339 17.6413C16.3351 17.6413 16.6311 17.5617 16.8916 17.4104L25.5587 12.4924C25.8163 12.1777 25.9601 11.7853 25.9668 11.3787V11.1851Z" fill="url(#paint6_linear_376_70)"/>
<path d="M29.4322 41.6755C29.4311 41.1745 29.2982 40.6826 29.0468 40.2491C28.7955 39.8157 28.4346 39.456 28.0004 39.2061L6.22538 26.6447C5.59427 26.2803 4.87835 26.0885 4.1496 26.0886C3.42085 26.0887 2.70499 26.2807 2.07399 26.6453C1.44299 27.0099 0.919098 27.5342 0.555027 28.1655C0.190957 28.7968 -0.000466551 29.5128 8.53909e-07 30.2415V55.3921C0.00115585 55.8923 0.133304 56.3835 0.383303 56.8167C0.633302 57.25 0.992428 57.6102 1.42492 57.8615C1.85825 58.1117 2.34983 58.2434 2.8502 58.2433C3.35057 58.2432 3.84208 58.1114 4.27535 57.8611C4.70862 57.6109 5.06837 57.2509 5.3184 56.8175C5.56843 56.3841 5.69992 55.8925 5.69968 55.3921V36.1764C5.70024 35.8097 5.79798 35.4497 5.98292 35.133C6.16787 34.8164 6.43341 34.5544 6.75254 34.3737C7.07167 34.193 7.43298 34.1002 7.79967 34.1046C8.16636 34.109 8.52533 34.2105 8.84004 34.3987L23.7325 43.3148L25.1575 44.138C25.5903 44.3879 26.0812 44.5195 26.581 44.5198C27.0808 44.52 27.5718 44.3888 28.0049 44.1394C28.438 43.8899 28.7978 43.5309 29.0483 43.0985C29.2989 42.666 29.4313 42.1753 29.4322 41.6755Z" fill="url(#paint7_linear_376_70)"/>
<path d="M12.4784 63.7064L25.1782 71.4881C25.5996 71.7551 26.0854 71.9031 26.5841 71.9166C27.0828 71.93 27.5759 71.8084 28.0111 71.5646C28.4463 71.3207 28.8075 70.9637 29.0565 70.5314C29.3054 70.0991 29.4329 69.6075 29.4253 69.1086C29.426 68.6223 29.2985 68.1443 29.0556 67.7229C28.8127 67.3015 28.4631 66.9516 28.0418 66.7084L17.6662 60.566C17.4571 60.4453 17.2833 60.272 17.1619 60.0633C17.0406 59.8546 16.976 59.6177 16.9745 59.3763V54.6588C16.9783 54.4179 17.0451 54.1821 17.1681 53.9749C17.291 53.7676 17.466 53.5961 17.6757 53.4773C17.8854 53.3585 18.1224 53.2965 18.3634 53.2975C18.6044 53.2985 18.8409 53.3624 19.0496 53.4829L25.1298 57.2112C25.5517 57.4786 26.0381 57.6266 26.5375 57.6398C27.0368 57.653 27.5303 57.5308 27.9658 57.2861C28.4012 57.0414 28.7624 56.6834 29.0108 56.2501C29.2592 55.8168 29.3857 55.3243 29.3768 54.8248C29.3776 54.3385 29.2501 53.8605 29.0072 53.4391C28.7643 53.0177 28.4146 52.6678 27.9934 52.4246L16.6494 45.715C16.1243 45.4037 15.5262 45.2369 14.9157 45.2316C14.3053 45.2262 13.7044 45.3826 13.1739 45.6847C12.6435 45.9868 12.2024 46.4239 11.8956 46.9517C11.5888 47.4794 11.4271 48.0789 11.427 48.6894V61.9356C11.433 62.2967 11.5331 62.6501 11.7175 62.9606C11.9019 63.2712 12.1642 63.5283 12.4784 63.7064Z" fill="url(#paint8_linear_376_70)"/>
<path d="M36.1141 43.3148L51.0066 34.3779C51.3218 34.1893 51.6814 34.0878 52.0487 34.0837C52.416 34.0796 52.7778 34.1731 53.0971 34.3546C53.4165 34.5361 53.6819 34.799 53.8664 35.1167C54.0508 35.4343 54.1476 35.7952 54.147 36.1625V55.3712C54.1467 55.8716 54.2782 56.3632 54.5283 56.7966C54.7783 57.2301 55.138 57.59 55.5713 57.8403C56.0046 58.0906 56.4961 58.2224 56.9965 58.2225C57.4968 58.2225 57.9884 58.0908 58.4217 57.8407C58.8542 57.5893 59.2133 57.2291 59.4633 56.7959C59.7133 56.3626 59.8455 55.8715 59.8467 55.3712V30.2276C59.8471 29.4989 59.6557 28.7829 59.2916 28.1516C58.9276 27.5203 58.4037 26.996 57.7727 26.6314C57.1417 26.2668 56.4258 26.0748 55.6971 26.0747C54.9683 26.0746 54.2524 26.2664 53.6213 26.6307L31.8393 39.206C31.4064 39.4568 31.0469 39.8169 30.7968 40.2502C30.5468 40.6836 30.4149 41.1751 30.4144 41.6754C30.4154 42.1752 30.5478 42.6659 30.7983 43.0984C31.0488 43.5308 31.4087 43.8898 31.8418 44.1393C32.2748 44.3888 32.7659 44.5199 33.2657 44.5197C33.7654 44.5195 34.2564 44.3878 34.6892 44.1379L36.1141 43.3148Z" fill="url(#paint9_linear_376_70)"/>
<path d="M47.0777 49.6022L34.5024 57.3494C34.0967 57.5976 33.6322 57.7333 33.1566 57.7425C32.6811 57.7516 32.2117 57.6339 31.7967 57.4014C31.3818 57.1689 31.0363 56.8301 30.7957 56.4197C30.5552 56.0094 30.4283 55.5424 30.4282 55.0667V54.797C30.4284 54.3319 30.5496 53.875 30.7801 53.4711C31.0105 53.0672 31.3422 52.7303 31.7425 52.4936L44.3316 45.0508C44.7343 44.8182 45.1908 44.6948 45.6558 44.6929C46.1209 44.691 46.5783 44.8105 46.983 45.0397C47.3876 45.269 47.7254 45.5999 47.9628 45.9998C48.2002 46.3996 48.329 46.8546 48.3366 47.3196C48.3367 47.7754 48.2213 48.2239 48.0011 48.6231C47.781 49.0222 47.4633 49.3591 47.0777 49.6022Z" fill="url(#paint10_linear_376_70)"/>
<path d="M47.0777 63.8862L34.5024 71.5988C34.0967 71.847 33.6322 71.9827 33.1566 71.9919C32.6811 72.001 32.2117 71.8833 31.7967 71.6508C31.3818 71.4183 31.0363 71.0795 30.7957 70.6691C30.5552 70.2588 30.4284 69.7918 30.4282 69.3161V69.0464C30.427 68.5811 30.5477 68.1236 30.7783 67.7194C31.0089 67.3153 31.3413 66.9786 31.7425 66.743L44.3316 59.3002C44.7375 59.0593 45.2 58.9303 45.672 58.9264C46.1441 58.9224 46.6087 59.0437 47.0185 59.2778C47.4284 59.5119 47.7689 59.8505 48.0053 60.2591C48.2417 60.6676 48.3656 61.1316 48.3643 61.6036C48.3614 62.062 48.2418 62.5122 48.0167 62.9116C47.7916 63.311 47.4684 63.6464 47.0777 63.8862Z" fill="url(#paint11_linear_376_70)"/>
<path d="M44.3179 45.0166L31.7357 52.4594C31.3354 52.6961 31.0037 53.033 30.7732 53.4369C30.5428 53.8408 30.4215 54.2978 30.4214 54.7628V55.0326C30.4146 55.5122 30.5367 55.9848 30.775 56.4011C31.0134 56.8173 31.3592 57.1619 31.7763 57.3987C32.1934 57.6356 32.6665 57.756 33.1461 57.7474C33.6257 57.7388 34.0942 57.6015 34.5025 57.3498L47.0916 49.6372C47.4797 49.3894 47.7978 49.0463 48.0157 48.6407C48.2337 48.2351 48.3442 47.7804 48.3367 47.32C48.3365 46.8501 48.2123 46.3885 47.9766 45.9819C47.7409 45.5753 47.4021 45.2381 46.9944 45.0044C46.5866 44.7707 46.1244 44.6488 45.6545 44.6509C45.1845 44.6531 44.7234 44.7792 44.3179 45.0166ZM44.8297 50.0592L35.9205 55.5237C35.6334 55.701 35.3042 55.7985 34.9669 55.8061C34.6296 55.8136 34.2964 55.731 34.0017 55.5667C33.7069 55.4024 33.4614 55.1625 33.2905 54.8716C33.1195 54.5807 33.0293 54.2494 33.0292 53.912V53.7183C33.0286 53.3884 33.1145 53.064 33.2784 52.7776C33.4422 52.4912 33.6783 52.2527 33.963 52.0859L42.8791 46.8151C43.1669 46.6456 43.4944 46.5553 43.8283 46.5531C44.1623 46.551 44.4909 46.6371 44.7809 46.8028C45.0709 46.9685 45.3119 47.2079 45.4796 47.4967C45.6473 47.7855 45.7357 48.1135 45.7358 48.4475C45.7363 48.7714 45.6532 49.09 45.4944 49.3723C45.3357 49.6547 45.1067 49.8913 44.8297 50.0592Z" fill="url(#paint12_linear_376_70)"/>
<path d="M44.3178 59.3004L31.7356 66.7432C31.3344 66.9789 31.002 67.3155 30.7714 67.7197C30.5408 68.1238 30.4201 68.5813 30.4214 69.0466V69.3164C30.4215 69.792 30.5484 70.259 30.7889 70.6694C31.0294 71.0797 31.3749 71.4185 31.7899 71.651C32.2048 71.8835 32.6742 72.0012 33.1498 71.9921C33.6253 71.9829 34.0898 71.8473 34.4956 71.599L47.0847 63.8864C47.4728 63.645 47.7933 63.3088 48.0159 62.9095C48.2386 62.5103 48.3561 62.0609 48.3574 61.6038C48.3594 61.1307 48.2357 60.6657 47.999 60.2561C47.7622 59.8466 47.4209 59.5073 47.01 59.2729C46.599 59.0386 46.1332 58.9177 45.6602 58.9225C45.1872 58.9273 44.7239 59.0577 44.3178 59.3004ZM44.8297 64.343L35.9205 69.8075C35.6334 69.9848 35.3042 70.0823 34.9669 70.0898C34.6296 70.0974 34.2964 70.0148 34.0016 69.8505C33.7069 69.6862 33.4614 69.4462 33.2904 69.1553C33.1195 68.8645 33.0293 68.5332 33.0291 68.1958V68.0021C33.0286 67.6721 33.1145 67.3478 33.2784 67.0614C33.4422 66.775 33.6782 66.5365 33.9629 66.3697L42.8791 61.0988C43.1669 60.9294 43.4944 60.8391 43.8283 60.8369C44.1623 60.8347 44.4909 60.9209 44.7809 61.0866C45.0709 61.2523 45.3119 61.4917 45.4796 61.7805C45.6473 62.0693 45.7357 62.3973 45.7358 62.7313C45.7363 63.0552 45.6531 63.3738 45.4944 63.6561C45.3356 63.9385 45.1067 64.1751 44.8297 64.343Z" fill="url(#paint13_linear_376_70)"/>
<path d="M28.0004 39.2061L6.22538 26.6447C5.59427 26.2803 4.87835 26.0885 4.1496 26.0886C3.42085 26.0887 2.70499 26.2807 2.07399 26.6453C1.44299 27.0099 0.919097 27.5342 0.555027 28.1655C0.190957 28.7968 -0.000466551 29.5128 8.53909e-07 30.2415V55.3921C0.00115585 55.8923 0.133304 56.3835 0.383303 56.8167C0.633302 57.25 0.992428 57.6102 1.42492 57.8615C1.73381 58.0404 2.0744 58.1578 2.42791 58.2073L2.82219 32.0054C2.85002 31.5928 2.98102 31.1938 3.20319 30.845C3.42535 30.4962 3.73157 30.2088 4.09372 30.0091C4.45588 29.8094 4.86236 29.7039 5.27591 29.7022C5.68945 29.7005 6.09679 29.8027 6.46056 29.9994L29.0034 43.1765C29.2824 42.7309 29.4288 42.2151 29.4253 41.6893C29.4273 41.1866 29.2966 40.6923 29.0464 40.2563C28.7962 39.8203 28.4354 39.458 28.0004 39.2061Z" fill="url(#paint14_linear_376_70)"/>
<path d="M53.6213 26.6307L31.8393 39.1922C31.4065 39.4413 31.0468 39.8001 30.7967 40.2324C30.5465 40.6646 30.4147 41.1552 30.4144 41.6547C30.4178 42.1804 30.5662 42.695 30.8433 43.1418L53.3792 29.9994C53.7422 29.8009 54.1493 29.6971 54.563 29.6976C54.9767 29.698 55.3836 29.8027 55.7462 30.0019C56.1087 30.2011 56.4153 30.4884 56.6375 30.8374C56.8597 31.1863 56.9904 31.5856 57.0176 31.9984L57.4188 58.2073C57.7725 58.1544 58.1129 58.0347 58.4217 57.8545C58.8546 57.6054 59.2142 57.2466 59.4644 56.8143C59.7145 56.382 59.8464 55.8915 59.8467 55.392V30.2276C59.8471 29.4989 59.6557 28.7829 59.2916 28.1516C58.9276 27.5203 58.4037 26.996 57.7727 26.6314C57.1417 26.2668 56.4258 26.0748 55.6971 26.0747C54.9683 26.0746 54.2524 26.2664 53.6213 26.6307Z" fill="url(#paint15_linear_376_70)"/>
<path d="M54.7556 19.3056C55.4422 18.9103 55.9485 18.2638 56.1679 17.5026C56.3873 16.7413 56.3025 15.9246 55.9316 15.2245L30.6703 29.37C30.2962 29.5808 29.8715 29.6851 29.4423 29.6717C29.0131 29.6583 28.5957 29.5276 28.2355 29.2939L19.1672 23.3798L9.13742 17.7492C8.81847 17.523 8.56098 17.2208 8.38823 16.87C8.21547 16.5192 8.1329 16.1309 8.148 15.7401C8.16311 15.3494 8.27543 14.9686 8.47475 14.6322C8.67408 14.2958 8.95413 14.0144 9.28959 13.8134L31.6595 0.864626C31.5069 0.649029 31.3126 0.466291 31.088 0.327267C30.8634 0.188242 30.6132 0.0957649 30.3521 0.0553262C29.774 -0.0279341 29.1849 0.0918481 28.6851 0.394264L6.71643 13.0802C6.08589 13.4446 5.56232 13.9684 5.19832 14.5992C4.83431 15.23 4.6427 15.9454 4.6427 16.6736C4.6427 17.4019 4.83431 18.1173 5.19832 18.7481C5.56232 19.3788 6.08589 19.9027 6.71643 20.2671L27.8482 32.4481C28.4791 32.8123 29.1948 33.0041 29.9233 33.0041C30.6518 33.0041 31.3675 32.8123 31.9984 32.4481L54.7556 19.3056Z" fill="url(#paint16_linear_376_70)"/>
<path d="M29.4253 54.8247C29.4269 55.0011 29.4107 55.1773 29.3768 55.3504C29.4081 55.1769 29.4243 55.001 29.4253 54.8247Z" fill="url(#paint17_linear_376_70)"/>
<path d="M29.2108 55.918L28.9272 56.416C29.0405 56.2614 29.1356 56.0943 29.2108 55.918Z" fill="url(#paint18_linear_376_70)"/>
<path d="M29.3975 54.4099C29.337 53.9996 29.1849 53.6082 28.9526 53.2645C28.7204 52.9209 28.4138 52.6339 28.0556 52.4247L24.521 50.3496L27.9795 52.3832C28.3469 52.6002 28.6635 52.8934 28.9081 53.243C29.1527 53.5926 29.3196 53.9905 29.3975 54.4099Z" fill="url(#paint19_linear_376_70)"/>
<path d="M14.9617 60.9605L15.1692 51.7677C15.1755 51.4706 15.2582 51.1802 15.4094 50.9244C15.5606 50.6686 15.7751 50.4561 16.0323 50.3073C16.2895 50.1585 16.5807 50.0786 16.8778 50.0751C17.1749 50.0716 17.4679 50.1447 17.7286 50.2874L28.9204 56.4298L29.204 55.9317C29.2669 55.7774 29.3155 55.6177 29.3493 55.4545V55.3507C29.3831 55.1776 29.3994 55.0014 29.3977 54.825C29.3977 54.7835 29.3977 54.7489 29.3977 54.7143C29.4045 54.6245 29.4045 54.5344 29.3977 54.4446C29.3231 54.014 29.155 53.6051 28.9052 53.2465C28.6554 52.888 28.3301 52.5886 27.952 52.3694L24.4935 50.3358L16.6841 45.7221C16.159 45.4108 15.5608 45.244 14.9504 45.2387C14.34 45.2333 13.739 45.3897 13.2086 45.6918C12.6781 45.9939 12.2371 46.431 11.9303 46.9587C11.6235 47.4865 11.4618 48.086 11.4617 48.6965V61.9427C11.4612 62.2978 11.552 62.6471 11.7252 62.9572C11.8983 63.2672 12.1482 63.5276 12.4508 63.7135L25.1506 71.4952C25.7602 71.8751 26.4936 72.0031 27.1958 71.8521C27.898 71.701 28.514 71.2828 28.9135 70.6859L15.605 62.1917C15.3987 62.0614 15.2306 61.8789 15.1176 61.6627C15.0046 61.4465 14.9509 61.2042 14.9617 60.9605Z" fill="url(#paint20_linear_376_70)"/>
</g>
<defs>
<linearGradient id="paint0_linear_376_70" x1="-4.11575" y1="12.1671" x2="57.564" y2="9.60083" gradientUnits="userSpaceOnUse">
<stop stop-color="#25EDFF"/>
<stop offset="1" stop-color="#29ABE2"/>
</linearGradient>
<linearGradient id="paint1_linear_376_70" x1="4.64132" y1="16.5042" x2="56.2843" y2="16.5042" gradientUnits="userSpaceOnUse">
<stop stop-color="#25EDFF"/>
<stop offset="1" stop-color="#29ABE2"/>
</linearGradient>
<linearGradient id="paint2_linear_376_70" x1="28.9343" y1="18.2128" x2="39.9532" y2="17.7562" gradientUnits="userSpaceOnUse">
<stop stop-color="#25EDFF"/>
<stop offset="1" stop-color="#29ABE2"/>
</linearGradient>
<linearGradient id="paint3_linear_376_70" x1="29.031" y1="20.5782" x2="40.0499" y2="20.1148" gradientUnits="userSpaceOnUse">
<stop stop-color="#25EDFF"/>
<stop offset="1" stop-color="#29ABE2"/>
</linearGradient>
<linearGradient id="paint4_linear_376_70" x1="28.0004" y1="20.6197" x2="34.3641" y2="20.3499" gradientUnits="userSpaceOnUse">
<stop stop-color="#25EDFF"/>
<stop offset="1" stop-color="#00A2F4"/>
</linearGradient>
<linearGradient id="paint5_linear_376_70" x1="17.023" y1="13.6406" x2="28.0489" y2="13.1841" gradientUnits="userSpaceOnUse">
<stop stop-color="#25EDFF"/>
<stop offset="1" stop-color="#29ABE2"/>
</linearGradient>
<linearGradient id="paint6_linear_376_70" x1="15.9924" y1="13.689" x2="22.3561" y2="13.4193" gradientUnits="userSpaceOnUse">
<stop stop-color="#25EDFF"/>
<stop offset="1" stop-color="#00A2F4"/>
</linearGradient>
<linearGradient id="paint7_linear_376_70" x1="36.3839" y1="61.0088" x2="4.22635" y2="42.4848" gradientUnits="userSpaceOnUse">
<stop stop-color="#ED1E79"/>
<stop offset="1" stop-color="#622BFF"/>
</linearGradient>
<linearGradient id="paint8_linear_376_70" x1="33.5755" y1="65.8784" x2="1.41797" y2="47.3544" gradientUnits="userSpaceOnUse">
<stop stop-color="#ED1E79"/>
<stop offset="1" stop-color="#622BFF"/>
</linearGradient>
<linearGradient id="paint9_linear_376_70" x1="30.4144" y1="42.1458" x2="59.8467" y2="42.1458" gradientUnits="userSpaceOnUse">
<stop stop-color="#FBB03B"/>
<stop offset="1" stop-color="#F15A24"/>
</linearGradient>
<linearGradient id="paint10_linear_376_70" x1="30.4144" y1="51.1793" x2="48.3504" y2="51.1793" gradientUnits="userSpaceOnUse">
<stop stop-color="#FBB03B"/>
<stop offset="1" stop-color="#F26327"/>
</linearGradient>
<linearGradient id="paint11_linear_376_70" x1="30.4144" y1="65.4633" x2="48.3504" y2="65.4633" gradientUnits="userSpaceOnUse">
<stop stop-color="#FBB03B"/>
<stop offset="1" stop-color="#F26327"/>
</linearGradient>
<linearGradient id="paint12_linear_376_70" x1="30.4145" y1="51.1798" x2="48.3505" y2="51.1798" gradientUnits="userSpaceOnUse">
<stop offset="0.03" stop-color="#F26327"/>
<stop offset="1" stop-color="#F4742B"/>
</linearGradient>
<linearGradient id="paint13_linear_376_70" x1="30.4145" y1="65.4635" x2="48.3505" y2="65.4635" gradientUnits="userSpaceOnUse">
<stop offset="0.03" stop-color="#F26327"/>
<stop offset="1" stop-color="#F4742B"/>
</linearGradient>
<linearGradient id="paint14_linear_376_70" x1="24.9707" y1="42.2427" x2="-3.47238" y2="42.1182" gradientUnits="userSpaceOnUse">
<stop stop-color="#EF59A1"/>
<stop offset="1" stop-color="#2A16B7"/>
</linearGradient>
<linearGradient id="paint15_linear_376_70" x1="36.2801" y1="51.2971" x2="67.7045" y2="36.868" gradientUnits="userSpaceOnUse">
<stop stop-color="#F79D26"/>
<stop offset="1" stop-color="#D62D00"/>
</linearGradient>
<linearGradient id="paint16_linear_376_70" x1="4.64132" y1="16.5111" x2="56.2843" y2="16.5111" gradientUnits="userSpaceOnUse">
<stop stop-color="#00A2F4"/>
<stop offset="1" stop-color="#25EDFF"/>
</linearGradient>
<linearGradient id="paint17_linear_376_70" x1="37.2078" y1="59.5698" x2="5.05543" y2="41.043" gradientUnits="userSpaceOnUse">
<stop stop-color="#ED1E79"/>
<stop offset="1" stop-color="#622BFF"/>
</linearGradient>
<linearGradient id="paint18_linear_376_70" x1="36.6537" y1="60.5386" x2="4.49598" y2="42.0144" gradientUnits="userSpaceOnUse">
<stop stop-color="#ED1E79"/>
<stop offset="1" stop-color="#622BFF"/>
</linearGradient>
<linearGradient id="paint19_linear_376_70" x1="37.7672" y1="58.6017" x2="5.61658" y2="40.0778" gradientUnits="userSpaceOnUse">
<stop stop-color="#ED1E79"/>
<stop offset="1" stop-color="#622BFF"/>
</linearGradient>
<linearGradient id="paint20_linear_376_70" x1="11.4893" y1="58.5672" x2="25.5103" y2="58.5672" gradientUnits="userSpaceOnUse">
<stop stop-color="#4720B4"/>
<stop offset="1" stop-color="#EF59A1"/>
</linearGradient>
<clipPath id="clip0_376_70">
<rect width="59.8467" height="72" fill="white"/>
</clipPath>
</defs>
</svg>
