<svg width="384" height="384" viewBox="0 0 384 384" fill="none" xmlns="http://www.w3.org/2000/svg">
<rect width="384" height="384" rx="16" fill="#35A18A"/>
<rect x="171.932" y="40" width="40.4357" height="34.2974" fill="white"/>
<rect x="171.941" y="309.703" width="40.4357" height="34.2974" fill="white"/>
<path d="M192.786 57.0599C261.257 57.0599 317.976 107.368 327.999 173.037L238.982 174.101C231.311 156.177 213.516 143.618 192.786 143.618C165.046 143.618 142.558 166.106 142.558 193.846C142.558 221.587 165.046 244.074 192.786 244.075C213.088 244.075 230.575 232.029 238.494 214.696H327.993C317.953 280.345 261.242 330.632 192.786 330.632C117.241 330.632 56 269.391 56 193.846C56.0001 118.301 117.241 57.06 192.786 57.0599Z" fill="white"/>
</svg>
