<svg fill="none" height="500" viewBox="0 0 500 500" width="500" xmlns="http://www.w3.org/2000/svg" xmlns:xlink="http://www.w3.org/1999/xlink"><clipPath id="a"><path d="m63 164h372.72v171.42h-372.72z"/></clipPath><path d="m0 0h500v500h-500z" fill="#0a0b15"/><g clip-path="url(#a)"><path d="m168.1 190 4.29-26h-109.39v171.42h31.06v-68.34h61.32l4.23-25.65h-65.55v-51.43zm236.55-26v28.42h31.07v-28.42zm0 42.19v103.23h-48.87l-4.31 26h84.25v-129.23zm-236.55-16.19 4.29-26zm197.69-26-9.99 60.5-14.02 84.92-4.29 26h-29.91l19.67-117.81h-1.5l-66.95 117.23h-22.21l-27.72-117.46h-1.5l-19.9 118.04h-29.8l7.66-46.18 20.76-125.24h38.08l30.37 124.14h2.07l71.33-124.14z" fill="#fff"/></g></svg>