<svg width="500" height="500" viewBox="0 0 500 500" fill="none" xmlns="http://www.w3.org/2000/svg">
<rect width="500" height="500" fill="#0A0B15"/>
<g clip-path="url(#clip0_130_2849)">
<path d="M168.1 190L172.39 164H63V335.42H94.06V267.08H155.38L159.61 241.43H94.06V190H168.1ZM404.65 164V192.42H435.72V164H404.65ZM404.65 206.19V309.42H355.78L351.47 335.42H435.72V206.19H404.65ZM168.1 190L172.39 164ZM365.79 164L355.8 224.5L341.78 309.42L337.49 335.42H307.58L327.25 217.61H325.75L258.8 334.84H236.59L208.87 217.38H207.37L187.47 335.42H157.67L165.33 289.24L186.09 164H224.17L254.54 288.14H256.61L327.94 164H365.79Z" fill="white"/>
</g>
<defs>
<clipPath id="clip0_130_2849">
<rect width="372.72" height="171.42" fill="white" transform="translate(63 164)"/>
</clipPath>
</defs>
</svg>
