<?xml version="1.0" standalone="no"?>
<!DOCTYPE svg PUBLIC "-//W3C//DTD SVG 20010904//EN"
 "http://www.w3.org/TR/2001/REC-SVG-20010904/DTD/svg10.dtd">
<svg version="1.0" xmlns="http://www.w3.org/2000/svg"
 width="1024.000000pt" height="1024.000000pt" viewBox="0 0 1024.000000 1024.000000"
 preserveAspectRatio="xMidYMid meet">

<g transform="translate(0.000000,1024.000000) scale(0.100000,-0.100000)"
fill="#000000" stroke="none">
<path d="M0 5120 l0 -5120 5120 0 5120 0 0 5120 0 5120 -5120 0 -5120 0 0
-5120z m5525 3132 c204 -34 387 -86 578 -166 140 -58 229 -105 221 -118 -4 -7
-3 -8 4 -4 14 9 95 -32 87 -44 -3 -5 0 -12 6 -16 8 -4 9 -3 5 4 -4 7 -3 12 2
12 16 0 227 -146 227 -157 0 -6 4 -15 9 -20 5 -5 6 -3 2 5 -4 6 -3 12 2 12 12
0 43 -35 37 -42 -3 -3 3 -11 12 -19 16 -13 17 -12 4 4 -28 36 7 15 72 -44 37
-33 64 -66 61 -71 -4 -6 -2 -8 3 -5 12 7 103 -69 103 -85 0 -6 -10 -3 -22 8
l-23 19 19 -22 c10 -13 22 -20 26 -18 17 10 175 -179 164 -196 -4 -7 -3 -9 4
-5 14 8 55 -50 46 -65 -4 -8 -3 -9 4 -5 15 9 87 -99 76 -115 -4 -7 -3 -10 4
-5 19 11 134 -201 205 -379 51 -128 104 -317 134 -480 l27 -140 3 -1653 c3
-1483 2 -1660 -12 -1715 -28 -111 -99 -240 -128 -234 -7 1 -11 -5 -9 -15 4
-24 -81 -92 -167 -135 -68 -33 -84 -37 -176 -41 -117 -5 -181 9 -285 64 -79
43 -226 157 -222 173 1 7 -2 10 -7 7 -5 -3 -41 19 -81 50 -40 30 -83 60 -95
66 -39 18 -91 0 -154 -52 -32 -27 -61 -47 -64 -44 -3 3 -4 -1 -3 -8 2 -20
-130 -141 -145 -132 -8 4 -10 3 -5 -4 10 -17 -106 -89 -174 -109 -75 -22 -182
-21 -250 1 -74 25 -132 55 -125 65 2 5 -3 15 -13 22 -15 13 -16 12 -3 -3 8
-11 9 -18 3 -18 -11 0 -27 19 -27 32 0 3 -4 10 -9 15 -5 5 -6 3 -2 -4 9 -17
-4 -16 -26 1 -20 15 -25 31 -6 20 7 -4 8 -3 4 5 -4 6 -12 9 -17 5 -12 -7 -131
95 -124 106 3 4 -3 14 -13 21 -15 13 -16 12 -3 -3 24 -32 1 -19 -52 27 -61 53
-104 65 -153 42 -18 -9 -77 -56 -131 -105 -134 -121 -203 -174 -220 -168 -8 3
-11 1 -8 -4 9 -14 -90 -58 -161 -71 -113 -21 -236 5 -336 71 -70 46 -139 111
-131 122 3 7 1 8 -5 4 -6 -3 -43 23 -83 59 -74 66 -139 105 -176 105 -23 0
-69 -29 -163 -104 -116 -93 -169 -128 -181 -120 -7 4 -9 3 -5 -4 3 -6 -4 -18
-16 -26 -26 -19 -42 -21 -32 -4 4 7 3 8 -5 4 -6 -4 -9 -11 -6 -16 8 -13 -102
-67 -172 -85 -33 -9 -92 -15 -136 -14 -230 5 -417 167 -487 421 -20 75 -21 80
-17 1719 3 1638 3 1644 25 1769 52 300 160 596 311 851 76 130 193 294 208
294 7 0 18 7 25 15 11 12 11 12 -6 0 -40 -31 -9 12 93 125 68 77 108 114 118
111 8 -3 12 -2 9 3 -8 12 19 33 28 23 4 -4 6 -1 4 7 -8 36 309 264 522 375
233 121 515 217 710 242 30 4 98 13 150 20 143 20 559 11 715 -14z"/>
<path d="M5043 8263 c37 -2 96 -2 130 0 34 2 4 3 -68 3 -71 0 -99 -1 -62 -3z"/>
<path d="M4868 8253 c6 -2 18 -2 25 0 6 3 1 5 -13 5 -14 0 -19 -2 -12 -5z"/>
<path d="M5328 8253 c12 -2 32 -2 45 0 12 2 2 4 -23 4 -25 0 -35 -2 -22 -4z"/>
<path d="M5448 8243 c7 -3 16 -2 19 1 4 3 -2 6 -13 5 -11 0 -14 -3 -6 -6z"/>
<path d="M4698 8233 c7 -3 16 -2 19 1 4 3 -2 6 -13 5 -11 0 -14 -3 -6 -6z"/>
<path d="M5503 8233 c9 -2 23 -2 30 0 6 3 -1 5 -18 5 -16 0 -22 -2 -12 -5z"/>
<path d="M4638 8223 c7 -3 16 -2 19 1 4 3 -2 6 -13 5 -11 0 -14 -3 -6 -6z"/>
<path d="M5828 8163 c7 -3 16 -2 19 1 4 3 -2 6 -13 5 -11 0 -14 -3 -6 -6z"/>
<path d="M5870 8150 c8 -5 22 -9 30 -9 10 0 8 3 -5 9 -27 12 -43 12 -25 0z"/>
<path d="M6227 8009 c7 -7 15 -10 18 -7 3 3 -2 9 -12 12 -14 6 -15 5 -6 -5z"/>
<path d="M3970 8000 c-9 -6 -10 -10 -3 -10 6 0 15 5 18 10 8 12 4 12 -15 0z"/>
<path d="M5038 7793 c17 -2 47 -2 65 0 17 2 3 4 -33 4 -36 0 -50 -2 -32 -4z"/>
<path d="M5168 7793 c18 -2 45 -2 60 0 15 2 0 4 -33 4 -33 0 -45 -2 -27 -4z"/>
<path d="M4913 7783 c9 -2 23 -2 30 0 6 3 -1 5 -18 5 -16 0 -22 -2 -12 -5z"/>
<path d="M5338 7783 c7 -3 16 -2 19 1 4 3 -2 6 -13 5 -11 0 -14 -3 -6 -6z"/>
<path d="M4828 7773 c6 -2 18 -2 25 0 6 3 1 5 -13 5 -14 0 -19 -2 -12 -5z"/>
<path d="M4938 7770 c-450 -48 -857 -234 -1197 -548 -52 -48 -98 -86 -103 -85
-4 2 -7 -1 -5 -6 1 -4 -30 -48 -69 -97 -212 -263 -343 -530 -411 -838 l-27
-121 -3 -1613 -4 -1612 27 -12 c44 -20 100 21 318 232 232 225 261 244 371
245 94 0 145 -26 251 -130 76 -75 110 -118 67 -84 -16 13 -17 12 -4 -3 7 -10
17 -15 23 -12 5 3 46 -34 91 -82 149 -159 198 -186 261 -145 17 11 34 18 38
15 5 -3 7 -2 6 3 -6 16 349 357 408 393 55 33 63 35 149 35 68 0 100 -5 130
-19 24 -12 111 -91 220 -201 99 -100 200 -196 224 -214 79 -56 121 -40 250 92
36 36 69 63 74 60 6 -3 7 -1 3 5 -6 11 171 212 187 212 4 0 5 -6 1 -12 -4 -8
-3 -10 2 -5 5 5 9 14 9 20 0 16 61 55 104 67 62 17 132 12 187 -14 58 -27 137
-93 128 -107 -3 -5 0 -8 8 -7 7 2 12 -4 10 -12 -2 -8 0 -12 4 -8 10 11 35 -12
27 -26 -3 -6 -2 -8 2 -3 5 4 70 -53 144 -126 168 -165 220 -193 270 -146 l22
21 -2 1551 c-2 1691 0 1637 -59 1872 -127 508 -533 996 -1040 1250 -164 82
-379 160 -500 180 -19 4 -71 13 -115 21 -102 18 -364 26 -477 14z m-528 -1693
c56 -24 122 -77 116 -93 -3 -8 0 -13 7 -11 23 4 60 -91 65 -167 5 -94 -21
-168 -86 -234 -96 -98 -218 -122 -341 -67 -66 30 -133 94 -157 150 -21 51 -18
173 6 237 22 61 76 131 92 122 6 -4 8 -2 4 4 -12 19 78 74 139 84 31 6 116 -8
155 -25z m1667 -29 c78 -29 159 -106 178 -171 19 -65 19 -141 0 -198 -18 -53
-72 -122 -87 -113 -7 4 -8 2 -4 -4 10 -17 -70 -70 -133 -88 -97 -29 -205 -3
-284 66 -20 17 -34 36 -31 41 3 5 0 8 -8 7 -7 -2 -26 23 -43 57 -25 51 -30 71
-29 135 0 95 25 153 85 202 59 48 103 70 169 83 65 14 116 9 187 -17z"/>
<path d="M4283 6083 c9 -2 23 -2 30 0 6 3 -1 5 -18 5 -16 0 -22 -2 -12 -5z"/>
<path d="M4012 5800 c0 -14 2 -19 5 -12 2 6 2 18 0 25 -3 6 -5 1 -5 -13z"/>
<path d="M4012 5745 c0 -16 2 -22 5 -12 2 9 2 23 0 30 -3 6 -5 -1 -5 -18z"/>
<path d="M4318 5493 c6 -2 18 -2 25 0 6 3 1 5 -13 5 -14 0 -19 -2 -12 -5z"/>
<path d="M5918 6053 c7 -3 16 -2 19 1 4 3 -2 6 -13 5 -11 0 -14 -3 -6 -6z"/>
<path d="M5973 6053 c9 -2 23 -2 30 0 6 3 -1 5 -18 5 -16 0 -22 -2 -12 -5z"/>
<path d="M6028 6043 c7 -3 16 -2 19 1 4 3 -2 6 -13 5 -11 0 -14 -3 -6 -6z"/>
<path d="M6252 5770 c0 -19 2 -27 5 -17 2 9 2 25 0 35 -3 9 -5 1 -5 -18z"/>
<path d="M5651 5724 c0 -11 3 -14 6 -6 3 7 2 16 -1 19 -3 4 -6 -2 -5 -13z"/>
<path d="M5398 7773 c7 -3 16 -2 19 1 4 3 -2 6 -13 5 -11 0 -14 -3 -6 -6z"/>
<path d="M4768 7763 c7 -3 16 -2 19 1 4 3 -2 6 -13 5 -11 0 -14 -3 -6 -6z"/>
<path d="M5458 7763 c7 -3 16 -2 19 1 4 3 -2 6 -13 5 -11 0 -14 -3 -6 -6z"/>
<path d="M4235 7590 c-3 -6 1 -7 9 -4 18 7 21 14 7 14 -6 0 -13 -4 -16 -10z"/>
<path d="M3139 7313 c-13 -16 -12 -17 4 -4 9 7 17 15 17 17 0 8 -8 3 -21 -13z"/>
<path d="M2816 6763 c-6 -14 -5 -15 5 -6 7 7 10 15 7 18 -3 3 -9 -2 -12 -12z"/>
<path d="M2672 6310 c0 -14 2 -19 5 -12 2 6 2 18 0 25 -3 6 -5 1 -5 -13z"/>
<path d="M2661 6244 c0 -11 3 -14 6 -6 3 7 2 16 -1 19 -3 4 -6 -2 -5 -13z"/>
<path d="M7582 6190 c0 -14 2 -19 5 -12 2 6 2 18 0 25 -3 6 -5 1 -5 -13z"/>
<path d="M2651 6184 c0 -11 3 -14 6 -6 3 7 2 16 -1 19 -3 4 -6 -2 -5 -13z"/>
<path d="M3121 6144 c0 -11 3 -14 6 -6 3 7 2 16 -1 19 -3 4 -6 -2 -5 -13z"/>
<path d="M7122 6130 c0 -19 2 -27 5 -17 2 9 2 25 0 35 -3 9 -5 1 -5 -18z"/>
<path d="M2642 6115 c0 -16 2 -22 5 -12 2 9 2 23 0 30 -3 6 -5 -1 -5 -18z"/>
<path d="M7592 6115 c0 -16 2 -22 5 -12 2 9 2 23 0 30 -3 6 -5 -1 -5 -18z"/>
<path d="M3111 6064 c0 -11 3 -14 6 -6 3 7 2 16 -1 19 -3 4 -6 -2 -5 -13z"/>
<path d="M7132 6050 c0 -14 2 -19 5 -12 2 6 2 18 0 25 -3 6 -5 1 -5 -13z"/>
<path d="M2633 6025 c0 -22 2 -30 4 -17 2 12 2 30 0 40 -3 9 -5 -1 -4 -23z"/>
<path d="M7601 6044 c0 -11 3 -14 6 -6 3 7 2 16 -1 19 -3 4 -6 -2 -5 -13z"/>
<path d="M3101 5974 c0 -11 3 -14 6 -6 3 7 2 16 -1 19 -3 4 -6 -2 -5 -13z"/>
<path d="M7144 5735 c0 -115 2 -161 3 -102 2 59 2 154 0 210 -1 56 -3 8 -3
-108z"/>
<path d="M2625 4360 c0 -844 1 -1190 2 -768 2 423 2 1113 0 1535 -1 423 -2 77
-2 -767z"/>
<path d="M7615 4350 c0 -844 1 -1190 2 -768 2 423 2 1113 0 1535 -1 423 -2 77
-2 -767z"/>
<path d="M3101 4474 c0 -11 3 -14 6 -6 3 7 2 16 -1 19 -3 4 -6 -2 -5 -13z"/>
<path d="M3103 3735 c0 -22 2 -30 4 -17 2 12 2 30 0 40 -3 9 -5 -1 -4 -23z"/>
<path d="M3102 3610 c0 -14 2 -19 5 -12 2 6 2 18 0 25 -3 6 -5 1 -5 -13z"/>
<path d="M3102 3465 c0 -16 2 -22 5 -12 2 9 2 23 0 30 -3 6 -5 -1 -5 -18z"/>
<path d="M3102 3410 c0 -14 2 -19 5 -12 2 6 2 18 0 25 -3 6 -5 1 -5 -13z"/>
<path d="M3104 3240 c0 -52 1 -74 3 -47 2 26 2 68 0 95 -2 26 -3 4 -3 -48z"/>
<path d="M3785 3303 c-11 -3 -24 -9 -29 -14 -5 -4 8 -3 30 2 58 16 57 26 -1
12z"/>
<path d="M6388 3303 c6 -2 18 -2 25 0 6 3 1 5 -13 5 -14 0 -19 -2 -12 -5z"/>
<path d="M5098 3293 c12 -2 32 -2 45 0 12 2 2 4 -23 4 -25 0 -35 -2 -22 -4z"/>
<path d="M6338 3293 c7 -3 16 -2 19 1 4 3 -2 6 -13 5 -11 0 -14 -3 -6 -6z"/>
<path d="M6468 3293 c7 -3 16 -2 19 1 4 3 -2 6 -13 5 -11 0 -14 -3 -6 -6z"/>
<path d="M3624 3208 l-19 -23 23 19 c12 11 22 21 22 23 0 8 -8 2 -26 -19z"/>
<path d="M3104 3000 c0 -80 2 -112 3 -72 2 39 2 105 0 145 -1 39 -3 7 -3 -73z"/>
<path d="M6069 3073 c-13 -16 -12 -17 4 -4 16 13 21 21 13 21 -2 0 -10 -8 -17
-17z"/>
<path d="M3319 2913 c-13 -16 -12 -17 4 -4 16 13 21 21 13 21 -2 0 -10 -8 -17
-17z"/>
<path d="M3158 2813 c6 -2 18 -2 25 0 6 3 1 5 -13 5 -14 0 -19 -2 -12 -5z"/>
<path d="M2631 2774 c0 -11 3 -14 6 -6 3 7 2 16 -1 19 -3 4 -6 -2 -5 -13z"/>
<path d="M5108 2673 c7 -3 16 -2 19 1 4 3 -2 6 -13 5 -11 0 -14 -3 -6 -6z"/>
<path d="M6299 2643 c-13 -16 -12 -17 4 -4 16 13 21 21 13 21 -2 0 -10 -8 -17
-17z"/>
<path d="M7419 2433 c-13 -16 -12 -17 4 -4 16 13 21 21 13 21 -2 0 -10 -8 -17
-17z"/>
<path d="M7355 2390 c-3 -6 1 -7 9 -4 18 7 21 14 7 14 -6 0 -13 -4 -16 -10z"/>
<path d="M5645 2330 c27 -12 43 -12 25 0 -8 5 -22 9 -30 9 -10 0 -8 -3 5 -9z"/>
<path d="M5868 2323 c7 -3 16 -2 19 1 4 3 -2 6 -13 5 -11 0 -14 -3 -6 -6z"/>
<path d="M6998 2323 c7 -3 16 -2 19 1 4 3 -2 6 -13 5 -11 0 -14 -3 -6 -6z"/>
<path d="M3028 2313 c7 -3 16 -2 19 1 4 3 -2 6 -13 5 -11 0 -14 -3 -6 -6z"/>
<path d="M3218 2313 c7 -3 16 -2 19 1 4 3 -2 6 -13 5 -11 0 -14 -3 -6 -6z"/>
<path d="M4558 2313 c7 -3 16 -2 19 1 4 3 -2 6 -13 5 -11 0 -14 -3 -6 -6z"/>
<path d="M5813 2313 c9 -2 23 -2 30 0 6 3 -1 5 -18 5 -16 0 -22 -2 -12 -5z"/>
<path d="M7093 2313 c15 -2 37 -2 50 0 12 2 0 4 -28 4 -27 0 -38 -2 -22 -4z"/>
<path d="M3118 2303 c12 -2 30 -2 40 0 9 3 -1 5 -23 4 -22 0 -30 -2 -17 -4z"/>
<path d="M4453 2303 c9 -2 23 -2 30 0 6 3 -1 5 -18 5 -16 0 -22 -2 -12 -5z"/>
</g>
</svg>
