<?xml version="1.0" standalone="no"?>
<!DOCTYPE svg PUBLIC "-//W3C//DTD SVG 20010904//EN"
 "http://www.w3.org/TR/2001/REC-SVG-20010904/DTD/svg10.dtd">
<svg version="1.0" xmlns="http://www.w3.org/2000/svg"
 width="112.000000pt" height="112.000000pt" viewBox="0 0 112.000000 112.000000"
 preserveAspectRatio="xMidYMid meet">
<metadata>
Created by potrace 1.10, written by Peter Selinger 2001-2011
</metadata>
<g transform="translate(0.000000,112.000000) scale(0.100000,-0.100000)"
fill="#7149df" stroke="none">
<path d="M447 1048 c-40 -10 -91 -27 -114 -38 -24 -11 -45 -20 -49 -20 -21 0
-124 -88 -149 -127 -49 -77 -54 -86 -75 -130 -20 -45 -38 -150 -20 -123 9 14
16 -56 13 -149 0 -18 2 -29 6 -24 3 5 31 10 61 12 30 1 70 7 88 14 32 11 32
12 30 71 l-3 60 40 21 c40 21 40 22 46 91 4 44 14 83 28 107 12 21 19 42 16
47 -3 5 -1 11 4 14 5 4 12 2 16 -3 8 -14 74 31 75 52 0 9 5 17 11 17 6 0 9 -7
5 -15 -6 -17 2 -19 22 -6 11 6 7 13 -14 30 -14 11 -34 21 -43 21 -13 0 -13 -2
-3 -9 11 -7 10 -10 -3 -15 -23 -8 -27 -8 -20 4 12 19 -14 10 -35 -12 -11 -12
-20 -18 -20 -12 0 5 -4 4 -8 -1 -9 -13 -58 -45 -69 -45 -4 0 8 11 27 25 19 14
31 25 27 25 -18 0 -65 -44 -60 -56 3 -8 9 -11 14 -8 6 3 7 -5 3 -20 -4 -16 -2
-26 4 -26 15 0 24 18 12 22 -11 3 16 48 29 48 5 0 11 -9 14 -20 4 -14 -2 -25
-19 -36 -13 -9 -24 -23 -24 -31 0 -8 -4 -12 -8 -9 -5 3 -8 -8 -7 -23 1 -24 -2
-28 -21 -27 -33 2 -43 46 -15 65 27 17 27 36 1 54 -20 14 -20 15 17 46 33 28
30 27 -18 -6 -32 -21 -54 -43 -52 -50 3 -7 9 -13 15 -13 5 0 7 4 3 9 -3 5 0
13 6 17 8 4 9 3 5 -4 -5 -8 -1 -10 11 -6 16 5 16 4 -2 -13 -35 -32 -26 -89 23
-144 49 -55 56 -75 11 -30 -17 17 -39 31 -48 31 -29 0 -71 38 -65 58 5 14 4
14 -4 2 -6 -8 -7 -21 -3 -28 5 -8 7 -22 6 -31 -1 -9 0 -10 2 -3 3 7 8 10 13 7
5 -3 7 -12 4 -19 -3 -8 0 -17 7 -22 9 -5 10 -2 6 9 -4 11 -1 17 8 17 8 0 15
-7 15 -16 0 -14 2 -15 18 -3 16 13 16 12 2 -5 -13 -16 -12 -20 5 -33 20 -15
20 -15 -2 -10 -18 4 -23 -1 -28 -24 -4 -16 -4 -33 0 -39 13 -21 -7 -32 -26
-14 -22 20 -26 10 -5 -12 10 -9 12 -23 7 -41 -7 -25 -12 -28 -49 -29 -40 -1
-42 1 -48 33 -12 65 2 158 35 228 20 44 35 64 42 59 8 -5 9 -3 4 6 -6 10 -14
6 -32 -16 -38 -48 -63 -127 -64 -207 l-1 -72 -14 70 c-15 84 -17 108 -5 101 4
-3 6 6 3 21 -3 16 -1 24 5 20 6 -4 11 -1 10 6 -1 32 4 48 13 42 6 -4 7 1 3 11
-4 12 -3 15 6 10 6 -4 11 -4 10 1 -3 20 2 34 11 28 6 -3 7 1 4 10 -4 10 -2 15
7 13 7 -2 13 2 14 8 1 44 195 187 227 168 7 -5 8 -3 3 6 -5 9 -2 10 14 5 13
-4 31 -1 44 8 24 15 69 29 63 19 -2 -4 19 -5 47 -3 56 4 184 -16 192 -29 3 -5
-2 -15 -10 -23 -17 -18 -20 -37 -5 -37 5 0 9 3 8 8 -1 4 3 17 10 29 l13 23 57
-29 c32 -16 81 -50 110 -76 44 -40 51 -51 46 -73 -4 -20 -3 -23 5 -12 5 8 12
12 14 10 16 -19 57 -102 68 -137 6 -23 16 -40 20 -37 4 2 5 -26 2 -63 -3 -38
-1 -83 3 -101 7 -23 9 -1 8 77 -1 99 -4 115 -31 173 -36 76 -114 175 -174 220
-118 90 -286 123 -432 86z m-148 -334 c1 -1 1 -7 0 -13 -2 -5 -15 0 -29 11
l-25 21 25 -8 c14 -4 27 -9 29 -11z"/>
<path d="M490 972 c0 -21 39 -42 78 -42 22 0 52 -4 66 -10 21 -8 26 -6 26 6 0
8 4 13 8 10 4 -2 13 4 19 14 10 15 9 19 -10 23 -12 3 -35 3 -52 1 -47 -7 -113
-6 -125 1 -5 3 -10 2 -10 -3z"/>
<path d="M688 928 c-14 -21 -12 -24 31 -53 60 -41 95 -103 96 -172 1 -58 6
-66 56 -91 25 -12 35 -25 37 -46 2 -16 -1 -33 -7 -39 -15 -15 -14 -128 1 -177
15 -47 29 -53 24 -11 -2 18 2 32 10 35 9 3 11 0 7 -12 -6 -15 -5 -15 10 -3 11
8 17 28 17 52 0 34 -3 39 -27 45 -45 10 -50 12 -21 13 42 1 58 -9 58 -39 0
-27 26 -60 48 -60 7 0 12 5 12 11 0 5 4 7 10 4 6 -4 7 1 3 11 -4 11 -2 15 4
11 6 -4 8 3 5 20 -4 19 -2 24 7 18 8 -4 7 4 -3 24 -17 32 -43 44 -32 15 9 -23
-13 -96 -27 -91 -13 5 -14 30 -3 65 7 21 5 23 -11 18 -12 -4 -28 2 -43 16 -23
21 -23 23 -5 27 10 2 24 -4 30 -13 15 -19 31 -21 38 -3 6 16 -29 40 -45 31 -7
-5 -8 -3 -3 6 5 9 2 10 -14 5 -12 -3 -21 -2 -21 3 0 6 5 12 11 14 9 3 9 9 0
25 -6 12 -11 30 -11 41 0 33 -27 48 -63 34 -23 -9 -34 -9 -42 0 -7 8 -5 9 7 5
26 -9 72 35 96 92 16 40 18 52 8 60 -7 6 -17 7 -21 3 -5 -4 -6 -2 -2 3 6 12
-44 64 -88 90 l-30 17 25 -21 c14 -11 28 -21 33 -21 4 0 7 -5 7 -10 0 -6 -11
-3 -24 5 -13 9 -27 12 -30 7 -7 -11 32 -44 44 -37 6 4 10 -4 10 -16 0 -22 0
-22 20 -4 16 15 20 15 15 3 -3 -8 1 -22 9 -31 19 -19 20 -39 4 -55 -7 -7 -8
-12 -3 -12 4 0 -5 -11 -20 -24 -28 -24 -45 -26 -45 -4 0 5 6 8 14 5 8 -3 17 1
20 9 4 12 1 14 -14 9 -18 -6 -20 -3 -14 21 6 21 4 25 -7 19 -11 -7 -11 -5 1
10 14 17 13 18 -4 12 -13 -5 -17 -3 -13 6 3 7 -3 19 -14 25 -11 7 -16 18 -12
28 3 9 0 20 -8 25 -10 6 -10 9 -1 9 16 0 15 12 -3 36 -15 18 -15 16 -13 -23 1
-24 -2 -42 -7 -40 -6 1 -8 21 -7 45 3 27 0 42 -8 42 -6 0 -8 -4 -5 -10 8 -13
-1 -13 -25 0 -14 7 -21 5 -32 -12z"/>
<path d="M180 830 c-13 -24 -12 -24 5 -10 17 14 18 13 12 -3 -4 -11 -3 -16 3
-12 13 8 13 -8 -1 -22 -8 -8 -8 -13 0 -18 19 -11 25 25 9 58 l-15 31 -13 -24z"/>
<path d="M945 781 c-4 -7 -2 -18 4 -24 15 -15 14 -28 -2 -21 -7 2 -20 -8 -29
-24 -16 -27 -16 -29 2 -40 28 -17 30 -15 26 16 -2 15 -1 21 1 14 3 -7 9 -9 15
-5 8 4 9 0 4 -12 -5 -15 -4 -16 8 -6 8 7 12 20 9 29 -10 27 3 10 21 -28 11
-23 12 -29 3 -18 -19 24 -27 12 -15 -23 10 -28 31 -38 43 -20 8 14 -43 123
-55 116 -5 -3 -7 0 -5 7 8 20 -20 55 -30 39z"/>
<path d="M448 753 c-29 -35 5 -73 52 -58 14 4 20 15 20 35 0 41 -44 55 -72 23z"/>
<path d="M620 755 c-15 -18 -10 -45 12 -58 22 -15 68 6 68 31 0 39 -55 58 -80
27z"/>
<path d="M182 749 c5 -16 48 -44 48 -31 0 5 -12 17 -26 27 -17 11 -25 13 -22
4z"/>
<path d="M953 645 c-16 -17 -16 -27 -2 -58 9 -20 66 -65 70 -55 1 2 3 13 4 26
2 20 -1 23 -20 18 -18 -5 -25 0 -35 24 -10 24 -10 33 0 45 16 19 -1 19 -17 0z"/>
<path d="M103 565 c0 -27 2 -38 4 -22 2 15 2 37 0 50 -2 12 -4 0 -4 -28z"/>
<path d="M347 604 c-4 -4 -7 -60 -7 -125 0 -97 3 -118 16 -123 9 -3 105 -6
214 -6 157 0 200 3 209 14 8 9 11 52 9 127 l-3 114 -216 3 c-118 1 -218 -1
-222 -4z m383 -18 c0 -3 -27 -24 -60 -47 -55 -39 -73 -59 -51 -59 4 0 38 23
75 50 37 28 69 50 71 50 3 0 5 -47 5 -105 l0 -105 -205 0 -205 0 0 105 c0 84
3 104 13 98 55 -34 125 -97 121 -108 -3 -8 -1 -22 5 -32 9 -16 10 -16 11 5 0
12 4 22 9 22 5 0 7 8 4 19 -3 12 3 24 18 34 25 18 37 14 49 -17 l9 -21 0 22
c1 13 -8 27 -19 33 -25 13 -60 4 -60 -16 0 -20 -6 -18 -55 19 -23 17 -51 37
-61 44 -15 9 16 12 154 12 94 1 172 -1 172 -3z"/>
<path d="M540 445 c0 -8 5 -15 10 -15 6 0 10 5 10 12 0 6 3 8 6 5 4 -4 1 -13
-6 -22 -7 -9 -10 -18 -6 -22 7 -8 35 27 36 45 0 6 -11 12 -25 12 -16 0 -25 -6
-25 -15z"/>
<path d="M370 405 c0 -24 3 -25 60 -25 57 0 60 1 60 25 0 24 -3 25 -60 25 -57
0 -60 -1 -60 -25z"/>
<path d="M640 405 c0 -24 3 -25 60 -25 57 0 60 1 60 25 0 24 -3 25 -60 25 -57
0 -60 -1 -60 -25z"/>
<path d="M184 589 c-3 -6 -1 -16 5 -22 8 -8 11 -5 11 11 0 24 -5 28 -16 11z"/>
<path d="M1093 545 c0 -22 2 -30 4 -17 2 12 2 30 0 40 -3 9 -5 -1 -4 -23z"/>
<path d="M1037 530 c-3 -13 0 -20 9 -20 8 0 14 9 14 20 0 11 -4 20 -9 20 -5 0
-11 -9 -14 -20z"/>
<path d="M828 515 c2 -14 8 -23 12 -20 10 6 1 45 -10 45 -4 0 -5 -11 -2 -25z"/>
<path d="M220 446 c0 -11 -10 -13 -40 -9 -26 4 -40 2 -40 -6 0 -6 8 -10 18 -9
9 1 28 0 41 0 21 -2 23 -5 17 -37 -7 -35 6 -49 18 -19 10 25 7 94 -4 94 -5 0
-10 -6 -10 -14z"/>
<path d="M817 444 c-7 -8 14 -54 25 -54 4 0 8 6 8 13 -1 17 -26 48 -33 41z"/>
<path d="M77 425 c-8 -8 -18 -11 -22 -7 -5 4 -5 1 -1 -6 5 -7 11 -11 14 -8 3
3 18 -19 33 -49 36 -72 73 -116 139 -165 29 -22 55 -40 56 -40 1 0 4 13 6 29
2 17 1 28 -4 25 -9 -6 -58 24 -78 49 -8 10 -29 36 -47 58 -17 21 -39 59 -49
84 -18 49 -25 53 -47 30z"/>
<path d="M185 390 c-4 -6 -12 -7 -18 -3 -7 4 -4 -5 6 -20 9 -14 17 -36 17 -48
0 -40 11 -12 14 35 2 44 -5 58 -19 36z"/>
<path d="M987 361 c5 -20 -65 -104 -79 -95 -6 4 -8 2 -4 -4 7 -12 -42 -54 -57
-49 -12 4 -20 47 -9 48 27 3 46 9 56 19 8 10 3 11 -21 8 -18 -2 -30 -1 -28 2
2 4 -18 17 -46 30 l-50 24 -64 -67 c-62 -65 -65 -67 -115 -67 -45 0 -55 4 -94
40 l-43 39 -22 -29 c-12 -17 -28 -30 -35 -30 -24 0 -66 -41 -66 -65 0 -18 11
-27 57 -46 51 -21 74 -24 193 -24 125 0 141 2 207 28 40 16 76 33 79 39 4 5
-3 20 -15 31 -16 16 -21 18 -21 7 0 -37 -130 -80 -243 -80 -81 0 -208 29 -232
54 -17 16 10 40 37 32 14 -3 26 1 35 12 12 16 14 16 28 -2 14 -19 15 -18 24 5
5 13 10 19 10 12 1 -6 4 -18 7 -26 3 -10 -1 -17 -13 -19 -19 -4 91 -10 162 -9
82 1 117 8 127 25 7 13 13 14 23 6 8 -6 16 -7 19 -2 3 5 -12 17 -34 27 -22 10
-45 24 -51 32 -15 18 -4 17 26 -3 l25 -16 1 38 c1 22 3 31 6 22 2 -10 13 -18
23 -18 30 0 33 -19 5 -26 -33 -8 -32 -19 6 -34 17 -7 37 -24 46 -36 l15 -24
43 31 c38 27 125 131 125 148 0 3 -11 11 -24 17 -20 9 -23 8 -19 -5z m-247
-140 c0 -14 -7 -19 -25 -17 -14 0 -25 5 -25 9 0 6 28 21 48 26 1 1 2 -8 2 -18z
m-60 -21 c0 -5 -4 -10 -9 -10 -5 0 -18 -3 -28 -7 -16 -6 -16 -5 -4 10 15 19
41 23 41 7z"/>
<path d="M326 318 c-40 -20 -39 -35 2 -43 12 -2 27 -7 32 -10 6 -3 10 -1 10 4
0 6 -7 11 -15 11 -20 0 -19 16 1 24 21 8 27 3 27 -29 0 -33 8 -32 29 4 12 22
13 32 5 39 -24 19 -55 19 -91 0z"/>
<path d="M520 304 c0 -9 40 -23 44 -15 3 5 -5 11 -19 13 -14 3 -25 4 -25 2z"/>
<path d="M248 289 c-15 -4 -29 -5 -32 -3 -3 2 -4 1 -1 -3 6 -7 28 -14 60 -16
11 -1 26 -6 33 -10 20 -13 14 -2 -11 19 -17 15 -30 18 -49 13z"/>
<path d="M316 241 c-13 -5 -16 -10 -8 -15 11 -6 52 9 52 19 0 7 -22 5 -44 -4z"/>
</g>
</svg>
