<svg fill="none" height="112" viewBox="0 0 112 112" width="112" xmlns="http://www.w3.org/2000/svg"><path d="m0 0h112v112h-112z" fill="#fff"/><g fill="#084b6f"><path d="m20.6483 43.2065v5.4698h-5.6076v-5.4698h-3.0407v13.8166h3.0407v-5.5473h5.6076v5.5473h3.0406v-13.8166z"/><path d="m61.2365 43.2065v5.4698h-5.6076v-5.4698h-3.0406v13.8166h3.0406v-5.5473h5.6076v5.5473h3.0407v-13.8166z"/><path d="m32.32 46.7641 1.8347 4.4791h-3.6695zm-1.361-3.6523-5.9263 13.9199h3.101l1.2662-3.101h5.8402l1.2662 3.101h3.1785l-5.9263-13.9199z"/><path d="m39.8829 55.0162 1.8003-2.1534c1.2403 1.025 2.5496 1.6797 4.126 1.6797 1.2404 0 1.9898-.491 1.9898-1.3007v-.0431c0-.7666-.4738-1.1628-2.7823-1.7572-2.7823-.7149-4.5825-1.4816-4.5825-4.2294v-.043c0-2.5066 2.0156-4.1691 4.8409-4.1691 2.0156 0 3.7298.6288 5.1338 1.7572l-1.5849 2.2999c-1.2232-.8528-2.4291-1.361-3.592-1.361-1.1628 0-1.7744.5341-1.7744 1.206v.043c0 .9045.5943 1.206 2.9804 1.8175 2.7995.7322 4.3844 1.74 4.3844 4.1433v.043c0 2.7478-2.0932 4.2811-5.0735 4.2811-2.0932-.0086-4.2122-.7322-5.866-2.2138z"/><path d="m74.8032 43.2065v13.8166h10.5261v-2.7048h-7.5112v-2.9028h6.5206v-2.7047h-6.5206v-2.7995h7.4078v-2.7048z"/><path d="m96.0277 43.2065-3.3594 5.5473-3.2991-5.5473h-3.5489l5.3061 8.3727v5.4439h3.0407v-5.5042l5.3147-8.3124z"/><path d="m69.3593 43.2065-2.1448 2.1449-2.1535 2.1534 2.1535 2.1449 2.1448-2.1449 2.1535-2.1534 2.1448-2.1449z"/></g><path d="m69.3507 52.7684-2.119-2.119-2.119 2.119z" fill="#ed6553"/><path d="m65.1127 52.7681 2.119 2.119 2.119-2.119z" fill="#f8664d"/><path d="m71.4697 54.8871-2.119-2.119-2.119 2.119z" fill="#fd7260"/><path d="m67.2317 54.8872 2.119 2.1276 2.119-2.1276z" fill="#fb927b"/><path d="m69.3507 57.0148h4.2466l-2.1276-2.1276z" fill="#ffbc9e"/><path d="m52.6055 62.8979 3.4627 3.437-3.4627 3.4885z" fill="#084b6f"/><path d="m66.5426 70.323v-1.7141l1.6969 1.7141z" fill="#ed6553"/><path d="m68.1965 66.9207-1.6539-1.671v-.0173h1.6711.0258v1.6883z" fill="#fc7f62"/><path d="m66.5426 66.9204h1.6539.043v1.6883z" fill="#fd7260"/><path d="m66.5426 65.2495 1.6969 1.6711h-1.6969z" fill="#fc9d8b"/><path d="m66.5426 65.2324v-1.7055l1.6969 1.7055z" fill="#fba28d"/><path d="m66.5426 63.5269h1.6969v1.7141z" fill="#ffbc9e"/><path d="m68.2395 62.6138h-1.6969v.913h1.6969z" fill="#f8664d"/><path d="m68.1965 68.6349-.0087-.0172h.0517v1.7141l-1.6969-1.7141z" fill="#f8664d"/><path d="m68.1965 68.6349-1.6539-.0172h1.6452z" fill="#f8664d"/><path d="m66.5426 68.6087v-1.6883l1.6969 1.6883z" fill="#fb927b"/><path d="m64.7681 66.0418c-.0258-.422-.1206-.8183-.2842-1.1887-.0775-.1722-.1637-.3359-.2584-.4996-.1551-.2584-.3532-.4909-.5685-.6977-.3532-.3359-.7839-.6029-1.2749-.7924s-1.0336-.2843-1.628-.2843h-2.9545v1.5074h1.6624 1.2921c.3359 0 .646.0603.9303.1637.0775.0344.155.0689.2326.112.1809.0947.3445.2153.491.3617.1981.1982.3531.448.4651.7236.0775.1895.1206.3876.1464.603.0086.1033.0173.2067.0173.3187v.0258c0 .336-.0517.6461-.1637.9217-.0603.155-.1464.3015-.2326.4307-.0689.1033-.1464.1981-.2325.2842-.1982.1982-.4394.3532-.7236.4652-.2843.112-.5944.1636-.9303.1636h-1.2921v-.9302-1.6884-1.1284h-1.671v1.1284 1.6884 1.7055.7063h2.9545c.5943 0 1.137-.0947 1.628-.2929.2929-.1119.5513-.2498.7925-.4134.1722-.112.3359-.2412.4823-.3876.3532-.336.6375-.7408.827-1.206.0172-.043.0344-.0775.0516-.1206.1637-.4307.2412-.8872.2412-1.3696v-.0258c.0086-.0947 0-.1895 0-.2843z" fill="#f8664d"/><path d="m77.3443 66.1283c-.0258-.4221-.1206-.8183-.2843-1.1887-.0775-.1723-.1636-.336-.2584-.4996-.155-.2584-.3531-.491-.5685-.6977-.3531-.336-.7838-.603-1.2748-.7925s-1.0337-.2843-1.628-.2843h-2.9546v1.5074h1.6625.0345 1.2576c.3359 0 .646.0603.9303.1637.0775.0345.155.0689.2325.112.1809.0947.3446.2153.491.3618.1981.1981.3532.4479.4652.7235.0775.1895.1206.3876.1464.603.0086.1034.0172.2067.0172.3187v.0258c0 .336-.0517.6461-.1636.9217-.0603.1551-.1465.3015-.2326.4307-.0689.1034-.1464.1981-.2326.2843-.1981.1981-.4393.3531-.7235.4651-.2843.112-.5944.1637-.9303.1637h-1.2921v-.9303-1.6883-1.1284h-1.6711v1.1284 1.6883 1.7055.7063h2.9632c.5943 0 1.137-.0947 1.628-.2928.2929-.112.5513-.2498.7925-.4135.1722-.112.3359-.2412.4823-.3876.3532-.3359.6374-.7408.8269-1.2059.0173-.0431.0345-.0776.0517-.1206.1637-.4307.2412-.8873.2412-1.3696v-.0259c.0086-.0947 0-.1895-.0086-.2842z" fill="#f8664d"/></svg>