<svg xmlns="http://www.w3.org/2000/svg" viewBox="0 0 512 640" width="512" height="640">
<rect width="100%" height="100%" fill="none"/>
<polygon points="402.32,340.48 256.00,424.96 109.68,340.48 109.68,171.52 256.00,87.04 402.32,171.52" fill="none" stroke="#0B1F3B" stroke-width="17.92" stroke-linejoin="round"/>
<circle cx="256.0" cy="256.0" r="35.84" fill="none" stroke="#0B1F3B" stroke-width="11.648000000000001"/>
<line x1="256.0" y1="256.0" x2="378.88" y2="256.0" stroke="#0B1F3B" stroke-width="10.752" stroke-linecap="round"/>
<circle cx="378.88" cy="256.0" r="17.92" fill="none" stroke="#0B1F3B" stroke-width="10.752"/>
<line x1="256.0" y1="256.0" x2="317.44" y2="362.4172016170318" stroke="#0B1F3B" stroke-width="10.752" stroke-linecap="round"/>
<circle cx="317.44" cy="362.4172016170318" r="17.92" fill="none" stroke="#0B1F3B" stroke-width="10.752"/>
<line x1="256.0" y1="256.0" x2="194.56000000000003" y2="362.4172016170318" stroke="#0B1F3B" stroke-width="10.752" stroke-linecap="round"/>
<circle cx="194.56000000000003" cy="362.4172016170318" r="17.92" fill="none" stroke="#0B1F3B" stroke-width="10.752"/>
<line x1="256.0" y1="256.0" x2="133.12" y2="256.0" stroke="#0B1F3B" stroke-width="10.752" stroke-linecap="round"/>
<circle cx="133.12" cy="256.0" r="17.92" fill="none" stroke="#0B1F3B" stroke-width="10.752"/>
<line x1="256.0" y1="256.0" x2="194.55999999999995" y2="149.58279838296824" stroke="#0B1F3B" stroke-width="10.752" stroke-linecap="round"/>
<circle cx="194.55999999999995" cy="149.58279838296824" r="17.92" fill="none" stroke="#0B1F3B" stroke-width="10.752"/>
<line x1="256.0" y1="256.0" x2="317.44" y2="149.58279838296818" stroke="#0B1F3B" stroke-width="10.752" stroke-linecap="round"/>
<circle cx="317.44" cy="149.58279838296818" r="17.92" fill="none" stroke="#0B1F3B" stroke-width="10.752"/>
<text x="256.0" y="451.84000000000003" text-anchor="middle" font-family="Inter, ui-sans-serif, system-ui, -apple-system, Segoe UI, Roboto, Helvetica, Arial, sans-serif" font-weight="800" font-size="61.44" fill="#0B1F3B" dominant-baseline="hanging" letter-spacing="1.5">IC NODE</text>
<text x="256.0" y="523.52" text-anchor="middle" font-family="Inter, ui-sans-serif, system-ui, -apple-system, Segoe UI, Roboto, Helvetica, Arial, sans-serif" font-weight="800" font-size="61.44" fill="#0B1F3B" dominant-baseline="hanging" letter-spacing="1.5">MONITOR</text>
</svg>