<?xml version="1.0" encoding="UTF-8" standalone="no"?>
<!-- Created with Inkscape (http://www.inkscape.org/) -->

<svg
   version="1.1"
   id="svg48"
   width="225"
   height="225"
   viewBox="0 0 225 225"
   sodipodi:docname="wasmforge.svg"
   inkscape:version="1.2.2 (b0a8486541, 2022-12-01)"
   xmlns:inkscape="http://www.inkscape.org/namespaces/inkscape"
   xmlns:sodipodi="http://sodipodi.sourceforge.net/DTD/sodipodi-0.dtd"
   xmlns="http://www.w3.org/2000/svg"
   xmlns:svg="http://www.w3.org/2000/svg">
  <defs
     id="defs52" />
  <sodipodi:namedview
     id="namedview50"
     pagecolor="#ffffff"
     bordercolor="#cccccc"
     borderopacity="1"
     inkscape:showpageshadow="0"
     inkscape:pageopacity="1"
     inkscape:pagecheckerboard="0"
     inkscape:deskcolor="#d1d1d1"
     showgrid="false"
     inkscape:zoom="2.2822222"
     inkscape:cx="95.959104"
     inkscape:cy="146.34859"
     inkscape:window-width="2560"
     inkscape:window-height="1408"
     inkscape:window-x="2560"
     inkscape:window-y="0"
     inkscape:window-maximized="1"
     inkscape:current-layer="g54" />
  <g
     inkscape:groupmode="layer"
     inkscape:label="Image"
     id="g54">
    <path
       style="fill:#afafc8;fill-opacity:1;stroke:#000000"
       d="m 66.062857,126.81896 c -5.21473,-1.22902 -12.99066,-5.31231 -17.26769,-9.06757 -18.24636,-16.02052 -17.83292,-45.950263 0.84617,-61.256376 16.8585,-13.81427 40.11106,-12.298624 55.278813,3.603177 6.40614,6.716174 6.3333,7.164224 -1.82575,11.230051 l -5.058123,2.520569 -5.27085,-4.817258 c -6.25251,-5.714438 -11.96377,-7.663168 -20.02159,-6.831528 -13.46041,1.389236 -22.73589,12.152872 -22.56824,26.189057 0.20245,16.948898 17.68545,28.821528 33.9769,23.073578 2.24785,-0.79309 10.74589,-6.13051 18.884523,-11.860934 22.83495,-16.07811 28.41752,-18.438245 45.77992,-19.354321 10.28372,-0.54259 11.17907,-0.437687 13.75,1.611005 3.11825,2.484832 3.72622,7.328387 1.33117,10.605096 -1.21611,1.663778 -3.1093,2.027269 -13.25,2.544 -15.13185,0.77106 -17.5719,1.823071 -39.5613,17.056554 -12.732943,8.82093 -18.792423,12.38491 -23.560983,13.85777 -6.68248,2.06401 -15.03122,2.41298 -21.46297,0.89713 z m 80.090453,-0.77462 c -3.11499,-1.0284 -7.25081,-2.85076 -9.1907,-4.04968 -4.58672,-2.83474 -13.99587,-13.13982 -12.95124,-14.18445 0.44466,-0.44466 3.25617,-2.147 6.24781,-3.78299 l 5.43934,-2.97452 5.36367,4.90209 c 6.15543,5.62571 11.093,7.35496 19.24376,6.73957 13.75159,-1.03825 23.50992,-11.59642 23.37389,-25.289724 -0.0697,-7.014955 -1.8442,-11.700706 -6.39312,-16.881642 -5.22615,-5.952253 -10.20434,-8.071441 -18.96978,-8.075329 -9.01775,-0.004 -9.41988,0.189936 -28.99213,13.982288 -21.99055,15.496492 -26.60941,17.39527 -44.295653,18.209591 -11.31553,0.520998 -11.88642,0.450072 -14.25,-1.770398 -3.21725,-3.022451 -3.22037,-7.297267 -0.008,-10.509965 2.24001,-2.239988 3.23604,-2.454545 11.39469,-2.454545 14.06143,0 19.046083,-2.013675 38.685243,-15.627853 9.21637,-6.388932 19.09261,-12.685501 21.94719,-13.992374 18.87065,-8.639266 43.10628,0.89398 52.42121,20.620227 2.3064,4.88428 3.16502,6.594662 3.16502,16.381896 0,10.425373 -0.74448,11.518904 -3.83557,17.797818 -4.20109,8.53362 -12.88827,16.77595 -20.94772,19.87505 -8.0512,3.09593 -19.93432,3.56563 -27.44821,1.08494 z"
       id="path561"
       sodipodi:nodetypes="scssscsscssssssssscssscsssssssscssssssscc" />
    <text
       xml:space="preserve"
       style="font-size:32.3812px;font-family:Monospace;-inkscape-font-specification:'Monospace, Normal';fill:#000000;stroke:#ffffff;stroke-width:0.0544556"
       x="18.614531"
       y="170.10707"
       id="text393"><tspan
         sodipodi:role="line"
         id="tspan391"
         x="18.614531"
         y="170.10707"
         style="fill:#000000;stroke-width:0.0544556">Wasm Forge</tspan></text>
  </g>
</svg>
