<?xml version="1.0" encoding="UTF-8"?>
<svg version="1.1" xmlns="http://www.w3.org/2000/svg" width="112" height="112">
<path d="M0 0 C36.96 0 73.92 0 112 0 C112 36.96 112 73.92 112 112 C75.04 112 38.08 112 0 112 C0 75.04 0 38.08 0 0 Z " fill="#171717" transform="translate(0,0)"/>
<path d="M0 0 C14.95973945 0.03674434 14.95973945 0.03674434 21.28613281 4.38061523 C27.17913176 10.42471672 27.63101942 16.74626308 27.67333984 24.75244141 C27.55212736 31.16785038 26.35763013 36.24883215 22.28613281 41.38061523 C18.2814378 45.1049816 14.05516316 46.50595926 8.65332031 46.51342773 C7.32107422 46.51536133 7.32107422 46.51536133 5.96191406 46.51733398 C5.03765625 46.5134668 4.11339844 46.50959961 3.16113281 46.50561523 C2.22914062 46.50948242 1.29714844 46.51334961 0.33691406 46.51733398 C-0.54867187 46.51604492 -1.43425781 46.51475586 -2.34667969 46.51342773 C-3.16023926 46.5122998 -3.97379883 46.51117188 -4.81201172 46.51000977 C-6.71386719 46.38061523 -6.71386719 46.38061523 -7.71386719 45.38061523 C-7.81688133 44.04067907 -7.85235172 42.69543559 -7.85913086 41.3515625 C-7.86551071 40.49720108 -7.87189056 39.64283966 -7.87846375 38.7625885 C-7.87957657 37.83345139 -7.88068939 36.90431427 -7.88183594 35.94702148 C-7.88516434 34.99874985 -7.88849274 34.05047821 -7.891922 33.07347107 C-7.89699538 31.06347134 -7.8993302 29.05346316 -7.89916992 27.04345703 C-7.90135541 23.95973904 -7.91950402 20.87637917 -7.93847656 17.79272461 C-7.94141053 15.84415813 -7.9433953 13.89558994 -7.94433594 11.94702148 C-7.95152145 11.0199086 -7.95870697 10.09279572 -7.96611023 9.1375885 C-7.9630336 8.28007492 -7.95995697 7.42256134 -7.95678711 6.5390625 C-7.95821213 5.78262955 -7.95963715 5.02619659 -7.96110535 4.24684143 C-7.35082995 -0.3596964 -3.85304876 0.08001679 0 0 Z " fill="#88C03E" transform="translate(78.7138671875,32.619384765625)"/>
<path d="M0 0 C1.12148438 -0.02578125 2.24296875 -0.0515625 3.3984375 -0.078125 C6.91606057 0.27959938 8.77265975 1.22024477 11.625 3.25 C10.88031915 10.99468085 10.88031915 10.99468085 7.625 14.25 C5.25 14.53515625 5.25 14.53515625 2.625 14.3125 C-0.98295472 13.96253026 -0.98295472 13.96253026 -4.16796875 15.40625 C-5.81586604 17.92342644 -5.74022514 19.69839012 -5.6875 22.6875 C-5.68363281 23.63496094 -5.67976563 24.58242188 -5.67578125 25.55859375 C-5.36930336 28.30097383 -4.91665323 29.97148878 -3.375 32.25 C0.87486926 33.50564319 4.33182182 33.16996675 8.625 32.25 C11.45061627 36.04692186 13.19138908 38.43569279 12.625 43.25 C6.71769536 47.45074997 1.81346806 48.26362571 -5.375 47.25 C-11.31943982 45.45962726 -14.88192171 42.28414224 -18.375 37.25 C-21.87504957 30.24990086 -21.65366668 20.59636916 -19.46484375 13.15625 C-17.01832405 7.93281244 -14.14655662 4.46561424 -9.375 1.25 C-6.07164934 0.14888311 -3.47667863 0.04773472 0 0 Z " fill="#F6F6F6" transform="translate(54.375,32.75)"/>
<path d="M0 0 C7.92 0 15.84 0 24 0 C24 3.63 24 7.26 24 11 C22.35 11.33 20.7 11.66 19 12 C19 19.26 19 26.52 19 34 C20.65 34.33 22.3 34.66 24 35 C25.89885096 36.89885096 25.12367506 39.57247903 25.1328125 42.08984375 C25 44 25 44 24 46 C20.02084841 46.02886984 16.04172347 46.04675406 12.0625 46.0625 C10.35803711 46.07506836 10.35803711 46.07506836 8.61914062 46.08789062 C7.53955078 46.09111328 6.45996094 46.09433594 5.34765625 46.09765625 C3.84730835 46.10551147 3.84730835 46.10551147 2.31665039 46.11352539 C0 46 0 46 -1 45 C-1.16796875 43.00390625 -1.16796875 43.00390625 -1.1875 40.5625 C-1.20167969 39.75941406 -1.21585937 38.95632812 -1.23046875 38.12890625 C-1 36 -1 36 1 34 C2.32 34 3.64 34 5 34 C5 26.74 5 19.48 5 12 C3.35 12 1.7 12 0 12 C-1.12256131 9.75487738 -1.13413762 8.48543351 -1.125 6 C-1.12886719 4.948125 -1.12886719 4.948125 -1.1328125 3.875 C-1 2 -1 2 0 0 Z " fill="#F3F3F3" transform="translate(6,33)"/>
<path d="M0 0 C5 0 5 0 6.78515625 1.06640625 C8.62661544 3.99734612 8.43390405 6.51055691 8.4375 9.9375 C8.45683594 11.16339844 8.47617188 12.38929687 8.49609375 13.65234375 C8 17 8 17 6.22265625 19.44140625 C4 21 4 21 0 21 C0 14.07 0 7.14 0 0 Z " fill="#191A17" transform="translate(84,46)"/>
</svg>
