<svg width="185" height="179" viewBox="0 0 185 179" fill="none" xmlns="http://www.w3.org/2000/svg">
<path d="M24.3247 175.472V131.147H89.2401L34.0698 177.291C31.0553 179.812 24.3247 178.556 24.3247 175.472Z" fill="#00CC70"/>
<path d="M94.8012 95.7881C100.518 95.7881 105.153 91.1536 105.153 85.4367C105.153 79.7197 100.518 75.0852 94.8012 75.0852C89.0842 75.0852 84.4497 79.7197 84.4497 85.4367C84.4497 91.1536 89.0842 95.7881 94.8012 95.7881Z" fill="#00CC70"/>
<path d="M128.903 95.7881C134.62 95.7881 139.254 91.1536 139.254 85.4367C139.254 79.7197 134.62 75.0852 128.903 75.0852C123.186 75.0852 118.552 79.7197 118.552 85.4367C118.552 91.1536 123.186 95.7881 128.903 95.7881Z" fill="#00CC70"/>
<path d="M163 95.7881C168.717 95.7881 173.351 91.1536 173.351 85.4367C173.351 79.7197 168.717 75.0852 163 75.0852C157.283 75.0852 152.648 79.7197 152.648 85.4367C152.648 91.1536 157.283 95.7881 163 95.7881Z" fill="#00CC70"/>
<path d="M174.346 123.836V123.854C174.346 123.854 174.32 123.845 174.294 123.836C174.043 123.836 173.792 123.854 173.532 123.854C166.992 123.854 160.833 122.234 155.411 119.393V119.41C153.384 118.44 151.296 117.712 149.174 117.201C143.353 116.196 137.003 115.486 130.636 115.486C123.143 115.486 115.651 116.456 109.007 117.729C108.929 117.747 108.851 117.764 108.773 117.773C106.668 118.275 104.641 118.986 102.718 119.895C97.7888 122.295 92.2883 123.706 86.4672 123.836C86.4325 123.854 86.4066 123.862 86.4066 123.862V123.845C86.138 123.845 85.8695 123.862 85.601 123.862C63.9798 123.862 46.456 106.339 46.456 84.7174C46.456 63.0963 63.9798 45.5724 85.601 45.5724C85.8695 45.5724 86.138 45.5897 86.4066 45.5897V45.5724C86.4066 45.5724 86.4325 45.5811 86.4672 45.5984C92.2883 45.7283 97.7802 47.1316 102.709 49.5311H102.718C104.701 50.484 106.763 51.2116 108.859 51.7313C115.382 52.9874 122.736 53.9489 130.117 53.9489C136.665 53.9489 143.205 53.2039 149.182 52.1731C151.305 51.688 153.384 50.9777 155.393 50.0422C160.816 47.2009 166.975 45.5897 173.523 45.5897C173.775 45.5897 174.026 45.6071 174.286 45.6071L174.338 45.5897V45.6071C177.829 45.6764 181.207 46.2134 184.421 47.1403C175.62 19.7934 149.979 0 119.704 0H67.9818C30.4394 0 0 30.4394 0 67.9818V101.479C0 139.021 30.4394 169.461 67.9818 169.461H119.704C149.979 169.461 175.611 149.667 184.412 122.32C181.198 123.247 177.82 123.784 174.329 123.854L174.346 123.836Z" fill="#00CC70"/>
</svg>
