<?xml version="1.0" standalone="no"?>
<!DOCTYPE svg PUBLIC "-//W3C//DTD SVG 20010904//EN"
 "http://www.w3.org/TR/2001/REC-SVG-20010904/DTD/svg10.dtd">
<svg version="1.0" xmlns="http://www.w3.org/2000/svg"
 width="112.000000pt" height="112.000000pt" viewBox="0 0 112.000000 112.000000"
 preserveAspectRatio="xMidYMid meet">

<g transform="translate(0.000000,112.000000) scale(0.100000,-0.100000)"
fill="#000000" stroke="none">
<path d="M0 560 l0 -560 560 0 560 0 0 560 0 560 -560 0 -560 0 0 -560z m820
236 c0 -2 -9 -6 -20 -9 -11 -3 -18 -1 -14 4 5 9 34 13 34 5z m17 -41 c-4 -8
-12 -15 -19 -14 -10 0 -10 2 0 6 6 2 12 12 12 21 0 8 3 13 6 9 4 -3 4 -13 1
-22z m-46 -2 c13 -16 12 -17 -3 -4 -10 7 -18 15 -18 17 0 8 8 3 21 -13z m-226
-79 c11 -63 -21 -131 -75 -159 -56 -29 -144 -14 -181 31 -9 11 -2 9 18 -6 18
-13 35 -21 39 -18 11 11 -16 47 -38 51 -21 5 -21 5 2 5 77 -1 80 1 80 31 0 23
-5 31 -22 34 -21 4 -21 4 2 4 93 2 90 1 91 36 l1 32 7 -30 c6 -30 28 -42 56
-31 10 3 11 13 6 33 -6 22 -13 28 -32 26 -14 -1 -17 0 -6 3 18 6 21 14 10 30
-5 5 2 -2 14 -15 12 -13 24 -39 28 -57z m155 32 c0 -2 -8 -10 -17 -17 -16 -13
-17 -12 -4 4 13 16 21 21 21 13z m150 -21 c-7 -8 -24 -14 -39 -14 l-26 2 25 4
c14 3 29 9 35 14 15 15 19 10 5 -6z m44 -22 c-6 -9 -17 -19 -25 -21 -8 -2 -5
2 5 10 13 10 17 21 12 34 -6 15 -5 17 6 6 9 -9 10 -17 2 -29z m-140 -26 c8
-12 7 -20 -2 -29 -11 -11 -12 -9 -6 6 5 13 1 24 -12 34 -10 8 -13 12 -5 10 8
-2 19 -12 25 -21z m-47 -1 c-3 -7 0 -20 6 -27 10 -11 9 -11 -3 -2 -9 7 -47 14
-85 16 l-70 3 73 2 c40 1 72 6 72 12 0 6 3 10 6 10 3 0 4 -6 1 -14z m-1 -78
c19 -23 19 -23 -1 -6 -13 11 -43 18 -85 21 l-65 3 66 2 c57 2 68 -1 85 -20z
m124 -3 c10 -12 10 -18 0 -30 -7 -8 -18 -15 -25 -15 -7 0 -18 7 -25 15 -10 12
-10 18 0 30 7 8 18 15 25 15 7 0 18 -7 25 -15z m-633 -152 c-3 -10 -5 -4 -5
12 0 17 2 24 5 18 2 -7 2 -21 0 -30z m41 30 c-10 -2 -18 -13 -18 -23 0 -10 8
-21 18 -23 16 -4 16 -5 -1 -6 -10 0 -20 6 -23 14 -9 23 3 45 23 44 17 -1 17
-2 1 -6z m67 -3 c3 -6 -2 -13 -12 -17 -10 -4 -21 -11 -25 -17 -5 -7 -8 -6 -8
2 0 8 10 17 23 20 22 6 22 6 -3 13 -23 6 -23 7 -3 8 12 1 25 -4 28 -9z m73 3
c-10 -2 -18 -11 -18 -18 0 -8 8 -19 18 -25 15 -10 15 -10 -3 -8 -13 2 -21 12
-23 31 -3 23 0 27 20 26 17 -1 18 -3 6 -6z m47 -13 c7 0 16 6 18 13 3 6 6 -3
6 -22 1 -32 0 -33 -13 -16 -13 18 -13 18 -24 -1 -10 -16 -11 -14 -11 16 0 19
3 29 6 23 2 -7 11 -13 18 -13z m85 -29 c-1 -11 -5 -8 -14 8 l-13 23 -7 -23
c-4 -13 -10 -19 -12 -12 -3 7 0 22 7 34 11 22 12 22 25 4 8 -10 14 -26 14 -34z
m17 12 c-3 -10 -5 -4 -5 12 0 17 2 24 5 18 2 -7 2 -21 0 -30z m27 10 c-10 -40
-14 -41 -14 -5 0 18 5 32 10 32 6 0 8 -11 4 -27z m36 -4 c0 -27 -2 -30 -15
-19 -17 14 -21 35 -5 25 6 -3 10 1 10 9 0 9 2 16 5 16 3 0 5 -14 5 -31z m74 1
c3 0 6 7 6 15 0 8 4 15 10 15 6 0 6 -9 1 -22 -11 -30 -32 -29 -42 2 -8 22 -8
23 5 8 7 -10 16 -18 20 -18z m86 -19 c-1 -11 -5 -8 -14 8 l-13 23 -7 -23 c-4
-13 -10 -19 -12 -12 -3 7 0 22 7 34 11 22 12 22 25 4 8 -10 14 -26 14 -34z
m37 2 c6 -2 13 6 16 19 4 21 4 21 3 -2 -1 -18 -7 -25 -21 -25 -15 0 -20 7 -22
30 -2 27 -1 28 5 6 4 -14 13 -26 19 -28z m61 -1 c16 -13 15 -13 -3 -10 -14 2
-21 12 -22 33 -1 18 1 22 4 10 2 -11 12 -26 21 -33z m65 41 c-7 -2 -14 -17
-14 -31 l-2 -27 -4 25 c-3 14 -10 28 -17 32 -6 4 3 7 19 7 17 0 24 -3 18 -6z"/>
<path d="M420 610 c0 -27 3 -30 30 -30 27 0 30 3 30 30 0 27 -3 30 -30 30 -27
0 -30 -3 -30 -30z"/>
<path d="M490 610 c0 -25 4 -30 25 -30 18 0 28 7 35 26 14 35 14 34 -25 34
-32 0 -35 -2 -35 -30z"/>
<path d="M369 552 c5 -10 17 -24 25 -32 14 -11 16 -8 16 19 0 27 -4 31 -25 31
-22 0 -24 -3 -16 -18z"/>
<path d="M420 540 c0 -36 13 -38 34 -8 22 31 20 38 -9 38 -21 0 -25 -5 -25
-30z"/>
<path d="M472 545 c-15 -32 -1 -32 35 0 l28 24 -26 1 c-18 0 -29 -8 -37 -25z"/>
<path d="M805 550 c-4 -7 -3 -16 3 -22 14 -14 45 -2 40 15 -6 16 -34 21 -43 7z"/>
</g>
</svg>
