<svg xmlns="http://www.w3.org/2000/svg" fill="none" version="1.1" viewBox="0 0 800 800"><defs><clipPath id="a"><rect width="800" height="800" x="0" y="0" rx="400"/></clipPath></defs><g fill-opacity="1" clip-path="url(#a)"><rect fill="#FFF" width="800" height="800" x="0" y="0" rx="400"/><path d="M313 362c-54-38-167 41-115 117 12 19 44 31 58 24 19-10 9-31 27-44 20-14 40-22 47-41 7-20 6-38-17-56Zm173 0c54-38 167 41 116 117-13 19-44 31-58 24-19-10-9-31-27-44-20-14-41-22-48-41-7-20-5-38 17-56Z" fill="#000"/><path d="M295 396c-12-8-38 10-26 27 11 17 42-15 26-27Zm209 0c13-8 38 10 27 27-12 17-42-15-27-27Z" fill="#FFF"/><path d="M353 500c-5-9-1-21 9-25l6-2c21-8 43-8 63 0l6 2c10 4 14 16 9 25-5 10-13 19-22 25l-4 2c-12 8-28 8-40 0l-4-2c-10-6-17-15-23-25Z" fill="#000"/><path d="M400 188h4l1-1h2v-1h1l1-1h1v-1h1v-1h1v-1h1v-1l1-1v-1l1-1v-1l1-1v-8l-1-1v-1l-1-1v-1l-1-1v-1h-1v-1h-1v-1h-1v-1h-1l-1-1h-1v-1h-2l-1-1h-4q-47 0-92 13-41 13-79 37-35 22-66 54-28 30-51 66-21 35-36 73-14 37-19 75-5 37-1 71 4 36 18 65 37 75 120 114 81 38 205 42h2v-1h4l1-1h1l1-1h1l1-1 1-1 1-1 1-1v-1h1v-2h1v-2l1-1v-8h-1v-2h-1v-2l-1-1-1-1-1-1v-1h-1v-1h-2v-1h-2l-1-1h-2l-1-1h-2q-117-3-192-38-73-34-105-100-12-23-15-53-4-30 1-64t18-68q13-35 33-67 20-33 47-61t59-49q34-22 72-33 39-12 82-12Z" fill="#000" fill-rule="evenodd"/><path d="M400 188h-4l-1-1h-2l-1-1-1-1h-1v-1h-1l-1-1-1-1-1-1v-1l-1-1v-2h-1v-10h1v-2l1-1v-1l1-1 1-1 1-1h1v-1h1l1-1 1-1h2l1-1h4q47 0 91 13 42 13 80 37 35 22 65 54 29 30 52 66 21 35 35 73 14 37 20 75 5 37 1 71-4 36-18 65-37 75-120 114-81 38-205 42h-2l-1-1h-4v-1h-2v-1h-1l-1-1-1-1h-1v-1h-1v-1l-1-1v-1l-1-1v-1l-1-1v-9l1-1v-1l1-1v-2h1v-1h1v-1l1-1h1v-1h2v-1h2v-1h3v-1h3q117-3 192-38 73-34 105-100 12-23 15-53 4-30-1-64t-18-68q-13-35-33-67-20-33-47-61t-60-49q-34-22-71-33-40-12-82-12Zm-128 31-61 32-59 54-24 51-3-2-3-2-3-2-3-2-3-2-3-2-3-2-3-3-2-2-3-3-2-2-3-3-2-3-2-3-2-3-2-3-2-3-2-3-2-4-1-3-1-3-2-4-1-3-1-4-1-3-1-4v-3l-1-4v-3l-1-4v-13l1-5v-5l1-5 1-5 2-5 1-5 2-5 2-5 2-4 3-5 3-4 3-4 3-4 3-4 4-4 4-4 4-3 4-3 4-3 4-3 5-3 4-2 5-2 5-2 5-1 5-2 5-1 5-1h5l5-1h13l4 1h4l4 1h3l4 1 4 1 3 2 4 1 3 1 4 2 3 1 4 2 3 2 3 2 3 2 4 3 3 2 2 2 3 3 3 3 3 2 2 3 3 3 2 3 2 3 2 4 2 3 2 3 2 4 1 3Z" fill="#000" fill-rule="evenodd"/><path d="m527 219 62 32 59 54 23 51 4-2 3-2 3-2 3-2 3-2 3-2 3-2 2-3 3-2 2-3 3-2 2-3 3-3 2-3 2-3 2-3 2-3 1-3 2-4 2-3 1-3 1-4 1-3 1-4 1-3 1-4 1-3v-4l1-3v-22l-1-5-1-5-1-5-1-5-2-5-2-5-2-5-2-4-3-5-2-4-3-4-3-4-4-4-3-4-4-4-4-3-4-3-4-3-5-3-4-3-5-2-5-2-5-2-4-1-5-2-6-1-5-1h-5l-5-1h-13l-4 1h-3l-4 1h-4l-4 1-3 1-4 2-3 1-4 1-4 2-3 1-3 2-4 2-3 2-3 2-3 3-3 2-3 2-3 3-3 3-2 2-3 3-2 3-2 3-3 3-2 4-2 3-1 3-2 4-2 3ZM390 524v29l1 1v2h1v1h1v1h1v1h1l1 1h4v1-1h4l1-1h1v-1h1v-1h1v-1h1v-2l1-1v-32l-1-1v-2h-1v-1h-1v-1h-1v-1h-1l-1-1h-8l-1 1h-1v1h-1v1h-1v1h-1v2l-1 1v3Z" fill="#000" fill-rule="evenodd"/><g fill="#11C291"><path d="m544 572 47 46 3-23 181-181 19-5-41-41-4 19-182 182-23 3ZM316 799l47 47 3-23 197-197 19-5-41-41-5 19-197 197-23 3Z"/><path d="M682 499q-68-69-121-75 20 44 121 75Z"/><path d="M672 500q0-69-24-99-11 32 24 99Z"/></g><path d="M500 589c-88-65-168 94-74 179s266 6 332-132q-100 68-258-47Z" fill="#000"/><path d="M300 589c88-65 168 94 74 179s-266 6-332-132q100 68 258-47Z" fill="#000"/></g></svg>