<?xml version="1.0" encoding="utf-8"?>
<!-- Generator: Adobe Illustrator 27.3.1, SVG Export Plug-In . SVG Version: 6.00 Build 0)  -->
<svg version="1.1" id="Layer_1" xmlns="http://www.w3.org/2000/svg" xmlns:xlink="http://www.w3.org/1999/xlink" x="0px" y="0px"
	 viewBox="0 0 266 254" style="enable-background:new 0 0 266 254;" xml:space="preserve">
<style type="text/css">
	.st0{fill:none;}
	.st1{fill:url(#SVGID_1_);}
	.st2{fill:url(#SVGID_00000170968607829927760510000008869872535908973967_);}
	.st3{fill:#191F25;}
	.st4{fill:url(#SVGID_00000137109635187156612080000008025197227475108537_);}
	.st5{fill:url(#SVGID_00000014606802917064644810000014273805290529408917_);}
	.st6{fill:url(#SVGID_00000067226197987775514320000010189959268056118158_);}
	.st7{fill:url(#SVGID_00000077289235867196411410000012081883385037420965_);}
	.st8{fill:url(#SVGID_00000141438968280909660140000013661775040901946543_);}
	.st9{fill:url(#SVGID_00000115497124702720479640000006807377563483152824_);}
	.st10{fill:url(#SVGID_00000056385958916246454710000015427690073270470797_);}
	.st11{fill:url(#SVGID_00000114063841201854612220000014598941090948156821_);}
	.st12{fill:url(#SVGID_00000165237061004379074790000003065833333018668194_);}
</style>
<rect class="st0" width="266" height="254"/>
<g>
	<g>
		<linearGradient id="SVGID_1_" gradientUnits="userSpaceOnUse" x1="123.1863" y1="185.9309" x2="207.3772" y2="57.3059">
			<stop  offset="1.049361e-03" style="stop-color:#F25A24"/>
			<stop  offset="1" style="stop-color:#FBB03A"/>
		</linearGradient>
		<path class="st1" d="M179.13,80.58l-0.83,0.77l-1,0.7c-3.41,2.39-10.63,9.72-20.01,21.27c-1.96,2.42-4.02,5.01-6.15,7.79
			l-0.12,0.15c-2.52,3.13-24.69,30.51-35.3,38.43c-1.97,1.69-4.1,3.13-6.29,4.37L155.88,171l44.92-50.75L179.13,80.58z"/>
		
			<linearGradient id="SVGID_00000113319227650724324420000002026745985487387069_" gradientUnits="userSpaceOnUse" x1="63.819" y1="136.8137" x2="146.9445" y2="9.8164">
			<stop  offset="1.049361e-03" style="stop-color:#F25A24"/>
			<stop  offset="1" style="stop-color:#FBB03A"/>
		</linearGradient>
		<path style="fill:url(#SVGID_00000113319227650724324420000002026745985487387069_);" d="M122.18,88.65l3.1-3.68
			c1.28-1.63,2.65-3.33,4.07-5.08c7.18-8.82,15.89-18.69,23.5-24.97l-46.93-18.66L61,87l19.41,38.09
			c4.43-0.27,10.13-1.74,11.56-3.06l0.89-0.83l1-0.7c4.3-3.01,14.91-14.15,28.03-31.51L122.18,88.65z"/>
	</g>
	<g>
		<path class="st3" d="M57.32,177.58h6.08v32.71h-6.08V177.58z"/>
		<path class="st3" d="M67.55,193.94c0-9.77,7.48-16.83,17.53-16.83c5.33,0,9.91,1.92,12.95,5.47l-3.93,3.69
			c-2.38-2.57-5.33-3.83-8.74-3.83c-6.78,0-11.68,4.77-11.68,11.5s4.91,11.5,11.68,11.5c3.41,0,6.36-1.26,8.74-3.88l3.93,3.74
			c-3.04,3.55-7.62,5.47-12.99,5.47C75.03,210.77,67.55,203.71,67.55,193.94z"/>
		<path class="st3" d="M139.48,189.22c0,7.2-5.33,11.64-13.93,11.64h-7.38v9.44h-6.08v-32.71h13.46
			C134.15,177.58,139.48,181.98,139.48,189.22z M133.36,189.22c0-4.11-2.76-6.5-8.08-6.5h-7.1v12.99h7.1
			C130.6,195.72,133.36,193.33,133.36,189.22z"/>
		<path class="st3" d="M163.32,195.67v14.63h-5.51v-3.04c-1.4,2.15-4.11,3.36-7.85,3.36c-5.7,0-9.3-3.13-9.3-7.48
			c0-4.16,2.8-7.43,10.38-7.43h6.45v-0.37c0-3.41-2.06-5.42-6.22-5.42c-2.8,0-5.7,0.93-7.57,2.48l-2.29-4.25
			c2.66-2.06,6.54-3.08,10.56-3.08C159.16,185.06,163.32,188.47,163.32,195.67z M157.48,202.49v-2.9h-6.03
			c-3.97,0-5.05,1.5-5.05,3.32c0,2.1,1.78,3.46,4.77,3.46C154.02,206.37,156.49,205.06,157.48,202.49z"/>
		<path class="st3" d="M166.64,197.82c0-7.48,5.61-12.76,13.51-12.76c4.86,0,8.74,2.01,10.65,5.8l-4.49,2.62
			c-1.5-2.38-3.74-3.46-6.22-3.46c-4.3,0-7.57,2.99-7.57,7.81c0,4.86,3.27,7.8,7.57,7.8c2.48,0,4.72-1.07,6.22-3.46l4.49,2.62
			c-1.92,3.74-5.79,5.84-10.65,5.84C172.25,210.63,166.64,205.3,166.64,197.82z"/>
		<path class="st3" d="M203.47,199.6l-4.35,4.11v6.59h-5.84v-34.68h5.84v20.94l12.1-11.22h7.01l-10.42,10.47l11.4,14.49h-7.1
			L203.47,199.6z"/>
	</g>
	
		<linearGradient id="SVGID_00000152224119707025126810000017997639941103058576_" gradientUnits="userSpaceOnUse" x1="327.0577" y1="416.0147" x2="334.472" y2="337.8279" gradientTransform="matrix(0.7487 0.6629 -0.6629 0.7487 58.2857 -387.4189)">
		<stop  offset="0" style="stop-color:#842CF0"/>
		<stop  offset="1" style="stop-color:#28ABE3"/>
	</linearGradient>
	<path style="fill:url(#SVGID_00000152224119707025126810000017997639941103058576_);" d="M46.16,102.95
		c-0.1-11.59,6.01-21.81,15.22-27.5l21.24-23.99c-3.32-0.22-5.43-0.05-5.48-0.05c-28.01,0.54-50.51,23.61-50.27,51.69
		c0.24,28.27,23.43,51.08,51.7,50.84l-0.16-19.29C60.77,134.81,46.31,120.59,46.16,102.95z"/>
	
		<linearGradient id="SVGID_00000124119968630945673860000012934656353248465582_" gradientUnits="userSpaceOnUse" x1="205.704" y1="169.0435" x2="188.0524" y2="110.4722" gradientTransform="matrix(0.9952 0.0978 -0.0978 0.9952 -25.949 -15.0743)">
		<stop  offset="1.049361e-03" style="stop-color:#F25A24"/>
		<stop  offset="1" style="stop-color:#FBB03A"/>
	</linearGradient>
	<path style="fill:url(#SVGID_00000124119968630945673860000012934656353248465582_);" d="M200.8,120.25l-43.52-16.94
		c-1.96,2.42-4.02,5.01-6.15,7.79l-0.12,0.15c-2.52,3.13-24.69,30.51-35.3,38.43c-1.97,1.69-4.1,3.13-6.29,4.37L155.88,171
		L200.8,120.25z"/>
	
		<linearGradient id="SVGID_00000044166400427018768380000015794828741814173847_" gradientUnits="userSpaceOnUse" x1="209.3685" y1="116.9678" x2="238.253" y2="72.8388" gradientTransform="matrix(0.9952 0.0978 -0.0978 0.9952 -25.949 -15.0743)">
		<stop  offset="1.049361e-03" style="stop-color:#F25A24"/>
		<stop  offset="1" style="stop-color:#FBB03A"/>
	</linearGradient>
	<path style="fill:url(#SVGID_00000044166400427018768380000015794828741814173847_);" d="M177.29,82.04
		c-3.41,2.39-10.63,9.72-20.01,21.27l43.52,16.94l-21.68-39.68l-0.83,0.77L177.29,82.04z"/>
	
		<linearGradient id="SVGID_00000145736526818231972630000017434949354508151994_" gradientUnits="userSpaceOnUse" x1="330.3474" y1="380.2068" x2="346.6446" y2="279.9163" gradientTransform="matrix(0.7487 0.6629 -0.6629 0.7487 58.2857 -387.4189)">
		<stop  offset="1.049361e-03" style="stop-color:#F25A24"/>
		<stop  offset="1" style="stop-color:#FBB03A"/>
	</linearGradient>
	<path style="fill:url(#SVGID_00000145736526818231972630000017434949354508151994_);" d="M92.86,121.21l1-0.7
		c4.3-3.01,14.91-14.15,28.03-31.51l0.28-0.35l3.1-3.68c1.28-1.63,2.65-3.33,4.07-5.08l-23.43-43.64L61,87l19.41,38.09
		c4.43-0.27,10.13-1.74,11.56-3.06L92.86,121.21z"/>
	
		<linearGradient id="SVGID_00000126294211902090094540000001660371712891468222_" gradientUnits="userSpaceOnUse" x1="142.2777" y1="73.0539" x2="171.1622" y2="28.9249" gradientTransform="matrix(0.9952 0.0978 -0.0978 0.9952 -25.949 -15.0743)">
		<stop  offset="1.049361e-03" style="stop-color:#F25A24"/>
		<stop  offset="1" style="stop-color:#FBB03A"/>
	</linearGradient>
	<path style="fill:url(#SVGID_00000126294211902090094540000001660371712891468222_);" d="M152.85,54.92l-46.93-18.66l23.43,43.64
		C136.54,71.07,145.25,61.2,152.85,54.92z"/>
	
		<linearGradient id="SVGID_00000125581890792841278150000007436609915264130993_" gradientUnits="userSpaceOnUse" x1="278.8446" y1="348.2893" x2="382.4562" y2="318.6859" gradientTransform="matrix(0.7487 0.6629 -0.6629 0.7487 58.2857 -387.4189)">
		<stop  offset="0" style="stop-color:#27AAE1"/>
		<stop  offset="1" style="stop-color:#522685"/>
	</linearGradient>
	<path style="fill:url(#SVGID_00000125581890792841278150000007436609915264130993_);" d="M78.59,153.91c0.3,0,0.87-0.01,1.67-0.05
		c5.19-0.25,19.85-1.7,29.3-9.98c9.85-7.13,33.98-37.11,33.98-37.11c11.52-14.99,22.27-26.81,28.05-30.85l0.53-0.37l0.47-0.44
		c4.33-3.98,14.32-5.34,18.53-5.37c0.01,0,0.02,0,0.03,0l-0.13-19.29c-0.01,0-0.03,0-0.04,0c-2.22,0.02-20.07,0.47-30.97,10.03
		C150.99,67,139,81.29,131.14,91.28l-3.19,3.79c-12.1,16-23.86,29.09-29.96,33.36l-0.53,0.37l-0.48,0.44
		c-4.33,3.98-14.32,5.34-18.53,5.37c-0.01,0-0.02,0-0.03,0c0,0-23.39-0.94-34.43-14.58c-22.31-35.15,0.16-55.71,0.16-55.71
		c0,0-10.73,8.44-15.21,23.91c-4.62,15.92-4.7,39.22,21.41,58.03C62.88,155,78.59,153.91,78.59,153.91z"/>
	
		<linearGradient id="SVGID_00000112634656511794256020000012056262349556071359_" gradientUnits="userSpaceOnUse" x1="460.8451" y1="267.8799" x2="407.0917" y2="276.4493" gradientTransform="matrix(0.7487 0.6629 -0.6629 0.7487 58.2857 -387.4189)">
		<stop  offset="0" style="stop-color:#F7941D"/>
		<stop  offset="1" style="stop-color:#EF4136"/>
	</linearGradient>
	<path style="fill:url(#SVGID_00000112634656511794256020000012056262349556071359_);" d="M242.83,101.31
		c-0.24-28.27-23.43-51.08-51.7-50.84c0,0-16.82-0.43-28.99,8.32c-10.72,6.9-27.41,28.01-27.41,28.01c0.51,0,24.63-7.58,41.76-14.1
		c8.46-3.22,16.84-2.89,17.09-2.88c16.58,1.04,29.82,14.79,29.96,31.65c0.12,14.55-9.55,26.94-22.84,30.91l-8.8,9.95l0.09,10.69
		C220.25,152.77,243.06,129.58,242.83,101.31z"/>
	
		<radialGradient id="SVGID_00000141455895107320143090000018397372134504969382_" cx="445.0798" cy="273.9013" r="39.8546" gradientTransform="matrix(0.7487 0.6629 -0.6629 0.7487 58.2857 -387.4189)" gradientUnits="userSpaceOnUse">
		<stop  offset="0" style="stop-color:#F7941D"/>
		<stop  offset="1" style="stop-color:#EF4136"/>
	</radialGradient>
	<path style="fill:url(#SVGID_00000141455895107320143090000018397372134504969382_);" d="M237.2,78.01
		c-7.18-14.49-19.16-20.16-19.16-20.16c-0.22,0,27.51,16.81,14.2,50.5c-5.24,11.5-18.71,18.34-25.85,21.71
		c-1.81,0.86-3.65,1.5-5.41,1.99l-17.93,20.25c4.48,0.63,7.89,0.66,8.78,0.65c0.01,0,0.03,0,0.04,0c0,0,16.69,1.42,33.28-11.99
		C248.32,118.46,244.79,93.33,237.2,78.01z"/>
	
		<linearGradient id="SVGID_00000021838656910465794910000002174724067457608582_" gradientUnits="userSpaceOnUse" x1="397.3214" y1="251.2198" x2="368.2375" y2="331.547" gradientTransform="matrix(0.7487 0.6629 -0.6629 0.7487 58.2857 -387.4189)">
		<stop  offset="0" style="stop-color:#EF4136"/>
		<stop  offset="1" style="stop-color:#92278F"/>
	</linearGradient>
	<path style="fill:url(#SVGID_00000021838656910465794910000002174724067457608582_);" d="M193.57,69.82
		c0.52,0.03,1.04,0.08,1.55,0.14l-0.16-19.38c-1.27-0.08-2.55-0.12-3.84-0.11c0,0-16.83-0.63-28.99,8.12
		c-14.29,10.87-27.41,28.21-27.41,28.21c-6.2,7.14-22.86,30.25-33.32,38.87c-12.6,12.66-32.7,7.58-32.7,7.58
		c0.2,0,19.87,10.14,51-11.44c24.95-16.61,46.44-45.17,56.77-49.11C184.94,69.48,193.32,69.8,193.57,69.82z"/>
</g>
</svg>
