<svg xmlns="http://www.w3.org/2000/svg" xmlns:xlink="http://www.w3.org/1999/xlink" fill="none" version="1.1" width="800" height="800.0000610351562" viewBox="0 0 800 800.0000610351562"><defs><clipPath id="master_svg0_14_06"><rect x="0" y="0" width="800" height="800.0000610351562" rx="400"/></clipPath></defs><g clip-path="url(#master_svg0_14_06)"><rect x="0" y="0" width="800" height="800.0000610351562" rx="400" fill="#FFFFFF" fill-opacity="1"/><g><g><path d="M313.35592187500004,361.8716998828125C259.349821875,323.6510798828125,146.193621875,402.6406798828125,197.628121875,479.0818798828125C210.486721875,498.1918798828125,241.697521875,509.9008798828125,255.50002187500002,502.9998798828125C274.500021875,493.4998798828125,264.861121875,472.1508798828125,283.000021875,458.9998798828125C302.999921875,444.5000798828125,323.49992187500004,437.0000798828125,330.49992187500004,417.5000798828125C337.49992187500004,397.5000798828125,335.99992187500004,380.0000798828125,313.35592187500004,361.8716998828125Z" fill="#000000" fill-opacity="1"/></g><g transform="matrix(-1,0,0,1,1230,0)"><path d="M743.811,361.8716998828125C689.8049,323.6510798828125,576.6487,402.6406798828125,628.0832,479.0818798828125C640.9418000000001,498.1918798828125,672.1526,509.9008798828125,685.9551,502.9998798828125C704.9551,493.4998798828125,695.3162,472.1508798828125,713.4551,458.9998798828125C733.455,444.5000798828125,753.955,437.0000798828125,760.955,417.5000798828125C767.955,397.5000798828125,766.455,380.0000798828125,743.811,361.8716998828125Z" fill="#000000" fill-opacity="1"/></g><g><path d="M295.20121097412107,396.2996945336914C282.8198109741211,387.6442145336914,256.8780309741211,405.5322845336914,268.6697209741211,422.8431845336914C280.4614109741211,440.1540845336914,310.5307109741211,407.8404845336914,295.20121097412107,396.2996945336914Z" fill="#FFFFFF" fill-opacity="1"/></g><g transform="matrix(-1,0,0,1,1067.404296875,0)"><path d="M563.2330484375,396.2996945336914C550.8516484375,387.6442145336914,524.9098684375,405.5322845336914,536.7015584375,422.8431845336914C548.4932484375,440.1540845336914,578.5625484375,407.8404845336914,563.2330484375,396.2996945336914Z" fill="#FFFFFF" fill-opacity="1"/></g></g><g><g transform="matrix(1,0,0,-1,0,1081.1520233154297)"><path d="M353.311245390625,580.7829116577149C348.228575390625,590.1841116577149,352.473895390625,601.9151116577149,362.395875390625,605.8863116577148L368.382675390625,608.2824116577149C388.509975390625,616.3382116577149,410.965575390625,616.3382116577149,431.092875390625,608.2824116577149L437.07967539062497,605.8863116577148C447.00177539062497,601.9151116577149,451.246775390625,590.1841116577149,446.164775390625,580.7829116577149C440.845675390625,570.9452116577148,433.172475390625,562.5787116577148,423.830575390625,556.4309116577149L419.683975390625,553.7022116577149C407.579475390625,545.7364516577148,391.896075390625,545.7364416577149,379.791575390625,553.7022116577149L375.644975390625,556.4309116577149C366.303075390625,562.5787116577148,358.629875390625,570.9452116577148,353.311245390625,580.7829116577149Z" fill="#000000" fill-opacity="1"/></g></g><g><g><g><path d="M399.893220703125,188.14275634765625Q400.289220703125,188.14275634765625,400.685220703125,188.12335634765626Q401.080220703125,188.10385634765626,401.474220703125,188.06505634765625Q401.868220703125,188.02625634765624,402.260220703125,187.96815634765625Q402.652220703125,187.91005634765625,403.040220703125,187.83285634765625Q403.428220703125,187.75555634765624,403.812220703125,187.65935634765626Q404.197220703125,187.56315634765625,404.575220703125,187.44815634765624Q404.954220703125,187.33325634765626,405.327220703125,187.19985634765624Q405.700220703125,187.06645634765624,406.066220703125,186.91495634765624Q406.432220703125,186.76335634765624,406.790220703125,186.59405634765625Q407.148220703125,186.42475634765626,407.497220703125,186.23815634765626Q407.846220703125,186.05145634765626,408.186220703125,185.84795634765624Q408.525220703125,185.64435634765624,408.855220703125,185.42435634765624Q409.184220703125,185.20435634765624,409.502220703125,184.96845634765626Q409.820220703125,184.73265634765625,410.126220703125,184.48145634765626Q410.432220703125,184.23025634765625,410.725220703125,183.96425634765626Q411.019220703125,183.69835634765624,411.299220703125,183.41835634765624Q411.579220703125,183.13835634765624,411.845220703125,182.84495634765625Q412.111220703125,182.55165634765626,412.362220703125,182.24555634765625Q412.613220703125,181.93942634765625,412.849220703125,181.62138634765626Q413.085220703125,181.30333634765626,413.305220703125,180.97410634765626Q413.525220703125,180.64486634765626,413.728220703125,180.30523634765626Q413.932220703125,179.96559634765626,414.119220703125,179.61638634765626Q414.305220703125,179.26716634765626,414.475220703125,178.90921634765624Q414.644220703125,178.55126634765625,414.795220703125,178.18543634765626Q414.947220703125,177.81961634765625,415.080220703125,177.44678634765626Q415.214220703125,177.07396634765624,415.329220703125,176.69504634765624Q415.444220703125,176.31612634765625,415.540220703125,175.93202634765626Q415.636220703125,175.54792634765624,415.713220703125,175.15956634765624Q415.790220703125,174.77120634765626,415.849220703125,174.37951634765625Q415.907220703125,173.98783634765624,415.946220703125,173.59377634765625Q415.984220703125,173.19970634765625,416.004220703125,172.80421734765625Q416.023220703125,172.40872534765626,416.023220703125,172.01275634765625Q416.023220703125,171.61678734765624,416.004220703125,171.22129534765625Q415.984220703125,170.82580634765625,415.946220703125,170.43173634765625Q415.907220703125,170.03767634765626,415.849220703125,169.64599634765625Q415.790220703125,169.25430634765624,415.713220703125,168.86594634765626Q415.636220703125,168.47758634765626,415.540220703125,168.09348634765624Q415.444220703125,167.70938634765625,415.329220703125,167.33046634765626Q415.214220703125,166.95154634765626,415.080220703125,166.57872634765624Q414.947220703125,166.20589634765625,414.795220703125,165.84007634765624Q414.644220703125,165.47424634765625,414.475220703125,165.11629634765626Q414.305220703125,164.75834634765624,414.119220703125,164.40912634765624Q413.932220703125,164.05991634765624,413.728220703125,163.72027634765624Q413.525220703125,163.38064634765624,413.305220703125,163.05140634765624Q413.085220703125,162.72217634765624,412.849220703125,162.40412634765624Q412.613220703125,162.08608634765625,412.362220703125,161.77995634765625Q412.111220703125,161.47385634765624,411.845220703125,161.18055634765625Q411.579220703125,160.88715634765626,411.299220703125,160.60715634765626Q411.019220703125,160.32715634765626,410.725220703125,160.06125634765624Q410.432220703125,159.79525634765625,410.126220703125,159.54405634765624Q409.820220703125,159.29285634765625,409.502220703125,159.05705634765624Q409.184220703125,158.82115634765626,408.855220703125,158.60115634765626Q408.525220703125,158.38115634765626,408.186220703125,158.17755634765626Q407.846220703125,157.97405634765624,407.497220703125,157.78735634765624Q407.148220703125,157.60075634765624,406.790220703125,157.43145634765625Q406.432220703125,157.26215634765626,406.066220703125,157.11055634765626Q405.700220703125,156.95905634765626,405.327220703125,156.82565634765626Q404.954220703125,156.69225634765624,404.575220703125,156.57735634765626Q404.197220703125,156.46235634765625,403.812220703125,156.36615634765624Q403.428220703125,156.26995634765626,403.040220703125,156.19265634765625Q402.652220703125,156.11545634765625,402.260220703125,156.05735634765625Q401.868220703125,155.99925634765626,401.474220703125,155.96045634765625Q401.080220703125,155.92165634765624,400.685220703125,155.90215634765624Q400.289220703125,155.88275634765625,399.893220703125,155.88275634765625Q399.762220703125,155.88275634765625,399.631220703125,155.88485634765624Q352.616220703125,155.92205634765625,308.405220703125,169.29803634765625Q266.76222070312497,181.89713634765624,229.069220703125,205.86635634765625Q193.638220703125,228.39785634765624,163.32082070312498,259.91565634765624Q134.565420703125,289.8097563476563,112.13852070312501,325.95475634765626Q90.504920703125,360.8217563476562,76.405220703125,398.81075634765625Q62.477390703124996,436.33675634765626,57.133520703125,473.55875634765624Q51.700820703125004,511.3987563476563,55.645020703125,545.4587563476563Q59.777220703124996,581.1417563476563,73.875630703125,609.6847563476563Q111.154020703125,685.1577563476562,194.13422070312498,724.2707563476563Q275.016220703125,762.3947563476562,399.236220703125,765.5127563476562L399.238220703125,765.5127563476562Q399.566220703125,765.5267563476563,399.893220703125,765.5267563476563Q400.289220703125,765.5267563476563,400.685220703125,765.5067563476563Q401.080220703125,765.4877563476563,401.474220703125,765.4487563476563Q401.868220703125,765.4097563476563,402.260220703125,765.3517563476563Q402.652220703125,765.2937563476562,403.040220703125,765.2167563476562Q403.428220703125,765.1387563476562,403.812220703125,765.0427563476562Q404.197220703125,764.9467563476562,404.575220703125,764.8317563476562Q404.954220703125,764.7167563476562,405.327220703125,764.5837563476563Q405.700220703125,764.4497563476563,406.066220703125,764.2987563476562Q406.432220703125,764.1467563476563,406.790220703125,763.9777563476563Q407.148220703125,763.8087563476563,407.497220703125,763.6217563476563Q407.846220703125,763.4347563476563,408.186220703125,763.2317563476563Q408.525220703125,763.0277563476562,408.855220703125,762.8077563476562Q409.184220703125,762.5877563476563,409.502220703125,762.3517563476563Q409.820220703125,762.1157563476562,410.126220703125,761.8647563476562Q410.432220703125,761.6137563476562,410.725220703125,761.3477563476563Q411.019220703125,761.0817563476562,411.299220703125,760.8017563476562Q411.579220703125,760.5217563476563,411.845220703125,760.2287563476563Q412.111220703125,759.9347563476563,412.362220703125,759.6287563476562Q412.613220703125,759.3227563476562,412.849220703125,759.0047563476562Q413.085220703125,758.6867563476562,413.305220703125,758.3577563476563Q413.525220703125,758.0287563476562,413.728220703125,757.6887563476563Q413.932220703125,757.3487563476563,414.119220703125,756.9997563476562Q414.305220703125,756.6507563476563,414.475220703125,756.2927563476562Q414.644220703125,755.9347563476563,414.795220703125,755.5687563476563Q414.947220703125,755.2027563476563,415.080220703125,754.8307563476562Q415.214220703125,754.4577563476563,415.329220703125,754.0787563476563Q415.444220703125,753.6997563476563,415.540220703125,753.3157563476562Q415.636220703125,752.9317563476562,415.713220703125,752.5427563476562Q415.790220703125,752.1547563476563,415.849220703125,751.7627563476562Q415.907220703125,751.3717563476563,415.946220703125,750.9777563476563Q415.984220703125,750.5837563476563,416.004220703125,750.1877563476562Q416.023220703125,749.7927563476562,416.023220703125,749.3967563476563Q416.023220703125,749.0027563476563,416.004220703125,748.6097563476562Q415.985220703125,748.2167563476562,415.946220703125,747.8247563476563Q415.908220703125,747.4327563476562,415.851220703125,747.0437563476562Q415.793220703125,746.6537563476562,415.717220703125,746.2677563476562Q415.641220703125,745.8817563476563,415.545220703125,745.4997563476562Q415.450220703125,745.1177563476563,415.337220703125,744.7407563476562Q415.223220703125,744.3637563476562,415.091220703125,743.9927563476563Q414.959220703125,743.6217563476563,414.810220703125,743.2577563476563Q414.660220703125,742.8937563476562,414.492220703125,742.5377563476562Q414.325220703125,742.1817563476562,414.140220703125,741.8337563476563Q413.956220703125,741.4857563476562,413.754220703125,741.1477563476562Q413.553220703125,740.8097563476563,413.336220703125,740.4817563476563Q413.118220703125,740.1537563476562,412.885220703125,739.8357563476562Q412.651220703125,739.5187563476562,412.403220703125,739.2137563476563Q412.154220703125,738.9087563476562,411.891220703125,738.6157563476562Q411.628220703125,738.3227563476562,411.351220703125,738.0437563476562Q411.074220703125,737.7637563476562,410.784220703125,737.4977563476563Q410.493220703125,737.2317563476563,410.190220703125,736.9807563476562Q409.887220703125,736.7297563476562,409.572220703125,736.4937563476562Q409.258220703125,736.2567563476563,408.931220703125,736.0367563476563Q408.605220703125,735.8157563476562,408.269220703125,735.6117563476563Q407.933220703125,735.4067563476563,407.587220703125,735.2197563476562Q407.241220703125,735.0317563476563,406.886220703125,734.8607563476562Q406.531220703125,734.6907563476562,406.168220703125,734.5367563476563Q405.806220703125,734.3837563476562,405.436220703125,734.2487563476562Q405.066220703125,734.1137563476562,404.691220703125,733.9967563476563Q404.315220703125,733.8797563476562,403.934220703125,733.7807563476563Q403.553220703125,733.6817563476562,403.167220703125,733.6017563476563Q402.782220703125,733.5227563476562,402.393220703125,733.4617563476562Q402.004220703125,733.4007563476563,401.612220703125,733.3587563476563Q401.221220703125,733.3167563476562,400.828220703125,733.2937563476562Q400.435220703125,733.2707563476563,400.041220703125,733.2667563476563Q282.620220703125,730.3197563476563,207.887220703125,695.0937563476563Q135.089320703125,660.7797563476563,102.796120703125,595.4007563476562Q91.175520703125,571.8737563476562,87.686920703125,541.7477563476563Q84.223820703125,511.84275634765623,89.062120703125,478.14275634765625Q93.916420703125,444.33075634765623,106.645520703125,410.0337563476562Q119.619420703125,375.0787563476563,139.547220703125,342.96075634765623Q160.176220703125,309.7137563476563,186.568220703125,282.27675634765626Q214.206220703125,253.54345634765625,246.378220703125,233.08505634765623Q280.337220703125,211.48985634765626,317.746220703125,200.17195634765625Q357.396220703125,188.17565634765626,399.648220703125,188.14085634765624Q399.770220703125,188.14275634765625,399.893220703125,188.14275634765625Z" fill-rule="evenodd" fill="#000000" fill-opacity="1"/></g><g transform="matrix(-1,0,0,1,1459.321044921875,0)"><path d="M1059.4275224609376,188.14275634765625Q1059.8235224609375,188.14275634765625,1060.2195224609375,188.12335634765626Q1060.6145224609375,188.10385634765626,1061.0085224609375,188.06505634765625Q1061.4025224609375,188.02625634765624,1061.7945224609375,187.96815634765625Q1062.1865224609376,187.91005634765625,1062.5745224609375,187.83285634765625Q1062.9625224609376,187.75555634765624,1063.3465224609374,187.65935634765626Q1063.7315224609374,187.56315634765625,1064.1095224609376,187.44815634765624Q1064.4885224609375,187.33325634765626,1064.8615224609375,187.19985634765624Q1065.2345224609376,187.06645634765624,1065.6005224609376,186.91495634765624Q1065.9665224609375,186.76335634765624,1066.3245224609375,186.59405634765625Q1066.6825224609374,186.42475634765626,1067.0315224609376,186.23815634765626Q1067.3805224609375,186.05145634765626,1067.7205224609374,185.84795634765624Q1068.0595224609374,185.64435634765624,1068.3895224609375,185.42435634765624Q1068.7185224609375,185.20435634765624,1069.0365224609375,184.96845634765626Q1069.3545224609375,184.73265634765625,1069.6605224609375,184.48145634765626Q1069.9665224609375,184.23025634765625,1070.2595224609374,183.96425634765626Q1070.5535224609375,183.69835634765624,1070.8335224609375,183.41835634765624Q1071.1135224609375,183.13835634765624,1071.3795224609376,182.84495634765625Q1071.6455224609376,182.55165634765626,1071.8965224609374,182.24555634765625Q1072.1475224609376,181.93942634765625,1072.3835224609375,181.62138634765626Q1072.6195224609376,181.30333634765626,1072.8395224609376,180.97410634765626Q1073.0595224609374,180.64486634765626,1073.2625224609374,180.30523634765626Q1073.4665224609375,179.96559634765626,1073.6535224609374,179.61638634765626Q1073.8395224609376,179.26716634765626,1074.0095224609374,178.90921634765624Q1074.1785224609375,178.55126634765625,1074.3295224609374,178.18543634765626Q1074.4815224609374,177.81961634765625,1074.6145224609375,177.44678634765626Q1074.7485224609375,177.07396634765624,1074.8635224609375,176.69504634765624Q1074.9785224609375,176.31612634765625,1075.0745224609375,175.93202634765626Q1075.1705224609375,175.54792634765624,1075.2475224609375,175.15956634765624Q1075.3245224609375,174.77120634765626,1075.3835224609375,174.37951634765625Q1075.4415224609374,173.98783634765624,1075.4805224609374,173.59377634765625Q1075.5185224609374,173.19970634765625,1075.5385224609374,172.80421734765625Q1075.5575224609374,172.40872534765626,1075.5575224609374,172.01275634765625Q1075.5575224609374,171.61678734765624,1075.5385224609374,171.22129534765625Q1075.5185224609374,170.82580634765625,1075.4805224609374,170.43173634765625Q1075.4415224609374,170.03767634765626,1075.3835224609375,169.64599634765625Q1075.3245224609375,169.25430634765624,1075.2475224609375,168.86594634765626Q1075.1705224609375,168.47758634765626,1075.0745224609375,168.09348634765624Q1074.9785224609375,167.70938634765625,1074.8635224609375,167.33046634765626Q1074.7485224609375,166.95154634765626,1074.6145224609375,166.57872634765624Q1074.4815224609374,166.20589634765625,1074.3295224609374,165.84007634765624Q1074.1785224609375,165.47424634765625,1074.0095224609374,165.11629634765626Q1073.8395224609376,164.75834634765624,1073.6535224609374,164.40912634765624Q1073.4665224609375,164.05991634765624,1073.2625224609374,163.72027634765624Q1073.0595224609374,163.38064634765624,1072.8395224609376,163.05140634765624Q1072.6195224609376,162.72217634765624,1072.3835224609375,162.40412634765624Q1072.1475224609376,162.08608634765625,1071.8965224609374,161.77995634765625Q1071.6455224609376,161.47385634765624,1071.3795224609376,161.18055634765625Q1071.1135224609375,160.88715634765626,1070.8335224609375,160.60715634765626Q1070.5535224609375,160.32715634765626,1070.2595224609374,160.06125634765624Q1069.9665224609375,159.79525634765625,1069.6605224609375,159.54405634765624Q1069.3545224609375,159.29285634765625,1069.0365224609375,159.05705634765624Q1068.7185224609375,158.82115634765626,1068.3895224609375,158.60115634765626Q1068.0595224609374,158.38115634765626,1067.7205224609374,158.17755634765626Q1067.3805224609375,157.97405634765624,1067.0315224609376,157.78735634765624Q1066.6825224609374,157.60075634765624,1066.3245224609375,157.43145634765625Q1065.9665224609375,157.26215634765626,1065.6005224609376,157.11055634765626Q1065.2345224609376,156.95905634765626,1064.8615224609375,156.82565634765626Q1064.4885224609375,156.69225634765624,1064.1095224609376,156.57735634765626Q1063.7315224609374,156.46235634765625,1063.3465224609374,156.36615634765624Q1062.9625224609376,156.26995634765626,1062.5745224609375,156.19265634765625Q1062.1865224609376,156.11545634765625,1061.7945224609375,156.05735634765625Q1061.4025224609375,155.99925634765626,1061.0085224609375,155.96045634765625Q1060.6145224609375,155.92165634765624,1060.2195224609375,155.90215634765624Q1059.8235224609375,155.88275634765625,1059.4275224609376,155.88275634765625Q1059.2965224609375,155.88275634765625,1059.1655224609376,155.88485634765624Q1012.1505224609375,155.92205634765625,967.9395224609375,169.29803634765625Q926.2965224609375,181.89713634765624,888.6035224609375,205.86635634765625Q853.1725224609374,228.39785634765624,822.8551224609375,259.91565634765624Q794.0997224609375,289.8097563476563,771.6728224609375,325.95475634765626Q750.0392224609375,360.8217563476562,735.9395224609375,398.81075634765625Q722.0116924609375,436.33675634765626,716.6678224609375,473.55875634765624Q711.2351224609375,511.3987563476563,715.1793224609376,545.4587563476563Q719.3115224609375,581.1417563476563,733.4099324609375,609.6847563476563Q770.6883224609375,685.1577563476562,853.6685224609375,724.2707563476563Q934.5505224609375,762.3947563476562,1058.7705224609376,765.5127563476562L1058.7725224609376,765.5127563476562Q1059.1005224609376,765.5267563476563,1059.4275224609376,765.5267563476563Q1059.8235224609375,765.5267563476563,1060.2195224609375,765.5067563476563Q1060.6145224609375,765.4877563476563,1061.0085224609375,765.4487563476563Q1061.4025224609375,765.4097563476563,1061.7945224609375,765.3517563476563Q1062.1865224609376,765.2937563476562,1062.5745224609375,765.2167563476562Q1062.9625224609376,765.1387563476562,1063.3465224609374,765.0427563476562Q1063.7315224609374,764.9467563476562,1064.1095224609376,764.8317563476562Q1064.4885224609375,764.7167563476562,1064.8615224609375,764.5837563476563Q1065.2345224609376,764.4497563476563,1065.6005224609376,764.2987563476562Q1065.9665224609375,764.1467563476563,1066.3245224609375,763.9777563476563Q1066.6825224609374,763.8087563476563,1067.0315224609376,763.6217563476563Q1067.3805224609375,763.4347563476563,1067.7205224609374,763.2317563476563Q1068.0595224609374,763.0277563476562,1068.3895224609375,762.8077563476562Q1068.7185224609375,762.5877563476563,1069.0365224609375,762.3517563476563Q1069.3545224609375,762.1157563476562,1069.6605224609375,761.8647563476562Q1069.9665224609375,761.6137563476562,1070.2595224609374,761.3477563476563Q1070.5535224609375,761.0817563476562,1070.8335224609375,760.8017563476562Q1071.1135224609375,760.5217563476563,1071.3795224609376,760.2287563476563Q1071.6455224609376,759.9347563476563,1071.8965224609374,759.6287563476562Q1072.1475224609376,759.3227563476562,1072.3835224609375,759.0047563476562Q1072.6195224609376,758.6867563476562,1072.8395224609376,758.3577563476563Q1073.0595224609374,758.0287563476562,1073.2625224609374,757.6887563476563Q1073.4665224609375,757.3487563476563,1073.6535224609374,756.9997563476562Q1073.8395224609376,756.6507563476563,1074.0095224609374,756.2927563476562Q1074.1785224609375,755.9347563476563,1074.3295224609374,755.5687563476563Q1074.4815224609374,755.2027563476563,1074.6145224609375,754.8307563476562Q1074.7485224609375,754.4577563476563,1074.8635224609375,754.0787563476563Q1074.9785224609375,753.6997563476563,1075.0745224609375,753.3157563476562Q1075.1705224609375,752.9317563476562,1075.2475224609375,752.5427563476562Q1075.3245224609375,752.1547563476563,1075.3835224609375,751.7627563476562Q1075.4415224609374,751.3717563476563,1075.4805224609374,750.9777563476563Q1075.5185224609374,750.5837563476563,1075.5385224609374,750.1877563476562Q1075.5575224609374,749.7927563476562,1075.5575224609374,749.3967563476563Q1075.5575224609374,749.0027563476563,1075.5385224609374,748.6097563476562Q1075.5195224609374,748.2167563476562,1075.4805224609374,747.8247563476563Q1075.4425224609374,747.4327563476562,1075.3855224609374,747.0437563476562Q1075.3275224609374,746.6537563476562,1075.2515224609374,746.2677563476562Q1075.1755224609374,745.8817563476563,1075.0795224609374,745.4997563476562Q1074.9845224609376,745.1177563476563,1074.8715224609375,744.7407563476562Q1074.7575224609375,744.3637563476562,1074.6255224609374,743.9927563476563Q1074.4935224609376,743.6217563476563,1074.3445224609375,743.2577563476563Q1074.1945224609376,742.8937563476562,1074.0265224609375,742.5377563476562Q1073.8595224609376,742.1817563476562,1073.6745224609376,741.8337563476563Q1073.4905224609374,741.4857563476562,1073.2885224609374,741.1477563476562Q1073.0875224609376,740.8097563476563,1072.8705224609375,740.4817563476563Q1072.6525224609375,740.1537563476562,1072.4195224609375,739.8357563476562Q1072.1855224609376,739.5187563476562,1071.9375224609375,739.2137563476563Q1071.6885224609375,738.9087563476562,1071.4255224609374,738.6157563476562Q1071.1625224609375,738.3227563476562,1070.8855224609374,738.0437563476562Q1070.6085224609374,737.7637563476562,1070.3185224609374,737.4977563476563Q1070.0275224609375,737.2317563476563,1069.7245224609376,736.9807563476562Q1069.4215224609375,736.7297563476562,1069.1065224609374,736.4937563476562Q1068.7925224609376,736.2567563476563,1068.4655224609376,736.0367563476563Q1068.1395224609375,735.8157563476562,1067.8035224609375,735.6117563476563Q1067.4675224609375,735.4067563476563,1067.1215224609375,735.2197563476562Q1066.7755224609375,735.0317563476563,1066.4205224609375,734.8607563476562Q1066.0655224609375,734.6907563476562,1065.7025224609374,734.5367563476563Q1065.3405224609376,734.3837563476562,1064.9705224609374,734.2487563476562Q1064.6005224609376,734.1137563476562,1064.2255224609376,733.9967563476563Q1063.8495224609376,733.8797563476562,1063.4685224609375,733.7807563476563Q1063.0875224609376,733.6817563476562,1062.7015224609374,733.6017563476563Q1062.3165224609374,733.5227563476562,1061.9275224609376,733.4617563476562Q1061.5385224609374,733.4007563476563,1061.1465224609374,733.3587563476563Q1060.7555224609375,733.3167563476562,1060.3625224609375,733.2937563476562Q1059.9695224609375,733.2707563476563,1059.5755224609375,733.2667563476563Q942.1545224609375,730.3197563476563,867.4215224609375,695.0937563476563Q794.6236224609374,660.7797563476563,762.3304224609375,595.4007563476562Q750.7098224609375,571.8737563476562,747.2212224609375,541.7477563476563Q743.7581224609376,511.84275634765623,748.5964224609374,478.14275634765625Q753.4507224609375,444.33075634765623,766.1798224609375,410.0337563476562Q779.1537224609375,375.0787563476563,799.0815224609375,342.96075634765623Q819.7105224609375,309.7137563476563,846.1025224609375,282.27675634765626Q873.7405224609375,253.54345634765625,905.9125224609375,233.08505634765623Q939.8715224609375,211.48985634765626,977.2805224609375,200.17195634765625Q1016.9305224609375,188.17565634765626,1059.1825224609374,188.14085634765624Q1059.3045224609375,188.14275634765625,1059.4275224609376,188.14275634765625Z" fill-rule="evenodd" fill="#000000" fill-opacity="1"/></g></g></g><g><g><path d="M272.279,219.12L210.64,250.56L151.7088,304.909L128.0672,355.897Q126.4405,355.077,124.8432,354.202Q123.2458,353.326,121.67949999999999,352.39599999999996Q120.11330000000001,351.466,118.5801,350.48199999999997Q117.04679999999999,349.499,115.5484,348.46299999999997Q114.05,347.427,112.5883,346.34000000000003Q111.1265,345.253,109.7031,344.116Q108.27969999999999,342.98,106.8963,341.79499999999996Q105.513,340.60900000000004,104.1713,339.377Q102.8296,338.145,101.5313,336.86699999999996Q100.2329,335.59000000000003,98.9794,334.26800000000003Q97.72579999999999,332.946,96.51859999999999,331.582Q95.31139999999999,330.21799999999996,94.152,328.813Q92.9926,327.408,91.8823,325.964Q90.77199999999999,324.52,89.7122,323.038Q88.6524,321.557,87.6443,320.039Q86.6362,318.522,85.6811,316.971Q84.7259,315.41999999999996,83.8248,313.837Q82.9237,312.254,82.0778,310.64Q81.23179999999999,309.027,80.44200000000001,307.38599999999997Q79.65224,305.744,78.91952,304.076Q78.1868,302.409,77.51203,300.717Q76.83727,299.025,76.22126,297.31Q75.60526,295.596,75.04874,293.861Q74.49223,292.127,73.99587,290.374Q73.49951,288.622,73.0639,286.853Q72.62828,285.084,72.25393,283.301Q71.87958,281.519,71.56694,279.724Q71.2543,277.93,71.00374,276.125Q70.753177,274.321,70.564995,272.509Q70.376813,270.697,70.251233,268.88Q70.125654,267.063,70.062827,265.242Q70,263.422,70,261.6Q70,259.008,70.1272,256.418Q70.2544,253.8293,70.508493,251.24939999999998Q70.762586,248.6695,71.14296,246.1053Q71.52333,243.541,72.02907,240.9985Q72.53481,238.45589999999999,73.1647,235.9413Q73.79459,233.42669999999998,74.5471,230.946Q75.29961,228.46519999999998,76.17295,226.0244Q77.04628,223.5836,78.03832,221.1886Q79.03036,218.7936,80.1387,216.4502Q81.2471,214.1067,82.4691,211.8205Q83.6911,209.5343,85.0239,207.3107Q86.3566,205.0872,87.7968,202.9318Q89.237,200.7763,90.7813,198.6942Q92.3255,196.612,93.9701,194.6081Q95.6147,192.6042,97.3556,190.6834Q99.09649999999999,188.7626,100.9295,186.9295Q102.76259999999999,185.0965,104.6834,183.3556Q106.60419999999999,181.6147,108.60810000000001,179.9701Q110.612,178.3255,112.69409999999999,176.7813Q114.77629999999999,175.237,116.93180000000001,173.7968Q119.0872,172.35660000000001,121.3108,171.0239Q123.5343,169.6911,125.82050000000001,168.4691Q128.1067,167.2471,130.4502,166.1387Q132.7936,165.03037,135.1886,164.03832Q137.5836,163.04628,140.0244,162.17295000000001Q142.46519999999998,161.29962,144.9459,160.5471Q147.42669999999998,159.79459,149.9413,159.1647Q152.45589999999999,158.53481,154.9985,158.02907Q157.541,157.52333,160.1053,157.14296Q162.6695,156.762586,165.24939999999998,156.508493Q167.82920000000001,156.2544,170.418,156.1272Q173.00799999999998,156,175.6,156Q177.50900000000001,156,179.417,156.0689926Q181.324,156.137985,183.228,156.27588Q185.132,156.413775,187.03,156.620392Q188.928,156.827009,190.817,157.10208Q192.70600000000002,157.37715,194.583,157.72031Q196.461,158.06347,198.325,158.47428Q200.19,158.88509,202.038,159.363Q203.886,159.84091,205.716,160.38531Q207.545,160.92971,209.354,161.53988Q211.163,162.15005,212.948,162.82519Q214.734,163.50034,216.494,164.23957000000001Q218.254,164.97881,219.986,165.78117Q221.718,166.58350000000002,223.42,167.448Q225.122,168.3124,226.792,169.2378Q228.461,170.1632,230.096,171.1483Q231.731,172.1334,233.33,173.177Q234.928,174.2206,236.488,175.3213Q238.048,176.4219,239.566,177.5783Q241.085,178.7346,242.561,179.945Q244.037,181.1555,245.469,182.4185Q246.9,183.6815,248.285,184.9954Q249.67,186.3094,251.006,187.6725Q252.342,189.0356,253.629,190.4461Q254.915,191.85660000000001,256.149,193.3127Q257.384,194.7688,258.565,196.2686Q259.746,197.7683,260.872,199.3098Q261.998,200.8512,263.067,202.4324Q264.137,204.0135,265.149,205.6323Q266.15999999999997,207.251,267.113,208.9053Q268.06600000000003,210.5596,268.95799999999997,212.2472Q269.85,213.9348,270.68,215.65359999999998Q271.51099999999997,217.3724,272.279,219.12Z" fill-rule="evenodd" fill="#000000" fill-opacity="1"/></g><g transform="matrix(-1,0,0,1,1458.95703125,0)"><path d="M931.757515625,219.12L870.118515625,250.56L811.187315625,304.909L787.545715625,355.897Q785.919015625,355.077,784.321715625,354.202Q782.724315625,353.326,781.158015625,352.39599999999996Q779.591815625,351.466,778.058615625,350.48199999999997Q776.525315625,349.499,775.026915625,348.46299999999997Q773.528515625,347.427,772.066815625,346.34000000000003Q770.605015625,345.253,769.181615625,344.116Q767.758215625,342.98,766.374815625,341.79499999999996Q764.991515625,340.60900000000004,763.649815625,339.377Q762.308115625,338.145,761.009815625,336.86699999999996Q759.711415625,335.59000000000003,758.4579156249999,334.26800000000003Q757.204315625,332.946,755.997115625,331.582Q754.789915625,330.21799999999996,753.630515625,328.813Q752.471115625,327.408,751.360815625,325.964Q750.250515625,324.52,749.190715625,323.038Q748.130915625,321.557,747.122815625,320.039Q746.114715625,318.522,745.159615625,316.971Q744.204415625,315.41999999999996,743.303315625,313.837Q742.402215625,312.254,741.556315625,310.64Q740.710315625,309.027,739.920515625,307.38599999999997Q739.130755625,305.744,738.398035625,304.076Q737.665315625,302.409,736.990545625,300.717Q736.315785625,299.025,735.699775625,297.31Q735.083775625,295.596,734.527255625,293.861Q733.970745625,292.127,733.474385625,290.374Q732.978025625,288.622,732.542415625,286.853Q732.106795625,285.084,731.732445625,283.301Q731.358095625,281.519,731.045455625,279.724Q730.732815625,277.93,730.482255625,276.125Q730.231692625,274.321,730.043510625,272.509Q729.855328625,270.697,729.729748625,268.88Q729.604169625,267.063,729.541342625,265.242Q729.478515625,263.422,729.478515625,261.6Q729.478515625,259.008,729.605715625,256.418Q729.732915625,253.8293,729.987008625,251.24939999999998Q730.241101625,248.6695,730.621475625,246.1053Q731.001845625,243.541,731.507585625,240.9985Q732.013325625,238.45589999999999,732.643215625,235.9413Q733.273105625,233.42669999999998,734.025615625,230.946Q734.778125625,228.46519999999998,735.651465625,226.0244Q736.524795625,223.5836,737.516835625,221.1886Q738.508875625,218.7936,739.617215625,216.4502Q740.725615625,214.1067,741.947615625,211.8205Q743.169615625,209.5343,744.502415625,207.3107Q745.835115625,205.0872,747.275315625,202.9318Q748.715515625,200.7763,750.259815625,198.6942Q751.804015625,196.612,753.448615625,194.6081Q755.093215625,192.6042,756.834115625,190.6834Q758.575015625,188.7626,760.408015625,186.9295Q762.241115625,185.0965,764.161915625,183.3556Q766.082715625,181.6147,768.086615625,179.9701Q770.090515625,178.3255,772.172615625,176.7813Q774.254815625,175.237,776.410315625,173.7968Q778.565715625,172.35660000000001,780.789315625,171.0239Q783.012815625,169.6911,785.299015625,168.4691Q787.585215625,167.2471,789.928715625,166.1387Q792.272115625,165.03037,794.667115625,164.03832Q797.062115625,163.04628,799.502915625,162.17295000000001Q801.943715625,161.29962,804.4244156249999,160.5471Q806.905215625,159.79459,809.419815625,159.1647Q811.934415625,158.53481,814.477015625,158.02907Q817.0195156249999,157.52333,819.5838156249999,157.14296Q822.148015625,156.762586,824.727915625,156.508493Q827.307715625,156.2544,829.896515625,156.1272Q832.486515625,156,835.078515625,156Q836.987515625,156,838.895515625,156.0689926Q840.802515625,156.137985,842.706515625,156.27588Q844.6105156250001,156.413775,846.508515625,156.620392Q848.406515625,156.827009,850.295515625,157.10208Q852.184515625,157.37715,854.061515625,157.72031Q855.939515625,158.06347,857.803515625,158.47428Q859.668515625,158.88509,861.516515625,159.363Q863.364515625,159.84091,865.194515625,160.38531Q867.023515625,160.92971,868.832515625,161.53988Q870.641515625,162.15005,872.426515625,162.82519Q874.212515625,163.50034,875.972515625,164.23957000000001Q877.732515625,164.97881,879.464515625,165.78117Q881.196515625,166.58350000000002,882.898515625,167.448Q884.6005156250001,168.3124,886.270515625,169.2378Q887.939515625,170.1632,889.574515625,171.1483Q891.209515625,172.1334,892.808515625,173.177Q894.406515625,174.2206,895.966515625,175.3213Q897.526515625,176.4219,899.044515625,177.5783Q900.563515625,178.7346,902.039515625,179.945Q903.515515625,181.1555,904.947515625,182.4185Q906.378515625,183.6815,907.763515625,184.9954Q909.148515625,186.3094,910.484515625,187.6725Q911.820515625,189.0356,913.107515625,190.4461Q914.393515625,191.85660000000001,915.627515625,193.3127Q916.862515625,194.7688,918.043515625,196.2686Q919.224515625,197.7683,920.3505156250001,199.3098Q921.476515625,200.8512,922.545515625,202.4324Q923.615515625,204.0135,924.627515625,205.6323Q925.638515625,207.251,926.591515625,208.9053Q927.544515625,210.5596,928.436515625,212.2472Q929.328515625,213.9348,930.1585156250001,215.65359999999998Q930.989515625,217.3724,931.757515625,219.12Z" fill-rule="evenodd" fill="#000000" fill-opacity="1"/></g></g><g><path d="M390,523.5L390,550.5Q390,550.7455,390.01205,550.9907Q390.02409,551.2359,390.04815,551.4802Q390.07222,551.7245,390.10824,551.9673Q390.14426,552.2101,390.19215,552.4509Q390.24004,552.6917,390.29969,552.9298Q390.35934,553.1679,390.4306,553.4028Q390.50186,553.6378,390.58456,553.8689Q390.66726,554.1,390.76121,554.3268Q390.85515,554.5536,390.96011,554.7755Q391.06507,554.9975,391.18079,555.2139999999999Q391.29651,555.4305,391.42271,555.641Q391.54892,555.8516,391.68531,556.0557Q391.82169,556.2598,391.96793,556.457Q392.11416,556.6542,392.2699,556.8439Q392.42563,557.0337,392.59049,557.2156Q392.75535,557.3975,392.92893,557.5711Q393.10252,557.7446,393.28441,557.9095Q393.4663,558.0744,393.65607,558.2301Q393.84583,558.3858,394.04301,558.5321Q394.24018,558.6783,394.4443,558.8147Q394.64841,558.9511,394.85897,559.0773Q395.06953,559.2035,395.28603,559.3192Q395.50253,559.4349,395.72445,559.5399Q395.94637,559.6448,396.17317,559.7388Q396.39997,559.8327,396.6311,559.9154Q396.86224,559.9981,397.09715,560.0694Q397.33207,560.1407,397.5702,560.2003Q397.80833,560.26,398.0491,560.3078Q398.28987,560.3557,398.5327,560.3918Q398.77552,560.4278,399.019829,560.4518Q399.264133,560.4759,399.509323,560.488Q399.754514,560.5,400,560.5Q400.245486,560.5,400.490677,560.488Q400.735867,560.4759,400.980171,560.4518Q401.22448,560.4278,401.4673,560.3918Q401.71013,560.3557,401.9509,560.3078Q402.19167,560.26,402.4298,560.2003Q402.66793,560.1407,402.90285,560.0694Q403.13776,559.9981,403.3689,559.9154Q403.60003,559.8327,403.82683,559.7388Q404.05363,559.6448,404.27555,559.5399Q404.49747,559.4349,404.71397,559.3192Q404.93047,559.2035,405.14103,559.0773Q405.35159,558.9511,405.5557,558.8147Q405.75982,558.6783,405.95699,558.5321Q406.15417,558.3858,406.34393,558.2301Q406.5337,558.0744,406.71559,557.9095Q406.89748,557.7446,407.07107,557.5711Q407.24465,557.3975,407.40951,557.2156Q407.57437,557.0337,407.7301,556.8439Q407.88584,556.6542,408.03207,556.457Q408.17831,556.2598,408.3147,556.0557Q408.45108,555.8516,408.57729,555.641Q408.70349,555.4305,408.81921,555.2139999999999Q408.93493,554.9975,409.03989,554.7755Q409.14485,554.5536,409.23879,554.3268Q409.33274,554.1,409.41544,553.8689Q409.49814,553.6378,409.5694,553.4028Q409.64066,553.1679,409.70031,552.9298Q409.75996,552.6917,409.80785,552.4509Q409.85574,552.2101,409.89176,551.9673Q409.92778,551.7245,409.95185,551.4802Q409.97591,551.2359,409.98795,550.9907Q410,550.7455,410,550.5L410,523.5Q410,523.254514,409.98795,523.009323Q409.97591,522.764133,409.95185,522.519829Q409.92778,522.27552,409.89176,522.0327Q409.85574,521.78987,409.80785,521.5491Q409.75996,521.30833,409.70031,521.0702Q409.64066,520.83207,409.5694,520.59715Q409.49814,520.36224,409.41544,520.1311Q409.33274,519.89997,409.23879,519.67317Q409.14485,519.44637,409.03989,519.22445Q408.93493,519.00253,408.81921,518.78603Q408.70349,518.56953,408.57729,518.35897Q408.45108,518.14841,408.31469,517.9443Q408.17831,517.74018,408.03207,517.54301Q407.88584,517.34583,407.7301,517.15607Q407.57437,516.9663,407.40951,516.78441Q407.24465,516.60252,407.07107,516.42893Q406.89748,516.25535,406.71559,516.09049Q406.5337,515.92563,406.34393,515.7699Q406.15417,515.61416,405.95699,515.46793Q405.75982,515.32169,405.5557,515.1853Q405.35159,515.04892,405.14103,514.92271Q404.93047,514.79651,404.71397,514.68079Q404.49747,514.56507,404.27555,514.46011Q404.05363,514.35515,403.82683,514.26121Q403.60003,514.16726,403.3689,514.08456Q403.13776,514.00186,402.90285,513.9306Q402.66793,513.85934,402.4298,513.79969Q402.19167,513.74004,401.9509,513.69215Q401.71013,513.64426,401.4673,513.60824Q401.22448,513.57222,400.980171,513.54815Q400.735867,513.52409,400.490677,513.51205Q400.245486,513.5,400,513.5Q399.754514,513.5,399.509323,513.51205Q399.264133,513.52409,399.019829,513.54815Q398.77552,513.57222,398.5327,513.60824Q398.28987,513.64426,398.0491,513.69215Q397.80833,513.74004,397.5702,513.79969Q397.33207,513.85934,397.09715,513.9306Q396.86224,514.00186,396.6311,514.08456Q396.39997,514.16726,396.17317,514.26121Q395.94637,514.35515,395.72445,514.46011Q395.50253,514.56507,395.28603,514.68079Q395.06953,514.79651,394.85897,514.92271Q394.64841,515.04892,394.4443,515.18531Q394.24018,515.32169,394.04301,515.46793Q393.84583,515.61416,393.65607,515.7699Q393.4663,515.92563,393.28441,516.09049Q393.10252,516.25535,392.92893,516.42893Q392.75535,516.60252,392.59049,516.78441Q392.42563,516.9663,392.2699,517.15607Q392.11416,517.34583,391.96793,517.54301Q391.82169,517.74018,391.6853,517.9443Q391.54892,518.14841,391.42271,518.35897Q391.29651,518.56953,391.18079,518.78603Q391.06507,519.00253,390.96011,519.22445Q390.85515,519.44637,390.76121,519.67317Q390.66726,519.89997,390.58456,520.1311Q390.50186,520.36224,390.4306,520.59715Q390.35934,520.83207,390.29969,521.0702Q390.24004,521.30833,390.19215,521.5491Q390.14426,521.78987,390.10824,522.0327Q390.07222,522.27552,390.04815,522.519829Q390.02409,522.764133,390.01205,523.009323Q390,523.254514,390,523.5Z" fill-rule="evenodd" fill="#000000" fill-opacity="1"/></g><g transform="matrix(0.7071067690849304,0.7071067690849304,-0.7071067690849304,0.7071067690849304,404.07255258534497,-393.0270572236732)"><g><g><path d="M781.0877914428711,583.0871782226562L846.7958914428712,583.0871782226562L832.6292914428711,564.6251782226562L832.6292914428711,308.02817822265627L843.254191442871,291.24517822265625L784.6294414428711,291.24517822265625L795.2543914428711,308.02817822265627L795.2542914428711,564.6251782226562L781.0877914428711,583.0871782226562Z" fill="#11C291" fill-opacity="1"/></g><g><path d="M781.0877914428711,905.3203935546875L846.7958914428712,905.3203935546875L832.6292914428711,886.8583935546875L832.6292914428711,608.2613935546875L843.254191442871,591.4783935546875L784.6294414428711,591.4783935546875L795.2543914428711,608.2613935546875L795.2543914428711,886.8583935546875L781.0877914428711,905.3203935546875Z" fill="#11C291" fill-opacity="1"/></g></g><g transform="matrix(0.6564481258392334,-0.754371166229248,0.754371166229248,0.6564481258392334,-111.19786952230925,666.7828394033813)"><g transform="matrix(-1,0,0,-1,1583.3661994934082,1111.30224609375)"><path d="M791.6830997467041,555.651123046875Q854.5875997467041,629.909323046875,906.9040997467041,639.087323046875Q890.0880997467041,594.031723046875,791.6830997467041,555.651123046875Z" fill="#11C291" fill-opacity="1"/></g><g transform="matrix(-0.7028578519821167,-0.7113302946090698,0.7028577327728271,-0.7113303542137146,939.3584924063114,1506.6141814502637)"><path d="M781.018533706665,555.7384262084961Q825.8748337066651,608.0602262084961,863.181133706665,614.5270262084961Q851.189833706665,582.7811262084961,781.018533706665,555.7384262084961Z" fill="#11C291" fill-opacity="1"/></g></g></g><g><g><g transform="matrix(0.7211062908172607,0.6928243637084961,-0.6928243637084961,0.7211062908172607,463.28225894185016,-262.880347129656)"><path d="M616.757730078125,589.331C508.776830078125,602.9780000000001,560.409090078125,773.097,687.220330078125,768.919C814.0313300781249,764.741,883.049330078125,589.298,835.403330078125,444Q810.3243300781251,561.8340000000001,616.757730078125,589.331Z" fill="#000000" fill-opacity="1"/></g><g transform="matrix(-0.7211062908172607,0.6928243637084961,0.6928243637084961,0.7211062908172607,108.61167729633962,-43.7211600747396)"><path d="M300.4305358642578,589.331C192.4496358642578,602.9780000000001,244.0818958642578,773.097,370.89313586425783,768.919C497.7041358642578,764.741,566.7221358642578,589.298,519.0761358642578,444Q493.9971358642578,561.8340000000001,300.4305358642578,589.331Z" fill="#000000" fill-opacity="1"/></g></g></g></g></svg>