<svg width="250" height="250" viewBox="0 0 250 250" fill="none" xmlns="http://www.w3.org/2000/svg">
<g clip-path="url(#clip0_1_2)">
<rect width="250" height="250" fill="black"/>
<path d="M118.533 194V169.063C82.8258 167.08 58.7375 146.677 56.4704 115.507H77.4413C78.5749 135.342 94.1614 148.661 118.533 150.644V71.8676L107.481 69.0339C75.741 61.3829 59.0209 43.5306 59.0209 15.7604C59.0209 -15.6937 82.5424 -37.5131 118.533 -40.3468V-65H133.553V-40.3468C166.426 -38.0799 187.964 -18.244 190.798 13.7768H170.394C168.41 -7.47593 155.374 -19.9442 133.553 -22.2112V55.7155L146.022 58.8326C178.045 66.767 194.199 84.6193 194.199 111.823C194.199 144.41 170.677 166.23 133.553 169.063V194H118.533ZM111.165 50.3315L118.533 52.0317V-21.9278C94.4448 -19.3775 79.1417 -5.20897 79.1417 15.477C79.1417 33.3293 89.6272 44.9475 111.165 50.3315ZM141.771 77.535L133.553 75.5514V150.644C158.491 148.094 174.078 133.926 174.078 112.956C174.078 94.5372 163.592 82.6357 141.771 77.535Z" fill="white"/>
<path d="M39.4669 -64.7166H201V55.7155H39.4669V-64.7166Z" fill="black"/>
<path d="M-43 -21.0777H118.533V97.9376H-43V-21.0777Z" fill="black"/>
</g>
<defs>
<clipPath id="clip0_1_2">
<rect width="250" height="250" fill="white"/>
</clipPath>
</defs>
</svg>
