<svg xmlns="http://www.w3.org/2000/svg" xml:space="preserve" x="0" y="0" version="1.1" viewBox="0 0 266 254"><path d="M0 0h266v254H0z" fill="none"/><linearGradient id="a" x1="123.186" x2="207.377" y1="185.931" y2="57.306" gradientUnits="userSpaceOnUse"><stop offset=".001" stop-color="#f25a24"/><stop offset="1" stop-color="#fbb03a"/></linearGradient><path d="m179.13 80.58-.83.77-1 .7c-3.41 2.39-10.63 9.72-20.01 21.27-1.96 2.42-4.02 5.01-6.15 7.79l-.12.15c-2.52 3.13-24.69 30.51-35.3 38.43-1.97 1.69-4.1 3.13-6.29 4.37L155.88 171l44.92-50.75-21.67-39.67z" fill="url(#a)"/><linearGradient id="b" x1="63.819" x2="146.945" y1="136.814" y2="9.816" gradientUnits="userSpaceOnUse"><stop offset=".001" stop-color="#f25a24"/><stop offset="1" stop-color="#fbb03a"/></linearGradient><path d="m122.18 88.65 3.1-3.68c1.28-1.63 2.65-3.33 4.07-5.08 7.18-8.82 15.89-18.69 23.5-24.97l-46.93-18.66L61 87l19.41 38.09c4.43-.27 10.13-1.74 11.56-3.06l.89-.83 1-.7c4.3-3.01 14.91-14.15 28.03-31.51l.29-.34z" fill="url(#b)"/><path d="M57.32 177.58h6.08v32.71h-6.08v-32.71zm10.23 16.36c0-9.77 7.48-16.83 17.53-16.83 5.33 0 9.91 1.92 12.95 5.47l-3.93 3.69c-2.38-2.57-5.33-3.83-8.74-3.83-6.78 0-11.68 4.77-11.68 11.5s4.91 11.5 11.68 11.5c3.41 0 6.36-1.26 8.74-3.88l3.93 3.74c-3.04 3.55-7.62 5.47-12.99 5.47-10.01 0-17.49-7.06-17.49-16.83zm71.93-4.72c0 7.2-5.33 11.64-13.93 11.64h-7.38v9.44h-6.08v-32.71h13.46c8.6-.01 13.93 4.39 13.93 11.63zm-6.12 0c0-4.11-2.76-6.5-8.08-6.5h-7.1v12.99h7.1c5.32.01 8.08-2.38 8.08-6.49zm29.96 6.45v14.63h-5.51v-3.04c-1.4 2.15-4.11 3.36-7.85 3.36-5.7 0-9.3-3.13-9.3-7.48 0-4.16 2.8-7.43 10.38-7.43h6.45v-.37c0-3.41-2.06-5.42-6.22-5.42-2.8 0-5.7.93-7.57 2.48l-2.29-4.25c2.66-2.06 6.54-3.08 10.56-3.08 7.19-.01 11.35 3.4 11.35 10.6zm-5.84 6.82v-2.9h-6.03c-3.97 0-5.05 1.5-5.05 3.32 0 2.1 1.78 3.46 4.77 3.46 2.85 0 5.32-1.31 6.31-3.88zm9.16-4.67c0-7.48 5.61-12.76 13.51-12.76 4.86 0 8.74 2.01 10.65 5.8l-4.49 2.62c-1.5-2.38-3.74-3.46-6.22-3.46-4.3 0-7.57 2.99-7.57 7.81 0 4.86 3.27 7.8 7.57 7.8 2.48 0 4.72-1.07 6.22-3.46l4.49 2.62c-1.92 3.74-5.79 5.84-10.65 5.84-7.9 0-13.51-5.33-13.51-12.81zm36.83 1.78-4.35 4.11v6.59h-5.84v-34.68h5.84v20.94l12.1-11.22h7.01l-10.42 10.47 11.4 14.49h-7.1l-8.64-10.7z" fill="#191f25"/><linearGradient id="c" x1="327.058" x2="334.472" y1="416.015" y2="337.828" gradientTransform="rotate(41.522 540.139 -116.837)" gradientUnits="userSpaceOnUse"><stop offset="0" stop-color="#842cf0"/><stop offset="1" stop-color="#28abe3"/></linearGradient><path d="M46.16 102.95c-.1-11.59 6.01-21.81 15.22-27.5l21.24-23.99c-3.32-.22-5.43-.05-5.48-.05-28.01.54-50.51 23.61-50.27 51.69.24 28.27 23.43 51.08 51.7 50.84l-.16-19.29c-17.64.16-32.1-14.06-32.25-31.7z" fill="url(#c)"/><linearGradient id="d" x1="205.704" x2="188.052" y1="169.043" y2="110.472" gradientTransform="rotate(5.616 140.773 -272.236)" gradientUnits="userSpaceOnUse"><stop offset=".001" stop-color="#f25a24"/><stop offset="1" stop-color="#fbb03a"/></linearGradient><path d="m200.8 120.25-43.52-16.94c-1.96 2.42-4.02 5.01-6.15 7.79l-.12.15c-2.52 3.13-24.69 30.51-35.3 38.43-1.97 1.69-4.1 3.13-6.29 4.37L155.88 171l44.92-50.75z" fill="url(#d)"/><linearGradient id="e" x1="209.369" x2="238.253" y1="116.968" y2="72.839" gradientTransform="rotate(5.616 140.773 -272.236)" gradientUnits="userSpaceOnUse"><stop offset=".001" stop-color="#f25a24"/><stop offset="1" stop-color="#fbb03a"/></linearGradient><path d="M177.29 82.04c-3.41 2.39-10.63 9.72-20.01 21.27l43.52 16.94-21.68-39.68-.83.77-1 .7z" fill="url(#e)"/><linearGradient id="f" x1="330.347" x2="346.645" y1="380.207" y2="279.916" gradientTransform="rotate(41.522 540.139 -116.837)" gradientUnits="userSpaceOnUse"><stop offset=".001" stop-color="#f25a24"/><stop offset="1" stop-color="#fbb03a"/></linearGradient><path d="m92.86 121.21 1-.7c4.3-3.01 14.91-14.15 28.03-31.51l.28-.35 3.1-3.68c1.28-1.63 2.65-3.33 4.07-5.08l-23.43-43.64L61 87l19.41 38.09c4.43-.27 10.13-1.74 11.56-3.06l.89-.82z" fill="url(#f)"/><linearGradient id="g" x1="142.278" x2="171.162" y1="73.054" y2="28.925" gradientTransform="rotate(5.616 140.773 -272.236)" gradientUnits="userSpaceOnUse"><stop offset=".001" stop-color="#f25a24"/><stop offset="1" stop-color="#fbb03a"/></linearGradient><path d="m152.85 54.92-46.93-18.66 23.43 43.64c7.19-8.83 15.9-18.7 23.5-24.98z" fill="url(#g)"/><linearGradient id="h" x1="278.845" x2="382.456" y1="348.289" y2="318.686" gradientTransform="rotate(41.522 540.139 -116.837)" gradientUnits="userSpaceOnUse"><stop offset="0" stop-color="#27aae1"/><stop offset="1" stop-color="#522685"/></linearGradient><path d="M78.59 153.91c.3 0 .87-.01 1.67-.05 5.19-.25 19.85-1.7 29.3-9.98 9.85-7.13 33.98-37.11 33.98-37.11 11.52-14.99 22.27-26.81 28.05-30.85l.53-.37.47-.44c4.33-3.98 14.32-5.34 18.53-5.37h.03l-.13-19.29h-.04c-2.22.02-20.07.47-30.97 10.03-9.02 6.52-21.01 20.81-28.87 30.8l-3.19 3.79c-12.1 16-23.86 29.09-29.96 33.36l-.53.37-.48.44c-4.33 3.98-14.32 5.34-18.53 5.37h-.03s-23.39-.94-34.43-14.58c-22.31-35.15.16-55.71.16-55.71s-10.73 8.44-15.21 23.91c-4.62 15.92-4.7 39.22 21.41 58.03 12.53 8.74 28.24 7.65 28.24 7.65z" fill="url(#h)"/><linearGradient id="i" x1="460.845" x2="407.092" y1="267.88" y2="276.449" gradientTransform="rotate(41.522 540.139 -116.837)" gradientUnits="userSpaceOnUse"><stop offset="0" stop-color="#f7941d"/><stop offset="1" stop-color="#ef4136"/></linearGradient><path d="M242.83 101.31c-.24-28.27-23.43-51.08-51.7-50.84 0 0-16.82-.43-28.99 8.32-10.72 6.9-27.41 28.01-27.41 28.01.51 0 24.63-7.58 41.76-14.1 8.46-3.22 16.84-2.89 17.09-2.88 16.58 1.04 29.82 14.79 29.96 31.65.12 14.55-9.55 26.94-22.84 30.91l-8.8 9.95.09 10.69c28.26-.25 51.07-23.44 50.84-51.71z" fill="url(#i)"/><radialGradient id="j" cx="445.08" cy="273.901" r="39.855" gradientTransform="rotate(41.522 540.139 -116.837)" gradientUnits="userSpaceOnUse"><stop offset="0" stop-color="#f7941d"/><stop offset="1" stop-color="#ef4136"/></radialGradient><path d="M237.2 78.01c-7.18-14.49-19.16-20.16-19.16-20.16-.22 0 27.51 16.81 14.2 50.5-5.24 11.5-18.71 18.34-25.85 21.71-1.81.86-3.65 1.5-5.41 1.99l-17.93 20.25c4.48.63 7.89.66 8.78.65h.04s16.69 1.42 33.28-11.99c23.17-22.5 19.64-47.63 12.05-62.95z" fill="url(#j)"/><linearGradient id="k" x1="397.321" x2="368.238" y1="251.22" y2="331.547" gradientTransform="rotate(41.522 540.139 -116.837)" gradientUnits="userSpaceOnUse"><stop offset="0" stop-color="#ef4136"/><stop offset="1" stop-color="#92278f"/></linearGradient><path d="M193.57 69.82c.52.03 1.04.08 1.55.14l-.16-19.38c-1.27-.08-2.55-.12-3.84-.11 0 0-16.83-.63-28.99 8.12-14.29 10.87-27.41 28.21-27.41 28.21-6.2 7.14-22.86 30.25-33.32 38.87-12.6 12.66-32.7 7.58-32.7 7.58.2 0 19.87 10.14 51-11.44 24.95-16.61 46.44-45.17 56.77-49.11 8.47-3.22 16.85-2.9 17.1-2.88z" fill="url(#k)"/></svg>