<svg xmlns="http://www.w3.org/2000/svg" width="42" height="41" fill="none" viewBox="0 0 42 41"><path fill="#F15A24" d="M10.4826 0H1.99998V41H10.4826V0Z"/><rect width="10.646" height="5.316" fill="#F15A24" transform="matrix(-0.641524 -0.767103 -0.918446 0.395546 40.5415 12.3075)"/><rect width="9.954" height="5.493" fill="#F15A24" transform="matrix(-0.0609725 -0.998139 -0.997822 -0.0659715 42 26.1188)"/><rect width="11.086" height="4.898" fill="#F15A24" transform="matrix(0.79487 -0.60678 -0.64522 -0.763997 29.397 37.8536)"/><rect width="22.748" height="2.103" fill="#F15A24" transform="matrix(-1 0 0 1 25.5707 4.25641)"/><rect width="22.748" height="3.154" fill="#F15A24" transform="matrix(-1 0 0 1 25.5707 32.6411)"/><rect width="13.902" height="3.154" fill="#F15A24" transform="matrix(-1 0 0 1 23.0431 24.2308)"/><rect width="15.165" height="2.103" fill="#F15A24" transform="matrix(-1 0 0 1 23.0431 12.6667)"/><rect width="12.337" height="2.993" fill="#F15A24" transform="matrix(-0.615272 -0.788314 -0.92348 0.383646 10.4539 13.9822)"/><rect width="13.309" height="3.376" fill="#F15A24" transform="matrix(-0.677107 0.735884 0.898076 0.439841 9.01123 24.515)"/><path fill="#F15A24" d="M30.5987 19.3021C30.1745 14.6606 25.1244 12.8076 22.6503 12.6787V14.6606C23.8874 14.9185 26.4675 16.5565 26.8916 19.3414C27.3158 22.1263 24.2408 23.7526 22.6503 24.3972L23 27.35C26 27.35 31.0228 23.9436 30.5987 19.3021Z"/><path fill="#F15A24" d="M38.1722 18.6823C37.5001 7.46866 29.4912 4.5679 25.5707 4.25641V6.35897C27.5309 6.98195 34.3771 11.9541 35.0492 18.6823C35.7212 25.4105 27.5203 31.4426 25 33.0001L25.5 35.8501C29.9805 34.2926 38.8443 29.896 38.1722 18.6823Z"/></svg>