<svg fill="none" height="41" viewBox="0 0 42 41" width="42" xmlns="http://www.w3.org/2000/svg"><g fill="#f15a24"><path d="m10.4826 0h-8.48262v41h8.48262z"/><path d="m0 0h10.6464v5.31607h-10.6464z" transform="matrix(-.641524 -.767103 -.918446 .395546 40.5415 12.3075)"/><path d="m0 0h9.95439v5.49276h-9.95439z" transform="matrix(-.0609725 -.998139 -.997822 -.0659715 42 26.1188)"/><path d="m0 0h11.0858v4.8984h-11.0858z" transform="matrix(.79487 -.60678 -.64522 -.763997 29.397 37.8536)"/><path d="m0 0h22.7483v2.10256h-22.7483z" transform="matrix(-1 0 0 1 25.5707 4.25641)"/><path d="m0 0h22.7483v3.15385h-22.7483z" transform="matrix(-1 0 0 1 25.5707 32.6411)"/><path d="m0 0h13.9018v3.15385h-13.9018z" transform="matrix(-1 0 0 1 23.0431 24.2308)"/><path d="m0 0h15.1655v2.10256h-15.1655z" transform="matrix(-1 0 0 1 23.0431 12.6667)"/><path d="m0 0h12.3374v2.9933h-12.3374z" transform="matrix(-.615272 -.788314 -.92348 .383646 10.4539 13.9822)"/><path d="m0 0h13.3085v3.37604h-13.3085z" transform="matrix(-.677107 .735884 .898076 .439841 9.01123 24.515)"/><path d="m30.5987 19.3021c-.4242-4.6415-5.4743-6.4945-7.9484-6.6234v1.9819c1.2371.2579 3.8172 1.8959 4.2413 4.6808.4242 2.7849-2.6508 4.4112-4.2413 5.0558l.3497 2.9528c3 0 8.0228-3.4064 7.5987-8.0479z"/><path d="m38.1722 18.6823c-.6721-11.21364-8.681-14.1144-12.6015-14.42589v2.10256c1.9602.62298 8.8064 5.59513 9.4785 12.32333.672 6.7282-7.5289 12.7603-10.0492 14.3178l.5 2.85c4.4805-1.5575 13.3443-5.9541 12.6722-17.1678z"/></g></svg>