<svg width="135" height="22" viewBox="0 0 135 22" fill="none" xmlns="http://www.w3.org/2000/svg">
<g clip-path="url(#clip0_76_1648)">
<path d="M0 14.0347C0 13.935 0.0196263 13.8363 0.0577583 13.7443C0.0958904 13.6522 0.151781 13.5686 0.22224 13.4981C0.292699 13.4277 0.376346 13.3718 0.468405 13.3336C0.560464 13.2955 0.659132 13.2759 0.758776 13.2759H9.48245V22.0002H0.758776C0.557536 22.0002 0.364538 21.9203 0.22224 21.778C0.0799422 21.6357 0 21.4427 0 21.2415L0 14.0347ZM9.48267 13.2761H21.2414C21.4426 13.2762 21.6355 13.3561 21.7778 13.4983C21.92 13.6406 21.9999 13.8335 22 14.0347V21.2415C22 21.4427 21.9201 21.6357 21.7778 21.778C21.6355 21.9203 21.4425 22.0002 21.2412 22.0002H18.3938C18.1875 22.0002 17.9835 21.9581 17.794 21.8766C17.6046 21.795 17.4338 21.6757 17.292 21.5259L9.48245 13.2759L9.48267 13.2761Z" fill="#98CE00"/>
<path d="M0 0.758776C0 0.557536 0.0799422 0.364538 0.22224 0.22224C0.364538 0.0799422 0.557536 0 0.758776 0L8.72412 0C8.92536 0 9.11836 0.0799422 9.26066 0.22224C9.40296 0.364538 9.4829 0.557536 9.4829 0.758776V13.2759L0.434612 4.06327C0.156076 3.77957 1.5696e-05 3.39788 0 3.00031L0 0.758551V0.758776Z" fill="#98CE00"/>
</g>
<path d="M39.404 17.5V15.736H42.23V6.7H39.404V4.936H47.396V6.7H44.57V15.736H47.396V17.5H39.404ZM54.461 17.716C52.817 17.716 51.599 17.152 50.807 16.024C50.027 14.896 49.637 13.294 49.637 11.218C49.637 9.154 50.027 7.558 50.807 6.43C51.599 5.29 52.817 4.72 54.461 4.72C55.085 4.72 55.631 4.804 56.099 4.972C56.579 5.14 56.993 5.374 57.341 5.674C57.689 5.962 57.977 6.316 58.205 6.736C58.433 7.144 58.613 7.594 58.745 8.086L56.585 8.698C56.501 8.41 56.405 8.14 56.297 7.888C56.189 7.636 56.051 7.42 55.883 7.24C55.727 7.048 55.529 6.904 55.289 6.808C55.049 6.7 54.761 6.646 54.425 6.646C53.609 6.646 53.021 6.958 52.661 7.582C52.313 8.206 52.139 9.058 52.139 10.138V12.298C52.139 13.378 52.313 14.23 52.661 14.854C53.021 15.478 53.609 15.79 54.425 15.79C54.761 15.79 55.049 15.742 55.289 15.646C55.529 15.538 55.727 15.394 55.883 15.214C56.051 15.022 56.189 14.8 56.297 14.548C56.405 14.296 56.501 14.026 56.585 13.738L58.745 14.35C58.613 14.842 58.433 15.298 58.205 15.718C57.977 16.126 57.689 16.48 57.341 16.78C56.993 17.068 56.579 17.296 56.099 17.464C55.631 17.632 55.085 17.716 54.461 17.716ZM79.4989 20.794H77.0689C76.1809 20.794 75.5449 20.566 75.1609 20.11C74.7769 19.666 74.5849 19.072 74.5849 18.328V17.626C73.3009 17.398 72.3589 16.732 71.7589 15.628C71.1589 14.524 70.8589 13.054 70.8589 11.218C70.8589 10.198 70.9489 9.286 71.1289 8.482C71.3209 7.666 71.6089 6.982 71.9929 6.43C72.3889 5.878 72.8869 5.458 73.4869 5.17C74.0869 4.87 74.7949 4.72 75.6109 4.72C77.2429 4.72 78.4429 5.29 79.2109 6.43C79.9789 7.57 80.3629 9.166 80.3629 11.218C80.3629 13.054 80.0629 14.524 79.4629 15.628C78.8629 16.732 77.9209 17.398 76.6369 17.626V19.084H79.4989V20.794ZM75.6109 15.79C76.0309 15.79 76.3849 15.712 76.6729 15.556C76.9609 15.388 77.1889 15.154 77.3569 14.854C77.5369 14.554 77.6629 14.188 77.7349 13.756C77.8189 13.312 77.8609 12.82 77.8609 12.28V10.138C77.8609 9.058 77.6929 8.206 77.3569 7.582C77.0329 6.958 76.4509 6.646 75.6109 6.646C74.7709 6.646 74.1829 6.958 73.8469 7.582C73.5229 8.206 73.3609 9.058 73.3609 10.138V12.298C73.3609 13.378 73.5229 14.23 73.8469 14.854C74.1829 15.478 74.7709 15.79 75.6109 15.79ZM88.0939 15.862H88.0039C87.7999 16.366 87.4819 16.804 87.0499 17.176C86.6299 17.536 86.0419 17.716 85.2859 17.716C84.3739 17.716 83.6299 17.416 83.0539 16.816C82.4899 16.204 82.2079 15.334 82.2079 14.206V8.212H84.5119V13.882C84.5119 15.226 85.0939 15.898 86.2579 15.898C86.4859 15.898 86.7079 15.868 86.9239 15.808C87.1519 15.748 87.3499 15.658 87.5179 15.538C87.6979 15.406 87.8359 15.25 87.9319 15.07C88.0399 14.89 88.0939 14.674 88.0939 14.422V8.212H90.3979V17.5H88.0939V15.862ZM97.3008 17.716C96.5568 17.716 95.8968 17.602 95.3208 17.374C94.7448 17.146 94.2588 16.822 93.8628 16.402C93.4788 15.982 93.1848 15.478 92.9808 14.89C92.7768 14.29 92.6748 13.618 92.6748 12.874C92.6748 12.118 92.7768 11.44 92.9808 10.84C93.1968 10.24 93.4968 9.73 93.8808 9.31C94.2648 8.89 94.7268 8.566 95.2668 8.338C95.8188 8.11 96.4368 7.996 97.1208 7.996C97.7928 7.996 98.3988 8.11 98.9388 8.338C99.4788 8.554 99.9348 8.866 100.307 9.274C100.691 9.682 100.985 10.174 101.189 10.75C101.393 11.326 101.495 11.962 101.495 12.658V13.414H94.9788V13.648C94.9788 14.32 95.1888 14.866 95.6088 15.286C96.0288 15.694 96.6168 15.898 97.3728 15.898C97.9488 15.898 98.4408 15.784 98.8488 15.556C99.2688 15.316 99.6168 15.004 99.8928 14.62L101.207 15.934C100.871 16.426 100.379 16.846 99.7308 17.194C99.0948 17.542 98.2848 17.716 97.3008 17.716ZM97.1388 9.688C96.4908 9.688 95.9688 9.892 95.5728 10.3C95.1768 10.708 94.9788 11.248 94.9788 11.92V12.046H99.1908V11.884C99.1908 11.212 99.0048 10.678 98.6328 10.282C98.2728 9.886 97.7748 9.688 97.1388 9.688ZM107.786 17.716C106.766 17.716 105.884 17.56 105.14 17.248C104.396 16.924 103.814 16.492 103.394 15.952L104.744 14.728C105.128 15.148 105.566 15.472 106.058 15.7C106.562 15.928 107.144 16.042 107.804 16.042C108.38 16.042 108.842 15.946 109.19 15.754C109.538 15.562 109.712 15.268 109.712 14.872C109.712 14.536 109.592 14.308 109.352 14.188C109.124 14.068 108.818 13.978 108.434 13.918L106.94 13.684C106.556 13.624 106.178 13.54 105.806 13.432C105.446 13.312 105.122 13.15 104.834 12.946C104.558 12.742 104.336 12.484 104.168 12.172C104 11.848 103.916 11.458 103.916 11.002C103.916 10.03 104.276 9.286 104.996 8.77C105.728 8.254 106.73 7.996 108.002 7.996C108.902 7.996 109.664 8.122 110.288 8.374C110.924 8.626 111.446 8.98 111.854 9.436L110.648 10.768C110.384 10.48 110.03 10.228 109.586 10.012C109.154 9.784 108.602 9.67 107.93 9.67C106.754 9.67 106.166 10.036 106.166 10.768C106.166 11.104 106.286 11.338 106.526 11.47C106.766 11.59 107.078 11.68 107.462 11.74L108.938 11.974C109.334 12.034 109.712 12.124 110.072 12.244C110.444 12.352 110.768 12.508 111.044 12.712C111.332 12.916 111.56 13.174 111.728 13.486C111.896 13.798 111.98 14.182 111.98 14.638C111.98 15.598 111.608 16.354 110.864 16.906C110.132 17.446 109.106 17.716 107.786 17.716ZM119.189 17.5C118.301 17.5 117.647 17.266 117.227 16.798C116.807 16.33 116.597 15.724 116.597 14.98V10.03H113.897V8.212H115.733C116.105 8.212 116.369 8.14 116.525 7.996C116.681 7.84 116.759 7.57 116.759 7.186V4.936H118.901V8.212H122.681V10.03H118.901V15.682H122.681V17.5H119.189ZM129.26 17.716C128.24 17.716 127.358 17.56 126.614 17.248C125.87 16.924 125.288 16.492 124.868 15.952L126.218 14.728C126.602 15.148 127.04 15.472 127.532 15.7C128.036 15.928 128.618 16.042 129.278 16.042C129.854 16.042 130.316 15.946 130.664 15.754C131.012 15.562 131.186 15.268 131.186 14.872C131.186 14.536 131.066 14.308 130.826 14.188C130.598 14.068 130.292 13.978 129.908 13.918L128.414 13.684C128.03 13.624 127.652 13.54 127.28 13.432C126.92 13.312 126.596 13.15 126.308 12.946C126.032 12.742 125.81 12.484 125.642 12.172C125.474 11.848 125.39 11.458 125.39 11.002C125.39 10.03 125.75 9.286 126.47 8.77C127.202 8.254 128.204 7.996 129.476 7.996C130.376 7.996 131.138 8.122 131.762 8.374C132.398 8.626 132.92 8.98 133.328 9.436L132.122 10.768C131.858 10.48 131.504 10.228 131.06 10.012C130.628 9.784 130.076 9.67 129.404 9.67C128.228 9.67 127.64 10.036 127.64 10.768C127.64 11.104 127.76 11.338 128 11.47C128.24 11.59 128.552 11.68 128.936 11.74L130.412 11.974C130.808 12.034 131.186 12.124 131.546 12.244C131.918 12.352 132.242 12.508 132.518 12.712C132.806 12.916 133.034 13.174 133.202 13.486C133.37 13.798 133.454 14.182 133.454 14.638C133.454 15.598 133.082 16.354 132.338 16.906C131.606 17.446 130.58 17.716 129.26 17.716Z" fill="#95C901"/>
<defs>
<clipPath id="clip0_76_1648">
<rect width="22" height="22" fill="white"/>
</clipPath>
</defs>
</svg>
