<svg xmlns="http://www.w3.org/2000/svg" width="300" height="300"><path fill="#FCFCFC" d="M0 0h300v300H0z"/><path fill="#040404" d="M208 65c1.42 1.18 2.82 2.385 4.188 3.625 2.231 2.016 4.296 3.698 6.812 5.375l1 3 2.188 2.063c6.06 5.92 9.34 13.803 12.562 21.5l.89 2.108c4.431 10.933 4.926 21.771 5.57 33.464.076 1.21.15 2.42.227 3.666l.184 3.317c.26 3.188.26 3.188 2.379 6.882h10c3.275-27.833-1.282-54.833-18.852-77.21-5.95-7.726-5.95-7.726-6.648-11.478.5-2.312.5-2.312 2.25-4.187C233 56 233 56 234.906 56.25c11.242 4.027 18.615 18.738 23.426 28.734 6.821 15.695 10.025 32.162 10.043 49.204l.074 3.693c.027 8.213-.723 13.712-6.16 20.142-4.825 3.92-8.88 6.326-15.289 5.852-6.328-1.059-10.68-4.93-14.59-9.815-4.275-6.245-4.809-13.333-4.91-20.685-.67-19.827-5.654-38.585-20.068-52.936-18.731-17.106-40.957-22.698-65.85-21.668-3.529.313-6.925 1.006-10.373 1.805C129 61 129 61 125 61v2c-3.312.313-3.312.313-7 0-2.772-3.219-3-4.694-3-9h3v-3c31.655-11.75 62.817-5.088 90 14"/><path fill="#040404" d="m206.438 32.188 2.206 1.008c3.431 1.635 5.206 2.58 7.356 5.804-.157 3.13-.559 4.543-2.75 6.813-2.87 1.514-4.03 1.772-7.25 1.187a455 455 0 0 1-5.39-3.5c-23.477-13.495-55.323-14.714-80.998-7.929C100.469 40.997 79.779 52.53 68 69l-1.36 1.825c-5.998 8.106-11.16 16.264-14.702 25.737l-.796 2.102c-5.47 15.916-5.448 31.773-5.005 48.376.066 2.7.108 5.4.148 8.1l.091 2.478c.052 4.005-.075 5.901-2.253 9.385-2.134 2.008-3.247 2.689-6.123 2.997-6.231-5.911-5.816-11.746-6.105-19.995C31.551 133.573 31.93 117.78 37 102l.8-2.559C41.106 89.646 48.489 67.756 58 63l.813-1.75C60.406 58.23 62.527 56.365 65 54l1.719-1.816C73.308 45.284 80.797 39.839 89 35l2.5-1.625c2.548-1.401 4.638-1.966 7.5-2.375v-2c37.134-13.326 71.31-13.46 107.438 3.188"/><path fill="#030303" d="M172 106c6.852 5.785 12.085 12.904 13.438 21.918.259 3.236.425 6.464.562 9.707.942 15.34 3.422 27.315 12 40.375l1.938 3.313c2.454 3.198 5.251 5.615 8.355 8.171C210 191 210 191 211 193c1.649.976 3.303 1.944 4.984 2.863 2.007 1.132 3.907 2.367 5.828 3.637 3.809 2.425 7.743 4.001 11.989 5.508 2.334 1.053 3.65 1.959 5.199 3.992-.125 3.063-.125 3.063-1 6-3.43 2.287-5.25 2.286-9.266 1.734-8.76-2.352-16.135-7.709-22.734-13.734l-3-1a179 179 0 0 1-4-4l-2.875-2.25c-5.554-4.57-8.996-10.365-12.125-16.75l-1.684-3.05c-7.11-13.225-9.766-26.185-9.901-41.175-.116-6.44-1.417-10.572-5.852-15.463-6.325-5.707-10.684-6.72-19.188-6.664-5.747.6-10.314 2.917-14.055 7.336-2.865 4.375-2.488 8.864-2.53 13.899l-.087 5.48c-.04 2.859-.078 5.717-.104 8.575-.39 38.336-.39 38.336-10.564 50.39C118 200 118 200 114.875 199.938 112 199 112 199 110 196c-.603-3.516.202-5.554 1.875-8.562 6.372-12.222 4.48-28.15 4.506-41.544.01-2.905.043-5.81.08-8.714l-.015-2.646c.16-10.157 4.152-18.801 11.054-26.221L130 106l1.75-1.625c12.582-7.689 28.057-5.928 40.25 1.625"/><path fill="#040404" d="M94.688 65.375C97 66 97 66 98.875 68.188c1.328 3.32 1.448 4.505.125 7.812-2.187 2.375-2.187 2.375-5 5-12.307 13.438-19.293 28.34-19.273 46.719l-.063 6.265q-.035 4.87-.045 9.74c-.1 32.622-.1 32.622-9.119 45.151l-1.145 1.754c-2.08 3.067-3.825 5.103-7.355 6.371v2c-3.312.313-3.312.313-7 0-2-2.187-2-2.187-3-5 .252-3.534 1.002-5.003 3-8l1.875-.75c3.802-2.237 5.48-6.147 6.735-10.237 1.356-5.856 1.685-11.429 1.699-17.427l.076-5.996q.042-4.65.071-9.3c.151-20.815 1.548-45.024 17.165-60.942L79 80l.875-1.875C81.44 75.168 83.557 73.276 86 71l1.484-1.43c2.324-2.12 4.117-3.477 7.204-4.195M152.125 129.125C155 130 155 130 157 133c.254 1.95.254 1.95.259 4.19l.019 2.55-.012 2.756.005 2.86q.002 3.006-.01 6.01c-.01 3.029 0 6.057.012 9.085.013 13.442-.294 25.584-6.148 37.924l-1.027 2.285A75.5 75.5 0 0 1 143 213l-1.422 2.09c-8.692 12.092-21.059 19.71-35.015 24.41l-2.295.774C100.104 241.588 96.411 242.52 92 242c-2.875-2.5-2.875-2.5-5-5 3.253-6.739 3.253-6.739 6.836-7.992l3.539-.883C108.654 225.1 118.755 221.457 127 213l2.063-1.375c2.258-1.895 3.456-4.016 4.812-6.613C135 203 135 203 136.988 200.25c2.198-3.55 3.274-6.918 4.2-10.937l.498-1.952c2.807-11.627 2.416-23.489 2.314-35.361q-.04-4.72-.062-9.437l-.026-2.169c-.036-7.229-.036-7.229 2.775-10.144C149 129 149 129 152.126 129.125"/><path fill="#030303" d="M190 88c2.967.07 5.195.327 7.523 2.273 10.035 11.31 15.107 24.901 15.872 39.903l.209 3.51q.207 3.608.382 7.218c.812 12.95 5.449 21.95 14.764 30.909 7.447 6.168 15.778 6.527 25.148 6.683 3.686.599 4.895 1.54 7.102 4.504-.071 2.913-.568 4.424-2.312 6.75-4.501 3.334-10.393 2.58-15.715 2.047-5.177-.887-9.72-2.93-14.41-5.234l-1.866-.91c-3.178-1.627-4.674-2.619-6.697-5.653l-2.375-1.312c-3.305-2.125-4.597-4.33-6.625-7.688l-1.219-1.781c-5.88-8.748-8.716-18.245-9.071-28.704-.486-14.018-1.63-28.892-11.523-39.765C187 98 187 98 186.5 94.875c.542-3.114 1.377-4.575 3.5-6.875"/><path fill="#020202" d="M170.188 75.813C172 78 172 78 172.438 80.563 172 83 172 83 170 86c-2.683.277-2.683.277-6.082.152l-3.768-.084q-3.899-.127-7.796-.273c-11.326-.238-21.553 1.537-30.917 8.205l-2.878 2c-10.83 8.465-14.418 21.093-17.559 34h-2v2l-7 1c-2.474-2.969-3.305-5.402-3.187-9.187 2.546-17.933 13.869-31.575 27.859-42.2 13.866-9.608 38.166-14.529 53.516-5.8"/><path fill="#060606" d="m178 198 1 1c-.382 6.236-1.987 11.216-4.562 16.875l-1.076 2.385c-4.166 8.906-9.62 15.718-17.362 21.74l-2.25 2.313C146.702 249.2 133.65 261 123 261v2c-2.75.313-2.75.313-6 0-2.779-2.56-3.913-4.023-4.25-7.812L113 253h2v-2l3.105-1.207 4.082-1.606 2.042-.79c5.496-2.172 10.162-4.663 14.584-8.647 2.013-1.814 4.012-3.61 6.128-5.305 4.403-3.575 7.916-7.54 11.371-12.007l1.275-1.644c3.633-4.822 6.215-9.716 7.976-15.482.9-2.943 1.686-4.685 3.437-7.312 3.5-1.569 5.66-.625 9 1M200 218c2 3 2 3 1.762 5.395C197.807 236.92 188.836 249.239 178 258l-2.312 2.375c-5.711 5.578-12.002 9.985-18.875 14l-1.764 1.048c-3.669 2.084-6.858 3.132-11.049 3.577-3.915-4.153-3.915-4.153-4.25-7.5 1.981-3.962 5.466-5.42 9.25-7.5 3.624-2.098 7.003-4.392 10.375-6.875 5.527-4.062 5.527-4.062 7.319-5.22 4.893-3.234 8.088-7.041 11.494-11.78l1.537-2.066c3.898-5.31 7.534-10.747 9.9-16.934 2.363-5.37 5.089-4.258 10.375-3.125"/><path fill="#050505" d="M100 156c4.04 6.06 2.178 13.966.875 20.813-2.399 10.27-6.42 19.754-12.559 28.343-1.47 1.995-1.47 1.995-3.066 4.906L84 212h-2l-.75 1.688C78.753 218.306 75.917 221.942 71 224c-3.687-.062-3.687-.062-7-1-1.5-1.812-1.5-1.812-2-4 .29-2.857.767-3.797 2.96-5.71q2.407-1.659 4.813-3.313c2.693-2.391 3.704-4.732 5.227-7.977 1.951-2.766 4-5.437 6.063-8.121 4.8-7.133 5.64-13.642 6.5-22.066q.335-3.21.69-6.418l.292-2.849c.457-2.559 1.081-4.348 2.455-6.546 3.149-1.574 5.645-.719 9 0"/><path fill="#666" d="m132 76-2.082 1.242-2.73 1.633-2.708 1.617A156 156 0 0 0 119 84c-2.187-.375-2.187-.375-4-1 12.845-9.077 12.845-9.077 17-7"/><path fill="#BCBCBC" d="m119 95 2 1-9 8c0-3 0-3 1.531-4.605l1.969-1.582 1.969-1.606z"/><path fill="#8D8D8D" d="m72 205 1 3-7 6-2-1q1.432-1.724 2.875-3.437l1.617-1.934C70 206 70 206 72 205"/><path fill="#BCBCBC" d="m138 115 2 1-7 6v-3c2.5-2.187 2.5-2.187 5-4"/><path fill="#3D3D3D" d="M121.25 80.313 123 81c-1.75 1.563-1.75 1.563-4 3-2.25-.312-2.25-.312-4-1 3.446-3.077 3.446-3.077 6.25-2.687"/></svg>