<?xml version="1.0" encoding="UTF-8"?>
<svg version="1.1" xmlns="http://www.w3.org/2000/svg" width="86" height="67">
<path d="M0 0 C0 0.66 0 1.32 0 2 C0.73605469 1.95617187 1.47210938 1.91234375 2.23046875 1.8671875 C5.41966608 1.87561338 7.95283917 2.0285035 11 3 C13.4629475 6.06303005 14.7794063 9.28427 16 13 C16.99 13 17.98 13 19 13 C18.49701212 17.40114397 16.91227269 19.71195019 14 23 C14.804375 23.12375 15.60875 23.2475 16.4375 23.375 C17.7059375 23.684375 17.7059375 23.684375 19 24 C20.35439668 26.70879335 20.06501451 29.00933268 20 32 C20.99 32 21.98 32 23 32 C23 34.31 23 36.62 23 39 C17.70769231 41.21538462 17.70769231 41.21538462 14.125 40.125 C13.42375 39.75375 12.7225 39.3825 12 39 C11.67 39.33 11.34 39.66 11 40 C7.625 39.875 7.625 39.875 4 39 C1.30728308 35.46263367 0.48081889 32.29388858 -0.125 27.9375 C-0.60956776 24.56677862 -1.1013897 21.28702189 -2 18 C-3.2375 18.0825 -4.475 18.165 -5.75 18.25 C-8.80700305 18.23373935 -9.828179 18.10738813 -12.5 16.4375 C-14.62011145 12.99231889 -14.61814926 10.98362857 -14 7 C-10.46435895 0.95432371 -6.74488564 -0.14988635 0 0 Z " fill="#8B4612" transform="translate(59,6)"/>
<path d="M0 0 C0.99 0 1.98 0 3 0 C3.33 1.32 3.66 2.64 4 4 C13.9 4 23.8 4 34 4 C34 3.34 34 2.68 34 2 C34.99 2 35.98 2 37 2 C37.66 2.66 38.32 3.32 39 4 C42.58343976 4.16677282 42.58343976 4.16677282 46 4 C46 6.31 46 8.62 46 11 C43.29077648 11.90307451 41.77304378 12.10976779 39 12.0625 C38.319375 12.05347656 37.63875 12.04445313 36.9375 12.03515625 C36.298125 12.02355469 35.65875 12.01195312 35 12 C33.13526937 12 31.27029584 12.01978114 29.40625 12.0703125 C27.96765625 12.09738281 27.96765625 12.09738281 26.5 12.125 C25.06140625 12.15980469 25.06140625 12.15980469 23.59375 12.1953125 C21 12 21 12 18 10 C16.02 10.99 16.02 10.99 14 12 C13.34 11.01 12.68 10.02 12 9 C11.67 9.99 11.34 10.98 11 12 C10.4225 11.814375 9.845 11.62875 9.25 11.4375 C6.75630228 10.95261433 5.40788787 11.30093578 3 12 C2.01 12 1.02 12 0 12 C0 8.04 0 4.08 0 0 Z M37 6 C38 9 38 9 38 9 Z M41 7 C41.66 7.66 42.32 8.32 43 9 C43 8.34 43 7.68 43 7 C42.34 7 41.68 7 41 7 Z " fill="#0D6507" transform="translate(0,19)"/>
<path d="M0 0 C4.37823917 -0.04938149 8.75633146 -0.0857104 13.13476562 -0.10986328 C14.6247032 -0.11993043 16.11462097 -0.13358518 17.60449219 -0.15087891 C19.74419028 -0.17509653 21.88362753 -0.18647564 24.0234375 -0.1953125 C25.31169434 -0.20578613 26.59995117 -0.21625977 27.92724609 -0.22705078 C31 0 31 0 33 2 C33.1953125 4.6015625 33.1953125 4.6015625 33.125 7.625 C33.10695312 8.62789062 33.08890625 9.63078125 33.0703125 10.6640625 C33.04710937 11.43492188 33.02390625 12.20578125 33 13 C31.35 13 29.7 13 28 13 C27.67 10.36 27.34 7.72 27 5 C26.67 5 26.34 5 26 5 C25.67 7.64 25.34 10.28 25 13 C23.35 13 21.7 13 20 13 C19.67 10.36 19.34 7.72 19 5 C18.67 5 18.34 5 18 5 C17.67 7.64 17.34 10.28 17 13 C15.35 13 13.7 13 12 13 C11.67 10.03 11.34 7.06 11 4 C9.35 4.33 7.7 4.66 6 5 C6 7.31 6 9.62 6 12 C4.34385343 12.38218767 2.67542976 12.71395102 1 13 C0 12 0 12 -0.09765625 9.27734375 C-0.08605469 8.17519531 -0.07445312 7.07304688 -0.0625 5.9375 C-0.05347656 4.83277344 -0.04445312 3.72804687 -0.03515625 2.58984375 C-0.02355469 1.73519531 -0.01195312 0.88054688 0 0 Z " fill="#0B6105" transform="translate(48,49)"/>
<path d="M0 0 C2.64 0 5.28 0 8 0 C9.35439668 2.70879335 9.06501451 5.00933268 9 8 C9.99 8 10.98 8 12 8 C12 10.31 12 12.62 12 15 C6.70769231 17.21538462 6.70769231 17.21538462 3.125 16.125 C2.42375 15.75375 1.7225 15.3825 1 15 C0.67 15.33 0.34 15.66 0 16 C-6.72 15.28 -6.72 15.28 -8 14 C-8.07205511 12.31391034 -8.08386068 10.62499341 -8.0625 8.9375 C-8.05347656 8.01839844 -8.04445312 7.09929688 -8.03515625 6.15234375 C-8.02355469 5.44207031 -8.01195312 4.73179688 -8 4 C-3.25 2.875 -3.25 2.875 -1 4 C-0.67 2.68 -0.34 1.36 0 0 Z " fill="#F7CD20" transform="translate(70,30)"/>
<path d="M0 0 C3.96 0 7.92 0 12 0 C11.67 1.65 11.34 3.3 11 5 C9.02 5 7.04 5 5 5 C5.33 5.66 5.66 6.32 6 7 C9.02934491 7.65772428 9.02934491 7.65772428 12 8 C12 9.32 12 10.64 12 12 C10.02 12.33 8.04 12.66 6 13 C6 15.31 6 17.62 6 20 C4.02 20 2.04 20 0 20 C0 13.4 0 6.8 0 0 Z " fill="#096204" transform="translate(20,42)"/>
<path d="M0 0 C4.54101562 0.24414062 4.54101562 0.24414062 9.08203125 0.48828125 C9.08203125 4.44828125 9.08203125 8.40828125 9.08203125 12.48828125 C-0.53335337 14.41135817 -0.53335337 14.41135817 -4.91796875 11.48828125 C-5.99702878 8.019874 -6.2080456 6.19143574 -4.8125 2.80859375 C-2.91796875 0.48828125 -2.91796875 0.48828125 0 0 Z M0.08203125 4.48828125 C0.41203125 6.13828125 0.74203125 7.78828125 1.08203125 9.48828125 C2.07203125 9.15828125 3.06203125 8.82828125 4.08203125 8.48828125 C3.75203125 7.16828125 3.42203125 5.84828125 3.08203125 4.48828125 C2.09203125 4.48828125 1.10203125 4.48828125 0.08203125 4.48828125 Z " fill="#076404" transform="translate(37.91796875,48.51171875)"/>
<path d="M0 0 C5.61 0 11.22 0 17 0 C17 1.32 17 2.64 17 4 C11.39 4 5.78 4 0 4 C0 2.68 0 1.36 0 0 Z " fill="#076306" transform="translate(2,50)"/>
<path d="M0 0 C2.64 0 5.28 0 8 0 C9.35439668 2.70879335 9.06501451 5.00933268 9 8 C9.99 8.33 10.98 8.66 12 9 C9.03 8.505 9.03 8.505 6 8 C6.33 6.35 6.66 4.7 7 3 C5.68 3 4.36 3 3 3 C2.67 4.32 2.34 5.64 2 7 C2 5.68 2 4.36 2 3 C1.34 3 0.68 3 0 3 C0 3.66 0 4.32 0 5 C-2.31 5 -4.62 5 -7 5 C-6.67 8.3 -6.34 11.6 -6 15 C-6.66 14.67 -7.32 14.34 -8 14 C-8 10.7 -8 7.4 -8 4 C-3.25 2.875 -3.25 2.875 -1 4 C-0.67 2.68 -0.34 1.36 0 0 Z " fill="#DFB222" transform="translate(70,30)"/>
<path d="M0 0 C0.66 0 1.32 0 2 0 C2 1.32 2 2.64 2 4 C0.02 4.33 -1.96 4.66 -4 5 C-3.67 5.66 -3.34 6.32 -3 7 C-2.01 7 -1.02 7 0 7 C0 7.99 0 8.98 0 10 C-0.99 10 -1.98 10 -3 10 C-3 10.66 -3 11.32 -3 12 C-3.99 12 -4.98 12 -6 12 C-7.60725635 8.78548731 -7.05748185 5.56387464 -7 2 C-4.69 2 -2.38 2 0 2 C0 1.34 0 0.68 0 0 Z " fill="#F9D429" transform="translate(70,33)"/>
<path d="M0 0 C0.66 0 1.32 0 2 0 C2 0.66 2 1.32 2 2 C2.66 2.33 3.32 2.66 4 3 C3.67 5.97 3.34 8.94 3 12 C1.68 12 0.36 12 -1 12 C-1.02687279 10.18757948 -1.04633715 8.37504767 -1.0625 6.5625 C-1.07410156 5.55316406 -1.08570313 4.54382812 -1.09765625 3.50390625 C-1 1 -1 1 0 0 Z M5 0 C5.99 0 6.98 0 8 0 C8 0.66 8 1.32 8 2 C6.68 1.67 5.36 1.34 4 1 C4.33 0.67 4.66 0.34 5 0 Z " fill="#046403" transform="translate(50,50)"/>
<path d="M0 0 C3.96 0 7.92 0 12 0 C12 3.96 12 7.92 12 12 C7 13 7 13 5 13 C5 12.01 5 11.02 5 10 C4.01 9.67 3.02 9.34 2 9 C1.3125 6.9375 1.3125 6.9375 1 5 C1.66 5 2.32 5 3 5 C3.99 6.485 3.99 6.485 5 8 C5.66 8 6.32 8 7 8 C7.33 8.99 7.66 9.98 8 11 C8.66 11 9.32 11 10 11 C10 8.03 10 5.06 10 2 C6.7 1.67 3.4 1.34 0 1 C0 0.67 0 0.34 0 0 Z " fill="#136308" transform="translate(35,49)"/>
<path d="M0 0 C0.99 0 1.98 0 3 0 C3 0.66 3 1.32 3 2 C6.63 2.33 10.26 2.66 14 3 C14 3.99 14 4.98 14 6 C12.56163249 5.88541307 11.12429034 5.75790884 9.6875 5.625 C8.88699219 5.55539063 8.08648437 5.48578125 7.26171875 5.4140625 C5 5 5 5 2 3 C2 2.34 2 1.68 2 1 C1.34 0.67 0.68 0.34 0 0 Z " fill="#714415" transform="translate(56,6)"/>
<path d="M0 0 C1.65 0 3.3 0 5 0 C4.67 1.65 4.34 3.3 4 5 C2.35 5.33 0.7 5.66 -1 6 C-1.33 5.34 -1.66 4.68 -2 4 C-1.34 4 -0.68 4 0 4 C0 2.68 0 1.36 0 0 Z " fill="#E7A510" transform="translate(77,41)"/>
<path d="M0 0 C-0.33 1.98 -0.66 3.96 -1 6 C-3.66666667 6 -6.33333333 6 -9 6 C-8.34 5.67 -7.68 5.34 -7 5 C-7 4.34 -7 3.68 -7 3 C-2.61538462 0 -2.61538462 0 0 0 Z " fill="#E1AD10" transform="translate(74,40)"/>
<path d="M0 0 C1.32 0 2.64 0 4 0 C3.67 1.65 3.34 3.3 3 5 C1.68 4.67 0.36 4.34 -1 4 C-0.67 2.68 -0.34 1.36 0 0 Z " fill="#F6A404" transform="translate(73,33)"/>
<path d="M0 0 C2 1 2 1 4 4 C2.68 4 1.36 4 0 4 C-0.33 5.32 -0.66 6.64 -1 8 C-1.625 5.125 -1.625 5.125 -2 2 C-1.34 1.34 -0.68 0.68 0 0 Z " fill="#984F15" transform="translate(62,30)"/>
<path d="M0 0 C3.3 0 6.6 0 10 0 C10 0.33 10 0.66 10 1 C9.21625 1.0825 8.4325 1.165 7.625 1.25 C4.85250896 1.72806339 4.85250896 1.72806339 3.6875 4.0625 C3.3471875 5.0215625 3.3471875 5.0215625 3 6 C2.87625 5.195625 2.7525 4.39125 2.625 3.5625 C2.315625 2.2940625 2.315625 2.2940625 2 1 C1.34 0.67 0.68 0.34 0 0 Z " fill="#13660A" transform="translate(16,23)"/>
<path d="M0 0 C1.98 0 3.96 0 6 0 C5.34 1.32 4.68 2.64 4 4 C3.01 3.67 2.02 3.34 1 3 C0.67 2.01 0.34 1.02 0 0 Z " fill="#F4B30B" transform="translate(65,37)"/>
</svg>
