<?xml version="1.0" standalone="no"?>
<!DOCTYPE svg PUBLIC "-//W3C//DTD SVG 20010904//EN"
 "http://www.w3.org/TR/2001/REC-SVG-20010904/DTD/svg10.dtd">
<svg version="1.0" xmlns="http://www.w3.org/2000/svg"
 width="2048.000000pt" height="1024.000000pt" viewBox="0 0 2048.000000 1024.000000"
 preserveAspectRatio="xMidYMid meet">

<g transform="translate(0.000000,1024.000000) scale(0.100000,-0.100000)"
fill="#000000" stroke="none">
<path d="M3062 7910 c-234 -62 -415 -244 -479 -480 -17 -61 -18 -198 -18
-2315 0 -2117 1 -2254 18 -2315 52 -192 176 -344 352 -431 145 -72 81 -69
1441 -69 1074 0 1232 2 1305 16 353 67 630 341 703 696 14 67 16 184 16 865 0
504 -4 804 -11 833 -19 83 -69 172 -133 235 -75 74 -136 107 -256 139 -51 14
-95 27 -97 30 -3 3 15 10 38 16 186 47 271 94 351 194 26 32 60 88 75 125 l28
66 0 840 0 840 -23 78 c-91 315 -305 531 -624 629 l-73 23 -1270 2 c-1225 2
-1273 1 -1343 -17z m2392 -701 c73 -27 148 -96 183 -167 l28 -57 0 -645 0
-645 -28 -57 c-35 -72 -110 -140 -184 -168 -54 -20 -70 -21 -492 -18 l-436 3
-57 28 c-64 31 -124 94 -160 165 l-23 47 0 645 0 645 25 50 c35 72 114 148
180 173 53 20 73 21 482 21 407 1 430 0 482 -20z m32 -2461 c67 -35 138 -115
163 -184 20 -53 21 -74 21 -679 0 -614 0 -625 -21 -682 -26 -69 -95 -146 -161
-179 -26 -13 -78 -28 -115 -34 -88 -13 -708 -13 -796 0 -118 17 -213 85 -264
189 l-28 56 0 650 0 650 28 57 c34 70 110 140 180 167 50 19 72 20 497 18
l445 -2 51 -27z"/>
<path d="M7518 7911 c-149 -48 -263 -171 -297 -322 -7 -29 -11 -870 -11 -2469
0 -2641 -4 -2474 55 -2590 31 -61 106 -137 171 -172 103 -56 128 -58 625 -58
266 0 479 4 510 10 147 28 275 139 332 288 l22 57 3 2420 c2 1684 -1 2440 -8
2485 -27 166 -138 296 -299 350 -58 19 -83 20 -553 19 -450 0 -498 -2 -550
-18z"/>
<path d="M9558 7916 c-98 -35 -157 -87 -206 -180 -24 -46 -27 -62 -27 -151 0
-86 3 -107 25 -150 35 -73 114 -147 185 -175 58 -23 73 -24 421 -29 l360 -6
76 -38 c130 -64 222 -184 247 -321 8 -42 11 -674 11 -2127 0 -2042 0 -2068 20
-2132 22 -72 87 -167 141 -208 52 -39 128 -75 187 -88 72 -15 941 -15 1014 0
134 28 252 122 311 246 l32 68 5 2120 c4 1724 8 2127 19 2160 42 128 133 233
251 289 l65 31 360 6 c343 5 363 6 417 28 186 73 272 288 189 475 -25 58 -102
135 -166 166 l-50 25 -1925 2 c-1567 2 -1932 0 -1962 -11z"/>
<path d="M14398 7911 c-123 -40 -216 -121 -271 -239 l-32 -67 -3 -1459 c-3
-1625 -7 -1509 67 -1661 74 -150 215 -273 381 -330 l85 -29 355 -6 355 -5 48
-28 c26 -15 60 -47 75 -69 l27 -42 6 -655 c6 -732 3 -702 77 -817 67 -103 177
-174 302 -194 84 -13 873 -13 963 0 160 23 291 130 354 290 16 41 18 104 23
700 5 647 5 656 27 695 45 85 102 115 238 125 152 12 232 47 323 144 61 64 96
137 112 228 7 44 10 539 8 1613 l-3 1550 -23 57 c-31 75 -101 150 -177 185
-52 24 -72 28 -150 28 -78 0 -97 -4 -146 -28 -67 -32 -142 -109 -172 -175
l-22 -47 -5 -1280 c-5 -1154 -7 -1285 -22 -1327 -23 -67 -59 -126 -110 -177
-56 -56 -102 -85 -180 -112 -57 -20 -88 -23 -323 -27 -319 -5 -419 5 -512 49
-92 44 -164 118 -211 216 l-37 78 -5 1245 -5 1245 -22 55 c-50 121 -121 197
-241 253 l-67 32 -515 2 c-477 2 -519 1 -572 -16z"/>
</g>
</svg>
