<svg fill="none" height="112" viewBox="0 0 112 112" width="112" xmlns="http://www.w3.org/2000/svg" xmlns:xlink="http://www.w3.org/1999/xlink"><linearGradient id="a" gradientUnits="userSpaceOnUse" x1="16" x2="95.8161" y1="69.2598" y2="69.2598"><stop offset="0" stop-color="#a3b5bd" stop-opacity=".9"/><stop offset=".059645" stop-color="#c3d7e0" stop-opacity=".9"/><stop offset=".179573" stop-color="#c3d7e0" stop-opacity=".9"/><stop offset="1" stop-color="#edf5f9" stop-opacity=".9"/></linearGradient><radialGradient id="b" cx="0" cy="0" gradientTransform="matrix(0 8.75402 -33.7654 0 55.9081 95.7793)" gradientUnits="userSpaceOnUse" r="1"><stop offset="0" stop-color="#3c6370" stop-opacity=".49"/><stop offset="1" stop-color="#193239" stop-opacity=".04"/></radialGradient><linearGradient id="c"><stop offset="0" stop-opacity="0"/><stop offset="1" stop-opacity=".4"/></linearGradient><linearGradient id="d" gradientUnits="userSpaceOnUse" x1="49.4713" x2="34.2805" xlink:href="#c" y1="66.1701" y2="57.6736"/><linearGradient id="e" gradientUnits="userSpaceOnUse" x1="55.9081" x2="55.9081" xlink:href="#c" y1="81.4897" y2="94.7494"/><linearGradient id="f" gradientUnits="userSpaceOnUse" x1="22.1793" x2="89.6368" y1="44.2851" y2="44.2851"><stop offset=".0716428" stop-opacity=".05"/><stop offset=".151369" stop-opacity="0"/><stop offset=".900788" stop-opacity="0"/><stop offset=".987677" stop-opacity=".05"/></linearGradient><linearGradient id="g" gradientUnits="userSpaceOnUse" x1="22.1793" x2="89.3803" y1="53.9527" y2="53.9527"><stop offset=".0797683" stop-color="#212121"/><stop offset=".119244" stop-color="#343434"/><stop offset=".911119" stop-color="#343434"/><stop offset="1" stop-color="#212121"/></linearGradient><linearGradient id="h" gradientUnits="userSpaceOnUse" x1="16" x2="95.8161" y1="21.3701" y2="21.3701"><stop offset=".0782724" stop-color="#212121"/><stop offset=".177817" stop-color="#424242"/><stop offset=".909626" stop-color="#424242"/><stop offset="1" stop-color="#212121"/></linearGradient><path clip-rule="evenodd" d="m16 99.1264v-77.7557c3.0965 6.1305 19.7851 10.8132 39.9081 10.8132 20.1229 0 36.8115-4.6827 39.908-10.8132v77.7557c0 7.1096-17.8674 12.8736-39.908 12.8736-22.0407 0-39.9081-5.764-39.9081-12.8736z" fill="url(#a)" fill-rule="evenodd"/><ellipse cx="55.9081" cy="95.7888" fill="url(#b)" rx="33.7287" ry="8.74453"/><g stroke-linejoin="round"><path d="m66.7219 63.8529v-12.3586l-10.8138-6.1794v12.3587z" fill="#ffd343" stroke="#5c5c5c"/><path d="m66.7219 76.2115v-12.3586l-10.8138-6.1793v12.3586z" fill="#2b5b84" stroke="#5c5c5c"/><path d="m77.5356 70.0322v-12.3586l-10.8138-6.1793v12.3586z" fill="#ffd343" stroke="#5c5c5c"/><path d="m77.5356 82.3908v-12.3586l-10.8138-6.1793v12.3586z" fill="#ffd343" stroke="#5c5c5c"/><path d="m45.0943 63.8529v12.3586l-10.8138 6.1793v-12.3586z" fill="#2b5b84" stroke="#434343"/><path d="m45.0943 51.4943v12.3586l-10.8138 6.1793v-12.3586z" fill="#2b5b84" stroke="#434343"/><path d="m55.908 57.6736v12.3586l-10.8138 6.1793v-12.3586z" fill="#2b5b84" stroke="#434343"/><path d="m55.908 45.3149v12.3587l-10.8138 6.1793v-12.3586z" fill="#ffd343" stroke="#434343"/></g><path d="m34.2805 82.3908 21.6276-12.3586v-24.7173l-21.6276 12.3587z" fill="url(#d)"/><path d="m34.2805 82.3908 21.6276-12.3586v-24.7173l-21.6276 12.3587z" fill="#000" fill-opacity=".2"/><path d="m55.908 70.0322 10.8138 6.1793-10.8138 6.1793-10.8138-6.1793z" fill="#2b5b84" stroke="#303030" stroke-linejoin="round"/><path d="m66.7219 76.2115 10.8138 6.1793-10.8138 6.1793-10.8138-6.1793z" fill="#ffd343" stroke="#303030" stroke-linejoin="round"/><path d="m55.908 82.3908 10.8138 6.1793-10.8138 6.1793-10.8138-6.1793z" fill="#ffd343" stroke="#303030" stroke-linejoin="round"/><path d="m45.0943 76.2115 10.8138 6.1793-10.8138 6.1793-10.8138-6.1793z" fill="#2b5b84" stroke="#303030" stroke-linejoin="round"/><path d="m55.9081 70.0322 21.6276 12.3586-21.6276 12.3586-21.6276-12.3586z" fill="url(#e)"/><path d="m55.9081 70.0322 21.6276 12.3586-21.6276 12.3586-21.6276-12.3586z" fill="#000" fill-opacity=".2"/><path d="m22.1793 32.1839c4.1196 11.7149 65.6552 10.6851 67.4576 0v63.5954c0 3.2184-8.4937 8.7537-33.7288 8.7537-18.4092 0-33.7288-3.862-33.7288-8.7537z" fill="url(#f)"/><path clip-rule="evenodd" d="m89.6368 32.1804c0-.002 0-.004 0-.006 0-.0019 0-.0039 0-.0059v-7.4513h-16.1042c-5.1289-.8165-11.1646-1.2873-17.6245-1.2873s-12.4957.4708-17.6245 1.2873h-16.1043v7.7242h.0154c.5443 4.706 15.43 8.4776 33.7134 8.4776s33.169-3.7716 33.7133-8.4776h.0154z" fill="url(#g)" fill-rule="evenodd"/><path clip-rule="evenodd" d="m55.9081 34.2437c22.0406 0 39.908-5.7637 39.908-12.8736v-8.4965h-9.9258c-7.3138-2.6835-18.0349-4.37705-29.9822-4.37705-11.9474 0-22.6685 1.69355-29.9823 4.37705h-9.9258v8.4965c0 7.1099 17.8674 12.8736 39.9081 12.8736z" fill="url(#h)" fill-rule="evenodd"/><ellipse cx="55.9081" cy="12.8736" fill="#212121" rx="39.9081" ry="12.8736"/><path d="m65.9495 25.3362v36.5857c2.9609-1.2874 5.0778-2.4855 6.1793-3.2184.2258.0581.4393.1135.6433.1664 1.8965.4916 2.979.7722 5.536 1.1209v-36.4603l-.0008-.0008c-3.7185.8149-7.886 1.4326-12.3578 1.8065z" fill="#cca725"/><path d="m42.2621.772417-.0003-.000138c3.644-.427696 7.5357-.6890019 11.5868-.7554333l-.0003.0011771 24.4591 23.5116772c-3.7185.8149-7.886 1.4326-12.3579 1.8065v-.001z" fill="#9d7c0d"/><path d="m72.1302 39.4667c-1.1177.1689-1.9434.54-2.4997 1.1831-.5536.64-.8334 1.5437-.8277 2.725.0192 3.9869.0122 7.9756-.0212 11.9661.4705-.0301.9412-.062 1.411-.1019.0259-1.2861.0463-2.572.0612-3.8575.4428.4208 1.2142.5989 2.2201.4201.0555-.0099.1102-.0206.164-.0322 1.0832-.2223 1.9854-.8056 2.6003-1.5776.6237-.783.9862-1.7921 1.0094-2.9937.0273-1.411-.8072-2.0321-2.2527-2.1719.9052-.7338 1.4016-1.8339 1.4296-3.2581.0177-.8976-.2033-1.5298-.6388-1.9133-.4378-.3856-1.0961-.5269-2.0071-.462-.2039.0146-.4202.0394-.6484.0739zm.1442 1.1477c.173-.0272.3326-.0418.4788-.0431.8632-.0052 1.2823.4429 1.2534 1.4232-.0336 1.1412-.4969 2.004-1.3199 2.5054-.3701.2311-.8295.3861-1.3976.4564-.0007.4418-.0018.8836-.0033 1.3253.5383-.0928.9971-.1479 1.3816-.159 1.2906-.0205 2.0291.3872 2.0163 1.5287-.0175 1.559-.7562 2.623-2.0443 2.8953-.037.0082-.0745.0158-.1127.0227-.9245.1672-1.6953-.2148-2.2552-1.0573.0154-2.0719.0164-4.1428.0031-6.2129-.0105-1.63.6608-2.4745 1.9998-2.6847z" fill="#fff" opacity=".9"/></svg>