<?xml version="1.0" encoding="UTF-8"?>
<svg version="1.1" xmlns="http://www.w3.org/2000/svg" width="820" height="820">
<path d="M0 0 C270.6 0 541.2 0 820 0 C820 270.6 820 541.2 820 820 C549.4 820 278.8 820 0 820 C0 549.4 0 278.8 0 0 Z " fill="#222222" transform="translate(0,0)"/>
<path d="M0 0 C22.51406536 -0.04676636 45.02812268 -0.08201156 67.54222679 -0.10362434 C77.99642945 -0.11392724 88.45060189 -0.12796872 98.90478516 -0.15087891 C108.01898393 -0.17084298 117.13316082 -0.18372361 126.24738085 -0.18817699 C131.0711511 -0.19077925 135.89485872 -0.19687516 140.71860886 -0.21146011 C145.26411977 -0.22509171 149.8095426 -0.2292114 154.35507202 -0.22621536 C156.01826075 -0.22676304 157.68145259 -0.23070712 159.34462357 -0.23841095 C167.74328769 -0.27538701 175.82343178 -0.21429405 184 2 C184 2.66 184 3.32 184 4 C184.84433594 4.09925781 185.68867188 4.19851562 186.55859375 4.30078125 C190.37962707 5.07713195 193.6055783 6.45342118 197.0625 8.1875 C198.24972656 8.75855469 199.43695313 9.32960937 200.66015625 9.91796875 C204.46846553 12.29203758 206.30161926 14.4574861 209 18 C210.2375 19.2375 210.2375 19.2375 211.5 20.5 C222 31 222 31 222 37 C222.66 37 223.32 37 224 37 C224.33 38.65 224.66 40.3 225 42 C225.66 42 226.32 42 227 42 C227.44730469 42.9178125 227.89460938 43.835625 228.35546875 44.78125 C232.32410857 52.91213483 232.32410857 52.91213483 236.9375 60.6875 C239 64 239 64 239 67 C241.47266765 66.65555119 241.47266765 66.65555119 244 66 C244.33 65.34 244.66 64.68 245 64 C245.66 64 246.32 64 247 64 C247.33 63.01 247.66 62.02 248 61 C248.66 61 249.32 61 250 61 C250 60.34 250 59.68 250 59 C257.01582235 52.83781383 265.40209027 47 275 47 C275 46.34 275 45.68 275 45 C280.31715782 43.91302242 285.4691892 43.82855629 290.87084961 43.79467773 C291.85431712 43.78478663 292.83778463 43.77489553 293.85105419 43.7647047 C297.11812634 43.73307881 300.38521231 43.7082736 303.65234375 43.68359375 C305.96304643 43.66282022 308.27374588 43.6416847 310.58444214 43.62020874 C316.76083087 43.56427404 322.93725396 43.51472709 329.11371231 43.4671669 C332.9286308 43.43756881 336.74353642 43.4066519 340.55844116 43.37533569 C356.62435009 43.24401582 372.69032391 43.1266247 388.75642395 43.02131653 C391.79574836 43.00134233 394.83506914 42.98088404 397.87438965 42.96032715 C407.21759661 42.89804523 416.56069325 42.84722734 425.90408325 42.82376099 C428.48765174 42.81631717 431.07121322 42.80569171 433.65475464 42.79171753 C437.15141628 42.77418584 440.64783163 42.76969379 444.14453125 42.76953125 C445.60558792 42.75882095 445.60558792 42.75882095 447.09616089 42.74789429 C454.97618303 42.77424595 462.78169074 43.63145568 470 47 C470 47.66 470 48.32 470 49 C470.804375 49.04125 471.60875 49.0825 472.4375 49.125 C481.7935143 51.42296842 488.1916889 58.73961113 494 66 C494.763125 66.680625 495.52625 67.36125 496.3125 68.0625 C500.39441536 72.52412841 503.06991047 77.73565255 506 83 C506.72743617 84.27182468 507.45623941 85.54287039 508.1875 86.8125 C509.0846875 88.3903125 509.0846875 88.3903125 510 90 C510.55880859 90.94359375 510.55880859 90.94359375 511.12890625 91.90625 C514 96.78810976 514 96.78810976 514 99 C514.66 99 515.32 99 516 99 C519.06802099 104.62470514 520.89061647 109.69403048 522 116 C522.66 116 523.32 116 524 116 C527.34097516 118.73352513 528.52354792 120.71193127 529 125 C529.66 125 530.32 125 531 125 C531.81498562 126.6029053 532.62689927 128.20737278 533.4375 129.8125 C533.88996094 130.70582031 534.34242188 131.59914063 534.80859375 132.51953125 C536 135 536 135 537 138 C537.66 138 538.32 138 539 138 C539.433125 139.216875 539.86625 140.43375 540.3125 141.6875 C541.57026501 145.05335003 543.11455582 147.9361532 545 151 C545.495 152.216875 545.99 153.43375 546.5 154.6875 C547.74362252 158.21123955 547.74362252 158.21123955 551 160 C551 160.66 551 161.32 551 162 C551.66 162 552.32 162 553 162 C553.33 163.65 553.66 165.3 554 167 C554.66 167 555.32 167 556 167 C556.25523437 168.01320313 556.25523437 168.01320313 556.515625 169.046875 C557.92107998 174.22014545 558.9663429 177.34449826 563 181 C564.53292945 183.8515086 566 186.71243752 566 190 C566.8971875 190.3403125 566.8971875 190.3403125 567.8125 190.6875 C570.59348403 192.35609042 571.5641916 194.1283832 573 197 C573 197.66 573 198.32 573 199 C573.66 199 574.32 199 575 199 C575.4125 200.010625 575.825 201.02125 576.25 202.0625 C577.35296066 204.6638223 578.52419539 206.86819861 580 209.3125 C582.52819065 213.59395696 583.7427415 218.21921449 585 223 C585.26127686 223.94129761 585.26127686 223.94129761 585.52783203 224.90161133 C588.46858838 237.97079479 586.25721135 255.26494525 580 267 C579.00403492 268.00401871 578.00378545 269.00379983 577 270 C575.99062351 271.65747342 575.03695983 273.34949437 574.125 275.0625 C573.60164062 276.04089844 573.07828125 277.01929688 572.5390625 278.02734375 C571.15088243 280.70857479 569.81776172 283.40871051 568.5 286.125 C566.44715381 290.2967003 564.02436344 294.04685233 561.390625 297.87109375 C560.14591227 299.77662307 559.14873963 301.62957333 558.1875 303.6875 C556.31233586 307.6347993 553.95739113 311.22994557 551.5625 314.875 C548.40867664 319.68782261 545.59442302 324.49934088 543.109375 329.69921875 C540.19939357 335.7343563 536.76338661 341.45558883 533.1796875 347.109375 C531.74990423 349.40081573 530.41752031 351.74369372 529.09375 354.09765625 C527.79170271 356.36228851 526.42535328 358.58395675 525.0625 360.8125 C522.51824441 365.0230187 520.309123 369.32768901 518.16015625 373.75 C517 376 517 376 514.8125 379.25 C512.93093218 382.10479255 511.9356254 384.72531112 511 388 C510.34 388 509.68 388 509 388 C508.81824219 388.62648438 508.63648438 389.25296875 508.44921875 389.8984375 C508.07216797 391.12433594 508.07216797 391.12433594 507.6875 392.375 C507.32205078 393.59316406 507.32205078 393.59316406 506.94921875 394.8359375 C506 397 506 397 503 399 C502.33261651 400.63508954 501.66764859 402.27124101 501.01953125 403.9140625 C499.01774462 408.00967192 496.11749263 411.68719458 493 415 C492.34 415 491.68 415 491 415 C490.67 415.99 490.34 416.98 490 418 C487.9375 418.6875 487.9375 418.6875 486 419 C486 419.66 486 420.32 486 421 C483.91796875 422.5078125 483.91796875 422.5078125 481.1875 424.125 C480.29417969 424.66382813 479.40085937 425.20265625 478.48046875 425.7578125 C476 427 476 427 473 427 C473 427.66 473 428.32 473 429 C464.25441896 433.37279052 455.0547572 433.14559718 445.44042969 433.20532227 C444.43330933 433.21522186 443.42618896 433.22512146 442.3885498 433.23532104 C439.06634809 433.26680101 435.74413363 433.29172207 432.421875 433.31640625 C430.0544608 433.33706715 427.68704952 433.35806529 425.31964111 433.37937927 C420.33323034 433.42330937 415.34680709 433.46417583 410.36035156 433.50268555 C404.14687887 433.55075653 397.93347575 433.60464368 391.72006989 433.66062355 C377.05672596 433.7921437 362.39334122 433.89527309 347.72964478 433.97818756 C343.92936832 434.00041308 340.12911551 434.02532002 336.32885742 434.05047607 C330.07707769 434.09053957 323.82533864 434.11883934 317.57346344 434.13877678 C315.23062836 434.14771062 312.88780337 434.16004002 310.5450058 434.1760273 C307.30371768 434.19731555 304.06263776 434.20559499 300.82128906 434.21069336 C299.88354393 434.21962301 298.9457988 434.22855267 297.97963715 434.23775291 C291.46178915 434.22869828 285.37318843 433.32407163 279 432 C277.77667969 431.77699219 276.55335938 431.55398438 275.29296875 431.32421875 C268.64879527 429.96195425 264.87863324 428.65172006 260 424 C258.68276226 423.36150187 257.34768441 422.75893842 256 422.1875 C251.15504242 419.87993956 248.897923 416.38828341 246 412 C244.79263713 410.31180552 243.58427606 408.62432456 242.375 406.9375 C235 396.30834257 235 396.30834257 235 392 C234.34 392 233.68 392 233 392 C232.32591692 390.73308493 231.66099503 389.46129251 231 388.1875 C230.62875 387.47980469 230.2575 386.77210938 229.875 386.04296875 C229 384 229 384 229 381 C228.34 381 227.68 381 227 381 C226.18162558 379.58671871 225.37053781 378.16921654 224.5625 376.75 C224.11003906 375.96109375 223.65757812 375.1721875 223.19140625 374.359375 C222.10688398 372.21166532 221.46851284 370.34794939 221 368 C218.69 367.67 216.38 367.34 214 367 C213.76023437 367.57621094 213.52046875 368.15242188 213.2734375 368.74609375 C211.74716307 371.44750585 209.97152115 373.03950253 207.625 375.0625 C206.85414063 375.73410156 206.08328125 376.40570312 205.2890625 377.09765625 C199.39014374 382 199.39014374 382 196 382 C196 382.66 196 383.32 196 384 C184.43052199 389.52179632 172.93948159 390.46105942 160.328125 390.51171875 C158.67915116 390.52887685 157.03018937 390.54722709 155.38124084 390.56666565 C150.93080831 390.61511401 146.48043656 390.64500618 142.02981949 390.67036438 C138.29785555 390.6933693 134.56599457 390.72573936 130.83409977 390.75786018 C120.96425182 390.84215777 111.09438605 390.90310443 101.22430515 390.9521656 C93.99990122 390.98827015 86.77559673 391.03355427 79.55126953 391.08251953 C69.41674888 391.15011911 59.28227552 391.19696124 49.14758301 391.22915649 C45.27065842 391.24170057 41.39383879 391.26041085 37.51696777 391.28427124 C32.94227015 391.31164573 28.36777444 391.3237346 23.79299736 391.32426262 C22.1176031 391.32679559 20.4422072 391.33438738 18.76686287 391.3475666 C10.07759426 391.41235601 2.21131195 391.22063114 -6 388 C-7.051875 387.67 -8.10375 387.34 -9.1875 387 C-13.9319744 385.31307577 -18.53220997 383.32325082 -23 381 C-23 380.34 -23 379.68 -23 379 C-23.556875 378.7525 -24.11375 378.505 -24.6875 378.25 C-29.57218153 375.6096316 -32.25638443 372.74856542 -35 368 C-36.13378039 366.55297467 -37.28105794 365.11647937 -38.4375 363.6875 C-46 354.10619703 -46 354.10619703 -46 349 C-46.66 349 -47.32 349 -48 349 C-49.82007082 345.75418468 -51.62971385 342.50267099 -53.4375 339.25 C-53.95376953 338.32960938 -54.47003906 337.40921875 -55.00195312 336.4609375 C-55.74155273 335.12675781 -55.74155273 335.12675781 -56.49609375 333.765625 C-56.95169678 332.94868164 -57.4072998 332.13173828 -57.87670898 331.29003906 C-58.91293939 329.17748935 -59.5362928 327.29777301 -60 325 C-60.66 325 -61.32 325 -62 325 C-62.25652344 324.5359375 -62.51304688 324.071875 -62.77734375 323.59375 C-63.62145549 322.07036989 -64.46815758 320.54842422 -65.31640625 319.02734375 C-66.58153145 316.75246665 -67.83783844 314.47347817 -69.08984375 312.19140625 C-73.34664289 304.47676507 -77.77295135 297.11042388 -83 290 C-85.97187011 285.78985068 -88.00236126 281.74439201 -90 277 C-90.7137805 275.74115075 -91.44295797 274.49090338 -92.1875 273.25 C-94 270 -94 270 -94 267 C-94.66 267 -95.32 267 -96 267 C-96.33 265.35 -96.66 263.7 -97 262 C-97.66 262 -98.32 262 -99 262 C-102.71801014 257.04522973 -105.26493375 251.58527981 -107.91210938 246.00976562 C-110.2074417 241.28780978 -112.89542427 237.23398118 -116 233 C-117 231 -118 229 -119 227 C-119.66 226.67 -120.32 226.34 -121 226 C-121.74379527 223.94294122 -122.3965847 221.85252519 -123 219.75 C-124.30892285 215.11679324 -124.30892285 215.11679324 -126.1015625 210.6640625 C-129.94825292 199.25778918 -127.25383856 183.88100778 -123 173 C-121.56747314 170.25554166 -120.03460588 167.67892404 -118.328125 165.09765625 C-116.70062935 162.52717047 -115.77228048 159.93466584 -115 157 C-114.34 157 -113.68 157 -113 157 C-112.67 155.02 -112.34 153.04 -112 151 C-111.34 151 -110.68 151 -110 151 C-110 150.01 -110 149.02 -110 148 C-109.34 148 -108.68 148 -108 148 C-107.64035156 146.46279297 -107.64035156 146.46279297 -107.2734375 144.89453125 C-106.12886873 140.89256363 -104.12668988 138.02447172 -101.625 134.6875 C-97.76348473 129.38715458 -95.11166093 124.19671927 -93 118 C-92.67 117.34 -92.34 116.68 -92 116 C-91.34 116 -90.68 116 -90 116 C-89.8453125 115.195625 -89.8453125 115.195625 -89.6875 114.375 C-88.25968142 109.44253583 -85.52770196 105.06572702 -83 100.625 C-82.505 99.75101562 -82.01 98.87703125 -81.5 97.9765625 C-81.005 97.32429688 -80.51 96.67203125 -80 96 C-79.01 96 -78.02 96 -77 96 C-76.896875 94.96875 -76.79375 93.9375 -76.6875 92.875 C-76.00872203 89.04916055 -74.88841205 86.36629975 -73 83 C-72.34 83 -71.68 83 -71 83 C-70.67 81.35 -70.34 79.7 -70 78 C-69.34 78 -68.68 78 -68 78 C-67.90203125 77.44441406 -67.8040625 76.88882813 -67.703125 76.31640625 C-66.83363901 73.45193296 -65.42852639 71.41515091 -63.75 68.9375 C-60.71003216 64.2841066 -58.30762485 59.62010088 -56.140625 54.5078125 C-52.93951613 47.46975806 -52.93951613 47.46975806 -50 46 C-48.81646997 44.00079258 -48.81646997 44.00079258 -47.6875 41.5625 C-47.03007812 40.21285156 -47.03007812 40.21285156 -46.359375 38.8359375 C-45.47325823 36.98731459 -44.58780888 35.13837157 -43.703125 33.2890625 C-39.47197467 24.59169794 -39.47197467 24.59169794 -36 21 C-35.34 21 -34.68 21 -34 21 C-33.773125 20.4225 -33.54625 19.845 -33.3125 19.25 C-31.08951132 15.43916226 -28.14211008 13.38070336 -24 12 C-23.46375 11.401875 -22.9275 10.80375 -22.375 10.1875 C-19.01031026 7.08844366 -15.19933179 5.70692263 -11 4 C-9.6696875 3.38125 -9.6696875 3.38125 -8.3125 2.75 C-5.46317584 1.82589487 -2.97546966 1.86160606 0 2 C0 1.34 0 0.68 0 0 Z " fill="#8E70F7" transform="translate(180,193)"/>
<path d="M0 0 C22.51406536 -0.04676636 45.02812268 -0.08201156 67.54222679 -0.10362434 C77.99642945 -0.11392724 88.45060189 -0.12796872 98.90478516 -0.15087891 C108.01898393 -0.17084298 117.13316082 -0.18372361 126.24738085 -0.18817699 C131.0711511 -0.19077925 135.89485872 -0.19687516 140.71860886 -0.21146011 C145.26411977 -0.22509171 149.8095426 -0.2292114 154.35507202 -0.22621536 C156.01826075 -0.22676304 157.68145259 -0.23070712 159.34462357 -0.23841095 C167.74328769 -0.27538701 175.82343178 -0.21429405 184 2 C184 2.66 184 3.32 184 4 C184.84433594 4.09925781 185.68867188 4.19851562 186.55859375 4.30078125 C190.37962707 5.07713195 193.6055783 6.45342118 197.0625 8.1875 C198.24972656 8.75855469 199.43695313 9.32960937 200.66015625 9.91796875 C204.46846553 12.29203758 206.30161926 14.4574861 209 18 C210.2375 19.2375 210.2375 19.2375 211.5 20.5 C222 31 222 31 222 37 C222.66 37 223.32 37 224 37 C224.33 38.65 224.66 40.3 225 42 C225.66 42 226.32 42 227 42 C227.47050781 42.95261719 227.94101562 43.90523437 228.42578125 44.88671875 C229.05457916 46.15369961 229.68349148 47.42062369 230.3125 48.6875 C230.62123047 49.31333984 230.92996094 49.93917969 231.24804688 50.58398438 C233.02509411 54.1567846 234.94227578 57.58406121 237 61 C239.37082122 65.88276275 240.67398294 69.61934055 239 75 C238.02227472 76.67983067 237.0180033 78.34426842 236 80 C234.72330641 82.20495055 233.45295216 84.41357867 232.1875 86.625 C231.8356665 87.23964111 231.48383301 87.85428223 231.12133789 88.48754883 C229.00706262 92.19389595 226.95125101 95.92525013 224.9375 99.6875 C222.92065712 103.425236 220.75172614 107.00138478 218.4375 110.5625 C215.6567128 114.85005735 213.3244531 119.20618719 211.11328125 123.80859375 C210 126 210 126 208 128.875 C204.97057364 133.60847869 203.05881783 138.78545319 201 144 C200.34 144 199.68 144 199 144 C198.84144531 144.58007812 198.68289063 145.16015625 198.51953125 145.7578125 C197.1253399 150.42565756 195.72917773 153.64993804 192.3828125 157.296875 C186.60740879 164.41008409 183.0238472 173.82388494 179 182 C178.34 182 177.68 182 177 182 C176.731875 182.721875 176.46375 183.44375 176.1875 184.1875 C175 187 175 187 173.5625 189.375 C171.70590634 192.49407734 170.39155885 195.64760822 169 199 C168.67 199.66 168.34 200.32 168 201 C167.34 201 166.68 201 166 201 C165.731875 202.03125 165.46375 203.0625 165.1875 204.125 C163.92318695 208.54119207 162.02797087 212.43113347 159.5078125 216.27734375 C153.3272025 227.43766802 153.81179493 242.74605161 156 255 C156.61998741 257.01495907 157.27954236 259.0187415 158 261 C158.144375 261.7425 158.28875 262.485 158.4375 263.25 C158.92897891 265.40215815 158.92897891 265.40215815 162 267 C162.92173777 268.77519866 163.83206142 270.55726389 164.68359375 272.3671875 C166.71804529 276.43609057 169.04506298 280.33518152 171.3581543 284.25097656 C174 288.78628037 174 288.78628037 174 291 C174.66 291 175.32 291 176 291 C179 296.75 179 296.75 179 299 C179.66 299 180.32 299 181 299 C181.66 301.97 182.32 304.94 183 308 C183.66 308 184.32 308 185 308 C186.49821059 311.37097383 187 313.20442119 187 317 C187.66 317 188.32 317 189 317 C189.33 318.65 189.66 320.3 190 322 C190.59554688 322.05671875 191.19109375 322.1134375 191.8046875 322.171875 C194.99916142 323.37690787 195.59609821 325.25623418 197.125 328.25 C197.62257813 329.20390625 198.12015625 330.1578125 198.6328125 331.140625 C199.87003488 333.72818723 200.97403109 336.32270969 202 339 C202.66 339 203.32 339 204 339 C206.1954721 343.1638264 208.11644245 347.12270499 209.5 351.625 C210.41391348 354.57490962 211.42060827 356.82527905 213.25 359.3125 C215 362 215 362 214.73046875 363.93359375 C211.88476293 371.98374552 206.11388901 377.46640294 199 382 C198.01 382 197.02 382 196 382 C196 382.66 196 383.32 196 384 C184.43052199 389.52179632 172.93948159 390.46105942 160.328125 390.51171875 C158.67915116 390.52887685 157.03018937 390.54722709 155.38124084 390.56666565 C150.93080831 390.61511401 146.48043656 390.64500618 142.02981949 390.67036438 C138.29785555 390.6933693 134.56599457 390.72573936 130.83409977 390.75786018 C120.96425182 390.84215777 111.09438605 390.90310443 101.22430515 390.9521656 C93.99990122 390.98827015 86.77559673 391.03355427 79.55126953 391.08251953 C69.41674888 391.15011911 59.28227552 391.19696124 49.14758301 391.22915649 C45.27065842 391.24170057 41.39383879 391.26041085 37.51696777 391.28427124 C32.94227015 391.31164573 28.36777444 391.3237346 23.79299736 391.32426262 C22.1176031 391.32679559 20.4422072 391.33438738 18.76686287 391.3475666 C10.07759426 391.41235601 2.21131195 391.22063114 -6 388 C-7.051875 387.67 -8.10375 387.34 -9.1875 387 C-13.9319744 385.31307577 -18.53220997 383.32325082 -23 381 C-23 380.34 -23 379.68 -23 379 C-23.556875 378.7525 -24.11375 378.505 -24.6875 378.25 C-29.57218153 375.6096316 -32.25638443 372.74856542 -35 368 C-36.13378039 366.55297467 -37.28105794 365.11647937 -38.4375 363.6875 C-46 354.10619703 -46 354.10619703 -46 349 C-46.66 349 -47.32 349 -48 349 C-49.82007082 345.75418468 -51.62971385 342.50267099 -53.4375 339.25 C-53.95376953 338.32960938 -54.47003906 337.40921875 -55.00195312 336.4609375 C-55.74155273 335.12675781 -55.74155273 335.12675781 -56.49609375 333.765625 C-56.95169678 332.94868164 -57.4072998 332.13173828 -57.87670898 331.29003906 C-58.91293939 329.17748935 -59.5362928 327.29777301 -60 325 C-60.66 325 -61.32 325 -62 325 C-62.25652344 324.5359375 -62.51304688 324.071875 -62.77734375 323.59375 C-63.62145549 322.07036989 -64.46815758 320.54842422 -65.31640625 319.02734375 C-66.58153145 316.75246665 -67.83783844 314.47347817 -69.08984375 312.19140625 C-73.34664289 304.47676507 -77.77295135 297.11042388 -83 290 C-85.97187011 285.78985068 -88.00236126 281.74439201 -90 277 C-90.7137805 275.74115075 -91.44295797 274.49090338 -92.1875 273.25 C-94 270 -94 270 -94 267 C-94.66 267 -95.32 267 -96 267 C-96.33 265.35 -96.66 263.7 -97 262 C-97.66 262 -98.32 262 -99 262 C-102.71801014 257.04522973 -105.26493375 251.58527981 -107.91210938 246.00976562 C-110.2074417 241.28780978 -112.89542427 237.23398118 -116 233 C-117 231 -118 229 -119 227 C-119.66 226.67 -120.32 226.34 -121 226 C-121.74379527 223.94294122 -122.3965847 221.85252519 -123 219.75 C-124.30892285 215.11679324 -124.30892285 215.11679324 -126.1015625 210.6640625 C-129.94825292 199.25778918 -127.25383856 183.88100778 -123 173 C-121.56747314 170.25554166 -120.03460588 167.67892404 -118.328125 165.09765625 C-116.70062935 162.52717047 -115.77228048 159.93466584 -115 157 C-114.34 157 -113.68 157 -113 157 C-112.67 155.02 -112.34 153.04 -112 151 C-111.34 151 -110.68 151 -110 151 C-110 150.01 -110 149.02 -110 148 C-109.34 148 -108.68 148 -108 148 C-107.64035156 146.46279297 -107.64035156 146.46279297 -107.2734375 144.89453125 C-106.12886873 140.89256363 -104.12668988 138.02447172 -101.625 134.6875 C-97.76348473 129.38715458 -95.11166093 124.19671927 -93 118 C-92.67 117.34 -92.34 116.68 -92 116 C-91.34 116 -90.68 116 -90 116 C-89.8453125 115.195625 -89.8453125 115.195625 -89.6875 114.375 C-88.25968142 109.44253583 -85.52770196 105.06572702 -83 100.625 C-82.505 99.75101562 -82.01 98.87703125 -81.5 97.9765625 C-81.005 97.32429688 -80.51 96.67203125 -80 96 C-79.01 96 -78.02 96 -77 96 C-76.896875 94.96875 -76.79375 93.9375 -76.6875 92.875 C-76.00872203 89.04916055 -74.88841205 86.36629975 -73 83 C-72.34 83 -71.68 83 -71 83 C-70.67 81.35 -70.34 79.7 -70 78 C-69.34 78 -68.68 78 -68 78 C-67.90203125 77.44441406 -67.8040625 76.88882813 -67.703125 76.31640625 C-66.83363901 73.45193296 -65.42852639 71.41515091 -63.75 68.9375 C-60.71003216 64.2841066 -58.30762485 59.62010088 -56.140625 54.5078125 C-52.93951613 47.46975806 -52.93951613 47.46975806 -50 46 C-48.81646997 44.00079258 -48.81646997 44.00079258 -47.6875 41.5625 C-47.03007812 40.21285156 -47.03007812 40.21285156 -46.359375 38.8359375 C-45.47325823 36.98731459 -44.58780888 35.13837157 -43.703125 33.2890625 C-39.47197467 24.59169794 -39.47197467 24.59169794 -36 21 C-35.34 21 -34.68 21 -34 21 C-33.773125 20.4225 -33.54625 19.845 -33.3125 19.25 C-31.08951132 15.43916226 -28.14211008 13.38070336 -24 12 C-23.46375 11.401875 -22.9275 10.80375 -22.375 10.1875 C-19.01031026 7.08844366 -15.19933179 5.70692263 -11 4 C-9.6696875 3.38125 -9.6696875 3.38125 -8.3125 2.75 C-5.46317584 1.82589487 -2.97546966 1.86160606 0 2 C0 1.34 0 0.68 0 0 Z " fill="#BE9AF8" transform="translate(180,193)"/>
<path d="M0 0 C0.99 0.33 1.98 0.66 3 1 C3.495 3.475 3.495 3.475 4 6 C4.66 6 5.32 6 6 6 C6.72916667 7.45833333 7.45833333 8.91666667 8.1875 10.375 C8.87585938 11.74205078 8.87585938 11.74205078 9.578125 13.13671875 C10.4846918 14.96230518 11.37226212 16.79753624 12.234375 18.64453125 C14.55437488 23.54816735 17.00041844 27.37418658 20.6640625 31.36328125 C22.76087307 33.93218074 23.73840322 36.95114112 25 40 C26.50419398 42.34383665 28.07705666 44.62035547 29.6953125 46.88671875 C30.98215596 48.97109693 31.41717737 50.65337204 32 53 C32.66 53.33 33.32 53.66 34 54 C35.0358679 55.98166034 36.03112419 57.98473831 37 60 C37.53625 60.825 38.0725 61.65 38.625 62.5 C40 65 40 65 40.4375 68.1875 C40.623125 69.115625 40.80875 70.04375 41 71 C41.61101562 71.29390625 42.22203125 71.5878125 42.8515625 71.890625 C45.62865792 73.32461609 46.40976933 74.85828975 47.9375 77.5625 C48.44539062 78.45453125 48.95328125 79.3465625 49.4765625 80.265625 C49.97929687 81.16796875 50.48203125 82.0703125 51 83 C51.48210937 83.81984375 51.96421875 84.6396875 52.4609375 85.484375 C54.7197654 89.37530398 56.27200294 92.51459877 57 97 C57.66 97 58.32 97 59 97 C59.27714844 97.85464844 59.55429687 98.70929688 59.83984375 99.58984375 C60.20207031 100.69457031 60.56429687 101.79929687 60.9375 102.9375 C61.29714844 104.03964844 61.65679687 105.14179688 62.02734375 106.27734375 C62.73856668 108.88123475 62.73856668 108.88123475 64 110 C65.97109898 129.43460748 63.47404091 145.20632016 52 161 C51.67 161.99 51.34 162.98 51 164 C50.34 164 49.68 164 49 164 C48.8453125 165.36125 48.8453125 165.36125 48.6875 166.75 C47.99350187 170.03071844 47.29914332 171.60889095 45 174 C44.34 174 43.68 174 43 174 C42.80470703 174.86044922 42.80470703 174.86044922 42.60546875 175.73828125 C40.64940224 183.04513615 36.81434455 190.18152073 32 196 C31.34 196 30.68 196 30 196 C29.95875 196.969375 29.9175 197.93875 29.875 198.9375 C29.17858625 204.00988673 26.27900869 208.16434262 23 212 C22.34 212 21.68 212 21 212 C21.061875 212.78375 21.12375 213.5675 21.1875 214.375 C21.125625 215.24125 21.06375 216.1075 21 217 C20.01 217.66 19.02 218.32 18 219 C16.65546074 221.16613667 16.65546074 221.16613667 15.5 223.6875 C15.06816406 224.58726562 14.63632812 225.48703125 14.19140625 226.4140625 C12.73069439 229.58452562 11.34676373 232.77947804 10 236 C8.67651826 239.00440015 7.33902064 242.00249694 6 245 C5.34 245 4.68 245 4 245 C3.731875 245.70125 3.46375 246.4025 3.1875 247.125 C1.92184924 250.18920711 0.63894152 253.11546292 -1 256 C-1.99 256.33 -2.98 256.66 -4 257 C-5.11239855 259.31094962 -5.11239855 259.31094962 -6 262 C-8.70721092 267.92447606 -11.81023545 273.32881248 -15.5078125 278.68359375 C-18.0325727 282.60292045 -20.01306158 286.78874556 -22 291 C-22.99 291 -23.98 291 -25 291 C-26.44213867 289.21166992 -26.44213867 289.21166992 -27.91796875 286.73046875 C-28.71557617 285.39725586 -28.71557617 285.39725586 -29.52929688 284.03710938 C-30.07650391 283.09673828 -30.62371094 282.15636719 -31.1875 281.1875 C-31.74630859 280.25873047 -32.30511719 279.32996094 -32.88085938 278.37304688 C-37 271.40722299 -37 271.40722299 -37 268 C-37.66 268 -38.32 268 -39 268 C-39.61488281 266.85660156 -40.22976563 265.71320313 -40.86328125 264.53515625 C-41.67919596 263.04400177 -42.49562919 261.55313093 -43.3125 260.0625 C-43.71662109 259.30775391 -44.12074219 258.55300781 -44.53710938 257.77539062 C-44.93349609 257.05673828 -45.32988281 256.33808594 -45.73828125 255.59765625 C-46.09962158 254.93258057 -46.46096191 254.26750488 -46.83325195 253.58227539 C-48.00195146 251.67942239 -48.00195146 251.67942239 -51 251 C-51.495 248.525 -51.495 248.525 -52 246 C-52.66 246 -53.32 246 -54 246 C-55.49821059 242.62902617 -56 240.79557881 -56 237 C-56.66 237 -57.32 237 -58 237 C-58.66 234.03 -59.32 231.06 -60 228 C-60.66 228 -61.32 228 -62 228 C-64.04169485 225.09451118 -65 223.59857954 -65 220 C-65.66 220 -66.32 220 -67 220 C-67.27972656 219.48953125 -67.55945313 218.9790625 -67.84765625 218.453125 C-70.97929799 212.7738776 -74.23346685 207.17673187 -77.546875 201.6015625 C-79 199 -79 199 -80 196 C-80.99 195.34 -81.98 194.68 -83 194 C-83.6953125 191.87109375 -83.6953125 191.87109375 -84.125 189.4375 C-84.48491013 186.43064045 -84.48491013 186.43064045 -86 184 C-88.76466629 168.33355767 -87.24089355 152.74555292 -79 139 C-78.22108818 137.36765085 -77.46555091 135.72360032 -76.75 134.0625 C-76.41484375 133.29035156 -76.0796875 132.51820313 -75.734375 131.72265625 C-75.37085938 130.86994141 -75.37085938 130.86994141 -75 130 C-74.34 130 -73.68 130 -73 130 C-72.72736328 129.11248047 -72.72736328 129.11248047 -72.44921875 128.20703125 C-71.03892428 123.77364401 -69.59850359 119.89775538 -67 116 C-66.484375 115.071875 -65.96875 114.14375 -65.4375 113.1875 C-64.963125 112.465625 -64.48875 111.74375 -64 111 C-63.34 111 -62.68 111 -62 111 C-61.86722656 110.40960938 -61.73445313 109.81921875 -61.59765625 109.2109375 C-59.91993049 103.00444875 -56.08002193 97.2689406 -52.9375 91.6875 C-52.59710693 91.07664551 -52.25671387 90.46579102 -51.90600586 89.83642578 C-50.18692493 86.81810271 -48.45433754 84.42676072 -46 82 C-44.7951851 79.73972655 -44.7951851 79.73972655 -43.8125 77.3125 C-43.46832031 76.50425781 -43.12414062 75.69601562 -42.76953125 74.86328125 C-42.38861328 73.94095703 -42.38861328 73.94095703 -42 73 C-41.34 73 -40.68 73 -40 73 C-39.89171875 72.12085938 -39.7834375 71.24171875 -39.671875 70.3359375 C-38.98554932 66.92825069 -37.96058808 64.63175533 -36.25 61.625 C-35.70859375 60.66851562 -35.1671875 59.71203125 -34.609375 58.7265625 C-32.88698834 55.8085385 -31.10119793 52.94117247 -29.27734375 50.0859375 C-27.22278119 46.7307803 -25.40020131 43.25203619 -23.53515625 39.7890625 C-22.08313322 37.15103593 -20.56409897 34.57279987 -19 32 C-15.24227228 25.80562072 -11.82009488 19.4364478 -8.4296875 13.03515625 C-5.93281924 8.36137019 -3.56193147 3.97292356 0 0 Z " fill="#232223" transform="translate(421,264)"/>
<path d="M0 0 C22.51406536 -0.04676636 45.02812268 -0.08201156 67.54222679 -0.10362434 C77.99642945 -0.11392724 88.45060189 -0.12796872 98.90478516 -0.15087891 C108.01898393 -0.17084298 117.13316082 -0.18372361 126.24738085 -0.18817699 C131.0711511 -0.19077925 135.89485872 -0.19687516 140.71860886 -0.21146011 C145.26411977 -0.22509171 149.8095426 -0.2292114 154.35507202 -0.22621536 C156.01826075 -0.22676304 157.68145259 -0.23070712 159.34462357 -0.23841095 C167.74328769 -0.27538701 175.82343178 -0.21429405 184 2 C184 2.66 184 3.32 184 4 C185.98 4.33 187.96 4.66 190 5 C186.25890201 6.24703266 185.55570977 5.45460854 182 4 C177.24223958 3.17023261 172.66796294 2.87450697 167.84326172 2.87301636 C166.81498497 2.87067637 166.81498497 2.87067637 165.76593494 2.86828911 C163.4871634 2.86432611 161.20845944 2.86745054 158.9296875 2.87060547 C157.2879889 2.86924924 155.64629061 2.86746806 154.0045929 2.86529541 C149.55578742 2.86074458 145.10700519 2.86250175 140.65819931 2.8656745 C135.98738291 2.86821365 131.31656844 2.86585591 126.64575195 2.86428833 C118.79426722 2.86246973 110.9427919 2.86486333 103.09130859 2.86962891 C94.04659644 2.87505576 85.00190688 2.87331912 75.95719528 2.8678025 C68.1691964 2.86324439 60.38120428 2.86263443 52.5932045 2.86524117 C47.95216757 2.86679111 43.31114121 2.86703352 38.67010498 2.86370468 C34.29686125 2.86078717 29.92364618 2.86287195 25.5504055 2.86859894 C23.95704381 2.86990659 22.36367965 2.86956697 20.77031898 2.86733627 C10.80060542 2.85468056 0.94078758 3.20544139 -9 4 C-5.5647952 1.70986347 -4.014669 1.82157027 0 2 C0 1.34 0 0.68 0 0 Z " fill="#957BB9" transform="translate(180,193)"/>
<path d="M0 0 C5.42735668 0.56534965 9.9510178 1.98040712 15 4 C18.52079667 5.17359889 21.28885935 5.12709862 25.00634766 5.12939453 C26.08268715 5.13198902 26.08268715 5.13198902 27.18077087 5.13463593 C29.59189089 5.13902152 32.00294143 5.13602719 34.4140625 5.1328125 C36.14098125 5.13382984 37.86789984 5.13517028 39.59481812 5.1368103 C44.29176041 5.13953532 48.98867016 5.13499692 53.68560791 5.12857056 C56.61755472 5.12500904 59.54949661 5.1233823 62.48144531 5.12231445 C106.65784758 5.10240893 150.82820316 4.60177978 195 4 C194.67 4.66 194.34 5.32 194 6 C185.55134874 8.02544446 176.16954738 7.1484167 167.5222168 7.14526367 C165.87370224 7.14826055 164.22518837 7.15166428 162.57667542 7.15544128 C158.12665678 7.16422563 153.6766574 7.16661687 149.22663093 7.16725707 C146.44419962 7.16797004 143.66177314 7.17010888 140.87934303 7.17275429 C131.16719885 7.18198492 121.45506835 7.1860915 111.74291992 7.18530273 C102.69508892 7.18470056 93.64731728 7.19528546 84.59950131 7.2110464 C76.82008989 7.22411431 69.04069791 7.22948704 61.26127559 7.22884732 C56.61946666 7.22859238 51.97771068 7.23144234 47.3359127 7.24202538 C42.97659079 7.25169525 38.61737265 7.25179321 34.2580471 7.24450874 C32.65886789 7.24346195 31.05968223 7.24583139 29.46051407 7.2518692 C27.27752392 7.25957792 25.09489332 7.25495217 22.91191101 7.24723816 C21.07997208 7.24805531 21.07997208 7.24805531 19.21102428 7.24888897 C16.01918306 7.00148689 13.88769476 6.31994775 11 5 C9.824375 4.67 8.64875 4.34 7.4375 4 C4.70637966 3.20549227 2.46293365 2.37924285 0 1 C0 0.67 0 0.34 0 0 Z " fill="#51456D" transform="translate(166,578)"/>
<path d="M0 0 C4.42987039 0.50149476 8.75301761 1.13929721 13.12240601 2.02575684 C18.70995072 3.04827108 24.06087438 3.26614083 29.72900391 3.21289062 C30.74418468 3.2114505 31.75936546 3.21001038 32.8053093 3.20852661 C36.15417634 3.2010508 39.50276605 3.17885111 42.8515625 3.15625 C45.24361924 3.14734735 47.63567884 3.13918527 50.02774048 3.13171387 C57.68528117 3.10355397 65.34259767 3.05308903 73 3 C75.55090306 2.98335893 78.10180638 2.96675717 80.65270996 2.95019531 C97.26242411 2.83935087 113.87174358 2.69323922 130.4810791 2.53643799 C137.12148426 2.47429933 143.76191511 2.41503264 150.40234375 2.35546875 C163.26825458 2.23966746 176.13413693 2.12098617 189 2 C186.19599399 4.80400601 184.42272846 4.2757719 180.49023438 4.31884766 C179.47496406 4.33390759 179.47496406 4.33390759 178.43918324 4.34927177 C176.15738063 4.38050079 173.87570177 4.39732733 171.59375 4.4140625 C169.9583398 4.43297003 168.32293829 4.45264213 166.68754578 4.47302246 C162.22490472 4.52566365 157.76223516 4.56500035 153.29943466 4.60129547 C150.5065244 4.62494475 147.71367199 4.6521407 144.92080688 4.68060303 C115.34138508 4.98135394 85.76113217 5.1009234 56.18026733 5.12248993 C53.18869824 5.124999 50.19713362 5.12896072 47.20556641 5.13311768 C42.4880091 5.13897854 37.77048542 5.13904968 33.05292702 5.13444519 C31.31871375 5.13337063 29.58449864 5.1338873 27.85028648 5.13612366 C25.47462082 5.1386806 23.09904752 5.13488782 20.72338867 5.12939453 C20.03877312 5.13142191 19.35415756 5.13344929 18.64879608 5.1355381 C11.68867697 5.10509082 6.11855994 4.43236289 0 1 C0 0.67 0 0.34 0 0 Z " fill="#564792" transform="translate(451,623)"/>
<path d="M0 0 C5.42735668 0.56534965 9.9510178 1.98040712 15 4 C18.12380773 5.04126924 20.38517854 5.15552332 23.66479492 5.20532227 C24.82577194 5.22526749 25.98674896 5.24521271 27.1829071 5.26576233 C28.43610245 5.28247482 29.68929779 5.29918732 30.98046875 5.31640625 C32.26359451 5.33718735 33.54672028 5.35796844 34.86872864 5.37937927 C38.27662815 5.43451906 41.68458741 5.48396389 45.09259033 5.53222656 C48.57154648 5.58250079 52.05041607 5.63815591 55.52929688 5.69335938 C62.35278951 5.80084189 69.17636036 5.90230877 76 6 C76 6.33 76 6.66 76 7 C68.26335608 7.04639619 60.52672664 7.0819062 52.78997517 7.10362434 C49.19725432 7.11404941 45.60462885 7.12818516 42.01196289 7.15087891 C38.54306797 7.17265303 35.07426463 7.18457823 31.60530663 7.18975449 C29.64165092 7.19523334 27.67803192 7.21083903 25.71443176 7.22659302 C24.5135643 7.22674408 23.31269684 7.22689514 22.07543945 7.22705078 C21.02064896 7.231492 19.96585846 7.23593323 18.87910461 7.24050903 C15.86060602 6.98835558 13.74932845 6.23014037 11 5 C9.824375 4.67 8.64875 4.34 7.4375 4 C4.70637966 3.20549227 2.46293365 2.37924285 0 1 C0 0.67 0 0.34 0 0 Z " fill="#61527E" transform="translate(166,578)"/>
<path d="M0 0 C0.66 0.33 1.32 0.66 2 1 C1.34 2.98 0.68 4.96 0 7 C-0.66 7 -1.32 7 -2 7 C-2.15855469 7.58007812 -2.31710937 8.16015625 -2.48046875 8.7578125 C-3.86726832 13.4009094 -5.23244105 16.64274162 -8.59375 20.25 C-11.67146772 24.08004872 -13.74815742 28.65108066 -16 33 C-16.33 31.68 -16.66 30.36 -17 29 C-16.34 29 -15.68 29 -15 29 C-14.896875 28.29875 -14.79375 27.5975 -14.6875 26.875 C-13.90640997 23.60862353 -12.57941257 20.9528148 -11 18 C-10.34 18 -9.68 18 -9 18 C-8.79375 17.195625 -8.5875 16.39125 -8.375 15.5625 C-6.84304586 11.5933461 -4.78299776 8.50942714 -2.33984375 5.05078125 C-0.84084175 2.94610157 -0.84084175 2.94610157 0 0 Z " fill="#9478CE" transform="translate(381,330)"/>
<path d="M0 0 C3.67882073 3.28466137 5.75150101 6.66360908 8 11 C8 11.66 8 12.32 8 13 C8.99 13 9.98 13 11 13 C11 14.65 11 16.3 11 18 C9.35 18 7.7 18 6 18 C5.34 19.32 4.68 20.64 4 22 C4 19 4 19 6 16 C5.61203517 12.6282329 3.99709489 9.8520045 2.4375 6.875 C0 2.22096317 0 2.22096317 0 0 Z " fill="#7863B6" transform="translate(388,542)"/>
<path d="M0 0 C3.82074422 3.82074422 4.25429534 7.82710542 4.265625 13.0703125 C4.26820313 14.21371094 4.27078125 15.35710937 4.2734375 16.53515625 C4.26570313 17.71980469 4.25796875 18.90445312 4.25 20.125 C4.25773437 21.31738281 4.26546875 22.50976562 4.2734375 23.73828125 C4.27085937 24.87910156 4.26828125 26.01992188 4.265625 27.1953125 C4.26224121 28.75789795 4.26224121 28.75789795 4.25878906 30.35205078 C4 33 4 33 2 36 C2.00785522 34.91730835 2.00785522 34.91730835 2.01586914 33.81274414 C2.03657358 30.56267151 2.04963918 27.31261272 2.0625 24.0625 C2.07087891 22.92619141 2.07925781 21.78988281 2.08789062 20.61914062 C2.09272461 18.99975586 2.09272461 18.99975586 2.09765625 17.34765625 C2.10551147 15.84730835 2.10551147 15.84730835 2.11352539 14.31665039 C2.26181095 12.03792772 2.26181095 12.03792772 1 11 C0.76636119 9.15108054 0.58696365 7.29511969 0.4375 5.4375 C0.35371094 4.42558594 0.26992188 3.41367187 0.18359375 2.37109375 C0.12300781 1.58863281 0.06242187 0.80617188 0 0 Z " fill="#574A7E" transform="translate(481,367)"/>
<path d="M0 0 C-1.32 0.33 -2.64 0.66 -4 1 C-4 1.66 -4 2.32 -4 3 C-16.87537556 8.9012138 -16.87537556 8.9012138 -23 7 C-22.39414062 6.84144531 -21.78828125 6.68289063 -21.1640625 6.51953125 C-15.39283794 4.91246718 -10.36088873 2.81314491 -5.12890625 -0.109375 C-3 -1 -3 -1 0 0 Z " fill="#876ECF" transform="translate(380,574)"/>
<path d="M0 0 C2.429107 2.2178803 3.90820066 4.40933831 5.4375 7.3125 C7.4438646 11.03339436 9.59474855 14.52574791 12 18 C11.67 18.66 11.34 19.32 11 20 C8.28032619 17.68827726 6.74889069 14.94367447 5.05078125 11.8359375 C3.88030446 9.72366114 3.88030446 9.72366114 1.75 6.8125 C0 4 0 4 0 0 Z " fill="#4C4167" transform="translate(466,339)"/>
<path d="M0 0 C0.99 0.495 0.99 0.495 2 1 C4.86583983 9.75673281 4.17675853 18.89693558 4 28 C3.67 28 3.34 28 3 28 C2.93941406 26.85660156 2.87882813 25.71320313 2.81640625 24.53515625 C2.73201572 23.04425695 2.64736698 21.55337225 2.5625 20.0625 C2.52318359 19.30775391 2.48386719 18.55300781 2.44335938 17.77539062 C2.55961976 14.08055813 2.55961976 14.08055813 1 11 C0.76636119 9.15108054 0.58696365 7.29511969 0.4375 5.4375 C0.35371094 4.42558594 0.26992188 3.41367187 0.18359375 2.37109375 C0.12300781 1.58863281 0.06242188 0.80617188 0 0 Z " fill="#53449C" transform="translate(762,410)"/>
<path d="M0 0 C0.66 0 1.32 0 2 0 C2 0.99 2 1.98 2 3 C2.66 3 3.32 3 4 3 C4.33 4.65 4.66 6.3 5 8 C5.66 8 6.32 8 7 8 C7.99 11.3 8.98 14.6 10 18 C9.34 18 8.68 18 8 18 C7.67 16.35 7.34 14.7 7 13 C6.34 13 5.68 13 5 13 C3.50178941 9.62902617 3 7.79557881 3 4 C2.34 4 1.68 4 1 4 C0.67 2.68 0.34 1.36 0 0 Z " fill="#665591" transform="translate(362,497)"/>
<path d="M0 0 C0.66 0.33 1.32 0.66 2 1 C1.34 2.98 0.68 4.96 0 7 C-0.66 7 -1.32 7 -2 7 C-2.18175781 7.61488281 -2.36351562 8.22976563 -2.55078125 8.86328125 C-2.80214844 9.67152344 -3.05351562 10.47976563 -3.3125 11.3125 C-3.55613281 12.11300781 -3.79976563 12.91351563 -4.05078125 13.73828125 C-5.04182023 16.09964573 -6.08074943 17.33879993 -8 19 C-6.98779357 12.33756663 -5.13604399 8.3026205 -1 3 C-0.67 2.01 -0.34 1.02 0 0 Z " fill="#7863A4" transform="translate(381,330)"/>
<path d="M0 0 C1 2 1 2 0.25 4.4375 C-1 7 -1 7 -2.41015625 8.3671875 C-4.2977281 10.3057748 -5.41070136 12.30644309 -6.6875 14.6875 C-7.34298828 15.89986328 -7.34298828 15.89986328 -8.01171875 17.13671875 C-8.50091797 18.05904297 -8.50091797 18.05904297 -9 19 C-9.33 18.34 -9.66 17.68 -10 17 C-9.1796875 15.1171875 -9.1796875 15.1171875 -7.875 12.875 C-7.41480469 12.07964844 -6.95460938 11.28429687 -6.48046875 10.46484375 C-4.36708942 6.94626233 -2.21334135 3.45657989 0 0 Z " fill="#635292" transform="translate(409,536)"/>
<path d="M0 0 C2.4375 1.3125 2.4375 1.3125 3.25 3.4375 C3.311875 4.05625 3.37375 4.675 3.4375 5.3125 C1.4375 5.3125 1.4375 5.3125 -0.1875 3.8125 C-0.64125 3.3175 -1.095 2.8225 -1.5625 2.3125 C-3.2125 3.6325 -4.8625 4.9525 -6.5625 6.3125 C-7.2225 5.9825 -7.8825 5.6525 -8.5625 5.3125 C-3.71024495 -0.99543157 -3.71024495 -0.99543157 0 0 Z " fill="#413957" transform="translate(398.5625,559.6875)"/>
<path d="M0 0 C6.04801071 0.54981916 11.30601106 1.90429574 17 4 C11.74477575 5.51460611 7.52650481 4.69386582 2.5625 2.4375 C1.716875 1.963125 0.87125 1.48875 0 1 C0 0.67 0 0.34 0 0 Z " fill="#564785" transform="translate(451,623)"/>
<path d="M0 0 C0.33 0.99 0.66 1.98 1 3 C-0.23414044 5.34282452 -1.49246493 7.48292584 -2.9375 9.6875 C-3.32357422 10.29400391 -3.70964844 10.90050781 -4.10742188 11.52539062 C-5.06246419 13.02280265 -6.03006086 14.51219401 -7 16 C-7.33 15.34 -7.66 14.68 -8 14 C-6.85546875 11.50390625 -6.85546875 11.50390625 -5.1875 8.5625 C-4.64480469 7.59441406 -4.10210938 6.62632812 -3.54296875 5.62890625 C-2.42075011 3.71687298 -1.22978996 1.84468495 0 0 Z " fill="#6751CF" transform="translate(700,559)"/>
<path d="M0 0 C2.47266124 2.26237627 4.063866 4.57453333 5.6875 7.5 C6.12449219 8.2734375 6.56148438 9.046875 7.01171875 9.84375 C8 12 8 12 8 15 C3.50464913 11.17895176 0.70410614 5.80887562 0 0 Z " fill="#5B4E68" transform="translate(61,420)"/>
<path d="M0 0 C2.77194429 1.02707831 3.82810489 1.6944087 5.30078125 4.3125 C5.63464844 5.199375 5.96851563 6.08625 6.3125 7 C6.65925781 7.886875 7.00601563 8.77375 7.36328125 9.6875 C8 12 8 12 7 14 C3.03810217 9.76486783 1.56818272 5.452999 0 0 Z " fill="#51438A" transform="translate(722,339)"/>
<path d="M0 0 C5.45479185 0.56820748 9.91059256 1.94637945 15 4 C10.06062889 5.52730554 6.16776364 4.0005063 1.5625 1.875 C1.046875 1.58625 0.53125 1.2975 0 1 C0 0.67 0 0.34 0 0 Z " fill="#7F69A7" transform="translate(166,578)"/>
<path d="M0 0 C0.99 0.495 0.99 0.495 2 1 C2 1.99 2 2.98 2 4 C3.98 3.67 5.96 3.34 8 3 C7.34 4.98 6.68 6.96 6 9 C5.01 9 4.02 9 3 9 C2.01 6.03 1.02 3.06 0 0 Z " fill="#8069B1" transform="translate(417,256)"/>
<path d="M0 0 C0.66 0 1.32 0 2 0 C2 0.66 2 1.32 2 2 C2.66 2 3.32 2 4 2 C4.66 4.64 5.32 7.28 6 10 C5.34 9.67 4.68 9.34 4 9 C4 8.34 4 7.68 4 7 C3.34 7 2.68 7 2 7 C1.34 4.69 0.68 2.38 0 0 Z " fill="#534589" transform="translate(700,302)"/>
<path d="M0 0 C0.66 0.33 1.32 0.66 2 1 C-0.65654657 4.73884332 -2.58110387 6.64978174 -7 8 C-5.50902342 4.2047869 -3.24299151 2.38957269 0 0 Z " fill="#977DAE" transform="translate(153,206)"/>
<path d="M0 0 C0.99 0.495 0.99 0.495 2 1 C2 1.66 2 2.32 2 3 C2.66 3 3.32 3 4 3 C4 3.99 4 4.98 4 6 C4.66 6 5.32 6 6 6 C6.33 7.65 6.66 9.3 7 11 C6.7525 10.38125 6.505 9.7625 6.25 9.125 C5.18261901 6.84456841 5.18261901 6.84456841 2.9375 6.0625 C2.298125 5.711875 1.65875 5.36125 1 5 C0.25 2.375 0.25 2.375 0 0 Z " fill="#4A3E7E" transform="translate(737,365)"/>
<path d="M0 0 C0.33 0.66 0.66 1.32 1 2 C0.22265625 3.7265625 0.22265625 3.7265625 -0.9375 5.625 C-1.618125 6.73875 -2.29875 7.8525 -3 9 C-4.125 5.25 -4.125 5.25 -3 3 C-2.34 3 -1.68 3 -1 3 C-0.67 2.01 -0.34 1.02 0 0 Z " fill="#7964A6" transform="translate(342,401)"/>
</svg>
