<?xml version="1.0" encoding="UTF-8"?>
<svg xmlns="http://www.w3.org/2000/svg" xmlns:xlink="http://www.w3.org/1999/xlink" width="112px" height="112px" viewBox="0 0 112 112" version="1.1">
<g id="surface1">
<path style=" stroke:none;fill-rule:nonzero;fill:rgb(20%,20%,20%);fill-opacity:1;" d="M 67.71875 68.359375 C 67.679688 69.871094 67.820312 71.332031 67.644531 72.785156 C 67.453125 74.324219 66.023438 75.457031 64.488281 75.355469 C 62.839844 75.246094 61.714844 74.089844 61.65625 72.449219 C 61.65625 72.378906 61.65625 72.304688 61.65625 72.230469 C 61.65625 61.511719 61.652344 50.796875 61.65625 40.078125 C 61.65625 38.734375 62.402344 37.652344 63.617188 37.207031 C 64.78125 36.777344 66.128906 37.136719 66.949219 38.089844 C 67.558594 38.800781 67.695312 39.648438 67.695312 40.542969 C 67.703125 43.476562 67.703125 46.410156 67.707031 49.34375 C 67.707031 50.164062 67.707031 50.167969 68.503906 50.167969 C 75.324219 50.167969 82.140625 50.15625 88.957031 50.171875 C 91.511719 50.175781 93.488281 51.292969 94.632812 53.582031 C 96.769531 57.839844 93.78125 62.726562 89.183594 62.808594 C 85.558594 62.871094 81.929688 62.828125 78.304688 62.828125 C 75.078125 62.828125 71.855469 62.824219 68.628906 62.820312 C 67.78125 62.820312 67.714844 62.882812 67.714844 63.710938 C 67.714844 65.242188 67.714844 66.773438 67.71875 68.359375 Z M 67.71875 68.359375 "/>
<path style=" stroke:none;fill-rule:nonzero;fill:rgb(20%,20%,20%);fill-opacity:1;" d="M 25.8125 50.078125 C 31.738281 50.078125 37.605469 50.078125 43.476562 50.074219 C 44.261719 50.074219 44.261719 50.070312 44.261719 49.289062 C 44.261719 46.207031 44.257812 43.125 44.265625 40.046875 C 44.265625 38.449219 45.332031 37.203125 46.800781 37.050781 C 48.46875 36.878906 49.828125 37.820312 50.179688 39.40625 C 50.234375 39.648438 50.238281 39.910156 50.238281 40.164062 C 50.242188 50.882812 50.222656 61.601562 50.261719 72.320312 C 50.265625 73.902344 48.949219 75.351562 47.144531 75.382812 C 45.609375 75.410156 44.285156 74.042969 44.269531 72.386719 C 44.246094 69.46875 44.261719 66.554688 44.257812 63.636719 C 44.257812 62.8125 44.257812 62.808594 43.449219 62.808594 C 36.777344 62.808594 30.105469 62.808594 23.433594 62.8125 C 20.183594 62.8125 17.964844 61.152344 17.054688 58.042969 C 16.011719 54.476562 18.675781 50.542969 22.371094 50.160156 C 23.5 50.046875 24.628906 50.105469 25.8125 50.078125 Z M 25.8125 50.078125 "/>
<path style=" stroke:none;fill-rule:nonzero;fill:rgb(20%,20%,20%);fill-opacity:1;" d="M 56.757812 57.71875 C 58.125 58.316406 58.808594 59.621094 58.46875 60.910156 C 58.128906 62.210938 56.828125 63.078125 55.523438 62.871094 C 54.039062 62.640625 53.0625 61.511719 53.128906 60.097656 C 53.191406 58.734375 54.277344 57.621094 55.648438 57.535156 C 56.011719 57.511719 56.367188 57.597656 56.757812 57.71875 Z M 56.757812 57.71875 "/>
<path style=" stroke:none;fill-rule:nonzero;fill:rgb(20%,20%,20%);fill-opacity:1;" d="M 58.277344 52.992188 C 57.617188 54.15625 56.550781 54.699219 55.351562 54.507812 C 54.214844 54.328125 53.445312 53.574219 53.199219 52.402344 C 52.910156 51.023438 53.796875 49.628906 55.160156 49.320312 C 56.617188 48.992188 58.097656 49.875 58.4375 51.246094 C 58.585938 51.84375 58.519531 52.402344 58.277344 52.992188 Z M 58.277344 52.992188 "/>
<path style=" stroke:none;fill-rule:nonzero;fill:rgb(20%,20%,20%);fill-opacity:1;" d="M 57.53125 67.332031 C 57.625 68.832031 56.507812 69.808594 55.257812 69.367188 C 54.578125 69.128906 54.097656 68.421875 54.140625 67.726562 C 54.191406 66.902344 54.765625 66.277344 55.648438 66.089844 C 56.332031 65.941406 57.042969 66.289062 57.378906 66.933594 C 57.4375 67.046875 57.472656 67.167969 57.53125 67.332031 Z M 57.53125 67.332031 "/>
<path style=" stroke:none;fill-rule:nonzero;fill:rgb(20%,20%,20%);fill-opacity:1;" d="M 56.621094 42.875 C 57.429688 43.382812 57.71875 44.097656 57.472656 44.882812 C 57.238281 45.617188 56.550781 46.101562 55.773438 46.074219 C 55 46.050781 54.34375 45.488281 54.167969 44.683594 C 54.027344 44.058594 54.238281 43.53125 54.710938 43.121094 C 55.265625 42.640625 55.902344 42.542969 56.621094 42.875 Z M 56.621094 42.875 "/>
</g>
</svg>
