<svg width="377" height="377" viewBox="0 0 377 377" fill="none" xmlns="http://www.w3.org/2000/svg">
<circle cx="188.5" cy="188.5" r="188.5" fill="black"/>
<path d="M271.005 236.9C271.005 236.9 268.71 209.519 255.52 200.534C243.854 192.553 229.556 190.486 229.556 190.486L242.533 187.838C248.101 186.497 253.14 183.511 256.996 179.269C261.144 174.547 263.585 168.565 263.928 162.284C264.429 154.313 265.124 135.985 261.749 125.724C257.352 112.353 248.868 101.648 235.524 96.1405C222.18 90.6334 207.255 91.8121 207.255 91.8121C207.255 91.8121 203.871 68.1703 203.321 63.3395C202.771 58.5087 201.123 55.475 197.594 55.2431C194.065 55.0112 191.443 59.0401 191.443 59.0401L172.911 88.6528C172.911 88.6528 173.21 64.1897 172.776 60.1415C172.343 56.0933 170.067 53.5233 166.992 54.0741C164.234 54.5668 162.171 57.6392 159.77 61.0883C159.105 62.0545 158.546 63.0207 157.909 63.9868C154.843 68.5954 147.014 80.4115 140.554 90.2856C135.666 97.7443 120.934 115.551 112.227 143.115C106.23 162.09 104.514 186.969 105.112 211.103C106.577 270.281 129.322 291.893 136.466 299.681C143.611 307.468 150.485 306.994 150.485 306.994C150.485 306.994 236.787 305.391 239.014 305.159C240.73 304.92 242.425 304.552 244.086 304.057C244.086 304.057 263.253 299.439 268.797 280.029C274.341 260.619 271.005 236.9 271.005 236.9ZM195.27 65.6679C195.27 65.6679 192.831 77.0686 195.27 79.5129C196.755 81.0008 203.678 79.5129 203.678 79.5129L189.35 99.3481C189.35 99.3481 191.79 87.9378 189.35 85.4935C187.866 84.0056 180.943 85.4935 180.943 85.4935L195.27 65.6679ZM148.904 86.9234L162.849 67.0431C162.849 67.0431 160.792 78.4888 163.231 80.9429C164.716 82.4307 171.629 80.9429 171.629 80.9429L157.311 100.768C157.311 100.768 159.751 89.3677 157.311 86.9234C155.827 85.4258 148.904 86.9234 148.904 86.9234ZM187.808 282.657C180.843 282.659 174.035 280.591 168.243 276.715C162.451 272.839 157.937 267.329 155.27 260.882C152.604 254.435 151.905 247.34 153.262 240.495C154.62 233.65 157.973 227.362 162.897 222.427C167.821 217.491 174.095 214.13 180.925 212.768C187.756 211.405 194.836 212.104 201.271 214.774C207.705 217.444 213.205 221.967 217.074 227.769C220.944 233.572 223.009 240.394 223.009 247.373C223.01 252.006 222.101 256.594 220.332 260.875C218.564 265.156 215.971 269.045 212.702 272.322C209.433 275.598 205.552 278.198 201.281 279.971C197.009 281.744 192.431 282.657 187.808 282.657ZM190.131 181.674C183.781 181.672 177.551 179.939 172.108 176.661C166.665 173.383 162.215 168.683 159.233 163.065C156.252 157.447 154.851 151.122 155.182 144.767C155.512 138.412 157.562 132.267 161.11 126.99L186.468 134.429C184.111 136.112 182.275 138.425 181.167 141.104C180.06 143.783 179.727 146.719 180.207 149.579C180.686 152.438 181.958 155.105 183.878 157.274C185.798 159.444 188.288 161.029 191.063 161.847C193.839 162.666 196.789 162.686 199.575 161.905C202.362 161.125 204.873 159.574 206.822 157.431C208.771 155.288 210.079 152.639 210.597 149.786C211.115 146.934 210.823 143.992 209.752 141.299L225.082 145.859C225.082 146.12 225.082 146.371 225.082 146.632C225.072 155.918 221.387 164.822 214.835 171.389C208.282 177.957 199.399 181.662 190.131 181.674Z" fill="url(#paint0_linear_1449_7943)"/>
<defs>
<linearGradient id="paint0_linear_1449_7943" x1="156.295" y1="67.8359" x2="329.416" y2="362.61" gradientUnits="userSpaceOnUse">
<stop stop-color="#59FB9D"/>
<stop offset="0.465" stop-color="#32DAF7"/>
<stop offset="0.765" stop-color="#2B8CFF"/>
<stop offset="1" stop-color="#2B8CFF"/>
</linearGradient>
</defs>
</svg>
