<?xml version="1.0" standalone="no"?>
<!DOCTYPE svg PUBLIC "-//W3C//DTD SVG 20010904//EN"
 "http://www.w3.org/TR/2001/REC-SVG-20010904/DTD/svg10.dtd">
<svg version="1.0" xmlns="http://www.w3.org/2000/svg"
 width="2481.000000pt" height="1755.000000pt" viewBox="0 0 2481.000000 1755.000000"
 preserveAspectRatio="xMidYMid meet">

<g transform="translate(0.000000,1755.000000) scale(0.100000,-0.100000)"
fill="#000000" stroke="none">
<path d="M9813 10732 c-62 -130 -182 -250 -315 -314 -40 -20 -68 -39 -68 -48
0 -9 23 -27 53 -42 135 -66 256 -190 328 -335 23 -46 46 -82 52 -80 6 2 31 43
56 93 62 121 191 253 303 310 46 23 78 45 78 54 0 9 -25 27 -62 43 -139 61
-254 172 -325 315 -22 45 -42 72 -52 72 -10 0 -28 -26 -48 -68z"/>
<path d="M17160 10239 c-107 -38 -205 -73 -218 -79 -22 -10 -22 -10 22 -73 24
-35 54 -93 67 -128 l24 -64 3 -835 c3 -883 1 -936 -43 -1057 l-23 -63 229 0
230 0 -15 28 c-27 51 -47 152 -56 280 -5 70 -10 562 -10 1095 0 532 -3 967 -7
967 -5 -1 -96 -32 -203 -71z"/>
<path d="M17893 10231 c-117 -42 -213 -79 -213 -82 0 -3 14 -24 31 -45 18 -22
43 -62 56 -91 52 -112 53 -126 53 -985 0 -833 -3 -897 -44 -1020 l-22 -68 223
0 c123 0 223 4 223 9 0 5 -7 26 -16 46 -47 113 -47 115 -51 1248 -3 820 -7
1067 -16 1066 -7 -1 -108 -36 -224 -78z"/>
<path d="M5367 10053 c78 -173 76 -149 83 -898 7 -642 8 -673 28 -745 74 -262
251 -423 541 -492 77 -19 127 -21 475 -25 496 -6 601 5 761 81 173 82 280 222
337 440 20 77 22 115 28 696 7 680 6 665 75 805 19 39 58 101 86 138 28 37 49
70 47 73 -3 2 -122 3 -266 2 l-261 -3 54 -70 c72 -92 111 -166 137 -262 21
-74 22 -102 26 -603 4 -555 -2 -666 -40 -789 -60 -195 -178 -321 -355 -377
-26 -8 -97 -18 -158 -21 -309 -15 -494 129 -556 431 -19 94 -20 129 -17 740 4
626 4 643 26 720 12 44 37 114 56 158 l34 78 -589 0 -588 0 36 -77z"/>
<path d="M9400 10079 c-18 -41 -89 -113 -139 -138 -22 -12 -41 -25 -41 -30 0
-5 20 -21 43 -34 51 -30 111 -94 134 -142 21 -44 38 -44 59 -2 29 56 72 104
124 137 28 18 50 36 50 41 0 5 -14 16 -31 25 -47 24 -118 93 -140 136 -23 46
-42 48 -59 7z"/>
<path d="M7988 9396 c-120 -45 -218 -84 -218 -87 0 -3 14 -24 31 -45 44 -56
68 -105 90 -191 17 -68 19 -112 19 -412 0 -185 -5 -379 -10 -431 -9 -85 -38
-228 -55 -272 -7 -17 8 -18 220 -18 212 0 227 1 220 18 -49 125 -65 305 -65
757 0 411 -7 378 92 451 139 102 333 112 440 24 20 -17 49 -56 65 -88 l28 -57
0 -410 c0 -353 -3 -424 -19 -509 -10 -54 -24 -117 -32 -139 -8 -22 -14 -41
-14 -43 0 -2 101 -4 225 -4 124 0 225 3 225 8 0 4 -7 30 -15 57 -41 133 -47
210 -54 685 -7 442 -8 468 -28 518 -66 164 -208 252 -408 252 -164 0 -279 -53
-419 -192 -49 -48 -90 -88 -92 -88 -2 0 -5 67 -6 148 l-3 149 -217 -81z"/>
<path d="M9681 9396 c-124 -44 -226 -87 -229 -94 -2 -7 10 -28 27 -48 39 -43
74 -112 98 -189 16 -53 18 -98 18 -400 0 -348 -6 -422 -46 -614 -10 -52 -19
-98 -19 -103 0 -4 101 -8 225 -8 l224 0 -14 40 c-47 133 -48 152 -54 841 l-6
657 -224 -82z"/>
<path d="M13300 9397 c-118 -44 -217 -82 -219 -83 -2 -2 12 -25 32 -51 100
-138 107 -176 107 -613 0 -199 -5 -395 -11 -445 -10 -82 -37 -203 -54 -247 -7
-17 8 -18 220 -18 l227 0 -6 23 c-55 187 -66 313 -66 744 l0 302 48 49 c58 60
118 92 169 92 40 0 135 -25 215 -56 26 -10 49 -16 51 -14 3 3 8 90 12 194 l7
189 -50 -6 c-104 -12 -233 -102 -367 -257 -44 -49 -82 -90 -87 -90 -4 0 -9 83
-10 184 l-3 183 -215 -80z"/>
<path d="M12148 9444 c-124 -30 -277 -127 -364 -232 -63 -76 -144 -236 -169
-332 -22 -88 -30 -286 -16 -379 57 -361 299 -591 640 -608 204 -10 367 50 501
186 88 89 160 212 140 237 -19 22 -29 18 -80 -30 -90 -85 -215 -129 -360 -129
-157 1 -273 46 -371 145 -95 95 -149 235 -163 426 l-8 92 491 0 491 0 0 73 c0
250 -187 487 -436 552 -72 18 -218 18 -296 -1z m229 -89 c66 -20 125 -78 153
-152 24 -64 48 -259 34 -272 -5 -5 -154 -12 -330 -16 l-322 -8 10 54 c53 294
242 457 455 394z"/>
<path d="M14605 9443 c-216 -46 -340 -175 -352 -365 -9 -138 23 -237 104 -328
59 -66 149 -121 331 -201 84 -37 176 -82 203 -100 103 -66 147 -148 136 -256
-9 -83 -48 -140 -122 -178 -53 -27 -68 -30 -150 -30 -85 0 -96 2 -167 38 -96
47 -199 154 -276 284 -45 75 -57 90 -74 85 -16 -4 -19 -11 -14 -36 2 -17 10
-111 17 -209 l13 -177 65 -20 c145 -42 232 -54 391 -55 175 0 239 13 355 69
163 80 244 224 232 411 -14 227 -132 345 -484 489 -167 68 -230 102 -283 155
-62 63 -79 124 -56 204 35 119 171 173 331 132 122 -32 235 -120 326 -255 32
-47 49 -65 62 -62 16 3 17 11 11 75 -4 40 -12 121 -18 182 l-11 109 -45 13
c-145 43 -392 55 -525 26z"/>
<path d="M16048 9444 c-245 -59 -454 -277 -530 -550 -30 -109 -32 -373 -5
-479 87 -328 340 -525 672 -525 207 1 414 107 524 269 63 92 84 140 70 157
-18 22 -28 18 -79 -30 -90 -84 -215 -129 -360 -129 -154 0 -275 46 -370 142
-99 99 -150 231 -166 434 l-7 87 493 0 492 0 -4 93 c-8 150 -63 271 -174 382
-68 68 -169 126 -260 150 -72 18 -218 18 -296 -1z m229 -89 c66 -20 132 -90
156 -166 21 -64 42 -248 31 -259 -5 -5 -154 -11 -332 -15 l-323 -8 6 29 c38
169 72 250 135 318 95 102 206 137 327 101z"/>
<path d="M18979 9445 c-269 -65 -484 -304 -544 -604 -25 -120 -17 -357 15
-456 83 -262 263 -431 510 -481 100 -20 253 -15 340 12 171 51 305 166 388
331 23 45 28 63 19 72 -17 17 -26 14 -79 -34 -94 -85 -221 -129 -369 -128
-309 2 -503 210 -526 566 l-6 97 491 0 492 0 0 63 c-1 151 -62 290 -180 407
-84 85 -163 132 -261 155 -78 18 -214 18 -290 0z m256 -103 c101 -52 154 -171
155 -348 l0 -71 -242 -6 c-133 -4 -279 -7 -325 -7 l-83 0 6 43 c9 60 51 183
79 231 30 51 100 123 140 144 89 46 197 52 270 14z"/>
<path d="M10159 9358 c62 -83 89 -145 361 -813 l257 -630 38 0 39 0 228 565
c125 311 244 600 263 643 36 81 100 184 155 250 l32 37 -186 0 -186 0 19 -37
c30 -60 44 -144 39 -229 -4 -73 -15 -105 -138 -414 -73 -184 -136 -339 -140
-343 -4 -5 -76 164 -160 374 -137 343 -154 391 -158 456 -4 64 4 126 24 177 6
15 -18 16 -260 16 l-267 0 40 -52z"/>
</g>
</svg>
