<svg width="512" height="512" viewBox="0 0 512 512" fill="none" xmlns="http://www.w3.org/2000/svg">
<rect width="512" height="512" rx="105.205" fill="#004EF9"/>
<path d="M135.187 346.051L178.177 268.44C181.931 261.663 189.033 258.439 195.843 259.271C203.413 260.195 206.348 268.965 206.348 276.829L206.344 334.221C206.344 344.288 210.443 355.984 220.179 355.306C225.881 354.909 231.372 351.726 234.515 346.051L277.505 268.44C281.259 261.662 288.362 258.438 295.173 259.271C302.741 260.196 305.677 268.964 305.677 276.826L305.681 334.224C305.682 344.289 309.781 355.983 319.515 355.306C325.218 354.91 330.71 351.727 333.854 346.051L376.844 268.44C382.694 257.878 396.678 255.946 405.016 264.548V162.073C396.678 153.472 382.694 155.403 376.844 165.965L333.854 243.577C331.19 248.386 326.839 251.406 322.103 252.457C310.928 254.936 305.682 240.844 305.681 229.051L305.677 177.792C305.677 167.727 301.578 156.034 291.844 156.71C286.141 157.106 280.648 160.29 277.505 165.965L234.515 243.577C230.764 250.349 223.666 253.571 216.858 252.743C209.283 251.822 206.343 243.048 206.344 235.18L206.348 177.795C206.348 167.729 202.249 156.032 192.513 156.71C186.811 157.107 181.32 160.291 178.177 165.965L135.187 243.577C129.337 254.138 115.353 256.07 107.016 247.469V334.222C107.016 344.288 111.115 355.983 120.85 355.306C126.552 354.91 132.044 351.726 135.187 346.051Z" fill="url(#paint0_linear_758_2450)"/>
<defs>
<linearGradient id="paint0_linear_758_2450" x1="256.016" y1="224.845" x2="256.016" y2="355.334" gradientUnits="userSpaceOnUse">
<stop stop-color="white"/>
<stop offset="1" stop-color="white" stop-opacity="0.78"/>
</linearGradient>
</defs>
</svg>
