<svg fill="none" height="59" viewBox="0 0 80 59" width="80" xmlns="http://www.w3.org/2000/svg" xmlns:xlink="http://www.w3.org/1999/xlink"><linearGradient id="a"><stop offset="0" stop-color="#242da9"/><stop offset="1" stop-color="#d30837"/></linearGradient><linearGradient id="b" gradientUnits="userSpaceOnUse" x1="29.0559" x2="47.2966" xlink:href="#a" y1="6.50406" y2="30.7247"/><linearGradient id="c" gradientUnits="userSpaceOnUse" x1="9.46332" x2="30.2994" xlink:href="#a" y1="29.6334" y2="49.4088"/><clipPath id="d"><path d="m.048096.14502h79.757v58.71h-79.757z"/></clipPath><g clip-path="url(#d)"><path d="m38.924 29.693c-.0162-2.6218-1.0554-5.1315-2.8924-6.9856s-4.324-2.9034-6.9222-2.9205l9.7668-9.85502c.0155 2.62192 1.0544 5.13212 2.8916 6.98642 1.8371 1.8543 4.3245 2.9033 6.923 2.9197z" fill="url(#b)"/><path d="m19.4102 29.693c.0163-2.6222 1.0558-5.1324 2.8934-6.9866s4.3253-2.9031 6.924-2.9195l-9.7667-9.85502c-.0163 2.62222-1.0558 5.13232-2.8934 6.98652-1.8377 1.8543-4.3253 2.9032-6.92407 2.9196z" fill="#1b227f"/><path d="m49.5796 19.8323c1.3298.1311 2.6722-.0115 3.9459-.4191 1.2736-.4075 2.4521-1.0717 3.464-1.9521 1.0119-.8805 1.8363-1.959 2.4231-3.1702.5869-1.2112.9241-2.5301.9912-3.8766l8.7516 10.2438c-1.3299-.1315-2.6723.0107-3.9461.4179-1.2739.4072-2.4525 1.071-3.4647 1.9512s-1.8369 1.9585-2.4241 3.1696-.9247 2.5299-.9921 3.8764z" fill="#a8062c"/><path d="m19.4607 49.2271c-.0012-2.6177-1.0231-5.1298-2.8448-6.9935-1.8218-1.8636-4.2971-2.9292-6.89105-2.9665l9.84275-9.8011c.0012 2.6179 1.023 5.1303 2.8446 6.9945 1.8217 1.8641 4.297 2.9303 6.8912 2.9683z" fill="url(#c)"/><path d="m33.9633.14502h-9.4884c-2.7413 0-4.9635 2.24232-4.9635 5.00837v9.57411c0 2.766 2.2222 5.0083 4.9635 5.0083h9.4884c2.7413 0 4.9635-2.2423 4.9635-5.0083v-9.57411c0-2.76605-2.2222-5.00837-4.9635-5.00837z" fill="#242da9"/><path d="m53.3788 19.7841h-9.4884c-2.7413 0-4.9635 2.2423-4.9635 5.0083v9.5741c0 2.766 2.2222 5.0084 4.9635 5.0084h9.4884c2.7413 0 4.9636-2.2424 4.9636-5.0084v-9.5741c0-2.766-2.2223-5.0083-4.9636-5.0083z" fill="#d30837"/><path d="m74.8443 1.11261h-9.4884c-2.7413 0-4.9636 2.24232-4.9636 5.00837v9.57412c0 2.766 2.2223 5.0083 4.9636 5.0083h9.4884c2.7413 0 4.9635-2.2423 4.9635-5.0083v-9.57412c0-2.76605-2.2222-5.00837-4.9635-5.00837z" fill="#d30837"/><path d="m14.5 19.7841h-9.48836c-2.74129 0-4.9635443 2.2423-4.9635443 5.0083v9.5741c0 2.766 2.2222543 5.0084 4.9635443 5.0084h9.48836c2.7413 0 4.9636-2.2424 4.9636-5.0084v-9.5741c0-2.766-2.2223-5.0083-4.9636-5.0083z" fill="#242da9"/><path d="m33.8058 39.2642h-9.4884c-2.7413 0-4.9635 2.2423-4.9635 5.0084v9.5741c0 2.766 2.2222 5.0083 4.9635 5.0083h9.4884c2.7413 0 4.9636-2.2423 4.9636-5.0083v-9.5741c0-2.7661-2.2223-5.0084-4.9636-5.0084z" fill="#d30837"/><path d="m74.8417 24.7414h-8.3354c-2.7413 0-4.9636 2.2423-4.9636 5.0084v24.0941c0 2.766 2.2223 5.0083 4.9636 5.0083h8.3354c2.7412 0 4.9635-2.2423 4.9635-5.0083v-24.0941c0-2.7661-2.2223-5.0084-4.9635-5.0084z" fill="#242da9"/></g></svg>