<svg id="svg" version="1.1" xmlns="http://www.w3.org/2000/svg" xmlns:xlink="http://www.w3.org/1999/xlink" width="400" height="400" viewBox="0, 0, 400,400"><g id="svgg"><path id="path0" d="M160.352 53.658 C 148.773 56.698,139.420 74.776,138.802 95.313 C 138.055 120.112,151.626 119.809,167.054 94.682 C 167.582 93.821,167.789 94.235,175.829 112.244 C 181.710 125.417,181.188 123.661,179.395 124.243 C 169.386 127.490,159.807 136.183,156.623 144.906 C 150.876 160.654,158.912 175.854,177.638 184.652 C 179.732 185.636,181.500 186.485,181.568 186.540 C 181.635 186.594,180.861 187.843,179.847 189.315 C 171.866 200.903,171.286 210.238,178.607 209.256 C 180.685 208.977,180.934 208.611,182.699 203.250 C 184.419 198.023,184.612 197.863,184.440 201.810 C 184.298 205.050,184.977 207.567,186.321 208.782 C 187.052 209.444,187.046 209.487,186.053 210.988 C 184.019 214.062,184.486 218.347,186.969 219.384 C 191.288 221.189,195.023 219.713,197.108 215.377 L 198.512 212.459 200.086 212.577 C 201.521 212.685,201.717 212.835,202.295 214.273 C 203.997 218.506,205.951 220.038,209.609 220.005 C 214.815 219.958,216.670 216.480,214.098 211.591 C 212.993 209.490,212.982 209.414,213.694 208.769 C 215.071 207.523,215.745 204.952,215.538 201.733 C 215.308 198.146,215.630 198.523,217.226 203.711 C 218.738 208.628,219.585 209.544,222.372 209.277 C 228.656 208.673,227.692 200.918,219.880 189.224 L 218.031 186.456 221.567 185.012 C 241.816 176.744,250.422 158.774,242.168 141.992 C 238.530 134.597,229.397 127.018,221.191 124.587 C 220.278 124.316,219.531 123.989,219.531 123.860 C 219.531 123.283,231.921 94.938,232.399 94.421 C 232.554 94.253,233.529 95.396,234.565 96.960 C 250.086 120.395,262.090 119.389,261.210 94.727 C 260.320 69.789,247.349 50.989,232.706 53.416 C 219.452 55.612,213.483 68.586,208.219 106.641 C 207.342 112.979,206.531 118.628,206.416 119.195 L 206.207 120.227 199.827 120.259 L 193.447 120.290 193.181 118.055 C 187.468 69.901,180.768 54.455,165.114 53.345 C 163.398 53.223,161.544 53.345,160.352 53.658 M216.166 137.657 C 230.984 139.746,236.771 146.348,235.144 159.309 C 233.634 171.333,224.231 175.335,198.539 174.885 C 179.996 174.561,174.406 173.298,169.266 168.271 C 162.420 161.575,163.577 146.596,171.336 141.456 C 177.684 137.252,199.926 135.367,216.166 137.657 M176.329 146.515 C 169.434 148.516,167.902 159.367,173.640 165.565 C 180.461 172.933,189.213 171.843,198.242 162.502 L 199.805 160.886 198.438 159.656 C 197.686 158.979,197.109 158.304,197.155 158.156 C 197.720 156.372,195.821 157.204,192.799 160.065 C 186.931 165.620,182.067 166.445,177.992 162.577 C 172.693 157.548,175.969 147.273,183.008 146.845 C 183.661 146.805,183.629 146.746,182.813 146.484 C 181.500 146.064,177.824 146.081,176.329 146.515 M204.785 155.100 C 204.087 155.754,203.516 156.403,203.516 156.542 C 203.516 156.680,204.131 156.198,204.883 155.469 C 206.134 154.257,206.421 153.903,206.152 153.908 C 206.099 153.909,205.483 154.445,204.785 155.100 M282.929 228.086 C 278.458 230.895,280.378 237.891,285.619 237.891 C 288.760 237.891,290.566 236.528,291.190 233.687 C 292.147 229.330,286.761 225.678,282.929 228.086 M244.238 228.416 L 241.016 228.547 241.016 252.750 L 241.016 276.953 245.117 276.953 L 249.219 276.953 249.265 275.879 C 249.290 275.288,249.290 274.673,249.265 274.512 C 249.190 274.035,249.545 274.165,251.083 275.180 C 263.856 283.612,277.942 270.195,273.696 253.642 C 270.954 242.949,260.273 238.357,251.660 244.166 L 250.000 245.286 250.000 236.706 L 250.000 228.125 248.730 228.205 C 248.032 228.248,246.011 228.343,244.238 228.416 M305.859 234.971 C 303.818 235.246,302.104 235.488,302.051 235.509 C 301.997 235.530,301.953 236.401,301.953 237.445 C 301.953 238.490,301.841 240.160,301.705 241.156 L 301.456 242.969 298.609 242.969 L 295.763 242.969 295.635 246.095 L 295.508 249.221 298.306 249.220 L 301.105 249.219 301.261 259.473 C 301.426 270.319,301.615 271.549,303.517 274.220 C 305.681 277.260,312.795 278.545,317.866 276.811 C 320.468 275.922,320.402 276.104,319.472 272.401 L 318.682 269.256 317.251 269.767 C 311.222 271.921,310.156 270.187,310.156 258.223 L 310.156 249.219 314.453 249.219 L 318.750 249.219 318.750 246.094 L 318.750 242.969 314.408 242.969 L 310.065 242.969 310.233 238.672 C 310.346 235.776,310.265 234.390,309.986 234.423 C 309.757 234.449,307.900 234.695,305.859 234.971 M82.900 242.371 C 81.013 242.960,79.576 243.801,78.076 245.195 L 77.050 246.147 76.797 244.460 L 76.544 242.773 72.647 242.773 L 68.750 242.773 68.750 259.863 L 68.750 276.953 73.242 276.953 L 77.734 276.953 77.741 265.527 C 77.749 251.565,78.333 249.851,83.256 249.350 C 88.455 248.820,89.063 250.472,89.063 265.131 L 89.063 276.953 93.538 276.953 L 98.014 276.953 98.128 265.067 C 98.237 253.713,98.279 253.131,99.059 252.079 C 102.048 248.048,107.146 248.374,108.680 252.694 C 109.042 253.715,109.180 257.242,109.180 265.527 L 109.180 276.953 113.574 276.953 L 117.969 276.953 117.969 263.937 C 117.969 248.699,117.902 248.319,114.631 245.049 C 110.105 240.522,102.286 240.732,97.661 245.503 L 96.425 246.778 94.585 244.939 C 91.662 242.015,87.188 241.032,82.900 242.371 M136.620 242.197 C 127.196 244.573,122.047 255.688,125.377 266.463 C 130.294 282.375,153.815 281.166,157.425 264.815 C 160.566 250.591,149.789 238.876,136.620 242.197 M175.000 242.356 C 159.518 246.664,158.864 271.797,174.103 276.796 C 185.907 280.669,195.907 273.450,196.394 260.705 C 196.909 247.226,187.255 238.946,175.000 242.356 M217.314 242.336 C 215.372 242.971,213.316 244.195,212.293 245.325 C 211.438 246.270,211.018 245.737,210.965 243.639 L 210.938 242.551 206.934 242.662 L 202.930 242.773 202.828 259.863 L 202.726 276.953 207.222 276.953 L 211.719 276.953 211.727 265.918 C 211.738 252.429,212.436 250.243,217.004 249.386 C 223.198 248.224,224.199 250.466,224.210 265.527 L 224.219 276.953 228.711 276.953 L 233.203 276.953 233.203 264.133 C 233.203 249.458,233.037 248.339,230.434 245.515 C 227.585 242.424,221.532 240.957,217.314 242.336 M280.859 259.766 L 280.859 276.953 285.352 276.953 L 289.844 276.953 289.844 259.766 L 289.844 242.578 285.352 242.578 L 280.859 242.578 280.859 259.766 M143.973 249.568 C 148.347 251.554,150.433 258.982,148.325 265.069 C 145.705 272.636,136.293 272.142,133.915 264.312 C 131.069 254.945,136.922 246.365,143.973 249.568 M182.325 249.348 C 186.104 250.719,188.224 255.289,187.783 261.115 C 186.771 274.496,172.156 273.420,172.103 259.961 C 172.071 251.841,176.506 247.237,182.325 249.348 M260.844 249.898 C 266.691 252.588,266.880 265.989,261.118 269.365 C 258.053 271.162,252.852 270.317,250.783 267.687 C 249.708 266.321,249.601 255.061,250.641 252.869 C 252.282 249.411,256.878 248.072,260.844 249.898 M322.266 258.008 L 322.266 261.719 331.055 261.719 L 339.844 261.719 339.844 258.008 L 339.844 254.297 331.055 254.297 L 322.266 254.297 322.266 258.008 M115.024 288.294 C 111.871 289.243,110.322 293.398,112.068 296.222 C 114.916 300.830,122.027 298.822,122.024 293.411 C 122.023 289.674,118.644 287.204,115.024 288.294 M249.482 288.259 L 245.644 288.477 245.687 297.416 L 245.730 306.355 244.272 305.074 C 238.225 299.765,228.121 301.915,224.061 309.376 C 220.874 315.230,221.028 325.745,224.381 331.250 C 228.507 338.026,239.000 339.802,244.434 334.645 L 245.703 333.440 245.708 334.396 C 245.723 337.076,245.781 337.109,250.436 337.109 L 254.688 337.109 254.688 312.500 C 254.688 289.294,254.649 287.895,254.004 287.966 C 253.628 288.008,251.593 288.140,249.482 288.259 M262.858 289.225 C 262.769 289.315,262.742 300.131,262.799 313.261 L 262.903 337.135 267.291 337.024 L 271.680 336.914 271.725 331.114 L 271.770 325.314 273.129 323.955 L 274.487 322.596 279.246 329.853 L 284.004 337.109 289.099 337.109 L 294.194 337.109 293.435 336.035 C 280.686 317.993,280.388 317.522,281.163 316.649 C 284.335 313.079,292.480 303.614,292.718 303.223 C 292.949 302.842,291.943 302.734,288.167 302.734 L 283.319 302.734 277.723 309.375 C 274.645 313.027,272.026 316.016,271.903 316.016 C 271.780 316.016,271.719 309.951,271.767 302.539 L 271.855 289.063 267.438 289.063 C 265.009 289.063,262.948 289.136,262.858 289.225 M139.648 302.500 C 128.999 305.123,124.043 319.280,129.966 330.162 C 135.483 340.299,153.128 339.932,157.826 329.583 C 159.061 326.862,159.265 327.036,153.214 325.633 L 150.764 325.065 150.245 326.308 C 149.057 329.151,146.728 330.363,142.969 330.094 C 135.680 329.572,133.687 314.283,140.395 310.351 C 143.987 308.246,149.232 309.933,150.218 313.510 L 150.443 314.324 154.225 313.562 C 158.930 312.614,158.805 312.755,157.458 309.907 C 154.499 303.650,147.240 300.631,139.648 302.500 M198.926 302.557 C 188.294 305.420,183.463 319.362,189.354 330.185 C 194.950 340.468,213.287 339.773,217.354 329.124 C 218.207 326.889,218.459 327.116,213.913 326.017 L 210.143 325.105 209.546 326.364 C 207.403 330.879,200.904 331.576,197.883 327.615 C 194.309 322.930,195.443 312.743,199.813 310.268 C 203.385 308.245,208.394 309.965,209.551 313.611 C 209.755 314.255,216.954 313.432,217.917 312.654 C 218.303 312.343,215.550 307.373,214.297 306.120 C 210.715 302.538,204.417 301.078,198.926 302.557 M112.109 319.922 L 112.109 337.109 116.602 337.109 L 121.094 337.109 121.094 319.922 L 121.094 302.734 116.602 302.734 L 112.109 302.734 112.109 319.922 M241.718 310.213 C 247.529 313.026,247.448 326.544,241.602 329.591 C 235.823 332.604,230.664 328.135,230.664 320.117 C 230.664 311.623,235.563 307.233,241.718 310.213 M162.760 313.932 C 162.617 314.076,162.500 315.745,162.500 317.643 L 162.500 321.094 172.070 321.094 L 181.641 321.094 181.641 317.383 L 181.641 313.672 172.331 313.672 C 167.210 313.672,162.904 313.789,162.760 313.932 " stroke="none" fill="#bc1b74" fill-rule="evenodd"></path><path id="path1" d="M0.000 200.000 L 0.000 400.000 200.000 400.000 L 400.000 400.000 400.000 200.000 L 400.000 0.000 200.000 0.000 L 0.000 0.000 0.000 200.000 M168.752 53.738 C 181.452 56.627,189.074 76.540,193.194 117.592 L 193.450 120.144 199.752 119.989 C 203.219 119.904,206.101 119.793,206.158 119.742 C 206.215 119.691,207.046 114.057,208.006 107.220 C 211.290 83.813,213.488 74.521,217.824 65.723 C 225.474 50.199,242.156 48.684,251.660 62.649 C 261.646 77.321,264.815 106.957,256.994 112.526 C 251.534 116.414,244.653 111.864,235.261 98.156 L 232.526 94.164 228.000 104.406 C 223.121 115.448,220.063 122.559,219.856 123.342 C 219.778 123.640,220.998 124.350,222.949 125.144 C 253.930 137.748,252.303 173.797,220.215 185.743 C 217.975 186.577,217.939 186.047,220.507 189.987 C 228.037 201.539,228.605 209.375,221.913 209.375 C 219.400 209.375,218.652 208.492,217.097 203.681 L 215.844 199.805 215.620 203.125 C 215.388 206.577,215.068 207.525,213.730 208.737 L 212.934 209.457 213.964 211.014 C 216.157 214.328,215.603 218.266,212.761 219.556 C 208.327 221.569,203.079 218.823,202.077 213.965 C 201.874 212.979,201.706 212.891,200.043 212.891 L 198.230 212.891 197.506 214.941 C 195.040 221.923,184.540 222.225,184.645 215.312 C 184.672 213.504,185.837 210.506,186.726 209.956 C 186.975 209.802,186.687 209.192,185.990 208.398 C 184.622 206.841,183.936 204.053,184.198 201.117 C 184.371 199.170,184.274 199.339,182.820 203.516 C 181.026 208.668,180.418 209.375,177.778 209.375 C 170.996 209.375,171.775 201.257,179.694 189.410 C 181.593 186.569,181.610 186.518,180.753 186.161 C 173.337 183.071,167.766 179.429,163.273 174.734 C 147.382 158.130,154.516 133.705,177.871 124.748 C 179.407 124.159,180.707 123.654,180.759 123.625 C 180.811 123.597,180.521 122.883,180.114 122.040 C 179.707 121.198,177.702 116.729,175.658 112.109 C 173.614 107.490,171.120 101.953,170.115 99.805 C 169.111 97.656,168.125 95.482,167.925 94.972 C 167.584 94.104,167.424 94.252,165.375 97.316 C 156.131 111.143,148.306 116.519,143.071 112.641 C 135.894 107.324,137.237 84.414,145.719 67.471 C 151.554 55.816,158.825 51.480,168.752 53.738 M192.383 136.979 C 170.843 138.296,163.923 143.585,165.004 157.905 C 166.018 171.337,176.259 175.612,205.660 174.876 C 227.785 174.323,235.584 169.123,235.060 155.273 C 234.501 140.464,222.129 135.160,192.383 136.979 M222.133 142.813 C 235.061 148.969,230.481 170.313,216.231 170.313 C 211.319 170.313,207.985 168.694,202.703 163.747 L 199.812 161.039 196.246 164.414 C 190.744 169.621,187.128 171.093,181.890 170.256 C 165.147 167.583,166.698 141.797,183.601 141.797 C 187.917 141.797,190.317 143.091,195.765 148.354 L 199.998 152.444 204.030 148.585 C 211.402 141.530,216.214 139.995,222.133 142.813 M181.744 147.255 C 175.559 148.724,173.249 157.649,177.861 162.254 C 181.958 166.345,186.684 165.668,192.697 160.127 C 196.429 156.687,196.489 157.136,191.670 152.447 C 186.391 147.311,184.866 146.514,181.744 147.255 M214.648 147.435 C 212.494 148.409,204.297 155.713,204.297 156.658 C 204.297 157.478,210.478 162.607,212.966 163.852 C 218.308 166.524,220.883 165.615,223.374 160.174 C 226.857 152.567,221.287 144.435,214.648 147.435 M288.898 228.080 C 292.121 230.045,292.137 235.198,288.927 237.301 C 283.476 240.873,277.383 233.463,281.985 228.860 C 283.790 227.056,286.683 226.729,288.898 228.080 M250.000 236.753 L 250.000 245.382 251.166 244.401 C 254.566 241.540,261.653 240.917,266.093 243.089 C 278.364 249.093,276.881 273.086,263.998 277.000 C 259.375 278.404,253.242 277.386,250.304 274.726 C 249.650 274.135,249.609 274.182,249.609 275.525 L 249.609 276.953 245.313 276.953 L 241.016 276.953 241.016 252.757 L 241.016 228.561 242.676 228.411 C 243.589 228.329,245.610 228.231,247.168 228.193 L 250.000 228.125 250.000 236.753 M310.547 238.672 L 310.547 242.969 314.648 242.969 L 318.750 242.969 318.750 246.289 L 318.750 249.609 314.433 249.609 L 310.116 249.609 310.234 258.758 C 310.381 270.194,311.009 271.263,316.708 269.785 L 318.751 269.255 319.166 270.858 C 319.394 271.740,319.745 273.076,319.945 273.828 C 320.503 275.930,320.440 276.053,318.457 276.752 C 313.724 278.418,307.277 277.783,304.543 275.383 C 301.707 272.893,301.385 271.381,301.242 259.880 L 301.115 249.642 298.311 249.528 L 295.508 249.414 295.394 246.191 L 295.281 242.969 298.422 242.969 L 301.563 242.969 301.563 240.875 C 301.563 239.723,301.671 237.987,301.804 237.018 L 302.046 235.254 305.222 234.873 C 306.969 234.663,308.882 234.466,309.473 234.433 L 310.547 234.375 310.547 238.672 M90.775 242.277 C 91.755 242.569,93.172 243.523,94.404 244.718 L 96.424 246.680 98.387 244.868 C 104.070 239.623,113.319 241.087,116.910 247.799 C 117.742 249.355,117.781 249.917,117.969 263.184 L 118.164 276.954 113.574 276.953 L 108.984 276.953 108.976 265.332 C 108.965 250.599,108.212 248.555,103.112 249.416 C 98.583 250.181,98.066 251.849,98.055 265.723 L 98.047 276.953 93.555 276.953 L 89.063 276.953 89.062 265.332 C 89.061 251.053,88.544 249.479,83.854 249.479 C 78.510 249.479,77.734 251.532,77.734 265.686 L 77.734 276.953 73.242 276.953 L 68.750 276.953 68.750 259.752 L 68.750 242.551 72.754 242.662 L 76.758 242.773 76.879 244.446 L 76.999 246.119 78.763 244.567 C 81.694 241.987,86.643 241.043,90.775 242.277 M148.508 243.235 C 162.731 249.937,160.929 273.217,145.885 277.136 C 130.923 281.033,119.967 266.996,125.801 251.403 C 128.843 243.273,140.040 239.245,148.508 243.235 M185.319 242.388 C 199.746 246.764,201.057 269.794,187.247 276.256 C 173.430 282.722,160.181 270.402,163.635 254.299 C 165.642 244.940,175.635 239.450,185.319 242.388 M227.468 243.108 C 232.719 245.687,233.203 247.453,233.203 264.040 L 233.203 276.953 228.732 276.953 L 224.261 276.953 224.142 265.137 C 224.027 253.636,224.000 253.282,223.137 251.895 C 220.841 248.203,214.965 248.667,212.906 252.703 C 212.158 254.170,212.109 254.962,212.109 265.609 L 212.109 276.953 207.422 276.953 L 202.734 276.953 202.734 259.752 L 202.734 242.552 206.934 242.663 L 211.133 242.773 211.328 244.470 L 211.523 246.166 212.500 245.102 C 215.642 241.679,222.654 240.744,227.468 243.108 M290.142 259.766 L 290.139 276.953 285.499 276.953 L 280.859 276.953 280.859 259.766 L 280.859 242.578 285.502 242.578 L 290.144 242.578 290.142 259.766 M137.695 249.946 C 131.839 253.563,131.847 266.102,137.707 269.421 C 143.596 272.757,148.828 268.214,148.828 259.766 C 148.828 251.477,143.222 246.532,137.695 249.946 M176.758 249.674 C 170.664 253.036,170.544 266.461,176.580 269.540 C 184.681 273.673,191.575 260.837,185.831 252.314 C 183.955 249.529,179.414 248.208,176.758 249.674 M253.500 250.118 C 250.541 251.683,250.000 253.270,250.000 260.383 C 250.000 267.168,250.360 268.063,253.695 269.578 C 260.127 272.500,265.040 268.081,265.038 259.375 C 265.035 251.132,259.691 246.844,253.500 250.118 M339.844 258.008 L 339.844 261.719 331.055 261.719 L 322.266 261.719 322.266 258.008 L 322.266 254.297 331.055 254.297 L 339.844 254.297 339.844 258.008 M119.437 288.670 C 124.024 291.466,122.565 298.223,117.265 298.732 C 113.773 299.068,111.331 296.856,111.331 293.359 C 111.331 289.055,115.814 286.461,119.437 288.670 M254.688 312.500 L 254.688 337.109 250.195 337.109 L 245.703 337.109 245.703 335.305 L 245.703 333.501 244.476 334.701 C 239.830 339.243,230.572 338.629,225.912 333.471 C 220.530 327.513,220.004 314.990,224.841 307.938 C 229.084 301.752,238.452 300.048,243.669 304.514 L 245.313 305.920 245.313 297.119 L 245.313 288.319 247.754 288.180 C 249.097 288.104,251.206 288.007,252.441 287.966 L 254.688 287.891 254.688 312.500 M271.968 302.290 L 272.070 315.908 277.547 309.419 L 283.024 302.930 288.192 302.734 C 291.035 302.627,293.361 302.594,293.360 302.661 C 293.360 302.729,290.523 306.035,287.057 310.009 C 281.425 316.466,280.798 317.325,281.155 318.090 C 281.375 318.560,284.387 322.958,287.848 327.863 C 291.309 332.767,294.141 336.854,294.141 336.945 C 294.141 337.035,291.812 337.103,288.965 337.094 L 283.789 337.079 279.105 329.882 L 274.421 322.685 273.148 323.919 L 271.875 325.153 271.875 331.131 L 271.875 337.109 267.188 337.109 L 262.500 337.109 262.500 313.101 L 262.500 289.092 266.113 288.963 C 268.101 288.892,270.208 288.798,270.796 288.753 L 271.865 288.672 271.968 302.290 M150.448 303.077 C 153.433 304.234,155.940 306.534,157.397 309.449 C 159.042 312.740,159.068 312.692,155.176 313.446 C 153.296 313.810,151.473 314.190,151.126 314.290 C 150.700 314.413,150.333 314.086,150.003 313.289 C 148.436 309.506,142.966 308.175,139.828 310.815 C 135.155 314.748,135.551 326.415,140.453 329.193 C 143.886 331.139,148.154 330.022,149.805 326.746 C 150.234 325.893,150.620 325.132,150.661 325.056 C 150.761 324.868,158.321 326.644,158.685 326.941 C 158.842 327.069,158.461 328.253,157.837 329.571 C 152.219 341.450,133.110 340.246,128.698 327.734 C 123.077 311.791,135.781 297.388,150.448 303.077 M210.215 303.208 C 213.198 304.573,215.371 306.645,216.783 309.470 C 218.406 312.719,218.420 312.693,214.746 313.429 C 212.974 313.784,211.152 314.173,210.699 314.295 C 210.039 314.472,209.721 314.217,209.103 313.020 C 204.567 304.231,194.331 311.506,196.066 322.284 C 197.530 331.369,207.105 333.301,209.996 325.095 C 210.155 324.645,217.791 326.905,217.893 327.432 C 218.579 330.997,212.079 336.532,206.040 337.525 C 193.851 339.531,185.681 330.468,187.178 316.604 C 188.395 305.338,200.057 298.557,210.215 303.208 M121.094 319.922 L 121.094 337.109 116.602 337.109 L 112.109 337.109 112.109 319.922 L 112.109 302.734 116.602 302.734 L 121.094 302.734 121.094 319.922 M236.247 309.761 C 228.719 312.030,228.637 328.502,236.146 329.911 C 242.783 331.156,245.313 328.266,245.313 319.441 L 245.313 313.850 244.071 312.343 C 242.045 309.886,239.079 308.907,236.247 309.761 M181.641 317.383 L 181.641 321.094 172.070 321.094 L 162.500 321.094 162.500 317.383 L 162.500 313.672 172.070 313.672 L 181.641 313.672 181.641 317.383 " stroke="none" fill="#fbfbfb" fill-rule="evenodd"></path><path id="path2" d="M178.666 142.429 C 176.615 143.156,174.018 145.377,172.595 147.620 C 171.029 150.090,171.209 150.309,173.297 148.471 C 175.466 146.562,177.493 145.941,180.718 146.197 C 185.425 146.571,186.747 147.508,196.484 157.376 C 207.797 168.840,210.045 170.313,216.231 170.313 C 223.300 170.313,229.873 163.723,229.648 156.863 C 229.610 155.702,229.598 155.711,229.261 157.142 C 227.678 163.867,220.006 167.251,213.477 164.104 C 210.064 162.460,209.242 161.758,200.000 152.599 C 188.979 141.677,185.483 140.011,178.666 142.429 " stroke="none" fill="#12b6dc" fill-rule="evenodd"></path><path id="path3" d="M211.735 142.797 C 208.430 144.335,201.312 150.450,201.837 151.299 C 201.967 151.510,201.891 151.570,201.667 151.432 C 200.989 151.013,200.281 152.192,200.723 153.002 C 201.297 154.053,204.386 156.949,204.083 156.152 C 203.940 155.776,203.973 155.468,204.157 155.467 C 204.342 155.466,205.115 154.893,205.877 154.193 C 212.252 148.337,214.927 146.720,217.841 146.962 C 225.063 147.561,226.896 157.199,221.054 163.853 C 219.557 165.558,220.260 165.707,223.242 164.315 C 230.724 160.824,231.719 150.952,225.192 144.987 C 221.528 141.638,216.117 140.757,211.735 142.797 " stroke="none" fill="#fb960d" fill-rule="evenodd"></path><path id="path4" d="M138.406 97.266 C 138.406 98.662,138.477 99.233,138.564 98.535 C 138.650 97.837,138.650 96.694,138.564 95.996 C 138.477 95.298,138.406 95.869,138.406 97.266 M196.378 120.204 C 197.071 120.290,198.302 120.292,199.112 120.207 C 199.923 120.122,199.355 120.052,197.852 120.050 C 196.348 120.048,195.685 120.118,196.378 120.204 M203.034 120.205 C 203.736 120.292,204.791 120.290,205.378 120.201 C 205.965 120.112,205.391 120.041,204.102 120.043 C 202.813 120.045,202.332 120.118,203.034 120.205 M192.285 136.988 C 192.661 137.086,193.276 137.086,193.652 136.988 C 194.028 136.890,193.721 136.809,192.969 136.809 C 192.217 136.809,191.909 136.890,192.285 136.988 M206.348 136.988 C 206.724 137.086,207.339 137.086,207.715 136.988 C 208.091 136.890,207.783 136.809,207.031 136.809 C 206.279 136.809,205.972 136.890,206.348 136.988 M235.247 156.250 C 235.247 157.002,235.327 157.310,235.426 156.934 C 235.524 156.558,235.524 155.942,235.426 155.566 C 235.327 155.190,235.247 155.498,235.247 156.250 M190.723 174.879 C 191.099 174.977,191.714 174.977,192.090 174.879 C 192.466 174.780,192.158 174.700,191.406 174.700 C 190.654 174.700,190.347 174.780,190.723 174.879 M199.121 212.776 C 199.604 212.869,200.396 212.869,200.879 212.776 C 201.362 212.683,200.967 212.606,200.000 212.606 C 199.033 212.606,198.638 212.683,199.121 212.776 M189.746 220.198 C 190.229 220.291,191.021 220.291,191.504 220.198 C 191.987 220.104,191.592 220.028,190.625 220.028 C 189.658 220.028,189.263 220.104,189.746 220.198 M244.824 228.401 C 245.308 228.494,246.099 228.494,246.582 228.401 C 247.065 228.308,246.670 228.231,245.703 228.231 C 244.736 228.231,244.341 228.308,244.824 228.401 M310.295 239.648 C 310.294 241.582,310.360 242.422,310.442 241.516 C 310.524 240.609,310.525 239.027,310.444 238.000 C 310.363 236.973,310.296 237.715,310.295 239.648 M301.669 239.063 C 301.669 240.029,301.745 240.425,301.838 239.941 C 301.931 239.458,301.931 238.667,301.838 238.184 C 301.745 237.700,301.669 238.096,301.669 239.063 M285.254 238.160 C 285.630 238.258,286.245 238.258,286.621 238.160 C 286.997 238.062,286.689 237.981,285.938 237.981 C 285.186 237.981,284.878 238.062,285.254 238.160 M70.801 242.865 C 71.821 242.946,73.491 242.946,74.512 242.865 C 75.532 242.785,74.697 242.719,72.656 242.719 C 70.615 242.719,69.780 242.785,70.801 242.865 M289.993 247.070 C 289.994 249.648,290.057 250.652,290.133 249.301 C 290.210 247.950,290.209 245.841,290.132 244.614 C 290.055 243.387,289.992 244.492,289.993 247.070 M295.446 245.898 C 295.448 247.617,295.517 248.272,295.599 247.353 C 295.682 246.434,295.680 245.028,295.596 244.228 C 295.513 243.428,295.445 244.180,295.446 245.898 M140.532 249.104 C 141.018 249.198,141.721 249.194,142.094 249.097 C 142.468 248.999,142.070 248.922,141.211 248.927 C 140.352 248.931,140.046 249.011,140.532 249.104 M179.204 249.104 C 179.690 249.198,180.393 249.194,180.766 249.097 C 181.140 248.999,180.742 248.922,179.883 248.927 C 179.023 248.931,178.718 249.011,179.204 249.104 M296.973 249.503 C 297.778 249.588,299.097 249.588,299.902 249.503 C 300.708 249.419,300.049 249.350,298.438 249.350 C 296.826 249.350,296.167 249.419,296.973 249.503 M312.207 249.507 C 313.442 249.585,315.464 249.585,316.699 249.507 C 317.935 249.430,316.924 249.366,314.453 249.366 C 311.982 249.366,310.972 249.430,312.207 249.507 M211.891 265.820 C 211.891 272.051,211.945 274.545,212.011 271.363 C 212.077 268.181,212.077 263.083,212.011 260.035 C 211.945 256.986,211.891 259.590,211.891 265.820 M109.155 265.820 C 109.155 271.621,109.210 274.049,109.276 271.215 C 109.343 268.381,109.343 263.635,109.277 260.668 C 109.210 257.701,109.156 260.020,109.155 265.820 M289.972 258.789 C 289.974 260.293,290.044 260.860,290.129 260.050 C 290.213 259.239,290.212 258.009,290.126 257.316 C 290.039 256.622,289.970 257.285,289.972 258.789 M124.340 259.570 C 124.342 260.859,124.415 261.340,124.502 260.638 C 124.589 259.935,124.587 258.881,124.498 258.294 C 124.409 257.707,124.338 258.281,124.340 259.570 M196.609 259.766 C 196.609 261.162,196.680 261.733,196.767 261.035 C 196.854 260.337,196.854 259.194,196.767 258.496 C 196.680 257.798,196.609 258.369,196.609 259.766 M148.949 259.961 C 148.951 261.250,149.024 261.730,149.111 261.028 C 149.198 260.326,149.196 259.271,149.107 258.684 C 149.018 258.097,148.947 258.672,148.949 259.961 M171.992 259.766 C 171.992 260.947,172.065 261.431,172.155 260.840 C 172.244 260.249,172.244 259.282,172.155 258.691 C 172.065 258.101,171.992 258.584,171.992 259.766 M157.919 259.766 C 157.919 260.732,157.995 261.128,158.088 260.645 C 158.181 260.161,158.181 259.370,158.088 258.887 C 157.995 258.403,157.919 258.799,157.919 259.766 M274.325 259.766 C 274.325 260.732,274.401 261.128,274.494 260.645 C 274.588 260.161,274.588 259.370,274.494 258.887 C 274.401 258.403,274.325 258.799,274.325 259.766 M289.994 269.141 C 289.994 271.826,290.057 272.925,290.133 271.582 C 290.209 270.239,290.209 268.042,290.133 266.699 C 290.057 265.356,289.994 266.455,289.994 269.141 M250.684 288.166 C 251.167 288.259,251.958 288.259,252.441 288.166 C 252.925 288.073,252.529 287.997,251.563 287.997 C 250.596 287.997,250.200 288.073,250.684 288.166 M270.020 288.941 C 270.396 289.039,271.011 289.039,271.387 288.941 C 271.763 288.843,271.455 288.763,270.703 288.763 C 269.951 288.763,269.644 288.843,270.020 288.941 M245.479 297.656 C 245.479 302.490,245.536 304.468,245.604 302.051 C 245.673 299.634,245.673 295.679,245.604 293.262 C 245.536 290.845,245.479 292.822,245.479 297.656 M262.684 313.477 C 262.684 326.582,262.733 331.887,262.793 325.265 C 262.853 318.643,262.853 307.920,262.793 301.437 C 262.733 294.953,262.683 300.371,262.684 313.477 M245.466 319.531 C 245.466 322.432,245.527 323.618,245.602 322.168 C 245.677 320.718,245.677 318.345,245.602 316.895 C 245.527 315.444,245.466 316.631,245.466 319.531 M221.623 319.727 C 221.622 321.660,221.688 322.500,221.770 321.594 C 221.852 320.687,221.853 319.105,221.772 318.078 C 221.691 317.051,221.624 317.793,221.623 319.727 M127.450 319.531 C 127.450 320.498,127.526 320.894,127.619 320.410 C 127.713 319.927,127.713 319.136,127.619 318.652 C 127.526 318.169,127.450 318.564,127.450 319.531 M143.072 337.780 C 143.666 337.870,144.544 337.868,145.025 337.775 C 145.505 337.682,145.020 337.609,143.945 337.612 C 142.871 337.615,142.478 337.691,143.072 337.780 M202.447 337.780 C 203.041 337.870,203.919 337.868,204.400 337.775 C 204.880 337.682,204.395 337.609,203.320 337.612 C 202.246 337.615,201.853 337.691,202.447 337.780 M235.259 337.780 C 235.853 337.870,236.732 337.868,237.212 337.775 C 237.693 337.682,237.207 337.609,236.133 337.612 C 235.059 337.615,234.666 337.691,235.259 337.780 " stroke="none" fill="#de97c0" fill-rule="evenodd"></path></g></svg>