<svg fill="none" height="150" viewBox="0 0 150 150" width="150" xmlns="http://www.w3.org/2000/svg"><path d="m0 0h150v150h-150z" fill="#e0ff25"/><g fill="#0a0b15"><path d="m47.8243 56.645-.8345-.043-9.839 14.2756-9.8389-14.2756-.8346.043v-.043h-8.4773v36.1191h8.4773v-23.0904l10.7174 15.1786 10.6296-15.2646v23.1764h8.4773v-36.1191h-8.4773z"/><path d="m72.9927 63.1808c1.4934 0 2.6793.387 3.6017 1.118.9224.774 1.5374 1.5909 1.8009 2.5369l8.3456-2.4079c-.7468-1.849-1.7131-3.3969-2.9869-4.6439-1.2298-1.247-2.7672-2.1929-4.5241-2.7949-1.757-.645-3.8214-.946-6.1494-.946-4.3045 0-7.5988.989-9.9707 2.9239-2.3719 1.935-3.5139 4.6439-3.5139 8.1268 0 1.806.3953 3.3969 1.142 4.7729s1.8009 2.5799 3.1625 3.5259c1.3617.946 2.9429 1.677 4.7877 2.1069l5.227 1.29c1.2738.344 2.2401.86 2.9429 1.505s1.0102 1.4189 1.0102 2.2789c0 1.118-.4831 1.978-1.4495 2.666-.9663.6879-2.1522 1.0319-3.6017.9889-1.4934 0-2.6794-.43-3.6457-1.1609-.9663-.731-1.6252-1.591-2.0205-2.623l-8.3895 2.322c.2197 1.1609.7468 2.2789 1.5813 3.2679.8346 1.032 1.9327 1.9349 3.2504 2.7519s2.8111 1.462 4.4363 1.892c1.6252.4729 3.3382.6879 5.1391.6879 2.899 0 5.3587-.4299 7.3792-1.3329s3.6017-2.107 4.6559-3.7409c1.0542-1.634 1.6252-3.5689 1.6252-5.8479 0-2.4939-.8346-4.7729-2.5037-6.7508-1.6691-1.978-3.997-3.3109-6.9839-4.0419l-5.2269-1.29c-1.142-.258-2.0644-.688-2.7233-1.2469-.6588-.559-1.0102-1.29-1.0102-2.15 0-1.2469.3953-2.1929 1.2298-2.8379.8346-.645 1.9766-.989 3.47-.989z"/><path d="m126.141 74.7475c0-3.6549-.835-6.8798-2.46-9.7177-1.669-2.838-3.909-5.0309-6.808-6.6219-2.899-1.5909-6.238-2.4079-9.971-2.4079-2.855 0-5.447.473-7.7746 1.376-2.328.9029-4.3485 2.1929-6.1054 3.9129-1.7131 1.6769-3.0747 3.6549-3.9971 5.9338-.9663 2.279-1.4056 4.7729-1.4056 7.5248 0 3.6119.8346 6.8368 2.4598 9.6318 1.6691 2.7949 3.9531 4.9878 6.8521 6.6218s6.2808 2.4079 10.0588 2.4079c3.558 0 6.72-.7309 9.487-2.1929l3.778 3.7839 5.271-5.0739-3.426-3.4399c.571-.688 1.186-1.3329 1.625-2.1069 1.625-2.795 2.459-6.0199 2.459-9.6318zm-14.276 1.505-5.446 4.9879 3.953 3.9129c-1.054.3439-2.196.5589-3.426.5589-2.065 0-3.909-.4729-5.535-1.3759-1.6248-.946-2.8985-2.236-3.777-3.9129-.9224-1.677-1.3617-3.5689-1.3617-5.7619 0-2.1929.4393-4.0419 1.3617-5.7188.9224-1.677 2.1522-2.967 3.734-3.9129 1.581-.946 3.426-1.419 5.49-1.419s3.909.473 5.49 1.419c1.582.9459 2.812 2.2359 3.734 3.9129.922 1.6769 1.362 3.5689 1.362 5.7188 0 2.15-.44 4.0849-1.318 5.7619l-4.217-4.2139z"/><path d="m136.594 85.4542c-.966-.9459-2.064-1.3759-3.382-1.3759-1.317 0-2.459.473-3.426 1.3759-.966.946-1.405 2.021-1.405 3.311 0 1.2899.483 2.4079 1.405 3.3539.967.9459 2.109 1.3759 3.426 1.3759 1.318 0 2.416-.473 3.382-1.3759.967-.946 1.406-2.064 1.406-3.3539 0-1.29-.483-2.365-1.406-3.311z"/></g></svg>