<?xml version="1.0" encoding="UTF-8"?>
<svg id="Layer_1" xmlns="http://www.w3.org/2000/svg" viewBox="0 0 112 112">
  <rect width="112" height="112" style="fill: #586ce1;"/>
  <g>
    <path d="M85.8624,22.1663l-.0036,30.6956c0,.8762.7098,1.5867,1.586,1.5874l9.1695.0068c1.3156.001,2.381,1.0688,2.379,2.3844l-.0078,5.1517c-.002,1.311-1.0634,2.3736-2.3743,2.3772l-9.1696.025c-.8749.0024-1.5829.7111-1.5828,1.5861.0005,4.0981.0014,15.2271-.0016,22.2162-.0006,1.3139-1.0659,2.3778-2.3798,2.3778h-5.1838c-1.3141,0-2.3794-1.064-2.3795-2.3781-.0008-8.3572-.0037-36.2875-.0044-43.9504,0-.7237-.8735-1.0879-1.386-.577-3.2753,3.2646-11.5537,11.5274-16.3454,16.3177-.929.9288-2.4333.9294-3.3624.0007-4.7998-4.7976-18.6949-18.6865-26.0962-26.0871-1.0711-1.071-1.673-2.5234-1.6735-4.038l-.0025-7.7996c-.0005-1.4021,1.6949-2.1044,2.6861-1.1127l25.6424,25.6553c.6197.62,1.6247.6202,2.2447.0005l25.56-25.5524c.9913-.991,2.6858-.2888,2.6857,1.1128h0Z" style="fill: #fcfcfc;"/>
    <path d="M25.4499,64.3656l-9.1569.0059c-1.3154.0009-2.3822-1.0652-2.3824-2.3805l-.0007-5.1877c-.0002-1.3147,1.0647-2.3806,2.3794-2.3811,2.5221-.001,6.5016-.0024,9.168-.0029.8754-.0002,1.5844-.7099,1.5844-1.5853v-8.8524c0-1.4014,1.6942-2.1035,2.6855-1.1129l21.1148,21.1011c.9292.9286.9307,2.4343.0034,3.3647l-3.6444,3.6566c-.9323.9355-2.448.9332-3.3775-.0049l-5.4457-5.4961c-.5114-.5162-1.3915-.1542-1.3912.5724.0018,4.783.0063,16.9639.0083,22.1311.0005,1.3135-1.0619,2.378-2.3754,2.3805-1.5721.003-3.6255.0062-5.1982.0062-1.3147,0-2.3797-1.0647-2.38-2.3794-.0014-5.2649-.0047-17.8195-.0059-22.2529-.0002-.8753-.7101-1.5832-1.5854-1.5826h0Z" style="fill: #fcfcfc;"/>
  </g>
</svg>