<?xml version="1.0" encoding="UTF-8"?>
<svg xmlns="http://www.w3.org/2000/svg" xmlns:xlink="http://www.w3.org/1999/xlink" width="112px" height="112px" viewBox="0 0 112 112" version="1.1">
<g id="surface1">
<path style=" stroke:none;fill-rule:nonzero;fill:rgb(7.058824%,18.431373%,70.588237%);fill-opacity:1;" d="M 90.691406 11.652344 C 100.128906 19.226562 106.667969 28.996094 110.167969 40.550781 C 110.253906 40.832031 110.339844 41.109375 110.425781 41.398438 C 114.28125 54.957031 112.351562 70.703125 105.519531 83.015625 C 97.835938 96.21875 86.082031 105.738281 71.449219 110.167969 C 71.167969 110.253906 70.890625 110.339844 70.601562 110.425781 C 57.042969 114.28125 41.296875 112.351562 28.984375 105.519531 C 15.78125 97.835938 6.261719 86.082031 1.832031 71.449219 C 1.746094 71.167969 1.660156 70.890625 1.574219 70.601562 C -2.28125 57.042969 -0.351562 41.296875 6.480469 28.984375 C 14.164062 15.78125 25.917969 6.261719 40.550781 1.832031 C 40.832031 1.746094 41.109375 1.660156 41.398438 1.574219 C 58.320312 -3.234375 76.949219 0.988281 90.691406 11.652344 Z M 29.3125 30.1875 C 28.898438 31.433594 28.816406 32.207031 28.8125 33.5 C 28.8125 33.910156 28.808594 34.320312 28.804688 34.742188 C 28.804688 35.191406 28.804688 35.640625 28.804688 36.105469 C 28.800781 36.578125 28.800781 37.054688 28.796875 37.542969 C 28.792969 39.113281 28.789062 40.683594 28.785156 42.253906 C 28.785156 43.34375 28.78125 44.433594 28.777344 45.527344 C 28.773438 47.519531 28.773438 49.515625 28.769531 51.511719 C 28.769531 54.15625 28.761719 56.796875 28.75 59.4375 C 28.738281 62.273438 28.734375 65.109375 28.734375 67.945312 C 28.730469 69.027344 28.730469 70.105469 28.722656 71.1875 C 28.714844 72.699219 28.714844 74.210938 28.71875 75.726562 C 28.714844 76.171875 28.710938 76.617188 28.707031 77.078125 C 28.71875 79.421875 28.851562 81.105469 30.1875 83.125 C 31.5625 84.167969 32.875 84.207031 34.5625 84 C 35.742188 83.210938 36.550781 82.652344 37.1875 81.375 C 37.226562 80.28125 37.242188 79.199219 37.238281 78.101562 C 37.238281 77.765625 37.238281 77.429688 37.238281 77.082031 C 37.238281 75.964844 37.234375 74.847656 37.230469 73.730469 C 37.230469 72.957031 37.230469 72.183594 37.226562 71.40625 C 37.226562 69.371094 37.222656 67.332031 37.21875 65.292969 C 37.214844 63.214844 37.210938 61.136719 37.207031 59.054688 C 37.203125 54.972656 37.195312 50.894531 37.1875 46.8125 C 37.476562 46.8125 37.765625 46.8125 38.0625 46.8125 C 38.203125 47.316406 38.203125 47.316406 38.34375 47.832031 C 39.167969 50.058594 40.308594 52.066406 41.453125 54.140625 C 41.964844 55.078125 42.480469 56.011719 42.992188 56.949219 C 43.261719 57.4375 43.527344 57.925781 43.800781 58.425781 C 44.636719 59.957031 45.457031 61.492188 46.269531 63.035156 C 46.539062 63.539062 46.808594 64.046875 47.085938 64.566406 C 47.601562 65.542969 48.117188 66.515625 48.628906 67.492188 C 50.089844 70.234375 51.59375 73.03125 53.8125 75.25 C 54.671875 75.386719 54.671875 75.386719 55.671875 75.414062 C 56.175781 75.445312 56.175781 75.445312 56.691406 75.480469 C 58.257812 75.140625 58.875 74.238281 59.9375 73.0625 C 60.710938 71.878906 60.710938 71.878906 61.371094 70.585938 C 61.628906 70.097656 61.886719 69.613281 62.152344 69.113281 C 62.425781 68.589844 62.699219 68.0625 62.972656 67.539062 C 63.257812 66.996094 63.546875 66.453125 63.832031 65.914062 C 64.726562 64.214844 65.613281 62.515625 66.5 60.8125 C 66.644531 60.53125 66.792969 60.25 66.941406 59.960938 C 68.1875 57.566406 69.429688 55.171875 70.664062 52.773438 C 70.902344 52.308594 71.140625 51.84375 71.386719 51.367188 C 71.59375 50.960938 71.804688 50.554688 72.019531 50.136719 C 72.621094 49.003906 73.273438 47.910156 73.9375 46.8125 C 73.941406 47.234375 73.941406 47.65625 73.945312 48.09375 C 73.96875 52.078125 74.003906 56.0625 74.039062 60.046875 C 74.058594 62.09375 74.078125 64.144531 74.089844 66.191406 C 74.101562 68.171875 74.117188 70.148438 74.140625 72.125 C 74.148438 72.878906 74.152344 73.632812 74.15625 74.386719 C 74.160156 75.441406 74.171875 76.5 74.1875 77.554688 C 74.183594 77.867188 74.183594 78.179688 74.183594 78.5 C 74.21875 80.402344 74.515625 81.613281 75.6875 83.125 C 77.324219 84.214844 78.125 84.199219 80.0625 84 C 81.265625 83.214844 82.042969 82.664062 82.6875 81.375 C 82.730469 80.703125 82.75 80.03125 82.75 79.359375 C 82.753906 78.933594 82.757812 78.507812 82.761719 78.070312 C 82.761719 77.601562 82.765625 77.132812 82.765625 76.652344 C 82.769531 76.160156 82.769531 75.667969 82.773438 75.160156 C 82.78125 73.53125 82.789062 71.898438 82.792969 70.265625 C 82.792969 69.707031 82.796875 69.152344 82.796875 68.578125 C 82.804688 65.9375 82.8125 63.296875 82.816406 60.65625 C 82.820312 57.609375 82.832031 54.5625 82.847656 51.515625 C 82.863281 48.875 82.867188 46.238281 82.871094 43.597656 C 82.871094 42.472656 82.878906 41.351562 82.886719 40.226562 C 82.898438 38.65625 82.894531 37.089844 82.894531 35.519531 C 82.898438 35.054688 82.90625 34.585938 82.910156 34.109375 C 82.894531 31.550781 82.894531 31.550781 81.855469 29.253906 C 80.417969 27.976562 79.417969 27.921875 77.511719 27.8125 C 76.109375 28.089844 75.421875 28.792969 74.375 29.75 C 73.5625 30.988281 73.5625 30.988281 72.878906 32.402344 C 72.683594 32.789062 72.683594 32.789062 72.484375 33.179688 C 72.0625 34.011719 71.644531 34.847656 71.230469 35.683594 C 70.9375 36.265625 70.644531 36.84375 70.347656 37.425781 C 69.765625 38.574219 69.183594 39.722656 68.605469 40.875 C 67.617188 42.832031 66.597656 44.769531 65.570312 46.703125 C 64.355469 49 63.148438 51.304688 61.953125 53.609375 C 61.566406 54.355469 61.566406 54.355469 61.175781 55.113281 C 60.671875 56.085938 60.167969 57.058594 59.664062 58.03125 C 59.433594 58.472656 59.207031 58.917969 58.96875 59.375 C 58.765625 59.765625 58.5625 60.160156 58.351562 60.566406 C 57.933594 61.347656 57.484375 62.117188 57.019531 62.871094 C 56.363281 63.808594 56.363281 63.808594 56.4375 64.75 C 55.003906 63.410156 54.230469 61.84375 53.363281 60.105469 C 53.195312 59.773438 53.027344 59.445312 52.851562 59.101562 C 52.492188 58.390625 52.132812 57.679688 51.773438 56.96875 C 50.835938 55.117188 49.894531 53.265625 48.949219 51.414062 C 48.761719 51.050781 48.578125 50.6875 48.386719 50.3125 C 46.753906 47.117188 45.0625 43.964844 43.324219 40.828125 C 42.300781 38.980469 41.296875 37.125 40.332031 35.246094 C 40.035156 34.664062 40.035156 34.664062 39.730469 34.074219 C 39.359375 33.347656 38.992188 32.621094 38.628906 31.890625 C 37.464844 29.558594 37.464844 29.558594 35.4375 28 C 32.710938 27.414062 31.015625 27.902344 29.3125 30.1875 Z M 29.3125 30.1875 "/>
</g>
</svg>
