<svg xmlns="http://www.w3.org/2000/svg" fill="none" viewBox="0 0 213 40"><linearGradient id="b" x1="49.013" x2="61.948" y1="13.678" y2="32.536" gradientUnits="userSpaceOnUse"><stop offset="0" stop-color="#cc5cdc"/><stop offset=".245" stop-color="#7b66ff"/><stop offset=".521" stop-color="#1f8af0"/><stop offset=".76" stop-color="#00d1ff"/><stop offset="1" stop-color="#3dedd7"/></linearGradient><clipPath id="a"><path d="M.37 0h212v40H.37z"/></clipPath><g clip-path="url(#a)"><path d="M15.783 11.385c.35 0 .524 0 .657.068.118.06.213.154.273.271.068.133.068.308.068.656v15.206c0 .348 0 .523-.068.656a.624.624 0 0 1-.273.27c-.133.069-.308.069-.657.069h-2.55c-.172 0-.258 0-.338-.021a.623.623 0 0 1-.197-.093c-.068-.048-.123-.114-.233-.246L5.68 20.056c-.163-.197-.244-.295-.316-.305a.187.187 0 0 0-.165.06c-.049.053-.049.18-.049.435v7.34c0 .348 0 .523-.068.656a.623.623 0 0 1-.272.27c-.134.069-.308.069-.658.069H1.368c-.35 0-.524 0-.657-.068a.623.623 0 0 1-.273-.271c-.068-.133-.068-.308-.068-.656V12.38c0-.349 0-.523.068-.656a.623.623 0 0 1 .273-.272c.133-.067.308-.067.657-.067h2.55c.172 0 .258 0 .338.021.07.02.138.05.197.093.068.047.123.114.233.246l6.785 8.165c.163.196.244.295.316.305a.187.187 0 0 0 .165-.06c.049-.053.049-.18.049-.435v-7.34c0-.349 0-.523.068-.656a.623.623 0 0 1 .272-.272c.134-.067.308-.067.658-.067zm9.352 3.758c-.105 0-.157 0-.197.02a.188.188 0 0 0-.082.082c-.02.04-.02.092-.02.197v3.186c0 .105 0 .157.02.197a.188.188 0 0 0 .082.081c.04.02.092.02.197.02h6.317c.35 0 .524 0 .657.068.118.06.213.155.273.272.068.133.068.307.068.656v1.768c0 .348 0 .523-.068.656a.623.623 0 0 1-.273.27c-.133.069-.308.069-.657.069h-6.317c-.105 0-.157 0-.197.02a.187.187 0 0 0-.082.082c-.02.04-.02.092-.02.197v4.602c0 .348 0 .523-.068.656a.624.624 0 0 1-.273.27c-.133.069-.308.069-.657.069h-2.883c-.35 0-.524 0-.658-.068a.623.623 0 0 1-.272-.271c-.068-.133-.068-.308-.068-.656V12.38c0-.349 0-.523.068-.656a.623.623 0 0 1 .272-.272c.134-.067.309-.067.658-.067h11.532c.35 0 .524 0 .657.067a.63.63 0 0 1 .273.272c.068.133.068.307.068.656v1.768c0 .35 0 .523-.068.656a.623.623 0 0 1-.273.272c-.133.067-.308.067-.657.067z" fill="#000"/><path d="M49.319 2.984a.933.933 0 1 0-.199-1.856l-1.91.203c-.98.105-1.765.188-2.403.303-.657.12-1.22.281-1.743.574a5.366 5.366 0 0 0-2.036 2.01c-.298.52-.465 1.079-.59 1.732-.121.635-.211 1.416-.324 2.39l-.005.042-.187 1.86a.935.935 0 0 0 1.862.187l.186-1.847c.117-1.014.2-1.725.306-2.283.105-.553.221-.89.376-1.158a3.497 3.497 0 0 1 1.327-1.31c.272-.153.611-.266 1.162-.366.563-.102 1.28-.178 2.302-.287zm18.203-1.027a.934.934 0 0 0 .831 1.027l1.876.199c1.022.109 1.74.185 2.302.287.55.1.89.213 1.161.365.554.31 1.013.762 1.328 1.31.154.27.271.607.375 1.154.107.558.19 1.27.307 2.283l.186 1.847a.935.935 0 0 0 1.862-.187l-.188-1.86-.004-.042c-.113-.974-.203-1.755-.324-2.39-.125-.653-.293-1.213-.59-1.731a5.366 5.366 0 0 0-2.037-2.011c-.523-.293-1.086-.455-1.743-.574-.637-.115-1.423-.198-2.402-.302l-1.91-.204a.935.935 0 0 0-1.03.83zm0 36.057a.934.934 0 0 1 .831-1.027l1.876-.2c1.022-.108 1.74-.185 2.302-.286.55-.1.89-.213 1.161-.365a3.496 3.496 0 0 0 1.328-1.311c.154-.27.271-.606.375-1.153.107-.558.19-1.27.307-2.283l.186-1.847a.935.935 0 0 1 1.862.187l-.188 1.855-.004.042c-.113.974-.203 1.755-.324 2.39-.125.653-.293 1.212-.59 1.73a5.366 5.366 0 0 1-2.037 2.012c-.523.292-1.086.455-1.743.573-.637.116-1.423.2-2.402.303l-1.91.203a.935.935 0 0 1-1.03-.83zm-17.372 0a.933.933 0 0 0-.83-1.027l-1.877-.2c-1.022-.108-1.74-.185-2.302-.286-.55-.1-.89-.213-1.162-.365a3.497 3.497 0 0 1-1.327-1.311c-.155-.27-.27-.606-.376-1.153-.106-.558-.189-1.27-.306-2.283l-.186-1.847a.935.935 0 0 0-1.862.187l.187 1.855.005.042c.113.974.203 1.755.324 2.39.125.653.292 1.212.59 1.73a5.366 5.366 0 0 0 2.036 2.012c.523.292 1.086.455 1.743.573.638.116 1.423.2 2.402.303l1.911.203a.935.935 0 0 0 1.03-.83zm-.51-25.223a.805.805 0 0 0-.806.806v13.05c0 .444.36.804.805.804h2.55a.803.803 0 0 0 .804-.799V13.6a.805.805 0 0 0-.805-.806zm6.891 0a.805.805 0 0 0-.805.806v13.05c0 .444.36.804.805.804h6.148c1.61.005 3.039-.296 4.285-.896 1.247-.6 2.213-1.45 2.9-2.554s1.028-2.396 1.028-3.876-.343-2.77-1.029-3.874-1.652-1.956-2.899-2.556c-1.246-.6-2.675-.9-4.285-.9zm9.005 10.283c-.756.712-1.765 1.068-3.025 1.068h-2.384a.242.242 0 0 1-.242-.24v-7.56a.24.24 0 0 1 .242-.24h2.384c1.26 0 2.269.354 3.025 1.067.77.712 1.155 1.696 1.155 2.952 0 1.257-.385 2.241-1.155 2.953z" fill="url(#b)" fill-rule="evenodd" clip-rule="evenodd"/><path d="M210.563 15.674c.291 0 .527.236.527.527v1.637a.527.527 0 0 1-.527.527h-6.724a.527.527 0 0 1-.527-.527V16.2c0-.29.236-.526.527-.526zm-5.485-2.568c0-.29.236-.526.526-.526h2.53c.29 0 .526.236.526.526V24.62c0 .33.05.589.151.774a.83.83 0 0 0 .421.378c.185.073.398.11.639.11.168 0 .336-.015.504-.043a.398.398 0 0 1 .468.31l.383 1.81a.497.497 0 0 1-.363.589 12.6 12.6 0 0 1-.294.069 6.08 6.08 0 0 1-1.186.143c-.863.034-1.62-.08-2.27-.344-.645-.264-1.146-.673-1.505-1.228s-.535-1.256-.53-2.102zm-6.782 15.482a.527.527 0 0 1-.527-.526V16.2c0-.29.236-.527.527-.527h2.529c.29 0 .526.236.526.527v11.862c0 .29-.236.526-.526.526zm1.273-14.58c-.533 0-.99-.176-1.371-.53a1.716 1.716 0 0 1-.563-1.285c0-.494.188-.917.563-1.27a1.93 1.93 0 0 1 1.37-.538c.533 0 .987.18 1.363.538.38.353.57.776.57 1.27 0 .498-.19.927-.57 1.286-.376.353-.83.53-1.362.53zm-18.34 14.58a.526.526 0 0 1-.526-.526V11.896c0-.291.236-.527.526-.527h2.588c.29 0 .527.231.527.522v6.912a.154.154 0 0 0 .273.097l5.992-7.342c.1-.124.25-.195.408-.195h2.994c.446 0 .69.52.406.862l-5.423 6.543a.525.525 0 0 0-.03.631l5.684 8.36a.527.527 0 0 1-.436.822h-3.08a.527.527 0 0 1-.437-.234l-4.166-6.253a.526.526 0 0 0-.845-.042l-1.221 1.49a.527.527 0 0 0-.12.334v4.18c0 .29-.235.525-.526.525zm-12.255 4.843a7.093 7.093 0 0 1-1.8-.22c-.262-.07-.393-.347-.315-.606l.516-1.711a.567.567 0 0 1 .665-.374c.222.045.429.071.623.078.342.011.636-.067.883-.236.252-.168.457-.454.614-.857l.14-.367a.525.525 0 0 0 .007-.362l-4.326-12.402a.527.527 0 0 1 .497-.7h2.628c.235 0 .442.157.506.383l2.547 9.036a.09.09 0 0 0 .172 0l2.57-9.037a.527.527 0 0 1 .51-.382h2.654c.365 0 .619.358.498.7l-4.772 13.61a6.006 6.006 0 0 1-.984 1.816 4.031 4.031 0 0 1-1.556 1.203c-.627.285-1.384.428-2.27.428zm-5.07-17.757c.29 0 .526.236.526.526v1.638a.527.527 0 0 1-.527.527h-6.724a.527.527 0 0 1-.527-.527V16.2c0-.29.236-.526.527-.526zm-5.486-2.568c0-.29.236-.526.526-.526h2.529c.29 0 .527.236.527.526V24.62c0 .33.05.589.15.774.102.18.242.305.422.378.184.073.397.11.639.11.168 0 .336-.015.504-.043a.398.398 0 0 1 .468.31l.383 1.81a.497.497 0 0 1-.363.589c-.09.023-.19.046-.295.069a6.06 6.06 0 0 1-1.185.143c-.863.034-1.62-.08-2.27-.344a3.163 3.163 0 0 1-1.505-1.228c-.36-.555-.536-1.256-.53-2.102zm-6.783 15.482a.527.527 0 0 1-.526-.526V16.2c0-.29.236-.527.526-.527h2.53c.29 0 .526.236.526.527v11.862c0 .29-.236.526-.526.526zm1.273-14.58c-.532 0-.989-.176-1.37-.53a1.716 1.716 0 0 1-.563-1.285c0-.494.187-.917.563-1.27a1.929 1.929 0 0 1 1.37-.538c.533 0 .987.18 1.363.538.381.353.571.776.571 1.27 0 .498-.19.927-.571 1.286a1.92 1.92 0 0 1-1.363.53zm-4.658 1.666c.291 0 .526.236.526.527v1.637a.526.526 0 0 1-.526.527h-6.725a.526.526 0 0 1-.526-.527V16.2c0-.29.236-.526.526-.526zm-5.485-2.568c0-.29.235-.526.526-.526h2.529c.291 0 .526.236.526.526V24.62c0 .33.051.589.152.774.101.18.241.305.42.378.185.073.398.11.639.11.168 0 .337-.015.505-.043a.398.398 0 0 1 .468.31l.383 1.81a.498.498 0 0 1-.363.589c-.091.023-.19.046-.295.069a6.06 6.06 0 0 1-1.185.143c-.864.034-1.62-.08-2.271-.344a3.173 3.173 0 0 1-1.505-1.228c-.358-.555-.535-1.256-.529-2.102zm-12.005 8.016v6.94c0 .29-.235.526-.526.526h-2.53a.526.526 0 0 1-.525-.526V16.2c0-.29.235-.526.526-.526h2.36c.292 0 .527.236.527.526v1.663c0 .05.04.09.09.09a.09.09 0 0 0 .084-.058 3.598 3.598 0 0 1 1.415-1.725c.678-.443 1.49-.664 2.45-.664.898 0 1.68.196 2.347.588s1.185.953 1.555 1.682c.37.723.555 1.586.555 2.59v7.696c0 .29-.235.526-.526.526h-2.53a.526.526 0 0 1-.524-.526v-7.057c.005-.79-.197-1.407-.606-1.85-.41-.448-.972-.673-1.69-.673a2.57 2.57 0 0 0-1.278.31 2.17 2.17 0 0 0-.857.909c-.202.393-.306.866-.312 1.42zm-11.846 7.719c-1.33 0-2.472-.27-3.431-.807a5.53 5.53 0 0 1-2.203-2.304c-.515-.998-.773-2.178-.773-3.54 0-1.328.258-2.494.773-3.498a5.722 5.722 0 0 1 2.178-2.345c.942-.56 2.046-.841 3.313-.841.852 0 1.645.137 2.379.412a5.26 5.26 0 0 1 1.934 1.22c.555.543.986 1.226 1.295 2.05.308.819.462 1.777.462 2.876v.457a.526.526 0 0 1-.526.527h-9.853a.526.526 0 0 1-.526-.527v-1.162c0-.29.236-.526.526-.526h6.481c.291 0 .533-.237.485-.524a2.57 2.57 0 0 0-.295-.846 2.407 2.407 0 0 0-.933-.934c-.392-.23-.85-.344-1.37-.344a2.76 2.76 0 0 0-1.447.379c-.414.247-.74.58-.975 1a2.823 2.823 0 0 0-.361 1.388v2.11c0 .64.117 1.19.353 1.656.24.466.58.824 1.017 1.077.437.252.956.378 1.556.378.397 0 .762-.056 1.093-.168.33-.113.613-.281.849-.506a2.1 2.1 0 0 0 .37-.472c.118-.2.326-.341.556-.326l2.319.153c.319.02.549.322.444.625a4.452 4.452 0 0 1-.873 1.5c-.515.589-1.182 1.048-2.001 1.38-.812.324-1.751.487-2.816.487zm-16.18-.042a4.874 4.874 0 0 1-2.664-.757c-.79-.51-1.418-1.258-1.883-2.245-.46-.992-.69-2.208-.69-3.65 0-1.48.238-2.71.715-3.69.476-.987 1.11-1.724 1.9-2.211a4.868 4.868 0 0 1 2.615-.74c.723 0 1.325.123 1.807.37.488.24.88.543 1.178.908.29.345.515.685.67 1.02a.068.068 0 0 0 .062.04c.037 0 .066-.03.066-.067v-5.882c0-.29.236-.526.527-.526h2.52c.29 0 .527.236.527.526v16.167c0 .29-.236.526-.527.526h-2.478a.527.527 0 0 1-.533-.526v-1.45a.092.092 0 0 0-.175-.04 4.7 4.7 0 0 1-.69 1.016 3.549 3.549 0 0 1-1.185.866c-.482.23-1.071.345-1.766.345zm1.136-2.85c.578 0 1.065-.158 1.463-.471.404-.32.712-.766.925-1.337.219-.572.328-1.242.328-2.01 0-.768-.106-1.435-.32-2-.212-.567-.521-1.004-.924-1.313-.404-.308-.894-.462-1.472-.462-.588 0-1.084.16-1.488.48s-.71.762-.916 1.328c-.208.566-.31 1.222-.31 1.967-.001.75.102 1.416.31 1.993.213.572.518 1.02.916 1.345.404.32.9.48 1.488.48zm-9.35-14.58a.525.525 0 0 1 .528.522V28.06c0 .29-.236.526-.526.526h-2.59a.526.526 0 0 1-.525-.526V11.895c0-.29.236-.526.527-.526z" fill="#000"/></g></svg>