<svg width="213" height="40" viewBox="0 0 213 40" fill="none" xmlns="http://www.w3.org/2000/svg">
<g clip-path="url(#clip0_68042_14284)">
<path d="M15.783 11.3848C16.1324 11.3848 16.307 11.3848 16.4405 11.4525C16.5578 11.5122 16.6533 11.6073 16.7131 11.7243C16.7811 11.8573 16.7811 12.0315 16.7811 12.3798V27.5861C16.7811 27.9344 16.7811 28.1086 16.7131 28.2416C16.6533 28.3586 16.5578 28.4537 16.4405 28.5134C16.307 28.5811 16.1324 28.5811 15.783 28.5811H13.2338C13.0613 28.5811 12.9751 28.5811 12.8952 28.5596C12.8245 28.5406 12.7576 28.5093 12.6978 28.4671C12.6302 28.4195 12.5752 28.3533 12.4652 28.2209L5.68046 20.0557C5.51733 19.8594 5.43576 19.7613 5.36447 19.7509C5.30274 19.742 5.24061 19.7643 5.19878 19.8105C5.15048 19.8638 5.15048 19.9912 5.15048 20.2462V27.5861C5.15048 27.9344 5.15048 28.1086 5.08249 28.2416C5.02269 28.3586 4.92726 28.4537 4.80989 28.5134C4.67646 28.5811 4.50179 28.5811 4.15244 28.5811H1.36816C1.01881 28.5811 0.844138 28.5811 0.710705 28.5134C0.593334 28.4537 0.497908 28.3586 0.438105 28.2416C0.370117 28.1086 0.370117 27.9344 0.370117 27.5861V12.3798C0.370117 12.0315 0.370117 11.8573 0.438105 11.7243C0.497908 11.6073 0.593334 11.5122 0.710705 11.4525C0.844138 11.3848 1.01881 11.3848 1.36816 11.3848H3.91738C4.08983 11.3848 4.17606 11.3848 4.25592 11.4063C4.32668 11.4253 4.39352 11.4566 4.45337 11.4988C4.52093 11.5464 4.57593 11.6126 4.68595 11.745L11.4707 19.9102C11.6338 20.1065 11.7154 20.2046 11.7867 20.215C11.8484 20.2239 11.9106 20.2016 11.9524 20.1554C12.0007 20.1021 12.0007 19.9747 12.0007 19.7197V12.3798C12.0007 12.0315 12.0007 11.8573 12.0687 11.7243C12.1285 11.6073 12.2239 11.5122 12.3413 11.4525C12.4747 11.3848 12.6494 11.3848 12.9987 11.3848H15.783Z" fill="black"/>
<path d="M25.1352 15.1434C25.0304 15.1434 24.978 15.1434 24.9379 15.1637C24.9027 15.1816 24.8741 15.2102 24.8561 15.2453C24.8358 15.2852 24.8357 15.3374 24.8357 15.4419V18.6281C24.8357 18.7326 24.8358 18.7848 24.8561 18.8247C24.8741 18.8598 24.9027 18.8884 24.9379 18.9063C24.978 18.9266 25.0304 18.9266 25.1352 18.9266H31.4518C31.8011 18.9266 31.9758 18.9266 32.1092 18.9944C32.2266 19.054 32.322 19.1491 32.3818 19.2662C32.4498 19.3992 32.4498 19.5733 32.4498 19.9216V21.6902C32.4498 22.0385 32.4498 22.2127 32.3818 22.3457C32.322 22.4627 32.2266 22.5578 32.1092 22.6175C31.9758 22.6852 31.8011 22.6852 31.4518 22.6852H25.1352C25.0304 22.6852 24.978 22.6852 24.9379 22.7056C24.9027 22.7235 24.8741 22.752 24.8561 22.7871C24.8358 22.827 24.8357 22.8793 24.8357 22.9837V27.5861C24.8357 27.9344 24.8357 28.1086 24.7678 28.2416C24.708 28.3586 24.6125 28.4537 24.4952 28.5134C24.3617 28.5811 24.1871 28.5811 23.8377 28.5811H20.9549C20.6055 28.5811 20.4308 28.5811 20.2974 28.5134C20.18 28.4537 20.0846 28.3586 20.0248 28.2416C19.9568 28.1086 19.9568 27.9344 19.9568 27.5861V12.3798C19.9568 12.0315 19.9568 11.8573 20.0248 11.7243C20.0846 11.6073 20.18 11.5122 20.2974 11.4525C20.4308 11.3848 20.6055 11.3848 20.9549 11.3848H32.4867C32.8361 11.3848 33.0107 11.3848 33.1442 11.4525C33.2615 11.5122 33.357 11.6073 33.4168 11.7243C33.4848 11.8573 33.4848 12.0315 33.4848 12.3798V14.1484C33.4848 14.4967 33.4848 14.6708 33.4168 14.8038C33.357 14.9209 33.2615 15.016 33.1442 15.0756C33.0107 15.1434 32.8361 15.1434 32.4867 15.1434H25.1352Z" fill="black"/>
<path fill-rule="evenodd" clip-rule="evenodd" d="M49.3186 2.98351C49.8325 2.9289 50.2046 2.46933 50.1498 1.95705C50.095 1.44477 49.6341 1.07376 49.1202 1.12838L47.2094 1.33149C46.2303 1.43555 45.4451 1.51901 44.8074 1.63428C44.1504 1.75303 43.5874 1.91535 43.0645 2.20752C42.2155 2.68188 41.5116 3.377 41.0281 4.2188C40.7303 4.73738 40.5626 5.29699 40.438 5.95039C40.317 6.58457 40.2267 7.36586 40.1142 8.33977L40.1094 8.38172L39.9218 10.242C39.8701 10.7546 40.245 11.212 40.7591 11.2635C41.2733 11.3151 41.732 10.9413 41.7837 10.4287L41.97 8.58178C42.0871 7.56808 42.1699 6.85678 42.2763 6.299C42.3808 5.7516 42.4973 5.41529 42.6521 5.14583C42.9671 4.59741 43.4258 4.14431 43.9794 3.83501C44.2515 3.68296 44.5905 3.56955 45.1412 3.47C45.7036 3.36835 46.4206 3.29155 47.4431 3.18287L49.3186 2.98351ZM67.5219 1.95707C67.4671 2.46935 67.8393 2.92891 68.3531 2.98353L70.2287 3.18289C71.2511 3.29157 71.9681 3.36837 72.5305 3.47002C73.0813 3.56957 73.4203 3.68298 73.6924 3.83503C74.246 4.14433 74.7047 4.59743 75.0196 5.14585C75.1744 5.41531 75.291 5.75162 75.3954 6.29902C75.5018 6.8568 75.5847 7.5681 75.7018 8.5818L75.8881 10.4287C75.9398 10.9413 76.3985 11.3151 76.9126 11.2635C77.4268 11.212 77.8017 10.7547 77.75 10.2421L77.5624 8.38174L77.5575 8.33979C77.445 7.36588 77.3548 6.58459 77.2338 5.95041C77.1091 5.29701 76.9414 4.7374 76.6436 4.21882C76.1601 3.37702 75.4563 2.6819 74.6073 2.20754C74.0843 1.91537 73.5213 1.75304 72.8643 1.6343C72.2266 1.51903 71.4414 1.43557 70.4624 1.33151L68.5515 1.1284C68.0377 1.07378 67.5767 1.44479 67.5219 1.95707ZM67.5219 38.0137C67.4671 37.5014 67.8393 37.0418 68.3531 36.9872L70.2287 36.7878C71.2511 36.6792 71.9681 36.6024 72.5305 36.5007C73.0813 36.4012 73.4203 36.2878 73.6924 36.1357C74.246 35.8264 74.7047 35.3733 75.0196 34.8249C75.1744 34.5554 75.291 34.2191 75.3954 33.6717C75.5018 33.1139 75.5847 32.4026 75.7018 31.3889L75.8881 29.542C75.9398 29.0294 76.3985 28.6557 76.9126 28.7072C77.4268 28.7588 77.8017 29.2161 77.75 29.7287L77.5624 31.589L77.5575 31.631C77.445 32.6049 77.3548 33.3862 77.2338 34.0203C77.1091 34.6737 76.9414 35.2333 76.6436 35.7519C76.1601 36.5937 75.4563 37.2888 74.6073 37.7632C74.0843 38.0554 73.5213 38.2177 72.8643 38.3364C72.2266 38.4517 71.4414 38.5352 70.4624 38.6392L68.5515 38.8423C68.0377 38.897 67.5767 38.526 67.5219 38.0137ZM50.1498 38.0137C50.2046 37.5014 49.8325 37.0418 49.3186 36.9872L47.4431 36.7878C46.4206 36.6792 45.7036 36.6024 45.1413 36.5007C44.5905 36.4012 44.2515 36.2878 43.9794 36.1357C43.4258 35.8264 42.9671 35.3733 42.6521 34.8249C42.4974 34.5554 42.3808 34.2191 42.2763 33.6717C42.1699 33.1139 42.0871 32.4026 41.97 31.3889L41.7837 29.542C41.732 29.0294 41.2733 28.6557 40.7591 28.7072C40.245 28.7588 39.8701 29.2161 39.9218 29.7287L40.1094 31.589L40.1142 31.631C40.2267 32.6049 40.317 33.3862 40.438 34.0203C40.5626 34.6737 40.7303 35.2333 41.0282 35.7519C41.5116 36.5937 42.2155 37.2888 43.0645 37.7632C43.5874 38.0554 44.1505 38.2177 44.8074 38.3364C45.4451 38.4517 46.2303 38.5352 47.2093 38.6392L47.2093 38.6392H47.2094L49.1203 38.8423C49.6341 38.897 50.0951 38.526 50.1498 38.0137ZM49.6393 12.7915C49.1946 12.7915 48.8342 13.1519 48.8342 13.5966V26.6461C48.8342 27.0907 49.1946 27.4512 49.6393 27.4512H52.1883C52.6329 27.4512 52.9934 27.0907 52.9934 26.6461V13.5966C52.9934 13.1519 52.633 12.7915 52.1883 12.7915H49.6393ZM56.5311 12.7915C56.0864 12.7915 55.726 13.1519 55.726 13.5966V26.6461C55.726 27.0907 56.0864 27.4512 56.5311 27.4512H62.679C64.2895 27.4512 65.7179 27.151 66.9643 26.5507C68.2107 25.9503 69.1769 25.0987 69.8631 23.9957C70.5493 22.8927 70.8925 21.6013 70.8925 20.1213C70.8925 18.6414 70.5493 17.35 69.8631 16.247C69.1769 15.144 68.2107 14.2924 66.9643 13.692C65.7179 13.0917 64.2895 12.7915 62.679 12.7915H56.5311ZM65.5359 23.0742C64.7796 23.7863 63.7714 24.1423 62.511 24.1423H60.1267C59.9933 24.1423 59.8852 24.0341 59.8852 23.9008V16.3419C59.8852 16.2085 59.9933 16.1004 60.1267 16.1004H62.511C63.7714 16.1004 64.7796 16.4564 65.5359 17.1685C66.3061 17.8805 66.6912 18.8648 66.6912 20.1213C66.6912 21.3779 66.3061 22.3622 65.5359 23.0742Z" fill="url(#paint0_linear_68042_14284)"/>
<path d="M210.563 15.6742C210.854 15.6742 211.09 15.9098 211.09 16.2005V17.8384C211.09 18.1291 210.854 18.3647 210.563 18.3647H203.839C203.548 18.3647 203.312 18.1291 203.312 17.8384V16.2005C203.312 15.9098 203.548 15.6742 203.839 15.6742H210.563ZM205.078 13.1064C205.078 12.8157 205.314 12.5801 205.604 12.5801H208.134C208.424 12.5801 208.66 12.8157 208.66 13.1064V24.6202C208.66 24.9509 208.71 25.2087 208.811 25.3937C208.912 25.5731 209.052 25.6992 209.232 25.7721C209.417 25.8449 209.63 25.8814 209.871 25.8814C210.039 25.8814 210.207 25.8674 210.375 25.8393C210.59 25.7964 210.798 25.9349 210.843 26.1492L211.226 27.9606C211.282 28.2261 211.127 28.4897 210.863 28.5538C210.773 28.5757 210.674 28.5986 210.569 28.6223C210.243 28.7008 209.848 28.7485 209.383 28.7653C208.52 28.7989 207.763 28.684 207.113 28.4206C206.468 28.1571 205.967 27.7479 205.608 27.193C205.249 26.6381 205.073 25.9374 205.078 25.091V13.1064Z" fill="black"/>
<path d="M198.296 28.5879C198.005 28.5879 197.769 28.3522 197.769 28.0615V16.1996C197.769 15.909 198.005 15.6733 198.296 15.6733H200.825C201.115 15.6733 201.351 15.909 201.351 16.1996V28.0615C201.351 28.3522 201.115 28.5879 200.825 28.5879H198.296ZM199.569 14.0086C199.036 14.0086 198.579 13.832 198.198 13.4789C197.823 13.1201 197.635 12.6913 197.635 12.1925C197.635 11.6992 197.823 11.276 198.198 10.9229C198.579 10.5641 199.036 10.3848 199.569 10.3848C200.101 10.3848 200.555 10.5641 200.931 10.9229C201.312 11.276 201.502 11.6992 201.502 12.1925C201.502 12.6913 201.312 13.1201 200.931 13.4789C200.555 13.832 200.101 14.0086 199.569 14.0086Z" fill="black"/>
<path d="M181.229 28.5885C180.939 28.5885 180.703 28.3529 180.703 28.0622V11.8955C180.703 11.6048 180.939 11.3691 181.229 11.3691H183.817C184.108 11.3691 184.344 11.6048 184.344 11.8955V18.8075C184.344 18.8925 184.413 18.9615 184.498 18.9615C184.544 18.9615 184.588 18.9407 184.617 18.9049L190.609 11.5627C190.709 11.4402 190.859 11.3691 191.017 11.3691H194.011C194.457 11.3691 194.701 11.8882 194.417 12.2313L188.994 18.7746C188.844 18.955 188.832 19.2126 188.964 19.4064L194.648 27.7663C194.885 28.1157 194.635 28.5885 194.212 28.5885H191.133C190.957 28.5885 190.793 28.5005 190.695 28.354L186.529 22.101C186.333 21.8066 185.908 21.7857 185.684 22.0593L184.463 23.5496C184.386 23.6437 184.344 23.7616 184.344 23.8832V28.0622C184.344 28.3529 184.108 28.5885 183.817 28.5885H181.229Z" fill="black"/>
<path d="M168.974 33.4313C168.52 33.4313 168.094 33.3949 167.696 33.322C167.506 33.2894 167.332 33.2522 167.174 33.2105C166.912 33.1415 166.781 32.8639 166.859 32.6048L167.375 30.8937C167.46 30.6146 167.754 30.4611 168.04 30.5198C168.262 30.5654 168.469 30.5914 168.663 30.5978C169.005 30.6091 169.299 30.5306 169.546 30.3624C169.798 30.1943 170.003 29.9084 170.16 29.5048L170.301 29.1384C170.346 29.0221 170.348 28.8938 170.307 28.7761L165.981 16.3735C165.862 16.0314 166.116 15.6738 166.478 15.6738H169.106C169.341 15.6738 169.548 15.8305 169.612 16.0573L172.159 25.0931C172.17 25.1315 172.205 25.1579 172.245 25.1579C172.285 25.1579 172.32 25.1316 172.331 25.0933L174.902 16.0561C174.967 15.8299 175.173 15.6738 175.409 15.6738H178.061C178.424 15.6738 178.678 16.0321 178.557 16.3744L173.784 29.9841C173.543 30.6791 173.215 31.2845 172.8 31.8002C172.391 32.3215 171.872 32.7222 171.244 33.0025C170.617 33.2884 169.86 33.4313 168.974 33.4313Z" fill="black"/>
<path d="M163.903 15.6742C164.194 15.6742 164.43 15.9098 164.43 16.2005V17.8384C164.43 18.1291 164.194 18.3647 163.903 18.3647H157.179C156.888 18.3647 156.652 18.1291 156.652 17.8384V16.2005C156.652 15.9098 156.888 15.6742 157.179 15.6742H163.903ZM158.418 13.1064C158.418 12.8157 158.654 12.5801 158.944 12.5801H161.473C161.764 12.5801 162 12.8157 162 13.1064V24.6202C162 24.9509 162.05 25.2087 162.151 25.3937C162.252 25.5731 162.392 25.6992 162.572 25.7721C162.756 25.8449 162.969 25.8814 163.211 25.8814C163.379 25.8814 163.547 25.8674 163.715 25.8393C163.93 25.7964 164.138 25.9349 164.183 26.1492L164.566 27.9606C164.622 28.2261 164.467 28.4897 164.203 28.5538C164.113 28.5757 164.014 28.5986 163.908 28.6223C163.583 28.7008 163.188 28.7485 162.723 28.7653C161.86 28.7989 161.103 28.684 160.453 28.4206C159.808 28.1571 159.306 27.7479 158.948 27.193C158.589 26.6381 158.412 25.9374 158.418 25.091V13.1064Z" fill="black"/>
<path d="M151.635 28.5879C151.345 28.5879 151.109 28.3522 151.109 28.0615V16.1996C151.109 15.909 151.345 15.6733 151.635 15.6733H154.165C154.455 15.6733 154.691 15.909 154.691 16.1996V28.0615C154.691 28.3522 154.455 28.5879 154.165 28.5879H151.635ZM152.908 14.0086C152.376 14.0086 151.919 13.832 151.538 13.4789C151.162 13.1201 150.975 12.6913 150.975 12.1925C150.975 11.6992 151.162 11.276 151.538 10.9229C151.919 10.5641 152.376 10.3848 152.908 10.3848C153.441 10.3848 153.895 10.5641 154.271 10.9229C154.652 11.276 154.842 11.6992 154.842 12.1925C154.842 12.6913 154.652 13.1201 154.271 13.4789C153.895 13.832 153.441 14.0086 152.908 14.0086Z" fill="black"/>
<path d="M148.25 15.6742C148.541 15.6742 148.776 15.9098 148.776 16.2005V17.8384C148.776 18.1291 148.541 18.3647 148.25 18.3647H141.525C141.235 18.3647 140.999 18.1291 140.999 17.8384V16.2005C140.999 15.9098 141.235 15.6742 141.525 15.6742H148.25ZM142.765 13.1064C142.765 12.8157 143 12.5801 143.291 12.5801H145.82C146.111 12.5801 146.346 12.8157 146.346 13.1064V24.6202C146.346 24.9509 146.397 25.2087 146.498 25.3937C146.599 25.5731 146.739 25.6992 146.918 25.7721C147.103 25.8449 147.316 25.8814 147.557 25.8814C147.725 25.8814 147.894 25.8674 148.062 25.8393C148.277 25.7964 148.485 25.9349 148.53 26.1492L148.913 27.9606C148.969 28.2261 148.813 28.4897 148.55 28.5538C148.459 28.5757 148.361 28.5986 148.255 28.6223C147.93 28.7008 147.535 28.7485 147.07 28.7653C146.206 28.7989 145.45 28.684 144.799 28.4206C144.155 28.1571 143.653 27.7479 143.294 27.193C142.936 26.6381 142.759 25.9374 142.765 25.091V13.1064Z" fill="black"/>
<path d="M130.76 21.1223V28.0622C130.76 28.3529 130.525 28.5885 130.234 28.5885H127.705C127.414 28.5885 127.179 28.3529 127.179 28.0622V16.2003C127.179 15.9097 127.414 15.674 127.705 15.674H130.066C130.357 15.674 130.592 15.9097 130.592 16.2003V17.863C130.592 17.9124 130.632 17.9526 130.682 17.9526C130.719 17.9526 130.752 17.9295 130.766 17.895C131.054 17.171 131.526 16.5961 132.181 16.1701C132.854 15.7273 133.67 15.5059 134.628 15.5059C135.525 15.5059 136.307 15.702 136.974 16.0944C137.641 16.4868 138.159 17.0473 138.529 17.776C138.899 18.4991 139.084 19.3623 139.084 20.3656V28.0622C139.084 28.3529 138.849 28.5885 138.558 28.5885H136.029C135.738 28.5885 135.503 28.3529 135.503 28.0622V21.0046C135.508 20.2143 135.306 19.5977 134.897 19.1549C134.488 18.7065 133.925 18.4823 133.207 18.4823C132.725 18.4823 132.299 18.586 131.929 18.7933C131.565 19.0007 131.279 19.3034 131.072 19.7014C130.87 20.0938 130.766 20.5674 130.76 21.1223Z" fill="black"/>
<path d="M118.914 28.8408C117.585 28.8408 116.442 28.5717 115.483 28.0336C114.53 27.4899 113.796 26.722 113.28 25.7299C112.765 24.7321 112.507 23.5522 112.507 22.1901C112.507 20.8617 112.765 19.6958 113.28 18.6925C113.796 17.6891 114.522 16.9072 115.458 16.3466C116.4 15.7861 117.504 15.5059 118.771 15.5059C119.623 15.5059 120.416 15.6432 121.15 15.9178C121.89 16.1869 122.535 16.5933 123.084 17.137C123.639 17.6807 124.07 18.3645 124.379 19.1885C124.687 20.0069 124.841 20.9654 124.841 22.064V22.5214C124.841 22.8121 124.606 23.0477 124.315 23.0477H114.462C114.172 23.0477 113.936 22.8121 113.936 22.5214V21.3544C113.936 21.0637 114.172 20.8281 114.462 20.8281H120.943C121.234 20.8281 121.476 20.5907 121.428 20.304C121.377 19.9972 121.278 19.7151 121.133 19.4576C120.909 19.0596 120.598 18.7485 120.2 18.5243C119.808 18.2945 119.351 18.1796 118.83 18.1796C118.286 18.1796 117.804 18.3057 117.383 18.5579C116.969 18.8046 116.644 19.1381 116.408 19.5585C116.173 19.9733 116.052 20.4357 116.047 20.9458V23.0561C116.047 23.6951 116.164 24.2473 116.4 24.7125C116.641 25.1777 116.98 25.5365 117.417 25.7887C117.854 26.041 118.373 26.1671 118.973 26.1671C119.37 26.1671 119.735 26.111 120.066 25.9989C120.396 25.8868 120.679 25.7187 120.915 25.4944C121.06 25.3562 121.184 25.1987 121.286 25.0221C121.403 24.8219 121.611 24.6809 121.841 24.6961L124.16 24.8491C124.479 24.8702 124.709 25.1711 124.604 25.4739C124.412 26.0303 124.121 26.5304 123.731 26.9742C123.216 27.5628 122.549 28.0224 121.73 28.3531C120.918 28.6782 119.979 28.8408 118.914 28.8408Z" fill="black"/>
<path d="M102.735 28.7987C101.754 28.7987 100.866 28.5465 100.07 28.042C99.2795 27.5319 98.6518 26.7836 98.1865 25.7971C97.7269 24.805 97.4971 23.5886 97.4971 22.1481C97.4971 20.6683 97.7353 19.4379 98.2117 18.457C98.6882 17.4705 99.3216 16.7334 100.112 16.2457C100.908 15.7525 101.779 15.5058 102.727 15.5058C103.45 15.5058 104.052 15.6291 104.534 15.8758C105.022 16.1168 105.415 16.4195 105.712 16.7838C106.003 17.1292 106.227 17.4693 106.383 17.8043C106.394 17.8279 106.418 17.8432 106.444 17.8432C106.481 17.8432 106.51 17.8135 106.51 17.7768V11.8955C106.51 11.6048 106.746 11.3691 107.037 11.3691H109.557C109.848 11.3691 110.084 11.6048 110.084 11.8955V28.0622C110.084 28.3529 109.848 28.5885 109.557 28.5885H107.079C106.788 28.5885 106.552 28.3529 106.552 28.0622V26.6127C106.552 26.5616 106.511 26.5202 106.46 26.5202C106.424 26.5202 106.391 26.541 106.376 26.5732C106.209 26.914 105.979 27.2523 105.686 27.588C105.384 27.9355 104.989 28.2242 104.501 28.454C104.019 28.6838 103.43 28.7987 102.735 28.7987ZM103.87 25.9484C104.448 25.9484 104.935 25.7915 105.333 25.4776C105.737 25.1581 106.045 24.7125 106.258 24.1407C106.477 23.569 106.586 22.8992 106.586 22.1312C106.586 21.3633 106.48 20.6963 106.267 20.1302C106.054 19.564 105.745 19.1268 105.342 18.8185C104.938 18.5102 104.448 18.3561 103.87 18.3561C103.282 18.3561 102.786 18.5159 102.382 18.8354C101.978 19.1549 101.673 19.5977 101.466 20.1638C101.258 20.7299 101.155 21.3857 101.155 22.1312C101.155 22.8824 101.258 23.5466 101.466 24.1239C101.679 24.6957 101.984 25.1441 102.382 25.4692C102.786 25.7887 103.282 25.9484 103.87 25.9484Z" fill="black"/>
<path d="M94.5215 11.3691C94.8122 11.3691 95.0478 11.6048 95.0478 11.8955V28.0622C95.0478 28.3529 94.8122 28.5885 94.5215 28.5885H91.9335C91.6429 28.5885 91.4072 28.3529 91.4072 28.0622V11.8955C91.4072 11.6048 91.6429 11.3691 91.9335 11.3691H94.5215Z" fill="black"/>
</g>
<defs>
<linearGradient id="paint0_linear_68042_14284" x1="49.0126" y1="13.6776" x2="61.9484" y2="32.5358" gradientUnits="userSpaceOnUse">
<stop stop-color="#CC5CDC"/>
<stop offset="0.244792" stop-color="#7B66FF"/>
<stop offset="0.520833" stop-color="#1F8AF0"/>
<stop offset="0.760417" stop-color="#00D1FF"/>
<stop offset="1" stop-color="#3DEDD7"/>
</linearGradient>
<clipPath id="clip0_68042_14284">
<rect width="212" height="40" fill="white" transform="translate(0.370117)"/>
</clipPath>
</defs>
</svg>
