<svg fill="none" height="40" viewBox="0 0 213 40" width="213" xmlns="http://www.w3.org/2000/svg" xmlns:xlink="http://www.w3.org/1999/xlink"><linearGradient id="a" gradientUnits="userSpaceOnUse" x1="49.0126" x2="61.9484" y1="13.6776" y2="32.5358"><stop offset="0" stop-color="#cc5cdc"/><stop offset=".244792" stop-color="#7b66ff"/><stop offset=".520833" stop-color="#1f8af0"/><stop offset=".760417" stop-color="#00d1ff"/><stop offset="1" stop-color="#3dedd7"/></linearGradient><clipPath id="b"><path d="m.370117 0h212v40h-212z"/></clipPath><g clip-path="url(#b)"><path d="m15.783 11.3848c.3494 0 .524 0 .6575.0677.1173.0597.2128.1548.2726.2718.068.133.068.3072.068.6555v15.2063c0 .3483 0 .5225-.068.6555-.0598.117-.1553.2121-.2726.2718-.1335.0677-.3081.0677-.6575.0677h-2.5492c-.1725 0-.2587 0-.3386-.0215-.0707-.019-.1376-.0503-.1974-.0925-.0676-.0476-.1226-.1138-.2326-.2462l-6.78474-8.1652c-.16313-.1963-.2447-.2944-.31599-.3048-.06173-.0089-.12386.0134-.16569.0596-.0483.0533-.0483.1807-.0483.4357v7.3399c0 .3483 0 .5225-.06799.6555-.0598.117-.15523.2121-.2726.2718-.13343.0677-.3081.0677-.65745.0677h-2.78428c-.34935 0-.524022 0-.657455-.0677-.117371-.0597-.212797-.1548-.2726-.2718-.067988-.133-.067988-.3072-.067988-.6555v-15.2063c0-.3483 0-.5225.067988-.6555.059803-.117.155229-.2121.2726-.2718.133433-.0677.308105-.0677.657455-.0677h2.54922c.17245 0 .25868 0 .33854.0215.07076.019.1376.0503.19745.0925.06756.0476.12256.1138.23258.2462l6.78475 8.1652c.1631.1963.2447.2944.316.3048.0617.0089.1239-.0134.1657-.0596.0483-.0533.0483-.1807.0483-.4357v-7.3399c0-.3483 0-.5225.068-.6555.0598-.117.1552-.2121.2726-.2718.1334-.0677.3081-.0677.6574-.0677z" fill="#000"/><path d="m25.1352 15.1434c-.1048 0-.1572 0-.1973.0203-.0352.0179-.0638.0465-.0818.0816-.0203.0399-.0204.0921-.0204.1966v3.1862c0 .1045.0001.1567.0204.1966.018.0351.0466.0637.0818.0816.0401.0203.0925.0203.1973.0203h6.3166c.3493 0 .524 0 .6574.0678.1174.0596.2128.1547.2726.2718.068.133.068.3071.068.6554v1.7686c0 .3483 0 .5225-.068.6555-.0598.117-.1552.2121-.2726.2718-.1334.0677-.3081.0677-.6574.0677h-6.3166c-.1048 0-.1572 0-.1973.0204-.0352.0179-.0638.0464-.0818.0815-.0203.0399-.0204.0922-.0204.1966v4.6024c0 .3483 0 .5225-.0679.6555-.0598.117-.1553.2121-.2726.2718-.1335.0677-.3081.0677-.6575.0677h-2.8828c-.3494 0-.5241 0-.6575-.0677-.1174-.0597-.2128-.1548-.2726-.2718-.068-.133-.068-.3072-.068-.6555v-15.2063c0-.3483 0-.5225.068-.6555.0598-.117.1552-.2121.2726-.2718.1334-.0677.3081-.0677.6575-.0677h11.5318c.3494 0 .524 0 .6575.0677.1173.0597.2128.1548.2726.2718.068.133.068.3072.068.6555v1.7686c0 .3483 0 .5224-.068.6554-.0598.1171-.1553.2122-.2726.2718-.1335.0678-.3081.0678-.6575.0678z" fill="#000"/><path clip-rule="evenodd" d="m49.3186 2.98351c.5139-.05461.886-.51418.8312-1.02646s-.5157-.88329-1.0296-.82867l-1.9108.20311c-.9791.10406-1.7643.18752-2.402.30279-.657.11875-1.22.28107-1.7429.57324-.849.47436-1.5529 1.16948-2.0364 2.01128-.2978.51858-.4655 1.07819-.5901 1.73159-.121.63418-.2113 1.41547-.3238 2.38938l-.0048.04195-.1876 1.86028c-.0517.5126.3232.97.8373 1.0215.5142.0516.9729-.3222 1.0246-.8348l.1863-1.84692c.1171-1.0137.1999-1.725.3063-2.28278.1045-.5474.221-.88371.3758-1.15317.315-.54842.7737-1.00152 1.3273-1.31082.2721-.15205.6111-.26546 1.1618-.36501.5624-.10165 1.2794-.17845 2.3019-.28713zm18.2033-1.02644c-.0548.51228.3174.97184.8312 1.02646l1.8756.19936c1.0224.10868 1.7394.18548 2.3018.28713.5508.09955.8898.21296 1.1619.36501.5536.3093 1.0123.7624 1.3272 1.31082.1548.26946.2714.60577.3758 1.15317.1064.55778.1893 1.26908.3064 2.28278l.1863 1.8469c.0517.5126.5104.8864 1.0245.8348.5142-.0515.8891-.5088.8374-1.0214l-.1876-1.86036-.0049-.04195c-.1125-.97391-.2027-1.7552-.3237-2.38938-.1247-.6534-.2924-1.21301-.5902-1.73159-.4835-.8418-1.1873-1.53692-2.0363-2.01128-.523-.29217-1.086-.4545-1.743-.57324-.6377-.11527-1.4229-.19873-2.4019-.30279l-1.9109-.20311c-.5138-.05462-.9748.31639-1.0296.82867zm0 36.05663c-.0548-.5123.3174-.9719.8312-1.0265l1.8756-.1994c1.0224-.1086 1.7394-.1854 2.3018-.2871.5508-.0995.8898-.2129 1.1619-.365.5536-.3093 1.0123-.7624 1.3272-1.3108.1548-.2695.2714-.6058.3758-1.1532.1064-.5578.1893-1.2691.3064-2.2828l.1863-1.8469c.0517-.5126.5104-.8863 1.0245-.8348.5142.0516.8891.5089.8374 1.0215l-.1876 1.8603-.0049.042c-.1125.9739-.2027 1.7552-.3237 2.3893-.1247.6534-.2924 1.213-.5902 1.7316-.4835.8418-1.1873 1.5369-2.0363 2.0113-.523.2922-1.086.4545-1.743.5732-.6377.1153-1.4229.1988-2.4019.3028l-1.9109.2031c-.5138.0547-.9748-.3163-1.0296-.8286zm-17.3721 0c.0548-.5123-.3173-.9719-.8312-1.0265l-1.8755-.1994c-1.0225-.1086-1.7395-.1854-2.3018-.2871-.5508-.0995-.8898-.2129-1.1619-.365-.5536-.3093-1.0123-.7624-1.3273-1.3108-.1547-.2695-.2713-.6058-.3758-1.1532-.1064-.5578-.1892-1.2691-.3063-2.2828l-.1863-1.8469c-.0517-.5126-.5104-.8863-1.0246-.8348-.5141.0516-.889.5089-.8373 1.0215l.1876 1.8603.0048.042c.1125.9739.2028 1.7552.3238 2.3893.1246.6534.2923 1.213.5902 1.7316.4834.8418 1.1873 1.5369 2.0363 2.0113.5229.2922 1.086.4545 1.7429.5732.6377.1153 1.4229.1988 2.4019.3028h.0001l1.9109.2031c.5138.0547.9748-.3163 1.0295-.8286zm-.5105-25.2222c-.4447 0-.8051.3604-.8051.8051v13.0495c0 .4446.3604.8051.8051.8051h2.549c.4446 0 .8051-.3605.8051-.8051v-13.0495c0-.4447-.3604-.8051-.8051-.8051zm6.8918 0c-.4447 0-.8051.3604-.8051.8051v13.0495c0 .4446.3604.8051.8051.8051h6.1479c1.6105 0 3.0389-.3002 4.2853-.9005 1.2464-.6004 2.2126-1.452 2.8988-2.555s1.0294-2.3944 1.0294-3.8744c0-1.4799-.3432-2.7713-1.0294-3.8743s-1.6524-1.9546-2.8988-2.555c-1.2464-.6003-2.6748-.9005-4.2853-.9005zm9.0048 10.2827c-.7563.7121-1.7645 1.0681-3.0249 1.0681h-2.3843c-.1334 0-.2415-.1082-.2415-.2415v-7.5589c0-.1334.1081-.2415.2415-.2415h2.3843c1.2604 0 2.2686.356 3.0249 1.0681.7702.712 1.1553 1.6963 1.1553 2.9528 0 1.2566-.3851 2.2409-1.1553 2.9529z" fill="url(#a)" fill-rule="evenodd"/><g fill="#000"><path d="m210.563 15.6742c.291 0 .527.2356.527.5263v1.6379c0 .2907-.236.5263-.527.5263h-6.724c-.291 0-.527-.2356-.527-.5263v-1.6379c0-.2907.236-.5263.527-.5263zm-5.485-2.5678c0-.2907.236-.5263.526-.5263h2.53c.29 0 .526.2356.526.5263v11.5138c0 .3307.05.5885.151.7735.101.1794.241.3055.421.3784.185.0728.398.1093.639.1093.168 0 .336-.014.504-.0421.215-.0429.423.0956.468.3099l.383 1.8114c.056.2655-.099.5291-.363.5932-.09.0219-.189.0448-.294.0685-.326.0785-.721.1262-1.186.143-.863.0336-1.62-.0813-2.27-.3447-.645-.2635-1.146-.6727-1.505-1.2276s-.535-1.2556-.53-2.102z"/><path d="m198.296 28.5879c-.291 0-.527-.2357-.527-.5264v-11.8619c0-.2906.236-.5263.527-.5263h2.529c.29 0 .526.2357.526.5263v11.8619c0 .2907-.236.5264-.526.5264zm1.273-14.5793c-.533 0-.99-.1766-1.371-.5297-.375-.3588-.563-.7876-.563-1.2864 0-.4933.188-.9165.563-1.2696.381-.3588.838-.5381 1.371-.5381.532 0 .986.1793 1.362.5381.381.3531.571.7763.571 1.2696 0 .4988-.19.9276-.571 1.2864-.376.3531-.83.5297-1.362.5297z"/><path d="m181.229 28.5885c-.29 0-.526-.2356-.526-.5263v-16.1667c0-.2907.236-.5264.526-.5264h2.588c.291 0 .527.2357.527.5264v6.912c0 .085.069.154.154.154.046 0 .09-.0208.119-.0566l5.992-7.3422c.1-.1225.25-.1936.408-.1936h2.994c.446 0 .69.5191.406.8622l-5.423 6.5433c-.15.1804-.162.438-.03.6318l5.684 8.3599c.237.3494-.013.8222-.436.8222h-3.079c-.176 0-.34-.088-.438-.2345l-4.166-6.253c-.196-.2944-.621-.3153-.845-.0417l-1.221 1.4903c-.077.0941-.119.212-.119.3336v4.179c0 .2907-.236.5263-.527.5263z"/><path d="m168.974 33.4313c-.454 0-.88-.0364-1.278-.1093-.19-.0326-.364-.0698-.522-.1115-.262-.069-.393-.3466-.315-.6057l.516-1.7111c.085-.2791.379-.4326.665-.3739.222.0456.429.0716.623.078.342.0113.636-.0672.883-.2354.252-.1681.457-.454.614-.8576l.141-.3664c.045-.1163.047-.2446.006-.3623l-4.326-12.4026c-.119-.3421.135-.6997.497-.6997h2.628c.235 0 .442.1567.506.3835l2.547 9.0358c.011.0384.046.0648.086.0648s.075-.0263.086-.0646l2.571-9.0372c.065-.2262.271-.3823.507-.3823h2.652c.363 0 .617.3583.496.7006l-4.773 13.6097c-.241.695-.569 1.3004-.984 1.8161-.409.5213-.928.922-1.556 1.2023-.627.2859-1.384.4288-2.27.4288z"/><path d="m163.903 15.6742c.291 0 .527.2356.527.5263v1.6379c0 .2907-.236.5263-.527.5263h-6.724c-.291 0-.527-.2356-.527-.5263v-1.6379c0-.2907.236-.5263.527-.5263zm-5.485-2.5678c0-.2907.236-.5263.526-.5263h2.529c.291 0 .527.2356.527.5263v11.5138c0 .3307.05.5885.151.7735.101.1794.241.3055.421.3784.184.0728.397.1093.639.1093.168 0 .336-.014.504-.0421.215-.0429.423.0956.468.3099l.383 1.8114c.056.2655-.099.5291-.363.5932-.09.0219-.189.0448-.295.0685-.325.0785-.72.1262-1.185.143-.863.0336-1.62-.0813-2.27-.3447-.645-.2635-1.147-.6727-1.505-1.2276-.359-.5549-.536-1.2556-.53-2.102z"/><path d="m151.635 28.5879c-.29 0-.526-.2357-.526-.5264v-11.8619c0-.2906.236-.5263.526-.5263h2.53c.29 0 .526.2357.526.5263v11.8619c0 .2907-.236.5264-.526.5264zm1.273-14.5793c-.532 0-.989-.1766-1.37-.5297-.376-.3588-.563-.7876-.563-1.2864 0-.4933.187-.9165.563-1.2696.381-.3588.838-.5381 1.37-.5381.533 0 .987.1793 1.363.5381.381.3531.571.7763.571 1.2696 0 .4988-.19.9276-.571 1.2864-.376.3531-.83.5297-1.363.5297z"/><path d="m148.25 15.6742c.291 0 .526.2356.526.5263v1.6379c0 .2907-.235.5263-.526.5263h-6.725c-.29 0-.526-.2356-.526-.5263v-1.6379c0-.2907.236-.5263.526-.5263zm-5.485-2.5678c0-.2907.235-.5263.526-.5263h2.529c.291 0 .526.2356.526.5263v11.5138c0 .3307.051.5885.152.7735.101.1794.241.3055.42.3784.185.0728.398.1093.639.1093.168 0 .337-.014.505-.0421.215-.0429.423.0956.468.3099l.383 1.8114c.056.2655-.1.5291-.363.5932-.091.0219-.189.0448-.295.0685-.325.0785-.72.1262-1.185.143-.864.0336-1.62-.0813-2.271-.3447-.644-.2635-1.146-.6727-1.505-1.2276-.358-.5549-.535-1.2556-.529-2.102z"/><path d="m130.76 21.1223v6.9399c0 .2907-.235.5263-.526.5263h-2.529c-.291 0-.526-.2356-.526-.5263v-11.8619c0-.2906.235-.5263.526-.5263h2.361c.291 0 .526.2357.526.5263v1.6627c0 .0494.04.0896.09.0896.037 0 .07-.0231.084-.0576.288-.724.76-1.2989 1.415-1.7249.673-.4428 1.489-.6642 2.447-.6642.897 0 1.679.1961 2.346.5885s1.185.9529 1.555 1.6816c.37.7231.555 1.5863.555 2.5896v7.6966c0 .2907-.235.5263-.526.5263h-2.529c-.291 0-.526-.2356-.526-.5263v-7.0576c.005-.7903-.197-1.4069-.606-1.8497-.409-.4484-.972-.6726-1.69-.6726-.482 0-.908.1037-1.278.311-.364.2074-.65.5101-.857.9081-.202.3924-.306.866-.312 1.4209z"/><path d="m118.914 28.8408c-1.329 0-2.472-.2691-3.431-.8072-.953-.5437-1.687-1.3116-2.203-2.3037-.515-.9978-.773-2.1777-.773-3.5398 0-1.3284.258-2.4943.773-3.4976.516-1.0034 1.242-1.7853 2.178-2.3459.942-.5605 2.046-.8407 3.313-.8407.852 0 1.645.1373 2.379.4119.74.2691 1.385.6755 1.934 1.2192.555.5437.986 1.2275 1.295 2.0515.308.8184.462 1.7769.462 2.8755v.4574c0 .2907-.235.5263-.526.5263h-9.853c-.29 0-.526-.2356-.526-.5263v-1.167c0-.2907.236-.5263.526-.5263h6.481c.291 0 .533-.2374.485-.5241-.051-.3068-.15-.5889-.295-.8464-.224-.398-.535-.7091-.933-.9333-.392-.2298-.849-.3447-1.37-.3447-.544 0-1.026.1261-1.447.3783-.414.2467-.739.5802-.975 1.0006-.235.4148-.356.8772-.361 1.3873v2.1103c0 .639.117 1.1912.353 1.6564.241.4652.58.824 1.017 1.0762.437.2523.956.3784 1.556.3784.397 0 .762-.0561 1.093-.1682.33-.1121.613-.2802.849-.5045.145-.1382.269-.2957.371-.4723.117-.2002.325-.3412.555-.326l2.319.153c.319.0211.549.322.444.6248-.192.5564-.483 1.0565-.873 1.5003-.515.5886-1.182 1.0482-2.001 1.3789-.812.3251-1.751.4877-2.816.4877z"/><path d="m102.735 28.7987c-.981 0-1.869-.2522-2.665-.7567-.7905-.5101-1.4182-1.2584-1.8835-2.2449-.4596-.9921-.6894-2.2085-.6894-3.649 0-1.4798.2382-2.7102.7146-3.6911.4765-.9865 1.1099-1.7236 1.9003-2.2113.796-.4932 1.667-.7399 2.615-.7399.723 0 1.325.1233 1.807.37.488.241.881.5437 1.178.908.291.3454.515.6855.671 1.0205.011.0236.035.0389.061.0389.037 0 .066-.0297.066-.0664v-5.8813c0-.2907.236-.5264.527-.5264h2.52c.291 0 .527.2357.527.5264v16.1667c0 .2907-.236.5263-.527.5263h-2.478c-.291 0-.527-.2356-.527-.5263v-1.4495c0-.0511-.041-.0925-.092-.0925-.036 0-.069.0208-.084.053-.167.3408-.397.6791-.69 1.0148-.302.3475-.697.6362-1.185.866-.482.2298-1.071.3447-1.766.3447zm1.135-2.8503c.578 0 1.065-.1569 1.463-.4708.404-.3195.712-.7651.925-1.3369.219-.5717.328-1.2415.328-2.0095 0-.7679-.106-1.4349-.319-2.001-.213-.5662-.522-1.0034-.925-1.3117-.404-.3083-.894-.4624-1.472-.4624-.588 0-1.084.1598-1.488.4793s-.709.7623-.916 1.3284c-.208.5661-.311 1.2219-.311 1.9674 0 .7512.103 1.4154.311 1.9927.213.5718.518 1.0202.916 1.3453.404.3195.9.4792 1.488.4792z"/><path d="m94.5215 11.3691c.2907 0 .5263.2357.5263.5264v16.1667c0 .2907-.2356.5263-.5263.5263h-2.588c-.2906 0-.5263-.2356-.5263-.5263v-16.1667c0-.2907.2357-.5264.5263-.5264z"/></g></g></svg>