<svg width="196" height="48" viewBox="0 0 196 48" fill="none" xmlns="http://www.w3.org/2000/svg">
    <g clip-path="url(#clip0_1284_15597)">
        <path d="M195.999 41.6051H190.208V47.3714H195.999V41.6051Z" fill="#FFC900" />
        <path
            d="M102.585 17.1069C99.7145 16.5637 97.0715 15.3373 95.8613 13.0182H116.074V10.8478C116.074 7.31494 113.897 4.19673 110.575 2.33261C108.522 1.17557 106.032 0.5 103.35 0.5C97.5499 0.5 92.6524 3.65854 91.1271 7.97916C90.8031 8.88791 90.6296 9.85085 90.6296 10.8478C90.6296 11.5914 90.7246 12.3174 90.9107 13.0182C92.1069 17.5758 96.9917 21.0204 102.902 21.1893C103.05 21.1918 103.201 21.1944 103.351 21.1944H106.74C109.673 21.1944 112.404 20.6234 114.692 19.6403V15.0096C112.198 16.454 109.007 17.3212 105.535 17.3212C104.637 17.3212 103.756 17.2619 102.902 17.1523M96.3373 9.20048C96.3373 6.71247 99.5664 4.69332 103.551 4.69332C105.59 4.69332 107.432 5.22269 108.744 6.07597C109.992 6.88388 110.763 7.98673 110.763 9.20048H96.3385H96.3373Z"
            fill="black" />
        <path
            d="M35.1002 31.5573C34.6686 30.525 34.0977 29.649 33.3167 28.9773C32.5357 28.3055 31.6319 27.853 30.5774 27.5303C29.5268 27.2102 28.4002 27.1295 27.1609 27.1295C25.7305 27.1295 23.2052 28.0433 22.085 28.7037C21.6191 28.9773 21.071 29.3352 20.5217 29.7587C20.1482 30.0435 19.7748 30.3574 19.4204 30.6901C19.0533 30.0297 18.609 29.4512 18.0571 28.9773C17.2748 28.3055 16.3723 27.853 15.3178 27.5303C14.2672 27.2102 13.1406 27.1295 11.9013 27.1295C10.471 27.1295 7.94562 28.0433 6.82536 28.7037C6.35953 28.9773 5.81143 29.3352 5.26206 29.7587V27.3539H0V47.3739H5.25826V34.1965C5.68358 33.8739 6.03675 33.6142 6.2608 33.4617C7.376 32.6941 9.11651 31.4111 10.5178 31.4111C12.3798 31.4111 13.2051 31.4539 14.0279 32.2442C14.5583 32.7546 14.8469 33.5008 15.0178 33.9482C15.2052 34.4335 15.2507 35.3296 15.2609 36.1098V38.2096V47.3727H20.5191V35.1267C20.5191 34.8103 20.5052 34.5116 20.4811 34.2243C20.4938 34.2154 20.5065 34.2054 20.5191 34.1953C20.9444 33.8726 21.2976 33.613 21.5217 33.4605C22.6369 32.6929 24.3774 31.4098 25.7786 31.4098C27.6407 31.4098 28.466 31.4527 29.2888 32.2429C29.8192 32.7534 30.1078 33.4995 30.2787 33.947C30.5622 34.6793 30.5217 36.3543 30.5217 37.1421V47.3727H35.78V35.1267C35.78 33.7025 35.5306 32.5921 35.099 31.5573H35.1002Z"
            fill="black" />
        <path
            d="M189.527 27.3161V31.8434C188.661 31.1137 186.556 31.2636 184.739 31.2636C183.338 31.2636 182.121 31.5346 180.989 32.0741C180.044 32.5215 177.276 34.3919 175.973 35.4822V47.4345H170.715V27.4144H175.973V30.8893C176.68 30.3246 177.401 29.8671 177.806 29.6239C178.927 28.9496 180.32 28.2337 181.452 27.8039C182.584 27.3741 185.162 26.9733 186.589 26.9733C187.637 26.9733 188.613 27.0892 189.525 27.3161H189.527Z"
            fill="black" />
        <path
            d="M97.8387 35.1898V47.4332H92.5804V37.2026C92.5804 36.4149 92.6209 34.7436 92.3374 34.0075C92.164 33.5601 91.8741 32.8139 91.3475 32.306C90.5222 31.5132 89.1931 31.2624 87.331 31.2624C85.9297 31.2624 84.7133 31.5334 83.5804 32.0728C82.6361 32.5203 79.8677 33.6937 78.5651 34.547V47.4332H73.3069V27.4131H78.5651V29.7171C79.2803 29.3541 79.9955 29.039 80.4247 28.8323C81.5398 28.2816 82.6285 27.9476 83.7601 27.5178C84.8918 27.088 87.75 26.9733 89.1817 26.9733C90.4209 26.9733 91.5678 27.1346 92.6222 27.4547C93.6728 27.7774 94.588 28.274 95.3729 28.9458C96.1551 29.6176 96.7602 30.4709 97.1919 31.5031C97.6235 32.5379 97.84 33.7668 97.84 35.191L97.8387 35.1898Z"
            fill="black" />
        <path d="M136.174 27.301V31.8863H127.386V47.5001H122.077V31.8863H113.288V27.301H136.174Z"
            fill="black" />
        <path d="M109.608 27.301H104.303V47.4988H109.608V27.301Z" fill="black" />
        <path
            d="M24.5331 8.98248V21.2285H19.2748V10.9979C19.2748 10.2101 19.3153 8.53883 19.0318 7.80276C18.8609 7.35532 18.5685 6.60917 18.0419 6.09871C17.2166 5.30844 15.8874 5.05762 14.0254 5.05762C12.6241 5.05762 11.4077 5.32861 10.2747 5.86806C9.33044 6.3155 6.56207 7.48892 5.25953 8.34221V21.2285H0V1.20965H5.25826V3.51364C5.97346 3.15317 6.68865 2.83555 7.11777 2.62885C8.23296 2.07806 9.32158 1.74406 10.4532 1.31426C11.5849 0.884468 14.4469 0.765991 15.8748 0.765991C17.1166 0.765991 18.2609 0.927321 19.3153 1.24998C20.366 1.57264 21.2812 2.06924 22.066 2.74102C22.8482 3.41281 23.4533 4.2661 23.885 5.29836C24.3166 6.33314 24.5331 7.56202 24.5331 8.98374V8.98248Z"
            fill="black" />
        <path
            d="M152.145 47.4861C149.415 47.4861 147.01 47.0916 144.934 46.3051C142.855 45.5174 141.236 44.3704 140.076 42.8592C138.912 41.3505 138.333 39.4939 138.333 37.2895C138.333 35.0851 138.912 33.2147 140.076 31.6795C141.238 30.1431 142.857 28.9823 144.934 28.1958C147.01 27.4081 149.415 27.0135 152.145 27.0135C154.876 27.0135 157.267 27.4081 159.315 28.1958C161.363 28.9823 162.968 30.1431 164.131 31.6795C165.293 33.2147 165.874 35.0838 165.874 37.2895C165.874 39.4952 165.293 41.3505 164.131 42.8592C162.968 44.3704 161.363 45.5161 159.315 46.3051C157.267 47.0916 154.877 47.4861 152.145 47.4861ZM152.145 43.5486C153.657 43.5486 155.015 43.3066 156.22 42.8214C157.426 42.3361 158.378 41.6265 159.074 40.6951C159.772 39.7624 160.121 38.6268 160.121 37.2895C160.121 35.9522 159.772 34.8028 159.074 33.8436C158.377 32.8857 157.433 32.1585 156.24 31.6581C155.049 31.1602 153.685 30.9094 152.144 30.9094C150.603 30.9094 149.268 31.159 148.048 31.6581C146.828 32.1585 145.862 32.8782 145.15 33.8234C144.438 34.7687 144.083 35.9233 144.083 37.2883C144.083 38.6533 144.431 39.7611 145.13 40.6938C145.828 41.624 146.784 42.3336 148.006 42.8201C149.226 43.3054 150.606 43.5474 152.145 43.5474V43.5486Z"
            fill="black" />
        <path
            d="M54.6243 47.4861C51.8939 47.4861 49.4888 47.0916 47.4128 46.3051C45.3343 45.5174 43.7153 44.3704 42.5546 42.8592C41.3913 41.3505 40.8115 39.4939 40.8115 37.2895C40.8115 35.0851 41.3913 33.2147 42.5546 31.6795C43.7166 30.1431 45.3356 28.9823 47.4128 28.1958C49.4888 27.4081 51.8939 27.0135 54.6243 27.0135C57.3547 27.0135 59.7458 27.4081 61.7939 28.1958C63.8421 28.9823 65.4471 30.1431 66.6104 31.6795C67.7725 33.2147 68.3535 35.0838 68.3535 37.2895C68.3535 39.4952 67.7725 41.3505 66.6104 42.8592C65.4471 44.3704 63.8421 45.5161 61.7939 46.3051C59.7458 47.0916 57.3559 47.4861 54.6243 47.4861ZM54.6243 43.5486C56.1357 43.5486 57.4939 43.3066 58.699 42.8214C59.9041 42.3361 60.8572 41.6265 61.5534 40.6951C62.2509 39.7624 62.6003 38.6268 62.6003 37.2895C62.6003 35.9522 62.2509 34.8028 61.5534 33.8436C60.856 32.8857 59.9116 32.1585 58.7192 31.6581C57.5281 31.1602 56.1635 30.9094 54.623 30.9094C53.0825 30.9094 51.747 31.159 50.5268 31.6581C49.3065 32.1585 48.3407 32.8782 47.6293 33.8234C46.9166 34.7687 46.5622 35.9233 46.5622 37.2883C46.5622 38.6533 46.9103 39.7611 47.609 40.6938C48.3065 41.624 49.2635 42.3336 50.485 42.8201C51.7053 43.3054 53.085 43.5474 54.6243 43.5474V43.5486Z"
            fill="black" />
        <path
            d="M43.2698 21.2045C40.5394 21.2045 38.1343 20.81 36.0583 20.0235C33.9798 19.2357 32.3608 18.0888 31.2001 16.5776C30.0368 15.0689 29.457 13.2123 29.457 11.0079C29.457 8.80348 30.0368 6.93306 31.2001 5.3979C32.3621 3.86149 33.9811 2.70067 36.0583 1.91418C38.1343 1.12644 40.5394 0.731934 43.2698 0.731934C46.0002 0.731934 48.3913 1.12644 50.4394 1.91418C52.4876 2.70067 54.0926 3.86149 55.2559 5.3979C56.418 6.93306 56.999 8.80222 56.999 11.0079C56.999 13.2136 56.418 15.0689 55.2559 16.5776C54.0926 18.0888 52.4876 19.2345 50.4394 20.0235C48.3913 20.81 46.0014 21.2045 43.2698 21.2045ZM43.2698 17.267C44.7812 17.267 46.1394 17.025 47.3445 16.5398C48.5496 16.0545 49.5027 15.3449 50.1989 14.4135C50.8964 13.4808 51.2458 12.3452 51.2458 11.0079C51.2458 9.67063 50.8964 8.52115 50.1989 7.562C49.5015 6.6041 48.5572 5.87685 47.3647 5.37648C46.1736 4.87862 44.809 4.6278 43.2685 4.6278C41.728 4.6278 40.3925 4.87736 39.1723 5.37648C37.952 5.87685 36.9862 6.59654 36.2748 7.54183C35.5621 8.48712 35.2077 9.64164 35.2077 11.0066C35.2077 12.3717 35.5558 13.4795 36.2545 14.4122C36.952 15.3424 37.909 16.052 39.1305 16.5385C40.3508 17.0238 41.7305 17.2658 43.2698 17.2658V17.267Z"
            fill="black" />
        <path
            d="M86.212 7.23552C85.8069 6.03311 85.1284 4.97186 84.1727 4.04925C84.1056 3.98623 84.0398 3.92195 83.9702 3.86145C83.4233 3.36864 82.7765 2.93254 82.036 2.55821C81.5183 2.29604 80.9524 2.06287 80.3423 1.85743C78.7436 1.31798 76.7486 1.047 74.36 1.047H62.1941V21.1641H74.36C76.6385 21.1641 78.5739 20.8868 80.1638 20.3398C81.1714 19.9907 82.0575 19.5647 82.8195 19.0542C83.2423 18.7744 83.6246 18.4694 83.9727 18.1379C83.9866 18.1266 83.9993 18.1114 84.0132 18.1001C84.9866 17.1573 85.698 16.0759 86.1499 14.8533C86.5993 13.6307 86.8246 12.3565 86.8246 11.0268C86.8246 9.69706 86.6196 8.43793 86.2132 7.23552H86.212ZM81.3069 11.0532V11.3646C81.3069 14.4387 78.8043 16.9292 75.7182 16.9292H67.665V5.48862H75.7182C78.8056 5.48862 81.3069 7.98041 81.3069 11.0532Z"
            fill="black" />
    </g>
    <defs>
        <clipPath id="clip0_1284_15597">
            <rect width="196" height="47" fill="black" transform="translate(0 0.5)" />
        </clipPath>
    </defs>
</svg>