<svg version="1.1" id="Layer_1" xmlns="http://www.w3.org/2000/svg" xmlns:xlink="http://www.w3.org/1999/xlink" x="0px" y="0px"
	 width="100%" viewBox="0 0 255 255" enable-background="new 0 0 255 255" xml:space="preserve">
<path fill="#010101" opacity="1.000000" stroke="none" 
	d="
M168.000000,256.000000 
	C112.000000,256.000000 56.500008,256.000000 1.000007,256.000000 
	C1.000005,171.000015 1.000005,86.000015 1.000003,1.000019 
	C85.999985,1.000013 170.999969,1.000013 255.999969,1.000006 
	C255.999969,85.999977 255.999969,170.999954 255.999985,255.999969 
	C226.833328,256.000000 197.666672,256.000000 168.000000,256.000000 
M87.093681,36.606773 
	C69.470673,44.854717 56.394718,58.051159 46.434700,74.466919 
	C42.521301,80.916840 44.209881,85.246887 51.091991,88.415962 
	C51.997509,88.832939 52.919033,89.219551 53.850052,89.576103 
	C67.031807,94.624191 80.217606,99.661690 93.399986,104.708138 
	C100.608101,107.467537 103.063362,106.523712 106.312569,99.347588 
	C113.513405,83.443985 120.620064,67.497757 127.785965,51.578297 
	C128.680939,49.590054 129.701843,47.658504 131.059174,44.897758 
	C132.359085,47.698193 133.182114,49.326542 133.884064,51.005508 
	C142.220993,70.946342 150.864273,90.768860 158.679382,110.912544 
	C161.253220,117.546677 162.313416,124.967384 162.862228,132.120758 
	C163.255981,137.253113 164.825439,141.048386 168.690292,144.138916 
	C179.733673,152.969727 190.714630,161.879639 201.824799,170.625458 
	C208.586121,175.947922 212.834534,174.945251 215.920685,166.797775 
	C230.743240,127.665985 227.464188,91.113800 199.408646,58.555828 
	C172.571259,27.411505 124.853348,18.004313 87.093681,36.606773 
M163.451431,172.056442 
	C160.854446,169.980042 158.316208,167.824478 155.647339,165.844986 
	C151.152130,162.510956 149.859299,162.833099 147.470963,167.950516 
	C142.548660,178.497406 137.718277,189.087158 132.819153,199.644928 
	C132.099731,201.195312 131.210999,202.667160 129.919067,205.071548 
	C127.600403,199.568695 125.726181,195.174805 123.894196,190.763367 
	C115.927673,171.580002 108.096375,152.338684 99.892830,133.257324 
	C98.538155,130.106369 96.135246,126.267212 93.259628,125.095901 
	C76.031494,118.078438 58.559273,111.650200 41.083603,105.257545 
	C36.752792,103.673317 33.471832,105.626419 33.189713,110.152733 
	C32.591549,119.749580 31.429522,129.537445 32.614319,138.981567 
	C39.005756,189.928391 83.507965,229.319244 134.122482,225.965759 
	C154.763443,224.598175 172.795090,216.903320 188.617172,203.850952 
	C193.778824,199.592834 193.511963,195.829620 188.274338,191.651672 
	C180.218185,185.225449 172.119598,178.852478 163.451431,172.056442 
z"/>
<path fill="#FCFCFC" opacity="1.000000" stroke="none" 
	d="
M87.423935,36.423592 
	C124.853348,18.004313 172.571259,27.411505 199.408646,58.555828 
	C227.464188,91.113800 230.743240,127.665985 215.920685,166.797775 
	C212.834534,174.945251 208.586121,175.947922 201.824799,170.625458 
	C190.714630,161.879639 179.733673,152.969727 168.690292,144.138916 
	C164.825439,141.048386 163.255981,137.253113 162.862228,132.120758 
	C162.313416,124.967384 161.253220,117.546677 158.679382,110.912544 
	C150.864273,90.768860 142.220993,70.946342 133.884064,51.005508 
	C133.182114,49.326542 132.359085,47.698193 131.059174,44.897758 
	C129.701843,47.658504 128.680939,49.590054 127.785965,51.578297 
	C120.620064,67.497757 113.513405,83.443985 106.312569,99.347588 
	C103.063362,106.523712 100.608101,107.467537 93.399986,104.708138 
	C80.217606,99.661690 67.031807,94.624191 53.850052,89.576103 
	C52.919033,89.219551 51.997509,88.832939 51.091991,88.415962 
	C44.209881,85.246887 42.521301,80.916840 46.434700,74.466919 
	C56.394718,58.051159 69.470673,44.854717 87.423935,36.423592 
z"/>
<path fill="#FCFCFC" opacity="1.000000" stroke="none" 
	d="
M163.745209,172.256683 
	C172.119598,178.852478 180.218185,185.225449 188.274338,191.651672 
	C193.511963,195.829620 193.778824,199.592834 188.617172,203.850952 
	C172.795090,216.903320 154.763443,224.598175 134.122482,225.965759 
	C83.507965,229.319244 39.005756,189.928391 32.614319,138.981567 
	C31.429522,129.537445 32.591549,119.749580 33.189713,110.152733 
	C33.471832,105.626419 36.752792,103.673317 41.083603,105.257545 
	C58.559273,111.650200 76.031494,118.078438 93.259628,125.095901 
	C96.135246,126.267212 98.538155,130.106369 99.892830,133.257324 
	C108.096375,152.338684 115.927673,171.580002 123.894196,190.763367 
	C125.726181,195.174805 127.600403,199.568695 129.919067,205.071548 
	C131.210999,202.667160 132.099731,201.195312 132.819153,199.644928 
	C137.718277,189.087158 142.548660,178.497406 147.470963,167.950516 
	C149.859299,162.833099 151.152130,162.510956 155.647339,165.844986 
	C158.316208,167.824478 160.854446,169.980042 163.745209,172.256683 
z"/>
</svg>