<svg viewBox="0 0 188 28" fill="none" xmlns="http://www.w3.org/2000/svg">
    <path
      d="M0 12.9245C0 3.56277 7.46665 0 19.2541 0C31.0416 0 38.5082 3.56277 38.5082 12.9245V14.8575C38.5082 24.2192 31.0416 27.782 19.2541 27.782C7.46665 27.782 0 24.2192 0 14.8575V12.9245ZM32.7092 12.9245C32.7092 6.59491 26.0385 5.26835 19.2541 5.26835C12.4697 5.26835 5.79897 6.59491 5.79897 12.9245V14.8575C5.79897 21.1871 12.4697 22.5137 19.2541 22.5137C26.0385 22.5137 32.7092 21.1871 32.7092 14.8575V12.9245Z"
      fill="currentColor"
    />
    <path
      d="M43.2539 27.2893V0.758035H69.8989C75.6978 0.758035 79.2606 3.67647 79.2606 8.5658C79.2606 13.8341 75.6978 15.7292 69.8989 16.222L62.887 16.8663L85.5523 27.2893H73.5753L52.881 17.738L49.2424 18.0791V27.2893H43.2539ZM70.2779 6.14009H49.2424V13.0382L70.2779 11.1431C72.0972 10.9915 73.3479 10.2714 73.3479 8.5658C73.3479 6.82232 72.0972 6.14009 70.2779 6.14009Z"
      fill="currentColor"
    />
    <path
      d="M86.8928 27.2893V0.758035H106.298C111.453 0.758035 115.054 3.94178 115.016 7.95937C115.016 9.96817 113.955 12.0528 112.628 12.9245C116.077 13.5688 118.427 15.7292 118.427 19.4815C118.427 23.6886 115.774 27.2893 109.899 27.2893H86.8928ZM106.564 6.14009H92.8813V11.2947H106.564C108.459 11.2947 109.482 10.1198 109.482 8.67951C109.482 7.20134 108.459 6.14009 106.564 6.14009ZM109.748 16.3357H92.8813V21.9072H109.748C111.453 21.9072 112.818 20.846 112.818 19.1025C112.818 17.3211 111.453 16.3357 109.748 16.3357Z"
      fill="currentColor"
    />
    <path
      d="M121.931 6.14009V0.758035H148.538V6.14009H138.229V21.9072H148.538V27.2893H121.931V21.9072H132.24V6.14009H121.931Z"
      fill="currentColor"
    />
    <path
      d="M152.149 6.14009V0.758035H187.094V6.14009H172.616V27.2893H166.627V6.14009H152.149Z"
      fill="currentColor"
    />
  </svg>