<?xml version="1.0" encoding="UTF-8"?>
<svg version="1.1" xmlns="http://www.w3.org/2000/svg" width="112" height="112">
<path d="M0 0 C7.82761574 5.6486884 14.66051278 13.32102556 19 22 C20.32 22 21.64 22 23 22 C22.83113281 23.23234375 22.66226563 24.4646875 22.48828125 25.734375 C21.95363023 30.52469835 22.00334931 35.20837307 22.11669922 40.02124023 C22.5044766 57.70522581 19.57117106 71.70224848 7 85 C-0.32693493 91.00536577 -7.85418002 95.42773813 -17 98 C-17.99 98.29648438 -18.98 98.59296875 -20 98.8984375 C-34.47267752 102.92272793 -47.87033908 100.90107827 -61.1484375 93.7890625 C-74.54774312 85.38237487 -83.93607436 71.9067749 -87.45703125 56.5390625 C-90.18085625 38.78521033 -86.6099493 24.64394044 -76 10 C-55.86604812 -14.71302774 -26.18050967 -16.07587508 0 0 Z " fill="#1D2250" transform="translate(89,11)"/>
<path d="M0 0 C7.82761574 5.6486884 14.66051278 13.32102556 19 22 C20.32 22 21.64 22 23 22 C22.83113281 23.23234375 22.66226563 24.4646875 22.48828125 25.734375 C21.95363023 30.52469835 22.00334931 35.20837307 22.11669922 40.02124023 C22.5044766 57.70522581 19.57117106 71.70224848 7 85 C-0.32693493 91.00536577 -7.85418002 95.42773813 -17 98 C-17.99 98.29648438 -18.98 98.59296875 -20 98.8984375 C-34.47267752 102.92272793 -47.87033908 100.90107827 -61.1484375 93.7890625 C-74.54774312 85.38237487 -83.93607436 71.9067749 -87.45703125 56.5390625 C-90.18085625 38.78521033 -86.6099493 24.64394044 -76 10 C-55.86604812 -14.71302774 -26.18050967 -16.07587508 0 0 Z M-66.875 15.875 C-74.61866346 25.02288412 -78.75749095 36.01526479 -78.34375 48.1171875 C-76.77988215 61.232352 -70.66515517 72.79282605 -60.54296875 81.27734375 C-49.26087539 88.92005215 -37.21133087 90.18040311 -24 89 C-14.28829656 86.94964036 -7.80728034 82.00786319 -1 75 C0.04800781 74.01386719 0.04800781 74.01386719 1.1171875 73.0078125 C7.63818306 66.05388778 10.98991484 54.8927293 11.375 45.5 C10.84191436 31.95477854 4.49024884 20.51655339 -5.24462891 11.42333984 C-24.309565 -4.03543309 -50.1356921 -1.92928834 -66.875 15.875 Z " fill="#B4967B" transform="translate(89,11)"/>
<path d="M0 0 C7.82761574 5.6486884 14.66051278 13.32102556 19 22 C20.32 22 21.64 22 23 22 C22.83242187 23.22460938 22.66484375 24.44921875 22.4921875 25.7109375 C21.70463816 32.77124824 22.02256071 39.84810788 22.21484375 46.9375 C22.29718509 53.12058576 21.98837426 57.53956745 19 63 C18.01 63 17.02 63 16 63 C16 64.65 16 66.3 16 68 C14.515 68.495 14.515 68.495 13 69 C11.515 68.01 11.515 68.01 10 67 C9.01 67.99 8.02 68.98 7 70 C5.80912092 65.06421814 6.34298395 61.97104814 7.9375 57.1875 C11.34931002 45.88587931 10.12169024 36.85577738 5.4375 26 C-1.19432546 13.9690304 -10.71267671 8.07225045 -23 3 C-35.59884067 -0.550473 -47.14777472 3.25877357 -58.25 9.25 C-59.83903906 10.15673981 -61.42465227 11.06967654 -63 12 C-63.99 10.68 -64.98 9.36 -66 8 C-66.33 8.66 -66.66 9.32 -67 10 C-66.34 10.33 -65.68 10.66 -65 11 C-65.33 11.66 -65.66 12.32 -66 13 C-66.66 13 -67.32 13 -68 13 C-68.33 13.66 -68.66 14.32 -69 15 C-71.475 14.01 -71.475 14.01 -74 13 C-74 13.66 -74 14.32 -74 15 C-74.66 15 -75.32 15 -76 15 C-76.78515625 13.328125 -76.78515625 13.328125 -77 11 C-70.64965039 2.2051072 -61.57815986 -3.3310762 -52 -8 C-51.22011719 -8.3815625 -50.44023438 -8.763125 -49.63671875 -9.15625 C-33.16821593 -15.85530199 -14.23432825 -8.74044417 0 0 Z " fill="#AE9177" transform="translate(89,11)"/>
<path d="M0 0 C2.16015625 2.16015625 2.16015625 2.16015625 2.7890625 4.67578125 C2.54019632 14.92321224 -0.93314144 20.79300712 -7.83984375 28.16015625 C-10.22650018 26.97199396 -12.59923027 25.76527526 -14.96484375 24.53515625 C-20.40938676 22.22357226 -26.14609385 22.59895835 -31.83984375 23.78515625 C-34.68542861 25.74149584 -35.05698905 27.88640023 -35.83984375 31.16015625 C-37.81984375 30.17015625 -39.79984375 29.18015625 -41.83984375 28.16015625 C-41.83984375 27.50015625 -41.83984375 26.84015625 -41.83984375 26.16015625 C-40.35484375 25.66515625 -40.35484375 25.66515625 -38.83984375 25.16015625 C-37.71269387 23.50473777 -37.71269387 23.50473777 -37.83984375 21.16015625 C-38.78377456 19.40249198 -39.73656491 17.64741957 -40.77734375 15.9453125 C-44.08698865 10.38462235 -43.89929086 6.3049495 -42.83984375 0.16015625 C-41.84984375 -0.16984375 -40.85984375 -0.49984375 -39.83984375 -0.83984375 C-39.63359375 -1.64421875 -39.42734375 -2.44859375 -39.21484375 -3.27734375 C-37.83984375 -5.83984375 -37.83984375 -5.83984375 -36.171875 -6.6484375 C-23.86525686 -9.89881934 -10.53696189 -6.8265599 0 0 Z " fill="#A65282" transform="translate(79.83984375,22.83984375)"/>
<path d="M0 0 C9.2591837 6.59558291 15.39334272 15.67681418 18.28125 26.625 C18.508125 27.45 18.735 28.275 18.96875 29.125 C20.44859473 40.96375786 17.50593454 52.4379835 10.9765625 62.4453125 C4.00725836 71.4058464 -6.67387206 78.36842004 -18.01733398 79.94433594 C-20.34365722 80.09681637 -22.63758426 80.14402894 -24.96875 80.125 C-25.79358887 80.11927979 -26.61842773 80.11355957 -27.46826172 80.10766602 C-40.06734598 79.74345266 -49.96778645 74.59461824 -58.6484375 65.6328125 C-66.13603249 56.85979348 -70.15669787 45.30326396 -69.98828125 33.8203125 C-68.88366682 20.72502838 -63.30544495 10.72459066 -53.90625 1.75 C-49.33199918 -2.00484762 -44.20386914 -4.25065734 -38.71875 -6.375 C-37.605 -6.808125 -36.49125 -7.24125 -35.34375 -7.6875 C-22.000008 -10.21820969 -11.30109702 -7.15259305 0 0 Z M-54.65625 6 C-63.60245626 15.94748482 -66.55577724 26.53526526 -66.05859375 39.79296875 C-65.12855184 50.27999301 -59.25121669 59.34985735 -51.703125 66.546875 C-43.22435027 73.28983758 -33.37608363 75.43910187 -22.71875 74.625 C-10.49513203 72.60364651 0.41217421 67.39289443 8.0078125 57.33984375 C13.59948354 48.64934023 16.97837782 38.5843979 14.77734375 28.26171875 C11.84936408 17.50348486 7.17461976 7.53354054 -2.46875 1.4375 C-19.36831452 -8.0700606 -40.00147719 -7.9523654 -54.65625 6 Z " fill="#2D1914" transform="translate(80.71875,20.375)"/>
<path d="M0 0 C0.84114922 2.42998664 1.00996522 3.94305588 0.5625 6.5 C-1.70382522 20.60157916 0.9382742 34.95854744 9.22265625 46.67578125 C10.10244141 47.82626953 10.10244141 47.82626953 11 49 C11.47308594 49.65355469 11.94617187 50.30710938 12.43359375 50.98046875 C20.24188752 61.00074375 32.57544261 67.18517701 45 69 C48.37569796 69.16969181 48.37569796 69.16969181 51 69 C51.33 68.34 51.66 67.68 52 67 C51.505 66.525625 51.01 66.05125 50.5 65.5625 C49 64 49 64 49 63 C48.67 62.34 48.34 61.68 48 61 C48.85980469 60.98582031 49.71960937 60.97164062 50.60546875 60.95703125 C63.91872957 60.41985497 73.56837677 57.32992641 83.07421875 47.79296875 C85 46 85 46 87 46 C87.268125 45.2575 87.53625 44.515 87.8125 43.75 C88.95276751 41.10938051 90.09380306 39.14447156 92 37 C92.66 37 93.32 37 94 37 C94 38.32 94 39.64 94 41 C94.66 40.01 95.32 39.02 96 38 C96.61875 38.33 97.2375 38.66 97.875 39 C99.91018344 40.14193235 99.91018344 40.14193235 102 40 C101.690625 38.88625 101.690625 38.88625 101.375 37.75 C100.95591249 34.67669159 101.38050989 33.57213134 103 31 C105 34 105 34 106 36 C100.09825923 50.53751481 91.45438179 60.5849176 77.1328125 67.35546875 C74.44398253 68.37254791 71.76701667 69.22177656 69 70 C68.01 70.29648438 67.02 70.59296875 66 70.8984375 C51.52732248 74.92272793 38.12966092 72.90107827 24.8515625 65.7890625 C11.43208917 57.3697217 2.116321 43.92042069 -1.46484375 28.55859375 C-2.11347401 24.24543928 -2.28935925 20.04419168 -2.3125 15.6875 C-2.31797852 14.93484863 -2.32345703 14.18219727 -2.32910156 13.40673828 C-2.26736506 8.59448474 -1.51493509 4.56894765 0 0 Z " fill="#A78668" transform="translate(3,39)"/>
<path d="M0 0 C0.70125 0.78375 1.4025 1.5675 2.125 2.375 C5.09157086 5.08360818 7.1582516 6.01722715 11 7 C10.67 8.32 10.34 9.64 10 11 C11.32 11.33 12.64 11.66 14 12 C14 11.01 14 10.02 14 9 C13.34 8.67 12.68 8.34 12 8 C14.1875 7.625 14.1875 7.625 17 8 C19.19925447 9.82787641 20.37675026 11.56512539 22 14 C21 17 21 17 19 18 C19 19.32 19 20.64 19 22 C19.9075 21.773125 20.815 21.54625 21.75 21.3125 C25.67312581 20.93527636 26.03665186 21.68488427 29 24 C32.16732421 24.25086724 32.16732421 24.25086724 35 24 C34.83242187 25.22460938 34.66484375 26.44921875 34.4921875 27.7109375 C33.70463816 34.77124824 34.02256071 41.84810788 34.21484375 48.9375 C34.29718509 55.12058576 33.98837426 59.53956745 31 65 C30.01 65 29.02 65 28 65 C28 66.65 28 68.3 28 70 C26.515 70.495 26.515 70.495 25 71 C23.515 70.01 23.515 70.01 22 69 C21.01 69.99 20.02 70.98 19 72 C17.80912092 67.06421814 18.34298395 63.97104814 19.9375 59.1875 C23.34931002 47.88587931 22.12169024 38.85577738 17.4375 28 C13.00305492 19.74510994 6.21739726 13.27989441 -2 9 C-3.4375 6.75 -3.4375 6.75 -4 5 C-2.68 3.35 -1.36 1.7 0 0 Z " fill="#9F8165" transform="translate(77,9)"/>
<path d="M0 0 C3.87441489 1.39547008 6.58647254 2.55367703 9.35546875 5.6484375 C10.42122509 8.84570653 10.70947222 10.92041319 10.23046875 14.2734375 C7.73737115 19.06785596 4.99605943 21.75576695 0.23046875 24.2734375 C-2.74266905 25.1298569 -5.71989034 25.75838704 -8.76953125 26.2734375 C-9.09953125 28.5834375 -9.42953125 30.8934375 -9.76953125 33.2734375 C-11.74953125 33.7684375 -11.74953125 33.7684375 -13.76953125 34.2734375 C-17.91310571 28.34619607 -17.24730431 22.64862712 -17.20703125 15.6484375 C-17.23700195 13.78832031 -17.23700195 13.78832031 -17.26757812 11.890625 C-17.26693359 10.7046875 -17.26628906 9.51875 -17.265625 8.296875 C-17.26747803 7.21325684 -17.26933105 6.12963867 -17.27124023 5.01318359 C-16.76953125 2.2734375 -16.76953125 2.2734375 -14.87768555 0.42407227 C-10.23985587 -2.1072643 -4.95515902 -1.29994299 0 0 Z " fill="#0FD2BF" transform="translate(61.76953125,47.7265625)"/>
<path d="M0 0 C1.75 1.0625 1.75 1.0625 3 3 C3.85111624 7.71982644 4.12001341 12.19946361 4 17 C7.93075644 16.42547254 7.93075644 16.42547254 11 14 C11.16687448 11.41645782 11.16687448 11.41645782 11 9 C9.02 9 7.04 9 5 9 C6 7 6 7 8.3125 6.125 C11 6 11 6 13.375 7.5 C15 10 15 10 15.125 13.5 C14 17 14 17 11.25 19.5 C8 21 8 21 5.25 21.0625 C3 20 3 20 1.6875 17.4375 C1.3471875 16.2309375 1.3471875 16.2309375 1 15 C0.01 15.66 -0.98 16.32 -2 17 C-4.5 17.3125 -4.5 17.3125 -7 17 C-8.8125 15.5 -8.8125 15.5 -10 14 C-10.99 15.485 -10.99 15.485 -12 17 C-15.375 17.5 -15.375 17.5 -19 17 C-21.58999563 14.87487538 -22.77261962 13.32810812 -23.34375 9.9921875 C-23.47760203 6.96936244 -23.41433022 4.64221184 -21.75 2.0625 C-18.35294118 0 -18.35294118 0 -16 0 C-13.76800344 1.4861697 -11.97503955 3.15962224 -10 5 C-9.54625 4.195625 -9.0925 3.39125 -8.625 2.5625 C-6.06177124 -1.47951459 -4.38532386 -1.28350942 0 0 Z " fill="#090D21" transform="translate(63,25)"/>
<path d="M0 0 C1.32 0.99 2.64 1.98 4 3 C3.41937823 6.80437252 1.70830348 8.72367308 -0.8125 11.5625 C-5.05199107 16.70449454 -7.16014691 21.64766511 -9 28 C-9.33644531 29.11375 -9.33644531 29.11375 -9.6796875 30.25 C-10.14373284 31.82648281 -10.57656719 33.41212696 -11 35 C-11.66 35 -12.32 35 -13 35 C-12.67 35.99 -12.34 36.98 -12 38 C-12.66 38 -13.32 38 -14 38 C-14.144375 38.969375 -14.28875 39.93875 -14.4375 40.9375 C-15 44 -15 44 -16 45 C-16.33 45.66 -16.66 46.32 -17 47 C-16.01 46.505 -16.01 46.505 -15 46 C-14.01 45.505 -14.01 45.505 -13 45 C-13 46.32 -13 47.64 -13 49 C-13.66 49.66 -14.32 50.32 -15 51 C-15.99 51 -16.98 51 -18 51 C-21.5178745 39.56690787 -21.46549521 25.45707766 -16.37890625 14.51171875 C-14.7037187 11.54792539 -13.0670997 8.70575551 -11 6 C-10.34 6 -9.68 6 -9 6 C-8.67 6.33 -8.34 6.66 -8 7 C-7.67 6.34 -7.34 5.68 -7 5 C-4.525 5.99 -4.525 5.99 -2 7 C-0.5393715 4.35261084 0 3.10551666 0 0 Z " fill="#B08E70" transform="translate(22,18)"/>
<path d="M0 0 C17.57428154 4.25184231 30.07497734 13.13521184 40.69921875 27.6171875 C41.12847656 28.40351563 41.55773437 29.18984375 42 30 C41.505 31.485 41.505 31.485 41 33 C40.01 32.505 40.01 32.505 39 32 C39 31.34 39 30.68 39 30 C38.2575 30 37.515 30 36.75 30 C34.5 30 32.25 30 30 30 C30 28.35 30 26.7 30 25 C30.99 24.67 31.98 24.34 33 24 C31.92598892 21.08482708 31.22189824 19.22189824 29 17 C28.01 17 27.02 17 26 17 C26 17.99 26 18.98 26 20 C25.01 20 24.02 20 23 20 C22.34 20.66 21.68 21.32 21 22 C20.67 21.34 20.34 20.68 20 20 C20.9375 17.875 20.9375 17.875 22 16 C21.01 16 20.02 16 19 16 C17.62517293 14.36739286 16.29352333 12.69774938 15 11 C14.01 10.34 13.02 9.68 12 9 C9.7226499 11.81509993 9.7226499 11.81509993 10 15 C8 16 8 16 5.50390625 15.2578125 C4.53324219 14.88398438 3.56257813 14.51015625 2.5625 14.125 C1.59441406 13.75632812 0.62632813 13.38765625 -0.37109375 13.0078125 C-1.23863281 12.67523438 -2.10617188 12.34265625 -3 12 C-3.99 11.67 -4.98 11.34 -6 11 C-6.41176754 7.39703406 -6.1535853 6.21597933 -4 3.1875 C-3.34 2.465625 -2.68 1.74375 -2 1 C-1.34 1.33 -0.68 1.66 0 2 C0 1.34 0 0.68 0 0 Z " fill="#BEA485" transform="translate(65,1)"/>
<path d="M0 0 C0.33 0 0.66 0 1 0 C1.81325301 11.79216864 -1.71809762 23.63755408 -9 33 C-16.82737951 41.28208205 -27.00238943 47.71001056 -38.578125 48.46875 C-40.13509697 48.50197856 -41.69271908 48.51191591 -43.25 48.5 C-44.06976318 48.49790527 -44.88952637 48.49581055 -45.73413086 48.49365234 C-53.57200023 48.29281892 -62.24974181 46.75025819 -68 41 C-64.40661618 39.76477431 -63.04583211 39.98127345 -59.453125 41.44921875 C-54.54792787 43.36818114 -49.97495997 43.53654482 -44.75 43.5 C-43.36445923 43.49359497 -43.36445923 43.49359497 -41.95092773 43.48706055 C-31.48088711 43.22712358 -23.6836268 40.07702468 -16 33 C-15.34 33 -14.68 33 -14 33 C-13.731875 32.443125 -13.46375 31.88625 -13.1875 31.3125 C-12 29 -12 29 -10.5 26.625 C-8.89804126 23.82157221 -7.93231973 21.0838268 -7 18 C-6.34 18 -5.68 18 -5 18 C-4.01 14.37 -3.02 10.74 -2 7 C-1.34 7 -0.68 7 0 7 C0 4.69 0 2.38 0 0 Z " fill="#4C3628" transform="translate(99,52)"/>
<path d="M0 0 C0.84114922 2.42998664 1.00996522 3.94305588 0.5625 6.5 C-1.70382522 20.60157916 0.9382742 34.95854744 9.22265625 46.67578125 C10.10244141 47.82626953 10.10244141 47.82626953 11 49 C11.47308594 49.65355469 11.94617187 50.30710938 12.43359375 50.98046875 C19.53923918 60.09904489 30.93040323 66.48690851 42.23046875 68.68359375 C57.50433381 70.42856282 72.07876134 68.95513624 85 60 C90.30691613 55.67434434 95.18708397 50.86169559 100 46 C96.85347637 55.72561849 88.34721479 60.97825425 80 66 C76.40620219 67.70155325 72.82364417 68.92460008 69 70 C68.01 70.29648438 67.02 70.59296875 66 70.8984375 C51.52732248 74.92272793 38.12966092 72.90107827 24.8515625 65.7890625 C11.43208917 57.3697217 2.116321 43.92042069 -1.46484375 28.55859375 C-2.11347401 24.24543928 -2.28935925 20.04419168 -2.3125 15.6875 C-2.31797852 14.93484863 -2.32345703 14.18219727 -2.32910156 13.40673828 C-2.26736506 8.59448474 -1.51493509 4.56894765 0 0 Z " fill="#533E2C" transform="translate(3,39)"/>
<path d="M0 0 C5.75 2.75 5.75 2.75 8 5 C9.03443338 12.14480733 8.11036073 18.07111604 4 24 C2.09743682 26.43156855 0.11134261 28.74790122 -2 31 C-4.38665643 29.81183771 -6.75938652 28.60511901 -9.125 27.375 C-14.56954301 25.06341601 -20.3062501 25.4388021 -26 26.625 C-28.84558486 28.58133959 -29.2171453 30.72624398 -30 34 C-31.98 33.01 -33.96 32.02 -36 31 C-36 30.34 -36 29.68 -36 29 C-35.01 28.67 -34.02 28.34 -33 28 C-31.87285012 26.34458152 -31.87285012 26.34458152 -32 24 C-33.02551423 22.23739742 -34.05449237 20.47590938 -35.140625 18.75 C-36 17 -36 17 -35.75 14.0625 C-35.5025 13.381875 -35.255 12.70125 -35 12 C-34.67 12 -34.34 12 -34 12 C-33.71125 13.11375 -33.4225 14.2275 -33.125 15.375 C-32.30758671 19.00291092 -32.30758671 19.00291092 -30 21 C-25.20165439 21.54814031 -25.20165439 21.54814031 -21.0625 19.5 C-20.711875 19.005 -20.36125 18.51 -20 18 C-19.34 18.99 -18.68 19.98 -18 21 C-13.35413108 20.51515724 -13.35413108 20.51515724 -9 19 C-8.34 20.98 -7.68 22.96 -7 25 C-3.61811839 24.69255622 -1.41006509 24.27337672 1.4375 22.375 C3.35697883 19.9677768 3.35697883 19.9677768 2.8125 16.375 C2.17151792 13.15516291 2.17151792 13.15516291 1 11 C1.9375 8.375 1.9375 8.375 3 6 C2.505 5.566875 2.01 5.13375 1.5 4.6875 C0 3 0 3 0 0 Z " fill="#854274" transform="translate(74,20)"/>
<path d="M0 0 C0.99 0 1.98 0 3 0 C3 2.64 3 5.28 3 8 C3.66 8 4.32 8 5 8 C5.1959375 8.59425781 5.391875 9.18851563 5.59375 9.80078125 C9.44374612 20.47124463 15.5037991 30.00666171 26 35 C37.93433414 39.5847442 49.79734902 39.02973226 61.515625 33.8984375 C68.93381937 29.98748469 74.70192762 25.22076159 79 18 C79.495 18.99 79.495 18.99 80 20 C76.21484255 26.45197292 72.47480985 31.17045435 66 35 C64.79150391 35.73089844 64.79150391 35.73089844 63.55859375 36.4765625 C56.89373972 39.87061334 50.72526836 40.45992291 43.375 40.5 C42.06946167 40.50942627 42.06946167 40.50942627 40.73754883 40.51904297 C35.24807092 40.41241096 30.51149796 39.49319749 25.31103516 37.73632812 C22.96585321 36.93949931 22.96585321 36.93949931 20.33520508 36.48413086 C15.12711891 35.40439904 11.4139048 30.84745913 8.29296875 26.76953125 C3.14187921 18.77556191 -0.37307374 9.58512539 0 0 Z " fill="#311E19" transform="translate(11,56)"/>
<path d="M0 0 C-1.88924728 4.20027999 -3.90482269 5.76626692 -8 8 C-10.9717115 8.86291133 -13.95005186 9.48489765 -17 10 C-17.33 12.31 -17.66 14.62 -18 17 C-19.32 17.33 -20.64 17.66 -22 18 C-24.77675038 14.07173635 -25.34512366 11.46875108 -25.1875 6.6875 C-25.16042969 5.61886719 -25.13335937 4.55023438 -25.10546875 3.44921875 C-25.07066406 2.64097656 -25.03585938 1.83273438 -25 1 C-16.64251778 0.15672251 -8.39802254 -0.12190678 0 0 Z " fill="#56F8E0" transform="translate(70,64)"/>
<path d="M0 0 C4.03409312 2.8955824 6.29871879 5.80342108 7.8203125 10.63671875 C7.719972 16.45646765 5.46505916 20.35361955 1.6328125 24.63671875 C-2.45493555 26.94718504 -6.63277262 27.58149442 -11.2421875 28.26171875 C-11.3246875 29.18984375 -11.4071875 30.11796875 -11.4921875 31.07421875 C-12.2421875 34.26171875 -12.2421875 34.26171875 -13.9921875 36.19921875 C-16.2421875 37.26171875 -16.2421875 37.26171875 -18.8671875 37.19921875 C-21.2421875 36.26171875 -21.2421875 36.26171875 -22.3515625 34.54296875 C-25.55149777 26.34664333 -24.36775209 15.91172403 -24.2421875 7.26171875 C-23.9121875 7.26171875 -23.5821875 7.26171875 -23.2421875 7.26171875 C-23.1920752 7.9072168 -23.14196289 8.55271484 -23.09033203 9.21777344 C-22.85785417 12.1498412 -22.61265936 15.08071145 -22.3671875 18.01171875 C-22.28855469 19.0275 -22.20992187 20.04328125 -22.12890625 21.08984375 C-22.04511719 22.06953125 -21.96132813 23.04921875 -21.875 24.05859375 C-21.76502686 25.40969238 -21.76502686 25.40969238 -21.65283203 26.78808594 C-21.23607814 29.29852017 -20.50143793 31.06587281 -19.2421875 33.26171875 C-17.9221875 33.26171875 -16.6021875 33.26171875 -15.2421875 33.26171875 C-14.9121875 30.95171875 -14.5821875 28.64171875 -14.2421875 26.26171875 C-13.35015625 25.95878906 -12.458125 25.65585938 -11.5390625 25.34375 C-10.36859375 24.92480469 -9.198125 24.50585938 -7.9921875 24.07421875 C-6.25195312 23.46513672 -6.25195312 23.46513672 -4.4765625 22.84375 C-0.3412412 20.82103849 1.71918173 18.33898029 3.7578125 14.26171875 C4.04685279 11.01001547 3.8983579 8.66461558 2.8203125 5.57421875 C-0.83341565 1.47761447 -5.56919955 0.51182289 -10.9140625 0.01171875 C-15.32077675 -0.09258218 -18.35872307 0.03117053 -22.2421875 2.26171875 C-21.2421875 -0.73828125 -21.2421875 -0.73828125 -19.3046875 -1.92578125 C-12.48324505 -3.7355517 -6.1847345 -3.56811606 0 0 Z " fill="#061133" transform="translate(67.2421875,47.73828125)"/>
<path d="M0 0 C0.33 0 0.66 0 1 0 C1.10957031 1.29292969 1.21914063 2.58585937 1.33203125 3.91796875 C2.63939249 18.62932758 3.99910099 30.96622796 12.35546875 43.41796875 C14 46 14 46 14 48 C14.5775 48.268125 15.155 48.53625 15.75 48.8125 C18.0325868 50.01719859 19.9737942 51.40798115 22 53 C15.10475268 52.02014906 10.44229744 47.85810933 6.00390625 42.6640625 C-1.91118413 31.87230487 -4.17807943 22.20261435 -3 9 C-2.26666212 5.75236082 -1.31648583 3.07180027 0 0 Z " fill="#205B99" transform="translate(18,39)"/>
<path d="M0 0 C3.38084321 3.00599492 5.01406561 5.75127454 6.6875 9.9375 C7.10386719 10.95714844 7.52023438 11.97679687 7.94921875 13.02734375 C11.56784652 23.26442827 10.06003043 32.10441562 6 42 C3.02923489 47.21090122 -0.02564799 51.57467866 -5 55 C-3.22151786 47.41422926 -0.79098259 39.82376866 3 33 C3.66 33 4.32 33 5 33 C6.22897274 22.25479243 6.16687323 14.23759266 0.8046875 4.7265625 C0 3 0 3 0 0 Z " fill="#1E317E" transform="translate(86,30)"/>
<path d="M0 0 C3.28064399 2.12596598 4.63730682 3.7108179 5.8125 7.4375 C6.19341797 8.58025391 6.19341797 8.58025391 6.58203125 9.74609375 C7.0666668 12.35950229 7.00543891 13.54018202 6 16 C4.109375 18.62109375 4.109375 18.62109375 1.75 21.4375 C0.98171875 22.36433594 0.2134375 23.29117188 -0.578125 24.24609375 C-2.95294716 26.94649636 -5.42833927 29.48761514 -8 32 C-8.99 30.02 -9.98 28.04 -11 26 C-10.52949219 25.50371094 -10.05898437 25.00742187 -9.57421875 24.49609375 C-2.52086834 16.80020211 -0.54059906 10.30866476 0 0 Z " fill="#4A305D" transform="translate(82,25)"/>
<path d="M0 0 C0.99 0 1.98 0 3 0 C2.67 1.98 2.34 3.96 2 6 C2.66 6.33 3.32 6.66 4 7 C4.33 7.99 4.66 8.98 5 10 C5.99 10.66 6.98 11.32 8 12 C7.34 14.31 6.68 16.62 6 19 C5.34 19 4.68 19 4 19 C4.33 19.99 4.66 20.98 5 22 C4.34 22 3.68 22 3 22 C2.855625 22.969375 2.71125 23.93875 2.5625 24.9375 C2 28 2 28 1 29 C0.67 29.66 0.34 30.32 0 31 C0.66 30.67 1.32 30.34 2 30 C2.66 29.67 3.32 29.34 4 29 C4 30.32 4 31.64 4 33 C3.34 33.66 2.68 34.32 2 35 C1.01 35 0.02 35 -1 35 C-4.18066084 24.66285228 -4.95287085 9.9057417 0 0 Z " fill="#A38367" transform="translate(5,34)"/>
<path d="M0 0 C0.70125 0.78375 1.4025 1.5675 2.125 2.375 C5.09157086 5.08360818 7.1582516 6.01722715 11 7 C10.67 8.32 10.34 9.64 10 11 C11.32 11.33 12.64 11.66 14 12 C14 11.01 14 10.02 14 9 C13.34 8.67 12.68 8.34 12 8 C14.1875 7.625 14.1875 7.625 17 8 C18.99022836 9.83961648 20.38989899 11.79186148 22 14 C19 15 19 15 16 15 C13.81222534 16.9375006 13.81222534 16.9375006 12 19 C11.57589844 18.61328125 11.15179688 18.2265625 10.71484375 17.828125 C7.67655419 15.13039097 4.79446527 12.76941453 1.1875 10.875 C-1.8908458 9.06420836 -2.93226369 8.32184629 -4 5 C-2.68 3.35 -1.36 1.7 0 0 Z " fill="#AE8D70" transform="translate(77,9)"/>
<path d="M0 0 C1.70840281 1.63412443 2.93453047 2.86906094 4 5 C1.69513317 11.47885453 -1.38465147 16.08231498 -7 20 C-7.45375 19.525625 -7.9075 19.05125 -8.375 18.5625 C-9.93258204 16.90972192 -9.93258204 16.90972192 -12 16 C-12 16.66 -12 17.32 -12 18 C-14.375 18.625 -14.375 18.625 -17 19 C-17.66 18.34 -18.32 17.68 -19 17 C-18.38125 16.773125 -17.7625 16.54625 -17.125 16.3125 C-14.34632138 14.59625732 -14.08184135 13.02915578 -13 10 C-11.5 7.6875 -11.5 7.6875 -10 6 C-9.34 6 -8.68 6 -8 6 C-8 7.32 -8 8.64 -8 10 C-7.34 9.01 -6.68 8.02 -6 7 C-5.38125 7.33 -4.7625 7.66 -4.125 8 C-2.08981656 9.14193235 -2.08981656 9.14193235 0 9 C-0.185625 8.2575 -0.37125 7.515 -0.5625 6.75 C-0.99203108 4.05009037 -0.85122974 2.55368923 0 0 Z " fill="#A58163" transform="translate(105,70)"/>
<path d="M0 0 C0.33 0 0.66 0 1 0 C1.01417969 1.06734375 1.02835938 2.1346875 1.04296875 3.234375 C1.30883627 12.95453566 2.61067734 21.82019963 5.2722168 31.18457031 C6.61390601 35.97568816 7.25997634 40.02045313 7 45 C-1.1059745 37.70462295 -1.25349329 25.47393578 -2.3125 15.1875 C-2.42400391 14.27291016 -2.53550781 13.35832031 -2.65039062 12.41601562 C-3.07582602 8.26726621 -3.3263694 5.73410261 -1.60546875 1.86328125 C-1.07566406 1.24839844 -0.54585937 0.63351563 0 0 Z " fill="#182C66" transform="translate(21,33)"/>
<path d="M0 0 C5.75 2.75 5.75 2.75 8 5 C9.03443338 12.14480733 8.11036073 18.07111604 4 24 C2.09743682 26.43156855 0.11134261 28.74790122 -2 31 C-4.93446886 29.58208437 -7.43332409 28.01667393 -10 26 C-7 25 -7 25 -4.0625 24.6875 C-0.39628345 23.86447179 0.93341038 23.14121621 3 20 C2.82594075 16.63485445 2.51178502 14.02357005 1 11 C1.9375 8.375 1.9375 8.375 3 6 C2.505 5.566875 2.01 5.13375 1.5 4.6875 C0 3 0 3 0 0 Z " fill="#6B3969" transform="translate(74,20)"/>
<path d="M0 0 C0.33 0 0.66 0 1 0 C2.12067256 7.11778518 1.7958955 13.02420757 0 20 C-0.66 20 -1.32 20 -2 20 C-2.15855469 20.58265625 -2.31710938 21.1653125 -2.48046875 21.765625 C-3.89147905 26.72365013 -5.50401508 31.57064125 -7.375 36.375 C-7.75398438 37.35210937 -8.13296875 38.32921875 -8.5234375 39.3359375 C-10.79988071 43.44317101 -13.57796449 45.52598816 -18 47 C-17.45153565 42.92260053 -16.22680467 40.57003658 -13.75 37.3125 C-10.2120825 32.43336377 -7.47080814 27.48865868 -5 22 C-4.55333984 21.05253906 -4.55333984 21.05253906 -4.09765625 20.0859375 C-1.37043918 13.70886275 -0.81579716 6.8335009 0 0 Z " fill="#1B2B6E" transform="translate(91,43)"/>
<path d="M0 0 C1.65 0 3.3 0 5 0 C4.835 1.299375 4.67 2.59875 4.5 3.9375 C4.02514995 8.0485306 3.97802324 12.02156708 4.16015625 16.15234375 C4 18 4 18 2 20 C2 20.99 2 21.98 2 23 C1.01 23.33 0.02 23.66 -1 24 C-1.33 23.34 -1.66 22.68 -2 22 C-2.99 22.66 -3.98 23.32 -5 24 C-5 23.34 -5 22.68 -5 22 C-5.66 22 -6.32 22 -7 22 C-7 20.35 -7 18.7 -7 17 C-6.34 17 -5.68 17 -5 17 C-5 16.34 -5 15.68 -5 15 C-4.01 14.67 -3.02 14.34 -2 14 C-2.33 12.02 -2.66 10.04 -3 8 C-1.68 8.66 -0.36 9.32 1 10 C0.67 6.7 0.34 3.4 0 0 Z " fill="#AC8869" transform="translate(107,33)"/>
<path d="M0 0 C1.32 0 2.64 0 4 0 C3.35799892 5.52887497 0.86442588 7.512113 -3.234375 10.99609375 C-7.82785579 14.32442093 -12.83444188 16.69254257 -18 19 C-18 17.68 -18 16.36 -18 15 C-15.38057797 12.52216835 -13.43004815 11.14334938 -10 10 C-7.8125 10.4375 -7.8125 10.4375 -6 11 C-5.67 9.35 -5.34 7.7 -5 6 C-5.99 5.67 -6.98 5.34 -8 5 C-6 3 -6 3 -3.4375 2.5 C-2.633125 2.335 -1.82875 2.17 -1 2 C-0.67 1.34 -0.34 0.68 0 0 Z " fill="#A58263" transform="translate(94,87)"/>
<path d="M0 0 C3.00617269 3.00617269 2.59585316 5.82381598 3 10 C2.01 10.495 2.01 10.495 1 11 C0.67 10.67 0.34 10.34 0 10 C-0.33 11.65 -0.66 13.3 -1 15 C-1.99 15 -2.98 15 -4 15 C-4.33 16.32 -4.66 17.64 -5 19 C-5.66 19 -6.32 19 -7 19 C-7.66 15.04 -8.32 11.08 -9 7 C-8.01 6.34 -7.02 5.68 -6 5 C-4.80767387 2.94996045 -4.80767387 2.94996045 -4 1 C-2.68 1.99 -1.36 2.98 0 4 C0 2.68 0 1.36 0 0 Z " fill="#AA8A6D" transform="translate(106,33)"/>
<path d="M0 0 C0.66 0.33 1.32 0.66 2 1 C1.360625 1.5775 0.72125 2.155 0.0625 2.75 C-2.99025442 7.56040091 -2.82155118 12.40562954 -3 18 C-5.31 17.34 -7.62 16.68 -10 16 C-10.66 13.03 -11.32 10.06 -12 7 C-8.18660874 3.64883798 -4.7349034 1.6974182 0 0 Z " fill="#54315F" transform="translate(40,18)"/>
<path d="M0 0 C0.495 0.99 0.495 0.99 1 2 C-2.78515745 8.45197292 -6.52519015 13.17045435 -13 17 C-14.20849609 17.73089844 -14.20849609 17.73089844 -15.44140625 18.4765625 C-25.60704798 23.65337579 -38.54492287 23.76914082 -49.5390625 21.16015625 C-55.57168299 18.85663402 -55.57168299 18.85663402 -57 16 C-56.33613281 16.20496094 -55.67226563 16.40992187 -54.98828125 16.62109375 C-54.10527344 16.89050781 -53.22226562 17.15992187 -52.3125 17.4375 C-51.44238281 17.70433594 -50.57226562 17.97117187 -49.67578125 18.24609375 C-37.9136439 21.56009741 -26.07211963 20.42598994 -15.1875 14.6875 C-8.7381689 10.78518734 -3.86246864 6.48894731 0 0 Z " fill="#0C091E" transform="translate(90,74)"/>
<path d="M0 0 C0.33 0 0.66 0 1 0 C1.00386719 1.20269531 1.00386719 1.20269531 1.0078125 2.4296875 C1.32383705 11.72080921 3.47815448 19.38219308 6.625 28.06640625 C7.69563211 31.02115469 8.50658962 33.88534695 9 37 C3.84400925 32.41689711 0.21908578 26.89620092 -1 20 C-1.09484264 17.3220901 -1.13954771 14.67677951 -1.125 12 C-1.12886719 11.2884375 -1.13273438 10.576875 -1.13671875 9.84375 C-1.13033978 6.42461983 -1.07200732 3.26706994 0 0 Z " fill="#3188B2" transform="translate(16,44)"/>
<path d="M0 0 C7.9620422 1.20526327 14.1298582 9.8515437 18.6875 15.875 C20.69921875 18.6171875 20.69921875 18.6171875 22 21 C21.67 21.99 21.34 22.98 21 24 C20.34 23.67 19.68 23.34 19 23 C19 22.34 19 21.68 19 21 C18.2575 21 17.515 21 16.75 21 C14.5 21 12.25 21 10 21 C10 19.35 10 17.7 10 16 C10.99 15.67 11.98 15.34 13 15 C11.60124725 10.24761113 9.24889369 8.23299824 5.375 5.25 C3.57080971 3.84931756 1.77542645 2.43696723 0 1 C0 0.67 0 0.34 0 0 Z " fill="#B49B80" transform="translate(85,10)"/>
<path d="M0 0 C2 1 4 2 6 3 C5.4 9.36 5.4 9.36 3.75 12 C2 13 2 13 -0.625 12.8125 C-3 12 -3 12 -4 10 C-4.039992 8.00039988 -4.04346799 5.99952758 -4 4 C-3.34 4 -2.68 4 -2 4 C-1.34 2.68 -0.68 1.36 0 0 Z " fill="#5CF8E2" transform="translate(58,26)"/>
<path d="M0 0 C0 0.33 0 0.66 0 1 C-3.63 1 -7.26 1 -11 1 C-10.67 2.65 -10.34 4.3 -10 6 C-10.845625 5.9175 -11.69125 5.835 -12.5625 5.75 C-17.03634062 6.07537023 -19.24893952 7.59932129 -23 10 C-23 9.34 -23 8.68 -23 8 C-23.99 7.67 -24.98 7.34 -26 7 C-26.66 6.34 -27.32 5.68 -28 5 C-18.15975386 0.35367805 -10.74952187 -0.66905738 0 0 Z " fill="#CDB58E" transform="translate(61,0)"/>
<path d="M0 0 C2.64 0.33 5.28 0.66 8 1 C7.67 2.65 7.34 4.3 7 6 C5.68 6.33 4.36 6.66 3 7 C3 8.65 3 10.3 3 12 C2.01 12.33 1.02 12.66 0 13 C-0.99 12.34 -1.98 11.68 -3 11 C-3.99 11.99 -4.98 12.98 -6 14 C-6.94693195 10.2983569 -7.30443767 8.60887535 -5.5625 5.125 C-5.046875 4.42375 -4.53125 3.7225 -4 3 C-2.35 3.99 -0.7 4.98 1 6 C0.67 4.02 0.34 2.04 0 0 Z " fill="#B08B6A" transform="translate(102,67)"/>
<path d="M0 0 C-0.33 0.99 -0.66 1.98 -1 3 C-1.75023438 2.855625 -2.50046875 2.71125 -3.2734375 2.5625 C-13.4785091 0.71170616 -22.73242699 0.7766296 -33 2 C-24.88929791 -6.11070209 -9.556186 -4.05413952 0 0 Z " fill="#F5D3A5" transform="translate(71,21)"/>
<path d="M0 0 C2.625 0.75 2.625 0.75 5 2 C6.4783226 4.95664519 6.06032783 7.74229737 6 11 C4.02 11.99 4.02 11.99 2 13 C-2.86425339 8.86538462 -2.86425339 8.86538462 -3.5 4.8125 C-3.335 3.884375 -3.17 2.95625 -3 2 C-2.01 1.34 -1.02 0.68 0 0 Z " fill="#43F3DF" transform="translate(44,27)"/>
<path d="M0 0 C0.33 0 0.66 0 1 0 C1.0501123 0.64549805 1.10022461 1.29099609 1.15185547 1.95605469 C1.38433333 4.88812245 1.62952814 7.8189927 1.875 10.75 C1.95363281 11.76578125 2.03226563 12.7815625 2.11328125 13.828125 C2.19707031 14.8078125 2.28085937 15.7875 2.3671875 16.796875 C2.47716064 18.14797363 2.47716064 18.14797363 2.58935547 19.52636719 C3.00610936 22.03680142 3.74074957 23.80415406 5 26 C6.32 26 7.64 26 9 26 C9.33 24.02 9.66 22.04 10 20 C10.99 20 11.98 20 13 20 C12.51622419 26.4100295 12.51622419 26.4100295 10.25 29 C8 30 8 30 5.375 29.9375 C3 29 3 29 1.890625 27.28125 C-1.30931027 19.08492458 -0.12556459 8.65000528 0 0 Z " fill="#071027" transform="translate(43,55)"/>
<path d="M0 0 C3.91645068 0.41225797 7.59896169 1.43012248 11.375 2.5 C15.93642147 3.7791948 20.28802418 4.55547398 25 5 C25 5.99 25 6.98 25 8 C16.08779879 8.80370552 9.02753504 6.90145296 1 3 C0.34 2.34 -0.32 1.68 -1 1 C-0.67 0.67 -0.34 0.34 0 0 Z " fill="#523D2E" transform="translate(32,92)"/>
<path d="M0 0 C0.99 0.495 0.99 0.495 2 1 C2 1.66 2 2.32 2 3 C3.65 3.33 5.3 3.66 7 4 C7 4.99 7 5.98 7 7 C7.99 7 8.98 7 10 7 C10 7.66 10 8.32 10 9 C10.66 9 11.32 9 12 9 C12.433125 9.45375 12.86625 9.9075 13.3125 10.375 C15.35628817 12.34309231 17.34530324 13.06726871 20 14 C20 14.66 20 15.32 20 16 C15.15600804 15.88391305 11.95628314 15.78997303 8.125 12.625 C7.42375 11.75875 6.7225 10.8925 6 10 C5.46375 9.505 4.9275 9.01 4.375 8.5 C2.11931432 6.03925198 0 3.41564604 0 0 Z " fill="#243075" transform="translate(28,78)"/>
<path d="M0 0 C1.5625 1.25 1.5625 1.25 3 3 C2.89950559 6.96115453 0.19226397 9.52214847 -2.25 12.4375 C-3.01828125 13.36433594 -3.7865625 14.29117188 -4.578125 15.24609375 C-6.95294716 17.94649636 -9.42833927 20.48761514 -12 23 C-12.796875 21.29296875 -12.796875 21.29296875 -13 19 C-11.015625 16.73828125 -11.015625 16.73828125 -8.25 14.3125 C-3.38710985 9.72885144 -1.46144879 6.47213034 0 0 Z " fill="#3A2B58" transform="translate(86,34)"/>
<path d="M0 0 C5 1 5 1 8 3 C8.4375 5.4375 8.4375 5.4375 8 8 C6.25 9.8125 6.25 9.8125 4 11 C2.68 11 1.36 11 0 11 C0 7.37 0 3.74 0 0 Z " fill="#06102C" transform="translate(54,53)"/>
<path d="M0 0 C0.5259375 0.7734375 0.5259375 0.7734375 1.0625 1.5625 C3.07690982 3.38280169 3.07690982 3.38280169 6.5625 2.75 C9.83962509 2.18280091 9.83962509 2.18280091 12 1 C12.33 2.98 12.66 4.96 13 7 C9.05352382 7.98844951 5.72607036 7.96191905 1.6875 7.5625 C0.61886719 7.46066406 -0.44976562 7.35882813 -1.55078125 7.25390625 C-2.76314453 7.12822266 -2.76314453 7.12822266 -4 7 C-2.79618552 4.50638429 -1.54571278 2.31856917 0 0 Z " fill="#A14D82" transform="translate(53,38)"/>
<path d="M0 0 C0.8125 3.1875 0.8125 3.1875 1 7 C-1.51832424 10.51039137 -3.10527355 11.7805388 -7.3125 12.8125 C-8.199375 12.874375 -9.08625 12.93625 -10 13 C-10.66 11.68 -11.32 10.36 -12 9 C-10.329375 8.814375 -10.329375 8.814375 -8.625 8.625 C-4.96896323 8.3534187 -4.96896323 8.3534187 -3 6 C-2.83312552 3.41645782 -2.83312552 3.41645782 -3 1 C-4.98 1 -6.96 1 -9 1 C-6.80036907 -3.39926185 -3.61934676 -1.66294311 0 0 Z " fill="#081525" transform="translate(77,33)"/>
<path d="M0 0 C3.08957939 1.0653722 4.0251094 2.0376641 5.875 4.8125 C7 8 7 8 6.1875 10.875 C5.795625 11.57625 5.40375 12.2775 5 13 C-1.29255319 13.48404255 -1.29255319 13.48404255 -4.375 11.375 C-6.2999963 8.56154387 -6.69393785 6.3666837 -7 3 C-6.46375 3.78375 -5.9275 4.5675 -5.375 5.375 C-2.69757158 8.33426299 -0.81566975 9.04608256 3 10 C2.05066101 6.64566891 1.10251165 3.30753495 0 0 Z " fill="#0A1626" transform="translate(36,36)"/>
<path d="M0 0 C4.54748603 -0.36871508 4.54748603 -0.36871508 6.6875 1.375 C7.120625 1.91125 7.55375 2.4475 8 3 C8.66 3.66 9.32 4.32 10 5 C10 8 10 8 9 11 C5.37 9.02 1.74 7.04 -2 5 C-1.34 3.35 -0.68 1.7 0 0 Z " fill="#A6876D" transform="translate(27,95)"/>
<path d="M0 0 C1.1446875 0.3403125 1.1446875 0.3403125 2.3125 0.6875 C2.625 2.9375 2.625 2.9375 2.3125 5.6875 C0.0625 8.0625 0.0625 8.0625 -2.6875 9.6875 C-5 9.4375 -5 9.4375 -6.6875 8.6875 C-6.09018456 3.31166107 -6.09018456 3.31166107 -4.4375 0.75 C-2.6875 -0.3125 -2.6875 -0.3125 0 0 Z " fill="#58F2DB" transform="translate(72.6875,33.3125)"/>
<path d="M0 0 C0.66 0 1.32 0 2 0 C2.66 5.28 3.32 10.56 4 16 C2.68 15.67 1.36 15.34 0 15 C0 14.34 0 13.68 0 13 C-0.33 13 -0.66 13 -1 13 C-2.33568021 12.67619874 -3.66923011 12.34342449 -5 12 C-4.67 10.68 -4.34 9.36 -4 8 C-3.34 8.33 -2.68 8.66 -2 9 C-2 6.36 -2 3.72 -2 1 C-1.67 1.66 -1.34 2.32 -1 3 C-0.67 2.01 -0.34 1.02 0 0 Z " fill="#C1A588" transform="translate(9,53)"/>
<path d="M0 0 C0.33 0 0.66 0 1 0 C1.10022461 0.90242432 1.20044922 1.80484863 1.30371094 2.73461914 C1.6863633 6.1114612 2.08311671 9.48604112 2.48925781 12.86010742 C2.661525 14.31518446 2.82829654 15.77092387 2.98925781 17.22729492 C3.84642462 24.94973288 4.59345722 31.39976527 9 38 C8.67 38.99 8.34 39.98 8 41 C-0.28254253 31.00382798 -0.84667365 13.52609639 -1 1 C-0.67 0.67 -0.34 0.34 0 0 Z " fill="#1A3A7B" transform="translate(19,37)"/>
<path d="M0 0 C0.33 0.99 0.66 1.98 1 3 C1.66 3 2.32 3 3 3 C3.144375 4.11375 3.28875 5.2275 3.4375 6.375 C3.78372035 9.82142047 3.78372035 9.82142047 5 12 C1.18510326 13.46726798 -1.29011622 12.43336419 -5 11 C-4.67 8.69 -4.34 6.38 -4 4 C-3.34 4 -2.68 4 -2 4 C-1.34 2.68 -0.68 1.36 0 0 Z " fill="#AC8869" transform="translate(105,54)"/>
<path d="M0 0 C2.82808478 2.06933032 4.70514196 4.46126941 6.76171875 7.2890625 C5.77171875 7.6190625 4.78171875 7.9490625 3.76171875 8.2890625 C3.29765625 7.144375 3.29765625 7.144375 2.82421875 5.9765625 C-0.18300101 2.05806403 -3.4847292 1.22227517 -8.23828125 0.2890625 C-13.44551359 -0.19816392 -17.61698873 -0.36527257 -22.23828125 2.2890625 C-21.23828125 -0.7109375 -21.23828125 -0.7109375 -19.30078125 -1.8984375 C-12.46436315 -3.71218108 -6.22021873 -3.50754728 0 0 Z " fill="#063C42" transform="translate(67.23828125,47.7109375)"/>
<path d="M0 0 C2.40147011 1.80110258 4.45666053 3.68030205 6.5 5.875 C5.51 6.37 5.51 6.37 4.5 6.875 C4.5 7.865 4.5 8.855 4.5 9.875 C3.51 9.875 2.52 9.875 1.5 9.875 C0.84 10.535 0.18 11.195 -0.5 11.875 C-0.83 11.215 -1.16 10.555 -1.5 9.875 C-0.5625 7.75 -0.5625 7.75 0.5 5.875 C-0.49 5.875 -1.48 5.875 -2.5 5.875 C-4.6875 3.375 -4.6875 3.375 -6.5 0.875 C-3.82510001 -1.00733703 -3.06724937 -1.38026222 0 0 Z " fill="#B0947B" transform="translate(86.5,11.125)"/>
<path d="M0 0 C-0.33 1.32 -0.66 2.64 -1 4 C-0.030625 4.28875 0.93875 4.5775 1.9375 4.875 C5 6 5 6 6 8 C5.34 8 4.68 8 4 8 C3.34 9.32 2.68 10.64 2 12 C0.68 12 -0.64 12 -2 12 C-3.4092283 9.3694405 -4.52274325 6.95899183 -5 4 C-4.67 3.01 -4.34 2.02 -4 1 C-2 0 -2 0 0 0 Z " fill="#B6997F" transform="translate(33,6)"/>
<path d="M0 0 C1.65 0.33 3.3 0.66 5 1 C4.67 2.98 4.34 4.96 4 7 C3.34 7 2.68 7 2 7 C2 7.99 2 8.98 2 10 C0 9 0 9 -1 6 C-1.66 6 -2.32 6 -3 6 C-3 6.66 -3 7.32 -3 8 C-3.66 8 -4.32 8 -5 8 C-4.67 8.99 -4.34 9.98 -4 11 C-4.66 11 -5.32 11 -6 11 C-6.41176754 7.39703406 -6.1535853 6.21597933 -4 3.1875 C-3.34 2.465625 -2.68 1.74375 -2 1 C-1.34 1.33 -0.68 1.66 0 2 C0 1.34 0 0.68 0 0 Z " fill="#BFA68A" transform="translate(65,1)"/>
<path d="M0 0 C3.37462715 0.54723683 5.08235 1.0549 8 3 C8.1875 6.125 8.1875 6.125 8 9 C4.71006898 9.36554789 3.36900115 9.26218503 0.625 7.3125 C-1 5 -1 5 -0.75 2.25 C-0.5025 1.5075 -0.255 0.765 0 0 Z " fill="#6BFAE1" transform="translate(31,37)"/>
<path d="M0 0 C0.33 0 0.66 0 1 0 C1.54249536 8.00180661 -0.39161312 14.46595398 -3 22 C-4.65 22 -6.3 22 -8 22 C-7.67 20.68 -7.34 19.36 -7 18 C-6.34 18 -5.68 18 -5 18 C-4.01 14.37 -3.02 10.74 -2 7 C-1.34 7 -0.68 7 0 7 C0 4.69 0 2.38 0 0 Z " fill="#412D21" transform="translate(99,52)"/>
<path d="M0 0 C0.99 0 1.98 0 3 0 C3.33 1.65 3.66 3.3 4 5 C4.928125 4.79375 5.85625 4.5875 6.8125 4.375 C10 4 10 4 13 6 C13 6.66 13 7.32 13 8 C12.01 7.67 11.02 7.34 10 7 C7.83333333 7.83333333 7.83333333 7.83333333 7 10 C3.75791433 9.64950425 2.38472296 9.43778819 0.1875 6.9375 C-0.204375 6.298125 -0.59625 5.65875 -1 5 C-0.34 4.67 0.32 4.34 1 4 C0.67 2.68 0.34 1.36 0 0 Z " fill="#A4876E" transform="translate(17,86)"/>
<path d="M0 0 C1.98 0 3.96 0 6 0 C5.01 1.485 5.01 1.485 4 3 C4.99 3.99 5.98 4.98 7 6 C6.67 6.66 6.34 7.32 6 8 C4.02 8 2.04 8 0 8 C-0.33 6.68 -0.66 5.36 -1 4 C-2.98 4 -4.96 4 -7 4 C-7 3.01 -7 2.02 -7 1 C-4.69 1 -2.38 1 0 1 C0 0.67 0 0.34 0 0 Z " fill="#BCA389" transform="translate(49,101)"/>
<path d="M0 0 C8.415 2.475 8.415 2.475 17 5 C16.67 5.99 16.34 6.98 16 8 C10.25 8.125 10.25 8.125 8 7 C8 7.99 8 8.98 8 10 C7.01 9.67 6.02 9.34 5 9 C4.67 7.02 4.34 5.04 4 3 C2.68 2.67 1.36 2.34 0 2 C0 1.34 0 0.68 0 0 Z " fill="#A8907A" transform="translate(34,95)"/>
<path d="M0 0 C-0.9590625 0.86625 -0.9590625 0.86625 -1.9375 1.75 C-4.99025442 6.56040091 -4.82155118 11.40562954 -5 17 C-5.99 16.67 -6.98 16.34 -8 16 C-8.21277961 10.68050971 -8.38992166 5.8993394 -6 1 C-2.71794872 -1.35897436 -2.71794872 -1.35897436 0 0 Z " fill="#7F3F6F" transform="translate(42,19)"/>
<path d="M0 0 C2.9555377 2.75170751 5.11563315 5.41970299 7 9 C7 9.66 7 10.32 7 11 C7.5775 11.268125 8.155 11.53625 8.75 11.8125 C11.0325868 13.01719859 12.9737942 14.40798115 15 16 C10.81013196 15.46512323 8.49994696 14.1610304 5.25 11.5 C4.47140625 10.8709375 3.6928125 10.241875 2.890625 9.59375 C1.9008167 8.75936615 0.9154007 7.9154007 0 7 C-0.04092937 4.66702567 -0.04241723 2.33294775 0 0 Z " fill="#2E4791" transform="translate(25,76)"/>
<path d="M0 0 C2.4375 0.25 2.4375 0.25 5 1 C7 4 7 4 7 7 C5.68 6.34 4.36 5.68 3 5 C2.67 6.65 2.34 8.3 2 10 C0.68 9.67 -0.64 9.34 -2 9 C-1.835 8.236875 -1.67 7.47375 -1.5 6.6875 C-0.90854604 3.96403764 -0.90854604 3.96403764 -1 1 C-0.67 0.67 -0.34 0.34 0 0 Z " fill="#B29577" transform="translate(99,30)"/>
<path d="M0 0 C0.66 0 1.32 0 2 0 C2 0.66 2 1.32 2 2 C2.66 2.33 3.32 2.66 4 3 C4.33 3.33 4.66 3.66 5 4 C5 3.01 5 2.02 5 1 C5.66 1.33 6.32 1.66 7 2 C7.33 1.67 7.66 1.34 8 1 C8.625 2.8125 8.625 2.8125 9 5 C8.01 6.485 8.01 6.485 7 8 C5.68277821 7.57692877 4.37127336 7.13602514 3.0625 6.6875 C2.33160156 6.44386719 1.60070313 6.20023438 0.84765625 5.94921875 C-1 5 -1 5 -2 2 C-1.34 2 -0.68 2 0 2 C0 1.34 0 0.68 0 0 Z " fill="#A98F78" transform="translate(62,7)"/>
<path d="M0 0 C2 1 4 2 6 3 C6 4.65 6 6.3 6 8 C2.7 7.34 -0.6 6.68 -4 6 C-4 5.34 -4 4.68 -4 4 C-3.34 4 -2.68 4 -2 4 C-1.34 2.68 -0.68 1.36 0 0 Z " fill="#0DD4C0" transform="translate(58,26)"/>
<path d="M0 0 C1.98 0.99 3.96 1.98 6 3 C5.67 7.95 5.34 12.9 5 18 C1.75 13.125 1.75 13.125 1 11 C1.875 8.25 1.875 8.25 3 6 C2.505 5.566875 2.01 5.13375 1.5 4.6875 C0 3 0 3 0 0 Z " fill="#854272" transform="translate(74,20)"/>
<path d="M0 0 C0.66 0 1.32 0 2 0 C1.7201206 7.486774 0.52350129 13.36270688 -3 20 C-4.37344385 15.60155678 -3.24307502 12.07495445 -2.0625 7.75 C-1.86720703 7.00492188 -1.67191406 6.25984375 -1.47070312 5.4921875 C-0.98895802 3.65920614 -0.49560775 1.82928182 0 0 Z " fill="#215498" transform="translate(94,53)"/>
<path d="M0 0 C0.66 1.32 1.32 2.64 2 4 C0.9015258 5.46262592 -0.2040036 6.91995503 -1.3125 8.375 C-1.92738281 9.18710938 -2.54226562 9.99921875 -3.17578125 10.8359375 C-5 13 -5 13 -8 15 C-7.21066812 11.57956185 -6.30480865 8.26202163 -5 5 C-4.01 4.67 -3.02 4.34 -2 4 C-0.79117904 1.99983534 -0.79117904 1.99983534 0 0 Z " fill="#253688" transform="translate(89,70)"/>
<path d="M0 0 C0.33 0 0.66 0 1 0 C1 2.97 1 5.94 1 9 C0.67 9 0.34 9 0 9 C0 6.03 0 3.06 0 0 Z M-1 9 C-0.19132326 11.33733665 0.12401827 12.61044569 -0.63671875 15 C-2.69017299 18.90843335 -4.59298057 22.07969763 -8 25 C-8.99 24.67 -9.98 24.34 -11 24 C-10.52949219 23.50371094 -10.05898437 23.00742187 -9.57421875 22.49609375 C-5.62393472 18.18594947 -2.95387647 14.51682767 -1 9 Z " fill="#593463" transform="translate(82,27)"/>
<path d="M0 0 C2.62187494 1.04874998 3.79371361 1.64931313 5.25 4.125 C5.4975 4.74375 5.745 5.3625 6 6 C5.278125 5.731875 4.55625 5.46375 3.8125 5.1875 C0.73609463 4.65105845 0.73609463 4.65105845 -1.8125 7.4375 C-2.534375 8.283125 -3.25625 9.12875 -4 10 C-4.99 9.01 -5.98 8.02 -7 7 C-6.01 7 -5.02 7 -4 7 C-4 6.01 -4 5.02 -4 4 C-3.01 4 -2.02 4 -1 4 C-0.67 2.68 -0.34 1.36 0 0 Z " fill="#B59D84" transform="translate(93,18)"/>
<path d="M0 0 C-0.99 1.98 -1.98 3.96 -3 6 C-6.57575896 6 -8.05295935 4.91159393 -11 3 C-8.21756596 -1.17365106 -4.53441502 -0.22300402 0 0 Z " fill="#A98D74" transform="translate(63,101)"/>
<path d="M0 0 C1 2 1 2 0.3125 4.3125 C-1 7 -1 7 -3.125 9.5625 C-5.40647384 12.01587788 -5.40647384 12.01587788 -5 16 C-6.65 16.66 -8.3 17.32 -10 18 C-9.44956657 13.79257738 -8.06313359 11.27502987 -5.5625 7.875 C-4.94503906 7.02679688 -4.32757813 6.17859375 -3.69140625 5.3046875 C-2.85416016 4.16386719 -2.85416016 4.16386719 -2 3 C-1.34 2.01 -0.68 1.02 0 0 Z " fill="#182061" transform="translate(83,72)"/>
<path d="M0 0 C1.65 0 3.3 0 5 0 C4.9278125 0.59167969 4.855625 1.18335938 4.78125 1.79296875 C4.30089977 5.88261722 3.86689849 9.8738531 4 14 C-0.67692308 12.52307692 -0.67692308 12.52307692 -2.3125 9.875 C-2.539375 9.25625 -2.76625 8.6375 -3 8 C-1.02 8.99 -1.02 8.99 1 10 C0.67 6.7 0.34 3.4 0 0 Z " fill="#BB9A77" transform="translate(107,33)"/>
<path d="M0 0 C0.99 0.66 1.98 1.32 3 2 C2.67 3.65 2.34 5.3 2 7 C1.01 7 0.02 7 -1 7 C-1.33 8.32 -1.66 9.64 -2 11 C-2.66 11 -3.32 11 -4 11 C-4.33 9.02 -4.66 7.04 -5 5 C-2.525 5.495 -2.525 5.495 0 6 C-0.99 4.35 -1.98 2.7 -3 1 C-2.01 0.67 -1.02 0.34 0 0 Z " fill="#9A7C62" transform="translate(103,41)"/>
<path d="M0 0 C0.99 0 1.98 0 3 0 C3 2.64 3 5.28 3 8 C3.66 8.33 4.32 8.66 5 9 C4.34 10.65 3.68 12.3 3 14 C1.20724134 10.88089144 0.65709282 8.32317572 0.375 4.75 C0.30023438 3.85796875 0.22546875 2.9659375 0.1484375 2.046875 C0.09945313 1.37140625 0.05046875 0.6959375 0 0 Z " fill="#49362A" transform="translate(11,56)"/>
<path d="M0 0 C4.16446295 3.42080885 6.46633604 7.89092312 8 13 C7.67 13.99 7.34 14.98 7 16 C6.20724852 14.5839401 5.41584688 13.16712447 4.625 11.75 C3.96371094 10.56664062 3.96371094 10.56664062 3.2890625 9.359375 C2.86367187 8.58078125 2.43828125 7.8021875 2 7 C1.61585937 6.30390625 1.23171875 5.6078125 0.8359375 4.890625 C0 3 0 3 0 0 Z " fill="#285C70" transform="translate(86,30)"/>
<path d="M0 0 C0 1.65 0 3.3 0 5 C-2.64 4.67 -5.28 4.34 -8 4 C-7.625 2.0625 -7.625 2.0625 -7 0 C-4.3333581 -1.33332095 -2.83319697 -0.67102033 0 0 Z " fill="#0FCBB6" transform="translate(75,34)"/>
<path d="M0 0 C4.03867994 0.55414446 6.16829957 2.61616573 9.125 5.3125 C10.42824219 6.48232422 10.42824219 6.48232422 11.7578125 7.67578125 C13.76711788 9.7585978 14.91992563 11.34835675 16 14 C12.58983233 12.86327744 11.69920686 11.43856331 9.5390625 8.6953125 C7.1916085 6.1095383 4.41978072 4.20320971 1.57421875 2.19921875 C1.05472656 1.80347656 0.53523438 1.40773438 0 1 C0 0.67 0 0.34 0 0 Z " fill="#E3CC97" transform="translate(85,10)"/>
<path d="M0 0 C1.70840281 1.63412443 2.93453047 2.86906094 4 5 C3.00390625 7.3828125 3.00390625 7.3828125 1.5625 10.125 C1.08941406 11.03507812 0.61632812 11.94515625 0.12890625 12.8828125 C-0.24363281 13.58148438 -0.61617188 14.28015625 -1 15 C-2.44776473 12.10447054 -1.59553577 10.1563396 -1 7 C-0.66140041 4.66742506 -0.3267961 2.33425788 0 0 Z " fill="#7E6249" transform="translate(105,70)"/>
<path d="M0 0 C-0.33 0.66 -0.66 1.32 -1 2 C-2.32 2 -3.64 2 -5 2 C-5.33 2.99 -5.66 3.98 -6 5 C-6.99 5.33 -7.98 5.66 -9 6 C-9.33 5.01 -9.66 4.02 -10 3 C-9.01 2.34 -8.02 1.68 -7 1 C-7.66 0.34 -8.32 -0.32 -9 -1 C-5.38055101 -2.34053666 -3.42632833 -1.61798838 0 0 Z " fill="#9C836D" transform="translate(99,24)"/>
<path d="M0 0 C0.86625 0.37125 0.86625 0.37125 1.75 0.75 C1.75 1.41 1.75 2.07 1.75 2.75 C-0.23 3.41 -2.21 4.07 -4.25 4.75 C-3.26 5.41 -2.27 6.07 -1.25 6.75 C-2.9 7.08 -4.55 7.41 -6.25 7.75 C-6.25 3.75 -6.25 3.75 -4.5 1.4375 C-2.25 -0.25 -2.25 -0.25 0 0 Z " fill="#A68A72" transform="translate(22.25,14.25)"/>
<path d="M0 0 C0.66 0 1.32 0 2 0 C2.33 3.3 2.66 6.6 3 10 C1.68 9.67 0.36 9.34 -1 9 C-1.33 6.36 -1.66 3.72 -2 1 C-1.67 1.66 -1.34 2.32 -1 3 C-0.67 2.01 -0.34 1.02 0 0 Z " fill="#B3977D" transform="translate(9,53)"/>
<path d="M0 0 C0.99 0.33 1.98 0.66 3 1 C3.33 3.31 3.66 5.62 4 8 C3.34 8 2.68 8 2 8 C1.67 9.65 1.34 11.3 1 13 C0.67 13 0.34 13 0 13 C0 8.71 0 4.42 0 0 Z " fill="#194778" transform="translate(92,45)"/>
<path d="M0 0 C2.6875 0.875 2.6875 0.875 5 2 C5.33 4.31 5.66 6.62 6 9 C5.67 7.68 5.34 6.36 5 5 C2.36 4.67 -0.28 4.34 -3 4 C-3 3.34 -3 2.68 -3 2 C-2.01 1.34 -1.02 0.68 0 0 Z " fill="#0EC8B3" transform="translate(44,27)"/>
<path d="M0 0 C2.3125 1.9375 2.3125 1.9375 4 4 C2.68 4 1.36 4 0 4 C-0.33 3.67 -0.66 3.34 -1 3 C-1.33 3.66 -1.66 4.32 -2 5 C-1.34 5.33 -0.68 5.66 0 6 C-1.32 6.33 -2.64 6.66 -4 7 C-5.08744934 4.82510133 -5 3.41588781 -5 1 C-2.75 0.25 -2.75 0.25 0 0 Z " fill="#BB9F84" transform="translate(24,16)"/>
<path d="M0 0 C3.37462715 0.54723683 5.08235 1.0549 8 3 C7.67 3.66 7.34 4.32 7 5 C4.33333333 5 1.66666667 5 -1 5 C-0.67 3.35 -0.34 1.7 0 0 Z " fill="#12CEBB" transform="translate(31,37)"/>
<path d="M0 0 C0.33 0 0.66 0 1 0 C1.33 5.61 1.66 11.22 2 17 C1.34 17.33 0.68 17.66 0 18 C-0.38951724 15.56401909 -0.76203193 13.12745206 -1.125 10.6875 C-1.29322266 9.65206055 -1.29322266 9.65206055 -1.46484375 8.59570312 C-2.2265625 3.33984375 -2.2265625 3.33984375 0 0 Z " fill="#1C275E" transform="translate(21,33)"/>
<path d="M0 0 C2.92823559 1.77235312 3.44045424 3.20906918 4.375 6.4375 C3.385 6.1075 2.395 5.7775 1.375 5.4375 C1.375 4.7775 1.375 4.1175 1.375 3.4375 C-1.91196233 2.63796862 -3.33523192 2.34091064 -6.625 3.4375 C-6.625 2.7775 -6.625 2.1175 -6.625 1.4375 C-4.0742598 -0.26299347 -3.05397233 -0.65442264 0 0 Z " fill="#0A3847" transform="translate(47.625,25.5625)"/>
<path d="M0 0 C0.33 0 0.66 0 1 0 C0.67 4.62 0.34 9.24 0 14 C-0.66 14 -1.32 14 -2 14 C-2.05410687 12.22950311 -2.09284119 10.45853151 -2.125 8.6875 C-2.14820312 7.70136719 -2.17140625 6.71523438 -2.1953125 5.69921875 C-2 3 -2 3 0 0 Z " fill="#693867" transform="translate(34,21)"/>
<path d="M0 0 C2.5 1.3125 2.5 1.3125 5 3 C5 3.99 5 4.98 5 6 C3.35 6.33 1.7 6.66 0 7 C0 4.69 0 2.38 0 0 Z " fill="#352A55" transform="translate(56,56)"/>
<path d="M0 0 C2.9719385 1.12451727 5.33440687 2.22293791 8 4 C4.25 7 4.25 7 2 7 C1.67 7.66 1.34 8.32 1 9 C0.375 7.125 0.375 7.125 0 5 C0.66 4.34 1.32 3.68 2 3 C1.34 2.67 0.68 2.34 0 2 C0 1.34 0 0.68 0 0 Z " fill="#A3866D" transform="translate(7,72)"/>
<path d="M0 0 C0.33 0 0.66 0 1 0 C1.54957922 5.49579218 -0.03413634 9.46460996 -3 14 C-3.99 14.495 -3.99 14.495 -5 15 C-3.33333333 10 -1.66666667 5 0 0 Z " fill="#192465" transform="translate(89,57)"/>
<path d="M0 0 C1.65 0 3.3 0 5 0 C4.34 1.65 3.68 3.3 3 5 C2.01 5 1.02 5 0 5 C0 5.99 0 6.98 0 8 C-1.32 8 -2.64 8 -4 8 C-3 5 -3 5 -1 3 C-0.01 3.33 0.98 3.66 2 4 C2 3.01 2 2.02 2 1 C1.34 0.67 0.68 0.34 0 0 Z " fill="#A3866C" transform="translate(89,17)"/>
<path d="M0 0 C-0.33 1.32 -0.66 2.64 -1 4 C-0.34 4 0.32 4 1 4 C1 4.66 1 5.32 1 6 C-0.98 6.66 -2.96 7.32 -5 8 C-5.1875 5.125 -5.1875 5.125 -5 2 C-2 0 -2 0 0 0 Z " fill="#C3AA8B" transform="translate(33,6)"/>
<path d="M0 0 C1.65 0.33 3.3 0.66 5 1 C4.34 1.66 3.68 2.32 3 3 C3 3.99 3 4.98 3 6 C2.01 6 1.02 6 0 6 C-0.66 6.66 -1.32 7.32 -2 8 C-2.33 7.34 -2.66 6.68 -3 6 C-2.06553465 3.96855359 -1.06775224 1.96466413 0 0 Z " fill="#B69C83" transform="translate(88,15)"/>
<path d="M0 0 C0.66 0 1.32 0 2 0 C2.33 2.31 2.66 4.62 3 7 C1.35 6.67 -0.3 6.34 -2 6 C-1.34 4.02 -0.68 2.04 0 0 Z " fill="#9D846E" transform="translate(56,5)"/>
<path d="M0 0 C1.65 0 3.3 0 5 0 C4.40138258 2.35171131 3.73075648 4.6859378 3 7 C2.01 7.495 2.01 7.495 1 8 C0.40267181 5.23735711 0 2.83967231 0 0 Z " fill="#A28A73" transform="translate(50,1)"/>
<path d="M0 0 C1.2684375 0.12375 1.2684375 0.12375 2.5625 0.25 C3.2225 1.24 3.8825 2.23 4.5625 3.25 C3.9025 3.91 3.2425 4.57 2.5625 5.25 C-0.0625 4.875 -0.0625 4.875 -2.4375 4.25 C-2.7675 3.26 -3.0975 2.27 -3.4375 1.25 C-2.4375 0.25 -2.4375 0.25 0 0 Z " fill="#AE957D" transform="translate(45.4375,103.75)"/>
<path d="M0 0 C1.98 0.495 1.98 0.495 4 1 C4 2.65 4 4.3 4 6 C3.67 5.01 3.34 4.02 3 3 C2.34 3 1.68 3 1 3 C1.33 4.98 1.66 6.96 2 9 C1.01 9.33 0.02 9.66 -1 10 C-0.67 6.7 -0.34 3.4 0 0 Z " fill="#9B7C61" transform="translate(100,55)"/>
<path d="M0 0 C-0.33 1.98 -0.66 3.96 -1 6 C-2.98 5.01 -4.96 4.02 -7 3 C-7 2.34 -7 1.68 -7 1 C-4 0 -4 0 0 0 Z " fill="#573361" transform="translate(45,48)"/>
<path d="M0 0 C1.32 0.33 2.64 0.66 4 1 C4 2.32 4 3.64 4 5 C2.68 5.33 1.36 5.66 0 6 C-0.66 5.01 -1.32 4.02 -2 3 C-1.34 2.01 -0.68 1.02 0 0 Z " fill="#AA8A6F" transform="translate(8,46)"/>
<path d="M0 0 C0.66 0.33 1.32 0.66 2 1 C1.34 3.31 0.68 5.62 0 8 C-1.32 6.68 -2.64 5.36 -4 4 C-2.68 2.68 -1.36 1.36 0 0 Z " fill="#AA9079" transform="translate(94,26)"/>
<path d="M0 0 C1 3 1 3 0.0625 5.1875 C-0.4634375 6.0846875 -0.4634375 6.0846875 -1 7 C-2.32 6.34 -3.64 5.68 -5 5 C-5 4.34 -5 3.68 -5 3 C-4.34 2.67 -3.68 2.34 -3 2 C-2.01 1.34 -1.02 0.68 0 0 Z " fill="#BBA187" transform="translate(27,92)"/>
<path d="M0 0 C-0.99 0 -1.98 0 -3 0 C-3 0.66 -3 1.32 -3 2 C-5.375 2.625 -5.375 2.625 -8 3 C-8.66 2.34 -9.32 1.68 -10 1 C-6.54366026 -2.45633974 -4.11562231 -2.49877069 0 0 Z " fill="#9A795D" transform="translate(96,86)"/>
<path d="M0 0 C3.66881155 0.70554068 6.70450534 2.27735506 10 4 C9.67 4.66 9.34 5.32 9 6 C7.88625 5.505 6.7725 5.01 5.625 4.5 C2.34584251 2.8725494 2.34584251 2.8725494 0 3 C0 2.01 0 1.02 0 0 Z " fill="#AE8C6E" transform="translate(11,79)"/>
<path d="M0 0 C0.93045933 2.55144824 1.08564091 3.74006478 0.22265625 6.359375 C-0.16019531 7.14828125 -0.54304688 7.9371875 -0.9375 8.75 C-1.50791016 9.94882813 -1.50791016 9.94882813 -2.08984375 11.171875 C-2.39019531 11.77515625 -2.69054687 12.3784375 -3 13 C-3.93423645 9.98968256 -4.04449911 9.13349732 -3 6 C-2.34 6 -1.68 6 -1 6 C-0.67 4.02 -0.34 2.04 0 0 Z " fill="#2A56A0" transform="translate(94,60)"/>
<path d="M0 0 C0.66 1.65 1.32 3.3 2 5 C-0.475 4.01 -0.475 4.01 -3 3 C-3.99 4.485 -3.99 4.485 -5 6 C-5.66 6 -6.32 6 -7 6 C-4.84615385 0 -4.84615385 0 0 0 Z " fill="#056764" transform="translate(61,24)"/>
<path d="M0 0 C0.66 0 1.32 0 2 0 C2 0.66 2 1.32 2 2 C2.66 2.33 3.32 2.66 4 3 C3.67 3.33 3.34 3.66 3 4 C3.66 4.66 4.32 5.32 5 6 C3.35 6 1.7 6 0 6 C-0.66 4.68 -1.32 3.36 -2 2 C-1.34 2 -0.68 2 0 2 C0 1.34 0 0.68 0 0 Z " fill="#AF957E" transform="translate(62,7)"/>
<path d="M0 0 C1.98 0.495 1.98 0.495 4 1 C4.33 2.32 4.66 3.64 5 5 C3.02 4.34 1.04 3.68 -1 3 C-0.67 2.01 -0.34 1.02 0 0 Z " fill="#A98B71" transform="translate(26,97)"/>
<path d="M0 0 C2.0625 0.4375 2.0625 0.4375 4 1 C4.33 2.65 4.66 4.3 5 6 C4.01 6.33 3.02 6.66 2 7 C1.814375 6.071875 1.814375 6.071875 1.625 5.125 C1.12802644 2.80879168 1.12802644 2.80879168 -1 1 C-0.67 0.67 -0.34 0.34 0 0 Z " fill="#AA8E75" transform="translate(10,69)"/>
<path d="M0 0 C-0.33 0.99 -0.66 1.98 -1 3 C-0.01 3.66 0.98 4.32 2 5 C0.35 5.33 -1.3 5.66 -3 6 C-3.185625 5.071875 -3.185625 5.071875 -3.375 4.125 C-3.87197356 1.80879168 -3.87197356 1.80879168 -6 0 C-2.25 -1.125 -2.25 -1.125 0 0 Z " fill="#B4987F" transform="translate(11,67)"/>
<path d="M0 0 C3.36720387 1.39332574 4.9859524 2.9789286 7 6 C4.03 5.505 4.03 5.505 1 5 C0.67 3.35 0.34 1.7 0 0 Z " fill="#B39C85" transform="translate(36,101)"/>
<path d="M0 0 C2.05078125 0.03255208 4.1015625 0.06510417 6.15234375 0.09765625 C6.15234375 0.75765625 6.15234375 1.41765625 6.15234375 2.09765625 C3.90234375 3.28515625 3.90234375 3.28515625 1.15234375 4.09765625 C-1.16015625 2.72265625 -1.16015625 2.72265625 -2.84765625 1.09765625 C-1.84765625 0.09765625 -1.84765625 0.09765625 0 0 Z " fill="#7E4072" transform="translate(66.84765625,44.90234375)"/>
<path d="M0 0 C0.66 0 1.32 0 2 0 C2.66 1.65 3.32 3.3 4 5 C2.68 5 1.36 5 0 5 C0 5.66 0 6.32 0 7 C-0.66 6.67 -1.32 6.34 -2 6 C-1.34 4.02 -0.68 2.04 0 0 Z " fill="#B39B83" transform="translate(70,3)"/>
<path d="M0 0 C3.875 1.75 3.875 1.75 5 4 C4.34 4.66 3.68 5.32 3 6 C2.01 5.67 1.02 5.34 0 5 C-0.75 3 -0.75 3 -1 1 C-0.67 0.67 -0.34 0.34 0 0 Z " fill="#B3977E" transform="translate(21,86)"/>
<path d="M0 0 C0.99 0 1.98 0 3 0 C3 2.31 3 4.62 3 7 C2.01 7.495 2.01 7.495 1 8 C0.26919734 6.02253397 -0.39421747 4.01927511 -1 2 C-0.67 1.34 -0.34 0.68 0 0 Z " fill="#9B7B5E" transform="translate(94,76)"/>
<path d="M0 0 C2.97 0.495 2.97 0.495 6 1 C5.67 2.65 5.34 4.3 5 6 C3.2925002 4.71937515 1.62626404 3.38232443 0 2 C0 1.34 0 0.68 0 0 Z " fill="#9F8065" transform="translate(103,38)"/>
<path d="M0 0 C0.33 0 0.66 0 1 0 C1.05422947 1.4370809 1.09289723 2.87475462 1.125 4.3125 C1.14820312 5.11300781 1.17140625 5.91351563 1.1953125 6.73828125 C1 9 1 9 -1 12 C-1.33 10.35 -1.66 8.7 -2 7 C-1.34 7 -0.68 7 0 7 C0 4.69 0 2.38 0 0 Z " fill="#4D3221" transform="translate(99,52)"/>
<path d="M0 0 C1.65 0 3.3 0 5 0 C4.34 2.64 3.68 5.28 3 8 C1.0549 5.08235 0.54723683 3.37462715 0 0 Z " fill="#FEE764" transform="translate(107,33)"/>
<path d="M0 0 C2.0625 2.3125 2.0625 2.3125 4 5 C3.67 5.99 3.34 6.98 3 8 C2.34 7.67 1.68 7.34 1 7 C1 6.34 1 5.68 1 5 C0.34 4.67 -0.32 4.34 -1 4 C-0.67 2.68 -0.34 1.36 0 0 Z " fill="#D0B78A" transform="translate(103,26)"/>
<path d="M0 0 C1.32 0.66 2.64 1.32 4 2 C2.68 3.32 1.36 4.64 0 6 C-0.99 5.01 -1.98 4.02 -3 3 C-2.01 3 -1.02 3 0 3 C0 2.01 0 1.02 0 0 Z " fill="#AA937E" transform="translate(89,22)"/>
<path d="M0 0 C0.66 0.66 1.32 1.32 2 2 C1.625 4.125 1.625 4.125 1 6 C-0.65 6 -2.3 6 -4 6 C-1.125 1.125 -1.125 1.125 0 0 Z " fill="#B19278" transform="translate(77,9)"/>
<path d="M0 0 C0.33 0 0.66 0 1 0 C1.625 2.8125 1.625 2.8125 2 6 C1.01 7.485 1.01 7.485 0 9 C0.66 9.33 1.32 9.66 2 10 C0.68 9.67 -0.64 9.34 -2 9 C-1.34 6.03 -0.68 3.06 0 0 Z " fill="#BAA288" transform="translate(54,2)"/>
</svg>
