<svg xmlns="http://www.w3.org/2000/svg" width="48" height="48" viewBox="0 0 48 48" fill="none">
<path d="M26.443 13.0909H38.54V15.5103H26.443V13.0909ZM38.54 13.0909H40.9594V27.6073H38.54V13.0909ZM36.1206 15.5103H38.54V20.3491H36.1206V15.5103ZM31.2818 20.3491H33.7012V25.1879H31.2818V20.3491ZM28.8624 22.7685H31.2818V27.6073H28.8624V22.7685ZM26.443 25.1879H28.8624V30.0267H26.443V25.1879ZM24.0236 27.6073H26.443V32.4461H24.0236V27.6073ZM21.6042 25.1879H24.0236V30.0267H21.6042V25.1879ZM19.1848 22.7685H21.6042V27.6073H19.1848V22.7685ZM16.7654 20.3491H19.1848V25.1879H16.7654V20.3491ZM14.3459 22.7685H16.7654V27.6073H14.3459V22.7685Z" fill="url(#paint0_linear_8429_3709)"/>
<path d="M11.9265 25.1879H14.3459V30.0267H11.9265V25.1879ZM9.50705 27.6073H11.9265V32.4461H9.50705V27.6073ZM7.08765 30.0267H9.50705V34.8655H7.08765V30.0267ZM33.7011 15.4619H36.1205V22.7201H33.7011V15.4619Z" fill="url(#paint1_linear_8429_3709)"/>
<defs>
<linearGradient id="paint0_linear_8429_3709" x1="15.1202" y1="26.9299" x2="47.9273" y2="10.8651" gradientUnits="userSpaceOnUse">
<stop offset="0.371015" stop-color="#F6D54F"/>
<stop offset="0.66381" stop-color="#34BF0E"/>
</linearGradient>
<linearGradient id="paint1_linear_8429_3709" x1="41.9999" y1="12.5454" x2="5.73278" y2="31.8655" gradientUnits="userSpaceOnUse">
<stop offset="0.0584221" stop-color="#34BF0E"/>
<stop offset="0.716869" stop-color="#F6D54F"/>
<stop offset="1" stop-color="#DF36E0"/>
</linearGradient>
</defs>
</svg>