<?xml version="1.0" standalone="no"?>
<!DOCTYPE svg PUBLIC "-//W3C//DTD SVG 20010904//EN"
 "http://www.w3.org/TR/2001/REC-SVG-20010904/DTD/svg10.dtd">
<svg version="1.0" xmlns="http://www.w3.org/2000/svg"
 width="400.000000pt" height="400.000000pt" viewBox="0 0 400.000000 400.000000"
 preserveAspectRatio="xMidYMid meet">

<g transform="translate(0.000000,400.000000) scale(0.100000,-0.100000)"
fill="#000000" stroke="none">
<path d="M0 2000 l0 -2000 2000 0 2000 0 0 2000 0 2000 -2000 0 -2000 0 0
-2000z m1538 1386 c15 -15 24 -36 25 -57 0 -48 -86 -769 -93 -769 -6 0 -94
730 -93 768 1 30 29 71 56 82 32 14 79 3 105 -24z m-639 -158 c12 -13 87 -176
167 -363 167 -388 169 -394 156 -380 -18 19 -463 618 -472 636 -17 31 -11 66
16 98 21 26 33 31 69 31 31 0 49 -6 64 -22z m1269 2 c24 -23 35 -56 30 -89 -3
-20 -469 -654 -475 -647 -7 7 301 713 320 734 27 29 94 31 125 2z m-345 -47
c9 -9 17 -30 17 -47 0 -27 -240 -609 -248 -602 -3 4 95 599 104 629 13 43 87
55 127 20z m-603 -3 c11 -6 24 -19 29 -29 11 -20 114 -621 108 -627 -7 -8
-247 567 -247 592 0 30 41 74 70 74 12 0 30 -5 40 -10z m-299 -515 c108 -137
195 -252 194 -253 -7 -8 -491 382 -503 404 -14 27 -8 59 16 87 11 13 27 17 56
15 39 -3 43 -6 237 -253z m-199 -131 c166 -124 310 -233 318 -241 8 -8 -21 1
-65 20 -411 175 -653 282 -667 294 -41 36 -29 120 21 148 52 30 76 16 393
-221z m-5 -256 c167 -62 297 -114 290 -115 -6 -2 -150 14 -319 35 -334 42
-348 46 -348 104 0 47 28 82 70 87 3 1 141 -50 307 -111z m798 -288 c85 0 155
-3 156 -7 0 -5 2 -16 4 -26 3 -16 -9 -17 -178 -15 l-182 3 -3 89 c-3 81 -1 91
20 113 l23 25 3 -91 3 -91 154 0z m265 65 l0 -115 -25 0 c-25 0 -25 1 -25 92
0 80 3 95 22 115 12 13 23 23 25 23 2 0 3 -52 3 -115z m420 80 l0 -25 -137 0
c-113 0 -140 -3 -155 -17 -32 -29 -17 -99 22 -103 8 -2 61 -2 118 -1 95 1 102
2 102 21 0 18 -7 20 -67 20 -65 0 -66 0 -48 20 15 17 31 20 92 20 l74 0 -3
-62 -3 -63 -135 -3 c-74 -1 -145 0 -158 3 -31 8 -62 62 -62 109 0 30 7 45 34
72 l34 34 146 0 146 0 0 -25z m110 -20 l0 -45 130 0 130 0 0 45 c0 41 2 45 25
45 l25 0 0 -110 0 -110 -25 0 c-23 0 -25 4 -25 45 l0 45 -130 0 -130 0 0 -45
c0 -41 -2 -45 -25 -45 l-25 0 0 110 0 110 25 0 c23 0 25 -4 25 -45z m700 20
c-19 -20 -33 -25 -74 -25 l-51 0 0 -83 c0 -81 0 -82 -26 -85 -26 -3 -26 -3
-27 75 0 43 -1 81 -1 86 -1 4 -32 7 -71 7 -38 0 -70 3 -70 7 0 3 7 15 17 25
14 16 34 18 171 18 l155 0 -23 -25z m420 0 c-23 -25 -26 -25 -178 -25 l-155 0
23 25 c23 25 26 25 178 25 l155 0 -23 -25z m422 0 c-28 -23 -37 -25 -138 -25
-119 0 -144 -10 -144 -60 0 -52 24 -61 169 -61 72 0 131 -3 131 -6 0 -4 -7
-15 -17 -25 -14 -16 -33 -18 -141 -18 l-124 0 -34 34 c-28 28 -34 42 -34 76 0
34 6 48 34 76 l34 34 147 0 147 0 -30 -25z m-3327 -70 c116 -14 251 -30 300
-36 174 -20 202 -25 175 -32 -34 -9 -617 -78 -711 -84 -75 -5 -75 -5 -102 27
-61 72 -7 167 88 155 22 -3 134 -16 250 -30z m2910 -15 c-17 -18 -31 -20 -173
-20 -154 0 -155 0 -137 20 17 18 31 20 173 20 154 0 155 0 137 -20z m5 -85
c-23 -25 -26 -25 -178 -25 l-155 0 23 25 c23 25 26 25 178 25 l155 0 -23 -25z
m-2660 -186 c-373 -140 -346 -132 -379 -114 -32 16 -41 33 -41 74 0 57 18 63
329 102 157 20 302 37 321 37 24 1 -52 -32 -230 -99z m-7 -269 c-295 -222
-323 -240 -361 -240 -71 0 -113 75 -78 140 11 20 88 57 377 182 200 86 368
157 373 158 5 0 -135 -108 -311 -240z m217 -120 c-192 -288 -206 -302 -262
-279 -33 14 -48 37 -48 74 0 21 18 44 78 100 142 133 406 375 409 375 2 0 -78
-122 -177 -270z m852 3 c107 -131 198 -248 202 -260 10 -31 -19 -81 -51 -89
-14 -4 -38 -3 -52 2 -28 10 -28 8 -160 284 -46 96 -100 206 -118 243 -19 38
-30 66 -25 63 5 -3 97 -113 204 -243z m-638 -188 c-30 -209 -59 -392 -65 -406
-27 -67 -138 -68 -168 -2 -6 13 -11 33 -11 43 0 20 290 754 295 748 2 -2 -21
-174 -51 -383z m480 15 c80 -200 146 -374 146 -386 0 -31 -44 -81 -77 -87 -37
-7 -85 14 -100 44 -7 13 -35 184 -63 379 -28 195 -53 371 -56 390 -4 19 -4 33
-1 30 3 -3 71 -169 151 -370z m-240 -65 c26 -218 25 -236 -25 -264 -35 -20
-75 -8 -94 29 -14 26 -12 53 20 312 19 156 38 299 42 318 7 37 4 52 57 -395z"/>
</g>
</svg>
