<?xml version="1.0" encoding="utf-8"?>
<!-- Generator: Adobe Illustrator 27.4.1, SVG Export Plug-In . SVG Version: 6.00 Build 0)  -->
<svg version="1.1" id="Layer_1" xmlns="http://www.w3.org/2000/svg" xmlns:xlink="http://www.w3.org/1999/xlink" x="0px" y="0px"
	 viewBox="0 0 142.05 82.22" style="enable-background:new 0 0 142.05 82.22;" xml:space="preserve">
<style type="text/css">
	.st0{fill:#FCEA10;}
	.st1{fill:none;}
	.st2{fill:#3AAA35;}
	.st3{fill:#00A9E8;}
	.st4{fill:#E71D73;}
	.st5{fill:#EA590C;}
	.st6{fill:#F39200;}
	.st7{fill:#E40538;}
	.st8{fill:#77CCEF;}
	.st9{fill:#6CB532;}
</style>
<g>
	<path class="st0" d="M30.9,8.11h-8.84c-1.65,0-3.14,0.79-3.14,3.02v21.68c0,2.24,1.81,2.79,3.3,2.79c1.57,0,3.38-0.55,3.38-2.79
		v-3.44c0-0.27,0.08-0.35,0.35-0.35h4.95c4.71,0,8.44-2.7,8.44-10.86C39.34,10.64,35.61,8.11,30.9,8.11z M31.39,20.47l-3.59,0.71
		c-1.08,0.21-2.13-0.49-2.34-1.57c-0.21-1.08,0.49-2.13,1.57-2.34l3.59-0.71c1.08-0.21,2.13,0.49,2.34,1.57S32.47,20.26,31.39,20.47
		z"/>
</g>
<g>
	<path class="st1" d="M66.22,52.17c-0.6,0-1.08,0.49-1.08,1.08v2.38c0,0.6,0.49,1.08,1.08,1.08c0.6,0,1.08-0.49,1.08-1.08v-2.38
		C67.31,52.65,66.82,52.17,66.22,52.17z"/>
	<path class="st1" d="M51.5,18.66l-3.3,0.43l0.88,6.76c0.12,0.91,0.95,1.55,1.86,1.43c0.91-0.12,1.55-0.95,1.43-1.86L51.5,18.66z"/>
	<path class="st1" d="M48.58,57.84l-3.91,0.47l0.4,3.3l3.91-0.47c0.91-0.11,1.56-0.94,1.45-1.85
		C50.32,58.38,49.49,57.73,48.58,57.84z"/>
	<path class="st1" d="M68.94,52.17c-0.6,0-1.08,0.49-1.08,1.08v2.38c0,0.6,0.49,1.08,1.08,1.08c0.6,0,1.08-0.49,1.08-1.08v-2.38
		C70.03,52.65,69.54,52.17,68.94,52.17z"/>
	<path class="st1" d="M46.93,48.51l1.39-0.99c0.75-0.53,0.92-1.57,0.39-2.32c-0.53-0.75-1.57-0.92-2.32-0.39L45,45.8
		c-0.75,0.53-0.92,1.57-0.39,2.32v0C45.14,48.87,46.18,49.04,46.93,48.51z"/>
	<path class="st2" d="M66.49,35.6c1.57,0,3.38-0.55,3.38-2.79v-3.05c0-1.8,2.13-2.84,3.48-1.66c0.01,0.01,0.02,0.01,0.02,0.02
		c1.37,1.22,4.04,5.87,4.04,5.87c0.75,1.18,1.61,1.61,2.47,1.61c1.57,0,3.57-1.49,3.57-3.18c0-0.55-0.16-1.14-0.59-1.81l-6.64-10.33
		c-0.08-0.12-0.2-0.31-0.2-0.43s0.08-0.24,0.2-0.35l5.03-6.32c0.55-0.71,0.79-1.37,0.79-1.96c0-1.73-2.04-3.26-3.57-3.26
		c-0.79,0-1.61,0.35-2.36,1.34c0,0-6.25,8.31-6.25,8.31v-3.98V8.05h-6.68v24.76C63.19,35.05,65,35.6,66.49,35.6z"/>
	<path class="st3" d="M91.78,35.6h7.16c1.76,0,2.29-1.22,2.29-2.51c0-1.35-0.53-2.57-2.29-2.57H96.4c-1,0-1.8-0.81-1.8-1.8v0
		c0-1,0.81-1.8,1.8-1.8h1.13c1.76,0,2.29-1.22,2.29-2.51c0-1.35-0.53-2.57-2.29-2.57h-1.44c-0.82,0-1.49-0.67-1.49-1.49
		s0.67-1.49,1.49-1.49h2.54v-5.08h-6.85c-1.32,0-5.38-0.11-5.38,5.28v11.32C86.4,35.66,90.46,35.6,91.78,35.6z"/>
	<path class="st4" d="M50.4,12.03c-2.44,0-4.91,0.58-6.62,2.71c-1.25,1.59-1.55,4.33-1.55,8.02s0.31,6.43,1.55,8.02
		c1.71,2.13,4.18,2.71,6.62,2.71c2.44,0,4.91-0.58,6.62-2.71c1.25-1.59,1.55-4.33,1.55-8.02s-0.31-6.43-1.55-8.02
		C55.31,12.61,52.84,12.03,50.4,12.03z M50.95,27.28c-0.91,0.12-1.74-0.52-1.86-1.43l-0.88-6.76l3.3-0.43l0.88,6.76
		C52.5,26.33,51.86,27.16,50.95,27.28z"/>
	<path class="st5" d="M107.73,35.6h7.42c3.14,0,6.09-0.67,8.25-3.34c1.65-2,2-5.58,2-10.33c0-4.75-0.35-8.33-2-10.33
		c-2.16-2.67-5.11-3.34-8.25-3.34h-7.42c-1.65,0-3.14,0.79-3.14,3.02v21.37C104.59,34.89,106.08,35.6,107.73,35.6z M110.13,16.72
		L110.13,16.72c0.73-0.82,1.99-0.88,2.81-0.15l2.15,1.93l1.75-2.3c0.66-0.87,1.91-1.04,2.79-0.38v0c0.87,0.66,1.04,1.91,0.38,2.79
		l-1.94,2.56l2.39,2.15c0.82,0.73,0.88,1.99,0.15,2.81s-1.99,0.88-2.81,0.15l-2.15-1.93l-1.75,2.3c-0.66,0.87-1.91,1.04-2.79,0.38h0
		c-0.87-0.66-1.04-1.91-0.38-2.79l1.94-2.56l-2.39-2.15C109.47,18.8,109.4,17.54,110.13,16.72z"/>
	<g>
		<path class="st3" d="M67.58,49.06c-4.76,0-8.63,3.86-8.63,8.63s3.86,8.63,8.63,8.63c4.76,0,8.63-3.86,8.63-8.63
			S72.35,49.06,67.58,49.06z M67.31,55.63c0,0.6-0.49,1.08-1.08,1.08c-0.6,0-1.08-0.49-1.08-1.08v-2.38c0-0.6,0.49-1.08,1.08-1.08
			c0.6,0,1.08,0.49,1.08,1.08V55.63z M70.03,55.63c0,0.6-0.49,1.08-1.08,1.08c-0.6,0-1.08-0.49-1.08-1.08v-2.38
			c0-0.6,0.49-1.08,1.08-1.08c0.6,0,1.08,0.49,1.08,1.08V55.63z"/>
	</g>
	<g>
		<polygon class="st3" points="62.73,48.74 59.79,47.42 60.79,50.52 		"/>
	</g>
	<g>
		<polygon class="st3" points="74.38,50.52 75.38,47.42 72.44,48.74 		"/>
	</g>
	<path class="st6" d="M91.81,39.36H76.57c-2.2,0-2.87,1.53-2.87,3.22c0,1.61,0.67,3.14,2.87,3.14h3.29c0.53,0,0.95,0.43,0.95,0.95
		v20.08h6.68V46.08c0-0.27,0.12-0.35,0.35-0.35h3.97c2.2,0,2.87-1.53,2.87-3.14C94.68,40.89,94.01,39.36,91.81,39.36z"/>
	<path class="st7" d="M105.15,53.88l-2.71-0.91c-1.16-0.4-1.83-0.88-1.83-1.46c0-0.76,0.98-1.28,2.44-1.28
		c0.98,0,2.26,0.4,3.29,0.98c0.03-0.08,2.77-3.84,2.71-4.02c-1.37-1.01-3.2-1.89-6.01-1.89c-4.73,0-7.81,2.68-7.81,6.22
		c0,3.51,2.16,5.21,5.64,6.37l2.71,0.91c1.22,0.43,1.92,0.76,1.92,1.46c0,0.98-1.01,1.55-2.47,1.55c-1.34,0-2.59-0.27-3.93-1.19
		c-0.55-0.4-1.1-0.76-1.68-0.76c-1.28,0-2.53,1.28-2.53,2.5c0,0.79,0.46,1.31,0.79,1.71c1.49,1.68,4.27,2.68,7.35,2.68
		c4.63,0,7.84-2.47,7.84-6.49C110.89,57.06,108.87,55.13,105.15,53.88z"/>
	<polygon class="st8" points="129.08,53.91 118.26,53.91 119.45,51.82 110.82,51.82 111.02,54.5 115.78,53.91 113.2,57.68 	"/>
	<polygon class="st8" points="26.06,53.91 15.25,53.91 31.12,57.68 28.54,53.91 33.3,54.5 33.5,51.82 24.87,51.82 	"/>
	<path class="st9" d="M53.82,52.65c0-0.16,0.12-0.24,0.24-0.35c0.47-0.43,1.92-1.77,1.92-4.71c0-5.5-4.12-8.17-8.72-8.17h-8.01
		c-1.65,0-3.14,0.79-3.14,3.02v21.37c0,2.24,1.49,2.95,3.14,2.95h9.03c4.6,0,8.52-2.95,8.52-8.01c0-3.06-1.65-4.63-2.87-5.85
		C53.86,52.81,53.82,52.73,53.82,52.65z M45,45.8l1.39-0.99c0.75-0.53,1.79-0.36,2.32,0.39c0.53,0.75,0.36,1.79-0.39,2.32
		l-1.39,0.99c-0.75,0.53-1.79,0.36-2.32-0.39v0C44.08,47.37,44.25,46.34,45,45.8z M48.97,61.14l-3.91,0.47l-0.4-3.3l3.91-0.47
		c0.91-0.11,1.74,0.54,1.85,1.45C50.54,60.2,49.89,61.03,48.97,61.14z"/>
</g>
</svg>
