<svg xmlns="http://www.w3.org/2000/svg" version="1.1" viewBox="0 0 1536 300"><path d="M196 35.6c-49.2 6.1-81.4 18.7-109.2 42.6-4.3 3.8-6.8 6.6-6.8 8 0 2.8 5.5 10 13.7 18 7.6 7.3 9.8 8.1 19.7 7.6l5.8-.3 3.8-10 3.8-10-4.8-.5c-4.5-.5-7-1.5-6-2.4 1.5-1.2 18-10 26.5-14C152 70 158 68 158 69.4c0 .3-9.6 22.3-21.3 48.9l-22 49.8c-.4 1.3-2.8 1.7-13.7 2.1-19.5.8-20 2.5-5.6 16.8 9 9 9.2 9.5 4 24.2-6 17-9 30.4-9.8 42-.5 9-.4 10.8.7 10.8 3.2 0 15.7-7.3 21.3-12.4 7.7-7 15.4-18.3 13.3-19.7-.8-.5-2-.9-2.7-.9-2.2 0-1.3-4.9 3.3-18.6 5.8-16.9 7.3-20.4 8.6-20.4a255 255 0 0 0 36.6-18.5 257 257 0 0 0 65-62.4c.3-.5 5.9 4.1 7 6 .8 1.1-1.3 5.6-8.7 19-9.7 17.1-9.9 17.5-15.7 20.7-6.5 3.8-9.3 6-9.3 7.6a16 16 0 0 0 3.7 4.8l3.6 3.7-2.8 6.3a191.6 191.6 0 0 0-10.5 28 99 99 0 0 0 7.8 20.6c.8 1.2 1.8 2.2 2.3 2.2a86 86 0 0 0 13.2-19.2c1.4-3 4.1-9.3 6-14.1 1.7-4.9 4-9.3 4.9-9.8 1.5-.8 15.3-.1 58.2 2.9l10 .7v8.5c.2 10.9 2.6 16.6 8.7 20.7 3.9 2.6 5 2.8 13.3 2.8a49 49 0 0 0 26.4-7.4c17-8.6 36.6-28.3 48-48.1 3.8-6.7 4-5.6.7 4.7-1.3 4.3-3.2 12.6-4 18.4-2.7 16.7.1 25.6 9.5 30.7 4 2.1 5.4 2.3 13 1.9 12.5-.8 24.7-6 38.8-16.7 8.6-6.4 21.4-19.6 26.2-26.8l2.9-4.3.3 2.8c.2 2 1 2.9 2.4 3.1 2 .3 15.5-2.7 19.8-4.4 1.6-.6 1.8-.4 1.3 1.7-.3 1.3-2 5.8-3.7 9.9a72 72 0 0 0-7 23.9c0 4.1.4 4.8 8 12.5l8 8.1 2-2.5c4.1-5.2 12-22 12-25.6a109 109 0 0 1 9.3-29.3c4.8-9.5 6.7-10.6 19-10.6 9.8 0 10.2 0 10.5 2.3.4 2.7.2 2.7 11.4-.3 15.4-4 15.3-4 15.6-6.2.4-2.8-8.2-10.2-17.4-15-6-3-8.7-3.7-14.9-4a67 67 0 0 1-7.5-.8c0-2 5.5-9.1 7.2-9.5 1.7-.4 3.4-2.9 6.4-9 2.3-4.7 5-9.3 6-10.2 2.7-2.3 13.2-3.8 28-3.8h12.2l4.2 3.5c4.5 3.7 6.2 4.2 7.7 2.3 1-1.2 5.8-16.7 7-22.5 1-4.2-2.4-4.8-25.5-4.8-20.9 0-21.3 0-21-2 .2-1.5-.3-2-2.5-2.3a81 81 0 0 0-26.7 6.3 23.6 23.6 0 0 1-11.5 3c-9.5.7-31.5 5-34.4 6.5-1.2.6-2.1 1.7-2.1 2.4 0 1.6 14 15 18.5 17.8 4 2.4 6 2.3 8-.7 1.4-2.2 4.5-3.5 4.5-1.9 0 1.3-13.3 26-15.4 28.6-1.7 2.3-4.5 3.4-14.6 6.2a93.8 93.8 0 0 1-13 3c-.1-.2.4-2 1.4-4.1 5.7-13 10-39.4 7.8-47a21 21 0 0 0-5-7.7 147 147 0 0 0-23.9-17c-7-3.6-16.6-1-27 7.2a152.4 152.4 0 0 0-23 26.7 276 276 0 0 0-17.8 31.3c-.3-.3.3-3.8 1.4-7.8a114 114 0 0 0 3.7-31.5c-1-5-6.7-11-17.4-18.3-11.5-7.8-14.3-9.2-19.1-9.2-18.4 0-45 31.1-63.7 74.5l-5.2 12-21.2-.4c-29.2-.5-29-.4-15.5-7.6 50.3-26.7 55.2-30.8 57.7-47.4.5-3.6.6-9.4.3-12.9-.6-6-.8-6.3-4.8-8.4-3.8-2-5.6-2.2-17.7-2.2a208 208 0 0 0-52 8c-7.3 1.8-13.5 3.2-13.7 3-.3-.2.7-2.6 2-5.3a60 60 0 0 0 7.2-27.8c0-10.6-2-15.5-8.2-19.7-6.7-4.6-13.3-6-31.3-6.3-9-.2-18-.1-20 .1m865 0c-49 6-82 18.9-108.5 42-5.4 4.7-7.5 7.2-7.5 9 0 2.6 6.8 11.2 15.2 19 6 5.8 8.8 6.7 18.1 6.2l5.9-.3 3.4-9c1.8-5 3.4-9.5 3.4-10.2 0-.7-1.9-1.3-4.7-1.5-2.5-.2-4.8-.8-5-1.3-.4-1.2 20.3-12.6 31.4-17.4 6.4-2.8 10.3-3.8 10.3-2.7l-10.6 24.2a64162.4 64162.4 0 0 0-23.4 53l-10.3 23.1-13 .5c-15.3.7-17 1.5-14.1 7 1 1.8 5 6.5 9 10.5 6 5.8 7.4 7.8 7.4 10.2 0 1.6-1.8 8.2-4 14.6-7.2 20.2-9.8 33-10 48.8 0 3.6 1.2 3.5 10-1a67 67 0 0 0 22.8-20.5c3.7-5.4 4-7.8 1-8.5-1.7-.5-2-1.1-1.5-4.7a157 157 0 0 1 5.7-19l5.3-14.7 4-1.7a231 231 0 0 0 102.6-85.7c14.7-22.5 20.5-45 14.6-56.4-5.1-10-14-13.2-37.5-13.6-9-.2-18-.1-20 .1m-284 7c-2.4.9-7.2 3.5-10.5 5.7a223.4 223.4 0 0 0-30.2 29.2c-3.6 4.3-4.3 4.8-5.7 3.6-.9-.8-2.3-3.7-3.1-6.6-2.1-7-3.8-9.3-6.2-8-9.8 6-45.2 73.8-56.1 107.5-6.8 21-8.7 41.7-4.5 49.7 5.1 9.5 9.8 10.9 33.8 9.6 17.2-1 18.3-1 24-4 25.7-13.3 56.5-48.4 75.3-86a182.8 182.8 0 0 0 13.7-35l1.7-7.3 8.2 7.7c12.5 11.7 16 13.4 19 8.8 1.4-2 4.6-3.5 4.6-2.1a362 362 0 0 1-14.2 26.9c-2 3-4 5-5.7 5.3-8 2-26.5 7.6-29 8.9-3.2 1.6-3.7 2.8-4.5 11.5-.3 3-.8 7-1.2 8.7-.5 2.6-.3 3.4 1.1 4a97 97 0 0 0 21.3-4.4c2-.8 1.4 2-2 9.3A84.5 84.5 0 0 0 799 212c0 4.1.4 4.8 8 12.5l8 8.1 2-2.5c4.3-5.6 12-22 12-25.7 0-5.1 6.6-25.3 10.4-31.6 4.4-7.3 7.7-8.8 19.1-8.5 8.5.3 9 .4 9.3 2.6.2 1.2.7 2.2 1.2 2.2.7 0 14.5-3.6 22.5-5.8 5.1-1.4 4.4-4.3-2.4-10a47.1 47.1 0 0 0-26.8-12 28 28 0 0 1-7.3-1l2.6-4.7c1.5-2.7 3.4-4.5 4.7-4.7 1.6-.2 3.2-2.4 6.3-8.8 2.3-4.7 5-9.3 6-10.2 2.7-2.3 13.2-3.8 28-3.8h12.2l4.2 3.5c6.2 5.2 8 4.6 10-3.5.5-2.5 2-7.6 3.3-11.3 2.1-6.7 2.1-6.9.3-8.2-3-2.2-11.9-2.8-29.4-2.2l-16.3.6.3-2.2c.2-1.8-.3-2.3-2.5-2.5a80.1 80.1 0 0 0-26 6 15.6 15.6 0 0 1-6 2.3 303 303 0 0 0-29.6 4.6c-5.1 1-10.2 2.4-11.3 3-2 1-2 1-1.3-7.6a31 31 0 0 0-1.5-15.5 125 125 0 0 0-17-31.3c-3.7-2.6-9.6-3-15-1m-576.8 15c-4 .3-5.5.9-6.5 2.6a474 474 0 0 0-32.2 62.7c-12.1 27.3-13.6 31-12 31 1.6 0 10-5.7 19-12.9 26-21 51.2-48.9 57.5-63.5 2.8-6.6 2.7-13-.4-16-4-4.2-9.4-5-25.4-3.9m865 0c-4 .3-5.5 1-6.6 2.6a449 449 0 0 0-30.7 59.2l-5 11c-4.1 8.9-9.6 23-8.9 23.3 2.4.9 15.3-8.8 33.3-24.8 18.7-16.8 36.3-37 42.2-48.7 3.1-6.1 4.3-14 2.6-17.1-2.5-4.7-12.2-6.7-26.9-5.5m299 6.5a189.6 189.6 0 0 1-8.4 18.1c-4.8 9.8-6.5 12.1-8.9 13-3 1.2-3.6 2.6-1.8 4.4 1.2 1.2-.6 4.8-20.8 39.5a294.4 294.4 0 0 1-12 19.8c-1 0 .7-8.5 4.3-22.8 5.9-23.2 7.4-43.2 3.4-43.2-.6 0-1-.6-1-1.4 0-1.8-2.2-2.6-9.5-3.2a105 105 0 0 1-9.5-1.3c-2-.4-4-.6-4.7-.4-1.8.6-9.9 12.1-17.7 25.2-7.7 13-26.2 49.7-35.6 71-6.2 13.7-6.5 14.2-9 13.6l-8.8-2c-3.5-.8-6.6-1.6-6.8-1.8-1-1 41.7-84.8 45-88.4 1.9-2.1 7.5-6.5 12.5-9.7a58 58 0 0 0 9.1-6.7c0-.3-3-1.8-6.8-3.2l-13-5.2c-7.2-3-7.6-3-29.7 1.6-17.1 3.6-16.7 3.5-19.3 6-2 1.8-2.2 3-2.2 12.8v10.9l4.8.4c2.6.3 5.7 0 7-.4 1.3-.4 2.2-.4 2.2.2 0 .5-3.2 7-7.1 14.2-15.3 28.6-27.2 54.5-29.4 64.3l-1.2 5-5.3.8a47 47 0 0 0-10.7 3.2l-5.3 2.4v-2.7c0-3.6 2.3-19 5-33.4 3.9-21.6 8.2-38.7 15-59.7 5.1-16 5.7-23.3 2.1-27.5-1.8-2-19-11-23.4-12-3.6-.8-8.4 1.7-17.9 9.3-15.1 12.1-40.6 44.7-59.6 76.3-2.5 4-3 4.4-9.6 5.3-2.5.4-4.9 1.2-5.2 1.7a58 58 0 0 0-.5 11c.2 8.6.5 10.4 2 11.5 1.2.8 2.1 3 2.5 6 .4 2.7 1.4 7.6 2.3 11 1.3 5.2 2 6.3 3.7 6.3 1.6 0 19-12 22.4-15.5.3-.3-.2-1.3-1.2-2.4-1.6-1.8-1.6-2.1.5-6.4 1.3-2.6 3.1-4.8 4.3-5.1 1.2-.3 7.6-.9 14.3-1.2 11.7-.7 12.4-.6 15.6 1.6l3.3 2.2V192c0 11.2.6 17 2.3 24.6 2.3 10.6 3.3 12.6 5.5 11l7.6-5.8c3.4-2.6 6.8-4.7 7.5-4.7.7 0 2 1.9 2.7 4.2 2 5.7 4 6.8 7.5 4 5.1-4 10-6 18.6-7.9 7.4-1.5 8.9-1.5 11.1-.3 2.3 1.2 2.8 1.2 4-.5 1-1.4 2-1.7 4.6-1.2 3 .6 3.9.1 10.8-6 7-6.4 7.5-6.6 6.9-3.8a39.4 39.4 0 0 0-.3 19.9c1.1 5 2.2 7.6 3 7.6 1.4 0 12.6-11 17.9-17.5 1.3-1.7 4.7-7.5 7.5-13 4.3-8.3 4.9-10.1 3.6-10.8-1.2-.7-.5-2.8 4.4-12 13.3-25 18.7-34.8 19-34 .1.5-.4 4-1.3 7.9a265.5 265.5 0 0 0-7.9 47.5c-.1 12.5.9 14 9.8 13.9 9.9 0 23.7-2.8 26.4-5.3 3.5-3.2 11.1-15.9 34.4-57.2a1839 1839 0 0 1 21.6-37.7c1-1 25.1-5.2 25.8-4.5.4.4-.6 2.6-2.1 5a512.6 512.6 0 0 0-37.4 81.3c-4.3 12.5-5 17.4-2.8 17.4.7 0 5 1.8 9.6 4 4.5 2.2 8.8 4 9.5 4 1.7 0 2.6-2.2 10-23a414 414 0 0 1 36.2-76.7 90 90 0 0 0 7.4-13.7c0-2.4 1.4-2.8 15.2-4.3 11.6-1.2 13.3-1.2 15.4.2 3.5 2.2 5.2 1.9 7.3-1.6 1.9-3 5.1-17.7 5.1-23.1 0-2.3-.5-2.8-3.8-3.4-4.6-.9-31.5 1.8-57.1 5.7-21.7 3.2-22.5 3.3-21.6 1.9 1.4-2.3-1.2-5.5-10.6-13a96 96 0 0 0-10.8-8c-.5 0-1.3.6-1.9 1.3M771.1 76.7c-13 10.4-29.2 31-39.5 50.3-5.2 9.6-5.6 11.7-2.4 12.2 1.7.2 3.4 2.4 6.6 8.3 2.4 4.4 4.6 9.4 4.9 11l.5 3.2-16.1.6c-18.5.8-21.8 0-24.7-5.5l-1.7-3.3-2 4.5c-6.5 15.3-11 31.7-12.2 44.5-.6 6.3-.5 7.2 1.4 8.9 1.6 1.4 3 1.7 5.8 1.3 5.8-1 18.8-7.9 28.4-15.1 29.7-22.5 52.5-53.2 61.5-83.1a64.7 64.7 0 0 0 2.8-23.5c0-12.1-.2-15-1.7-17.8-1-1.7-2-3.2-2.5-3.2-.4 0-4.5 3-9.1 6.7m382.8 31a292.7 292.7 0 0 0-26 33l-6 8.8 8.3.5c4.6.3 10 1.3 12.2 2.3 2.2 1 4.3 1.4 4.8 1 .4-.5 2.8-9 5.3-18.8 2.5-10 5.5-21.3 6.6-25.3a30 30 0 0 0 1.6-7.8 36 36 0 0 0-6.8 6.4m-770.7-3.9c-2.6 2.2-2.9 4.6-.7 5.5 1.8.6 3.5 4.5 2.8 6.3-.3.6-3.6 2-7.5 2.8-4 .9-8 2-9 2.6-2.3 1.2-5 6.3-4.3 8.2.4.8-.4 1.8-1.9 2.5-3.5 1.6-8 8.5-17.7 27.7C336 177 333 185.1 333 191.3c0 6.4 3.7 6.2 11.6-.5a185.1 185.1 0 0 0 44-63.2c3.1-7.6 3.3-8.8 2.4-13.4-1-6-3.5-12.2-4.7-12.2-.4 0-1.8 1-3 2m91.9.3c-2.3 2.4-2.9 4.7-1.2 4.7 1.6 0 4 4.6 3.4 6.3-.4 1-3.3 2.2-8 3.2-6 1.4-7.9 2.3-10.3 5-1.7 2-2.8 4.1-2.5 5.2.3 1.2-.5 2.3-2.5 3.5-3.5 2-11.7 15.4-20.1 33.1-14.6 30.6-11.3 39.6 7.6 21a187 187 0 0 0 39.3-59.4c2.9-7.2 3-8 2-13.5-1.1-6-3.4-11.4-4.8-11.4-.4 0-1.7 1-3 2.3m-190.6 8.2a71 71 0 0 0-9.6 2c-2.1.8-13.3 17.9-12 18.3 1.4.5 13.9-6.3 34.3-18.7 1.6-.9 2.8-2 2.8-2.3 0-1-6-.8-15.5.7" fill="#000" fill-rule="evenodd"/></svg>