<svg xmlns="http://www.w3.org/2000/svg" width="1536" height="300" viewBox="0 0 1536 300" version="1.1">
	<path d="M 196 35.622 C 146.848 41.707, 114.647 54.274, 86.807 78.235 C 82.478 81.961, 80 84.847, 80 86.163 C 80 89.019, 85.500 96.235, 93.727 104.171 C 101.308 111.485, 103.491 112.334, 113.354 111.811 L 119.208 111.500 123.011 101.500 L 126.815 91.500 121.969 90.978 C 117.495 90.496, 115.070 89.529, 116.083 88.630 C 117.520 87.356, 134.096 78.526, 142.482 74.568 C 152.103 70.028, 158 68.057, 158 69.384 C 158 69.732, 148.401 91.726, 136.668 118.259 C 124.936 144.791, 115.076 167.221, 114.756 168.103 C 114.278 169.424, 111.857 169.800, 100.986 170.240 C 81.529 171.030, 80.957 172.742, 95.387 187 C 104.493 195.998, 104.574 196.487, 99.393 211.233 C 93.437 228.184, 90.314 241.578, 89.597 253.250 C 89.053 262.102, 89.184 264, 90.334 264 C 93.471 264, 105.969 256.720, 111.637 251.591 C 119.298 244.658, 127.007 233.250, 124.922 231.931 C 124.140 231.436, 122.938 231.024, 122.250 231.015 C 120.037 230.988, 120.899 226.117, 125.539 212.439 C 131.283 195.506, 132.757 192, 134.136 192 C 136.495 192, 162.385 178.875, 170.725 173.452 C 194.415 158.046, 219.579 133.889, 235.642 111.133 C 236.015 110.604, 241.570 115.218, 242.754 117.040 C 243.519 118.217, 241.447 122.700, 233.974 136.040 C 224.347 153.224, 224.100 153.553, 218.346 156.827 C 211.789 160.558, 209 162.807, 209 164.363 C 209 164.942, 210.646 167.101, 212.657 169.161 L 216.315 172.907 213.487 179.203 C 208.718 189.821, 203 205.033, 203 207.103 C 203 209.430, 208.683 224.528, 210.771 227.750 C 211.574 228.987, 212.617 230, 213.089 230 C 214.321 230, 223.209 217.099, 226.303 210.820 C 227.745 207.894, 230.404 201.527, 232.212 196.670 C 234.021 191.814, 236.264 187.423, 237.198 186.913 C 238.729 186.077, 252.517 186.760, 295.420 189.798 L 305.340 190.500 305.442 199 C 305.572 209.882, 307.979 215.636, 314.092 219.677 C 317.993 222.256, 319.145 222.499, 327.431 222.487 C 337.081 222.474, 341.843 221.141, 353.753 215.121 C 370.750 206.529, 390.439 186.811, 401.801 167 C 405.620 160.341, 405.789 161.448, 402.519 171.712 C 401.154 175.995, 399.305 184.253, 398.409 190.062 C 395.829 206.793, 398.621 215.732, 408 220.767 C 412.045 222.938, 413.359 223.130, 421 222.665 C 433.462 221.907, 445.688 216.664, 459.813 206.020 C 468.373 199.570, 481.206 186.424, 485.983 179.212 L 488.855 174.876 489.178 177.688 C 489.405 179.667, 490.132 180.590, 491.633 180.804 C 493.623 181.088, 507.143 178.087, 511.398 176.417 C 513.014 175.783, 513.214 176.031, 512.743 178.086 C 512.439 179.414, 510.760 183.875, 509.012 188 C 504.351 198.998, 502.027 206.927, 502.013 211.883 C 502.001 216.026, 502.438 216.710, 510.012 224.383 L 518.024 232.500 519.990 230 C 524.111 224.760, 532 207.916, 532 204.358 C 532 199.605, 537.241 183.033, 541.258 175.086 C 546.075 165.557, 547.978 164.500, 560.320 164.500 C 570.116 164.500, 570.512 164.585, 570.820 166.750 C 571.214 169.527, 570.975 169.532, 582.237 166.537 C 597.604 162.451, 597.480 162.500, 597.803 160.307 C 598.223 157.459, 589.595 150.083, 580.363 145.398 C 574.449 142.396, 571.677 141.615, 565.544 141.221 C 561.395 140.955, 558 140.617, 558 140.471 C 558 138.583, 563.472 131.374, 565.220 130.958 C 566.885 130.562, 568.614 128.137, 571.633 121.958 C 573.907 117.306, 576.630 112.723, 577.686 111.774 C 580.259 109.459, 590.801 108.044, 605.655 108.020 L 617.811 108 622 111.500 C 626.482 115.244, 628.173 115.736, 629.743 113.750 C 630.616 112.646, 635.452 97.120, 636.724 91.339 C 637.652 87.119, 634.337 86.496, 611.221 86.548 C 590.339 86.595, 589.948 86.558, 590.221 84.548 C 590.437 82.961, 589.865 82.427, 587.682 82.177 C 583.125 81.655, 564.829 85.982, 561 88.488 C 558.443 90.162, 555.345 90.958, 549.500 91.446 C 539.976 92.239, 517.983 96.404, 515.064 97.966 C 513.929 98.573, 513 99.685, 513 100.436 C 513 101.994, 526.969 115.370, 531.500 118.151 C 535.543 120.632, 537.459 120.475, 539.408 117.500 C 540.860 115.284, 544 113.993, 544 115.613 C 544 116.894, 530.724 141.628, 528.636 144.238 C 526.855 146.462, 524.107 147.616, 513.972 150.394 C 507.113 152.274, 501.317 153.634, 501.094 153.416 C 500.870 153.199, 501.436 151.328, 502.351 149.260 C 508.086 136.295, 512.483 109.885, 510.182 102.221 C 509.568 100.174, 507.363 96.749, 505.282 94.609 C 501.556 90.775, 487.546 80.868, 481.300 77.649 C 474.294 74.039, 464.681 76.591, 454.341 84.804 C 448.642 89.332, 437.524 102.210, 431.295 111.500 C 426.324 118.913, 414 140.848, 414 142.281 C 414 142.860, 413.757 143.091, 413.461 142.794 C 413.165 142.498, 413.826 138.995, 414.930 135.010 C 417.450 125.917, 419.476 108.351, 418.565 103.496 C 417.639 98.561, 411.884 92.504, 401.178 85.197 C 389.703 77.365, 386.867 76, 382.070 76 C 363.663 76, 337.032 107.149, 318.375 150.500 L 313.211 162.500 291.966 162.126 C 262.794 161.613, 262.992 161.711, 276.513 154.519 C 326.795 127.774, 331.731 123.714, 334.157 107.101 C 334.687 103.470, 334.832 97.678, 334.479 94.229 C 333.852 88.113, 333.732 87.902, 329.668 85.753 C 325.935 83.780, 324.093 83.559, 312 83.642 C 296.695 83.747, 281.278 86.092, 260.078 91.541 C 252.696 93.438, 246.479 94.812, 246.261 94.594 C 246.044 94.377, 246.958 92.017, 248.294 89.349 C 253.268 79.416, 255.427 71.032, 255.464 61.500 C 255.506 50.868, 253.485 45.968, 247.326 41.769 C 240.554 37.154, 234.029 35.849, 216 35.504 C 206.925 35.331, 197.925 35.384, 196 35.622 M 1061 35.622 C 1012.064 41.680, 979.023 54.465, 952.487 77.608 C 947.099 82.308, 945 84.805, 945 86.517 C 945 89.201, 951.806 97.770, 960.221 105.679 C 966.280 111.375, 969.032 112.307, 978.326 111.811 L 984.151 111.500 987.555 102.500 C 989.428 97.550, 990.969 92.962, 990.980 92.305 C 990.992 91.588, 989.130 90.988, 986.328 90.805 C 983.759 90.637, 981.503 90.034, 981.316 89.464 C 980.937 88.308, 1001.578 76.869, 1012.668 72.089 C 1019.063 69.333, 1023 68.297, 1023 69.372 C 1023 69.576, 1018.250 80.489, 1012.444 93.622 C 1006.638 106.755, 1001.293 118.850, 1000.566 120.500 C 999.840 122.150, 994.632 133.900, 988.994 146.612 L 978.743 169.723 965.769 170.249 C 950.402 170.872, 948.752 171.671, 951.552 177.126 C 952.504 178.982, 956.595 183.746, 960.642 187.714 C 966.516 193.472, 968 195.526, 968 197.898 C 968 199.532, 966.167 206.087, 963.928 212.466 C 956.832 232.671, 954.226 245.520, 954.034 261.250 C 953.989 264.867, 955.216 264.758, 963.992 260.367 C 971.813 256.455, 981.324 247.892, 986.816 239.820 C 990.531 234.359, 990.823 232.028, 987.886 231.260 C 986.054 230.781, 985.840 230.161, 986.278 226.604 C 986.555 224.347, 989.140 215.835, 992.022 207.690 L 997.260 192.880 1001.380 191.238 C 1040.598 175.607, 1079.276 143.276, 1103.920 105.524 C 1118.620 83.006, 1124.444 60.494, 1118.528 49.054 C 1113.399 39.137, 1104.511 35.925, 1081 35.492 C 1071.925 35.325, 1062.925 35.384, 1061 35.622 M 777.031 42.609 C 774.572 43.497, 769.847 46.052, 766.531 48.286 C 760.266 52.507, 743.357 68.830, 736.299 77.471 C 732.739 81.829, 732.037 82.276, 730.609 81.090 C 729.713 80.347, 728.298 77.393, 727.464 74.525 C 725.399 67.421, 723.656 65.175, 721.309 66.591 C 711.493 72.512, 676.074 140.272, 665.164 174 C 658.379 194.976, 656.529 215.727, 660.738 223.655 C 665.814 233.217, 670.524 234.562, 694.500 233.298 C 711.747 232.389, 712.751 232.220, 718.500 229.265 C 744.232 216.039, 775.038 180.898, 793.787 143.385 C 800.062 130.829, 805.246 117.520, 807.474 108.248 L 809.216 100.996 817.358 108.661 C 829.857 120.427, 833.410 122.076, 836.408 117.500 C 837.754 115.445, 841 113.953, 841 115.388 C 841 116.293, 829.593 137.900, 826.814 142.258 C 824.866 145.315, 822.836 147.240, 821.140 147.642 C 813.045 149.558, 794.557 155.178, 792.003 156.499 C 788.852 158.128, 788.420 159.262, 787.625 168 C 787.349 171.025, 786.816 174.956, 786.440 176.735 C 785.897 179.303, 786.120 180.109, 787.522 180.647 C 788.971 181.203, 804.124 178.113, 808.750 176.318 C 810.765 175.536, 810.212 178.259, 806.860 185.612 C 802.446 195.297, 799.033 206.726, 799.015 211.883 C 799.001 216.027, 799.436 216.708, 807.012 224.383 L 815.024 232.500 816.959 230 C 821.257 224.447, 829 207.906, 829 204.278 C 829 199.169, 835.620 179.050, 839.377 172.744 C 843.759 165.386, 847.110 163.894, 858.500 164.233 C 866.978 164.484, 867.519 164.631, 867.820 166.750 C 867.995 167.988, 868.509 169, 868.960 169 C 869.691 169, 883.530 165.443, 891.500 163.207 C 896.642 161.764, 895.943 158.858, 889.081 153.147 C 880.274 145.818, 871.199 141.777, 862.260 141.203 C 858.267 140.947, 855 140.539, 855 140.297 C 855 140.054, 856.151 137.891, 857.559 135.490 C 859.130 132.808, 860.960 131.003, 862.300 130.812 C 863.935 130.578, 865.524 128.364, 868.625 122 C 870.903 117.325, 873.630 112.723, 874.686 111.774 C 877.259 109.459, 887.801 108.044, 902.655 108.020 L 914.811 108 919 111.500 C 925.223 116.699, 926.910 116.104, 928.921 108 C 929.536 105.525, 931.042 100.427, 932.269 96.671 C 934.435 90.040, 934.446 89.803, 932.638 88.479 C 929.682 86.315, 920.749 85.660, 903.193 86.319 L 886.886 86.932 887.193 84.716 C 887.440 82.934, 886.944 82.436, 884.659 82.175 C 880.225 81.667, 861.816 85.890, 858.693 88.130 C 857.149 89.238, 854.449 90.323, 852.693 90.541 C 836.394 92.567, 831.256 93.355, 823.128 95.076 C 817.973 96.168, 812.853 97.543, 811.751 98.133 C 809.793 99.181, 809.763 99.006, 810.470 90.515 C 811.093 83.035, 810.890 80.878, 809.010 75.032 C 806.166 66.186, 795.228 46.170, 791.913 43.745 C 788.344 41.135, 782.372 40.679, 777.031 42.609 M 200.239 57.738 C 196.119 58.026, 194.691 58.582, 193.659 60.303 C 180.443 82.343, 173.676 95.526, 161.479 123 C 149.369 150.278, 147.924 154, 149.445 154 C 151.143 154, 159.542 148.297, 168.434 141.107 C 194.496 120.031, 219.693 92.213, 225.957 77.600 C 228.803 70.962, 228.672 64.581, 225.628 61.537 C 221.508 57.417, 216.199 56.622, 200.239 57.738 M 1065.239 57.676 C 1061.169 58.008, 1059.674 58.603, 1058.639 60.303 C 1045.893 81.234, 1037.570 97.244, 1027.865 119.500 C 1025.706 124.450, 1023.512 129.400, 1022.988 130.500 C 1018.760 139.381, 1013.302 153.560, 1014.012 153.815 C 1016.378 154.664, 1029.305 145.015, 1047.263 128.995 C 1066.048 112.239, 1083.646 91.983, 1089.539 80.335 C 1092.646 74.195, 1093.804 66.372, 1092.084 63.156 C 1089.570 58.460, 1079.873 56.480, 1065.239 57.676 M 1364.245 64.250 C 1363.695 64.938, 1362.905 66.625, 1362.489 68 C 1362.074 69.375, 1359.065 75.837, 1355.804 82.361 C 1350.952 92.065, 1349.340 94.423, 1346.937 95.330 C 1343.840 96.499, 1343.270 97.870, 1345.113 99.713 C 1346.330 100.930, 1344.461 104.482, 1324.302 139.250 C 1318.004 150.113, 1312.608 159, 1312.312 159 C 1311.391 159, 1312.985 150.524, 1316.596 136.227 C 1322.472 112.959, 1324.028 93, 1319.965 93 C 1319.434 93, 1319 92.373, 1319 91.607 C 1319 89.756, 1316.777 88.998, 1309.529 88.376 C 1306.213 88.091, 1301.925 87.514, 1300 87.094 C 1298.075 86.673, 1295.949 86.514, 1295.276 86.739 C 1293.489 87.338, 1285.418 98.833, 1277.625 111.880 C 1269.876 124.853, 1251.393 161.610, 1241.959 182.807 C 1235.831 196.576, 1235.495 197.090, 1233.046 196.464 C 1231.646 196.106, 1227.643 195.211, 1224.150 194.474 C 1220.658 193.737, 1217.602 192.935, 1217.359 192.692 C 1216.399 191.733, 1259.070 107.929, 1262.387 104.257 C 1264.276 102.166, 1269.911 97.802, 1274.910 94.558 C 1279.910 91.314, 1284 88.339, 1284 87.946 C 1284 87.553, 1280.963 86.077, 1277.250 84.666 C 1273.537 83.255, 1267.670 80.928, 1264.211 79.495 C 1256.989 76.503, 1256.585 76.525, 1234.500 81.136 C 1217.365 84.713, 1217.842 84.567, 1215.176 87.050 C 1213.199 88.892, 1213 90.072, 1213 99.938 L 1213 110.799 1217.750 111.225 C 1220.362 111.459, 1223.513 111.290, 1224.750 110.850 C 1226.078 110.378, 1227 110.443, 1227 111.010 C 1227 111.539, 1223.801 117.940, 1219.890 125.236 C 1204.562 153.835, 1192.723 179.712, 1190.490 189.497 L 1189.350 194.494 1183.968 195.269 C 1181.007 195.695, 1176.204 197.134, 1173.293 198.466 L 1168 200.889 1168.032 198.195 C 1168.074 194.600, 1170.344 179.217, 1172.962 164.790 C 1176.878 143.206, 1181.187 126.052, 1187.969 105.051 C 1193.126 89.083, 1193.695 81.788, 1190.109 77.638 C 1188.306 75.551, 1171.006 66.656, 1166.748 65.627 C 1163.148 64.756, 1158.266 67.272, 1148.829 74.865 C 1133.692 87.042, 1108.217 119.614, 1089.165 151.151 C 1086.691 155.247, 1086.141 155.556, 1079.616 156.535 C 1077.063 156.918, 1074.701 157.674, 1074.366 158.217 C 1074.031 158.759, 1073.835 163.743, 1073.931 169.294 C 1074.078 177.817, 1074.389 179.584, 1075.935 180.667 C 1077.059 181.454, 1078.015 183.792, 1078.412 186.724 C 1078.768 189.351, 1079.787 194.313, 1080.678 197.750 C 1082.018 202.923, 1082.659 203.999, 1084.398 203.996 C 1085.974 203.993, 1103.325 192.008, 1106.833 188.501 C 1107.101 188.232, 1106.553 187.164, 1105.615 186.127 C 1104.002 184.344, 1104.029 183.994, 1106.118 179.695 C 1107.385 177.085, 1109.216 174.910, 1110.413 174.589 C 1111.561 174.281, 1117.998 173.730, 1124.718 173.364 C 1136.354 172.730, 1137.095 172.807, 1140.256 174.973 L 1143.576 177.248 1143.620 191.874 C 1143.653 203.099, 1144.173 208.819, 1145.855 216.473 C 1148.183 227.067, 1149.198 229.091, 1151.373 227.478 C 1152.098 226.940, 1155.510 224.363, 1158.955 221.750 C 1162.401 219.138, 1165.808 217, 1166.527 217 C 1167.245 217, 1168.460 218.880, 1169.226 221.179 C 1171.150 226.949, 1173.175 228.044, 1176.714 225.226 C 1181.809 221.170, 1186.624 219.126, 1195.277 217.345 C 1202.694 215.818, 1204.197 215.767, 1206.436 216.966 C 1208.741 218.200, 1209.169 218.151, 1210.362 216.520 C 1211.396 215.106, 1212.447 214.839, 1214.985 215.347 C 1217.998 215.950, 1218.891 215.447, 1225.796 209.268 C 1232.878 202.929, 1233.284 202.708, 1232.668 205.516 C 1230.879 213.662, 1230.828 218.131, 1232.442 225.386 C 1233.536 230.302, 1234.618 233, 1235.495 233 C 1236.781 233, 1247.972 221.976, 1253.259 215.500 C 1254.606 213.850, 1258.004 208.006, 1260.809 202.514 C 1265.061 194.190, 1265.660 192.389, 1264.410 191.690 C 1263.168 190.994, 1263.923 188.939, 1268.825 179.675 C 1282.083 154.619, 1287.483 144.949, 1287.757 145.771 C 1287.916 146.247, 1287.357 149.756, 1286.516 153.568 C 1280.928 178.903, 1278.716 192.217, 1278.612 201.137 C 1278.468 213.554, 1279.490 215.001, 1288.405 214.997 C 1298.252 214.992, 1312.133 212.199, 1314.839 209.679 C 1318.279 206.474, 1325.902 193.800, 1349.229 152.500 C 1360.724 132.150, 1370.437 115.200, 1370.814 114.832 C 1371.891 113.785, 1395.908 109.575, 1396.639 110.306 C 1396.999 110.665, 1396.023 112.878, 1394.472 115.222 C 1385.234 129.181, 1365.064 173.078, 1357.094 196.567 C 1352.844 209.093, 1352.059 214, 1354.303 214 C 1355.019 214, 1359.328 215.800, 1363.877 218 C 1368.427 220.200, 1372.718 222, 1373.414 222 C 1375.068 222, 1376.025 219.815, 1383.487 199 C 1393.655 170.640, 1405.080 146.412, 1419.641 122.330 C 1423.689 115.637, 1427 109.476, 1427 108.639 C 1427 106.239, 1428.398 105.843, 1442.206 104.329 C 1453.825 103.056, 1455.456 103.069, 1457.568 104.452 C 1461.057 106.739, 1462.810 106.361, 1464.935 102.866 C 1466.796 99.806, 1470.006 85.190, 1470.002 79.795 C 1470 77.463, 1469.484 76.993, 1466.250 76.383 C 1461.580 75.501, 1434.704 78.169, 1409.093 82.055 C 1387.435 85.342, 1386.626 85.414, 1387.506 83.991 C 1388.930 81.686, 1386.294 78.453, 1376.862 70.938 C 1371.381 66.572, 1366.525 63, 1366.071 63 C 1365.617 63, 1364.795 63.563, 1364.245 64.250 M 771.069 76.685 C 758.091 87.069, 741.927 107.665, 731.581 127 C 726.420 136.647, 726.022 138.722, 729.247 139.180 C 730.900 139.415, 732.640 141.619, 735.820 147.500 C 738.198 151.900, 740.384 156.890, 740.677 158.589 L 741.210 161.679 725.083 162.343 C 706.557 163.107, 703.279 162.375, 700.412 156.830 L 698.691 153.502 696.762 158.001 C 690.190 173.325, 685.666 189.681, 684.453 202.500 C 683.858 208.795, 684.001 209.691, 685.873 211.385 C 687.465 212.826, 688.842 213.127, 691.727 212.665 C 697.497 211.740, 710.539 204.810, 720.098 197.589 C 749.812 175.144, 772.559 144.403, 781.582 114.500 C 783.965 106.605, 784.310 103.720, 784.399 91 C 784.484 78.868, 784.210 75.969, 782.724 73.250 C 781.748 71.463, 780.606 70, 780.186 70 C 779.767 70, 775.664 73.008, 771.069 76.685 M 1153.873 107.751 C 1146.172 115.915, 1136.200 128.568, 1127.957 140.637 L 1121.903 149.500 1130.201 150.027 C 1134.810 150.319, 1140.246 151.330, 1142.427 152.300 C 1144.587 153.260, 1146.722 153.678, 1147.171 153.229 C 1147.620 152.780, 1150.033 144.332, 1152.532 134.456 C 1155.032 124.580, 1157.995 113.197, 1159.116 109.161 C 1160.237 105.124, 1160.959 101.626, 1160.721 101.387 C 1160.482 101.148, 1157.401 104.012, 1153.873 107.751 M 383.250 103.944 C 380.650 106.113, 380.327 108.528, 382.524 109.371 C 384.265 110.039, 385.959 113.916, 385.285 115.689 C 385.036 116.343, 381.652 117.601, 377.763 118.486 C 373.875 119.370, 369.867 120.536, 368.857 121.076 C 366.538 122.318, 363.844 127.430, 364.546 129.259 C 364.862 130.082, 364.084 131.096, 362.630 131.759 C 359.078 133.377, 354.657 140.305, 344.905 159.535 C 336.043 177.011, 333 185.142, 333 191.345 C 333 197.653, 336.724 197.472, 344.563 190.780 C 360.795 176.925, 379.338 150.319, 388.607 127.583 C 391.711 119.970, 391.917 118.834, 391.035 114.187 C 389.918 108.297, 387.460 101.985, 386.301 102.033 C 385.860 102.052, 384.488 102.911, 383.250 103.944 M 475.174 104.314 C 472.894 106.741, 472.317 109, 473.977 109 C 475.578 109, 478.094 113.592, 477.434 115.311 C 477.045 116.325, 474.142 117.499, 469.431 118.548 C 463.366 119.897, 461.510 120.794, 459.098 123.541 C 457.370 125.509, 456.346 127.634, 456.613 128.695 C 456.922 129.922, 456.125 131.029, 454.125 132.151 C 450.626 134.114, 442.413 147.647, 433.980 165.344 C 419.440 195.855, 422.741 204.892, 441.602 186.214 C 457.497 170.475, 472.638 147.624, 480.926 126.865 C 483.786 119.702, 483.908 118.869, 482.894 113.385 C 481.778 107.348, 479.549 102, 478.149 102 C 477.709 102, 476.370 103.042, 475.174 104.314 M 284.500 112.515 C 280.100 113.222, 275.791 114.088, 274.924 114.440 C 272.753 115.322, 261.569 132.356, 262.876 132.792 C 264.254 133.251, 276.768 126.464, 297.244 114.150 C 298.753 113.242, 299.990 112.162, 299.994 111.750 C 300.003 110.701, 293.915 111.002, 284.500 112.515" stroke="none" fill="#000000" fill-rule="evenodd"/>
</svg>