<svg width="87" height="66" viewBox="0 0 87 66" fill="none" xmlns="http://www.w3.org/2000/svg">
<rect width="86.011" height="64.3134" transform="translate(0.5 0.843262)" fill="black" style="fill:black;fill-opacity:1;"/>
<path d="M42.95 48.0445L34.0305 37.8697C32.5814 36.2167 34.4723 33.7756 36.4351 34.7656L42.4666 37.8076C42.981 38.067 43.5823 38.092 44.1165 37.8762L50.916 35.129C52.7877 34.3728 54.4738 36.5506 53.2728 38.1732L46.0615 47.9159C45.3026 48.9412 43.7908 49.0036 42.95 48.0445Z" fill="#D9D9D9" style="fill:#D9D9D9;fill:color(display-p3 0.8510 0.8510 0.8510);fill-opacity:1;"/>
<path d="M46.7209 16.4229L53.2686 25.019C54.5067 26.6444 52.798 28.8613 50.9109 28.0781L44.7108 25.5046C44.3512 25.3554 43.9558 25.3143 43.5731 25.3866L35.8804 26.8387C33.801 27.2313 32.616 24.5476 34.3069 23.2753L43.9274 16.0366C44.8064 15.3753 46.0544 15.5478 46.7209 16.4229Z" fill="#D9D9D9" style="fill:#D9D9D9;fill:color(display-p3 0.8510 0.8510 0.8510);fill-opacity:1;"/>
</svg>
