<svg xmlns="http://www.w3.org/2000/svg" preserveAspectRatio="xMidYMid meet" version="1.0" viewBox="0 0 1920 1080"><g fill="#000" stroke="none"><path d="M0 540v540h1920V0H0v540zM1115 87c0 1-1 2-3 2h-3v37h3c2 0 3 0 3 2s-1 2-6 2h-6v-22l1-23 6-1c4 0 5 1 5 2zm76 20v23h-5c-5 0-6 0-6-2s1-2 3-2h3V89h-3c-2 0-3 0-3-2 0-3 0-3 6-3h5v23zm-58-8c4 2 5 5 6 16v10h-3l-4-1-4 1h-7c-3-1-6-5-6-8 2-5 3-6 14-8 3-1 4-2 1-4-2-3-4-2-6 0l-5 2h-3l2-3c1-3 6-6 9-6l5 1zm46 2c0 2-3 6-7 11l-7 8h7c7 0 7 0 7 3v2h-11c-15 0-15 0-4-12l7-9h-7c-7 0-7 0-7-2v-3h11c11 0 11 0 11 2zm-24 9v3h-14v-6h14v3zM828 233l-2 3c-1 0-2 1-2 8l-2 9-1 2c1 0 3 6 3 12 0 4 0 5 2 6l2 2c0 2-1 2-4 2-5-1-6-3-6-12l-1-8c-1 0-2-1-2-3l2-3 1-8c0-6 0-7 3-10s7-3 7 0zm84 1 1 9c0 5 0 7 2 8l1 4-1 3c-2 1-2 3-2 8 0 8-2 11-7 11-2 0-3 0-3-2l2-2c2 0 3-2 3-9 0-5 1-7 2-8v-3l-2-9c0-7 0-7-2-8-3-1-4-3-2-4 1-2 6 0 8 2zm-59 5c5 6 2 15-7 23l-5 4h16v6h-25v-3c0-2 2-4 7-9 7-6 10-10 10-13s-2-5-6-5c-3 0-3 1-5 4-1 2-2 3-4 3-3 0-3 0-3-2l2-4 3-5c3-2 4-2 9-2 4 1 6 1 8 3zm43 8c0 10 0 11 2 11s2 1 2 3 0 3-2 3-2 1-2 4c0 4 0 4-3 4-4 0-4 0-4-4v-4h-15v-3c0-3 1-6 6-12 9-12 10-13 13-13 3 1 3 1 3 11zm-91-1c5 2 6 5 6 17v9h-3c-2 0-3 0-3-2h-2l-7 2c-3 0-4 0-6-3s-3-6 0-9c2-2 4-3 12-4 3-1 4-2 1-4-2-3-4-2-6 0s-8 3-8 1 4-5 6-7h10zm392 20c0 1 1 3 3 3l4 2v3c-1 2-2 2-5 1-2-1-2-1-2 3s0 4 3 5c5 2 7 6 7 11-1 4-5 8-8 8-1 0-2 1-2 3s0 2-2 2-3 0-3-2-1-3-3-3l-5-3c-3-2-3-2-1-5l2-2 2 2c4 3 5 3 5-2 0-4 0-5-3-6-5-1-7-6-6-10 0-3 2-5 6-7l3-3c0-2 1-3 2-3 2 0 3 1 3 3zm-329 1c4 3 2 10-3 12h-3l3-4 3-2-3-1c-3 0-4-2-3-5 1-2 4-3 6 0zM570 402l-1 11h-27v177h28v21h-53V392h53v10zm833 100v109h-26l-27-1v-20h28V413h-28v-21h53v110zm-429-87c21 3 36 12 47 26 5 7 10 18 11 24l1 4h-35l-2-5c-6-14-20-22-39-22-24 0-40 13-47 38-3 10-3 30-1 40 5 20 18 34 36 39 11 3 29 1 39-4s17-17 19-29v-6h-37v-26h69v44l1 45 6 1a523 523 0 0 1 116 52c18 11 25 20 25 29 1 4 0 5-2 8-3 3-10 6-20 9l-34 4c-28 3-36 4-36 6s4 4 16 8c23 8 29 10 38 15 11 6 19 12 21 18 4 7 2 14-5 21-9 8-23 14-59 23-25 6-33 9-33 12 0 4 5 7 28 19 29 14 38 21 38 29 0 10-42 28-95 40a828 828 0 0 1-89 12c22-5 42-14 54-23 18-14 22-37 10-51-3-3-3-3-1-2 1 2 3 3 4 2l1 1c-1 1 8 1 34 1 21 0 34 0 33-1l-10-7c-23-14-31-20-31-24 1-3 7-5 25-8 42-9 59-14 69-21 11-9 11-19-1-30-9-9-23-17-54-29-21-9-25-11-25-13s4-2 32-2c42 0 63-2 71-7 4-3 6-8 5-14-2-13-15-24-50-41-71-36-130-52-196-54-27 0-25 0-32-11a85 85 0 0 1-14-54l1-25c9-35 32-56 65-62 8-1 24-1 33 1zm-292 3c23 8 33 22 33 47 0 16-3 27-12 36l-10 9-4 3 15 37 15 36h-34l-13-34-13-33-19-1h-19v68h-33V416h44l50 2zm173 13v14h-81v42h73v28h-73v42h81v14l-6 1c-7 1-24 8-32 11l-5 3h-70V416h113v15zm321 0v14h-81v42h73v28h-73v42h81v29h-113V416h113v15zm70 16 20 31c0 1 10-13 20-31l20-31h19l19 1-28 42-28 42 28 42 28 43h-38l-19-30-21-30-20 30-20 30h-38l2-3 28-42 26-40-26-40-28-42-2-3h19l19 1 20 30zM913 581c8 2 12 5 13 7a2947 2947 0 0 0-39 6l-51 6-21 3c-5 0-5-1-1-4a129 129 0 0 1 99-18zm-636 26 9 21-3 1c-3 0-3 0-9-17l-9-21c-1-3-1-3 2-3s3 1 10 19zm34-1v18h-3l-3-1h-2l-6 1c-4 0-5 0-8-3-3-4-3-5-3-10 0-7 3-11 8-13h7l3 2 1-6v-6h6v18zm1362 32v5h5c5 0 5 0 5 3 0 2 0 2-5 2h-5v5c0 5 0 5-2 5-3 0-3 0-3-5v-5h-5c-6 0-6 0-6-2 0-3 0-3 6-3h5v-6c0-5 0-5 2-5s3 1 3 6zm-24-3c4 2 5 5 6 16v10h-3l-4-1-4 1h-6c-4-1-7-5-7-8 2-5 3-6 14-8 3-1 4-2 1-4-2-2-4-2-6 0l-5 2h-3l2-3c1-3 6-6 9-6l6 1zm-785 28c11 12 13 37 5 54-3 5-9 11-11 11s-9-7-11-12c-7-18-4-43 7-54 4-4 6-4 10 1zm-97 3c6 7 9 26 6 41l-5 14-3 8-3-4c-8-8-11-31-6-48 1-5 6-15 7-15l4 4zm425 26c5 3 3 8-3 12-6 3-26 0-26-4 0-3 6-7 13-9s12-2 16 1zm-18 92c4 3 7 7 7 11 0 6-5 13-12 16-13 5-45 0-50-7l-2-3 2-3c4-5 16-11 30-15 8-3 20-2 24 1zm-870 2c0 1-1 2-3 2h-3v37h3c2 0 3 0 3 2s-1 2-5 2h-6v-46h5c5 0 6 1 6 2zm125 20v23h-5c-5 0-6 0-6-2s1-2 3-2h3v-37h-3c-2 0-3 0-3-2 0-3 0-3 6-3h5v23zm-108-16 7 20-3 1c-2 0-3-1-5-8-2-8-3-8-6 2-2 5-2 6-5 6l-2-1 7-20c1-3 6-2 7 0zm46 5c0 6 0 6 2 5 4-4 11-3 15 3s2 16-3 19c-3 3-10 3-12 0h-2c0 2-1 2-3 2h-3v-36h6v7zm-17 3 4 4 1 12v10h-3c-2 0-3 0-3-2h-2c-2 3-9 3-12 0-6-5-2-12 8-14 6 0 8-2 5-5-3-1-5-1-7 1l-5 2h-3l2-3c1-3 6-6 9-6l6 1zm57 0c4 1 8 5 8 7l-3 1-4-1c0-2-5-3-7-2-3 1-5 7-4 10 1 6 7 8 11 4 1-2 7-3 7-1 0 4-6 8-12 8-5 0-9-2-11-6-4-8-1-17 6-20h9zm1309 140c0 2 0 2-3 2h-3v37h3c2 0 3 0 3 2s-1 2-5 2h-6v-46h6c5 0 5 0 5 3zm93 20v23h-5c-5 0-6 0-6-2 0-1 1-2 3-2h2v-37h-2c-2 0-3 0-3-3 0-2 0-2 5-2l6 1v22zm-59-12c0 6 1 8 3 5 1-2 6-2 9 0 5 2 7 6 7 14-1 5-1 6-4 8-3 3-9 4-13 1h-2c0 2-1 2-3 2h-3v-17l1-18 3-1c2 0 2 0 2 6zm-16 4c5 2 6 5 6 17v9h-3c-2 0-3 0-3-2h-2l-7 2c-3 0-4 0-6-3s-3-6 0-9c2-2 4-3 12-4 3-1 4-2 1-4-2-2-4-2-6 0s-8 3-8 1 4-5 6-7h10zm55 0 6 5 2 3h-3l-6-2c-3-3-5-2-7 1-3 2-4 8-1 12 2 3 7 3 9 0l5-2c4 0 4 1 0 6-3 3-4 3-9 3-7 0-11-3-13-9-2-7 1-14 7-17h10z"/><path d="M1126 114c-4 2-5 5-1 6 4 0 7-2 7-5 0-2-1-2-6-1zM884 252l-4 6h9v-12l-5 6zm-86 9c-3 1-4 3-2 5 2 3 9 0 9-4 0-2-2-2-7-1zm391 14c0 2 0 5 2 6l1-3c0-4-2-5-3-3zm8 18c0 4 0 4 2 3 1-1 1-6-1-7l-1 4zm-194 277c-3 3-3 4 1 4 2 1 2 0 2-3v-3l-3 2zm87 249 5 2-4-3h-2zm-54 0zm64 6 2 2c1 1 1 1 0 0l-2-2zM621 468v22h46l6-3c6-4 9-8 10-15 2-10-2-20-11-24-4-2-6-2-28-3h-23v23zM295 604l-3 7c0 4 4 8 7 8 5 0 8-8 4-14-1-2-5-3-8-1zm1347 46c-4 2-5 5-1 6 4 0 7-2 7-5 0-2-1-2-6-1zM369 805c-3 2-3 8-1 11 3 5 10 3 11-3 1-3 0-8-2-9-3-2-7-1-8 1zm-25 8c-3 0-5 2-5 4s3 3 6 2 4-3 4-5 0-2-5-1zm1408 144c-4 5-1 14 4 14 3 0 4-1 6-4 3-5 0-12-5-12-3 0-4 1-5 2zm-25 8c-3 1-4 3-2 6 2 2 9-1 9-5 0-2-2-2-7-1z"/></g></svg>