<?xml version="1.0" standalone="no"?>
<!DOCTYPE svg PUBLIC "-//W3C//DTD SVG 20010904//EN"
 "http://www.w3.org/TR/2001/REC-SVG-20010904/DTD/svg10.dtd">
<svg version="1.0" xmlns="http://www.w3.org/2000/svg"
 width="1920.000000pt" height="1080.000000pt" viewBox="0 0 1920.000000 1080.000000"
 preserveAspectRatio="xMidYMid meet">

<g transform="translate(0.000000,1080.000000) scale(0.100000,-0.100000)"
fill="#000000" stroke="none">
<path d="M0 5400 l0 -5400 9600 0 9600 0 0 5400 0 5400 -9600 0 -9600 0 0
-5400z m11145 4535 c0 -14 -8 -21 -27 -23 l-28 -3 0 -185 0 -184 30 0 c23 0
30 -4 30 -20 0 -18 -7 -20 -60 -20 l-60 0 0 223 c0 123 3 227 7 231 4 4 30 6
58 4 42 -3 50 -6 50 -23z m765 -205 l0 -230 -55 0 c-48 0 -55 2 -55 20 0 16 7
20 30 20 l30 0 0 185 0 185 -30 0 c-25 0 -30 4 -30 25 0 24 3 25 55 25 l55 0
0 -230z m-585 76 c47 -20 58 -47 63 -158 l5 -98 -37 0 c-20 0 -36 4 -36 9 0 5
-17 3 -39 -5 -23 -8 -49 -10 -66 -5 -39 10 -69 52 -61 84 11 46 29 57 139 81
31 7 34 18 11 40 -21 21 -40 20 -64 -4 -11 -11 -33 -20 -50 -20 l-31 0 16 31
c16 30 62 58 98 59 10 0 33 -6 52 -14z m465 -20 c0 -14 -26 -53 -71 -105 l-70
-81 70 0 c69 0 71 -1 71 -25 l0 -25 -115 0 c-143 0 -144 4 -39 124 l76 86 -71
0 c-69 0 -71 1 -71 25 l0 25 110 0 c109 0 110 0 110 -24z m-240 -86 l0 -30
-70 0 -70 0 0 30 0 30 70 0 70 0 0 -30z m-3270 -1229 c0 -11 -8 -22 -19 -26
-15 -4 -19 -19 -23 -80 -4 -53 -10 -81 -23 -95 -10 -11 -13 -20 -8 -20 17 0
33 -58 33 -117 0 -46 3 -56 20 -60 11 -3 20 -14 20 -25 0 -16 -6 -19 -37 -16
-49 4 -63 31 -63 121 0 51 -4 69 -15 73 -8 4 -15 16 -15 29 0 12 7 28 15 35
11 9 15 32 15 82 0 60 3 72 25 93 30 31 75 34 75 6z m838 -8 c7 -10 12 -47 12
-89 0 -51 4 -75 15 -84 8 -7 15 -23 15 -35 0 -12 -7 -28 -15 -35 -11 -9 -15
-32 -15 -79 0 -83 -17 -111 -66 -111 -27 0 -34 4 -34 20 0 13 7 20 19 20 25 0
31 19 31 95 0 43 5 66 15 75 13 11 13 15 0 33 -10 14 -15 46 -15 89 0 63 -2
69 -25 80 -25 11 -32 28 -18 42 12 12 67 -3 81 -21z m-591 -57 c49 -58 23
-145 -70 -228 l-42 -37 78 -1 77 0 0 -30 0 -30 -125 0 -125 0 0 28 c0 21 16
40 69 87 75 66 101 101 101 137 0 33 -18 48 -58 48 -28 0 -35 -5 -48 -35 -12
-29 -19 -35 -45 -35 -26 0 -29 3 -25 20 3 11 8 29 12 40 3 10 19 31 37 46 27
23 38 26 86 22 44 -4 59 -10 78 -32z m431 -78 c2 -100 4 -108 22 -108 16 0 20
-7 20 -30 0 -23 -4 -30 -20 -30 -17 0 -20 -7 -20 -40 0 -39 -1 -40 -35 -40
-34 0 -35 1 -35 40 l0 40 -75 0 -75 0 0 34 c0 26 14 54 61 118 87 117 99 129
129 126 25 -3 25 -4 28 -110z m-909 11 c48 -17 61 -53 61 -164 l0 -95 -30 0
c-20 0 -30 5 -30 16 0 14 -2 14 -22 0 -12 -9 -41 -16 -64 -16 -34 0 -47 5 -63
26 -26 33 -27 68 -2 93 18 18 42 27 124 45 31 7 34 18 11 40 -21 21 -40 20
-64 -4 -19 -19 -80 -28 -80 -12 0 18 35 55 64 68 38 16 54 17 95 3z m3923
-196 c2 -17 10 -29 23 -33 11 -3 29 -10 40 -17 16 -10 18 -15 9 -30 -12 -19
-26 -21 -56 -8 -15 6 -18 1 -18 -34 0 -37 3 -42 34 -55 48 -20 70 -57 63 -104
-7 -41 -46 -82 -78 -82 -14 0 -19 -7 -19 -25 0 -20 -5 -25 -25 -25 -20 0 -25
5 -25 24 0 18 -7 25 -29 29 -16 3 -40 16 -55 29 -25 23 -25 23 -6 46 l19 23
23 -20 c35 -33 48 -27 48 22 0 40 -2 44 -35 56 -42 15 -69 60 -60 101 7 32 28
54 68 69 19 8 27 17 27 36 0 20 5 25 24 25 19 0 25 -6 28 -27z m-3290 -10 c33
-30 16 -101 -29 -122 -30 -14 -33 -14 -33 0 0 7 12 23 28 38 l27 26 -27 3
c-31 4 -42 25 -28 53 13 23 37 24 62 2z m-2984 -1355 l-3 -103 -137 -3 -138
-3 0 -884 0 -885 140 0 141 0 -3 -102 -3 -103 -262 -3 -263 -2 0 1095 0 1095
265 0 266 0 -3 -102z m8332 -993 l0 -1095 -262 2 -263 3 -3 103 -3 102 141 0
140 0 0 885 0 884 -137 3 -138 3 -3 103 -3 102 266 0 265 0 0 -1095z m-4287
870 c210 -37 360 -121 466 -263 52 -69 104 -178 116 -244 l7 -38 -174 0 -174
0 -23 49 c-63 139 -206 221 -388 221 -244 0 -404 -127 -474 -375 -29 -102 -32
-302 -5 -409 49 -200 173 -334 351 -381 119 -31 297 -15 396 35 95 49 173 169
185 288 l7 62 -187 0 -186 0 0 130 0 130 345 0 345 0 2 -442 3 -443 60 -16
c108 -30 336 -113 510 -187 158 -66 567 -273 655 -330 178 -116 253 -202 254
-292 1 -41 -4 -54 -28 -79 -30 -32 -97 -61 -196 -87 -30 -8 -183 -28 -340 -45
-282 -30 -360 -42 -360 -58 0 -19 43 -41 155 -81 230 -80 291 -104 387 -152
112 -57 183 -116 209 -173 36 -79 20 -145 -54 -212 -92 -85 -229 -138 -592
-229 -249 -63 -325 -92 -325 -124 0 -36 45 -65 279 -185 292 -149 381 -218
381 -297 0 -99 -424 -275 -955 -397 -203 -46 -440 -87 -688 -121 -281 -37
-342 -38 -202 -4 227 56 428 142 541 233 182 146 226 370 100 510 -25 29 -29
36 -11 20 17 -15 36 -24 44 -21 8 3 11 0 7 -7 -5 -8 85 -11 340 -11 210 0 344
4 338 9 -5 5 -52 35 -104 67 -234 141 -315 205 -308 242 6 31 66 52 248 87
420 81 592 132 685 203 115 88 114 195 -3 304 -97 91 -233 164 -540 289 -212
87 -252 107 -252 125 0 21 40 24 320 24 417 0 626 21 706 71 40 25 59 75 50
137 -18 133 -147 241 -496 416 -709 357 -1298 516 -1965 533 -265 6 -247 0
-320 113 -53 83 -88 164 -117 270 -20 75 -23 107 -23 270 1 142 5 201 18 254
87 345 312 560 644 616 80 13 245 11 336 -5z m-2923 -39 c226 -74 330 -220
332 -461 2 -165 -34 -271 -122 -368 -29 -32 -73 -69 -97 -84 -24 -14 -42 -31
-40 -37 3 -6 70 -170 151 -363 80 -194 146 -355 146 -358 0 -3 -76 -5 -169 -5
l-169 0 -134 338 -133 337 -188 3 -187 2 0 -340 0 -340 -165 0 -165 0 0 851 0
850 443 -3 c393 -4 448 -6 497 -22z m1730 -121 l0 -145 -405 0 -405 0 0 -210
0 -210 365 0 365 0 0 -140 0 -140 -365 0 -365 0 0 -210 0 -210 405 0 405 0 0
-68 0 -68 -59 -12 c-69 -15 -243 -78 -318 -116 l-52 -26 -351 0 -350 0 0 850
0 850 565 0 565 0 0 -145z m3210 0 l0 -145 -405 0 -405 0 0 -210 0 -210 365 0
365 0 0 -140 0 -140 -365 0 -365 0 0 -210 0 -210 405 0 405 0 0 -145 0 -145
-565 0 -565 0 0 850 0 850 565 0 565 0 0 -145z m697 -164 c106 -168 196 -308
200 -312 5 -4 98 134 207 307 l200 314 188 0 c103 0 188 -3 188 -7 0 -5 -126
-196 -279 -427 l-279 -419 279 -418 c153 -230 279 -421 279 -424 0 -3 -84 -5
-187 -5 l-188 1 -199 299 c-110 165 -201 300 -202 300 -2 0 -94 -135 -204
-300 l-200 -300 -191 0 -191 0 18 28 c9 15 137 206 282 424 l265 398 -265 397
c-145 219 -273 410 -282 426 l-19 27 194 -2 193 -3 193 -304z m-3332 -1341
c81 -21 128 -46 133 -71 2 -10 -7 -15 -25 -17 -15 -1 -181 -20 -368 -42 -187
-22 -416 -49 -510 -60 -93 -11 -187 -22 -207 -26 -47 -7 -49 6 -5 38 124 93
355 174 566 198 119 14 323 4 416 -20z m-6351 -262 c43 -106 81 -199 83 -205
3 -9 -5 -13 -24 -13 -29 0 -31 4 -98 173 -38 94 -75 187 -82 205 -13 32 -13
32 15 32 27 0 31 -7 106 -192z m336 12 l0 -180 -29 0 c-16 0 -31 6 -34 13 -3
9 -7 9 -21 -2 -9 -7 -35 -14 -58 -14 -35 0 -47 6 -75 36 -29 33 -33 43 -33 94
0 76 25 118 80 134 32 10 45 10 68 -2 15 -7 30 -15 35 -17 4 -2 7 24 7 57 l0
61 30 0 30 0 0 -180z m13618 -317 l3 -53 50 0 c46 0 49 -2 49 -25 0 -23 -3
-25 -50 -25 l-50 0 0 -50 c0 -47 -2 -50 -25 -50 -23 0 -25 3 -25 50 l0 50 -55
0 c-52 0 -55 1 -55 25 0 24 3 25 55 25 l55 0 0 56 c0 52 1 55 23 52 19 -3 22
-10 25 -55z m-243 23 c47 -20 58 -47 63 -158 l5 -98 -37 0 c-20 0 -36 4 -36 9
0 5 -17 3 -39 -5 -23 -8 -49 -10 -66 -5 -39 10 -69 52 -61 84 11 46 29 57 139
81 31 7 34 18 11 40 -21 21 -40 20 -64 -4 -11 -11 -33 -20 -50 -20 l-31 0 16
31 c16 30 62 58 98 59 10 0 33 -6 52 -14z m-7846 -271 c112 -128 134 -373 47
-543 -29 -56 -82 -112 -106 -112 -24 0 -87 72 -109 124 -74 172 -42 423 68
534 42 41 62 40 100 -3z m-974 -30 c60 -77 90 -268 66 -412 -7 -40 -28 -105
-48 -145 l-35 -73 -28 31 c-76 86 -106 315 -64 489 10 42 62 145 74 145 5 0
21 -16 35 -35z m4252 -260 c48 -32 34 -88 -29 -121 -61 -31 -258 -1 -258 40 0
24 59 62 130 85 69 22 118 20 157 -4z m-182 -925 c44 -27 75 -74 75 -113 0
-57 -53 -122 -125 -152 -123 -51 -443 -8 -499 68 l-20 27 21 28 c41 55 159
116 306 157 77 22 194 15 242 -15z m-8700 -15 c0 -14 -8 -21 -27 -23 l-28 -3
0 -185 0 -184 30 0 c23 0 30 -4 30 -20 0 -18 -7 -20 -55 -20 l-55 0 0 231 0
230 53 -3 c44 -3 52 -6 52 -23z m1255 -205 l0 -230 -55 0 c-48 0 -55 2 -55 20
0 16 7 20 30 20 l30 0 0 185 0 185 -30 0 c-25 0 -30 4 -30 25 0 24 3 25 55 25
l55 0 0 -230z m-1080 160 c14 -27 70 -186 70 -200 0 -6 -11 -10 -27 -8 -23 3
-29 12 -51 77 -27 82 -30 81 -63 -16 -18 -54 -24 -63 -45 -63 -13 0 -24 6 -24
13 0 15 55 169 71 198 13 25 55 24 69 -1z m460 -47 c0 -63 1 -65 18 -50 45 41
109 27 149 -32 39 -58 24 -158 -28 -195 -30 -21 -97 -21 -121 1 -17 15 -18 15
-18 0 0 -12 -9 -17 -30 -17 l-30 0 0 180 0 180 30 0 30 0 0 -67z m-175 -37
c18 -8 38 -23 44 -34 6 -12 11 -66 11 -121 l0 -101 -30 0 c-21 0 -30 5 -30 17
0 15 -1 15 -18 0 -25 -23 -94 -22 -120 1 -61 50 -18 125 78 138 57 7 75 28 45
50 -26 19 -42 17 -65 -6 -11 -11 -33 -20 -50 -20 l-31 0 16 31 c16 30 62 58
98 59 10 0 33 -6 52 -14z m577 4 c34 -10 78 -50 78 -71 0 -5 -16 -9 -35 -9
-19 0 -35 5 -35 10 0 17 -48 30 -74 20 -28 -10 -51 -68 -41 -102 18 -57 75
-77 110 -38 19 21 75 28 75 9 0 -42 -57 -79 -120 -79 -55 0 -94 22 -114 64
-36 77 -6 169 64 193 44 15 47 15 92 3z m13088 -1395 c0 -21 -5 -25 -30 -25
l-30 0 0 -185 0 -185 30 0 c23 0 30 -4 30 -20 0 -18 -7 -20 -55 -20 l-55 0 0
230 0 230 55 0 c52 0 55 -1 55 -25z m928 -207 l2 -228 -55 0 c-48 0 -55 2 -55
20 0 15 7 20 25 20 l25 0 0 185 0 185 -25 0 c-20 0 -25 5 -25 26 0 24 2 25 53
22 l52 -3 3 -227z m-588 122 c0 -55 10 -75 25 -51 11 19 64 22 98 6 50 -24 71
-68 65 -140 -4 -50 -10 -63 -37 -87 -36 -32 -92 -38 -129 -12 -20 14 -22 14
-22 0 0 -11 -10 -16 -30 -16 l-30 0 0 173 c0 96 3 177 7 180 3 4 17 7 30 7 22
0 23 -4 23 -60z m-161 -41 c48 -17 61 -53 61 -164 l0 -95 -30 0 c-20 0 -30 5
-30 16 0 14 -2 14 -22 0 -12 -9 -41 -16 -64 -16 -34 0 -47 5 -63 26 -26 33
-27 68 -2 93 18 18 42 27 124 45 31 7 34 18 11 40 -21 21 -40 20 -64 -4 -19
-19 -80 -28 -80 -12 0 18 35 55 64 68 38 16 54 17 95 3z m555 -3 c18 -7 43
-26 55 -42 l23 -29 -31 -3 c-20 -2 -41 4 -57 17 -34 27 -50 26 -79 -4 -29 -29
-34 -88 -9 -123 20 -29 78 -31 96 -2 9 13 24 20 45 20 42 0 42 -13 -1 -56 -30
-30 -40 -34 -89 -34 -68 0 -111 31 -127 92 -19 70 11 136 74 164 40 17 59 17
100 0z"/>
<path d="M11260 9657 c-45 -15 -49 -50 -7 -55 33 -4 67 22 67 50 0 21 -11 22
-60 5z"/>
<path d="M8842 8280 l-43 -60 46 0 45 0 0 60 c0 33 -1 60 -3 60 -2 0 -22 -27
-45 -60z"/>
<path d="M7984 8189 c-38 -11 -49 -33 -28 -54 27 -26 94 7 94 47 0 20 -16 22
-66 7z"/>
<path d="M11894 8046 c-8 -21 -1 -49 14 -54 8 -2 12 8 12 32 0 36 -16 49 -26
22z"/>
<path d="M11970 7870 c0 -37 2 -41 16 -30 17 15 15 61 -3 68 -9 2 -13 -9 -13
-38z"/>
<path d="M10032 5097 c-28 -30 -28 -34 3 -39 23 -5 25 -2 25 28 0 19 -1 34 -3
34 -2 0 -13 -10 -25 -23z"/>
<path d="M10895 2615 c30 -25 59 -39 51 -26 -4 6 -22 18 -39 27 -30 14 -31 14
-12 -1z"/>
<path d="M10362 2613 c92 -2 245 -2 340 0 95 1 20 3 -167 3 -187 0 -265 -2
-173 -3z"/>
<path d="M11000 2546 c0 -2 8 -10 18 -17 15 -13 16 -12 3 4 -13 16 -21 21 -21
13z"/>
<path d="M6210 6125 l0 -227 233 4 232 3 50 28 c60 33 92 76 104 142 20 106
-23 205 -107 247 -44 21 -61 23 -279 26 l-233 4 0 -227z"/>
<path d="M2954 4762 c-17 -11 -34 -48 -34 -75 0 -34 36 -77 66 -77 55 0 85 85
48 138 -15 22 -57 30 -80 14z"/>
<path d="M16420 4297 c-45 -15 -49 -50 -7 -55 33 -4 67 22 67 50 0 21 -11 22
-60 5z"/>
<path d="M3686 2751 c-23 -26 -24 -82 -3 -115 32 -48 96 -28 112 34 7 28 -9
80 -28 92 -22 14 -64 8 -81 -11z"/>
<path d="M3440 2673 c-33 -6 -50 -21 -50 -43 0 -22 26 -30 60 -18 28 10 40 25
40 51 0 17 -4 18 -50 10z"/>
<path d="M17516 1228 c-37 -52 -8 -138 47 -138 28 0 41 9 56 37 30 57 1 123
-54 123 -24 0 -39 -7 -49 -22z"/>
<path d="M17274 1149 c-38 -11 -49 -33 -28 -54 27 -26 94 7 94 47 0 20 -16 22
-66 7z"/>
</g>
</svg>
