<?xml version="1.0" encoding="UTF-8"?><svg id="Layer_2" xmlns="http://www.w3.org/2000/svg" xmlns:xlink="http://www.w3.org/1999/xlink" viewBox="0 0 739.71 759.71"><defs><style>.cls-1{fill:none;}.cls-2{fill:gold;}.cls-3{clip-path:url(#clippath);}.cls-4{clip-path:url(#circleClip);}</style><clipPath id="clippath"><rect class="cls-1" x="25" y="25" width="689.71" height="689.71"/></clipPath><clipPath id="circleClip"><circle cx="369.855" cy="399.855" r="344.855"/></clipPath></defs><g id="Layer_1-2"><circle cx="369.855" cy="399.855" r="344.855" fill="white" stroke="black" stroke-width="2"/><g class="cls-4"><g class="cls-3" transform="translate(25, 25)"><path class="cls-2" d="M474.78,370.64c-18.49,18.99-28.9,43.57-29.47,69.42h-151.53c-.58-25.85-10.98-50.42-29.47-69.42-26.82-27.55-41.59-63.91-41.59-102.39s15.04-75.5,42.35-103.15c27.28-27.63,63.66-43.13,102.45-43.66,11.51-.15,22.92,1.03,34.04,3.47,1.29,13.57,7.58,26.32,17.73,35.57,11.35,10.35,26.6,15.47,41.85,14.07,6.92-.64,13.79-1.06,20.58-1.29,21.69,25.61,33.95,58.13,34.61,92.05.78,39.58-13.98,76.99-41.55,105.33Z"/><path d="M315.99,163.84c-25.96,13.49-45.75,36.02-55.74,63.45-1.7,4.67.71,9.83,5.38,11.54,1.02.37,2.06.55,3.08.55,3.68,0,7.13-2.27,8.46-5.92,8.44-23.18,25.18-42.23,47.12-53.64,4.41-2.29,6.13-7.73,3.84-12.14-2.29-4.41-7.72-6.13-12.14-3.84Z"/><path d="M612.22,167.52c-45.27-7.54-96.58-16.08-152.74-10.9-10.37.96-20.33-2.39-28.06-9.44-7.7-7.02-12.11-17.02-12.11-27.44,0-20.37,16.7-36.63,38.03-37.01,25.7-.46,47.5.97,68.57,2.35,20.48,1.34,40.03,2.62,59.8,1.72.12,0,.24-.01.37-.02,4-.18,8.02-.45,12.05-.83,4.95-.47,8.58-4.87,8.11-9.82-.47-4.94-4.87-8.57-9.81-8.1-3.5.33-6.98.57-10.45.74-5.37-.81-23.31-6.53-42.26-12.57-34.83-11.11-83.03-26.48-127.87-36.44-.17-.04-.34-.08-.51-.11-33.73-7.46-65.52-11.84-88.24-9.01-5.05.64-20.44,2.56-95.05,46.18-32.35,18.92-66.31,40.05-92.87,56.9-.01,0-.02.01-.03.02-5.5,3.49-10.7,6.8-15.49,9.87-9.28,5.95-21.37,4.32-28.76-3.86-4.28-4.74-6.3-10.85-5.68-17.21.61-6.36,3.77-11.98,8.89-15.81L213.94,0h-30.03l-96.59,72.31c-9.08,6.8-14.92,17.18-16.02,28.48-1.09,11.29,2.64,22.6,10.24,31.02,7.94,8.79,18.9,13.37,30,13.37,7.51,0,15.08-2.1,21.83-6.42,3.14-2.01,6.26-4,9.35-5.97l2.02,2.05c10.82,11.04,25.58,16.86,40.47,16.86,8.96,0,17.96-2.1,26.19-6.44l203.49-107.23c34.85,7.92,71.86,19.06,101.57,28.39-17.76-1.11-37.47-2.09-59.44-1.7-26.63.48-48.33,18.1-54.16,42.05-11.65-2.37-23.57-3.51-35.58-3.34-43.55.59-84.4,18-115.02,49.01-30.66,31.05-47.54,72.17-47.54,115.8s16.58,84.01,46.69,114.95c15.73,16.16,24.39,37.15,24.39,59.1v46.17c0,18.1,12.18,33.4,28.78,38.16,3.6,23.66,24.09,41.85,48.74,41.85h32.44c24.66,0,45.14-18.19,48.75-41.85,16.59-4.76,28.77-20.06,28.77-38.17v-46.16c0-21.95,8.67-42.94,24.4-59.11,30.95-31.81,47.52-73.8,46.65-118.23-.64-33.14-11.17-65.1-29.96-91.8,37.53.9,72.77,6.76,104.9,12.11,27.28,4.54,52,8.66,73.15,8.66,2.48,0,4.91-.06,7.29-.18v-18.02c-20.79,1.23-47.51-3.22-77.49-8.21ZM203.01,129.35c-14.64,7.72-32.88,5.05-44.73-6.42,89.75-56.61,154.31-92.33,171.06-94.42,15.05-1.89,35.27-.07,57.68,3.86l-184.01,96.98ZM385.76,550.48h-32.44c-14.13,0-26.11-9.42-29.99-22.31h92.42c-3.87,12.89-15.85,22.31-29.99,22.31ZM445.28,488.46c0,11.95-9.69,21.67-21.63,21.71h-108.22c-11.93-.04-21.63-9.76-21.63-21.7v-30.41h151.48v30.4ZM516.33,265.31c.78,39.58-13.98,76.99-41.55,105.33-18.49,18.99-28.9,43.57-29.47,69.42h-151.53c-.58-25.85-10.98-50.42-29.47-69.42-26.82-27.55-41.59-63.91-41.59-102.39s15.04-75.5,42.35-103.15c27.28-27.63,63.66-43.13,102.45-43.66,11.51-.15,22.92,1.03,34.04,3.47,1.29,13.57,7.58,26.32,17.73,35.57,11.35,10.35,26.6,15.47,41.85,14.07,6.92-.64,13.79-1.06,20.58-1.29,21.69,25.61,33.95,58.13,34.61,92.05Z"/><path d="M610.28,556.75c-13.31-14.74-35.11-17.66-51.82-6.95-3.15,2.01-6.26,4-9.35,5.97l-2.02-2.05c-17.34-17.69-44.75-21.97-66.66-10.43l-203.49,107.24c-34.86-7.92-71.86-19.06-101.58-28.4,15.05.94,31.49,1.79,49.52,1.79,3.25,0,6.56-.03,9.93-.08,31.24-.56,55.71-24.72,55.71-55.01,0-15.47-6.56-30.32-17.99-40.74-11.35-10.35-26.61-15.48-41.84-14.07-51.5,4.76-99.65-3.74-142.14-11.23-35.89-6.34-65.48-11.56-88.55-7.31v18.42c20.12-4.91,50.63.48,85.42,6.61,41.45,7.32,93.03,16.41,146.93,11.43,10.36-.95,20.33,2.4,28.05,9.45,7.7,7.02,12.12,17.02,12.12,27.44,0,20.37-16.71,36.63-38.03,37.01-25.71.45-47.5-.97-68.58-2.35-20.48-1.35-40.02-2.62-59.8-1.72-.07,0-.15,0-.22.01-4.05.18-8.11.45-12.19.84-4.95.47-8.58,4.86-8.11,9.81.47,4.95,4.88,8.59,9.81,8.11,3.5-.33,6.98-.57,10.45-.74,5.37.8,23.3,6.52,42.25,12.57,55.7,17.76,145.56,46.43,201.23,46.43,5.48,0,10.64-.28,15.39-.88,5.06-.63,20.45-2.55,95.06-46.18,32.35-18.92,66.32-40.05,92.87-56.9h.01c5.51-3.5,10.71-6.82,15.5-9.88,9.28-5.95,21.38-4.32,28.76,3.86,4.29,4.74,6.31,10.85,5.69,17.21-.62,6.36-3.78,11.97-8.89,15.8l-117.39,87.88h30.04l98.14-73.47c9.08-6.8,14.92-17.18,16.01-28.47,1.1-11.29-2.63-22.6-10.24-31.02ZM362.49,660.06c-15.06,1.88-35.28.07-57.68-3.87l184.01-96.97c14.64-7.72,32.88-5.05,44.72,6.42-89.75,56.61-154.3,92.33-171.05,94.42Z"/></g></g></g></svg>