<svg width="308" height="84" viewBox="0 0 308 84" fill="none" xmlns="http://www.w3.org/2000/svg">
<path d="M61.9636 64.7495C58.0514 66.9404 54.1391 69.1117 50.2269 71.4101C50.0821 71.5381 49.9026 71.6204 49.7112 71.6465C49.5197 71.6726 49.3248 71.6414 49.151 71.5568C48.7989 71.3514 48.8869 71.0091 48.8967 70.6864C48.8967 66.6959 48.8967 62.7152 48.8967 58.7247C48.8653 58.3775 48.9426 58.0291 49.1178 57.7278C49.293 57.4264 49.5575 57.1869 49.8748 57.0424C52.1169 55.9237 54.2978 54.6864 56.4082 53.3355C57.0612 52.8484 57.5822 52.2059 57.9238 51.4663C58.2654 50.7267 58.4169 49.9135 58.3643 49.1005C58.3643 46.2642 58.247 43.4278 58.2665 40.6012C58.2665 36.7867 58.4817 32.9821 58.4915 29.1774C58.4915 27.0355 57.9242 25.2652 55.7138 24.0817C52.1634 22.243 48.7109 20.2282 45.3366 18.1058C42.8816 16.5506 40.3093 15.1716 37.8837 13.6262C37.1447 13.1842 36.2997 12.9507 35.4386 12.9507C34.5775 12.9507 33.7324 13.1842 32.9934 13.6262C30.7537 14.6728 28.7878 16.2377 26.6458 17.47C24.2496 18.8589 21.8631 20.2673 19.4277 21.6072C17.6175 22.4759 15.8806 23.4899 14.2342 24.6392C13.6641 25.0432 13.1922 25.5704 12.8536 26.1816C12.515 26.7928 12.3183 27.4724 12.2781 28.17C12.0825 31.515 12.4737 34.8306 12.4248 38.1658C12.3759 41.501 12.3368 44.7188 12.3074 47.9953C12.3074 48.6409 12.3074 49.2864 12.3661 49.9515C12.436 50.781 12.7208 51.578 13.1925 52.264C13.6641 52.95 14.3063 53.5014 15.0558 53.8637C18.0487 55.6633 21.198 57.1695 24.2104 58.9398C25.5308 59.7223 26.8023 60.583 28.1227 61.3752C28.8954 61.8447 29.1007 61.7078 29.1007 60.7884C29.1007 56.749 29.1007 52.6998 29.1007 48.6604C29.1149 48.3165 29.049 47.9741 28.9081 47.66C28.7672 47.346 28.5553 47.069 28.289 46.851C26.4172 45.0872 25.2846 42.6787 25.12 40.1122C24.9559 38.5392 25.1551 36.9495 25.7025 35.4657C26.2498 33.9819 27.1305 32.6437 28.2768 31.5541C29.4231 30.4645 30.8043 29.6527 32.314 29.1813C33.8236 28.7099 35.4213 28.5914 36.9839 28.8351C38.5782 29.0353 40.1007 29.6173 41.422 30.5317C42.7433 31.4461 43.8245 32.6658 44.5737 34.0873C45.2683 35.3309 45.6943 36.7065 45.824 38.125C45.9537 39.5436 45.7843 40.9736 45.3268 42.3226C44.6793 44.1936 43.549 45.8604 42.0503 47.1542C41.8852 47.3434 41.7652 47.5675 41.6991 47.8097C41.633 48.052 41.6227 48.306 41.6688 48.5528C41.6688 51.2718 41.6688 53.9811 41.6688 56.7001C41.6688 63.7552 41.6851 70.807 41.7177 77.8556C41.7177 79.3031 41.6688 80.7897 41.6004 82.1884C41.5515 83.1664 41.1602 83.3523 40.3387 82.8828C37.737 81.4059 35.1549 79.9486 32.5729 78.413C30.5483 77.2394 28.4846 76.1342 26.5089 74.892C22.5966 72.3882 18.5768 70.08 14.4885 67.7522C12.415 66.5687 10.2633 65.5418 8.18001 64.3387C6.47923 63.3308 4.84569 62.2134 3.2897 60.9938C2.47386 60.3507 1.79424 59.5517 1.29047 58.6432C0.786698 57.7347 0.468868 56.735 0.355516 55.7025C0.00517543 52.8934 -0.0864952 50.0582 0.081659 47.2324C0.120781 43.0463 0.218588 38.8505 0.169685 34.6546C0.169685 30.6445 -0.123734 26.6247 0.492445 22.6244C0.664433 21.4445 1.08024 20.3134 1.71339 19.3031C2.34654 18.2927 3.18316 17.4253 4.16996 16.756C6.79952 14.96 9.5367 13.3268 12.3661 11.8657C16.0436 9.90961 19.6135 7.66985 23.2128 5.5279C25.834 3.98256 28.4454 2.41766 31.1645 1.05816C32.3797 0.398409 33.7343 0.0366494 35.1167 0.00264201C36.4991 -0.0313654 37.8698 0.263352 39.1161 0.862544C42.0948 2.23841 44.974 3.82018 47.7328 5.59636C50.6214 7.4286 53.5653 9.15325 56.5647 10.7703C58.7654 11.9831 60.9758 13.1763 63.1569 14.4087C64.6138 15.2556 66.0182 16.1897 67.3625 17.206C68.2111 17.8295 68.9206 18.6228 69.446 19.5355C69.9713 20.4481 70.301 21.4601 70.4141 22.507C70.7907 26.2111 70.8888 29.9382 70.7075 33.6569C70.6488 37.2562 70.8053 40.8555 70.8542 44.4156C70.9031 47.9758 71.2454 51.5066 70.7075 55.0276C70.5067 57.0712 69.6047 58.9823 68.1547 60.4363C66.2807 62.1288 64.2006 63.578 61.9636 64.7495Z" fill="black"/>
<path d="M99.8135 34.179C101.352 32.64 103.809 31.884 107.184 31.884C110.559 31.884 113.016 32.64 114.555 34.179C116.094 35.718 116.85 38.175 116.85 41.55C116.85 46.167 115.473 48.975 112.53 50.298L117.066 54.402L115.122 56.346L109.344 51.108C108.75 51.189 108.021 51.216 107.184 51.216C100.407 51.216 97.5185 48.327 97.5185 41.55C97.5185 38.175 98.2745 35.718 99.8135 34.179ZM101.973 46.896C103.053 48.003 104.781 48.57 107.184 48.57C109.587 48.57 111.315 48.003 112.422 46.896C113.502 45.789 114.042 44.007 114.042 41.55C114.042 39.093 113.502 37.284 112.422 36.177C111.315 35.07 109.587 34.53 107.184 34.53C104.781 34.53 103.053 35.07 101.973 36.177C100.866 37.284 100.326 39.093 100.326 41.55C100.326 44.007 100.866 45.789 101.973 46.896ZM119.5 45.006V36.96H122.146V45.006C122.146 47.598 123.361 48.732 126.088 48.732C129.112 48.732 130.354 47.328 130.354 43.98V36.96H133V51H130.354V49.11C129.409 50.514 127.735 51.216 125.332 51.216C121.309 51.216 119.5 49.326 119.5 45.006ZM141.059 51.216C137.306 51.216 135.659 49.947 135.659 47.004C135.659 43.953 137.468 42.738 141.761 42.738H146.54C146.54 40.173 145.298 39.066 142.463 39.066C140.195 39.066 139.034 39.768 138.602 41.388H135.983C136.496 38.148 138.467 36.744 142.571 36.744C147.188 36.744 149.186 38.553 149.186 42.684V51H146.54V49.191C145.487 50.541 143.651 51.216 141.059 51.216ZM138.305 46.896C138.305 48.3 139.385 48.894 141.68 48.894C144.731 48.894 146.189 47.841 146.54 45.384V44.736H142.436C139.682 44.736 138.305 45.465 138.305 46.896ZM152.317 51V36.96H154.963V38.85C155.935 37.446 157.636 36.744 160.066 36.744C164.143 36.744 165.925 38.634 165.925 42.954V51H163.306V42.954C163.306 40.362 162.091 39.228 159.31 39.228C156.205 39.228 154.963 40.632 154.963 43.98V51H152.317ZM172.766 33.882V36.96H177.005V39.444H172.766V46.032C172.766 47.76 173.576 48.516 175.439 48.516H177.167V51H175.385C171.686 51 170.12 49.596 170.12 46.329V39.444H167.798V36.96H170.12V33.882H172.766ZM179.251 45.006V36.96H181.897V45.006C181.897 47.598 183.112 48.732 185.839 48.732C188.863 48.732 190.105 47.328 190.105 43.98V36.96H192.751V51H190.105V49.11C189.16 50.514 187.486 51.216 185.083 51.216C181.06 51.216 179.251 49.326 179.251 45.006ZM195.95 51V36.96H198.596V38.715C199.487 37.392 201.026 36.744 203.159 36.744C205.562 36.744 207.155 37.581 207.911 39.282C208.775 37.581 210.449 36.744 212.96 36.744C216.767 36.744 218.468 38.634 218.468 42.954V51H215.822V42.954C215.822 40.362 214.742 39.228 212.366 39.228C209.639 39.228 208.532 40.632 208.532 43.98V51H205.886V42.954C205.886 40.362 204.806 39.228 202.43 39.228C199.703 39.228 198.596 40.632 198.596 43.98V51H195.95ZM220.533 45.573H223.179C223.179 47.76 224.637 48.732 227.904 48.732C229.551 48.732 230.739 48.489 231.495 47.976C232.224 47.463 232.602 46.68 232.602 45.573C232.602 44.466 232.197 43.683 231.387 43.197C230.577 42.711 229.281 42.468 227.472 42.468H226.5V40.146H227.607C230.955 40.146 232.359 39.309 232.359 37.23C232.359 35.205 231.036 34.368 227.985 34.368C224.88 34.368 223.584 35.232 223.584 37.257H220.938C220.938 33.504 223.044 31.884 227.985 31.884C232.926 31.884 235.005 33.396 235.005 36.933C235.005 39.093 234.114 40.551 232.359 41.307C234.276 42.063 235.248 43.602 235.248 45.897C235.248 49.596 233.061 51.216 227.904 51.216C222.747 51.216 220.533 49.542 220.533 45.573ZM259.422 51H244.626V32.1H247.434V48.354H259.422V51ZM265.888 51.216C262.135 51.216 260.488 49.947 260.488 47.004C260.488 43.953 262.297 42.738 266.59 42.738H271.369C271.369 40.173 270.127 39.066 267.292 39.066C265.024 39.066 263.863 39.768 263.431 41.388H260.812C261.325 38.148 263.296 36.744 267.4 36.744C272.017 36.744 274.015 38.553 274.015 42.684V51H271.369V49.191C270.316 50.541 268.48 51.216 265.888 51.216ZM263.134 46.896C263.134 48.3 264.214 48.894 266.509 48.894C269.56 48.894 271.018 47.841 271.369 45.384V44.736H267.265C264.511 44.736 263.134 45.465 263.134 46.896ZM279.791 49.029V51H277.145V30.75H279.791V38.931C280.79 37.473 282.518 36.744 285.029 36.744C289.538 36.744 291.455 38.931 291.455 43.98C291.455 49.056 289.538 51.216 285.029 51.216C282.518 51.216 280.79 50.487 279.791 49.029ZM280.925 47.598C281.627 48.354 282.761 48.732 284.327 48.732C285.893 48.732 287.027 48.354 287.756 47.598C288.458 46.842 288.809 45.627 288.809 43.98C288.809 40.632 287.459 39.228 284.327 39.228C281.195 39.228 279.845 40.632 279.845 43.98C279.845 45.627 280.196 46.842 280.925 47.598ZM293.14 46.734H295.759C296.218 48.246 297.487 48.894 299.944 48.894C302.347 48.894 303.535 48.327 303.535 47.166C303.535 46.113 302.32 45.573 299.431 45.141C295.003 44.574 293.383 43.386 293.383 40.821C293.383 38.094 295.219 36.744 299.323 36.744C303.427 36.744 305.398 38.094 305.911 41.226H303.292C302.833 39.714 301.645 39.066 299.269 39.066C297.055 39.066 295.948 39.606 295.948 40.713C295.948 41.712 297.163 42.252 299.89 42.684C302.212 43.035 303.832 43.521 304.75 44.142C305.641 44.763 306.1 45.681 306.1 46.95C306.1 49.785 304.021 51.216 299.863 51.216C295.732 51.216 293.653 49.839 293.14 46.734Z" fill="black"/>
</svg>
