<svg width="16" height="16" viewBox="0 0 16 16" fill="none"
  xmlns="http://www.w3.org/2000/svg">
  <path d="M11.7669 11.0239L14.6223 13.8785L13.6789 14.8219L10.8243 11.9665C9.76208 12.818 8.44092 13.2811 7.07959 13.2792C3.76759 13.2792 1.07959 10.5912 1.07959 7.2792C1.07959 3.96721 3.76759 1.27921 7.07959 1.27921C10.3916 1.27921 13.0796 3.96721 13.0796 7.2792C13.0815 8.64054 12.6184 9.9617 11.7669 11.0239ZM10.4296 10.5292C11.2757 9.65913 11.7482 8.49282 11.7463 7.2792C11.7463 4.70054 9.65759 2.61254 7.07959 2.61254C4.50092 2.61254 2.41292 4.70054 2.41292 7.2792C2.41292 9.8572 4.50092 11.9459 7.07959 11.9459C8.29321 11.9478 9.45951 11.4753 10.3296 10.6292L10.4296 10.5292V10.5292Z" fill="currentColor" />
</svg>