<svg width="90" height="108" viewBox="0 0 90 108" fill="none" xmlns="http://www.w3.org/2000/svg">
<path d="M59.0286 64.2077C50.0009 55.4565 41.693 47.495 33.6305 39.8773C29.146 35.6387 27.0024 30.7716 27.0877 25.0019V24.9912C27.0877 24.7279 27.077 24.4593 27.061 24.1961C27.0344 23.6696 27.013 23.17 27.093 22.7188C28.4474 15.1871 32.5427 10.0889 39.2722 7.57475C46.1242 5.01224 52.5444 6.12427 58.362 10.8786C59.7698 12.0336 61.1775 13.1886 62.5799 14.349C63.4651 15.0796 64.3449 15.8102 65.2301 16.5355C65.6354 16.8685 66.0406 17.207 66.4459 17.54C67.5764 18.4748 68.7441 19.4471 69.9279 20.3712C70.8451 21.091 71.9276 21.3543 72.8981 21.0964C73.8206 20.8493 74.5458 20.1778 74.9404 19.2108C75.4683 17.9215 74.9564 16.4764 73.5859 15.3375C72.4075 14.3597 71.2184 13.3928 70.0346 12.4204C67.6403 10.4596 65.1661 8.43429 62.7719 6.39825C56.693 1.21952 49.7876 -0.827257 42.2529 0.30089C34.649 1.43978 28.6501 5.43664 24.4215 12.1787C18.8492 21.0642 19.6224 33.275 26.2612 41.2096C27.7969 43.0415 29.5779 44.6908 31.3003 46.2809C31.9668 46.8987 32.6387 47.5165 33.2892 48.145C35.0702 49.8534 36.8459 51.5617 38.6216 53.2754C43.7513 58.2124 49.0517 63.3213 54.3361 68.2744C61.4708 74.9681 62.0947 86.9479 55.6958 94.442C49.1477 102.113 37.4165 103.36 29.5512 97.2194C27.6636 95.7474 25.7973 94.1734 23.9949 92.6531C23.1257 91.9225 22.2619 91.1919 21.3874 90.4666C20.6942 89.8918 20.001 89.317 19.3078 88.7368C17.5161 87.2434 15.6604 85.7016 13.8154 84.2081C12.9356 83.499 11.9544 83.2143 11.0426 83.4023C10.1734 83.5849 9.43222 84.192 8.95764 85.1106C8.2431 86.502 8.68036 88.0492 10.1361 89.2579C11.5438 90.4237 12.9569 91.584 14.37 92.7498C17.4841 95.3123 20.7102 97.9554 23.8136 100.631C29.0607 105.154 34.8463 107.432 41.0638 107.432C42.2423 107.432 43.4421 107.351 44.6525 107.185C51.1313 106.304 56.4637 103.37 60.511 98.4604C65.1128 92.8787 67.0591 86.4429 66.2859 79.341C65.6354 73.3242 63.1931 68.226 59.0392 64.1916L59.0286 64.2077Z" fill="#FFEE54"/>
<path d="M89.9999 74.635C89.9733 74.318 89.9519 73.9688 89.9306 73.6035C89.8773 72.6956 89.8133 71.6642 89.664 70.6327C88.6775 63.8316 85.4781 57.7611 80.167 52.5931C72.4191 45.056 64.6658 37.5243 56.9126 29.9926L55.0729 28.2037C52.4014 25.6036 49.6392 22.9175 46.8664 20.3281C46.2212 19.7265 45.16 19.2913 44.1576 19.2161C42.9951 19.1355 42.0246 19.8823 41.5714 21.2307C41.1661 22.434 41.4487 23.5837 42.3925 24.5453C43.3364 25.5122 44.3229 26.4685 45.272 27.3871L46.2265 28.3165C49.3619 31.3732 52.5027 34.4246 55.6435 37.476C62.7515 44.3845 70.1049 51.5241 77.2502 58.6314C84.8702 66.2115 86.0273 79.1046 79.8791 87.9793C78.738 89.6232 77.3356 91.1596 75.9811 92.6423C75.2773 93.4159 74.5467 94.211 73.8535 95.0222L73.8162 95.0652C73.3523 95.6078 72.8297 96.2202 72.6164 96.9615C72.2271 98.3207 72.7124 99.5724 73.9175 100.308C74.4827 100.658 75.0693 100.829 75.6292 100.829C76.3437 100.829 77.0209 100.555 77.5915 100.013C78.9726 98.6914 80.2684 97.3161 81.5215 95.9838C87.0565 90.0852 89.8293 83.1229 89.9999 74.6994V74.6672V74.635Z" fill="#FFEE54"/>
<path d="M35.2416 82.7577C37.4652 84.9119 39.4755 86.8513 41.5072 88.7691C42.1257 89.3547 42.8509 89.6555 43.6028 89.6555C44.104 89.6555 44.6213 89.5212 45.1332 89.2526C46.4129 88.5704 47.0315 87.0769 46.5996 85.6963C46.3383 84.8636 45.7517 84.176 45.3038 83.7462C43.1122 81.6296 40.9153 79.5183 38.713 77.4125C36.2014 75.0111 33.6046 72.5238 31.0717 70.058C29.6533 68.6774 28.2296 67.3021 26.8005 65.9268C22.0653 61.3552 17.1756 56.6331 12.5204 51.8358C8.38781 47.5757 6.28686 42.2626 6.27086 36.0417C6.25487 29.4232 8.6651 23.6106 13.4269 18.7649L13.5602 18.6306C14.3387 17.8356 15.1439 17.019 15.8851 16.1541C17.0956 14.7359 17.0476 12.9093 15.7678 11.7113C14.488 10.5134 12.7177 10.5993 11.3633 11.9262C10.3981 12.8717 9.46495 13.8602 8.56378 14.8164C2.9488 20.7688 0.149306 27.7579 0 36.1706V36.2029V36.2351C0.0159971 36.4231 0.0319942 36.638 0.0479913 36.8744C0.0906503 37.4761 0.143974 38.2174 0.223959 38.9588C0.981156 46.093 3.69533 52.0238 8.2865 56.5901C14.6267 62.897 21.1748 69.1985 27.5097 75.2958C30.0906 77.7778 32.6714 80.265 35.2416 82.7523V82.7577Z" fill="#FFEE54"/>
</svg>
