<svg fill="none" height="264" viewBox="0 0 304 264" width="304" xmlns="http://www.w3.org/2000/svg"><path d="m278.666 0-25.333 76 16.889 59.111c12.459-9.528 24.042-103.9166 8.444-135.111z" fill="#5f646e"/><path d="m25.3336 0 25.3328 76-16.8888 59.111c-12.4584-9.528-24.04161-103.9166-8.444-135.111z" fill="#5f646e"/><path d="m253.334 76 25.332-76c-17.175.1064-43.466 20.88-61.86 43.1456-20.044-10.3179-42.262-15.7008-64.806-15.7008s-44.762 5.3829-64.8056 15.7008c-18.3944-22.2656-44.6856-43.0392-61.8608-43.1456l25.3328 76c-16.8888 25.334-33.7776 78.361-50.6664 100 0 0 50.6664 88 152 88 101.334 0 152-88 152-88-16.889-21.639-33.778-74.666-50.666-100z" fill="#3c3c46"/><path d="m87.1943 56.1312c20.3267-9.3439 42.4337-14.1816 64.8057-14.1816s44.479 4.8377 64.805 14.1816c16.384-17.9128 38.993-34.6672 55.885-38.2032l5.976-17.928c-17.175.1064-43.466 20.88-61.861 43.1456-20.043-10.3179-42.261-15.7008-64.805-15.7008s-44.762 5.3829-64.8057 15.7008c-18.3944-22.2656-44.6856-43.0392-61.8608-43.1456l5.976 17.928c16.892 3.536 39.5008 20.2904 55.8848 38.2032z" fill="#4b505a"/><path d="m173.218 163.972c1.223 4.567 3.334 8.847 6.212 12.598s6.467 6.898 10.561 9.262c8.269 4.774 18.095 6.067 27.318 3.596 4.566-1.224 8.847-3.335 12.598-6.213 3.75-2.878 6.898-6.466 9.261-10.56 2.364-4.095 3.898-8.614 4.515-13.302.618-4.687.305-9.45-.918-14.016z" fill="#9745ff"/><path d="m219.582 151.549c1.394 3.457 1.397 7.319.009 10.779-1.389 3.459-4.062 6.247-7.459 7.781-6.4 1.715-13.445-3.814-15.732-12.349" fill="#282834"/><path d="m130.782 163.972c-2.471 9.223-8.505 17.086-16.773 21.86-8.269 4.774-18.0954 6.067-27.3179 3.596-9.2226-2.471-17.0857-8.505-21.8596-16.773-4.7739-8.269-6.0676-18.096-3.5964-27.318z" fill="#9745ff"/><path d="m84.4175 151.549c-1.394 3.457-1.3969 7.319-.0083 10.779 1.3886 3.459 4.0613 6.247 7.4587 7.781 6.4 1.716 13.4451-3.814 15.7321-12.349" fill="#282834"/><path d="m152 244c-1.061 0-2.078-.421-2.828-1.172-.751-.75-1.172-1.767-1.172-2.828v-16c0-1.061.421-2.078 1.172-2.828.75-.751 1.767-1.172 2.828-1.172s2.078.421 2.828 1.172c.751.75 1.172 1.767 1.172 2.828v16c0 1.061-.421 2.078-1.172 2.828-.75.751-1.767 1.172-2.828 1.172z" fill="#282834"/><path d="m136 208.022c0 8.836 16 16 16 16s16-7.164 16-16-7.163-8-16-8-16-.837-16 8z" fill="#5f646e"/></svg>