<?xml version="1.0" encoding="UTF-8"?>
<svg version="1.1" xmlns="http://www.w3.org/2000/svg" width="3000" height="3000">
<path d="M0 0 C990 0 1980 0 3000 0 C3000 990 3000 1980 3000 3000 C2010 3000 1020 3000 0 3000 C0 2010 0 1020 0 0 Z " fill="#333332" transform="translate(0,0)"/>
<path d="M0 0 C3.98201053 0.00012111 7.96383547 -0.020373 11.94580078 -0.03930664 C35.18852173 -0.09482954 57.11466146 2.16789608 79.94970703 6.37280273 C81.04360748 6.57194275 82.13750793 6.77108276 83.26455688 6.97625732 C100.16406334 10.06122363 116.85843239 13.46401242 133.38720703 18.18530273 C134.26860352 18.43393066 135.15 18.68255859 136.05810547 18.9387207 C141.63761229 20.53092143 147.17171551 22.24730232 152.69824219 24.01391602 C155.46582976 24.89273039 158.23575618 25.76032834 161.00976562 26.6184082 C186.1584853 34.40685939 210.48596603 43.12897621 234.38720703 54.18530273 C235.03884827 54.48585571 235.6904895 54.78640869 236.36187744 55.09606934 C282.78813252 76.54901127 326.25795736 103.12131424 365.66796875 135.77026367 C367.19891815 137.03032938 368.7470135 138.26949743 370.29736328 139.50561523 C377.7544527 145.45810782 384.64935433 151.94691836 391.58105469 158.49243164 C394.19595228 160.94332376 396.85475382 163.34310597 399.51220703 165.74780273 C407.93180083 173.45156062 416.19968339 181.3993838 423.59033203 190.10717773 C425.45705254 192.26608059 427.38596345 194.36066096 429.32788086 196.4519043 C434.94015396 202.5007406 440.22998165 208.74090209 445.38720703 215.18530273 C446.30961078 216.3161423 447.23282899 217.44631788 448.15673828 218.57592773 C459.75829199 232.82618526 470.40597571 247.76113981 480.38720703 263.18530273 C480.84949707 263.89734863 481.31178711 264.60939453 481.78808594 265.34301758 C511.04047305 310.55480388 536.23893565 360.80496811 550.02246094 413.0949707 C550.89353795 416.38326068 551.80427855 419.65454469 552.76757812 422.91699219 C556.58230423 435.83762843 559.74449684 448.82873116 562.57470703 461.99780273 C562.79298157 463.00543671 563.0112561 464.01307068 563.23614502 465.05123901 C566.19645251 478.77107865 568.71367384 492.32028281 570.07324219 506.29858398 C570.82912547 513.24847816 571.91841978 520.16358443 572.94335938 527.078125 C575.72325922 546.58418062 576.73940649 566.19948958 577.44970703 585.87280273 C577.60378585 590.02268019 577.76146065 594.17240311 577.92236328 598.32202148 C577.95997772 599.30399506 577.99759216 600.28596863 578.03634644 601.29769897 C578.22684836 606.0420992 578.47704599 610.75802163 578.93017578 615.48608398 C579.38778914 620.34013286 579.48224102 625.15758231 579.52783203 630.02905273 C579.53745468 630.81298904 579.54707733 631.59692535 579.55699158 632.40461731 C579.63705782 638.93788124 579.63705782 638.93788124 579.63769531 642.13110352 C579.6721208 666.6371321 593.07142544 683.89801674 609.87939453 700.72436523 C611.69260593 702.52118409 613.51258857 704.31067586 615.33764648 706.09545898 C618.75673117 709.46436646 621.86998629 712.89035067 624.82470703 716.68530273 C631.17899992 724.72300903 638.99823465 731.42944202 646.66064453 738.19165039 C653.55325994 744.30540026 660.04374866 750.75659954 666.51220703 757.31030273 C675.31860326 766.23326621 675.31860326 766.23326621 684.6171875 774.63793945 C687.51999238 777.1755915 690.19409419 779.92897909 692.88720703 782.68530273 C696.95785254 786.80744577 701.07722031 790.7625409 705.49658203 794.51342773 C708.44897219 797.12421903 711.17520526 799.95139322 713.91845703 802.77905273 C715.91970291 804.72963416 717.94835759 806.54801136 720.06616211 808.36645508 C724.2118227 811.98287865 728.11944381 815.78879258 731.99267578 819.69311523 C732.67977127 820.38162567 733.36686676 821.07013611 734.07478333 821.7795105 C736.24381319 823.954076 738.40932381 826.13210659 740.57470703 828.31030273 C742.03736332 829.77798422 743.50025208 831.24543408 744.96337891 832.71264648 C747.64670304 835.40408922 750.32869567 838.09684282 753.0090332 840.79125977 C757.47230926 845.27697036 761.9506208 849.74715338 766.44189453 854.20483398 C767.88808977 855.64364731 769.33379848 857.08294754 770.77929688 858.52246094 C771.76341903 859.50156041 772.74843765 860.47975968 773.734375 861.45703125 C778.9485778 866.62680966 784.07680251 871.82244776 788.85351562 877.40429688 C791.2420194 880.17795734 793.75836146 882.8286924 796.26220703 885.49780273 C800.76243211 890.33101202 805.04026511 895.28664711 809.15673828 900.45483398 C810.96634545 902.6700974 812.81879554 904.8072311 814.71923828 906.94311523 C828.70656645 922.86217805 840.04301518 940.73813473 848.38720703 960.18530273 C848.74943359 961.00514648 849.11166016 961.82499023 849.48486328 962.66967773 C852.2542946 969.72850734 852.75717802 977.68215736 850.54345703 984.95874023 C848.07398491 990.38156752 844.69438561 994.28336361 840.35986328 998.31811523 C838.53909742 1000.04153322 836.96954188 1001.80761014 835.38720703 1003.74780273 C832.70279774 1006.94455896 829.74534622 1009.61942984 826.56689453 1012.31811523 C824.24724172 1014.30520134 822.00849086 1016.36577567 819.76220703 1018.43530273 C813.56180439 1024.02133622 807.01004963 1029.11511826 800.38720703 1034.18530273 C799.46294922 1034.89493164 799.46294922 1034.89493164 798.52001953 1035.61889648 C781.6544078 1048.530537 764.14042056 1060.53311385 746.38720703 1072.18530273 C745.71189941 1072.6290625 745.0365918 1073.07282227 744.34082031 1073.5300293 C727.65453499 1084.47066092 710.74626681 1095.08555666 693.57470703 1105.24780273 C692.71079346 1105.75939941 691.84687988 1106.27099609 690.95678711 1106.7980957 C684.83812241 1110.3939715 678.63454259 1113.81848856 672.38720703 1117.18530273 C677.77593238 1153.61952041 691.64837073 1192.24580335 718.57470703 1218.24780273 C725.65733581 1225.16494953 730.42488892 1232.34917384 730.69970703 1242.37280273 C730.57348939 1251.87699122 725.96317689 1259.50513617 719.38720703 1266.18530273 C710.60667749 1273.39964232 700.67642682 1278.48738052 690.38720703 1283.18530273 C689.25283203 1283.70866211 688.11845703 1284.23202148 686.94970703 1284.77124023 C667.16867731 1293.26809164 645.47484864 1297.35747694 624.38720703 1301.18530273 C623.52901367 1301.35336426 622.67082031 1301.52142578 621.78662109 1301.69458008 C611.25004226 1303.64110425 600.55341693 1304.30815859 589.88720703 1305.18530273 C586.90537525 1305.43403162 583.92367216 1305.68420359 580.94207764 1305.9357605 C578.96373521 1306.10248116 576.98525845 1306.26761526 575.00665283 1306.43118286 C570.42886654 1306.81510999 565.86061026 1307.22887142 561.29638672 1307.7512207 C548.37678331 1309.22134709 535.63251602 1309.42184142 522.63720703 1309.31030273 C520.56038852 1309.30023528 518.48356518 1309.2911162 516.40673828 1309.28295898 C511.40010508 1309.26128414 506.3937121 1309.22697019 501.38720703 1309.18530273 C502.01900205 1310.47838648 502.65416955 1311.76982285 503.29077148 1313.06054688 C503.64412064 1313.77988907 503.99746979 1314.49923126 504.36152649 1315.2403717 C511.92950894 1329.59104261 536.41145479 1335.87830832 550.55761719 1340.32592773 C567.77168052 1345.55401254 585.37524047 1348.5066446 603.13110352 1351.22338867 C686.08051189 1363.96353153 686.08051189 1363.96353153 702.20751953 1384.50952148 C706.37828088 1390.43421227 708.18510045 1396.39794222 706.98486328 1403.59936523 C702.51140569 1420.27556808 690.78115198 1431.95699688 678.87548828 1443.70874023 C675.17196044 1447.3761599 671.71286392 1451.17326949 668.38720703 1455.18530273 C667.70787109 1455.95229492 667.02853516 1456.71928711 666.32861328 1457.50952148 C646.37779241 1480.64140911 638.22445847 1508.91167212 640.38720703 1539.18530273 C643.53570262 1564.35227747 652.33315245 1589.04443487 662.38720703 1612.18530273 C663.36850761 1614.44475203 664.34675578 1616.70505022 665.31079102 1618.97192383 C666.12249634 1620.87890744 666.95123747 1622.77861677 667.78173828 1624.67749023 C672.44289078 1636.91969555 674.14383217 1648.85393074 674.01220703 1661.87280273 C674.00922607 1662.60965302 674.00624512 1663.3465033 674.00317383 1664.10568237 C673.91076737 1676.87863406 672.27174559 1688.28614541 667.38720703 1700.18530273 C667.08218262 1700.94568848 666.7771582 1701.70607422 666.46289062 1702.48950195 C660.53874056 1716.91017092 652.16684369 1728.9130992 641.38720703 1740.18530273 C640.72591797 1740.92135742 640.06462891 1741.65741211 639.38330078 1742.41577148 C632.68034995 1749.60204705 624.6646532 1754.97488304 616.38720703 1760.18530273 C615.04335937 1761.03125 615.04335937 1761.03125 613.67236328 1761.89428711 C606.38858255 1766.31932804 599.01962209 1769.55189869 591.01220703 1772.43530273 C589.89587891 1772.85553711 588.77955078 1773.27577148 587.62939453 1773.70874023 C548.34888665 1788.09952538 506.64251174 1782.09220091 466.45289612 1775.72006226 C433.37636349 1770.53893159 400.93762816 1769.6072448 367.48687744 1769.79406738 C362.58913074 1769.81578036 357.69149338 1769.81491285 352.79370689 1769.81405258 C317.78005834 1769.81555265 283.09574313 1770.4579853 248.52392578 1776.66577148 C245.94429199 1777.09303337 243.37382341 1777.46035039 240.78173828 1777.79858398 C229.63284822 1779.26654227 218.76637722 1781.29078111 207.82861328 1783.90405273 C201.37282686 1785.44624498 194.87943019 1786.80633911 188.38720703 1788.18530273 C129.91294127 1800.66459105 72.48765872 1820.57300279 20.38720703 1850.18530273 C19.63922852 1850.60634277 18.89125 1851.02738281 18.12060547 1851.46118164 C1.06946819 1861.08782417 -15.36473982 1871.89051263 -30.61279297 1884.18530273 C-32.02044922 1885.30485352 -32.02044922 1885.30485352 -33.45654297 1886.44702148 C-39.17706624 1891.05075721 -44.652429 1895.87276555 -50.05419922 1900.84545898 C-52.250912 1902.85436121 -54.47828666 1904.81044386 -56.73779297 1906.74780273 C-63.92472294 1913.00880922 -70.51731227 1919.86358276 -76.61279297 1927.18530273 C-77.04462891 1927.70334473 -77.47646484 1928.22138672 -77.92138672 1928.75512695 C-89.44234663 1942.65287026 -99.10661955 1957.27178362 -107.61279297 1973.18530273 C-107.95552246 1973.82016602 -108.29825195 1974.4550293 -108.65136719 1975.10913086 C-118.00898131 1992.57906627 -124.22010011 2011.16788966 -129.61279297 2030.18530273 C-129.94279297 2030.18530273 -130.27279297 2030.18530273 -130.61279297 2030.18530273 C-130.65810874 2008.24591413 -130.58810643 1986.31047501 -130.30029297 1964.37280273 C-130.29054192 1963.62363335 -130.28079086 1962.87446396 -130.27074432 1962.10259247 C-129.90664198 1934.69587249 -128.8075424 1907.39987395 -126.82104492 1880.05810547 C-126.60935375 1877.13785931 -126.40251291 1874.21730223 -126.19677734 1871.29663086 C-124.02429191 1840.55700414 -124.02429191 1840.55700414 -123.09570312 1832.83081055 C-122.63542111 1828.78885637 -122.44812234 1824.77473519 -122.32226562 1820.71011353 C-121.93116729 1808.26095056 -120.44450848 1796.11848503 -118.61279297 1783.81030273 C-118.06315448 1780.07443829 -117.52093619 1776.3376199 -116.98779297 1772.59936523 C-116.85841339 1771.69447861 -116.72903381 1770.78959198 -116.59573364 1769.85728455 C-115.87720495 1764.65625226 -115.40383316 1759.5353097 -115.16748047 1754.29077148 C-114.62638195 1743.68416371 -112.59689253 1733.31383149 -110.73779297 1722.87280273 C-110.20476787 1719.8352399 -109.67422131 1716.79725269 -109.14416504 1713.75917053 C-108.79624868 1711.76584059 -108.44721613 1709.77270513 -108.0970459 1707.7797699 C-107.00940518 1701.56471242 -105.99086528 1695.34252412 -105.02685547 1689.10717773 C-103.81293767 1681.28414062 -102.42426556 1673.50998355 -100.86279297 1665.74780273 C-100.60892822 1664.48137939 -100.35506348 1663.21495605 -100.09350586 1661.91015625 C-97.59561958 1649.61963857 -94.53382011 1637.48296484 -91.40917969 1625.33911133 C-90.45686321 1621.56779794 -89.57372826 1617.78330577 -88.70214844 1613.99267578 C-71.10484804 1537.6332219 -39.18669864 1462.81874321 3.38720703 1397.18530273 C4.06009766 1396.14631836 4.73298828 1395.10733398 5.42626953 1394.03686523 C7.38290452 1391.06444527 9.37592791 1388.12106455 11.38720703 1385.18530273 C11.86319336 1384.48920898 12.33917969 1383.79311523 12.82958984 1383.07592773 C21.93992764 1369.79210797 31.5136188 1356.91008757 41.38720703 1344.18530273 C41.92539063 1343.49114258 42.46357422 1342.79698242 43.01806641 1342.08178711 C51.21422927 1331.53174565 59.65343278 1321.19525919 68.30566406 1311.01660156 C71.16588436 1307.64680178 73.97980246 1304.24499263 76.76220703 1300.81030273 C81.94485264 1294.44516401 87.34752697 1288.27633806 92.73632812 1282.08618164 C103.39201143 1269.8168604 113.95735704 1257.45748543 124.21533203 1244.85327148 C125.65815464 1243.08088327 127.10604737 1241.31260987 128.55908203 1239.54858398 C134.15527999 1232.75178327 139.62450893 1225.86270297 145.03613281 1218.91870117 C146.30585968 1217.28966959 147.57884478 1215.66317908 148.85205078 1214.03686523 C158.88129119 1201.13051697 168.47962112 1187.89193686 177.38720703 1174.18530273 C178.24629952 1172.88042919 179.10569501 1171.57575511 179.96533203 1170.27124023 C213.26962487 1119.52632479 238.2688553 1063.39597292 253.72314453 1004.67211914 C254.46861278 1001.8804502 255.25474718 999.10177556 256.04345703 996.32202148 C267.30271576 956.23794038 273.31642455 915.50342284 277.63919067 874.16108704 C278.03455413 870.3933931 278.44904358 866.63172192 278.9309082 862.87402344 C281.67557378 840.68614101 280.5917155 817.74585441 280.40356445 795.43280029 C280.389466 793.49568331 280.38453247 791.55850356 280.38134766 789.62133789 C280.30909216 767.34858224 276.7055516 745.21414395 273.78060913 723.17666626 C273.37812554 720.11624858 272.98542999 717.0547116 272.59545898 713.99267578 C270.77910012 699.57109107 270.77910012 699.57109107 268.32470703 685.24780273 C268.12264648 684.21244385 267.92058594 683.17708496 267.71240234 682.11035156 C262.24409232 655.09263399 255.15945657 628.3139671 246.38720703 602.18530273 C246.00628906 601.04802734 245.62537109 599.91075195 245.23291016 598.73901367 C227.25223831 545.61974102 202.15544034 494.41456978 170.38720703 448.18530273 C169.67661133 447.14841309 169.67661133 447.14841309 168.95166016 446.09057617 C157.8357986 429.93521907 146.02271417 414.18562039 133.38720703 399.18530273 C132.52111091 398.14511356 131.6552383 397.10473824 130.78955078 396.06420898 C125.38583599 389.59680854 119.83006133 383.30561081 114.09033203 377.13452148 C112.69767762 375.63432619 111.33485757 374.12363598 110.01000977 372.56298828 C104.33704649 365.88475767 98.11005958 359.75755055 91.90844727 353.57617188 C89.9542508 351.62733404 88.00545556 349.67321001 86.05712891 347.71850586 C80.00263083 341.66077016 73.93732642 335.71187039 67.38720703 330.18530273 C65.77952331 328.73084756 64.17480989 327.27309379 62.57470703 325.81030273 C57.3254482 321.07958771 51.89161707 316.6144658 46.38720703 312.18530273 C45.26585402 311.27155832 44.14477192 310.35748134 43.02392578 309.44311523 C33.82043318 301.96920551 24.35501871 294.89059225 14.76611328 287.92016602 C12.48599781 286.25734781 10.21674836 284.58072725 7.94970703 282.90014648 C-9.01605985 270.38948046 -26.94723687 259.31927988 -45.1171875 248.65209961 C-46.7410333 247.69768114 -48.36197455 246.73829775 -49.97949219 245.77319336 C-80.98060941 227.32393419 -113.95152623 211.16285721 -147.61279297 198.18530273 C-148.61070862 197.79912781 -148.61070862 197.79912781 -149.62878418 197.40515137 C-167.17708527 190.62496154 -184.89022905 184.31440206 -202.67529297 178.18530273 C-203.44809601 177.91758057 -204.22089905 177.6498584 -205.01712036 177.37402344 C-214.81492877 173.98851819 -224.65415987 170.96241076 -234.66503906 168.26953125 C-238.19997087 167.31441203 -241.68910181 166.24409397 -245.17529297 165.12280273 C-251.34791598 163.18949062 -257.57905166 161.72594207 -263.88623047 160.31030273 C-267.69420251 159.43626554 -271.44836728 158.40831964 -275.21435547 157.36889648 C-285.58012503 154.55428334 -296.09887748 152.42643781 -306.61279297 150.24780273 C-307.66184814 150.02908508 -308.71090332 149.81036743 -309.79174805 149.58502197 C-327.32862028 145.93734988 -344.88278451 142.74011886 -362.61279297 140.18530273 C-359.23987115 136.63453385 -355.85922996 133.81886254 -351.76513672 131.13842773 C-351.20490311 130.77003281 -350.64466949 130.40163788 -350.06745911 130.02207947 C-348.23290257 128.81942871 -346.39215471 127.6267307 -344.55029297 126.43530273 C-343.91297241 126.0206778 -343.27565186 125.60605286 -342.61901855 125.17886353 C-321.7748582 111.6222574 -300.50995683 98.82967164 -278.70166016 86.87817383 C-276.64276758 85.74978613 -274.58611803 84.61729604 -272.53173828 83.48071289 C-218.28286254 53.483974 -160.67502118 28.82946052 -100.61279297 13.18530273 C-98.93032471 12.74275146 -98.93032471 12.74275146 -97.21386719 12.29125977 C-83.32122637 8.67272045 -69.40377755 5.61211806 -55.23779297 3.31030273 C-53.99755371 3.10711426 -52.75731445 2.90392578 -51.47949219 2.69458008 C-34.33731467 0.03874976 -17.30851111 -0.00105862 0 0 Z " fill="#FE5F00" transform="translate(1903.61279296875,236.814697265625)"/>
<path d="M0 0 C3.84998371 0.00314363 7.69918368 -0.02033417 11.54907227 -0.0456543 C34.13262607 -0.10410818 56.66953591 1.42756066 78.82446289 6.00317383 C80.72615234 6.38554199 80.72615234 6.38554199 82.66625977 6.77563477 C161.1474911 22.8142415 236.42346339 56.26968571 305.44946289 96.31567383 C306.38129395 96.85579102 307.313125 97.3959082 308.27319336 97.95239258 C329.93547994 110.54665828 350.80748005 124.12794478 371.44946289 138.31567383 C369.1232492 140.64188752 368.12899929 140.76323758 364.95678711 141.34960938 C363.54864746 141.61618851 363.54864746 141.61618851 362.11206055 141.88815308 C361.0864502 142.07435211 360.06083984 142.26055115 359.00415039 142.45239258 C357.93874023 142.65261017 356.87333008 142.85282776 355.77563477 143.05911255 C353.48453179 143.48935835 351.19281842 143.91636367 348.90057373 144.34048462 C342.93412195 145.44612798 336.97306732 146.58004569 331.01196289 147.71411133 C329.83471649 147.93772842 328.65747009 148.16134552 327.44454956 148.39173889 C308.72610056 151.96200567 290.00732466 155.73997296 271.70727539 161.09692383 C268.69542376 161.97555656 265.67364948 162.77659656 262.62915039 163.53442383 C171.11674386 186.34856059 82.61700978 226.11035387 5.44946289 280.31567383 C4.80299805 280.7678125 4.1565332 281.21995117 3.49047852 281.68579102 C-10.03629731 291.16301483 -22.93758644 301.35407133 -35.71264648 311.81420898 C-37.35709274 313.15763944 -39.00807663 314.49305814 -40.65991211 315.82739258 C-45.98421826 320.13647086 -51.14426584 324.57673039 -56.20678711 329.19067383 C-58.35746422 331.14062107 -60.53878682 333.04593512 -62.73803711 334.94067383 C-65.9030434 337.69340475 -68.85438713 340.59806824 -71.79272461 343.58911133 C-73.52717059 345.29272271 -75.32292258 346.8671142 -77.17553711 348.44067383 C-85.24496258 355.4090081 -92.85562531 363.11015894 -99.75366211 371.23754883 C-101.62049452 373.3965811 -103.5495786 375.49125048 -105.49145508 377.58276367 C-110.27974395 382.74276853 -114.84847771 388.01421656 -119.26147461 393.50317383 C-121.24405725 395.93911155 -123.27475716 398.32258638 -125.33154297 400.69580078 C-137.74837357 415.0839865 -148.76087585 430.68763484 -159.55053711 446.31567383 C-159.94982422 446.88930664 -160.34911133 447.46293945 -160.76049805 448.05395508 C-174.73540905 468.196696 -187.21727561 489.59422186 -198.55053711 511.31567383 C-199.06003906 512.28553223 -199.56954102 513.25539063 -200.09448242 514.25463867 C-220.05026108 552.45517501 -235.48295887 592.83918346 -246.51928711 634.47851562 C-247.25140554 637.20264094 -247.99877602 639.91819302 -248.76928711 642.63134766 C-251.69483198 652.94118812 -254.29119202 663.27707954 -256.55053711 673.75317383 C-256.72006897 674.5348291 -256.88960083 675.31648437 -257.06427002 676.12182617 C-261.9468071 698.80155638 -265.20533581 721.75402689 -267.15209961 744.87036133 C-267.45161794 748.39008186 -267.84714478 751.88567236 -268.31762695 755.38647461 C-270.63104763 772.94170492 -270.71636887 790.38151248 -270.67553711 808.06567383 C-270.67365387 809.28977966 -270.67177063 810.5138855 -270.66983032 811.77508545 C-270.97456048 844.30412332 -270.97456048 844.30412332 -267.84375 876.61791992 C-266.9058778 882.45958706 -266.21453211 888.29641271 -265.64038086 894.18286133 C-265.56259399 894.97983932 -265.48480713 895.77681732 -265.40466309 896.59794617 C-265.24383983 898.24912163 -265.08305344 899.90030068 -264.92230225 901.55148315 C-263.46674302 916.38159032 -261.44866965 930.83798674 -258.18725586 945.39575195 C-257.29484956 949.48822871 -256.51413533 953.6000344 -255.72460938 957.71337891 C-251.85513867 977.73731056 -246.82707356 997.37412803 -240.66088867 1016.8112793 C-239.84980712 1019.37114399 -239.04453226 1021.93242417 -238.24487305 1024.49584961 C-229.2349358 1053.33960411 -218.5670093 1081.00861797 -205.55053711 1108.31567383 C-205.11273926 1109.23654785 -204.67494141 1110.15742187 -204.22387695 1111.10620117 C-197.10636219 1125.97149599 -189.07834911 1140.2174383 -180.55053711 1154.31567383 C-179.93098145 1155.34047852 -179.31142578 1156.3652832 -178.6730957 1157.42114258 C-170.52697021 1170.82493513 -161.95311273 1183.76270058 -152.55053711 1196.31567383 C-151.73105598 1197.42079368 -150.91201147 1198.52623751 -150.09350586 1199.63208008 C-144.66441638 1206.92474493 -139.12104425 1214.13073773 -133.55053711 1221.31567383 C-132.88900635 1222.17080566 -132.88900635 1222.17080566 -132.21411133 1223.04321289 C-126.36479979 1230.59356746 -120.36283105 1237.97912398 -114.15991211 1245.24145508 C-111.78784676 1248.0230047 -109.47560998 1250.84916044 -107.17553711 1253.69067383 C-103.00832587 1258.8138045 -98.68741254 1263.79162311 -94.34790039 1268.76831055 C-90.44644657 1273.252989 -86.66575804 1277.82040091 -82.92553711 1282.44067383 C-80.02557646 1285.95115251 -77.04289459 1289.38394525 -74.05053711 1292.81567383 C-69.53263224 1297.998473 -65.11127164 1303.2404142 -60.78491211 1308.58520508 C-58.742386 1311.08122912 -56.66583166 1313.5414958 -54.57128906 1315.99365234 C-48.88399622 1322.65386322 -43.42287396 1329.46309459 -38.05444336 1336.38208008 C-36.45541508 1338.43797358 -34.84733672 1340.4865622 -33.23803711 1342.53442383 C-29.64955483 1347.10829707 -26.09107617 1351.70460344 -22.55053711 1356.31567383 C-21.99527344 1357.03787109 -21.44000977 1357.76006836 -20.86791992 1358.50415039 C-9.6117329 1373.23093968 0.45523811 1388.71967039 10.44946289 1404.31567383 C11.07804199 1405.29391113 11.70662109 1406.27214844 12.35424805 1407.2800293 C20.51581986 1420.03663705 27.88728887 1433.14144198 34.96655273 1446.52612305 C36.30330591 1449.04073315 37.66157416 1451.54168699 39.03149414 1454.03833008 C59.17186766 1491.00672802 73.84865352 1531.2407343 86.44946289 1571.31567383 C86.95848145 1572.9319165 86.95848145 1572.9319165 87.4777832 1574.58081055 C89.61447167 1581.45393888 91.57501223 1588.36675432 93.44946289 1595.31567383 C93.62995178 1595.98391174 93.81044067 1596.65214966 93.99639893 1597.34063721 C100.10440161 1620.00882263 105.45300188 1642.7702606 110.0974884 1665.78207397 C111.0194068 1670.32047795 112.01475941 1674.83722225 113.04983521 1679.35108948 C114.78687144 1686.94553294 116.1633722 1694.42941221 116.94946289 1702.19067383 C117.68667062 1709.40700303 118.85693954 1716.41684638 120.35571289 1723.50708008 C122.82723348 1735.3766043 124.13965229 1747.33459169 125.44946289 1759.37817383 C125.68563769 1761.49610222 125.92261584 1763.61394119 126.16040039 1765.73168945 C126.5283198 1769.01142592 126.89413883 1772.29132775 127.25357056 1775.57200623 C127.94627926 1781.88766748 128.67082585 1788.19808746 129.43530273 1794.50537109 C131.89313779 1814.91124342 133.62052316 1835.29729684 134.925354 1855.80755615 C135.1237123 1858.89465434 135.33024518 1861.98118172 135.53690147 1865.06773376 C136.05600175 1872.82458246 136.55178496 1880.5825732 137.02269554 1888.34249878 C137.25538557 1892.17591684 137.49291852 1896.00884788 137.74468994 1899.84106445 C139.49325692 1926.55821516 139.70040147 1953.19498122 139.58679199 1979.96331787 C139.56585961 1985.44273253 139.55709998 1990.92216772 139.54711914 1996.40161133 C139.52604643 2007.03968319 139.49218892 2017.67766833 139.44946289 2028.31567383 C137.54929083 2025.46541574 136.73267891 2023.39022719 135.75024414 2020.15161133 C135.43200684 2019.12052246 135.11376953 2018.08943359 134.78588867 2017.02709961 C134.44799316 2015.9260791 134.11009766 2014.82505859 133.76196289 2013.69067383 C124.7237705 1984.9803995 111.26491228 1958.91417516 92.44946289 1935.31567383 C91.66313477 1934.32438477 90.87680664 1933.3330957 90.06665039 1932.31176758 C83.34254004 1924.07151059 75.88030169 1916.53608531 68.38696289 1909.00317383 C67.88035126 1908.49129517 67.37373962 1907.9794165 66.85177612 1907.45202637 C60.05678236 1900.60251226 53.03353441 1894.30085466 45.44946289 1888.31567383 C44.29207644 1887.37436109 43.13563828 1886.4318795 41.98071289 1885.48754883 C26.37870817 1873.02202959 9.71063867 1862.32431444 -7.55053711 1852.31567383 C-8.2537207 1851.90285156 -8.9569043 1851.4900293 -9.68139648 1851.06469727 C-53.44217601 1825.45731289 -102.63207155 1807.22347619 -151.55053711 1794.31567383 C-152.60772949 1794.035625 -153.66492188 1793.75557617 -154.75415039 1793.46704102 C-175.09410075 1788.15685795 -195.65075882 1784.30434446 -216.347229 1780.70239258 C-219.61411213 1780.12899798 -222.8767187 1779.53209029 -226.14038086 1778.94067383 C-246.46096097 1775.3653257 -266.93129813 1773.33351348 -287.45678711 1771.33129883 C-288.35274094 1771.24298798 -289.24869476 1771.15467712 -290.17179871 1771.06369019 C-304.20460734 1769.72413102 -318.10145896 1769.15386184 -332.18725586 1769.14770508 C-333.95962041 1769.14447674 -335.73198471 1769.14111161 -337.50434875 1769.13761902 C-341.20472834 1769.13167278 -344.90508474 1769.12977416 -348.60546875 1769.13037109 C-352.33728937 1769.1304519 -356.06898606 1769.12357466 -359.80078125 1769.10986328 C-396.95161376 1768.97543099 -433.15021395 1771.45004344 -469.86303711 1777.37817383 C-519.26276044 1785.33348833 -570.66650488 1786.13049217 -613.29223633 1756.08813477 C-617.15263617 1753.28991918 -620.86565857 1750.34064602 -624.55053711 1747.31567383 C-625.42323242 1746.60926758 -626.29592773 1745.90286133 -627.19506836 1745.17504883 C-649.07334408 1726.56990097 -662.38256731 1699.26995375 -664.75756836 1670.8371582 C-665.26263435 1661.92635112 -664.61526627 1653.1954239 -663.30053711 1644.37817383 C-663.19153076 1643.6458252 -663.08252441 1642.91347656 -662.97021484 1642.15893555 C-661.09175764 1631.15882792 -656.67800561 1620.98401177 -652.23803711 1610.81567383 C-644.4798315 1592.71362372 -638.23862744 1574.45404738 -633.55053711 1555.31567383 C-633.25252197 1554.16143921 -633.25252197 1554.16143921 -632.94848633 1552.98388672 C-631.32517967 1546.02325725 -631.24503536 1539.15699984 -631.28979492 1532.03076172 C-631.30046546 1530.01669833 -631.28986998 1528.00353752 -631.27709961 1525.98950195 C-631.33272506 1497.69005461 -641.24283076 1474.39946511 -660.41772461 1453.63208008 C-662.24508958 1451.64741446 -663.99731436 1449.62567487 -665.73803711 1447.56567383 C-667.97087392 1444.97370942 -670.30993184 1442.56015833 -672.78100586 1440.19848633 C-684.27991102 1429.17518214 -697.16752725 1414.9024918 -698.17553711 1398.12817383 C-697.71615562 1390.38076713 -693.21783923 1384.17074837 -687.67944336 1379.00317383 C-670.80132644 1365.62455638 -648.49246355 1361.46689793 -627.86303711 1357.37817383 C-627.00202393 1357.20547974 -626.14101074 1357.03278564 -625.25390625 1356.8548584 C-611.35653919 1354.07806911 -597.43383097 1351.80220606 -583.37207031 1350.03857422 C-556.07766718 1346.54834252 -515.82182495 1338.91067351 -496.40991211 1318.01098633 C-494.90536925 1315.83003134 -493.93442276 1314.05500049 -492.93432617 1311.6472168 C-492.47767578 1310.54780762 -492.02102539 1309.44839844 -491.55053711 1308.31567383 C-493.38430908 1308.34709473 -493.38430908 1308.34709473 -495.25512695 1308.37915039 C-527.23314039 1308.87463575 -558.73616485 1307.5917344 -590.55053711 1304.31567383 C-591.31154724 1304.23833008 -592.07255737 1304.16098633 -592.85662842 1304.08129883 C-630.2789253 1300.23618223 -685.19719987 1292.6802133 -712.17553711 1263.56176758 C-717.88134644 1256.05668315 -722.81780041 1247.97855652 -721.55053711 1238.31567383 C-719.44635024 1229.00511248 -712.84142061 1222.49815805 -706.17553711 1216.06567383 C-684.6295493 1195.09306953 -672.52813716 1162.59289121 -665.61303711 1133.94067383 C-665.40146973 1133.06709229 -665.18990234 1132.19351074 -664.97192383 1131.29345703 C-663.47197552 1124.8670738 -663.47197552 1124.8670738 -663.55053711 1118.31567383 C-668.01618373 1112.41370812 -676.51135421 1109.03925873 -682.92602539 1105.56176758 C-692.73610589 1100.20542807 -702.13211403 1094.19236994 -711.56616211 1088.20629883 C-714.36778749 1086.43144715 -717.17657728 1084.66864138 -719.98803711 1082.90942383 C-751.20425974 1063.30753972 -781.59112012 1042.37817614 -809.55053711 1018.31567383 C-810.2659668 1017.70208008 -810.98139648 1017.08848633 -811.71850586 1016.45629883 C-813.6780325 1014.75938916 -815.6175252 1013.04273867 -817.55053711 1011.31567383 C-818.97172852 1010.05110352 -818.97172852 1010.05110352 -820.42163086 1008.76098633 C-840.19480334 991.02397426 -840.19480334 991.02397426 -841.89038086 978.88208008 C-842.90265489 953.57522931 -822.38769982 928.96948554 -807.55053711 910.31567383 C-807.11821777 909.77007813 -806.68589844 909.22448242 -806.24047852 908.66235352 C-801.6516441 902.89321345 -796.85984306 897.33792229 -791.88647461 891.89770508 C-789.97491953 889.78476544 -788.09833147 887.65030999 -786.23022461 885.49926758 C-782.67929223 881.43161987 -779.01038373 877.48818681 -775.30053711 873.56567383 C-770.98172582 868.99281482 -766.70798978 864.38676082 -762.48413086 859.72583008 C-756.43912534 853.09354959 -750.12511879 846.73860527 -743.77001953 840.40478516 C-741.85128206 838.49145189 -739.93800957 836.57276879 -738.02514648 834.65356445 C-732.56595382 829.19172088 -727.12229638 823.78664634 -721.23486328 818.78173828 C-718.35691901 816.27672954 -715.71549019 813.54314781 -713.05053711 810.81567383 C-709.04398583 806.75863186 -704.99164381 802.87568183 -700.64038086 799.18676758 C-697.27711617 796.17554554 -694.14797343 792.93293253 -690.9765625 789.72216797 C-687.62455063 786.3447018 -684.16830247 783.17310909 -680.54272461 780.08911133 C-677.28912973 777.19277392 -674.27578315 774.06052111 -671.23803711 770.94067383 C-669.28841959 769.03639625 -667.36123891 767.29626051 -665.28662109 765.54516602 C-658.58084748 759.69448978 -652.37697537 753.30666588 -646.08569336 747.01879883 C-644.68386303 745.62018852 -643.28196049 744.22165059 -641.87998962 742.82318115 C-638.95076917 739.8999247 -636.02359872 736.97463296 -633.09765625 734.0480957 C-629.37323512 730.32357308 -625.64198539 726.60597464 -621.90891361 722.89012527 C-619.01330466 720.00570859 -616.12232687 717.11668333 -613.23257256 714.22640228 C-611.86005898 712.85505799 -610.48594883 711.48530947 -609.11012459 710.11728668 C-601.45137916 702.49791842 -594.19791323 694.84855708 -587.55053711 686.31567383 C-586.60052748 685.14883058 -585.64895306 683.98325763 -584.69506836 682.81958008 C-577.23611991 673.41155967 -570.54996545 663.85285553 -570.36108398 651.43701172 C-570.34436646 650.49575943 -570.32764893 649.55450714 -570.3104248 648.58473206 C-570.29684937 647.5794194 -570.28327393 646.57410675 -570.26928711 645.53833008 C-570.24167297 643.97217201 -570.24167297 643.97217201 -570.21350098 642.37437439 C-570.15487404 639.0423636 -570.10201156 635.71030232 -570.05053711 632.37817383 C-569.98270234 627.99395532 -569.90901511 623.60989205 -569.83178711 619.22583008 C-569.81142395 617.72089745 -569.81142395 617.72089745 -569.79064941 616.18556213 C-569.77393188 615.24115768 -569.75721436 614.29675323 -569.73999023 613.32373047 C-569.72746216 612.49942032 -569.71493408 611.67511017 -569.70202637 610.82582092 C-569.52786978 607.9400807 -569.02759065 605.16609916 -568.55053711 602.31567383 C-568.40998961 600.44410813 -568.30256254 598.56981632 -568.22509766 596.69458008 C-568.1778656 595.60967789 -568.13063354 594.5247757 -568.08197021 593.40699768 C-568.03421448 592.24248581 -567.98645874 591.07797394 -567.93725586 589.87817383 C-567.82538116 587.36112803 -567.71263707 584.84412075 -567.59912109 582.32714844 C-567.54053925 581.0166452 -567.4819574 579.70614197 -567.42160034 578.35592651 C-565.29138968 531.17988277 -565.29138968 531.17988277 -560.54663086 508.44458008 C-559.24874009 502.11649586 -558.50191213 495.71892605 -557.67553711 489.31567383 C-556.28306888 478.91028066 -554.58724307 468.74238285 -552.0847168 458.55151367 C-551.49919932 456.10079653 -550.96294503 453.64234859 -550.43334961 451.17895508 C-542.9939109 416.77851972 -531.92925135 382.44907187 -517.55053711 350.31567383 C-516.91148437 348.87272949 -516.91148437 348.87272949 -516.25952148 347.40063477 C-513.11730768 340.32716236 -509.87164562 333.30683988 -506.55053711 326.31567383 C-506.05714844 325.27685059 -505.56375977 324.23802734 -505.05541992 323.16772461 C-489.262422 290.18407368 -469.69907003 259.3851967 -447.55053711 230.31567383 C-447.06246582 229.67452637 -446.57439453 229.03337891 -446.0715332 228.37280273 C-436.48880482 215.8481536 -426.16487734 203.97282644 -415.55053711 192.31567383 C-414.81577148 191.4880957 -414.08100586 190.66051758 -413.32397461 189.80786133 C-406.89844184 182.64798196 -400.15585589 175.81301862 -393.36303711 169.00317383 C-392.65300034 168.28925476 -392.65300034 168.28925476 -391.92861938 167.56091309 C-386.31164546 161.91974745 -380.60805909 156.47952882 -374.55053711 151.31567383 C-373.35887958 150.27056736 -372.16875333 149.22371211 -370.98022461 148.17504883 C-363.30593206 141.44761928 -355.48687684 134.98929052 -347.40356445 128.76098633 C-345.49226395 127.2702223 -343.60813971 125.74969238 -341.72631836 124.22192383 C-332.28180746 116.61980377 -322.4451244 109.72190361 -312.36303711 103.00317383 C-311.74017822 102.58705841 -311.11731934 102.17094299 -310.47558594 101.74221802 C-296.92109777 92.70805074 -282.96872872 84.42708467 -268.7253418 76.52661133 C-266.44560448 75.25724704 -264.17382052 73.97432282 -261.90209961 72.69067383 C-223.28807279 50.99408239 -181.27042647 34.05512969 -138.55053711 22.31567383 C-137.80481445 22.1092627 -137.0590918 21.90285156 -136.29077148 21.69018555 C-122.46472042 17.89126844 -108.5134062 14.56894591 -94.55053711 11.31567383 C-93.09574951 10.97487793 -93.09574951 10.97487793 -91.61157227 10.62719727 C-80.58771097 8.06596482 -69.54614284 5.87586996 -58.36303711 4.12817383 C-56.88782593 3.89590088 -56.88782593 3.89590088 -55.3828125 3.65893555 C-52.10967361 3.16938967 -48.83365137 2.73332245 -45.55053711 2.31567383 C-44.87818024 2.22740326 -44.20582336 2.13913269 -43.51309204 2.04818726 C-29.02230219 0.19599019 -14.59532142 -0.0247923 0 0 Z " fill="#FE5F00" transform="translate(1086.550537109375,236.684326171875)"/>
<path d="M0 0 C0.85335938 0.65097656 1.70671875 1.30195312 2.5859375 1.97265625 C34.98037933 27.38471839 53.6342716 62.14417727 62.1875 102 C62.44724609 103.18722656 62.70699219 104.37445312 62.97460938 105.59765625 C63.65796084 108.73012525 64.33636307 111.86329752 65 115 C65.17107018 115.74389795 65.34214035 116.48779591 65.51839447 117.25423622 C66.07911085 120.45103244 66.21157175 123.52712235 66.30651855 126.77206421 C66.32656606 127.43467514 66.34661356 128.09728608 66.36726856 128.77997613 C66.43165065 130.9773925 66.48879897 133.17491662 66.54492188 135.37255859 C66.56572028 136.14065943 66.58651869 136.90876028 66.60794735 137.7001369 C67.08917185 155.60847504 67.20056522 173.5164588 67.27039146 191.43029833 C67.2890041 195.90198622 67.31323788 200.37364361 67.33703613 204.8453064 C67.4062388 218.03378495 67.46671727 231.2223015 67.52606201 244.41082764 C67.57278216 254.76624074 67.62177819 265.12163275 67.67754889 275.47700155 C67.70583804 280.77796949 67.72944465 286.07893115 67.74947357 291.37993646 C67.76280624 294.64788517 67.78021334 297.91580261 67.79878426 301.18372536 C67.80656679 302.702356 67.81262469 304.22099656 67.81687737 305.73964119 C67.82288337 307.80219934 67.83490881 309.86463464 67.84851074 311.92715454 C67.85366447 313.08279215 67.85881821 314.23842976 67.86412811 315.42908669 C67.70903155 317.9319659 67.70903155 317.9319659 69 319 C71.08827321 319.09685318 73.17988362 319.12186882 75.270401 319.12025452 C75.93279091 319.12110894 76.59518082 319.12196337 77.27764314 319.12284368 C79.5133287 319.12450033 81.74894042 319.11897414 83.98461914 319.11352539 C85.58080544 319.11324353 87.17699187 319.11340123 88.7731781 319.1139679 C93.12009895 319.11425592 97.46699244 319.10835835 101.81390691 319.10139394 C106.35163947 319.09516128 110.88937259 319.09455667 115.42710876 319.09336853 C124.0260784 319.09025495 132.62503539 319.08204122 141.22399944 319.07201904 C151.01101728 319.06085872 160.79803571 319.05534766 170.58505833 319.05032361 C190.72337929 319.03985862 210.86168885 319.02225868 231 319 C230.99723462 317.5638053 230.99723462 317.5638053 230.99441338 316.09859657 C230.94989078 292.73407344 230.91709008 269.36955585 230.89637566 246.00499916 C230.88609046 234.70579134 230.87208321 223.40661164 230.84912109 212.10742188 C230.82910242 202.25188819 230.81626356 192.39637489 230.81182301 182.54082143 C230.80922991 177.32891207 230.80319331 172.117061 230.78853989 166.90517044 C230.77482159 161.98536259 230.77080571 157.06563625 230.77378464 152.14581108 C230.77324077 150.35375333 230.76934912 148.56169244 230.76158905 146.76965141 C230.70100618 132.03893935 231.49615768 117.31824184 234.625 102.875 C234.7904834 102.1104248 234.9559668 101.34584961 235.12646484 100.55810547 C245.65926132 54.58597812 270.72088932 16.06086112 310.81542969 -9.14111328 C351.12052237 -33.87522333 400.77512655 -38.80725123 446.4296875 -28.44873047 C451.38454866 -27.23283362 456.18934324 -25.69143299 461 -24 C461.81243164 -23.72172363 462.62486328 -23.44344727 463.46191406 -23.15673828 C505.97625028 -8.44146167 539.90210075 20.67392125 560 61 C579.79638555 102.44926532 581.63036231 152.85580163 566.62841797 196.12695312 C554.77362475 228.99616301 533.5073428 256.49830347 506 278 C505.33983887 278.52956299 504.67967773 279.05912598 503.99951172 279.60473633 C498.66548567 283.84106062 493.1762516 287.62144965 487.375 291.1875 C486.47330078 291.74211914 485.57160156 292.29673828 484.64257812 292.86816406 C467.81077746 303.07961092 450.27598768 311.70529247 432 319 C431.04480469 319.38285156 430.08960938 319.76570313 429.10546875 320.16015625 C415.91305039 325.39908517 402.69158106 329.79793461 388.92724609 333.25976562 C385.8690856 334.03310529 382.81948361 334.83556143 379.76953125 335.640625 C344.25360203 344.900276 308.67372587 351.70789213 272 354 C271.67 684.99 271.34 1015.98 271 1357 C321.82 1357 372.64 1357 425 1357 C425 1390 425 1423 425 1457 C242.51 1457 60.02 1457 -128 1457 C-128 1424 -128 1391 -128 1357 C-76.85 1357 -25.7 1357 27 1357 C27 1025.68 27 694.36 27 353 C20.73 353 14.46 353 8 353 C2.03160797 352.25789835 -3.83948135 351.42534012 -9.75 350.375 C-11.36143075 350.09926935 -12.97300638 349.8243842 -14.5847168 349.55029297 C-18.63146265 348.85615112 -22.6737577 348.139378 -26.71453857 347.41137695 C-28.87433904 347.02261864 -31.0349359 346.63864959 -33.19580078 346.25585938 C-76.65550479 338.51512209 -118.96919487 326.81191781 -159 308 C-160.03302246 307.52143555 -160.03302246 307.52143555 -161.08691406 307.03320312 C-184.2482142 296.2451234 -205.6504261 281.77125509 -224 264 C-224.5269043 263.49887695 -225.05380859 262.99775391 -225.59667969 262.48144531 C-243.33434474 245.58592459 -256.16632162 226.39651462 -266 204 C-266.77730469 202.26169922 -266.77730469 202.26169922 -267.5703125 200.48828125 C-280.12580831 169.85424365 -281.37500693 133.15358509 -275 101 C-274.83902832 100.14680176 -274.67805664 99.29360352 -274.51220703 98.41455078 C-268.60865402 67.87599848 -253.35438665 42.10253084 -233 19 C-232.37867188 18.29230469 -231.75734375 17.58460938 -231.1171875 16.85546875 C-220.41945738 5.46214632 -206.65314738 -3.54862126 -193 -11 C-192.37303223 -11.34369629 -191.74606445 -11.68739258 -191.10009766 -12.04150391 C-180.46696505 -17.79111202 -169.45265619 -22.16715734 -158 -26 C-156.82695313 -26.4021875 -155.65390625 -26.804375 -154.4453125 -27.21875 C-104.34484392 -42.49187206 -41.31076066 -32.80560405 0 0 Z " fill="#FD5F00" transform="translate(1351,958)"/>
<path d="M0 0 C43 0 43 0 54 1 C56.40524789 1.08235022 58.81209397 1.13042088 61.21875 1.1328125 C61.86261154 1.13413177 62.50647308 1.13545105 63.16984558 1.1368103 C65.27994626 1.13872133 67.38991262 1.1323517 69.5 1.125 C70.61382553 1.12367065 70.61382553 1.12367065 71.75015259 1.12231445 C86.39576046 1.10224008 101.03289383 0.78227534 115.671875 0.35595703 C131.80014895 -0.08421828 147.8392927 0 164 0 C164 329.34 164 658.68 164 998 C109.88 998 55.76 998 0 998 C0 668.66 0 339.32 0 0 Z " fill="#333332" transform="translate(1418,1317)"/>
<path d="M0 0 C182.16 0 364.32 0 552 0 C552 33.33 552 66.66 552 101 C534.51 101 517.02 101 499 101 C497.515 107.435 497.515 107.435 496 114 C489.20301857 137.65021974 479.29241586 159.91647558 465 180 C464.29689697 181.00184326 464.29689697 181.00184326 463.57958984 182.02392578 C456.69464957 191.7700189 449.10600301 200.62891267 440.78222656 209.17089844 C439.00801167 210.99177762 437.25018486 212.82753929 435.4921875 214.6640625 C396.27661588 255.20089132 339.1582129 278.26079917 283.07421875 279.203125 C219.06045614 279.94851426 160.43764415 258.33856841 114.20654297 213.44287109 C108.35352359 207.64253077 103.07365174 201.49751848 98 195 C97.22269531 194.03964844 96.44539063 193.07929688 95.64453125 192.08984375 C81.32664456 174.08436145 70.67536137 154.23115503 62 133 C61.55785156 131.94425781 61.11570312 130.88851562 60.66015625 129.80078125 C57.12380452 121.06201541 53 110.5624593 53 101 C35.51 101 18.02 101 0 101 C0 67.67 0 34.34 0 0 Z " fill="#FE5F00" transform="translate(1224,2484)"/>
<path d="M0 0 C4.73946387 4.00289525 8.89461155 8.20693317 12.75 13.0625 C13.88501953 14.40828125 13.88501953 14.40828125 15.04296875 15.78125 C37.5045471 43.36197877 45.13055531 78.03835247 44.97705078 112.86132812 C44.97648509 114.68632501 44.97680631 116.51132235 44.97793579 118.33631897 C44.97850414 123.23814871 44.9668348 128.13987839 44.95278788 133.0416851 C44.9401931 138.18391269 44.93910318 143.32614316 44.93673706 148.46838379 C44.93054779 158.18247263 44.91417192 167.89651587 44.89403808 177.61058474 C44.87159911 188.67966259 44.86066563 199.74874274 44.85064721 210.81783772 C44.82980313 233.56608365 44.79467737 256.31428926 44.75 279.0625 C41.41009743 278.75556946 38.07062261 278.44419838 34.73120117 278.13208008 C33.79411064 278.04601753 32.85702011 277.95995499 31.8915329 277.87128448 C24.21306652 277.15019401 16.66062059 276.08310599 9.0625 274.75 C7.79704346 274.5327124 6.53158691 274.3154248 5.2277832 274.09155273 C1.39949867 273.42779206 -2.4256985 272.74881033 -6.25 272.0625 C-7.39758789 271.8572168 -8.54517578 271.65193359 -9.72753906 271.44042969 C-59.44090613 262.45048688 -111.0312649 248.91527066 -153.25 220.0625 C-153.84280762 219.66353516 -154.43561523 219.26457031 -155.04638672 218.85351562 C-185.5767781 198.20622671 -210.60861252 169.5125941 -218.5625 132.625 C-222.14533497 109.99883893 -223.11855903 83.10043369 -216.25 61.0625 C-216.03569336 60.36511719 -215.82138672 59.66773438 -215.60058594 58.94921875 C-210.80035933 43.88475213 -203.31321056 30.25034912 -193.25 18.0625 C-192.45207031 17.08796875 -191.65414063 16.1134375 -190.83203125 15.109375 C-143.83560827 -39.21024248 -55.01857705 -45.18347328 0 0 Z " fill="#333332" transform="translate(1333.25,993.9375)"/>
<path d="M0 0 C2.73490794 2.29965663 5.41119476 4.66056797 8.06860352 7.04907227 C9.27516602 8.12801758 9.27516602 8.12801758 10.50610352 9.22875977 C30.33162799 27.99220257 44.66906725 57.28183482 45.42762756 84.66641235 C45.48153263 88.41664416 45.48456721 92.16478202 45.4597168 95.9152832 C45.44370627 98.78068215 45.45960501 101.64465476 45.47875977 104.51000977 C45.49909457 120.18325321 44.29232129 135.36282089 38.25610352 149.98657227 C37.72509033 151.31700562 37.72509033 151.31700562 37.18334961 152.67431641 C30.06411169 170.18905844 19.32871029 184.7160842 6.06860352 198.04907227 C5.3616333 198.76208496 5.3616333 198.76208496 4.64038086 199.48950195 C-8.93281573 212.98243964 -25.22596832 222.91876723 -41.93139648 232.04907227 C-42.58366211 232.40952637 -43.23592773 232.76998047 -43.90795898 233.14135742 C-56.67165476 240.1206691 -70.30989748 245.02705794 -83.93139648 250.04907227 C-84.84002441 250.3885791 -85.74865234 250.72808594 -86.68481445 251.07788086 C-99.8871949 255.99502963 -113.2376504 259.7626515 -126.93139648 263.04907227 C-128.15665039 263.3492627 -129.3819043 263.64945313 -130.64428711 263.95874023 C-150.40400098 268.77906917 -170.27403909 272.41515143 -190.36889648 275.54907227 C-192.07402405 275.81563629 -192.07402405 275.81563629 -193.81359863 276.08758545 C-197.05895057 276.59161224 -200.30532476 277.0881255 -203.55249023 277.58032227 C-204.52800339 277.72990387 -205.50351654 277.87948547 -206.5085907 278.03359985 C-207.8672802 278.23558487 -207.8672802 278.23558487 -209.25341797 278.44165039 C-210.03974106 278.55963989 -210.82606415 278.67762939 -211.63621521 278.79919434 C-214.08499651 279.0657948 -216.46994323 279.06538484 -218.93139648 279.04907227 C-219.02527383 255.2294919 -219.09558669 231.40993969 -219.13864517 207.59021091 C-219.15917869 196.52768798 -219.1871208 185.46528068 -219.2331543 174.40283203 C-219.27330658 164.74902524 -219.29889601 155.09530229 -219.30775046 145.4414143 C-219.31291768 140.34042556 -219.32486478 135.23967645 -219.35431671 130.13876534 C-219.61697311 82.786885 -213.69444119 39.61804497 -179.31420898 4.36547852 C-131.60802902 -41.00493893 -50.37695592 -41.38602303 0 0 Z " fill="#333332" transform="translate(1840.931396484375,993.950927734375)"/>
</svg>
