<?xml version="1.0" standalone="no"?>
<!DOCTYPE svg PUBLIC "-//W3C//DTD SVG 20010904//EN"
 "http://www.w3.org/TR/2001/REC-SVG-20010904/DTD/svg10.dtd">
<svg version="1.0" xmlns="http://www.w3.org/2000/svg"
 width="225.000000pt" height="225.000000pt" viewBox="0 0 225.000000 225.000000"
 preserveAspectRatio="xMidYMid meet">

<g transform="translate(0.000000,225.000000) scale(0.100000,-0.100000)"
fill="#000000" stroke="none">
<path d="M605 1747 c-204 -68 -330 -267 -295 -466 47 -268 323 -428 570 -331
47 18 166 95 279 179 19 14 32 21 28 15 -11 -19 106 -138 171 -172 253 -135
561 16 613 302 36 197 -96 407 -293 467 -54 17 -87 20 -152 17 -102 -5 -167
-34 -316 -141 l-105 -75 -24 32 c-51 65 -116 119 -180 149 -57 27 -79 32 -161
34 -59 2 -110 -2 -135 -10z m234 -16 c34 -10 83 -33 110 -51 47 -30 121 -108
121 -128 0 -5 -27 -24 -61 -42 l-61 -32 -41 40 c-78 75 -161 97 -258 69 -109
-32 -179 -127 -179 -243 0 -179 188 -307 346 -235 65 30 305 202 297 213 -3 7
-1 8 5 4 6 -4 35 7 65 24 78 44 192 70 304 70 107 0 133 -14 133 -73 0 -63
-15 -71 -142 -78 -149 -8 -193 -27 -386 -163 -211 -148 -241 -161 -367 -161
-80 1 -111 5 -158 24 -81 32 -168 115 -209 199 -31 63 -33 73 -33 177 0 98 3
116 27 167 87 186 294 279 487 219z m815 4 c197 -52 331 -255 296 -453 -23
-136 -108 -248 -230 -306 -60 -29 -73 -31 -170 -31 -113 0 -158 13 -244 73
-52 36 -109 111 -96 127 5 6 6 16 2 20 -4 5 -2 5 5 1 7 -4 35 5 62 20 l50 26
33 -38 c97 -110 279 -110 376 0 45 52 63 101 63 173 0 171 -171 295 -329 239
-23 -8 -112 -64 -199 -124 -87 -60 -182 -122 -210 -136 -76 -38 -164 -56 -275
-56 -113 0 -138 13 -138 73 0 58 26 71 154 78 115 7 166 21 239 66 22 14 35
28 31 35 -4 7 -3 8 4 4 7 -4 68 32 145 86 189 133 286 161 431 123z m-829
-174 c22 -10 59 -38 82 -62 42 -43 42 -44 20 -52 -12 -5 -73 -12 -135 -16
-103 -5 -116 -8 -133 -30 -11 -14 -19 -39 -19 -61 0 -30 6 -44 31 -64 27 -23
39 -26 107 -26 101 0 191 15 263 45 33 13 59 22 59 20 0 -10 -268 -189 -302
-201 -150 -53 -308 64 -308 225 0 60 26 130 63 170 60 65 190 90 272 52z m857
-17 c69 -48 101 -103 106 -180 5 -80 -14 -137 -64 -187 -53 -53 -98 -71 -174
-71 -77 0 -134 25 -177 79 -15 19 -35 35 -43 36 -8 1 3 7 25 14 22 8 80 14
128 14 91 1 139 16 151 46 14 37 6 86 -19 110 -22 23 -31 25 -127 25 -115 0
-207 -18 -280 -55 -26 -13 -48 -23 -48 -20 0 8 266 189 304 206 64 30 162 23
218 -17z m-652 -49 c0 -6 -56 -35 -67 -35 -4 1 8 9 27 20 39 22 40 22 40 15z
m279 -279 c-2 -2 -15 -9 -29 -15 -24 -11 -24 -11 -6 3 16 13 49 24 35 12z"/>
<path d="M175 838 c3 -13 16 -63 29 -113 19 -75 26 -91 43 -93 24 -3 32 16 54
131 7 32 14 56 16 53 3 -3 15 -44 27 -93 19 -74 26 -89 44 -91 23 -3 20 -11
60 151 19 71 19 77 3 77 -13 0 -22 -21 -40 -95 -13 -52 -24 -95 -26 -95 -2 0
-13 43 -26 95 -18 75 -27 95 -40 95 -19 0 -26 -19 -50 -127 -7 -29 -15 -51
-18 -47 -3 3 -15 42 -27 87 -14 60 -25 83 -37 85 -14 3 -17 -1 -12 -20z"/>
<path d="M1270 745 c0 -96 3 -115 15 -115 12 0 15 13 15 55 l0 55 45 0 c25 0
45 5 45 10 0 6 -20 10 -45 10 -45 0 -45 0 -45 35 l0 35 50 0 c38 0 50 4 50 15
0 12 -14 15 -65 15 l-65 0 0 -115z"/>
<path d="M518 803 c-16 -2 -28 -10 -28 -18 0 -9 10 -12 38 -8 29 4 43 1 57
-13 18 -18 17 -19 -29 -26 -60 -8 -76 -22 -76 -64 0 -44 35 -64 81 -47 17 7
37 9 45 6 21 -8 20 130 -2 151 -8 9 -19 16 -24 16 -5 0 -14 2 -22 3 -7 2 -25
2 -40 0z m75 -110 c-11 -32 -25 -43 -54 -43 -24 0 -29 4 -29 23 0 32 7 37 51
37 32 0 37 -3 32 -17z"/>
<path d="M712 803 c-58 -11 -49 -87 12 -99 75 -14 68 -60 -8 -52 -56 7 -66
-17 -12 -28 107 -20 139 74 36 105 -30 9 -40 17 -38 29 3 13 14 17 51 16 42 0
59 8 40 19 -16 8 -59 14 -81 10z"/>
<path d="M906 795 c-14 -8 -26 -10 -26 -4 0 5 -7 9 -15 9 -12 0 -15 -16 -15
-85 0 -69 3 -85 15 -85 12 0 15 13 15 59 0 66 17 94 54 89 19 -3 21 -10 24
-75 2 -56 6 -73 17 -73 11 0 15 13 15 53 0 57 20 97 49 97 30 0 41 -22 41 -87
0 -49 3 -63 15 -63 12 0 15 14 15 65 0 56 -4 69 -24 90 -24 24 -55 25 -83 2
-9 -6 -17 -6 -25 0 -25 19 -46 21 -72 8z"/>
<path d="M1479 799 c-52 -19 -67 -112 -24 -154 53 -54 135 -15 135 64 0 66
-54 110 -111 90z m63 -36 c38 -35 16 -113 -32 -113 -48 0 -69 72 -33 112 20
22 41 23 65 1z"/>
<path d="M1705 800 c-11 -5 -30 -6 -42 -3 -22 5 -23 3 -23 -81 0 -70 3 -86 15
-86 12 0 15 14 15 63 0 68 10 87 47 87 13 0 23 4 23 9 0 15 -13 19 -35 11z"/>
<path d="M1799 796 c-49 -24 -62 -104 -23 -147 19 -21 74 -25 92 -7 9 9 12 7
12 -8 0 -35 -34 -57 -76 -50 -27 6 -35 4 -32 -6 3 -8 24 -14 50 -16 40 -3 49
1 67 24 18 23 21 40 21 120 0 77 -3 94 -15 94 -8 0 -15 -5 -15 -11 0 -8 -4 -8
-12 -2 -24 18 -45 21 -69 9z m71 -35 c25 -48 2 -111 -40 -111 -22 0 -50 36
-50 65 0 54 67 88 90 46z"/>
<path d="M2025 802 c-39 -8 -65 -43 -65 -87 0 -71 47 -106 120 -90 49 11 37
31 -17 26 -36 -2 -50 1 -60 15 -26 36 -17 44 52 44 59 0 65 2 65 21 0 46 -46
81 -95 71z m53 -34 c26 -26 13 -38 -38 -38 -52 0 -60 8 -34 34 18 19 55 21 72
4z"/>
</g>
</svg>
