<?xml version="1.0" encoding="UTF-8"?>
<svg version="1.1" viewBox="0 0 203 64" xmlns="http://www.w3.org/2000/svg"><path d="m76.97 41.96 2.34-5.04c2.16 1.4 5.44 2.34 8.41 2.34 3.24 0 4.46-0.85 4.46-2.2 0-3.96-14.62 0.09-14.62-9.58 0-4.59 4.14-7.83 11.2-7.83 3.33 0 7.02 0.76 9.31 2.11l-2.34 5c-2.38-1.35-4.77-1.8-6.97-1.8-3.15 0-4.5 0.99-4.5 2.25 0 4.14 14.62 0.13 14.62 9.67 0 4.5-4.18 7.7-11.43 7.7-4.09-0.01-8.23-1.13-10.48-2.62z" fill="#002f3b"/><path d="m119.39 43.04c-1.44 1.04-3.55 1.53-5.71 1.53-5.71 0-9.04-2.92-9.04-8.68v-9.94h-3.73v-5.4h3.73v-5.89h7.02v5.89h6.03v5.4h-6.03v9.85c0 2.07 1.12 3.2 3.02 3.2 1.03 0 2.07-0.32 2.83-0.9z" fill="#002f3b"/><path d="m144.59 30.4v13.81h-6.57v-3.01c-1.3 2.21-3.82 3.38-7.38 3.38-5.67 0-9.04-3.15-9.04-7.33 0-4.27 3.01-7.24 10.39-7.24h5.58c0-3.02-1.8-4.77-5.58-4.77-2.57 0-5.22 0.86-6.97 2.25l-2.52-4.9c2.66-1.89 6.57-2.92 10.44-2.92 7.38-0.03 11.65 3.39 11.65 10.73zm-7.02 6.16v-2.47h-4.82c-3.28 0-4.32 1.21-4.32 2.83 0 1.75 1.48 2.92 3.96 2.92 2.35 0.01 4.37-1.07 5.18-3.28z" fill="#002f3b"/><path d="m173.74 34.09h-18.31c0.67 3.01 3.24 4.86 6.93 4.86 2.56 0 4.41-0.76 6.07-2.34l3.74 4.05c-2.25 2.56-5.62 3.92-9.99 3.92-8.37 0-13.81-5.27-13.81-12.46 0-7.24 5.53-12.46 12.91-12.46 7.11 0 12.6 4.77 12.6 12.55 0 0.53-0.09 1.29-0.14 1.88zm-18.4-4.1h11.92c-0.5-3.06-2.79-5.04-5.94-5.04-3.2 0-5.49 1.94-5.98 5.04z" fill="#002f3b"/><path d="m192.25 44.21-5.31-7.42-5.49 7.42h-7.65l9.31-12.19-9-12.01h7.88l5.13 7.06 5.27-7.06h7.47l-9 11.83 9.36 12.37z" fill="#002f3b"/> <path d="m49.85 19.93-3.03 3.03c-0.67 0.67-1.75 0.67-2.42 0l-3.03-3.03c-0.67-0.67-0.67-1.75 0-2.42l3.03-3.03c0.67-0.67 1.75-0.67 2.42 0l3.03 3.03c0.67 0.66 0.67 1.75 0 2.42m-13.36 25.35c0 2.48-2.01 4.49-4.49 4.49s-4.49-2.01-4.49-4.49 2.01-4.49 4.49-4.49c2.48 0.01 4.49 2.02 4.49 4.49m-6.54-17.69 5.42 3.29c0.99 0.6 0.99 1.58 0 2.18l-5.42 3.29c-0.99 0.6-1.79 0.15-1.79-1.01v-6.74c0-1.16 0.8-1.61 1.79-1.01m6.54-8.87c0 2.48-2.01 4.49-4.49 4.49s-4.49-2.01-4.49-4.49 2.01-4.49 4.49-4.49 4.49 2.01 4.49 4.49m-13.85 27.78-3.03 3.03c-0.67 0.67-1.75 0.67-2.42 0l-3.03-3.03c-0.67-0.67-0.67-1.75 0-2.42l3.03-3.03c0.67-0.67 1.75-0.67 2.42 0l3.03 3.03c0.67 0.66 0.67 1.75 0 2.42m-0.01-12.18c0 1.04-0.84 1.88-1.88 1.88h-4.7c-1.04 0-1.88-0.84-1.88-1.88v-4.7c0-1.04 0.84-1.88 1.88-1.88h4.7c1.04 0 1.88 0.84 1.88 1.88zm-1-14.52-5.42 3.29c-0.99 0.6-1.79 0.15-1.79-1.01v-6.74c0-1.16 0.8-1.61 1.79-1.01l5.42 3.29c0.99 0.61 0.99 1.58 0 2.18m19.74 9.82c0-1.04 0.84-1.88 1.88-1.88h4.7c1.04 0 1.88 0.84 1.88 1.88v4.7c0 1.04-0.84 1.88-1.88 1.88h-4.7c-1.04 0-1.88-0.84-1.88-1.88zm22.14 2.38c0-17.4-14.11-31.51-31.51-31.51s-31.51 14.11-31.51 31.51 14.11 31.51 31.51 31.51 31.51-14.11 31.51-31.51" fill="#002f3b"/><path d="m43.42 40.54c-0.99-0.6-1.79-0.15-1.79 1.01v6.74c0 1.16 0.8 1.61 1.79 1.01l5.42-3.29c0.99-0.6 0.99-1.57 0-2.18z" fill="#e3dc7a"/> </svg>
