<svg width="256" height="256" viewBox="0 0 256 256" fill="none" xmlns="http://www.w3.org/2000/svg">
<g clip-path="url(#clip0_1_2)">
<path d="M256 128C256 57.3075 198.692 0 128 0C57.3075 0 0 57.3075 0 128C0 198.692 57.3075 256 128 256C198.692 256 256 198.692 256 128Z" fill="url(#paint0_linear_1_2)"/>
<path d="M119.634 208.206C126.561 212.209 135.106 212.198 142.021 208.172L156.74 199.616L104.365 169.38C88.5334 160.239 78.7848 143.351 78.7848 125.079V64.5748L64.0101 73.0528C57.0725 77.0332 52.7998 84.4205 52.7998 92.4151V139.91C52.7998 158.294 62.6046 175.272 78.5149 184.459L119.646 208.206H119.634Z" fill="#EA590D"/>
<path d="M138.907 48.6308C130.62 52.4088 124.503 60.1335 122.963 69.4098C122.716 70.8828 122.592 72.3895 122.592 73.9299V114.296C122.592 118.94 123.84 123.404 126.089 127.294C128.326 131.173 131.576 134.479 135.601 136.807L148.082 143.991C154.368 147.601 161.642 149.67 169.412 149.67C181.724 149.67 192.822 144.486 200.637 136.177V159.396C200.637 164.017 199.4 168.459 197.185 172.326C194.947 176.217 191.698 179.534 187.661 181.861C179.633 186.494 169.738 186.494 161.71 181.861L115.733 155.314C103.916 148.5 96.6406 135.885 96.6406 122.234V69.1512C96.6406 64.5186 97.8775 60.0548 100.115 56.1756C102.353 52.2964 105.591 48.9906 109.605 46.6744C117.644 42.0418 127.539 42.0418 135.556 46.6744L138.918 48.6196L138.907 48.6308Z" fill="#EA590D"/>
<path d="M181.521 73.2441C193.339 80.0692 200.625 92.6738 200.625 106.324V106.369C200.625 123.224 187.436 137.38 170.592 137.998C167.388 138.122 164.296 137.751 161.361 136.975C169.085 132.635 174.64 124.427 174.64 114.296C174.64 107.448 171.953 100.983 167.32 96.2044C165.667 94.4841 163.767 92.9886 161.642 91.7743L134.251 75.9539V74.0199C134.251 65.0584 141.515 57.806 150.465 57.806C153.22 57.806 155.818 58.4919 158.078 59.7063L181.533 73.2553L181.521 73.2441Z" fill="#EA590D"/>
</g>
<defs>
<linearGradient id="paint0_linear_1_2" x1="128" y1="0" x2="128" y2="256" gradientUnits="userSpaceOnUse">
<stop stop-color="#FBFBFB"/>
<stop offset="1" stop-color="#EEEEEE"/>
</linearGradient>
<clipPath id="clip0_1_2">
<rect width="256" height="256" fill="white"/>
</clipPath>
</defs>
</svg>
