<svg width="112" height="112" viewBox="0 0 112 112" fill="none" xmlns="http://www.w3.org/2000/svg">
<mask id="mask0_3219_144" style="mask-type:luminance" maskUnits="userSpaceOnUse" x="0" y="0" width="112" height="112">
<path d="M112 0H0V112H112V0Z" fill="white"/>
</mask>
<g mask="url(#mask0_3219_144)">
<path d="M55.9997 99.9219H68.0781V112H55.9997V99.9219Z" fill="#3670FF"/>
<path d="M43.9216 75.7656H56V99.9225H43.9216V75.7656Z" fill="#3670FF"/>
<path d="M99.9219 56.0003V43.9219H112V56.0003H99.9219Z" fill="#3670FF"/>
<path d="M75.7656 68.0784V56H99.9225V68.0784H75.7656Z" fill="#3670FF"/>
<path d="M12.0781 55.9997V68.0781H-0.000310898V55.9997H12.0781Z" fill="#3670FF"/>
<path d="M36.2344 43.9216V56H12.0775V43.9216H36.2344Z" fill="#3670FF"/>
<path d="M56.0003 12.0781H43.9219V-0.000310898H56.0003V12.0781Z" fill="#3670FF"/>
<path d="M68.0784 36.2383H56V12.0814H68.0784V36.2383Z" fill="#3670FF"/>
<path d="M87.5391 85.8942V97.9727H99.6175V85.8942H87.5391Z" fill="#3670FF"/>
<path d="M63.3828 73.8161V85.8945H87.5397V73.8161H63.3828Z" fill="#3670FF"/>
<path d="M85.8903 24.4609H97.9688V12.3825L85.8903 12.3825V24.4609Z" fill="#3670FF"/>
<path d="M73.8122 48.6172H85.8906V24.4603H73.8122V48.6172Z" fill="#3670FF"/>
<path d="M26.1097 87.543H14.0312V99.6214H26.1097V87.543Z" fill="#3670FF"/>
<path d="M38.1878 63.3867H26.1094V87.5436H38.1878V63.3867Z" fill="#3670FF"/>
<path d="M24.4609 26.1097V14.0312H12.3825V26.1097H24.4609Z" fill="#3670FF"/>
<path d="M48.6178 26.1055V38.1839H24.4609V26.1055L48.6178 26.1055Z" fill="#3670FF"/>
</g>
</svg>
