<?xml version="1.0" encoding="utf-8"?>
<!-- Generator: Adobe Illustrator 24.0.1, SVG Export Plug-In . SVG Version: 6.00 Build 0)  -->
<svg version="1.1" id="图层_1" xmlns="http://www.w3.org/2000/svg" xmlns:xlink="http://www.w3.org/1999/xlink" x="0px" y="0px"
	 viewBox="0 0 112 112" style="enable-background:new 0 0 112 112;" xml:space="preserve">
<style type="text/css">
	.st0{fill:#E4A664;}
	.st1{fill:#F4C480;}
	.st2{fill:url(#SVGID_1_);}
	.st3{fill:#654A3C;}
	.st4{opacity:0.13;}
</style>
<g>
	<path class="st0" d="M26,83.5c-2.2-3.4-3.4-8.1-4.1-12v9.2c-0.1,6.5,5.2,11.9,11.8,11.9h1.7C31.9,90.8,28.7,87.7,26,83.5z"/>
	<path class="st1" d="M61.2,21.7v-6.3c0-2.6-2.1-4.8-4.8-4.8c-2.6,0-4.8,2.1-4.8,4.8v6.3c-17.1,2.5-29.8,17.2-29.7,34.4v15.3
		c0.7,3.9,1.9,8.6,4.1,12c2.8,4.3,5.9,7.3,9.4,9.2h43.8C85.7,92.6,91,87.3,91,80.8V56.2C91,38.9,78.3,24.2,61.2,21.7z"/>
	<g>
		<path class="st0" d="M70,10.3c0.5,2.5-1.3,7.2-2.6,9.2h3.2c0,0,9.9-7.5,6.9-13.4c-2-3.9-9.2-0.8-14.9,1.7
			C65.7,7.9,69.7,8.5,70,10.3z"/>
		<path class="st1" d="M42.1,19.5h25.3c1.4-2,3.1-6.6,2.6-9.2c-0.4-1.8-4.3-2.4-7.4-2.6c-2.9,1.3-5.5,2.4-6.8,2.4
			c-3.8,0-12.7-7.4-17-6.1C27.9,8.4,42.1,19.5,42.1,19.5z"/>
	</g>
	<path class="st0" d="M65,6.7c-2,0.8-3.7,2.1-5.6,3.2c-1.3,0.8-3.7,2.9-5.4,2.6c-1-0.2-1.8-2-2.6-2.8c-1.2-1.1-3.6-2.6-5-3.5
		c0,0,7,4,9.3,3.8C58.2,9.8,65,6.7,65,6.7z"/>
	<path class="st0" d="M35.5,6.4c0,0,10.9-1,15.9,2.5c0,0-7.5-4.9-11.5-4.9C37.6,4,35.5,6.4,35.5,6.4z"/>
	<g>
		<path class="st0" d="M51.5,21.7c-1.7,0.2-3.3,0.6-4.8,1.1c10.2,1.8,22,4.1,28.7,12.4c5.2,6.4,7.5,15.1,8.3,23.2
			c0.4,4.8-0.1,9.6,0,14.4c0.1,3.1,0.1,6.3-0.6,9.4c-1,5.1-4,8.6-8.1,10.5h4.2C85.7,92.6,91,87.3,91,80.8V56.2
			c0-17.3-12.7-32-29.8-34.4H51.5z"/>
	</g>
	<linearGradient id="SVGID_1_" gradientUnits="userSpaceOnUse" x1="39.0927" y1="30.9167" x2="88.3961" y2="30.9167">
		<stop  offset="0" style="stop-color:#E7361B"/>
		<stop  offset="1" style="stop-color:#BD2B15"/>
	</linearGradient>
	<path class="st2" d="M72.1,20.1c-0.9-0.5-1.5-0.6-2.3-0.6H42.2c-1.7,0-3.1,1.4-3.1,3.1c0,1.7,1.4,3.1,3.1,3.1h27.6
		c0.8,0,1.6-0.3,2.2-0.9c0.5,0.1-0.2-0.3,0.3,0.1c1.3,6.8,3,17.5,3.8,17.4l5.2-1.4c-0.3-4.8-3.4-10.9-6-15.3
		c4.4,5.5,8.8,11.7,9.3,11.4l4-3.6C85.5,28.6,77.3,23.1,72.1,20.1z"/>
	<g>
		<path class="st3" d="M58.9,58.8c1.3,0.3,2.5,0.6,3.7,1c1.2,0.4,2.3,1,3.2,1.8c0.9,0.8,1.6,1.8,2.1,2.9c0.5,1.2,0.7,2.7,0.6,4.5
			c-0.1,1.3-0.4,2.5-0.9,3.5c-0.5,1-1.2,1.9-2.1,2.7c-0.9,0.8-1.9,1.4-3,1.8c-1.1,0.5-2.3,0.8-3.5,0.9v4.4H54v-4.4
			c-2.1-0.3-4-1.2-5.8-2.4c-1.8-1.3-3.2-3-4.2-5.3l4.9-2.1c0.5,1.2,1.3,2.2,2.2,3C52,72,53,72.5,54,72.7v-9.5
			c-1.2-0.3-2.4-0.6-3.5-1c-1.1-0.4-2.1-1-3-1.7c-0.8-0.7-1.5-1.6-2-2.6c-0.5-1.1-0.7-2.4-0.6-4.1c0-1.3,0.3-2.5,0.8-3.5
			c0.5-1,1.1-1.9,1.9-2.6c0.8-0.7,1.8-1.3,2.9-1.8c1.1-0.5,2.3-0.8,3.5-0.9v-4.3h4.9V45c2.1,0.3,4,1.1,5.8,2.4
			c1.8,1.3,3.2,3,4.2,5.2L64,54.7c-0.5-1.2-1.3-2.2-2.2-3c-0.9-0.8-1.9-1.2-2.9-1.5V58.8z M50.2,54.2c-0.1,1.1,0.3,1.9,1,2.4
			c0.7,0.5,1.7,0.9,2.9,1.3v-7.5c-1,0.3-1.8,0.7-2.6,1.4C50.6,52.4,50.2,53.2,50.2,54.2L50.2,54.2z M58.9,72.7
			c1.1-0.3,2.1-0.7,2.9-1.4c0.8-0.7,1.3-1.5,1.4-2.5c0-1.3-0.4-2.3-1.2-2.9c-0.8-0.7-1.9-1.2-3.1-1.6V72.7z"/>
	</g>
	<g>
		<path class="st1" d="M67.8,101.9c-0.7-3.5-8.4-3.5-8.8-3.5h0H45.6c-2.6,0-4.8,2.1-4.8,4.8c0,2.6,2.1,4.8,4.8,4.8h13.3
			C66.4,108,68.5,105.5,67.8,101.9z"/>
		<path class="st0" d="M67.3,98.3h-8.3c0.5,0,8.2,0.1,8.8,3.5c0.7,3.6-1.4,6.1-8.9,6.1h8.4c2.6,0,4.8-2.1,4.8-4.8
			C72.1,100.5,70,98.3,67.3,98.3z"/>
	</g>
	<g class="st4">
		<path d="M72.1,20.1c-0.9-0.5-1.5-0.6-2.3-0.6h-2.4c0,0,1.1,3.4-1.7,4.4c-3.4,1.3-5.6,1.9-5.6,1.9h9.7c0.8,0,1.6-0.3,2.2-0.9
			c0.1,0,0.2,0,0.2,0c-0.2-0.2,0-0.1,0,0c0,0,0.1,0,0.1,0.1c1.3,6.8,3,17.5,3.8,17.4l5.2-1.4c-0.3-4.8-3.4-10.9-6-15.3
			c4.4,5.5,8.8,11.7,9.3,11.4l4-3.6C85.5,28.6,77.3,23.1,72.1,20.1z"/>
		<path d="M72.1,24.9C72.1,24.8,71.9,24.7,72.1,24.9L72.1,24.9z"/>
	</g>
</g>
</svg>
