<svg viewBox="0 0 617.24 119.02" xmlns="http://www.w3.org/2000/svg"><path d="m73.61 0c41.37 0 81.66 13.36 114.83 38.09 2.17 1.59 4.77 2.45 7.44 2.45 6.9 0 12.45-5.56 12.45-12.45v-28.09h121.66v49.78h-106.89c-33.28 0-30.43 23.1-30.43 47.83v21.41h-55.31v-21.41c0-24.73 2.85-47.83-30.43-47.83h-106.93v-49.78z"/><path d="m425.62 14.08h-27.51v38.7h-15.85v-38.7h-27.51v-14.08h70.86v14.08z"/><path d="m571.25 20c-.36 10.47-9.1 18.7-19.57 18.7h-33.21v14.08h-15.85v-52.78h49.28c10.9 0 19.71 9.03 19.35 20zm-15.85-1.08c-.22-3.07-2.89-5.42-5.96-5.42h-30.97v11.73h31.08c3.39-.04 6.1-2.89 5.85-6.32z"/><path d="m475.58 0h-34.62l-22.31 52.78h18.19l4.01-9.03h34.84l4.01 9.03h18.19zm-17.29 30.25h-11.44l11.44-25.88 11.44 25.88z"/><path d="m354.76 67.9h20.18c8.81 0 13.21 5.38 13.21 16.17 0 6.35-1.34 10.69-3.97 13.07-2.64 2.38-5.81 3.57-9.53 3.57-1.34 0-3.57-.07-6.68-.25-3.14-.14-5.7-.32-7.73-.43v18.52h-5.52zm19.2 27.98c5.78 0 8.66-3.9 8.66-11.7s-2.74-11.3-8.19-11.3h-14.15v23z"/><path d="m396.27 81.8h4.12l1.3 6.39c1.81-2.17 3.72-3.83 5.78-5.02s4.33-1.81 6.82-1.81c1.23 0 2.38.11 3.43.32v5.56c-2.06-.22-3.39-.32-4.01-.32-2.42 0-4.55.43-6.32 1.3s-3.68 2.27-5.74 4.19v26.1h-5.45v-36.71z"/><path d="m430.17 117.43c-2.31-1.05-4.01-2.96-5.13-5.67-1.12-2.74-1.7-6.61-1.7-11.62s.58-8.95 1.73-11.66c1.16-2.74 2.85-4.62 5.09-5.63s5.27-1.52 9.1-1.52 6.79.51 9.1 1.55c2.31 1.05 4.01 2.92 5.16 5.63 1.16 2.74 1.73 6.61 1.73 11.62s-.58 8.88-1.73 11.62c-1.16 2.74-2.85 4.62-5.13 5.67-2.27 1.05-5.31 1.59-9.13 1.59s-6.79-.54-9.1-1.59zm15.05-3.9c1.44-.65 2.56-2.02 3.32-4.08.79-2.06 1.16-5.16 1.16-9.31s-.4-7.22-1.16-9.28-1.88-3.39-3.32-4.08c-1.48-.65-3.47-1.01-5.99-1.01s-4.58.32-6.03 1.01c-1.44.65-2.56 2.02-3.32 4.08s-1.12 5.13-1.12 9.28.4 7.22 1.12 9.31c.76 2.06 1.88 3.43 3.32 4.08s3.47 1.01 6.03 1.01 4.55-.36 5.99-1.01z"/><path d="m468.61 115.81c-1.7-1.88-2.49-4.91-2.42-9.13l.22-20.4h-5.85v-3.5l5.92-.97.9-10.25h4.19v10.25h10.61v4.48h-10.61v20.4c0 2.82.54 4.73 1.59 5.74 1.05 1.05 2.38 1.62 4.01 1.77l4.48.4v4.01h-5.02c-3.68 0-6.32-.94-8.01-2.78z"/><path d="m495.18 117.43c-2.31-1.05-4.01-2.96-5.13-5.67-1.12-2.74-1.7-6.61-1.7-11.62s.58-8.95 1.73-11.66c1.16-2.74 2.85-4.62 5.09-5.63s5.27-1.52 9.1-1.52 6.79.51 9.1 1.55c2.31 1.05 4.01 2.92 5.16 5.63 1.16 2.74 1.73 6.61 1.73 11.62s-.58 8.88-1.73 11.62c-1.16 2.74-2.85 4.62-5.13 5.67-2.27 1.05-5.31 1.59-9.13 1.59s-6.79-.54-9.1-1.59zm15.06-3.9c1.44-.65 2.56-2.02 3.32-4.08.79-2.06 1.16-5.16 1.16-9.31s-.4-7.22-1.12-9.28c-.76-2.06-1.88-3.39-3.32-4.08-1.48-.65-3.47-1.01-5.99-1.01s-4.58.32-6.03 1.01c-1.44.65-2.56 2.02-3.32 4.08s-1.16 5.13-1.16 9.28.4 7.22 1.16 9.31c.76 2.06 1.84 3.43 3.32 4.08 1.44.65 3.47 1.01 6.03 1.01s4.51-.36 5.96-1.01z"/><path d="m531.93 114.91c-2.56-2.74-3.83-7.62-3.83-14.62 0-4.91.58-8.74 1.77-11.52 1.16-2.74 2.82-4.66 4.98-5.74 2.17-1.08 4.84-1.62 8.05-1.62 4.4 0 8.48.32 12.2.97v3.25h-10.76c-2.53 0-4.55.4-6.1 1.23s-2.71 2.31-3.5 4.44-1.19 5.16-1.19 9.13.43 6.68 1.26 8.77 2.06 3.54 3.61 4.33 3.57 1.19 5.99 1.19h11.23v3.18c-4.33.72-8.63 1.12-12.89 1.12-4.66 0-8.3-1.37-10.83-4.12z"/><path d="m568.68 117.43c-2.31-1.05-4.01-2.96-5.13-5.67-1.12-2.74-1.7-6.61-1.7-11.62s.58-8.95 1.73-11.66c1.16-2.74 2.85-4.62 5.09-5.63s5.27-1.52 9.1-1.52 6.79.51 9.1 1.55c2.31 1.05 4.01 2.92 5.16 5.63 1.16 2.74 1.73 6.61 1.73 11.62s-.58 8.88-1.73 11.62c-1.16 2.74-2.85 4.62-5.13 5.67-2.27 1.05-5.31 1.59-9.13 1.59s-6.82-.54-9.1-1.59zm15.06-3.9c1.44-.65 2.56-2.02 3.32-4.08.79-2.06 1.16-5.16 1.16-9.31s-.4-7.22-1.16-9.28-1.88-3.39-3.32-4.08c-1.48-.65-3.47-1.01-5.99-1.01s-4.58.32-6.03 1.01c-1.44.65-2.56 2.02-3.32 4.08s-1.12 5.13-1.12 9.28.4 7.22 1.12 9.31c.76 2.06 1.88 3.43 3.32 4.08s3.47 1.01 6.03 1.01 4.51-.36 5.99-1.01z"/><path d="m605.29 115.99c-1.59-1.81-2.38-4.84-2.38-9.17v-40.76h5.45v40.07c0 3.03.4 5.09 1.23 6.21s2.13 1.77 3.93 1.99l3.72.4v3.93h-4.69c-3.25 0-5.67-.9-7.26-2.67z"/></svg>