<?xml version="1.0" standalone="no"?>
<!DOCTYPE svg PUBLIC "-//W3C//DTD SVG 20010904//EN"
 "http://www.w3.org/TR/2001/REC-SVG-20010904/DTD/svg10.dtd">
<svg version="1.0" xmlns="http://www.w3.org/2000/svg"
 width="300.000000pt" height="300.000000pt" viewBox="0 0 300.000000 300.000000"
 preserveAspectRatio="xMidYMid meet">

<g transform="translate(0.000000,300.000000) scale(0.100000,-0.100000)"
fill="#000000" stroke="none">
<path d="M0 1500 l0 -1500 1500 0 1500 0 0 1500 0 1500 -1500 0 -1500 0 0
-1500z m963 671 l536 -230 438 188 c550 236 640 274 628 263 -6 -5 -221 -134
-480 -287 -259 -152 -474 -281 -479 -286 -5 -4 -31 -295 -57 -646 -27 -351
-49 -642 -50 -648 -1 -10 -97 1220 -98 1265 -1 23 -41 49 -363 240 -503 297
-624 370 -616 370 3 0 247 -103 541 -229z"/>
</g>
</svg>
