<?xml version="1.0" encoding="UTF-8"?>
<svg xmlns="http://www.w3.org/2000/svg" xmlns:xlink="http://www.w3.org/1999/xlink" viewBox="0 0 1799.46 485.36">
  <defs>
    <style>
      .cls-1 {
        stroke: #0076ce;
        stroke-width: 37px;
      }

      .cls-1, .cls-2 {
        fill: none;
      }

      .cls-1, .cls-3 {
        stroke-miterlimit: 10;
      }

      .cls-4 {
        fill: #fff;
      }

      .cls-5 {
        clip-path: url(#clippath-1);
      }

      .cls-6 {
        fill: #0076ce;
      }

      .cls-3 {
        fill: #121212;
        stroke: #000;
        stroke-width: 3px;
      }

      .cls-7 {
        clip-path: url(#clippath-2);
      }

      .cls-8 {
        clip-path: url(#clippath);
      }
    </style>
    <clipPath id="clippath">
      <rect class="cls-2" width="405.42" height="460.09"/>
    </clipPath>
    <clipPath id="clippath-1">
      <rect class="cls-2" y="230.4" width="405.43" height="220.6"/>
    </clipPath>
    <clipPath id="clippath-2">
      <rect class="cls-2" x="95.36" y="69.03" width="216.51" height="214.47"/>
    </clipPath>
  </defs>
  <g id="Layer_1">
    <g>
      <path class="cls-4" d="M519.55,371.91c-18.67,0-34.87-3-48.6-9-13.74-6-24.4-15-32-27s-11.4-27.33-11.4-46v-125.6h50.8v120.4c0,14.94,3.33,26,10,33.2,6.66,7.2,17.06,10.8,31.2,10.8s25.26-3.6,31.8-10.8c6.53-7.2,9.8-18.26,9.8-33.2v-120.4h48v125.6c0,27.74-7.94,48.34-23.8,61.8-15.87,13.47-37.8,20.2-65.8,20.2Z"/>
      <path class="cls-4" d="M687.14,365.91V99.11h106c20.53,0,37.73,2.74,51.6,8.2,13.86,5.47,24.4,13.6,31.6,24.4,7.2,10.8,10.8,24.34,10.8,40.6,0,11.74-2.6,21.34-7.8,28.8-5.2,7.47-11.47,13.4-18.8,17.8-7.34,4.4-14.2,8.2-20.6,11.4l-6-11.2c12.26,1.07,23.53,4.34,33.8,9.8,10.26,5.47,18.46,13,24.6,22.6,6.13,9.6,9.2,21.34,9.2,35.2,0,18.4-4.34,33.47-13,45.2-8.67,11.74-20.4,20.34-35.2,25.8-14.8,5.47-31.54,8.2-50.2,8.2h-116ZM741.54,207.11h56c5.6,0,11.06-.86,16.4-2.6,5.33-1.73,9.66-4.8,13-9.2,3.33-4.4,5-10.6,5-18.6,0-13.06-3.6-22-10.8-26.8s-16.4-7.2-27.6-7.2h-52v64.4ZM741.54,322.71h58.8c8,0,15.46-1.06,22.4-3.2,6.93-2.13,12.53-6,16.8-11.6,4.26-5.6,6.4-13.33,6.4-23.2,0-7.73-1.34-13.93-4-18.6-2.67-4.66-6.27-8.26-10.8-10.8-4.54-2.53-9.54-4.26-15-5.2-5.47-.93-11.14-1.4-17-1.4h-57.6v74Z"/>
      <path class="cls-4" d="M968.34,134.31v-41.6h53.2v41.6h-53.2ZM969.54,365.91v-199.6h50.8l.4,199.6h-51.2Z"/>
      <path class="cls-4" d="M1097.54,181.11c5.6-2.66,12.26-5.33,20-8,7.73-2.66,16.13-5,25.2-7,9.06-2,18.2-3.6,27.4-4.8,9.2-1.2,17.93-1.8,26.2-1.8,18.66,0,34.2,2.47,46.6,7.4,12.4,4.94,21.73,12.67,28,23.2,6.26,10.54,9.4,24.34,9.4,41.4v134.4h-50.4v-125.6c0-5.06-.67-9.93-2-14.6-1.34-4.66-3.6-8.8-6.8-12.4-3.2-3.6-7.6-6.4-13.2-8.4-5.6-2-12.8-3-21.6-3-6.67,0-13.47.67-20.4,2-6.94,1.34-12.8,3.07-17.6,5.2v156.8h-50.8v-184.8Z"/>
    </g>
  </g>
  <g id="Layer_3">
    <g class="cls-8">
      <g class="cls-5">
        <path class="cls-1" d="M101.37,126.62h202.83c11.91,0,21.58,9.67,21.58,21.58v202.83c0,11.91-9.67,21.58-21.58,21.58H101.37c-11.91,0-21.58-9.67-21.58-21.58v-202.83c0-11.91,9.67-21.58,21.58-21.58Z"/>
      </g>
      <g class="cls-7">
        <path class="cls-6" d="M188.51,265.17c.07.08.16.13.23.2.13.13.24.27.37.39.04.04.06.08.09.11.32.31.68.53,1.02.81.17.15.35.29.53.43.31.24.59.53.92.76.1.07.21.13.31.2.51.34,1.05.58,1.59.86.27.15.54.31.82.44.2.09.38.23.58.32.08.03.16.05.24.08.65.27,1.33.43,2,.62.47.13.9.32,1.38.42.04,0,.09,0,.13.01,1.21.24,2.43.37,3.66.37h0c1.2,0,2.4-.12,3.59-.35.05-.01.11-.02.16-.03.42-.08.8-.25,1.2-.36.71-.19,1.42-.37,2.11-.64.09-.04.19-.06.28-.1.43-.18.8-.44,1.21-.65.59-.3,1.19-.58,1.75-.95.07-.05.16-.08.23-.12.26-.18.5-.41.76-.6.19-.14.36-.3.55-.45.36-.29.75-.52,1.1-.85.07-.07.12-.15.19-.22.12-.12.26-.23.38-.35.04-.04.1-.07.14-.12l75.22-77.9c7.27-7.53,7.07-19.54-.47-26.81-7.53-7.27-19.53-7.06-26.81.47l-42.61,44.13V72.4c0-10.47-8.49-18.96-18.96-18.96s-18.96,8.49-18.96,18.96v131.71l-41.02-43.99c-7.14-7.66-19.15-8.08-26.8-.94-7.66,7.14-8.08,19.14-.94,26.8l73.85,79.19Z"/>
      </g>
    </g>
    <rect class="cls-2" width="1348.57" height="485.36"/>
    <rect class="cls-6" x="1456.85" y="159.51" width="342.61" height="206.4" rx="44.88" ry="44.88"/>
    <g>
      <path class="cls-3" d="M1514.17,309.74c-1.74,0-3.19-.59-4.38-1.77s-1.77-2.64-1.77-4.38v-80.08c0-1.81.59-3.29,1.77-4.44,1.18-1.14,2.64-1.71,4.38-1.71h23.66c5.91,0,11.16,1.3,15.73,3.9,4.57,2.6,8.14,6.21,10.7,10.82,2.56,4.61,3.84,9.92,3.84,15.91s-1.28,10.88-3.84,15.38c-2.56,4.5-6.13,8-10.7,10.53-4.57,2.52-9.82,3.79-15.73,3.79h-17.51v25.9c0,1.74-.57,3.19-1.71,4.38-1.14,1.18-2.62,1.77-4.44,1.77ZM1520.32,266.33h17.51c3.63,0,6.82-.79,9.58-2.37,2.76-1.58,4.93-3.74,6.5-6.51,1.58-2.76,2.37-5.91,2.37-9.46,0-3.78-.79-7.12-2.37-9.99-1.58-2.88-3.75-5.15-6.5-6.8-2.76-1.66-5.96-2.48-9.58-2.48h-17.51v37.61Z"/>
      <path class="cls-3" d="M1594.37,309.74c-1.74,0-3.19-.59-4.38-1.77s-1.77-2.64-1.77-4.38v-80.08c0-1.81.59-3.29,1.77-4.44,1.18-1.14,2.64-1.71,4.38-1.71h21.29c5.91,0,11.16,1.24,15.73,3.73,4.57,2.48,8.14,5.9,10.7,10.23,2.56,4.34,3.84,9.38,3.84,15.14,0,5.36-1.28,10.13-3.84,14.31-2.56,4.18-6.13,7.45-10.7,9.82-4.57,2.37-9.82,3.55-15.73,3.55h-15.14v29.45c0,1.74-.57,3.19-1.71,4.38-1.14,1.18-2.62,1.77-4.44,1.77ZM1600.52,262.78h15.14c3.63,0,6.82-.69,9.58-2.07,2.76-1.38,4.93-3.31,6.51-5.8,1.58-2.48,2.37-5.3,2.37-8.46,0-3.47-.79-6.54-2.37-9.23-1.58-2.68-3.75-4.77-6.51-6.27-2.76-1.5-5.95-2.25-9.58-2.25h-15.14v34.07ZM1643.45,309.74c-1.11,0-2.11-.24-3.02-.71-.91-.47-1.68-1.22-2.31-2.25l-21.29-34.3,11.95-3.43,19.4,31.23c1.42,2.29,1.62,4.44.59,6.45-1.03,2.01-2.8,3.02-5.32,3.02Z"/>
      <path class="cls-3" d="M1712.17,310.92c-6.94,0-13.29-1.16-19.04-3.49-5.76-2.33-10.7-5.6-14.84-9.82-4.14-4.22-7.35-9.23-9.64-15.02-2.29-5.8-3.43-12.16-3.43-19.1s1.14-13.29,3.43-19.04c2.29-5.75,5.5-10.74,9.64-14.96,4.14-4.22,9.09-7.49,14.84-9.82,5.75-2.32,12.1-3.49,19.04-3.49s13.27,1.16,18.98,3.49c5.72,2.33,10.66,5.6,14.84,9.82,4.18,4.22,7.41,9.21,9.7,14.96,2.29,5.76,3.43,12.11,3.43,19.04s-1.14,13.31-3.43,19.1c-2.29,5.8-5.52,10.8-9.7,15.02-4.18,4.22-9.13,7.49-14.84,9.82-5.72,2.33-12.05,3.49-18.98,3.49ZM1712.17,299.8c5.12,0,9.84-.93,14.13-2.78,4.3-1.85,8.02-4.42,11.18-7.69,3.15-3.27,5.58-7.12,7.27-11.53,1.7-4.42,2.54-9.19,2.54-14.31s-.85-9.89-2.54-14.31c-1.7-4.42-4.12-8.26-7.27-11.53-3.16-3.27-6.88-5.81-11.18-7.63-4.3-1.81-9.01-2.72-14.13-2.72s-9.84.91-14.13,2.72c-4.3,1.81-8,4.36-11.12,7.63-3.12,3.27-5.54,7.12-7.27,11.53-1.74,4.42-2.6,9.19-2.6,14.31s.87,9.9,2.6,14.31c1.73,4.42,4.16,8.26,7.27,11.53,3.11,3.27,6.82,5.84,11.12,7.69,4.3,1.85,9.01,2.78,14.13,2.78Z"/>
    </g>
  </g>
</svg>