<svg width="128" height="128" viewBox="0 0 128 128" fill="none" xmlns="http://www.w3.org/2000/svg">
<rect width="128" height="128" fill="white"/>
<g filter="url(#filter0_b_177_79)">
<path d="M89.8748 22.2115L79.8983 22.3195L74.8127 22L74.6921 22.1035L72.643 29.7946L69.7317 37.2338L67.9978 41.5991V41.6666L64.7712 51.4189L61.234 42.0807L57.3352 34.3265L56.6537 28.2555L54.6695 22.8011L54.4794 22.7021L46.8672 24.2097L39.1808 22.315L39 22.5355L42.3518 28.5885L45.5923 39.8935L50.5945 49.9833L52.7595 56.3514L55.6708 67.5888V67.6428L58.7723 75.901L58.9531 76L70.8536 75.892L70.9695 75.7975L73.9457 66.1532L77.1028 56.3559L80.7559 51.1894L82.0633 44.9744L84.6038 37.5443L87.8814 29.1376L90 22.3915L89.8841 22.207L89.8748 22.2115ZM89.4112 22.54L84.9746 26.4509L80.3016 22.6481L89.4112 22.5445V22.54ZM73.9365 43.7998C73.9365 43.7998 73.9365 43.7863 73.9365 43.7773C73.9365 43.7143 73.9225 43.6513 73.9133 43.5883C73.9133 43.5748 73.9133 43.5613 73.9086 43.5478C73.8947 43.4713 73.8669 43.3948 73.8391 43.3228C73.8345 43.3093 73.8298 43.3003 73.8252 43.2868C73.8159 43.2643 73.8113 43.2418 73.802 43.2238C73.7835 43.1878 73.7557 43.1563 73.7371 43.1248C73.7186 43.0933 73.6954 43.0573 73.6722 43.0258C73.6583 43.0123 73.649 42.9988 73.6351 42.9807C73.5841 42.9177 73.5331 42.8637 73.4729 42.8097L74.9564 40.4065L81.3493 44.7224L73.9179 43.9978C73.9226 43.9438 73.9365 43.8898 73.9365 43.8313C73.9365 43.8223 73.9365 43.8133 73.9365 43.8043V43.7998ZM74.1173 55.1408L65.9765 52.1885L75.5683 53.1741C75.6008 53.2551 75.6471 53.3316 75.7074 53.3946L74.1219 55.1408H74.1173ZM74.2146 55.4828L76.6717 56.3514L69.0085 61.2838L74.2146 55.4873V55.4828ZM76.5094 52.3145C76.4213 52.274 76.3193 52.247 76.2127 52.247C76.1385 52.247 76.0736 52.2605 76.0041 52.283L73.1762 45.0419C73.255 45.0014 73.3291 44.9519 73.4033 44.8979L78.5214 49.4928L76.5048 52.3145H76.5094ZM81.7527 30.1187C81.7851 30.1187 81.8176 30.1142 81.85 30.1097L82.4295 31.8333L79.6665 33.3679C79.6062 33.2824 79.5367 33.2059 79.4625 33.1384L81.5348 30.0827C81.6043 30.1052 81.6785 30.1187 81.7527 30.1187ZM78.832 35.4651L79.5089 37.5713L76.5929 37.7243L77.9744 35.3931C78.1413 35.4651 78.3267 35.5011 78.5168 35.5011C78.6234 35.5011 78.73 35.4876 78.832 35.4606V35.4651ZM81.0665 29.3491L79.2771 29.4301L79.5042 27.3059L81.1732 29.0611C81.1129 29.1466 81.0804 29.2456 81.0665 29.3536V29.3491ZM81.0851 29.6236C81.1222 29.7451 81.1917 29.8532 81.2844 29.9387L79.1983 32.9494C79.1009 32.8954 78.9989 32.8504 78.8876 32.8234L79.2632 29.7046L81.0851 29.6236ZM78.9711 29.4301L73.2179 29.6416L77.5386 25.2043L79.2122 26.9729L78.9711 29.4301ZM78.9016 29.7091L78.5539 32.7694C78.5539 32.7694 78.5307 32.7694 78.5168 32.7694C78.132 32.7694 77.7843 32.9269 77.5293 33.1744L73.2411 29.9207L78.8969 29.7136L78.9016 29.7091ZM77.7101 35.2401L76.2081 37.7333L72.4715 37.8818C72.4715 37.8818 72.4576 37.8548 72.453 37.8458L77.4227 34.9656C77.5061 35.0736 77.5989 35.1681 77.7101 35.2446V35.2401ZM72.5642 38.1969L76.0226 38.0168L74.8636 39.9745L72.5318 38.4309C72.5549 38.3634 72.5689 38.2959 72.5689 38.2194C72.5689 38.2104 72.5689 38.2059 72.5689 38.1969H72.5642ZM72.2304 37.6388C72.1609 37.5983 72.0867 37.5668 72.0079 37.5488L72.1423 36.5902L77.0889 34.8171L72.2304 37.6388ZM71.6509 37.5758C71.5397 37.6118 71.4423 37.6748 71.3635 37.7603L70.2648 37.2653L71.7715 36.7477L71.6509 37.5758ZM71.2152 38.0033C71.192 38.0708 71.1734 38.1428 71.1734 38.2239C71.1734 38.2914 71.1873 38.3544 71.2013 38.4129L70.682 38.9259L70.1443 37.5218L71.2152 38.0078V38.0033ZM71.3728 38.6964C71.4701 38.7954 71.5953 38.8674 71.739 38.8944L72.1933 42.5127C72.1933 42.5127 72.1609 42.5217 72.1423 42.5262L70.8536 39.2049L71.3681 38.6964H71.3728ZM72.0496 38.8809C72.1841 38.8449 72.3 38.7729 72.3881 38.6739L74.6828 40.2355L73.2318 42.6432C73.0278 42.5307 72.796 42.4587 72.5457 42.4587C72.5457 42.4587 72.5364 42.4587 72.5318 42.4587L72.045 38.8764L72.0496 38.8809ZM75.0815 40.15L76.4028 38.0123L79.5506 37.8548L81.6599 44.5559L75.0862 40.15H75.0815ZM79.1194 35.3616C79.342 35.2536 79.532 35.0961 79.6711 34.8936L83.9779 37.3598L79.8195 37.5623L79.1241 35.3571L79.1194 35.3616ZM79.8009 34.6596C79.8705 34.4975 79.9076 34.322 79.9076 34.1375C79.9076 33.953 79.8705 33.791 79.8056 33.6335L82.5269 32.1213L84.1958 37.1933L79.8009 34.6596ZM82.1513 29.9927C82.2951 29.8937 82.3971 29.7406 82.4341 29.5606L87.1396 29.1871L82.7169 31.6668L82.1513 29.9882V29.9927ZM82.4156 29.2456C82.4063 29.2051 82.3924 29.1691 82.3739 29.1331L84.9793 26.8694L87.4363 28.9036L82.4202 29.2456H82.4156ZM84.7614 26.6354L82.1699 28.8901C82.054 28.8046 81.9103 28.7506 81.7527 28.7506C81.748 28.7506 81.7434 28.7506 81.7341 28.7506L80.1811 22.9091L84.7614 26.6354ZM79.9771 23.3366L81.4328 28.8316C81.4328 28.8316 81.4096 28.8406 81.4003 28.8496L79.5877 26.8829L79.9771 23.3366ZM79.2956 26.6084L77.7472 24.9612L79.6989 22.9136L79.2956 26.6084ZM79.5877 22.585L77.5432 24.7182L75.2113 22.279L79.5877 22.585ZM74.9054 22.4365L77.3346 24.9657L73.1252 29.2951L74.9054 22.4365ZM72.9397 30.0782L77.3717 33.3679C77.2187 33.5885 77.1306 33.8495 77.1306 34.1375C77.1306 34.25 77.1492 34.358 77.1723 34.4615L72.1563 36.2977L72.9351 30.0737L72.9397 30.0782ZM72.5318 31.0053L71.8503 36.3967L70.1443 36.9863L72.5364 31.0053H72.5318ZM69.9171 37.6838L70.4734 39.1194L68.5912 41.0456L69.9171 37.6838ZM70.58 39.4615L71.8735 42.6387C71.6509 42.7647 71.4655 42.9492 71.345 43.1698L68.4058 41.6576L70.58 39.457V39.4615ZM68.2157 41.8692L71.2152 43.4803C71.1873 43.5928 71.1642 43.7053 71.1642 43.8268C71.1642 44.2094 71.3218 44.5514 71.5768 44.7989L65.1467 51.3289L68.2111 41.8692H68.2157ZM71.8039 44.9789C72.0218 45.1139 72.2768 45.1949 72.5503 45.1949C72.6569 45.1949 72.7589 45.1814 72.8609 45.1589L75.7584 52.418C75.6239 52.535 75.5359 52.7016 75.522 52.8861L65.1467 51.8285L71.8039 44.9789ZM73.9133 55.3838L68.4382 61.4593C68.3641 61.4323 68.2899 61.4188 68.2111 61.4188C68.1786 61.4188 68.1508 61.4233 68.1184 61.4278L65.0586 52.166L73.9133 55.3838ZM68.6329 74.2179L60.7843 74.3214L63.3943 68.6509C63.487 68.6824 63.5798 68.7004 63.6818 68.7004C63.844 68.7004 63.997 68.6554 64.1314 68.5789L68.6376 74.2179H68.6329ZM67.4276 72.2062L68.9853 73.9613L68.925 74.0693L67.4276 72.2062ZM66.7878 74.5104L64.7202 74.8119L62.6943 74.5869L66.7832 74.5104H66.7878ZM60.2604 73.2818L58.1047 67.7598L62.7638 67.8498C62.7777 68.0838 62.8844 68.2954 63.0466 68.4484L60.2604 73.2818ZM60.3022 74.4249L59.5558 75.1089L60.126 74.1143L60.3022 74.4249ZM53.6588 35.8387L54.5165 33.6515L56.8113 34.3535L53.6542 35.8387H53.6588ZM56.4265 34.8531L52.7038 38.5614C52.676 38.5389 52.6482 38.5209 52.6158 38.5029L53.478 36.2617L56.4311 34.8531H56.4265ZM54.3218 33.2959L46.8811 30.8882C46.9321 30.7487 46.9599 30.6047 46.9645 30.4517L55.6801 28.6381L55.9073 29.4301L54.3218 33.2959ZM46.9367 30.1727C46.9089 30.0197 46.8486 29.8802 46.7698 29.7496L50.9005 26.1493L55.5549 28.0665L55.6477 28.305L46.9367 30.1727ZM54.2244 33.566L53.2648 36.0772L50.7289 37.2338L46.4314 31.5093C46.5612 31.4103 46.6725 31.2888 46.7559 31.1493L54.2244 33.566ZM51.4521 38.7009C51.3223 38.8494 51.2435 39.0339 51.2296 39.2409L46.487 39.5965L50.6269 37.6433L51.4475 38.7009H51.4521ZM50.9097 37.4813L53.0701 36.4507L52.2959 38.3949C52.2449 38.3859 52.1985 38.3814 52.1475 38.3814C51.9714 38.3814 51.8137 38.4309 51.6747 38.5119L50.9097 37.4813ZM52.1939 40.1995C52.5138 40.186 52.7919 40.0105 52.9449 39.754L60.6359 42.1617L52.1383 45.4785C52.0594 45.3479 51.9436 45.2489 51.7998 45.1904L52.1939 40.1995ZM51.9714 46.3605L59.3101 51.7385L52.2449 50.1363L51.8045 46.4595C51.8647 46.437 51.925 46.401 51.976 46.3605H51.9714ZM63.9414 52.0805L60.6591 53.2866L60.3856 52.5935C60.5108 52.4855 60.5989 52.337 60.622 52.1615L63.946 52.076L63.9414 52.0805ZM67.6177 62.4539L64.0202 66.9407C63.9136 66.9002 63.8023 66.8732 63.6818 66.8732C63.6725 66.8732 63.6632 66.8732 63.6493 66.8732L63.1672 62.7824L67.5342 62.2469C67.5481 62.3189 67.5806 62.3864 67.6177 62.4494V62.4539ZM58.9253 63.3314L62.8705 62.8544L63.348 66.9362C63.2089 66.9902 63.0837 67.0758 62.9864 67.1883L58.1696 64.443L58.9253 63.3314ZM57.8822 64.281L56.7139 63.633L58.5173 63.4035L57.8822 64.281ZM62.3791 59.7806C62.4115 59.7806 62.444 59.7716 62.481 59.7716L62.7963 62.5304L59.1385 62.9894L61.5075 59.5556C61.7671 59.6951 62.0638 59.7806 62.3837 59.7806H62.3791ZM67.5435 61.9273L63.1533 62.5124L62.8009 59.7311C63.1996 59.6366 63.5473 59.4161 63.8023 59.1101L67.6084 61.7743C67.5806 61.8238 67.5574 61.8733 67.5435 61.9318V61.9273ZM62.3791 56.1308C62.2029 56.1308 62.036 56.1623 61.8737 56.2073L60.7657 53.5566L64.5533 52.175L62.94 56.2254C62.7638 56.1713 62.5738 56.1308 62.3791 56.1308ZM59.9359 52.7646C59.9962 52.7646 60.0518 52.7556 60.1074 52.7421L60.3624 53.3856L54.3032 55.6313L59.4352 52.553C59.5604 52.6836 59.7412 52.7691 59.9359 52.7691V52.7646ZM60.469 53.6511L61.5585 56.3289C61.0856 56.5584 60.7333 56.9814 60.5942 57.4945L53.4688 56.2569L60.469 53.6556V53.6511ZM61.1227 59.2901C61.1552 59.3216 61.1923 59.3486 61.2293 59.3756L58.7352 63.0659L56.7093 63.3089L61.1227 59.2901ZM57.757 64.5375L57.1729 65.4151L56.5934 63.894L57.7617 64.5375H57.757ZM57.9842 64.7086L62.8241 67.4493C62.8056 67.4943 62.7917 67.5348 62.7824 67.5843L57.9981 67.4853L57.2934 65.7661L57.9888 64.7131L57.9842 64.7086ZM62.1426 70.6041L60.5618 74.0783L60.3763 73.6328L62.1426 70.6041ZM67.8356 62.6789C67.9422 62.7509 68.072 62.7914 68.2111 62.7914C68.4011 62.7914 68.5727 62.7149 68.6978 62.5934L73.3755 66.0002L64.5255 67.4268C64.4745 67.3098 64.3957 67.2063 64.303 67.1208L67.8356 62.6789ZM67.8541 61.5223C67.8541 61.5223 67.817 61.5448 67.7985 61.5583L63.9692 58.8761C64.1314 58.606 64.2288 58.291 64.2288 57.958C64.2288 57.2514 63.8208 56.6484 63.2274 56.3469L64.7712 52.355L67.8541 61.5268V61.5223ZM64.5672 51.743L60.5849 51.8375C60.52 51.671 60.3949 51.536 60.2326 51.4595L61.1505 42.7737L64.5672 51.743ZM59.9313 51.3964C59.7968 51.3964 59.667 51.437 59.5604 51.5045L52.1753 46.104C52.2124 46.0185 52.2356 45.924 52.2356 45.825C52.2356 45.798 52.231 45.7755 52.2263 45.7485L60.8677 42.3462L59.9266 51.3919L59.9313 51.3964ZM60.7611 41.8962L53.0515 39.484C53.0654 39.421 53.0747 39.3534 53.0747 39.2859C53.0747 39.0834 53.0052 38.8989 52.8939 38.7504L57.1358 34.5965L60.7611 41.8962ZM54.6278 33.3859L56.0232 30.0017L56.9504 34.142L54.6231 33.3859H54.6278ZM55.9444 28.278L55.9258 28.2195L56.0232 28.2465L55.9397 28.2735L55.9444 28.278ZM56.2503 28.4895L56.0974 28.9216L55.9861 28.5615L56.2503 28.4895ZM56.7418 31.7298L56.2225 29.4931L56.4404 28.9306L56.7418 31.7298ZM56.2503 28.044L55.8377 27.8865L55.2443 25.2673L56.2503 28.044ZM55.4576 27.7245L51.1833 25.9693L54.3867 23.1296L55.453 27.7245H55.4576ZM53.988 23.0666L50.8958 25.8118L47.3864 24.3897L53.988 23.0666ZM47.0387 24.5562L50.6084 26.0053L46.5844 29.5066C46.4314 29.3446 46.2367 29.2231 46.0235 29.1511L47.0434 24.5607L47.0387 24.5562ZM46.5705 24.3987L43.3439 27.5175L39.5239 22.7381L46.5705 24.3987ZM40.2193 24.0792L43.075 27.7605L42.5419 28.2735L40.2193 24.0792ZM43.2604 27.954L44.5353 29.5426C44.5029 29.5786 44.4704 29.6146 44.438 29.6551L42.7319 28.503L43.2604 27.9585V27.954ZM42.7551 28.8721L44.285 29.9387C44.2247 30.0917 44.1876 30.2582 44.1876 30.4337C44.1876 31.1313 44.7161 31.6983 45.3976 31.7838L45.4996 38.5839L42.7597 28.8676L42.7551 28.8721ZM45.5738 29.0701C45.2585 29.0701 44.9711 29.1781 44.7393 29.3536L43.4783 27.774L46.6493 24.8082L45.7314 29.0881C45.6804 29.0836 45.6248 29.0701 45.5738 29.0701ZM45.7592 31.7883C45.9029 31.7703 46.0374 31.7343 46.1625 31.6758L50.4322 37.3913L45.8658 39.5875L45.7592 31.7883ZM51.2713 39.5695C51.3641 39.8485 51.5866 40.069 51.874 40.159L51.4892 45.1454C51.3872 45.1544 51.2945 45.1814 51.2111 45.2264L46.0049 39.9385L51.276 39.5695H51.2713ZM46.2784 40.6271L50.9654 45.4425C50.8912 45.5505 50.8495 45.681 50.8495 45.825C50.8495 46.0365 50.9468 46.221 51.0998 46.347L50.6779 49.3938L46.2784 40.6271ZM51.378 46.4865C51.4243 46.4955 51.4707 46.5045 51.5217 46.5045L51.9436 50.0553L50.9607 49.8168L51.378 46.4865ZM50.9839 50.1048L51.9621 50.3389L52.5601 54.7222L50.9885 50.1048H50.9839ZM52.3237 50.4199L59.2452 52.013C59.2452 52.013 59.2405 52.058 59.2405 52.0805C59.2405 52.157 59.2544 52.229 59.2776 52.2965L53.0469 56.0813L52.3237 50.4199ZM60.5479 57.778C60.5432 57.8365 60.5293 57.895 60.5293 57.9535C60.5293 58.3765 60.6777 58.7591 60.9234 59.0651L56.306 63.2909L53.1628 56.5089L60.5479 57.778ZM53.5244 57.9535L56.102 63.561L55.7636 66.7292L53.5198 57.9535H53.5244ZM56.3199 64.164L56.9643 65.6986L56.0556 67.0038L56.3245 64.164H56.3199ZM57.0802 66.0452L57.6319 67.4808H56.1484L57.0848 66.0452H57.0802ZM57.7338 67.7598L59.9684 73.3853L56.1484 67.7598H57.7338ZM56.4451 68.7184L59.9359 73.8488L58.9624 75.4915L56.4451 68.7184ZM60.5803 74.6094L63.6818 74.9919L59.3889 75.6535L60.5849 74.6094H60.5803ZM61.03 75.6715L64.7156 75.1449L68.6561 75.6265L61.03 75.667V75.6715ZM65.8097 74.9784L68.9204 74.5014L70.2833 75.5455L65.8097 74.9829V74.9784ZM69.1383 74.3304L69.2449 74.1998L69.7363 74.7444L69.1383 74.3259V74.3304ZM70.7608 75.46L69.3701 73.8983L73.2503 67.2963L70.7562 75.4645L70.7608 75.46ZM69.1661 73.7003L64.4003 68.3539C64.5255 68.1964 64.6043 68.0028 64.6043 67.7913C64.6043 67.7553 64.5997 67.7193 64.595 67.6788L73.4682 66.2612L69.1661 73.7003ZM73.6722 65.8337L68.8555 62.3639C68.8879 62.2829 68.9065 62.1929 68.9065 62.1028C68.9065 61.9858 68.874 61.8778 68.823 61.7833L76.6948 56.6799L73.6722 65.8337ZM74.4186 55.2308L75.9299 53.5566C75.9995 53.5881 76.0736 53.6016 76.1478 53.6106L76.7737 56.0858L74.414 55.2353L74.4186 55.2308ZM77.0704 55.9778L76.4816 53.5611C76.7319 53.4576 76.9081 53.2146 76.9081 52.9311C76.9081 52.9176 76.9081 52.9041 76.9081 52.8951L80.1764 51.4505L77.075 55.9778H77.0704ZM76.8154 52.5935C76.7922 52.5575 76.769 52.5215 76.7412 52.49L78.7347 49.6818L80.2923 51.0364L76.82 52.5935H76.8154ZM80.487 50.7844L78.9294 49.4253L81.5858 45.654L80.487 50.7799V50.7844ZM78.7115 49.2408L73.6073 44.7044C73.7186 44.5739 73.8067 44.4254 73.8623 44.2589L81.6599 45.0599L78.7115 49.2408ZM81.9427 44.3984L79.9122 37.8458L84.2143 37.6388L81.9427 44.3984ZM84.4879 37.0403L82.7494 31.9503L87.5244 29.3536L84.4879 37.0358V37.0403ZM87.733 28.7506L85.1879 26.6399L89.5086 22.8281L87.733 28.7506Z" fill="#9145F1"/>
</g>
<path d="M89.5352 102.727V101.116C90.1058 101.334 90.8694 101.527 91.8261 101.695C92.7827 101.863 93.7477 101.947 94.7212 101.947C96.1813 101.947 97.2806 101.686 98.0191 101.166C98.7575 100.629 99.1268 99.7648 99.1268 98.5731C99.1268 97.7843 98.9925 97.1634 98.724 96.7102C98.4722 96.2403 98.0443 95.8627 97.4401 95.5773C96.8526 95.2752 95.9799 94.9815 94.8219 94.6962C93.5463 94.3941 92.5645 94.0752 91.8764 93.7396C91.2051 93.3871 90.71 92.9256 90.3911 92.355C90.089 91.7843 89.938 91.0039 89.938 90.0137C89.938 86.9592 91.8093 85.4319 95.5519 85.4319C96.3072 85.4319 97.1044 85.499 97.9435 85.6333C98.7827 85.7508 99.4289 85.8934 99.882 86.0613V87.6221C99.3114 87.4207 98.6401 87.2529 97.868 87.1186C97.096 86.9843 96.3156 86.9172 95.5268 86.9172C94.1673 86.9172 93.1687 87.1522 92.531 87.6221C91.8932 88.0752 91.5743 88.8724 91.5743 90.0137C91.5743 90.6682 91.6666 91.1885 91.8512 91.5745C92.0526 91.9438 92.4219 92.2627 92.9589 92.5312C93.5128 92.7829 94.3352 93.0347 95.4261 93.2864C96.7855 93.6053 97.8345 93.9578 98.5729 94.3438C99.3282 94.7298 99.882 95.2501 100.234 95.9046C100.587 96.5592 100.763 97.4403 100.763 98.548C100.763 100.21 100.251 101.443 99.2275 102.249C98.2205 103.037 96.7184 103.432 94.7212 103.432C93.6974 103.432 92.6904 103.356 91.7002 103.205C90.71 103.054 89.9883 102.895 89.5352 102.727Z" fill="#9145F1"/>
<path d="M72.3496 103.18V85.7087H74.993L84.0811 100.713H84.2321V85.7087H85.9188V103.18H83.779L74.137 87.3199H73.986V103.18H72.3496Z" fill="#9145F1"/>
<path d="M68.0749 103.18L66.0106 97.6164H58.0805L55.991 103.18H54.2539L60.9252 85.7087H63.2413L69.8623 103.18H68.0749ZM58.6343 96.1311H65.4819L62.2343 87.2948H61.9574L58.6343 96.1311Z" fill="#9145F1"/>
<path d="M53.8594 87.2192H46.1811V93.5129H53.3559V95.0234H46.1811V103.18H44.5195V85.7087H53.8594V87.2192Z" fill="#9145F1"/>
<path d="M33.8657 103.18L28 85.7087H29.7622L34.8979 101.393H35.049L40.2098 85.7087H41.8965L35.9552 103.18H33.8657Z" fill="#9145F1"/>
<defs>
<filter id="filter0_b_177_79" x="19" y="2" width="91" height="94" filterUnits="userSpaceOnUse" color-interpolation-filters="sRGB">
<feFlood flood-opacity="0" result="BackgroundImageFix"/>
<feGaussianBlur in="BackgroundImageFix" stdDeviation="10"/>
<feComposite in2="SourceAlpha" operator="in" result="effect1_backgroundBlur_177_79"/>
<feBlend mode="normal" in="SourceGraphic" in2="effect1_backgroundBlur_177_79" result="shape"/>
</filter>
</defs>
</svg>
