<?xml version="1.0" encoding="UTF-8"?>
<svg xmlns="http://www.w3.org/2000/svg" viewBox="0 0 512 512">
  <defs>
    <linearGradient id="pinGrad" x1="0" y1="0" x2="1" y2="1">
      <stop offset="0" stop-color="#ff007a"/>
      <stop offset="0.35" stop-color="#ff8a00"/>
      <stop offset="0.7" stop-color="#00c2ff"/>
      <stop offset="1" stop-color="#7a00ff"/>
    </linearGradient>
    <linearGradient id="vGrad" x1="0" y1="0" x2="1" y2="1">
      <stop offset="0" stop-color="#ffffff" stop-opacity="0.9"/>
      <stop offset="1" stop-color="#d9d9ff" stop-opacity="0.9"/>
    </linearGradient>
    <linearGradient id="beatGrad" x1="0" y1="0" x2="1" y2="0">
      <stop offset="0" stop-color="#9cff00"/>
      <stop offset="1" stop-color="#00e0ff"/>
    </linearGradient>
  </defs>

  <!-- Map pin silhouette -->
  <path d="M256 24
           c-93 0-168 75-168 168
           c0 123 168 296 168 296
           s168-173 168-296
           c0-93-75-168-168-168z
           m0 248
           a80 80 0 1 1 0-160
           a80 80 0 1 1 0 160z"
        fill="url(#pinGrad)"/>

  <!-- Inner V mark -->
  <path d="M206 208
           l50 86
           l50-86
           c4-7 2-16-5-20
           c-7-4-16-2-20 5
           l-25 44
           l-25-44
           c-4-7-13-9-20-5
           c-7 4-9 13-5 20z"
        fill="url(#vGrad)"/>

  <!-- Wave/heartbeat line -->
  <polyline points="64,320 110,320 126,300 142,340 166,280 190,360 220,320 244,320
                    260,300 276,340 300,280 324,360 352,320 448,320"
            fill="none" stroke="url(#beatGrad)" stroke-width="12" stroke-linecap="round" stroke-linejoin="round"/>
</svg>
