<svg version="1.1" id="Layer_1" xmlns="http://www.w3.org/2000/svg" xmlns:xlink="http://www.w3.org/1999/xlink" x="0px" y="0px"
	 width="100%" viewBox="0 0 1024 1024" enable-background="new 0 0 1024 1024" xml:space="preserve">
<path fill="#000000" opacity="1.000000" stroke="none" 
	d="
M1006.469360,1025.000000 
	C1010.632080,1022.260193 1015.579163,1020.147766 1019.208130,1015.747803 
	C1021.374390,1013.121338 1022.360840,1009.953430 1024.707275,1007.187378 
	C1025.000000,1012.927856 1025.000000,1018.855713 1025.000000,1025.000000 
	C1018.981323,1025.000000 1012.960022,1025.000000 1006.469360,1025.000000 
z"/>
<path fill="#000000" opacity="1.000000" stroke="none" 
	d="
M1025.000000,18.530293 
	C1020.671082,11.571994 1015.653137,4.853449 1007.090088,1.346023 
	C1012.925720,1.000000 1018.851501,1.000000 1025.000000,1.000000 
	C1025.000000,6.684937 1025.000000,12.372761 1025.000000,18.530293 
z"/>
<path fill="#000000" opacity="1.000000" stroke="none" 
	d="
M1.000000,1007.469727 
	C5.257369,1014.856445 10.723128,1021.433411 19.757988,1024.743896 
	C13.742908,1025.000000 7.485816,1025.000000 1.000000,1025.000000 
	C1.000000,1019.315186 1.000000,1013.627258 1.000000,1007.469727 
z"/>
<path fill="#000000" opacity="1.000000" stroke="none" 
	d="
M19.530624,1.000000 
	C11.525482,4.415156 5.386611,10.284459 1.271580,18.782822 
	C1.000000,13.072124 1.000000,7.144247 1.000000,1.000000 
	C7.018701,1.000000 13.039975,1.000000 19.530624,1.000000 
z"/>
<path fill="#000000" opacity="1.000000" stroke="none" 
	d="
M740.000122,543.679688 
	C749.499695,543.681702 758.500305,543.765320 767.498230,543.644714 
	C770.832825,543.600037 772.291870,544.695496 772.281494,548.239258 
	C772.196045,577.404175 772.202637,606.569580 772.279114,635.734558 
	C772.288208,639.193970 770.965088,640.428589 767.544983,640.387329 
	C756.880493,640.258423 746.213318,640.350098 735.547180,640.350952 
	C638.052002,640.358887 540.556824,640.366821 443.061615,640.362610 
	C441.432312,640.362549 439.803009,640.211487 437.982758,640.121460 
	C437.271332,635.644775 439.316315,632.029663 440.402100,628.338684 
	C448.151642,601.995789 456.191681,575.738037 463.882507,549.378357 
	C465.207489,544.837097 467.417725,543.573669 472.013184,543.580566 
	C561.175293,543.714905 650.337708,543.680176 740.000122,543.679688 
z"/>
<path fill="#000000" opacity="1.000000" stroke="none" 
	d="
M307.000061,387.675842 
	C399.773682,387.675598 492.047272,387.675598 584.008118,387.675598 
	C585.419556,390.207245 584.299622,391.884338 583.802185,393.551758 
	C575.287231,422.091797 566.667847,450.600922 558.258545,479.171936 
	C557.140320,482.970886 555.542847,484.463257 551.369873,484.457977 
	C454.387238,484.335602 357.404419,484.365112 260.421631,484.360626 
	C253.820328,484.360321 253.753204,484.291992 253.749603,477.646515 
	C253.734528,449.818115 253.840637,421.988922 253.625519,394.162140 
	C253.587479,389.241974 254.808731,387.448242 260.011261,387.555908 
	C275.501709,387.876495 291.003021,387.674103 307.000061,387.675842 
z"/>
<path fill="#000000" opacity="1.000000" stroke="none" 
	d="
M563.500000,493.580505 
	C580.681458,436.151917 597.762573,379.113525 614.830750,322.071198 
	C621.123657,301.040253 627.490234,280.030182 633.568909,258.937317 
	C634.702515,255.003601 636.500427,253.651489 640.533936,253.670151 
	C669.182861,253.802795 697.832764,253.720856 726.482361,253.737732 
	C731.911194,253.740936 732.204102,254.163315 730.583008,259.587372 
	C711.100159,324.774719 691.594604,389.955261 672.109009,455.141815 
	C664.962097,479.050873 657.738586,502.938232 650.827942,526.915649 
	C649.546570,531.361572 647.630310,533.084473 642.905579,533.054688 
	C614.757019,532.877380 586.606567,532.993652 558.456787,532.993713 
	C552.192566,532.993713 551.833374,532.536133 553.633179,526.462585 
	C556.846436,515.619446 560.136597,504.799042 563.500000,493.580505 
z"/>
<path fill="#000000" opacity="1.000000" stroke="none" 
	d="
M345.709534,772.832703 
	C328.912079,772.866394 312.587891,772.906738 296.263733,772.891052 
	C290.225739,772.885315 289.824829,772.320190 291.547913,766.562317 
	C308.620361,709.514038 325.712830,652.471741 342.781586,595.422363 
	C352.458740,563.078247 362.118195,530.728882 371.732910,498.366241 
	C372.559631,495.583527 373.526367,493.638062 377.031219,493.649811 
	C406.681000,493.749420 436.331268,493.707977 465.981354,493.733551 
	C466.940063,493.734375 467.898560,493.998932 468.700104,494.117310 
	C470.052002,496.413055 468.918304,498.259735 468.366730,500.107452 
	C450.856262,558.766541 433.323364,617.418945 415.801544,676.074646 
	C406.945770,705.720093 398.088409,735.365051 389.268951,765.021301 
	C387.058502,772.454041 387.124054,772.407410 379.150452,772.452881 
	C368.160919,772.515564 357.171997,772.690369 345.709534,772.832703 
z"/>
<path fill="#000000" opacity="1.000000" stroke="none" 
	d="
M568.000000,649.799194 
	C583.215271,649.799072 597.930542,649.799072 613.444031,649.799072 
	C612.232727,654.211853 611.425964,657.388733 610.489258,660.526794 
	C599.924255,695.921021 589.273071,731.289795 578.840515,766.722961 
	C577.478638,771.348694 575.447388,772.781067 570.434143,772.706970 
	C550.120667,772.406555 529.797668,772.776062 509.477997,772.865295 
	C500.027039,772.906738 490.575714,772.872375 481.719299,772.872375 
	C479.868073,769.809875 481.165924,767.971436 481.708527,766.145203 
	C492.748016,728.989136 503.876465,691.859436 514.847168,654.683167 
	C515.926331,651.026062 517.677979,649.660645 521.517883,649.707886 
	C536.843323,649.896240 552.172302,649.794067 568.000000,649.799194 
z"/>
<path fill="#000000" opacity="1.000000" stroke="none" 
	d="
M449.332397,253.882675 
	C480.020630,253.880112 510.247375,253.880112 539.999023,253.880112 
	C541.359741,256.255737 540.454163,257.643372 540.044189,259.021210 
	C528.950134,296.307983 517.797607,333.577393 506.759186,370.880554 
	C505.704803,374.443726 504.429047,376.514832 500.073700,376.493042 
	C471.106232,376.348206 442.137390,376.490692 413.168976,376.506134 
	C411.725098,376.506897 410.281006,376.195312 408.590118,376.000763 
	C408.707275,370.737762 410.817291,366.338287 412.160095,361.811035 
	C422.276947,327.702362 432.556824,293.642120 442.748047,259.555481 
	C443.695740,256.385742 444.560394,253.329620 449.332397,253.882675 
z"/>
<path fill="#000000" opacity="1.000000" stroke="none" 
	d="
M687.893799,437.060974 
	C692.344971,422.173767 696.786682,407.704193 700.929626,393.149567 
	C702.061401,389.173309 703.819458,387.522614 708.184692,387.575287 
	C727.336060,387.806396 746.492798,387.773285 765.645264,387.592224 
	C769.893066,387.552063 771.463684,388.693512 771.434998,393.197540 
	C771.254028,421.677856 771.271118,450.160187 771.414917,478.640869 
	C771.436218,482.861603 770.369507,484.482971 765.833252,484.462189 
	C736.687317,484.328583 707.540100,484.470520 678.393311,484.492554 
	C677.263489,484.493408 676.133423,484.194824 674.018555,483.897064 
	C678.668884,468.190948 683.220337,452.818756 687.893799,437.060974 
z"/>
<path fill="#000000" opacity="1.000000" stroke="none" 
	d="
M344.610046,554.504639 
	C336.393616,581.999878 328.285126,609.105957 320.272888,636.240540 
	C319.369232,639.300964 317.750732,640.436401 314.542969,640.415710 
	C296.044373,640.296143 277.544128,640.286011 259.045593,640.409973 
	C255.241318,640.435486 253.673782,639.218506 253.686935,635.256104 
	C253.783157,606.257446 253.769638,577.258118 253.680817,548.259338 
	C253.670044,544.745300 255.069672,543.633850 258.436707,543.642517 
	C286.602203,543.715271 314.768036,543.676941 342.933746,543.685364 
	C344.247986,543.685730 345.616577,543.569580 346.882690,544.639404 
	C347.399384,548.003479 345.446594,550.934204 344.610046,554.504639 
z"/>
</svg>