<svg fill="none" height="44" viewBox="0 0 44 44" width="44" xmlns="http://www.w3.org/2000/svg" xmlns:xlink="http://www.w3.org/1999/xlink"><mask id="a" height="44" maskUnits="userSpaceOnUse" width="40" x="2" y="0"><path d="m3.29612 18.4859c.83978 1.44 1.41643 3.0181 1.70291 4.6605 2.33828-1.2199 5.01597-1.6258 7.61047-1.1536 1.7495.3673 3.3818 1.1596 4.753 2.3072.9403.7866 2.0036 1.413 3.1472 1.854 1.8738.4538 3.8237.4949 5.7149.1203 5.3245-.8454 8.834-.59 11.7886.7729-.3854.0709-.7921.1648-1.2319.2703-3.3655-1.0391-6.9469-1.162-10.3756-.356-1.5644.2675-3.1579.3202-4.7365.1566-1.2288-.1795-2.4033-.6267-3.4404-1.3102-.4381-.3065-.919-.674-1.4213-1.0349-1.1644-.851-2.4525-1.518-3.8192-1.9776-1.2867-.3012-2.616-.3748-3.92796-.2175-1.12845.1718-2.22347.5176-3.24608 1.025-.76478.4146-1.3938 1.0412-1.81161 1.8046.07905.4493.15042.8141.2141 1.0942.02635-.0379.65876-1.9924 2.15911-2.0946 1.50035-.1021 2.01419 1.6002 2.22499 2.5379.20399 1.2152.22342 2.4541.05764 3.6751-.05764.674-.11693 1.3694-.11693 2.0484-.01536 1.068.11204 2.1332.37879 3.1674.4282.4845.88275.9427 1.35875 1.3843-.77274-1.386-1.13384-2.964-1.04089-4.5484 0-.646.05764-1.3184.11034-1.9891.17569-1.2996.15125-2.6185-.07246-3.9107-.07169-.5546-.2601-1.0877-.55278-1.5641-.29269-.4763-.68301-.8852-1.1452-1.1996 1.59164-.0966 3.17619.2807 4.55379 1.0844 1.385.9113 1.9581 2.1869 3.4041 3.5283 1.6238 1.4761 3.615 2.4871 5.7643 2.9269 1.462.1403 2.9365-.0646 4.305-.5982 1.4658-.473 4.1173-1.6332 5.6506-2.1029 1.1019-.329 2.2351-.5422 3.3811-.6361-1.3998.6361-3.2938 2.1753-3.246 3.3388.0477 1.1965.634 1.9595.3178 3.1197-.3162 1.1601-.9651 1.7254-.9651 2.5708-5.2537 1.4074-9.5933 1.1042-12.8707-.9113-2.2755-1.4075-3.9868-3.5677-4.837-6.1058l-.1532-.4944h-.7477c.8233 2.9936 2.7423 5.5676 5.3756 7.2099 2.1954 1.2812 4.7062 1.9196 7.2465 1.8425 2.0676-.0277 4.123-.3229 6.115-.8784.1054.5867.2388.6032.6719 1.4387.4827.7031.695 1.557.5978 2.4044-2.5669 1.102-5.331 1.6705-8.1242 1.6711-1.1456-.0006-2.2892-.096-3.419-.2851-5.5489-.9952-10.4804-4.1433-13.72092-8.7591-3.24055-4.6158-4.52784-10.3256-3.58166-15.8866zm35.77108 10.1203c.4216-.0649.8527.0178 1.2204.234l.3096.1945c.3663.2503.6777.5725.9156.947.2378.3745.397.7936.4679 1.2316.0283.5214-.0676 1.0421-.2797 1.5192-.2122.477-.5346.8968-.9407 1.2247-.0318.0334-.0702.0597-.1127.0773-.0426.0176-.0883.0261-.1344.0249-.0349.0052-.0704.0052-.1054 0l-6.7853-2.0913-.0626-.0247c-.1525.2045-.2335.4535-.2305.7086.0266.2705.0881.5364.1828.7911.2782.6723.3045 1.4225.0741 2.1127-.1301.3877-.3042.7593-.5188 1.1074-.2119.2431-.3355.5506-.3508.8728-.0152.3222.0788.6401.2668.9021.1367.2653.2833.4944.4085.7037.5117.6561.7669 1.4763.718 2.3072-.0074.0868-.047.1678-.1109.227-.064.0591-.1478.0922-.2349.0927h-.0264c-.044-.0023-.087-.0134-.1266-.0327-.0396-.0192-.075-.0462-.104-.0794.0419-.848-.2074-1.6848-.7065-2.3714-.1202-.2192-.2668-.4697-.4084-.7499-.1882-.2902-.2812-.6319-.2662-.9775.0151-.3456.1375-.6779.3502-.9506.2147-.3758.3871-.7743.5138-1.1882.2246-.7277.1967-1.51-.079-2.2198-.0982-.2779-.1581-.5679-.1779-.8619-.0086-.169.0201-.3378.084-.4944.336-.565.8011-1.0423 1.357-1.3926.9146-.6529 1.9331-1.1461 3.0123-1.4585.3623-.0922.7016-.173 1.0211-.2389l.3557-.061.2536-.0478zm.3937.6592h-.1845c-.4943.052-.9846.1373-1.4674.2554-1.1585.2789-2.2527.7779-3.223 1.4701-.1647.1268-.3459.2603-.5139.3971l6.3341 1.9644c.2861-.2651.5122-.5885.663-.9484.1509-.3599.223-.7479.2115-1.1379-.1182-.6827-.5012-1.2911-1.0655-1.6925l-.2405-.1483c-.2085-.1283-.4528-.1861-.6966-.1648zm-22.7704-13.2317c-.5335.3072-1.0902.5722-1.665.7927-2.647 1.0074-5.54715 1.1385-8.27414.3741.14214.8856.09169 1.7914-.14791 2.6557s-.6627 1.6667-1.24045 2.3525c-.37838-2.2163-1.3811-4.2785-2.89034-5.9443.73659-.0369 1.47059-.1144 2.19864-.2323 8.8538-1.3679 11.3539-.4516 12.0192.0016zm1.2896.0264c-.0712 1.134-.3671 2.2425-.8703 3.261-.5033 1.0185-1.204 1.9267-2.0613 2.6717-2.829-.9685-5.89958-.9685-8.72864 0 .81738-1.1706 1.21338-2.5843 1.12321-4.0095 1.79268.4396 3.65793.4956 5.47373.1642s3.5412-1.0428 5.0633-2.0874zm16.0789-12.86423c3.0871 1.73316 5.6955 4.20674 7.5906 7.19843l.3492.5685-8.4207 4.9588c-.0429-.0708-.084-.1351-.1269-.2043-.7905-1.2615-1.8253-2.352-3.0435-3.2071-1.2183-.8551-2.5952-1.4576-4.0497-1.772s-2.9572-.3343-4.4195-.0585c-1.4624.2757-2.8547.8416-4.0951 1.6642 4.1458-4.8822 9.8951-8.12564 16.2156-9.14803zm-2.1246-1.03493c-2.7545.64677-5.3968 1.70217-7.8393 3.13117-3.9389 2.31564-7.2765 5.52829-9.7416 9.37709-3.2715-.179-6.55262.0363-9.77278.641-.19105.033-.37056.0594-.57643.0808.1647-.4944.33762-.997.53361-1.4832 1.00701-2.5874 2.51923-4.94813 4.44831-6.94414 1.92909-1.99602 4.23639-3.58733 6.78699-4.68097 2.5506-1.09365 5.2935-1.667688 8.0684-1.688592 2.7748-.020904 5.526.511752 8.0928 1.566842z" fill="#fff"/></mask><mask id="b" height="334" maskUnits="userSpaceOnUse" width="334" x="-13" y="-145"><path d="m-12.3457 188.44h332.6777v-332.893h-332.6777z" fill="#fff"/></mask><g mask="url(#a)"><g mask="url(#b)"><path d="m.828125-1.07861h42.912175v46.14371h-42.912175z" fill="#51f0ca"/></g></g></svg>