<svg width="121" height="120" viewBox="0 0 121 120" fill="none" xmlns="http://www.w3.org/2000/svg">
<path d="M47.5925 57.7003C47.4184 57.8744 47.2637 58.0484 47.0897 58.2418C43.7731 57.6713 40.3308 58.0098 37.1496 59.2668C37.0529 59.3151 36.9465 59.1894 36.8691 59.2378C37.7781 57.0138 39.1318 55.0896 40.9303 53.2911L53.5585 40.6629C55.4247 38.7967 57.6003 37.4043 59.9306 36.4857C63.1312 35.219 66.6025 34.8806 69.9481 35.4511C73.6225 36.0699 77.1518 37.8201 79.9946 40.6725C82.8278 43.5057 84.5779 47.035 85.2064 50.7094C82.7794 52.6626 79.7142 53.3975 76.7844 52.9623C76.62 52.9237 76.4653 52.8947 76.3106 52.8753C75.9045 50.8447 74.9182 48.9012 73.3421 47.3251C71.766 45.749 69.8321 44.7627 67.7919 44.3566C64.7267 43.7474 61.4487 44.4533 58.896 46.4935C58.6349 46.6772 58.4125 46.89 58.1902 47.1027C58.1031 47.1704 58.0354 47.2381 57.9581 47.3154L47.5828 57.6907L47.5925 57.7003Z" stroke="url(#paint0_linear_7715_22411)" stroke-width="1.77"/>
<path d="M57.2265 89.8895L44.5983 102.518C37.2882 109.828 25.4529 109.828 18.1525 102.518C14.4974 98.8626 12.6699 94.0763 12.6699 89.29C12.6699 84.5036 14.4974 79.7173 18.1525 76.0622L30.7807 63.434C32.5792 61.6355 34.6485 60.2818 36.8724 59.3825C36.9594 59.3342 37.0658 59.3052 37.1528 59.2568C40.3341 57.9998 43.786 57.6614 47.1026 58.2222C47.1316 58.2222 47.1607 58.2222 47.18 58.2222C50.864 58.8507 54.3934 60.5815 57.2362 63.4243C60.079 66.2671 61.8195 69.7964 62.4383 73.4805C59.8759 75.5304 56.6077 76.2459 53.5425 75.6271C53.1363 73.5965 52.1501 71.6626 50.5739 70.0865C48.9978 68.5104 47.0543 67.5145 45.0334 67.118C44.869 67.089 44.7143 67.0503 44.5596 67.031C41.6298 66.5765 38.5646 67.3308 36.1375 69.2646C35.9925 69.3613 35.8668 69.4774 35.7314 69.6031C35.5477 69.7578 35.3737 69.9222 35.2093 70.0865L24.834 80.4618C22.7164 82.5794 21.6528 85.3545 21.6528 88.149C21.6528 90.9241 22.7068 93.7089 24.834 95.8361C29.0789 100.081 35.9635 100.081 40.1987 95.8361L50.5739 85.4609C50.748 85.2868 50.9124 85.1128 51.0671 84.9291C54.4901 85.5092 58.0387 85.1224 61.2876 83.7881C60.3884 86.012 59.0347 88.0813 57.2362 89.8798L57.2265 89.8895Z" stroke="url(#paint1_linear_7715_22411)" stroke-width="1.77"/>
<path d="M76.3138 52.8636C74.2832 52.4671 72.3493 51.4712 70.7732 49.8951C69.1971 48.3189 68.2108 46.3851 67.8047 44.3545C69.8353 44.7606 71.7691 45.7469 73.3453 47.323C74.9214 48.8991 75.9173 50.8427 76.3138 52.8636Z" stroke="url(#paint2_linear_7715_22411)" stroke-width="1.77"/>
<path d="M96.5208 39.51L86.1455 49.8852C85.8458 50.185 85.546 50.4557 85.2173 50.7071C84.5888 47.0231 82.8579 43.4938 80.0151 40.651C77.1723 37.8082 73.643 36.0677 69.959 35.4488C70.2104 35.1201 70.4811 34.8203 70.7809 34.5206L81.1561 24.1453C85.401 19.9005 92.2856 19.9005 96.5208 24.1453C98.6481 26.2726 99.702 29.0574 99.702 31.8325C99.702 34.6173 98.6384 37.3924 96.5208 39.5197V39.51Z" stroke="url(#paint3_linear_7715_22411)" stroke-width="1.77"/>
<path d="M76.3138 52.8636C74.2832 52.4671 72.3493 51.4712 70.7732 49.8951C69.1971 48.3189 68.2108 46.3851 67.8047 44.3545C69.8353 44.7606 71.7691 45.7469 73.3453 47.323C74.9214 48.8991 75.9173 50.8427 76.3138 52.8636Z" stroke="#463F93" stroke-width="1.77"/>
<path d="M96.5208 39.51L86.1455 49.8852C85.8458 50.185 85.546 50.4557 85.2173 50.7071C84.5888 47.0231 82.8579 43.4938 80.0151 40.651C77.1723 37.8082 73.643 36.0677 69.959 35.4488C70.2104 35.1201 70.4811 34.8203 70.7809 34.5206L81.1561 24.1453C85.401 19.9005 92.2856 19.9005 96.5208 24.1453C98.6481 26.2726 99.702 29.0574 99.702 31.8325C99.702 34.6173 98.6384 37.3924 96.5208 39.5197V39.51Z" stroke="#463F93" stroke-width="1.77"/>
<path d="M76.3138 52.8636C74.2832 52.4671 72.3493 51.4712 70.7732 49.8951C69.1971 48.3189 68.2108 46.3851 67.8047 44.3545C69.8353 44.7606 71.7691 45.7469 73.3453 47.323C74.9214 48.8991 75.9173 50.8427 76.3138 52.8636Z" stroke="#463F93" stroke-width="1.77"/>
<path d="M73.3423 62.691L62.9671 73.0662C58.7222 77.3111 51.8473 77.3111 47.6024 73.0662C45.9006 71.3644 44.895 69.2565 44.5469 67.0519C44.7016 67.0712 44.866 67.1099 45.0207 67.1389C47.0513 67.5353 48.9851 68.5313 50.5612 70.1074C52.1374 71.6835 53.1236 73.6174 53.5297 75.6479C56.5949 76.2571 59.8632 75.5513 62.4256 73.5013C61.7971 69.8173 60.0663 66.288 57.2235 63.4452C54.3806 60.6024 50.8513 58.8619 47.1673 58.243C47.1479 58.243 47.1673 58.156 47.1383 58.156C47.3027 57.9626 47.4187 57.8756 47.5927 57.7015L57.968 47.3263C58.0454 47.2489 58.113 47.1812 58.1904 47.1136C58.4128 46.8912 58.6449 46.6784 58.8963 46.5044C59.5248 50.1884 61.2556 53.7178 64.0984 56.5606C66.9412 59.4034 70.4705 61.1439 74.1546 61.7627C73.9032 62.0915 73.6324 62.3912 73.3327 62.691H73.3423Z" stroke="#463F93" stroke-width="1.77"/>
<path d="M80.0182 67.1076L67.39 79.7359C65.5818 81.544 63.5029 82.8977 61.2886 83.8067C58.0397 85.1507 54.491 85.5278 51.0681 84.9477C47.3647 84.3288 43.7967 82.5883 40.9442 79.7262C38.0918 76.864 36.3513 73.325 35.7324 69.6217C35.8678 69.496 35.9935 69.3896 36.1385 69.2832C38.5656 67.3397 41.6307 66.5952 44.5606 67.0496C44.9087 69.2542 45.9143 71.3622 47.6161 73.064C51.861 77.3088 58.7456 77.3088 62.9808 73.064L73.356 62.6887C73.6558 62.389 73.9265 62.0892 74.1779 61.7605C74.1973 61.7605 74.2263 61.7605 74.2553 61.7605C77.5719 62.3309 81.0239 61.9829 84.2051 60.7258C83.2962 63.0465 81.9038 65.2221 80.0279 67.098L80.0182 67.1076Z" stroke="#463F93" stroke-width="1.77"/>
<path d="M76.3138 52.8636C74.2832 52.4671 72.3493 51.4712 70.7732 49.8951C69.1971 48.3189 68.2108 46.3851 67.8047 44.3545C69.8353 44.7606 71.7691 45.7469 73.3453 47.323C74.9214 48.8991 75.9173 50.8427 76.3138 52.8636Z" stroke="#463F93" stroke-width="1.77"/>
<path d="M53.5403 75.6534C51.5097 75.2472 49.5759 74.261 47.9998 72.6848C46.4236 71.1087 45.4277 69.1652 45.0312 67.1443C47.0618 67.5407 48.9957 68.5367 50.5718 70.1128C52.1479 71.6889 53.1342 73.6228 53.5403 75.6534Z" stroke="#463F93" stroke-width="1.77"/>
<path d="M50.2235 85.824L40.0416 96.0058C35.8838 100.164 29.0668 100.106 24.822 95.8608C22.6947 93.7335 21.6214 90.9681 21.5924 88.222C21.5634 85.4565 22.5883 82.7201 24.6769 80.6412L34.8588 70.4593C35.0232 70.2949 35.1972 70.1402 35.3713 69.9855C35.5067 69.8695 35.6324 69.7534 35.7677 69.6567C36.4252 73.3118 38.1754 76.8218 41.0182 79.6646C43.861 82.5074 47.371 84.2575 51.026 84.915C50.9197 85.0504 50.8133 85.1761 50.7069 85.3018C50.5522 85.4759 50.3975 85.6499 50.2235 85.824Z" stroke="#463F93" stroke-width="1.77"/>
<path d="M53.5403 75.6534C51.5097 75.2472 49.5759 74.261 47.9998 72.6848C46.4236 71.1087 45.4277 69.1652 45.0312 67.1443C47.0618 67.5407 48.9957 68.5367 50.5718 70.1128C52.1479 71.6889 53.1342 73.6228 53.5403 75.6534Z" stroke="#463F93" stroke-width="1.77"/>
<path d="M53.5403 75.6534C51.5097 75.2472 49.5759 74.261 47.9998 72.6848C46.4236 71.1087 45.4277 69.1652 45.0312 67.1443C47.0618 67.5407 48.9957 68.5367 50.5718 70.1128C52.1479 71.6889 53.1342 73.6228 53.5403 75.6534Z" stroke="#463F93" stroke-width="1.77"/>
<path d="M53.5403 75.6534C51.5097 75.2472 49.5759 74.261 47.9998 72.6848C46.4236 71.1087 45.4277 69.1652 45.0312 67.1443C47.0618 67.5407 48.9957 68.5367 50.5718 70.1128C52.1479 71.6889 53.1342 73.6228 53.5403 75.6534Z" stroke="#463F93" stroke-width="1.77"/>
<path d="M103.178 43.9275L90.5502 56.5557C88.6743 58.4315 86.4987 59.8239 84.178 60.7329C80.9968 61.9899 77.5448 62.3283 74.2282 61.7675C74.1992 61.7675 74.1702 61.7675 74.1509 61.7675C70.4668 61.139 66.9375 59.4082 64.0947 56.5654C61.2519 53.7226 59.5114 50.1932 58.8926 46.5092C61.455 44.4593 64.7232 43.7437 67.7884 44.3626C68.1945 46.3931 69.1808 48.327 70.7569 49.9031C72.333 51.4793 74.2766 52.4752 76.2975 52.8716C76.4619 52.9007 76.6166 52.9297 76.7713 52.9587C79.7011 53.4131 82.7663 52.6589 85.1933 50.725C85.5221 50.4736 85.8218 50.2029 86.1216 49.9031L96.4969 39.5279C98.6145 37.4103 99.6781 34.6352 99.6781 31.8407C99.6781 29.0656 98.6241 26.2808 96.4969 24.1535C92.252 19.9087 85.3674 19.9087 81.1322 24.1535L70.7569 34.5288C70.4572 34.8286 70.1864 35.1283 69.935 35.4571C66.5894 34.8866 63.1181 35.225 59.9175 36.4917C60.8265 34.171 62.2188 31.9954 64.0947 30.1196L76.7229 17.4913C84.033 10.1813 95.8683 10.1813 103.169 17.4913C106.824 21.1464 108.651 25.9327 108.651 30.7191C108.651 35.5054 106.824 40.2918 103.169 43.9468L103.178 43.9275Z" stroke="#463F93" stroke-width="1.77"/>
<defs>
<linearGradient id="paint0_linear_7715_22411" x1="36.8691" y1="35.1831" x2="80.0522" y2="54.6002" gradientUnits="userSpaceOnUse">
<stop stop-color="#3B00B9"/>
<stop offset="1" stop-color="#2586B6"/>
</linearGradient>
<linearGradient id="paint1_linear_7715_22411" x1="12.6699" y1="57.9604" x2="63.5903" y2="69.3117" gradientUnits="userSpaceOnUse">
<stop stop-color="#3B00B9"/>
<stop offset="1" stop-color="#2586B6"/>
</linearGradient>
<linearGradient id="paint2_linear_7715_22411" x1="67.8047" y1="44.3545" x2="76.5062" y2="46.3048" gradientUnits="userSpaceOnUse">
<stop stop-color="#3B00B9"/>
<stop offset="1" stop-color="#2586B6"/>
</linearGradient>
<linearGradient id="paint3_linear_7715_22411" x1="69.959" y1="20.9617" x2="100.375" y2="27.7785" gradientUnits="userSpaceOnUse">
<stop stop-color="#3B00B9"/>
<stop offset="1" stop-color="#2586B6"/>
</linearGradient>
</defs>
</svg>
