<svg xmlns="http://www.w3.org/2000/svg" width="118" height="118" fill="none" viewBox="0 0 118 118"><path fill="url(#a)" d="M8.16125 82.6038L50.8712 106.244C51.1412 106.394 51.4812 106.394 51.7512 106.234C52.0212 106.074 52.1912 105.784 52.1912 105.474V66.1038C52.1912 65.7838 52.0212 65.4838 51.7312 65.3338L9.02125 41.6838C8.75125 41.5338 8.41125 41.5338 8.14125 41.6938C7.87125 41.8538 7.70125 42.1438 7.70125 42.4538V81.8238C7.70125 82.1438 7.87125 82.4438 8.16125 82.5938V82.6038ZM9.47125 81.3038V56.8338L50.4112 78.8638V103.964L9.47125 81.3038ZM50.4112 66.6138V76.8538L9.47125 54.8238V43.9638L50.4112 66.6238V66.6138Z"/><path fill="url(#b)" d="M109.831 41.6938C109.561 41.5338 109.231 41.5338 108.951 41.6838L66.2412 65.3238C65.9613 65.4838 65.7812 65.7738 65.7812 66.0938V105.464C65.7812 105.774 65.9512 106.064 66.2212 106.224C66.4912 106.384 66.8213 106.384 67.1012 106.234L109.811 82.5938C110.091 82.4338 110.271 82.1438 110.271 81.8238V42.4538C110.271 42.1438 110.101 41.8538 109.831 41.6938ZM67.5612 66.6138L108.501 43.9538V81.3038L67.5612 103.964V66.6138Z"/><path fill="url(#c)" d="M117.621 30.4438C117.541 30.3538 117.451 30.2638 117.341 30.2038L59.1613 0.433804C58.9013 0.303804 58.6113 0.303804 58.3513 0.433804L0.50125 30.3438C0.50125 30.3438 0.49125 30.3438 0.48125 30.3538C0.48125 30.3538 0.46125 30.3538 0.46125 30.3638C0.43125 30.3838 0.40125 30.4038 0.38125 30.4338C0.35125 30.4538 0.32125 30.4738 0.30125 30.4938C0.27125 30.5238 0.25125 30.5538 0.22125 30.5938C0.20125 30.6238 0.17125 30.6538 0.15125 30.6838C0.13125 30.7238 0.12125 30.7638 0.10125 30.7938C0.09125 30.8238 0.07125 30.8538 0.06125 30.8938C0.05125 30.9438 0.04125 30.9938 0.04125 31.0338C0.04125 31.0638 0.03125 31.0838 0.03125 31.1138V84.6438C0.03125 84.9638 0.20125 85.2638 0.49125 85.4138L58.5713 117.554C58.5713 117.554 58.6313 117.574 58.6713 117.594C58.7113 117.604 58.7412 117.624 58.7812 117.634C58.8213 117.634 58.8512 117.644 58.8913 117.654C58.9313 117.654 58.9613 117.664 59.0013 117.664C59.0413 117.664 59.0713 117.664 59.1113 117.654C59.1513 117.654 59.1913 117.654 59.2213 117.634C59.2613 117.634 59.2913 117.604 59.3313 117.594C59.3613 117.584 59.4013 117.574 59.4313 117.554L117.511 85.4138C117.791 85.2538 117.971 84.9638 117.971 84.6438V31.1238C117.971 30.8538 117.841 30.6138 117.641 30.4438H117.621ZM58.7613 2.2138L115.061 31.0338L68.5412 56.9738L59.0513 62.2238L2.78125 31.1538L58.7613 2.2138ZM58.1013 115.294L1.79125 84.1338V32.6238L58.1013 63.7838V115.294ZM59.8713 63.8238L69.3612 58.5338L116.181 32.6238V84.1338L59.8713 115.294V63.8238Z"/><path fill="url(#d)" d="M83.2412 71.2438C82.8213 70.9938 82.2812 71.1438 82.0312 71.5638L75.8612 82.1238C75.7212 82.3638 75.7012 82.6438 75.8012 82.9038C75.9012 83.1538 76.1113 83.3538 76.3812 83.4238L82.3012 85.1038C82.7712 85.2338 83.2613 84.9638 83.3913 84.4938C83.5212 84.0238 83.2513 83.5338 82.7812 83.4038L77.9613 82.0338L83.5512 72.4638C83.8012 72.0438 83.6512 71.5038 83.2312 71.2538L83.2412 71.2438Z"/><path fill="url(#e)" d="M102.831 63.9038C102.731 63.6538 102.521 63.4538 102.251 63.3838L96.3312 61.7038C95.8612 61.5738 95.3712 61.8438 95.2412 62.3138C95.1113 62.7838 95.3812 63.2738 95.8512 63.4038L100.671 64.7738L95.0812 74.3438C94.8312 74.7638 94.9812 75.3038 95.4012 75.5538C95.8212 75.8038 96.3612 75.6538 96.6112 75.2338L102.781 64.6738C102.921 64.4338 102.941 64.1538 102.841 63.8938L102.831 63.9038Z"/><path fill="url(#f)" d="M90.5412 64.5538C90.0612 64.4838 89.6112 64.8238 89.5412 65.3038L87.3612 80.5438C87.2912 81.0238 87.6312 81.4738 88.1112 81.5438C88.5912 81.6138 89.0412 81.2738 89.1112 80.7938L91.2912 65.5538C91.3612 65.0738 91.0212 64.6238 90.5412 64.5538Z"/><path fill="url(#g)" d="M13.6613 54.7138C13.9913 54.8838 14.3612 54.9838 14.7212 54.9838C15.2012 54.9838 15.6813 54.8138 16.0513 54.4938C16.4213 54.1738 16.6612 53.7338 16.7712 53.2438C16.8113 53.0438 16.8312 52.8438 16.8312 52.6438C16.8312 52.0738 16.6713 51.5238 16.3913 51.0438C16.1112 50.5638 15.7112 50.1438 15.1812 49.8738C14.8512 49.7038 14.4812 49.6038 14.1213 49.6038C13.6413 49.6038 13.1613 49.7738 12.7913 50.0938C12.4213 50.4138 12.1812 50.8538 12.0712 51.3438C12.0312 51.5438 12.0112 51.7438 12.0112 51.9438C12.0112 52.5138 12.1713 53.0638 12.4513 53.5438C12.7312 54.0238 13.1313 54.4438 13.6613 54.7138ZM13.8112 51.7138C13.8512 51.5438 13.9112 51.4638 13.9612 51.4238L14.1312 51.3638C14.1912 51.3638 14.2712 51.3738 14.3812 51.4338C14.5512 51.5238 14.7312 51.6938 14.8612 51.9238C14.9913 52.1438 15.0612 52.4138 15.0612 52.6438L15.0413 52.8638C15.0013 53.0338 14.9412 53.1138 14.8912 53.1538L14.7212 53.2138C14.6612 53.2138 14.5812 53.2038 14.4712 53.1438C14.3012 53.0538 14.1213 52.8838 13.9913 52.6538C13.8612 52.4338 13.7913 52.1638 13.7913 51.9338L13.8112 51.7138Z"/><path fill="url(#h)" d="M19.8312 57.9038C20.1612 58.0738 20.5312 58.1738 20.8913 58.1738C21.3713 58.1738 21.8512 58.0038 22.2213 57.6838C22.5913 57.3638 22.8312 56.9238 22.9412 56.4338C22.9813 56.2338 23.0012 56.0338 23.0012 55.8338C23.0012 55.2638 22.8413 54.7138 22.5613 54.2338C22.2812 53.7538 21.8813 53.3338 21.3512 53.0638C21.0212 52.8938 20.6513 52.7938 20.2913 52.7938C19.8113 52.7938 19.3313 52.9638 18.9613 53.2838C18.5912 53.6038 18.3512 54.0438 18.2412 54.5338C18.2012 54.7338 18.1812 54.9338 18.1812 55.1338C18.1812 55.7038 18.3412 56.2538 18.6213 56.7338C18.9013 57.2138 19.3012 57.6338 19.8312 57.9038ZM19.9812 54.9038C20.0212 54.7338 20.0813 54.6538 20.1313 54.6138L20.3013 54.5538C20.3612 54.5538 20.4412 54.5638 20.5513 54.6238C20.7213 54.7138 20.9013 54.8838 21.0312 55.1138C21.1612 55.3338 21.2312 55.6038 21.2312 55.8338L21.2113 56.0538C21.1712 56.2238 21.1112 56.3038 21.0613 56.3438L20.8913 56.4038C20.8313 56.4038 20.7513 56.3938 20.6413 56.3338C20.4713 56.2438 20.2912 56.0738 20.1612 55.8438C20.0312 55.6238 19.9613 55.3538 19.9613 55.1238L19.9812 54.9038Z"/><path fill="url(#i)" d="M57.5713 36.1538C57.5713 37.6438 58.2713 38.7838 58.9113 39.5338C59.5112 40.2238 60.0612 40.5838 60.1912 40.6738C60.1912 40.6738 60.1913 40.6738 60.2013 40.6738L60.2313 40.6938C63.2812 42.8338 66.4513 43.5738 69.2713 43.5738C72.2313 43.5738 74.8313 42.7838 76.6712 41.9738C77.8012 41.4738 78.8613 40.6438 79.6712 39.6038C80.4713 38.5638 81.0312 37.2938 81.0312 35.9138C81.0312 34.8938 80.7013 33.8238 79.9913 32.8638C79.2813 31.9038 78.2012 31.0438 76.7012 30.3238C73.8112 28.9238 70.9613 28.5238 68.6313 28.5238C65.3913 28.5238 63.1413 29.2938 63.0813 29.3138L63.6613 30.9838H63.6713C63.8613 30.9138 65.8613 30.2838 68.6313 30.2838C70.7613 30.2838 73.3313 30.6538 75.9313 31.9138C77.2313 32.5438 78.0713 33.2438 78.5713 33.9138C79.0713 34.5938 79.2612 35.2438 79.2612 35.9038C79.2612 36.7838 78.8913 37.7038 78.2713 38.5138C77.6513 39.3138 76.8013 39.9838 75.9613 40.3438C74.2913 41.0738 71.9113 41.7938 69.2713 41.7938C66.7313 41.7938 63.9513 41.1438 61.2013 39.2038L61.1813 39.1838H61.1613C61.1613 39.1838 60.6512 38.8338 60.1912 38.2938C59.7313 37.7438 59.3313 37.0138 59.3313 36.1338C59.3313 36.0038 59.3313 35.8638 59.3613 35.7138C59.5513 34.3338 60.1213 31.9338 60.1313 29.5338C60.1313 28.4638 60.0213 27.3938 59.6813 26.3738C59.3512 25.3638 58.7713 24.4038 57.8713 23.6638C55.6213 21.8238 52.0913 20.5838 48.1513 20.5738C45.9213 20.5738 43.5613 20.9738 41.2613 21.9238C39.6813 22.5738 38.4813 23.4138 37.6713 24.4138C36.8613 25.4038 36.4412 26.5638 36.4412 27.7138C36.4412 28.9338 36.8913 30.1238 37.6713 31.1738C38.4513 32.2238 39.5713 33.1338 40.9513 33.8338C43.8513 35.3038 47.1813 35.6138 49.6513 35.6138C51.7513 35.6138 53.2213 35.3738 53.2613 35.3738L52.9813 33.6238H52.9313C52.6613 33.6738 51.3813 33.8438 49.6513 33.8438C47.3413 33.8438 44.2413 33.5238 41.7513 32.2538C40.5713 31.6538 39.6713 30.9038 39.0813 30.1038C38.4913 29.3038 38.2013 28.4838 38.2013 27.7038C38.2013 26.9638 38.4512 26.2338 39.0312 25.5238C39.6113 24.8138 40.5513 24.1138 41.9213 23.5538C44.0013 22.7038 46.1313 22.3338 48.1413 22.3338C51.7013 22.3338 54.9013 23.4938 56.7413 25.0138C57.3413 25.5138 57.7413 26.1438 57.9913 26.9138C58.2513 27.6838 58.3513 28.5738 58.3513 29.5138C58.3513 31.6538 57.8113 33.9238 57.6013 35.4538C57.5713 35.6738 57.5513 35.9038 57.5513 36.1138L57.5713 36.1538Z"/><defs><linearGradient id="a" x1=".031" x2="120.578" y1=".336" y2="27.497" gradientUnits="userSpaceOnUse"><stop stop-color="#3B00B9"/><stop offset="1" stop-color="#2586B6"/></linearGradient><linearGradient id="b" x1=".031" x2="120.578" y1=".336" y2="27.497" gradientUnits="userSpaceOnUse"><stop stop-color="#3B00B9"/><stop offset="1" stop-color="#2586B6"/></linearGradient><linearGradient id="c" x1=".031" x2="120.578" y1=".336" y2="27.497" gradientUnits="userSpaceOnUse"><stop stop-color="#3B00B9"/><stop offset="1" stop-color="#2586B6"/></linearGradient><linearGradient id="d" x1=".031" x2="120.578" y1=".336" y2="27.497" gradientUnits="userSpaceOnUse"><stop stop-color="#3B00B9"/><stop offset="1" stop-color="#2586B6"/></linearGradient><linearGradient id="e" x1=".031" x2="120.578" y1=".336" y2="27.497" gradientUnits="userSpaceOnUse"><stop stop-color="#3B00B9"/><stop offset="1" stop-color="#2586B6"/></linearGradient><linearGradient id="f" x1=".031" x2="120.578" y1=".336" y2="27.497" gradientUnits="userSpaceOnUse"><stop stop-color="#3B00B9"/><stop offset="1" stop-color="#2586B6"/></linearGradient><linearGradient id="g" x1=".031" x2="120.578" y1=".336" y2="27.497" gradientUnits="userSpaceOnUse"><stop stop-color="#3B00B9"/><stop offset="1" stop-color="#2586B6"/></linearGradient><linearGradient id="h" x1=".031" x2="120.578" y1=".336" y2="27.497" gradientUnits="userSpaceOnUse"><stop stop-color="#3B00B9"/><stop offset="1" stop-color="#2586B6"/></linearGradient><linearGradient id="i" x1=".031" x2="120.578" y1=".336" y2="27.497" gradientUnits="userSpaceOnUse"><stop stop-color="#3B00B9"/><stop offset="1" stop-color="#2586B6"/></linearGradient></defs></svg>