<svg width="116" height="116" viewBox="0 0 116 116" fill="none" xmlns="http://www.w3.org/2000/svg">
<path fill-rule="evenodd" clip-rule="evenodd" d="M11.4182 16.7063C11.4182 8.70646 17.9034 2.2213 25.9032 2.2213C33.903 2.2213 40.3882 8.70646 40.3882 16.7063C40.3882 19.3823 39.6626 21.8888 38.3973 24.0398C35.9834 21.1458 32.5756 19.1015 28.6966 18.4302C31.2262 17.3457 32.9982 14.8329 32.9982 11.9063C32.9982 7.98784 29.8217 4.8113 25.9032 4.8113C21.9847 4.8113 18.8082 7.98784 18.8082 11.9063C18.8082 14.8256 20.5714 17.3332 23.0909 18.4221C19.1361 19.0851 15.8201 21.1355 13.4087 24.039C12.1437 21.8882 11.4182 19.382 11.4182 16.7063ZM25.9032 19.9613C30.5637 19.9613 34.7107 22.1593 37.3588 25.5722C34.7092 28.9908 30.5632 31.1913 25.9032 31.1913C21.2431 31.1913 17.0971 28.9907 14.4474 25.572C17.1012 22.152 21.0683 19.9613 25.9032 19.9613ZM25.9032 0.451304C16.9258 0.451304 9.6482 7.72891 9.6482 16.7063C9.6482 25.6837 16.9258 32.9613 25.9032 32.9613C29.8135 32.9613 33.4014 31.5805 36.2058 29.28L45.7936 38.8678C42.4259 42.7595 40.3884 47.8341 40.3884 53.3846C40.3884 65.6425 50.3255 75.5796 62.5834 75.5796C68.1339 75.5796 73.2085 73.5422 77.1002 70.1744L86.5068 79.581C86.573 79.6472 86.6471 79.7007 86.726 79.7416C84.409 82.5508 83.0173 86.1516 83.0173 90.0774C83.0173 99.0548 90.295 106.332 99.2723 106.332C108.25 106.332 115.527 99.0548 115.527 90.0774C115.527 81.1 108.25 73.8224 99.2723 73.8224C94.8355 73.8224 90.8138 75.6 87.8806 78.482C87.8463 78.4278 87.8056 78.3766 87.7584 78.3294L78.3923 68.9634C82.3414 64.9563 84.7784 59.455 84.7784 53.3846C84.7784 48.0478 82.8949 43.151 79.7563 39.3226L90.7542 28.3248C93.0613 30.2524 96.0318 31.4124 99.2733 31.4124C106.616 31.4124 112.568 25.46 112.568 18.1174C112.568 10.7748 106.616 4.8224 99.2733 4.8224C91.9307 4.8224 85.9783 10.7748 85.9783 18.1174C85.9783 21.5814 87.3031 24.736 89.4736 27.1022L78.5786 37.9972C74.5407 33.8007 68.867 31.1896 62.5834 31.1896C56.513 31.1896 51.0117 33.6266 47.0047 37.5757L37.5127 28.0837C40.3863 25.1518 42.1582 21.136 42.1582 16.7063C42.1582 7.72891 34.8806 0.451304 25.9032 0.451304ZM62.5834 32.9596C51.303 32.9596 42.1584 42.1042 42.1584 53.3846C42.1584 57.3353 43.2801 61.024 45.2223 64.1496C48.8154 59.6306 53.9714 56.5475 60.1763 55.9115C56.1036 54.8461 53.0984 51.1413 53.0984 46.7346C53.0984 41.4962 57.345 37.2496 62.5834 37.2496C67.8219 37.2496 72.0684 41.4962 72.0684 46.7346C72.0684 51.1483 69.0537 54.8579 64.9712 55.9165C71.0215 56.5635 76.3455 59.6411 79.945 64.1489C81.887 61.0234 83.0084 57.335 83.0084 53.3846C83.0084 42.1042 73.8639 32.9596 62.5834 32.9596ZM78.894 65.6807C75.1636 60.7472 69.2451 57.5596 62.5834 57.5596C55.6873 57.5596 50.0318 60.7261 46.2986 65.6493L46.1846 65.5628C49.9072 70.5675 55.8667 73.8096 62.5834 73.8096C69.2473 73.8096 75.1658 70.6183 78.894 65.6807ZM62.5834 39.0196C58.3226 39.0196 54.8684 42.4737 54.8684 46.7346C54.8684 50.9955 58.3226 54.4496 62.5834 54.4496C66.8443 54.4496 70.2984 50.9955 70.2984 46.7346C70.2984 42.4737 66.8443 39.0196 62.5834 39.0196ZM20.5782 11.9063C20.5782 8.96539 22.9623 6.5813 25.9032 6.5813C28.8441 6.5813 31.2282 8.96539 31.2282 11.9063C31.2282 14.8472 28.8441 17.2313 25.9032 17.2313C22.9623 17.2313 20.5782 14.8472 20.5782 11.9063ZM99.2723 75.5924C91.2725 75.5924 84.7873 82.0775 84.7873 90.0774C84.7873 92.7501 85.5112 95.2538 86.7737 97.4031C89.1861 94.5015 92.5024 92.4532 96.4572 91.792C93.9392 90.7024 92.1773 88.1956 92.1773 85.2774C92.1773 81.3589 95.3539 78.1824 99.2723 78.1824C103.191 78.1824 106.367 81.3589 106.367 85.2774C106.367 88.2051 104.594 90.7187 102.063 91.8026C105.942 92.4756 109.35 94.522 111.762 97.4179C113.03 95.2654 113.757 92.7563 113.757 90.0774C113.757 82.0775 107.272 75.5924 99.2723 75.5924ZM110.723 98.9497C108.075 95.5332 103.926 93.3324 99.2623 93.3324C94.4305 93.3324 90.4654 95.5203 87.8116 98.9366C90.461 102.359 94.6094 104.562 99.2723 104.562C103.929 104.562 108.073 102.365 110.723 98.9497ZM99.2723 79.9524C96.3314 79.9524 93.9473 82.3365 93.9473 85.2774C93.9473 88.2183 96.3314 90.6024 99.2723 90.6024C102.213 90.6024 104.597 88.2183 104.597 85.2774C104.597 82.3365 102.213 79.9524 99.2723 79.9524ZM2.24828 70.7141C2.24828 62.7143 8.73344 56.2291 16.7333 56.2291C24.7331 56.2291 31.2183 62.7143 31.2183 70.7141C31.2183 73.3901 30.4926 75.8966 29.2274 78.0476C26.8135 75.1537 23.4057 73.1093 19.5267 72.438C22.0563 71.3535 23.8283 68.8407 23.8283 65.9141C23.8283 61.9957 20.6517 58.8191 16.7333 58.8191C12.8148 58.8191 9.63828 61.9957 9.63828 65.9141C9.63828 68.8334 11.4014 71.341 13.9209 72.4299C9.96614 73.0929 6.65022 75.1433 4.23874 78.0468C2.97376 75.896 2.24828 73.3898 2.24828 70.7141ZM16.7333 73.9691C21.3938 73.9691 25.5408 76.1671 28.1889 79.58C25.5393 82.9986 21.3933 85.1991 16.7333 85.1991C12.0732 85.1991 7.92714 82.9985 5.27752 79.5798C7.93132 76.1598 11.8984 73.9691 16.7333 73.9691ZM16.7333 54.4591C7.75589 54.4591 0.478281 61.7367 0.478281 70.7141C0.478281 79.6915 7.75589 86.9691 16.7333 86.9691C25.7107 86.9691 32.9883 79.6915 32.9883 70.7141C32.9883 61.7367 25.7107 54.4591 16.7333 54.4591ZM11.4083 65.9141C11.4083 62.9732 13.7924 60.5891 16.7333 60.5891C19.6742 60.5891 22.0583 62.9732 22.0583 65.9141C22.0583 68.855 19.6742 71.2391 16.7333 71.2391C13.7924 71.2391 11.4083 68.855 11.4083 65.9141ZM49.0731 84.4596C41.0733 84.4596 34.5881 90.9447 34.5881 98.9446C34.5881 101.617 35.312 104.121 36.5744 106.27C38.9869 103.369 42.3032 101.32 46.258 100.659C43.74 99.5696 41.9781 97.0628 41.9781 94.1446C41.9781 90.2261 45.1547 87.0496 49.0731 87.0496C52.9916 87.0496 56.1681 90.2261 56.1681 94.1446C56.1681 97.0723 54.3948 99.5859 51.8637 100.67C55.7429 101.343 59.1503 103.389 61.5631 106.285C62.8309 104.133 63.5581 101.623 63.5581 98.9446C63.5581 90.9447 57.073 84.4596 49.0731 84.4596ZM60.5238 107.817C57.8758 104.4 53.7266 102.2 49.0631 102.2C44.2313 102.2 40.2661 104.388 37.6124 107.804C40.2618 111.226 44.4101 113.43 49.0731 113.43C53.7302 113.43 57.8739 111.232 60.5238 107.817ZM32.8181 98.9446C32.8181 89.9672 40.0957 82.6896 49.0731 82.6896C58.0505 82.6896 65.3281 89.9672 65.3281 98.9446C65.3281 107.922 58.0505 115.2 49.0731 115.2C40.0957 115.2 32.8181 107.922 32.8181 98.9446ZM49.0731 88.8196C46.1322 88.8196 43.7481 91.2037 43.7481 94.1446C43.7481 97.0855 46.1322 99.4696 49.0731 99.4696C52.014 99.4696 54.3981 97.0855 54.3981 94.1446C54.3981 91.2037 52.014 88.8196 49.0731 88.8196ZM87.7483 18.1174C87.7483 11.7523 92.9082 6.5924 99.2733 6.5924C105.638 6.5924 110.798 11.7523 110.798 18.1174C110.798 24.4825 105.638 29.6424 99.2733 29.6424C92.9082 29.6424 87.7483 24.4825 87.7483 18.1174Z" fill="url(#paint0_linear_7715_20915)"/>
<defs>
<linearGradient id="paint0_linear_7715_20915" x1="-0.636719" y1="-1.6637" x2="119.91" y2="25.4965" gradientUnits="userSpaceOnUse">
<stop stop-color="#3B00B9"/>
<stop offset="1" stop-color="#2586B6"/>
</linearGradient>
</defs>
</svg>
