<svg width="102" height="102" viewBox="0 0 102 102" fill="none" xmlns="http://www.w3.org/2000/svg">
<path d="M34.3598 61.396C34.8726 61.1908 35.1219 60.6088 34.9167 60.0961C34.7114 59.5833 34.1294 59.334 33.6167 59.5392L34.3598 61.396ZM23.8635 78.1714L23.1566 78.8786C23.4396 79.1615 23.864 79.2485 24.2354 79.0997C24.6069 78.9509 24.8539 78.595 24.8633 78.1949L23.8635 78.1714ZM23.8404 78.1483L23.816 77.1486C23.4161 77.1583 23.0604 77.4055 22.9119 77.777C22.7633 78.1484 22.8505 78.5727 23.1334 78.8555L23.8404 78.1483ZM42.472 68.3965C42.678 67.884 42.4295 67.3017 41.9171 67.0957C41.4046 66.8898 40.8223 67.1382 40.6163 67.6507L42.472 68.3965ZM33.2837 87.1614C33.6742 86.7709 33.6742 86.1377 33.2837 85.7472C32.8932 85.3567 32.26 85.3567 31.8695 85.7472L33.2837 87.1614ZM17.4403 100.176C17.0498 100.567 17.0498 101.2 17.4403 101.591C17.8308 101.981 18.464 101.981 18.8545 101.591L17.4403 100.176ZM16.7457 86.6327C17.1364 86.2423 17.1367 85.6091 16.7463 85.2185C16.3559 84.8278 15.7228 84.8275 15.3321 85.2179L16.7457 86.6327ZM0.902915 99.6355C0.512234 100.026 0.51198 100.659 0.902347 101.05C1.29271 101.44 1.92588 101.441 2.31656 101.05L0.902915 99.6355ZM47.2597 84.557C47.6502 84.1665 47.6502 83.5333 47.2597 83.1428C46.8692 82.7523 46.236 82.7523 45.8455 83.1428L47.2597 84.557ZM39.5855 89.4028C39.195 89.7933 39.195 90.4265 39.5855 90.817C39.9761 91.2075 40.6092 91.2075 40.9997 90.817L39.5855 89.4028ZM16.2495 70.1313C16.6401 69.7408 16.6401 69.1076 16.2495 68.7171C15.859 68.3266 15.2259 68.3266 14.8353 68.7171L16.2495 70.1313ZM0.406175 83.1463C0.0156502 83.5368 0.0156502 84.1699 0.406174 84.5605C0.796699 84.951 1.42986 84.951 1.82039 84.5605L0.406175 83.1463ZM18.8559 56.1532C19.2464 55.7627 19.2464 55.1295 18.8559 54.739C18.4654 54.3485 17.8322 54.3485 17.4417 54.739L18.8559 56.1532ZM11.1817 60.999C10.7912 61.3895 10.7912 62.0227 11.1817 62.4132C11.5722 62.8037 12.2054 62.8037 12.5959 62.4132L11.1817 60.999ZM64.887 61.2359C64.4805 60.862 63.8479 60.8884 63.474 61.2949C63.1002 61.7014 63.1266 62.334 63.5331 62.7079L64.887 61.2359ZM59.3965 82.7651L58.4678 82.3941C58.2897 82.8399 58.4535 83.3493 58.858 83.6078C59.2625 83.8663 59.7935 83.8009 60.1232 83.452L59.3965 82.7651ZM52.6042 68.1161L51.8934 68.8195C51.9691 68.896 52.0567 68.9598 52.1527 69.0084L52.6042 68.1161ZM34.0905 49.4057L33.1986 49.858C33.2456 49.9506 33.3066 50.0353 33.3796 50.109L34.0905 49.4057ZM19.4415 42.6134L18.7546 41.8867C18.4057 42.2164 18.3403 42.7476 18.5989 43.1521C18.8576 43.5566 19.3671 43.7202 19.8129 43.5419L19.4415 42.6134ZM39.4987 38.4769C39.8726 38.8833 40.5052 38.9098 40.9117 38.5359C41.3182 38.162 41.3446 37.5294 40.9707 37.1229L39.4987 38.4769ZM32.2665 55.9189H31.2665L33.2534 56.0804L32.2665 55.9189ZM34.8584 47.6571L35.7803 48.0446L35.7879 48.0266L35.7947 48.0083L34.8584 47.6571ZM34.9741 47.391L34.0723 46.9588L34.0533 46.9986L34.0378 47.0399L34.9741 47.391ZM96.9258 1.14133L96.8221 0.146714L96.8194 0.146997L96.9258 1.14133ZM100.86 5.0755L99.8658 4.96714L99.8655 4.97013L100.86 5.0755ZM54.6218 67.0271L54.1897 66.1254L54.1821 66.129L54.1746 66.1327L54.6218 67.0271ZM54.3557 67.1429L54.0046 66.2065L53.9863 66.2134L53.9683 66.221L54.3557 67.1429ZM46.094 69.7348L45.9324 68.7479L45.9296 68.7484L46.094 69.7348ZM41.9168 68.3694L42.6239 67.6623L41.9168 68.3694ZM33.6319 60.0845L32.9248 60.7916L33.6319 60.0845ZM32.2665 55.9073H33.2665L31.2789 55.7502L32.2665 55.9073ZM96.7248 19.954C97.1151 20.3446 97.7483 20.3449 98.139 19.9545C98.5297 19.5641 98.5299 18.931 98.1395 18.5403L96.7248 19.954ZM83.4674 3.85658C83.077 3.4659 82.4439 3.46565 82.0532 3.85602C81.6625 4.24639 81.6622 4.87956 82.0526 5.27024L83.4674 3.85658ZM33.6167 59.5392C28.3183 61.6599 25.6476 66.4195 24.3015 70.4755C23.624 72.5172 23.2658 74.4259 23.0764 75.8224C22.9815 76.522 22.9286 77.0964 22.8992 77.499C22.8846 77.7003 22.8758 77.8589 22.8707 77.969C22.8681 78.024 22.8664 78.0669 22.8654 78.097C22.8649 78.112 22.8645 78.1238 22.8642 78.1323C22.8641 78.1366 22.864 78.14 22.8639 78.1426C22.8639 78.1439 22.8639 78.145 22.8639 78.1459C22.8639 78.1463 22.8638 78.1469 22.8638 78.1471C22.8638 78.1475 22.8638 78.1479 23.8635 78.1714C24.8633 78.1949 24.8633 78.1952 24.8633 78.1954C24.8633 78.1955 24.8632 78.1956 24.8632 78.1957C24.8632 78.1957 24.8632 78.1955 24.8633 78.1952C24.8633 78.1944 24.8633 78.1929 24.8634 78.1905C24.8635 78.1857 24.8638 78.1777 24.8642 78.1666C24.8649 78.1442 24.8663 78.1093 24.8685 78.0624C24.8729 77.9687 24.8806 77.8274 24.894 77.6442C24.9206 77.2778 24.9696 76.7449 25.0582 76.0912C25.2359 74.7812 25.5712 72.9994 26.1997 71.1055C27.4658 67.2903 29.8575 63.198 34.3598 61.396L33.6167 59.5392ZM24.5705 77.4642L24.5474 77.4411L23.1334 78.8555L23.1566 78.8786L24.5705 77.4642ZM23.8404 78.1483C23.8648 79.148 23.8652 79.148 23.8656 79.148C23.8658 79.148 23.8663 79.1479 23.8668 79.1479C23.8677 79.1479 23.8687 79.1479 23.87 79.1479C23.8726 79.1478 23.8761 79.1477 23.8803 79.1476C23.8888 79.1473 23.9007 79.1469 23.9157 79.1464C23.9457 79.1453 23.9886 79.1436 24.0436 79.141C24.1535 79.1358 24.312 79.1269 24.5132 79.112C24.9154 79.0824 25.4894 79.0291 26.1885 78.9337C27.5841 78.7434 29.4916 78.3841 31.5324 77.7058C35.5867 76.3584 40.3454 73.688 42.472 68.3965L40.6163 67.6507C38.8087 72.1483 34.7156 74.5403 30.9016 75.8079C29.0082 76.4372 27.2274 76.7736 25.9183 76.9521C25.265 77.0412 24.7325 77.0905 24.3663 77.1174C24.1833 77.1309 24.0421 77.1388 23.9484 77.1433C23.9016 77.1455 23.8667 77.1469 23.8444 77.1477C23.8332 77.1481 23.8252 77.1483 23.8205 77.1485C23.8181 77.1485 23.8165 77.1486 23.8158 77.1486C23.8154 77.1486 23.8152 77.1486 23.8153 77.1486C23.8153 77.1486 23.8155 77.1486 23.8155 77.1486C23.8157 77.1486 23.816 77.1486 23.8404 78.1483ZM31.8695 85.7472L17.4403 100.176L18.8545 101.591L33.2837 87.1614L31.8695 85.7472ZM15.3321 85.2179L0.902915 99.6355L2.31656 101.05L16.7457 86.6327L15.3321 85.2179ZM45.8455 83.1428L39.5855 89.4028L40.9997 90.817L47.2597 84.557L45.8455 83.1428ZM14.8353 68.7171L0.406175 83.1463L1.82039 84.5605L16.2495 70.1313L14.8353 68.7171ZM17.4417 54.739L11.1817 60.999L12.5959 62.4132L18.8559 56.1532L17.4417 54.739ZM63.5331 62.7079C65.2726 64.308 65.8779 66.2229 65.8073 68.2666C65.7352 70.351 64.9552 72.5712 63.8899 74.6506C62.8301 76.7192 61.5238 78.5798 60.4752 79.9294C59.9524 80.6023 59.4972 81.1435 59.1742 81.515C59.0128 81.7007 58.8846 81.8436 58.7978 81.9392C58.7544 81.9869 58.7213 82.0228 58.6996 82.0462C58.6888 82.0579 58.6808 82.0664 58.6757 82.0718C58.6732 82.0745 58.6715 82.0764 58.6704 82.0775C58.6699 82.078 58.6696 82.0783 58.6695 82.0785C58.6694 82.0785 58.6695 82.0785 58.6694 82.0785C58.6695 82.0784 58.6697 82.0783 59.3965 82.7651C60.1232 83.452 60.1235 83.4518 60.1238 83.4515C60.1239 83.4513 60.1243 83.4509 60.1246 83.4506C60.1252 83.4499 60.1261 83.449 60.1271 83.4479C60.1292 83.4457 60.132 83.4427 60.1356 83.4389C60.1428 83.4312 60.1529 83.4203 60.166 83.4063C60.1921 83.3781 60.2296 83.3374 60.2777 83.2845C60.3737 83.1788 60.5118 83.0248 60.6835 82.8273C61.0268 82.4324 61.5059 81.8626 62.0545 81.1565C63.1487 79.7482 64.5341 77.7795 65.6699 75.5625C66.8003 73.3562 67.7197 70.8344 67.8061 68.3356C67.8938 65.796 67.1164 63.2865 64.887 61.2359L63.5331 62.7079ZM59.3965 82.7651C60.3251 83.1361 60.3253 83.1356 60.3256 83.135C60.3257 83.1347 60.3259 83.1341 60.3261 83.1336C60.3265 83.1326 60.327 83.1314 60.3275 83.1302C60.3285 83.1276 60.3297 83.1244 60.3312 83.1207C60.334 83.1133 60.3378 83.1036 60.3423 83.0917C60.3513 83.0678 60.3634 83.0351 60.3781 82.9938C60.4074 82.9113 60.4469 82.7946 60.4921 82.647C60.5825 82.3522 60.6961 81.9324 60.7961 81.4144C60.9957 80.3813 61.145 78.9392 60.9366 77.3098C60.5125 73.9939 58.6196 70.0394 53.0558 67.2239L52.1527 69.0084C57.107 71.5155 58.6102 74.8856 58.9527 77.5635C59.1276 78.9311 59.0028 80.1532 58.8324 81.0351C58.7475 81.4746 58.6522 81.825 58.5799 82.061C58.5438 82.1789 58.5135 82.2677 58.4934 82.3244C58.4833 82.3528 58.4758 82.373 58.4714 82.3848C58.4692 82.3907 58.4677 82.3944 58.4671 82.396C58.4668 82.3968 58.4667 82.397 58.4668 82.3967C58.4669 82.3966 58.467 82.3963 58.4671 82.3959C58.4672 82.3956 58.4674 82.3952 58.4674 82.3951C58.4676 82.3946 58.4678 82.3941 59.3965 82.7651ZM53.3151 67.4128L34.8013 48.7023L33.3796 50.109L51.8934 68.8195L53.3151 67.4128ZM34.9823 48.9534C32.161 43.3903 28.2071 41.4975 24.8925 41.0733C23.2638 40.8649 21.8227 41.0142 20.7904 41.2138C20.2728 41.3139 19.8534 41.4275 19.5588 41.5179C19.4114 41.5631 19.2948 41.6026 19.2124 41.632C19.1711 41.6466 19.1384 41.6587 19.1145 41.6678C19.1026 41.6723 19.0929 41.676 19.0855 41.6789C19.0818 41.6803 19.0786 41.6816 19.0761 41.6826C19.0748 41.6831 19.0736 41.6836 19.0726 41.6839C19.0721 41.6841 19.0715 41.6844 19.0713 41.6845C19.0706 41.6847 19.0701 41.685 19.4415 42.6134C19.8129 43.5419 19.8124 43.5421 19.8119 43.5423C19.8118 43.5423 19.8114 43.5425 19.8112 43.5426C19.8107 43.5428 19.8104 43.5429 19.8103 43.5429C19.81 43.5431 19.8102 43.543 19.811 43.5427C19.8126 43.5421 19.8163 43.5406 19.8222 43.5384C19.8339 43.534 19.8541 43.5264 19.8824 43.5164C19.939 43.4963 20.0277 43.466 20.1454 43.4299C20.3811 43.3576 20.7311 43.2623 21.1701 43.1774C22.051 43.0071 23.2719 42.8823 24.6387 43.0572C27.3151 43.3996 30.6856 44.9029 33.1986 49.858L34.9823 48.9534ZM19.4415 42.6134C20.1284 43.3402 20.1282 43.3404 20.1281 43.3405C20.1281 43.3404 20.1281 43.3405 20.1281 43.3404C20.1283 43.3403 20.1286 43.34 20.1291 43.3395C20.1302 43.3385 20.1321 43.3367 20.1348 43.3342C20.1402 43.3291 20.1487 43.3211 20.1604 43.3103C20.1838 43.2886 20.2197 43.2555 20.2675 43.2121C20.363 43.1253 20.506 42.9971 20.6916 42.8357C21.0631 42.5127 21.6044 42.0575 22.2772 41.5347C23.6268 40.4861 25.4874 39.1798 27.5561 38.12C29.6354 37.0547 31.8556 36.2747 33.9401 36.2026C35.9837 36.132 37.8987 36.7373 39.4987 38.4769L40.9707 37.1229C38.9201 34.8935 36.4106 34.1161 33.871 34.2038C31.3722 34.2902 28.8505 35.2097 26.6441 36.34C24.4271 37.4758 22.4584 38.8612 21.0501 39.9554C20.344 40.504 19.7742 40.9831 19.3793 41.3264C19.1818 41.4981 19.0278 41.6362 18.9221 41.7322C18.8693 41.7803 18.8285 41.8179 18.8004 41.8439C18.7863 41.857 18.7754 41.8671 18.7678 41.8743C18.7639 41.8779 18.7609 41.8807 18.7587 41.8828C18.7576 41.8838 18.7567 41.8847 18.756 41.8853C18.7557 41.8856 18.7553 41.886 18.7552 41.8861C18.7548 41.8864 18.7546 41.8867 19.4415 42.6134ZM33.2534 56.0804C33.764 52.9611 35.4414 48.8508 35.7803 48.0446L33.9365 47.2697C33.6043 48.0602 31.8335 52.3738 31.2796 55.7573L33.2534 56.0804ZM35.7947 48.0083C35.7947 48.0084 35.7961 48.0046 35.8007 47.9943C35.8058 47.9828 35.8116 47.9701 35.8225 47.947C35.8403 47.9086 35.8773 47.8307 35.9105 47.7421L34.0378 47.0399C34.0378 47.0398 34.0364 47.0436 34.0319 47.0539C34.0268 47.0653 34.0209 47.078 34.0101 47.1012C33.9922 47.1395 33.9553 47.2175 33.9221 47.306L35.7947 48.0083ZM35.8759 47.8232C53.9707 10.0667 85.7415 3.34333 97.0321 2.13565L96.8194 0.146997C85.1762 1.39239 52.5885 8.32294 34.0723 46.9588L35.8759 47.8232ZM97.0295 2.13593C97.9836 2.03645 98.7256 2.32995 99.2018 2.80521C99.6772 3.27966 99.9694 4.01654 99.8658 4.96714L101.854 5.18386C102.017 3.69295 101.562 2.33547 100.615 1.38956C99.6676 0.444474 98.3094 -0.00836539 96.8221 0.146717L97.0295 2.13593ZM99.8655 4.97013C98.6693 16.2597 91.9462 48.0306 54.1897 66.1254L55.054 67.9289C93.6898 49.4128 100.621 16.8252 101.854 5.18086L99.8655 4.97013ZM54.1746 66.1327C54.116 66.162 54.0674 66.183 54.0046 66.2065L54.7068 68.0792C54.8292 68.0333 54.9425 67.9848 55.0691 67.9216L54.1746 66.1327ZM53.9683 66.221C53.162 66.5598 49.0518 68.2373 45.9324 68.7479L46.2555 70.7216C49.6391 70.1677 53.9526 68.397 54.7432 68.0647L53.9683 66.221ZM45.9296 68.7484C44.7324 68.9479 43.5033 68.5417 42.6239 67.6623L41.2097 69.0765C42.5288 70.3956 44.4007 71.0308 46.2584 70.7212L45.9296 68.7484ZM42.6239 67.6623L34.339 59.3774L32.9248 60.7916L41.2097 69.0765L42.6239 67.6623ZM34.339 59.3774C33.4636 58.502 33.062 57.2718 33.2541 56.0644L31.2789 55.7502C30.985 57.5976 31.6016 59.4684 32.9248 60.7916L34.339 59.3774ZM31.2665 55.9073V55.9189H33.2665V55.9073H31.2665ZM82.628 25.5678C82.628 28.9904 79.8534 31.765 76.4308 31.765V33.765C80.958 33.765 84.628 30.095 84.628 25.5678H82.628ZM76.4308 31.765C73.0082 31.765 70.2336 28.9904 70.2336 25.5678H68.2336C68.2336 30.095 71.9036 33.765 76.4308 33.765V31.765ZM70.2336 25.5678C70.2336 22.1452 73.0082 19.3706 76.4308 19.3706V17.3706C71.9036 17.3706 68.2336 21.0406 68.2336 25.5678H70.2336ZM76.4308 19.3706C79.8534 19.3706 82.628 22.1452 82.628 25.5678H84.628C84.628 21.0406 80.958 17.3706 76.4308 17.3706V19.3706ZM98.1395 18.5403L83.4674 3.85658L82.0526 5.27024L96.7248 19.954L98.1395 18.5403Z" fill="url(#paint0_linear_7752_75486)"/>
<defs>
<linearGradient id="paint0_linear_7752_75486" x1="1.11328" y1="1.1167" x2="103.143" y2="23.9868" gradientUnits="userSpaceOnUse">
<stop stop-color="#3B00B9"/>
<stop offset="1" stop-color="#2586B6"/>
</linearGradient>
</defs>
</svg>
