<svg xmlns="http://www.w3.org/2000/svg" width="121" height="120" fill="none" viewBox="0 0 121 120"><mask id="b" fill="#fff"><path d="M14.5738 109.655C14.1873 109.885 14.0676 110.391 14.2977 110.778C14.5278 111.164 15.034 111.284 15.4206 111.054L14.5738 109.664V109.655ZM35.1535 98.0672L35.0799 97.2572L34.8958 97.2757L34.7394 97.3769L35.1628 98.0764L35.1535 98.0672ZM68.4254 94.8919L68.499 95.7018H68.5818L68.6646 95.665L68.4161 94.8919H68.4254ZM104.872 83.4331L105.121 84.2062L104.863 83.4331H104.872ZM13.2024 81.1506C12.7791 81.307 12.5674 81.7764 12.7146 82.1998C12.8711 82.6232 13.3405 82.8441 13.7547 82.6876L13.1932 81.1598L13.2024 81.1506ZM33.4969 74.5975V73.7783H33.3496L33.2115 73.8243L33.4877 74.5882L33.4969 74.5975ZM66.4925 35.3892L67.2196 35.021L66.4925 33.6036L65.7654 35.021L66.4925 35.3892ZM69.6403 41.5557L68.9132 41.9239L69.0972 42.292L69.5114 42.3565L69.6403 41.5557ZM76.4695 42.6418L77.0493 43.2216L78.1814 42.0896L76.6075 41.8411L76.4787 42.6418H76.4695ZM71.5823 47.5382L71.0024 46.9584L70.7079 47.2529L70.7723 47.6579L71.5823 47.529V47.5382ZM72.6591 54.3767L72.291 55.1038L73.7175 55.8309L73.469 54.257L72.6683 54.3859L72.6591 54.3767ZM66.4925 51.2382L66.8607 50.5111L66.4925 50.327L66.1244 50.5111L66.4925 51.2382ZM60.326 54.3767L59.5253 54.2478L59.2768 55.8217L60.7034 55.0946L60.3352 54.3675L60.326 54.3767ZM61.4028 47.5382L62.2036 47.6671L62.268 47.2621L61.9735 46.9676L61.3936 47.5474L61.4028 47.5382ZM56.5156 42.6418L56.3868 41.8411L54.8129 42.0896L55.945 43.2216L56.5248 42.6418H56.5156ZM63.3448 41.5557L63.4737 42.3565L63.8787 42.292L64.0719 41.9239L63.3448 41.5557ZM15.4206 111.054L35.5769 98.7667L34.7302 97.3769L14.5738 109.664L15.4206 111.054ZM35.2272 98.8863L68.499 95.711L68.3425 94.0911L35.0707 97.2664L35.2272 98.8863ZM68.6646 95.6742L105.112 84.2154L104.624 82.66L68.1768 94.1187L68.6646 95.6742ZM105.121 84.2154C105.866 83.9669 106.953 83.3687 107.735 82.3287C108.545 81.2518 108.977 79.7424 108.407 77.828L106.842 78.2882C107.256 79.6964 106.934 80.672 106.428 81.3438C105.894 82.0617 105.112 82.4943 104.606 82.66L105.121 84.2062V84.2154ZM108.407 77.828C108.002 76.4566 107.164 75.4534 106.014 74.8828C104.882 74.3213 103.52 74.2293 102.093 74.4962L102.397 76.0977C103.593 75.8768 104.569 75.9872 105.305 76.3462C106.014 76.6959 106.566 77.3218 106.851 78.2882L108.416 77.828H108.407ZM102.093 74.4962C100.344 74.8275 84.4676 77.2021 76.718 78.3526L76.9573 79.9633C84.6701 78.8128 100.602 76.429 102.387 76.0885L102.084 74.487L102.093 74.4962ZM13.7547 82.6876L33.773 75.3706L33.2115 73.8427L13.1932 81.1598L13.7547 82.6876ZM33.4969 75.4166H72.9812V73.7875H33.4969V75.4166ZM72.9812 75.4166C73.5151 75.4166 74.2974 75.5362 74.9232 75.9688C75.5031 76.3646 76.0369 77.0641 76.0369 78.4723H77.666C77.666 76.5579 76.8929 75.3338 75.8436 74.6251C74.8496 73.944 73.6991 73.7967 72.9812 73.7967V75.4258V75.4166ZM76.0369 78.4723C76.0369 79.4018 75.6227 79.9541 75.0337 80.3498C74.3986 80.7732 73.5703 80.9941 72.834 81.123L73.1285 82.7244C73.9108 82.5864 75.0153 82.3194 75.9357 81.7028C76.9021 81.0585 77.666 80.0277 77.666 78.4723H76.0369ZM72.8432 81.123L56.0002 84.1602L56.2855 85.7617L73.1285 82.7244L72.8432 81.123ZM88.0479 45.3385C88.0479 57.2391 78.4023 66.8847 66.5018 66.8847V68.5137C79.3043 68.5137 89.677 58.1318 89.677 45.3293H88.0479V45.3385ZM66.5018 66.8847C54.6012 66.8847 44.9464 57.2391 44.9464 45.3385H43.3173C43.3173 58.141 53.6992 68.5229 66.4925 68.5229V66.8939L66.5018 66.8847ZM44.9464 45.3385C44.9464 33.438 54.592 23.7832 66.5018 23.7832V22.1541C53.6992 22.1541 43.3265 32.536 43.3265 45.3293H44.9556L44.9464 45.3385ZM66.5018 23.7832C78.4023 23.7832 88.0479 33.4288 88.0479 45.3385H89.677C89.677 32.536 79.3043 22.1633 66.5018 22.1633V23.7924V23.7832ZM72.024 23.7832C83.9246 23.7832 93.5702 33.4288 93.5702 45.3385H95.1993C95.1993 32.536 84.8266 22.1633 72.024 22.1633V23.7924V23.7832ZM93.5702 45.3385C93.5702 57.2391 83.9246 66.8847 72.024 66.8847V68.5137C84.8266 68.5137 95.1993 58.1318 95.1993 45.3293H93.5702V45.3385ZM72.024 22.1633H66.5018V23.7924H72.024V22.1633ZM72.024 66.8939H66.5018V68.5229H72.024V66.8939ZM65.7746 35.7757L68.9224 41.9423L70.3766 41.206L67.2289 35.0394L65.7746 35.7757ZM69.5206 42.3749L76.3498 43.4609L76.6075 41.8503L69.7783 40.7642L69.5206 42.3749ZM75.9081 42.0804L71.0208 46.9768L72.1713 48.1273L77.0585 43.2308L75.9081 42.0804ZM70.7907 47.6763L71.8676 54.5147L73.4782 54.257L72.4014 47.4186L70.7907 47.6763ZM73.0457 53.6588L66.8791 50.5203L66.1428 51.9745L72.3094 55.113L73.0457 53.6588ZM66.1428 50.5203L59.9762 53.6588L60.7125 55.113L66.8791 51.9745L66.1428 50.5203ZM61.1451 54.5147L62.222 47.6763L60.6113 47.4186L59.5345 54.257L61.1451 54.5147ZM61.9919 46.9768L57.1047 42.0804L55.9542 43.2308L60.8414 48.1273L61.9919 46.9768ZM56.6537 43.4609L63.4829 42.3749L63.2252 40.7642L56.3868 41.8503L56.6445 43.4609H56.6537ZM64.0812 41.9423L67.2289 35.7757L65.7746 35.0394L62.6269 41.206L64.0812 41.9423Z"/></mask><path fill="#463F93" d="M14.5738 109.655C14.1873 109.885 14.0676 110.391 14.2977 110.778C14.5278 111.164 15.034 111.284 15.4206 111.054L14.5738 109.664V109.655ZM35.1535 98.0672L35.0799 97.2572L34.8958 97.2757L34.7394 97.3769L35.1628 98.0764L35.1535 98.0672ZM68.4254 94.8919L68.499 95.7018H68.5818L68.6646 95.665L68.4161 94.8919H68.4254ZM104.872 83.4331L105.121 84.2062L104.863 83.4331H104.872ZM13.2024 81.1506C12.7791 81.307 12.5674 81.7764 12.7146 82.1998C12.8711 82.6232 13.3405 82.8441 13.7547 82.6876L13.1932 81.1598L13.2024 81.1506ZM33.4969 74.5975V73.7783H33.3496L33.2115 73.8243L33.4877 74.5882L33.4969 74.5975ZM66.4925 35.3892L67.2196 35.021L66.4925 33.6036L65.7654 35.021L66.4925 35.3892ZM69.6403 41.5557L68.9132 41.9239L69.0972 42.292L69.5114 42.3565L69.6403 41.5557ZM76.4695 42.6418L77.0493 43.2216L78.1814 42.0896L76.6075 41.8411L76.4787 42.6418H76.4695ZM71.5823 47.5382L71.0024 46.9584L70.7079 47.2529L70.7723 47.6579L71.5823 47.529V47.5382ZM72.6591 54.3767L72.291 55.1038L73.7175 55.8309L73.469 54.257L72.6683 54.3859L72.6591 54.3767ZM66.4925 51.2382L66.8607 50.5111L66.4925 50.327L66.1244 50.5111L66.4925 51.2382ZM60.326 54.3767L59.5253 54.2478L59.2768 55.8217L60.7034 55.0946L60.3352 54.3675L60.326 54.3767ZM61.4028 47.5382L62.2036 47.6671L62.268 47.2621L61.9735 46.9676L61.3936 47.5474L61.4028 47.5382ZM56.5156 42.6418L56.3868 41.8411L54.8129 42.0896L55.945 43.2216L56.5248 42.6418H56.5156ZM63.3448 41.5557L63.4737 42.3565L63.8787 42.292L64.0719 41.9239L63.3448 41.5557ZM15.4206 111.054L35.5769 98.7667L34.7302 97.3769L14.5738 109.664L15.4206 111.054ZM35.2272 98.8863L68.499 95.711L68.3425 94.0911L35.0707 97.2664L35.2272 98.8863ZM68.6646 95.6742L105.112 84.2154L104.624 82.66L68.1768 94.1187L68.6646 95.6742ZM105.121 84.2154C105.866 83.9669 106.953 83.3687 107.735 82.3287C108.545 81.2518 108.977 79.7424 108.407 77.828L106.842 78.2882C107.256 79.6964 106.934 80.672 106.428 81.3438C105.894 82.0617 105.112 82.4943 104.606 82.66L105.121 84.2062V84.2154ZM108.407 77.828C108.002 76.4566 107.164 75.4534 106.014 74.8828C104.882 74.3213 103.52 74.2293 102.093 74.4962L102.397 76.0977C103.593 75.8768 104.569 75.9872 105.305 76.3462C106.014 76.6959 106.566 77.3218 106.851 78.2882L108.416 77.828H108.407ZM102.093 74.4962C100.344 74.8275 84.4676 77.2021 76.718 78.3526L76.9573 79.9633C84.6701 78.8128 100.602 76.429 102.387 76.0885L102.084 74.487L102.093 74.4962ZM13.7547 82.6876L33.773 75.3706L33.2115 73.8427L13.1932 81.1598L13.7547 82.6876ZM33.4969 75.4166H72.9812V73.7875H33.4969V75.4166ZM72.9812 75.4166C73.5151 75.4166 74.2974 75.5362 74.9232 75.9688C75.5031 76.3646 76.0369 77.0641 76.0369 78.4723H77.666C77.666 76.5579 76.8929 75.3338 75.8436 74.6251C74.8496 73.944 73.6991 73.7967 72.9812 73.7967V75.4258V75.4166ZM76.0369 78.4723C76.0369 79.4018 75.6227 79.9541 75.0337 80.3498C74.3986 80.7732 73.5703 80.9941 72.834 81.123L73.1285 82.7244C73.9108 82.5864 75.0153 82.3194 75.9357 81.7028C76.9021 81.0585 77.666 80.0277 77.666 78.4723H76.0369ZM72.8432 81.123L56.0002 84.1602L56.2855 85.7617L73.1285 82.7244L72.8432 81.123ZM88.0479 45.3385C88.0479 57.2391 78.4023 66.8847 66.5018 66.8847V68.5137C79.3043 68.5137 89.677 58.1318 89.677 45.3293H88.0479V45.3385ZM66.5018 66.8847C54.6012 66.8847 44.9464 57.2391 44.9464 45.3385H43.3173C43.3173 58.141 53.6992 68.5229 66.4925 68.5229V66.8939L66.5018 66.8847ZM44.9464 45.3385C44.9464 33.438 54.592 23.7832 66.5018 23.7832V22.1541C53.6992 22.1541 43.3265 32.536 43.3265 45.3293H44.9556L44.9464 45.3385ZM66.5018 23.7832C78.4023 23.7832 88.0479 33.4288 88.0479 45.3385H89.677C89.677 32.536 79.3043 22.1633 66.5018 22.1633V23.7924V23.7832ZM72.024 23.7832C83.9246 23.7832 93.5702 33.4288 93.5702 45.3385H95.1993C95.1993 32.536 84.8266 22.1633 72.024 22.1633V23.7924V23.7832ZM93.5702 45.3385C93.5702 57.2391 83.9246 66.8847 72.024 66.8847V68.5137C84.8266 68.5137 95.1993 58.1318 95.1993 45.3293H93.5702V45.3385ZM72.024 22.1633H66.5018V23.7924H72.024V22.1633ZM72.024 66.8939H66.5018V68.5229H72.024V66.8939ZM65.7746 35.7757L68.9224 41.9423L70.3766 41.206L67.2289 35.0394L65.7746 35.7757ZM69.5206 42.3749L76.3498 43.4609L76.6075 41.8503L69.7783 40.7642L69.5206 42.3749ZM75.9081 42.0804L71.0208 46.9768L72.1713 48.1273L77.0585 43.2308L75.9081 42.0804ZM70.7907 47.6763L71.8676 54.5147L73.4782 54.257L72.4014 47.4186L70.7907 47.6763ZM73.0457 53.6588L66.8791 50.5203L66.1428 51.9745L72.3094 55.113L73.0457 53.6588ZM66.1428 50.5203L59.9762 53.6588L60.7125 55.113L66.8791 51.9745L66.1428 50.5203ZM61.1451 54.5147L62.222 47.6763L60.6113 47.4186L59.5345 54.257L61.1451 54.5147ZM61.9919 46.9768L57.1047 42.0804L55.9542 43.2308L60.8414 48.1273L61.9919 46.9768ZM56.6537 43.4609L63.4829 42.3749L63.2252 40.7642L56.3868 41.8503L56.6445 43.4609H56.6537ZM64.0812 41.9423L67.2289 35.7757L65.7746 35.0394L62.6269 41.206L64.0812 41.9423Z"/><path fill="url(#a)" d="M15.8475 110.794L15.0008 109.404L14.1468 109.924L14.9936 111.314L15.8475 110.794ZM107.775 78.5286L108.557 78.2985L108.275 77.3391L107.493 77.5692L107.775 78.5286ZM102.741 75.1973L102.594 74.3966L101.61 74.5774L101.758 75.3782L102.741 75.1973ZM14.224 82.5151L13.6626 80.9873L12.7239 81.3322L13.2854 82.8601L14.224 82.5151ZM72.4895 82.0049L72.6367 82.8057L73.6203 82.6248L73.473 81.8241L72.4895 82.0049ZM72.5148 22.964V22.1449H71.5148V22.964H72.5148ZM94.3801 44.8293H93.561V45.8293H94.3801V44.8293ZM72.5148 67.6946V66.8754H71.5148V67.6946H72.5148ZM76.0369 78.9723H77.666V77.9723H76.0369V78.9723ZM66.0018 22.1633V23.7924H67.0018V22.1633H66.0018ZM71.524 22.1633V23.7924H72.524V22.1633H71.524ZM14.5738 109.655H15.5738V107.896L14.0623 108.796L14.5738 109.655ZM15.4206 111.054L15.9321 111.913L15.9411 111.908L15.4206 111.054ZM14.5738 109.664H13.5738V111.445L15.0943 110.518L14.5738 109.664ZM35.1535 98.0672L34.1577 98.1577L34.1904 98.5184L34.4466 98.7744L35.1535 98.0672ZM35.0799 97.2572L36.0758 97.1667L35.9844 96.1618L34.9804 96.2622L35.0799 97.2572ZM34.8958 97.2757L34.7963 96.2806L34.5556 96.3047L34.3526 96.4361L34.8958 97.2757ZM34.7394 97.3769L34.1961 96.5373L33.3814 97.0645L33.8839 97.8947L34.7394 97.3769ZM35.1628 98.0764L34.4558 98.7836L36.0182 97.5586L35.1628 98.0764ZM68.4254 94.8919L69.4212 94.8013L69.3386 93.8919H68.4254V94.8919ZM68.499 95.7018L67.5031 95.7923L67.5858 96.7018H68.499V95.7018ZM68.5818 95.7018V96.7018H68.794L68.9879 96.6156L68.5818 95.7018ZM68.6646 95.665L69.0707 96.5788L69.8915 96.2141L69.6167 95.359L68.6646 95.665ZM68.4161 94.8919V93.8919H67.0443L67.4641 95.1979L68.4161 94.8919ZM104.872 83.4331L105.824 83.1271L105.601 82.4331H104.872V83.4331ZM105.121 84.2062H106.121V84.0495L106.073 83.9002L105.121 84.2062ZM104.863 83.4331V82.4331H103.476L103.915 83.7493L104.863 83.4331ZM13.2024 81.1506L13.9094 81.8578L12.8558 80.2126L13.2024 81.1506ZM12.7146 82.1998L11.7701 82.5283L11.7733 82.5374L11.7766 82.5465L12.7146 82.1998ZM13.7547 82.6876L13.4113 81.7483L13.4013 81.7521L13.7547 82.6876ZM13.1932 81.1598L12.4863 80.4525L13.5365 82.099L13.1932 81.1598ZM33.4969 74.5975L32.7896 75.3044L34.4969 77.0123V74.5975H33.4969ZM33.4969 73.7783H34.4969V72.7783H33.4969V73.7783ZM33.3496 73.7783V72.7783H33.1873L33.0333 72.8296L33.3496 73.7783ZM33.2115 73.8243L32.8953 72.8757L31.9225 73.1999L32.2711 74.1642L33.2115 73.8243ZM33.4877 74.5882L32.5472 74.9282L32.6229 75.1377L32.7804 75.2952L33.4877 74.5882ZM66.4925 35.3892L66.0408 36.2813L66.4925 36.5101L66.9443 36.2813L66.4925 35.3892ZM67.2196 35.021L67.6714 35.9132L68.5683 35.4591L68.1094 34.5646L67.2196 35.021ZM66.4925 33.6036L67.3823 33.1472L66.4925 31.4127L65.6028 33.1472L66.4925 33.6036ZM65.7654 35.021L64.8757 34.5646L64.4168 35.4591L65.3137 35.9132L65.7654 35.021ZM69.6403 41.5557L70.6276 41.7146L70.9393 39.7771L69.1885 40.6636L69.6403 41.5557ZM68.9132 41.9239L68.4614 41.0317L67.5738 41.4812L68.0187 42.3711L68.9132 41.9239ZM69.0972 42.292L68.2028 42.7393L68.4336 43.2008L68.9435 43.2802L69.0972 42.292ZM69.5114 42.3565L69.3577 43.3446L70.3407 43.4975L70.4987 42.5154L69.5114 42.3565ZM76.4695 42.6418V41.6418H74.0553L75.7624 43.3489L76.4695 42.6418ZM77.0493 43.2216L76.3422 43.9287L77.0493 44.6358L77.7564 43.9287L77.0493 43.2216ZM78.1814 42.0896L78.8885 42.7967L80.2771 41.4081L78.3374 41.1018L78.1814 42.0896ZM76.6075 41.8411L76.7635 40.8533L75.7787 40.6978L75.6202 41.6822L76.6075 41.8411ZM76.4787 42.6418V43.6418H77.3306L77.466 42.8007L76.4787 42.6418ZM71.5823 47.5382L70.8752 48.2453L72.5823 49.9524V47.5382H71.5823ZM71.0024 46.9584L71.7095 46.2513L71.0024 45.5442L70.2953 46.2513L71.0024 46.9584ZM70.7079 47.2529L70.0008 46.5458L69.6402 46.9064L69.7203 47.41L70.7079 47.2529ZM70.7723 47.6579L69.7847 47.815L69.9419 48.8026L70.9294 48.6455L70.7723 47.6579ZM71.5823 47.529H72.5823V46.3574L71.4251 46.5414L71.5823 47.529ZM72.6591 54.3767L73.3659 53.6693L72.3901 52.6942L71.7669 53.9249L72.6591 54.3767ZM72.291 55.1038L71.3988 54.652L70.9483 55.5418L71.8369 55.9947L72.291 55.1038ZM73.7175 55.8309L73.2635 56.7218L75.0113 57.6126L74.7053 55.6749L73.7175 55.8309ZM73.469 54.257L74.4568 54.101L74.3004 53.1104L73.3102 53.2697L73.469 54.257ZM72.6683 54.3859L71.9615 55.0932L72.3228 55.4543L72.8272 55.3732L72.6683 54.3859ZM66.4925 51.2382L65.6004 51.6899L66.4925 53.4519L67.3847 51.6899L66.4925 51.2382ZM66.8607 50.5111L67.7529 50.9628L68.2069 50.0661L67.3079 49.6166L66.8607 50.5111ZM66.4925 50.327L66.9398 49.4326L66.4925 49.209L66.0453 49.4326L66.4925 50.327ZM66.1244 50.5111L65.6772 49.6166L64.7782 50.0661L65.2322 50.9628L66.1244 50.5111ZM60.326 54.3767L60.1671 55.364L60.6717 55.4452L61.0331 55.0838L60.326 54.3767ZM59.5253 54.2478L59.6841 53.2605L58.6939 53.1012L58.5375 54.0919L59.5253 54.2478ZM59.2768 55.8217L58.289 55.6657L57.983 57.6034L59.7309 56.7126L59.2768 55.8217ZM60.7034 55.0946L61.1574 55.9855L62.046 55.5326L61.5955 54.6428L60.7034 55.0946ZM60.3352 54.3675L61.2274 53.9157L60.6039 52.6845L59.6281 53.6604L60.3352 54.3675ZM61.4028 47.5382L61.5617 46.5509L61.0571 46.4697L60.6957 46.8311L61.4028 47.5382ZM62.2036 47.6671L62.0447 48.6544L63.0338 48.8135L63.1912 47.8242L62.2036 47.6671ZM62.268 47.2621L63.2556 47.4192L63.3357 46.9156L62.9751 46.555L62.268 47.2621ZM61.9735 46.9676L62.6806 46.2605L61.9735 45.5534L61.2664 46.2605L61.9735 46.9676ZM56.5156 42.6418L55.5283 42.8007L55.6637 43.6418H56.5156V42.6418ZM56.3868 41.8411L57.3741 41.6822L57.2156 40.6978L56.2308 40.8533L56.3868 41.8411ZM54.8129 42.0896L54.6569 41.1018L52.7172 41.4081L54.1058 42.7967L54.8129 42.0896ZM55.945 43.2216L55.2379 43.9287L55.945 44.6358L56.6521 43.9287L55.945 43.2216ZM56.5248 42.6418L57.2319 43.3489L58.939 41.6418H56.5248V42.6418ZM63.3448 41.5557L63.7966 40.6636L62.0458 39.7771L62.3575 41.7146L63.3448 41.5557ZM63.4737 42.3565L62.4864 42.5154L62.645 43.5009L63.6308 43.3441L63.4737 42.3565ZM63.8787 42.292L64.0358 43.2796L64.531 43.2008L64.7641 42.7569L63.8787 42.292ZM64.0719 41.9239L64.9573 42.3887L65.4291 41.4902L64.5237 41.0317L64.0719 41.9239ZM35.5769 98.7667L36.0974 99.6205L36.9511 99.1002L36.4309 98.2464L35.5769 98.7667ZM34.7302 97.3769L35.5841 96.8566L35.0637 96.0024L34.2097 96.523L34.7302 97.3769ZM35.2272 98.8863L34.2318 98.9825L34.3278 99.9767L35.3222 99.8818L35.2272 98.8863ZM68.499 95.711L68.594 96.7065L69.5906 96.6114L69.4943 95.6149L68.499 95.711ZM68.3425 94.0911L69.3379 93.995L69.2418 93.0008L68.2475 93.0957L68.3425 94.0911ZM35.0707 97.2664L34.9757 96.271L33.9791 96.3661L34.0753 97.3626L35.0707 97.2664ZM68.6646 95.6742L67.7105 95.9734L68.0099 96.9283L68.9646 96.6282L68.6646 95.6742ZM105.112 84.2154L105.412 85.1694L106.365 84.8697L106.066 83.9162L105.112 84.2154ZM104.624 82.66L105.578 82.3608L105.279 81.4059L104.324 81.706L104.624 82.66ZM68.1768 94.1187L67.8769 93.1648L66.9236 93.4645L67.2227 94.418L68.1768 94.1187ZM105.121 84.2154H104.121V85.6029L105.437 85.1641L105.121 84.2154ZM107.735 82.3287L108.534 82.9298L108.534 82.9297L107.735 82.3287ZM106.842 78.2882L106.56 77.3288L105.601 77.611L105.883 78.5703L106.842 78.2882ZM106.428 81.3438L105.629 80.7421L105.625 80.7471L106.428 81.3438ZM104.606 82.66L104.295 81.7096L103.339 82.0223L103.657 82.9762L104.606 82.66ZM106.014 74.8828L106.458 73.9869L106.458 73.9869L106.014 74.8828ZM102.397 76.0977L101.414 76.284L101.6 77.2617L102.578 77.0811L102.397 76.0977ZM105.305 76.3462L105.748 75.4494L105.743 75.4473L105.305 76.3462ZM106.851 78.2882L105.892 78.5713L106.175 79.5294L107.133 79.2475L106.851 78.2882ZM108.416 77.828L108.698 78.7874L108.416 76.828V77.828ZM76.718 78.3526L76.5711 77.3634L75.5819 77.5103L75.7288 78.4996L76.718 78.3526ZM76.9573 79.9633L75.9681 80.1102L76.1152 81.0999L77.1048 80.9523L76.9573 79.9633ZM102.387 76.0885L102.575 77.0708L103.556 76.8836L103.37 75.9021L102.387 76.0885ZM102.084 74.487L102.791 73.7796L100.497 71.4879L101.101 74.6733L102.084 74.487ZM33.773 75.3706L34.1163 76.3098L35.0571 75.9659L34.7116 75.0257L33.773 75.3706ZM33.2115 73.8427L34.1502 73.4978L33.8058 72.5608L32.8682 72.9035L33.2115 73.8427ZM33.4969 75.4166H32.4969V76.4166H33.4969V75.4166ZM72.9812 73.7875H73.9812V72.7875H72.9812V73.7875ZM33.4969 73.7875V72.7875H32.4969V73.7875H33.4969ZM74.9232 75.9688L74.3547 76.7915L74.3595 76.7948L74.9232 75.9688ZM75.8436 74.6251L75.2784 75.45L75.2839 75.4537L75.8436 74.6251ZM72.9812 73.7967V72.7967H71.9812V73.7967H72.9812ZM75.0337 80.3498L75.5884 81.1819L75.5914 81.1799L75.0337 80.3498ZM72.834 81.123L72.6616 80.1379L71.668 80.3118L71.8505 81.3038L72.834 81.123ZM75.9357 81.7028L75.381 80.8707L75.379 80.872L75.9357 81.7028ZM72.8432 81.123L73.8277 80.9476L73.6519 79.961L72.6657 80.1388L72.8432 81.123ZM56.0002 84.1602L55.8227 83.1761L54.8407 83.3532L55.0157 84.3356L56.0002 84.1602ZM56.2855 85.7617L55.301 85.9371L55.4768 86.9236L56.463 86.7458L56.2855 85.7617ZM66.5018 68.5137H65.5018V69.5137H66.5018V68.5137ZM89.677 45.3293H90.677V44.3293H89.677V45.3293ZM88.0479 45.3293V44.3293H87.0479V45.3293H88.0479ZM43.3173 45.3385V44.3385H42.3173V45.3385H43.3173ZM66.4925 68.5229V69.5229H67.4925V68.5229H66.4925ZM66.4925 66.8939L65.7854 66.1867L65.4925 66.4796V66.8939H66.4925ZM66.5018 22.1541H67.5018V21.1541H66.5018V22.1541ZM43.3265 45.3293H42.3265V46.3293H43.3265V45.3293ZM44.9556 45.3293L45.6627 46.0364L47.3698 44.3293H44.9556V45.3293ZM89.677 45.3385V46.3385H90.677V45.3385H89.677ZM66.5018 23.7924H65.5018V24.7924H66.5018V23.7924ZM72.024 23.7832V22.7832H71.024V23.7832H72.024ZM95.1993 45.3385V46.3385H96.1993V45.3385H95.1993ZM72.024 23.7924V24.7924H73.024V23.7924H72.024ZM72.024 66.8847V65.8847H71.024V66.8847H72.024ZM72.024 68.5137H71.024V69.5137H72.024V68.5137ZM95.1993 45.3293H96.1993V44.3293H95.1993V45.3293ZM93.5702 45.3293V44.3293H92.5702V45.3293H93.5702ZM72.024 66.8939H73.024V65.8939H72.024V66.8939ZM66.5018 66.8939V65.8939H65.5018V66.8939H66.5018ZM66.5018 68.5229H65.5018V69.5229H66.5018V68.5229ZM72.024 68.5229V69.5229H73.024V68.5229H72.024ZM65.7746 35.7757L65.3229 34.8836L64.4278 35.3368L64.884 36.2304L65.7746 35.7757ZM68.9224 41.9423L68.0317 42.3969L68.4848 43.2847L69.3741 42.8345L68.9224 41.9423ZM70.3766 41.206L70.8283 42.0982L71.7234 41.6449L71.2672 40.7514L70.3766 41.206ZM67.2289 35.0394L68.1195 34.5848L67.6664 33.697L66.7771 34.1473L67.2289 35.0394ZM69.5206 42.3749L68.5332 42.2169L68.375 43.2053L69.3635 43.3625L69.5206 42.3749ZM76.3498 43.4609L76.1928 44.4485L77.1794 44.6054L77.3373 43.6189L76.3498 43.4609ZM76.6075 41.8503L77.595 42.0083L77.7531 41.0199L76.7646 40.8627L76.6075 41.8503ZM69.7783 40.7642L69.9354 39.7766L68.9487 39.6197L68.7909 40.6062L69.7783 40.7642ZM75.9081 42.0804L76.6152 41.3733L75.9074 40.6655L75.2003 41.3739L75.9081 42.0804ZM71.0208 46.9768L70.3131 46.2704L69.6073 46.9775L70.3137 47.6839L71.0208 46.9768ZM72.1713 48.1273L71.4642 48.8344L72.172 49.5422L72.8791 48.8337L72.1713 48.1273ZM77.0585 43.2308L77.7663 43.9373L78.4721 43.2302L77.7656 42.5237L77.0585 43.2308ZM70.7907 47.6763L70.6327 46.6888L69.6477 46.8465L69.8029 47.8318L70.7907 47.6763ZM71.8676 54.5147L70.8797 54.6703L71.0357 55.6605L72.0256 55.5022L71.8676 54.5147ZM73.4782 54.257L73.6362 55.2445L74.6212 55.0868L74.4661 54.1015L73.4782 54.257ZM72.4014 47.4186L73.3892 47.263L73.2333 46.2728L72.2434 46.4311L72.4014 47.4186ZM73.0457 53.6588L73.9378 54.1105L74.3886 53.2202L73.4993 52.7676L73.0457 53.6588ZM66.8791 50.5203L67.3327 49.6291L66.4396 49.1745L65.987 50.0685L66.8791 50.5203ZM66.1428 51.9745L65.2506 51.5227L64.7999 52.413L65.6892 52.8657L66.1428 51.9745ZM72.3094 55.113L71.8558 56.0042L72.7488 56.4587L73.2015 55.5647L72.3094 55.113ZM66.1428 50.5203L67.035 50.0685L66.5823 49.1745L65.6892 49.6291L66.1428 50.5203ZM59.9762 53.6588L59.5227 52.7676L58.6333 53.2202L59.0841 54.1105L59.9762 53.6588ZM60.7125 55.113L59.8204 55.5647L60.2731 56.4587L61.1661 56.0042L60.7125 55.113ZM66.8791 51.9745L67.3327 52.8657L68.2221 52.413L67.7713 51.5227L66.8791 51.9745ZM61.1451 54.5147L60.9871 55.5022L61.977 55.6605L62.133 54.6703L61.1451 54.5147ZM62.222 47.6763L63.2098 47.8318L63.365 46.8465L62.38 46.6888L62.222 47.6763ZM60.6113 47.4186L60.7693 46.4311L59.7794 46.2728L59.6235 47.263L60.6113 47.4186ZM59.5345 54.257L58.5466 54.1015L58.3915 55.0868L59.3765 55.2445L59.5345 54.257ZM61.9919 46.9768L62.699 47.6839L63.4054 46.9775L62.6996 46.2704L61.9919 46.9768ZM57.1047 42.0804L57.8124 41.3739L57.1053 40.6655L56.3975 41.3733L57.1047 42.0804ZM55.9542 43.2308L55.2471 42.5237L54.5406 43.2302L55.2464 43.9373L55.9542 43.2308ZM60.8414 48.1273L60.1336 48.8337L60.8407 49.5422L61.5485 48.8344L60.8414 48.1273ZM56.6537 43.4609V44.4609H56.7327L56.8107 44.4485L56.6537 43.4609ZM63.4829 42.3749L63.64 43.3625L64.6285 43.2053L64.4703 42.2169L63.4829 42.3749ZM63.2252 40.7642L64.2126 40.6062L64.0548 39.6199L63.0683 39.7766L63.2252 40.7642ZM56.3868 41.8503L56.2299 40.8626L55.2411 41.0197L55.3993 42.0083L56.3868 41.8503ZM56.6445 43.4609L55.657 43.6189L55.7917 44.4609H56.6445V43.4609ZM64.0812 41.9423L63.6294 42.8345L64.5187 43.2847L64.9718 42.3969L64.0812 41.9423ZM67.2289 35.7757L68.1195 36.2304L68.5757 35.3368L67.6806 34.8836L67.2289 35.7757ZM65.7746 35.0394L66.2264 34.1473L65.3371 33.697L64.884 34.5848L65.7746 35.0394ZM62.6269 41.206L61.7363 40.7514L61.2801 41.6449L62.1752 42.0982L62.6269 41.206ZM14.0623 108.796C13.1848 109.318 12.9357 110.445 13.4384 111.289L15.157 110.266C15.1995 110.338 15.1897 110.452 15.0853 110.514L14.0623 108.796ZM13.4384 111.289C13.9607 112.167 15.0875 112.416 15.932 111.913L14.9091 110.194C14.9805 110.152 15.0948 110.162 15.157 110.266L13.4384 111.289ZM15.5738 109.664V109.655H13.5738V109.664H15.5738ZM36.1494 97.9767L36.0758 97.1667L34.084 97.3478L34.1577 98.1577L36.1494 97.9767ZM34.9804 96.2622L34.7963 96.2806L34.9954 98.2707L35.1794 98.2523L34.9804 96.2622ZM34.3526 96.4361L34.1961 96.5373L35.2826 98.2165L35.4391 98.1152L34.3526 96.4361ZM33.8839 97.8947L34.3073 98.5942L36.0182 97.5586L35.5949 96.8591L33.8839 97.8947ZM35.8697 97.3691L35.8605 97.3599L34.4466 98.7744L34.4558 98.7836L35.8697 97.3691ZM67.4295 94.9824L67.5031 95.7923L69.4949 95.6113L69.4212 94.8013L67.4295 94.9824ZM68.499 96.7018H68.5818V94.7018H68.499V96.7018ZM68.9879 96.6156L69.0707 96.5788L68.2586 94.7512L68.1757 94.788L68.9879 96.6156ZM69.6167 95.359L69.3682 94.5859L67.4641 95.1979L67.7126 95.971L69.6167 95.359ZM68.4161 95.8919H68.4254V93.8919H68.4161V95.8919ZM103.92 83.7391L104.169 84.5122L106.073 83.9002L105.824 83.1271L103.92 83.7391ZM106.07 83.89L105.812 83.1169L103.915 83.7493L104.172 84.5225L106.07 83.89ZM104.863 84.4331H104.872V82.4331H104.863V84.4331ZM12.8558 80.2126C11.905 80.5639 11.4497 81.6071 11.7701 82.5283L13.6591 81.8713C13.6851 81.9458 13.6531 82.0501 13.5491 82.0886L12.8558 80.2126ZM11.7766 82.5465C12.1182 83.4706 13.155 83.9831 14.1081 83.6231L13.4013 81.7521C13.526 81.705 13.624 81.7758 13.6526 81.8532L11.7766 82.5465ZM13.9002 81.867L13.9094 81.8578L12.4955 80.4433L12.4863 80.4525L13.9002 81.867ZM34.4969 74.5975V73.7783H32.4969V74.5975H34.4969ZM33.4969 72.7783H33.3496V74.7783H33.4969V72.7783ZM33.0333 72.8296L32.8953 72.8757L33.5278 74.773L33.6658 74.727L33.0333 72.8296ZM32.2711 74.1642L32.5472 74.9282L34.4281 74.2483L34.152 73.4844L32.2711 74.1642ZM32.7804 75.2952L32.7896 75.3044L34.2041 73.8905L34.1949 73.8813L32.7804 75.2952ZM66.9443 36.2813L67.6714 35.9132L66.7679 34.1289L66.0408 34.497L66.9443 36.2813ZM68.1094 34.5646L67.3823 33.1472L65.6028 34.0601L66.3299 35.4775L68.1094 34.5646ZM65.6028 33.1472L64.8757 34.5646L66.6552 35.4775L67.3823 34.0601L65.6028 33.1472ZM65.3137 35.9132L66.0408 36.2813L66.9443 34.497L66.2172 34.1289L65.3137 35.9132ZM69.1885 40.6636L68.4614 41.0317L69.3649 42.8161L70.092 42.4479L69.1885 40.6636ZM68.0187 42.3711L68.2028 42.7393L69.9917 41.8448L69.8076 41.4767L68.0187 42.3711ZM68.9435 43.2802L69.3577 43.3446L69.6651 41.3684L69.2509 41.3039L68.9435 43.2802ZM70.4987 42.5154L70.6276 41.7146L68.653 41.3969L68.5241 42.1976L70.4987 42.5154ZM75.7624 43.3489L76.3422 43.9287L77.7564 42.5145L77.1766 41.9347L75.7624 43.3489ZM77.7564 43.9287L78.8885 42.7967L77.4743 41.3825L76.3422 42.5145L77.7564 43.9287ZM78.3374 41.1018L76.7635 40.8533L76.4516 42.8288L78.0254 43.0773L78.3374 41.1018ZM75.6202 41.6822L75.4914 42.4829L77.466 42.8007L77.5948 41.9999L75.6202 41.6822ZM76.4787 41.6418H76.4695V43.6418H76.4787V41.6418ZM72.2894 46.8311L71.7095 46.2513L70.2953 47.6655L70.8752 48.2453L72.2894 46.8311ZM70.2953 46.2513L70.0008 46.5458L71.415 47.96L71.7095 47.6655L70.2953 46.2513ZM69.7203 47.41L69.7847 47.815L71.7599 47.5008L71.6955 47.0958L69.7203 47.41ZM70.9294 48.6455L71.7394 48.5166L71.4251 46.5414L70.6152 46.6703L70.9294 48.6455ZM70.5823 47.529V47.5382H72.5823V47.529H70.5823ZM71.7669 53.9249L71.3988 54.652L73.1831 55.5555L73.5513 54.8284L71.7669 53.9249ZM71.8369 55.9947L73.2635 56.7218L74.1716 54.9399L72.745 54.2128L71.8369 55.9947ZM74.7053 55.6749L74.4568 54.101L72.4813 54.413L72.7298 55.9868L74.7053 55.6749ZM73.3102 53.2697L72.5094 53.3986L72.8272 55.3732L73.6279 55.2443L73.3102 53.2697ZM73.3751 53.6785L73.3659 53.6693L71.9523 55.084L71.9615 55.0932L73.3751 53.6785ZM67.3847 51.6899L67.7529 50.9628L65.9685 50.0593L65.6004 50.7864L67.3847 51.6899ZM67.3079 49.6166L66.9398 49.4326L66.0453 51.2214L66.4135 51.4055L67.3079 49.6166ZM66.0453 49.4326L65.6772 49.6166L66.5716 51.4055L66.9398 51.2214L66.0453 49.4326ZM65.2322 50.9628L65.6004 51.6899L67.3847 50.7864L67.0166 50.0593L65.2322 50.9628ZM60.4849 53.3894L59.6841 53.2605L59.3664 55.2351L60.1671 55.364L60.4849 53.3894ZM58.5375 54.0919L58.289 55.6657L60.2645 55.9776L60.513 54.4038L58.5375 54.0919ZM59.7309 56.7126L61.1574 55.9855L60.2493 54.2036L58.8227 54.9307L59.7309 56.7126ZM61.5955 54.6428L61.2274 53.9157L59.443 54.8192L59.8112 55.5463L61.5955 54.6428ZM59.6281 53.6604L59.6189 53.6696L61.0331 55.0838L61.0423 55.0746L59.6281 53.6604ZM61.244 48.5255L62.0447 48.6544L62.3624 46.6798L61.5617 46.5509L61.244 48.5255ZM63.1912 47.8242L63.2556 47.4192L61.2804 47.105L61.216 47.51L63.1912 47.8242ZM62.9751 46.555L62.6806 46.2605L61.2664 47.6747L61.5609 47.9692L62.9751 46.555ZM61.2664 46.2605L60.6865 46.8403L62.1007 48.2545L62.6806 47.6747L61.2664 46.2605ZM62.1007 48.2545L62.1099 48.2453L60.6957 46.8311L60.6865 46.8403L62.1007 48.2545ZM57.5029 42.4829L57.3741 41.6822L55.3995 41.9999L55.5283 42.8007L57.5029 42.4829ZM56.2308 40.8533L54.6569 41.1018L54.9689 43.0773L56.5427 42.8288L56.2308 40.8533ZM54.1058 42.7967L55.2379 43.9287L56.6521 42.5145L55.52 41.3825L54.1058 42.7967ZM56.6521 43.9287L57.2319 43.3489L55.8177 41.9347L55.2379 42.5145L56.6521 43.9287ZM56.5248 41.6418H56.5156V43.6418H56.5248V41.6418ZM62.3575 41.7146L62.4864 42.5154L64.461 42.1976L64.3321 41.3969L62.3575 41.7146ZM63.6308 43.3441L64.0358 43.2796L63.7215 41.3045L63.3166 41.3689L63.6308 43.3441ZM64.7641 42.7569L64.9573 42.3887L63.1865 41.4591L62.9933 41.8272L64.7641 42.7569ZM64.5237 41.0317L63.7966 40.6636L62.8931 42.4479L63.6202 42.8161L64.5237 41.0317ZM15.9411 111.908L36.0974 99.6205L35.0564 97.9128L14.9001 110.2L15.9411 111.908ZM36.4309 98.2464L35.5841 96.8566L33.8762 97.8972L34.7229 99.287L36.4309 98.2464ZM34.2097 96.523L14.0533 108.81L15.0943 110.518L35.2507 98.2308L34.2097 96.523ZM35.3222 99.8818L68.594 96.7065L68.404 94.7155L35.1322 97.8908L35.3222 99.8818ZM69.4943 95.6149L69.3379 93.995L67.3471 94.1873L67.5036 95.8071L69.4943 95.6149ZM68.2475 93.0957L34.9757 96.271L35.1657 98.2619L68.4375 95.0866L68.2475 93.0957ZM34.0753 97.3626L34.2318 98.9825L36.2225 98.7902L36.0661 97.1703L34.0753 97.3626ZM68.9646 96.6282L105.412 85.1694L104.812 83.2615L68.3647 94.7202L68.9646 96.6282ZM106.066 83.9162L105.578 82.3608L103.67 82.9592L104.158 84.5147L106.066 83.9162ZM104.324 81.706L67.8769 93.1648L68.4768 95.0727L104.924 83.614L104.324 81.706ZM67.2227 94.418L67.7105 95.9734L69.6188 95.375L69.131 93.8195L67.2227 94.418ZM105.437 85.1641C106.33 84.8665 107.604 84.1662 108.534 82.9298L106.936 81.7275C106.301 82.5711 105.403 83.0674 104.805 83.2668L105.437 85.1641ZM108.534 82.9297C109.531 81.6043 110.028 79.7667 109.365 77.5423L107.448 78.1136C107.927 79.718 107.559 80.8993 106.936 81.7276L108.534 82.9297ZM108.125 76.8686L106.56 77.3288L107.124 79.2475L108.689 78.7874L108.125 76.8686ZM105.883 78.5703C106.207 79.6739 105.946 80.3219 105.629 80.7421L107.227 81.9456C107.922 81.0221 108.305 79.7189 107.801 78.006L105.883 78.5703ZM105.625 80.7471C105.241 81.2645 104.65 81.5933 104.295 81.7096L104.917 83.6104C105.574 83.3953 106.547 82.859 107.23 81.9405L105.625 80.7471ZM103.657 82.9762L104.172 84.5225L106.07 83.89L105.554 82.3438L103.657 82.9762ZM104.121 84.2062V84.2154H106.121V84.2062H104.121ZM109.366 77.5448C108.887 75.9249 107.875 74.6895 106.458 73.9869L105.569 75.7786C106.454 76.2173 107.116 76.9883 107.448 78.1112L109.366 77.5448ZM106.458 73.9869C105.076 73.3016 103.479 73.2196 101.909 73.5133L102.277 75.4792C103.56 75.239 104.687 75.3411 105.569 75.7786L106.458 73.9869ZM101.11 74.6825L101.414 76.284L103.379 75.9113L103.075 74.3099L101.11 74.6825ZM102.578 77.0811C103.628 76.8872 104.374 77.0047 104.867 77.245L105.743 75.4473C104.764 74.9697 103.558 74.8663 102.215 75.1143L102.578 77.0811ZM104.862 77.2429C105.302 77.4599 105.68 77.8519 105.892 78.5713L107.81 78.005C107.452 76.7917 106.725 75.9319 105.748 75.4494L104.862 77.2429ZM107.133 79.2475L108.698 78.7874L108.134 76.8686L106.569 77.3288L107.133 79.2475ZM108.416 76.828H108.407V78.828H108.416V76.828ZM101.907 73.5137C100.184 73.8401 84.3406 76.21 76.5711 77.3634L76.8648 79.3418C84.5946 78.1942 100.504 75.815 102.279 75.4787L101.907 73.5137ZM75.7288 78.4996L75.9681 80.1102L77.9464 79.8163L77.7071 78.2056L75.7288 78.4996ZM77.1048 80.9523C84.7964 79.805 100.763 77.4163 102.575 77.0708L102.2 75.1062C100.441 75.4417 84.5438 77.8206 76.8098 78.9742L77.1048 80.9523ZM103.37 75.9021L103.066 74.3007L101.101 74.6733L101.405 76.2748L103.37 75.9021ZM101.377 75.1944L101.386 75.2036L102.8 73.7888L102.791 73.7796L101.377 75.1944ZM14.098 83.6268L34.1163 76.3098L33.4297 74.4313L13.4114 81.7484L14.098 83.6268ZM34.7116 75.0257L34.1502 73.4978L32.2729 74.1877L32.8343 75.7155L34.7116 75.0257ZM32.8682 72.9035L12.8499 80.2205L13.5365 82.099L33.5548 74.782L32.8682 72.9035ZM33.4969 76.4166H72.9812V74.4166H33.4969V76.4166ZM73.9812 75.4166V73.7875H71.9812V75.4166H73.9812ZM72.9812 72.7875H33.4969V74.7875H72.9812V72.7875ZM32.4969 73.7875V75.4166H34.4969V73.7875H32.4969ZM72.9812 76.4166C73.4047 76.4166 73.9587 76.5178 74.3547 76.7914L75.4918 75.1462C74.636 74.5547 73.6254 74.4166 72.9812 74.4166V76.4166ZM74.3595 76.7948C74.535 76.9146 74.6903 77.0689 74.8083 77.2983C74.9283 77.5317 75.0369 77.8959 75.0369 78.4723H77.0369C77.0369 77.6404 76.8786 76.9508 76.5868 76.3835C76.2929 75.8121 75.8913 75.4188 75.487 75.1429L74.3595 76.7948ZM78.666 78.4723C78.666 76.2491 77.7468 74.7038 76.4034 73.7964L75.2839 75.4537C76.0389 75.9637 76.666 76.8666 76.666 78.4723H78.666ZM76.4089 73.8001C75.1843 72.9611 73.806 72.7967 72.9812 72.7967V74.7967C73.5923 74.7967 74.5149 74.9269 75.2784 75.45L76.4089 73.8001ZM71.9812 73.7967V75.4258H73.9812V73.7967H71.9812ZM73.9812 75.4258V75.4166H71.9812V75.4258H73.9812ZM75.0369 78.4723C75.0369 78.7809 74.9704 78.9737 74.8924 79.1074C74.811 79.2469 74.6822 79.3812 74.476 79.5198L75.5914 81.1799C75.9742 80.9227 76.347 80.583 76.62 80.1151C76.8963 79.6413 77.0369 79.0932 77.0369 78.4723H75.0369ZM74.479 79.5178C74.0204 79.8235 73.3591 80.0159 72.6616 80.1379L73.0064 82.108C73.7814 81.9724 74.7768 81.7229 75.5884 81.1819L74.479 79.5178ZM71.8505 81.3038L72.145 82.9053L74.112 82.5435L73.8175 80.9421L71.8505 81.3038ZM73.3023 83.7092C74.1222 83.5645 75.3948 83.2689 76.4923 82.5336L75.379 80.872C74.6358 81.37 73.6994 81.6082 72.9547 81.7396L73.3023 83.7092ZM76.4904 82.5348C77.6853 81.7382 78.666 80.4177 78.666 78.4723H76.666C76.666 79.6377 76.1189 80.3788 75.381 80.8707L76.4904 82.5348ZM72.6657 80.1388L55.8227 83.1761L56.1777 85.1443L73.0206 82.1071L72.6657 80.1388ZM55.0157 84.3356L55.301 85.9371L57.27 85.5863L56.9847 83.9848L55.0157 84.3356ZM56.463 86.7458L73.306 83.7085L72.951 81.7403L56.108 84.7775L56.463 86.7458ZM74.113 82.549L73.8277 80.9476L71.8587 81.2984L72.144 82.8998L74.113 82.549ZM87.0479 45.3385C87.0479 56.6868 77.85 65.8847 66.5018 65.8847V67.8847C78.9546 67.8847 89.0479 57.7913 89.0479 45.3385H87.0479ZM65.5018 66.8847V68.5137H67.5018V66.8847H65.5018ZM66.5018 69.5137C79.8571 69.5137 90.677 58.6836 90.677 45.3293H88.677C88.677 57.5801 78.7515 67.5137 66.5018 67.5137V69.5137ZM89.677 44.3293H88.0479V46.3293H89.677V44.3293ZM87.0479 45.3293V45.3385H89.0479V45.3293H87.0479ZM66.5018 65.8847C55.1529 65.8847 45.9464 56.6862 45.9464 45.3385H43.9464C43.9464 57.7919 54.0495 67.8847 66.5018 67.8847V65.8847ZM44.9464 44.3385H43.3173V46.3385H44.9464V44.3385ZM42.3173 45.3385C42.3173 58.6931 53.1467 69.5229 66.4925 69.5229V67.5229C54.2518 67.5229 44.3173 57.589 44.3173 45.3385H42.3173ZM67.4925 68.5229V66.8939H65.4925V68.5229H67.4925ZM67.1996 67.601L67.2089 67.5918L65.7946 66.1775L65.7854 66.1867L67.1996 67.601ZM45.9464 45.3385C45.9464 33.99 55.1446 24.7832 66.5018 24.7832V22.7832C54.0394 22.7832 43.9464 32.886 43.9464 45.3385H45.9464ZM67.5018 23.7832V22.1541H65.5018V23.7832H67.5018ZM66.5018 21.1541C53.1467 21.1541 42.3265 31.984 42.3265 45.3293H44.3265C44.3265 33.088 54.2518 23.1541 66.5018 23.1541V21.1541ZM43.3265 46.3293H44.9556V44.3293H43.3265V46.3293ZM44.2485 44.6222L44.2393 44.6314L45.6535 46.0456L45.6627 46.0364L44.2485 44.6222ZM66.5018 24.7832C77.8497 24.7832 87.0479 33.9808 87.0479 45.3385H89.0479C89.0479 32.8768 78.9548 22.7832 66.5018 22.7832V24.7832ZM88.0479 46.3385H89.677V44.3385H88.0479V46.3385ZM90.677 45.3385C90.677 31.9837 79.8565 21.1633 66.5018 21.1633V23.1633C78.752 23.1633 88.677 33.0883 88.677 45.3385H90.677ZM67.5018 23.7924V23.7832H65.5018V23.7924H67.5018ZM72.024 24.7832C83.372 24.7832 92.5702 33.9808 92.5702 45.3385H94.5702C94.5702 32.8768 84.4771 22.7832 72.024 22.7832V24.7832ZM93.5702 46.3385H95.1993V44.3385H93.5702V46.3385ZM96.1993 45.3385C96.1993 31.9837 85.3788 21.1633 72.024 21.1633V23.1633C84.2743 23.1633 94.1993 33.0883 94.1993 45.3385H96.1993ZM73.024 23.7924V23.7832H71.024V23.7924H73.024ZM92.5702 45.3385C92.5702 56.6868 83.3723 65.8847 72.024 65.8847V67.8847C84.4769 67.8847 94.5702 57.7913 94.5702 45.3385H92.5702ZM71.024 66.8847V68.5137H73.024V66.8847H71.024ZM72.024 69.5137C85.3794 69.5137 96.1993 58.6836 96.1993 45.3293H94.1993C94.1993 57.5801 84.2738 67.5137 72.024 67.5137V69.5137ZM95.1993 44.3293H93.5702V46.3293H95.1993V44.3293ZM92.5702 45.3293V45.3385H94.5702V45.3293H92.5702ZM72.024 21.1633H66.5018V23.1633H72.024V21.1633ZM66.5018 24.7924H72.024V22.7924H66.5018V24.7924ZM72.024 65.8939H66.5018V67.8939H72.024V65.8939ZM65.5018 66.8939V68.5229H67.5018V66.8939H65.5018ZM66.5018 69.5229H72.024V67.5229H66.5018V69.5229ZM73.024 68.5229V66.8939H71.024V68.5229H73.024ZM64.884 36.2304L68.0317 42.3969L69.813 41.4877L66.6653 35.3211L64.884 36.2304ZM69.3741 42.8345L70.8283 42.0982L69.9248 40.3138L68.4706 41.0501L69.3741 42.8345ZM71.2672 40.7514L68.1195 34.5848L66.3382 35.4941L69.4859 41.6606L71.2672 40.7514ZM66.7771 34.1473L65.3229 34.8836L66.2264 36.6679L67.6806 35.9316L66.7771 34.1473ZM69.3635 43.3625L76.1928 44.4485L76.5069 42.4733L69.6777 41.3873L69.3635 43.3625ZM77.3373 43.6189L77.595 42.0083L75.6201 41.6923L75.3624 43.3029L77.3373 43.6189ZM76.7646 40.8627L69.9354 39.7766L69.6213 41.7518L76.4505 42.8379L76.7646 40.8627ZM68.7909 40.6062L68.5332 42.2169L70.508 42.5329L70.7657 40.9222L68.7909 40.6062ZM75.2003 41.3739L70.3131 46.2704L71.7286 47.6832L76.6158 42.7868L75.2003 41.3739ZM70.3137 47.6839L71.4642 48.8344L72.8784 47.4202L71.7279 46.2697L70.3137 47.6839ZM72.8791 48.8337L77.7663 43.9373L76.3508 42.5244L71.4635 47.4208L72.8791 48.8337ZM77.7656 42.5237L76.6152 41.3733L75.2009 42.7875L76.3514 43.938L77.7656 42.5237ZM69.8029 47.8318L70.8797 54.6703L72.8554 54.3592L71.7786 47.5207L69.8029 47.8318ZM72.0256 55.5022L73.6362 55.2445L73.3203 53.2696L71.7096 53.5273L72.0256 55.5022ZM74.4661 54.1015L73.3892 47.263L71.4136 47.5741L72.4904 54.4126L74.4661 54.1015ZM72.2434 46.4311L70.6327 46.6888L70.9487 48.6637L72.5594 48.406L72.2434 46.4311ZM73.4993 52.7676L67.3327 49.6291L66.4255 51.4115L72.5921 54.55L73.4993 52.7676ZM65.987 50.0685L65.2506 51.5227L67.035 52.4262L67.7713 50.972L65.987 50.0685ZM65.6892 52.8657L71.8558 56.0042L72.7629 54.2218L66.5964 51.0833L65.6892 52.8657ZM73.2015 55.5647L73.9378 54.1105L72.1535 53.207L71.4172 54.6612L73.2015 55.5647ZM65.6892 49.6291L59.5227 52.7676L60.4298 54.55L66.5964 51.4115L65.6892 49.6291ZM59.0841 54.1105L59.8204 55.5647L61.6047 54.6612L60.8684 53.207L59.0841 54.1105ZM61.1661 56.0042L67.3327 52.8657L66.4255 51.0833L60.259 54.2218L61.1661 56.0042ZM67.7713 51.5227L67.035 50.0685L65.2506 50.972L65.987 52.4262L67.7713 51.5227ZM62.133 54.6703L63.2098 47.8318L61.2341 47.5207L60.1573 54.3592L62.133 54.6703ZM62.38 46.6888L60.7693 46.4311L60.4533 48.406L62.064 48.6637L62.38 46.6888ZM59.6235 47.263L58.5466 54.1015L60.5223 54.4126L61.5991 47.5741L59.6235 47.263ZM59.3765 55.2445L60.9871 55.5022L61.3031 53.5273L59.6925 53.2696L59.3765 55.2445ZM62.6996 46.2704L57.8124 41.3739L56.3969 42.7868L61.2841 47.6832L62.6996 46.2704ZM56.3975 41.3733L55.2471 42.5237L56.6613 43.938L57.8118 42.7875L56.3975 41.3733ZM55.2464 43.9373L60.1336 48.8337L61.5492 47.4208L56.6619 42.5244L55.2464 43.9373ZM61.5485 48.8344L62.699 47.6839L61.2848 46.2697L60.1343 47.4202L61.5485 48.8344ZM56.8107 44.4485L63.64 43.3625L63.3258 41.3873L56.4966 42.4733L56.8107 44.4485ZM64.4703 42.2169L64.2126 40.6062L62.2378 40.9222L62.4955 42.5329L64.4703 42.2169ZM63.0683 39.7766L56.2299 40.8626L56.5436 42.8379L63.382 41.7518L63.0683 39.7766ZM55.3993 42.0083L55.657 43.6189L57.6319 43.3029L57.3742 41.6923L55.3993 42.0083ZM56.6445 44.4609H56.6537V42.4609H56.6445V44.4609ZM64.9718 42.3969L68.1195 36.2304L66.3382 35.3211L63.1905 41.4877L64.9718 42.3969ZM67.6806 34.8836L66.2264 34.1473L65.3229 35.9316L66.7771 36.6679L67.6806 34.8836ZM64.884 34.5848L61.7363 40.7514L63.5176 41.6606L66.6653 35.4941L64.884 34.5848ZM62.1752 42.0982L63.6294 42.8345L64.5329 41.0501L63.0787 40.3138L62.1752 42.0982Z" mask="url(#b)"/><path stroke="url(#c)" stroke-linecap="round" stroke-width="1.77" d="M94.3789 26.9005L100.628 20.6511"/><path stroke="url(#d)" stroke-linecap="round" stroke-width="1.77" d="M44.433 26.9005L38.1836 20.6511"/><path stroke="url(#e)" stroke-linecap="round" stroke-width="1.77" d="M67.2227 17.6683V8.83264"/><defs><linearGradient id="a" x1="12.668" x2="110.08" y1="22.145" y2="45.689" gradientUnits="userSpaceOnUse"><stop stop-color="#3B00B9"/><stop offset="1" stop-color="#2586B6"/></linearGradient><linearGradient id="c" x1="94.379" x2="100.77" y1="20.651" y2="22.084" gradientUnits="userSpaceOnUse"><stop stop-color="#3B00B9"/><stop offset="1" stop-color="#2586B6"/></linearGradient><linearGradient id="d" x1="38.184" x2="44.574" y1="20.651" y2="22.084" gradientUnits="userSpaceOnUse"><stop stop-color="#3B00B9"/><stop offset="1" stop-color="#2586B6"/></linearGradient><linearGradient id="e" x1="67.223" x2="68.296" y1="8.833" y2="8.86" gradientUnits="userSpaceOnUse"><stop stop-color="#3B00B9"/><stop offset="1" stop-color="#2586B6"/></linearGradient></defs></svg>