<svg width="103" height="96" viewBox="0 0 103 96" fill="none" xmlns="http://www.w3.org/2000/svg">
<path d="M51.9743 59.1343H59.2838C64.3922 53.7508 67.7947 46.6706 68.5834 38.8017C68.6935 37.6369 68.7577 36.4538 68.7577 35.2616C68.7577 16.3046 53.6618 0.933594 35.0442 0.933594C16.4265 0.933594 1.33984 16.3046 1.33984 35.2616C1.33984 36.4538 1.40404 37.6369 1.5141 38.8017C3.25664 56.1078 17.6005 69.5987 35.0442 69.5987C35.2459 69.5987 35.4477 69.5987 35.6495 69.5896M51.9743 59.1343C44.7382 59.1343 38.4926 63.4173 35.6495 69.5896M51.9743 59.1343L83.3484 59.1337C88.3101 59.1337 92.804 61.1422 96.0506 64.398H96.0598C99.3156 67.6446 101.324 72.1385 101.324 77.1002C101.324 87.0234 93.2809 95.0666 83.3576 95.0666H51.9828C42.0595 95.0666 34.0163 87.0234 34.0163 77.1002C34.0163 76.9534 34.0163 76.7975 34.0163 76.6508C34.0713 74.1287 34.6498 71.7448 35.6495 69.5896M41.9013 25.0134C40.223 20.0884 28.7498 19.5382 28.7498 27.7373C28.7498 35.1843 42.1398 31.9469 41.8922 40.7696C41.6629 49.0237 31.171 49.0604 28.172 43.3375M35.3714 16.3202V21.0984M35.3714 47.4761V52.2543M91.1345 66.6434L70.2149 87.563M35.0442 69.5998C35.2459 69.5998 35.4477 69.5998 35.6495 69.5906C34.6498 71.7458 34.072 74.1304 34.017 76.6524C15.8763 76.1022 1.33984 60.9513 1.33984 42.3428C1.33984 41.1505 1.40404 39.9675 1.5141 38.8027C3.25664 56.1088 17.6005 69.5998 35.0442 69.5998ZM68.7552 42.3428C68.7552 48.4417 67.1961 54.1737 64.4447 59.1354H59.2813C64.3897 53.7518 67.7923 46.6716 68.581 38.8027C68.691 39.9675 68.7552 41.1505 68.7552 42.3428ZM60.6863 81.0255C60.6863 82.8322 59.9526 84.4647 58.7695 85.6478C57.5956 86.8308 55.9631 87.5645 54.1564 87.5645C50.5429 87.5645 47.6173 84.6389 47.6173 81.0255V73.1749C47.6173 69.5706 50.5429 66.6358 54.1564 66.6358C55.4862 66.6358 56.7151 67.0301 57.7423 67.718C59.5124 68.8827 60.6863 70.8912 60.6863 73.1749V81.0255ZM75.1585 75.2659C73.1225 75.2659 71.4717 73.6151 71.4717 71.5791C71.4717 69.5431 73.1225 67.9014 75.1585 67.9014C77.1945 67.9014 78.8362 69.5522 78.8362 71.5791C78.8362 73.6059 77.1854 75.2659 75.1585 75.2659ZM86.1915 86.2989C84.1647 86.2989 82.5138 84.6573 82.5138 82.6213C82.5138 80.5852 84.1647 78.9436 86.1915 78.9436C88.2184 78.9436 89.8784 80.5852 89.8784 82.6213C89.8784 84.6573 88.2275 86.2989 86.1915 86.2989ZM78.8362 71.5778C78.8362 73.6139 77.1853 75.2647 75.1585 75.2647C73.1317 75.2647 71.4716 73.6139 71.4716 71.5778C71.4716 69.5418 73.1225 67.9002 75.1585 67.9002C77.1945 67.9002 78.8362 69.551 78.8362 71.5778ZM89.8783 82.62C89.8783 84.656 88.2275 86.2976 86.1915 86.2976C84.1554 86.2976 82.5138 84.656 82.5138 82.62C82.5138 80.584 84.1646 78.9423 86.1915 78.9423C88.2183 78.9423 89.8783 80.584 89.8783 82.62ZM60.6876 73.1773V81.0279C60.6876 82.8346 59.9539 84.4671 58.7708 85.6502C57.5969 86.8333 55.9644 87.567 54.1577 87.567C50.5442 87.567 47.6186 84.6414 47.6186 81.0279V73.1773C47.6186 69.573 50.5442 66.6382 54.1577 66.6382C55.4875 66.6382 56.7164 67.0326 57.7436 67.7204C59.5137 68.8852 60.6876 70.8937 60.6876 73.1773Z" stroke="url(#paint0_linear_7752_75525)" stroke-width="1.77" stroke-linecap="round"/>
<defs>
<linearGradient id="paint0_linear_7752_75525" x1="1.33984" y1="0.933594" x2="102.962" y2="25.1268" gradientUnits="userSpaceOnUse">
<stop stop-color="#3B00B9"/>
<stop offset="1" stop-color="#2586B6"/>
</linearGradient>
</defs>
</svg>
