<svg width="63" height="92" viewBox="0 0 63 92" fill="none"
  xmlns="http://www.w3.org/2000/svg">
  <path d="M17.2455 53.5725L16.9665 53.4396L16.7229 53.6298C15.3669 54.6882 12.2568 57.188 10.7454 58.6635C8.88981 60.4752 7.66963 61.797 7.13332 62.6045C6.87349 62.9957 6.67924 63.3669 6.63324 63.74C6.58204 64.1554 6.72073 64.4985 6.95692 64.8011C7.0859 64.9664 7.32484 65.1765 7.58604 65.3839C7.86058 65.6019 8.20085 65.8489 8.56569 66.0913C9.28118 66.5665 10.1466 67.061 10.8149 67.2589C11.4424 67.4446 11.9543 67.3036 12.3056 66.968C12.4769 66.8044 12.5936 66.6104 12.6701 66.4229C13.1616 66.3858 13.839 66.2039 14.3624 65.66C14.599 65.4141 15.2775 64.9216 16.0897 64.3758C16.5276 64.0815 16.9867 63.7832 17.4026 63.5181L17.2082 65.0947C17.1402 65.6469 17.3129 66.0291 17.4675 66.2985C17.5044 66.3629 17.5317 66.4078 17.5536 66.4438C17.5834 66.4929 17.6034 66.5257 17.6244 66.5693C17.6308 66.5826 17.6346 66.5919 17.6368 66.5979L16.9433 72.2234C16.8827 72.7154 17.0836 73.1604 17.2924 73.4777C17.3637 73.586 17.4411 73.6874 17.5197 73.7799C17.5181 73.7817 17.5165 73.7835 17.515 73.7854C17.35 73.9781 17.1519 74.3268 17.2997 74.7433L17.7709 74.5761L17.2997 74.7433C17.3248 74.8139 17.3594 74.92 17.404 75.0567C17.6109 75.6913 18.0327 76.9847 18.7093 78.4371C19.3051 79.716 20.4271 81.7027 21.0532 82.7777C20.8825 82.9926 20.698 83.2555 20.5508 83.5293C20.44 83.7353 20.3393 83.9677 20.2889 84.204C20.2394 84.4365 20.2279 84.7251 20.3641 84.9964C20.5576 85.3818 21.1156 86.1499 21.7081 86.8201C22.0089 87.1604 22.3344 87.4937 22.6456 87.7526C22.8011 87.882 22.9615 87.9999 23.1203 88.0915C23.2737 88.1798 23.4564 88.2618 23.6515 88.2859C23.9332 88.3206 24.2935 88.2806 24.6503 88.2118C25.0197 88.1406 25.4321 88.0289 25.8374 87.8914C26.2425 87.7539 26.6499 87.5875 27.0073 87.4038C27.3566 87.2242 27.6919 87.0112 27.9244 86.7696C28.3591 86.3178 28.9157 85.6939 29.2987 85.2568C29.4014 85.3282 29.5114 85.4015 29.6223 85.4708C29.7585 85.5559 29.9032 85.6395 30.0418 85.7062C30.1696 85.7677 30.3342 85.8358 30.4985 85.8561L34.1264 86.3033C34.8046 86.3869 35.532 86.3059 36.1306 86.0054C36.7451 85.6968 37.2277 85.1496 37.3259 84.3524L38.8414 72.0581C38.868 71.842 38.9354 71.7279 38.9962 71.6624C39.0596 71.594 39.1511 71.541 39.2833 71.5061C39.5713 71.4301 39.9278 71.4681 40.2469 71.5075C40.6858 71.5616 40.9591 71.2724 41.0919 71.0408C41.2211 70.8152 41.2909 70.536 41.3341 70.296C41.3791 70.0457 41.4039 69.7857 41.4204 69.5717C41.4275 69.48 41.4329 69.4021 41.4374 69.3359C41.49 69.3289 41.5472 69.3231 41.6138 69.3164C41.686 69.3092 41.7694 69.3008 41.8703 69.2884C42.0831 69.2622 42.3676 69.217 42.6143 69.0931C42.888 68.9557 43.1423 68.7045 43.1925 68.2976L44.2417 59.7858C44.5399 59.9796 44.938 60.2536 45.431 60.622C46.4048 61.3498 47.2615 61.3321 47.7903 61.0516C48.2305 61.2573 48.9437 61.5306 49.6504 61.6177C50.0084 61.6618 50.3515 61.5923 50.6494 61.3997C50.9406 61.2115 51.1539 60.9286 51.3044 60.601C51.6004 59.9568 51.6954 59.0519 51.6154 57.9836C51.5676 57.3462 51.2476 56.6416 50.8363 55.9613C50.4171 55.2679 49.8663 54.5413 49.2909 53.8484C48.4595 52.8473 47.5447 51.8803 46.8729 51.1703C46.6199 50.9028 46.4014 50.6718 46.2347 50.4892C45.6405 49.8377 44.9521 49.3673 44.3513 49.0497C46.4605 48.1683 49.7917 46.5743 52.0812 44.7873C53.5344 43.653 54.8672 41.523 55.9331 39.3969C56.9771 37.3144 57.8019 35.159 58.2604 33.7554C59.0839 32.9618 60.5068 30.7481 60.9552 27.1101C61.4292 23.2645 59.0696 20.1665 57.7431 18.9988C57.2065 17.6458 55.5385 14.2299 52.6775 10.1997C50.7529 7.48857 46.3521 4.76643 40.9498 3.42725C35.5258 2.08272 29.0078 2.10915 22.8067 4.9979C13.0627 9.53712 9.41437 18.3864 8.75582 22.4989C8.21279 22.9563 7.31336 24.1943 6.99201 26.8012C6.75535 28.7211 7.14455 29.9906 7.59576 30.8892C7.75397 31.2042 7.92651 31.484 8.06236 31.7043C8.11117 31.7834 8.15524 31.8549 8.19221 31.9176C8.26797 32.046 8.31437 32.1365 8.34043 32.2066C8.36144 32.2632 8.36163 32.2869 8.36151 32.2902C8.32313 32.6023 8.40959 33.0554 8.5492 33.5503C8.69641 34.0721 8.92719 34.7206 9.23945 35.4622C9.86444 36.9467 10.8259 38.8283 12.1289 40.8519C13.2084 42.5283 14.9098 44.0359 16.5674 45.2317C18.0755 46.3196 19.5781 47.1712 20.6113 47.6763C20.6132 47.787 20.6212 47.9069 20.638 48.0296C20.6755 48.3034 20.7649 48.6522 20.9847 48.9339C20.9953 48.9474 21.005 48.9605 21.0141 48.9732C20.8056 49.0518 20.6698 49.2213 20.6001 49.3312C20.488 49.508 20.4144 49.725 20.3634 49.9133C20.2602 50.2943 20.2071 50.7255 20.1824 50.9262L20.1819 50.9295C20.1813 50.9305 20.1725 50.961 20.1278 51.0226C20.076 51.094 19.9952 51.1806 19.8849 51.2765C19.6642 51.4682 19.3673 51.6608 19.0701 51.8101C18.2613 52.2162 17.9076 53.0909 17.7927 53.7475C17.6249 53.726 17.4057 53.6488 17.2455 53.5725Z" fill="#E2E2E2" stroke="#B6B6B6"/>
  <path d="M25.0296 77.1075C24.6265 77.0578 23.6491 77.0192 22.9644 77.2622C22.1085 77.5659 21.6557 77.9193 21.4818 79.3301C21.3079 80.741 21.2831 80.9425 22.8458 81.5443C24.4085 82.1462 29.0468 84.3548 29.8033 84.8573" stroke="#7F7F81"/>
  <path d="M27.2727 7.11813L27.2727 7.11816L27.2805 7.11607C30.2386 6.32966 34.8425 5.8308 39.008 6.85249C43.123 7.86178 46.7346 10.3205 48.06 15.4548C49.7756 22.1011 48.0172 28.5305 44.539 33.4321C41.0463 38.3543 35.8983 41.6292 30.9768 42.0723C25.8241 42.5362 21.0309 41.8173 17.5072 39.7318C14.0394 37.6795 11.7104 34.2555 11.4882 29.0312C11.2589 23.6408 12.4023 18.8973 14.9668 15.1526C17.5247 11.4177 21.5561 8.58813 27.2727 7.11813Z" fill="#080808" stroke="#7F7F81" stroke-width="2"/>
  <path d="M56.8944 19.4482C56.1628 18.7442 54.6001 18.1422 53.6451 19.2521C52.6364 20.4244 51.4613 23.6889 52.552 28.1202C53.6426 32.5514 54.1972 33.029 54.9289 33.733C55.6605 34.437 56.4917 34.3349 57.4469 33.225" stroke="#838081"/>
  <path d="M21.3014 47.5937C21.8545 46.9798 23.4493 45.7714 25.4041 45.8487C27.8475 45.9453 36.0335 45.9313 38.3776 46.834C40.2528 47.5562 41.9824 48.5742 42.6129 48.9929" stroke="#7F7F81" stroke-width="2"/>
  <path d="M21.6825 49.4821C22.7068 49.4719 24.9669 49.3959 25.8128 49.1728C26.8702 48.8939 27.5494 48.3638 28.5323 48.6896C29.5152 49.0153 30.1971 50.1225 31.053 49.8187C31.9089 49.5149 32.8145 48.808 33.3943 49.0842C33.8581 49.3051 34.6459 49.4431 34.9818 49.4846" stroke="#7F7F81"/>
  <path d="M39.3599 47.1595C38.562 46.993 36.8657 46.8111 36.4638 47.4163C35.9613 48.1728 34.5781 49.4347 34.9067 50.089C35.2352 50.7433 36.5502 53.3607 37.7595 53.5098C38.9688 53.6589 39.8026 55.1939 40.9125 56.1492C41.8004 56.9134 43.1158 58.194 43.6624 58.7388" stroke="#7F7F81"/>
  <path d="M42.815 49.0177C42.076 48.9266 40.4119 48.9261 39.6676 49.6528C38.7372 50.5611 37.8841 52.5021 38.7428 53.8356" stroke="#7F7F81"/>
  <path d="M30.625 49.9706C30.4741 50.0884 30.1325 50.6465 29.9735 51.9364C29.8145 53.2263 29.576 55.1611 29.4766 55.9673" stroke="#7F7F81"/>
  <path d="M20.6279 51.398C20.1955 53.8 19.3106 58.7653 19.2311 59.4102C19.1516 60.0552 19.7704 60.5679 20.0898 60.7437" stroke="#7F7F81"/>
  <path d="M18.2786 62.1573C18.8317 61.5434 20.0637 60.2903 20.5673 60.1887C21.1968 60.0617 25.755 59.6005 26.5612 59.6999C27.2062 59.7794 27.9049 59.8655 28.1736 59.8986C28.3411 59.6465 28.8373 59.162 29.4823 59.2415C30.2884 59.3409 31.9008 59.5396 32.707 59.639C33.5132 59.7384 36.5153 60.7881 37.7981 61.4942C38.7562 62.0215 40.4459 63.2529 40.3465 64.059C40.2471 64.8652 40.0484 66.4776 39.9739 67.0822C39.9142 67.566 39.1944 67.8728 38.8419 67.9658" stroke="#7F7F81"/>
  <path d="M10.8986 62.2709C10.4707 62.4228 9.64516 62.8121 9.76665 63.1544C9.88813 63.4968 11.5162 65.007 12.3151 65.7193" stroke="#7F7F81"/>
  <path d="M18.1848 66.2382C18.6293 65.9519 19.5989 65.3894 19.9213 65.4292C20.3244 65.4789 21.3045 64.1674 21.7325 64.0156C22.1604 63.8637 25.0566 63.6069 26.4674 63.7808C27.8782 63.9547 30.0952 64.228 31.1527 63.9491C32.2101 63.6702 34.3774 64.3466 35.1339 64.8491C35.8904 65.3515 37.4779 65.7518 38.0081 66.4309C38.5382 67.1101 38.3891 68.3194 39.1953 68.4187C39.8402 68.4982 40.6402 68.8697 40.9595 69.0455" stroke="#7F7F81"/>
  <path d="M37.9455 73.5845C37.4154 72.9053 35.8764 71.4471 33.9614 71.0473C31.5677 70.5477 30.7612 70.4514 29.1614 70.1503C27.5616 69.8493 26.1011 70.0784 25.7008 71.6659C25.3005 73.2535 24.0968 76.3789 24.2487 76.8069" stroke="#7F7F81"/>
  <path d="M39.6812 57.839L39.488 62.7258" stroke="#7F7F81"/>
  <path d="M17.8112 54.3247C17.6943 54.7195 17.5716 55.6046 18.0155 55.9867C18.4595 56.3688 19.1433 57.3534 19.4297 57.7979" stroke="#7F7F81"/>
  <path d="M29.5511 55.3627C28.9548 55.2209 27.7223 55.26 27.5633 56.5499C27.3645 58.1623 28.7754 58.3362 29.4545 57.8061" stroke="#7F7F81"/>
  <path d="M40.7105 56.1244C39.7111 55.933 37.425 55.5557 36.2765 55.5778C35.128 55.5999 33.5819 55.8594 32.9524 55.9864C32.3643 55.7775 31.017 55.4205 30.3323 55.6635C29.4764 55.9672 28.6206 56.2709 28.7476 56.9004C28.8746 57.5299 29.0018 58.1594 30.4871 57.7286C31.9725 57.2979 32.6268 56.9693 33.2314 57.0439C33.8361 57.1184 37.0608 57.5159 37.867 57.6153C38.6732 57.7146 40.1334 57.4854 40.487 57.9382C40.8405 58.391 41.597 58.8935 42.0498 58.5401C42.412 58.2574 42.5523 57.7836 42.5771 57.582" stroke="#7F7F81"/>
  <path d="M25.4404 67.1326C25.7432 67.4427 26.3389 68.1436 26.2991 68.4661C26.2494 68.8692 25.874 70.2551 26.0258 70.6831" stroke="#7F7F81"/>
  <path d="M20.4378 57.9221C21.0001 57.7868 22.1699 57.4809 22.3511 57.3395C22.5774 57.1628 23.0771 54.7691 22.8756 54.7443C22.7143 54.7244 21.4151 54.9734 20.7856 55.1005" stroke="#7F7F81"/>
  <path d="M21.4589 51.296C22.0212 51.1607 23.1812 50.9354 23.3225 51.1165C23.4992 51.3429 23.2259 53.5598 22.9996 53.7365C22.8184 53.8779 21.6651 54.0495 21.1111 54.1176" stroke="#7F7F81"/>
  <path d="M24.228 50.4098C24.8234 50.0058 26.2213 49.5097 27.0496 50.7576C28.085 52.3175 26.3512 54.7637 25.545 54.6643C24.7389 54.5649 23.7311 54.4407 23.7808 54.0376" stroke="#7F7F81"/>
  <path d="M25.8186 52.4473C25.8782 51.9636 25.6741 51.4065 25.5646 51.1883C25.1615 51.1387 24.96 51.1138 24.4823 51.6688C24.0047 52.2237 24.3084 53.0796 24.7115 53.1293C25.1146 53.179 25.7441 53.052 25.8186 52.4473Z" stroke="#7F7F81"/>
  <path d="M29.2531 57.7812L29.0791 59.192" stroke="#7F7F81" stroke-width="2"/>
  <path d="M38.8171 68.1674L38.5935 69.9814" stroke="#7F7F81"/>
  <path d="M18.4751 73.8443C18.7355 73.9446 19.3774 74.1601 19.8611 74.2197C20.3448 74.2793 20.751 74.193 20.8937 74.1424" stroke="#7F7F81"/>
  <path d="M25.3495 72.8503L24.2673 73.3307" stroke="#7F7F81" stroke-width="2"/>
  <path d="M12.9692 20.5813C13.6693 17.5575 16.8482 15.6714 18.3501 15.1063C17.9378 14.578 16.756 13.764 15.3275 14.7337C13.5418 15.9459 11.432 19.7779 11.1367 23.8337C10.8413 27.8895 13.6161 30.2776 16.5862 29.4161C18.9623 28.7268 22.421 24.1334 23.8533 21.9229L23.2928 18.1708C20.8798 21.1471 16.9837 26.1913 15.5729 26.0174C14.162 25.8435 12.0941 24.361 12.9692 20.5813Z" fill="url(#paint0_linear_3720_82386)"/>
  <path d="M34.5205 15.0532C31.3355 14.3332 27.4895 17.8695 25.9646 19.7276C24.1939 20.2596 21.4168 20.4357 24.4736 16.884C28.2946 12.4444 35.7959 9.68609 40.0092 13.6838C44.2224 17.6815 44.1003 20.3263 43.6255 22.5185C42.7724 24.4594 38.0759 27.1543 35.5755 28.0737C33.5756 27.1452 29.9437 25.2925 31.4147 25.3101C33.2535 25.3322 36.6025 24.7219 38.3114 22.4773C40.0204 20.2326 38.5018 15.9532 34.5205 15.0532Z" fill="url(#paint1_linear_3720_82386)"/>
  <path d="M16.4363 15.6887C14.4815 15.6115 12.6714 18.5666 12.0106 20.0538C12.2094 18.4414 13.4324 14.8274 16.7344 13.2701C20.8619 11.3236 22.328 14.3688 25.8372 19.0982C29.3464 23.8275 33.2035 25.7352 37.0328 26.2073C40.0963 26.5849 42.7046 23.9055 43.6258 22.5185C42.873 24.199 40.431 27.8538 36.685 29.0289C32.0026 30.4978 28.4216 28.0104 24.004 22.3506C19.5865 16.6909 18.8797 15.7853 16.4363 15.6887Z" fill="#29ABE2"/>
  <path d="M9.4681 23.2126L9.68027 23.0908L9.71438 22.8486C10.2442 19.0856 13.6927 10.3468 23.229 5.90437C29.184 3.13024 35.4614 3.09702 40.7091 4.39788C45.9785 5.70409 50.1255 8.33239 51.862 10.7786C54.7704 14.8755 56.4086 18.3032 56.8552 19.4745L56.9014 19.5957L57.0007 19.6791C58.1688 20.6611 60.3909 23.514 59.9627 26.9877C59.517 30.6032 58.0712 32.6003 57.4973 33.0989L57.3919 33.1905L57.3492 33.3234C56.9132 34.6804 56.0887 36.8553 55.0392 38.9488C53.9797 41.0621 52.7293 43.0128 51.4659 43.9989C48.8102 46.0718 44.6139 47.9133 42.8414 48.5742L41.3372 49.135L42.8938 49.5275C43.3485 49.6421 44.5656 50.1433 45.496 51.1631C45.6802 51.3651 45.9117 51.6098 46.1744 51.8875C46.8425 52.5936 47.7126 53.5132 48.5216 54.4872C49.0819 55.162 49.5978 55.8456 49.9805 56.4787C50.3712 57.1249 50.5886 57.6631 50.6181 58.0583C50.6928 59.0551 50.5891 59.7626 50.3957 60.1835C50.3015 60.3884 50.1975 60.5011 50.1065 60.5599C50.0224 60.6143 49.9186 60.6432 49.7727 60.6252C49.0528 60.5365 48.2755 60.1908 47.9868 60.0319L47.6511 59.8471L47.3855 60.1233C47.3646 60.145 46.9252 60.4903 46.0296 59.821C44.972 59.0306 44.292 58.6272 44.054 58.5139L43.4277 58.2157L43.3428 58.9042L42.2 68.1753C42.1998 68.1767 42.1997 68.1778 42.1995 68.1788C42.1944 68.1829 42.1841 68.1902 42.1656 68.1995C42.0851 68.2399 41.951 68.2709 41.7483 68.2959C41.7012 68.3016 41.6444 68.3075 41.5832 68.3138C41.4374 68.3289 41.2661 68.3466 41.1391 68.3722C41.0427 68.3917 40.9087 68.4259 40.786 68.5C40.6486 68.583 40.4937 68.7385 40.4634 68.9843C40.4539 69.0615 40.4455 69.182 40.4368 69.3085C40.4325 69.3705 40.4281 69.434 40.4234 69.4946C40.4076 69.6986 40.3859 69.9188 40.3499 70.1189C40.3185 70.2931 40.2816 70.42 40.246 70.4999C39.9423 70.4642 39.4681 70.4232 39.0283 70.5392C38.7639 70.6089 38.4873 70.7406 38.2632 70.9821C38.0365 71.2264 37.8968 71.5472 37.8489 71.9358L36.3334 84.2301C36.2826 84.6422 36.0488 84.9274 35.6818 85.1117C35.2989 85.304 34.7797 85.3763 34.2487 85.3108L30.6209 84.8636C30.624 84.864 30.5797 84.8553 30.4754 84.8051C30.3818 84.76 30.2709 84.697 30.1523 84.6228C29.9152 84.4746 29.6762 84.3005 29.5312 84.1873L29.1554 83.8938L28.8444 84.2552C28.5273 84.6236 27.7571 85.5012 27.2038 86.0762C27.0843 86.2004 26.863 86.3535 26.5501 86.5144C26.2454 86.671 25.8851 86.8192 25.5161 86.9444C25.1473 87.0695 24.7792 87.1685 24.4609 87.2299C24.13 87.2937 23.8953 87.3083 23.7739 87.2934C23.7744 87.2934 23.771 87.293 23.7635 87.291C23.756 87.289 23.7454 87.2857 23.7315 87.2803C23.7031 87.2693 23.6659 87.2517 23.6197 87.2251C23.5263 87.1712 23.4138 87.0909 23.2852 86.9839C23.028 86.7699 22.7401 86.4776 22.4573 86.1578C21.8836 85.5088 21.3945 84.819 21.2585 84.5491C21.2578 84.5464 21.2463 84.5096 21.267 84.4125C21.2904 84.3027 21.3455 84.163 21.4316 84.0029C21.6035 83.6831 21.8548 83.3625 22.0323 83.1693L22.283 82.8963L22.0946 82.577C21.5305 81.6208 20.2516 79.3798 19.6158 78.0148C18.9702 76.6291 18.5749 75.4195 18.3619 74.768C18.3209 74.6423 18.2866 74.5373 18.2586 74.4559C18.2627 74.4502 18.268 74.4434 18.2747 74.4357C18.3011 74.4048 18.3384 74.3708 18.3827 74.3382C18.4266 74.3057 18.4686 74.281 18.4978 74.2664L19.2039 73.9119L18.5812 73.4255C18.4623 73.3327 18.2732 73.1491 18.1277 72.9279C17.9775 72.6996 17.917 72.4986 17.9358 72.3457L18.6314 66.7024C18.6603 66.4684 18.5923 66.2744 18.5254 66.1356C18.485 66.0517 18.4226 65.9478 18.3768 65.8714C18.36 65.8435 18.3454 65.8192 18.3349 65.8009C18.2368 65.63 18.1694 65.471 18.2007 65.217L18.5237 62.5969L18.6509 61.5644L17.7652 62.11C17.2075 62.4536 16.3362 63.0053 15.5319 63.5458C14.749 64.0719 13.9684 64.6272 13.6418 64.9666C13.2262 65.3985 12.5961 65.4547 12.3515 65.4245L11.8553 65.3633L11.7941 65.8596C11.7786 65.9853 11.7158 66.1485 11.615 66.2449C11.571 66.2869 11.5196 66.317 11.4521 66.3316C11.3828 66.3466 11.2703 66.3508 11.0988 66.3C10.5827 66.1472 9.8219 65.7252 9.11896 65.2583C8.77458 65.0295 8.45758 64.7991 8.20796 64.6008C7.94502 64.392 7.79294 64.247 7.74522 64.1858C7.62799 64.0357 7.61482 63.9509 7.62573 63.8624C7.64185 63.7316 7.72367 63.5231 7.96631 63.1578C8.43493 62.4522 9.57803 61.2008 11.444 59.3791C12.8326 58.0234 15.6581 55.7377 17.1089 54.5977C17.2955 54.6654 17.5125 54.7256 17.7223 54.7458C17.8856 54.7615 18.1081 54.7598 18.3157 54.6612C18.5613 54.5444 18.7255 54.3201 18.7609 54.0326C18.8278 53.4901 19.0879 52.9201 19.5188 52.7037C19.8759 52.5244 20.2458 52.2877 20.5407 52.0314C20.6882 51.9033 20.8274 51.7613 20.9373 51.6097C21.0435 51.4632 21.147 51.2743 21.1739 51.0563C21.1993 50.8504 21.2455 50.4817 21.3286 50.1747C21.357 50.07 21.3852 49.9903 21.4099 49.9342C21.5381 49.9252 21.6723 49.8884 21.7955 49.8049C21.9919 49.6716 22.0856 49.4699 22.1091 49.2789C22.1515 48.9348 21.9831 48.5878 21.773 48.3186C21.7101 48.2381 21.6559 48.0918 21.6288 47.8939C21.6028 47.7041 21.6094 47.5234 21.6211 47.4285L21.6656 47.0671L21.3354 46.9138C20.3632 46.4624 18.7621 45.5818 17.1525 44.4207C15.5375 43.2556 13.951 41.8345 12.9697 40.3105C11.6967 38.3336 10.7627 36.5032 10.1611 35.0742C9.86007 34.3592 9.64476 33.7506 9.51163 33.2788C9.37094 32.7801 9.34282 32.5032 9.35403 32.4122C9.40242 32.0196 9.20263 31.6622 9.05347 31.4094C9.00047 31.3196 8.94626 31.2317 8.89109 31.1423C8.76154 30.9323 8.62665 30.7137 8.48943 30.4404C8.11923 29.7032 7.77398 28.6314 7.9845 26.9235C8.33111 24.1117 9.35976 23.2747 9.4681 23.2126ZM21.4562 49.85C21.4562 49.8501 21.4554 49.8512 21.4538 49.8531C21.4554 49.8509 21.4562 49.8499 21.4562 49.85Z" stroke="#838081"/>
  <defs>
    <linearGradient id="paint0_linear_3720_82386" x1="34.5066" y1="27.4419" x2="23.6212" y2="8.36345" gradientUnits="userSpaceOnUse">
      <stop offset="0.21" stop-color="#ED1E79"/>
      <stop offset="0.8929" stop-color="#522785"/>
    </linearGradient>
    <linearGradient id="paint1_linear_3720_82386" x1="29.1337" y1="14.6204" x2="38.5854" y2="27.7839" gradientUnits="userSpaceOnUse">
      <stop offset="0.21" stop-color="#F15A24"/>
      <stop offset="0.6841" stop-color="#FBB03B"/>
    </linearGradient>
  </defs>
</svg>
