<?xml version="1.0" encoding="UTF-8"?>
<!DOCTYPE svg PUBLIC "-//W3C//DTD SVG 1.1//EN" "http://www.w3.org/Graphics/SVG/1.1/DTD/svg11.dtd">
<!-- Creator: CorelDRAW 2019 (64-Bit) -->
<svg width="200" height="200" viewBox="0 0 200 200" fill="none" xmlns="http://www.w3.org/2000/svg">
 <rect opacity="0.4" x="1" y="1" width="198" height="198" rx="99" stroke="url(#paint0_linear_523_6566)" stroke-width="2"/>
 <path d="M150.813 146.25H146.438V132.586C155.852 127.744 155.134 91.5623 144.25 91.5623C133.37 91.5623 132.641 127.74 142.062 132.586V146.25H139.128C139.619 144.86 139.875 143.387 139.875 141.875C139.875 134.637 133.987 128.75 126.75 128.75V65.3126C126.75 64.1048 125.77 63.125 124.563 63.125H120.188V58.7501C120.188 57.5423 119.208 56.5625 118 56.5625H107.063V52.1876C107.063 50.9798 106.083 50 104.875 50H91.7501C90.5423 50 89.5625 50.9797 89.5625 52.1876V56.5625H78.625C77.4172 56.5625 76.4375 57.5422 76.4375 58.7501V63.125H72.0625C70.8547 63.125 69.875 64.1047 69.875 65.3126V82.8124H50.1876C48.9798 82.8124 48 83.7921 48 85V148.437C48 149.645 48.9797 150.625 50.1876 150.625H72.0633H150.812C152.02 150.625 153 149.645 153 148.437C153 147.229 152.02 146.25 150.812 146.25H150.813ZM141.673 99.9242C142.725 96.9415 143.883 95.9375 144.25 95.9375C144.617 95.9375 145.775 96.9414 146.828 99.9242C149.389 107.182 149.175 119.32 146.438 125.772V117.813C146.438 116.605 145.458 115.625 144.25 115.625C143.042 115.625 142.063 116.605 142.063 117.813V125.772C139.343 119.363 139.094 107.23 141.673 99.9242H141.673ZM135.5 141.874C135.5 143.431 135.099 144.925 134.331 146.249H107.171C106.481 142.84 109.098 139.686 112.531 139.686C113.485 139.686 114.425 139.937 115.251 140.411C116.457 141.105 117.996 140.509 118.423 139.186C119.596 135.545 122.955 133.124 126.75 133.124C131.575 133.124 135.5 137.049 135.5 141.874L135.5 141.874ZM93.9388 54.3748H102.689V56.5623H93.9388V54.3748ZM80.8139 60.9371H115.814V63.1246H80.8139V60.9371ZM69.8765 87.1868V137.498H52.3767V87.1868H69.8765ZM52.3767 141.874H69.8765V146.249H52.3767V141.874ZM74.2524 141.874H93.9398C95.1476 141.874 96.1274 140.894 96.1274 139.687C96.1274 138.479 95.1477 137.499 93.9398 137.499H74.2524V67.4998H122.376V129.493C119.31 130.571 116.731 132.762 115.178 135.673C108.447 133.795 101.987 139.339 102.749 146.248H74.2512L74.2524 141.874Z" fill="#3B00B9"/>
 <path opacity="0.5" d="M115.812 128.75C117.02 128.75 118 127.77 118 126.562V74.0631C118 72.8553 117.02 71.8755 115.812 71.8755H80.8126C79.6048 71.8755 78.625 72.8552 78.625 74.0631V126.562C78.625 127.77 79.6047 128.75 80.8126 128.75H115.812ZM109.25 102.5H113.625V111.25H109.25V102.5ZM113.625 98.1254H109.25V89.3755H113.625V98.1254ZM104.875 98.1254H100.5V89.3755H104.875V98.1254ZM96.125 98.1254H91.75V89.3755H96.125V98.1254ZM87.3751 98.1254H83.0001V89.3755H87.3751V98.1254ZM83.0001 102.5H87.3751V111.25H83.0001V102.5ZM91.75 102.5H96.125V111.25H91.75V102.5ZM100.5 102.5H104.875V111.25H100.5V102.5ZM113.625 124.376H109.25V115.626H113.625V124.376ZM113.625 85.0005H109.25V76.2506H113.625V85.0005ZM104.875 85.0005H100.5V76.2506H104.875V85.0005ZM96.125 85.0005H91.75V76.2506H96.125V85.0005ZM83.0001 76.2506H87.3751V85.0005H83.0001V76.2506ZM83.0001 115.626H87.3751V124.376H83.0001V115.626ZM91.75 115.626H96.125V124.376H91.75V115.626ZM100.5 115.626H104.875V124.376H100.5V115.626Z" fill="#3B00B9"/>
 <path d="M56.7518 78.4367C60.3705 78.4367 63.3141 75.4929 63.3141 71.8743C63.3141 68.2558 60.3703 65.312 56.7518 65.312C53.1332 65.312 50.1895 68.2558 50.1895 71.8743C50.1895 75.4929 53.1332 78.4367 56.7518 78.4367ZM56.7518 69.6868C57.958 69.6868 58.9394 70.668 58.9394 71.8743C58.9394 73.0807 57.9581 74.0619 56.7518 74.0619C55.5454 74.0619 54.5642 73.0807 54.5642 71.8743C54.5642 70.668 55.5454 69.6868 56.7518 69.6868Z" fill="#3B00B9"/>
 <path d="M139.877 85.0004C144.702 85.0004 148.627 81.0755 148.627 76.2505C148.627 71.4256 144.702 67.5006 139.877 67.5006C135.052 67.5006 131.127 71.4256 131.127 76.2505C131.127 81.0755 135.052 85.0004 139.877 85.0004ZM139.877 71.8756C142.289 71.8756 144.252 73.838 144.252 76.2505C144.252 78.663 142.289 80.6255 139.877 80.6255C137.464 80.6255 135.502 78.663 135.502 76.2505C135.502 73.838 137.464 71.8756 139.877 71.8756Z" fill="#3B00B9"/>
 <path d="M133.313 95.9361C133.313 97.1439 132.333 98.1237 131.125 98.1237C129.917 98.1237 128.938 97.144 128.938 95.9361C128.938 94.7282 129.917 93.7485 131.125 93.7485C132.333 93.7485 133.313 94.7282 133.313 95.9361Z" fill="#3B00B9"/>
 <path d="M148.625 60.9377C148.625 62.1455 147.645 63.1253 146.438 63.1253C145.23 63.1253 144.25 62.1456 144.25 60.9377C144.25 59.7298 145.23 58.7501 146.438 58.7501C147.645 58.7501 148.625 59.7298 148.625 60.9377Z" fill="#3B00B9"/>
 <path d="M126.75 54.3751C126.75 55.5829 125.77 56.5626 124.563 56.5626C123.355 56.5626 122.375 55.583 122.375 54.3751C122.375 53.1672 123.355 52.1875 124.563 52.1875C125.77 52.1875 126.75 53.1672 126.75 54.3751Z" fill="#3B00B9"/>
 <path d="M69.8771 56.5626C69.8771 57.7704 68.8974 58.7502 67.6895 58.7502C66.4816 58.7502 65.502 57.7705 65.502 56.5626C65.502 55.3547 66.4816 54.375 67.6895 54.375C68.8974 54.375 69.8771 55.3547 69.8771 56.5626Z" fill="#3B00B9"/>
 <path opacity="0.5" d="M54.5645 91.5625H58.9394V100.312H54.5645V91.5625Z" fill="#3B00B9"/>
 <path opacity="0.5" d="M63.3145 91.5625H67.6894V100.312H63.3145V91.5625Z" fill="#3B00B9"/>
 <path opacity="0.5" d="M54.5645 104.688H58.9394V113.438H54.5645V104.688Z" fill="#3B00B9"/>
 <path opacity="0.5" d="M63.3145 104.688H67.6894V113.438H63.3145V104.688Z" fill="#3B00B9"/>
 <path opacity="0.5" d="M54.5645 117.812H58.9394V126.562H54.5645V117.812Z" fill="#3B00B9"/>
 <path opacity="0.5" d="M63.3145 117.812H67.6894V126.562H63.3145V117.812Z" fill="#3B00B9"/>
 <defs>
  <linearGradient id="paint0_linear_523_6566" x1="-7.50024" y1="115.5" x2="200" y2="81" gradientUnits="userSpaceOnUse">
   <stop stop-color="#3B00B9"/>
   <stop offset="1" stop-color="#3B00B9" stop-opacity="0"/>
  </linearGradient>
 </defs>
</svg>


