<?xml version="1.0" encoding="UTF-8"?>
<!DOCTYPE svg PUBLIC "-//W3C//DTD SVG 1.1//EN" "http://www.w3.org/Graphics/SVG/1.1/DTD/svg11.dtd">
<!-- Creator: CorelDRAW 2019 (64-Bit) -->
<svg width="200" height="200" viewBox="0 0 200 200" fill="none" xmlns="http://www.w3.org/2000/svg">
 <rect opacity="0.4" x="1.00006" y="1" width="198" height="198" rx="99" stroke="url(#paint0_linear_254_7976)" stroke-width="2"/>
 <path d="M150.813 146.25H146.438V132.586C155.852 127.744 155.134 91.5623 144.25 91.5623C133.37 91.5623 132.641 127.74 142.062 132.586V146.25H139.128C139.619 144.86 139.875 143.387 139.875 141.875C139.875 134.637 133.987 128.75 126.75 128.75V65.3126C126.75 64.1048 125.77 63.125 124.563 63.125H120.188V58.7501C120.188 57.5423 119.208 56.5625 118 56.5625H107.063V52.1876C107.063 50.9798 106.083 50 104.875 50H91.7501C90.5423 50 89.5625 50.9797 89.5625 52.1876V56.5625H78.625C77.4172 56.5625 76.4375 57.5422 76.4375 58.7501V63.125H72.0625C70.8547 63.125 69.875 64.1047 69.875 65.3126V82.8124H50.1876C48.9798 82.8124 48 83.7921 48 85V148.437C48 149.645 48.9797 150.625 50.1876 150.625H72.0633H150.812C152.02 150.625 153 149.645 153 148.437C153 147.229 152.02 146.25 150.812 146.25H150.813ZM141.673 99.9242C142.725 96.9415 143.883 95.9375 144.25 95.9375C144.617 95.9375 145.775 96.9414 146.828 99.9242C149.389 107.182 149.175 119.32 146.438 125.772V117.813C146.438 116.605 145.458 115.625 144.25 115.625C143.042 115.625 142.063 116.605 142.063 117.813V125.772C139.343 119.363 139.094 107.23 141.673 99.9242H141.673ZM135.5 141.874C135.5 143.431 135.099 144.925 134.331 146.249H107.171C106.481 142.84 109.098 139.686 112.531 139.686C113.485 139.686 114.425 139.937 115.251 140.411C116.457 141.105 117.996 140.509 118.423 139.186C119.596 135.545 122.955 133.124 126.75 133.124C131.575 133.124 135.5 137.049 135.5 141.874L135.5 141.874ZM93.9388 54.3748H102.689V56.5623H93.9388V54.3748ZM80.8139 60.9371H115.814V63.1246H80.8139V60.9371ZM69.8765 87.1868V137.498H52.3767V87.1868H69.8765ZM52.3767 141.874H69.8765V146.249H52.3767V141.874ZM74.2524 141.874H93.9398C95.1476 141.874 96.1274 140.894 96.1274 139.687C96.1274 138.479 95.1477 137.499 93.9398 137.499H74.2524V67.4998H122.376V129.493C119.31 130.571 116.731 132.762 115.178 135.673C108.447 133.795 101.987 139.339 102.749 146.248H74.2512L74.2524 141.874Z" fill="white"/>
 <path opacity="0.5" d="M115.813 128.75C117.021 128.75 118.001 127.77 118.001 126.562V74.0629C118.001 72.8551 117.021 71.8754 115.813 71.8754H80.8133C79.6055 71.8754 78.6258 72.855 78.6258 74.0629V126.562C78.6258 127.77 79.6054 128.75 80.8133 128.75H115.813ZM109.251 102.5H113.626V111.25H109.251V102.5ZM113.626 98.1253H109.251V89.3754H113.626V98.1253ZM104.876 98.1253H100.501V89.3754H104.876V98.1253ZM96.1258 98.1253H91.7508V89.3754H96.1258V98.1253ZM87.3759 98.1253H83.0009V89.3754H87.3759V98.1253ZM83.0009 102.5H87.3759V111.25H83.0009V102.5ZM91.7508 102.5H96.1258V111.25H91.7508V102.5ZM100.501 102.5H104.876V111.25H100.501V102.5ZM113.626 124.376H109.251V115.626H113.626V124.376ZM113.626 85.0004H109.251V76.2505H113.626V85.0004ZM104.876 85.0004H100.501V76.2505H104.876V85.0004ZM96.1258 85.0004H91.7508V76.2505H96.1258V85.0004ZM83.0009 76.2505H87.3759V85.0004H83.0009V76.2505ZM83.0009 115.626H87.3759V124.376H83.0009V115.626ZM91.7508 115.626H96.1258V124.376H91.7508V115.626ZM100.501 115.626H104.876V124.376H100.501V115.626Z" fill="white"/>
 <path d="M56.7516 78.4367C60.3704 78.4367 63.3139 75.4929 63.3139 71.8743C63.3139 68.2558 60.3702 65.312 56.7516 65.312C53.1331 65.312 50.1893 68.2558 50.1893 71.8743C50.1893 75.4929 53.1331 78.4367 56.7516 78.4367ZM56.7516 69.6868C57.9579 69.6868 58.9392 70.668 58.9392 71.8743C58.9392 73.0807 57.958 74.0619 56.7516 74.0619C55.5453 74.0619 54.564 73.0807 54.564 71.8743C54.564 70.668 55.5453 69.6868 56.7516 69.6868V69.6868Z" fill="white"/>
 <path d="M139.877 85.0004C144.702 85.0004 148.627 81.0755 148.627 76.2505C148.627 71.4256 144.702 67.5006 139.877 67.5006C135.052 67.5006 131.127 71.4256 131.127 76.2505C131.127 81.0755 135.052 85.0004 139.877 85.0004ZM139.877 71.8756C142.289 71.8756 144.252 73.838 144.252 76.2505C144.252 78.663 142.289 80.6255 139.877 80.6255C137.464 80.6255 135.502 78.663 135.502 76.2505C135.502 73.838 137.464 71.8756 139.877 71.8756Z" fill="white"/>
 <path d="M133.313 95.9361C133.313 97.1439 132.333 98.1237 131.125 98.1237C129.917 98.1237 128.938 97.144 128.938 95.9361C128.938 94.7282 129.917 93.7485 131.125 93.7485C132.333 93.7485 133.313 94.7282 133.313 95.9361Z" fill="white"/>
 <path d="M148.625 60.9377C148.625 62.1455 147.645 63.1253 146.437 63.1253C145.229 63.1253 144.249 62.1456 144.249 60.9377C144.249 59.7298 145.229 58.7501 146.437 58.7501C147.645 58.7501 148.625 59.7298 148.625 60.9377Z" fill="white"/>
 <path d="M126.751 54.3751C126.751 55.5829 125.771 56.5626 124.563 56.5626C123.355 56.5626 122.376 55.583 122.376 54.3751C122.376 53.1672 123.355 52.1875 124.563 52.1875C125.771 52.1875 126.751 53.1672 126.751 54.3751Z" fill="white"/>
 <path d="M69.8775 56.5626C69.8775 57.7704 68.8978 58.7502 67.6899 58.7502C66.482 58.7502 65.5023 57.7705 65.5023 56.5626C65.5023 55.3547 66.482 54.375 67.6899 54.375C68.8978 54.375 69.8775 55.3547 69.8775 56.5626Z" fill="white"/>
 <path opacity="0.5" d="M54.5637 91.5625H58.9386V100.312H54.5637V91.5625Z" fill="white"/>
 <path opacity="0.5" d="M63.3135 91.5625H67.6885V100.312H63.3135V91.5625Z" fill="white"/>
 <path opacity="0.5" d="M54.5637 104.688H58.9386V113.438H54.5637V104.688Z" fill="white"/>
 <path opacity="0.5" d="M63.3135 104.688H67.6885V113.438H63.3135V104.688Z" fill="white"/>
 <path opacity="0.5" d="M54.5637 117.812H58.9386V126.562H54.5637V117.812Z" fill="white"/>
 <path opacity="0.5" d="M63.3135 117.812H67.6885V126.562H63.3135V117.812Z" fill="white"/>
 <defs>
  <linearGradient id="paint0_linear_254_7976" x1="-7.50018" y1="115.5" x2="200" y2="81" gradientUnits="userSpaceOnUse">
   <stop stop-color="white"/>
   <stop offset="1" stop-color="white" stop-opacity="0"/>
  </linearGradient>
 </defs>
</svg>

