<?xml version="1.0" encoding="UTF-8"?>
<!DOCTYPE svg PUBLIC "-//W3C//DTD SVG 1.1//EN" "http://www.w3.org/Graphics/SVG/1.1/DTD/svg11.dtd">
<!-- Creator: CorelDRAW 2019 (64-Bit) -->
<svg width="200" height="200" viewBox="0 0 200 200" fill="none" xmlns="http://www.w3.org/2000/svg">
 <rect opacity="0.4" x="1.00024" y="1" width="198" height="198" rx="99" stroke="url(#paint0_linear_254_7914)" stroke-width="2"/>
 <path d="M149.994 64.6366C149.994 60.1502 144.767 56.4981 134.463 53.7784C125.232 51.3414 112.991 50 99.997 50C87.003 50 74.7607 51.3413 65.5308 53.7784C55.2272 56.4979 50 60.1502 50 64.6366V134.31C50 138.996 55.3569 143.004 65.4896 145.9C74.7343 148.541 86.9885 149.996 99.9968 149.996C113.005 149.996 125.26 148.541 134.504 145.9C144.639 143.004 149.994 138.997 149.994 134.31L149.994 64.6366ZM146.073 106.86C146.073 111.173 132.503 117.004 109.799 118.341V106.577C119.081 106.036 127.624 104.728 134.504 102.764C139.586 101.311 143.468 99.5797 146.072 97.6232L146.073 106.86ZM53.92 97.623C56.5259 99.5836 60.4082 101.311 65.4882 102.764C72.3664 104.724 80.9087 106.036 90.1923 106.577V118.341C67.4899 117.004 53.9191 111.173 53.9191 106.859L53.92 97.623ZM94.1144 106.76C96.0515 106.827 98.0164 106.859 99.9965 106.859C101.977 106.859 103.942 106.826 105.879 106.76V118.524C103.973 118.59 102.012 118.622 99.9965 118.624C97.9807 118.625 96.0199 118.592 94.1144 118.524V106.76ZM146.073 91.1746C146.073 95.6178 131.734 101.646 107.873 102.758H107.839C107.765 102.759 107.69 102.763 107.615 102.772C105.173 102.883 102.633 102.938 99.9964 102.938C97.3597 102.938 94.8202 102.882 92.3775 102.769V102.77C92.3029 102.761 92.2282 102.757 92.1536 102.756H92.1201C68.2588 101.646 53.9202 95.6171 53.9202 91.1746V70.7453C56.5149 72.5532 60.3847 74.138 65.5296 75.5002C74.7604 77.9353 87.0018 79.2786 99.9958 79.2786C112.99 79.2786 125.232 77.9352 134.462 75.5002C139.602 74.1436 143.471 72.5588 146.071 70.7453L146.073 91.1746ZM66.5301 57.5691C75.4457 55.2164 87.3308 53.9203 99.9981 53.9203C112.665 53.9203 124.55 55.2163 133.466 57.5691C142.773 60.0258 146.075 62.912 146.075 64.6377C146.075 66.3633 142.773 69.251 133.466 71.7077C124.55 74.0604 112.667 75.3564 99.9981 75.3564C87.3291 75.3564 75.4457 74.0605 66.5301 71.7077C57.2232 69.251 53.9212 66.3647 53.9212 64.6377C53.9212 62.9099 57.2232 60.0258 66.5301 57.5691ZM99.9981 146.072C71.4495 146.072 53.9218 139.22 53.9218 134.308V113.307C56.5277 115.268 60.41 116.997 65.49 118.448C74.7347 121.089 86.9889 122.543 99.9972 122.543C113.005 122.543 125.26 121.088 134.504 118.448C139.587 116.997 143.469 115.263 146.073 113.307V134.308C146.073 139.22 128.544 146.072 99.9963 146.072H99.9981Z" fill="white"/>
 <path opacity="0.5" d="M65.5338 84.5411C65.485 84.4232 65.4243 84.3102 65.3539 84.2042C65.2116 83.9887 65.0275 83.8045 64.8126 83.663C64.7059 83.5918 64.5936 83.5318 64.475 83.4823C64.36 83.4335 64.2393 83.3958 64.1165 83.3707C63.864 83.3198 63.6045 83.3198 63.3521 83.3707C63.2258 83.3951 63.1031 83.4328 62.9852 83.4823C62.8666 83.5311 62.7529 83.5918 62.6462 83.663C62.4307 83.8046 62.2465 83.9887 62.1049 84.2042C62.0338 84.3102 61.9738 84.4232 61.9243 84.5411C61.8748 84.6597 61.8378 84.7832 61.8127 84.9101C61.7604 85.1619 61.7604 85.4221 61.8127 85.6746C61.8371 85.8001 61.8748 85.9229 61.9243 86.0408C61.9731 86.16 62.0338 86.2737 62.1049 86.3804C62.2465 86.5953 62.4307 86.7794 62.6462 86.9217C62.7529 86.9928 62.8666 87.0528 62.9852 87.1016C63.1037 87.1512 63.2265 87.1895 63.3521 87.2153C63.6046 87.2649 63.864 87.2649 64.1165 87.2153C64.2428 87.1895 64.3662 87.1512 64.4855 87.1016C64.6034 87.0528 64.7164 86.9921 64.8224 86.9217C65.0372 86.7794 65.2214 86.5953 65.3637 86.3804C65.4348 86.2737 65.4955 86.16 65.5436 86.0408C65.5896 85.9257 65.6238 85.8064 65.6461 85.6843C65.6985 85.4318 65.6985 85.1717 65.6461 84.9199C65.6217 84.7901 65.5841 84.6632 65.5338 84.5411H65.5338Z" fill="white"/>
 <path opacity="0.5" d="M74.6156 85.6234C74.5088 85.5516 74.3951 85.4909 74.2766 85.4428C74.158 85.3932 74.0352 85.3556 73.9097 85.3312C73.6572 85.2802 73.397 85.2802 73.1452 85.3312C73.019 85.3556 72.8962 85.3932 72.7783 85.4428C72.6591 85.4909 72.5454 85.5516 72.4394 85.6234C72.3319 85.6939 72.2322 85.7755 72.1408 85.8662C71.7746 86.2351 71.5682 86.7332 71.5668 87.2528C71.5668 87.3811 71.58 87.5088 71.6058 87.635C71.6302 87.7606 71.6679 87.8833 71.7174 88.0012C71.7663 88.1205 71.8269 88.2342 71.8981 88.3409C72.0397 88.5557 72.2238 88.7399 72.4393 88.8822C72.5461 88.9533 72.6598 89.0133 72.7783 89.0621C72.8969 89.1116 73.0197 89.15 73.1452 89.1758C73.2743 89.2016 73.4054 89.2142 73.5372 89.2135C74.0569 89.2114 74.5549 89.0049 74.9232 88.6387C75.0145 88.548 75.0955 88.4483 75.1666 88.3409C75.2378 88.2342 75.2977 88.1205 75.3466 88.0012C75.3968 87.8833 75.4344 87.7605 75.4589 87.635C75.4812 87.5088 75.4909 87.3804 75.4882 87.2528C75.4861 86.7331 75.2796 86.2351 74.9134 85.8661C74.8227 85.7754 74.723 85.6938 74.6156 85.6234L74.6156 85.6234Z" fill="white"/>
 <path opacity="0.5" d="M84.4187 87.5839C84.312 87.5127 84.199 87.4527 84.0811 87.4032C83.9625 87.3537 83.8391 87.316 83.7128 87.2916C83.4603 87.2407 83.2002 87.2407 82.9484 87.2916C82.8221 87.316 82.6994 87.3537 82.5815 87.4032C82.4629 87.452 82.3492 87.5127 82.2425 87.5839C82.027 87.7255 81.8428 87.9096 81.7012 88.1251C81.6301 88.2311 81.5701 88.3441 81.5206 88.462C81.4711 88.5806 81.4334 88.7041 81.409 88.8303C81.3567 89.0828 81.3567 89.343 81.409 89.5955C81.4334 89.721 81.4711 89.8438 81.5206 89.9617C81.5694 90.0809 81.6301 90.1946 81.7012 90.3014C81.8428 90.5162 82.027 90.7003 82.2425 90.8426C82.3485 90.9145 82.4622 90.9744 82.5815 91.0226C82.6994 91.0721 82.8221 91.1105 82.9484 91.1363C83.2002 91.1858 83.4603 91.1858 83.7128 91.1363C83.8391 91.1105 83.9625 91.0721 84.0811 91.0226C84.4396 90.8754 84.7459 90.6243 84.96 90.3013C85.0311 90.1946 85.0911 90.0809 85.1399 89.9617C85.1902 89.8438 85.2271 89.721 85.2515 89.5955C85.2774 89.4692 85.2906 89.3416 85.2913 89.2132C85.2892 88.6936 85.0827 88.1956 84.7165 87.8266C84.6259 87.7359 84.5261 87.6543 84.4187 87.5838L84.4187 87.5839Z" fill="white"/>
 <path opacity="0.5" d="M65.5339 127.678C65.4857 127.56 65.4251 127.446 65.3539 127.339C65.2116 127.125 65.0275 126.94 64.8127 126.798C64.7059 126.726 64.5922 126.666 64.4737 126.618C64.3551 126.568 64.2323 126.53 64.1068 126.504C63.8543 126.454 63.5941 126.454 63.3423 126.504C63.2161 126.53 63.0926 126.569 62.9733 126.618C62.6148 126.765 62.3093 127.016 62.0952 127.339C62.024 127.446 61.9633 127.56 61.9145 127.678C61.865 127.797 61.8273 127.92 61.8029 128.045C61.7506 128.298 61.7506 128.558 61.8029 128.81C61.8273 128.936 61.865 129.059 61.9145 129.177C61.9633 129.295 62.024 129.409 62.0952 129.516C62.2368 129.731 62.4209 129.915 62.6364 130.057C62.7431 130.128 62.8568 130.189 62.9754 130.238C63.0933 130.287 63.216 130.325 63.3423 130.349C63.5941 130.401 63.8543 130.401 64.1068 130.349C64.2323 130.325 64.3551 130.287 64.4736 130.238C64.5922 130.189 64.7059 130.128 64.8126 130.057C65.0275 129.915 65.2116 129.731 65.3539 129.516C65.425 129.409 65.4857 129.295 65.5338 129.177C65.5827 129.062 65.6196 128.942 65.6461 128.82C65.6985 128.568 65.6985 128.308 65.6461 128.055C65.621 127.926 65.5841 127.8 65.5338 127.678L65.5339 127.678Z" fill="white"/>
 <path opacity="0.5" d="M75.337 129.639C75.2882 129.52 75.2282 129.407 75.157 129.3C74.9415 128.978 74.636 128.727 74.2782 128.579C74.1596 128.529 74.0361 128.491 73.9099 128.465C73.6574 128.415 73.3979 128.415 73.1454 128.465C73.0192 128.491 72.8957 128.529 72.7764 128.579C72.4179 128.725 72.1117 128.977 71.8983 129.3C71.8271 129.407 71.7664 129.52 71.7176 129.639C71.6681 129.757 71.6304 129.88 71.606 130.006C71.5537 130.258 71.5537 130.518 71.606 130.77C71.6304 130.896 71.6681 131.019 71.7176 131.137C71.7664 131.256 71.8271 131.369 71.8983 131.476C72.0399 131.692 72.224 131.876 72.4395 132.017C72.5455 132.088 72.6585 132.148 72.7764 132.198C72.895 132.247 73.0185 132.285 73.1454 132.31C73.3972 132.362 73.6574 132.362 73.9099 132.31C74.0361 132.285 74.1596 132.247 74.2781 132.198C74.396 132.148 74.509 132.088 74.6157 132.017C74.8306 131.876 75.0147 131.692 75.157 131.476C75.2281 131.369 75.2881 131.256 75.3369 131.137C75.3865 131.018 75.4234 130.896 75.4493 130.77C75.5009 130.518 75.5009 130.258 75.4493 130.006C75.4248 129.88 75.3872 129.757 75.3369 129.639H75.337Z" fill="white"/>
 <path opacity="0.5" d="M85.1401 131.598C85.0912 131.479 85.0306 131.367 84.9601 131.26C84.7446 130.938 84.4391 130.687 84.0812 130.539C83.9627 130.489 83.8392 130.451 83.713 130.425C83.4605 130.376 83.201 130.376 82.9485 130.425C82.8222 130.451 82.6988 130.489 82.5795 130.539C82.4616 130.588 82.3486 130.648 82.2426 130.719C82.0271 130.861 81.8429 131.045 81.7014 131.26C81.6302 131.367 81.5702 131.479 81.5207 131.598C81.4719 131.716 81.4349 131.84 81.4091 131.966C81.3568 132.218 81.3568 132.479 81.4091 132.73C81.4342 132.856 81.4719 132.979 81.5207 133.097C81.5695 133.216 81.6302 133.33 81.7014 133.436C81.843 133.652 82.0271 133.836 82.2426 133.978C82.3486 134.049 82.4616 134.109 82.5795 134.158C82.6981 134.208 82.8216 134.245 82.9485 134.27C83.2003 134.322 83.4605 134.322 83.713 134.27C83.8385 134.245 83.9613 134.208 84.0792 134.158C84.1984 134.109 84.3121 134.049 84.4188 133.978C84.6337 133.836 84.8178 133.652 84.9601 133.436C85.0312 133.33 85.0912 133.216 85.1401 133.097C85.1903 132.979 85.2272 132.857 85.2517 132.73C85.304 132.479 85.304 132.218 85.2517 131.966C85.2272 131.84 85.1896 131.716 85.1401 131.598L85.1401 131.598Z" fill="white"/>
 <defs>
  <linearGradient id="paint0_linear_254_7914" x1="64.5" y1="-1.71579e-06" x2="151" y2="200" gradientUnits="userSpaceOnUse">
   <stop stop-color="white"/>
   <stop offset="1" stop-color="white" stop-opacity="0"/>
  </linearGradient>
 </defs>
</svg>




