<?xml version="1.0" encoding="UTF-8"?>
<!DOCTYPE svg PUBLIC "-//W3C//DTD SVG 1.1//EN" "http://www.w3.org/Graphics/SVG/1.1/DTD/svg11.dtd">
<!-- Creator: CorelDRAW 2019 (64-Bit) -->
<svg width="200" height="200" viewBox="0 0 200 200" fill="none" xmlns="http://www.w3.org/2000/svg">
 <rect opacity="0.4" x="1" y="1" width="198" height="198" rx="99" stroke="url(#paint0_linear_523_6507)" stroke-width="2"/>
 <path d="M149.994 64.6366C149.994 60.1502 144.767 56.4981 134.463 53.7784C125.232 51.3414 112.991 50 99.997 50C87.003 50 74.7607 51.3413 65.5308 53.7784C55.2272 56.4979 50 60.1502 50 64.6366V134.31C50 138.996 55.3569 143.004 65.4896 145.9C74.7343 148.541 86.9885 149.996 99.9968 149.996C113.005 149.996 125.26 148.541 134.504 145.9C144.639 143.004 149.994 138.997 149.994 134.31L149.994 64.6366ZM146.073 106.86C146.073 111.173 132.503 117.004 109.799 118.341V106.577C119.081 106.036 127.624 104.728 134.504 102.764C139.586 101.311 143.468 99.5797 146.072 97.6232L146.073 106.86ZM53.92 97.623C56.5259 99.5836 60.4082 101.311 65.4882 102.764C72.3664 104.724 80.9087 106.036 90.1923 106.577V118.341C67.4899 117.004 53.9191 111.173 53.9191 106.859L53.92 97.623ZM94.1144 106.76C96.0515 106.827 98.0164 106.859 99.9965 106.859C101.977 106.859 103.942 106.826 105.879 106.76V118.524C103.973 118.59 102.012 118.622 99.9965 118.624C97.9807 118.625 96.0199 118.592 94.1144 118.524V106.76ZM146.073 91.1746C146.073 95.6178 131.734 101.646 107.873 102.758H107.839C107.765 102.759 107.69 102.763 107.615 102.772C105.173 102.883 102.633 102.938 99.9964 102.938C97.3597 102.938 94.8202 102.882 92.3775 102.769V102.77C92.3029 102.761 92.2282 102.757 92.1536 102.756H92.1201C68.2588 101.646 53.9202 95.6171 53.9202 91.1746V70.7453C56.5149 72.5532 60.3847 74.138 65.5296 75.5002C74.7604 77.9353 87.0018 79.2786 99.9958 79.2786C112.99 79.2786 125.232 77.9352 134.462 75.5002C139.602 74.1436 143.471 72.5588 146.071 70.7453L146.073 91.1746ZM66.5301 57.5691C75.4457 55.2164 87.3308 53.9203 99.9981 53.9203C112.665 53.9203 124.55 55.2163 133.466 57.5691C142.773 60.0258 146.075 62.912 146.075 64.6377C146.075 66.3633 142.773 69.251 133.466 71.7077C124.55 74.0604 112.667 75.3564 99.9981 75.3564C87.3291 75.3564 75.4457 74.0605 66.5301 71.7077C57.2232 69.251 53.9212 66.3647 53.9212 64.6377C53.9212 62.9099 57.2232 60.0258 66.5301 57.5691ZM99.9981 146.072C71.4495 146.072 53.9218 139.22 53.9218 134.308V113.307C56.5277 115.268 60.41 116.997 65.49 118.448C74.7347 121.089 86.9889 122.543 99.9972 122.543C113.005 122.543 125.26 121.088 134.504 118.448C139.587 116.997 143.469 115.263 146.073 113.307V134.308C146.073 139.22 128.544 146.072 99.9963 146.072H99.9981Z" fill="#3B00B9"/>
 <path opacity="0.5" d="M65.5338 84.5411C65.485 84.4232 65.4243 84.3102 65.3539 84.2042C65.2116 83.9887 65.0275 83.8045 64.8126 83.663C64.7059 83.5918 64.5936 83.5318 64.475 83.4823C64.36 83.4335 64.2393 83.3958 64.1165 83.3707C63.864 83.3198 63.6045 83.3198 63.3521 83.3707C63.2258 83.3951 63.1031 83.4328 62.9852 83.4823C62.8666 83.5311 62.7529 83.5918 62.6462 83.663C62.4307 83.8046 62.2465 83.9887 62.1049 84.2042C62.0338 84.3102 61.9738 84.4232 61.9243 84.5411C61.8748 84.6597 61.8378 84.7832 61.8127 84.9101C61.7604 85.1619 61.7604 85.4221 61.8127 85.6746C61.8371 85.8001 61.8748 85.9229 61.9243 86.0408C61.9731 86.16 62.0338 86.2737 62.1049 86.3804C62.2465 86.5953 62.4307 86.7794 62.6462 86.9217C62.7529 86.9928 62.8666 87.0528 62.9852 87.1016C63.1037 87.1512 63.2265 87.1895 63.3521 87.2153C63.6046 87.2649 63.864 87.2649 64.1165 87.2153C64.2428 87.1895 64.3662 87.1512 64.4855 87.1016C64.6034 87.0528 64.7164 86.9921 64.8224 86.9217C65.0372 86.7794 65.2214 86.5953 65.3637 86.3804C65.4348 86.2737 65.4955 86.16 65.5436 86.0408C65.5896 85.9257 65.6238 85.8064 65.6461 85.6843C65.6985 85.4318 65.6985 85.1717 65.6461 84.9199C65.6217 84.7901 65.5841 84.6632 65.5338 84.5411H65.5338Z" fill="#3B00B9"/>
 <path opacity="0.5" d="M74.6152 85.6234C74.5085 85.5516 74.3948 85.4909 74.2762 85.4428C74.1576 85.3932 74.0349 85.3556 73.9093 85.3312C73.6568 85.2802 73.3967 85.2802 73.1449 85.3312C73.0186 85.3556 72.8959 85.3932 72.778 85.4428C72.6587 85.4909 72.545 85.5516 72.439 85.6234C72.3316 85.6939 72.2318 85.7755 72.1404 85.8662C71.7743 86.2351 71.5678 86.7332 71.5664 87.2528C71.5664 87.3811 71.5797 87.5088 71.6055 87.635C71.6299 87.7606 71.6675 87.8833 71.7171 88.0012C71.7659 88.1205 71.8266 88.2342 71.8977 88.3409C72.0393 88.5557 72.2235 88.7399 72.439 88.8822C72.5457 88.9533 72.6594 89.0133 72.778 89.0621C72.8965 89.1116 73.0193 89.15 73.1449 89.1758C73.2739 89.2016 73.405 89.2142 73.5369 89.2135C74.0565 89.2114 74.5545 89.0049 74.9228 88.6387C75.0142 88.548 75.0951 88.4483 75.1662 88.3409C75.2374 88.2342 75.2974 88.1205 75.3462 88.0012C75.3964 87.8833 75.4341 87.7605 75.4585 87.635C75.4808 87.5088 75.4906 87.3804 75.4878 87.2528C75.4857 86.7331 75.2792 86.2351 74.913 85.8661C74.8224 85.7754 74.7226 85.6938 74.6152 85.6234L74.6152 85.6234Z" fill="#3B00B9"/>
 <path opacity="0.5" d="M84.4181 87.5839C84.3114 87.5127 84.1984 87.4527 84.0805 87.4032C83.9619 87.3537 83.8385 87.316 83.7122 87.2916C83.4597 87.2407 83.1996 87.2407 82.9478 87.2916C82.8215 87.316 82.6988 87.3537 82.5809 87.4032C82.4623 87.452 82.3486 87.5127 82.2419 87.5839C82.0264 87.7255 81.8422 87.9096 81.7006 88.1251C81.6295 88.2311 81.5695 88.3441 81.52 88.462C81.4705 88.5806 81.4328 88.7041 81.4084 88.8303C81.3561 89.0828 81.3561 89.343 81.4084 89.5955C81.4328 89.721 81.4705 89.8438 81.52 89.9617C81.5688 90.0809 81.6295 90.1946 81.7006 90.3014C81.8422 90.5162 82.0264 90.7003 82.2419 90.8426C82.3479 90.9145 82.4616 90.9744 82.5809 91.0226C82.6988 91.0721 82.8215 91.1105 82.9478 91.1363C83.1996 91.1858 83.4597 91.1858 83.7122 91.1363C83.8385 91.1105 83.9619 91.0721 84.0805 91.0226C84.439 90.8754 84.7452 90.6243 84.9594 90.3013C85.0305 90.1946 85.0905 90.0809 85.1393 89.9617C85.1896 89.8438 85.2265 89.721 85.2509 89.5955C85.2767 89.4692 85.29 89.3416 85.2907 89.2132C85.2886 88.6936 85.0821 88.1956 84.7159 87.8266C84.6253 87.7359 84.5255 87.6543 84.4181 87.5838L84.4181 87.5839Z" fill="#3B00B9"/>
 <path opacity="0.5" d="M65.5339 127.678C65.4857 127.56 65.4251 127.446 65.3539 127.339C65.2116 127.125 65.0275 126.94 64.8127 126.798C64.7059 126.726 64.5922 126.666 64.4737 126.618C64.3551 126.568 64.2323 126.53 64.1068 126.504C63.8543 126.454 63.5941 126.454 63.3423 126.504C63.2161 126.53 63.0926 126.569 62.9733 126.618C62.6148 126.765 62.3093 127.016 62.0952 127.339C62.024 127.446 61.9633 127.56 61.9145 127.678C61.865 127.797 61.8273 127.92 61.8029 128.045C61.7506 128.298 61.7506 128.558 61.8029 128.81C61.8273 128.936 61.865 129.059 61.9145 129.177C61.9633 129.295 62.024 129.409 62.0952 129.516C62.2368 129.731 62.4209 129.915 62.6364 130.057C62.7431 130.128 62.8568 130.189 62.9754 130.238C63.0933 130.287 63.216 130.325 63.3423 130.349C63.5941 130.401 63.8543 130.401 64.1068 130.349C64.2323 130.325 64.3551 130.287 64.4736 130.238C64.5922 130.189 64.7059 130.128 64.8126 130.057C65.0275 129.915 65.2116 129.731 65.3539 129.516C65.425 129.409 65.4857 129.295 65.5338 129.177C65.5827 129.062 65.6196 128.942 65.6461 128.82C65.6985 128.568 65.6985 128.308 65.6461 128.055C65.621 127.926 65.5841 127.8 65.5338 127.678L65.5339 127.678Z" fill="#3B00B9"/>
 <path opacity="0.5" d="M75.3366 129.639C75.2878 129.52 75.2278 129.407 75.1567 129.3C74.9411 128.978 74.6356 128.727 74.2778 128.579C74.1592 128.529 74.0358 128.491 73.9095 128.465C73.657 128.415 73.3975 128.415 73.145 128.465C73.0188 128.491 72.8953 128.529 72.7761 128.579C72.4175 128.725 72.1113 128.977 71.8979 129.3C71.8267 129.407 71.7661 129.52 71.7172 129.639C71.6677 129.757 71.6301 129.88 71.6056 130.006C71.5533 130.258 71.5533 130.518 71.6056 130.77C71.6301 130.896 71.6677 131.019 71.7172 131.137C71.7661 131.256 71.8268 131.369 71.8979 131.476C72.0395 131.692 72.2236 131.876 72.4392 132.017C72.5452 132.088 72.6582 132.148 72.7761 132.198C72.8946 132.247 73.0181 132.285 73.145 132.31C73.3968 132.362 73.657 132.362 73.9095 132.31C74.0357 132.285 74.1592 132.247 74.2778 132.198C74.3957 132.148 74.5087 132.088 74.6154 132.017C74.8302 131.876 75.0143 131.692 75.1566 131.476C75.2278 131.369 75.2878 131.256 75.3366 131.137C75.3861 131.018 75.4231 130.896 75.4489 130.77C75.5005 130.518 75.5005 130.258 75.4489 130.006C75.4245 129.88 75.3868 129.757 75.3366 129.639H75.3366Z" fill="#3B00B9"/>
 <path opacity="0.5" d="M85.1393 131.598C85.0905 131.479 85.0298 131.367 84.9594 131.26C84.7439 130.938 84.4383 130.687 84.0805 130.539C83.9619 130.489 83.8385 130.451 83.7122 130.425C83.4597 130.376 83.2003 130.376 82.9478 130.425C82.8215 130.451 82.6981 130.489 82.5788 130.539C82.4609 130.588 82.3479 130.648 82.2419 130.719C82.0264 130.861 81.8422 131.045 81.7006 131.26C81.6295 131.367 81.5695 131.479 81.52 131.598C81.4712 131.716 81.4342 131.84 81.4084 131.966C81.3561 132.218 81.3561 132.479 81.4084 132.73C81.4335 132.856 81.4712 132.979 81.52 133.097C81.5688 133.216 81.6295 133.33 81.7006 133.436C81.8422 133.652 82.0264 133.836 82.2419 133.978C82.3479 134.049 82.4609 134.109 82.5788 134.158C82.6974 134.208 82.8208 134.245 82.9478 134.27C83.1996 134.322 83.4597 134.322 83.7122 134.27C83.8378 134.245 83.9605 134.208 84.0784 134.158C84.1977 134.109 84.3114 134.049 84.4181 133.978C84.6329 133.836 84.8171 133.652 84.9594 133.436C85.0305 133.33 85.0905 133.216 85.1393 133.097C85.1895 132.979 85.2265 132.857 85.2509 132.73C85.3032 132.479 85.3032 132.218 85.2509 131.966C85.2265 131.84 85.1888 131.716 85.1393 131.598L85.1393 131.598Z" fill="#3B00B9"/>
 <defs>
  <linearGradient id="paint0_linear_523_6507" x1="64.4998" y1="-1.71579e-06" x2="151" y2="200" gradientUnits="userSpaceOnUse">
   <stop stop-color="#3B00B9"/>
   <stop offset="1" stop-color="#3B00B9" stop-opacity="0"/>
  </linearGradient>
 </defs>
</svg>





