<?xml version="1.0" encoding="UTF-8"?>
<!DOCTYPE svg PUBLIC "-//W3C//DTD SVG 1.1//EN" "http://www.w3.org/Graphics/SVG/1.1/DTD/svg11.dtd">
<!-- Creator: CorelDRAW 2019 (64-Bit) -->
<svg width="200" height="200" viewBox="0 0 200 200" fill="none" xmlns="http://www.w3.org/2000/svg">
 <rect opacity="0.4" x="1.00024" y="1" width="198" height="198" rx="99" stroke="url(#paint0_linear_254_8005)" stroke-width="2"/>
 <path opacity="0.7" d="M125.693 75.9258C120.109 75.9258 114.017 78.9007 107.587 84.7655C104.541 87.528 101.876 90.5029 99.9303 92.8829C99.9303 92.8829 103.061 96.4102 106.487 100.193C108.349 97.8977 111.014 94.7953 114.102 91.9904C119.813 86.763 123.535 85.7006 125.693 85.7006C133.73 85.7006 140.245 92.2878 140.245 100.448C140.245 108.523 133.73 115.11 125.693 115.195C125.312 115.195 124.847 115.152 124.297 115.025C126.623 116.087 129.162 116.852 131.531 116.852C146.252 116.852 149.128 106.908 149.297 106.185C149.72 104.358 149.975 102.445 149.975 100.49C149.932 86.933 139.061 75.9258 125.693 75.9258Z" fill="white" fill-opacity="0.8"/>
 <path opacity="0.7" d="M74.282 124.929C79.8661 124.929 85.9574 121.954 92.3876 116.089C95.4333 113.326 98.0984 110.352 100.044 107.972C100.044 107.972 96.9141 104.444 93.4875 100.662C91.6259 102.957 88.9608 106.059 85.873 108.864C80.162 114.049 76.3971 115.154 74.282 115.154C66.2445 115.154 59.7298 108.567 59.7298 100.407C59.7298 92.3322 66.2445 85.7449 74.282 85.6599C74.6626 85.6599 75.1279 85.7023 75.678 85.8298C73.3514 84.7674 70.8131 84.0024 68.4442 84.0024C53.7229 84.0024 50.8462 93.9472 50.6771 94.6697C50.2541 96.4971 50.0002 98.4096 50.0002 100.365C50.0002 113.922 60.8721 124.929 74.282 124.929Z" fill="white" fill-opacity="0.8"/>
 <path fill-rule="evenodd" clip-rule="evenodd" d="M85.475 92.2029C83.8679 90.6729 75.9995 84.4256 68.4695 84.213C55.0507 83.8833 51.1061 93.4315 50.766 94.663C53.3363 83.9559 62.9173 75.9682 74.3073 75.9258C83.5929 75.9258 92.976 84.8371 99.9089 92.8795C99.9206 92.866 99.9312 92.8528 99.9421 92.8401C99.9421 92.8401 103.072 96.3676 106.499 100.15C106.499 100.15 110.39 104.655 114.536 108.607C116.144 110.137 123.969 116.3 131.499 116.512C145.291 116.895 149.098 106.822 149.309 106.057C146.772 116.81 137.168 124.842 125.746 124.884C116.458 124.884 107.071 115.967 100.109 107.922C100.095 107.939 100.082 107.955 100.07 107.97C100.07 107.97 96.9394 104.443 93.5126 100.66C93.5126 100.66 89.6208 96.1552 85.475 92.2029Z" fill="white"/>
 <defs>
  <linearGradient id="paint0_linear_254_8005" x1="-7.5" y1="115.5" x2="200" y2="100" gradientUnits="userSpaceOnUse">
   <stop stop-color="white"/>
   <stop offset="1" stop-color="white" stop-opacity="0"/>
  </linearGradient>
 </defs>
</svg>



