<?xml version="1.0" encoding="UTF-8"?>
<!DOCTYPE svg PUBLIC "-//W3C//DTD SVG 1.1//EN" "http://www.w3.org/Graphics/SVG/1.1/DTD/svg11.dtd">
<!-- Creator: CorelDRAW 2019 (64-Bit) -->
<svg width="200" height="200" viewBox="0 0 200 200" fill="none" xmlns="http://www.w3.org/2000/svg">
 <rect opacity="0.4" x="1" y="1" width="198" height="198" rx="99" stroke="url(#paint0_linear_523_6587)" stroke-width="2"/>
 <path opacity="0.7" d="M125.693 75C120.108 75 114.017 77.9749 107.587 83.8398C104.541 86.6022 101.876 89.5772 99.9297 91.9571C99.9297 91.9571 103.06 95.4844 106.487 99.2669C108.348 96.9719 111.013 93.8695 114.101 91.0646C119.812 85.8372 123.535 84.7748 125.693 84.7748C133.73 84.7748 140.245 91.362 140.245 99.522C140.245 107.597 133.73 114.184 125.693 114.269C125.311 114.269 124.846 114.227 124.296 114.099C126.623 115.161 129.161 115.927 131.53 115.927C146.251 115.927 149.127 105.982 149.297 105.259C149.72 103.432 149.974 101.519 149.974 99.5644C149.932 86.0072 139.06 75 125.693 75Z" fill="#6E52AA"/>
 <path opacity="0.7" d="M74.2818 124.003C79.8658 124.003 85.9571 121.028 92.3874 115.163C95.4331 112.401 98.0981 109.426 100.044 107.046C100.044 107.046 96.9138 103.519 93.4873 99.7363C91.6256 102.031 88.9606 105.134 85.8727 107.939C80.1617 113.123 76.3969 114.228 74.2818 114.228C66.2442 114.228 59.7296 107.641 59.7296 99.4812C59.7296 91.4064 66.2442 84.8191 74.2818 84.7341C74.6624 84.7341 75.1277 84.7766 75.6777 84.9041C73.3511 83.8416 70.8129 83.0767 68.444 83.0767C53.7226 83.0767 50.846 93.0214 50.6768 93.7439C50.2538 95.5714 50 97.4838 50 99.4387C50 112.996 60.8718 124.003 74.2818 124.003Z" fill="#6E52AA"/>
 <path fill-rule="evenodd" clip-rule="evenodd" d="M85.4746 91.2771C83.8675 89.7471 75.9991 83.4998 68.4691 83.2873C55.0503 82.9575 51.1057 92.5057 50.7656 93.7372C53.3359 83.0301 62.9169 75.0424 74.3069 75C83.5926 75 92.9757 83.9113 99.9085 91.9537C99.9202 91.9402 99.9308 91.927 99.9417 91.9144C99.9417 91.9144 103.072 95.4418 106.498 99.2242C106.498 99.2242 110.39 103.729 114.536 107.681C116.144 109.211 123.969 115.374 131.499 115.586C145.29 115.969 149.098 105.897 149.309 105.132C146.771 115.884 137.168 123.916 125.746 123.958C116.458 123.958 107.071 115.041 100.109 106.997C100.095 107.013 100.082 107.029 100.069 107.044C100.069 107.044 96.9391 103.517 93.5123 99.7344C93.5123 99.7344 89.6204 95.2294 85.4746 91.2771Z" fill="#3B00B9"/>
 <defs>
  <linearGradient id="paint0_linear_523_6587" x1="29.4998" y1="24" x2="184" y2="176" gradientUnits="userSpaceOnUse">
   <stop stop-color="#3700B9"/>
   <stop offset="1" stop-color="#3B00B9" stop-opacity="0"/>
  </linearGradient>
 </defs>
</svg>



