<?xml version="1.0" encoding="UTF-8"?>
<!DOCTYPE svg PUBLIC "-//W3C//DTD SVG 1.1//EN" "http://www.w3.org/Graphics/SVG/1.1/DTD/svg11.dtd">
<!-- Creator: CorelDRAW 2019 (64-Bit) -->
<svg width="200" height="200" viewBox="0 0 200 200" fill="none" xmlns="http://www.w3.org/2000/svg">
 <rect opacity="0.4" x="1" y="1" width="198" height="198" rx="99" stroke="url(#paint0_linear_523_6534)" stroke-width="2"/>
 <path d="M124.014 77.9844C125.773 77.9844 127.207 79.4141 127.207 81.1836C127.207 82.9425 125.773 84.3769 124.014 84.3769C122.244 84.3769 120.82 82.9424 120.82 81.1836C120.82 79.4132 122.244 77.9844 124.014 77.9844Z" fill="#3B00B9"/>
 <path d="M124.014 99.6294C125.773 99.6294 127.207 101.059 127.207 102.823C127.207 104.592 125.773 106.016 124.014 106.016C122.244 106.016 120.82 104.592 120.82 102.823C120.82 101.059 122.244 99.6294 124.014 99.6294Z" fill="#3B00B9"/>
 <path d="M109.992 92.0005C109.992 90.2368 111.427 88.8013 113.186 88.8013C114.955 88.8013 116.379 90.2358 116.379 92.0005C116.379 93.7642 114.955 95.1996 113.186 95.1996C111.428 95.1978 109.992 93.7642 109.992 92.0005Z" fill="#3B00B9"/>
 <path d="M138.035 92.0005C138.035 93.7651 136.604 95.1968 134.839 95.1968C133.074 95.1968 131.643 93.7651 131.643 92.0005C131.643 90.2349 133.074 88.8042 134.839 88.8042C136.604 88.8042 138.035 90.2349 138.035 92.0005Z" fill="#3B00B9"/>
 <path d="M133.699 108.985C133.699 107.577 134.847 106.435 136.249 106.435C137.663 106.435 138.799 107.577 138.799 108.985V116.822C138.799 119.548 136.446 121.912 133.715 121.912H130.07C128.662 121.912 127.52 120.77 127.52 119.362C127.52 117.954 128.662 116.812 130.07 116.812H133.693C133.699 116.822 133.699 116.839 133.699 116.822V116.801H133.693L133.687 116.795V116.801C133.682 116.795 133.677 116.791 133.682 116.791L133.693 116.802H133.687L133.693 116.812H133.715C133.738 116.812 133.721 116.812 133.699 116.802L133.699 108.985Z" fill="#3B00B9"/>
 <path opacity="0.5" d="M133.716 65H65.3364C55.8955 65 48 72.8897 48 82.3306V116.824C48 126.26 55.8955 134.155 65.3364 134.155H72.6303C81.1414 134.155 88.5218 127.758 89.7702 119.374H109.28C110.534 127.734 117.903 134.155 126.414 134.155H133.714C143.187 134.155 151.039 126.297 151.039 116.824L151.04 82.3306C151.04 72.826 143.22 65 133.715 65H133.716ZM145.941 116.823C145.941 123.507 140.389 129.053 133.716 129.053H126.417C119.738 129.053 114.193 123.507 114.193 116.823C114.193 115.368 113.003 114.273 111.577 114.273H87.4079C86.0057 114.273 84.8577 115.415 84.8577 116.823C84.8577 123.495 79.3114 129.053 72.6332 129.053H65.3393C58.6925 129.053 53.1034 123.473 53.1034 116.823V82.3294C53.1034 75.6767 58.683 70.0992 65.3393 70.0992H133.714C140.43 70.0992 145.939 75.6143 145.939 82.3294V116.823H145.941Z" fill="#3B00B9"/>
 <path d="M85.8664 89.4504C87.2629 89.4504 88.4166 90.5926 88.4166 92.0006C88.4166 93.4085 87.2629 94.5508 85.8664 94.5508H77.583V102.823C77.583 104.231 76.4408 105.373 75.0328 105.373C73.6249 105.373 72.4826 104.231 72.4826 102.823V94.5508H64.2162C62.8083 94.5508 61.666 93.4085 61.666 92.0006C61.666 90.5926 62.8083 89.4504 64.2162 89.4504H72.4826V81.184C72.4826 79.7704 73.6249 78.6338 75.0328 78.6338C76.4408 78.6338 77.583 79.7704 77.583 81.184V89.4504H85.8664Z" fill="#3B00B9"/>
 <path d="M60.2531 108.985C60.2531 107.577 61.3897 106.435 62.8034 106.435C64.2056 106.435 65.3536 107.577 65.3536 108.985V116.8C65.3318 116.811 65.3118 116.811 65.3375 116.811H65.3536L65.364 116.8H65.3583L65.3697 116.789C65.3754 116.789 65.364 116.794 65.364 116.799V116.794L65.3583 116.8H65.3526V116.821V116.811H68.9815C70.3894 116.811 71.5317 117.953 71.5317 119.361C71.5317 120.769 70.3894 121.911 68.9815 121.911H65.3364C62.6105 121.911 60.252 119.547 60.252 116.821L60.2531 108.985Z" fill="#3B00B9"/>
 <defs>
  <linearGradient id="paint0_linear_523_6534" x1="29.4998" y1="24" x2="184" y2="176" gradientUnits="userSpaceOnUse">
   <stop stop-color="#3700B9"/>
   <stop offset="1" stop-color="#3B00B9" stop-opacity="0"/>
  </linearGradient>
 </defs>
</svg>





