<?xml version="1.0" encoding="UTF-8"?>
<!DOCTYPE svg PUBLIC "-//W3C//DTD SVG 1.1//EN" "http://www.w3.org/Graphics/SVG/1.1/DTD/svg11.dtd">
<!-- Creator: CorelDRAW 2019 (64-Bit) -->
<svg width="200" height="200" viewBox="0 0 200 200" fill="none" xmlns="http://www.w3.org/2000/svg">
 <rect opacity="0.4" x="1" y="1" width="198" height="198" rx="99" stroke="url(#paint0_linear_523_6560)" stroke-width="2"/>
 <path opacity="0.5" d="M118.144 135.955H82.359C80.7121 135.955 79.377 134.62 79.377 132.973C79.377 131.326 80.7121 129.991 82.359 129.991H118.144C119.791 129.991 121.126 131.326 121.126 132.973C121.126 134.62 119.791 135.955 118.144 135.955Z" fill="#3B00B9"/>
 <path d="M116.909 82.2781H112.18C110.533 82.2781 109.198 80.943 109.198 79.2961C109.198 77.6491 110.533 76.314 112.18 76.3141L127.091 76.3148V91.2251C127.091 92.8721 125.756 94.2072 124.109 94.2072C122.462 94.2072 121.127 92.8721 121.127 91.2251V86.4957L105.644 101.978C104.313 103.309 102.155 103.309 100.825 101.978L94.2882 95.4419L80.6124 109.118C79.4479 110.282 77.5599 110.282 76.3955 109.118C75.231 107.953 75.231 106.065 76.3954 104.901L91.8775 89.4175C93.2084 88.0865 95.3663 88.0865 96.6973 89.4174L103.234 95.9536L116.909 82.2781Z" fill="#3B00B9"/>
 <g opacity="0.5">
  <mask id="path-4-inside-1_523_6560" fill="white">
   <rect x="58.502" y="64.0449" width="83.4976" height="59.982" rx="3.40807"/>
  </mask>
  <rect x="58.502" y="64.0449" width="83.4976" height="59.982" rx="3.40807" stroke="#3B00B9" stroke-width="10.9058" mask="url(#path-4-inside-1_523_6560)"/>
 </g>
 <defs>
  <linearGradient id="paint0_linear_523_6560" x1="100" y1="0" x2="100" y2="200" gradientUnits="userSpaceOnUse">
   <stop stop-color="#3B00B9"/>
   <stop offset="1" stop-color="#3B00B9" stop-opacity="0"/>
  </linearGradient>
 </defs>
</svg>






