<?xml version="1.0" encoding="UTF-8"?>
<!DOCTYPE svg PUBLIC "-//W3C//DTD SVG 1.1//EN" "http://www.w3.org/Graphics/SVG/1.1/DTD/svg11.dtd">
<!-- Creator: CorelDRAW 2019 (64-Bit) -->
<svg width="165" height="200" viewBox="0 0 165 200" fill="none" xmlns="http://www.w3.org/2000/svg">
 <rect opacity="0.4" x="1.00024" y="1" width="198" height="198" rx="99" stroke="url(#paint0_linear_254_7967)" stroke-width="2"/>
 <path opacity="0.5" d="M118.144 135.955H82.3589C80.7119 135.955 79.3768 134.62 79.3768 132.973C79.3768 131.326 80.7119 129.991 82.3589 129.991H118.144C119.791 129.991 121.126 131.326 121.126 132.973C121.126 134.62 119.791 135.955 118.144 135.955Z" fill="white"/>
 <path d="M116.909 82.2781H112.179C110.532 82.2781 109.197 80.943 109.197 79.2961C109.197 77.6491 110.532 76.314 112.179 76.3141L127.09 76.3148V91.2251C127.09 92.8721 125.755 94.2072 124.108 94.2072C122.461 94.2072 121.126 92.8721 121.126 91.2251V86.4957L105.644 101.978C104.313 103.309 102.155 103.309 100.824 101.978L94.2878 95.4419L80.612 109.118C79.4475 110.282 77.5596 110.282 76.3951 109.118C75.2307 107.953 75.2306 106.065 76.395 104.901L91.8771 89.4175C93.208 88.0865 95.366 88.0865 96.697 89.4174L103.233 95.9536L116.909 82.2781Z" fill="white"/>
 <g opacity="0.5">
  <mask id="path-4-inside-1_254_7967" fill="white">
   <rect x="58.5023" y="64.0449" width="83.4976" height="59.982" rx="3.40807"/>
  </mask>
  <rect x="58.5023" y="64.0449" width="83.4976" height="59.982" rx="3.40807" stroke="white" stroke-width="10.9058" mask="url(#path-4-inside-1_254_7967)"/>
 </g>
 <defs>
  <linearGradient id="paint0_linear_254_7967" x1="100" y1="0" x2="100" y2="200" gradientUnits="userSpaceOnUse">
   <stop stop-color="white"/>
   <stop offset="1" stop-color="white" stop-opacity="0"/>
  </linearGradient>
 </defs>
</svg>





