<svg width="25" height="24" viewBox="0 0 25 24" fill="none" xmlns="http://www.w3.org/2000/svg">
<path fill-rule="evenodd" clip-rule="evenodd" d="M21.7258 6.51284C21.5299 6.49373 21.3338 6.49587 21.1401 6.51985C19.5324 6.71895 18.774 8.11271 19.0587 10.4024C19.3189 12.4931 20.3791 14.7095 22.441 14.4841C22.5721 14.4698 22.6981 14.4488 22.8188 14.4215C21.6883 19.4056 17.2622 23.1241 11.9744 23.1241C5.8307 23.1241 0.850281 18.1045 0.850281 11.9124C0.850281 5.72038 5.8307 0.700745 11.9744 0.700745C16.1758 0.700745 19.8332 3.04825 21.7258 6.51284ZM9.43427 19.6205C14.1751 19.6205 18.7189 15.2518 18.7189 10.511C18.7189 5.7702 16.1021 1.92703 11.3613 1.92703C6.28099 1.92703 1.55106 6.47093 1.55106 11.2117C1.55106 17.3431 5.40507 19.6205 9.43427 19.6205Z" fill="#3B00B9"/>
<path d="M24.2916 10.027C24.6654 11.8695 24.1711 13.4148 22.6372 13.6836C21.1034 13.9524 20.2094 12.1985 19.9202 10.5134C19.6035 8.6677 20.1085 7.5054 21.3034 7.27686C22.4983 7.04832 23.8872 8.0337 24.2916 10.027Z" fill="#3B00B9"/>
<path d="M12.3305 5.75637C11.5671 5.86347 10.7974 6.42593 10.041 7.42723C9.68204 7.90177 9.38417 8.39804 9.16396 8.79252C9.16396 8.79252 9.16396 8.79252 9.16671 8.79489L9.16633 8.79219C9.16633 8.79219 9.66733 9.26178 10.2187 9.76286C10.4243 9.38421 10.7239 8.86567 11.0844 8.3854C11.7573 7.49497 12.2439 7.25869 12.5355 7.21777C13.6333 7.06378 14.6638 7.93009 14.8347 9.14837C15.0045 10.3586 14.2498 11.4753 13.1555 11.6371C13.1057 11.6441 13.0405 11.6449 12.9573 11.6373C13.2993 11.7491 13.6591 11.8143 13.9863 11.7684C15.9968 11.4864 16.1808 9.93737 16.1917 9.82566C16.2127 9.54452 16.2034 9.25386 16.1621 8.95942C15.8786 6.93885 14.1585 5.49994 12.3305 5.75637Z" fill="#3B00B9"/>
<path d="M6.33873 14.0891C7.10216 13.982 7.87183 13.4195 8.62829 12.4182C8.98722 11.9437 9.28509 11.4474 9.50531 11.0529C9.50531 11.0529 9.50531 11.0529 9.50256 11.0506L9.50294 11.0533C9.50294 11.0533 9.00194 10.5837 8.45053 10.0826C8.24497 10.4612 7.9454 10.9798 7.58487 11.4601C6.91197 12.3505 6.42534 12.5868 6.13371 12.6277C5.0356 12.779 4.00506 11.9127 3.83415 10.6944C3.66439 9.4842 4.41915 8.36743 5.51339 8.20567C5.56318 8.19868 5.62833 8.19781 5.71159 8.20541C5.36954 8.09364 5.00984 8.02841 4.68265 8.0743C2.6721 8.35635 2.49046 9.90504 2.47678 10.0144C2.45616 10.2982 2.46513 10.5862 2.50643 10.8806C2.79064 12.9066 4.51074 14.3455 6.33873 14.0891Z" fill="#3B00B9"/>
<path d="M13.9768 11.7368C12.9436 11.8514 11.7447 11.0776 11.4943 10.8786C10.8467 10.3634 9.31958 8.93876 9.19987 8.82609C8.07583 7.74152 6.59268 6.56134 5.30764 6.74161L5.30527 6.74194L5.3029 6.74227C3.74397 6.96923 2.60185 8.35793 2.47643 10.0144C2.48773 9.90541 2.7885 8.30971 4.68333 8.09899C5.71648 7.98436 6.92201 8.77103 7.17471 8.96971C7.82236 9.48483 9.34949 10.9095 9.46926 11.0222C10.5929 12.104 12.076 13.2842 13.361 13.104L13.3634 13.1036L13.3658 13.1033C14.9247 12.8764 16.0692 11.4873 16.1923 9.83115C16.1786 9.94048 15.8735 11.523 13.9768 11.7368Z" fill="#3B00B9"/>
</svg>
