<svg width="474" height="109" viewBox="0 0 474 109" fill="none" xmlns="http://www.w3.org/2000/svg">
<g clip-path="url(#clip0_221_66)">
<path d="M174.433 0C161.554 0 147.514 6.59974 132.675 19.5992C125.635 25.759 119.555 32.3587 114.996 37.6385C114.996 37.6385 114.996 37.6385 115.036 37.6785V37.6385C115.036 37.6385 122.235 45.4782 130.195 53.8779C134.475 48.7981 140.635 41.8784 147.714 35.6386C160.914 24.0791 169.513 21.6392 174.433 21.6392C192.953 21.6392 207.992 36.3186 207.992 54.3579C207.992 72.2772 192.913 86.9566 174.433 87.0766C173.593 87.0766 172.513 86.9566 171.153 86.6766C176.553 88.9965 182.353 90.6765 187.873 90.6765C221.791 90.6765 228.431 68.5573 228.871 66.9574C229.871 62.9175 230.391 58.6777 230.391 54.3179C230.391 24.399 205.272 0 174.433 0Z" fill="url(#paint0_linear_221_66)"/>
<path d="M55.9578 108.796C68.8373 108.796 82.8768 102.196 97.7162 89.1966C104.756 83.0368 110.836 76.4371 115.395 71.1573C115.395 71.1573 115.395 71.1573 115.355 71.1173V71.1573C115.355 71.1573 108.156 63.3176 100.196 54.9179C95.9162 59.9977 89.7565 66.9174 82.6768 73.1572C69.4773 84.7167 60.8776 87.1566 55.9578 87.1566C37.4385 87.1167 22.3991 72.4372 22.3991 54.3979C22.3991 36.4786 37.4785 21.7992 55.9578 21.6792C56.7978 21.6792 57.8777 21.7992 59.2377 22.0792C53.8379 19.7593 48.0381 18.0793 42.5183 18.0793C8.59966 18.0793 1.99992 40.1985 1.51994 41.7584C0.51998 45.8383 0 50.0381 0 54.3979C0 84.3968 25.119 108.796 55.9578 108.796Z" fill="url(#paint1_linear_221_66)"/>
<path d="M187.793 90.1965C170.433 89.7565 152.394 76.077 148.714 72.6772C139.195 63.8775 117.235 40.0784 115.516 38.1985C99.4362 20.1592 77.637 0 55.9579 0H55.9179H55.8779C29.5589 0.119995 7.43979 17.9593 1.52002 41.7584C1.96 40.1984 10.6397 17.6393 42.4784 18.4393C59.8377 18.8793 77.957 32.7587 81.6769 36.1586C91.1965 44.9582 113.156 68.7573 114.876 70.6372C130.955 88.6365 152.754 108.796 174.433 108.796H174.473H174.513C200.832 108.676 222.991 90.8365 228.871 67.0374C228.391 68.5973 219.671 90.9565 187.793 90.1965Z" fill="#29ABE2"/>
<path d="M276.376 63.832V38.464H282.592C289.088 38.464 294.464 42.552 294.464 51.176C294.464 59.8 289.032 63.832 282.536 63.832H276.376ZM282.816 71C294.128 71 302.472 63.72 302.472 51.176C302.472 38.632 294.184 31.296 282.872 31.296H268.648V71H282.816ZM326.41 51.12C326.41 42.16 332.682 37.904 338.786 37.904C344.946 37.904 351.218 42.16 351.218 51.12C351.218 60.08 344.946 64.336 338.786 64.336C332.682 64.336 326.41 60.08 326.41 51.12ZM318.402 51.176C318.402 63.944 328.034 71.84 338.786 71.84C349.594 71.84 359.226 63.944 359.226 51.176C359.226 38.352 349.594 30.456 338.786 30.456C328.034 30.456 318.402 38.352 318.402 51.176ZM395.321 71.84C406.465 71.84 412.177 64.448 413.689 58.344L406.465 56.16C405.401 59.856 402.097 64.28 395.321 64.28C388.937 64.28 383.001 59.632 383.001 51.176C383.001 42.16 389.273 37.904 395.209 37.904C402.097 37.904 405.177 42.104 406.129 45.912L413.409 43.616C411.841 37.176 406.185 30.456 395.209 30.456C384.569 30.456 374.993 38.52 374.993 51.176C374.993 63.832 384.233 71.84 395.321 71.84ZM457.641 40.76C456.745 36.28 453.049 30.456 443.417 30.456C435.913 30.456 429.585 35.832 429.585 42.888C429.585 48.88 433.673 52.968 440.001 54.256L445.545 55.376C448.625 55.992 450.361 57.784 450.361 60.08C450.361 62.88 448.065 64.952 443.921 64.952C438.321 64.952 435.577 61.424 435.241 57.504L428.073 59.408C428.689 65.064 433.337 71.84 443.865 71.84C453.105 71.84 458.201 65.68 458.201 59.576C458.201 53.976 454.337 49.272 447.113 47.872L441.569 46.808C438.657 46.248 437.257 44.512 437.257 42.328C437.257 39.696 439.721 37.288 443.473 37.288C448.513 37.288 450.305 40.704 450.697 42.888L457.641 40.76Z" fill="#181818"/>
</g>
<defs>
<linearGradient id="paint0_linear_221_66" x1="145.304" y1="7.17356" x2="221.385" y2="85.958" gradientUnits="userSpaceOnUse">
<stop offset="0.21" stop-color="#F15A24"/>
<stop offset="0.6841" stop-color="#FBB03B"/>
</linearGradient>
<linearGradient id="paint1_linear_221_66" x1="85.0869" y1="101.622" x2="9.00563" y2="22.838" gradientUnits="userSpaceOnUse">
<stop offset="0.21" stop-color="#ED1E79"/>
<stop offset="0.8929" stop-color="#522785"/>
</linearGradient>
<clipPath id="clip0_221_66">
<rect width="474" height="109" fill="white"/>
</clipPath>
</defs>
</svg>
