<svg width="216" height="28" viewBox="0 0 216 28" fill="none" xmlns="http://www.w3.org/2000/svg">
<path d="M44.8913 0C41.5768 0 37.9634 1.69851 34.1445 5.04406C32.3327 6.62934 30.7679 8.32785 29.5946 9.68666C29.5946 9.68666 29.5946 9.68666 29.6049 9.69695V9.68666C29.6049 9.68666 31.4576 11.7043 33.5062 13.866C34.6077 12.5587 36.1931 10.7778 38.0149 9.17196C41.4121 6.197 43.6251 5.56907 44.8913 5.56907C49.6576 5.56907 53.5281 9.34697 53.5281 13.9896C53.5281 18.6013 49.6473 22.3792 44.8913 22.4101C44.6751 22.4101 44.3972 22.3792 44.0472 22.3071C45.4369 22.9042 46.9296 23.3365 48.3503 23.3365C57.0794 23.3365 58.7883 17.6439 58.9015 17.2322C59.1589 16.1925 59.2927 15.1013 59.2927 13.9793C59.2927 6.27933 52.8281 0 44.8913 0Z" fill="url(#paint0_linear_8_78)"/>
<path d="M14.4013 28C17.716 28 21.3292 26.3014 25.1483 22.9558C26.96 21.3706 28.5248 19.6721 29.6981 18.3132C29.6981 18.3132 29.6981 18.3132 29.6878 18.303V18.3132C29.6878 18.3132 27.8351 16.2956 25.7865 14.1339C24.685 15.4412 23.0998 17.2221 21.2777 18.8279C17.8807 21.8029 15.6675 22.4308 14.4013 22.4308C9.63518 22.4206 5.76464 18.6426 5.76464 14C5.76464 9.38833 9.64548 5.61043 14.4013 5.57955C14.6175 5.57955 14.8954 5.61043 15.2454 5.68249C13.8557 5.08544 12.3631 4.65308 10.9425 4.65308C2.21321 4.65308 0.5147 10.3457 0.391172 10.7471C0.133822 11.7971 0 12.878 0 14C0 21.7206 6.46463 28 14.4013 28Z" fill="url(#paint1_linear_8_78)"/>
<path d="M48.3312 23.213C43.8635 23.0998 39.2209 19.5792 38.2739 18.7042C35.824 16.4395 30.1724 10.3146 29.73 9.83078C25.5917 5.18818 19.9815 0 14.4021 0H14.3918H14.3815C7.60806 0.0308819 1.91548 4.62201 0.391968 10.747C0.505201 10.3455 2.73901 4.53966 10.933 4.74554C15.4006 4.85878 20.0638 8.43079 21.0212 9.30579C23.4711 11.5705 29.1226 17.6954 29.5653 18.1792C33.7034 22.8115 39.3136 27.9998 44.8929 27.9998H44.9032H44.9135C51.687 27.9689 57.3898 23.3777 58.9031 17.2528C58.7796 17.6542 56.5354 23.4086 48.3312 23.213Z" fill="#29ABE2"/>
<path d="M71.23 11V3.91H69.83V11H71.23ZM80.9366 11V3.91H79.5566V8.6L76.6066 3.91H74.8866V11H76.2666V5.97L79.4866 11H80.9366ZM89.8015 5.22V3.91H83.9315V5.22H86.1715V11H87.5615V5.22H89.8015ZM97.2329 11V9.7H94.1729V8.06H96.9429V6.83H94.1729V5.21H97.2329V3.91H92.7929V11H97.2329ZM104.084 11H105.624L104.104 8.1C105.034 7.83 105.614 7.08 105.614 6.09C105.614 4.86 104.734 3.91 103.354 3.91H100.584V11H101.974V8.27H102.694L104.084 11ZM101.974 7.08V5.11H103.094C103.794 5.11 104.204 5.5 104.204 6.1C104.204 6.68 103.794 7.08 103.094 7.08H101.974ZM114.933 11V3.91H113.553V8.6L110.603 3.91H108.883V11H110.263V5.97L113.483 11H114.933ZM123.038 11V9.7H119.978V8.06H122.748V6.83H119.978V5.21H123.038V3.91H118.598V11H123.038ZM131.589 5.22V3.91H125.719V5.22H127.959V11H129.349V5.22H131.589ZM141.89 11.15C143.88 11.15 144.9 9.83 145.17 8.74L143.88 8.35C143.69 9.01 143.1 9.8 141.89 9.8C140.75 9.8 139.69 8.97 139.69 7.46C139.69 5.85 140.81 5.09 141.87 5.09C143.1 5.09 143.65 5.84 143.82 6.52L145.12 6.11C144.84 4.96 143.83 3.76 141.87 3.76C139.97 3.76 138.26 5.2 138.26 7.46C138.26 9.72 139.91 11.15 141.89 11.15ZM149.248 7.45C149.248 5.85 150.368 5.09 151.458 5.09C152.558 5.09 153.678 5.85 153.678 7.45C153.678 9.05 152.558 9.81 151.458 9.81C150.368 9.81 149.248 9.05 149.248 7.45ZM147.818 7.46C147.818 9.74 149.538 11.15 151.458 11.15C153.388 11.15 155.108 9.74 155.108 7.46C155.108 5.17 153.388 3.76 151.458 3.76C149.538 3.76 147.818 5.17 147.818 7.46ZM166.254 11V3.91H164.374L162.294 9.03L160.164 3.91H158.344V11H159.664V6.07L161.704 11H162.854L164.894 6.03V11H166.254ZM171.304 7.14V5.11H172.394C173.084 5.11 173.504 5.5 173.504 6.13C173.504 6.74 173.084 7.14 172.394 7.14H171.304ZM172.564 8.33C173.964 8.33 174.894 7.41 174.894 6.12C174.894 4.84 173.964 3.91 172.564 3.91H169.914V11H171.294V8.33H172.564ZM180.629 11.16C182.149 11.16 183.359 10.23 183.359 8.49V3.91H181.979V8.39C181.979 9.32 181.469 9.81 180.629 9.81C179.809 9.81 179.289 9.32 179.289 8.39V3.91H177.909V8.49C177.909 10.23 179.119 11.16 180.629 11.16ZM192.161 5.22V3.91H186.291V5.22H188.531V11H189.921V5.22H192.161ZM199.592 11V9.7H196.532V8.06H199.302V6.83H196.532V5.21H199.592V3.91H195.152V11H199.592ZM206.443 11H207.983L206.463 8.1C207.393 7.83 207.973 7.08 207.973 6.09C207.973 4.86 207.093 3.91 205.713 3.91H202.943V11H204.333V8.27H205.053L206.443 11ZM204.333 7.08V5.11H205.453C206.153 5.11 206.563 5.5 206.563 6.1C206.563 6.68 206.153 7.08 205.453 7.08H204.333Z" fill="black"/>
<path d="M71.21 21.72V17.19H72.32C73.48 17.19 74.44 17.92 74.44 19.46C74.44 21 73.47 21.72 72.31 21.72H71.21ZM72.36 23C74.38 23 75.87 21.7 75.87 19.46C75.87 17.22 74.39 15.91 72.37 15.91H69.83V23H72.36ZM80.1447 19.45C80.1447 17.85 81.2647 17.09 82.3547 17.09C83.4547 17.09 84.5747 17.85 84.5747 19.45C84.5747 21.05 83.4547 21.81 82.3547 21.81C81.2647 21.81 80.1447 21.05 80.1447 19.45ZM78.7147 19.46C78.7147 21.74 80.4347 23.15 82.3547 23.15C84.2847 23.15 86.0047 21.74 86.0047 19.46C86.0047 17.17 84.2847 15.76 82.3547 15.76C80.4347 15.76 78.7147 17.17 78.7147 19.46ZM92.4502 23.15C94.4402 23.15 95.4602 21.83 95.7302 20.74L94.4402 20.35C94.2502 21.01 93.6602 21.8 92.4502 21.8C91.3102 21.8 90.2502 20.97 90.2502 19.46C90.2502 17.85 91.3702 17.09 92.4302 17.09C93.6602 17.09 94.2102 17.84 94.3802 18.52L95.6802 18.11C95.4002 16.96 94.3902 15.76 92.4302 15.76C90.5302 15.76 88.8202 17.2 88.8202 19.46C88.8202 21.72 90.4702 23.15 92.4502 23.15ZM101.459 23.16C102.979 23.16 104.189 22.23 104.189 20.49V15.91H102.809V20.39C102.809 21.32 102.299 21.81 101.459 21.81C100.639 21.81 100.119 21.32 100.119 20.39V15.91H98.7388V20.49C98.7388 22.23 99.9488 23.16 101.459 23.16ZM115.701 23V15.91H113.821L111.741 21.03L109.611 15.91H107.791V23H109.111V18.07L111.151 23H112.301L114.341 18.03V23H115.701ZM123.801 23V21.7H120.741V20.06H123.511V18.83H120.741V17.21H123.801V15.91H119.361V23H123.801ZM133.202 23V15.91H131.822V20.6L128.872 15.91H127.152V23H128.532V17.97L131.752 23H133.202ZM142.067 17.22V15.91H136.197V17.22H138.437V23H139.827V17.22H142.067ZM149.145 23H150.645L147.945 15.91H146.345L143.625 23H145.085L145.675 21.38H148.555L149.145 23ZM147.115 17.44L148.095 20.12H146.135L147.115 17.44ZM158.079 17.22V15.91H152.209V17.22H154.449V23H155.839V17.22H158.079ZM162.47 23V15.91H161.07V23H162.47ZM167.137 19.45C167.137 17.85 168.257 17.09 169.347 17.09C170.447 17.09 171.567 17.85 171.567 19.45C171.567 21.05 170.447 21.81 169.347 21.81C168.257 21.81 167.137 21.05 167.137 19.45ZM165.707 19.46C165.707 21.74 167.427 23.15 169.347 23.15C171.277 23.15 172.997 21.74 172.997 19.46C172.997 17.17 171.277 15.76 169.347 15.76C167.427 15.76 165.707 17.17 165.707 19.46ZM182.282 23V15.91H180.902V20.6L177.952 15.91H176.232V23H177.612V17.97L180.832 23H182.282Z" fill="url(#paint2_linear_8_78)"/>
<defs>
<linearGradient id="paint0_linear_8_78" x1="37.3947" y1="1.84619" x2="56.9749" y2="22.1222" gradientUnits="userSpaceOnUse">
<stop offset="0.21" stop-color="#F15A24"/>
<stop offset="0.6841" stop-color="#FBB03B"/>
</linearGradient>
<linearGradient id="paint1_linear_8_78" x1="21.898" y1="26.1537" x2="2.31769" y2="5.87775" gradientUnits="userSpaceOnUse">
<stop offset="0.21" stop-color="#ED1E79"/>
<stop offset="0.8929" stop-color="#522785"/>
</linearGradient>
<linearGradient id="paint2_linear_8_78" x1="69" y1="2" x2="124.066" y2="76.0536" gradientUnits="userSpaceOnUse">
<stop stop-color="#3B00B9"/>
<stop offset="1" stop-color="#2586B6"/>
</linearGradient>
</defs>
</svg>
