<svg width="213" height="28" viewBox="0 0 213 28" fill="none"
  xmlns="http://www.w3.org/2000/svg">
  <path d="M44.8926 0C41.5779 0 37.9647 1.69853 34.1456 5.04412C32.3338 6.62941 30.7691 8.32794 29.5956 9.68676C29.5956 9.68676 29.5956 9.68676 29.6059 9.69705V9.68676C29.6059 9.68676 31.4588 11.7044 33.5073 13.8662C34.6088 12.5588 36.1941 10.7779 38.0162 9.17206C41.4132 6.19706 43.6265 5.56912 44.8926 5.56912C49.6588 5.56912 53.5294 9.34705 53.5294 13.9897C53.5294 18.6015 49.6485 22.3794 44.8926 22.4103C44.6765 22.4103 44.3985 22.3794 44.0485 22.3073C45.4382 22.9044 46.9309 23.3368 48.3515 23.3368C57.0809 23.3368 58.7897 17.6441 58.9029 17.2323C59.1603 16.1926 59.2941 15.1015 59.2941 13.9794C59.2941 6.27941 52.8294 0 44.8926 0Z" fill="url(#paint0_linear_20_6648)"/>
  <path d="M14.4015 28.0001C17.7162 28.0001 21.3294 26.3016 25.1485 22.956C26.9603 21.3707 28.525 19.6722 29.6985 18.3134C29.6985 18.3134 29.6985 18.3134 29.6882 18.3031V18.3134C29.6882 18.3134 27.8353 16.2957 25.7868 14.134C24.6853 15.4413 23.1 17.2222 21.2779 18.8281C17.8809 21.8031 15.6676 22.431 14.4015 22.431C9.63529 22.4207 5.76471 18.6428 5.76471 14.0001C5.76471 9.38837 9.64559 5.61043 14.4015 5.57955C14.6176 5.57955 14.8956 5.61043 15.2456 5.68249C13.8559 5.08543 12.3632 4.65308 10.9426 4.65308C2.21323 4.65308 0.514706 10.3457 0.391176 10.7472C0.133824 11.7972 0 12.8781 0 14.0001C0 21.7207 6.4647 28.0001 14.4015 28.0001Z" fill="url(#paint1_linear_20_6648)"/>
  <path d="M48.3309 23.2132C43.8633 23.1 39.2206 19.5794 38.2736 18.7044C35.8236 16.4397 30.1824 10.3147 29.7295 9.83088C25.5912 5.18823 19.9809 0 14.4015 0H14.3912H14.3809C7.60741 0.0308823 1.91476 4.62206 0.391235 10.7471C0.504471 10.3456 2.73829 4.5397 10.9324 4.74559C15.4001 4.85882 20.0633 8.43088 21.0206 9.30588C23.4706 11.5706 29.1118 17.6956 29.5648 18.1794C33.703 22.8118 39.3133 28 44.8927 28H44.903H44.9133C51.6868 27.9691 57.3898 23.3779 58.903 17.2529C58.7795 17.6544 56.5353 23.4088 48.3309 23.2132Z" fill="black"/>
  <path d="M71.23 11V3.91H69.83V11H71.23ZM80.9366 11V3.91H79.5566V8.6L76.6066 3.91H74.8866V11H76.2666V5.97L79.4866 11H80.9366ZM89.8015 5.22V3.91H83.9315V5.22H86.1715V11H87.5615V5.22H89.8015ZM97.2329 11V9.7H94.1729V8.06H96.9429V6.83H94.1729V5.21H97.2329V3.91H92.7929V11H97.2329ZM104.084 11H105.624L104.104 8.1C105.034 7.83 105.614 7.08 105.614 6.09C105.614 4.86 104.734 3.91 103.354 3.91H100.584V11H101.974V8.27H102.694L104.084 11ZM101.974 7.08V5.11H103.094C103.794 5.11 104.204 5.5 104.204 6.1C104.204 6.68 103.794 7.08 103.094 7.08H101.974ZM114.933 11V3.91H113.553V8.6L110.603 3.91H108.883V11H110.263V5.97L113.483 11H114.933ZM123.038 11V9.7H119.978V8.06H122.748V6.83H119.978V5.21H123.038V3.91H118.598V11H123.038ZM131.589 5.22V3.91H125.719V5.22H127.959V11H129.349V5.22H131.589ZM141.89 11.15C143.88 11.15 144.9 9.83 145.17 8.74L143.88 8.35C143.69 9.01 143.1 9.8 141.89 9.8C140.75 9.8 139.69 8.97 139.69 7.46C139.69 5.85 140.81 5.09 141.87 5.09C143.1 5.09 143.65 5.84 143.82 6.52L145.12 6.11C144.84 4.96 143.83 3.76 141.87 3.76C139.97 3.76 138.26 5.2 138.26 7.46C138.26 9.72 139.91 11.15 141.89 11.15ZM149.248 7.45C149.248 5.85 150.368 5.09 151.458 5.09C152.558 5.09 153.678 5.85 153.678 7.45C153.678 9.05 152.558 9.81 151.458 9.81C150.368 9.81 149.248 9.05 149.248 7.45ZM147.818 7.46C147.818 9.74 149.538 11.15 151.458 11.15C153.388 11.15 155.108 9.74 155.108 7.46C155.108 5.17 153.388 3.76 151.458 3.76C149.538 3.76 147.818 5.17 147.818 7.46ZM166.254 11V3.91H164.374L162.294 9.03L160.164 3.91H158.344V11H159.664V6.07L161.704 11H162.854L164.894 6.03V11H166.254ZM171.304 7.14V5.11H172.394C173.084 5.11 173.504 5.5 173.504 6.13C173.504 6.74 173.084 7.14 172.394 7.14H171.304ZM172.564 8.33C173.964 8.33 174.894 7.41 174.894 6.12C174.894 4.84 173.964 3.91 172.564 3.91H169.914V11H171.294V8.33H172.564ZM180.629 11.16C182.149 11.16 183.359 10.23 183.359 8.49V3.91H181.979V8.39C181.979 9.32 181.469 9.81 180.629 9.81C179.809 9.81 179.289 9.32 179.289 8.39V3.91H177.909V8.49C177.909 10.23 179.119 11.16 180.629 11.16ZM192.161 5.22V3.91H186.291V5.22H188.531V11H189.921V5.22H192.161ZM199.592 11V9.7H196.532V8.06H199.302V6.83H196.532V5.21H199.592V3.91H195.152V11H199.592ZM206.443 11H207.983L206.463 8.1C207.393 7.83 207.973 7.08 207.973 6.09C207.973 4.86 207.093 3.91 205.713 3.91H202.943V11H204.333V8.27H205.053L206.443 11ZM204.333 7.08V5.11H205.453C206.153 5.11 206.563 5.5 206.563 6.1C206.563 6.68 206.153 7.08 205.453 7.08H204.333Z" fill="#3B00B9"/>
  <path d="M71.21 21.72V17.19H72.32C73.48 17.19 74.44 17.92 74.44 19.46C74.44 21 73.47 21.72 72.31 21.72H71.21ZM72.36 23C74.38 23 75.87 21.7 75.87 19.46C75.87 17.22 74.39 15.91 72.37 15.91H69.83V23H72.36ZM83.5747 23V21.7H80.5147V20.06H83.2847V18.83H80.5147V17.21H83.5747V15.91H79.1347V23H83.5747ZM89.5657 21.18L87.7157 15.91H86.2057L88.8257 23H90.2457L92.8757 15.91H91.4157L89.5657 21.18ZM100.26 23V21.7H97.2002V20.06H99.9702V18.83H97.2002V17.21H100.26V15.91H95.8202V23H100.26ZM108.151 23V21.68H104.991V15.91H103.611V23H108.151ZM111.924 19.45C111.924 17.85 113.044 17.09 114.134 17.09C115.234 17.09 116.354 17.85 116.354 19.45C116.354 21.05 115.234 21.81 114.134 21.81C113.044 21.81 111.924 21.05 111.924 19.45ZM110.494 19.46C110.494 21.74 112.214 23.15 114.134 23.15C116.064 23.15 117.784 21.74 117.784 19.46C117.784 17.17 116.064 15.76 114.134 15.76C112.214 15.76 110.494 17.17 110.494 19.46ZM122.409 19.14V17.11H123.499C124.189 17.11 124.609 17.5 124.609 18.13C124.609 18.74 124.189 19.14 123.499 19.14H122.409ZM123.669 20.33C125.069 20.33 125.999 19.41 125.999 18.12C125.999 16.84 125.069 15.91 123.669 15.91H121.019V23H122.399V20.33H123.669ZM133.514 23V21.7H130.454V20.06H133.224V18.83H130.454V17.21H133.514V15.91H129.074V23H133.514ZM140.365 23H141.905L140.385 20.1C141.315 19.83 141.895 19.08 141.895 18.09C141.895 16.86 141.015 15.91 139.635 15.91H136.865V23H138.255V20.27H138.975L140.365 23ZM138.255 19.08V17.11H139.375C140.075 17.11 140.485 17.5 140.485 18.1C140.485 18.68 140.075 19.08 139.375 19.08H138.255ZM150.917 21.72V17.19H152.027C153.187 17.19 154.147 17.92 154.147 19.46C154.147 21 153.177 21.72 152.017 21.72H150.917ZM152.067 23C154.087 23 155.577 21.7 155.577 19.46C155.577 17.22 154.097 15.91 152.077 15.91H149.537V23H152.067ZM159.852 19.45C159.852 17.85 160.972 17.09 162.062 17.09C163.162 17.09 164.282 17.85 164.282 19.45C164.282 21.05 163.162 21.81 162.062 21.81C160.972 21.81 159.852 21.05 159.852 19.45ZM158.422 19.46C158.422 21.74 160.142 23.15 162.062 23.15C163.992 23.15 165.712 21.74 165.712 19.46C165.712 17.17 163.992 15.76 162.062 15.76C160.142 15.76 158.422 17.17 158.422 19.46ZM172.157 23.15C174.147 23.15 175.167 21.83 175.437 20.74L174.147 20.35C173.957 21.01 173.367 21.8 172.157 21.8C171.017 21.8 169.957 20.97 169.957 19.46C169.957 17.85 171.077 17.09 172.137 17.09C173.367 17.09 173.917 17.84 174.087 18.52L175.387 18.11C175.107 16.96 174.097 15.76 172.137 15.76C170.237 15.76 168.527 17.2 168.527 19.46C168.527 21.72 170.177 23.15 172.157 23.15ZM183.286 17.6C183.126 16.8 182.466 15.76 180.746 15.76C179.406 15.76 178.276 16.72 178.276 17.98C178.276 19.05 179.006 19.78 180.136 20.01L181.126 20.21C181.676 20.32 181.986 20.64 181.986 21.05C181.986 21.55 181.576 21.92 180.836 21.92C179.836 21.92 179.346 21.29 179.286 20.59L178.006 20.93C178.116 21.94 178.946 23.15 180.826 23.15C182.476 23.15 183.386 22.05 183.386 20.96C183.386 19.96 182.696 19.12 181.406 18.87L180.416 18.68C179.896 18.58 179.646 18.27 179.646 17.88C179.646 17.41 180.086 16.98 180.756 16.98C181.656 16.98 181.976 17.59 182.046 17.98L183.286 17.6Z" fill="black"/>
  <defs>
    <linearGradient id="paint0_linear_20_6648" x1="37.7569" y1="1.79032" x2="56.4432" y2="22.5435" gradientUnits="userSpaceOnUse">
      <stop offset="0.25" stop-color="#292A2E"/>
      <stop offset="0.5" stop-color="#555659"/>
      <stop offset="0.75" stop-color="#6B6C6E"/>
    </linearGradient>
    <linearGradient id="paint1_linear_20_6648" x1="21.8982" y1="26.1539" x2="2.31773" y2="5.87773" gradientUnits="userSpaceOnUse">
      <stop offset="0.25" stop-color="#292A2E"/>
      <stop offset="0.5" stop-color="#555659"/>
      <stop offset="0.75" stop-color="#6B6C6E"/>
    </linearGradient>
  </defs>
</svg>
