<svg width="950" height="109" viewBox="0 0 950 109" fill="none" xmlns="http://www.w3.org/2000/svg">
<path d="M264.812 69C265.916 69 266.812 68.1046 266.812 67V39.804C266.812 38.6995 265.916 37.804 264.812 37.804H262.652C261.547 37.804 260.652 38.6995 260.652 39.804V67C260.652 68.1046 261.547 69 262.652 69H264.812Z" fill="white"/>
<path d="M311.921 69C313.026 69 313.921 68.1046 313.921 67V39.804C313.921 38.6995 313.026 37.804 311.921 37.804H309.849C308.745 37.804 307.849 38.6995 307.849 39.804V58.44L295.457 38.7392C295.091 38.1572 294.452 37.804 293.764 37.804H289.301C288.197 37.804 287.301 38.6995 287.301 39.804V67C287.301 68.1046 288.197 69 289.301 69H291.373C292.478 69 293.373 68.1046 293.373 67V46.868L306.951 68.0783C307.319 68.6526 307.954 69 308.635 69H311.921Z" fill="white"/>
<path d="M355.326 43.568C356.431 43.568 357.326 42.6726 357.326 41.568V39.804C357.326 38.6995 356.431 37.804 355.326 37.804H333.498C332.394 37.804 331.498 38.6995 331.498 39.804V41.568C331.498 42.6726 332.394 43.568 333.498 43.568H341.354V67C341.354 68.1046 342.25 69 343.354 69H345.47C346.575 69 347.47 68.1046 347.47 67V43.568H355.326Z" fill="white"/>
<path d="M392.425 69C393.529 69 394.425 68.1046 394.425 67V65.28C394.425 64.1755 393.529 63.28 392.425 63.28H380.961V56.064H391.149C392.253 56.064 393.149 55.1686 393.149 54.064V52.652C393.149 51.5475 392.253 50.652 391.149 50.652H380.961V43.524H392.425C393.529 43.524 394.425 42.6286 394.425 41.524V39.804C394.425 38.6995 393.529 37.804 392.425 37.804H376.889C375.784 37.804 374.889 38.6995 374.889 39.804V67C374.889 68.1046 375.784 69 376.889 69H392.425Z" fill="white"/>
<path d="M428.413 67.9075C428.754 68.5779 429.443 69 430.195 69H432.439C433.942 69 434.908 67.4033 434.21 66.0716L429.057 56.24C433.149 55.052 435.701 51.752 435.701 47.396C435.701 41.984 431.829 37.804 425.757 37.804H415.569C414.464 37.804 413.569 38.6995 413.569 39.804V67C413.569 68.1046 414.464 69 415.569 69H417.685C418.79 69 419.685 68.1046 419.685 67V56.988H422.853L428.413 67.9075ZM419.685 51.752V43.084H424.613C427.693 43.084 429.497 44.8 429.497 47.44C429.497 49.992 427.693 51.752 424.613 51.752H419.685Z" fill="white"/>
<path d="M479.104 69C480.208 69 481.104 68.1046 481.104 67V39.804C481.104 38.6995 480.208 37.804 479.104 37.804H477.032C475.927 37.804 475.032 38.6995 475.032 39.804V58.44L462.64 38.7392C462.274 38.1572 461.635 37.804 460.947 37.804H456.484C455.379 37.804 454.484 38.6995 454.484 39.804V67C454.484 68.1046 455.379 69 456.484 69H458.556C459.66 69 460.556 68.1046 460.556 67V46.868L474.134 68.0783C474.501 68.6526 475.136 69 475.818 69H479.104Z" fill="white"/>
<path d="M519.165 69C520.27 69 521.165 68.1046 521.165 67V65.28C521.165 64.1755 520.27 63.28 519.165 63.28H507.701V56.064H517.889C518.994 56.064 519.889 55.1686 519.889 54.064V52.652C519.889 51.5475 518.994 50.652 517.889 50.652H507.701V43.524H519.165C520.27 43.524 521.165 42.6286 521.165 41.524V39.804C521.165 38.6995 520.27 37.804 519.165 37.804H503.629C502.525 37.804 501.629 38.6995 501.629 39.804V67C501.629 68.1046 502.525 69 503.629 69H519.165Z" fill="white"/>
<path d="M561.19 43.568C562.294 43.568 563.19 42.6726 563.19 41.568V39.804C563.19 38.6995 562.294 37.804 561.19 37.804H539.362C538.257 37.804 537.362 38.6995 537.362 39.804V41.568C537.362 42.6726 538.257 43.568 539.362 43.568H547.218V67C547.218 68.1046 548.113 69 549.218 69H551.334C552.438 69 553.334 68.1046 553.334 67V43.568H561.19Z" fill="white"/>
<path d="M617.314 69.66C624.992 69.66 629.388 65.1943 631.155 60.861C631.558 59.8747 630.946 58.8142 629.927 58.5059L628.01 57.9266C626.943 57.6039 625.835 58.2316 625.3 59.2102C624.022 61.5522 621.519 63.72 617.314 63.72C612.298 63.72 607.634 60.068 607.634 53.424C607.634 46.34 612.562 42.996 617.226 42.996C621.447 42.996 623.848 45.003 625.055 47.3057C625.59 48.3261 626.734 48.9955 627.833 48.6489L629.742 48.0468C630.746 47.7301 631.347 46.6819 630.958 45.7033C629.194 41.258 624.839 37.144 617.226 37.144C608.866 37.144 601.342 43.48 601.342 53.424C601.342 63.368 608.602 69.66 617.314 69.66Z" fill="white"/>
<path d="M654.092 53.38C654.092 46.34 659.02 42.996 663.816 42.996C668.656 42.996 673.584 46.34 673.584 53.38C673.584 60.42 668.656 63.764 663.816 63.764C659.02 63.764 654.092 60.42 654.092 53.38ZM647.8 53.424C647.8 63.456 655.368 69.66 663.816 69.66C672.308 69.66 679.876 63.456 679.876 53.424C679.876 43.348 672.308 37.144 663.816 37.144C655.368 37.144 647.8 43.348 647.8 53.424Z" fill="white"/>
<path d="M731.316 69C732.421 69 733.316 68.1046 733.316 67V39.804C733.316 38.6995 732.421 37.804 731.316 37.804H726.39C725.576 37.804 724.844 38.2972 724.537 39.0513L715.892 60.332L707.032 39.0358C706.722 38.29 705.994 37.804 705.186 37.804H700.512C699.407 37.804 698.512 38.6995 698.512 39.804V67C698.512 68.1046 699.407 69 700.512 69H702.32C703.425 69 704.32 68.1046 704.32 67V47.308L712.785 67.7647C713.094 68.5124 713.824 69 714.633 69H717.015C717.826 69 718.557 68.51 718.865 67.7595L727.332 47.132V67C727.332 68.1046 728.227 69 729.332 69H731.316Z" fill="white"/>
<path d="M759.937 52.016V43.084H764.733C767.769 43.084 769.617 44.8 769.617 47.572C769.617 50.256 767.769 52.016 764.733 52.016H759.937ZM765.481 57.252C771.641 57.252 775.733 53.204 775.733 47.528C775.733 41.896 771.641 37.804 765.481 37.804H755.821C754.717 37.804 753.821 38.6995 753.821 39.804V67C753.821 68.1046 754.717 69 755.821 69H757.893C758.998 69 759.893 68.1046 759.893 67V57.252H765.481Z" fill="white"/>
<path d="M805.366 69.704C812.054 69.704 817.378 65.612 817.378 57.956V39.804C817.378 38.6995 816.483 37.804 815.378 37.804H813.306C812.201 37.804 811.306 38.6995 811.306 39.804V57.516C811.306 61.608 809.062 63.764 805.366 63.764C801.758 63.764 799.47 61.608 799.47 57.516V39.804C799.47 38.6995 798.575 37.804 797.47 37.804H795.398C794.293 37.804 793.398 38.6995 793.398 39.804V57.956C793.398 65.612 798.722 69.704 805.366 69.704Z" fill="white"/>
<path d="M858.508 43.568C859.612 43.568 860.508 42.6726 860.508 41.568V39.804C860.508 38.6995 859.612 37.804 858.508 37.804H836.68C835.575 37.804 834.68 38.6995 834.68 39.804V41.568C834.68 42.6726 835.575 43.568 836.68 43.568H844.536V67C844.536 68.1046 845.431 69 846.536 69H848.652C849.756 69 850.652 68.1046 850.652 67V43.568H858.508Z" fill="white"/>
<path d="M895.606 69C896.71 69 897.606 68.1046 897.606 67V65.28C897.606 64.1755 896.71 63.28 895.606 63.28H884.142V56.064H894.33C895.434 56.064 896.33 55.1686 896.33 54.064V52.652C896.33 51.5475 895.434 50.652 894.33 50.652H884.142V43.524H895.606C896.71 43.524 897.606 42.6286 897.606 41.524V39.804C897.606 38.6995 896.71 37.804 895.606 37.804H880.07C878.965 37.804 878.07 38.6995 878.07 39.804V67C878.07 68.1046 878.965 69 880.07 69H895.606Z" fill="white"/>
<path d="M931.594 67.9075C931.935 68.5779 932.624 69 933.376 69H935.62C937.124 69 938.089 67.4033 937.391 66.0716L932.238 56.24C936.33 55.052 938.882 51.752 938.882 47.396C938.882 41.984 935.01 37.804 928.938 37.804H916.75V67C916.75 68.1046 917.646 69 918.75 69H920.866C921.971 69 922.866 68.1046 922.866 67V56.988H926.034L931.594 67.9075ZM922.866 51.752V43.084H927.794C930.874 43.084 932.678 44.8 932.678 47.44C932.678 49.992 930.874 51.752 927.794 51.752H922.866Z" fill="white"/>
<path d="M174.433 0C161.554 0 147.514 6.59974 132.675 19.5992C125.635 25.759 119.555 32.3587 114.996 37.6385C114.996 37.6385 114.996 37.6385 115.036 37.6785V37.6385C115.036 37.6385 122.235 45.4782 130.195 53.8779C134.475 48.7981 140.635 41.8784 147.714 35.6386C160.914 24.0791 169.513 21.6392 174.433 21.6392C192.953 21.6392 207.992 36.3186 207.992 54.3579C207.992 72.2772 192.913 86.9566 174.433 87.0766C173.593 87.0766 172.513 86.9566 171.153 86.6766C176.553 88.9965 182.353 90.6765 187.873 90.6765C221.791 90.6765 228.431 68.5573 228.871 66.9574C229.871 62.9175 230.391 58.6777 230.391 54.3179C230.391 24.399 205.272 0 174.433 0Z" fill="url(#paint0_linear_1507_2)"/>
<path d="M55.9578 108.796C68.8373 108.796 82.8768 102.196 97.7162 89.1966C104.756 83.0368 110.836 76.4371 115.395 71.1573C115.395 71.1573 115.395 71.1573 115.355 71.1173V71.1573C115.355 71.1573 108.156 63.3176 100.196 54.9179C95.9162 59.9977 89.7565 66.9174 82.6768 73.1572C69.4773 84.7167 60.8776 87.1566 55.9578 87.1566C37.4385 87.1167 22.3991 72.4372 22.3991 54.3979C22.3991 36.4786 37.4785 21.7992 55.9578 21.6792C56.7978 21.6792 57.8777 21.7992 59.2377 22.0792C53.8379 19.7593 48.0381 18.0793 42.5183 18.0793C8.59966 18.0793 1.99992 40.1985 1.51994 41.7584C0.51998 45.8383 0 50.0381 0 54.3979C0 84.3968 25.119 108.796 55.9578 108.796Z" fill="url(#paint1_linear_1507_2)"/>
<path d="M187.793 90.1965C170.433 89.7565 152.394 76.077 148.714 72.6772C139.195 63.8775 117.235 40.0784 115.516 38.1985C99.4362 20.1592 77.637 0 55.9579 0H55.9179H55.8779C29.5589 0.119995 7.43979 17.9593 1.52002 41.7584C1.96 40.1984 10.6397 17.6393 42.4784 18.4393C59.8377 18.8793 77.957 32.7587 81.6769 36.1586C91.1965 44.9582 113.156 68.7573 114.876 70.6372C130.955 88.6365 152.754 108.796 174.433 108.796H174.473H174.513C200.832 108.676 222.991 90.8365 228.871 67.0374C228.391 68.5973 219.671 90.9565 187.793 90.1965Z" fill="#29ABE2"/>
<defs>
<linearGradient id="paint0_linear_1507_2" x1="145.304" y1="7.17356" x2="221.385" y2="85.958" gradientUnits="userSpaceOnUse">
<stop offset="0.21" stop-color="#F15A24"/>
<stop offset="0.6841" stop-color="#FBB03B"/>
</linearGradient>
<linearGradient id="paint1_linear_1507_2" x1="85.0869" y1="101.622" x2="9.00563" y2="22.8379" gradientUnits="userSpaceOnUse">
<stop offset="0.21" stop-color="#ED1E79"/>
<stop offset="0.8929" stop-color="#522785"/>
</linearGradient>
</defs>
</svg>
