<svg width="24" height="24" viewBox="0 0 24 24" fill="none" xmlns="http://www.w3.org/2000/svg">
<path d="M11.9996 10.0963V16.4159C11.9979 16.9997 11.8784 17.577 11.6482 18.1135C11.4179 18.6499 11.0818 19.1343 10.6599 19.5377C10.2379 19.941 9.73888 20.2551 9.19265 20.4609C8.64642 20.6668 8.06425 20.7602 7.48104 20.7357C6.89782 20.7111 6.32557 20.5691 5.79858 20.318C5.27159 20.067 4.80071 19.7121 4.41418 19.2747C4.02764 18.8373 3.7334 18.3263 3.54909 17.7725C3.36479 17.2186 3.29421 16.6332 3.34159 16.0514C2.43902 15.0836 1.86914 13.1861 1.86914 11.6038C1.86914 9.44846 2.92771 7.35201 4.44314 6.52744C4.36104 5.7746 4.50644 5.01444 4.86058 4.34504C5.21471 3.67564 5.76134 3.12774 6.42991 2.77204C7.09847 2.41634 7.8583 2.26917 8.61133 2.34951C9.36435 2.42986 10.076 2.73403 10.6545 3.22279" stroke="currentColor" stroke-width="1.71429" stroke-linecap="round" stroke-linejoin="round"/>
<path d="M6.44517 9.10217C5.88802 8.97483 4.62888 8.14707 4.43945 6.53613" stroke="currentColor" stroke-width="1.71429" stroke-linecap="round" stroke-linejoin="round"/>
<path d="M4.50152 13.7783C3.93483 14.2256 3.48275 15.238 3.33789 16.0499" stroke="currentColor" stroke-width="1.71429" stroke-linecap="round" stroke-linejoin="round"/>
<path d="M12 16.4156C12.0017 16.9994 12.1212 17.5767 12.3514 18.1132C12.5816 18.6496 12.9178 19.134 13.3397 19.5374C13.7617 19.9408 14.2607 20.2548 14.8069 20.4606C15.3532 20.6665 15.9353 20.76 16.5186 20.7354C17.1018 20.7108 17.674 20.5688 18.201 20.3177C18.728 20.0667 19.1989 19.7118 19.5854 19.2744C19.9719 18.837 20.2662 18.326 20.4505 17.7722C20.6348 17.2183 20.7054 16.6329 20.658 16.0511C21.5606 15.0817 22.1289 13.1858 22.1289 11.6035C22.1289 10.9127 22.0206 10.2282 21.8232 9.58984" stroke="currentColor" stroke-width="1.71429" stroke-linecap="round" stroke-linejoin="round"/>
<path d="M19.498 13.7783C20.0647 14.2256 20.5168 15.238 20.6617 16.0499" stroke="currentColor" stroke-width="1.71429" stroke-linecap="round" stroke-linejoin="round"/>
<path d="M12.119 6.71269C11.5619 6.61399 11.5619 5.8133 12.119 5.7162C13.1086 5.5443 14.0246 5.08154 14.7501 4.38694C15.4756 3.69234 15.9778 2.79737 16.1925 1.8162L16.2244 1.66179C16.3469 1.10942 17.1317 1.10465 17.2591 1.65701L17.2989 1.83689C17.5219 2.81362 18.0286 3.70266 18.7554 4.3923C19.4821 5.08194 20.3964 5.54142 21.3835 5.71301C21.9438 5.81011 21.9438 6.61718 21.3835 6.71587C20.3964 6.88746 19.4821 7.34694 18.7554 8.03658C18.0286 8.72622 17.5219 9.61526 17.2989 10.592L17.2575 10.7703C17.1317 11.3211 16.3469 11.3179 16.226 10.7655L16.1925 10.6127C15.9778 9.63151 15.4756 8.73655 14.7501 8.04194C14.0246 7.34734 13.1086 6.88458 12.119 6.71269Z" stroke="currentColor" stroke-width="1.71429" stroke-linecap="round" stroke-linejoin="round"/>
</svg>
