<?xml version="1.0" encoding="UTF-8"?>
<!DOCTYPE svg PUBLIC "-//W3C//DTD SVG 1.1//EN" "http://www.w3.org/Graphics/SVG/1.1/DTD/svg11.dtd">
<!-- Creator: CorelDRAW 2019 (64-Bit) -->
<svg width="200" height="200" viewBox="0 0 200 200" fill="none" xmlns="http://www.w3.org/2000/svg">
 <rect opacity="0.4" x="1.00024" y="1" width="198" height="198" rx="99" stroke="url(#paint0_linear_254_7952)" stroke-width="2"/>
 <path opacity="0.5" fill-rule="evenodd" clip-rule="evenodd" d="M141.671 95.9265L150.144 104.399L150.144 104.4C150.574 104.935 150.895 105.58 151 106.223C151 106.866 150.785 107.51 150.249 108.046L141.776 116.519C141.347 116.949 140.596 117.27 139.953 117.27H136.735C135.984 117.27 135.341 116.949 134.804 116.412L130.728 112.015L127.082 115.769C126.546 116.198 125.903 116.52 125.151 116.52C124.401 116.52 123.758 116.198 123.221 115.662L119.575 111.908L115.928 115.662C115.392 116.198 114.749 116.52 113.998 116.52C113.247 116.52 112.604 116.305 112.068 115.769L108.421 112.015L104.345 116.412C103.809 116.949 103.166 117.27 102.415 117.27H95.3355C91.152 125.53 82.7861 130.678 73.4548 130.678C59.9405 130.678 49 119.737 49 106.223C49 92.7086 59.9405 81.7681 73.4548 81.7681C82.7857 81.7681 91.1516 86.9163 95.3355 95.1753H139.848C140.491 95.1753 141.134 95.3901 141.671 95.9265ZM137.702 112.122H138.668L144.567 106.33L138.668 100.431H93.6196C92.6545 100.431 91.6886 99.7875 91.2599 98.8223C88.2567 91.6353 81.2846 87.0236 73.4549 87.0236C62.8362 87.0236 54.1485 95.7113 54.1485 106.33C54.1485 116.949 62.8362 125.636 73.4549 125.636C81.2853 125.636 88.2567 121.024 91.2599 113.838C91.5815 112.873 92.5467 112.229 93.6196 112.229H101.235L106.491 106.652C107.027 106.115 107.67 105.793 108.421 105.793C109.172 105.793 109.815 106.008 110.352 106.545L113.998 110.299L117.645 106.545C118.611 105.472 120.434 105.472 121.399 106.545L124.94 110.192L128.586 106.437C129.122 106.008 129.765 105.686 130.516 105.686C131.267 105.686 131.91 106.008 132.447 106.544L137.702 112.122ZM60.3685 106.223C60.3685 101.396 64.3376 97.4276 69.164 97.4276C73.9904 97.4276 77.9588 101.397 77.9596 106.223C77.9596 111.05 73.9904 115.019 69.164 115.019C64.3368 115.019 60.3685 111.05 60.3685 106.223ZM65.6245 106.223C65.6245 108.154 67.2338 109.763 69.164 109.763C71.0942 109.763 72.7035 108.153 72.7035 106.223C72.7035 104.292 71.0943 102.684 69.164 102.684C67.2331 102.684 65.6245 104.293 65.6245 106.223Z" fill="white"/>
 <path fill-rule="evenodd" clip-rule="evenodd" d="M116.894 65.0361C108.849 65.0361 101.342 68.254 95.6569 74.0456H95.6575C94.6916 75.1177 92.976 75.1177 91.7954 74.0456C90.8302 73.0805 90.8302 71.4719 91.7954 70.399C98.3381 63.5347 107.241 59.7803 116.787 59.7803C126.225 59.7803 135.128 63.5345 141.778 70.399C142.851 71.3641 142.851 73.0804 141.778 74.0456C141.241 74.582 140.598 74.7968 139.954 74.7968C139.311 74.7968 138.668 74.582 138.131 74.0456C132.554 68.254 124.939 65.0361 116.894 65.0361ZM131.481 81.339C132.017 81.8754 132.661 82.1972 133.411 82.1972C134.055 82.1972 134.698 81.9824 135.235 81.5537C136.307 80.5886 136.307 78.8723 135.342 77.9071C130.622 72.759 123.972 69.8628 117 69.8628C110.029 69.8628 103.378 72.759 98.6585 77.9071C97.6934 78.98 97.6934 80.5886 98.7655 81.5537C99.8384 82.5189 101.447 82.5189 102.412 81.4467C106.167 77.3707 111.422 75.1187 116.892 75.1187C122.471 75.011 127.727 77.3707 131.481 81.3391L131.481 81.339ZM116.894 79.7305C112.282 79.7305 108.098 81.7686 105.203 85.3081C104.345 86.381 104.452 88.0966 105.632 88.9547C106.705 89.8128 108.42 89.7058 109.278 88.526C111.208 86.1663 113.998 84.8794 116.894 84.8794C119.897 84.8794 122.685 86.1662 124.51 88.526C125.046 89.1694 125.796 89.4911 126.548 89.4911C127.084 89.4911 127.728 89.2764 128.156 88.9547C129.229 88.0965 129.443 86.3803 128.585 85.3081C125.796 81.7686 121.506 79.7305 116.894 79.7305H116.894Z" fill="white"/>
 <defs>
  <linearGradient id="paint0_linear_254_7952" x1="200" y1="100" x2="5.7219e-06" y2="100" gradientUnits="userSpaceOnUse">
   <stop stop-color="white" stop-opacity="0"/>
   <stop offset="1" stop-color="white"/>
  </linearGradient>
 </defs>
</svg>




