<svg width="58" height="27" viewBox="0 0 58 27" fill="none"
	xmlns="http://www.w3.org/2000/svg">
	<g clip-path="url(#clip0_122_32665)">
		<path d="M44.0664 -0.2677C40.8128 -0.2677 37.2659 1.3996 33.5171 4.68368C31.7385 6.23984 30.2025 7.90713 29.0508 9.24097C29.0508 9.24097 29.0508 9.24097 29.0609 9.25108V9.24097C29.0609 9.24097 30.8796 11.2215 32.8905 13.3436C33.9718 12.0602 35.528 10.3121 37.3164 8.73574C40.6511 5.81544 42.8235 5.19905 44.0664 5.19905C48.7452 5.19905 52.5445 8.90752 52.5445 13.4648C52.5445 17.9918 48.7351 21.7003 44.0664 21.7306C43.8542 21.7306 43.5814 21.7003 43.2378 21.6295C44.602 22.2156 46.0673 22.64 47.4618 22.64C56.0306 22.64 57.708 17.052 57.8192 16.6479C58.0718 15.6272 58.2032 14.5561 58.2032 13.4547C58.2032 5.89626 51.8573 -0.2677 44.0664 -0.2677Z" fill="url(#paint0_linear_122_32665)"/>
		<path d="M14.1367 27.2167C17.3905 27.2167 20.9373 25.5494 24.6862 22.2653C26.4647 20.7091 28.0007 19.0419 29.1524 17.708C29.1524 17.708 29.1524 17.708 29.1423 17.6979V17.708C29.1423 17.708 27.3236 15.7275 25.3127 13.6054C24.2315 14.8887 22.6753 16.6369 20.8868 18.2132C17.5522 21.1335 15.3796 21.7499 14.1367 21.7499C9.45815 21.7399 5.65872 18.0314 5.65872 13.4741C5.65872 8.94707 9.46825 5.23859 14.1367 5.20828C14.3489 5.20828 14.6217 5.23859 14.9653 5.30933C13.6012 4.72325 12.1359 4.29883 10.7415 4.29883C2.17255 4.29883 0.505243 9.88684 0.383985 10.2809C0.131363 11.3116 0 12.3726 0 13.4741C0 21.0527 6.34585 27.2167 14.1367 27.2167Z" fill="url(#paint1_linear_122_32665)"/>
		<path d="M47.4412 22.5189C43.0556 22.4077 38.4983 18.9519 37.5687 18.093C35.1639 15.8699 29.6161 9.85749 29.1818 9.38257C25.1195 4.82527 19.6124 -0.267578 14.1355 -0.267578H14.1254H14.1153C7.46632 -0.237264 1.87833 4.26951 0.382812 10.2819C0.493965 9.88781 2.68673 4.18867 10.7302 4.39077C15.1157 4.50193 19.6932 8.0083 20.633 8.86723C23.0379 11.0903 28.5856 17.1027 29.0201 17.5776C33.0822 22.1248 38.5893 27.2177 44.0661 27.2177H44.0762H44.0863C50.7353 27.1874 56.3334 22.6806 57.8188 16.6682C57.6976 17.0623 55.4946 22.7109 47.4412 22.5189Z" fill="#29ABE2"/>
	</g>
	<defs>
		<linearGradient id="paint0_linear_122_32665" x1="36.7075" y1="1.54457" x2="55.928" y2="21.448" gradientUnits="userSpaceOnUse">
			<stop offset="0.21" stop-color="#F15A24"/>
			<stop offset="0.6841" stop-color="#FBB03B"/>
		</linearGradient>
		<linearGradient id="paint1_linear_122_32665" x1="21.4956" y1="25.4044" x2="2.27511" y2="5.501" gradientUnits="userSpaceOnUse">
			<stop offset="0.21" stop-color="#ED1E79"/>
			<stop offset="0.8929" stop-color="#522785"/>
		</linearGradient>
		<clipPath id="clip0_122_32665">
			<rect width="58" height="27" fill="white"/>
		</clipPath>
	</defs>
</svg>
