<?xml version="1.0" encoding="UTF-8"?>
<!DOCTYPE svg PUBLIC "-//W3C//DTD SVG 1.1//EN" "http://www.w3.org/Graphics/SVG/1.1/DTD/svg11.dtd">
<!-- Creator: CorelDRAW 2019 (64-Bit) -->
<svg width="200" height="200" viewBox="0 0 200 200" fill="none" xmlns="http://www.w3.org/2000/svg">
 <rect opacity="0.4" x="1" y="1" width="198" height="198" rx="99" stroke="url(#paint0_linear_523_6521)" stroke-width="2"/>
 <path d="M145.673 102.178C146.267 103.861 147.625 105.162 149.332 105.684C151.038 106.206 152.891 105.889 154.326 104.828C155.76 103.766 156.607 102.087 156.607 100.303C156.607 98.5179 155.76 96.8396 154.326 95.7777C152.891 94.7165 151.038 94.3991 149.332 94.9209C147.625 95.4435 146.267 96.7441 145.673 98.4268H134.072V82.319L138.6 77.7907H141.921C142.515 79.4732 143.873 80.7738 145.58 81.2966C147.286 81.8183 149.139 81.5009 150.574 80.4398C152.008 79.3778 152.855 77.6995 152.855 75.9149C152.855 74.1302 152.008 72.4518 150.574 71.3899C149.139 70.3288 147.286 70.0114 145.58 70.5331C143.873 71.0557 142.515 72.3564 141.921 74.039H137.824C137.326 74.039 136.849 74.2367 136.497 74.5884L131.848 79.2375L120.94 73.4613V62.7831H126.913C127.507 64.4656 128.865 65.7663 130.571 66.289C132.277 66.8107 134.131 66.4933 135.566 65.4322C137 64.3703 137.847 62.6919 137.847 60.9073C137.847 59.1226 137 57.4443 135.566 56.3823C134.131 55.3212 132.277 55.0038 130.571 55.5256C128.865 56.0482 127.507 57.3488 126.913 59.0314H119.064C118.028 59.0314 117.187 59.8715 117.187 60.9075V71.4751L102.179 63.5339V54.9345C103.862 54.3398 105.163 52.9822 105.685 51.2755C106.207 49.5695 105.89 47.716 104.829 46.2814C103.767 44.8468 102.088 44 100.304 44C98.5189 44 96.8406 44.8467 95.7787 46.2814C94.7175 47.7161 94.4001 49.5695 94.9219 51.2755C95.4445 52.9823 96.7451 54.3399 98.4278 54.9345V63.5339L83.4197 71.4785V60.9075C83.4197 60.41 83.222 59.9326 82.8703 59.5808C82.5186 59.2291 82.0412 59.0314 81.5437 59.0314H73.6947C73.1001 57.3489 71.7425 56.0483 70.0357 55.5256C68.3297 55.0038 66.4762 55.3212 65.0417 56.3823C63.607 57.4443 62.7602 59.1226 62.7602 60.9073C62.7602 62.6919 63.6069 64.3703 65.0417 65.4322C66.4763 66.4933 68.3297 66.8107 70.0357 66.289C71.7425 65.7664 73.1001 64.4657 73.6947 62.7831H79.6677V73.4613L68.7583 79.2375L64.1092 74.5884H64.1101C63.7583 74.2367 63.2809 74.039 62.7835 74.039H58.6865C58.0919 72.3565 56.7342 71.0559 55.0275 70.5331C53.3215 70.0114 51.468 70.3288 50.0335 71.3899C48.5988 72.4519 47.752 74.1302 47.752 75.9149C47.752 77.6995 48.5987 79.3779 50.0335 80.4398C51.4681 81.5009 53.3215 81.8183 55.0275 81.2966C56.7343 80.774 58.0919 79.4733 58.6865 77.7907H62.0071L66.5355 82.319V98.4268H54.9345C54.3398 96.7442 52.9822 95.4436 51.2755 94.9209C49.5695 94.3991 47.716 94.7165 46.2814 95.7777C44.8468 96.8396 44 98.5179 44 100.303C44 102.087 44.8467 103.766 46.2814 104.828C47.7161 105.889 49.5695 106.206 51.2755 105.684C52.9823 105.162 54.3399 103.861 54.9345 102.178H66.5355V118.286L62.0071 122.815H58.6865C58.0919 121.132 56.7342 119.831 55.0275 119.309C53.3215 118.787 51.468 119.104 50.0335 120.165C48.5988 121.227 47.752 122.906 47.752 124.69C47.752 126.475 48.5987 128.153 50.0335 129.215C51.4681 130.276 53.3215 130.594 55.0275 130.072C56.7343 129.549 58.0919 128.249 58.6865 126.566H62.7835C63.2809 126.566 63.7583 126.368 64.1101 126.017L68.7591 121.368L79.6677 127.144V137.822H73.6947C73.1 136.14 71.7424 134.839 70.0357 134.316C68.3297 133.794 66.4762 134.112 65.0416 135.173C63.607 136.235 62.7602 137.913 62.7602 139.698C62.7602 141.483 63.6069 143.161 65.0416 144.223C66.4763 145.284 68.3297 145.601 70.0357 145.08C71.7425 144.557 73.1001 143.256 73.6947 141.574H81.5437C82.0411 141.574 82.5185 141.376 82.8703 141.024C83.222 140.673 83.4197 140.195 83.4197 139.698V129.13L98.4278 137.071V145.668C96.7452 146.262 95.4446 147.62 94.9219 149.326C94.4001 151.032 94.7175 152.886 95.7786 154.321C96.8406 155.755 98.5189 156.601 100.304 156.601C102.088 156.601 103.767 155.755 104.829 154.321C105.89 152.886 106.207 151.032 105.685 149.326C105.163 147.62 103.862 146.262 102.179 145.668V137.071L117.187 129.127V139.698C117.187 140.195 117.385 140.673 117.737 141.024C118.089 141.376 118.566 141.574 119.063 141.574H126.912C127.507 143.256 128.865 144.557 130.571 145.08C132.277 145.601 134.131 145.284 135.566 144.223C137 143.161 137.847 141.483 137.847 139.698C137.847 137.913 137 136.235 135.566 135.173C134.131 134.112 132.277 133.794 130.571 134.316C128.865 134.839 127.507 136.139 126.912 137.822H120.939V127.144L131.849 121.368L136.498 126.017H136.497C136.849 126.368 137.326 126.566 137.824 126.566H141.921C142.515 128.249 143.873 129.549 145.58 130.072C147.286 130.594 149.139 130.276 150.574 129.215C152.008 128.153 152.855 126.475 152.855 124.69C152.855 122.906 152.008 121.227 150.574 120.165C149.139 119.104 147.286 118.787 145.58 119.309C143.873 119.831 142.515 121.132 141.921 122.815H138.6L134.072 118.286V102.178H145.673ZM150.956 98.4264C151.715 98.4264 152.399 98.8837 152.689 99.5846C152.979 100.286 152.819 101.092 152.282 101.629C151.746 102.166 150.939 102.326 150.238 102.035C149.537 101.745 149.08 101.061 149.08 100.302C149.08 99.2664 149.92 98.4264 150.956 98.4264ZM147.204 74.0383C147.963 74.0383 148.647 74.4955 148.937 75.1965C149.227 75.8975 149.067 76.704 148.53 77.2409C147.994 77.7777 147.187 77.9377 146.486 77.6471C145.785 77.3573 145.328 76.673 145.328 75.9143C145.328 74.8783 146.168 74.0383 147.204 74.0383ZM132.196 59.0302C132.954 59.0302 133.639 59.4875 133.928 60.1884C134.219 60.8894 134.059 61.6959 133.522 62.2328C132.985 62.7697 132.179 62.9296 131.478 62.639C130.777 62.3492 130.32 61.665 130.32 60.9062C130.32 59.8702 131.16 59.0302 132.196 59.0302ZM68.4113 62.7822C67.6526 62.7822 66.9683 62.3249 66.6786 61.6239C66.3879 60.923 66.5479 60.1164 67.0847 59.5796C67.6216 59.0427 68.4281 58.8828 69.1291 59.1734C69.8301 59.4632 70.2874 60.1474 70.2874 60.9062C70.2874 61.4037 70.0897 61.8811 69.738 62.2328C69.3862 62.5845 68.9088 62.7822 68.4113 62.7822ZM53.4033 77.7903C52.6445 77.7903 51.9602 77.333 51.6705 76.632C51.3799 75.931 51.5398 75.1245 52.0767 74.5877C52.6135 74.0508 53.42 73.8909 54.121 74.1815C54.822 74.4713 55.2793 75.1555 55.2793 75.9143C55.2793 76.4117 55.0816 76.8891 54.7299 77.2409C54.3781 77.5926 53.9007 77.7903 53.4033 77.7903ZM49.6512 102.178C48.8925 102.178 48.2082 101.721 47.9185 101.02C47.6278 100.319 47.7878 99.5126 48.3246 98.9758C48.8615 98.4389 49.668 98.279 50.369 98.5696C51.07 98.8594 51.5273 99.5436 51.5273 100.302C51.5273 100.8 51.3296 101.277 50.9779 101.629C50.6261 101.981 50.1487 102.178 49.6512 102.178ZM53.4033 126.567C52.6445 126.567 51.9602 126.109 51.6705 125.408C51.3799 124.707 51.5398 123.901 52.0767 123.364C52.6135 122.827 53.42 122.667 54.121 122.958C54.822 123.248 55.2793 123.932 55.2793 124.691C55.2793 125.188 55.0816 125.665 54.7299 126.017C54.3781 126.369 53.9007 126.567 53.4033 126.567ZM68.4113 141.575C67.6526 141.575 66.9683 141.117 66.6786 140.416C66.3879 139.715 66.5479 138.909 67.0847 138.372C67.6216 137.835 68.4281 137.675 69.1291 137.966C69.8301 138.256 70.2874 138.94 70.2874 139.699C70.2874 140.196 70.0897 140.673 69.738 141.025C69.3862 141.377 68.9088 141.575 68.4113 141.575ZM132.196 137.823C132.954 137.823 133.639 138.28 133.928 138.981C134.219 139.682 134.059 140.488 133.522 141.025C132.985 141.562 132.179 141.722 131.478 141.431C130.777 141.142 130.32 140.457 130.32 139.699C130.32 138.663 131.16 137.823 132.196 137.823ZM147.204 122.815C147.963 122.815 148.647 123.272 148.937 123.973C149.227 124.674 149.067 125.48 148.53 126.017C147.994 126.554 147.187 126.714 146.486 126.423C145.785 126.134 145.328 125.449 145.328 124.691C145.328 123.655 146.168 122.815 147.204 122.815ZM100.304 47.7741C101.062 47.7741 101.747 48.2314 102.036 48.9324C102.327 49.6334 102.167 50.4399 101.63 50.9767C101.093 51.5136 100.287 51.6735 99.5858 51.3829C98.8848 51.0931 98.4275 50.4089 98.4275 49.6501C98.4275 48.6141 99.2675 47.7741 100.304 47.7741ZM100.304 152.831C99.5447 152.831 98.8605 152.373 98.5707 151.672C98.2801 150.971 98.4401 150.165 98.9769 149.628C99.5137 149.091 100.32 148.931 101.021 149.222C101.722 149.512 102.18 150.196 102.18 150.955C102.18 151.452 101.982 151.93 101.63 152.281C101.278 152.633 100.801 152.831 100.304 152.831ZM130.32 117.937L100.304 133.825L70.2874 117.937V82.6679L100.304 66.7763L130.32 82.6679V117.937Z" fill="#3B00B9"/>
 <path opacity="0.5" d="M99.4659 70.4835L73.2018 83.6156C72.5652 83.9338 72.1641 84.5837 72.1641 85.2948V115.311C72.1599 116.025 72.5628 116.68 73.2018 116.999L99.4659 130.131C99.9935 130.395 100.615 130.395 101.143 130.131L127.407 116.999C128.046 116.68 128.449 116.025 128.444 115.311V85.2948C128.444 84.5837 128.043 83.9338 127.407 83.6156L101.143 70.4835C100.615 70.2197 99.9935 70.2197 99.4659 70.4835ZM124.692 86.4538V114.152L100.304 126.346L75.9161 114.152V86.4538L100.304 74.2598L124.692 86.4538Z" fill="#3B00B9"/>
 <path d="M87.1721 99.8584L83.2325 91.959C82.8498 91.1684 81.9696 90.7488 81.1145 90.9498C80.2594 91.1517 79.658 91.9188 79.6681 92.7974V109.681H83.4201V100.744L87.369 108.645V108.644C87.7576 109.424 88.6311 109.833 89.4786 109.633C90.3262 109.434 90.925 108.676 90.9242 107.805V90.9214H87.1721V99.8584Z" fill="#3B00B9"/>
 <path d="M94.6758 92.7984V109.682H98.4278V102.178H104.056V98.4264H98.4278V94.6744H105.932V90.9224H96.5518C95.5158 90.9224 94.6758 91.7624 94.6758 92.7984Z" fill="#3B00B9"/>
 <path d="M113.436 109.682H117.188V94.6744H120.94V90.9224H109.684V94.6744H113.436V109.682Z" fill="#3B00B9"/>
 <defs>
  <linearGradient id="paint0_linear_523_6521" x1="29.4998" y1="24" x2="184" y2="176" gradientUnits="userSpaceOnUse">
   <stop stop-color="#3700B9"/>
   <stop offset="1" stop-color="#3B00B9" stop-opacity="0"/>
  </linearGradient>
 </defs>
</svg>





