<?xml version="1.0" encoding="UTF-8"?>
<!DOCTYPE svg PUBLIC "-//W3C//DTD SVG 1.1//EN" "http://www.w3.org/Graphics/SVG/1.1/DTD/svg11.dtd">
<!-- Creator: CorelDRAW 2019 (64-Bit) -->
<svg width="200" height="200" viewBox="0 0 200 200" fill="none" xmlns="http://www.w3.org/2000/svg">
 <rect opacity="0.4" x="1" y="1" width="198" height="198" rx="99" stroke="url(#paint0_linear_254_8017)" stroke-width="2"/>
 <path d="M56.7792 56C51.9278 56 48.0071 59.924 48.0071 64.7721V106.586C48.0071 111.438 51.9311 115.359 56.7792 115.359H142.723C147.574 115.359 151.495 111.435 151.495 106.586V64.7721C151.495 59.9208 147.571 56 142.723 56H56.7792ZM56.7792 59.6074H142.723C145.557 59.6074 147.89 61.9406 147.89 64.7752V106.587C147.89 109.421 145.557 111.755 142.723 111.755H56.7792C53.9453 111.755 51.6114 109.422 51.6114 106.587V64.7752C51.6114 61.9412 53.9447 59.6074 56.7792 59.6074ZM92.8493 69.9361C91.9147 69.9089 90.9762 70.6051 90.9762 71.7414V99.6175C90.9762 101.164 92.5327 101.948 93.7805 101.113L114.69 87.1774C115.796 86.4374 115.803 84.9248 114.69 84.1752V84.1688L93.7805 70.2393C93.4576 70.024 93.1554 69.9403 92.8492 69.9299L92.8493 69.9361ZM94.5844 75.1175L110.444 85.6846L94.5844 96.2517V75.1175Z" fill="white" stroke="white"/>
 <g opacity="0.5">
  <path fill-rule="evenodd" clip-rule="evenodd" d="M83.5525 125.687C79.7297 125.687 76.4852 128.148 75.278 131.544L74.8849 132.66H49.8053C48.7902 132.66 48 133.447 48 134.459C48 135.471 48.7934 136.264 49.8053 136.264H74.8849L75.278 137.381C76.4853 140.777 79.7299 143.231 83.5525 143.231C87.3752 143.231 90.6134 140.78 91.8198 137.381L92.2129 136.264H149.692C150.704 136.264 151.498 135.471 151.498 134.459C151.498 133.447 150.707 132.66 149.692 132.66H92.2129L91.8198 131.544C90.6125 128.145 87.3752 125.687 83.5525 125.687ZM83.5525 129.298C86.3865 129.298 88.7131 131.634 88.7131 134.466C88.7131 137.296 86.3832 139.626 83.5525 139.626C80.7218 139.626 78.3847 137.3 78.3847 134.466C78.3847 131.632 80.7179 129.298 83.5525 129.298Z" fill="white"/>
  <path d="M75.278 131.544L74.8069 131.376L74.8064 131.378L75.278 131.544ZM74.8849 132.66V133.16H75.2389L75.3565 132.826L74.8849 132.66ZM74.8849 136.264L75.3565 136.098L75.2389 135.764H74.8849V136.264ZM75.278 137.381L74.8064 137.547L74.8069 137.548L75.278 137.381ZM91.8198 137.381L92.291 137.548L92.2914 137.547L91.8198 137.381ZM92.2129 136.264V135.764H91.8589L91.7413 136.098L92.2129 136.264ZM92.2129 132.66L91.7413 132.826L91.8589 133.16H92.2129V132.66ZM91.8198 131.544L92.2914 131.378L92.291 131.376L91.8198 131.544ZM75.7491 131.711C76.8885 128.506 79.95 126.187 83.5525 126.187V125.187C79.5094 125.187 76.082 127.789 74.8069 131.376L75.7491 131.711ZM75.3565 132.826L75.7496 131.71L74.8064 131.378L74.4133 132.494L75.3565 132.826ZM49.8053 133.16H74.8849V132.16H49.8053V133.16ZM48.5 134.459C48.5 133.725 49.0646 133.16 49.8053 133.16V132.16C48.5158 132.16 47.5 133.169 47.5 134.459H48.5ZM49.8053 135.764C49.0695 135.764 48.5 135.195 48.5 134.459H47.5C47.5 135.747 48.5173 136.764 49.8053 136.764V135.764ZM74.8849 135.764H49.8053V136.764H74.8849V135.764ZM75.7496 137.215L75.3565 136.098L74.4133 136.43L74.8064 137.547L75.7496 137.215ZM83.5525 142.731C79.9496 142.731 76.8883 140.418 75.7491 137.213L74.8069 137.548C76.0823 141.136 79.5102 143.731 83.5525 143.731V142.731ZM91.3486 137.213C90.2102 140.421 87.1553 142.731 83.5525 142.731V143.731C87.5951 143.731 91.0166 141.139 92.291 137.548L91.3486 137.213ZM91.7413 136.098L91.3482 137.215L92.2914 137.547L92.6845 136.43L91.7413 136.098ZM149.692 135.764H92.2129V136.764H149.692V135.764ZM150.998 134.459C150.998 135.195 150.428 135.764 149.692 135.764V136.764C150.98 136.764 151.998 135.747 151.998 134.459H150.998ZM149.692 133.16C150.433 133.16 150.998 133.725 150.998 134.459H151.998C151.998 133.169 150.982 132.16 149.692 132.16V133.16ZM92.2129 133.16H149.692V132.16H92.2129V133.16ZM91.3482 131.71L91.7413 132.826L92.6845 132.494L92.2914 131.378L91.3482 131.71ZM83.5525 126.187C87.1547 126.187 90.2092 128.503 91.3486 131.711L92.291 131.376C91.0159 127.786 87.5958 125.187 83.5525 125.187V126.187ZM89.2131 134.466C89.2131 131.359 86.6636 128.798 83.5525 128.798V129.798C86.1093 129.798 88.2131 131.909 88.2131 134.466H89.2131ZM83.5525 140.126C86.6593 140.126 89.2131 137.572 89.2131 134.466H88.2131C88.2131 137.02 86.107 139.126 83.5525 139.126V140.126ZM77.8847 134.466C77.8847 137.577 80.4468 140.126 83.5525 140.126V139.126C80.9968 139.126 78.8847 137.022 78.8847 134.466H77.8847ZM83.5525 128.798C80.4417 128.798 77.8847 131.356 77.8847 134.466H78.8847C78.8847 131.908 80.9941 129.798 83.5525 129.798V128.798Z" fill="white"/>
 </g>
 <defs>
  <linearGradient id="paint0_linear_254_8017" x1="-7.50024" y1="115.5" x2="200" y2="100" gradientUnits="userSpaceOnUse">
   <stop stop-color="white"/>
   <stop offset="1" stop-color="white" stop-opacity="0"/>
  </linearGradient>
 </defs>
</svg>


