<?xml version="1.0" encoding="UTF-8"?>
<!DOCTYPE svg PUBLIC "-//W3C//DTD SVG 1.1//EN" "http://www.w3.org/Graphics/SVG/1.1/DTD/svg11.dtd">
<!-- Creator: CorelDRAW 2019 (64-Bit) -->
<svg width="200" height="200" viewBox="0 0 200 200" fill="none" xmlns="http://www.w3.org/2000/svg">
 <rect opacity="0.4" x="1" y="1" width="198" height="198" rx="99" stroke="url(#paint0_linear_523_6545)" stroke-width="2"/>
 <path opacity="0.5" fill-rule="evenodd" clip-rule="evenodd" d="M141.671 95.9265L150.144 104.399L150.144 104.4C150.574 104.935 150.895 105.58 151 106.223C151 106.866 150.785 107.51 150.249 108.046L141.776 116.519C141.347 116.949 140.596 117.27 139.953 117.27H136.735C135.984 117.27 135.341 116.949 134.804 116.412L130.728 112.015L127.082 115.769C126.546 116.198 125.903 116.52 125.151 116.52C124.401 116.52 123.758 116.198 123.221 115.662L119.575 111.908L115.928 115.662C115.392 116.198 114.749 116.52 113.998 116.52C113.247 116.52 112.604 116.305 112.068 115.769L108.421 112.015L104.345 116.412C103.809 116.949 103.166 117.27 102.415 117.27H95.3355C91.152 125.53 82.7861 130.678 73.4548 130.678C59.9405 130.678 49 119.737 49 106.223C49 92.7086 59.9405 81.7681 73.4548 81.7681C82.7857 81.7681 91.1516 86.9163 95.3355 95.1753H139.848C140.491 95.1753 141.134 95.3901 141.671 95.9265ZM137.702 112.122H138.668L144.567 106.33L138.668 100.431H93.6196C92.6545 100.431 91.6886 99.7875 91.2599 98.8223C88.2567 91.6353 81.2846 87.0236 73.4549 87.0236C62.8362 87.0236 54.1485 95.7113 54.1485 106.33C54.1485 116.949 62.8362 125.636 73.4549 125.636C81.2853 125.636 88.2567 121.024 91.2599 113.838C91.5815 112.873 92.5467 112.229 93.6196 112.229H101.235L106.491 106.652C107.027 106.115 107.67 105.793 108.421 105.793C109.172 105.793 109.815 106.008 110.352 106.545L113.998 110.299L117.645 106.545C118.611 105.472 120.434 105.472 121.399 106.545L124.94 110.192L128.586 106.437C129.122 106.008 129.765 105.686 130.516 105.686C131.267 105.686 131.91 106.008 132.447 106.544L137.702 112.122ZM60.3691 106.223C60.3691 101.396 64.3383 97.4276 69.1647 97.4276C73.9911 97.4276 77.9595 101.397 77.9602 106.223C77.9602 111.05 73.9911 115.019 69.1647 115.019C64.3375 115.019 60.3691 111.05 60.3691 106.223ZM65.6252 106.223C65.6252 108.154 67.2344 109.763 69.1647 109.763C71.0949 109.763 72.7042 108.153 72.7042 106.223C72.7042 104.292 71.0949 102.684 69.1647 102.684C67.2337 102.684 65.6252 104.293 65.6252 106.223Z" fill="#3B00B9"/>
 <path fill-rule="evenodd" clip-rule="evenodd" d="M116.895 65.0361C108.85 65.0361 101.342 68.254 95.6576 74.0456H95.6582C94.6923 75.1177 92.9768 75.1177 91.7961 74.0456C90.831 73.0805 90.831 71.4719 91.7961 70.399C98.3389 63.5347 107.241 59.7803 116.787 59.7803C126.226 59.7803 135.129 63.5345 141.778 70.399C142.851 71.3641 142.851 73.0804 141.778 74.0456C141.242 74.582 140.599 74.7968 139.955 74.7968C139.312 74.7968 138.668 74.582 138.132 74.0456C132.555 68.254 124.939 65.0361 116.895 65.0361ZM131.483 81.339C132.019 81.8754 132.663 82.1972 133.413 82.1972C134.056 82.1972 134.7 81.9824 135.236 81.5537C136.309 80.5886 136.309 78.8723 135.343 77.9071C130.624 72.759 123.974 69.8628 117.002 69.8628C110.03 69.8628 103.38 72.759 98.6602 77.9071C97.6951 78.98 97.6951 80.5886 98.7672 81.5537C99.8401 82.5189 101.449 82.5189 102.414 81.4467C106.168 77.3707 111.423 75.1187 116.894 75.1187C122.473 75.011 127.728 77.3707 131.483 81.3391L131.483 81.339ZM116.895 79.7305C112.283 79.7305 108.099 81.7686 105.204 85.3081C104.346 86.381 104.453 88.0966 105.632 88.9547C106.705 89.8128 108.421 89.7058 109.279 88.526C111.209 86.1663 113.999 84.8794 116.895 84.8794C119.898 84.8794 122.686 86.1662 124.51 88.526C125.047 89.1694 125.797 89.4911 126.549 89.4911C127.085 89.4911 127.728 89.2764 128.157 88.9547C129.23 88.0965 129.444 86.3803 128.586 85.3081C125.797 81.7686 121.507 79.7305 116.895 79.7305H116.895Z" fill="#3B00B9"/>
 <defs>
  <linearGradient id="paint0_linear_523_6545" x1="200" y1="100" x2="-0.000238419" y2="100" gradientUnits="userSpaceOnUse">
   <stop stop-color="#3B00B9" stop-opacity="0"/>
   <stop offset="1" stop-color="#3B00B9"/>
  </linearGradient>
 </defs>
</svg>





