<?xml version="1.0" encoding="UTF-8"?>
<!DOCTYPE svg PUBLIC "-//W3C//DTD SVG 1.1//EN" "http://www.w3.org/Graphics/SVG/1.1/DTD/svg11.dtd">
<!-- Creator: CorelDRAW 2019 (64-Bit) -->
<svg width="200" height="200" viewBox="0 0 200 200" fill="none" xmlns="http://www.w3.org/2000/svg">
 <rect opacity="0.4" x="1" y="1" width="198" height="198" rx="99" stroke="url(#paint0_linear_523_6529)" stroke-width="2"/>
 <path d="M47.9473 154.851L51.4662 156.143C52.0605 154.527 52.7544 152.969 53.4952 151.44L62.1068 150.004L67.0495 154.947C67.4044 155.303 67.8823 155.498 68.3753 155.498C68.4783 155.498 68.5796 155.491 68.685 155.472L79.9349 153.597C80.4446 153.513 80.8983 153.219 81.1854 152.787L84.7269 147.475L90.0387 143.934C90.5619 143.585 90.8749 143 90.8749 142.374V136.749C90.8749 136.38 90.7644 136.015 90.5602 135.708L87.0162 130.393L85.7355 123.99C90.541 122.544 95.5882 121.749 100.762 121.749C106.333 121.749 111.762 122.649 116.893 124.318L115.305 130.67C115.196 131.105 115.247 131.564 115.447 131.964L118.594 138.254L113.925 142.923C113.782 143.066 113.664 143.231 113.572 143.411L111.697 147.161C111.398 147.762 111.44 148.481 111.814 149.039L115.564 154.664C115.915 155.191 116.506 155.498 117.125 155.498C117.247 155.498 117.37 155.487 117.492 155.461L126.685 153.623H133.999C134.625 153.623 135.211 153.31 135.56 152.789L138.752 147.999H146.205C147.699 150.577 149.008 153.288 150.058 156.146L153.577 154.854C146.294 135.022 128.375 121.085 107.75 118.479V106.034L110.463 104.676C111.099 104.359 111.5 103.711 111.5 103V93.6252C111.5 89.8753 109.273 86.6561 106.081 85.1576C107.109 83.8736 107.75 82.2682 107.75 80.5004C107.75 76.3645 104.386 73.0005 100.25 73.0005C96.1144 73.0005 92.7503 76.3645 92.7503 80.5004C92.7503 82.2682 93.3915 83.8736 94.4194 85.1576C91.2277 86.6559 89.0004 89.8753 89.0004 93.6252V103C89.0004 103.711 89.4014 104.359 90.0375 104.678L92.7503 106.034V118.599C72.5567 121.532 55.1115 135.351 47.9481 154.852L47.9473 154.851ZM83.4132 131.49C83.4601 131.73 83.5555 131.959 83.6911 132.162L87.1254 137.316V141.37L82.3351 144.563C82.1292 144.7 81.9526 144.876 81.8162 145.082L78.5166 150.033L69.0196 151.615L64.077 146.673C63.6492 146.243 63.0441 146.047 62.4422 146.15L55.7693 147.261C61.8737 137.125 71.227 129.384 82.156 125.214L83.4132 131.49ZM143.805 144.248H137.75C137.124 144.248 136.539 144.561 136.19 145.082L132.998 149.872H126.501C126.377 149.872 126.255 149.883 126.133 149.91L117.99 151.54L115.539 147.865L116.792 145.36L122.201 139.951C122.771 139.381 122.913 138.509 122.553 137.787L119.114 130.908L120.44 125.605C129.815 129.414 137.956 135.901 143.806 144.248L143.805 144.248ZM100.252 76.7485C102.32 76.7485 104.002 78.4301 104.002 80.4985C104.002 82.5668 102.32 84.2484 100.252 84.2484C98.1832 84.2484 96.5016 82.5668 96.5016 80.4985C96.5016 78.4301 98.1832 76.7485 100.252 76.7485ZM95.4645 103.195L92.7517 101.84V93.6237C92.7517 90.5223 95.2753 87.9987 98.3766 87.9987H102.127C105.228 87.9987 107.751 90.5223 107.751 93.6237V101.84L105.039 103.198C104.402 103.514 104.002 104.163 104.002 104.874V118.126C102.925 118.062 101.851 117.998 100.764 117.998C99.3334 117.998 97.9121 118.056 96.5017 118.165V104.874C96.5017 104.163 96.1007 103.514 95.4646 103.195L95.4645 103.195Z" fill="#3B00B9"/>
 <path opacity="0.5" d="M156.498 59.8748C156.498 50.571 148.927 43 139.623 43C130.953 43 123.797 49.5759 122.859 57.9998H77.639C76.7015 49.5759 69.5449 43 60.8748 43C51.571 43 44 50.571 44 59.8748C44 68.5449 50.5759 75.7015 58.9998 76.639V89.9847C50.5759 90.9222 44 98.0788 44 106.749C44 116.053 51.571 123.624 60.8748 123.624C69.5449 123.624 76.7015 117.048 77.639 108.624H87.1244V104.874H77.639C76.771 97.0668 70.5576 90.8526 62.7497 89.9847V76.639C70.5569 75.771 76.7711 69.5576 77.639 61.7497H122.859C123.727 69.5569 129.94 75.7711 137.748 76.639V89.9847C129.941 90.8527 123.727 97.0661 122.859 104.874H113.374V108.624H122.859C123.797 117.048 130.953 123.624 139.623 123.624C148.927 123.624 156.498 116.053 156.498 106.749C156.498 98.0788 149.922 90.9222 141.498 89.9847V76.639C149.922 75.7015 156.498 68.5449 156.498 59.8748ZM139.623 61.7497C137.555 61.7497 135.873 60.0681 135.873 57.9998C135.873 55.9315 137.555 54.2498 139.623 54.2498C141.692 54.2498 143.373 55.9315 143.373 57.9998C143.373 60.0681 141.692 61.7497 139.623 61.7497ZM137.748 65.4997H141.498C144.442 65.4997 146.839 67.7814 147.076 70.665C144.958 72.1332 142.391 72.9996 139.623 72.9996C136.856 72.9996 134.289 72.1332 132.17 70.665C132.408 67.7814 134.804 65.4997 137.748 65.4997ZM60.8743 61.7497C58.806 61.7497 57.1244 60.0681 57.1244 57.9998C57.1244 55.9315 58.806 54.2498 60.8743 54.2498C62.9427 54.2498 64.6243 55.9315 64.6243 57.9998C64.6243 60.0681 62.9427 61.7497 60.8743 61.7497ZM58.9994 65.4997H62.7493C65.6931 65.4997 68.0897 67.7814 68.3273 70.665C66.2088 72.1332 63.6416 72.9996 60.8743 72.9996C58.1071 72.9996 55.5398 72.1332 53.4214 70.665C53.6591 67.7814 56.0556 65.4997 58.9994 65.4997ZM53.4214 117.54C53.6591 114.657 56.0556 112.375 58.9994 112.375H62.7493C65.6931 112.375 68.0897 114.657 68.3273 117.54C66.2088 119.009 63.6416 119.875 60.8743 119.875C58.1071 119.875 55.5398 119.009 53.4214 117.54ZM60.8743 108.625C58.806 108.625 57.1244 106.944 57.1244 104.875C57.1244 102.807 58.806 101.125 60.8743 101.125C62.9427 101.125 64.6243 102.807 64.6243 104.875C64.6243 106.944 62.9427 108.625 60.8743 108.625ZM73.9992 106.75C73.9992 109.655 73.0391 112.334 71.4344 114.51C70.5455 112.309 68.8454 110.537 66.706 109.533C67.7331 108.249 68.3743 106.643 68.3743 104.875C68.3743 100.74 65.0103 97.3756 60.8744 97.3756C56.7385 97.3756 53.3745 100.74 53.3745 104.875C53.3745 106.643 54.0157 108.249 55.0436 109.533C52.9041 110.538 51.2032 112.309 50.3152 114.51C48.7097 112.334 47.7496 109.655 47.7496 106.75C47.7496 99.5132 53.6374 93.6254 60.8744 93.6254C68.1114 93.6254 73.9992 99.5132 73.9992 106.75H73.9992ZM71.4344 67.635C70.5455 65.4337 68.8454 63.6616 66.706 62.6572C67.7331 61.3732 68.3743 59.7678 68.3743 58C68.3743 53.8641 65.0103 50.5001 60.8744 50.5001C56.7385 50.5001 53.3745 53.8641 53.3745 58C53.3745 59.7678 54.0157 61.3733 55.0436 62.6572C52.9041 63.6625 51.2032 65.4337 50.3152 67.635C48.7097 65.4588 47.7496 62.7794 47.7496 59.8748C47.7496 52.6378 53.6374 46.7499 60.8744 46.7499C68.1114 46.7499 73.9992 52.6378 73.9992 59.8748C73.9992 62.7794 73.0391 65.4588 71.4345 67.635H71.4344ZM126.499 59.8748C126.499 52.6378 132.387 46.7499 139.623 46.7499C146.86 46.7499 152.748 52.6378 152.748 59.8748C152.748 62.7794 151.788 65.4588 150.184 67.635C149.295 65.4337 147.595 63.6616 145.455 62.6572C146.482 61.3732 147.123 59.7678 147.123 58C147.123 53.8641 143.759 50.5001 139.624 50.5001C135.488 50.5001 132.124 53.8641 132.124 58C132.124 59.7678 132.765 61.3733 133.793 62.6572C131.653 63.6625 129.952 65.4337 129.064 67.635C127.459 65.4588 126.499 62.7794 126.499 59.8748H126.499ZM132.171 117.54C132.408 114.657 134.805 112.375 137.749 112.375H141.498C144.442 112.375 146.839 114.657 147.076 117.54C144.958 119.009 142.391 119.875 139.623 119.875C136.856 119.875 134.289 119.009 132.171 117.54ZM139.623 108.625C137.555 108.625 135.874 106.944 135.874 104.875C135.874 102.807 137.555 101.125 139.623 101.125C141.692 101.125 143.373 102.807 143.373 104.875C143.373 106.944 141.692 108.625 139.623 108.625ZM152.748 106.75C152.748 109.655 151.788 112.334 150.184 114.51C149.295 112.309 147.595 110.537 145.455 109.533C146.482 108.249 147.123 106.643 147.123 104.875C147.123 100.74 143.759 97.3756 139.624 97.3756C135.488 97.3756 132.124 100.74 132.124 104.875C132.124 106.643 132.765 108.249 133.793 109.533C131.653 110.538 129.952 112.309 129.064 114.51C127.459 112.334 126.499 109.655 126.499 106.75C126.499 99.5132 132.387 93.6254 139.624 93.6254C146.861 93.6254 152.748 99.5132 152.748 106.75H152.748Z" fill="#3B00B9"/>
 <defs>
  <linearGradient id="paint0_linear_523_6529" x1="29.4998" y1="24" x2="184" y2="176" gradientUnits="userSpaceOnUse">
   <stop stop-color="#3700B9"/>
   <stop offset="1" stop-color="#3B00B9" stop-opacity="0"/>
  </linearGradient>
 </defs>
</svg>
