<svg width="1426" height="1274" viewBox="0 0 1426 1274" fill="none" xmlns="http://www.w3.org/2000/svg">
    <g opacity="0.5" filter="url(#filter0_f_1_2)">
        <path d="M1030.67 1121.22C910.401 920.238 1187.27 681.026 1388.25 560.76C1589.23 440.494 1849.65 505.925 1969.91 706.904C2090.18 907.882 2024.75 1168.3 1823.77 1288.57C1622.79 1408.83 1150.93 1322.19 1030.67 1121.22Z" fill="white"/>
    </g>
    <rect opacity="0.4" x="1032" y="169" width="198" height="198" rx="99" stroke="url(#paint0_linear_1_2)" stroke-width="2"/>
    <path d="M1180.99 232.637C1180.99 228.15 1175.77 224.498 1165.46 221.778C1156.23 219.341 1143.99 218 1131 218C1118 218 1105.76 219.341 1096.53 221.778C1086.23 224.498 1081 228.15 1081 232.637V302.31C1081 306.996 1086.36 311.004 1096.49 313.9C1105.73 316.541 1117.99 317.996 1131 317.996C1144.01 317.996 1156.26 316.541 1165.5 313.9C1175.64 311.004 1180.99 306.997 1180.99 302.31L1180.99 232.637ZM1177.07 274.86C1177.07 279.173 1163.5 285.004 1140.8 286.341V274.577C1150.08 274.036 1158.62 272.728 1165.5 270.764C1170.59 269.311 1174.47 267.58 1177.07 265.623L1177.07 274.86ZM1084.92 265.623C1087.53 267.584 1091.41 269.311 1096.49 270.764C1103.37 272.724 1111.91 274.036 1121.19 274.577V286.341C1098.49 285.004 1084.92 279.173 1084.92 274.859L1084.92 265.623ZM1125.11 274.76C1127.05 274.827 1129.02 274.859 1131 274.859C1132.98 274.859 1134.94 274.826 1136.88 274.76V286.524C1134.97 286.59 1133.01 286.622 1131 286.624C1128.98 286.625 1127.02 286.592 1125.11 286.524V274.76ZM1177.07 259.175C1177.07 263.618 1162.73 269.646 1138.87 270.758H1138.84C1138.76 270.759 1138.69 270.763 1138.62 270.772C1136.17 270.883 1133.63 270.938 1131 270.938C1128.36 270.938 1125.82 270.882 1123.38 270.769V270.77C1123.3 270.761 1123.23 270.757 1123.15 270.756H1123.12C1099.26 269.646 1084.92 263.617 1084.92 259.175V238.745C1087.51 240.553 1091.38 242.138 1096.53 243.5C1105.76 245.935 1118 247.279 1131 247.279C1143.99 247.279 1156.23 245.935 1165.46 243.5C1170.6 242.144 1174.47 240.559 1177.07 238.745L1177.07 259.175ZM1097.53 225.569C1106.45 223.216 1118.33 221.92 1131 221.92C1143.67 221.92 1155.55 223.216 1164.47 225.569C1173.77 228.026 1177.07 230.912 1177.07 232.638C1177.07 234.363 1173.77 237.251 1164.47 239.708C1155.55 242.06 1143.67 243.356 1131 243.356C1118.33 243.356 1106.45 242.06 1097.53 239.708C1088.22 237.251 1084.92 234.365 1084.92 232.638C1084.92 230.91 1088.22 228.026 1097.53 225.569V225.569ZM1131 314.072C1102.45 314.072 1084.92 307.22 1084.92 302.308V281.307C1087.53 283.268 1091.41 284.997 1096.49 286.448C1105.73 289.089 1117.99 290.543 1131 290.543C1144.01 290.543 1156.26 289.088 1165.5 286.448C1170.59 284.997 1174.47 283.263 1177.07 281.307V302.308C1177.07 307.22 1159.54 314.072 1131 314.072H1131Z" fill="white"/>
    <path opacity="0.5" d="M1096.53 252.541C1096.49 252.423 1096.42 252.31 1096.35 252.204C1096.21 251.989 1096.03 251.805 1095.81 251.663C1095.71 251.592 1095.59 251.532 1095.48 251.482C1095.36 251.433 1095.24 251.396 1095.12 251.371C1094.86 251.32 1094.6 251.32 1094.35 251.371C1094.23 251.395 1094.1 251.433 1093.99 251.482C1093.87 251.531 1093.75 251.592 1093.65 251.663C1093.43 251.805 1093.25 251.989 1093.1 252.204C1093.03 252.31 1092.97 252.423 1092.92 252.541C1092.87 252.66 1092.84 252.783 1092.81 252.91C1092.76 253.162 1092.76 253.422 1092.81 253.675C1092.84 253.8 1092.87 253.923 1092.92 254.041C1092.97 254.16 1093.03 254.274 1093.1 254.38C1093.25 254.595 1093.43 254.779 1093.65 254.922C1093.75 254.993 1093.87 255.053 1093.99 255.102C1094.1 255.151 1094.23 255.19 1094.35 255.215C1094.6 255.265 1094.86 255.265 1095.12 255.215C1095.24 255.19 1095.37 255.151 1095.49 255.102C1095.6 255.053 1095.72 254.992 1095.82 254.922C1096.04 254.779 1096.22 254.595 1096.36 254.38C1096.43 254.274 1096.5 254.16 1096.54 254.041C1096.59 253.926 1096.62 253.806 1096.65 253.684C1096.7 253.432 1096.7 253.172 1096.65 252.92C1096.62 252.79 1096.58 252.663 1096.53 252.541H1096.53Z" fill="white"/>
    <path opacity="0.5" d="M1105.62 253.623C1105.51 253.551 1105.4 253.491 1105.28 253.443C1105.16 253.393 1105.04 253.355 1104.91 253.331C1104.66 253.28 1104.4 253.28 1104.15 253.331C1104.02 253.355 1103.9 253.393 1103.78 253.443C1103.66 253.491 1103.55 253.551 1103.44 253.623C1103.33 253.694 1103.23 253.775 1103.14 253.866C1102.77 254.235 1102.57 254.733 1102.57 255.253C1102.57 255.381 1102.58 255.509 1102.61 255.635C1102.63 255.76 1102.67 255.883 1102.72 256.001C1102.77 256.12 1102.83 256.234 1102.9 256.341C1103.04 256.556 1103.22 256.74 1103.44 256.882C1103.55 256.953 1103.66 257.013 1103.78 257.062C1103.9 257.112 1104.02 257.15 1104.15 257.176C1104.27 257.201 1104.41 257.214 1104.54 257.213C1105.06 257.211 1105.55 257.005 1105.92 256.639C1106.01 256.548 1106.1 256.448 1106.17 256.341C1106.24 256.234 1106.3 256.12 1106.35 256.001C1106.4 255.883 1106.43 255.76 1106.46 255.635C1106.48 255.509 1106.49 255.38 1106.49 255.253C1106.49 254.733 1106.28 254.235 1105.91 253.866C1105.82 253.775 1105.72 253.694 1105.62 253.623L1105.62 253.623Z" fill="white"/>
    <path opacity="0.5" d="M1115.42 255.584C1115.31 255.513 1115.2 255.453 1115.08 255.403C1114.96 255.354 1114.84 255.316 1114.71 255.292C1114.46 255.241 1114.2 255.241 1113.95 255.292C1113.82 255.316 1113.7 255.354 1113.58 255.403C1113.46 255.452 1113.35 255.513 1113.24 255.584C1113.03 255.725 1112.84 255.91 1112.7 256.125C1112.63 256.231 1112.57 256.344 1112.52 256.462C1112.47 256.581 1112.43 256.704 1112.41 256.83C1112.36 257.083 1112.36 257.343 1112.41 257.595C1112.43 257.721 1112.47 257.844 1112.52 257.962C1112.57 258.081 1112.63 258.195 1112.7 258.301C1112.84 258.516 1113.03 258.7 1113.24 258.843C1113.35 258.914 1113.46 258.974 1113.58 259.023C1113.7 259.072 1113.82 259.11 1113.95 259.136C1114.2 259.186 1114.46 259.186 1114.71 259.136C1114.84 259.11 1114.96 259.072 1115.08 259.023C1115.44 258.875 1115.75 258.624 1115.96 258.301C1116.03 258.195 1116.09 258.081 1116.14 257.962C1116.19 257.844 1116.23 257.721 1116.25 257.595C1116.28 257.469 1116.29 257.342 1116.29 257.213C1116.29 256.694 1116.08 256.196 1115.72 255.827C1115.63 255.736 1115.53 255.654 1115.42 255.584L1115.42 255.584Z" fill="white"/>
    <path opacity="0.5" d="M1096.53 295.678C1096.49 295.56 1096.43 295.446 1096.35 295.339C1096.21 295.125 1096.03 294.94 1095.81 294.798C1095.71 294.726 1095.59 294.666 1095.47 294.618C1095.36 294.568 1095.23 294.53 1095.11 294.504C1094.85 294.454 1094.59 294.454 1094.34 294.504C1094.22 294.53 1094.09 294.569 1093.97 294.618C1093.61 294.765 1093.31 295.016 1093.1 295.339C1093.02 295.446 1092.96 295.56 1092.91 295.678C1092.86 295.797 1092.83 295.92 1092.8 296.045C1092.75 296.298 1092.75 296.558 1092.8 296.81C1092.83 296.936 1092.86 297.059 1092.91 297.177C1092.96 297.295 1093.02 297.409 1093.1 297.516C1093.24 297.731 1093.42 297.915 1093.64 298.057C1093.74 298.128 1093.86 298.189 1093.98 298.238C1094.09 298.287 1094.22 298.325 1094.34 298.349C1094.59 298.401 1094.85 298.401 1095.11 298.349C1095.23 298.325 1095.36 298.287 1095.47 298.238C1095.59 298.189 1095.71 298.128 1095.81 298.057C1096.03 297.915 1096.21 297.731 1096.35 297.516C1096.43 297.409 1096.49 297.295 1096.53 297.177C1096.58 297.062 1096.62 296.942 1096.65 296.82C1096.7 296.568 1096.7 296.308 1096.65 296.055C1096.62 295.926 1096.58 295.8 1096.53 295.678L1096.53 295.678Z" fill="white"/>
    <path opacity="0.5" d="M1106.34 297.639C1106.29 297.52 1106.23 297.407 1106.16 297.3C1105.94 296.978 1105.64 296.727 1105.28 296.579C1105.16 296.529 1105.04 296.491 1104.91 296.465C1104.66 296.415 1104.4 296.415 1104.15 296.465C1104.02 296.491 1103.9 296.529 1103.78 296.579C1103.42 296.725 1103.11 296.977 1102.9 297.3C1102.83 297.407 1102.77 297.52 1102.72 297.639C1102.67 297.757 1102.63 297.88 1102.61 298.006C1102.55 298.258 1102.55 298.518 1102.61 298.77C1102.63 298.897 1102.67 299.019 1102.72 299.137C1102.77 299.256 1102.83 299.369 1102.9 299.476C1103.04 299.692 1103.22 299.876 1103.44 300.017C1103.55 300.089 1103.66 300.149 1103.78 300.198C1103.89 300.248 1104.02 300.285 1104.15 300.31C1104.4 300.362 1104.66 300.362 1104.91 300.31C1105.04 300.285 1105.16 300.248 1105.28 300.198C1105.4 300.149 1105.51 300.089 1105.62 300.017C1105.83 299.876 1106.01 299.692 1106.16 299.476C1106.23 299.369 1106.29 299.256 1106.34 299.137C1106.39 299.019 1106.42 298.896 1106.45 298.77C1106.5 298.518 1106.5 298.258 1106.45 298.006C1106.42 297.88 1106.39 297.757 1106.34 297.639H1106.34Z" fill="white"/>
    <path opacity="0.5" d="M1116.14 299.598C1116.09 299.479 1116.03 299.367 1115.96 299.26C1115.74 298.938 1115.44 298.687 1115.08 298.539C1114.96 298.489 1114.84 298.451 1114.71 298.425C1114.46 298.376 1114.2 298.376 1113.95 298.425C1113.82 298.451 1113.7 298.489 1113.58 298.539C1113.46 298.588 1113.35 298.648 1113.24 298.719C1113.03 298.861 1112.84 299.045 1112.7 299.26C1112.63 299.367 1112.57 299.479 1112.52 299.598C1112.47 299.716 1112.43 299.84 1112.41 299.966C1112.36 300.218 1112.36 300.479 1112.41 300.73C1112.43 300.856 1112.47 300.979 1112.52 301.097C1112.57 301.216 1112.63 301.33 1112.7 301.436C1112.84 301.652 1113.03 301.836 1113.24 301.978C1113.35 302.049 1113.46 302.109 1113.58 302.158C1113.7 302.208 1113.82 302.245 1113.95 302.27C1114.2 302.322 1114.46 302.322 1114.71 302.27C1114.84 302.245 1114.96 302.208 1115.08 302.158C1115.2 302.109 1115.31 302.049 1115.42 301.978C1115.63 301.836 1115.82 301.652 1115.96 301.436C1116.03 301.33 1116.09 301.216 1116.14 301.097C1116.19 300.979 1116.23 300.857 1116.25 300.73C1116.3 300.479 1116.3 300.218 1116.25 299.966C1116.23 299.84 1116.19 299.716 1116.14 299.598L1116.14 299.598Z" fill="white"/>
    <rect opacity="0.4" x="964" y="588" width="198" height="198" rx="99" stroke="url(#paint1_linear_1_2)" stroke-width="2"/>
    <path d="M1108.67 689.178C1109.27 690.861 1110.62 692.162 1112.33 692.684C1114.04 693.206 1115.89 692.889 1117.33 691.828C1118.76 690.766 1119.61 689.087 1119.61 687.303C1119.61 685.518 1118.76 683.84 1117.33 682.778C1115.89 681.717 1114.04 681.399 1112.33 681.921C1110.62 682.443 1109.27 683.744 1108.67 685.427H1097.07V669.319L1101.6 664.791H1104.92C1105.52 666.473 1106.87 667.774 1108.58 668.297C1110.29 668.818 1112.14 668.501 1113.57 667.44C1115.01 666.378 1115.86 664.7 1115.86 662.915C1115.86 661.13 1115.01 659.452 1113.57 658.39C1112.14 657.329 1110.29 657.011 1108.58 657.533C1106.87 658.056 1105.52 659.356 1104.92 661.039H1100.82C1100.33 661.039 1099.85 661.237 1099.5 661.588L1094.85 666.238L1083.94 660.461V649.783H1089.91C1090.51 651.466 1091.86 652.766 1093.57 653.289C1095.28 653.811 1097.13 653.493 1098.57 652.432C1100 651.37 1100.85 649.692 1100.85 647.907C1100.85 646.123 1100 644.444 1098.57 643.382C1097.13 642.321 1095.28 642.004 1093.57 642.526C1091.86 643.048 1090.51 644.349 1089.91 646.031H1082.06C1081.03 646.031 1080.19 646.871 1080.19 647.907V658.475L1065.18 650.534V641.934C1066.86 641.34 1068.16 639.982 1068.69 638.275C1069.21 636.569 1068.89 634.716 1067.83 633.281C1066.77 631.847 1065.09 631 1063.3 631C1061.52 631 1059.84 631.847 1058.78 633.281C1057.72 634.716 1057.4 636.569 1057.92 638.275C1058.44 639.982 1059.75 641.34 1061.43 641.934V650.534L1046.42 658.479V647.907C1046.42 647.41 1046.22 646.933 1045.87 646.581C1045.52 646.229 1045.04 646.031 1044.54 646.031H1036.69C1036.1 644.349 1034.74 643.048 1033.04 642.526C1031.33 642.004 1029.48 642.321 1028.04 643.382C1026.61 644.444 1025.76 646.123 1025.76 647.907C1025.76 649.692 1026.61 651.37 1028.04 652.432C1029.48 653.493 1031.33 653.811 1033.04 653.289C1034.74 652.766 1036.1 651.466 1036.69 649.783H1042.67V660.461L1031.76 666.238L1027.11 661.588H1027.11C1026.76 661.237 1026.28 661.039 1025.78 661.039H1021.69C1021.09 659.356 1019.73 658.056 1018.03 657.533C1016.32 657.011 1014.47 657.329 1013.03 658.39C1011.6 659.452 1010.75 661.13 1010.75 662.915C1010.75 664.7 1011.6 666.378 1013.03 667.44C1014.47 668.501 1016.32 668.818 1018.03 668.297C1019.73 667.774 1021.09 666.473 1021.69 664.791H1025.01L1029.54 669.319V685.427H1017.93C1017.34 683.744 1015.98 682.444 1014.28 681.921C1012.57 681.399 1010.72 681.717 1009.28 682.778C1007.85 683.84 1007 685.518 1007 687.303C1007 689.087 1007.85 690.766 1009.28 691.828C1010.72 692.889 1012.57 693.206 1014.28 692.684C1015.98 692.162 1017.34 690.861 1017.93 689.178H1029.54V705.286L1025.01 709.815H1021.69C1021.09 708.132 1019.73 706.831 1018.03 706.309C1016.32 705.787 1014.47 706.104 1013.03 707.165C1011.6 708.227 1010.75 709.906 1010.75 711.69C1010.75 713.475 1011.6 715.153 1013.03 716.215C1014.47 717.276 1016.32 717.594 1018.03 717.072C1019.73 716.549 1021.09 715.249 1021.69 713.566H1025.78C1026.28 713.566 1026.76 713.368 1027.11 713.017L1031.76 708.368L1042.67 714.144V724.822H1036.69C1036.1 723.14 1034.74 721.839 1033.04 721.316C1031.33 720.794 1029.48 721.112 1028.04 722.173C1026.61 723.235 1025.76 724.913 1025.76 726.698C1025.76 728.483 1026.61 730.161 1028.04 731.223C1029.48 732.284 1031.33 732.601 1033.04 732.08C1034.74 731.557 1036.1 730.256 1036.69 728.574H1044.54C1045.04 728.574 1045.52 728.376 1045.87 728.024C1046.22 727.673 1046.42 727.195 1046.42 726.698V716.13L1061.43 724.071V732.668C1059.75 733.262 1058.44 734.62 1057.92 736.326C1057.4 738.032 1057.72 739.886 1058.78 741.321C1059.84 742.755 1061.52 743.601 1063.3 743.601C1065.09 743.601 1066.77 742.755 1067.83 741.321C1068.89 739.886 1069.21 738.032 1068.69 736.326C1068.16 734.62 1066.86 733.262 1065.18 732.668V724.071L1080.19 716.127V726.698C1080.19 727.195 1080.39 727.673 1080.74 728.024C1081.09 728.376 1081.57 728.574 1082.06 728.574H1089.91C1090.51 730.256 1091.86 731.557 1093.57 732.08C1095.28 732.601 1097.13 732.284 1098.57 731.223C1100 730.161 1100.85 728.483 1100.85 726.698C1100.85 724.913 1100 723.235 1098.57 722.173C1097.13 721.112 1095.28 720.794 1093.57 721.316C1091.86 721.839 1090.51 723.139 1089.91 724.822H1083.94V714.144L1094.85 708.368L1099.5 713.017H1099.5C1099.85 713.368 1100.33 713.566 1100.82 713.566H1104.92C1105.52 715.249 1106.87 716.549 1108.58 717.072C1110.29 717.594 1112.14 717.276 1113.57 716.215C1115.01 715.153 1115.86 713.475 1115.86 711.69C1115.86 709.906 1115.01 708.227 1113.57 707.165C1112.14 706.104 1110.29 705.787 1108.58 706.309C1106.87 706.831 1105.52 708.132 1104.92 709.815H1101.6L1097.07 705.286V689.178H1108.67ZM1113.96 685.426C1114.71 685.426 1115.4 685.884 1115.69 686.585C1115.98 687.286 1115.82 688.092 1115.28 688.629C1114.75 689.166 1113.94 689.326 1113.24 689.035C1112.54 688.745 1112.08 688.061 1112.08 687.302C1112.08 686.266 1112.92 685.426 1113.96 685.426ZM1110.2 661.038C1110.96 661.038 1111.65 661.496 1111.94 662.197C1112.23 662.898 1112.07 663.704 1111.53 664.241C1110.99 664.778 1110.19 664.938 1109.49 664.647C1108.79 664.357 1108.33 663.673 1108.33 662.914C1108.33 661.878 1109.17 661.038 1110.2 661.038ZM1095.2 646.03C1095.95 646.03 1096.64 646.487 1096.93 647.188C1097.22 647.889 1097.06 648.696 1096.52 649.233C1095.99 649.77 1095.18 649.93 1094.48 649.639C1093.78 649.349 1093.32 648.665 1093.32 647.906C1093.32 646.87 1094.16 646.03 1095.2 646.03ZM1031.41 649.782C1030.65 649.782 1029.97 649.325 1029.68 648.624C1029.39 647.923 1029.55 647.116 1030.08 646.58C1030.62 646.043 1031.43 645.883 1032.13 646.173C1032.83 646.463 1033.29 647.147 1033.29 647.906C1033.29 648.404 1033.09 648.881 1032.74 649.233C1032.39 649.585 1031.91 649.782 1031.41 649.782ZM1016.4 664.79C1015.64 664.79 1014.96 664.333 1014.67 663.632C1014.38 662.931 1014.54 662.125 1015.08 661.588C1015.61 661.051 1016.42 660.891 1017.12 661.181C1017.82 661.471 1018.28 662.156 1018.28 662.914C1018.28 663.412 1018.08 663.889 1017.73 664.241C1017.38 664.593 1016.9 664.79 1016.4 664.79ZM1012.65 689.178C1011.89 689.178 1011.21 688.721 1010.92 688.02C1010.63 687.319 1010.79 686.513 1011.32 685.976C1011.86 685.439 1012.67 685.279 1013.37 685.57C1014.07 685.859 1014.53 686.544 1014.53 687.302C1014.53 687.8 1014.33 688.277 1013.98 688.629C1013.63 688.981 1013.15 689.178 1012.65 689.178ZM1016.4 713.567C1015.64 713.567 1014.96 713.109 1014.67 712.408C1014.38 711.707 1014.54 710.901 1015.08 710.364C1015.61 709.827 1016.42 709.667 1017.12 709.958C1017.82 710.248 1018.28 710.932 1018.28 711.691C1018.28 712.188 1018.08 712.665 1017.73 713.017C1017.38 713.369 1016.9 713.567 1016.4 713.567ZM1031.41 728.575C1030.65 728.575 1029.97 728.117 1029.68 727.416C1029.39 726.715 1029.55 725.909 1030.08 725.372C1030.62 724.835 1031.43 724.675 1032.13 724.966C1032.83 725.256 1033.29 725.94 1033.29 726.699C1033.29 727.196 1033.09 727.673 1032.74 728.025C1032.39 728.377 1031.91 728.575 1031.41 728.575ZM1095.2 724.823C1095.95 724.823 1096.64 725.28 1096.93 725.981C1097.22 726.682 1097.06 727.488 1096.52 728.025C1095.99 728.562 1095.18 728.722 1094.48 728.431C1093.78 728.142 1093.32 727.457 1093.32 726.699C1093.32 725.663 1094.16 724.823 1095.2 724.823ZM1110.2 709.815C1110.96 709.815 1111.65 710.272 1111.94 710.973C1112.23 711.674 1112.07 712.48 1111.53 713.017C1110.99 713.554 1110.19 713.714 1109.49 713.423C1108.79 713.134 1108.33 712.449 1108.33 711.691C1108.33 710.655 1109.17 709.815 1110.2 709.815ZM1063.3 634.774C1064.06 634.774 1064.75 635.231 1065.04 635.932C1065.33 636.633 1065.17 637.44 1064.63 637.977C1064.09 638.514 1063.29 638.674 1062.59 638.383C1061.88 638.093 1061.43 637.409 1061.43 636.65C1061.43 635.614 1062.27 634.774 1063.3 634.774ZM1063.3 739.831C1062.54 739.831 1061.86 739.373 1061.57 738.672C1061.28 737.971 1061.44 737.165 1061.98 736.628C1062.51 736.091 1063.32 735.931 1064.02 736.222C1064.72 736.512 1065.18 737.196 1065.18 737.955C1065.18 738.452 1064.98 738.93 1064.63 739.281C1064.28 739.633 1063.8 739.831 1063.3 739.831V739.831ZM1093.32 704.937L1063.3 720.825L1033.29 704.937V669.668L1063.3 653.776L1093.32 669.668V704.937Z" fill="white"/>
    <path opacity="0.5" d="M1062.47 657.484L1036.2 670.616C1035.56 670.934 1035.16 671.584 1035.16 672.295V702.311C1035.16 703.025 1035.56 703.68 1036.2 703.999L1062.47 717.131C1062.99 717.395 1063.61 717.395 1064.14 717.131L1090.41 703.999C1091.04 703.68 1091.45 703.025 1091.44 702.311V672.295C1091.44 671.584 1091.04 670.934 1090.41 670.616L1064.14 657.484C1063.61 657.22 1062.99 657.22 1062.47 657.484V657.484ZM1087.69 673.454V701.152L1063.3 713.346L1038.92 701.152V673.454L1063.3 661.26L1087.69 673.454Z" fill="white"/>
    <path d="M1050.17 686.859L1046.23 678.959C1045.85 678.169 1044.97 677.749 1044.11 677.95C1043.26 678.152 1042.66 678.919 1042.67 679.798V696.682H1046.42V687.744L1050.37 695.645V695.644C1050.76 696.424 1051.63 696.833 1052.48 696.633C1053.33 696.434 1053.92 695.677 1053.92 694.806V677.921H1050.17V686.859Z" fill="white"/>
    <path d="M1057.68 679.798V696.682H1061.43V689.178H1067.06V685.426H1061.43V681.674H1068.93V677.922H1059.55C1058.52 677.922 1057.68 678.762 1057.68 679.798Z" fill="white"/>
    <path d="M1076.44 696.682H1080.19V681.674H1083.94V677.922H1072.68V681.674H1076.44V696.682Z" fill="white"/>
    <rect opacity="0.4" x="725" y="301" width="198" height="198" rx="99" stroke="url(#paint2_linear_1_2)" stroke-width="2"/>
    <path d="M771.947 454.851L775.466 456.143C776.06 454.527 776.754 452.969 777.495 451.44L786.106 450.004L791.049 454.947C791.404 455.303 791.882 455.498 792.375 455.498C792.478 455.498 792.579 455.491 792.684 455.472L803.934 453.597C804.444 453.513 804.898 453.219 805.185 452.787L808.726 447.475L814.038 443.934C814.561 443.585 814.874 443 814.874 442.374V436.749C814.874 436.38 814.764 436.015 814.56 435.708L811.016 430.393L809.735 423.99C814.54 422.544 819.588 421.749 824.761 421.749C830.332 421.749 835.762 422.649 840.892 424.318L839.304 430.67C839.195 431.105 839.246 431.564 839.446 431.964L842.593 438.254L837.924 442.923C837.782 443.066 837.664 443.231 837.572 443.411L835.697 447.161C835.397 447.762 835.44 448.481 835.813 449.039L839.563 454.664C839.914 455.191 840.505 455.498 841.124 455.498C841.246 455.498 841.369 455.487 841.491 455.461L850.685 453.623H857.999C858.625 453.623 859.21 453.31 859.559 452.789L862.751 447.999H870.204C871.698 450.577 873.008 453.288 874.057 456.146L877.576 454.854C870.293 435.022 852.374 421.085 831.75 418.479V406.034L834.462 404.676C835.099 404.359 835.499 403.711 835.499 403V393.625C835.499 389.875 833.272 386.656 830.08 385.158C831.108 383.874 831.75 382.268 831.75 380.5C831.75 376.365 828.386 373 824.25 373C820.114 373 816.75 376.365 816.75 380.5C816.75 382.268 817.391 383.874 818.419 385.158C815.227 386.656 813 389.875 813 393.625V403C813 403.711 813.401 404.359 814.037 404.678L816.75 406.034V418.599C796.556 421.532 779.111 435.351 771.947 454.852L771.947 454.851ZM807.413 431.49C807.459 431.73 807.555 431.959 807.691 432.162L811.125 437.316V441.37L806.335 444.563C806.129 444.7 805.952 444.876 805.816 445.082L802.516 450.033L793.019 451.615L788.076 446.673C787.649 446.243 787.043 446.047 786.442 446.15L779.769 447.261C785.873 437.125 795.226 429.384 806.155 425.214L807.413 431.49ZM867.804 444.248H861.75C861.123 444.248 860.538 444.561 860.189 445.082L856.997 449.872H850.5C850.376 449.872 850.255 449.883 850.132 449.91L841.99 451.54L839.539 447.865L840.791 445.36L846.2 439.951C846.77 439.381 846.912 438.509 846.552 437.787L843.114 430.908L844.44 425.605C853.814 429.414 861.955 435.901 867.805 444.248L867.804 444.248ZM824.251 376.749C826.319 376.749 828.001 378.43 828.001 380.498C828.001 382.567 826.319 384.248 824.251 384.248C822.183 384.248 820.501 382.567 820.501 380.498C820.501 378.43 822.183 376.749 824.251 376.749ZM819.464 403.195L816.751 401.84V393.624C816.751 390.522 819.275 387.999 822.376 387.999H826.126C829.227 387.999 831.751 390.522 831.751 393.624V401.84L829.038 403.198C828.402 403.514 828.001 404.163 828.001 404.874V418.126C826.925 418.062 825.851 417.998 824.763 417.998C823.333 417.998 821.911 418.056 820.501 418.165V404.874C820.501 404.163 820.1 403.514 819.464 403.195L819.464 403.195Z" fill="white"/>
    <path opacity="0.5" d="M880.498 359.875C880.498 350.571 872.927 343 863.623 343C854.953 343 847.797 349.576 846.859 358H801.639C800.701 349.576 793.545 343 784.875 343C775.571 343 768 350.571 768 359.875C768 368.545 774.576 375.701 783 376.639V389.985C774.576 390.922 768 398.079 768 406.749C768 416.053 775.571 423.624 784.875 423.624C793.545 423.624 800.701 417.048 801.639 408.624H811.124V404.874H801.639C800.771 397.067 794.558 390.853 786.75 389.985V376.639C794.557 375.771 800.771 369.558 801.639 361.75H846.859C847.727 369.557 853.94 375.771 861.748 376.639V389.985C853.941 390.853 847.727 397.066 846.859 404.874H837.374V408.624H846.859C847.797 417.048 854.953 423.624 863.623 423.624C872.927 423.624 880.498 416.053 880.498 406.749C880.498 398.079 873.922 390.922 865.498 389.985V376.639C873.922 375.701 880.498 368.545 880.498 359.875V359.875ZM863.623 361.75C861.555 361.75 859.873 360.068 859.873 358C859.873 355.931 861.555 354.25 863.623 354.25C865.692 354.25 867.373 355.931 867.373 358C867.373 360.068 865.692 361.75 863.623 361.75ZM861.748 365.5H865.498C868.442 365.5 870.839 367.781 871.076 370.665C868.958 372.133 866.391 373 863.623 373C860.856 373 858.289 372.133 856.17 370.665C856.408 367.781 858.804 365.5 861.748 365.5V365.5ZM784.874 361.75C782.806 361.75 781.124 360.068 781.124 358C781.124 355.931 782.806 354.25 784.874 354.25C786.943 354.25 788.624 355.931 788.624 358C788.624 360.068 786.943 361.75 784.874 361.75ZM782.999 365.5H786.749C789.693 365.5 792.09 367.781 792.327 370.665C790.209 372.133 787.642 373 784.874 373C782.107 373 779.54 372.133 777.421 370.665C777.659 367.781 780.056 365.5 782.999 365.5V365.5ZM777.421 417.54C777.659 414.657 780.056 412.375 782.999 412.375H786.749C789.693 412.375 792.09 414.657 792.327 417.54C790.209 419.009 787.642 419.875 784.874 419.875C782.107 419.875 779.54 419.009 777.421 417.54ZM784.874 408.625C782.806 408.625 781.124 406.944 781.124 404.875C781.124 402.807 782.806 401.125 784.874 401.125C786.943 401.125 788.624 402.807 788.624 404.875C788.624 406.944 786.943 408.625 784.874 408.625ZM797.999 406.75C797.999 409.655 797.039 412.334 795.434 414.51C794.545 412.309 792.845 410.537 790.706 409.533C791.733 408.249 792.374 406.643 792.374 404.875C792.374 400.74 789.01 397.376 784.874 397.376C780.739 397.376 777.374 400.74 777.374 404.875C777.374 406.643 778.016 408.249 779.044 409.533C776.904 410.538 775.203 412.309 774.315 414.51C772.71 412.334 771.75 409.655 771.75 406.75C771.75 399.513 777.637 393.625 784.874 393.625C792.111 393.625 797.999 399.513 797.999 406.75H797.999ZM795.434 367.635C794.545 365.434 792.845 363.662 790.706 362.657C791.733 361.373 792.374 359.768 792.374 358C792.374 353.864 789.01 350.5 784.874 350.5C780.739 350.5 777.374 353.864 777.374 358C777.374 359.768 778.016 361.373 779.044 362.657C776.904 363.663 775.203 365.434 774.315 367.635C772.71 365.459 771.75 362.779 771.75 359.875C771.75 352.638 777.637 346.75 784.874 346.75C792.111 346.75 797.999 352.638 797.999 359.875C797.999 362.779 797.039 365.459 795.434 367.635H795.434ZM850.499 359.875C850.499 352.638 856.387 346.75 863.623 346.75C870.86 346.75 876.748 352.638 876.748 359.875C876.748 362.779 875.788 365.459 874.184 367.635C873.295 365.434 871.595 363.662 869.455 362.657C870.482 361.373 871.123 359.768 871.123 358C871.123 353.864 867.759 350.5 863.624 350.5C859.488 350.5 856.124 353.864 856.124 358C856.124 359.768 856.765 361.373 857.793 362.657C855.653 363.663 853.952 365.434 853.064 367.635C851.459 365.459 850.499 362.779 850.499 359.875H850.499ZM856.171 417.54C856.408 414.657 858.805 412.375 861.749 412.375H865.498C868.442 412.375 870.839 414.657 871.076 417.54C868.958 419.009 866.391 419.875 863.623 419.875C860.856 419.875 858.289 419.009 856.171 417.54V417.54ZM863.623 408.625C861.555 408.625 859.874 406.944 859.874 404.875C859.874 402.807 861.555 401.125 863.623 401.125C865.692 401.125 867.373 402.807 867.373 404.875C867.373 406.944 865.692 408.625 863.623 408.625ZM876.748 406.75C876.748 409.655 875.788 412.334 874.184 414.51C873.295 412.309 871.595 410.537 869.455 409.533C870.482 408.249 871.123 406.643 871.123 404.875C871.123 400.74 867.759 397.376 863.624 397.376C859.488 397.376 856.124 400.74 856.124 404.875C856.124 406.643 856.765 408.249 857.793 409.533C855.653 410.538 853.952 412.309 853.064 414.51C851.459 412.334 850.499 409.655 850.499 406.75C850.499 399.513 856.387 393.625 863.624 393.625C870.861 393.625 876.748 399.513 876.748 406.75H876.748Z" fill="white"/>
    <rect opacity="0.4" x="336" y="200" width="198" height="198" rx="99" stroke="url(#paint3_linear_1_2)" stroke-width="2"/>
    <path d="M459.013 276.984C460.772 276.984 462.207 278.414 462.207 280.183C462.207 281.942 460.772 283.377 459.013 283.377C457.244 283.377 455.82 281.942 455.82 280.183C455.82 278.413 457.244 276.984 459.013 276.984Z" fill="white"/>
    <path d="M459.013 298.63C460.772 298.63 462.207 300.059 462.207 301.823C462.207 303.592 460.772 305.016 459.013 305.016C457.244 305.016 455.82 303.592 455.82 301.823C455.82 300.059 457.244 298.63 459.013 298.63Z" fill="white"/>
    <path d="M444.992 291.001C444.992 289.237 446.426 287.802 448.185 287.802C449.955 287.802 451.379 289.236 451.379 291.001C451.379 292.764 449.955 294.2 448.185 294.2C446.427 294.198 444.992 292.764 444.992 291.001V291.001Z" fill="white"/>
    <path d="M473.035 291.001C473.035 292.765 471.604 294.197 469.838 294.197C468.074 294.197 466.642 292.765 466.642 291.001C466.642 289.235 468.074 287.804 469.838 287.804C471.604 287.804 473.035 289.235 473.035 291.001" fill="white"/>
    <path d="M468.699 307.985C468.699 306.577 469.847 305.435 471.249 305.435C472.663 305.435 473.8 306.577 473.8 307.985V315.822C473.8 318.548 471.447 320.912 468.715 320.912H465.07C463.662 320.912 462.52 319.77 462.52 318.362C462.52 316.954 463.662 315.811 465.07 315.811H468.693C468.699 315.822 468.699 315.839 468.699 315.822V315.801H468.693L468.688 315.795V315.801C468.682 315.795 468.677 315.791 468.682 315.791L468.693 315.802H468.688L468.693 315.812H468.715C468.738 315.812 468.721 315.812 468.699 315.802L468.699 307.985Z" fill="white"/>
    <path opacity="0.5" d="M468.716 264H400.336C390.895 264 383 271.89 383 281.331V315.824C383 325.26 390.895 333.155 400.336 333.155H407.63C416.141 333.155 423.522 326.758 424.77 318.374H444.28C445.534 326.734 452.903 333.155 461.414 333.155H468.714C478.187 333.155 486.039 325.297 486.039 315.824L486.04 281.331C486.04 271.826 478.22 264 468.715 264H468.716ZM480.941 315.823C480.941 322.507 475.389 328.053 468.716 328.053H461.417C454.738 328.053 449.193 322.507 449.193 315.823C449.193 314.368 448.003 313.273 446.577 313.273H422.408C421.006 313.273 419.858 314.415 419.858 315.823C419.858 322.495 414.311 328.053 407.633 328.053H400.339C393.692 328.053 388.103 322.473 388.103 315.823V281.329C388.103 274.677 393.683 269.099 400.339 269.099H468.714C475.43 269.099 480.939 274.614 480.939 281.329V315.823H480.941Z" fill="white"/>
    <path d="M420.867 288.451C422.263 288.451 423.417 289.593 423.417 291.001C423.417 292.409 422.263 293.551 420.867 293.551H412.584V301.823C412.584 303.231 411.441 304.373 410.033 304.373C408.625 304.373 407.483 303.231 407.483 301.823V293.551H399.217C397.809 293.551 396.667 292.409 396.667 291.001C396.667 289.593 397.809 288.451 399.217 288.451H407.483V280.184C407.483 278.771 408.625 277.634 410.033 277.634C411.441 277.634 412.584 278.771 412.584 280.184V288.451H420.867Z" fill="white"/>
    <path d="M395.253 307.985C395.253 306.577 396.39 305.435 397.803 305.435C399.205 305.435 400.353 306.577 400.353 307.985V315.8C400.332 315.81 400.312 315.81 400.337 315.81H400.353L400.364 315.8H400.358L400.37 315.789C400.375 315.789 400.364 315.794 400.364 315.799V315.794L400.358 315.8H400.352V315.821V315.81H403.981C405.389 315.81 406.532 316.953 406.532 318.361C406.532 319.769 405.389 320.911 403.981 320.911H400.336C397.61 320.911 395.252 318.547 395.252 315.821L395.253 307.985Z" fill="white"/>
    <rect opacity="0.4" x="1177" y="892" width="198" height="198" rx="99" stroke="url(#paint4_linear_1_2)" stroke-width="2"/>
    <path opacity="0.5" fill-rule="evenodd" clip-rule="evenodd" d="M1317.67 986.927L1326.14 995.4L1326.14 995.4C1326.57 995.936 1326.9 996.58 1327 997.223C1327 997.867 1326.79 998.51 1326.25 999.047L1317.78 1007.52C1317.35 1007.95 1316.6 1008.27 1315.95 1008.27H1312.73C1311.98 1008.27 1311.34 1007.95 1310.8 1007.41L1306.73 1003.01L1303.08 1006.77C1302.55 1007.2 1301.9 1007.52 1301.15 1007.52C1300.4 1007.52 1299.76 1007.2 1299.22 1006.66L1295.57 1002.91L1291.93 1006.66C1291.39 1007.2 1290.75 1007.52 1290 1007.52C1289.25 1007.52 1288.6 1007.31 1288.07 1006.77L1284.42 1003.01L1280.34 1007.41C1279.81 1007.95 1279.17 1008.27 1278.41 1008.27H1271.34C1267.15 1016.53 1258.79 1021.68 1249.45 1021.68C1235.94 1021.68 1225 1010.74 1225 997.223C1225 983.709 1235.94 972.768 1249.45 972.768C1258.79 972.768 1267.15 977.917 1271.34 986.176H1315.85C1316.49 986.176 1317.13 986.39 1317.67 986.927ZM1313.7 1003.12H1314.67L1320.57 997.331L1314.67 991.431H1269.62C1268.65 991.431 1267.69 990.788 1267.26 989.823C1264.26 982.636 1257.28 978.024 1249.45 978.024C1238.84 978.024 1230.15 986.712 1230.15 997.33C1230.15 1007.95 1238.84 1016.64 1249.45 1016.64C1257.29 1016.64 1264.26 1012.02 1267.26 1004.84C1267.58 1003.87 1268.55 1003.23 1269.62 1003.23H1277.24L1282.49 997.652C1283.03 997.115 1283.67 996.794 1284.42 996.794C1285.17 996.794 1285.82 997.008 1286.35 997.545L1290 1001.3L1293.64 997.545C1294.61 996.472 1296.43 996.472 1297.4 997.545L1300.94 1001.19L1304.59 997.438C1305.12 997.008 1305.77 996.687 1306.52 996.687C1307.27 996.687 1307.91 997.008 1308.45 997.545L1313.7 1003.12ZM1236.37 997.223C1236.37 992.396 1240.34 988.428 1245.16 988.428C1249.99 988.428 1253.96 992.397 1253.96 997.223C1253.96 1002.05 1249.99 1006.02 1245.16 1006.02C1240.34 1006.02 1236.37 1002.05 1236.37 997.223ZM1241.62 997.223C1241.62 999.154 1243.23 1000.76 1245.16 1000.76C1247.09 1000.76 1248.7 999.154 1248.7 997.223C1248.7 995.292 1247.09 993.684 1245.16 993.684C1243.23 993.684 1241.62 995.293 1241.62 997.223Z" fill="white"/>
    <path fill-rule="evenodd" clip-rule="evenodd" d="M1292.89 956.036C1284.85 956.036 1277.34 959.254 1271.66 965.046H1271.66C1270.69 966.118 1268.98 966.118 1267.8 965.046C1266.83 964.08 1266.83 962.472 1267.8 961.399C1274.34 954.535 1283.24 950.78 1292.79 950.78C1302.23 950.78 1311.13 954.534 1317.78 961.399C1318.85 962.364 1318.85 964.08 1317.78 965.046C1317.24 965.582 1316.6 965.797 1315.95 965.797C1315.31 965.797 1314.67 965.582 1314.13 965.046C1308.55 959.254 1300.94 956.036 1292.89 956.036ZM1307.48 972.339C1308.02 972.876 1308.66 973.197 1309.41 973.197C1310.05 973.197 1310.7 972.983 1311.23 972.554C1312.31 971.589 1312.31 969.872 1311.34 968.907C1306.62 963.759 1299.97 960.863 1293 960.863C1286.03 960.863 1279.38 963.759 1274.66 968.907C1273.69 969.98 1273.69 971.589 1274.77 972.554C1275.84 973.519 1277.45 973.519 1278.41 972.447C1282.17 968.371 1287.42 966.119 1292.89 966.119C1298.47 966.011 1303.73 968.371 1307.48 972.339L1307.48 972.339ZM1292.89 970.73C1288.28 970.73 1284.1 972.768 1281.2 976.308C1280.34 977.381 1280.45 979.096 1281.63 979.954C1282.7 980.813 1284.42 980.706 1285.28 979.526C1287.21 977.166 1290 975.879 1292.89 975.879C1295.9 975.879 1298.69 977.166 1300.51 979.526C1301.05 980.169 1301.8 980.491 1302.55 980.491C1303.08 980.491 1303.73 980.276 1304.16 979.954C1305.23 979.096 1305.44 977.38 1304.58 976.308C1301.8 972.768 1297.51 970.73 1292.89 970.73H1292.89Z" fill="white"/>
    <rect opacity="0.4" x="1262" y="409" width="198" height="198" rx="99" stroke="url(#paint5_linear_1_2)" stroke-width="2"/>
    <path opacity="0.5" d="M1379.14 543.955H1343.36C1341.71 543.955 1340.38 542.62 1340.38 540.973C1340.38 539.326 1341.71 537.991 1343.36 537.991H1379.14C1380.79 537.991 1382.13 539.326 1382.13 540.973C1382.13 542.62 1380.79 543.955 1379.14 543.955Z" fill="white"/>
    <path d="M1377.91 490.278H1373.18C1371.53 490.278 1370.2 488.943 1370.2 487.296C1370.2 485.649 1371.53 484.314 1373.18 484.314L1388.09 484.315V499.225C1388.09 500.872 1386.76 502.207 1385.11 502.207C1383.46 502.207 1382.13 500.872 1382.13 499.225V494.496L1366.64 509.978C1365.31 511.309 1363.16 511.309 1361.82 509.978L1355.29 503.442L1341.61 517.118C1340.45 518.282 1338.56 518.282 1337.4 517.118C1336.23 515.953 1336.23 514.065 1337.4 512.901L1352.88 497.418C1354.21 496.086 1356.37 496.086 1357.7 497.417L1364.23 503.954L1377.91 490.278Z" fill="white"/>
    <g opacity="0.5">
        <mask id="path-34-inside-1_1_2" fill="white">
            <rect x="1319.5" y="472.045" width="83.4976" height="59.982" rx="3.40807"/>
        </mask>
        <rect x="1319.5" y="472.045" width="83.4976" height="59.982" rx="3.40807" stroke="white" stroke-width="10.9058" mask="url(#path-34-inside-1_1_2)"/>
    </g>
    <rect opacity="0.4" x="710" y="1183" width="198" height="198" rx="99" stroke="url(#paint6_linear_1_2)" stroke-width="2"/>
    <rect opacity="0.4" x="11.0001" y="1097" width="198" height="198" rx="99" stroke="url(#paint7_linear_1_2)" stroke-width="2"/>
    <path d="M160.813 1242.25H156.438V1228.59C165.852 1223.74 165.134 1187.56 154.25 1187.56C143.37 1187.56 142.641 1223.74 152.062 1228.59V1242.25H149.128C149.619 1240.86 149.875 1239.39 149.875 1237.87C149.875 1230.64 143.987 1224.75 136.75 1224.75V1161.31C136.75 1160.1 135.77 1159.13 134.563 1159.13H130.188V1154.75C130.188 1153.54 129.208 1152.56 128 1152.56H117.063V1148.19C117.063 1146.98 116.083 1146 114.875 1146H101.75C100.542 1146 99.5625 1146.98 99.5625 1148.19V1152.56H88.625C87.4172 1152.56 86.4375 1153.54 86.4375 1154.75V1159.13H82.0625C80.8547 1159.13 79.875 1160.1 79.875 1161.31V1178.81H60.1876C58.9798 1178.81 58 1179.79 58 1181V1244.44C58 1245.65 58.9797 1246.62 60.1876 1246.62H82.0633H160.812C162.02 1246.62 163 1245.65 163 1244.44C163 1243.23 162.02 1242.25 160.812 1242.25H160.813ZM151.673 1195.92C152.725 1192.94 153.883 1191.94 154.25 1191.94C154.617 1191.94 155.775 1192.94 156.828 1195.92C159.389 1203.18 159.175 1215.32 156.438 1221.77V1213.81C156.438 1212.6 155.458 1211.63 154.25 1211.63C153.042 1211.63 152.063 1212.6 152.063 1213.81V1221.77C149.343 1215.36 149.094 1203.23 151.673 1195.92H151.673ZM145.5 1237.87C145.5 1239.43 145.099 1240.92 144.331 1242.25H117.171C116.481 1238.84 119.098 1235.69 122.531 1235.69C123.485 1235.69 124.425 1235.94 125.251 1236.41C126.457 1237.11 127.996 1236.51 128.423 1235.19C129.596 1231.55 132.955 1229.12 136.75 1229.12C141.575 1229.12 145.5 1233.05 145.5 1237.87L145.5 1237.87ZM103.939 1150.37H112.689V1152.56H103.939V1150.37ZM90.8139 1156.94H125.814V1159.12H90.8139V1156.94ZM79.8765 1183.19V1233.5H62.3767V1183.19H79.8765ZM62.3767 1237.87H79.8765V1242.25H62.3767V1237.87ZM84.2524 1237.87H103.94C105.148 1237.87 106.127 1236.89 106.127 1235.69C106.127 1234.48 105.148 1233.5 103.94 1233.5H84.2524V1163.5H132.376V1225.49C129.31 1226.57 126.731 1228.76 125.178 1231.67C118.447 1229.8 111.987 1235.34 112.749 1242.25H84.2512L84.2524 1237.87Z" fill="white"/>
    <path opacity="0.5" d="M125.813 1224.75C127.021 1224.75 128.001 1223.77 128.001 1222.56V1170.06C128.001 1168.86 127.021 1167.88 125.813 1167.88H90.8133C89.6055 1167.88 88.6258 1168.86 88.6258 1170.06V1222.56C88.6258 1223.77 89.6054 1224.75 90.8133 1224.75H125.813ZM119.251 1198.5H123.626V1207.25H119.251V1198.5ZM123.626 1194.13H119.251V1185.38H123.626V1194.13ZM114.876 1194.13H110.501V1185.38H114.876V1194.13ZM106.126 1194.13H101.751V1185.38H106.126V1194.13ZM97.3759 1194.13H93.0009V1185.38H97.3759V1194.13ZM93.0009 1198.5H97.3759V1207.25H93.0009V1198.5ZM101.751 1198.5H106.126V1207.25H101.751V1198.5ZM110.501 1198.5H114.876V1207.25H110.501V1198.5ZM123.626 1220.38H119.251V1211.63H123.626V1220.38ZM123.626 1181H119.251V1172.25H123.626V1181ZM114.876 1181H110.501V1172.25H114.876V1181ZM106.126 1181H101.751V1172.25H106.126V1181ZM93.0009 1172.25H97.3759V1181H93.0009V1172.25ZM93.0009 1211.63H97.3759V1220.38H93.0009V1211.63ZM101.751 1211.63H106.126V1220.38H101.751V1211.63ZM110.501 1211.63H114.876V1220.38H110.501V1211.63Z" fill="white"/>
    <path d="M66.7516 1174.44C70.3704 1174.44 73.3139 1171.49 73.3139 1167.87C73.3139 1164.26 70.3702 1161.31 66.7516 1161.31C63.1331 1161.31 60.1893 1164.26 60.1893 1167.87C60.1893 1171.49 63.1331 1174.44 66.7516 1174.44ZM66.7516 1165.69C67.9579 1165.69 68.9392 1166.67 68.9392 1167.87C68.9392 1169.08 67.958 1170.06 66.7516 1170.06C65.5453 1170.06 64.564 1169.08 64.564 1167.87C64.564 1166.67 65.5453 1165.69 66.7516 1165.69V1165.69Z" fill="white"/>
    <path d="M149.877 1181C154.702 1181 158.627 1177.08 158.627 1172.25C158.627 1167.43 154.702 1163.5 149.877 1163.5C145.052 1163.5 141.127 1167.43 141.127 1172.25C141.127 1177.08 145.052 1181 149.877 1181ZM149.877 1167.88C152.289 1167.88 154.252 1169.84 154.252 1172.25C154.252 1174.66 152.289 1176.63 149.877 1176.63C147.464 1176.63 145.502 1174.66 145.502 1172.25C145.502 1169.84 147.464 1167.88 149.877 1167.88Z" fill="white"/>
    <path d="M143.313 1191.94C143.313 1193.14 142.333 1194.12 141.125 1194.12C139.917 1194.12 138.938 1193.14 138.938 1191.94C138.938 1190.73 139.917 1189.75 141.125 1189.75C142.333 1189.75 143.313 1190.73 143.313 1191.94Z" fill="white"/>
    <path d="M158.625 1156.94C158.625 1158.15 157.645 1159.13 156.437 1159.13C155.229 1159.13 154.249 1158.15 154.249 1156.94C154.249 1155.73 155.229 1154.75 156.437 1154.75C157.645 1154.75 158.625 1155.73 158.625 1156.94Z" fill="white"/>
    <path d="M136.751 1150.38C136.751 1151.58 135.771 1152.56 134.563 1152.56C133.355 1152.56 132.376 1151.58 132.376 1150.38C132.376 1149.17 133.355 1148.19 134.563 1148.19C135.771 1148.19 136.751 1149.17 136.751 1150.38Z" fill="white"/>
    <path d="M79.8775 1152.56C79.8775 1153.77 78.8978 1154.75 77.6899 1154.75C76.482 1154.75 75.5023 1153.77 75.5023 1152.56C75.5023 1151.35 76.482 1150.38 77.6899 1150.38C78.8978 1150.38 79.8775 1151.35 79.8775 1152.56Z" fill="white"/>
    <path opacity="0.5" d="M64.5637 1187.56H68.9386V1196.31H64.5637V1187.56Z" fill="white"/>
    <path opacity="0.5" d="M73.3135 1187.56H77.6885V1196.31H73.3135V1187.56Z" fill="white"/>
    <path opacity="0.5" d="M64.5637 1200.69H68.9386V1209.44H64.5637V1200.69Z" fill="white"/>
    <path opacity="0.5" d="M73.3135 1200.69H77.6885V1209.44H73.3135V1200.69Z" fill="white"/>
    <path opacity="0.5" d="M64.5637 1213.81H68.9386V1222.56H64.5637V1213.81Z" fill="white"/>
    <path opacity="0.5" d="M73.3135 1213.81H77.6885V1222.56H73.3135V1213.81Z" fill="white"/>
    <rect opacity="0.4" x="1" y="261" width="198" height="198" rx="99" stroke="url(#paint8_linear_1_2)" stroke-width="2"/>
    <path opacity="0.7" d="M125.693 335C120.109 335 114.017 337.975 107.587 343.84C104.541 346.602 101.876 349.577 99.9301 351.957C99.9301 351.957 103.061 355.484 106.487 359.267C108.349 356.972 111.014 353.869 114.102 351.065C119.812 345.837 123.535 344.775 125.693 344.775C133.73 344.775 140.245 351.362 140.245 359.522C140.245 367.597 133.73 374.184 125.693 374.269C125.312 374.269 124.846 374.227 124.297 374.099C126.623 375.161 129.162 375.927 131.53 375.927C146.252 375.927 149.128 365.982 149.297 365.259C149.72 363.432 149.975 361.519 149.975 359.564C149.932 346.007 139.061 335 125.693 335Z" fill="white" fill-opacity="0.8"/>
    <path opacity="0.7" d="M74.2818 384.003C79.8658 384.003 85.9571 381.028 92.3874 375.164C95.4331 372.401 98.0981 369.426 100.044 367.046C100.044 367.046 96.9138 363.519 93.4873 359.736C91.6256 362.031 88.9606 365.134 85.8727 367.939C80.1617 373.123 76.3969 374.228 74.2818 374.228C66.2442 374.228 59.7296 367.641 59.7296 359.481C59.7296 351.407 66.2442 344.819 74.2818 344.734C74.6624 344.734 75.1277 344.777 75.6777 344.904C73.3511 343.842 70.8129 343.077 68.444 343.077C53.7226 343.077 50.846 353.022 50.6768 353.744C50.2538 355.571 50 357.484 50 359.439C50 372.996 60.8718 384.003 74.2818 384.003Z" fill="white" fill-opacity="0.8"/>
    <path fill-rule="evenodd" clip-rule="evenodd" d="M85.4747 351.277C83.8676 349.747 75.9992 343.5 68.4692 343.287C55.0504 342.957 51.1058 352.506 50.7657 353.737C53.336 343.03 62.917 335.042 74.307 335C83.5927 335 92.9758 343.911 99.9086 351.954C99.9203 351.94 99.9309 351.927 99.9418 351.914C99.9418 351.914 103.072 355.442 106.498 359.224C106.498 359.224 110.39 363.729 114.536 367.681C116.144 369.211 123.969 375.374 131.499 375.586C145.29 375.969 149.098 365.897 149.309 365.132C146.771 375.884 137.168 383.916 125.746 383.958C116.458 383.958 107.071 375.041 100.109 366.997C100.095 367.013 100.082 367.029 100.07 367.044C100.07 367.044 96.9392 363.517 93.5124 359.734C93.5124 359.734 89.6206 355.229 85.4747 351.277Z" fill="white"/>
    <rect opacity="0.4" x="810" y="897" width="198" height="198" rx="99" stroke="url(#paint9_linear_1_2)" stroke-width="2"/>
    <path opacity="0.7" d="M934.693 971.926C929.109 971.926 923.017 974.901 916.587 980.766C913.541 983.528 910.876 986.503 908.93 988.883C908.93 988.883 912.061 992.41 915.487 996.193C917.349 993.898 920.014 990.795 923.102 987.991C928.813 982.763 932.535 981.701 934.693 981.701C942.73 981.701 949.245 988.288 949.245 996.448C949.245 1004.52 942.73 1011.11 934.693 1011.2C934.312 1011.2 933.847 1011.15 933.297 1011.03C935.623 1012.09 938.162 1012.85 940.531 1012.85C955.252 1012.85 958.128 1002.91 958.297 1002.19C958.72 1000.36 958.975 998.445 958.975 996.49C958.932 982.933 948.061 971.926 934.693 971.926Z" fill="white" fill-opacity="0.8"/>
    <path opacity="0.7" d="M883.282 1020.93C888.866 1020.93 894.957 1017.95 901.388 1012.09C904.433 1009.33 907.098 1006.35 909.044 1003.97C909.044 1003.97 905.914 1000.44 902.488 996.662C900.626 998.957 897.961 1002.06 894.873 1004.86C889.162 1010.05 885.397 1011.15 883.282 1011.15C875.244 1011.15 868.73 1004.57 868.73 996.407C868.73 988.333 875.244 981.745 883.282 981.66C883.663 981.66 884.128 981.703 884.678 981.83C882.351 980.768 879.813 980.003 877.444 980.003C862.723 980.003 859.846 989.948 859.677 990.67C859.254 992.497 859 994.41 859 996.365C859 1009.92 869.872 1020.93 883.282 1020.93Z" fill="white" fill-opacity="0.8"/>
    <path fill-rule="evenodd" clip-rule="evenodd" d="M894.475 988.203C892.868 986.673 884.999 980.426 877.47 980.213C864.051 979.884 860.106 989.432 859.766 990.663C862.336 979.956 871.917 971.968 883.307 971.926C892.593 971.926 901.976 980.837 908.909 988.88C908.921 988.866 908.931 988.853 908.942 988.84C908.942 988.84 912.072 992.368 915.499 996.15C915.499 996.15 919.39 1000.66 923.536 1004.61C925.144 1006.14 932.969 1012.3 940.499 1012.51C954.291 1012.9 958.098 1002.82 958.309 1002.06C955.772 1012.81 946.168 1020.84 934.746 1020.88C925.458 1020.88 916.071 1011.97 909.109 1003.92C909.095 1003.94 909.082 1003.96 909.07 1003.97C909.07 1003.97 905.939 1000.44 902.513 996.66C902.513 996.66 898.621 992.155 894.475 988.203Z" fill="white"/>
    <rect opacity="0.4" x="404" y="1017" width="198" height="198" rx="99" stroke="url(#paint10_linear_1_2)" stroke-width="2"/>
    <path d="M459.779 1072C454.928 1072 451.007 1075.92 451.007 1080.77V1122.59C451.007 1127.44 454.931 1131.36 459.779 1131.36H545.723C550.574 1131.36 554.495 1127.43 554.495 1122.59V1080.77C554.495 1075.92 550.571 1072 545.723 1072H459.779ZM459.779 1075.61H545.723C548.557 1075.61 550.89 1077.94 550.89 1080.78V1122.59C550.89 1125.42 548.557 1127.76 545.723 1127.76H459.779C456.945 1127.76 454.611 1125.42 454.611 1122.59V1080.78C454.611 1077.94 456.945 1075.61 459.779 1075.61ZM495.849 1085.94C494.915 1085.91 493.976 1086.61 493.976 1087.74V1115.62C493.976 1117.16 495.533 1117.95 496.781 1117.11L517.69 1103.18C518.796 1102.44 518.803 1100.92 517.69 1100.18V1100.17L496.781 1086.24C496.458 1086.02 496.155 1085.94 495.849 1085.93L495.849 1085.94ZM497.584 1091.12L513.444 1101.68L497.584 1112.25V1091.12Z" fill="white" stroke="white"/>
    <g opacity="0.5">
        <path fill-rule="evenodd" clip-rule="evenodd" d="M486.552 1141.69C482.73 1141.69 479.485 1144.15 478.278 1147.54L477.885 1148.66H452.805C451.79 1148.66 451 1149.45 451 1150.46C451 1151.47 451.793 1152.26 452.805 1152.26H477.885L478.278 1153.38C479.485 1156.78 482.73 1159.23 486.552 1159.23C490.375 1159.23 493.613 1156.78 494.82 1153.38L495.213 1152.26H552.692C553.704 1152.26 554.498 1151.47 554.498 1150.46C554.498 1149.45 553.707 1148.66 552.692 1148.66H495.213L494.82 1147.54C493.613 1144.14 490.375 1141.69 486.552 1141.69ZM486.552 1145.3C489.386 1145.3 491.713 1147.63 491.713 1150.47C491.713 1153.3 489.383 1155.63 486.552 1155.63C483.722 1155.63 481.385 1153.3 481.385 1150.47C481.385 1147.63 483.718 1145.3 486.552 1145.3Z" fill="white"/>
        <path d="M478.278 1147.54L477.807 1147.38L477.806 1147.38L478.278 1147.54ZM477.885 1148.66V1149.16H478.239L478.357 1148.83L477.885 1148.66ZM477.885 1152.26L478.357 1152.1L478.239 1151.76H477.885V1152.26ZM478.278 1153.38L477.806 1153.55L477.807 1153.55L478.278 1153.38ZM494.82 1153.38L495.291 1153.55L495.291 1153.55L494.82 1153.38ZM495.213 1152.26V1151.76H494.859L494.741 1152.1L495.213 1152.26ZM495.213 1148.66L494.741 1148.83L494.859 1149.16H495.213V1148.66ZM494.82 1147.54L495.291 1147.38L495.291 1147.38L494.82 1147.54ZM478.749 1147.71C479.888 1144.51 482.95 1142.19 486.552 1142.19V1141.19C482.509 1141.19 479.082 1143.79 477.807 1147.38L478.749 1147.71ZM478.357 1148.83L478.75 1147.71L477.806 1147.38L477.413 1148.49L478.357 1148.83ZM452.805 1149.16H477.885V1148.16H452.805V1149.16ZM451.5 1150.46C451.5 1149.73 452.065 1149.16 452.805 1149.16V1148.16C451.516 1148.16 450.5 1149.17 450.5 1150.46H451.5ZM452.805 1151.76C452.07 1151.76 451.5 1151.19 451.5 1150.46H450.5C450.5 1151.75 451.517 1152.76 452.805 1152.76V1151.76ZM477.885 1151.76H452.805V1152.76H477.885V1151.76ZM478.75 1153.21L478.357 1152.1L477.413 1152.43L477.806 1153.55L478.75 1153.21ZM486.552 1158.73C482.95 1158.73 479.888 1156.42 478.749 1153.21L477.807 1153.55C479.082 1157.14 482.51 1159.73 486.552 1159.73V1158.73ZM494.349 1153.21C493.21 1156.42 490.155 1158.73 486.552 1158.73V1159.73C490.595 1159.73 494.017 1157.14 495.291 1153.55L494.349 1153.21ZM494.741 1152.1L494.348 1153.21L495.291 1153.55L495.685 1152.43L494.741 1152.1ZM552.692 1151.76H495.213V1152.76H552.692V1151.76ZM553.998 1150.46C553.998 1151.19 553.428 1151.76 552.692 1151.76V1152.76C553.98 1152.76 554.998 1151.75 554.998 1150.46H553.998ZM552.692 1149.16C553.433 1149.16 553.998 1149.72 553.998 1150.46H554.998C554.998 1149.17 553.982 1148.16 552.692 1148.16V1149.16ZM495.213 1149.16H552.692V1148.16H495.213V1149.16ZM494.348 1147.71L494.741 1148.83L495.685 1148.49L495.291 1147.38L494.348 1147.71ZM486.552 1142.19C490.155 1142.19 493.209 1144.5 494.349 1147.71L495.291 1147.38C494.016 1143.79 490.596 1141.19 486.552 1141.19V1142.19ZM492.213 1150.47C492.213 1147.36 489.664 1144.8 486.552 1144.8V1145.8C489.109 1145.8 491.213 1147.91 491.213 1150.47H492.213ZM486.552 1156.13C489.659 1156.13 492.213 1153.57 492.213 1150.47H491.213C491.213 1153.02 489.107 1155.13 486.552 1155.13V1156.13ZM480.885 1150.47C480.885 1153.58 483.447 1156.13 486.552 1156.13V1155.13C483.997 1155.13 481.885 1153.02 481.885 1150.47H480.885ZM486.552 1144.8C483.442 1144.8 480.885 1147.36 480.885 1150.47H481.885C481.885 1147.91 483.994 1145.8 486.552 1145.8V1144.8Z" fill="white"/>
    </g>
    <defs>
        <filter id="filter0_f_1_2" x="501.436" y="0.517456" width="2028.72" height="1843.01" filterUnits="userSpaceOnUse" color-interpolation-filters="sRGB">
            <feFlood flood-opacity="0" result="BackgroundImageFix"/>
            <feBlend mode="normal" in="SourceGraphic" in2="BackgroundImageFix" result="shape"/>
            <feGaussianBlur stdDeviation="250" result="effect1_foregroundBlur_1_2"/>
        </filter>
        <linearGradient id="paint0_linear_1_2" x1="1095.5" y1="168" x2="1182" y2="368" gradientUnits="userSpaceOnUse">
            <stop stop-color="white"/>
            <stop offset="1" stop-color="white" stop-opacity="0"/>
        </linearGradient>
        <linearGradient id="paint1_linear_1_2" x1="992.5" y1="611" x2="1147" y2="763" gradientUnits="userSpaceOnUse">
            <stop stop-color="white"/>
            <stop offset="1" stop-color="white" stop-opacity="0"/>
        </linearGradient>
        <linearGradient id="paint2_linear_1_2" x1="753.5" y1="324" x2="908" y2="476" gradientUnits="userSpaceOnUse">
            <stop stop-color="white"/>
            <stop offset="1" stop-color="white" stop-opacity="0"/>
        </linearGradient>
        <linearGradient id="paint3_linear_1_2" x1="364.5" y1="223" x2="519" y2="375" gradientUnits="userSpaceOnUse">
            <stop stop-color="white"/>
            <stop offset="1" stop-color="white" stop-opacity="0"/>
        </linearGradient>
        <linearGradient id="paint4_linear_1_2" x1="1376" y1="991" x2="1176" y2="991" gradientUnits="userSpaceOnUse">
            <stop stop-color="white" stop-opacity="0"/>
            <stop offset="1" stop-color="white"/>
        </linearGradient>
        <linearGradient id="paint5_linear_1_2" x1="1361" y1="408" x2="1361" y2="608" gradientUnits="userSpaceOnUse">
            <stop stop-color="white"/>
            <stop offset="1" stop-color="white" stop-opacity="0"/>
        </linearGradient>
        <linearGradient id="paint6_linear_1_2" x1="701.5" y1="1297.5" x2="909" y2="1245" gradientUnits="userSpaceOnUse">
            <stop stop-color="white"/>
            <stop offset="1" stop-color="white" stop-opacity="0"/>
        </linearGradient>
        <linearGradient id="paint7_linear_1_2" x1="2.49982" y1="1211.5" x2="210" y2="1177" gradientUnits="userSpaceOnUse">
            <stop stop-color="white"/>
            <stop offset="1" stop-color="white" stop-opacity="0"/>
        </linearGradient>
        <linearGradient id="paint8_linear_1_2" x1="29.4998" y1="284" x2="184" y2="436" gradientUnits="userSpaceOnUse">
            <stop stop-color="white"/>
            <stop offset="1" stop-color="white" stop-opacity="0"/>
        </linearGradient>
        <linearGradient id="paint9_linear_1_2" x1="801.5" y1="1011.5" x2="1009" y2="996" gradientUnits="userSpaceOnUse">
            <stop stop-color="white"/>
            <stop offset="1" stop-color="white" stop-opacity="0"/>
        </linearGradient>
        <linearGradient id="paint10_linear_1_2" x1="395.5" y1="1131.5" x2="603" y2="1116" gradientUnits="userSpaceOnUse">
            <stop stop-color="white"/>
            <stop offset="1" stop-color="white" stop-opacity="0"/>
        </linearGradient>
    </defs>
</svg>
