<svg width="72" height="48" viewBox="0 0 72 48" fill="none"
  xmlns="http://www.w3.org/2000/svg">
  <g clip-path="url(#clip0_3000_66261)">
    <rect x="27" y="12" width="24" height="25.5" fill="white"/>
    <path d="M70.4924 7.53486C70.0847 6.08075 69.2907 4.76427 68.1947 3.72538C67.0677 2.65453 65.6864 1.88853 64.1812 1.49967C58.548 0.0148743 35.979 0.0148747 35.979 0.0148747C26.5703 -0.092173 17.1638 0.378649 7.8128 1.42468C6.30757 1.84227 4.92888 2.62538 3.79934 3.70438C2.68949 4.77223 1.8856 6.08906 1.46565 7.53186C0.456869 12.9664 -0.0332679 18.4844 0.0018513 24.0116C-0.0341439 29.5339 0.45479 35.0502 1.46565 40.4914C1.8766 41.9282 2.67749 43.2391 3.79034 44.2979C4.90319 45.3568 6.28901 46.1217 7.8128 46.5266C13.521 48.0084 35.979 48.0084 35.979 48.0084C45.3997 48.1156 54.8182 47.6448 64.1812 46.5986C65.6864 46.2098 67.0677 45.4438 68.1947 44.3729C69.2903 43.3342 70.0834 42.0176 70.4894 40.5634C71.5245 35.131 72.0278 29.6107 71.9922 24.0806C72.07 18.5272 71.5674 12.9808 70.4924 7.53186V7.53486ZM28.804 34.2823V13.744L47.5815 24.0146L28.804 34.2823Z" fill="#EA3323"/>
  </g>
  <defs>
    <clipPath id="clip0_3000_66261">
      <rect width="72" height="48" fill="white"/>
    </clipPath>
  </defs>
</svg>
