<svg width="120" height="120" viewBox="0 0 120 120" fill="none"
  xmlns="http://www.w3.org/2000/svg">
  <path d="M59.6857 67.4999C59.6891 67.505 59.8712 67.2849 59.8712 67.2849C57.935 69.5354 55.3552 72.3409 52.379 74.9625C46.0945 80.4969 40.1455 83.3041 34.6979 83.3041C21.631 83.3041 11 72.918 11 60.152C11 58.3032 11.227 56.5038 11.6488 54.7759M53.4377 60.3648C51.6286 62.5251 49.0148 65.4736 46.0098 68.119C40.4233 73.0406 36.7746 74.0722 34.6979 74.0722C26.8618 74.0722 20.4876 67.8262 20.4876 60.1503C20.4876 52.5169 26.8652 46.2761 34.708 46.2284C35.0655 46.2284 35.4342 46.3739 36 46.4999" stroke="url(#paint0_linear_75_24833)" stroke-width="1.77"/>
  <path d="M59.6982 53.0192C61.6344 50.7687 64.2142 47.9632 67.1904 45.3416C73.4749 39.8072 79.4239 37 84.8715 37C97.9384 37 108.569 47.3861 108.571 60.1555C108.571 62.0043 108.346 63.8019 107.921 65.5281M66.1317 59.9393C67.9408 57.779 70.5545 54.8305 73.5596 52.185C79.1461 47.2635 82.7948 46.2319 84.8715 46.2319C92.7076 46.2319 99.0818 52.4779 99.0818 60.1538C99.0818 67.7872 92.7042 73.528 84.8614 73.5757C84.5039 73.5757 83 73.5 83 73.5" stroke="url(#paint1_linear_75_24833)" stroke-width="1.77"/>
  <path d="M90.5324 75.3797C83.1791 75.1975 75.5362 69.3704 73.9761 67.9217C69.9479 64.1782 60.65 54.0406 59.9216 53.2456C53.107 45.5799 43.8735 37 34.6976 37H34.6857H34.6738C23.5194 37.0562 14.1436 44.647 11.6501 54.7794C11.8416 54.1121 15.5055 44.5142 28.9992 44.8479C36.3525 45.03 44.0327 50.9355 45.5911 52.3842C49.6193 56.1277 58.9189 66.267 59.6455 67.0603C66.4619 74.726 75.6954 83.3042 84.8713 83.3042H84.8832H84.895C96.0495 83.248 105.424 75.6572 107.917 65.5247C107.727 66.1921 104.026 75.7134 90.5324 75.3797Z" stroke="url(#paint2_linear_75_24833)" stroke-width="1.77"/>
  <defs>
    <linearGradient id="paint0_linear_75_24833" x1="11" y1="46.2284" x2="59.2735" y2="60.4906" gradientUnits="userSpaceOnUse">
      <stop stop-color="#3B00B9"/>
      <stop offset="1" stop-color="#2586B6"/>
    </linearGradient>
    <linearGradient id="paint1_linear_75_24833" x1="59.6982" y1="37" x2="107.867" y2="51.4262" gradientUnits="userSpaceOnUse">
      <stop stop-color="#3B00B9"/>
      <stop offset="1" stop-color="#2586B6"/>
    </linearGradient>
    <linearGradient id="paint2_linear_75_24833" x1="11.6501" y1="37" x2="96.5949" y2="76.5829" gradientUnits="userSpaceOnUse">
      <stop stop-color="#3B00B9"/>
      <stop offset="1" stop-color="#2586B6"/>
    </linearGradient>
  </defs>
</svg>
