<svg xmlns="http://www.w3.org/2000/svg" width="120" height="120" fill="none" viewBox="0 0 120 120"><line x1="94.428" x2="101.51" y1="33.748" y2="26.667" stroke="url(#a)" stroke-linecap="round" stroke-width="1.77"/><line x1=".885" x2="10.114" y1="-.885" y2="-.885" stroke="url(#b)" stroke-linecap="round" stroke-width="1.77" transform="matrix(0.707107 0.707107 0.707107 -0.707107 92.1667 90)"/><line x1=".885" x2="10.9" y1="-.885" y2="-.885" stroke="url(#c)" stroke-linecap="round" stroke-width="1.77" transform="matrix(-0.707107 -0.707107 -0.707107 0.707107 26.5715 35)"/><line x1="28.833" x2="22.307" y1="91.252" y2="97.778" stroke="url(#d)" stroke-linecap="round" stroke-width="1.77"/><line x1="60.885" x2="60.885" y1="10.885" y2="23.115" stroke="url(#e)" stroke-linecap="round" stroke-width="1.77"/><line x1="60.885" x2="60.885" y1="97.885" y2="109.115" stroke="url(#f)" stroke-linecap="round" stroke-width="1.77"/><path stroke="url(#g)" stroke-width="1.77" d="M61 43L65.0322 51.7519L74.3148 53.0193L67.5242 59.6956L69.229 69.2307L61 64.605L52.771 69.2307L54.4758 59.6956L47.6852 53.0193L56.9678 51.7519L61 43Z"/><path fill="url(#h)" d="M86 56.8132H85.115H86ZM35 56.8132H34.115H35ZM86 63.1868H86.885H86ZM60.5 89V89.885V89ZM35 63.1868H35.885H35ZM85.115 56.8132C85.115 70.5909 74.0843 81.7414 60.5 81.7414V83.5114C75.0822 83.5114 86.885 71.548 86.885 56.8132H85.115ZM60.5 81.7414C46.9157 81.7414 35.885 70.5909 35.885 56.8132H34.115C34.115 71.548 45.9178 83.5114 60.5 83.5114V81.7414ZM35.885 56.8132C35.885 43.0355 46.9157 31.885 60.5 31.885V30.115C45.9178 30.115 34.115 42.0784 34.115 56.8132H35.885ZM60.5 31.885C74.0844 31.885 85.115 43.0355 85.115 56.8132H86.885C86.885 42.0784 75.0822 30.115 60.5 30.115V31.885ZM85.115 63.1868C85.115 76.9645 74.0843 88.115 60.5 88.115V89.885C75.0822 89.885 86.885 77.9216 86.885 63.1868H85.115ZM60.5 88.115C46.9157 88.115 35.885 76.9645 35.885 63.1868H34.115C34.115 77.9216 45.9178 89.885 60.5 89.885V88.115ZM86.885 63.1868V56.8132H85.115V63.1868H86.885ZM35.885 63.1868V56.8132H34.115V63.1868H35.885Z"/><defs><linearGradient id="a" x1="94.428" x2="98.514" y1="35" y2="36.842" gradientUnits="userSpaceOnUse"><stop stop-color="#3B00B9"/><stop offset="1" stop-color="#2586B6"/></linearGradient><linearGradient id="b" x1="0" x2="1.669" y1="0" y2="4.115" gradientUnits="userSpaceOnUse"><stop stop-color="#3B00B9"/><stop offset="1" stop-color="#2586B6"/></linearGradient><linearGradient id="c" x1="0" x2="1.587" y1="0" y2="4.191" gradientUnits="userSpaceOnUse"><stop stop-color="#3B00B9"/><stop offset="1" stop-color="#2586B6"/></linearGradient><linearGradient id="d" x1="28.833" x2="24.744" y1="90" y2="88.271" gradientUnits="userSpaceOnUse"><stop stop-color="#3B00B9"/><stop offset="1" stop-color="#2586B6"/></linearGradient><linearGradient id="e" x1="60" x2="55.65" y1="10" y2="11.386" gradientUnits="userSpaceOnUse"><stop stop-color="#3B00B9"/><stop offset="1" stop-color="#2586B6"/></linearGradient><linearGradient id="f" x1="60" x2="55.713" y1="97" y2="98.471" gradientUnits="userSpaceOnUse"><stop stop-color="#3B00B9"/><stop offset="1" stop-color="#2586B6"/></linearGradient><linearGradient id="g" x1="47" x2="75.726" y1="43" y2="49.217" gradientUnits="userSpaceOnUse"><stop stop-color="#3B00B9"/><stop offset="1" stop-color="#2586B6"/></linearGradient><linearGradient id="h" x1="35" x2="87.725" y1="31" y2="41.392" gradientUnits="userSpaceOnUse"><stop stop-color="#3B00B9"/><stop offset="1" stop-color="#2586B6"/></linearGradient></defs></svg>