<svg width="120" height="120" viewBox="0 0 120 120" fill="none" xmlns="http://www.w3.org/2000/svg">
<g id="#105">
<path id="Vector" d="M60 90C43.4315 90 30 76.5685 30 60C30 43.4315 43.4315 30 60 30C76.5685 30 90 43.4315 90 60C90 76.5685 76.5685 90 60 90ZM60 90C76.5685 90 90 103.431 90 120M60 90C43.4315 90 30 103.431 30 120M30 1.15036e-05C30 16.5686 43.4315 30 60 30C76.5685 30 90 16.5686 90 1.41263e-05M90 60C90 76.5686 76.5685 90 60 90C43.4314 90 30 76.5686 30 60C30 43.4315 43.4314 30 60 30C76.5685 30 90 43.4315 90 60ZM90 60C90 43.4315 103.431 30 120 30M90 60C90 76.5686 103.431 90 120 90M-3.15901e-06 90C16.5685 90 30 76.5685 30 60C30 43.4315 16.5685 30 -5.36324e-07 30M47.7844 60.1796C47.7844 66.9261 53.2535 72.3952 60 72.3952C66.7465 72.3952 72.2156 66.9261 72.2156 60.1796C72.2156 53.4332 66.7465 47.9641 60 47.9641C53.2535 47.9641 47.7844 53.4332 47.7844 60.1796Z" stroke="url(#paint0_linear_17241_4831)" stroke-width="2" stroke-linejoin="round"/>
</g>
<defs>
<linearGradient id="paint0_linear_17241_4831" x1="26.8662" y1="31.3029" x2="94.7198" y2="111.877" gradientUnits="userSpaceOnUse">
<stop offset="0.21" stop-color="#ED1E79"/>
<stop offset="1" stop-color="#522785"/>
</linearGradient>
</defs>
</svg>
