<svg width="83" height="80" viewBox="0 0 83 80" fill="none" xmlns="http://www.w3.org/2000/svg">
<g id="#100">
<path id="Vector" d="M81.5 80C81.5 66.9295 58.6225 55.9292 30.4017 55.9292C14.4397 55.9292 1.49999 60.6384 1.49999 66.4475C1.49999 72.2566 14.4397 76.9659 30.4017 76.9659C58.6225 76.9659 81.5 66.3701 81.5 53.2996C81.5 40.2291 58.6225 29.2288 30.4017 29.2288C14.4397 29.2288 1.49998 33.938 1.49999 39.7472C1.49999 45.5563 14.4397 50.2655 30.4017 50.2655C58.6225 50.2655 81.5 39.6697 81.5 26.5992C81.5 13.5287 58.6225 2.52844 30.4017 2.52845M30.4017 2.62958C14.4397 2.62958 1.49998 7.3388 1.49998 13.1479C1.49998 18.957 14.4397 23.6662 30.4017 23.6662C58.6225 23.6662 81.5 13.0705 81.5 -1.38581e-06" stroke="url(#paint0_linear_17486_7182)" stroke-width="2" stroke-linejoin="round"/>
</g>
<defs>
<linearGradient id="paint0_linear_17486_7182" x1="19.4108" y1="20.8686" x2="64.6465" y2="74.5849" gradientUnits="userSpaceOnUse">
<stop offset="0.21" stop-color="#ED1E79"/>
<stop offset="1" stop-color="#522785"/>
</linearGradient>
</defs>
</svg>
