<svg width="80" height="80" viewBox="0 0 80 80" fill="none" xmlns="http://www.w3.org/2000/svg">
<g id="#211">
<path id="Vector" d="M9.95275 39.8001C9.95275 39.8401 9.95282 39.8801 9.95298 39.92M39.9203 0V9.59039C37.2266 9.59039 34.6159 9.94867 32.1325 10.6205L29.6711 1.36013M39.9203 79.84V70.0098C42.5926 70.0098 45.1831 69.6572 47.6487 68.9957L50.1696 78.4796M79.5203 39.92H69.8877C69.8878 39.8801 69.8879 39.8401 69.8879 39.8001C69.8879 37.1358 69.5457 34.5521 68.9034 32.0912L78.171 29.5878M0.320312 39.92H9.95298M78.171 50.2521L68.844 47.7328C68.1509 50.3071 67.1287 52.7449 65.8256 54.9973L74.2149 59.88M1.66965 29.588L10.9372 32.0913C11.6129 29.5029 12.6207 27.0503 13.9119 24.7827L5.62571 19.96M67.9217 11.6925L61.1701 18.4987C63.0145 20.3685 64.6177 22.4803 65.9287 24.7827L74.2149 19.96M11.9189 68.1479L18.7897 61.2216C16.9435 59.3708 15.3352 57.2792 14.015 54.9973L5.62571 59.88M1.66965 50.252L10.9965 47.7326C10.3259 45.2416 9.96339 42.6226 9.95298 39.92M50.1696 1.36036L47.7082 10.6206C50.2775 11.3157 52.7104 12.3465 54.958 13.6634L59.7203 5.34823M29.6711 78.4799L32.192 68.9957C29.6399 68.311 27.2218 67.2952 24.9855 65.9968L20.1203 74.4917M67.9217 68.148L61.0509 61.2216C59.2064 63.0707 57.1244 64.6793 54.8551 65.9968L59.7203 74.4918M11.9189 11.6926L18.6705 18.4988C20.5166 16.6273 22.6044 14.9984 24.8826 13.6634L20.1203 5.3483" stroke="url(#paint0_linear_17486_7171)" stroke-width="2" stroke-linejoin="round"/>
</g>
<defs>
<linearGradient id="paint0_linear_17486_7171" x1="58.8604" y1="61.965" x2="5.32655" y2="17.2443" gradientUnits="userSpaceOnUse">
<stop offset="0.21" stop-color="#ED1E79"/>
<stop offset="1" stop-color="#522785"/>
</linearGradient>
</defs>
</svg>
