<svg width="121" height="120" viewBox="0 0 121 120" fill="none" xmlns="http://www.w3.org/2000/svg">
<g id="#046">
<path id="Vector" d="M5.22461 86.7692V53.5385C5.22461 23.97 29.1946 0 58.7631 0H62.4554C75.4375 0 87.3404 4.62062 96.6092 12.307M115.994 86.7692V53.5385C115.994 45.9956 114.434 38.817 111.619 32.3077M23.6861 96V55.3846C23.6861 44.3567 28.5208 34.4579 36.1862 27.6923M97.5323 96V55.3846C97.5323 34.9926 81.0013 18.4615 60.6092 18.4615M42.1477 107.077V57.2308C42.1477 47.0347 50.4132 38.7692 60.6092 38.7692C70.8052 38.7692 79.0708 47.0347 79.0708 57.2308V107.077M60.6092 57.2308V120" stroke="url(#paint0_linear_17241_4835)" stroke-width="2"/>
</g>
<defs>
<linearGradient id="paint0_linear_17241_4835" x1="87.0989" y1="93.1338" x2="7.85873" y2="31.537" gradientUnits="userSpaceOnUse">
<stop offset="0.21" stop-color="#ED1E79"/>
<stop offset="1" stop-color="#522785"/>
</linearGradient>
</defs>
</svg>
