<svg width="121" height="120" viewBox="0 0 121 120" fill="none" xmlns="http://www.w3.org/2000/svg">
<path d="M5.22461 85.7692V55.5385C5.22461 25.97 29.1946 2 58.7631 2H62.4554C75.4375 2 87.3404 6.62062 96.6092 14.307M115.994 85.7692V55.5385C115.994 47.9956 114.434 40.817 111.619 34.3077M23.6861 95V57.3846C23.6861 46.3567 28.5208 36.458 36.1862 29.6923M97.5323 95V57.3846C97.5323 36.9926 81.0013 20.4615 60.6092 20.4615M42.1477 106.077V59.2308C42.1477 49.0347 50.4132 40.7692 60.6092 40.7692C70.8052 40.7692 79.0708 49.0347 79.0708 59.2308V106.077M60.6092 59.2308V119" stroke="url(#paint0_linear_17644_57170)" stroke-width="2"/>
<defs>
<linearGradient id="paint0_linear_17644_57170" x1="87.0989" y1="92.8054" x2="9.3792" y2="30.8415" gradientUnits="userSpaceOnUse">
<stop offset="0.21" stop-color="#ED1E79"/>
<stop offset="1" stop-color="#522785"/>
</linearGradient>
</defs>
</svg>
