<svg width="81" height="80" viewBox="0 0 81 80" fill="none" xmlns="http://www.w3.org/2000/svg">
<g id="#135">
<path id="Vector" d="M40.5 1.00195V42.0306M52.9612 16.1547L40.5 42.0306M72.5775 16.4497L40.5 42.0306M68.5 35.6398L40.5 42.0306M80.5 51.1604L40.5 42.0306M62.9543 59.9373L40.5 42.0306M58.3017 78.9962L40.5 42.0306M40.5 70.7507V42.0306M22.6983 78.9962L40.5 42.0306M18.0457 59.9373L40.5 42.0306M0.5 51.1604L40.5 42.0306M12.5 35.6398L40.5 42.0306M8.42249 16.4497L40.5 42.0306M28.0388 16.1547L40.5 42.0306" stroke="url(#paint0_linear_17486_7163)" stroke-width="2" stroke-linejoin="round"/>
</g>
<defs>
<linearGradient id="paint0_linear_17486_7163" x1="59.6314" y1="61.5344" x2="7.05159" y2="16.1171" gradientUnits="userSpaceOnUse">
<stop offset="0.21" stop-color="#ED1E79"/>
<stop offset="1" stop-color="#522785"/>
</linearGradient>
</defs>
</svg>
