<svg width="121" height="122" viewBox="0 0 121 122" fill="none" xmlns="http://www.w3.org/2000/svg">
<g id="Group 114">
<path id="Vector" d="M60 61C60 94.1371 73.4315 121 90 121C106.569 121 120 94.1371 120 61C120 27.8629 106.569 1 90 1C73.4315 1 60 27.8629 60 61ZM60 61C60 94.1371 66.7157 121 75 121C83.2843 121 90 94.1371 90 61C90 27.8629 83.2843 1 75 1C66.7157 1 60 27.8629 60 61ZM60 61C60 94.1371 60.055 121 60.123 121C60.1909 121 60.2459 94.1371 60.2459 61C60.2459 27.8629 60.1909 1 60.123 1C60.055 1 60 27.8629 60 61ZM60 61C60 94.1371 46.5685 121 30 121C13.4315 121 0 94.1371 0 61C0 27.8629 13.4315 1 30 1C46.5685 1 60 27.8629 60 61ZM60 61C60 94.1371 53.2843 121 45 121C36.7157 121 30 94.1371 30 61C30 27.8629 36.7157 1 45 1C53.2843 1 60 27.8629 60 61Z" stroke="url(#paint0_linear_17362_2634)" stroke-width="2" stroke-linejoin="round"/>
</g>
<defs>
<linearGradient id="paint0_linear_17362_2634" x1="88.6971" y1="94.1338" x2="8.12259" y2="26.2802" gradientUnits="userSpaceOnUse">
<stop offset="0.21" stop-color="#ED1E79"/>
<stop offset="1" stop-color="#522785"/>
</linearGradient>
</defs>
</svg>
