<svg width="120" height="120" viewBox="0 0 120 120" fill="none" xmlns="http://www.w3.org/2000/svg">
<path d="M60 60C60 92.0325 72.9837 118 89 118C105.016 118 118 92.0325 118 60C118 27.9675 105.016 2 89 2C72.9837 2 60 27.9675 60 60ZM60 60C60 92.0325 66.4919 118 74.5 118C82.5081 118 89 92.0325 89 60C89 27.9675 82.5081 2 74.5 2C66.4919 2 60 27.9675 60 60ZM60 60C60 92.0325 60.0532 118 60.1189 118C60.1845 118 60.2377 92.0325 60.2377 60C60.2377 27.9675 60.1845 2 60.1189 2C60.0532 2 60 27.9675 60 60ZM60 60C60 92.0325 47.0163 118 31 118C14.9837 118 2 92.0325 2 60C2 27.9675 14.9837 2 31 2C47.0163 2 60 27.9675 60 60ZM60 60C60 92.0325 53.5081 118 45.5 118C37.4919 118 31 92.0325 31 60C31 27.9675 37.4919 2 45.5 2C53.5081 2 60 27.9675 60 60Z" stroke="url(#paint0_linear_17644_57162)" stroke-width="2" stroke-linejoin="round"/>
<defs>
<linearGradient id="paint0_linear_17644_57162" x1="87.7406" y1="92.0293" x2="9.85184" y2="26.4375" gradientUnits="userSpaceOnUse">
<stop offset="0.21" stop-color="#ED1E79"/>
<stop offset="1" stop-color="#522785"/>
</linearGradient>
</defs>
</svg>
