<svg width="123" height="122" viewBox="0 0 123 122" fill="none" xmlns="http://www.w3.org/2000/svg">
<path d="M52.8335 69.5003L27.3335 95.0003M95.3335 27.0003L69.8335 52.5003M52.8335 52.5003L27.3335 27.0003M95.3335 95.0003L69.8335 69.5003M85.8328 115.788C67.3565 124.046 45.5601 122.491 28.3337 111.125M6.54529 85.5C-1.74281 66.956 -0.146669 45.0674 11.3337 27.8116M36.8328 6.21237C55.3092 -2.04558 77.1058 -0.491233 94.3323 10.8754M116.121 36.5C124.379 54.9766 122.824 76.7735 111.457 94M115.333 19.0003C115.333 25.6277 109.961 31.0003 103.333 31.0003C96.706 31.0003 91.3335 25.6277 91.3335 19.0003C91.3335 12.3729 96.706 7.00032 103.333 7.00032C109.961 7.00032 115.333 12.3729 115.333 19.0003ZM115.333 103C115.333 109.628 109.961 115 103.333 115C96.706 115 91.3335 109.628 91.3335 103C91.3335 96.3729 96.706 91.0003 103.333 91.0003C109.961 91.0003 115.333 96.3729 115.333 103ZM31.3335 19.0003C31.3335 25.6277 25.9609 31.0003 19.3335 31.0003C12.706 31.0003 7.33346 25.6277 7.33346 19.0003C7.33346 12.3729 12.706 7.00032 19.3335 7.00032C25.9609 7.00032 31.3335 12.3729 31.3335 19.0003ZM31.3335 103C31.3335 109.628 25.9609 115 19.3335 115C12.706 115 7.33346 109.628 7.33346 103C7.33346 96.3729 12.706 91.0003 19.3335 91.0003C25.9609 91.0003 31.3335 96.3729 31.3335 103ZM61.0014 44.0296L77.972 61.0002L61.0014 77.9707L44.0309 61.0002L61.0014 44.0296Z" stroke="url(#paint0_linear_17575_5164)" stroke-width="2" stroke-linejoin="round"/>
<defs>
<linearGradient id="paint0_linear_17575_5164" x1="90.0301" y1="94.1338" x2="9.4556" y2="26.2802" gradientUnits="userSpaceOnUse">
<stop offset="0.21" stop-color="#ED1E79"/>
<stop offset="1" stop-color="#522785"/>
</linearGradient>
</defs>
</svg>
