<svg width="125" height="126" viewBox="0 0 125 126" fill="none" xmlns="http://www.w3.org/2000/svg">
<rect x="2.33301" y="3" width="120" height="120" rx="60" stroke="url(#paint0_linear_17346_57341)" stroke-width="2" stroke-linejoin="round"/>
<path d="M96.333 29L28.333 97" stroke="url(#paint1_linear_17346_57341)" stroke-width="2" stroke-linejoin="round"/>
<path d="M28.333 29L96.333 97" stroke="url(#paint2_linear_17346_57341)" stroke-width="2" stroke-linejoin="round"/>
<path d="M98.8594 26.5334C99.9543 19.997 106.141 15.5858 112.677 16.6806C119.213 17.7754 123.625 23.9617 122.53 30.4981C121.435 37.0344 115.249 41.4457 108.712 40.3509C102.176 39.256 97.7646 33.0697 98.8594 26.5334Z" fill="#F1EEF5"/>
<path d="M92.333 21C92.333 14.3726 97.7056 9 104.333 9C110.96 9 116.333 14.3726 116.333 21C116.333 27.6274 110.96 33 104.333 33C97.7056 33 92.333 27.6274 92.333 21Z" fill="#F1EEF5"/>
<path d="M92.333 21C92.333 14.3726 97.7056 9 104.333 9C110.96 9 116.333 14.3726 116.333 21C116.333 27.6274 110.96 33 104.333 33C97.7056 33 92.333 27.6274 92.333 21Z" stroke="url(#paint3_linear_17346_57341)" stroke-width="2" stroke-linejoin="round"/>
<path d="M84.9825 109.379C86.0773 102.843 92.2636 98.4315 98.8 99.5263C105.336 100.621 109.748 106.807 108.653 113.344C107.558 119.88 101.372 124.291 94.8353 123.197C88.2989 122.102 83.8877 115.915 84.9825 109.379Z" fill="#F1EEF5"/>
<path d="M92.333 105C92.333 98.3726 97.7056 93 104.333 93C110.96 93 116.333 98.3726 116.333 105C116.333 111.627 110.96 117 104.333 117C97.7056 117 92.333 111.627 92.333 105Z" fill="#F1EEF5"/>
<path d="M92.333 105C92.333 98.3726 97.7056 93 104.333 93C110.96 93 116.333 98.3726 116.333 105C116.333 111.627 110.96 117 104.333 117C97.7056 117 92.333 111.627 92.333 105Z" stroke="url(#paint4_linear_17346_57341)" stroke-width="2" stroke-linejoin="round"/>
<path d="M16.0128 12.6564C17.1076 6.12006 23.2939 1.70882 29.8302 2.80364C36.3666 3.89847 40.7778 10.0848 39.683 16.6211C38.5882 23.1575 32.4019 27.5687 25.8655 26.4739C19.3292 25.3791 14.9179 19.1928 16.0128 12.6564Z" fill="#F1EEF5"/>
<path d="M8.33301 21C8.33301 14.3726 13.7056 9 20.333 9C26.9604 9 32.333 14.3726 32.333 21C32.333 27.6274 26.9604 33 20.333 33C13.7056 33 8.33301 27.6274 8.33301 21Z" fill="#F1EEF5"/>
<path d="M8.33301 21C8.33301 14.3726 13.7056 9 20.333 9C26.9604 9 32.333 14.3726 32.333 21C32.333 27.6274 26.9604 33 20.333 33C13.7056 33 8.33301 27.6274 8.33301 21Z" stroke="url(#paint5_linear_17346_57341)" stroke-width="2" stroke-linejoin="round"/>
<path d="M2.13679 95.5021C3.23161 88.9658 9.41791 84.5545 15.9543 85.6493C22.4906 86.7442 26.9019 92.9305 25.807 99.4668C24.7122 106.003 18.5259 110.414 11.9896 109.32C5.4532 108.225 1.04196 102.038 2.13679 95.5021Z" fill="#F1EEF5"/>
<path d="M8.33301 105C8.33301 98.3726 13.7056 93 20.333 93C26.9604 93 32.333 98.3726 32.333 105C32.333 111.627 26.9604 117 20.333 117C13.7056 117 8.33301 111.627 8.33301 105Z" fill="#F1EEF5"/>
<path d="M8.33301 105C8.33301 98.3726 13.7056 93 20.333 93C26.9604 93 32.333 98.3726 32.333 105C32.333 111.627 26.9604 117 20.333 117C13.7056 117 8.33301 111.627 8.33301 105Z" stroke="url(#paint6_linear_17346_57341)" stroke-width="2" stroke-linejoin="round"/>
<rect x="62" y="46.0293" width="24" height="24" transform="rotate(45 62 46.0293)" fill="#F1EEF5" stroke="url(#paint7_linear_17346_57341)" stroke-width="2" stroke-linejoin="round"/>
<defs>
<linearGradient id="paint0_linear_17346_57341" x1="91.0301" y1="96.1338" x2="10.4556" y2="28.2802" gradientUnits="userSpaceOnUse">
<stop offset="0.21" stop-color="#ED1E79"/>
<stop offset="1" stop-color="#522785"/>
</linearGradient>
<linearGradient id="paint1_linear_17346_57341" x1="78.5947" y1="81.7758" x2="32.9358" y2="43.3255" gradientUnits="userSpaceOnUse">
<stop offset="0.21" stop-color="#ED1E79"/>
<stop offset="1" stop-color="#522785"/>
</linearGradient>
<linearGradient id="paint2_linear_17346_57341" x1="81.1088" y1="46.7383" x2="42.6585" y2="92.3972" gradientUnits="userSpaceOnUse">
<stop offset="0.21" stop-color="#ED1E79"/>
<stop offset="1" stop-color="#522785"/>
</linearGradient>
<linearGradient id="paint3_linear_17346_57341" x1="110.072" y1="27.6268" x2="93.9575" y2="14.056" gradientUnits="userSpaceOnUse">
<stop offset="0.21" stop-color="#ED1E79"/>
<stop offset="1" stop-color="#522785"/>
</linearGradient>
<linearGradient id="paint4_linear_17346_57341" x1="110.072" y1="111.627" x2="93.9575" y2="98.056" gradientUnits="userSpaceOnUse">
<stop offset="0.21" stop-color="#ED1E79"/>
<stop offset="1" stop-color="#522785"/>
</linearGradient>
<linearGradient id="paint5_linear_17346_57341" x1="26.0724" y1="27.6268" x2="9.95753" y2="14.056" gradientUnits="userSpaceOnUse">
<stop offset="0.21" stop-color="#ED1E79"/>
<stop offset="1" stop-color="#522785"/>
</linearGradient>
<linearGradient id="paint6_linear_17346_57341" x1="26.0724" y1="111.627" x2="9.95753" y2="98.056" gradientUnits="userSpaceOnUse">
<stop offset="0.21" stop-color="#ED1E79"/>
<stop offset="1" stop-color="#522785"/>
</linearGradient>
<linearGradient id="paint7_linear_17346_57341" x1="79.7394" y1="64.6561" x2="63.6245" y2="51.0853" gradientUnits="userSpaceOnUse">
<stop offset="0.21" stop-color="#ED1E79"/>
<stop offset="1" stop-color="#522785"/>
</linearGradient>
</defs>
</svg>
