<svg width="121" height="120" viewBox="0 0 121 120" fill="none" xmlns="http://www.w3.org/2000/svg">
<path d="M79.5185 39.8621C79.128 40.2526 79.128 40.8858 79.5185 41.2763C79.909 41.6668 80.5422 41.6668 80.9327 41.2763L79.5185 39.8621ZM92.5527 29.6563C92.9432 29.2658 92.9432 28.6326 92.5527 28.2421C92.1622 27.8516 91.529 27.8516 91.1385 28.2421L92.5527 29.6563ZM47.2292 40.826C47.6197 41.2165 48.2529 41.2165 48.6434 40.826C49.0339 40.4355 49.0339 39.8023 48.6434 39.4118L47.2292 40.826ZM38.6534 29.4218C38.2629 29.0313 37.6297 29.0313 37.2392 29.4218C36.8487 29.8123 36.8487 30.4455 37.2392 30.836L38.6534 29.4218ZM87.7292 81.326C88.1197 81.7165 88.7529 81.7165 89.1434 81.326C89.5339 80.9355 89.5339 80.3023 89.1434 79.9118L87.7292 81.326ZM79.1534 69.9218C78.7629 69.5313 78.1297 69.5313 77.7392 69.9218C77.3487 70.3123 77.3487 70.9455 77.7392 71.336L79.1534 69.9218ZM80.9327 41.2763L92.5527 29.6563L91.1385 28.2421L79.5185 39.8621L80.9327 41.2763ZM48.6434 39.4118L38.6534 29.4218L37.2392 30.836L47.2292 40.826L48.6434 39.4118ZM89.1434 79.9118L79.1534 69.9218L77.7392 71.336L87.7292 81.326L89.1434 79.9118ZM84.1971 55.0483C84.1971 66.2652 75.104 75.3583 63.8871 75.3583V77.3583C76.2086 77.3583 86.1971 67.3698 86.1971 55.0483H84.1971ZM63.8871 75.3583C52.6702 75.3583 43.5771 66.2652 43.5771 55.0483H41.5771C41.5771 67.3698 51.5657 77.3583 63.8871 77.3583V75.3583ZM43.5771 55.0483C43.5771 43.8314 52.6702 34.7383 63.8871 34.7383V32.7383C51.5657 32.7383 41.5771 42.7268 41.5771 55.0483H43.5771ZM63.8871 34.7383C75.104 34.7383 84.1971 43.8314 84.1971 55.0483H86.1971C86.1971 42.7268 76.2086 32.7383 63.8871 32.7383V34.7383ZM82.1132 66.7703C78.0737 61.0669 71.4151 57.3383 63.8871 57.3383V59.3383C70.7392 59.3383 76.8006 62.7296 80.4811 67.9263L82.1132 66.7703ZM63.8871 57.3383C56.3651 57.3383 50.1675 60.8104 46.1003 66.1741L47.694 67.3825C51.4068 62.4861 57.0292 59.3383 63.8871 59.3383V57.3383ZM71.4872 48.3983C71.4872 52.5956 68.0845 55.9983 63.8871 55.9983V57.9983C69.1891 57.9983 73.4872 53.7002 73.4872 48.3983H71.4872ZM63.8871 55.9983C59.6898 55.9983 56.2871 52.5956 56.2871 48.3983H54.2871C54.2871 53.7002 58.5852 57.9983 63.8871 57.9983V55.9983ZM56.2871 48.3983C56.2871 44.2009 59.6898 40.7983 63.8871 40.7983V38.7983C58.5852 38.7983 54.2871 43.0964 54.2871 48.3983H56.2871ZM63.8871 40.7983C68.0845 40.7983 71.4872 44.2009 71.4872 48.3983H73.4872C73.4872 43.0964 69.1891 38.7983 63.8871 38.7983V40.7983ZM41.5769 18.37C41.5769 26.3063 35.1432 32.74 27.2069 32.74V34.74C36.2478 34.74 43.5769 27.4109 43.5769 18.37H41.5769ZM27.2069 32.74C19.2706 32.74 12.8369 26.3063 12.8369 18.37H10.8369C10.8369 27.4109 18.166 34.74 27.2069 34.74V32.74ZM12.8369 18.37C12.8369 10.4337 19.2706 4 27.2069 4V2C18.166 2 10.8369 9.3291 10.8369 18.37H12.8369ZM27.2069 4C35.1432 4 41.5769 10.4337 41.5769 18.37H43.5769C43.5769 9.3291 36.2478 2 27.2069 2V4ZM40.5833 26.6625C37.6237 22.4785 32.7347 19.74 27.2069 19.74V21.74C32.0591 21.74 36.3502 24.1415 38.9505 27.8175L40.5833 26.6625ZM27.2069 19.74C21.6843 19.74 17.1372 22.2926 14.1505 26.2252L15.7433 27.4348C18.3766 23.9674 22.3495 21.74 27.2069 21.74V19.74ZM32.4169 13.57C32.4169 16.4474 30.0843 18.78 27.2069 18.78V20.78C31.1889 20.78 34.4169 17.552 34.4169 13.57H32.4169ZM27.2069 18.78C24.3295 18.78 21.9969 16.4474 21.9969 13.57H19.9969C19.9969 17.552 23.2249 20.78 27.2069 20.78V18.78ZM21.9969 13.57C21.9969 10.6926 24.3295 8.36 27.2069 8.36V6.36C23.2249 6.36 19.9969 9.58803 19.9969 13.57H21.9969ZM27.2069 8.36C30.0843 8.36 32.4169 10.6926 32.4169 13.57H34.4169C34.4169 9.58803 31.1889 6.36 27.2069 6.36V8.36ZM114.946 91.7411C114.946 99.6774 108.512 106.111 100.576 106.111V108.111C109.617 108.111 116.946 100.782 116.946 91.7411H114.946ZM100.576 106.111C92.6397 106.111 86.2061 99.6774 86.2061 91.7411H84.2061C84.2061 100.782 91.5352 108.111 100.576 108.111V106.111ZM86.2061 91.7411C86.2061 83.8048 92.6397 77.3711 100.576 77.3711V75.3711C91.5352 75.3711 84.2061 82.7002 84.2061 91.7411H86.2061ZM100.576 77.3711C108.512 77.3711 114.946 83.8048 114.946 91.7411H116.946C116.946 82.7002 109.617 75.3711 100.576 75.3711V77.3711ZM113.942 100.034C110.983 95.8496 106.094 93.1111 100.566 93.1111V95.1111C105.418 95.1111 109.709 97.5126 112.31 101.189L113.942 100.034ZM100.566 93.1111C95.0434 93.1111 90.4964 95.6637 87.5097 99.5963L89.1024 100.806C91.7358 97.3385 95.7087 95.1111 100.566 95.1111V93.1111ZM105.786 86.9411C105.786 89.8185 103.453 92.1511 100.576 92.1511V94.1511C104.558 94.1511 107.786 90.9231 107.786 86.9411H105.786ZM100.576 92.1511C97.6987 92.1511 95.3661 89.8185 95.3661 86.9411H93.3661C93.3661 90.9231 96.5941 94.1511 100.576 94.1511V92.1511ZM95.3661 86.9411C95.3661 84.0637 97.6987 81.7311 100.576 81.7311V79.7311C96.5941 79.7311 93.3661 82.9591 93.3661 86.9411H95.3661ZM100.576 81.7311C103.453 81.7311 105.786 84.0637 105.786 86.9411H107.786C107.786 82.9591 104.558 79.7311 100.576 79.7311V81.7311ZM32.407 72.3778C32.407 80.3141 25.9733 86.7478 18.037 86.7478V88.7478C27.0779 88.7478 34.407 81.4187 34.407 72.3778H32.407ZM18.037 86.7478C10.1007 86.7478 3.66699 80.3141 3.66699 72.3778H1.66699C1.66699 81.4187 8.99609 88.7478 18.037 88.7478V86.7478ZM3.66699 72.3778C3.66699 64.4415 10.1007 58.0078 18.037 58.0078V56.0078C8.99609 56.0078 1.66699 63.3369 1.66699 72.3778H3.66699ZM18.037 58.0078C25.9733 58.0078 32.407 64.4415 32.407 72.3778H34.407C34.407 63.3369 27.0779 56.0078 18.037 56.0078V58.0078ZM31.4134 80.6703C28.4537 76.4863 23.5648 73.7478 18.037 73.7478V75.7478C22.8892 75.7478 27.1803 78.1493 29.7806 81.8253L31.4134 80.6703ZM18.037 73.7478C12.5144 73.7478 7.96729 76.3004 4.98062 80.233L6.57336 81.4426C9.2067 77.9752 13.1796 75.7478 18.037 75.7478V73.7478ZM23.247 67.5778C23.247 70.4552 20.9144 72.7878 18.037 72.7878V74.7878C22.019 74.7878 25.247 71.5598 25.247 67.5778H23.247ZM18.037 72.7878C15.1596 72.7878 12.827 70.4552 12.827 67.5778H10.827C10.827 71.5598 14.055 74.7878 18.037 74.7878V72.7878ZM12.827 67.5778C12.827 64.7004 15.1596 62.3678 18.037 62.3678V60.3678C14.055 60.3678 10.827 63.5958 10.827 67.5778H12.827ZM18.037 62.3678C20.9144 62.3678 23.247 64.7004 23.247 67.5778H25.247C25.247 63.5958 22.019 60.3678 18.037 60.3678V62.3678ZM64.7468 100.608C64.7468 108.545 58.3132 114.978 50.3768 114.978V116.978C59.4177 116.978 66.7468 109.649 66.7468 100.608H64.7468ZM50.3768 114.978C42.4405 114.978 36.0068 108.545 36.0068 100.608H34.0068C34.0068 109.649 41.3359 116.978 50.3768 116.978V114.978ZM36.0068 100.608C36.0068 92.672 42.4405 86.2383 50.3768 86.2383V84.2383C41.3359 84.2383 34.0068 91.5674 34.0068 100.608H36.0068ZM50.3768 86.2383C58.3132 86.2383 64.7468 92.672 64.7468 100.608H66.7468C66.7468 91.5674 59.4177 84.2383 50.3768 84.2383V86.2383ZM63.7432 108.901C60.7836 104.717 55.8947 101.978 50.3668 101.978V103.978C55.219 103.978 59.5101 106.38 62.1104 110.056L63.7432 108.901ZM50.3668 101.978C44.8442 101.978 40.2971 104.531 37.3105 108.463L38.9032 109.673C41.5365 106.206 45.5095 103.978 50.3668 103.978V101.978ZM55.5868 95.8083C55.5868 98.6857 53.2542 101.018 50.3768 101.018V103.018C54.3588 103.018 57.5868 99.7903 57.5868 95.8083H55.5868ZM50.3768 101.018C47.4994 101.018 45.1668 98.6857 45.1668 95.8083H43.1668C43.1668 99.7903 46.3949 103.018 50.3768 103.018V101.018ZM45.1668 95.8083C45.1668 92.9309 47.4994 90.5983 50.3768 90.5983V88.5983C46.3949 88.5983 43.1668 91.8263 43.1668 95.8083H45.1668ZM50.3768 90.5983C53.2542 90.5983 55.5868 92.9309 55.5868 95.8083H57.5868C57.5868 91.8263 54.3588 88.5983 50.3768 88.5983V90.5983ZM111.987 19.7811C111.987 26.0827 106.879 31.1911 100.577 31.1911V33.1911C107.983 33.1911 113.987 27.1872 113.987 19.7811H111.987ZM100.577 31.1911C94.2754 31.1911 89.167 26.0827 89.167 19.7811H87.167C87.167 27.1872 93.1709 33.1911 100.577 33.1911V31.1911ZM89.167 19.7811C89.167 13.4795 94.2754 8.37109 100.577 8.37109V6.37109C93.1709 6.37109 87.167 12.375 87.167 19.7811H89.167ZM100.577 8.37109C106.879 8.37109 111.987 13.4795 111.987 19.7811H113.987C113.987 12.375 107.983 6.37109 100.577 6.37109V8.37109Z" fill="url(#paint0_linear_18156_23742)"/>
<defs>
<linearGradient id="paint0_linear_18156_23742" x1="86.3964" y1="90.6841" x2="10.5025" y2="26.6021" gradientUnits="userSpaceOnUse">
<stop offset="0.21" stop-color="#ED1E79"/>
<stop offset="1" stop-color="#522785"/>
</linearGradient>
</defs>
</svg>
