<svg width="493" height="248" viewBox="0 0 493 248" fill="none" xmlns="http://www.w3.org/2000/svg">
<path d="M1.68945 16H484.689C489.108 16 492.689 19.5817 492.689 24V64C492.689 68.4183 489.108 72 484.689 72H1.68945V16Z" fill="url(#paint0_linear_17598_5337)"/>
<path d="M224.589 43.32C224.589 46.28 226.573 47.8 228.685 47.8C230.797 47.8 232.781 46.28 232.781 43.32C232.781 40.36 230.797 38.856 228.685 38.856C226.573 38.856 224.589 40.36 224.589 43.32ZM222.989 43.32C222.989 39.528 225.837 37.416 228.685 37.416C231.533 37.416 234.381 39.528 234.381 43.32C234.381 47.112 231.533 49.24 228.685 49.24C225.837 49.24 222.989 47.112 222.989 43.32ZM237.753 52.04H236.265V41.304H237.721V42.504C238.137 41.736 239.049 41.128 240.297 41.128C242.601 41.128 243.833 42.904 243.833 45.144C243.833 47.432 242.505 49.208 240.249 49.208C239.065 49.208 238.169 48.648 237.753 47.96V52.04ZM242.297 45.144C242.297 43.608 241.433 42.456 240.025 42.456C238.649 42.456 237.737 43.608 237.737 45.144C237.737 46.728 238.649 47.864 240.025 47.864C241.417 47.864 242.297 46.728 242.297 45.144ZM247.736 38.872V41.304H249.4V42.664H247.736V46.664C247.736 47.368 248.024 47.72 248.808 47.72C249 47.72 249.272 47.688 249.4 47.656V48.936C249.272 48.984 248.888 49.08 248.376 49.08C247.064 49.08 246.232 48.28 246.232 46.888V42.664H244.76V41.304H245.176C246.008 41.304 246.36 40.792 246.36 40.12V38.872H247.736ZM252.675 49H251.187V41.304H252.675V49ZM250.851 38.392C250.851 37.784 251.331 37.304 251.923 37.304C252.531 37.304 253.011 37.784 253.011 38.392C253.011 38.984 252.531 39.464 251.923 39.464C251.331 39.464 250.851 38.984 250.851 38.392ZM256.597 49H255.109V41.304H256.549V42.328C257.029 41.48 257.989 41.08 258.885 41.08C259.845 41.08 260.773 41.544 261.189 42.536C261.797 41.432 262.789 41.08 263.765 41.08C265.109 41.08 266.421 41.992 266.421 44.008V49H264.933V44.168C264.933 43.16 264.437 42.408 263.301 42.408C262.245 42.408 261.525 43.24 261.525 44.344V49H260.021V44.168C260.021 43.176 259.541 42.408 258.389 42.408C257.317 42.408 256.597 43.208 256.597 44.36V49ZM270.253 49H268.765V41.304H270.253V49ZM268.429 38.392C268.429 37.784 268.909 37.304 269.501 37.304C270.109 37.304 270.589 37.784 270.589 38.392C270.589 38.984 270.109 39.464 269.501 39.464C268.909 39.464 268.429 38.984 268.429 38.392ZM278.383 49H272.207V47.688L276.431 42.664H272.271V41.304H278.303V42.616L274.079 47.64H278.383V49ZM281.306 44.36H285.514C285.482 43.256 284.762 42.392 283.402 42.392C282.138 42.392 281.37 43.368 281.306 44.36ZM285.738 46.36L287.034 46.808C286.602 48.168 285.37 49.24 283.578 49.24C281.514 49.24 279.706 47.736 279.706 45.128C279.706 42.712 281.45 41.064 283.386 41.064C285.754 41.064 287.082 42.696 287.082 45.096C287.082 45.288 287.066 45.48 287.05 45.576H281.258C281.29 46.952 282.282 47.912 283.578 47.912C284.826 47.912 285.45 47.224 285.738 46.36ZM290.008 45.128C290.008 46.712 290.824 47.88 292.264 47.88C293.64 47.88 294.488 46.68 294.488 45.096C294.488 43.512 293.656 42.424 292.28 42.424C290.904 42.424 290.008 43.544 290.008 45.128ZM294.504 47.96V47.832C294.136 48.568 293.32 49.208 292.12 49.208C289.864 49.208 288.472 47.416 288.472 45.128C288.472 42.952 289.944 41.096 292.12 41.096C293.48 41.096 294.216 41.768 294.472 42.392V37.416H295.96V47.576C295.96 48.312 296.024 48.872 296.04 49H294.584C294.552 48.824 294.504 48.424 294.504 47.96ZM305.656 38.776C305.128 38.776 304.44 39.032 304.44 40.088V41.304H307.992V37.416H309.496V49H307.992V42.664H304.44V49H302.888V42.664H301.464V41.304H302.888V40.008C302.888 38.296 304.024 37.368 305.416 37.368C305.928 37.368 306.248 37.48 306.312 37.528V38.872C306.232 38.84 306.04 38.776 305.656 38.776ZM315.345 47.896C316.625 47.896 317.745 46.936 317.745 45.144C317.745 43.368 316.625 42.408 315.345 42.408C314.065 42.408 312.945 43.368 312.945 45.144C312.945 46.936 314.065 47.896 315.345 47.896ZM315.345 41.064C317.649 41.064 319.281 42.808 319.281 45.144C319.281 47.496 317.649 49.24 315.345 49.24C313.041 49.24 311.409 47.496 311.409 45.144C311.409 42.808 313.041 41.064 315.345 41.064ZM320.69 46.936C320.69 45.56 321.698 44.792 323.026 44.6L325.106 44.296C325.57 44.232 325.698 43.992 325.698 43.72C325.698 42.968 325.202 42.344 324.034 42.344C322.978 42.344 322.386 43 322.29 43.896L320.85 43.56C321.01 42.088 322.338 41.064 324.002 41.064C326.306 41.064 327.202 42.376 327.202 43.88V47.736C327.202 48.408 327.266 48.808 327.298 49H325.826C325.794 48.808 325.746 48.52 325.746 47.96C325.41 48.504 324.642 49.24 323.266 49.24C321.698 49.24 320.69 48.152 320.69 46.936ZM323.474 47.976C324.706 47.976 325.698 47.384 325.698 45.704V45.352L323.346 45.704C322.706 45.8 322.226 46.168 322.226 46.856C322.226 47.432 322.706 47.976 323.474 47.976ZM331.611 38.872V41.304H333.275V42.664H331.611V46.664C331.611 47.368 331.899 47.72 332.683 47.72C332.875 47.72 333.147 47.688 333.275 47.656V48.936C333.147 48.984 332.763 49.08 332.251 49.08C330.939 49.08 330.107 48.28 330.107 46.888V42.664H328.635V41.304H329.051C329.883 41.304 330.235 40.792 330.235 40.12V38.872H331.611ZM336.55 49H335.062V41.304H336.55V49ZM334.726 38.392C334.726 37.784 335.206 37.304 335.798 37.304C336.406 37.304 336.886 37.784 336.886 38.392C336.886 38.984 336.406 39.464 335.798 39.464C335.206 39.464 334.726 38.984 334.726 38.392ZM340.488 44.552V49H338.984V41.304H340.456V42.408C341.016 41.448 341.928 41.08 342.824 41.08C344.664 41.08 345.576 42.408 345.576 44.12V49H344.072V44.376C344.072 43.304 343.624 42.44 342.28 42.44C341.096 42.44 340.488 43.384 340.488 44.552ZM347.409 49.416L348.865 49.08C348.977 50.152 349.793 50.968 350.961 50.968C352.577 50.968 353.313 50.136 353.313 48.472V47.368C352.945 48.072 352.113 48.632 350.961 48.632C348.913 48.632 347.425 47.08 347.425 44.904C347.425 42.824 348.849 41.16 350.961 41.16C352.145 41.16 352.945 41.608 353.329 42.376V41.304H354.817V48.424C354.817 50.376 353.857 52.28 350.961 52.28C349.041 52.28 347.601 51.064 347.409 49.416ZM351.185 47.368C352.481 47.368 353.377 46.392 353.377 44.904C353.377 43.416 352.481 42.44 351.185 42.44C349.857 42.44 348.961 43.416 348.961 44.904C348.961 46.408 349.825 47.368 351.185 47.368ZM361.441 45.064H357.105V43.752H361.441V45.064ZM365.222 52.04H363.734V41.304H365.19V42.504C365.606 41.736 366.518 41.128 367.766 41.128C370.07 41.128 371.302 42.904 371.302 45.144C371.302 47.432 369.974 49.208 367.718 49.208C366.534 49.208 365.638 48.648 365.222 47.96V52.04ZM369.766 45.144C369.766 43.608 368.902 42.456 367.494 42.456C366.118 42.456 365.206 43.608 365.206 45.144C365.206 46.728 366.118 47.864 367.494 47.864C368.886 47.864 369.766 46.728 369.766 45.144ZM376.658 47.896C377.938 47.896 379.058 46.936 379.058 45.144C379.058 43.368 377.938 42.408 376.658 42.408C375.378 42.408 374.258 43.368 374.258 45.144C374.258 46.936 375.378 47.896 376.658 47.896ZM376.658 41.064C378.962 41.064 380.594 42.808 380.594 45.144C380.594 47.496 378.962 49.24 376.658 49.24C374.354 49.24 372.722 47.496 372.722 45.144C372.722 42.808 374.354 41.064 376.658 41.064ZM384.003 49H382.515V41.304H384.003V49ZM382.179 38.392C382.179 37.784 382.659 37.304 383.251 37.304C383.859 37.304 384.339 37.784 384.339 38.392C384.339 38.984 383.859 39.464 383.251 39.464C382.659 39.464 382.179 38.984 382.179 38.392ZM387.941 44.552V49H386.437V41.304H387.909V42.408C388.469 41.448 389.381 41.08 390.277 41.08C392.117 41.08 393.029 42.408 393.029 44.12V49H391.525V44.376C391.525 43.304 391.077 42.44 389.733 42.44C388.549 42.44 387.941 43.384 387.941 44.552ZM397.408 38.872V41.304H399.072V42.664H397.408V46.664C397.408 47.368 397.696 47.72 398.48 47.72C398.672 47.72 398.944 47.688 399.072 47.656V48.936C398.944 48.984 398.56 49.08 398.048 49.08C396.736 49.08 395.904 48.28 395.904 46.888V42.664H394.432V41.304H394.848C395.68 41.304 396.032 40.792 396.032 40.12V38.872H397.408ZM404.378 46.936C404.378 45.56 405.386 44.792 406.714 44.6L408.794 44.296C409.258 44.232 409.386 43.992 409.386 43.72C409.386 42.968 408.89 42.344 407.722 42.344C406.666 42.344 406.074 43 405.978 43.896L404.538 43.56C404.698 42.088 406.026 41.064 407.69 41.064C409.994 41.064 410.89 42.376 410.89 43.88V47.736C410.89 48.408 410.954 48.808 410.986 49H409.514C409.482 48.808 409.434 48.52 409.434 47.96C409.098 48.504 408.33 49.24 406.954 49.24C405.386 49.24 404.378 48.152 404.378 46.936ZM407.162 47.976C408.394 47.976 409.386 47.384 409.386 45.704V45.352L407.034 45.704C406.394 45.8 405.914 46.168 405.914 46.856C405.914 47.432 406.394 47.976 407.162 47.976ZM417.537 41.224V42.824C417.313 42.792 417.089 42.776 416.881 42.776C415.617 42.776 414.769 43.448 414.769 45.144V49H413.265V41.304H414.737V42.648C415.297 41.464 416.257 41.176 417.041 41.176C417.249 41.176 417.457 41.208 417.537 41.224ZM420.565 49H419.077V41.304H420.565V49ZM418.741 38.392C418.741 37.784 419.221 37.304 419.813 37.304C420.421 37.304 420.901 37.784 420.901 38.392C420.901 38.984 420.421 39.464 419.813 39.464C419.221 39.464 418.741 38.984 418.741 38.392ZM425.095 38.872V41.304H426.759V42.664H425.095V46.664C425.095 47.368 425.383 47.72 426.167 47.72C426.359 47.72 426.631 47.688 426.759 47.656V48.936C426.631 48.984 426.247 49.08 425.735 49.08C424.423 49.08 423.591 48.28 423.591 46.888V42.664H422.119V41.304H422.535C423.367 41.304 423.719 40.792 423.719 40.12V38.872H425.095ZM430.05 44.472V49H428.546V37.416H430.05V42.2C430.61 41.384 431.506 41.08 432.386 41.08C434.226 41.08 435.138 42.408 435.138 44.12V49H433.634V44.376C433.634 43.304 433.186 42.44 431.842 42.44C430.69 42.44 430.082 43.336 430.05 44.472ZM438.972 49H437.484V41.304H438.924V42.328C439.404 41.48 440.364 41.08 441.26 41.08C442.22 41.08 443.148 41.544 443.564 42.536C444.172 41.432 445.164 41.08 446.14 41.08C447.484 41.08 448.796 41.992 448.796 44.008V49H447.308V44.168C447.308 43.16 446.812 42.408 445.676 42.408C444.62 42.408 443.9 43.24 443.9 44.344V49H442.396V44.168C442.396 43.176 441.916 42.408 440.764 42.408C439.692 42.408 438.972 43.208 438.972 44.36V49ZM452.228 44.36H456.436C456.404 43.256 455.684 42.392 454.324 42.392C453.06 42.392 452.292 43.368 452.228 44.36ZM456.66 46.36L457.956 46.808C457.524 48.168 456.292 49.24 454.5 49.24C452.436 49.24 450.628 47.736 450.628 45.128C450.628 42.712 452.372 41.064 454.308 41.064C456.676 41.064 458.004 42.696 458.004 45.096C458.004 45.288 457.988 45.48 457.972 45.576H452.18C452.212 46.952 453.204 47.912 454.5 47.912C455.748 47.912 456.372 47.224 456.66 46.36ZM461.908 38.872V41.304H463.572V42.664H461.908V46.664C461.908 47.368 462.196 47.72 462.98 47.72C463.172 47.72 463.444 47.688 463.572 47.656V48.936C463.444 48.984 463.06 49.08 462.548 49.08C461.236 49.08 460.404 48.28 460.404 46.888V42.664H458.932V41.304H459.348C460.18 41.304 460.532 40.792 460.532 40.12V38.872H461.908ZM466.847 49H465.359V41.304H466.847V49ZM465.023 38.392C465.023 37.784 465.503 37.304 466.095 37.304C466.703 37.304 467.183 37.784 467.183 38.392C467.183 38.984 466.703 39.464 466.095 39.464C465.503 39.464 465.023 38.984 465.023 38.392ZM472.64 42.456C471.424 42.456 470.304 43.352 470.304 45.144C470.304 46.904 471.408 47.848 472.656 47.848C474.096 47.848 474.624 46.872 474.8 46.264L476.128 46.84C475.76 47.944 474.656 49.24 472.656 49.24C470.416 49.24 468.768 47.48 468.768 45.144C468.768 42.744 470.448 41.064 472.64 41.064C474.688 41.064 475.744 42.344 476.064 43.512L474.704 44.088C474.512 43.336 473.952 42.456 472.64 42.456Z" fill="white"/>
<path d="M1 160V0" stroke="#181818" stroke-opacity="0.2"/>
<path d="M89.1585 121H87.5265L81.3985 111.752V121H79.8305V109.656H81.9265L87.5905 118.36V109.656H89.1585V121ZM91.2489 118.936C91.2489 117.56 92.2569 116.792 93.5849 116.6L95.6649 116.296C96.1289 116.232 96.2569 115.992 96.2569 115.72C96.2569 114.968 95.7609 114.344 94.5929 114.344C93.5369 114.344 92.9449 115 92.8489 115.896L91.4089 115.56C91.5689 114.088 92.8969 113.064 94.5609 113.064C96.8649 113.064 97.7609 114.376 97.7609 115.88V119.736C97.7609 120.408 97.8249 120.808 97.8569 121H96.3849C96.3529 120.808 96.3049 120.52 96.3049 119.96C95.9689 120.504 95.2009 121.24 93.8249 121.24C92.2569 121.24 91.2489 120.152 91.2489 118.936ZM94.0329 119.976C95.2649 119.976 96.2569 119.384 96.2569 117.704V117.352L93.9049 117.704C93.2649 117.8 92.7849 118.168 92.7849 118.856C92.7849 119.432 93.2649 119.976 94.0329 119.976ZM101.624 121H100.136V113.304H101.624V121ZM99.7999 110.392C99.7999 109.784 100.28 109.304 100.872 109.304C101.48 109.304 101.96 109.784 101.96 110.392C101.96 110.984 101.48 111.464 100.872 111.464C100.28 111.464 99.7999 110.984 99.7999 110.392ZM110.906 113.304L107.834 121H106.314L103.194 113.304H104.89L107.082 119.24L109.29 113.304H110.906ZM113.333 116.36H117.541C117.509 115.256 116.789 114.392 115.429 114.392C114.165 114.392 113.397 115.368 113.333 116.36ZM117.765 118.36L119.061 118.808C118.629 120.168 117.397 121.24 115.605 121.24C113.541 121.24 111.733 119.736 111.733 117.128C111.733 114.712 113.477 113.064 115.413 113.064C117.781 113.064 119.109 114.696 119.109 117.096C119.109 117.288 119.093 117.48 119.077 117.576H113.285C113.317 118.952 114.309 119.912 115.605 119.912C116.853 119.912 117.477 119.224 117.765 118.36ZM128.246 110.776C127.718 110.776 127.03 111.032 127.03 112.088V113.304H130.582V109.416H132.086V121H130.582V114.664H127.03V121H125.478V114.664H124.054V113.304H125.478V112.008C125.478 110.296 126.614 109.368 128.006 109.368C128.518 109.368 128.838 109.48 128.902 109.528V110.872C128.822 110.84 128.63 110.776 128.246 110.776ZM137.935 119.896C139.215 119.896 140.335 118.936 140.335 117.144C140.335 115.368 139.215 114.408 137.935 114.408C136.655 114.408 135.535 115.368 135.535 117.144C135.535 118.936 136.655 119.896 137.935 119.896ZM137.935 113.064C140.239 113.064 141.871 114.808 141.871 117.144C141.871 119.496 140.239 121.24 137.935 121.24C135.631 121.24 133.999 119.496 133.999 117.144C133.999 114.808 135.631 113.064 137.935 113.064ZM143.28 118.936C143.28 117.56 144.288 116.792 145.616 116.6L147.696 116.296C148.16 116.232 148.288 115.992 148.288 115.72C148.288 114.968 147.792 114.344 146.624 114.344C145.568 114.344 144.976 115 144.88 115.896L143.44 115.56C143.6 114.088 144.928 113.064 146.592 113.064C148.896 113.064 149.792 114.376 149.792 115.88V119.736C149.792 120.408 149.856 120.808 149.888 121H148.416C148.384 120.808 148.336 120.52 148.336 119.96C148 120.504 147.232 121.24 145.856 121.24C144.288 121.24 143.28 120.152 143.28 118.936ZM146.064 119.976C147.296 119.976 148.288 119.384 148.288 117.704V117.352L145.936 117.704C145.296 117.8 144.816 118.168 144.816 118.856C144.816 119.432 145.296 119.976 146.064 119.976ZM154.201 110.872V113.304H155.865V114.664H154.201V118.664C154.201 119.368 154.489 119.72 155.273 119.72C155.465 119.72 155.737 119.688 155.865 119.656V120.936C155.737 120.984 155.353 121.08 154.841 121.08C153.529 121.08 152.697 120.28 152.697 118.888V114.664H151.225V113.304H151.641C152.473 113.304 152.825 112.792 152.825 112.12V110.872H154.201ZM159.14 121H157.652V113.304H159.14V121ZM157.316 110.392C157.316 109.784 157.796 109.304 158.388 109.304C158.996 109.304 159.476 109.784 159.476 110.392C159.476 110.984 158.996 111.464 158.388 111.464C157.796 111.464 157.316 110.984 157.316 110.392ZM163.077 116.552V121H161.573V113.304H163.045V114.408C163.605 113.448 164.517 113.08 165.413 113.08C167.253 113.08 168.165 114.408 168.165 116.12V121H166.661V116.376C166.661 115.304 166.213 114.44 164.869 114.44C163.685 114.44 163.077 115.384 163.077 116.552ZM169.999 121.416L171.455 121.08C171.567 122.152 172.383 122.968 173.551 122.968C175.167 122.968 175.903 122.136 175.903 120.472V119.368C175.535 120.072 174.703 120.632 173.551 120.632C171.503 120.632 170.015 119.08 170.015 116.904C170.015 114.824 171.439 113.16 173.551 113.16C174.735 113.16 175.535 113.608 175.919 114.376V113.304H177.407V120.424C177.407 122.376 176.447 124.28 173.551 124.28C171.631 124.28 170.191 123.064 169.999 121.416ZM173.775 119.368C175.071 119.368 175.967 118.392 175.967 116.904C175.967 115.416 175.071 114.44 173.775 114.44C172.447 114.44 171.551 115.416 171.551 116.904C171.551 118.408 172.415 119.368 173.775 119.368ZM184.031 117.064H179.695V115.752H184.031V117.064ZM187.811 124.04H186.323V113.304H187.779V114.504C188.195 113.736 189.107 113.128 190.355 113.128C192.659 113.128 193.891 114.904 193.891 117.144C193.891 119.432 192.563 121.208 190.307 121.208C189.123 121.208 188.227 120.648 187.811 119.96V124.04ZM192.355 117.144C192.355 115.608 191.491 114.456 190.083 114.456C188.707 114.456 187.795 115.608 187.795 117.144C187.795 118.728 188.707 119.864 190.083 119.864C191.475 119.864 192.355 118.728 192.355 117.144ZM199.247 119.896C200.527 119.896 201.647 118.936 201.647 117.144C201.647 115.368 200.527 114.408 199.247 114.408C197.967 114.408 196.847 115.368 196.847 117.144C196.847 118.936 197.967 119.896 199.247 119.896ZM199.247 113.064C201.551 113.064 203.183 114.808 203.183 117.144C203.183 119.496 201.551 121.24 199.247 121.24C196.943 121.24 195.311 119.496 195.311 117.144C195.311 114.808 196.943 113.064 199.247 113.064ZM206.593 121H205.105V113.304H206.593V121ZM204.769 110.392C204.769 109.784 205.249 109.304 205.841 109.304C206.449 109.304 206.929 109.784 206.929 110.392C206.929 110.984 206.449 111.464 205.841 111.464C205.249 111.464 204.769 110.984 204.769 110.392ZM210.531 116.552V121H209.027V113.304H210.499V114.408C211.059 113.448 211.971 113.08 212.867 113.08C214.707 113.08 215.619 114.408 215.619 116.12V121H214.115V116.376C214.115 115.304 213.667 114.44 212.323 114.44C211.139 114.44 210.531 115.384 210.531 116.552ZM219.998 110.872V113.304H221.662V114.664H219.998V118.664C219.998 119.368 220.286 119.72 221.07 119.72C221.262 119.72 221.534 119.688 221.662 119.656V120.936C221.534 120.984 221.15 121.08 220.638 121.08C219.326 121.08 218.494 120.28 218.494 118.888V114.664H217.022V113.304H217.438C218.27 113.304 218.622 112.792 218.622 112.12V110.872H219.998ZM226.968 118.936C226.968 117.56 227.976 116.792 229.304 116.6L231.384 116.296C231.848 116.232 231.976 115.992 231.976 115.72C231.976 114.968 231.48 114.344 230.312 114.344C229.256 114.344 228.664 115 228.568 115.896L227.128 115.56C227.288 114.088 228.616 113.064 230.28 113.064C232.584 113.064 233.48 114.376 233.48 115.88V119.736C233.48 120.408 233.544 120.808 233.576 121H232.104C232.072 120.808 232.024 120.52 232.024 119.96C231.688 120.504 230.92 121.24 229.544 121.24C227.976 121.24 226.968 120.152 226.968 118.936ZM229.752 119.976C230.984 119.976 231.976 119.384 231.976 117.704V117.352L229.624 117.704C228.984 117.8 228.504 118.168 228.504 118.856C228.504 119.432 228.984 119.976 229.752 119.976ZM240.127 113.224V114.824C239.903 114.792 239.679 114.776 239.471 114.776C238.207 114.776 237.359 115.448 237.359 117.144V121H235.855V113.304H237.327V114.648C237.887 113.464 238.847 113.176 239.631 113.176C239.839 113.176 240.047 113.208 240.127 113.224ZM243.155 121H241.667V113.304H243.155V121ZM241.331 110.392C241.331 109.784 241.811 109.304 242.403 109.304C243.011 109.304 243.491 109.784 243.491 110.392C243.491 110.984 243.011 111.464 242.403 111.464C241.811 111.464 241.331 110.984 241.331 110.392ZM247.685 110.872V113.304H249.349V114.664H247.685V118.664C247.685 119.368 247.973 119.72 248.757 119.72C248.949 119.72 249.221 119.688 249.349 119.656V120.936C249.221 120.984 248.837 121.08 248.325 121.08C247.013 121.08 246.181 120.28 246.181 118.888V114.664H244.709V113.304H245.125C245.957 113.304 246.309 112.792 246.309 112.12V110.872H247.685ZM252.64 116.472V121H251.136V109.416H252.64V114.2C253.2 113.384 254.096 113.08 254.976 113.08C256.816 113.08 257.728 114.408 257.728 116.12V121H256.224V116.376C256.224 115.304 255.776 114.44 254.432 114.44C253.28 114.44 252.672 115.336 252.64 116.472ZM261.561 121H260.073V113.304H261.513V114.328C261.993 113.48 262.953 113.08 263.849 113.08C264.809 113.08 265.737 113.544 266.153 114.536C266.761 113.432 267.753 113.08 268.729 113.08C270.073 113.08 271.385 113.992 271.385 116.008V121H269.897V116.168C269.897 115.16 269.401 114.408 268.265 114.408C267.209 114.408 266.489 115.24 266.489 116.344V121H264.985V116.168C264.985 115.176 264.505 114.408 263.353 114.408C262.281 114.408 261.561 115.208 261.561 116.36V121ZM274.818 116.36H279.026C278.994 115.256 278.274 114.392 276.914 114.392C275.65 114.392 274.882 115.368 274.818 116.36ZM279.25 118.36L280.546 118.808C280.114 120.168 278.882 121.24 277.09 121.24C275.026 121.24 273.218 119.736 273.218 117.128C273.218 114.712 274.962 113.064 276.898 113.064C279.266 113.064 280.594 114.696 280.594 117.096C280.594 117.288 280.578 117.48 280.562 117.576H274.77C274.802 118.952 275.794 119.912 277.09 119.912C278.338 119.912 278.962 119.224 279.25 118.36ZM284.498 110.872V113.304H286.162V114.664H284.498V118.664C284.498 119.368 284.786 119.72 285.57 119.72C285.762 119.72 286.034 119.688 286.162 119.656V120.936C286.034 120.984 285.65 121.08 285.138 121.08C283.826 121.08 282.994 120.28 282.994 118.888V114.664H281.522V113.304H281.938C282.77 113.304 283.122 112.792 283.122 112.12V110.872H284.498ZM289.436 121H287.948V113.304H289.436V121ZM287.612 110.392C287.612 109.784 288.092 109.304 288.684 109.304C289.292 109.304 289.772 109.784 289.772 110.392C289.772 110.984 289.292 111.464 288.684 111.464C288.092 111.464 287.612 110.984 287.612 110.392ZM295.23 114.456C294.014 114.456 292.894 115.352 292.894 117.144C292.894 118.904 293.998 119.848 295.246 119.848C296.686 119.848 297.214 118.872 297.39 118.264L298.718 118.84C298.35 119.944 297.246 121.24 295.246 121.24C293.006 121.24 291.358 119.48 291.358 117.144C291.358 114.744 293.038 113.064 295.23 113.064C297.278 113.064 298.334 114.344 298.654 115.512L297.294 116.088C297.102 115.336 296.542 114.456 295.23 114.456Z" fill="#181818" fill-opacity="0.6"/>
<path d="M1.31055 88H54.3105C58.7288 88 62.3105 91.5817 62.3105 96V136C62.3105 140.418 58.7288 144 54.3105 144H1.31055V88Z" fill="#181818" fill-opacity="0.2"/>
<path d="M4.12 193H2.52V181.656H4.12V193ZM12.0566 193.24C9.12863 193.24 6.42463 191.112 6.42463 187.32C6.42463 183.528 9.24063 181.416 12.0566 181.416C14.6486 181.416 16.4726 182.824 17.0486 185.016L15.5926 185.528C15.1606 183.816 13.9126 182.856 12.0566 182.856C9.99263 182.856 8.02463 184.36 8.02463 187.32C8.02463 190.28 9.99263 191.8 12.0566 191.8C13.9926 191.8 15.2086 190.632 15.6726 189.08L17.0646 189.592C16.4566 191.72 14.6646 193.24 12.0566 193.24ZM20.6974 186.952H22.9694C24.3294 186.952 25.1614 186.2 25.1614 185.032C25.1614 183.832 24.3294 183.064 22.9694 183.064H20.6974V186.952ZM23.2574 188.36H20.6974V193H19.1294V181.656H23.2574C25.3534 181.656 26.7614 183.112 26.7614 185.016C26.7614 186.936 25.3534 188.36 23.2574 188.36ZM28.0984 183.416C28.0984 182.84 28.4984 182.44 29.0744 182.44C29.6344 182.44 30.0344 182.84 30.0344 183.416C30.0344 183.512 30.0184 183.624 30.0024 183.704L29.3304 186.712H28.7864L28.1304 183.72C28.1144 183.64 28.0984 183.496 28.0984 183.416ZM31.3111 191L32.6711 190.52C32.7671 191.32 33.3751 191.96 34.4631 191.96C35.3111 191.96 35.7751 191.48 35.7751 190.936C35.7751 190.456 35.4231 190.088 34.7831 189.944L33.4711 189.656C32.2711 189.4 31.5511 188.584 31.5511 187.496C31.5511 186.184 32.7831 185.064 34.2871 185.064C36.3991 185.064 37.0551 186.44 37.2151 187.128L35.8871 187.624C35.8231 187.224 35.5031 186.344 34.2871 186.344C33.5191 186.344 33.0071 186.84 33.0071 187.368C33.0071 187.832 33.2951 188.168 33.8871 188.296L35.1351 188.568C36.5271 188.872 37.2631 189.72 37.2631 190.856C37.2631 191.944 36.3511 193.24 34.4471 193.24C32.3351 193.24 31.4391 191.88 31.3111 191ZM42.6236 191L43.9836 190.52C44.0796 191.32 44.6876 191.96 45.7756 191.96C46.6236 191.96 47.0876 191.48 47.0876 190.936C47.0876 190.456 46.7356 190.088 46.0956 189.944L44.7836 189.656C43.5836 189.4 42.8636 188.584 42.8636 187.496C42.8636 186.184 44.0956 185.064 45.5996 185.064C47.7116 185.064 48.3676 186.44 48.5276 187.128L47.1996 187.624C47.1356 187.224 46.8156 186.344 45.5996 186.344C44.8316 186.344 44.3196 186.84 44.3196 187.368C44.3196 187.832 44.6076 188.168 45.1996 188.296L46.4476 188.568C47.8396 188.872 48.5756 189.72 48.5756 190.856C48.5756 191.944 47.6636 193.24 45.7596 193.24C43.6476 193.24 42.7516 191.88 42.6236 191ZM52.0009 193H50.5129V185.304H51.9529V186.328C52.4329 185.48 53.3929 185.08 54.2889 185.08C55.2489 185.08 56.1769 185.544 56.5929 186.536C57.2009 185.432 58.1929 185.08 59.1689 185.08C60.5129 185.08 61.8249 185.992 61.8249 188.008V193H60.3369V188.168C60.3369 187.16 59.8409 186.408 58.7049 186.408C57.6489 186.408 56.9289 187.24 56.9289 188.344V193H55.4249V188.168C55.4249 187.176 54.9449 186.408 53.7929 186.408C52.7209 186.408 52.0009 187.208 52.0009 188.36V193ZM63.6571 190.936C63.6571 189.56 64.6651 188.792 65.9931 188.6L68.0731 188.296C68.5371 188.232 68.6651 187.992 68.6651 187.72C68.6651 186.968 68.1691 186.344 67.0011 186.344C65.9451 186.344 65.3531 187 65.2571 187.896L63.8171 187.56C63.9771 186.088 65.3051 185.064 66.9691 185.064C69.2731 185.064 70.1691 186.376 70.1691 187.88V191.736C70.1691 192.408 70.2331 192.808 70.2651 193H68.7931C68.7611 192.808 68.7131 192.52 68.7131 191.96C68.3771 192.504 67.6091 193.24 66.2331 193.24C64.6651 193.24 63.6571 192.152 63.6571 190.936ZM66.4411 191.976C67.6731 191.976 68.6651 191.384 68.6651 189.704V189.352L66.3131 189.704C65.6731 189.8 65.1931 190.168 65.1931 190.856C65.1931 191.432 65.6731 191.976 66.4411 191.976ZM76.8161 185.224V186.824C76.5921 186.792 76.3681 186.776 76.1601 186.776C74.8961 186.776 74.0481 187.448 74.0481 189.144V193H72.5441V185.304H74.0161V186.648C74.5761 185.464 75.5361 185.176 76.3201 185.176C76.5281 185.176 76.7361 185.208 76.8161 185.224ZM80.4526 182.872V185.304H82.1166V186.664H80.4526V190.664C80.4526 191.368 80.7406 191.72 81.5246 191.72C81.7166 191.72 81.9886 191.688 82.1166 191.656V192.936C81.9886 192.984 81.6046 193.08 81.0926 193.08C79.7806 193.08 78.9486 192.28 78.9486 190.888V186.664H77.4766V185.304H77.8926C78.7246 185.304 79.0766 184.792 79.0766 184.12V182.872H80.4526ZM91.2948 186.456C90.0788 186.456 88.9588 187.352 88.9588 189.144C88.9588 190.904 90.0628 191.848 91.3108 191.848C92.7508 191.848 93.2788 190.872 93.4548 190.264L94.7828 190.84C94.4148 191.944 93.3108 193.24 91.3108 193.24C89.0707 193.24 87.4228 191.48 87.4228 189.144C87.4228 186.744 89.1028 185.064 91.2948 185.064C93.3428 185.064 94.3988 186.344 94.7188 187.512L93.3588 188.088C93.1668 187.336 92.6068 186.456 91.2948 186.456ZM99.9838 191.896C101.264 191.896 102.384 190.936 102.384 189.144C102.384 187.368 101.264 186.408 99.9838 186.408C98.7038 186.408 97.5838 187.368 97.5838 189.144C97.5838 190.936 98.7038 191.896 99.9838 191.896ZM99.9838 185.064C102.288 185.064 103.92 186.808 103.92 189.144C103.92 191.496 102.288 193.24 99.9838 193.24C97.6798 193.24 96.0478 191.496 96.0478 189.144C96.0478 186.808 97.6798 185.064 99.9838 185.064ZM107.345 188.552V193H105.841V185.304H107.313V186.408C107.873 185.448 108.785 185.08 109.681 185.08C111.521 185.08 112.433 186.408 112.433 188.12V193H110.929V188.376C110.929 187.304 110.481 186.44 109.137 186.44C107.953 186.44 107.345 187.384 107.345 188.552ZM116.812 182.872V185.304H118.476V186.664H116.812V190.664C116.812 191.368 117.1 191.72 117.884 191.72C118.076 191.72 118.348 191.688 118.476 191.656V192.936C118.348 192.984 117.964 193.08 117.452 193.08C116.14 193.08 115.308 192.28 115.308 190.888V186.664H113.836V185.304H114.252C115.084 185.304 115.436 184.792 115.436 184.12V182.872H116.812ZM124.535 185.224V186.824C124.311 186.792 124.087 186.776 123.879 186.776C122.615 186.776 121.767 187.448 121.767 189.144V193H120.263V185.304H121.735V186.648C122.295 185.464 123.255 185.176 124.039 185.176C124.247 185.176 124.455 185.208 124.535 185.224ZM125.563 190.936C125.563 189.56 126.571 188.792 127.899 188.6L129.979 188.296C130.443 188.232 130.571 187.992 130.571 187.72C130.571 186.968 130.075 186.344 128.907 186.344C127.851 186.344 127.259 187 127.163 187.896L125.723 187.56C125.883 186.088 127.211 185.064 128.875 185.064C131.179 185.064 132.075 186.376 132.075 187.88V191.736C132.075 192.408 132.139 192.808 132.171 193H130.699C130.667 192.808 130.619 192.52 130.619 191.96C130.283 192.504 129.515 193.24 128.139 193.24C126.571 193.24 125.563 192.152 125.563 190.936ZM128.347 191.976C129.579 191.976 130.571 191.384 130.571 189.704V189.352L128.219 189.704C127.579 189.8 127.099 190.168 127.099 190.856C127.099 191.432 127.579 191.976 128.347 191.976ZM137.81 186.456C136.594 186.456 135.474 187.352 135.474 189.144C135.474 190.904 136.578 191.848 137.826 191.848C139.266 191.848 139.794 190.872 139.97 190.264L141.298 190.84C140.93 191.944 139.826 193.24 137.826 193.24C135.586 193.24 133.938 191.48 133.938 189.144C133.938 186.744 135.618 185.064 137.81 185.064C139.858 185.064 140.914 186.344 141.234 187.512L139.874 188.088C139.682 187.336 139.122 186.456 137.81 186.456ZM145.171 182.872V185.304H146.835V186.664H145.171V190.664C145.171 191.368 145.459 191.72 146.243 191.72C146.435 191.72 146.707 191.688 146.835 191.656V192.936C146.707 192.984 146.323 193.08 145.811 193.08C144.499 193.08 143.667 192.28 143.667 190.888V186.664H142.195V185.304H142.611C143.443 185.304 143.795 184.792 143.795 184.12V182.872H145.171ZM148.014 191L149.374 190.52C149.47 191.32 150.078 191.96 151.166 191.96C152.014 191.96 152.478 191.48 152.478 190.936C152.478 190.456 152.126 190.088 151.486 189.944L150.174 189.656C148.974 189.4 148.254 188.584 148.254 187.496C148.254 186.184 149.486 185.064 150.99 185.064C153.102 185.064 153.758 186.44 153.918 187.128L152.59 187.624C152.526 187.224 152.206 186.344 150.99 186.344C150.222 186.344 149.71 186.84 149.71 187.368C149.71 187.832 149.998 188.168 150.59 188.296L151.838 188.568C153.23 188.872 153.966 189.72 153.966 190.856C153.966 191.944 153.054 193.24 151.15 193.24C149.038 193.24 148.142 191.88 148.014 191ZM163.295 186.456C162.079 186.456 160.959 187.352 160.959 189.144C160.959 190.904 162.063 191.848 163.311 191.848C164.751 191.848 165.279 190.872 165.455 190.264L166.783 190.84C166.415 191.944 165.311 193.24 163.311 193.24C161.071 193.24 159.423 191.48 159.423 189.144C159.423 186.744 161.103 185.064 163.295 185.064C165.343 185.064 166.399 186.344 166.719 187.512L165.359 188.088C165.167 187.336 164.607 186.456 163.295 186.456ZM168.048 190.936C168.048 189.56 169.056 188.792 170.384 188.6L172.464 188.296C172.928 188.232 173.056 187.992 173.056 187.72C173.056 186.968 172.56 186.344 171.392 186.344C170.336 186.344 169.744 187 169.648 187.896L168.208 187.56C168.368 186.088 169.696 185.064 171.36 185.064C173.664 185.064 174.56 186.376 174.56 187.88V191.736C174.56 192.408 174.624 192.808 174.656 193H173.184C173.152 192.808 173.104 192.52 173.104 191.96C172.768 192.504 172 193.24 170.624 193.24C169.056 193.24 168.048 192.152 168.048 190.936ZM170.832 191.976C172.064 191.976 173.056 191.384 173.056 189.704V189.352L170.704 189.704C170.064 189.8 169.584 190.168 169.584 190.856C169.584 191.432 170.064 191.976 170.832 191.976ZM178.439 188.552V193H176.935V185.304H178.407V186.408C178.967 185.448 179.879 185.08 180.775 185.08C182.615 185.08 183.527 186.408 183.527 188.12V193H182.023V188.376C182.023 187.304 181.575 186.44 180.231 186.44C179.047 186.44 178.439 187.384 178.439 188.552ZM191.408 193H189.904V181.416H191.408V193ZM194.929 188.36H199.137C199.105 187.256 198.385 186.392 197.025 186.392C195.761 186.392 194.993 187.368 194.929 188.36ZM199.361 190.36L200.657 190.808C200.225 192.168 198.993 193.24 197.201 193.24C195.137 193.24 193.329 191.736 193.329 189.128C193.329 186.712 195.073 185.064 197.009 185.064C199.377 185.064 200.705 186.696 200.705 189.096C200.705 189.288 200.689 189.48 200.673 189.576H194.881C194.913 190.952 195.905 191.912 197.201 191.912C198.449 191.912 199.073 191.224 199.361 190.36ZM209.173 185.304L206.101 193H204.581L201.461 185.304H203.157L205.349 191.24L207.557 185.304H209.173ZM211.601 188.36H215.809C215.777 187.256 215.057 186.392 213.697 186.392C212.433 186.392 211.665 187.368 211.601 188.36ZM216.033 190.36L217.329 190.808C216.897 192.168 215.665 193.24 213.873 193.24C211.809 193.24 210.001 191.736 210.001 189.128C210.001 186.712 211.745 185.064 213.681 185.064C216.049 185.064 217.377 186.696 217.377 189.096C217.377 189.288 217.361 189.48 217.345 189.576H211.553C211.585 190.952 212.577 191.912 213.873 191.912C215.121 191.912 215.745 191.224 216.033 190.36ZM223.535 185.224V186.824C223.311 186.792 223.087 186.776 222.879 186.776C221.615 186.776 220.767 187.448 220.767 189.144V193H219.263V185.304H220.735V186.648C221.295 185.464 222.255 185.176 223.039 185.176C223.247 185.176 223.455 185.208 223.535 185.224ZM224.563 190.936C224.563 189.56 225.571 188.792 226.899 188.6L228.979 188.296C229.443 188.232 229.571 187.992 229.571 187.72C229.571 186.968 229.075 186.344 227.907 186.344C226.851 186.344 226.259 187 226.163 187.896L224.723 187.56C224.883 186.088 226.211 185.064 227.875 185.064C230.179 185.064 231.075 186.376 231.075 187.88V191.736C231.075 192.408 231.139 192.808 231.171 193H229.699C229.667 192.808 229.619 192.52 229.619 191.96C229.283 192.504 228.515 193.24 227.139 193.24C225.571 193.24 224.563 192.152 224.563 190.936ZM227.347 191.976C228.579 191.976 229.571 191.384 229.571 189.704V189.352L227.219 189.704C226.579 189.8 226.099 190.168 226.099 190.856C226.099 191.432 226.579 191.976 227.347 191.976ZM232.938 193.416L234.394 193.08C234.506 194.152 235.322 194.968 236.49 194.968C238.106 194.968 238.842 194.136 238.842 192.472V191.368C238.474 192.072 237.642 192.632 236.49 192.632C234.442 192.632 232.954 191.08 232.954 188.904C232.954 186.824 234.378 185.16 236.49 185.16C237.674 185.16 238.474 185.608 238.858 186.376V185.304H240.346V192.424C240.346 194.376 239.386 196.28 236.49 196.28C234.57 196.28 233.13 195.064 232.938 193.416ZM236.714 191.368C238.01 191.368 238.906 190.392 238.906 188.904C238.906 187.416 238.01 186.44 236.714 186.44C235.386 186.44 234.49 187.416 234.49 188.904C234.49 190.408 235.354 191.368 236.714 191.368ZM243.867 188.36H248.075C248.043 187.256 247.323 186.392 245.963 186.392C244.699 186.392 243.931 187.368 243.867 188.36ZM248.299 190.36L249.595 190.808C249.163 192.168 247.931 193.24 246.139 193.24C244.075 193.24 242.267 191.736 242.267 189.128C242.267 186.712 244.011 185.064 245.947 185.064C248.315 185.064 249.642 186.696 249.642 189.096C249.642 189.288 249.627 189.48 249.611 189.576H243.819C243.851 190.952 244.843 191.912 246.139 191.912C247.387 191.912 248.011 191.224 248.299 190.36ZM262.984 184.232L261.576 184.728C261.448 183.912 260.76 182.792 259.176 182.792C257.896 182.792 256.984 183.624 256.984 184.68C256.984 185.496 257.48 186.12 258.44 186.328L260.136 186.696C262.024 187.112 263.08 188.296 263.08 189.88C263.08 191.64 261.576 193.24 259.16 193.24C256.424 193.24 255.128 191.48 254.92 189.864L256.424 189.384C256.536 190.648 257.432 191.816 259.144 191.816C260.712 191.816 261.48 191 261.48 190.008C261.48 189.192 260.92 188.488 259.784 188.248L258.168 187.896C256.552 187.544 255.4 186.488 255.4 184.792C255.4 183.016 257.048 181.416 259.144 181.416C261.704 181.416 262.728 183 262.984 184.232ZM266.964 193H265.364V181.656H266.964V193ZM282.26 193H280.708V184.168L276.836 193H275.396L271.556 184.168V193H270.004V181.656H272.132L276.132 190.888L280.164 181.656H282.26V193ZM286.869 191.608H289.189C291.285 191.608 293.045 190.2 293.045 187.352C293.045 184.488 291.317 183.048 289.221 183.048H286.869V191.608ZM289.237 193H285.301V181.656H289.269C292.149 181.656 294.661 183.624 294.661 187.352C294.661 191.064 292.117 193 289.237 193ZM303.98 193H302.444V185.688H299.932V184.584C301.372 184.552 302.364 183.752 302.604 182.632H303.98V193ZM307.589 186.36L306.021 186.168C306.005 186.024 306.005 185.88 306.005 185.752C306.005 183.976 307.317 182.392 309.589 182.392C311.813 182.392 313.093 183.848 313.093 185.576C313.093 186.936 312.325 188.024 311.141 188.776L309.093 190.088C308.501 190.472 307.973 190.904 307.829 191.544H313.157V193H305.893C305.925 191.304 306.597 190.008 308.357 188.872L310.085 187.752C311.061 187.128 311.509 186.392 311.509 185.592C311.509 184.648 310.869 183.768 309.557 183.768C308.197 183.768 307.557 184.712 307.557 185.896C307.557 186.04 307.573 186.2 307.589 186.36ZM318.592 187.048C319.696 187.032 320.512 186.36 320.512 185.352C320.512 184.424 319.76 183.688 318.592 183.688C317.424 183.688 316.672 184.424 316.672 185.352C316.672 186.36 317.488 187.032 318.592 187.048ZM318.592 191.88C319.984 191.88 320.768 191.112 320.768 190.136C320.768 189.144 319.968 188.36 318.592 188.36C317.216 188.36 316.416 189.144 316.416 190.136C316.416 191.112 317.2 191.88 318.592 191.88ZM318.592 193.24C316.208 193.24 314.832 191.928 314.832 190.264C314.832 189 315.696 188.072 316.8 187.704C315.856 187.352 315.104 186.424 315.104 185.272C315.104 183.576 316.608 182.392 318.592 182.392C320.576 182.392 322.08 183.576 322.08 185.272C322.08 186.392 321.344 187.352 320.384 187.704C321.488 188.056 322.352 189 322.352 190.264C322.352 191.928 320.976 193.24 318.592 193.24ZM328.596 189.064H324.26V187.752H328.596V189.064ZM332.376 193H330.888V181.416H332.376V186.392C332.744 185.704 333.64 185.08 334.92 185.08C337.256 185.08 338.456 186.872 338.456 189.112C338.456 191.4 337.16 193.208 334.872 193.208C333.736 193.208 332.856 192.712 332.376 191.88V193ZM336.92 189.112C336.92 187.448 336.04 186.408 334.648 186.408C333.32 186.408 332.36 187.448 332.36 189.112C332.36 190.776 333.32 191.864 334.648 191.864C336.024 191.864 336.92 190.776 336.92 189.112ZM341.876 193H340.388V185.304H341.876V193ZM340.052 182.392C340.052 181.784 340.532 181.304 341.124 181.304C341.732 181.304 342.212 181.784 342.212 182.392C342.212 182.984 341.732 183.464 341.124 183.464C340.532 183.464 340.052 182.984 340.052 182.392ZM346.406 182.872V185.304H348.07V186.664H346.406V190.664C346.406 191.368 346.694 191.72 347.478 191.72C347.67 191.72 347.942 191.688 348.07 191.656V192.936C347.942 192.984 347.558 193.08 347.046 193.08C345.734 193.08 344.902 192.28 344.902 190.888V186.664H343.43V185.304H343.846C344.678 185.304 345.03 184.792 345.03 184.12V182.872H346.406ZM355.376 193H353.888V185.304H355.376V193ZM353.552 182.392C353.552 181.784 354.032 181.304 354.624 181.304C355.232 181.304 355.712 181.784 355.712 182.392C355.712 182.984 355.232 183.464 354.624 183.464C354.032 183.464 353.552 182.984 353.552 182.392ZM359.314 188.552V193H357.81V185.304H359.282V186.408C359.842 185.448 360.754 185.08 361.65 185.08C363.49 185.08 364.402 186.408 364.402 188.12V193H362.898V188.376C362.898 187.304 362.45 186.44 361.106 186.44C359.922 186.44 359.314 187.384 359.314 188.552ZM366.139 191L367.499 190.52C367.595 191.32 368.203 191.96 369.291 191.96C370.139 191.96 370.603 191.48 370.603 190.936C370.603 190.456 370.251 190.088 369.611 189.944L368.299 189.656C367.099 189.4 366.379 188.584 366.379 187.496C366.379 186.184 367.611 185.064 369.115 185.064C371.227 185.064 371.883 186.44 372.043 187.128L370.715 187.624C370.651 187.224 370.331 186.344 369.115 186.344C368.347 186.344 367.835 186.84 367.835 187.368C367.835 187.832 368.123 188.168 368.715 188.296L369.963 188.568C371.355 188.872 372.091 189.72 372.091 190.856C372.091 191.944 371.179 193.24 369.275 193.24C367.163 193.24 366.267 191.88 366.139 191ZM376.125 182.872V185.304H377.789V186.664H376.125V190.664C376.125 191.368 376.413 191.72 377.197 191.72C377.389 191.72 377.661 191.688 377.789 191.656V192.936C377.661 192.984 377.277 193.08 376.765 193.08C375.453 193.08 374.621 192.28 374.621 190.888V186.664H373.149V185.304H373.565C374.397 185.304 374.749 184.792 374.749 184.12V182.872H376.125ZM383.847 185.224V186.824C383.623 186.792 383.399 186.776 383.191 186.776C381.927 186.776 381.079 187.448 381.079 189.144V193H379.575V185.304H381.047V186.648C381.607 185.464 382.567 185.176 383.351 185.176C383.559 185.176 383.767 185.208 383.847 185.224ZM390.46 192.072C390.044 192.872 389.084 193.24 388.188 193.24C386.396 193.24 385.308 191.896 385.308 190.152V185.304H386.812V189.928C386.812 190.984 387.292 191.912 388.556 191.912C389.772 191.912 390.38 191.112 390.38 189.944V185.304H391.884V191.576C391.884 192.184 391.932 192.728 391.964 193H390.524C390.492 192.824 390.46 192.392 390.46 192.072ZM397.685 186.456C396.469 186.456 395.349 187.352 395.349 189.144C395.349 190.904 396.453 191.848 397.701 191.848C399.141 191.848 399.669 190.872 399.845 190.264L401.173 190.84C400.805 191.944 399.701 193.24 397.701 193.24C395.461 193.24 393.813 191.48 393.813 189.144C393.813 186.744 395.493 185.064 397.685 185.064C399.733 185.064 400.789 186.344 401.109 187.512L399.749 188.088C399.557 187.336 398.997 186.456 397.685 186.456ZM405.046 182.872V185.304H406.71V186.664H405.046V190.664C405.046 191.368 405.334 191.72 406.118 191.72C406.31 191.72 406.582 191.688 406.71 191.656V192.936C406.582 192.984 406.198 193.08 405.686 193.08C404.374 193.08 403.542 192.28 403.542 190.888V186.664H402.07V185.304H402.486C403.318 185.304 403.67 184.792 403.67 184.12V182.872H405.046ZM409.985 193H408.497V185.304H409.985V193ZM408.161 182.392C408.161 181.784 408.641 181.304 409.233 181.304C409.841 181.304 410.321 181.784 410.321 182.392C410.321 182.984 409.841 183.464 409.233 183.464C408.641 183.464 408.161 182.984 408.161 182.392ZM415.843 191.896C417.123 191.896 418.243 190.936 418.243 189.144C418.243 187.368 417.123 186.408 415.843 186.408C414.563 186.408 413.443 187.368 413.443 189.144C413.443 190.936 414.563 191.896 415.843 191.896ZM415.843 185.064C418.147 185.064 419.779 186.808 419.779 189.144C419.779 191.496 418.147 193.24 415.843 193.24C413.539 193.24 411.907 191.496 411.907 189.144C411.907 186.808 413.539 185.064 415.843 185.064ZM423.204 188.552V193H421.7V185.304H423.172V186.408C423.732 185.448 424.644 185.08 425.54 185.08C427.38 185.08 428.292 186.408 428.292 188.12V193H426.788V188.376C426.788 187.304 426.34 186.44 424.996 186.44C423.812 186.44 423.204 187.384 423.204 188.552ZM430.03 191L431.39 190.52C431.486 191.32 432.094 191.96 433.182 191.96C434.03 191.96 434.494 191.48 434.494 190.936C434.494 190.456 434.142 190.088 433.502 189.944L432.19 189.656C430.99 189.4 430.27 188.584 430.27 187.496C430.27 186.184 431.502 185.064 433.006 185.064C435.118 185.064 435.774 186.44 435.934 187.128L434.606 187.624C434.542 187.224 434.222 186.344 433.006 186.344C432.238 186.344 431.726 186.84 431.726 187.368C431.726 187.832 432.014 188.168 432.606 188.296L433.854 188.568C435.246 188.872 435.982 189.72 435.982 190.856C435.982 191.944 435.07 193.24 433.166 193.24C431.054 193.24 430.158 191.88 430.03 191ZM437.615 191.976C437.615 191.4 438.111 190.904 438.783 190.904C439.471 190.904 440.079 191.416 440.079 192.424C440.079 194.536 438.703 195.416 437.711 195.544V194.712C438.495 194.536 439.023 193.752 439.039 192.984C438.991 193.016 438.863 193.064 438.687 193.064C438.095 193.064 437.615 192.664 437.615 191.976ZM3.704 217H2.216V209.304H3.656V210.328C4.136 209.48 5.096 209.08 5.992 209.08C6.952 209.08 7.88 209.544 8.296 210.536C8.904 209.432 9.896 209.08 10.872 209.08C12.216 209.08 13.528 209.992 13.528 212.008V217H12.04V212.168C12.04 211.16 11.544 210.408 10.408 210.408C9.352 210.408 8.632 211.24 8.632 212.344V217H7.128V212.168C7.128 211.176 6.648 210.408 5.496 210.408C4.424 210.408 3.704 211.208 3.704 212.36V217ZM15.3603 214.936C15.3603 213.56 16.3683 212.792 17.6963 212.6L19.7763 212.296C20.2403 212.232 20.3683 211.992 20.3683 211.72C20.3683 210.968 19.8723 210.344 18.7043 210.344C17.6483 210.344 17.0563 211 16.9603 211.896L15.5203 211.56C15.6803 210.088 17.0082 209.064 18.6723 209.064C20.9763 209.064 21.8723 210.376 21.8723 211.88V215.736C21.8723 216.408 21.9363 216.808 21.9683 217H20.4963C20.4643 216.808 20.4163 216.52 20.4163 215.96C20.0803 216.504 19.3123 217.24 17.9363 217.24C16.3683 217.24 15.3603 216.152 15.3603 214.936ZM18.1443 215.976C19.3763 215.976 20.3683 215.384 20.3683 213.704V213.352L18.0163 213.704C17.3763 213.8 16.8963 214.168 16.8963 214.856C16.8963 215.432 17.3763 215.976 18.1443 215.976ZM31.1433 209.304L27.8633 212.552L31.2073 217H29.3193L26.8073 213.608L25.7353 214.68V217H24.2473V205.416H25.7353V212.712L29.0633 209.304H31.1433ZM34.1571 217H32.6691V209.304H34.1571V217ZM32.3331 206.392C32.3331 205.784 32.8131 205.304 33.4051 205.304C34.0131 205.304 34.4931 205.784 34.4931 206.392C34.4931 206.984 34.0131 207.464 33.4051 207.464C32.8131 207.464 32.3331 206.984 32.3331 206.392ZM38.095 212.552V217H36.591V209.304H38.063V210.408C38.623 209.448 39.535 209.08 40.431 209.08C42.271 209.08 43.183 210.408 43.183 212.12V217H41.679V212.376C41.679 211.304 41.231 210.44 39.887 210.44C38.703 210.44 38.095 211.384 38.095 212.552ZM45.0165 217.416L46.4725 217.08C46.5845 218.152 47.4005 218.968 48.5685 218.968C50.1845 218.968 50.9205 218.136 50.9205 216.472V215.368C50.5525 216.072 49.7205 216.632 48.5685 216.632C46.5205 216.632 45.0325 215.08 45.0325 212.904C45.0325 210.824 46.4565 209.16 48.5685 209.16C49.7525 209.16 50.5525 209.608 50.9365 210.376V209.304H52.4245V216.424C52.4245 218.376 51.4645 220.28 48.5685 220.28C46.6485 220.28 45.2085 219.064 45.0165 217.416ZM48.7925 215.368C50.0885 215.368 50.9845 214.392 50.9845 212.904C50.9845 211.416 50.0885 210.44 48.7925 210.44C47.4645 210.44 46.5685 211.416 46.5685 212.904C46.5685 214.408 47.4325 215.368 48.7925 215.368ZM58.2799 215L59.6399 214.52C59.7359 215.32 60.3439 215.96 61.4319 215.96C62.2799 215.96 62.7439 215.48 62.7439 214.936C62.7439 214.456 62.3919 214.088 61.7519 213.944L60.4399 213.656C59.2399 213.4 58.5199 212.584 58.5199 211.496C58.5199 210.184 59.7519 209.064 61.2559 209.064C63.3679 209.064 64.0239 210.44 64.1839 211.128L62.8559 211.624C62.7919 211.224 62.4719 210.344 61.2559 210.344C60.4879 210.344 59.9759 210.84 59.9759 211.368C59.9759 211.832 60.2639 212.168 60.8559 212.296L62.1039 212.568C63.4959 212.872 64.2319 213.72 64.2319 214.856C64.2319 215.944 63.3199 217.24 61.4159 217.24C59.3039 217.24 58.4079 215.88 58.2799 215ZM67.6571 217H66.1691V209.304H67.6571V217ZM65.8331 206.392C65.8331 205.784 66.3131 205.304 66.9051 205.304C67.5131 205.304 67.9931 205.784 67.9931 206.392C67.9931 206.984 67.5131 207.464 66.9051 207.464C66.3131 207.464 65.8331 206.984 65.8331 206.392ZM71.595 212.552V217H70.091V209.304H71.563V210.408C72.123 209.448 73.035 209.08 73.931 209.08C75.771 209.08 76.683 210.408 76.683 212.12V217H75.179V212.376C75.179 211.304 74.731 210.44 73.387 210.44C72.203 210.44 71.595 211.384 71.595 212.552ZM78.5165 217.416L79.9725 217.08C80.0845 218.152 80.9005 218.968 82.0685 218.968C83.6845 218.968 84.4205 218.136 84.4205 216.472V215.368C84.0525 216.072 83.2205 216.632 82.0685 216.632C80.0205 216.632 78.5325 215.08 78.5325 212.904C78.5325 210.824 79.9565 209.16 82.0685 209.16C83.2525 209.16 84.0525 209.608 84.4365 210.376V209.304H85.9245V216.424C85.9245 218.376 84.9645 220.28 82.0685 220.28C80.1485 220.28 78.7085 219.064 78.5165 217.416ZM82.2925 215.368C83.5885 215.368 84.4845 214.392 84.4845 212.904C84.4845 211.416 83.5885 210.44 82.2925 210.44C80.9645 210.44 80.0685 211.416 80.0685 212.904C80.0685 214.408 80.9325 215.368 82.2925 215.368ZM89.8606 217H88.3566V205.416H89.8606V217ZM93.3821 212.36H97.5901C97.5581 211.256 96.8381 210.392 95.4781 210.392C94.2141 210.392 93.4461 211.368 93.3821 212.36ZM97.8141 214.36L99.1101 214.808C98.6781 216.168 97.4461 217.24 95.6541 217.24C93.5901 217.24 91.7821 215.736 91.7821 213.128C91.7821 210.712 93.5261 209.064 95.4621 209.064C97.8301 209.064 99.1581 210.696 99.1581 213.096C99.1581 213.288 99.1421 213.48 99.1261 213.576H93.3341C93.3661 214.952 94.3581 215.912 95.6541 215.912C96.9021 215.912 97.5261 215.224 97.8141 214.36ZM105.236 213.064H100.9V211.752H105.236V213.064ZM109.017 220.04H107.529V209.304H108.985V210.504C109.401 209.736 110.312 209.128 111.561 209.128C113.865 209.128 115.097 210.904 115.097 213.144C115.097 215.432 113.769 217.208 111.513 217.208C110.329 217.208 109.433 216.648 109.017 215.96V220.04ZM113.561 213.144C113.561 211.608 112.697 210.456 111.289 210.456C109.913 210.456 109.001 211.608 109.001 213.144C109.001 214.728 109.913 215.864 111.289 215.864C112.681 215.864 113.561 214.728 113.561 213.144ZM121.301 209.224V210.824C121.077 210.792 120.853 210.776 120.645 210.776C119.381 210.776 118.533 211.448 118.533 213.144V217H117.029V209.304H118.501V210.648C119.061 209.464 120.021 209.176 120.805 209.176C121.013 209.176 121.221 209.208 121.301 209.224ZM123.788 212.36H127.996C127.964 211.256 127.244 210.392 125.884 210.392C124.62 210.392 123.852 211.368 123.788 212.36ZM128.22 214.36L129.516 214.808C129.084 216.168 127.852 217.24 126.06 217.24C123.996 217.24 122.188 215.736 122.188 213.128C122.188 210.712 123.932 209.064 125.868 209.064C128.236 209.064 129.564 210.696 129.564 213.096C129.564 213.288 129.548 213.48 129.532 213.576H123.74C123.772 214.952 124.764 215.912 126.06 215.912C127.308 215.912 127.932 215.224 128.22 214.36ZM134.81 210.456C133.594 210.456 132.474 211.352 132.474 213.144C132.474 214.904 133.578 215.848 134.826 215.848C136.266 215.848 136.794 214.872 136.97 214.264L138.298 214.84C137.93 215.944 136.826 217.24 134.826 217.24C132.586 217.24 130.938 215.48 130.938 213.144C130.938 210.744 132.618 209.064 134.81 209.064C136.858 209.064 137.914 210.344 138.234 211.512L136.874 212.088C136.682 211.336 136.122 210.456 134.81 210.456ZM141.563 217H140.075V209.304H141.563V217ZM139.739 206.392C139.739 205.784 140.219 205.304 140.811 205.304C141.419 205.304 141.899 205.784 141.899 206.392C141.899 206.984 141.419 207.464 140.811 207.464C140.219 207.464 139.739 206.984 139.739 206.392ZM143.389 215L144.749 214.52C144.845 215.32 145.453 215.96 146.541 215.96C147.389 215.96 147.853 215.48 147.853 214.936C147.853 214.456 147.501 214.088 146.861 213.944L145.549 213.656C144.349 213.4 143.629 212.584 143.629 211.496C143.629 210.184 144.861 209.064 146.365 209.064C148.477 209.064 149.133 210.44 149.293 211.128L147.965 211.624C147.901 211.224 147.581 210.344 146.365 210.344C145.597 210.344 145.085 210.84 145.085 211.368C145.085 211.832 145.373 212.168 145.965 212.296L147.213 212.568C148.605 212.872 149.341 213.72 149.341 214.856C149.341 215.944 148.429 217.24 146.525 217.24C144.413 217.24 143.517 215.88 143.389 215ZM152.767 217H151.279V209.304H152.767V217ZM150.943 206.392C150.943 205.784 151.423 205.304 152.015 205.304C152.623 205.304 153.103 205.784 153.103 206.392C153.103 206.984 152.623 207.464 152.015 207.464C151.423 207.464 150.943 206.984 150.943 206.392ZM158.624 215.896C159.904 215.896 161.024 214.936 161.024 213.144C161.024 211.368 159.904 210.408 158.624 210.408C157.344 210.408 156.224 211.368 156.224 213.144C156.224 214.936 157.344 215.896 158.624 215.896ZM158.624 209.064C160.928 209.064 162.56 210.808 162.56 213.144C162.56 215.496 160.928 217.24 158.624 217.24C156.32 217.24 154.688 215.496 154.688 213.144C154.688 210.808 156.32 209.064 158.624 209.064ZM165.986 212.552V217H164.482V209.304H165.954V210.408C166.514 209.448 167.426 209.08 168.322 209.08C170.162 209.08 171.074 210.408 171.074 212.12V217H169.57V212.376C169.57 211.304 169.122 210.44 167.778 210.44C166.594 210.44 165.986 211.384 165.986 212.552ZM180.874 215.896C182.154 215.896 183.274 214.936 183.274 213.144C183.274 211.368 182.154 210.408 180.874 210.408C179.594 210.408 178.474 211.368 178.474 213.144C178.474 214.936 179.594 215.896 180.874 215.896ZM180.874 209.064C183.178 209.064 184.81 210.808 184.81 213.144C184.81 215.496 183.178 217.24 180.874 217.24C178.57 217.24 176.938 215.496 176.938 213.144C176.938 210.808 178.57 209.064 180.874 209.064ZM188.22 220.04H186.732V209.304H188.188V210.504C188.604 209.736 189.516 209.128 190.764 209.128C193.068 209.128 194.3 210.904 194.3 213.144C194.3 215.432 192.972 217.208 190.716 217.208C189.532 217.208 188.636 216.648 188.22 215.96V220.04ZM192.764 213.144C192.764 211.608 191.9 210.456 190.492 210.456C189.116 210.456 188.204 211.608 188.204 213.144C188.204 214.728 189.116 215.864 190.492 215.864C191.884 215.864 192.764 214.728 192.764 213.144ZM197.32 212.36H201.528C201.496 211.256 200.776 210.392 199.416 210.392C198.152 210.392 197.384 211.368 197.32 212.36ZM201.752 214.36L203.048 214.808C202.616 216.168 201.384 217.24 199.592 217.24C197.528 217.24 195.72 215.736 195.72 213.128C195.72 210.712 197.464 209.064 199.4 209.064C201.768 209.064 203.096 210.696 203.096 213.096C203.096 213.288 203.08 213.48 203.064 213.576H197.272C197.304 214.952 198.296 215.912 199.592 215.912C200.84 215.912 201.464 215.224 201.752 214.36ZM209.254 209.224V210.824C209.03 210.792 208.806 210.776 208.598 210.776C207.334 210.776 206.486 211.448 206.486 213.144V217H204.982V209.304H206.454V210.648C207.014 209.464 207.974 209.176 208.758 209.176C208.966 209.176 209.174 209.208 209.254 209.224ZM210.282 214.936C210.282 213.56 211.29 212.792 212.618 212.6L214.698 212.296C215.162 212.232 215.29 211.992 215.29 211.72C215.29 210.968 214.794 210.344 213.626 210.344C212.57 210.344 211.978 211 211.882 211.896L210.442 211.56C210.602 210.088 211.93 209.064 213.594 209.064C215.898 209.064 216.794 210.376 216.794 211.88V215.736C216.794 216.408 216.858 216.808 216.89 217H215.418C215.386 216.808 215.338 216.52 215.338 215.96C215.002 216.504 214.234 217.24 212.858 217.24C211.29 217.24 210.282 216.152 210.282 214.936ZM213.066 215.976C214.298 215.976 215.29 215.384 215.29 213.704V213.352L212.938 213.704C212.298 213.8 211.818 214.168 211.818 214.856C211.818 215.432 212.298 215.976 213.066 215.976ZM221.203 206.872V209.304H222.867V210.664H221.203V214.664C221.203 215.368 221.491 215.72 222.275 215.72C222.467 215.72 222.739 215.688 222.867 215.656V216.936C222.739 216.984 222.355 217.08 221.843 217.08C220.531 217.08 219.699 216.28 219.699 214.888V210.664H218.227V209.304H218.643C219.475 209.304 219.827 208.792 219.827 208.12V206.872H221.203ZM226.142 217H224.654V209.304H226.142V217ZM224.318 206.392C224.318 205.784 224.798 205.304 225.39 205.304C225.998 205.304 226.478 205.784 226.478 206.392C226.478 206.984 225.998 207.464 225.39 207.464C224.798 207.464 224.318 206.984 224.318 206.392ZM231.999 215.896C233.279 215.896 234.399 214.936 234.399 213.144C234.399 211.368 233.279 210.408 231.999 210.408C230.719 210.408 229.599 211.368 229.599 213.144C229.599 214.936 230.719 215.896 231.999 215.896ZM231.999 209.064C234.303 209.064 235.935 210.808 235.935 213.144C235.935 215.496 234.303 217.24 231.999 217.24C229.695 217.24 228.063 215.496 228.063 213.144C228.063 210.808 229.695 209.064 231.999 209.064ZM239.361 212.552V217H237.857V209.304H239.329V210.408C239.889 209.448 240.801 209.08 241.697 209.08C243.537 209.08 244.449 210.408 244.449 212.12V217H242.945V212.376C242.945 211.304 242.497 210.44 241.153 210.44C239.969 210.44 239.361 211.384 239.361 212.552ZM246.186 215L247.546 214.52C247.642 215.32 248.25 215.96 249.338 215.96C250.186 215.96 250.65 215.48 250.65 214.936C250.65 214.456 250.298 214.088 249.658 213.944L248.346 213.656C247.146 213.4 246.426 212.584 246.426 211.496C246.426 210.184 247.658 209.064 249.162 209.064C251.274 209.064 251.93 210.44 252.09 211.128L250.762 211.624C250.698 211.224 250.378 210.344 249.162 210.344C248.394 210.344 247.882 210.84 247.882 211.368C247.882 211.832 248.17 212.168 248.762 212.296L250.01 212.568C251.402 212.872 252.138 213.72 252.138 214.856C252.138 215.944 251.226 217.24 249.322 217.24C247.21 217.24 246.314 215.88 246.186 215ZM257.403 214.664V212.856L261.851 206.632H264.011V213.208H265.787V214.664H264.011V217H262.491V214.664H257.403ZM262.491 213.208V208.136L258.843 213.208H262.491ZM266.585 217L269.449 213.08L266.681 209.304H268.505L270.393 212.008L272.249 209.304H274.025L271.289 213.08C271.753 213.704 273.657 216.376 274.121 217H272.313L270.329 214.168L268.377 217H266.585ZM283.513 210.664H281.657V217H280.105V210.664H278.681V209.304H280.105V208.008C280.105 206.296 281.241 205.368 282.633 205.368C283.145 205.368 283.465 205.48 283.529 205.528V206.872C283.449 206.84 283.257 206.776 282.873 206.776C282.345 206.776 281.657 207.032 281.657 208.088V209.304H283.513V210.664ZM284.563 214.936C284.563 213.56 285.571 212.792 286.899 212.6L288.979 212.296C289.443 212.232 289.571 211.992 289.571 211.72C289.571 210.968 289.075 210.344 287.907 210.344C286.851 210.344 286.259 211 286.163 211.896L284.723 211.56C284.883 210.088 286.211 209.064 287.875 209.064C290.179 209.064 291.075 210.376 291.075 211.88V215.736C291.075 216.408 291.139 216.808 291.171 217H289.699C289.667 216.808 289.619 216.52 289.619 215.96C289.283 216.504 288.515 217.24 287.139 217.24C285.571 217.24 284.563 216.152 284.563 214.936ZM287.347 215.976C288.579 215.976 289.571 215.384 289.571 213.704V213.352L287.219 213.704C286.579 213.8 286.099 214.168 286.099 214.856C286.099 215.432 286.579 215.976 287.347 215.976ZM292.842 215L294.202 214.52C294.298 215.32 294.906 215.96 295.994 215.96C296.842 215.96 297.306 215.48 297.306 214.936C297.306 214.456 296.954 214.088 296.314 213.944L295.002 213.656C293.802 213.4 293.082 212.584 293.082 211.496C293.082 210.184 294.314 209.064 295.818 209.064C297.93 209.064 298.586 210.44 298.746 211.128L297.418 211.624C297.354 211.224 297.034 210.344 295.818 210.344C295.05 210.344 294.538 210.84 294.538 211.368C294.538 211.832 294.826 212.168 295.418 212.296L296.666 212.568C298.058 212.872 298.794 213.72 298.794 214.856C298.794 215.944 297.882 217.24 295.978 217.24C293.866 217.24 292.97 215.88 292.842 215ZM302.828 206.872V209.304H304.492V210.664H302.828V214.664C302.828 215.368 303.116 215.72 303.9 215.72C304.092 215.72 304.364 215.688 304.492 215.656V216.936C304.364 216.984 303.98 217.08 303.468 217.08C302.156 217.08 301.324 216.28 301.324 214.888V210.664H299.852V209.304H300.268C301.1 209.304 301.452 208.792 301.452 208.12V206.872H302.828ZM307.304 212.36H311.512C311.48 211.256 310.76 210.392 309.4 210.392C308.136 210.392 307.368 211.368 307.304 212.36ZM311.736 214.36L313.032 214.808C312.6 216.168 311.368 217.24 309.576 217.24C307.512 217.24 305.704 215.736 305.704 213.128C305.704 210.712 307.448 209.064 309.384 209.064C311.752 209.064 313.08 210.696 313.08 213.096C313.08 213.288 313.064 213.48 313.048 213.576H307.256C307.288 214.952 308.28 215.912 309.576 215.912C310.824 215.912 311.448 215.224 311.736 214.36ZM319.238 209.224V210.824C319.014 210.792 318.79 210.776 318.582 210.776C317.318 210.776 316.47 211.448 316.47 213.144V217H314.966V209.304H316.438V210.648C316.998 209.464 317.958 209.176 318.742 209.176C318.95 209.176 319.158 209.208 319.238 209.224ZM323.954 214.936C323.954 213.56 324.962 212.792 326.29 212.6L328.37 212.296C328.834 212.232 328.962 211.992 328.962 211.72C328.962 210.968 328.466 210.344 327.298 210.344C326.242 210.344 325.65 211 325.554 211.896L324.114 211.56C324.274 210.088 325.602 209.064 327.266 209.064C329.57 209.064 330.466 210.376 330.466 211.88V215.736C330.466 216.408 330.53 216.808 330.562 217H329.09C329.058 216.808 329.01 216.52 329.01 215.96C328.674 216.504 327.906 217.24 326.53 217.24C324.962 217.24 323.954 216.152 323.954 214.936ZM326.738 215.976C327.97 215.976 328.962 215.384 328.962 213.704V213.352L326.61 213.704C325.97 213.8 325.49 214.168 325.49 214.856C325.49 215.432 325.97 215.976 326.738 215.976ZM334.345 212.552V217H332.841V209.304H334.313V210.408C334.873 209.448 335.785 209.08 336.681 209.08C338.521 209.08 339.433 210.408 339.433 212.12V217H337.929V212.376C337.929 211.304 337.481 210.44 336.137 210.44C334.953 210.44 334.345 211.384 334.345 212.552ZM342.819 213.128C342.819 214.712 343.635 215.88 345.075 215.88C346.451 215.88 347.299 214.68 347.299 213.096C347.299 211.512 346.467 210.424 345.091 210.424C343.715 210.424 342.819 211.544 342.819 213.128ZM347.315 215.96V215.832C346.947 216.568 346.131 217.208 344.931 217.208C342.674 217.208 341.283 215.416 341.283 213.128C341.283 210.952 342.755 209.096 344.931 209.096C346.291 209.096 347.027 209.768 347.283 210.392V205.416H348.771V215.576C348.771 216.312 348.835 216.872 348.851 217H347.395C347.363 216.824 347.315 216.424 347.315 215.96ZM356.751 212.472V217H355.247V205.416H356.751V210.2C357.311 209.384 358.207 209.08 359.087 209.08C360.927 209.08 361.839 210.408 361.839 212.12V217H360.335V212.376C360.335 211.304 359.887 210.44 358.543 210.44C357.391 210.44 356.783 211.336 356.751 212.472ZM363.673 214.936C363.673 213.56 364.681 212.792 366.009 212.6L368.089 212.296C368.553 212.232 368.681 211.992 368.681 211.72C368.681 210.968 368.185 210.344 367.017 210.344C365.961 210.344 365.369 211 365.273 211.896L363.833 211.56C363.993 210.088 365.321 209.064 366.985 209.064C369.289 209.064 370.185 210.376 370.185 211.88V215.736C370.185 216.408 370.249 216.808 370.281 217H368.809C368.777 216.808 368.729 216.52 368.729 215.96C368.393 216.504 367.625 217.24 366.249 217.24C364.681 217.24 363.673 216.152 363.673 214.936ZM366.457 215.976C367.689 215.976 368.681 215.384 368.681 213.704V213.352L366.329 213.704C365.689 213.8 365.209 214.168 365.209 214.856C365.209 215.432 365.689 215.976 366.457 215.976ZM374.064 217H372.56V205.416H374.064V217ZM380.513 210.664H378.657V217H377.105V210.664H375.681V209.304H377.105V208.008C377.105 206.296 378.241 205.368 379.633 205.368C380.145 205.368 380.465 205.48 380.529 205.528V206.872C380.449 206.84 380.257 206.776 379.873 206.776C379.345 206.776 378.657 207.032 378.657 208.088V209.304H380.513V210.664ZM385.971 213.064H381.635V211.752H385.971V213.064ZM389.751 220.04H388.263V209.304H389.719V210.504C390.135 209.736 391.047 209.128 392.295 209.128C394.599 209.128 395.831 210.904 395.831 213.144C395.831 215.432 394.503 217.208 392.247 217.208C391.063 217.208 390.167 216.648 389.751 215.96V220.04ZM394.295 213.144C394.295 211.608 393.431 210.456 392.023 210.456C390.647 210.456 389.735 211.608 389.735 213.144C389.735 214.728 390.647 215.864 392.023 215.864C393.415 215.864 394.295 214.728 394.295 213.144ZM402.035 209.224V210.824C401.811 210.792 401.587 210.776 401.379 210.776C400.115 210.776 399.267 211.448 399.267 213.144V217H397.763V209.304H399.235V210.648C399.795 209.464 400.755 209.176 401.539 209.176C401.747 209.176 401.955 209.208 402.035 209.224ZM404.523 212.36H408.731C408.699 211.256 407.979 210.392 406.619 210.392C405.355 210.392 404.587 211.368 404.523 212.36ZM408.955 214.36L410.251 214.808C409.819 216.168 408.587 217.24 406.795 217.24C404.731 217.24 402.923 215.736 402.923 213.128C402.923 210.712 404.667 209.064 406.603 209.064C408.971 209.064 410.299 210.696 410.299 213.096C410.299 213.288 410.283 213.48 410.267 213.576H404.475C404.507 214.952 405.499 215.912 406.795 215.912C408.043 215.912 408.667 215.224 408.955 214.36ZM415.545 210.456C414.329 210.456 413.209 211.352 413.209 213.144C413.209 214.904 414.313 215.848 415.561 215.848C417.001 215.848 417.529 214.872 417.705 214.264L419.033 214.84C418.665 215.944 417.561 217.24 415.561 217.24C413.321 217.24 411.673 215.48 411.673 213.144C411.673 210.744 413.353 209.064 415.545 209.064C417.593 209.064 418.649 210.344 418.969 211.512L417.609 212.088C417.417 211.336 416.857 210.456 415.545 210.456ZM422.298 217H420.81V209.304H422.298V217ZM420.474 206.392C420.474 205.784 420.954 205.304 421.546 205.304C422.154 205.304 422.634 205.784 422.634 206.392C422.634 206.984 422.154 207.464 421.546 207.464C420.954 207.464 420.474 206.984 420.474 206.392ZM424.124 215L425.484 214.52C425.58 215.32 426.188 215.96 427.276 215.96C428.124 215.96 428.588 215.48 428.588 214.936C428.588 214.456 428.236 214.088 427.596 213.944L426.284 213.656C425.084 213.4 424.364 212.584 424.364 211.496C424.364 210.184 425.596 209.064 427.1 209.064C429.212 209.064 429.868 210.44 430.028 211.128L428.7 211.624C428.636 211.224 428.316 210.344 427.1 210.344C426.332 210.344 425.82 210.84 425.82 211.368C425.82 211.832 426.108 212.168 426.7 212.296L427.948 212.568C429.34 212.872 430.076 213.72 430.076 214.856C430.076 215.944 429.164 217.24 427.26 217.24C425.148 217.24 424.252 215.88 424.124 215ZM433.501 217H432.013V209.304H433.501V217ZM431.677 206.392C431.677 205.784 432.157 205.304 432.749 205.304C433.357 205.304 433.837 205.784 433.837 206.392C433.837 206.984 433.357 207.464 432.749 207.464C432.157 207.464 431.677 206.984 431.677 206.392ZM439.359 215.896C440.639 215.896 441.759 214.936 441.759 213.144C441.759 211.368 440.639 210.408 439.359 210.408C438.079 210.408 436.959 211.368 436.959 213.144C436.959 214.936 438.079 215.896 439.359 215.896ZM439.359 209.064C441.663 209.064 443.295 210.808 443.295 213.144C443.295 215.496 441.663 217.24 439.359 217.24C437.055 217.24 435.423 215.496 435.423 213.144C435.423 210.808 437.055 209.064 439.359 209.064ZM446.72 212.552V217H445.216V209.304H446.688V210.408C447.248 209.448 448.16 209.08 449.056 209.08C450.896 209.08 451.808 210.408 451.808 212.12V217H450.304V212.376C450.304 211.304 449.856 210.44 448.512 210.44C447.328 210.44 446.72 211.384 446.72 212.552ZM5.64 239.896C6.92 239.896 8.04 238.936 8.04 237.144C8.04 235.368 6.92 234.408 5.64 234.408C4.36 234.408 3.24 235.368 3.24 237.144C3.24 238.936 4.36 239.896 5.64 239.896ZM5.64 233.064C7.944 233.064 9.576 234.808 9.576 237.144C9.576 239.496 7.944 241.24 5.64 241.24C3.336 241.24 1.704 239.496 1.704 237.144C1.704 234.808 3.336 233.064 5.64 233.064ZM12.9853 244.04H11.4973V233.304H12.9533V234.504C13.3693 233.736 14.2812 233.128 15.5293 233.128C17.8333 233.128 19.0653 234.904 19.0653 237.144C19.0653 239.432 17.7373 241.208 15.4813 241.208C14.2973 241.208 13.4013 240.648 12.9853 239.96V244.04ZM17.5293 237.144C17.5293 235.608 16.6653 234.456 15.2573 234.456C13.8813 234.456 12.9693 235.608 12.9693 237.144C12.9693 238.728 13.8813 239.864 15.2573 239.864C16.6493 239.864 17.5293 238.728 17.5293 237.144ZM22.0853 236.36H26.2933C26.2613 235.256 25.5413 234.392 24.1813 234.392C22.9173 234.392 22.1493 235.368 22.0853 236.36ZM26.5173 238.36L27.8133 238.808C27.3813 240.168 26.1493 241.24 24.3573 241.24C22.2933 241.24 20.4853 239.736 20.4853 237.128C20.4853 234.712 22.2293 233.064 24.1653 233.064C26.5333 233.064 27.8612 234.696 27.8612 237.096C27.8612 237.288 27.8453 237.48 27.8293 237.576H22.0373C22.0693 238.952 23.0613 239.912 24.3573 239.912C25.6053 239.912 26.2293 239.224 26.5173 238.36ZM34.0193 233.224V234.824C33.7953 234.792 33.5713 234.776 33.3633 234.776C32.0993 234.776 31.2513 235.448 31.2513 237.144V241H29.7473V233.304H31.2193V234.648C31.7793 233.464 32.7393 233.176 33.5233 233.176C33.7313 233.176 33.9393 233.208 34.0193 233.224ZM35.0478 238.936C35.0478 237.56 36.0558 236.792 37.3838 236.6L39.4638 236.296C39.9278 236.232 40.0558 235.992 40.0558 235.72C40.0558 234.968 39.5598 234.344 38.3918 234.344C37.3358 234.344 36.7438 235 36.6478 235.896L35.2078 235.56C35.3678 234.088 36.6957 233.064 38.3598 233.064C40.6638 233.064 41.5598 234.376 41.5598 235.88V239.736C41.5598 240.408 41.6238 240.808 41.6558 241H40.1838C40.1518 240.808 40.1038 240.52 40.1038 239.96C39.7678 240.504 38.9998 241.24 37.6238 241.24C36.0558 241.24 35.0478 240.152 35.0478 238.936ZM37.8318 239.976C39.0638 239.976 40.0558 239.384 40.0558 237.704V237.352L37.7038 237.704C37.0638 237.8 36.5838 238.168 36.5838 238.856C36.5838 239.432 37.0638 239.976 37.8318 239.976ZM45.9683 230.872V233.304H47.6323V234.664H45.9683V238.664C45.9683 239.368 46.2563 239.72 47.0403 239.72C47.2323 239.72 47.5043 239.688 47.6323 239.656V240.936C47.5043 240.984 47.1203 241.08 46.6083 241.08C45.2963 241.08 44.4643 240.28 44.4643 238.888V234.664H42.9923V233.304H43.4083C44.2403 233.304 44.5923 232.792 44.5923 232.12V230.872H45.9683ZM50.9071 241H49.4191V233.304H50.9071V241ZM49.0831 230.392C49.0831 229.784 49.5631 229.304 50.1551 229.304C50.7631 229.304 51.2431 229.784 51.2431 230.392C51.2431 230.984 50.7631 231.464 50.1551 231.464C49.5631 231.464 49.0831 230.984 49.0831 230.392ZM56.765 239.896C58.045 239.896 59.165 238.936 59.165 237.144C59.165 235.368 58.045 234.408 56.765 234.408C55.485 234.408 54.365 235.368 54.365 237.144C54.365 238.936 55.485 239.896 56.765 239.896ZM56.765 233.064C59.069 233.064 60.701 234.808 60.701 237.144C60.701 239.496 59.069 241.24 56.765 241.24C54.461 241.24 52.829 239.496 52.829 237.144C52.829 234.808 54.461 233.064 56.765 233.064ZM64.1263 236.552V241H62.6223V233.304H64.0943V234.408C64.6543 233.448 65.5663 233.08 66.4623 233.08C68.3023 233.08 69.2143 234.408 69.2143 236.12V241H67.7103V236.376C67.7103 235.304 67.2623 234.44 65.9183 234.44C64.7343 234.44 64.1263 235.384 64.1263 236.552ZM70.9518 239L72.3118 238.52C72.4078 239.32 73.0158 239.96 74.1038 239.96C74.9518 239.96 75.4158 239.48 75.4158 238.936C75.4158 238.456 75.0638 238.088 74.4238 237.944L73.1118 237.656C71.9118 237.4 71.1918 236.584 71.1918 235.496C71.1918 234.184 72.4238 233.064 73.9278 233.064C76.0398 233.064 76.6958 234.44 76.8558 235.128L75.5278 235.624C75.4638 235.224 75.1438 234.344 73.9278 234.344C73.1598 234.344 72.6478 234.84 72.6478 235.368C72.6478 235.832 72.9358 236.168 73.5278 236.296L74.7758 236.568C76.1678 236.872 76.9038 237.72 76.9038 238.856C76.9038 239.944 75.9918 241.24 74.0878 241.24C71.9758 241.24 71.0798 239.88 70.9518 239ZM86.2483 235.048C87.3523 235.032 88.1683 234.36 88.1683 233.352C88.1683 232.424 87.4163 231.688 86.2483 231.688C85.0803 231.688 84.3283 232.424 84.3283 233.352C84.3283 234.36 85.1443 235.032 86.2483 235.048ZM86.2483 239.88C87.6403 239.88 88.4243 239.112 88.4243 238.136C88.4243 237.144 87.6243 236.36 86.2483 236.36C84.8723 236.36 84.0723 237.144 84.0723 238.136C84.0723 239.112 84.8563 239.88 86.2483 239.88ZM86.2483 241.24C83.8643 241.24 82.4883 239.928 82.4883 238.264C82.4883 237 83.3523 236.072 84.4563 235.704C83.5123 235.352 82.7603 234.424 82.7603 233.272C82.7603 231.576 84.2643 230.392 86.2483 230.392C88.2323 230.392 89.7362 231.576 89.7362 233.272C89.7362 234.392 89.0003 235.352 88.0403 235.704C89.1443 236.056 90.0083 237 90.0083 238.264C90.0083 239.928 88.6323 241.24 86.2483 241.24ZM91.1318 241L93.9958 237.08L91.2278 233.304H93.0518L94.9398 236.008L96.7958 233.304H98.5718L95.8358 237.08C96.2998 237.704 98.2038 240.376 98.6678 241H96.8598L94.8758 238.168L92.9238 241H91.1318ZM108.06 234.664H106.204V241H104.652V234.664H103.228V233.304H104.652V232.008C104.652 230.296 105.788 229.368 107.18 229.368C107.692 229.368 108.012 229.48 108.076 229.528V230.872C107.996 230.84 107.804 230.776 107.42 230.776C106.892 230.776 106.204 231.032 106.204 232.088V233.304H108.06V234.664ZM109.11 238.936C109.11 237.56 110.118 236.792 111.446 236.6L113.526 236.296C113.99 236.232 114.118 235.992 114.118 235.72C114.118 234.968 113.622 234.344 112.454 234.344C111.398 234.344 110.806 235 110.71 235.896L109.27 235.56C109.43 234.088 110.758 233.064 112.422 233.064C114.726 233.064 115.622 234.376 115.622 235.88V239.736C115.622 240.408 115.686 240.808 115.718 241H114.246C114.214 240.808 114.166 240.52 114.166 239.96C113.83 240.504 113.062 241.24 111.686 241.24C110.118 241.24 109.11 240.152 109.11 238.936ZM111.894 239.976C113.126 239.976 114.118 239.384 114.118 237.704V237.352L111.766 237.704C111.126 237.8 110.646 238.168 110.646 238.856C110.646 239.432 111.126 239.976 111.894 239.976ZM117.389 239L118.749 238.52C118.845 239.32 119.453 239.96 120.541 239.96C121.389 239.96 121.853 239.48 121.853 238.936C121.853 238.456 121.501 238.088 120.861 237.944L119.549 237.656C118.349 237.4 117.629 236.584 117.629 235.496C117.629 234.184 118.861 233.064 120.365 233.064C122.477 233.064 123.133 234.44 123.293 235.128L121.965 235.624C121.901 235.224 121.581 234.344 120.365 234.344C119.597 234.344 119.085 234.84 119.085 235.368C119.085 235.832 119.373 236.168 119.965 236.296L121.213 236.568C122.605 236.872 123.341 237.72 123.341 238.856C123.341 239.944 122.429 241.24 120.525 241.24C118.413 241.24 117.517 239.88 117.389 239ZM127.375 230.872V233.304H129.039V234.664H127.375V238.664C127.375 239.368 127.663 239.72 128.447 239.72C128.639 239.72 128.911 239.688 129.039 239.656V240.936C128.911 240.984 128.527 241.08 128.015 241.08C126.703 241.08 125.871 240.28 125.871 238.888V234.664H124.399V233.304H124.815C125.647 233.304 125.999 232.792 125.999 232.12V230.872H127.375ZM131.851 236.36H136.059C136.027 235.256 135.307 234.392 133.947 234.392C132.683 234.392 131.915 235.368 131.851 236.36ZM136.283 238.36L137.579 238.808C137.147 240.168 135.915 241.24 134.123 241.24C132.059 241.24 130.251 239.736 130.251 237.128C130.251 234.712 131.995 233.064 133.931 233.064C136.299 233.064 137.627 234.696 137.627 237.096C137.627 237.288 137.611 237.48 137.595 237.576H131.803C131.835 238.952 132.827 239.912 134.123 239.912C135.371 239.912 135.995 239.224 136.283 238.36ZM143.785 233.224V234.824C143.561 234.792 143.337 234.776 143.129 234.776C141.865 234.776 141.017 235.448 141.017 237.144V241H139.513V233.304H140.985V234.648C141.545 233.464 142.505 233.176 143.289 233.176C143.497 233.176 143.705 233.208 143.785 233.224ZM144.24 239.976C144.24 239.352 144.72 238.856 145.344 238.856C145.968 238.856 146.464 239.352 146.464 239.976C146.464 240.6 145.968 241.08 145.344 241.08C144.72 241.08 144.24 240.6 144.24 239.976Z" fill="#181818" fill-opacity="0.6"/>
<defs>
<linearGradient id="paint0_linear_17598_5337" x1="423.47" y1="92" x2="106.723" y2="-99.0796" gradientUnits="userSpaceOnUse">
<stop offset="0.21" stop-color="#ED1E79"/>
<stop offset="1" stop-color="#522785"/>
</linearGradient>
</defs>
</svg>
