<svg width="493" height="160" viewBox="0 0 493 160" fill="none" xmlns="http://www.w3.org/2000/svg">
<path d="M1.5 88H484.5C488.918 88 492.5 91.5817 492.5 96V136C492.5 140.418 488.918 144 484.5 144H1.5V88Z" fill="url(#paint0_linear_17241_4781)"/>
<path d="M41.3463 39.112H37.5543V49H35.9863V39.112H32.1943V37.656H41.3463V39.112ZM45.3318 41.224V42.824C45.1078 42.792 44.8838 42.776 44.6758 42.776C43.4118 42.776 42.5638 43.448 42.5638 45.144V49H41.0598V41.304H42.5318V42.648C43.0918 41.464 44.0518 41.176 44.8358 41.176C45.0438 41.176 45.2518 41.208 45.3318 41.224ZM46.3603 46.936C46.3603 45.56 47.3683 44.792 48.6963 44.6L50.7763 44.296C51.2403 44.232 51.3683 43.992 51.3683 43.72C51.3683 42.968 50.8723 42.344 49.7043 42.344C48.6483 42.344 48.0563 43 47.9603 43.896L46.5203 43.56C46.6803 42.088 48.0082 41.064 49.6723 41.064C51.9763 41.064 52.8723 42.376 52.8723 43.88V47.736C52.8723 48.408 52.9363 48.808 52.9683 49H51.4963C51.4643 48.808 51.4163 48.52 51.4163 47.96C51.0803 48.504 50.3123 49.24 48.9363 49.24C47.3683 49.24 46.3603 48.152 46.3603 46.936ZM49.1443 47.976C50.3763 47.976 51.3683 47.384 51.3683 45.704V45.352L49.0163 45.704C48.3763 45.8 47.8963 46.168 47.8963 46.856C47.8963 47.432 48.3763 47.976 49.1443 47.976ZM56.2873 45.128C56.2873 46.712 57.1033 47.88 58.5433 47.88C59.9193 47.88 60.7673 46.68 60.7673 45.096C60.7673 43.512 59.9353 42.424 58.5593 42.424C57.1833 42.424 56.2873 43.544 56.2873 45.128ZM60.7833 47.96V47.832C60.4153 48.568 59.5993 49.208 58.3993 49.208C56.1432 49.208 54.7513 47.416 54.7513 45.128C54.7513 42.952 56.2233 41.096 58.3993 41.096C59.7593 41.096 60.4953 41.768 60.7513 42.392V37.416H62.2393V47.576C62.2393 48.312 62.3033 48.872 62.3193 49H60.8633C60.8313 48.824 60.7833 48.424 60.7833 47.96ZM66.1728 49H64.6848V41.304H66.1728V49ZM64.3488 38.392C64.3488 37.784 64.8288 37.304 65.4208 37.304C66.0288 37.304 66.5088 37.784 66.5088 38.392C66.5088 38.984 66.0288 39.464 65.4208 39.464C64.8288 39.464 64.3488 38.984 64.3488 38.392ZM70.7026 38.872V41.304H72.3666V42.664H70.7026V46.664C70.7026 47.368 70.9906 47.72 71.7746 47.72C71.9666 47.72 72.2386 47.688 72.3666 47.656V48.936C72.2386 48.984 71.8546 49.08 71.3426 49.08C70.0306 49.08 69.1986 48.28 69.1986 46.888V42.664H67.7266V41.304H68.1426C68.9746 41.304 69.3266 40.792 69.3266 40.12V38.872H70.7026ZM75.6415 49H74.1535V41.304H75.6415V49ZM73.8175 38.392C73.8175 37.784 74.2975 37.304 74.8895 37.304C75.4975 37.304 75.9775 37.784 75.9775 38.392C75.9775 38.984 75.4975 39.464 74.8895 39.464C74.2975 39.464 73.8175 38.984 73.8175 38.392ZM81.4994 47.896C82.7794 47.896 83.8994 46.936 83.8994 45.144C83.8994 43.368 82.7794 42.408 81.4994 42.408C80.2194 42.408 79.0994 43.368 79.0994 45.144C79.0994 46.936 80.2194 47.896 81.4994 47.896ZM81.4994 41.064C83.8034 41.064 85.4354 42.808 85.4354 45.144C85.4354 47.496 83.8034 49.24 81.4994 49.24C79.1954 49.24 77.5634 47.496 77.5634 45.144C77.5634 42.808 79.1954 41.064 81.4994 41.064ZM88.8606 44.552V49H87.3566V41.304H88.8286V42.408C89.3886 41.448 90.3006 41.08 91.1966 41.08C93.0366 41.08 93.9486 42.408 93.9486 44.12V49H92.4446V44.376C92.4446 43.304 91.9966 42.44 90.6526 42.44C89.4686 42.44 88.8606 43.384 88.8606 44.552ZM95.7821 46.936C95.7821 45.56 96.7901 44.792 98.1181 44.6L100.198 44.296C100.662 44.232 100.79 43.992 100.79 43.72C100.79 42.968 100.294 42.344 99.1261 42.344C98.0701 42.344 97.4781 43 97.3821 43.896L95.9421 43.56C96.1021 42.088 97.4301 41.064 99.0941 41.064C101.398 41.064 102.294 42.376 102.294 43.88V47.736C102.294 48.408 102.358 48.808 102.39 49H100.918C100.886 48.808 100.838 48.52 100.838 47.96C100.502 48.504 99.7341 49.24 98.3581 49.24C96.7901 49.24 95.7821 48.152 95.7821 46.936ZM98.5661 47.976C99.7981 47.976 100.79 47.384 100.79 45.704V45.352L98.4381 45.704C97.7981 45.8 97.3181 46.168 97.3181 46.856C97.3181 47.432 97.7981 47.976 98.5661 47.976ZM106.173 49H104.669V37.416H106.173V49ZM112.03 47L113.39 46.52C113.486 47.32 114.094 47.96 115.182 47.96C116.03 47.96 116.494 47.48 116.494 46.936C116.494 46.456 116.142 46.088 115.502 45.944L114.19 45.656C112.99 45.4 112.27 44.584 112.27 43.496C112.27 42.184 113.502 41.064 115.006 41.064C117.118 41.064 117.774 42.44 117.934 43.128L116.606 43.624C116.542 43.224 116.222 42.344 115.006 42.344C114.238 42.344 113.726 42.84 113.726 43.368C113.726 43.832 114.014 44.168 114.606 44.296L115.854 44.568C117.246 44.872 117.982 45.72 117.982 46.856C117.982 47.944 117.07 49.24 115.166 49.24C113.054 49.24 112.158 47.88 112.03 47ZM121.407 49H119.919V41.304H121.359V42.328C121.839 41.48 122.799 41.08 123.695 41.08C124.655 41.08 125.583 41.544 125.999 42.536C126.607 41.432 127.599 41.08 128.575 41.08C129.919 41.08 131.231 41.992 131.231 44.008V49H129.743V44.168C129.743 43.16 129.247 42.408 128.111 42.408C127.055 42.408 126.335 43.24 126.335 44.344V49H124.831V44.168C124.831 43.176 124.351 42.408 123.199 42.408C122.127 42.408 121.407 43.208 121.407 44.36V49ZM133.063 46.936C133.063 45.56 134.071 44.792 135.399 44.6L137.479 44.296C137.943 44.232 138.071 43.992 138.071 43.72C138.071 42.968 137.575 42.344 136.407 42.344C135.351 42.344 134.759 43 134.663 43.896L133.223 43.56C133.383 42.088 134.711 41.064 136.375 41.064C138.679 41.064 139.575 42.376 139.575 43.88V47.736C139.575 48.408 139.639 48.808 139.671 49H138.199C138.167 48.808 138.119 48.52 138.119 47.96C137.783 48.504 137.015 49.24 135.639 49.24C134.071 49.24 133.063 48.152 133.063 46.936ZM135.847 47.976C137.079 47.976 138.071 47.384 138.071 45.704V45.352L135.719 45.704C135.079 45.8 134.599 46.168 134.599 46.856C134.599 47.432 135.079 47.976 135.847 47.976ZM146.222 41.224V42.824C145.998 42.792 145.774 42.776 145.566 42.776C144.302 42.776 143.454 43.448 143.454 45.144V49H141.95V41.304H143.422V42.648C143.982 41.464 144.942 41.176 145.726 41.176C145.934 41.176 146.142 41.208 146.222 41.224ZM149.859 38.872V41.304H151.523V42.664H149.859V46.664C149.859 47.368 150.147 47.72 150.931 47.72C151.123 47.72 151.395 47.688 151.523 47.656V48.936C151.395 48.984 151.011 49.08 150.499 49.08C149.187 49.08 148.355 48.28 148.355 46.888V42.664H146.883V41.304H147.299C148.131 41.304 148.483 40.792 148.483 40.12V38.872H149.859ZM160.701 42.456C159.485 42.456 158.365 43.352 158.365 45.144C158.365 46.904 159.469 47.848 160.717 47.848C162.157 47.848 162.685 46.872 162.861 46.264L164.189 46.84C163.821 47.944 162.717 49.24 160.717 49.24C158.477 49.24 156.829 47.48 156.829 45.144C156.829 42.744 158.509 41.064 160.701 41.064C162.749 41.064 163.805 42.344 164.125 43.512L162.765 44.088C162.573 43.336 162.013 42.456 160.701 42.456ZM169.39 47.896C170.67 47.896 171.79 46.936 171.79 45.144C171.79 43.368 170.67 42.408 169.39 42.408C168.11 42.408 166.99 43.368 166.99 45.144C166.99 46.936 168.11 47.896 169.39 47.896ZM169.39 41.064C171.694 41.064 173.326 42.808 173.326 45.144C173.326 47.496 171.694 49.24 169.39 49.24C167.086 49.24 165.454 47.496 165.454 45.144C165.454 42.808 167.086 41.064 169.39 41.064ZM176.751 44.552V49H175.247V41.304H176.719V42.408C177.279 41.448 178.191 41.08 179.087 41.08C180.927 41.08 181.839 42.408 181.839 44.12V49H180.335V44.376C180.335 43.304 179.887 42.44 178.543 42.44C177.359 42.44 176.751 43.384 176.751 44.552ZM186.218 38.872V41.304H187.882V42.664H186.218V46.664C186.218 47.368 186.506 47.72 187.29 47.72C187.482 47.72 187.754 47.688 187.882 47.656V48.936C187.754 48.984 187.37 49.08 186.858 49.08C185.546 49.08 184.714 48.28 184.714 46.888V42.664H183.242V41.304H183.658C184.49 41.304 184.842 40.792 184.842 40.12V38.872H186.218ZM193.941 41.224V42.824C193.717 42.792 193.493 42.776 193.285 42.776C192.021 42.776 191.173 43.448 191.173 45.144V49H189.669V41.304H191.141V42.648C191.701 41.464 192.661 41.176 193.445 41.176C193.653 41.176 193.861 41.208 193.941 41.224ZM194.97 46.936C194.97 45.56 195.978 44.792 197.306 44.6L199.386 44.296C199.85 44.232 199.978 43.992 199.978 43.72C199.978 42.968 199.482 42.344 198.314 42.344C197.258 42.344 196.666 43 196.57 43.896L195.13 43.56C195.29 42.088 196.618 41.064 198.282 41.064C200.586 41.064 201.482 42.376 201.482 43.88V47.736C201.482 48.408 201.546 48.808 201.578 49H200.106C200.074 48.808 200.026 48.52 200.026 47.96C199.69 48.504 198.922 49.24 197.546 49.24C195.978 49.24 194.97 48.152 194.97 46.936ZM197.754 47.976C198.986 47.976 199.978 47.384 199.978 45.704V45.352L197.626 45.704C196.986 45.8 196.506 46.168 196.506 46.856C196.506 47.432 196.986 47.976 197.754 47.976ZM207.217 42.456C206.001 42.456 204.881 43.352 204.881 45.144C204.881 46.904 205.985 47.848 207.233 47.848C208.673 47.848 209.201 46.872 209.377 46.264L210.705 46.84C210.337 47.944 209.233 49.24 207.233 49.24C204.993 49.24 203.345 47.48 203.345 45.144C203.345 42.744 205.025 41.064 207.217 41.064C209.265 41.064 210.321 42.344 210.641 43.512L209.281 44.088C209.089 43.336 208.529 42.456 207.217 42.456ZM214.578 38.872V41.304H216.242V42.664H214.578V46.664C214.578 47.368 214.866 47.72 215.65 47.72C215.842 47.72 216.114 47.688 216.242 47.656V48.936C216.114 48.984 215.73 49.08 215.218 49.08C213.906 49.08 213.074 48.28 213.074 46.888V42.664H211.602V41.304H212.018C212.85 41.304 213.202 40.792 213.202 40.12V38.872H214.578ZM217.421 47L218.781 46.52C218.877 47.32 219.485 47.96 220.573 47.96C221.421 47.96 221.885 47.48 221.885 46.936C221.885 46.456 221.533 46.088 220.893 45.944L219.581 45.656C218.381 45.4 217.661 44.584 217.661 43.496C217.661 42.184 218.893 41.064 220.397 41.064C222.509 41.064 223.165 42.44 223.325 43.128L221.997 43.624C221.933 43.224 221.613 42.344 220.397 42.344C219.629 42.344 219.117 42.84 219.117 43.368C219.117 43.832 219.405 44.168 219.997 44.296L221.245 44.568C222.637 44.872 223.373 45.72 223.373 46.856C223.373 47.944 222.461 49.24 220.557 49.24C218.445 49.24 217.549 47.88 217.421 47Z" fill="#181818" fill-opacity="0.6"/>
<path d="M259.526 121H257.926V109.656H259.526V121ZM267.463 121.24C264.535 121.24 261.831 119.112 261.831 115.32C261.831 111.528 264.647 109.416 267.463 109.416C270.055 109.416 271.879 110.824 272.455 113.016L270.999 113.528C270.567 111.816 269.319 110.856 267.463 110.856C265.399 110.856 263.431 112.36 263.431 115.32C263.431 118.28 265.399 119.8 267.463 119.8C269.399 119.8 270.615 118.632 271.079 117.08L272.471 117.592C271.863 119.72 270.071 121.24 267.463 121.24ZM276.104 114.952H278.376C279.736 114.952 280.568 114.2 280.568 113.032C280.568 111.832 279.736 111.064 278.376 111.064H276.104V114.952ZM278.664 116.36H276.104V121H274.536V109.656H278.664C280.76 109.656 282.168 111.112 282.168 113.016C282.168 114.936 280.76 116.36 278.664 116.36ZM283.649 110.504C283.649 109.976 284.113 109.512 284.737 109.512C285.377 109.512 285.953 109.992 285.953 110.92C285.953 112.904 284.673 113.72 283.745 113.832V113.064C284.465 112.904 284.961 112.168 284.977 111.448C284.929 111.48 284.817 111.528 284.657 111.528C284.097 111.528 283.649 111.144 283.649 110.504ZM286.921 119L288.281 118.52C288.377 119.32 288.985 119.96 290.073 119.96C290.921 119.96 291.385 119.48 291.385 118.936C291.385 118.456 291.033 118.088 290.393 117.944L289.081 117.656C287.881 117.4 287.161 116.584 287.161 115.496C287.161 114.184 288.393 113.064 289.897 113.064C292.009 113.064 292.665 114.44 292.825 115.128L291.497 115.624C291.433 115.224 291.113 114.344 289.897 114.344C289.129 114.344 288.617 114.84 288.617 115.368C288.617 115.832 288.905 116.168 289.497 116.296L290.745 116.568C292.137 116.872 292.873 117.72 292.873 118.856C292.873 119.944 291.961 121.24 290.057 121.24C287.945 121.24 287.049 119.88 286.921 119ZM300.345 116.552V121H298.841V113.304H300.313V114.408C300.873 113.448 301.785 113.08 302.681 113.08C304.521 113.08 305.433 114.408 305.433 116.12V121H303.929V116.376C303.929 115.304 303.481 114.44 302.137 114.44C300.953 114.44 300.345 115.384 300.345 116.552ZM308.867 116.36H313.075C313.043 115.256 312.323 114.392 310.963 114.392C309.699 114.392 308.931 115.368 308.867 116.36ZM313.299 118.36L314.595 118.808C314.163 120.168 312.931 121.24 311.139 121.24C309.075 121.24 307.267 119.736 307.267 117.128C307.267 114.712 309.011 113.064 310.947 113.064C313.315 113.064 314.642 114.696 314.642 117.096C314.642 117.288 314.627 117.48 314.611 117.576H308.819C308.851 118.952 309.843 119.912 311.139 119.912C312.387 119.912 313.011 119.224 313.299 118.36ZM315.382 121L318.246 117.08L315.478 113.304H317.302L319.19 116.008L321.046 113.304H322.822L320.086 117.08C320.55 117.704 322.454 120.376 322.918 121H321.11L319.126 118.168L317.174 121H315.382ZM326.515 110.872V113.304H328.179V114.664H326.515V118.664C326.515 119.368 326.803 119.72 327.587 119.72C327.779 119.72 328.051 119.688 328.179 119.656V120.936C328.051 120.984 327.667 121.08 327.155 121.08C325.843 121.08 325.011 120.28 325.011 118.888V114.664H323.539V113.304H323.955C324.787 113.304 325.139 112.792 325.139 112.12V110.872H326.515ZM333.485 121.416L334.941 121.08C335.053 122.152 335.869 122.968 337.037 122.968C338.653 122.968 339.389 122.136 339.389 120.472V119.368C339.021 120.072 338.189 120.632 337.037 120.632C334.989 120.632 333.501 119.08 333.501 116.904C333.501 114.824 334.925 113.16 337.037 113.16C338.221 113.16 339.021 113.608 339.405 114.376V113.304H340.893V120.424C340.893 122.376 339.933 124.28 337.037 124.28C335.117 124.28 333.677 123.064 333.485 121.416ZM337.261 119.368C338.557 119.368 339.453 118.392 339.453 116.904C339.453 115.416 338.557 114.44 337.261 114.44C335.933 114.44 335.037 115.416 335.037 116.904C335.037 118.408 335.901 119.368 337.261 119.368ZM344.413 116.36H348.621C348.589 115.256 347.869 114.392 346.509 114.392C345.245 114.392 344.477 115.368 344.413 116.36ZM348.845 118.36L350.141 118.808C349.709 120.168 348.477 121.24 346.685 121.24C344.621 121.24 342.813 119.736 342.813 117.128C342.813 114.712 344.557 113.064 346.493 113.064C348.861 113.064 350.189 114.696 350.189 117.096C350.189 117.288 350.173 117.48 350.157 117.576H344.365C344.397 118.952 345.389 119.912 346.685 119.912C347.933 119.912 348.557 119.224 348.845 118.36ZM353.579 116.552V121H352.075V113.304H353.547V114.408C354.107 113.448 355.019 113.08 355.915 113.08C357.755 113.08 358.667 114.408 358.667 116.12V121H357.163V116.376C357.163 115.304 356.715 114.44 355.371 114.44C354.187 114.44 353.579 115.384 353.579 116.552ZM364.436 119L365.796 118.52C365.892 119.32 366.5 119.96 367.588 119.96C368.436 119.96 368.9 119.48 368.9 118.936C368.9 118.456 368.548 118.088 367.908 117.944L366.596 117.656C365.396 117.4 364.676 116.584 364.676 115.496C364.676 114.184 365.908 113.064 367.412 113.064C369.524 113.064 370.18 114.44 370.34 115.128L369.012 115.624C368.948 115.224 368.628 114.344 367.412 114.344C366.644 114.344 366.132 114.84 366.132 115.368C366.132 115.832 366.42 116.168 367.012 116.296L368.26 116.568C369.652 116.872 370.388 117.72 370.388 118.856C370.388 119.944 369.476 121.24 367.572 121.24C365.46 121.24 364.564 119.88 364.436 119ZM373.813 121H372.325V113.304H373.765V114.328C374.245 113.48 375.205 113.08 376.101 113.08C377.061 113.08 377.989 113.544 378.405 114.536C379.013 113.432 380.005 113.08 380.981 113.08C382.325 113.08 383.637 113.992 383.637 116.008V121H382.149V116.168C382.149 115.16 381.653 114.408 380.517 114.408C379.461 114.408 378.741 115.24 378.741 116.344V121H377.237V116.168C377.237 115.176 376.757 114.408 375.605 114.408C374.533 114.408 373.813 115.208 373.813 116.36V121ZM385.47 118.936C385.47 117.56 386.478 116.792 387.806 116.6L389.886 116.296C390.35 116.232 390.478 115.992 390.478 115.72C390.478 114.968 389.982 114.344 388.814 114.344C387.758 114.344 387.166 115 387.07 115.896L385.63 115.56C385.79 114.088 387.118 113.064 388.782 113.064C391.086 113.064 391.982 114.376 391.982 115.88V119.736C391.982 120.408 392.046 120.808 392.078 121H390.606C390.574 120.808 390.526 120.52 390.526 119.96C390.19 120.504 389.422 121.24 388.046 121.24C386.478 121.24 385.47 120.152 385.47 118.936ZM388.254 119.976C389.486 119.976 390.478 119.384 390.478 117.704V117.352L388.126 117.704C387.486 117.8 387.006 118.168 387.006 118.856C387.006 119.432 387.486 119.976 388.254 119.976ZM398.629 113.224V114.824C398.405 114.792 398.181 114.776 397.973 114.776C396.709 114.776 395.861 115.448 395.861 117.144V121H394.357V113.304H395.829V114.648C396.389 113.464 397.349 113.176 398.133 113.176C398.341 113.176 398.549 113.208 398.629 113.224ZM402.265 110.872V113.304H403.929V114.664H402.265V118.664C402.265 119.368 402.553 119.72 403.337 119.72C403.529 119.72 403.801 119.688 403.929 119.656V120.936C403.801 120.984 403.417 121.08 402.905 121.08C401.593 121.08 400.761 120.28 400.761 118.888V114.664H399.289V113.304H399.705C400.537 113.304 400.889 112.792 400.889 112.12V110.872H402.265ZM413.107 114.456C411.891 114.456 410.771 115.352 410.771 117.144C410.771 118.904 411.875 119.848 413.123 119.848C414.563 119.848 415.091 118.872 415.267 118.264L416.595 118.84C416.227 119.944 415.123 121.24 413.123 121.24C410.883 121.24 409.235 119.48 409.235 117.144C409.235 114.744 410.915 113.064 413.107 113.064C415.155 113.064 416.211 114.344 416.531 115.512L415.171 116.088C414.979 115.336 414.419 114.456 413.107 114.456ZM421.796 119.896C423.076 119.896 424.196 118.936 424.196 117.144C424.196 115.368 423.076 114.408 421.796 114.408C420.516 114.408 419.396 115.368 419.396 117.144C419.396 118.936 420.516 119.896 421.796 119.896ZM421.796 113.064C424.1 113.064 425.732 114.808 425.732 117.144C425.732 119.496 424.1 121.24 421.796 121.24C419.492 121.24 417.86 119.496 417.86 117.144C417.86 114.808 419.492 113.064 421.796 113.064ZM429.158 116.552V121H427.654V113.304H429.126V114.408C429.686 113.448 430.598 113.08 431.494 113.08C433.334 113.08 434.246 114.408 434.246 116.12V121H432.742V116.376C432.742 115.304 432.294 114.44 430.95 114.44C429.766 114.44 429.158 115.384 429.158 116.552ZM438.625 110.872V113.304H440.289V114.664H438.625V118.664C438.625 119.368 438.913 119.72 439.697 119.72C439.889 119.72 440.161 119.688 440.289 119.656V120.936C440.161 120.984 439.777 121.08 439.265 121.08C437.953 121.08 437.121 120.28 437.121 118.888V114.664H435.649V113.304H436.065C436.897 113.304 437.249 112.792 437.249 112.12V110.872H438.625ZM446.347 113.224V114.824C446.123 114.792 445.899 114.776 445.691 114.776C444.427 114.776 443.579 115.448 443.579 117.144V121H442.075V113.304H443.547V114.648C444.107 113.464 445.067 113.176 445.851 113.176C446.059 113.176 446.267 113.208 446.347 113.224ZM447.376 118.936C447.376 117.56 448.384 116.792 449.712 116.6L451.792 116.296C452.256 116.232 452.384 115.992 452.384 115.72C452.384 114.968 451.888 114.344 450.72 114.344C449.664 114.344 449.072 115 448.976 115.896L447.536 115.56C447.696 114.088 449.024 113.064 450.688 113.064C452.992 113.064 453.888 114.376 453.888 115.88V119.736C453.888 120.408 453.952 120.808 453.984 121H452.512C452.48 120.808 452.432 120.52 452.432 119.96C452.096 120.504 451.328 121.24 449.952 121.24C448.384 121.24 447.376 120.152 447.376 118.936ZM450.16 119.976C451.392 119.976 452.384 119.384 452.384 117.704V117.352L450.032 117.704C449.392 117.8 448.912 118.168 448.912 118.856C448.912 119.432 449.392 119.976 450.16 119.976ZM459.623 114.456C458.407 114.456 457.287 115.352 457.287 117.144C457.287 118.904 458.391 119.848 459.639 119.848C461.079 119.848 461.607 118.872 461.783 118.264L463.111 118.84C462.743 119.944 461.639 121.24 459.639 121.24C457.399 121.24 455.751 119.48 455.751 117.144C455.751 114.744 457.431 113.064 459.623 113.064C461.671 113.064 462.727 114.344 463.047 115.512L461.687 116.088C461.495 115.336 460.935 114.456 459.623 114.456ZM466.984 110.872V113.304H468.648V114.664H466.984V118.664C466.984 119.368 467.272 119.72 468.056 119.72C468.248 119.72 468.52 119.688 468.648 119.656V120.936C468.52 120.984 468.136 121.08 467.624 121.08C466.312 121.08 465.48 120.28 465.48 118.888V114.664H464.008V113.304H464.424C465.256 113.304 465.608 112.792 465.608 112.12V110.872H466.984ZM469.827 119L471.187 118.52C471.283 119.32 471.891 119.96 472.979 119.96C473.827 119.96 474.291 119.48 474.291 118.936C474.291 118.456 473.939 118.088 473.299 117.944L471.987 117.656C470.787 117.4 470.067 116.584 470.067 115.496C470.067 114.184 471.299 113.064 472.803 113.064C474.915 113.064 475.571 114.44 475.731 115.128L474.403 115.624C474.339 115.224 474.019 114.344 472.803 114.344C472.035 114.344 471.523 114.84 471.523 115.368C471.523 115.832 471.811 116.168 472.403 116.296L473.651 116.568C475.043 116.872 475.779 117.72 475.779 118.856C475.779 119.944 474.867 121.24 472.963 121.24C470.851 121.24 469.955 119.88 469.827 119Z" fill="white"/>
<path d="M1 160V0" stroke="#181818" stroke-opacity="0.2"/>
<path d="M1.5 16H8.5C12.9183 16 16.5 19.5817 16.5 24V64C16.5 68.4183 12.9183 72 8.5 72H1.5V16Z" fill="#181818" fill-opacity="0.2"/>
<defs>
<linearGradient id="paint0_linear_17241_4781" x1="423.28" y1="164" x2="106.534" y2="-27.0796" gradientUnits="userSpaceOnUse">
<stop offset="0.21" stop-color="#ED1E79"/>
<stop offset="1" stop-color="#522785"/>
</linearGradient>
</defs>
</svg>
