<svg width="517" height="379" viewBox="0 0 517 379" fill="none" xmlns="http://www.w3.org/2000/svg">
<path d="M9.84625 362.112H6.05425V372H4.48625V362.112H0.69425V360.656H9.84625V362.112ZM13.8318 364.224V365.824C13.6078 365.792 13.3838 365.776 13.1758 365.776C11.9118 365.776 11.0638 366.448 11.0638 368.144V372H9.55975V364.304H11.0318V365.648C11.5918 364.464 12.5518 364.176 13.3358 364.176C13.5438 364.176 13.7518 364.208 13.8318 364.224ZM14.8603 369.936C14.8603 368.56 15.8683 367.792 17.1963 367.6L19.2763 367.296C19.7403 367.232 19.8683 366.992 19.8683 366.72C19.8683 365.968 19.3723 365.344 18.2043 365.344C17.1483 365.344 16.5563 366 16.4603 366.896L15.0203 366.56C15.1803 365.088 16.5082 364.064 18.1723 364.064C20.4763 364.064 21.3723 365.376 21.3723 366.88V370.736C21.3723 371.408 21.4363 371.808 21.4683 372H19.9963C19.9643 371.808 19.9163 371.52 19.9163 370.96C19.5803 371.504 18.8123 372.24 17.4363 372.24C15.8683 372.24 14.8603 371.152 14.8603 369.936ZM17.6443 370.976C18.8763 370.976 19.8683 370.384 19.8683 368.704V368.352L17.5163 368.704C16.8763 368.8 16.3963 369.168 16.3963 369.856C16.3963 370.432 16.8763 370.976 17.6443 370.976ZM24.7873 368.128C24.7873 369.712 25.6033 370.88 27.0433 370.88C28.4193 370.88 29.2673 369.68 29.2673 368.096C29.2673 366.512 28.4353 365.424 27.0593 365.424C25.6833 365.424 24.7873 366.544 24.7873 368.128ZM29.2833 370.96V370.832C28.9153 371.568 28.0993 372.208 26.8993 372.208C24.6432 372.208 23.2513 370.416 23.2513 368.128C23.2513 365.952 24.7233 364.096 26.8993 364.096C28.2593 364.096 28.9953 364.768 29.2513 365.392V360.416H30.7393V370.576C30.7393 371.312 30.8033 371.872 30.8193 372H29.3633C29.3313 371.824 29.2833 371.424 29.2833 370.96ZM34.6728 372H33.1848V364.304H34.6728V372ZM32.8488 361.392C32.8488 360.784 33.3288 360.304 33.9208 360.304C34.5288 360.304 35.0088 360.784 35.0088 361.392C35.0088 361.984 34.5288 362.464 33.9208 362.464C33.3288 362.464 32.8488 361.984 32.8488 361.392ZM39.2026 361.872V364.304H40.8666V365.664H39.2026V369.664C39.2026 370.368 39.4906 370.72 40.2746 370.72C40.4666 370.72 40.7386 370.688 40.8666 370.656V371.936C40.7386 371.984 40.3546 372.08 39.8426 372.08C38.5306 372.08 37.6986 371.28 37.6986 369.888V365.664H36.2266V364.304H36.6426C37.4746 364.304 37.8266 363.792 37.8266 363.12V361.872H39.2026ZM44.1415 372H42.6535V364.304H44.1415V372ZM42.3175 361.392C42.3175 360.784 42.7975 360.304 43.3895 360.304C43.9975 360.304 44.4775 360.784 44.4775 361.392C44.4775 361.984 43.9975 362.464 43.3895 362.464C42.7975 362.464 42.3175 361.984 42.3175 361.392ZM49.9994 370.896C51.2794 370.896 52.3994 369.936 52.3994 368.144C52.3994 366.368 51.2794 365.408 49.9994 365.408C48.7194 365.408 47.5994 366.368 47.5994 368.144C47.5994 369.936 48.7194 370.896 49.9994 370.896ZM49.9994 364.064C52.3034 364.064 53.9354 365.808 53.9354 368.144C53.9354 370.496 52.3034 372.24 49.9994 372.24C47.6954 372.24 46.0634 370.496 46.0634 368.144C46.0634 365.808 47.6954 364.064 49.9994 364.064ZM57.3606 367.552V372H55.8566V364.304H57.3286V365.408C57.8886 364.448 58.8006 364.08 59.6966 364.08C61.5366 364.08 62.4486 365.408 62.4486 367.12V372H60.9446V367.376C60.9446 366.304 60.4966 365.44 59.1526 365.44C57.9686 365.44 57.3606 366.384 57.3606 367.552ZM64.2821 369.936C64.2821 368.56 65.2901 367.792 66.6181 367.6L68.6981 367.296C69.1621 367.232 69.2901 366.992 69.2901 366.72C69.2901 365.968 68.7941 365.344 67.6261 365.344C66.5701 365.344 65.9781 366 65.8821 366.896L64.4421 366.56C64.6021 365.088 65.9301 364.064 67.5941 364.064C69.8981 364.064 70.7941 365.376 70.7941 366.88V370.736C70.7941 371.408 70.8581 371.808 70.8901 372H69.4181C69.3861 371.808 69.3381 371.52 69.3381 370.96C69.0021 371.504 68.2341 372.24 66.8581 372.24C65.2901 372.24 64.2821 371.152 64.2821 369.936ZM67.0661 370.976C68.2981 370.976 69.2901 370.384 69.2901 368.704V368.352L66.9381 368.704C66.2981 368.8 65.8181 369.168 65.8181 369.856C65.8181 370.432 66.2981 370.976 67.0661 370.976ZM74.6731 372H73.1691V360.416H74.6731V372ZM80.5299 370L81.8899 369.52C81.9859 370.32 82.5939 370.96 83.6819 370.96C84.5299 370.96 84.9939 370.48 84.9939 369.936C84.9939 369.456 84.6419 369.088 84.0019 368.944L82.6899 368.656C81.4899 368.4 80.7699 367.584 80.7699 366.496C80.7699 365.184 82.0019 364.064 83.5059 364.064C85.6179 364.064 86.2739 365.44 86.4339 366.128L85.1059 366.624C85.0419 366.224 84.7219 365.344 83.5059 365.344C82.7379 365.344 82.2259 365.84 82.2259 366.368C82.2259 366.832 82.5139 367.168 83.1059 367.296L84.3539 367.568C85.7459 367.872 86.4819 368.72 86.4819 369.856C86.4819 370.944 85.5699 372.24 83.6659 372.24C81.5539 372.24 80.6579 370.88 80.5299 370ZM89.9071 372H88.4191V364.304H89.8591V365.328C90.3391 364.48 91.2991 364.08 92.1951 364.08C93.1551 364.08 94.0831 364.544 94.4991 365.536C95.1071 364.432 96.0991 364.08 97.0751 364.08C98.4191 364.08 99.7311 364.992 99.7311 367.008V372H98.2431V367.168C98.2431 366.16 97.7471 365.408 96.6111 365.408C95.5551 365.408 94.8351 366.24 94.8351 367.344V372H93.3311V367.168C93.3311 366.176 92.8511 365.408 91.6991 365.408C90.6271 365.408 89.9071 366.208 89.9071 367.36V372ZM101.563 369.936C101.563 368.56 102.571 367.792 103.899 367.6L105.979 367.296C106.443 367.232 106.571 366.992 106.571 366.72C106.571 365.968 106.075 365.344 104.907 365.344C103.851 365.344 103.259 366 103.163 366.896L101.723 366.56C101.883 365.088 103.211 364.064 104.875 364.064C107.179 364.064 108.075 365.376 108.075 366.88V370.736C108.075 371.408 108.139 371.808 108.171 372H106.699C106.667 371.808 106.619 371.52 106.619 370.96C106.283 371.504 105.515 372.24 104.139 372.24C102.571 372.24 101.563 371.152 101.563 369.936ZM104.347 370.976C105.579 370.976 106.571 370.384 106.571 368.704V368.352L104.219 368.704C103.579 368.8 103.099 369.168 103.099 369.856C103.099 370.432 103.579 370.976 104.347 370.976ZM114.722 364.224V365.824C114.498 365.792 114.274 365.776 114.066 365.776C112.802 365.776 111.954 366.448 111.954 368.144V372H110.45V364.304H111.922V365.648C112.482 364.464 113.442 364.176 114.226 364.176C114.434 364.176 114.642 364.208 114.722 364.224ZM118.359 361.872V364.304H120.023V365.664H118.359V369.664C118.359 370.368 118.647 370.72 119.431 370.72C119.623 370.72 119.895 370.688 120.023 370.656V371.936C119.895 371.984 119.511 372.08 118.999 372.08C117.687 372.08 116.855 371.28 116.855 369.888V365.664H115.383V364.304H115.799C116.631 364.304 116.983 363.792 116.983 363.12V361.872H118.359ZM129.201 365.456C127.985 365.456 126.865 366.352 126.865 368.144C126.865 369.904 127.969 370.848 129.217 370.848C130.657 370.848 131.185 369.872 131.361 369.264L132.689 369.84C132.321 370.944 131.217 372.24 129.217 372.24C126.977 372.24 125.329 370.48 125.329 368.144C125.329 365.744 127.009 364.064 129.201 364.064C131.249 364.064 132.305 365.344 132.625 366.512L131.265 367.088C131.073 366.336 130.513 365.456 129.201 365.456ZM137.89 370.896C139.17 370.896 140.29 369.936 140.29 368.144C140.29 366.368 139.17 365.408 137.89 365.408C136.61 365.408 135.49 366.368 135.49 368.144C135.49 369.936 136.61 370.896 137.89 370.896ZM137.89 364.064C140.194 364.064 141.826 365.808 141.826 368.144C141.826 370.496 140.194 372.24 137.89 372.24C135.586 372.24 133.954 370.496 133.954 368.144C133.954 365.808 135.586 364.064 137.89 364.064ZM145.251 367.552V372H143.747V364.304H145.219V365.408C145.779 364.448 146.691 364.08 147.587 364.08C149.427 364.08 150.339 365.408 150.339 367.12V372H148.835V367.376C148.835 366.304 148.387 365.44 147.043 365.44C145.859 365.44 145.251 366.384 145.251 367.552ZM154.718 361.872V364.304H156.382V365.664H154.718V369.664C154.718 370.368 155.006 370.72 155.79 370.72C155.982 370.72 156.254 370.688 156.382 370.656V371.936C156.254 371.984 155.87 372.08 155.358 372.08C154.046 372.08 153.214 371.28 153.214 369.888V365.664H151.742V364.304H152.158C152.99 364.304 153.342 363.792 153.342 363.12V361.872H154.718ZM162.441 364.224V365.824C162.217 365.792 161.993 365.776 161.785 365.776C160.521 365.776 159.673 366.448 159.673 368.144V372H158.169V364.304H159.641V365.648C160.201 364.464 161.161 364.176 161.945 364.176C162.153 364.176 162.361 364.208 162.441 364.224ZM163.47 369.936C163.47 368.56 164.478 367.792 165.806 367.6L167.886 367.296C168.35 367.232 168.478 366.992 168.478 366.72C168.478 365.968 167.982 365.344 166.814 365.344C165.758 365.344 165.166 366 165.07 366.896L163.63 366.56C163.79 365.088 165.118 364.064 166.782 364.064C169.086 364.064 169.982 365.376 169.982 366.88V370.736C169.982 371.408 170.046 371.808 170.078 372H168.606C168.574 371.808 168.526 371.52 168.526 370.96C168.19 371.504 167.422 372.24 166.046 372.24C164.478 372.24 163.47 371.152 163.47 369.936ZM166.254 370.976C167.486 370.976 168.478 370.384 168.478 368.704V368.352L166.126 368.704C165.486 368.8 165.006 369.168 165.006 369.856C165.006 370.432 165.486 370.976 166.254 370.976ZM175.717 365.456C174.501 365.456 173.381 366.352 173.381 368.144C173.381 369.904 174.485 370.848 175.733 370.848C177.173 370.848 177.701 369.872 177.877 369.264L179.205 369.84C178.837 370.944 177.733 372.24 175.733 372.24C173.493 372.24 171.845 370.48 171.845 368.144C171.845 365.744 173.525 364.064 175.717 364.064C177.765 364.064 178.821 365.344 179.141 366.512L177.781 367.088C177.589 366.336 177.029 365.456 175.717 365.456ZM183.078 361.872V364.304H184.742V365.664H183.078V369.664C183.078 370.368 183.366 370.72 184.15 370.72C184.342 370.72 184.614 370.688 184.742 370.656V371.936C184.614 371.984 184.23 372.08 183.718 372.08C182.406 372.08 181.574 371.28 181.574 369.888V365.664H180.102V364.304H180.518C181.35 364.304 181.702 363.792 181.702 363.12V361.872H183.078ZM185.921 370L187.281 369.52C187.377 370.32 187.985 370.96 189.073 370.96C189.921 370.96 190.385 370.48 190.385 369.936C190.385 369.456 190.033 369.088 189.393 368.944L188.081 368.656C186.881 368.4 186.161 367.584 186.161 366.496C186.161 365.184 187.393 364.064 188.897 364.064C191.009 364.064 191.665 365.44 191.825 366.128L190.497 366.624C190.433 366.224 190.113 365.344 188.897 365.344C188.129 365.344 187.617 365.84 187.617 366.368C187.617 366.832 187.905 367.168 188.497 367.296L189.745 367.568C191.137 367.872 191.873 368.72 191.873 369.856C191.873 370.944 190.961 372.24 189.057 372.24C186.945 372.24 186.049 370.88 185.921 370Z" fill="#181818" fill-opacity="0.6"/>
<path d="M262.495 372H260.895V360.656H262.495V372ZM270.432 372.24C267.504 372.24 264.8 370.112 264.8 366.32C264.8 362.528 267.616 360.416 270.432 360.416C273.024 360.416 274.848 361.824 275.424 364.016L273.968 364.528C273.536 362.816 272.288 361.856 270.432 361.856C268.368 361.856 266.4 363.36 266.4 366.32C266.4 369.28 268.368 370.8 270.432 370.8C272.368 370.8 273.584 369.632 274.048 368.08L275.44 368.592C274.832 370.72 273.04 372.24 270.432 372.24ZM279.072 365.952H281.344C282.704 365.952 283.536 365.2 283.536 364.032C283.536 362.832 282.704 362.064 281.344 362.064H279.072V365.952ZM281.632 367.36H279.072V372H277.504V360.656H281.632C283.728 360.656 285.136 362.112 285.136 364.016C285.136 365.936 283.728 367.36 281.632 367.36ZM286.617 361.504C286.617 360.976 287.081 360.512 287.705 360.512C288.345 360.512 288.921 360.992 288.921 361.92C288.921 363.904 287.641 364.72 286.713 364.832V364.064C287.433 363.904 287.929 363.168 287.945 362.448C287.897 362.48 287.785 362.528 287.625 362.528C287.065 362.528 286.617 362.144 286.617 361.504ZM289.889 370L291.249 369.52C291.345 370.32 291.953 370.96 293.041 370.96C293.889 370.96 294.353 370.48 294.353 369.936C294.353 369.456 294.001 369.088 293.361 368.944L292.049 368.656C290.849 368.4 290.129 367.584 290.129 366.496C290.129 365.184 291.361 364.064 292.865 364.064C294.977 364.064 295.633 365.44 295.793 366.128L294.465 366.624C294.401 366.224 294.081 365.344 292.865 365.344C292.097 365.344 291.585 365.84 291.585 366.368C291.585 366.832 291.873 367.168 292.465 367.296L293.713 367.568C295.105 367.872 295.841 368.72 295.841 369.856C295.841 370.944 294.929 372.24 293.025 372.24C290.913 372.24 290.017 370.88 289.889 370ZM311.442 372H309.81L303.682 362.752V372H302.114V360.656H304.21L309.874 369.36V360.656H311.442V372ZM315.101 367.36H319.309C319.277 366.256 318.557 365.392 317.197 365.392C315.933 365.392 315.165 366.368 315.101 367.36ZM319.533 369.36L320.829 369.808C320.397 371.168 319.165 372.24 317.373 372.24C315.309 372.24 313.501 370.736 313.501 368.128C313.501 365.712 315.245 364.064 317.181 364.064C319.549 364.064 320.877 365.696 320.877 368.096C320.877 368.288 320.861 368.48 320.845 368.576H315.053C315.085 369.952 316.077 370.912 317.373 370.912C318.621 370.912 319.245 370.224 319.533 369.36ZM321.616 372L324.48 368.08L321.712 364.304H323.536L325.424 367.008L327.28 364.304H329.056L326.32 368.08C326.784 368.704 328.688 371.376 329.152 372H327.344L325.36 369.168L323.408 372H321.616ZM332.75 361.872V364.304H334.414V365.664H332.75V369.664C332.75 370.368 333.038 370.72 333.822 370.72C334.014 370.72 334.286 370.688 334.414 370.656V371.936C334.286 371.984 333.902 372.08 333.39 372.08C332.078 372.08 331.246 371.28 331.246 369.888V365.664H329.774V364.304H330.19C331.022 364.304 331.374 363.792 331.374 363.12V361.872H332.75ZM340.392 368.064H336.056V366.752H340.392V368.064ZM342.173 372.416L343.629 372.08C343.741 373.152 344.557 373.968 345.725 373.968C347.341 373.968 348.077 373.136 348.077 371.472V370.368C347.709 371.072 346.877 371.632 345.725 371.632C343.677 371.632 342.189 370.08 342.189 367.904C342.189 365.824 343.613 364.16 345.725 364.16C346.909 364.16 347.709 364.608 348.093 365.376V364.304H349.581V371.424C349.581 373.376 348.621 375.28 345.725 375.28C343.805 375.28 342.365 374.064 342.173 372.416ZM345.949 370.368C347.245 370.368 348.141 369.392 348.141 367.904C348.141 366.416 347.245 365.44 345.949 365.44C344.621 365.44 343.725 366.416 343.725 367.904C343.725 369.408 344.589 370.368 345.949 370.368ZM353.101 367.36H357.309C357.277 366.256 356.557 365.392 355.197 365.392C353.933 365.392 353.165 366.368 353.101 367.36ZM357.533 369.36L358.829 369.808C358.397 371.168 357.165 372.24 355.373 372.24C353.309 372.24 351.501 370.736 351.501 368.128C351.501 365.712 353.245 364.064 355.181 364.064C357.549 364.064 358.877 365.696 358.877 368.096C358.877 368.288 358.861 368.48 358.845 368.576H353.053C353.085 369.952 354.077 370.912 355.373 370.912C356.621 370.912 357.245 370.224 357.533 369.36ZM362.267 367.552V372H360.763V364.304H362.235V365.408C362.795 364.448 363.707 364.08 364.603 364.08C366.443 364.08 367.355 365.408 367.355 367.12V372H365.851V367.376C365.851 366.304 365.403 365.44 364.059 365.44C362.875 365.44 362.267 366.384 362.267 367.552ZM381.156 363.232L379.748 363.728C379.62 362.912 378.932 361.792 377.348 361.792C376.068 361.792 375.156 362.624 375.156 363.68C375.156 364.496 375.652 365.12 376.612 365.328L378.308 365.696C380.196 366.112 381.252 367.296 381.252 368.88C381.252 370.64 379.748 372.24 377.332 372.24C374.596 372.24 373.3 370.48 373.092 368.864L374.596 368.384C374.708 369.648 375.604 370.816 377.316 370.816C378.884 370.816 379.652 370 379.652 369.008C379.652 368.192 379.092 367.488 377.956 367.248L376.34 366.896C374.724 366.544 373.572 365.488 373.572 363.792C373.572 362.016 375.22 360.416 377.316 360.416C379.876 360.416 380.9 362 381.156 363.232ZM384.595 372H383.107V364.304H384.547V365.328C385.027 364.48 385.987 364.08 386.883 364.08C387.843 364.08 388.771 364.544 389.187 365.536C389.795 364.432 390.787 364.08 391.763 364.08C393.107 364.08 394.419 364.992 394.419 367.008V372H392.931V367.168C392.931 366.16 392.435 365.408 391.299 365.408C390.243 365.408 389.523 366.24 389.523 367.344V372H388.019V367.168C388.019 366.176 387.539 365.408 386.387 365.408C385.315 365.408 384.595 366.208 384.595 367.36V372ZM396.251 369.936C396.251 368.56 397.259 367.792 398.587 367.6L400.667 367.296C401.131 367.232 401.259 366.992 401.259 366.72C401.259 365.968 400.763 365.344 399.595 365.344C398.539 365.344 397.947 366 397.851 366.896L396.411 366.56C396.571 365.088 397.899 364.064 399.563 364.064C401.867 364.064 402.763 365.376 402.763 366.88V370.736C402.763 371.408 402.827 371.808 402.859 372H401.387C401.355 371.808 401.307 371.52 401.307 370.96C400.971 371.504 400.203 372.24 398.827 372.24C397.259 372.24 396.251 371.152 396.251 369.936ZM399.035 370.976C400.267 370.976 401.259 370.384 401.259 368.704V368.352L398.907 368.704C398.267 368.8 397.787 369.168 397.787 369.856C397.787 370.432 398.267 370.976 399.035 370.976ZM409.41 364.224V365.824C409.186 365.792 408.962 365.776 408.754 365.776C407.49 365.776 406.642 366.448 406.642 368.144V372H405.138V364.304H406.61V365.648C407.17 364.464 408.13 364.176 408.914 364.176C409.122 364.176 409.33 364.208 409.41 364.224ZM413.046 361.872V364.304H414.71V365.664H413.046V369.664C413.046 370.368 413.334 370.72 414.118 370.72C414.31 370.72 414.582 370.688 414.71 370.656V371.936C414.582 371.984 414.198 372.08 413.686 372.08C412.374 372.08 411.542 371.28 411.542 369.888V365.664H410.07V364.304H410.486C411.318 364.304 411.67 363.792 411.67 363.12V361.872H413.046ZM425.729 372.24C422.801 372.24 420.097 370.112 420.097 366.32C420.097 362.528 422.913 360.416 425.729 360.416C428.321 360.416 430.145 361.824 430.721 364.016L429.265 364.528C428.833 362.816 427.585 361.856 425.729 361.856C423.665 361.856 421.697 363.36 421.697 366.32C421.697 369.28 423.665 370.8 425.729 370.8C427.665 370.8 428.881 369.632 429.345 368.08L430.737 368.592C430.129 370.72 428.337 372.24 425.729 372.24ZM435.921 370.896C437.201 370.896 438.321 369.936 438.321 368.144C438.321 366.368 437.201 365.408 435.921 365.408C434.641 365.408 433.521 366.368 433.521 368.144C433.521 369.936 434.641 370.896 435.921 370.896ZM435.921 364.064C438.225 364.064 439.857 365.808 439.857 368.144C439.857 370.496 438.225 372.24 435.921 372.24C433.617 372.24 431.985 370.496 431.985 368.144C431.985 365.808 433.617 364.064 435.921 364.064ZM443.283 367.552V372H441.779V364.304H443.251V365.408C443.811 364.448 444.723 364.08 445.619 364.08C447.459 364.08 448.371 365.408 448.371 367.12V372H446.867V367.376C446.867 366.304 446.419 365.44 445.075 365.44C443.891 365.44 443.283 366.384 443.283 367.552ZM452.75 361.872V364.304H454.414V365.664H452.75V369.664C452.75 370.368 453.038 370.72 453.822 370.72C454.014 370.72 454.286 370.688 454.414 370.656V371.936C454.286 371.984 453.902 372.08 453.39 372.08C452.078 372.08 451.246 371.28 451.246 369.888V365.664H449.774V364.304H450.19C451.022 364.304 451.374 363.792 451.374 363.12V361.872H452.75ZM460.472 364.224V365.824C460.248 365.792 460.024 365.776 459.816 365.776C458.552 365.776 457.704 366.448 457.704 368.144V372H456.2V364.304H457.672V365.648C458.232 364.464 459.192 364.176 459.976 364.176C460.184 364.176 460.392 364.208 460.472 364.224ZM461.501 369.936C461.501 368.56 462.509 367.792 463.837 367.6L465.917 367.296C466.381 367.232 466.509 366.992 466.509 366.72C466.509 365.968 466.013 365.344 464.845 365.344C463.789 365.344 463.197 366 463.101 366.896L461.661 366.56C461.821 365.088 463.149 364.064 464.813 364.064C467.117 364.064 468.013 365.376 468.013 366.88V370.736C468.013 371.408 468.077 371.808 468.109 372H466.637C466.605 371.808 466.557 371.52 466.557 370.96C466.221 371.504 465.453 372.24 464.077 372.24C462.509 372.24 461.501 371.152 461.501 369.936ZM464.285 370.976C465.517 370.976 466.509 370.384 466.509 368.704V368.352L464.157 368.704C463.517 368.8 463.037 369.168 463.037 369.856C463.037 370.432 463.517 370.976 464.285 370.976ZM473.748 365.456C472.532 365.456 471.412 366.352 471.412 368.144C471.412 369.904 472.516 370.848 473.764 370.848C475.204 370.848 475.732 369.872 475.908 369.264L477.236 369.84C476.868 370.944 475.764 372.24 473.764 372.24C471.524 372.24 469.876 370.48 469.876 368.144C469.876 365.744 471.556 364.064 473.748 364.064C475.796 364.064 476.852 365.344 477.172 366.512L475.812 367.088C475.62 366.336 475.06 365.456 473.748 365.456ZM481.109 361.872V364.304H482.773V365.664H481.109V369.664C481.109 370.368 481.397 370.72 482.181 370.72C482.373 370.72 482.645 370.688 482.773 370.656V371.936C482.645 371.984 482.261 372.08 481.749 372.08C480.437 372.08 479.605 371.28 479.605 369.888V365.664H478.133V364.304H478.549C479.381 364.304 479.733 363.792 479.733 363.12V361.872H481.109ZM483.952 370L485.312 369.52C485.408 370.32 486.016 370.96 487.104 370.96C487.952 370.96 488.416 370.48 488.416 369.936C488.416 369.456 488.064 369.088 487.424 368.944L486.112 368.656C484.912 368.4 484.192 367.584 484.192 366.496C484.192 365.184 485.424 364.064 486.928 364.064C489.04 364.064 489.696 365.44 489.856 366.128L488.528 366.624C488.464 366.224 488.144 365.344 486.928 365.344C486.16 365.344 485.648 365.84 485.648 366.368C485.648 366.832 485.936 367.168 486.528 367.296L487.776 367.568C489.168 367.872 489.904 368.72 489.904 369.856C489.904 370.944 488.992 372.24 487.088 372.24C484.976 372.24 484.08 370.88 483.952 370Z" fill="black"/>
<path d="M233 83.0503L375.101 1L517.203 83.0503L375.101 165.1L233 83.0503Z" stroke="url(#paint0_linear_17493_7226)" stroke-width="1.59544" stroke-linejoin="round"/>
<path d="M233 238.949V83.0527L375.101 165.103V321L233 238.949Z" stroke="url(#paint1_linear_17493_7226)" stroke-width="1.59544" stroke-linejoin="round"/>
<path d="M375.102 321L517.203 238.949V83.0527L375.102 165.103V321Z" stroke="url(#paint2_linear_17493_7226)" stroke-width="1.59544" stroke-linejoin="round"/>
<g clip-path="url(#clip0_17493_7226)">
<rect x="255.32" y="41" width="240" height="240" rx="120" fill="url(#paint3_radial_17493_7226)"/>
<path d="M233 83.0503L375.101 1L517.203 83.0503L375.101 165.1L233 83.0503Z" stroke="white" stroke-width="1.59544" stroke-linejoin="round"/>
<path d="M233 238.949V83.0527L375.101 165.103V321L233 238.949Z" stroke="white" stroke-width="1.59544" stroke-linejoin="round"/>
<path d="M375.102 321L517.203 238.949V83.0527L375.102 165.103V321Z" stroke="white" stroke-width="1.59544" stroke-linejoin="round"/>
</g>
<path d="M96.567 308.858L85.4336 302.43V314.643L96.567 321.072M96.567 308.858V321.072M96.567 308.858L107.7 302.43V314.643L96.567 321.072M85.4336 302.428L96.567 296L107.7 302.428L96.567 308.856L85.4336 302.428Z" stroke="#181818" stroke-opacity="0.3" stroke-width="2" stroke-linejoin="round"/>
<defs>
<linearGradient id="paint0_linear_17493_7226" x1="443.067" y1="128.361" x2="338.765" y2="-23.7578" gradientUnits="userSpaceOnUse">
<stop offset="0.21" stop-color="#ED1E79"/>
<stop offset="1" stop-color="#522785"/>
</linearGradient>
<linearGradient id="paint1_linear_17493_7226" x1="338.033" y1="267.727" x2="207.874" y2="202.268" gradientUnits="userSpaceOnUse">
<stop offset="0.21" stop-color="#ED1E79"/>
<stop offset="1" stop-color="#522785"/>
</linearGradient>
<linearGradient id="paint2_linear_17493_7226" x1="480.135" y1="267.727" x2="349.975" y2="202.268" gradientUnits="userSpaceOnUse">
<stop offset="0.21" stop-color="#ED1E79"/>
<stop offset="1" stop-color="#522785"/>
</linearGradient>
<radialGradient id="paint3_radial_17493_7226" cx="0" cy="0" r="1" gradientUnits="userSpaceOnUse" gradientTransform="translate(307.037 68.8788) rotate(51.374) scale(213.595 287.416)">
<stop offset="0.21" stop-color="#ED1E79"/>
<stop offset="1" stop-color="#522785"/>
</radialGradient>
<clipPath id="clip0_17493_7226">
<rect x="255.32" y="41" width="240" height="240" rx="120" fill="white"/>
</clipPath>
</defs>
</svg>
