<svg width="547" height="412" viewBox="0 0 547 412" fill="none" xmlns="http://www.w3.org/2000/svg">
<path d="M123.399 325.786L112.266 319.357V331.571L123.399 337.999M123.399 325.786V337.999M123.399 325.786L134.532 319.357V331.571L123.399 337.999M112.266 319.356L123.399 312.928L134.532 319.356L123.399 325.784L112.266 319.356Z" stroke="#181818" stroke-opacity="0.3" stroke-width="2" stroke-linejoin="round"/>
<path d="M36.7447 377.112H32.9527V387H31.3847V377.112H27.5927V375.656H36.7447V377.112ZM40.7302 379.224V380.824C40.5062 380.792 40.2822 380.776 40.0742 380.776C38.8102 380.776 37.9622 381.448 37.9622 383.144V387H36.4582V379.304H37.9302V380.648C38.4902 379.464 39.4502 379.176 40.2342 379.176C40.4422 379.176 40.6502 379.208 40.7302 379.224ZM41.7587 384.936C41.7587 383.56 42.7667 382.792 44.0947 382.6L46.1747 382.296C46.6387 382.232 46.7667 381.992 46.7667 381.72C46.7667 380.968 46.2707 380.344 45.1027 380.344C44.0467 380.344 43.4547 381 43.3587 381.896L41.9187 381.56C42.0787 380.088 43.4067 379.064 45.0707 379.064C47.3747 379.064 48.2707 380.376 48.2707 381.88V385.736C48.2707 386.408 48.3347 386.808 48.3667 387H46.8947C46.8627 386.808 46.8147 386.52 46.8147 385.96C46.4787 386.504 45.7107 387.24 44.3347 387.24C42.7667 387.24 41.7587 386.152 41.7587 384.936ZM44.5427 385.976C45.7747 385.976 46.7667 385.384 46.7667 383.704V383.352L44.4147 383.704C43.7747 383.8 43.2947 384.168 43.2947 384.856C43.2947 385.432 43.7747 385.976 44.5427 385.976ZM51.6857 383.128C51.6857 384.712 52.5017 385.88 53.9417 385.88C55.3177 385.88 56.1657 384.68 56.1657 383.096C56.1657 381.512 55.3337 380.424 53.9577 380.424C52.5817 380.424 51.6857 381.544 51.6857 383.128ZM56.1817 385.96V385.832C55.8137 386.568 54.9977 387.208 53.7977 387.208C51.5417 387.208 50.1497 385.416 50.1497 383.128C50.1497 380.952 51.6217 379.096 53.7977 379.096C55.1577 379.096 55.8937 379.768 56.1497 380.392V375.416H57.6377V385.576C57.6377 386.312 57.7017 386.872 57.7177 387H56.2617C56.2297 386.824 56.1817 386.424 56.1817 385.96ZM61.5712 387H60.0832V379.304H61.5712V387ZM59.7472 376.392C59.7472 375.784 60.2272 375.304 60.8192 375.304C61.4272 375.304 61.9072 375.784 61.9072 376.392C61.9072 376.984 61.4272 377.464 60.8192 377.464C60.2272 377.464 59.7472 376.984 59.7472 376.392ZM66.1011 376.872V379.304H67.7651V380.664H66.1011V384.664C66.1011 385.368 66.3891 385.72 67.1731 385.72C67.3651 385.72 67.6371 385.688 67.7651 385.656V386.936C67.6371 386.984 67.2531 387.08 66.7411 387.08C65.4291 387.08 64.5971 386.28 64.5971 384.888V380.664H63.1251V379.304H63.5411C64.3731 379.304 64.7251 378.792 64.7251 378.12V376.872H66.1011ZM71.04 387H69.552V379.304H71.04V387ZM69.216 376.392C69.216 375.784 69.696 375.304 70.288 375.304C70.896 375.304 71.376 375.784 71.376 376.392C71.376 376.984 70.896 377.464 70.288 377.464C69.696 377.464 69.216 376.984 69.216 376.392ZM76.8978 385.896C78.1778 385.896 79.2978 384.936 79.2978 383.144C79.2978 381.368 78.1778 380.408 76.8978 380.408C75.6178 380.408 74.4978 381.368 74.4978 383.144C74.4978 384.936 75.6178 385.896 76.8978 385.896ZM76.8978 379.064C79.2018 379.064 80.8338 380.808 80.8338 383.144C80.8338 385.496 79.2018 387.24 76.8978 387.24C74.5938 387.24 72.9618 385.496 72.9618 383.144C72.9618 380.808 74.5938 379.064 76.8978 379.064ZM84.2591 382.552V387H82.7551V379.304H84.2271V380.408C84.7871 379.448 85.6991 379.08 86.5951 379.08C88.4351 379.08 89.3471 380.408 89.3471 382.12V387H87.8431V382.376C87.8431 381.304 87.3951 380.44 86.0511 380.44C84.8671 380.44 84.2591 381.384 84.2591 382.552ZM91.1806 384.936C91.1806 383.56 92.1886 382.792 93.5166 382.6L95.5966 382.296C96.0606 382.232 96.1886 381.992 96.1886 381.72C96.1886 380.968 95.6926 380.344 94.5246 380.344C93.4686 380.344 92.8766 381 92.7806 381.896L91.3406 381.56C91.5006 380.088 92.8286 379.064 94.4926 379.064C96.7966 379.064 97.6926 380.376 97.6926 381.88V385.736C97.6926 386.408 97.7566 386.808 97.7886 387H96.3166C96.2846 386.808 96.2366 386.52 96.2366 385.96C95.9006 386.504 95.1326 387.24 93.7566 387.24C92.1886 387.24 91.1806 386.152 91.1806 384.936ZM93.9646 385.976C95.1966 385.976 96.1886 385.384 96.1886 383.704V383.352L93.8366 383.704C93.1966 383.8 92.7166 384.168 92.7166 384.856C92.7166 385.432 93.1966 385.976 93.9646 385.976ZM101.572 387H100.068V375.416H101.572V387ZM107.428 385L108.788 384.52C108.884 385.32 109.492 385.96 110.58 385.96C111.428 385.96 111.892 385.48 111.892 384.936C111.892 384.456 111.54 384.088 110.9 383.944L109.588 383.656C108.388 383.4 107.668 382.584 107.668 381.496C107.668 380.184 108.9 379.064 110.404 379.064C112.516 379.064 113.172 380.44 113.332 381.128L112.004 381.624C111.94 381.224 111.62 380.344 110.404 380.344C109.636 380.344 109.124 380.84 109.124 381.368C109.124 381.832 109.412 382.168 110.004 382.296L111.252 382.568C112.644 382.872 113.38 383.72 113.38 384.856C113.38 385.944 112.468 387.24 110.564 387.24C108.452 387.24 107.556 385.88 107.428 385ZM116.806 387H115.318V379.304H116.758V380.328C117.238 379.48 118.198 379.08 119.094 379.08C120.054 379.08 120.982 379.544 121.398 380.536C122.006 379.432 122.998 379.08 123.974 379.08C125.318 379.08 126.63 379.992 126.63 382.008V387H125.142V382.168C125.142 381.16 124.646 380.408 123.51 380.408C122.454 380.408 121.734 381.24 121.734 382.344V387H120.23V382.168C120.23 381.176 119.75 380.408 118.598 380.408C117.526 380.408 116.806 381.208 116.806 382.36V387ZM128.462 384.936C128.462 383.56 129.47 382.792 130.798 382.6L132.878 382.296C133.342 382.232 133.47 381.992 133.47 381.72C133.47 380.968 132.974 380.344 131.806 380.344C130.75 380.344 130.158 381 130.062 381.896L128.622 381.56C128.782 380.088 130.11 379.064 131.774 379.064C134.078 379.064 134.974 380.376 134.974 381.88V385.736C134.974 386.408 135.038 386.808 135.07 387H133.598C133.566 386.808 133.518 386.52 133.518 385.96C133.182 386.504 132.414 387.24 131.038 387.24C129.47 387.24 128.462 386.152 128.462 384.936ZM131.246 385.976C132.478 385.976 133.47 385.384 133.47 383.704V383.352L131.118 383.704C130.478 383.8 129.998 384.168 129.998 384.856C129.998 385.432 130.478 385.976 131.246 385.976ZM141.621 379.224V380.824C141.397 380.792 141.173 380.776 140.965 380.776C139.701 380.776 138.853 381.448 138.853 383.144V387H137.349V379.304H138.821V380.648C139.381 379.464 140.341 379.176 141.125 379.176C141.333 379.176 141.541 379.208 141.621 379.224ZM145.257 376.872V379.304H146.921V380.664H145.257V384.664C145.257 385.368 145.545 385.72 146.329 385.72C146.521 385.72 146.793 385.688 146.921 385.656V386.936C146.793 386.984 146.409 387.08 145.897 387.08C144.585 387.08 143.753 386.28 143.753 384.888V380.664H142.281V379.304H142.697C143.529 379.304 143.881 378.792 143.881 378.12V376.872H145.257ZM156.099 380.456C154.883 380.456 153.763 381.352 153.763 383.144C153.763 384.904 154.867 385.848 156.115 385.848C157.555 385.848 158.083 384.872 158.259 384.264L159.587 384.84C159.219 385.944 158.115 387.24 156.115 387.24C153.875 387.24 152.227 385.48 152.227 383.144C152.227 380.744 153.907 379.064 156.099 379.064C158.147 379.064 159.203 380.344 159.523 381.512L158.163 382.088C157.971 381.336 157.411 380.456 156.099 380.456ZM164.788 385.896C166.068 385.896 167.188 384.936 167.188 383.144C167.188 381.368 166.068 380.408 164.788 380.408C163.508 380.408 162.388 381.368 162.388 383.144C162.388 384.936 163.508 385.896 164.788 385.896ZM164.788 379.064C167.092 379.064 168.724 380.808 168.724 383.144C168.724 385.496 167.092 387.24 164.788 387.24C162.484 387.24 160.852 385.496 160.852 383.144C160.852 380.808 162.484 379.064 164.788 379.064ZM172.15 382.552V387H170.646V379.304H172.118V380.408C172.678 379.448 173.59 379.08 174.486 379.08C176.326 379.08 177.238 380.408 177.238 382.12V387H175.734V382.376C175.734 381.304 175.286 380.44 173.942 380.44C172.758 380.44 172.15 381.384 172.15 382.552ZM181.617 376.872V379.304H183.281V380.664H181.617V384.664C181.617 385.368 181.905 385.72 182.689 385.72C182.881 385.72 183.153 385.688 183.281 385.656V386.936C183.153 386.984 182.769 387.08 182.257 387.08C180.945 387.08 180.113 386.28 180.113 384.888V380.664H178.641V379.304H179.057C179.889 379.304 180.241 378.792 180.241 378.12V376.872H181.617ZM189.34 379.224V380.824C189.116 380.792 188.892 380.776 188.684 380.776C187.42 380.776 186.572 381.448 186.572 383.144V387H185.068V379.304H186.54V380.648C187.1 379.464 188.06 379.176 188.844 379.176C189.052 379.176 189.26 379.208 189.34 379.224ZM190.368 384.936C190.368 383.56 191.376 382.792 192.704 382.6L194.784 382.296C195.248 382.232 195.376 381.992 195.376 381.72C195.376 380.968 194.88 380.344 193.712 380.344C192.656 380.344 192.064 381 191.968 381.896L190.528 381.56C190.688 380.088 192.016 379.064 193.68 379.064C195.984 379.064 196.88 380.376 196.88 381.88V385.736C196.88 386.408 196.944 386.808 196.976 387H195.504C195.472 386.808 195.424 386.52 195.424 385.96C195.088 386.504 194.32 387.24 192.944 387.24C191.376 387.24 190.368 386.152 190.368 384.936ZM193.152 385.976C194.384 385.976 195.376 385.384 195.376 383.704V383.352L193.024 383.704C192.384 383.8 191.904 384.168 191.904 384.856C191.904 385.432 192.384 385.976 193.152 385.976ZM202.615 380.456C201.399 380.456 200.279 381.352 200.279 383.144C200.279 384.904 201.383 385.848 202.631 385.848C204.071 385.848 204.599 384.872 204.775 384.264L206.103 384.84C205.735 385.944 204.631 387.24 202.631 387.24C200.391 387.24 198.743 385.48 198.743 383.144C198.743 380.744 200.423 379.064 202.615 379.064C204.663 379.064 205.719 380.344 206.039 381.512L204.679 382.088C204.487 381.336 203.927 380.456 202.615 380.456ZM209.976 376.872V379.304H211.64V380.664H209.976V384.664C209.976 385.368 210.264 385.72 211.048 385.72C211.24 385.72 211.512 385.688 211.64 385.656V386.936C211.512 386.984 211.128 387.08 210.616 387.08C209.304 387.08 208.472 386.28 208.472 384.888V380.664H207V379.304H207.416C208.248 379.304 208.6 378.792 208.6 378.12V376.872H209.976ZM212.819 385L214.179 384.52C214.275 385.32 214.883 385.96 215.971 385.96C216.819 385.96 217.283 385.48 217.283 384.936C217.283 384.456 216.931 384.088 216.291 383.944L214.979 383.656C213.779 383.4 213.059 382.584 213.059 381.496C213.059 380.184 214.291 379.064 215.795 379.064C217.907 379.064 218.563 380.44 218.723 381.128L217.395 381.624C217.331 381.224 217.011 380.344 215.795 380.344C215.027 380.344 214.515 380.84 214.515 381.368C214.515 381.832 214.803 382.168 215.395 382.296L216.643 382.568C218.035 382.872 218.771 383.72 218.771 384.856C218.771 385.944 217.859 387.24 215.955 387.24C213.843 387.24 212.947 385.88 212.819 385Z" fill="#181818" fill-opacity="0.6"/>
<g clip-path="url(#clip0_17493_7226)">
<path d="M264.572 101.025L404.897 20L545.223 101.025L404.897 182.049L264.572 101.025Z" stroke="url(#paint0_linear_17493_7226)" stroke-width="1.59544" stroke-linejoin="round"/>
<path d="M264.572 254.975V101.027L404.897 182.052V336L264.572 254.975Z" stroke="url(#paint1_linear_17493_7226)" stroke-width="1.59544" stroke-linejoin="round"/>
<path d="M404.898 336L545.224 254.975V101.027L404.898 182.052V336Z" stroke="url(#paint2_linear_17493_7226)" stroke-width="1.59544" stroke-linejoin="round"/>
<g clip-path="url(#clip1_17493_7226)">
<rect x="285.117" y="58" width="240" height="240" rx="120" fill="url(#paint3_radial_17493_7226)"/>
<path d="M262.797 100.05L404.898 18L547 100.05L404.898 182.1L262.797 100.05Z" stroke="white" stroke-width="1.59544" stroke-linejoin="round"/>
<path d="M262.797 255.949V100.053L404.898 182.103V338L262.797 255.949Z" stroke="white" stroke-width="1.59544" stroke-linejoin="round"/>
<path d="M404.898 338L547 255.949V100.053L404.898 182.103V338Z" stroke="white" stroke-width="1.59544" stroke-linejoin="round"/>
</g>
</g>
<path d="M292.393 387H290.793V375.656H292.393V387ZM300.33 387.24C297.402 387.24 294.698 385.112 294.698 381.32C294.698 377.528 297.514 375.416 300.33 375.416C302.922 375.416 304.746 376.824 305.322 379.016L303.866 379.528C303.434 377.816 302.186 376.856 300.33 376.856C298.266 376.856 296.298 378.36 296.298 381.32C296.298 384.28 298.266 385.8 300.33 385.8C302.266 385.8 303.482 384.632 303.946 383.08L305.338 383.592C304.73 385.72 302.938 387.24 300.33 387.24ZM308.971 380.952H311.243C312.603 380.952 313.435 380.2 313.435 379.032C313.435 377.832 312.603 377.064 311.243 377.064H308.971V380.952ZM311.531 382.36H308.971V387H307.403V375.656H311.531C313.627 375.656 315.035 377.112 315.035 379.016C315.035 380.936 313.627 382.36 311.531 382.36ZM316.516 376.504C316.516 375.976 316.98 375.512 317.604 375.512C318.244 375.512 318.82 375.992 318.82 376.92C318.82 378.904 317.54 379.72 316.612 379.832V379.064C317.332 378.904 317.828 378.168 317.844 377.448C317.796 377.48 317.684 377.528 317.524 377.528C316.964 377.528 316.516 377.144 316.516 376.504ZM319.788 385L321.148 384.52C321.244 385.32 321.852 385.96 322.94 385.96C323.788 385.96 324.252 385.48 324.252 384.936C324.252 384.456 323.9 384.088 323.26 383.944L321.948 383.656C320.748 383.4 320.028 382.584 320.028 381.496C320.028 380.184 321.26 379.064 322.764 379.064C324.876 379.064 325.532 380.44 325.692 381.128L324.364 381.624C324.3 381.224 323.98 380.344 322.764 380.344C321.996 380.344 321.484 380.84 321.484 381.368C321.484 381.832 321.772 382.168 322.364 382.296L323.612 382.568C325.004 382.872 325.74 383.72 325.74 384.856C325.74 385.944 324.828 387.24 322.924 387.24C320.812 387.24 319.916 385.88 319.788 385ZM341.34 387H339.708L333.58 377.752V387H332.012V375.656H334.108L339.772 384.36V375.656H341.34V387ZM344.999 382.36H349.207C349.175 381.256 348.455 380.392 347.095 380.392C345.831 380.392 345.063 381.368 344.999 382.36ZM349.431 384.36L350.727 384.808C350.295 386.168 349.063 387.24 347.271 387.24C345.207 387.24 343.399 385.736 343.399 383.128C343.399 380.712 345.143 379.064 347.079 379.064C349.447 379.064 350.775 380.696 350.775 383.096C350.775 383.288 350.759 383.48 350.743 383.576H344.951C344.983 384.952 345.975 385.912 347.271 385.912C348.519 385.912 349.143 385.224 349.431 384.36ZM351.515 387L354.379 383.08L351.611 379.304H353.435L355.323 382.008L357.179 379.304H358.955L356.219 383.08C356.683 383.704 358.587 386.376 359.051 387H357.243L355.259 384.168L353.307 387H351.515ZM362.648 376.872V379.304H364.312V380.664H362.648V384.664C362.648 385.368 362.936 385.72 363.72 385.72C363.912 385.72 364.184 385.688 364.312 385.656V386.936C364.184 386.984 363.8 387.08 363.288 387.08C361.976 387.08 361.144 386.28 361.144 384.888V380.664H359.672V379.304H360.088C360.92 379.304 361.272 378.792 361.272 378.12V376.872H362.648ZM370.291 383.064H365.955V381.752H370.291V383.064ZM372.071 387.416L373.527 387.08C373.639 388.152 374.455 388.968 375.623 388.968C377.239 388.968 377.975 388.136 377.975 386.472V385.368C377.607 386.072 376.775 386.632 375.623 386.632C373.575 386.632 372.087 385.08 372.087 382.904C372.087 380.824 373.511 379.16 375.623 379.16C376.807 379.16 377.607 379.608 377.991 380.376V379.304H379.479V386.424C379.479 388.376 378.519 390.28 375.623 390.28C373.703 390.28 372.263 389.064 372.071 387.416ZM375.847 385.368C377.143 385.368 378.039 384.392 378.039 382.904C378.039 381.416 377.143 380.44 375.847 380.44C374.519 380.44 373.623 381.416 373.623 382.904C373.623 384.408 374.487 385.368 375.847 385.368ZM382.999 382.36H387.207C387.175 381.256 386.455 380.392 385.095 380.392C383.831 380.392 383.063 381.368 382.999 382.36ZM387.431 384.36L388.727 384.808C388.295 386.168 387.063 387.24 385.271 387.24C383.207 387.24 381.399 385.736 381.399 383.128C381.399 380.712 383.143 379.064 385.079 379.064C387.447 379.064 388.775 380.696 388.775 383.096C388.775 383.288 388.759 383.48 388.743 383.576H382.951C382.983 384.952 383.975 385.912 385.271 385.912C386.519 385.912 387.143 385.224 387.431 384.36ZM392.165 382.552V387H390.661V379.304H392.133V380.408C392.693 379.448 393.605 379.08 394.501 379.08C396.341 379.08 397.253 380.408 397.253 382.12V387H395.749V382.376C395.749 381.304 395.301 380.44 393.957 380.44C392.773 380.44 392.165 381.384 392.165 382.552ZM411.054 378.232L409.646 378.728C409.518 377.912 408.83 376.792 407.246 376.792C405.966 376.792 405.054 377.624 405.054 378.68C405.054 379.496 405.55 380.12 406.51 380.328L408.206 380.696C410.094 381.112 411.15 382.296 411.15 383.88C411.15 385.64 409.646 387.24 407.23 387.24C404.494 387.24 403.198 385.48 402.99 383.864L404.494 383.384C404.606 384.648 405.502 385.816 407.214 385.816C408.782 385.816 409.55 385 409.55 384.008C409.55 383.192 408.99 382.488 407.854 382.248L406.238 381.896C404.622 381.544 403.47 380.488 403.47 378.792C403.47 377.016 405.118 375.416 407.214 375.416C409.774 375.416 410.798 377 411.054 378.232ZM414.493 387H413.005V379.304H414.445V380.328C414.925 379.48 415.885 379.08 416.781 379.08C417.741 379.08 418.669 379.544 419.085 380.536C419.693 379.432 420.685 379.08 421.661 379.08C423.005 379.08 424.317 379.992 424.317 382.008V387H422.829V382.168C422.829 381.16 422.333 380.408 421.197 380.408C420.141 380.408 419.421 381.24 419.421 382.344V387H417.917V382.168C417.917 381.176 417.437 380.408 416.285 380.408C415.213 380.408 414.493 381.208 414.493 382.36V387ZM426.149 384.936C426.149 383.56 427.157 382.792 428.485 382.6L430.565 382.296C431.029 382.232 431.157 381.992 431.157 381.72C431.157 380.968 430.661 380.344 429.493 380.344C428.437 380.344 427.845 381 427.749 381.896L426.309 381.56C426.469 380.088 427.797 379.064 429.461 379.064C431.765 379.064 432.661 380.376 432.661 381.88V385.736C432.661 386.408 432.725 386.808 432.757 387H431.285C431.253 386.808 431.205 386.52 431.205 385.96C430.869 386.504 430.101 387.24 428.725 387.24C427.157 387.24 426.149 386.152 426.149 384.936ZM428.933 385.976C430.165 385.976 431.157 385.384 431.157 383.704V383.352L428.805 383.704C428.165 383.8 427.685 384.168 427.685 384.856C427.685 385.432 428.165 385.976 428.933 385.976ZM439.308 379.224V380.824C439.084 380.792 438.86 380.776 438.652 380.776C437.388 380.776 436.54 381.448 436.54 383.144V387H435.036V379.304H436.508V380.648C437.068 379.464 438.028 379.176 438.812 379.176C439.02 379.176 439.228 379.208 439.308 379.224ZM442.945 376.872V379.304H444.609V380.664H442.945V384.664C442.945 385.368 443.233 385.72 444.017 385.72C444.209 385.72 444.481 385.688 444.609 385.656V386.936C444.481 386.984 444.097 387.08 443.585 387.08C442.273 387.08 441.441 386.28 441.441 384.888V380.664H439.969V379.304H440.385C441.217 379.304 441.569 378.792 441.569 378.12V376.872H442.945ZM455.627 387.24C452.699 387.24 449.995 385.112 449.995 381.32C449.995 377.528 452.811 375.416 455.627 375.416C458.219 375.416 460.043 376.824 460.619 379.016L459.163 379.528C458.731 377.816 457.483 376.856 455.627 376.856C453.563 376.856 451.595 378.36 451.595 381.32C451.595 384.28 453.563 385.8 455.627 385.8C457.563 385.8 458.779 384.632 459.243 383.08L460.635 383.592C460.027 385.72 458.235 387.24 455.627 387.24ZM465.82 385.896C467.1 385.896 468.22 384.936 468.22 383.144C468.22 381.368 467.1 380.408 465.82 380.408C464.54 380.408 463.42 381.368 463.42 383.144C463.42 384.936 464.54 385.896 465.82 385.896ZM465.82 379.064C468.124 379.064 469.756 380.808 469.756 383.144C469.756 385.496 468.124 387.24 465.82 387.24C463.516 387.24 461.884 385.496 461.884 383.144C461.884 380.808 463.516 379.064 465.82 379.064ZM473.181 382.552V387H471.677V379.304H473.149V380.408C473.709 379.448 474.621 379.08 475.517 379.08C477.357 379.08 478.269 380.408 478.269 382.12V387H476.765V382.376C476.765 381.304 476.317 380.44 474.973 380.44C473.789 380.44 473.181 381.384 473.181 382.552ZM482.648 376.872V379.304H484.312V380.664H482.648V384.664C482.648 385.368 482.936 385.72 483.72 385.72C483.912 385.72 484.184 385.688 484.312 385.656V386.936C484.184 386.984 483.8 387.08 483.288 387.08C481.976 387.08 481.144 386.28 481.144 384.888V380.664H479.672V379.304H480.088C480.92 379.304 481.272 378.792 481.272 378.12V376.872H482.648ZM490.371 379.224V380.824C490.147 380.792 489.923 380.776 489.715 380.776C488.451 380.776 487.603 381.448 487.603 383.144V387H486.099V379.304H487.571V380.648C488.131 379.464 489.091 379.176 489.875 379.176C490.083 379.176 490.291 379.208 490.371 379.224ZM491.399 384.936C491.399 383.56 492.407 382.792 493.735 382.6L495.815 382.296C496.279 382.232 496.407 381.992 496.407 381.72C496.407 380.968 495.911 380.344 494.743 380.344C493.687 380.344 493.095 381 492.999 381.896L491.559 381.56C491.719 380.088 493.047 379.064 494.711 379.064C497.015 379.064 497.911 380.376 497.911 381.88V385.736C497.911 386.408 497.975 386.808 498.007 387H496.535C496.503 386.808 496.455 386.52 496.455 385.96C496.119 386.504 495.351 387.24 493.975 387.24C492.407 387.24 491.399 386.152 491.399 384.936ZM494.183 385.976C495.415 385.976 496.407 385.384 496.407 383.704V383.352L494.055 383.704C493.415 383.8 492.935 384.168 492.935 384.856C492.935 385.432 493.415 385.976 494.183 385.976ZM503.646 380.456C502.43 380.456 501.31 381.352 501.31 383.144C501.31 384.904 502.414 385.848 503.662 385.848C505.102 385.848 505.63 384.872 505.806 384.264L507.134 384.84C506.766 385.944 505.662 387.24 503.662 387.24C501.422 387.24 499.774 385.48 499.774 383.144C499.774 380.744 501.454 379.064 503.646 379.064C505.694 379.064 506.75 380.344 507.07 381.512L505.71 382.088C505.518 381.336 504.958 380.456 503.646 380.456ZM511.007 376.872V379.304H512.671V380.664H511.007V384.664C511.007 385.368 511.295 385.72 512.079 385.72C512.271 385.72 512.543 385.688 512.671 385.656V386.936C512.543 386.984 512.159 387.08 511.647 387.08C510.335 387.08 509.503 386.28 509.503 384.888V380.664H508.031V379.304H508.447C509.279 379.304 509.631 378.792 509.631 378.12V376.872H511.007ZM513.85 385L515.21 384.52C515.306 385.32 515.914 385.96 517.002 385.96C517.85 385.96 518.314 385.48 518.314 384.936C518.314 384.456 517.962 384.088 517.322 383.944L516.01 383.656C514.81 383.4 514.09 382.584 514.09 381.496C514.09 380.184 515.322 379.064 516.826 379.064C518.938 379.064 519.594 380.44 519.754 381.128L518.426 381.624C518.362 381.224 518.042 380.344 516.826 380.344C516.058 380.344 515.546 380.84 515.546 381.368C515.546 381.832 515.834 382.168 516.426 382.296L517.674 382.568C519.066 382.872 519.802 383.72 519.802 384.856C519.802 385.944 518.89 387.24 516.986 387.24C514.874 387.24 513.978 385.88 513.85 385Z" fill="black"/>
<defs>
<linearGradient id="paint0_linear_17493_7226" x1="472.013" y1="145.769" x2="369.016" y2="-4.44834" gradientUnits="userSpaceOnUse">
<stop offset="0.21" stop-color="#ED1E79"/>
<stop offset="1" stop-color="#522785"/>
</linearGradient>
<linearGradient id="paint1_linear_17493_7226" x1="368.293" y1="283.393" x2="239.76" y2="218.752" gradientUnits="userSpaceOnUse">
<stop offset="0.21" stop-color="#ED1E79"/>
<stop offset="1" stop-color="#522785"/>
</linearGradient>
<linearGradient id="paint2_linear_17493_7226" x1="508.619" y1="283.393" x2="380.086" y2="218.752" gradientUnits="userSpaceOnUse">
<stop offset="0.21" stop-color="#ED1E79"/>
<stop offset="1" stop-color="#522785"/>
</linearGradient>
<radialGradient id="paint3_radial_17493_7226" cx="0" cy="0" r="1" gradientUnits="userSpaceOnUse" gradientTransform="translate(336.834 85.8788) rotate(51.374) scale(213.595 287.416)">
<stop offset="0.21" stop-color="#ED1E79"/>
<stop offset="1" stop-color="#522785"/>
</radialGradient>
<clipPath id="clip0_17493_7226">
<rect width="284.203" height="320" fill="white" transform="translate(262.797 18)"/>
</clipPath>
<clipPath id="clip1_17493_7226">
<rect x="285.117" y="58" width="240" height="240" rx="120" fill="white"/>
</clipPath>
</defs>
</svg>
