<svg xmlns="http://www.w3.org/2000/svg" width="547" height="412" fill="none" viewBox="0 0 547 412"><path stroke="#181818" stroke-linejoin="round" stroke-opacity=".3" stroke-width="2" d="m99.297 176.795-10.5-5.897v11.205l10.5 5.897m0-11.205V188m0-11.205 10.499-5.897v11.205L99.296 188m-10.5-17.103 10.5-5.897 10.501 5.897-10.5 5.897-10.5-5.897Z"/><path fill="#181818" fill-opacity=".6" d="M12.846 377.112H9.054V387H7.486v-9.888H3.694v-1.456h9.152v1.456Zm3.986 2.112v1.6a4.694 4.694 0 0 0-.656-.048c-1.264 0-2.112.672-2.112 2.368V387H12.56v-7.696h1.472v1.344c.56-1.184 1.52-1.472 2.304-1.472.208 0 .416.032.496.048Zm1.028 5.712c0-1.376 1.008-2.144 2.336-2.336l2.08-.304c.464-.064.592-.304.592-.576 0-.752-.496-1.376-1.664-1.376-1.056 0-1.648.656-1.744 1.552l-1.44-.336c.16-1.472 1.488-2.496 3.152-2.496 2.304 0 3.2 1.312 3.2 2.816v3.856c0 .672.064 1.072.096 1.264h-1.472c-.032-.192-.08-.48-.08-1.04-.336.544-1.104 1.28-2.48 1.28-1.568 0-2.576-1.088-2.576-2.304Zm2.784 1.04c1.232 0 2.224-.592 2.224-2.272v-.352l-2.352.352c-.64.096-1.12.464-1.12 1.152 0 .576.48 1.12 1.248 1.12Zm7.143-2.848c0 1.584.816 2.752 2.256 2.752 1.376 0 2.224-1.2 2.224-2.784 0-1.584-.832-2.672-2.208-2.672-1.376 0-2.272 1.12-2.272 2.704Zm4.496 2.832v-.128c-.368.736-1.184 1.376-2.384 1.376-2.256 0-3.648-1.792-3.648-4.08 0-2.176 1.472-4.032 3.648-4.032 1.36 0 2.096.672 2.352 1.296v-4.976h1.488v10.16c0 .736.064 1.296.08 1.424h-1.456a6.446 6.446 0 0 1-.08-1.04Zm5.39 1.04h-1.488v-7.696h1.488V387Zm-1.824-10.608c0-.608.48-1.088 1.072-1.088.608 0 1.088.48 1.088 1.088 0 .592-.48 1.072-1.088 1.072-.592 0-1.072-.48-1.072-1.072Zm6.354.48v2.432h1.664v1.36h-1.664v4c0 .704.288 1.056 1.072 1.056.192 0 .464-.032.592-.064v1.28c-.128.048-.512.144-1.024.144-1.312 0-2.144-.8-2.144-2.192v-4.224h-1.472v-1.36h.416c.832 0 1.184-.512 1.184-1.184v-1.248h1.376ZM47.14 387h-1.487v-7.696h1.487V387Zm-1.823-10.608c0-.608.48-1.088 1.072-1.088.608 0 1.087.48 1.087 1.088 0 .592-.48 1.072-1.087 1.072-.593 0-1.072-.48-1.072-1.072Zm7.681 9.504c1.28 0 2.4-.96 2.4-2.752 0-1.776-1.12-2.736-2.4-2.736-1.28 0-2.4.96-2.4 2.736 0 1.792 1.12 2.752 2.4 2.752Zm0-6.832c2.304 0 3.936 1.744 3.936 4.08 0 2.352-1.632 4.096-3.936 4.096-2.304 0-3.936-1.744-3.936-4.096 0-2.336 1.632-4.08 3.936-4.08Zm7.362 3.488V387h-1.504v-7.696h1.472v1.104c.56-.96 1.472-1.328 2.368-1.328 1.84 0 2.752 1.328 2.752 3.04V387h-1.504v-4.624c0-1.072-.448-1.936-1.792-1.936-1.184 0-1.792.944-1.792 2.112Zm6.921 2.384c0-1.376 1.008-2.144 2.336-2.336l2.08-.304c.464-.064.592-.304.592-.576 0-.752-.496-1.376-1.664-1.376-1.056 0-1.648.656-1.744 1.552l-1.44-.336c.16-1.472 1.488-2.496 3.152-2.496 2.304 0 3.2 1.312 3.2 2.816v3.856c0 .672.064 1.072.096 1.264h-1.472c-.032-.192-.08-.48-.08-1.04-.336.544-1.104 1.28-2.48 1.28-1.568 0-2.576-1.088-2.576-2.304Zm2.784 1.04c1.232 0 2.224-.592 2.224-2.272v-.352l-2.352.352c-.64.096-1.12.464-1.12 1.152 0 .576.48 1.12 1.248 1.12ZM77.673 387H76.17v-11.584h1.504V387Zm5.857-2 1.36-.48c.096.8.704 1.44 1.792 1.44.848 0 1.312-.48 1.312-1.024 0-.48-.352-.848-.992-.992l-1.312-.288c-1.2-.256-1.92-1.072-1.92-2.16 0-1.312 1.232-2.432 2.736-2.432 2.112 0 2.768 1.376 2.928 2.064l-1.328.496c-.064-.4-.384-1.28-1.6-1.28-.768 0-1.28.496-1.28 1.024 0 .464.288.8.88.928l1.248.272c1.392.304 2.128 1.152 2.128 2.288 0 1.088-.912 2.384-2.816 2.384-2.112 0-3.008-1.36-3.136-2.24Zm9.377 2H91.42v-7.696h1.44v1.024c.48-.848 1.44-1.248 2.336-1.248.96 0 1.888.464 2.304 1.456.608-1.104 1.6-1.456 2.576-1.456 1.344 0 2.656.912 2.656 2.928V387h-1.488v-4.832c0-1.008-.496-1.76-1.632-1.76-1.056 0-1.776.832-1.776 1.936V387h-1.504v-4.832c0-.992-.48-1.76-1.632-1.76-1.072 0-1.792.8-1.792 1.952V387Zm11.656-2.064c0-1.376 1.008-2.144 2.336-2.336l2.08-.304c.464-.064.592-.304.592-.576 0-.752-.496-1.376-1.664-1.376-1.056 0-1.648.656-1.744 1.552l-1.44-.336c.16-1.472 1.488-2.496 3.152-2.496 2.304 0 3.2 1.312 3.2 2.816v3.856c0 .672.064 1.072.096 1.264h-1.472c-.032-.192-.08-.48-.08-1.04-.336.544-1.104 1.28-2.48 1.28-1.568 0-2.576-1.088-2.576-2.304Zm2.784 1.04c1.232 0 2.224-.592 2.224-2.272v-.352l-2.352.352c-.64.096-1.12.464-1.12 1.152 0 .576.48 1.12 1.248 1.12Zm10.375-6.752v1.6a4.694 4.694 0 0 0-.656-.048c-1.264 0-2.112.672-2.112 2.368V387h-1.504v-7.696h1.472v1.344c.56-1.184 1.52-1.472 2.304-1.472.208 0 .416.032.496.048Zm3.637-2.352v2.432h1.664v1.36h-1.664v4c0 .704.288 1.056 1.072 1.056.192 0 .464-.032.592-.064v1.28c-.128.048-.512.144-1.024.144-1.312 0-2.144-.8-2.144-2.192v-4.224h-1.472v-1.36h.416c.832 0 1.184-.512 1.184-1.184v-1.248h1.376Zm10.842 3.584c-1.216 0-2.336.896-2.336 2.688 0 1.76 1.104 2.704 2.352 2.704 1.44 0 1.968-.976 2.144-1.584l1.328.576c-.368 1.104-1.472 2.4-3.472 2.4-2.24 0-3.888-1.76-3.888-4.096 0-2.4 1.68-4.08 3.872-4.08 2.048 0 3.104 1.28 3.424 2.448l-1.36.576c-.192-.752-.752-1.632-2.064-1.632Zm8.689 5.44c1.28 0 2.4-.96 2.4-2.752 0-1.776-1.12-2.736-2.4-2.736-1.28 0-2.4.96-2.4 2.736 0 1.792 1.12 2.752 2.4 2.752Zm0-6.832c2.304 0 3.936 1.744 3.936 4.08 0 2.352-1.632 4.096-3.936 4.096-2.304 0-3.936-1.744-3.936-4.096 0-2.336 1.632-4.08 3.936-4.08Zm7.361 3.488V387h-1.504v-7.696h1.472v1.104c.56-.96 1.472-1.328 2.368-1.328 1.84 0 2.752 1.328 2.752 3.04V387h-1.504v-4.624c0-1.072-.448-1.936-1.792-1.936-1.184 0-1.792.944-1.792 2.112Zm9.467-5.68v2.432h1.664v1.36h-1.664v4c0 .704.288 1.056 1.072 1.056.192 0 .464-.032.592-.064v1.28c-.128.048-.512.144-1.024.144-1.312 0-2.144-.8-2.144-2.192v-4.224h-1.472v-1.36h.416c.832 0 1.184-.512 1.184-1.184v-1.248h1.376Zm7.723 2.352v1.6a4.694 4.694 0 0 0-.656-.048c-1.264 0-2.112.672-2.112 2.368V387h-1.504v-7.696h1.472v1.344c.56-1.184 1.52-1.472 2.304-1.472.208 0 .416.032.496.048Zm1.029 5.712c0-1.376 1.008-2.144 2.336-2.336l2.08-.304c.464-.064.592-.304.592-.576 0-.752-.496-1.376-1.664-1.376-1.056 0-1.648.656-1.744 1.552l-1.44-.336c.16-1.472 1.488-2.496 3.152-2.496 2.304 0 3.2 1.312 3.2 2.816v3.856c0 .672.064 1.072.096 1.264h-1.472c-.032-.192-.08-.48-.08-1.04-.336.544-1.104 1.28-2.48 1.28-1.568 0-2.576-1.088-2.576-2.304Zm2.784 1.04c1.232 0 2.224-.592 2.224-2.272v-.352l-2.352.352c-.64.096-1.12.464-1.12 1.152 0 .576.48 1.12 1.248 1.12Zm9.463-5.52c-1.216 0-2.336.896-2.336 2.688 0 1.76 1.104 2.704 2.352 2.704 1.44 0 1.968-.976 2.144-1.584l1.328.576c-.368 1.104-1.472 2.4-3.472 2.4-2.24 0-3.888-1.76-3.888-4.096 0-2.4 1.68-4.08 3.872-4.08 2.048 0 3.104 1.28 3.424 2.448l-1.36.576c-.192-.752-.752-1.632-2.064-1.632Zm7.361-3.584v2.432h1.664v1.36h-1.664v4c0 .704.288 1.056 1.072 1.056.192 0 .464-.032.592-.064v1.28c-.128.048-.512.144-1.024.144-1.312 0-2.144-.8-2.144-2.192v-4.224h-1.472v-1.36h.416c.832 0 1.184-.512 1.184-1.184v-1.248h1.376Zm2.843 8.128 1.36-.48c.096.8.704 1.44 1.792 1.44.848 0 1.312-.48 1.312-1.024 0-.48-.352-.848-.992-.992l-1.312-.288c-1.2-.256-1.92-1.072-1.92-2.16 0-1.312 1.232-2.432 2.736-2.432 2.112 0 2.768 1.376 2.928 2.064l-1.328.496c-.064-.4-.384-1.28-1.6-1.28-.768 0-1.28.496-1.28 1.024 0 .464.288.8.88.928l1.248.272c1.392.304 2.128 1.152 2.128 2.288 0 1.088-.912 2.384-2.816 2.384-2.112 0-3.008-1.36-3.136-2.24Z"/><path stroke="#181818" stroke-opacity=".3" d="M99.297 203v156"/><path stroke="url(#a)" stroke-linejoin="round" stroke-width="1.595" d="M243.776 101.025 384.102 20l140.325 81.025-140.325 81.024-140.326-81.024Z"/><path stroke="url(#b)" stroke-linejoin="round" stroke-width="1.595" d="M243.776 254.975V101.027l140.326 81.025V336l-140.326-81.025Z"/><path stroke="url(#c)" stroke-linejoin="round" stroke-width="1.595" d="m384.102 336 140.325-81.025V101.027l-140.325 81.025V336Z"/><g clip-path="url(#d)"><rect width="240" height="240" x="264.32" y="58" fill="url(#e)" rx="120"/><path stroke="#fff" stroke-linejoin="round" stroke-width="1.595" d="M242 100.05 384.101 18l142.102 82.05-142.102 82.05L242 100.05ZM242 255.949V100.053l142.101 82.05V338L242 255.949ZM384.102 338l142.101-82.051V100.053l-142.101 82.05V338Z"/></g><path fill="#000" d="M271.597 387h-1.6v-11.344h1.6V387Zm7.936.24c-2.928 0-5.632-2.128-5.632-5.92s2.816-5.904 5.632-5.904c2.592 0 4.416 1.408 4.992 3.6l-1.456.512c-.432-1.712-1.68-2.672-3.536-2.672-2.064 0-4.032 1.504-4.032 4.464 0 2.96 1.968 4.48 4.032 4.48 1.936 0 3.152-1.168 3.616-2.72l1.392.512c-.608 2.128-2.4 3.648-5.008 3.648Zm8.641-6.288h2.272c1.36 0 2.192-.752 2.192-1.92 0-1.2-.832-1.968-2.192-1.968h-2.272v3.888Zm2.56 1.408h-2.56V387h-1.568v-11.344h4.128c2.096 0 3.504 1.456 3.504 3.36 0 1.92-1.408 3.344-3.504 3.344Zm4.985-5.856c0-.528.464-.992 1.088-.992.64 0 1.216.48 1.216 1.408 0 1.984-1.28 2.8-2.208 2.912v-.768c.72-.16 1.216-.896 1.232-1.616a.602.602 0 0 1-.32.08c-.56 0-1.008-.384-1.008-1.024Zm3.272 8.496 1.36-.48c.096.8.704 1.44 1.792 1.44.848 0 1.312-.48 1.312-1.024 0-.48-.352-.848-.992-.992l-1.312-.288c-1.2-.256-1.92-1.072-1.92-2.16 0-1.312 1.232-2.432 2.736-2.432 2.112 0 2.768 1.376 2.928 2.064l-1.328.496c-.064-.4-.384-1.28-1.6-1.28-.768 0-1.28.496-1.28 1.024 0 .464.288.8.88.928l1.248.272c1.392.304 2.128 1.152 2.128 2.288 0 1.088-.912 2.384-2.816 2.384-2.112 0-3.008-1.36-3.136-2.24Zm21.552 2h-1.632l-6.128-9.248V387h-1.568v-11.344h2.096l5.664 8.704v-8.704h1.568V387Zm3.659-4.64h4.208c-.032-1.104-.752-1.968-2.112-1.968-1.264 0-2.032.976-2.096 1.968Zm4.432 2 1.296.448c-.432 1.36-1.664 2.432-3.456 2.432-2.064 0-3.872-1.504-3.872-4.112 0-2.416 1.744-4.064 3.68-4.064 2.368 0 3.696 1.632 3.696 4.032 0 .192-.016.384-.032.48h-5.792c.032 1.376 1.024 2.336 2.32 2.336 1.248 0 1.872-.688 2.16-1.552Zm2.084 2.64 2.864-3.92-2.768-3.776h1.824l1.888 2.704 1.856-2.704h1.776l-2.736 3.776c.464.624 2.368 3.296 2.832 3.92h-1.808l-1.984-2.832L332.51 387h-1.792Zm11.133-10.128v2.432h1.664v1.36h-1.664v4c0 .704.288 1.056 1.072 1.056.192 0 .464-.032.592-.064v1.28c-.128.048-.512.144-1.024.144-1.312 0-2.144-.8-2.144-2.192v-4.224h-1.472v-1.36h.416c.832 0 1.184-.512 1.184-1.184v-1.248h1.376Zm7.643 6.192h-4.336v-1.312h4.336v1.312Zm1.78 4.352 1.456-.336c.112 1.072.928 1.888 2.096 1.888 1.616 0 2.352-.832 2.352-2.496v-1.104c-.368.704-1.2 1.264-2.352 1.264-2.048 0-3.536-1.552-3.536-3.728 0-2.08 1.424-3.744 3.536-3.744 1.184 0 1.984.448 2.368 1.216v-1.072h1.488v7.12c0 1.952-.96 3.856-3.856 3.856-1.92 0-3.36-1.216-3.552-2.864Zm3.776-2.048c1.296 0 2.192-.976 2.192-2.464s-.896-2.464-2.192-2.464c-1.328 0-2.224.976-2.224 2.464 0 1.504.864 2.464 2.224 2.464Zm7.152-3.008h4.208c-.032-1.104-.752-1.968-2.112-1.968-1.264 0-2.032.976-2.096 1.968Zm4.432 2 1.296.448c-.432 1.36-1.664 2.432-3.456 2.432-2.064 0-3.872-1.504-3.872-4.112 0-2.416 1.744-4.064 3.68-4.064 2.368 0 3.696 1.632 3.696 4.032 0 .192-.016.384-.032.48h-5.792c.032 1.376 1.024 2.336 2.32 2.336 1.248 0 1.872-.688 2.16-1.552Zm4.734-1.808V387h-1.504v-7.696h1.472v1.104c.56-.96 1.472-1.328 2.368-1.328 1.84 0 2.752 1.328 2.752 3.04V387h-1.504v-4.624c0-1.072-.448-1.936-1.792-1.936-1.184 0-1.792.944-1.792 2.112Zm18.889-4.32-1.408.496c-.128-.816-.816-1.936-2.4-1.936-1.28 0-2.192.832-2.192 1.888 0 .816.496 1.44 1.456 1.648l1.696.368c1.888.416 2.944 1.6 2.944 3.184 0 1.76-1.504 3.36-3.92 3.36-2.736 0-4.032-1.76-4.24-3.376l1.504-.48c.112 1.264 1.008 2.432 2.72 2.432 1.568 0 2.336-.816 2.336-1.808 0-.816-.56-1.52-1.696-1.76l-1.616-.352c-1.616-.352-2.768-1.408-2.768-3.104 0-1.776 1.648-3.376 3.744-3.376 2.56 0 3.584 1.584 3.84 2.816Zm3.439 8.768h-1.488v-7.696h1.44v1.024c.48-.848 1.44-1.248 2.336-1.248.96 0 1.888.464 2.304 1.456.608-1.104 1.6-1.456 2.576-1.456 1.344 0 2.656.912 2.656 2.928V387h-1.488v-4.832c0-1.008-.496-1.76-1.632-1.76-1.056 0-1.776.832-1.776 1.936V387h-1.504v-4.832c0-.992-.48-1.76-1.632-1.76-1.072 0-1.792.8-1.792 1.952V387Zm11.656-2.064c0-1.376 1.008-2.144 2.336-2.336l2.08-.304c.464-.064.592-.304.592-.576 0-.752-.496-1.376-1.664-1.376-1.056 0-1.648.656-1.744 1.552l-1.44-.336c.16-1.472 1.488-2.496 3.152-2.496 2.304 0 3.2 1.312 3.2 2.816v3.856c0 .672.064 1.072.096 1.264h-1.472c-.032-.192-.08-.48-.08-1.04-.336.544-1.104 1.28-2.48 1.28-1.568 0-2.576-1.088-2.576-2.304Zm2.784 1.04c1.232 0 2.224-.592 2.224-2.272v-.352l-2.352.352c-.64.096-1.12.464-1.12 1.152 0 .576.48 1.12 1.248 1.12Zm10.375-6.752v1.6a4.694 4.694 0 0 0-.656-.048c-1.264 0-2.112.672-2.112 2.368V387h-1.504v-7.696h1.472v1.344c.56-1.184 1.52-1.472 2.304-1.472.208 0 .416.032.496.048Zm3.637-2.352v2.432h1.664v1.36h-1.664v4c0 .704.288 1.056 1.072 1.056.192 0 .464-.032.592-.064v1.28c-.128.048-.512.144-1.024.144-1.312 0-2.144-.8-2.144-2.192v-4.224h-1.472v-1.36h.416c.832 0 1.184-.512 1.184-1.184v-1.248h1.376Zm12.682 10.368c-2.928 0-5.632-2.128-5.632-5.92s2.816-5.904 5.632-5.904c2.592 0 4.416 1.408 4.992 3.6l-1.456.512c-.432-1.712-1.68-2.672-3.536-2.672-2.064 0-4.032 1.504-4.032 4.464 0 2.96 1.968 4.48 4.032 4.48 1.936 0 3.152-1.168 3.616-2.72l1.392.512c-.608 2.128-2.4 3.648-5.008 3.648Zm10.193-1.344c1.28 0 2.4-.96 2.4-2.752 0-1.776-1.12-2.736-2.4-2.736-1.28 0-2.4.96-2.4 2.736 0 1.792 1.12 2.752 2.4 2.752Zm0-6.832c2.304 0 3.936 1.744 3.936 4.08 0 2.352-1.632 4.096-3.936 4.096-2.304 0-3.936-1.744-3.936-4.096 0-2.336 1.632-4.08 3.936-4.08Zm7.361 3.488V387h-1.504v-7.696h1.472v1.104c.56-.96 1.472-1.328 2.368-1.328 1.84 0 2.752 1.328 2.752 3.04V387h-1.504v-4.624c0-1.072-.448-1.936-1.792-1.936-1.184 0-1.792.944-1.792 2.112Zm9.467-5.68v2.432h1.664v1.36h-1.664v4c0 .704.288 1.056 1.072 1.056.192 0 .464-.032.592-.064v1.28c-.128.048-.512.144-1.024.144-1.312 0-2.144-.8-2.144-2.192v-4.224h-1.472v-1.36h.416c.832 0 1.184-.512 1.184-1.184v-1.248h1.376Zm7.723 2.352v1.6a4.694 4.694 0 0 0-.656-.048c-1.264 0-2.112.672-2.112 2.368V387h-1.504v-7.696h1.472v1.344c.56-1.184 1.52-1.472 2.304-1.472.208 0 .416.032.496.048Zm1.028 5.712c0-1.376 1.008-2.144 2.336-2.336l2.08-.304c.464-.064.592-.304.592-.576 0-.752-.496-1.376-1.664-1.376-1.056 0-1.648.656-1.744 1.552l-1.44-.336c.16-1.472 1.488-2.496 3.152-2.496 2.304 0 3.2 1.312 3.2 2.816v3.856c0 .672.064 1.072.096 1.264h-1.472c-.032-.192-.08-.48-.08-1.04-.336.544-1.104 1.28-2.48 1.28-1.568 0-2.576-1.088-2.576-2.304Zm2.784 1.04c1.232 0 2.224-.592 2.224-2.272v-.352l-2.352.352c-.64.096-1.12.464-1.12 1.152 0 .576.48 1.12 1.248 1.12Zm9.463-5.52c-1.216 0-2.336.896-2.336 2.688 0 1.76 1.104 2.704 2.352 2.704 1.44 0 1.968-.976 2.144-1.584l1.328.576c-.368 1.104-1.472 2.4-3.472 2.4-2.24 0-3.888-1.76-3.888-4.096 0-2.4 1.68-4.08 3.872-4.08 2.048 0 3.104 1.28 3.424 2.448l-1.36.576c-.192-.752-.752-1.632-2.064-1.632Zm7.361-3.584v2.432h1.664v1.36h-1.664v4c0 .704.288 1.056 1.072 1.056.192 0 .464-.032.592-.064v1.28c-.128.048-.512.144-1.024.144-1.312 0-2.144-.8-2.144-2.192v-4.224h-1.472v-1.36h.416c.832 0 1.184-.512 1.184-1.184v-1.248h1.376Zm2.843 8.128 1.36-.48c.096.8.704 1.44 1.792 1.44.848 0 1.312-.48 1.312-1.024 0-.48-.352-.848-.992-.992l-1.312-.288c-1.2-.256-1.92-1.072-1.92-2.16 0-1.312 1.232-2.432 2.736-2.432 2.112 0 2.768 1.376 2.928 2.064l-1.328.496c-.064-.4-.384-1.28-1.6-1.28-.768 0-1.28.496-1.28 1.024 0 .464.288.8.88.928l1.248.272c1.392.304 2.128 1.152 2.128 2.288 0 1.088-.912 2.384-2.816 2.384-2.112 0-3.008-1.36-3.136-2.24Z"/><defs><linearGradient id="a" x1="451.217" x2="348.22" y1="145.769" y2="-4.448" gradientUnits="userSpaceOnUse"><stop offset=".21" stop-color="#ED1E79"/><stop offset="1" stop-color="#522785"/></linearGradient><linearGradient id="b" x1="347.497" x2="218.964" y1="283.393" y2="218.752" gradientUnits="userSpaceOnUse"><stop offset=".21" stop-color="#ED1E79"/><stop offset="1" stop-color="#522785"/></linearGradient><linearGradient id="c" x1="487.822" x2="359.289" y1="283.393" y2="218.752" gradientUnits="userSpaceOnUse"><stop offset=".21" stop-color="#ED1E79"/><stop offset="1" stop-color="#522785"/></linearGradient><radialGradient id="e" cx="0" cy="0" r="1" gradientTransform="matrix(133.3333 166.86838 -224.5401 179.41489 316.037 85.879)" gradientUnits="userSpaceOnUse"><stop offset=".21" stop-color="#ED1E79"/><stop offset="1" stop-color="#522785"/></radialGradient><clipPath id="d"><rect width="240" height="240" x="264.32" y="58" fill="#fff" rx="120"/></clipPath></defs></svg>