<svg width="1226" height="376" viewBox="0 0 1226 376" fill="none" xmlns="http://www.w3.org/2000/svg">
<path d="M498.846 362.112H495.054V372H493.486V362.112H489.694V360.656H498.846V362.112ZM502.832 364.224V365.824C502.608 365.792 502.384 365.776 502.176 365.776C500.912 365.776 500.064 366.448 500.064 368.144V372H498.56V364.304H500.032V365.648C500.592 364.464 501.552 364.176 502.336 364.176C502.544 364.176 502.752 364.208 502.832 364.224ZM503.86 369.936C503.86 368.56 504.868 367.792 506.196 367.6L508.276 367.296C508.74 367.232 508.868 366.992 508.868 366.72C508.868 365.968 508.372 365.344 507.204 365.344C506.148 365.344 505.556 366 505.46 366.896L504.02 366.56C504.18 365.088 505.508 364.064 507.172 364.064C509.476 364.064 510.372 365.376 510.372 366.88V370.736C510.372 371.408 510.436 371.808 510.468 372H508.996C508.964 371.808 508.916 371.52 508.916 370.96C508.58 371.504 507.812 372.24 506.436 372.24C504.868 372.24 503.86 371.152 503.86 369.936ZM506.644 370.976C507.876 370.976 508.868 370.384 508.868 368.704V368.352L506.516 368.704C505.876 368.8 505.396 369.168 505.396 369.856C505.396 370.432 505.876 370.976 506.644 370.976ZM513.787 368.128C513.787 369.712 514.603 370.88 516.043 370.88C517.419 370.88 518.267 369.68 518.267 368.096C518.267 366.512 517.435 365.424 516.059 365.424C514.683 365.424 513.787 366.544 513.787 368.128ZM518.283 370.96V370.832C517.915 371.568 517.099 372.208 515.899 372.208C513.643 372.208 512.251 370.416 512.251 368.128C512.251 365.952 513.723 364.096 515.899 364.096C517.259 364.096 517.995 364.768 518.251 365.392V360.416H519.739V370.576C519.739 371.312 519.803 371.872 519.819 372H518.363C518.331 371.824 518.283 371.424 518.283 370.96ZM523.673 372H522.185V364.304H523.673V372ZM521.849 361.392C521.849 360.784 522.329 360.304 522.921 360.304C523.529 360.304 524.009 360.784 524.009 361.392C524.009 361.984 523.529 362.464 522.921 362.464C522.329 362.464 521.849 361.984 521.849 361.392ZM528.203 361.872V364.304H529.867V365.664H528.203V369.664C528.203 370.368 528.491 370.72 529.275 370.72C529.467 370.72 529.739 370.688 529.867 370.656V371.936C529.739 371.984 529.355 372.08 528.843 372.08C527.531 372.08 526.699 371.28 526.699 369.888V365.664H525.227V364.304H525.643C526.475 364.304 526.827 363.792 526.827 363.12V361.872H528.203ZM533.142 372H531.654V364.304H533.142V372ZM531.318 361.392C531.318 360.784 531.798 360.304 532.39 360.304C532.998 360.304 533.478 360.784 533.478 361.392C533.478 361.984 532.998 362.464 532.39 362.464C531.798 362.464 531.318 361.984 531.318 361.392ZM538.999 370.896C540.279 370.896 541.399 369.936 541.399 368.144C541.399 366.368 540.279 365.408 538.999 365.408C537.719 365.408 536.599 366.368 536.599 368.144C536.599 369.936 537.719 370.896 538.999 370.896ZM538.999 364.064C541.303 364.064 542.935 365.808 542.935 368.144C542.935 370.496 541.303 372.24 538.999 372.24C536.695 372.24 535.063 370.496 535.063 368.144C535.063 365.808 536.695 364.064 538.999 364.064ZM546.361 367.552V372H544.857V364.304H546.329V365.408C546.889 364.448 547.801 364.08 548.697 364.08C550.537 364.08 551.449 365.408 551.449 367.12V372H549.945V367.376C549.945 366.304 549.497 365.44 548.153 365.44C546.969 365.44 546.361 366.384 546.361 367.552ZM553.282 369.936C553.282 368.56 554.29 367.792 555.618 367.6L557.698 367.296C558.162 367.232 558.29 366.992 558.29 366.72C558.29 365.968 557.794 365.344 556.626 365.344C555.57 365.344 554.978 366 554.882 366.896L553.442 366.56C553.602 365.088 554.93 364.064 556.594 364.064C558.898 364.064 559.794 365.376 559.794 366.88V370.736C559.794 371.408 559.858 371.808 559.89 372H558.418C558.386 371.808 558.338 371.52 558.338 370.96C558.002 371.504 557.234 372.24 555.858 372.24C554.29 372.24 553.282 371.152 553.282 369.936ZM556.066 370.976C557.298 370.976 558.29 370.384 558.29 368.704V368.352L555.938 368.704C555.298 368.8 554.818 369.168 554.818 369.856C554.818 370.432 555.298 370.976 556.066 370.976ZM563.673 372H562.169V360.416H563.673V372ZM569.53 370L570.89 369.52C570.986 370.32 571.594 370.96 572.682 370.96C573.53 370.96 573.994 370.48 573.994 369.936C573.994 369.456 573.642 369.088 573.002 368.944L571.69 368.656C570.49 368.4 569.77 367.584 569.77 366.496C569.77 365.184 571.002 364.064 572.506 364.064C574.618 364.064 575.274 365.44 575.434 366.128L574.106 366.624C574.042 366.224 573.722 365.344 572.506 365.344C571.738 365.344 571.226 365.84 571.226 366.368C571.226 366.832 571.514 367.168 572.106 367.296L573.354 367.568C574.746 367.872 575.482 368.72 575.482 369.856C575.482 370.944 574.57 372.24 572.666 372.24C570.554 372.24 569.658 370.88 569.53 370ZM578.907 372H577.419V364.304H578.859V365.328C579.339 364.48 580.299 364.08 581.195 364.08C582.155 364.08 583.083 364.544 583.499 365.536C584.107 364.432 585.099 364.08 586.075 364.08C587.419 364.08 588.731 364.992 588.731 367.008V372H587.243V367.168C587.243 366.16 586.747 365.408 585.611 365.408C584.555 365.408 583.835 366.24 583.835 367.344V372H582.331V367.168C582.331 366.176 581.851 365.408 580.699 365.408C579.627 365.408 578.907 366.208 578.907 367.36V372ZM590.563 369.936C590.563 368.56 591.571 367.792 592.899 367.6L594.979 367.296C595.443 367.232 595.571 366.992 595.571 366.72C595.571 365.968 595.075 365.344 593.907 365.344C592.851 365.344 592.259 366 592.163 366.896L590.723 366.56C590.883 365.088 592.211 364.064 593.875 364.064C596.179 364.064 597.075 365.376 597.075 366.88V370.736C597.075 371.408 597.139 371.808 597.171 372H595.699C595.667 371.808 595.619 371.52 595.619 370.96C595.283 371.504 594.515 372.24 593.139 372.24C591.571 372.24 590.563 371.152 590.563 369.936ZM593.347 370.976C594.579 370.976 595.571 370.384 595.571 368.704V368.352L593.219 368.704C592.579 368.8 592.099 369.168 592.099 369.856C592.099 370.432 592.579 370.976 593.347 370.976ZM603.722 364.224V365.824C603.498 365.792 603.274 365.776 603.066 365.776C601.802 365.776 600.954 366.448 600.954 368.144V372H599.45V364.304H600.922V365.648C601.482 364.464 602.442 364.176 603.226 364.176C603.434 364.176 603.642 364.208 603.722 364.224ZM607.359 361.872V364.304H609.023V365.664H607.359V369.664C607.359 370.368 607.647 370.72 608.431 370.72C608.623 370.72 608.895 370.688 609.023 370.656V371.936C608.895 371.984 608.511 372.08 607.999 372.08C606.687 372.08 605.855 371.28 605.855 369.888V365.664H604.383V364.304H604.799C605.631 364.304 605.983 363.792 605.983 363.12V361.872H607.359ZM618.201 365.456C616.985 365.456 615.865 366.352 615.865 368.144C615.865 369.904 616.969 370.848 618.217 370.848C619.657 370.848 620.185 369.872 620.361 369.264L621.689 369.84C621.321 370.944 620.217 372.24 618.217 372.24C615.977 372.24 614.329 370.48 614.329 368.144C614.329 365.744 616.009 364.064 618.201 364.064C620.249 364.064 621.305 365.344 621.625 366.512L620.265 367.088C620.073 366.336 619.513 365.456 618.201 365.456ZM626.89 370.896C628.17 370.896 629.29 369.936 629.29 368.144C629.29 366.368 628.17 365.408 626.89 365.408C625.61 365.408 624.49 366.368 624.49 368.144C624.49 369.936 625.61 370.896 626.89 370.896ZM626.89 364.064C629.194 364.064 630.826 365.808 630.826 368.144C630.826 370.496 629.194 372.24 626.89 372.24C624.586 372.24 622.954 370.496 622.954 368.144C622.954 365.808 624.586 364.064 626.89 364.064ZM634.251 367.552V372H632.747V364.304H634.219V365.408C634.779 364.448 635.691 364.08 636.587 364.08C638.427 364.08 639.339 365.408 639.339 367.12V372H637.835V367.376C637.835 366.304 637.387 365.44 636.043 365.44C634.859 365.44 634.251 366.384 634.251 367.552ZM643.718 361.872V364.304H645.382V365.664H643.718V369.664C643.718 370.368 644.006 370.72 644.79 370.72C644.982 370.72 645.254 370.688 645.382 370.656V371.936C645.254 371.984 644.87 372.08 644.358 372.08C643.046 372.08 642.214 371.28 642.214 369.888V365.664H640.742V364.304H641.158C641.99 364.304 642.342 363.792 642.342 363.12V361.872H643.718ZM651.441 364.224V365.824C651.217 365.792 650.993 365.776 650.785 365.776C649.521 365.776 648.673 366.448 648.673 368.144V372H647.169V364.304H648.641V365.648C649.201 364.464 650.161 364.176 650.945 364.176C651.153 364.176 651.361 364.208 651.441 364.224ZM652.47 369.936C652.47 368.56 653.478 367.792 654.806 367.6L656.886 367.296C657.35 367.232 657.478 366.992 657.478 366.72C657.478 365.968 656.982 365.344 655.814 365.344C654.758 365.344 654.166 366 654.07 366.896L652.63 366.56C652.79 365.088 654.118 364.064 655.782 364.064C658.086 364.064 658.982 365.376 658.982 366.88V370.736C658.982 371.408 659.046 371.808 659.078 372H657.606C657.574 371.808 657.526 371.52 657.526 370.96C657.19 371.504 656.422 372.24 655.046 372.24C653.478 372.24 652.47 371.152 652.47 369.936ZM655.254 370.976C656.486 370.976 657.478 370.384 657.478 368.704V368.352L655.126 368.704C654.486 368.8 654.006 369.168 654.006 369.856C654.006 370.432 654.486 370.976 655.254 370.976ZM664.717 365.456C663.501 365.456 662.381 366.352 662.381 368.144C662.381 369.904 663.485 370.848 664.733 370.848C666.173 370.848 666.701 369.872 666.877 369.264L668.205 369.84C667.837 370.944 666.733 372.24 664.733 372.24C662.493 372.24 660.845 370.48 660.845 368.144C660.845 365.744 662.525 364.064 664.717 364.064C666.765 364.064 667.821 365.344 668.141 366.512L666.781 367.088C666.589 366.336 666.029 365.456 664.717 365.456ZM672.078 361.872V364.304H673.742V365.664H672.078V369.664C672.078 370.368 672.366 370.72 673.15 370.72C673.342 370.72 673.614 370.688 673.742 370.656V371.936C673.614 371.984 673.23 372.08 672.718 372.08C671.406 372.08 670.574 371.28 670.574 369.888V365.664H669.102V364.304H669.518C670.35 364.304 670.702 363.792 670.702 363.12V361.872H672.078ZM674.921 370L676.281 369.52C676.377 370.32 676.985 370.96 678.073 370.96C678.921 370.96 679.385 370.48 679.385 369.936C679.385 369.456 679.033 369.088 678.393 368.944L677.081 368.656C675.881 368.4 675.161 367.584 675.161 366.496C675.161 365.184 676.393 364.064 677.897 364.064C680.009 364.064 680.665 365.44 680.825 366.128L679.497 366.624C679.433 366.224 679.113 365.344 677.897 365.344C677.129 365.344 676.617 365.84 676.617 366.368C676.617 366.832 676.905 367.168 677.497 367.296L678.745 367.568C680.137 367.872 680.873 368.72 680.873 369.856C680.873 370.944 679.961 372.24 678.057 372.24C675.945 372.24 675.049 370.88 674.921 370Z" fill="#181818" fill-opacity="0.6"/>
<path d="M799.495 372H797.895V360.656H799.495V372ZM807.432 372.24C804.504 372.24 801.8 370.112 801.8 366.32C801.8 362.528 804.616 360.416 807.432 360.416C810.024 360.416 811.848 361.824 812.424 364.016L810.968 364.528C810.536 362.816 809.288 361.856 807.432 361.856C805.368 361.856 803.4 363.36 803.4 366.32C803.4 369.28 805.368 370.8 807.432 370.8C809.368 370.8 810.584 369.632 811.048 368.08L812.44 368.592C811.832 370.72 810.04 372.24 807.432 372.24ZM816.072 365.952H818.344C819.704 365.952 820.536 365.2 820.536 364.032C820.536 362.832 819.704 362.064 818.344 362.064H816.072V365.952ZM818.632 367.36H816.072V372H814.504V360.656H818.632C820.728 360.656 822.136 362.112 822.136 364.016C822.136 365.936 820.728 367.36 818.632 367.36ZM823.617 361.504C823.617 360.976 824.081 360.512 824.705 360.512C825.345 360.512 825.921 360.992 825.921 361.92C825.921 363.904 824.641 364.72 823.713 364.832V364.064C824.433 363.904 824.929 363.168 824.945 362.448C824.897 362.48 824.785 362.528 824.625 362.528C824.065 362.528 823.617 362.144 823.617 361.504ZM826.889 370L828.249 369.52C828.345 370.32 828.953 370.96 830.041 370.96C830.889 370.96 831.353 370.48 831.353 369.936C831.353 369.456 831.001 369.088 830.361 368.944L829.049 368.656C827.849 368.4 827.129 367.584 827.129 366.496C827.129 365.184 828.361 364.064 829.865 364.064C831.977 364.064 832.633 365.44 832.793 366.128L831.465 366.624C831.401 366.224 831.081 365.344 829.865 365.344C829.097 365.344 828.585 365.84 828.585 366.368C828.585 366.832 828.873 367.168 829.465 367.296L830.713 367.568C832.105 367.872 832.841 368.72 832.841 369.856C832.841 370.944 831.929 372.24 830.025 372.24C827.913 372.24 827.017 370.88 826.889 370ZM848.442 372H846.81L840.682 362.752V372H839.114V360.656H841.21L846.874 369.36V360.656H848.442V372ZM852.101 367.36H856.309C856.277 366.256 855.557 365.392 854.197 365.392C852.933 365.392 852.165 366.368 852.101 367.36ZM856.533 369.36L857.829 369.808C857.397 371.168 856.165 372.24 854.373 372.24C852.309 372.24 850.501 370.736 850.501 368.128C850.501 365.712 852.245 364.064 854.181 364.064C856.549 364.064 857.877 365.696 857.877 368.096C857.877 368.288 857.861 368.48 857.845 368.576H852.053C852.085 369.952 853.077 370.912 854.373 370.912C855.621 370.912 856.245 370.224 856.533 369.36ZM858.616 372L861.48 368.08L858.712 364.304H860.536L862.424 367.008L864.28 364.304H866.056L863.32 368.08C863.784 368.704 865.688 371.376 866.152 372H864.344L862.36 369.168L860.408 372H858.616ZM869.75 361.872V364.304H871.414V365.664H869.75V369.664C869.75 370.368 870.038 370.72 870.822 370.72C871.014 370.72 871.286 370.688 871.414 370.656V371.936C871.286 371.984 870.902 372.08 870.39 372.08C869.078 372.08 868.246 371.28 868.246 369.888V365.664H866.774V364.304H867.19C868.022 364.304 868.374 363.792 868.374 363.12V361.872H869.75ZM877.392 368.064H873.056V366.752H877.392V368.064ZM879.173 372.416L880.629 372.08C880.741 373.152 881.557 373.968 882.725 373.968C884.341 373.968 885.077 373.136 885.077 371.472V370.368C884.709 371.072 883.877 371.632 882.725 371.632C880.677 371.632 879.189 370.08 879.189 367.904C879.189 365.824 880.613 364.16 882.725 364.16C883.909 364.16 884.709 364.608 885.093 365.376V364.304H886.581V371.424C886.581 373.376 885.621 375.28 882.725 375.28C880.805 375.28 879.365 374.064 879.173 372.416ZM882.949 370.368C884.245 370.368 885.141 369.392 885.141 367.904C885.141 366.416 884.245 365.44 882.949 365.44C881.621 365.44 880.725 366.416 880.725 367.904C880.725 369.408 881.589 370.368 882.949 370.368ZM890.101 367.36H894.309C894.277 366.256 893.557 365.392 892.197 365.392C890.933 365.392 890.165 366.368 890.101 367.36ZM894.533 369.36L895.829 369.808C895.397 371.168 894.165 372.24 892.373 372.24C890.309 372.24 888.501 370.736 888.501 368.128C888.501 365.712 890.245 364.064 892.181 364.064C894.549 364.064 895.877 365.696 895.877 368.096C895.877 368.288 895.861 368.48 895.845 368.576H890.053C890.085 369.952 891.077 370.912 892.373 370.912C893.621 370.912 894.245 370.224 894.533 369.36ZM899.267 367.552V372H897.763V364.304H899.235V365.408C899.795 364.448 900.707 364.08 901.603 364.08C903.443 364.08 904.355 365.408 904.355 367.12V372H902.851V367.376C902.851 366.304 902.403 365.44 901.059 365.44C899.875 365.44 899.267 366.384 899.267 367.552ZM918.156 363.232L916.748 363.728C916.62 362.912 915.932 361.792 914.348 361.792C913.068 361.792 912.156 362.624 912.156 363.68C912.156 364.496 912.652 365.12 913.612 365.328L915.308 365.696C917.196 366.112 918.252 367.296 918.252 368.88C918.252 370.64 916.748 372.24 914.332 372.24C911.596 372.24 910.3 370.48 910.092 368.864L911.596 368.384C911.708 369.648 912.604 370.816 914.316 370.816C915.884 370.816 916.652 370 916.652 369.008C916.652 368.192 916.092 367.488 914.956 367.248L913.34 366.896C911.724 366.544 910.572 365.488 910.572 363.792C910.572 362.016 912.22 360.416 914.316 360.416C916.876 360.416 917.9 362 918.156 363.232ZM921.595 372H920.107V364.304H921.547V365.328C922.027 364.48 922.987 364.08 923.883 364.08C924.843 364.08 925.771 364.544 926.187 365.536C926.795 364.432 927.787 364.08 928.763 364.08C930.107 364.08 931.419 364.992 931.419 367.008V372H929.931V367.168C929.931 366.16 929.435 365.408 928.299 365.408C927.243 365.408 926.523 366.24 926.523 367.344V372H925.019V367.168C925.019 366.176 924.539 365.408 923.387 365.408C922.315 365.408 921.595 366.208 921.595 367.36V372ZM933.251 369.936C933.251 368.56 934.259 367.792 935.587 367.6L937.667 367.296C938.131 367.232 938.259 366.992 938.259 366.72C938.259 365.968 937.763 365.344 936.595 365.344C935.539 365.344 934.947 366 934.851 366.896L933.411 366.56C933.571 365.088 934.899 364.064 936.563 364.064C938.867 364.064 939.763 365.376 939.763 366.88V370.736C939.763 371.408 939.827 371.808 939.859 372H938.387C938.355 371.808 938.307 371.52 938.307 370.96C937.971 371.504 937.203 372.24 935.827 372.24C934.259 372.24 933.251 371.152 933.251 369.936ZM936.035 370.976C937.267 370.976 938.259 370.384 938.259 368.704V368.352L935.907 368.704C935.267 368.8 934.787 369.168 934.787 369.856C934.787 370.432 935.267 370.976 936.035 370.976ZM946.41 364.224V365.824C946.186 365.792 945.962 365.776 945.754 365.776C944.49 365.776 943.642 366.448 943.642 368.144V372H942.138V364.304H943.61V365.648C944.17 364.464 945.13 364.176 945.914 364.176C946.122 364.176 946.33 364.208 946.41 364.224ZM950.046 361.872V364.304H951.71V365.664H950.046V369.664C950.046 370.368 950.334 370.72 951.118 370.72C951.31 370.72 951.582 370.688 951.71 370.656V371.936C951.582 371.984 951.198 372.08 950.686 372.08C949.374 372.08 948.542 371.28 948.542 369.888V365.664H947.07V364.304H947.486C948.318 364.304 948.67 363.792 948.67 363.12V361.872H950.046ZM962.729 372.24C959.801 372.24 957.097 370.112 957.097 366.32C957.097 362.528 959.913 360.416 962.729 360.416C965.321 360.416 967.145 361.824 967.721 364.016L966.265 364.528C965.833 362.816 964.585 361.856 962.729 361.856C960.665 361.856 958.697 363.36 958.697 366.32C958.697 369.28 960.665 370.8 962.729 370.8C964.665 370.8 965.881 369.632 966.345 368.08L967.737 368.592C967.129 370.72 965.337 372.24 962.729 372.24ZM972.921 370.896C974.201 370.896 975.321 369.936 975.321 368.144C975.321 366.368 974.201 365.408 972.921 365.408C971.641 365.408 970.521 366.368 970.521 368.144C970.521 369.936 971.641 370.896 972.921 370.896ZM972.921 364.064C975.225 364.064 976.857 365.808 976.857 368.144C976.857 370.496 975.225 372.24 972.921 372.24C970.617 372.24 968.985 370.496 968.985 368.144C968.985 365.808 970.617 364.064 972.921 364.064ZM980.283 367.552V372H978.779V364.304H980.251V365.408C980.811 364.448 981.723 364.08 982.619 364.08C984.459 364.08 985.371 365.408 985.371 367.12V372H983.867V367.376C983.867 366.304 983.419 365.44 982.075 365.44C980.891 365.44 980.283 366.384 980.283 367.552ZM989.75 361.872V364.304H991.414V365.664H989.75V369.664C989.75 370.368 990.038 370.72 990.822 370.72C991.014 370.72 991.286 370.688 991.414 370.656V371.936C991.286 371.984 990.902 372.08 990.39 372.08C989.078 372.08 988.246 371.28 988.246 369.888V365.664H986.774V364.304H987.19C988.022 364.304 988.374 363.792 988.374 363.12V361.872H989.75ZM997.472 364.224V365.824C997.248 365.792 997.024 365.776 996.816 365.776C995.552 365.776 994.704 366.448 994.704 368.144V372H993.2V364.304H994.672V365.648C995.232 364.464 996.192 364.176 996.976 364.176C997.184 364.176 997.392 364.208 997.472 364.224ZM998.501 369.936C998.501 368.56 999.509 367.792 1000.84 367.6L1002.92 367.296C1003.38 367.232 1003.51 366.992 1003.51 366.72C1003.51 365.968 1003.01 365.344 1001.84 365.344C1000.79 365.344 1000.2 366 1000.1 366.896L998.661 366.56C998.821 365.088 1000.15 364.064 1001.81 364.064C1004.12 364.064 1005.01 365.376 1005.01 366.88V370.736C1005.01 371.408 1005.08 371.808 1005.11 372H1003.64C1003.6 371.808 1003.56 371.52 1003.56 370.96C1003.22 371.504 1002.45 372.24 1001.08 372.24C999.509 372.24 998.501 371.152 998.501 369.936ZM1001.28 370.976C1002.52 370.976 1003.51 370.384 1003.51 368.704V368.352L1001.16 368.704C1000.52 368.8 1000.04 369.168 1000.04 369.856C1000.04 370.432 1000.52 370.976 1001.28 370.976ZM1010.75 365.456C1009.53 365.456 1008.41 366.352 1008.41 368.144C1008.41 369.904 1009.52 370.848 1010.76 370.848C1012.2 370.848 1012.73 369.872 1012.91 369.264L1014.24 369.84C1013.87 370.944 1012.76 372.24 1010.76 372.24C1008.52 372.24 1006.88 370.48 1006.88 368.144C1006.88 365.744 1008.56 364.064 1010.75 364.064C1012.8 364.064 1013.85 365.344 1014.17 366.512L1012.81 367.088C1012.62 366.336 1012.06 365.456 1010.75 365.456ZM1018.11 361.872V364.304H1019.77V365.664H1018.11V369.664C1018.11 370.368 1018.4 370.72 1019.18 370.72C1019.37 370.72 1019.64 370.688 1019.77 370.656V371.936C1019.64 371.984 1019.26 372.08 1018.75 372.08C1017.44 372.08 1016.6 371.28 1016.6 369.888V365.664H1015.13V364.304H1015.55C1016.38 364.304 1016.73 363.792 1016.73 363.12V361.872H1018.11ZM1020.95 370L1022.31 369.52C1022.41 370.32 1023.02 370.96 1024.1 370.96C1024.95 370.96 1025.42 370.48 1025.42 369.936C1025.42 369.456 1025.06 369.088 1024.42 368.944L1023.11 368.656C1021.91 368.4 1021.19 367.584 1021.19 366.496C1021.19 365.184 1022.42 364.064 1023.93 364.064C1026.04 364.064 1026.7 365.44 1026.86 366.128L1025.53 366.624C1025.46 366.224 1025.14 365.344 1023.93 365.344C1023.16 365.344 1022.65 365.84 1022.65 366.368C1022.65 366.832 1022.94 367.168 1023.53 367.296L1024.78 367.568C1026.17 367.872 1026.9 368.72 1026.9 369.856C1026.9 370.944 1025.99 372.24 1024.09 372.24C1021.98 372.24 1021.08 370.88 1020.95 370Z" fill="black"/>
<path d="M770 83.0503L912.101 1L1054.2 83.0503L912.101 165.1L770 83.0503Z" stroke="url(#paint0_linear_17241_4748)" stroke-width="1.59544" stroke-linejoin="round"/>
<path d="M770 238.949V83.0527L912.101 165.103V321L770 238.949Z" stroke="url(#paint1_linear_17241_4748)" stroke-width="1.59544" stroke-linejoin="round"/>
<path d="M912.102 321L1054.2 238.949V83.0527L912.102 165.103V321Z" stroke="url(#paint2_linear_17241_4748)" stroke-width="1.59544" stroke-linejoin="round"/>
<g clip-path="url(#clip0_17241_4748)">
<rect x="792.32" y="41" width="240" height="240" rx="120" fill="url(#paint3_radial_17241_4748)"/>
<path d="M770 83.0503L912.101 1L1054.2 83.0503L912.101 165.1L770 83.0503Z" stroke="white" stroke-width="1.59544" stroke-linejoin="round"/>
<path d="M770 238.949V83.0527L912.101 165.103V321L770 238.949Z" stroke="white" stroke-width="1.59544" stroke-linejoin="round"/>
<path d="M912.102 321L1054.2 238.949V83.0527L912.102 165.103V321Z" stroke="white" stroke-width="1.59544" stroke-linejoin="round"/>
</g>
<path d="M585.566 160.858L574.433 154.43V166.643L585.566 173.072M585.566 160.858V173.072M585.566 160.858L596.699 154.43V166.643L585.566 173.072M574.433 154.428L585.566 148L596.699 154.428L585.566 160.856L574.433 154.428Z" stroke="#181818" stroke-opacity="0.3" stroke-width="2" stroke-linejoin="round"/>
<path d="M583.333 191C583.333 192.473 584.527 193.667 586 193.667C587.473 193.667 588.667 192.473 588.667 191C588.667 189.527 587.473 188.333 586 188.333C584.527 188.333 583.333 189.527 583.333 191ZM586.5 348.5V191H585.5V348.5H586.5Z" fill="#181818" fill-opacity="0.3"/>
<defs>
<linearGradient id="paint0_linear_17241_4748" x1="980.067" y1="128.361" x2="875.765" y2="-23.7578" gradientUnits="userSpaceOnUse">
<stop offset="0.21" stop-color="#ED1E79"/>
<stop offset="1" stop-color="#522785"/>
</linearGradient>
<linearGradient id="paint1_linear_17241_4748" x1="875.033" y1="267.727" x2="744.874" y2="202.268" gradientUnits="userSpaceOnUse">
<stop offset="0.21" stop-color="#ED1E79"/>
<stop offset="1" stop-color="#522785"/>
</linearGradient>
<linearGradient id="paint2_linear_17241_4748" x1="1017.13" y1="267.727" x2="886.975" y2="202.268" gradientUnits="userSpaceOnUse">
<stop offset="0.21" stop-color="#ED1E79"/>
<stop offset="1" stop-color="#522785"/>
</linearGradient>
<radialGradient id="paint3_radial_17241_4748" cx="0" cy="0" r="1" gradientUnits="userSpaceOnUse" gradientTransform="translate(844.037 68.8788) rotate(51.374) scale(213.595 287.416)">
<stop offset="0.21" stop-color="#ED1E79"/>
<stop offset="1" stop-color="#522785"/>
</radialGradient>
<clipPath id="clip0_17241_4748">
<rect x="792.32" y="41" width="240" height="240" rx="120" fill="white"/>
</clipPath>
</defs>
</svg>
