<svg width="436" height="434" viewBox="0 0 436 434" fill="none" xmlns="http://www.w3.org/2000/svg">
<path d="M2 55.8773L48.0214 44.2129C73.9328 37.6455 101.294 39.9 125.781 50.6201L131 52.905C158.411 64.9051 189.589 64.9051 217 52.905V52.905C244.411 40.9048 275.589 40.9048 303 52.905L308.219 55.1899C332.706 65.91 360.067 68.1644 385.979 61.597L432 49.9326" stroke="url(#paint0_linear_17517_59161)" stroke-width="1.98157" stroke-linecap="round" stroke-linejoin="round"/>
<path d="M2 79.6742L48.0214 68.0098C73.9328 61.4424 101.294 63.6969 125.781 74.417L131 76.7018C158.411 88.702 189.589 88.702 217 76.7018V76.7018C244.411 64.7017 275.589 64.7017 303 76.7018L308.219 78.9867C332.706 89.7068 360.067 91.9613 385.979 85.3939L432 73.7295" stroke="url(#paint1_linear_17517_59161)" stroke-width="1.98157" stroke-linecap="round" stroke-linejoin="round"/>
<path d="M2 103.471L48.0214 91.8067C73.9328 85.2393 101.294 87.4937 125.781 98.2138L131 100.499C158.411 112.499 189.589 112.499 217 100.499V100.499C244.411 88.4986 275.589 88.4986 303 100.499L308.219 102.784C332.706 113.504 360.067 115.758 385.979 109.191L432 97.5264" stroke="url(#paint2_linear_17517_59161)" stroke-width="1.98157" stroke-linecap="round" stroke-linejoin="round"/>
<path d="M2 127.27L48.0214 115.605C73.9328 109.038 101.294 111.293 125.781 122.013L131 124.298C158.411 136.298 189.589 136.298 217 124.298V124.298C244.411 112.297 275.589 112.297 303 124.298L308.219 126.582C332.706 137.303 360.067 139.557 385.979 132.99L432 121.325" stroke="url(#paint3_linear_17517_59161)" stroke-width="1.98157" stroke-linecap="round" stroke-linejoin="round"/>
<path d="M2 151.067L48.0214 139.402C73.9328 132.835 101.294 135.089 125.781 145.81L131 148.094C158.411 160.095 189.589 160.095 217 148.094V148.094C244.411 136.094 275.589 136.094 303 148.094L308.219 150.379C332.706 161.099 360.067 163.354 385.979 156.786L432 145.122" stroke="url(#paint4_linear_17517_59161)" stroke-width="1.98157" stroke-linecap="round" stroke-linejoin="round"/>
<path d="M2 174.864L48.0214 163.199C73.9328 156.632 101.294 158.886 125.781 169.606L131 171.891C158.411 183.891 189.589 183.891 217 171.891V171.891C244.411 159.891 275.589 159.891 303 171.891L308.219 174.176C332.706 184.896 360.067 187.151 385.979 180.583L432 168.919" stroke="url(#paint5_linear_17517_59161)" stroke-width="1.98157" stroke-linecap="round" stroke-linejoin="round"/>
<path d="M2 198.661L48.0214 186.996C73.9328 180.429 101.294 182.683 125.781 193.403L131 195.688C158.411 207.688 189.589 207.688 217 195.688V195.688C244.411 183.688 275.589 183.688 303 195.688L308.219 197.973C332.706 208.693 360.067 210.948 385.979 204.38L432 192.716" stroke="url(#paint6_linear_17517_59161)" stroke-width="1.98157" stroke-linecap="round" stroke-linejoin="round"/>
<path d="M2 222.457L48.0214 210.793C73.9328 204.226 101.294 206.48 125.781 217.2L131 219.485C158.411 231.485 189.589 231.485 217 219.485V219.485C244.411 207.485 275.589 207.485 303 219.485L308.219 221.77C332.706 232.49 360.067 234.745 385.979 228.177L432 216.513" stroke="url(#paint7_linear_17517_59161)" stroke-width="1.98157" stroke-linecap="round" stroke-linejoin="round"/>
<path d="M2 246.254L48.0214 234.59C73.9328 228.022 101.294 230.277 125.781 240.997L131 243.282C158.411 255.282 189.589 255.282 217 243.282V243.282C244.411 231.282 275.589 231.282 303 243.282L308.219 245.567C332.706 256.287 360.067 258.541 385.979 251.974L432 240.31" stroke="url(#paint8_linear_17517_59161)" stroke-width="1.98157" stroke-linecap="round" stroke-linejoin="round"/>
<path d="M2 270.053L48.0214 258.389C73.9328 251.821 101.294 254.076 125.781 264.796L131 267.081C158.411 279.081 189.589 279.081 217 267.081V267.081C244.411 255.081 275.589 255.081 303 267.081L308.219 269.366C332.706 280.086 360.067 282.34 385.979 275.773L432 264.108" stroke="url(#paint9_linear_17517_59161)" stroke-width="1.98157" stroke-linecap="round" stroke-linejoin="round"/>
<path d="M2 293.85L48.0214 282.186C73.9328 275.618 101.294 277.873 125.781 288.593L131 290.878C158.411 302.878 189.589 302.878 217 290.878V290.878C244.411 278.877 275.589 278.877 303 290.878L308.219 293.163C332.706 303.883 360.067 306.137 385.979 299.57L432 287.905" stroke="url(#paint10_linear_17517_59161)" stroke-width="1.98157" stroke-linecap="round" stroke-linejoin="round"/>
<path d="M2 317.647L48.0214 305.982C73.9328 299.415 101.294 301.67 125.781 312.39L131 314.675C158.411 326.675 189.589 326.675 217 314.674V314.674C244.411 302.674 275.589 302.674 303 314.675L308.219 316.959C332.706 327.679 360.067 329.934 385.979 323.367L432 311.702" stroke="url(#paint11_linear_17517_59161)" stroke-width="1.98157" stroke-linecap="round" stroke-linejoin="round"/>
<path d="M2 341.444L48.0214 329.779C73.9328 323.212 101.294 325.466 125.781 336.186L131 338.471C158.411 350.472 189.589 350.472 217 338.471V338.471C244.411 326.471 275.589 326.471 303 338.471L308.219 340.756C332.706 351.476 360.067 353.731 385.979 347.163L432 335.499" stroke="url(#paint12_linear_17517_59161)" stroke-width="1.98157" stroke-linecap="round" stroke-linejoin="round"/>
<path d="M2 365.241L48.0214 353.576C73.9328 347.009 101.294 349.263 125.781 359.983L131 362.268C158.411 374.268 189.589 374.268 217 362.268V362.268C244.411 350.268 275.589 350.268 303 362.268L308.219 364.553C332.706 375.273 360.067 377.528 385.979 370.96L432 359.296" stroke="url(#paint13_linear_17517_59161)" stroke-width="1.98157" stroke-linecap="round" stroke-linejoin="round"/>
<rect x="104.412" y="210" width="159.22" height="159.22" rx="39" transform="rotate(-45 104.412 210)" fill="#0C0025" stroke="url(#paint14_linear_17517_59161)" stroke-width="2"/>
<path fill-rule="evenodd" clip-rule="evenodd" d="M258.466 190.267L203.395 245.473L173.649 215.016L186.047 202.908L203.525 220.805L246.197 178.029L258.466 190.267Z" stroke="white" stroke-width="2"/>
<defs>
<linearGradient id="paint0_linear_17517_59161" x1="291.788" y1="54.474" x2="39.8953" y2="49.5959" gradientUnits="userSpaceOnUse">
<stop stop-color="#ED1E79"/>
<stop offset="1" stop-color="#522785"/>
</linearGradient>
<linearGradient id="paint1_linear_17517_59161" x1="291.788" y1="78.2708" x2="39.8953" y2="73.3928" gradientUnits="userSpaceOnUse">
<stop stop-color="#ED1E79"/>
<stop offset="1" stop-color="#522785"/>
</linearGradient>
<linearGradient id="paint2_linear_17517_59161" x1="291.788" y1="102.068" x2="39.8953" y2="97.1896" gradientUnits="userSpaceOnUse">
<stop stop-color="#ED1E79"/>
<stop offset="1" stop-color="#522785"/>
</linearGradient>
<linearGradient id="paint3_linear_17517_59161" x1="291.788" y1="125.867" x2="39.8953" y2="120.988" gradientUnits="userSpaceOnUse">
<stop stop-color="#ED1E79"/>
<stop offset="1" stop-color="#522785"/>
</linearGradient>
<linearGradient id="paint4_linear_17517_59161" x1="291.788" y1="149.663" x2="39.8953" y2="144.785" gradientUnits="userSpaceOnUse">
<stop stop-color="#ED1E79"/>
<stop offset="1" stop-color="#522785"/>
</linearGradient>
<linearGradient id="paint5_linear_17517_59161" x1="291.788" y1="173.46" x2="39.8953" y2="168.582" gradientUnits="userSpaceOnUse">
<stop stop-color="#ED1E79"/>
<stop offset="1" stop-color="#522785"/>
</linearGradient>
<linearGradient id="paint6_linear_17517_59161" x1="291.788" y1="197.257" x2="39.8953" y2="192.379" gradientUnits="userSpaceOnUse">
<stop stop-color="#ED1E79"/>
<stop offset="1" stop-color="#522785"/>
</linearGradient>
<linearGradient id="paint7_linear_17517_59161" x1="291.788" y1="221.054" x2="39.8953" y2="216.176" gradientUnits="userSpaceOnUse">
<stop stop-color="#ED1E79"/>
<stop offset="1" stop-color="#522785"/>
</linearGradient>
<linearGradient id="paint8_linear_17517_59161" x1="291.788" y1="244.851" x2="39.8953" y2="239.973" gradientUnits="userSpaceOnUse">
<stop stop-color="#ED1E79"/>
<stop offset="1" stop-color="#522785"/>
</linearGradient>
<linearGradient id="paint9_linear_17517_59161" x1="291.788" y1="268.65" x2="39.8953" y2="263.772" gradientUnits="userSpaceOnUse">
<stop stop-color="#ED1E79"/>
<stop offset="1" stop-color="#522785"/>
</linearGradient>
<linearGradient id="paint10_linear_17517_59161" x1="291.788" y1="292.447" x2="39.8953" y2="287.569" gradientUnits="userSpaceOnUse">
<stop stop-color="#ED1E79"/>
<stop offset="1" stop-color="#522785"/>
</linearGradient>
<linearGradient id="paint11_linear_17517_59161" x1="291.788" y1="316.243" x2="39.8953" y2="311.365" gradientUnits="userSpaceOnUse">
<stop stop-color="#ED1E79"/>
<stop offset="1" stop-color="#522785"/>
</linearGradient>
<linearGradient id="paint12_linear_17517_59161" x1="291.788" y1="340.04" x2="39.8953" y2="335.162" gradientUnits="userSpaceOnUse">
<stop stop-color="#ED1E79"/>
<stop offset="1" stop-color="#522785"/>
</linearGradient>
<linearGradient id="paint13_linear_17517_59161" x1="291.788" y1="363.837" x2="39.8953" y2="358.959" gradientUnits="userSpaceOnUse">
<stop stop-color="#ED1E79"/>
<stop offset="1" stop-color="#522785"/>
</linearGradient>
<linearGradient id="paint14_linear_17517_59161" x1="222.163" y1="335.125" x2="113.911" y2="243.964" gradientUnits="userSpaceOnUse">
<stop offset="0.21" stop-color="#ED1E79"/>
<stop offset="1" stop-color="#522785"/>
</linearGradient>
</defs>
</svg>
