<svg width="410" height="305" viewBox="0 0 410 305" fill="none" xmlns="http://www.w3.org/2000/svg">
<path d="M204.976 76.2764L145 41.6381L204.976 7L265 41.6381L204.976 76.2764Z" fill="white" stroke="url(#paint0_linear_17561_56235)" stroke-width="2" stroke-linejoin="round"/>
<path d="M204.976 143.133L145 108.495V41.6387L204.976 76.2769V143.133Z" fill="white" stroke="url(#paint1_linear_17561_56235)" stroke-width="2" stroke-linejoin="round"/>
<path d="M264.998 108.495L204.975 143.133V76.2769L264.998 41.6387V108.495Z" fill="white" stroke="url(#paint2_linear_17561_56235)" stroke-width="2" stroke-linejoin="round"/>
<path d="M276.976 116.276L217 81.6381L276.976 47L337 81.6381L276.976 116.276Z" fill="white" stroke="url(#paint3_linear_17561_56235)" stroke-width="2" stroke-linejoin="round"/>
<path d="M276.976 183.133L217 148.495V81.6387L276.976 116.277V183.133Z" fill="white" stroke="url(#paint4_linear_17561_56235)" stroke-width="2" stroke-linejoin="round"/>
<path d="M336.998 148.495L276.975 183.133V116.277L336.998 81.6387V148.495Z" fill="white" stroke="url(#paint5_linear_17561_56235)" stroke-width="2" stroke-linejoin="round"/>
<path d="M348.976 156.276L289 121.638L348.976 87L409 121.638L348.976 156.276Z" fill="white" stroke="url(#paint6_linear_17561_56235)" stroke-width="2" stroke-linejoin="round"/>
<path d="M348.976 223.133L289 188.495V121.639L348.976 156.277V223.133Z" fill="white" stroke="url(#paint7_linear_17561_56235)" stroke-width="2" stroke-linejoin="round"/>
<path d="M408.998 188.495L348.975 223.133V156.277L408.998 121.639V188.495Z" fill="white" stroke="url(#paint8_linear_17561_56235)" stroke-width="2" stroke-linejoin="round"/>
<path d="M132.976 116.276L73 81.6381L132.976 47L193 81.6381L132.976 116.276Z" fill="white" stroke="url(#paint9_linear_17561_56235)" stroke-width="2" stroke-linejoin="round"/>
<path d="M132.976 183.133L73 148.495V81.6387L132.976 116.277V183.133Z" fill="white" stroke="url(#paint10_linear_17561_56235)" stroke-width="2" stroke-linejoin="round"/>
<path d="M192.998 148.495L132.975 183.133V116.277L192.998 81.6387V148.495Z" fill="white" stroke="url(#paint11_linear_17561_56235)" stroke-width="2" stroke-linejoin="round"/>
<path d="M204.976 156.276L145 121.638L204.976 87L265 121.638L204.976 156.276Z" fill="white" stroke="url(#paint12_linear_17561_56235)" stroke-width="2" stroke-linejoin="round"/>
<path d="M204.976 223.133L145 188.495V121.639L204.976 156.277V223.133Z" fill="white" stroke="url(#paint13_linear_17561_56235)" stroke-width="2" stroke-linejoin="round"/>
<path d="M264.998 188.495L204.975 223.133V156.277L264.998 121.639V188.495Z" fill="white" stroke="url(#paint14_linear_17561_56235)" stroke-width="2" stroke-linejoin="round"/>
<path d="M276.976 196.276L217 161.638L276.976 127L337 161.638L276.976 196.276Z" fill="white" stroke="url(#paint15_linear_17561_56235)" stroke-width="2" stroke-linejoin="round"/>
<path d="M276.976 263.133L217 228.495V161.639L276.976 196.277V263.133Z" fill="white" stroke="url(#paint16_linear_17561_56235)" stroke-width="2" stroke-linejoin="round"/>
<path d="M336.998 228.495L276.975 263.133V196.277L336.998 161.639V228.495Z" fill="white" stroke="url(#paint17_linear_17561_56235)" stroke-width="2" stroke-linejoin="round"/>
<path d="M60.9763 156.276L1 121.638L60.9763 87L121 121.638L60.9763 156.276Z" fill="white" stroke="url(#paint18_linear_17561_56235)" stroke-width="2" stroke-linejoin="round"/>
<path d="M60.9763 223.133L1 188.495V121.639L60.9763 156.277V223.133Z" fill="white" stroke="url(#paint19_linear_17561_56235)" stroke-width="2" stroke-linejoin="round"/>
<path d="M120.998 188.495L60.9746 223.133V156.277L120.998 121.639V188.495Z" fill="white" stroke="url(#paint20_linear_17561_56235)" stroke-width="2" stroke-linejoin="round"/>
<path d="M132.976 196.276L73 161.638L132.976 127L193 161.638L132.976 196.276Z" fill="white" stroke="url(#paint21_linear_17561_56235)" stroke-width="2" stroke-linejoin="round"/>
<path d="M132.976 263.133L73 228.495V161.639L132.976 196.277V263.133Z" fill="white" stroke="url(#paint22_linear_17561_56235)" stroke-width="2" stroke-linejoin="round"/>
<path d="M192.998 228.495L132.975 263.133V196.277L192.998 161.639V228.495Z" fill="white" stroke="url(#paint23_linear_17561_56235)" stroke-width="2" stroke-linejoin="round"/>
<path d="M204.976 236.276L145 201.638L204.976 167L265 201.638L204.976 236.276Z" fill="white" stroke="url(#paint24_linear_17561_56235)" stroke-width="2" stroke-linejoin="round"/>
<path d="M204.976 303.133L145 268.495V201.639L204.976 236.277V303.133Z" fill="white" stroke="url(#paint25_linear_17561_56235)" stroke-width="2" stroke-linejoin="round"/>
<path d="M264.998 268.495L204.975 303.133V236.277L264.998 201.639V268.495Z" fill="white" stroke="url(#paint26_linear_17561_56235)" stroke-width="2" stroke-linejoin="round"/>
<rect x="301" y="1" width="105" height="105" rx="52.5" fill="white"/>
<rect x="301" y="1" width="105" height="105" rx="52.5" stroke="url(#paint27_linear_17561_56235)" stroke-width="2" stroke-linejoin="round"/>
<path d="M385.462 22.5377C377.373 14.1891 366.043 9 353.5 9C328.923 9 309 28.9233 309 53.5C309 78.0767 328.923 98 353.5 98C365.788 98 376.913 93.0192 384.966 84.9662L372.624 72.6244C367.73 77.5188 360.969 80.546 353.5 80.546C338.563 80.546 326.454 68.4371 326.454 53.5C326.454 38.5629 338.563 26.454 353.5 26.454C361.223 26.454 368.19 29.6909 373.118 34.8821L385.462 22.5377Z" fill="url(#paint28_angular_17561_56235)"/>
<path d="M387.207 22.2071C387.598 21.8166 387.598 21.1834 387.207 20.7929C386.817 20.4024 386.183 20.4024 385.793 20.7929L387.207 22.2071ZM354.707 54.7071L387.207 22.2071L385.793 20.7929L353.293 53.2929L354.707 54.7071Z" fill="url(#paint29_linear_17561_56235)"/>
<defs>
<linearGradient id="paint0_linear_17561_56235" x1="233.697" y1="60.7665" x2="189.668" y2="-3.45901" gradientUnits="userSpaceOnUse">
<stop offset="0.21" stop-color="#ED1E79"/>
<stop offset="1" stop-color="#522785"/>
</linearGradient>
<linearGradient id="paint1_linear_17561_56235" x1="189.331" y1="120.41" x2="134.162" y2="92.9564" gradientUnits="userSpaceOnUse">
<stop offset="0.21" stop-color="#ED1E79"/>
<stop offset="1" stop-color="#522785"/>
</linearGradient>
<linearGradient id="paint2_linear_17561_56235" x1="249.341" y1="120.41" x2="194.146" y2="92.9216" gradientUnits="userSpaceOnUse">
<stop offset="0.21" stop-color="#ED1E79"/>
<stop offset="1" stop-color="#522785"/>
</linearGradient>
<linearGradient id="paint3_linear_17561_56235" x1="305.697" y1="100.766" x2="261.668" y2="36.541" gradientUnits="userSpaceOnUse">
<stop offset="0.21" stop-color="#ED1E79"/>
<stop offset="1" stop-color="#522785"/>
</linearGradient>
<linearGradient id="paint4_linear_17561_56235" x1="261.331" y1="160.41" x2="206.162" y2="132.956" gradientUnits="userSpaceOnUse">
<stop offset="0.21" stop-color="#ED1E79"/>
<stop offset="1" stop-color="#522785"/>
</linearGradient>
<linearGradient id="paint5_linear_17561_56235" x1="321.341" y1="160.41" x2="266.146" y2="132.922" gradientUnits="userSpaceOnUse">
<stop offset="0.21" stop-color="#ED1E79"/>
<stop offset="1" stop-color="#522785"/>
</linearGradient>
<linearGradient id="paint6_linear_17561_56235" x1="377.697" y1="140.766" x2="333.668" y2="76.541" gradientUnits="userSpaceOnUse">
<stop offset="0.21" stop-color="#ED1E79"/>
<stop offset="1" stop-color="#522785"/>
</linearGradient>
<linearGradient id="paint7_linear_17561_56235" x1="333.331" y1="200.41" x2="278.162" y2="172.956" gradientUnits="userSpaceOnUse">
<stop offset="0.21" stop-color="#ED1E79"/>
<stop offset="1" stop-color="#522785"/>
</linearGradient>
<linearGradient id="paint8_linear_17561_56235" x1="393.341" y1="200.41" x2="338.146" y2="172.922" gradientUnits="userSpaceOnUse">
<stop offset="0.21" stop-color="#ED1E79"/>
<stop offset="1" stop-color="#522785"/>
</linearGradient>
<linearGradient id="paint9_linear_17561_56235" x1="161.697" y1="100.766" x2="117.668" y2="36.541" gradientUnits="userSpaceOnUse">
<stop offset="0.21" stop-color="#ED1E79"/>
<stop offset="1" stop-color="#522785"/>
</linearGradient>
<linearGradient id="paint10_linear_17561_56235" x1="117.331" y1="160.41" x2="62.1625" y2="132.956" gradientUnits="userSpaceOnUse">
<stop offset="0.21" stop-color="#ED1E79"/>
<stop offset="1" stop-color="#522785"/>
</linearGradient>
<linearGradient id="paint11_linear_17561_56235" x1="177.341" y1="160.41" x2="122.146" y2="132.922" gradientUnits="userSpaceOnUse">
<stop offset="0.21" stop-color="#ED1E79"/>
<stop offset="1" stop-color="#522785"/>
</linearGradient>
<linearGradient id="paint12_linear_17561_56235" x1="233.697" y1="140.766" x2="189.668" y2="76.541" gradientUnits="userSpaceOnUse">
<stop offset="0.21" stop-color="#ED1E79"/>
<stop offset="1" stop-color="#522785"/>
</linearGradient>
<linearGradient id="paint13_linear_17561_56235" x1="189.331" y1="200.41" x2="134.162" y2="172.956" gradientUnits="userSpaceOnUse">
<stop offset="0.21" stop-color="#ED1E79"/>
<stop offset="1" stop-color="#522785"/>
</linearGradient>
<linearGradient id="paint14_linear_17561_56235" x1="249.341" y1="200.41" x2="194.146" y2="172.922" gradientUnits="userSpaceOnUse">
<stop offset="0.21" stop-color="#ED1E79"/>
<stop offset="1" stop-color="#522785"/>
</linearGradient>
<linearGradient id="paint15_linear_17561_56235" x1="305.697" y1="180.766" x2="261.668" y2="116.541" gradientUnits="userSpaceOnUse">
<stop offset="0.21" stop-color="#ED1E79"/>
<stop offset="1" stop-color="#522785"/>
</linearGradient>
<linearGradient id="paint16_linear_17561_56235" x1="261.331" y1="240.41" x2="206.162" y2="212.956" gradientUnits="userSpaceOnUse">
<stop offset="0.21" stop-color="#ED1E79"/>
<stop offset="1" stop-color="#522785"/>
</linearGradient>
<linearGradient id="paint17_linear_17561_56235" x1="321.341" y1="240.41" x2="266.146" y2="212.922" gradientUnits="userSpaceOnUse">
<stop offset="0.21" stop-color="#ED1E79"/>
<stop offset="1" stop-color="#522785"/>
</linearGradient>
<linearGradient id="paint18_linear_17561_56235" x1="89.6971" y1="140.766" x2="45.6683" y2="76.541" gradientUnits="userSpaceOnUse">
<stop offset="0.21" stop-color="#ED1E79"/>
<stop offset="1" stop-color="#522785"/>
</linearGradient>
<linearGradient id="paint19_linear_17561_56235" x1="45.331" y1="200.41" x2="-9.83751" y2="172.956" gradientUnits="userSpaceOnUse">
<stop offset="0.21" stop-color="#ED1E79"/>
<stop offset="1" stop-color="#522785"/>
</linearGradient>
<linearGradient id="paint20_linear_17561_56235" x1="105.341" y1="200.41" x2="50.1459" y2="172.922" gradientUnits="userSpaceOnUse">
<stop offset="0.21" stop-color="#ED1E79"/>
<stop offset="1" stop-color="#522785"/>
</linearGradient>
<linearGradient id="paint21_linear_17561_56235" x1="161.697" y1="180.766" x2="117.668" y2="116.541" gradientUnits="userSpaceOnUse">
<stop offset="0.21" stop-color="#ED1E79"/>
<stop offset="1" stop-color="#522785"/>
</linearGradient>
<linearGradient id="paint22_linear_17561_56235" x1="117.331" y1="240.41" x2="62.1625" y2="212.956" gradientUnits="userSpaceOnUse">
<stop offset="0.21" stop-color="#ED1E79"/>
<stop offset="1" stop-color="#522785"/>
</linearGradient>
<linearGradient id="paint23_linear_17561_56235" x1="177.341" y1="240.41" x2="122.146" y2="212.922" gradientUnits="userSpaceOnUse">
<stop offset="0.21" stop-color="#ED1E79"/>
<stop offset="1" stop-color="#522785"/>
</linearGradient>
<linearGradient id="paint24_linear_17561_56235" x1="233.697" y1="220.766" x2="189.668" y2="156.541" gradientUnits="userSpaceOnUse">
<stop offset="0.21" stop-color="#ED1E79"/>
<stop offset="1" stop-color="#522785"/>
</linearGradient>
<linearGradient id="paint25_linear_17561_56235" x1="189.331" y1="280.41" x2="134.162" y2="252.956" gradientUnits="userSpaceOnUse">
<stop offset="0.21" stop-color="#ED1E79"/>
<stop offset="1" stop-color="#522785"/>
</linearGradient>
<linearGradient id="paint26_linear_17561_56235" x1="249.341" y1="280.41" x2="194.146" y2="252.922" gradientUnits="userSpaceOnUse">
<stop offset="0.21" stop-color="#ED1E79"/>
<stop offset="1" stop-color="#522785"/>
</linearGradient>
<linearGradient id="paint27_linear_17561_56235" x1="378.61" y1="82.492" x2="308.107" y2="23.1202" gradientUnits="userSpaceOnUse">
<stop offset="0.21" stop-color="#ED1E79"/>
<stop offset="1" stop-color="#522785"/>
</linearGradient>
<radialGradient id="paint28_angular_17561_56235" cx="0" cy="0" r="1" gradientUnits="userSpaceOnUse" gradientTransform="translate(354 54) rotate(-45) scale(44.5477)">
<stop stop-color="white"/>
<stop offset="0.29" stop-color="white"/>
<stop offset="0.71" stop-color="#ED1E79"/>
<stop offset="1" stop-color="#522785"/>
</radialGradient>
<linearGradient id="paint29_linear_17561_56235" x1="376.913" y1="47.0596" x2="356.098" y2="29.5307" gradientUnits="userSpaceOnUse">
<stop offset="0.21" stop-color="#ED1E79"/>
<stop offset="1" stop-color="#522785"/>
</linearGradient>
</defs>
</svg>
