<svg width="541" height="308" viewBox="0 0 541 308" fill="none" xmlns="http://www.w3.org/2000/svg">
<path d="M270.976 78.2764L211 43.6381L270.976 9L331 43.6381L270.976 78.2764Z" fill="white" stroke="url(#paint0_linear_17782_31117)" stroke-width="2" stroke-linejoin="round"/>
<path d="M270.976 145.133L211 110.495V43.6387L270.976 78.2769V145.133Z" fill="white" stroke="url(#paint1_linear_17782_31117)" stroke-width="2" stroke-linejoin="round"/>
<path d="M330.998 110.495L270.975 145.133V78.2769L330.998 43.6387V110.495Z" fill="white" stroke="url(#paint2_linear_17782_31117)" stroke-width="2" stroke-linejoin="round"/>
<path d="M342.976 118.276L283 83.6381L342.976 49L403 83.6381L342.976 118.276Z" fill="white" stroke="url(#paint3_linear_17782_31117)" stroke-width="2" stroke-linejoin="round"/>
<path d="M342.976 185.133L283 150.495V83.6387L342.976 118.277V185.133Z" fill="white" stroke="url(#paint4_linear_17782_31117)" stroke-width="2" stroke-linejoin="round"/>
<path d="M402.998 150.495L342.975 185.133V118.277L402.998 83.6387V150.495Z" fill="white" stroke="url(#paint5_linear_17782_31117)" stroke-width="2" stroke-linejoin="round"/>
<path d="M414.976 158.276L355 123.638L414.976 89L475 123.638L414.976 158.276Z" fill="white" stroke="url(#paint6_linear_17782_31117)" stroke-width="2" stroke-linejoin="round"/>
<path d="M414.976 225.133L355 190.495V123.639L414.976 158.277V225.133Z" fill="white" stroke="url(#paint7_linear_17782_31117)" stroke-width="2" stroke-linejoin="round"/>
<path d="M474.998 190.495L414.975 225.133V158.277L474.998 123.639V190.495Z" fill="white" stroke="url(#paint8_linear_17782_31117)" stroke-width="2" stroke-linejoin="round"/>
<path d="M198.976 118.276L139 83.6381L198.976 49L259 83.6381L198.976 118.276Z" fill="white" stroke="url(#paint9_linear_17782_31117)" stroke-width="2" stroke-linejoin="round"/>
<path d="M198.976 185.133L139 150.495V83.6387L198.976 118.277V185.133Z" fill="white" stroke="url(#paint10_linear_17782_31117)" stroke-width="2" stroke-linejoin="round"/>
<path d="M258.998 150.495L198.975 185.133V118.277L258.998 83.6387V150.495Z" fill="white" stroke="url(#paint11_linear_17782_31117)" stroke-width="2" stroke-linejoin="round"/>
<path d="M270.976 158.276L211 123.638L270.976 89L331 123.638L270.976 158.276Z" fill="white" stroke="url(#paint12_linear_17782_31117)" stroke-width="2" stroke-linejoin="round"/>
<path d="M270.976 225.133L211 190.495V123.639L270.976 158.277V225.133Z" fill="white" stroke="url(#paint13_linear_17782_31117)" stroke-width="2" stroke-linejoin="round"/>
<path d="M330.998 190.495L270.975 225.133V158.277L330.998 123.639V190.495Z" fill="white" stroke="url(#paint14_linear_17782_31117)" stroke-width="2" stroke-linejoin="round"/>
<path d="M342.976 198.276L283 163.638L342.976 129L403 163.638L342.976 198.276Z" fill="white" stroke="url(#paint15_linear_17782_31117)" stroke-width="2" stroke-linejoin="round"/>
<path d="M342.976 265.133L283 230.495V163.639L342.976 198.277V265.133Z" fill="white" stroke="url(#paint16_linear_17782_31117)" stroke-width="2" stroke-linejoin="round"/>
<path d="M402.998 230.495L342.975 265.133V198.277L402.998 163.639V230.495Z" fill="white" stroke="url(#paint17_linear_17782_31117)" stroke-width="2" stroke-linejoin="round"/>
<path d="M126.976 158.276L67 123.638L126.976 89L187 123.638L126.976 158.276Z" fill="white" stroke="url(#paint18_linear_17782_31117)" stroke-width="2" stroke-linejoin="round"/>
<path d="M126.976 225.133L67 190.495V123.639L126.976 158.277V225.133Z" fill="white" stroke="url(#paint19_linear_17782_31117)" stroke-width="2" stroke-linejoin="round"/>
<path d="M186.998 190.495L126.975 225.133V158.277L186.998 123.639V190.495Z" fill="white" stroke="url(#paint20_linear_17782_31117)" stroke-width="2" stroke-linejoin="round"/>
<path d="M198.976 198.276L139 163.638L198.976 129L259 163.638L198.976 198.276Z" fill="white" stroke="url(#paint21_linear_17782_31117)" stroke-width="2" stroke-linejoin="round"/>
<path d="M198.976 265.133L139 230.495V163.639L198.976 198.277V265.133Z" fill="white" stroke="url(#paint22_linear_17782_31117)" stroke-width="2" stroke-linejoin="round"/>
<path d="M258.998 230.495L198.975 265.133V198.277L258.998 163.639V230.495Z" fill="white" stroke="url(#paint23_linear_17782_31117)" stroke-width="2" stroke-linejoin="round"/>
<path d="M270.976 238.276L211 203.638L270.976 169L331 203.638L270.976 238.276Z" fill="white" stroke="url(#paint24_linear_17782_31117)" stroke-width="2" stroke-linejoin="round"/>
<path d="M270.976 305.133L211 270.495V203.639L270.976 238.277V305.133Z" fill="white" stroke="url(#paint25_linear_17782_31117)" stroke-width="2" stroke-linejoin="round"/>
<path d="M330.998 270.495L270.975 305.133V238.277L330.998 203.639V270.495Z" fill="white" stroke="url(#paint26_linear_17782_31117)" stroke-width="2" stroke-linejoin="round"/>
<rect x="367" y="3" width="105" height="105" rx="52.5" fill="white"/>
<rect x="367" y="3" width="105" height="105" rx="52.5" stroke="url(#paint27_linear_17782_31117)" stroke-width="2" stroke-linejoin="round"/>
<path d="M451.462 24.5377C443.373 16.1891 432.043 11 419.5 11C394.923 11 375 30.9233 375 55.5C375 80.0767 394.923 100 419.5 100C431.788 100 442.913 95.0192 450.966 86.9662L438.624 74.6244C433.73 79.5188 426.969 82.546 419.5 82.546C404.563 82.546 392.454 70.4371 392.454 55.5C392.454 40.5629 404.563 28.454 419.5 28.454C427.223 28.454 434.19 31.6909 439.118 36.8821L451.462 24.5377Z" fill="url(#paint28_angular_17782_31117)"/>
<path d="M453.207 24.2071C453.598 23.8166 453.598 23.1834 453.207 22.7929C452.817 22.4024 452.183 22.4024 451.793 22.7929L453.207 24.2071ZM420.707 56.7071L453.207 24.2071L451.793 22.7929L419.293 55.2929L420.707 56.7071Z" fill="url(#paint29_linear_17782_31117)"/>
<defs>
<linearGradient id="paint0_linear_17782_31117" x1="299.697" y1="62.7665" x2="255.668" y2="-1.45901" gradientUnits="userSpaceOnUse">
<stop offset="0.21" stop-color="#ED1E79"/>
<stop offset="1" stop-color="#522785"/>
</linearGradient>
<linearGradient id="paint1_linear_17782_31117" x1="255.331" y1="122.41" x2="200.162" y2="94.9564" gradientUnits="userSpaceOnUse">
<stop offset="0.21" stop-color="#ED1E79"/>
<stop offset="1" stop-color="#522785"/>
</linearGradient>
<linearGradient id="paint2_linear_17782_31117" x1="315.341" y1="122.41" x2="260.146" y2="94.9216" gradientUnits="userSpaceOnUse">
<stop offset="0.21" stop-color="#ED1E79"/>
<stop offset="1" stop-color="#522785"/>
</linearGradient>
<linearGradient id="paint3_linear_17782_31117" x1="371.697" y1="102.766" x2="327.668" y2="38.541" gradientUnits="userSpaceOnUse">
<stop offset="0.21" stop-color="#ED1E79"/>
<stop offset="1" stop-color="#522785"/>
</linearGradient>
<linearGradient id="paint4_linear_17782_31117" x1="327.331" y1="162.41" x2="272.162" y2="134.956" gradientUnits="userSpaceOnUse">
<stop offset="0.21" stop-color="#ED1E79"/>
<stop offset="1" stop-color="#522785"/>
</linearGradient>
<linearGradient id="paint5_linear_17782_31117" x1="387.341" y1="162.41" x2="332.146" y2="134.922" gradientUnits="userSpaceOnUse">
<stop offset="0.21" stop-color="#ED1E79"/>
<stop offset="1" stop-color="#522785"/>
</linearGradient>
<linearGradient id="paint6_linear_17782_31117" x1="443.697" y1="142.766" x2="399.668" y2="78.541" gradientUnits="userSpaceOnUse">
<stop offset="0.21" stop-color="#ED1E79"/>
<stop offset="1" stop-color="#522785"/>
</linearGradient>
<linearGradient id="paint7_linear_17782_31117" x1="399.331" y1="202.41" x2="344.162" y2="174.956" gradientUnits="userSpaceOnUse">
<stop offset="0.21" stop-color="#ED1E79"/>
<stop offset="1" stop-color="#522785"/>
</linearGradient>
<linearGradient id="paint8_linear_17782_31117" x1="459.341" y1="202.41" x2="404.146" y2="174.922" gradientUnits="userSpaceOnUse">
<stop offset="0.21" stop-color="#ED1E79"/>
<stop offset="1" stop-color="#522785"/>
</linearGradient>
<linearGradient id="paint9_linear_17782_31117" x1="227.697" y1="102.766" x2="183.668" y2="38.541" gradientUnits="userSpaceOnUse">
<stop offset="0.21" stop-color="#ED1E79"/>
<stop offset="1" stop-color="#522785"/>
</linearGradient>
<linearGradient id="paint10_linear_17782_31117" x1="183.331" y1="162.41" x2="128.162" y2="134.956" gradientUnits="userSpaceOnUse">
<stop offset="0.21" stop-color="#ED1E79"/>
<stop offset="1" stop-color="#522785"/>
</linearGradient>
<linearGradient id="paint11_linear_17782_31117" x1="243.341" y1="162.41" x2="188.146" y2="134.922" gradientUnits="userSpaceOnUse">
<stop offset="0.21" stop-color="#ED1E79"/>
<stop offset="1" stop-color="#522785"/>
</linearGradient>
<linearGradient id="paint12_linear_17782_31117" x1="299.697" y1="142.766" x2="255.668" y2="78.541" gradientUnits="userSpaceOnUse">
<stop offset="0.21" stop-color="#ED1E79"/>
<stop offset="1" stop-color="#522785"/>
</linearGradient>
<linearGradient id="paint13_linear_17782_31117" x1="255.331" y1="202.41" x2="200.162" y2="174.956" gradientUnits="userSpaceOnUse">
<stop offset="0.21" stop-color="#ED1E79"/>
<stop offset="1" stop-color="#522785"/>
</linearGradient>
<linearGradient id="paint14_linear_17782_31117" x1="315.341" y1="202.41" x2="260.146" y2="174.922" gradientUnits="userSpaceOnUse">
<stop offset="0.21" stop-color="#ED1E79"/>
<stop offset="1" stop-color="#522785"/>
</linearGradient>
<linearGradient id="paint15_linear_17782_31117" x1="371.697" y1="182.766" x2="327.668" y2="118.541" gradientUnits="userSpaceOnUse">
<stop offset="0.21" stop-color="#ED1E79"/>
<stop offset="1" stop-color="#522785"/>
</linearGradient>
<linearGradient id="paint16_linear_17782_31117" x1="327.331" y1="242.41" x2="272.162" y2="214.956" gradientUnits="userSpaceOnUse">
<stop offset="0.21" stop-color="#ED1E79"/>
<stop offset="1" stop-color="#522785"/>
</linearGradient>
<linearGradient id="paint17_linear_17782_31117" x1="387.341" y1="242.41" x2="332.146" y2="214.922" gradientUnits="userSpaceOnUse">
<stop offset="0.21" stop-color="#ED1E79"/>
<stop offset="1" stop-color="#522785"/>
</linearGradient>
<linearGradient id="paint18_linear_17782_31117" x1="155.697" y1="142.766" x2="111.668" y2="78.541" gradientUnits="userSpaceOnUse">
<stop offset="0.21" stop-color="#ED1E79"/>
<stop offset="1" stop-color="#522785"/>
</linearGradient>
<linearGradient id="paint19_linear_17782_31117" x1="111.331" y1="202.41" x2="56.1625" y2="174.956" gradientUnits="userSpaceOnUse">
<stop offset="0.21" stop-color="#ED1E79"/>
<stop offset="1" stop-color="#522785"/>
</linearGradient>
<linearGradient id="paint20_linear_17782_31117" x1="171.341" y1="202.41" x2="116.146" y2="174.922" gradientUnits="userSpaceOnUse">
<stop offset="0.21" stop-color="#ED1E79"/>
<stop offset="1" stop-color="#522785"/>
</linearGradient>
<linearGradient id="paint21_linear_17782_31117" x1="227.697" y1="182.766" x2="183.668" y2="118.541" gradientUnits="userSpaceOnUse">
<stop offset="0.21" stop-color="#ED1E79"/>
<stop offset="1" stop-color="#522785"/>
</linearGradient>
<linearGradient id="paint22_linear_17782_31117" x1="183.331" y1="242.41" x2="128.162" y2="214.956" gradientUnits="userSpaceOnUse">
<stop offset="0.21" stop-color="#ED1E79"/>
<stop offset="1" stop-color="#522785"/>
</linearGradient>
<linearGradient id="paint23_linear_17782_31117" x1="243.341" y1="242.41" x2="188.146" y2="214.922" gradientUnits="userSpaceOnUse">
<stop offset="0.21" stop-color="#ED1E79"/>
<stop offset="1" stop-color="#522785"/>
</linearGradient>
<linearGradient id="paint24_linear_17782_31117" x1="299.697" y1="222.766" x2="255.668" y2="158.541" gradientUnits="userSpaceOnUse">
<stop offset="0.21" stop-color="#ED1E79"/>
<stop offset="1" stop-color="#522785"/>
</linearGradient>
<linearGradient id="paint25_linear_17782_31117" x1="255.331" y1="282.41" x2="200.162" y2="254.956" gradientUnits="userSpaceOnUse">
<stop offset="0.21" stop-color="#ED1E79"/>
<stop offset="1" stop-color="#522785"/>
</linearGradient>
<linearGradient id="paint26_linear_17782_31117" x1="315.341" y1="282.41" x2="260.146" y2="254.922" gradientUnits="userSpaceOnUse">
<stop offset="0.21" stop-color="#ED1E79"/>
<stop offset="1" stop-color="#522785"/>
</linearGradient>
<linearGradient id="paint27_linear_17782_31117" x1="444.61" y1="84.492" x2="374.107" y2="25.1202" gradientUnits="userSpaceOnUse">
<stop offset="0.21" stop-color="#ED1E79"/>
<stop offset="1" stop-color="#522785"/>
</linearGradient>
<radialGradient id="paint28_angular_17782_31117" cx="0" cy="0" r="1" gradientUnits="userSpaceOnUse" gradientTransform="translate(420 56) rotate(-45) scale(44.5477)">
<stop stop-color="white"/>
<stop offset="0.29" stop-color="white"/>
<stop offset="0.71" stop-color="#ED1E79"/>
<stop offset="1" stop-color="#522785"/>
</radialGradient>
<linearGradient id="paint29_linear_17782_31117" x1="442.913" y1="49.0596" x2="422.098" y2="31.5307" gradientUnits="userSpaceOnUse">
<stop offset="0.21" stop-color="#ED1E79"/>
<stop offset="1" stop-color="#522785"/>
</linearGradient>
</defs>
</svg>
