<svg width="547" height="416" viewBox="0 0 547 416" fill="none" xmlns="http://www.w3.org/2000/svg">
<path d="M410 82.3849L450.5 59L491 82.3849L450.5 105.77L410 82.3849Z" fill="white" stroke="#CBC7C6" stroke-width="2" stroke-linecap="round" stroke-linejoin="round" stroke-dasharray="2 6"/>
<path d="M410 126.818V82.3867L450.5 105.772V150.203L410 126.818Z" fill="white" stroke="#CBC7C6" stroke-width="2" stroke-linecap="round" stroke-linejoin="round" stroke-dasharray="2 6"/>
<path d="M450.5 150.203L491 126.818V82.3867L450.5 105.772V150.203Z" fill="white" stroke="#CBC7C6" stroke-width="2" stroke-linecap="round" stroke-linejoin="round" stroke-dasharray="2 6"/>
<path d="M57 82.3849L97.5 59L138 82.3849L97.5 105.77L57 82.3849Z" fill="white" stroke="#CBC7C6" stroke-width="2" stroke-linecap="round" stroke-linejoin="round" stroke-dasharray="2 6"/>
<path d="M57 126.818V82.3867L97.5 105.772V150.203L57 126.818Z" fill="white" stroke="#CBC7C6" stroke-width="2" stroke-linecap="round" stroke-linejoin="round" stroke-dasharray="2 6"/>
<path d="M97.5 150.203L138 126.818V82.3867L97.5 105.772V150.203Z" fill="white" stroke="#CBC7C6" stroke-width="2" stroke-linecap="round" stroke-linejoin="round" stroke-dasharray="2 6"/>
<path d="M428.501 115L373.992 146.5" stroke="#CBC7C6" stroke-width="2" stroke-linecap="round"/>
<path d="M118.999 115L173.508 146.5" stroke="#CBC7C6" stroke-width="2" stroke-linecap="round"/>
<path d="M174 131.741L274 74L374 131.741L274 189.481L174 131.741Z" stroke="url(#paint0_linear_17493_7231)" stroke-width="1.59544" stroke-linejoin="round"/>
<path d="M174 241.45V131.742L274 189.483V299.191L174 241.45Z" stroke="url(#paint1_linear_17493_7231)" stroke-width="1.59544" stroke-linejoin="round"/>
<path d="M274 299.191L374 241.45V131.742L274 189.483V299.191Z" stroke="url(#paint2_linear_17493_7231)" stroke-width="1.59544" stroke-linejoin="round"/>
<g clip-path="url(#clip0_17493_7231)">
<rect x="190" y="102" width="169" height="169" rx="84.5" fill="url(#paint3_radial_17493_7231)"/>
<path d="M174 131.741L274 74L374 131.741L274 189.481L174 131.741Z" stroke="white" stroke-width="1.59544" stroke-linejoin="round"/>
<path d="M174 241.45V131.742L274 189.483V299.191L174 241.45Z" stroke="white" stroke-width="1.59544" stroke-linejoin="round"/>
<path d="M274 299.191L374 241.45V131.742L274 189.483V299.191Z" stroke="white" stroke-width="1.59544" stroke-linejoin="round"/>
</g>
<path d="M328.5 236L415 285.987" stroke="#CBC7C6" stroke-width="2" stroke-linecap="round"/>
<path d="M219.5 236L132.979 286" stroke="#CBC7C6" stroke-width="2" stroke-linecap="round"/>
<path d="M57 288.385L97.5 265L138 288.385L97.5 311.77L57 288.385Z" fill="white" stroke="#CBC7C6" stroke-width="2" stroke-linecap="round" stroke-linejoin="round" stroke-dasharray="2 6"/>
<path d="M57 332.818V288.387L97.5 311.772V356.203L57 332.818Z" fill="white" stroke="#CBC7C6" stroke-width="2" stroke-linecap="round" stroke-linejoin="round" stroke-dasharray="2 6"/>
<path d="M97.5 356.203L138 332.818V288.387L97.5 311.772V356.203Z" fill="white" stroke="#CBC7C6" stroke-width="2" stroke-linecap="round" stroke-linejoin="round" stroke-dasharray="2 6"/>
<path d="M410 288.385L450.5 265L491 288.385L450.5 311.77L410 288.385Z" fill="white" stroke="#CBC7C6" stroke-width="2" stroke-linecap="round" stroke-linejoin="round" stroke-dasharray="2 6"/>
<path d="M410 332.818V288.387L450.5 311.772V356.203L410 332.818Z" fill="white" stroke="#CBC7C6" stroke-width="2" stroke-linecap="round" stroke-linejoin="round" stroke-dasharray="2 6"/>
<path d="M450.5 356.203L491 332.818V288.387L450.5 311.772V356.203Z" fill="white" stroke="#CBC7C6" stroke-width="2" stroke-linecap="round" stroke-linejoin="round" stroke-dasharray="2 6"/>
<defs>
<linearGradient id="paint0_linear_17493_7231" x1="321.828" y1="163.627" x2="248.429" y2="56.5774" gradientUnits="userSpaceOnUse">
<stop offset="0.21" stop-color="#ED1E79"/>
<stop offset="1" stop-color="#522785"/>
</linearGradient>
<linearGradient id="paint1_linear_17493_7231" x1="247.914" y1="261.701" x2="156.318" y2="215.637" gradientUnits="userSpaceOnUse">
<stop offset="0.21" stop-color="#ED1E79"/>
<stop offset="1" stop-color="#522785"/>
</linearGradient>
<linearGradient id="paint2_linear_17493_7231" x1="347.914" y1="261.701" x2="256.318" y2="215.636" gradientUnits="userSpaceOnUse">
<stop offset="0.21" stop-color="#ED1E79"/>
<stop offset="1" stop-color="#522785"/>
</linearGradient>
<radialGradient id="paint3_radial_17493_7231" cx="0" cy="0" r="1" gradientUnits="userSpaceOnUse" gradientTransform="translate(226.418 121.631) rotate(51.374) scale(150.407 202.389)">
<stop offset="0.21" stop-color="#ED1E79"/>
<stop offset="1" stop-color="#522785"/>
</radialGradient>
<clipPath id="clip0_17493_7231">
<rect x="190" y="102" width="169" height="169" rx="84.5" fill="white"/>
</clipPath>
</defs>
</svg>
