<svg width="541" height="416" viewBox="0 0 541 416" fill="none" xmlns="http://www.w3.org/2000/svg">
<path d="M185.947 269.24L263.583 224.122L263.592 224.113C265.897 222.77 268.523 222.232 271.097 222.449V222.458C272.949 222.614 274.767 223.143 276.429 224.104L354.61 269.24H375.705V283.626C375.705 284.918 375.072 286.209 373.798 286.946L277.113 343.132C275.241 344.215 273.17 344.77 271.09 344.839V344.831C268.735 344.908 266.372 344.353 264.268 343.141L166.915 286.938C165.641 286.201 165 284.91 165 283.618V269.24H185.947Z" fill="#D1D1D1"/>
<path d="M275.936 210.583L276.436 209.718L275.936 210.583C272.268 208.466 267.754 208.474 264.094 210.599L167.409 266.785C165.527 267.88 165.532 270.595 167.415 271.684L275.936 210.583ZM275.936 210.583L373.288 266.786C375.172 267.876 375.178 270.591 373.294 271.686L276.61 327.872C272.95 329.997 268.436 330.005 264.768 327.888L167.416 271.685L275.936 210.583Z" fill="white" stroke="#D1D1D1" stroke-width="2"/>
<path d="M345.528 273.04C342.373 271.22 337.26 271.22 334.122 273.04C331.462 274.592 331.08 276.94 332.926 278.734L310.705 291.648L293.831 281.906L269.66 295.955L245.878 282.227L263.16 272.182C266.271 273.248 270.327 273.014 272.97 271.48C276.125 269.652 276.108 266.688 272.944 264.868C269.772 263.039 264.659 263.039 261.513 264.868C258.861 266.41 258.506 268.768 260.343 270.562L240.28 282.218L266.869 297.576L238.711 313.938L241.51 315.55L293.848 285.139L310.74 294.889L335.734 280.364C338.846 281.43 342.902 281.196 345.562 279.653C348.7 277.833 348.682 274.869 345.528 273.049" fill="#D1D1D1"/>
<path d="M312.742 230.968L309.934 229.348L278.145 247.816L260.56 237.668L220.2 261.128C217.106 260.054 213.05 260.288 210.389 261.83C207.252 263.65 207.269 266.614 210.424 268.434C213.596 270.263 218.709 270.263 221.846 268.434C224.507 266.883 224.871 264.526 223.016 262.74L260.604 240.9L278.188 251.049L312.751 230.96" fill="#D1D1D1"/>
<path d="M185.947 177.24L263.583 132.122L263.592 132.113C265.897 130.77 268.523 130.232 271.097 130.449V130.458C272.949 130.614 274.767 131.143 276.429 132.104L354.61 177.24H375.705V191.626C375.705 192.918 375.072 194.209 373.798 194.946L277.113 251.132C275.241 252.215 273.17 252.77 271.09 252.839V252.831C268.735 252.908 266.372 252.353 264.268 251.141L166.915 194.938C165.641 194.201 165 192.91 165 191.618V177.24H185.947Z" fill="#D1D1D1"/>
<path d="M275.936 118.583L276.436 117.718L275.936 118.583C272.268 116.466 267.754 116.474 264.094 118.599L167.409 174.785C165.527 175.88 165.532 178.595 167.415 179.684L275.936 118.583ZM275.936 118.583L373.288 174.786C375.172 175.876 375.178 178.591 373.294 179.686L276.61 235.872C272.95 237.997 268.436 238.005 264.768 235.888L167.416 179.685L275.936 118.583Z" fill="white" stroke="#D1D1D1" stroke-width="2"/>
<path d="M345.528 181.04C342.373 179.22 337.26 179.22 334.122 181.04C331.462 182.592 331.08 184.94 332.926 186.734L310.705 199.648L293.831 189.906L269.66 203.955L245.878 190.227L263.16 180.182C266.271 181.248 270.327 181.014 272.97 179.48C276.125 177.652 276.108 174.688 272.944 172.868C269.772 171.039 264.659 171.039 261.513 172.868C258.861 174.41 258.506 176.768 260.343 178.562L240.28 190.218L266.869 205.576L238.711 221.938L241.51 223.55L293.848 193.139L310.74 202.889L335.734 188.364C338.846 189.43 342.902 189.196 345.562 187.653C348.7 185.833 348.682 182.869 345.528 181.049" fill="#D1D1D1"/>
<path d="M312.742 138.968L309.934 137.348L278.145 155.816L260.56 145.668L220.2 169.128C217.106 168.054 213.05 168.288 210.389 169.83C207.252 171.65 207.269 174.614 210.424 176.434C213.596 178.263 218.709 178.263 221.846 176.434C224.507 174.883 224.871 172.526 223.016 170.74L260.604 148.9L278.188 159.049L312.751 138.96" fill="#D1D1D1"/>
<path fill-rule="evenodd" clip-rule="evenodd" d="M319 128H289V172.731C289 181.525 280.941 186 271 186C261.059 186 253 181.525 253 172.731V128H223L271 74L319 128ZM253 244.636V266.001C253 275.942 261.059 281.001 271 281.001C280.941 281.001 289 275.942 289 266.001V244.225L277.113 251.132C275.241 252.216 273.17 252.77 271.09 252.84V252.832C268.735 252.908 266.372 252.354 264.268 251.142L253 244.636ZM253 336.636V361.001C253 370.942 261.059 376.001 271 376.001C280.941 376.001 289 370.942 289 361.001V336.225L277.113 343.132C275.241 344.216 273.17 344.77 271.09 344.84V344.832C268.735 344.908 266.372 344.354 264.268 343.142L253 336.636Z" fill="url(#paint0_linear_17493_7231)"/>
<defs>
<linearGradient id="paint0_linear_17493_7231" x1="251.5" y1="61" x2="247.5" y2="369" gradientUnits="userSpaceOnUse">
<stop offset="0.21" stop-color="#ED1E79"/>
<stop offset="1" stop-color="#522785"/>
</linearGradient>
</defs>
</svg>
