<svg fill="none" height="308" viewBox="0 0 541 308" width="541" xmlns="http://www.w3.org/2000/svg" xmlns:xlink="http://www.w3.org/1999/xlink"><linearGradient id="a"><stop offset=".21" stop-color="#ed1e79"/><stop offset="1" stop-color="#522785"/></linearGradient><linearGradient id="b" gradientUnits="userSpaceOnUse" x1="318.828" x2="245.429" xlink:href="#a" y1="109.627" y2="2.57737"/><linearGradient id="c" gradientUnits="userSpaceOnUse" x1="244.914" x2="153.318" xlink:href="#a" y1="207.701" y2="161.637"/><linearGradient id="d" gradientUnits="userSpaceOnUse" x1="344.914" x2="253.318" xlink:href="#a" y1="207.701" y2="161.636"/><radialGradient id="e" cx="0" cy="0" gradientTransform="matrix(93.88918959 117.50355623 -158.11383275 126.33813049 223.418 67.6313)" gradientUnits="userSpaceOnUse" r="1" xlink:href="#a"/><clipPath id="f"><rect height="169" rx="84.5" width="169" x="187" y="48"/></clipPath><g stroke="#cbc7c6" stroke-linecap="round" stroke-width="2"><path d="m407 28.3849 40.5-23.3849 40.5 23.3849-40.5 23.385z" fill="#fff" stroke-dasharray="2 6" stroke-linejoin="round"/><path d="m407 72.8185v-44.4318l40.5 23.3849v44.4318z" fill="#fff" stroke-dasharray="2 6" stroke-linejoin="round"/><path d="m447.5 96.2034 40.5-23.3849v-44.4318l-40.5 23.3849z" fill="#fff" stroke-dasharray="2 6" stroke-linejoin="round"/><path d="m54 28.3849 40.5-23.3849 40.5 23.3849-40.5 23.385z" fill="#fff" stroke-dasharray="2 6" stroke-linejoin="round"/><path d="m54 72.8185v-44.4318l40.5 23.3849v44.4318z" fill="#fff" stroke-dasharray="2 6" stroke-linejoin="round"/><path d="m94.5 96.2034 40.5-23.3849v-44.4318l-40.5 23.3849z" fill="#fff" stroke-dasharray="2 6" stroke-linejoin="round"/><path d="m425.501 61-54.509 31.5"/><path d="m115.999 61 54.509 31.5"/></g><path d="m171 77.7406 100-57.7406 100 57.7406-100 57.7404z" stroke="url(#b)" stroke-linejoin="round" stroke-width="1.59544"/><path d="m171 187.45v-109.7078l100 57.7408v109.708z" stroke="url(#c)" stroke-linejoin="round" stroke-width="1.59544"/><path d="m271 245.191 100-57.741v-109.7078l-100 57.7408z" stroke="url(#d)" stroke-linejoin="round" stroke-width="1.59544"/><g clip-path="url(#f)"><rect fill="url(#e)" height="169" rx="84.5" width="169" x="187" y="48"/><g stroke="#fff" stroke-linejoin="round" stroke-width="1.59544"><path d="m171 77.7406 100-57.7406 100 57.7406-100 57.7404z"/><path d="m171 187.45v-109.7078l100 57.7408v109.708z"/><path d="m271 245.191 100-57.741v-109.7078l-100 57.7408z"/></g></g><path d="m325.5 182 86.5 49.987" stroke="#cbc7c6" stroke-linecap="round" stroke-width="2"/><path d="m216.5 182-86.521 50" stroke="#cbc7c6" stroke-linecap="round" stroke-width="2"/><path d="m54 234.385 40.5-23.385 40.5 23.385-40.5 23.385z" style="fill:#fff;stroke:#cbc7c6;stroke-width:2;stroke-linecap:round;stroke-linejoin:round;stroke-dasharray:2 6"/><path d="m54 278.818v-44.431l40.5 23.385v44.431z" style="fill:#fff;stroke:#cbc7c6;stroke-width:2;stroke-linecap:round;stroke-linejoin:round;stroke-dasharray:2 6"/><path d="m94.5 302.203 40.5-23.385v-44.431l-40.5 23.385z" style="fill:#fff;stroke:#cbc7c6;stroke-width:2;stroke-linecap:round;stroke-linejoin:round;stroke-dasharray:2 6"/><path d="m407 234.385 40.5-23.385 40.5 23.385-40.5 23.385z" style="fill:#fff;stroke:#cbc7c6;stroke-width:2;stroke-linecap:round;stroke-linejoin:round;stroke-dasharray:2 6"/><path d="m407 278.818v-44.431l40.5 23.385v44.431z" style="fill:#fff;stroke:#cbc7c6;stroke-width:2;stroke-linecap:round;stroke-linejoin:round;stroke-dasharray:2 6"/><path d="m447.5 302.203 40.5-23.385v-44.431l-40.5 23.385z" style="fill:#fff;stroke:#cbc7c6;stroke-width:2;stroke-linecap:round;stroke-linejoin:round;stroke-dasharray:2 6"/></svg>