<svg width="120" height="120" viewBox="0 0 120 120" fill="none" xmlns="http://www.w3.org/2000/svg">
<g id="Img">
<rect width="120" height="120" fill="#0C0025" fill-opacity="0.1"/>
<g id="Group 1000002871">
<path id="Vector" d="M63.3047 37H58.6075L60.0166 38.4092V47.7934C60.0166 48.1685 59.8712 48.5241 59.6052 48.7886C57.9209 50.4637 51.501 56.85 48.5291 59.822C48.1622 60.1888 48.1622 60.7836 48.5291 61.1505C51.501 64.1225 57.9209 70.5087 59.6052 72.1839C59.8712 72.4484 60.0166 72.8039 60.0166 73.1791V82.5633L58.3726 83.9725H62.3653L60.9561 82.5633V73.1767C60.9561 72.803 61.1045 72.4445 61.3687 72.1803L72.1804 61.3687C72.4447 61.1044 72.8031 60.956 73.1769 60.956H82.0937L83.9726 62.3651V58.6073L82.0937 60.0165H73.1769C72.8031 60.0165 72.4447 59.8681 72.1804 59.6037L61.3687 48.7922C61.1045 48.5279 60.9561 48.1695 60.9561 47.7957V38.4092L63.3047 37Z" fill="#030303"/>
<path id="Vector_2" d="M46.3945 37C41.2061 37 37 41.2061 37 46.3945V74.578C37 79.7664 41.2061 83.9725 46.3945 83.9725H58.6073C59.3856 83.9725 60.0165 83.3416 60.0165 82.5633V73.1791C60.0165 72.8039 59.871 72.4484 59.6051 72.1839C57.9208 70.5087 51.5009 64.1225 48.529 61.1505C48.1621 60.7836 48.1621 60.1888 48.529 59.822C51.5009 56.85 57.9208 50.4637 59.6051 48.7886C59.871 48.5241 60.0165 48.1685 60.0165 47.7934V38.4092C60.0165 37.6309 59.3856 37 58.6073 37H46.3945Z" fill="white"/>
<path id="Vector_3" d="M62.3662 37C61.5879 37 60.957 37.6309 60.957 38.4092V47.7957C60.957 48.1695 61.1054 48.5279 61.3698 48.7922L72.1814 59.6037C72.4456 59.8681 72.8041 60.0165 73.1778 60.0165H82.5644C83.3426 60.0165 83.9735 59.3856 83.9735 58.6073V46.3945C83.9735 41.2061 79.7675 37 74.5791 37H62.3662Z" fill="white"/>
<path id="Vector_4" d="M83.9735 62.3662C83.9735 61.5879 83.3426 60.957 82.5644 60.957H73.1778C72.8041 60.957 72.4456 61.1054 72.1814 61.3698L61.3698 72.1814C61.1054 72.4456 60.957 72.8041 60.957 73.1778V82.5644C60.957 83.3426 61.5879 83.9735 62.3662 83.9735H74.5791C79.7675 83.9735 83.9735 79.7675 83.9735 74.5791V62.3662Z" fill="white"/>
</g>
</g>
</svg>
