<svg xmlns="http://www.w3.org/2000/svg" width="120" height="120" viewBox="0 0 120 120" fill="none">
<rect width="120" height="120" fill="#0C0025" fill-opacity="0.1"/>
<path d="M86.829 46.1218C86.1838 43.7109 84.289 41.8163 81.878 41.1709C77.5127 40 59.9999 40 59.9999 40C59.9999 40 42.4873 40 38.1218 41.1709C35.7109 41.8163 33.8163 43.7109 33.1709 46.1218C32 50.4873 32 59.6009 32 59.6009C32 59.6009 32 68.7146 33.1709 73.0801C33.8163 75.491 35.7109 77.3856 38.1218 78.0309C42.4873 79.2018 59.9999 79.2018 59.9999 79.2018C59.9999 79.2018 77.5127 79.2018 81.878 78.0309C84.289 77.3856 86.1838 75.491 86.829 73.0801C88 68.7146 88 59.6009 88 59.6009C88 59.6009 87.9953 50.4873 86.829 46.1218Z" fill="#FF0000"/>
<path d="M54.3945 68.0012L68.9431 59.6023L54.3945 51.2031V68.0012Z" fill="white"/>
</svg>