<svg width="120" height="120" viewBox="0 0 120 120" fill="none" xmlns="http://www.w3.org/2000/svg">
<g id="Img">
<rect width="120" height="120" fill="#0C0025" fill-opacity="0.1"/>
<path id="Vector" d="M80.3889 41.0041C75.8883 41.0041 70.9815 43.3031 65.8065 47.8363C63.8893 49.526 61.964 51.4758 59.9289 53.7911C52.1544 45.1879 45.505 41.0041 39.6111 41.0041C30.6992 41.0041 22.7012 47.1092 20.5565 55.5418L20.524 55.5783V55.6758C20.1747 57.1056 20 58.5842 20 60.0668C20 70.5791 28.7372 79.1295 39.473 79.1295C44.002 79.1295 49.0916 76.7695 54.1935 72.2973C56.1107 70.6075 58.0361 68.6578 60.0711 66.3425C67.8456 74.9457 74.4991 79.1254 80.4011 79.1254C89.3496 79.1254 97.3719 72.9716 99.4801 64.4902C99.8253 63.0279 100 61.5413 100 60.0627C100 49.5504 91.2018 41 80.3889 41V41.0041ZM71.4161 53.8642C75.8883 49.9444 78.7642 49.1239 80.3889 49.1239C86.5915 49.1239 91.6365 54.0307 91.6365 60.0668C91.6365 66.1028 86.5915 70.969 80.3889 71.0096C80.1858 71.0096 79.9502 70.9893 79.6415 70.9406C76.8266 69.8561 73.8858 68.0485 71.7614 66.1069C70.3031 64.7867 67.5938 61.9718 65.6035 59.8759C67.6466 57.4671 69.5517 55.4971 71.4161 53.8642ZM93.3872 60.0668C93.3872 53.064 87.5542 47.3691 80.3889 47.3691C77.574 47.3691 74.166 49.1117 70.2544 52.5481C68.5443 54.0429 66.7855 55.8302 64.8764 58.0195L64.3849 58.5882L61.1028 55.0909L61.6593 54.4816C63.4709 52.4344 65.2541 50.6431 66.9601 49.1523C71.802 44.9076 76.3189 42.7588 80.3849 42.7588C90.231 42.7588 98.2412 50.5212 98.2412 60.0668C98.2412 61.4113 98.0787 62.7477 97.7659 64.0069C97.6481 64.3277 96.982 66.0053 95.2313 67.6382C93.1191 69.6123 90.3448 70.7334 86.9734 70.9812C90.9094 68.7106 93.3831 64.5715 93.3831 60.0627L93.3872 60.0668ZM48.588 66.2653C44.1158 70.1851 41.2399 71.0056 39.6151 71.0056C33.4125 71.0056 28.3676 66.0947 28.3676 60.0627C28.3676 54.0307 33.4125 49.1604 39.6151 49.1198C39.8223 49.1198 40.066 49.1442 40.3828 49.1929C43.7258 50.4846 46.6301 52.5237 48.2386 54.0063C49.7131 55.3508 52.4143 58.1658 54.4006 60.2536C52.3534 62.6664 50.4524 64.6324 48.588 66.2653ZM26.6128 60.0668C26.6128 67.0696 32.4458 72.7644 39.6111 72.7644C42.426 72.7644 45.834 71.0218 49.7456 67.5854C51.4557 66.0906 53.2145 64.2993 55.1236 62.114L55.6151 61.5453C56.8093 62.8208 58.3691 64.4902 58.8769 65.0305L58.3366 65.6519C56.525 67.6992 54.7418 69.4905 53.0358 70.9812C48.2711 75.165 43.5796 77.3747 39.473 77.3747C34.7083 77.3747 30.2523 75.5671 26.9175 72.2892C23.5867 69.0274 21.7548 64.6852 21.7548 60.0668C21.7548 58.7223 21.9172 57.3859 22.23 56.1267C22.3478 55.8058 23.014 54.1282 24.7647 52.4953C26.8809 50.5212 29.6512 49.4001 33.0226 49.1523C29.0866 51.4229 26.6128 55.5621 26.6128 60.0708V60.0668Z" fill="white"/>
</g>
</svg>
