<svg width="119" height="118" viewBox="0 0 119 118" fill="none" xmlns="http://www.w3.org/2000/svg">
<path d="M1 84.45H0.115C0.115 84.7719 0.289818 85.0685 0.571497 85.2243L1 84.45ZM59.08 116.59L58.6515 117.364C58.9181 117.512 59.2419 117.512 59.5085 117.364L59.08 116.59ZM1 30.91L0.593599 30.1238C0.299628 30.2758 0.115 30.5791 0.115 30.91H1ZM8.69 81.62H7.805C7.805 81.942 7.97985 82.2385 8.26156 82.3944L8.69 81.62ZM51.4 105.25L50.9716 106.024C51.2457 106.176 51.5796 106.171 51.8495 106.012C52.1194 105.853 52.285 105.563 52.285 105.25H51.4ZM51.4 65.88H52.285C52.285 65.558 52.1102 65.2615 51.8284 65.1056L51.4 65.88ZM8.69 42.25L9.11844 41.4756C8.8443 41.3239 8.51041 41.3285 8.24052 41.4876C7.97064 41.6468 7.805 41.9367 7.805 42.25H8.69ZM50.5306 78.6593C50.9611 78.8909 51.4977 78.7298 51.7293 78.2994C51.9609 77.8689 51.7998 77.3323 51.3694 77.1007L50.5306 78.6593ZM9.10936 54.3607C8.67894 54.1291 8.14227 54.2902 7.91066 54.7206C7.67906 55.1511 7.84023 55.6877 8.27064 55.9193L9.10936 54.3607ZM109.48 81.62L109.908 82.3944C110.19 82.2385 110.365 81.942 110.365 81.62H109.48ZM66.77 105.25H65.885C65.885 105.563 66.0506 105.853 66.3205 106.012C66.5904 106.171 66.9243 106.176 67.1984 106.024L66.77 105.25ZM66.77 65.88L66.3416 65.1056C66.0599 65.2615 65.885 65.558 65.885 65.88H66.77ZM109.48 42.25H110.365C110.365 41.9367 110.199 41.6468 109.929 41.4876C109.66 41.3285 109.326 41.3239 109.052 41.4756L109.48 42.25ZM117.16 84.45L117.589 85.2243C117.87 85.0685 118.045 84.7719 118.045 84.45H117.16ZM117.16 30.91H118.045C118.045 30.5967 117.879 30.3067 117.609 30.1476C117.34 29.9885 117.006 29.984 116.731 30.1357L117.16 30.91ZM59.18 63.04L58.7522 63.8147C59.0196 63.9624 59.3442 63.9617 59.611 63.8129L59.18 63.04ZM58.86 1L59.2633 0.212233C59.009 0.0820278 58.7074 0.0826226 58.4536 0.21383L58.86 1ZM117.03 30.78L117.461 31.5529C117.746 31.3939 117.921 31.0908 117.915 30.7643C117.909 30.4378 117.724 30.141 117.433 29.9922L117.03 30.78ZM83.6544 72.2359C83.9007 71.8137 83.7581 71.2718 83.3359 71.0256C82.9137 70.7793 82.3718 70.9219 82.1256 71.3441L83.6544 72.2359ZM76.73 82.35L75.9656 81.9041C75.8277 82.1404 75.8069 82.4271 75.9092 82.6808C76.0114 82.9345 76.2252 83.1267 76.4884 83.2014L76.73 82.35ZM82.4084 84.8814C82.8786 85.0148 83.368 84.7418 83.5014 84.2716C83.6348 83.8014 83.3618 83.312 82.8916 83.1786L82.4084 84.8814ZM95.1759 74.1335C94.9293 74.5555 95.0715 75.0976 95.4935 75.3441C95.9156 75.5907 96.4576 75.4485 96.7041 75.0265L95.1759 74.1335ZM102.11 64.02L102.874 64.4665C103.012 64.2302 103.033 63.9433 102.931 63.6895C102.829 63.4356 102.615 63.2433 102.352 63.1686L102.11 64.02ZM96.4316 61.4886C95.9614 61.3552 95.4721 61.6282 95.3386 62.0984C95.2052 62.5686 95.4782 63.0579 95.9484 63.1914L96.4316 61.4886ZM91.396 65.3359C91.4655 64.8521 91.1297 64.4035 90.6459 64.334C90.1621 64.2645 89.7135 64.6003 89.644 65.0841L91.396 65.3359ZM87.454 80.3241C87.3845 80.8079 87.7203 81.2565 88.2041 81.326C88.6879 81.3955 89.1365 81.0597 89.206 80.5759L87.454 80.3241ZM15.2896 53.7794L14.9241 52.9734L15.2896 53.7794ZM13.7451 50.3732L13.3797 49.5672L13.7451 50.3732ZM21.4562 56.9668L21.0908 56.1608L21.4562 56.9668ZM19.9118 53.5606L19.5463 52.7546L19.9118 53.5606ZM60.81 39.7301L61.3199 39.0067L61.298 38.9912L61.2751 38.9771L60.81 39.7301ZM0.571497 85.2243L58.6515 117.364L59.5085 115.816L1.4285 83.6757L0.571497 85.2243ZM59.965 116.59V63.05H58.195V116.59H59.965ZM59.5085 62.2757L1.4285 30.1357L0.571497 31.6843L58.6515 63.8243L59.5085 62.2757ZM0.115 30.91V84.45H1.885V30.91H0.115ZM8.26156 82.3944L50.9716 106.024L51.8284 104.476L9.11844 80.8456L8.26156 82.3944ZM52.285 105.25V65.88H50.515V105.25H52.285ZM51.8284 65.1056L9.11844 41.4756L8.26156 43.0244L50.9716 66.6544L51.8284 65.1056ZM7.805 42.25V81.62H9.575V42.25H7.805ZM51.3694 77.1007L9.10936 54.3607L8.27064 55.9193L50.5306 78.6593L51.3694 77.1007ZM109.052 80.8456L66.3416 104.476L67.1984 106.024L109.908 82.3944L109.052 80.8456ZM67.655 105.25V65.88H65.885V105.25H67.655ZM67.1984 66.6544L109.908 43.0244L109.052 41.4756L66.3416 65.1056L67.1984 66.6544ZM108.595 42.25V81.62H110.365V42.25H108.595ZM116.731 83.6757L58.6515 115.816L59.5085 117.364L117.589 85.2243L116.731 83.6757ZM59.5085 63.8243L117.589 31.6843L116.731 30.1357L58.6515 62.2757L59.5085 63.8243ZM116.275 30.91V84.45H118.045V30.91H116.275ZM59.6078 62.2653L1.42784 30.1353L0.572163 31.6847L58.7522 63.8147L59.6078 62.2653ZM1.4064 31.6962L59.2664 1.78617L58.4536 0.21383L0.593599 30.1238L1.4064 31.6962ZM58.4567 1.78777L116.627 31.5678L117.433 29.9922L59.2633 0.212233L58.4567 1.78777ZM116.599 30.0071L58.749 62.2671L59.611 63.8129L117.461 31.5529L116.599 30.0071ZM82.1256 71.3441L75.9656 81.9041L77.4944 82.7959L83.6544 72.2359L82.1256 71.3441ZM76.4884 83.2014L82.4084 84.8814L82.8916 83.1786L76.9716 81.4986L76.4884 83.2014ZM96.7041 75.0265L102.874 64.4665L101.346 63.5735L95.1759 74.1335L96.7041 75.0265ZM102.352 63.1686L96.4316 61.4886L95.9484 63.1914L101.868 64.8714L102.352 63.1686ZM89.644 65.0841L87.454 80.3241L89.206 80.5759L91.396 65.3359L89.644 65.0841ZM15.0228 51.8471C15.1623 52.1548 15.1784 52.448 15.1292 52.6579C15.0802 52.8666 14.9848 52.9459 14.9241 52.9734L15.655 54.5854C17.0076 53.9721 17.1687 52.2935 16.6349 51.1162L15.0228 51.8471ZM14.9241 52.9734C14.8634 53.0009 14.7409 53.0204 14.5517 52.9197C14.3613 52.8185 14.1514 52.6132 14.0119 52.3055L12.3998 53.0364C12.9336 54.2137 14.3024 55.1987 15.655 54.5854L14.9241 52.9734ZM14.0119 52.3055C13.8724 51.9978 13.8563 51.7046 13.9055 51.4947C13.9545 51.286 14.0499 51.2067 14.1106 51.1792L13.3797 49.5672C12.0271 50.1804 11.8661 51.8591 12.3998 53.0364L14.0119 52.3055ZM14.1106 51.1792C14.1713 51.1517 14.2938 51.1322 14.483 51.2329C14.6734 51.3341 14.8833 51.5394 15.0228 51.8471L16.6349 51.1162C16.1011 49.9389 14.7323 48.9539 13.3797 49.5672L14.1106 51.1792ZM21.1895 55.0345C21.329 55.3423 21.3451 55.6354 21.2958 55.8453C21.2468 56.054 21.1514 56.1333 21.0908 56.1608L21.8217 57.7729C23.1743 57.1596 23.3353 55.4809 22.8015 54.3036L21.1895 55.0345ZM21.0908 56.1608C21.0301 56.1883 20.9076 56.2078 20.7183 56.1072C20.528 56.0059 20.3181 55.8006 20.1785 55.4929L18.5665 56.2238C19.1003 57.4011 20.4691 58.3861 21.8217 57.7729L21.0908 56.1608ZM20.1785 55.4929C20.039 55.1852 20.0229 54.892 20.0722 54.6821C20.1212 54.4734 20.2166 54.3941 20.2773 54.3666L19.5463 52.7546C18.1938 53.3679 18.0327 55.0465 18.5665 56.2238L20.1785 55.4929ZM20.2773 54.3666C20.3379 54.3391 20.4605 54.3196 20.6497 54.4203C20.84 54.5215 21.05 54.7268 21.1895 55.0345L22.8015 54.3036C22.2677 53.1263 20.8989 52.1413 19.5463 52.7546L20.2773 54.3666ZM63.49 29.9401C63.7777 30.777 63.7774 30.7771 63.7772 30.7772C63.7771 30.7772 63.7769 30.7773 63.7768 30.7773C63.7765 30.7774 63.7764 30.7774 63.7764 30.7774C63.7763 30.7775 63.7767 30.7774 63.7774 30.7771C63.7788 30.7766 63.7817 30.7757 63.7861 30.7742C63.795 30.7713 63.8099 30.7664 63.8305 30.7599C63.8718 30.7468 63.9362 30.727 64.0222 30.7023C64.1944 30.6528 64.4526 30.5838 64.785 30.5096C65.4503 30.3611 66.4085 30.193 67.5637 30.1195C69.8778 29.9724 72.9497 30.2066 76.044 31.7064L76.816 30.1137C73.3703 28.4435 69.9722 28.1928 67.4513 28.3531C66.189 28.4334 65.1385 28.6171 64.3994 28.7821C64.0296 28.8646 63.7367 28.9427 63.5333 29.0012C63.4316 29.0304 63.3521 29.0548 63.2965 29.0724C63.2686 29.0812 63.2467 29.0883 63.231 29.0935C63.2231 29.0961 63.2168 29.0982 63.212 29.0998C63.2096 29.1006 63.2076 29.1013 63.206 29.1019C63.2052 29.1022 63.2045 29.1024 63.2038 29.1026C63.2035 29.1027 63.2032 29.1028 63.203 29.1029C63.2026 29.103 63.2023 29.1031 63.49 29.9401ZM76.044 31.7064C77.5707 32.4464 78.4481 33.2731 78.9111 34.0558C79.3667 34.8261 79.4589 35.6162 79.3049 36.3818C78.9851 37.9714 77.5853 39.4808 76.0763 40.1388L76.7837 41.7613C78.7147 40.9193 80.5849 38.9938 81.0401 36.7309C81.2736 35.5702 81.1295 34.3297 80.4345 33.1547C79.7469 31.9921 78.5593 30.9587 76.816 30.1137L76.044 31.7064ZM76.0763 40.1388C72.7666 41.582 66.8854 42.9298 61.3199 39.0067L60.3001 40.4534C66.5946 44.8903 73.2134 43.3181 76.7837 41.7613L76.0763 40.1388ZM60.81 39.7301C61.2751 38.9771 61.2754 38.9773 61.2757 38.9775C61.2758 38.9776 61.2761 38.9777 61.2762 38.9778C61.2766 38.978 61.2769 38.9782 61.2771 38.9784C61.2776 38.9787 61.278 38.9789 61.2782 38.979C61.2786 38.9793 61.2784 38.9792 61.2777 38.9787C61.2762 38.9778 61.2724 38.9753 61.2665 38.9715C61.2547 38.9637 61.2345 38.9502 61.2072 38.9311C61.1524 38.8927 61.0698 38.8323 60.9697 38.7508C60.7678 38.5866 60.5029 38.3439 60.2504 38.032C59.7436 37.4059 59.3317 36.5628 59.4766 35.5221L57.7235 35.2781C57.4883 36.9674 58.1814 38.2893 58.8746 39.1456C59.2221 39.575 59.581 39.9029 59.8528 40.124C59.9895 40.2352 60.1064 40.3211 60.1918 40.3809C60.2345 40.4108 60.2696 40.4344 60.2955 40.4514C60.3085 40.4599 60.3192 40.4668 60.3275 40.4721C60.3316 40.4747 60.3352 40.4769 60.3381 40.4787C60.3395 40.4797 60.3408 40.4805 60.342 40.4812C60.3425 40.4815 60.3431 40.4818 60.3435 40.4822C60.3438 40.4823 60.3441 40.4825 60.3442 40.4826C60.3446 40.4828 60.3449 40.483 60.81 39.7301ZM59.4766 35.5221C59.6499 34.2768 60.1781 31.9673 60.2372 29.7651C60.2966 27.5523 59.9108 25.0576 57.9832 23.4674L56.8568 24.8327C58.1293 25.8825 58.5234 27.6478 58.4678 29.7176C58.412 31.7978 57.9301 33.7933 57.7235 35.2781L59.4766 35.5221ZM57.9832 23.4674C54.5173 20.608 47.7186 19.1246 41.3641 21.7313L42.0359 23.3688C47.8214 20.9955 53.9227 22.4121 56.8568 24.8327L57.9832 23.4674ZM41.3641 21.7313C38.1214 23.0615 36.4561 25.2701 36.5519 27.7172C36.645 30.0939 38.3955 32.2852 41.0566 33.6478L41.8634 32.0723C39.5445 30.885 38.38 29.1662 38.3206 27.6479C38.2639 26.2001 39.2086 24.5286 42.0359 23.3688L41.3641 21.7313ZM41.0566 33.6478C43.72 35.0116 46.8155 35.3838 49.1898 35.4311C50.3865 35.455 51.4219 35.3967 52.1599 35.3322C52.5292 35.2999 52.8251 35.266 53.0306 35.2398C53.1334 35.2268 53.2137 35.2156 53.2694 35.2076C53.2972 35.2035 53.3189 35.2003 53.3342 35.1979C53.3418 35.1968 53.3478 35.1958 53.3522 35.1951C53.3544 35.1948 53.3562 35.1945 53.3576 35.1943C53.3583 35.1942 53.3589 35.1941 53.3593 35.194C53.3596 35.194 53.3599 35.1939 53.36 35.1939C53.3602 35.1939 53.3605 35.1938 53.22 34.3201C53.0795 33.4463 53.0797 33.4463 53.0799 33.4462C53.0799 33.4462 53.08 33.4462 53.08 33.4462C53.0801 33.4462 53.0801 33.4462 53.0799 33.4462C53.0797 33.4463 53.079 33.4464 53.0779 33.4465C53.0758 33.4469 53.072 33.4475 53.0666 33.4483C53.056 33.4499 53.039 33.4525 53.0159 33.4558C52.9698 33.4625 52.8996 33.4722 52.8073 33.484C52.6226 33.5075 52.3499 33.5388 52.0058 33.5689C51.3168 33.6291 50.346 33.6839 49.2252 33.6615C46.9645 33.6164 44.18 33.2586 41.8634 32.0723L41.0566 33.6478Z" fill="url(#paint0_linear_6068_95249)"/>
<defs>
<linearGradient id="paint0_linear_6068_95249" x1="1" y1="1" x2="119.731" y2="27.7433" gradientUnits="userSpaceOnUse">
<stop stop-color="#3B00B9"/>
<stop offset="1" stop-color="#2586B6"/>
</linearGradient>
</defs>
</svg>
