<svg width="109" height="119" viewBox="0 0 109 119" fill="none" xmlns="http://www.w3.org/2000/svg">
<path d="M107.98 28.56L108.601 29.1904C108.769 29.0249 108.864 28.7991 108.865 28.5632C108.866 28.3273 108.772 28.1008 108.606 27.9341L107.98 28.56ZM58.62 27.675C58.1312 27.675 57.735 28.0712 57.735 28.56C57.735 29.0488 58.1312 29.445 58.62 29.445V27.675ZM83.6089 51.3296C83.2607 51.6726 83.2565 52.233 83.5996 52.5811C83.9426 52.9293 84.5029 52.9335 84.8511 52.5904L83.6089 51.3296ZM84.6756 4.01408C84.33 3.66854 83.7696 3.66865 83.4241 4.01434C83.0785 4.36003 83.0786 4.92038 83.4243 5.26592L84.6756 4.01408ZM1.13 28.3L2.01054 28.211L2.00997 28.2057L1.13 28.3ZM49.47 28.3L48.59 28.2057L48.5895 28.211L49.47 28.3ZM1.02997 90.47L0.404179 89.8442C0.237404 90.011 0.144099 90.2374 0.144974 90.4733C0.14585 90.7091 0.240833 90.9349 0.408841 91.1004L1.02997 90.47ZM50.39 91.355C50.8788 91.355 51.275 90.9588 51.275 90.47C51.275 89.9812 50.8788 89.585 50.39 89.585V91.355ZM24.1588 114.5C24.507 114.843 25.0673 114.839 25.4104 114.491C25.7534 114.143 25.7493 113.583 25.4011 113.24L24.1588 114.5ZM25.5858 67.1658C25.9314 66.8202 25.9314 66.2598 25.5858 65.9142C25.2402 65.5686 24.6798 65.5686 24.3342 65.9142L25.5858 67.1658ZM107.87 90.18L106.99 90.0846L106.985 90.1321V90.18H107.87ZM59.53 90.18H60.415V90.1321L60.4098 90.0846L59.53 90.18ZM84.935 80.42C84.935 79.9312 84.5388 79.535 84.05 79.535C83.5612 79.535 83.165 79.9312 83.165 80.42H84.935ZM83.165 100.1C83.165 100.589 83.5612 100.985 84.05 100.985C84.5388 100.985 84.935 100.589 84.935 100.1H83.165ZM76.06 79.535C75.5712 79.535 75.175 79.9312 75.175 80.42C75.175 80.9088 75.5712 81.305 76.06 81.305V79.535ZM92.04 81.305C92.5287 81.305 92.925 80.9088 92.925 80.42C92.925 79.9312 92.5287 79.535 92.04 79.535V81.305ZM25.36 9.72L26.1251 9.2753C25.9672 9.0035 25.6769 8.8359 25.3625 8.835C25.0481 8.83411 24.7569 9.00005 24.5974 9.27094L25.36 9.72ZM33.7 24.07L34.092 24.8635C34.3117 24.7549 34.4766 24.5601 34.5474 24.3254C34.6181 24.0907 34.5883 23.8372 34.4652 23.6253L33.7 24.07ZM25.36 28.19L24.9721 28.9855C25.2184 29.1055 25.5063 29.1048 25.752 28.9835L25.36 28.19ZM16.91 24.07L16.1474 23.6209C16.0221 23.8336 15.9914 24.0889 16.0626 24.3252C16.1337 24.5615 16.3003 24.7573 16.5221 24.8655L16.91 24.07ZM25.36 39.81V40.695C25.6552 40.695 25.9311 40.5477 26.0953 40.3024L25.36 39.81ZM33.69 27.37L34.4254 27.8624C34.651 27.5254 34.6187 27.0781 34.347 26.777C34.0752 26.4759 33.6336 26.3981 33.2753 26.5882L33.69 27.37ZM26.15 31.37L26.5634 32.1525L26.5647 32.1518L26.15 31.37ZM24.44 31.37L24.0253 32.1518L24.0266 32.1525L24.44 31.37ZM16.9 27.37L17.3147 26.5882C16.9554 26.3976 16.5125 26.4764 16.241 26.7792C15.9695 27.082 15.9394 27.5309 16.1679 27.8673L16.9 27.37ZM25.35 39.81L24.6179 40.3073C24.7826 40.5498 25.0568 40.695 25.35 40.695V39.81ZM107.98 27.675H58.62V29.445H107.98V27.675ZM84.8511 52.5904L108.601 29.1904L107.359 27.9296L83.6089 51.3296L84.8511 52.5904ZM108.606 27.9341L84.6756 4.01408L83.4243 5.26592L107.354 29.1859L108.606 27.9341ZM48.715 30.85C48.715 44.0363 38.2162 54.705 25.3 54.705V56.475C39.2237 56.475 50.485 44.9837 50.485 30.85H48.715ZM25.3 54.705C12.3837 54.705 1.885 44.0363 1.885 30.85H0.115C0.115 44.9837 11.3762 56.475 25.3 56.475V54.705ZM1.885 30.85C1.885 30.0173 1.92374 29.1991 2.00997 28.3943L0.250041 28.2057C0.156271 29.0809 0.115 29.9627 0.115 30.85H1.885ZM0.249488 28.389C1.55336 41.2931 12.2579 51.375 25.3 51.375V49.605C13.2021 49.605 3.22665 40.2469 2.01052 28.211L0.249488 28.389ZM25.3 51.375C38.3421 51.375 49.0466 41.2931 50.3505 28.389L48.5895 28.211C47.3733 40.2469 37.3979 49.605 25.3 49.605V51.375ZM48.59 28.3943C48.6762 29.1991 48.715 30.0173 48.715 30.85H50.485C50.485 29.9627 50.4437 29.0809 50.3499 28.2057L48.59 28.3943ZM48.715 25.74C48.715 26.5828 48.6762 27.4011 48.59 28.2057L50.3499 28.3943C50.4437 27.5189 50.485 26.6372 50.485 25.74H48.715ZM2.00997 28.2057C1.92376 27.4011 1.885 26.5828 1.885 25.74H0.115C0.115 26.6372 0.156254 27.5189 0.250041 28.3943L2.00997 28.2057ZM1.885 25.74C1.885 12.5537 12.3837 1.885 25.3 1.885V0.115C11.3762 0.115 0.115 11.6063 0.115 25.74H1.885ZM25.3 1.885C38.2162 1.885 48.715 12.5537 48.715 25.74H50.485C50.485 11.6063 39.2237 0.115 25.3 0.115V1.885ZM1.02997 91.355H50.39V89.585H1.02997V91.355ZM25.4011 113.24L1.6511 89.8396L0.408841 91.1004L24.1588 114.5L25.4011 113.24ZM1.65576 91.0958L25.5858 67.1658L24.3342 65.9142L0.404179 89.8442L1.65576 91.0958ZM107.115 92.75C107.115 105.947 96.616 116.615 83.7 116.615V118.385C97.624 118.385 108.885 106.893 108.885 92.75H107.115ZM83.7 116.615C70.784 116.615 60.285 105.947 60.285 92.75H58.515C58.515 106.893 69.776 118.385 83.7 118.385V116.615ZM60.285 92.75C60.285 91.9273 60.3237 91.1095 60.4098 90.3154L58.6501 90.1246C58.5562 90.9905 58.515 91.8727 58.515 92.75H60.285ZM58.6495 90.309C59.9534 103.203 70.6582 113.285 83.7 113.285V111.515C71.6019 111.515 61.6266 102.157 60.4105 90.131L58.6495 90.309ZM83.7 113.285C96.7419 113.285 107.447 103.203 108.751 90.309L106.989 90.131C105.773 102.157 95.7982 111.515 83.7 111.515V113.285ZM106.99 90.3154C107.076 91.1095 107.115 91.9273 107.115 92.75H108.885C108.885 91.8727 108.844 90.9905 108.75 90.1246L106.99 90.3154ZM107.115 87.65C107.115 88.4727 107.076 89.2905 106.99 90.0846L108.75 90.2754C108.844 89.4095 108.885 88.5273 108.885 87.65H107.115ZM106.985 90.18V90.22H108.755V90.18H106.985ZM60.415 90.22V90.18H58.645V90.22H60.415ZM60.4098 90.0846C60.3237 89.2905 60.285 88.4727 60.285 87.65H58.515C58.515 88.5273 58.5562 89.4095 58.6501 90.2754L60.4098 90.0846ZM60.285 87.65C60.285 74.4534 70.784 63.785 83.7 63.785V62.015C69.776 62.015 58.515 73.5066 58.515 87.65H60.285ZM83.7 63.785C96.616 63.785 107.115 74.4534 107.115 87.65H108.885C108.885 73.5066 97.624 62.015 83.7 62.015V63.785ZM83.165 80.42V100.1H84.935V80.42H83.165ZM76.06 81.305H92.04V79.535H76.06V81.305ZM24.5948 10.1647L32.9349 24.5147L34.4652 23.6253L26.1251 9.2753L24.5948 10.1647ZM33.308 23.2765L24.968 27.3965L25.752 28.9835L34.092 24.8635L33.308 23.2765ZM25.7478 27.3945L17.2978 23.2745L16.5221 24.8655L24.9721 28.9855L25.7478 27.3945ZM17.6726 24.5191L26.1226 10.1691L24.5974 9.27094L16.1474 23.6209L17.6726 24.5191ZM26.0953 40.3024L34.4254 27.8624L32.9546 26.8776L24.6246 39.3176L26.0953 40.3024ZM33.2753 26.5882L25.7352 30.5882L26.5647 32.1518L34.1047 28.1518L33.2753 26.5882ZM25.7366 30.5875C25.4652 30.7308 25.1247 30.7308 24.8534 30.5875L24.0266 32.1525C24.8153 32.5692 25.7747 32.5692 26.5634 32.1525L25.7366 30.5875ZM24.8547 30.5882L17.3147 26.5882L16.4852 28.1518L24.0253 32.1518L24.8547 30.5882ZM16.1679 27.8673L24.6179 40.3073L26.0821 39.3127L17.632 26.8727L16.1679 27.8673ZM25.35 40.695H25.36V38.925H25.35V40.695ZM24.475 9.72V28.19H26.245V9.72H24.475ZM91.155 88.47C91.155 88.6145 91.0878 88.8342 90.7938 89.1213C90.4969 89.4113 90.0214 89.7131 89.3619 89.9855C88.0471 90.5285 86.1696 90.885 84.05 90.885V92.655C86.3432 92.655 88.4606 92.2728 90.0376 91.6214C90.8241 91.2966 91.5187 90.8874 92.0304 90.3877C92.545 89.8852 92.925 89.2368 92.925 88.47H91.155ZM84.05 90.885C81.9304 90.885 80.0528 90.5285 78.7381 89.9855C78.0786 89.7131 77.6031 89.4113 77.3062 89.1213C77.0122 88.8342 76.945 88.6145 76.945 88.47H75.175C75.175 89.2368 75.555 89.8852 76.0696 90.3877C76.5813 90.8874 77.2759 91.2966 78.0624 91.6214C79.6394 92.2728 81.7568 92.655 84.05 92.655V90.885ZM76.945 88.47C76.945 88.3255 77.0122 88.1058 77.3062 87.8187C77.6031 87.5288 78.0786 87.2269 78.738 86.9545C80.0528 86.4115 81.9304 86.055 84.05 86.055V84.285C81.7568 84.285 79.6394 84.6672 78.0624 85.3186C77.2759 85.6434 76.5813 86.0526 76.0696 86.5523C75.555 87.0548 75.175 87.7032 75.175 88.47H76.945ZM84.05 86.055C86.1696 86.055 88.0471 86.4115 89.3619 86.9545C90.0214 87.2269 90.4969 87.5288 90.7938 87.8187C91.0878 88.1058 91.155 88.3255 91.155 88.47H92.925C92.925 87.7032 92.545 87.0548 92.0304 86.5523C91.5187 86.0526 90.8241 85.6434 90.0376 85.3186C88.4606 84.6672 86.3432 84.285 84.05 84.285V86.055Z" fill="url(#paint0_linear_6068_95248)"/>
<defs>
<linearGradient id="paint0_linear_6068_95248" x1="1" y1="1" x2="111.245" y2="23.695" gradientUnits="userSpaceOnUse">
<stop stop-color="#3B00B9"/>
<stop offset="1" stop-color="#2586B6"/>
</linearGradient>
</defs>
</svg>
