<svg xmlns="http://www.w3.org/2000/svg" width="120" height="120" fill="none" viewBox="0 0 120 120"><path fill="url(#a)" d="M55.1655 22.4316L56.0473 22.5069L56.0474 22.5058L55.1655 22.4316ZM11.0355 22.4316L11.9166 22.3489L11.9165 22.3484L11.0355 22.4316ZM11.0655 16.6616L11.947 16.5837L10.1902 16.5309L11.0655 16.6616ZM55.1255 16.8016L56.002 16.6797L54.2464 16.6994L55.1255 16.8016ZM55.1274 16.8005L54.2596 16.627L54.2525 16.6624L54.2484 16.6983L55.1274 16.8005ZM11.0674 16.6605L11.949 16.5826L11.9476 16.5667L11.9456 16.5508L11.0674 16.6605ZM42.6364 77.4915H43.5214V76.3778L42.4365 76.6293L42.6364 77.4915ZM42.6364 83.7015L42.8439 84.5618L43.5214 84.3983V83.7015H42.6364ZM11.0164 74.1415L11.8982 74.0662L11.8981 74.0659L11.0164 74.1415ZM11.0164 68.8315L11.8954 68.9345L11.9014 68.8832V68.8315H11.0164ZM11.0564 68.5015L11.9355 68.3994L10.1886 68.3279L11.0564 68.5015ZM42.6479 65.8915L41.7683 65.7937L41.7629 65.8424V65.8915H42.6479ZM42.6479 77.4915L42.8471 78.3538L43.5329 78.1953V77.4915H42.6479ZM11.0579 68.5015L11.937 68.3994L11.9353 68.3848L11.9331 68.3702L11.0579 68.5015ZM50.4979 61.3615L50.9014 62.1492L52.2955 61.4351L50.9644 60.6094L50.4979 61.3615ZM42.7079 65.3515L42.3045 64.5638L41.8809 64.7807L41.8283 65.2537L42.7079 65.3515ZM43.5318 32.4897C43.5318 32.001 43.1356 31.6047 42.6468 31.6047C42.158 31.6047 41.7618 32.001 41.7618 32.4897H43.5318ZM41.7618 54.7097C41.7618 55.1985 42.158 55.5947 42.6468 55.5947C43.1356 55.5947 43.5318 55.1985 43.5318 54.7097H41.7618ZM43.5318 62.1187C43.5318 61.6299 43.1356 61.2337 42.6468 61.2337C42.158 61.2337 41.7618 61.6299 41.7618 62.1187H43.5318ZM41.7618 76.9287C41.7618 77.4174 42.158 77.8137 42.6468 77.8137C43.1356 77.8137 43.5318 77.4174 43.5318 76.9287H41.7618ZM34.4187 20.0098L34.8529 19.2386L34.8295 19.2254L34.8052 19.2137L34.4187 20.0098ZM32.9387 17.5998L32.0648 17.4597L32.0647 17.4606L32.9387 17.5998ZM32.1487 11.2298L31.6594 11.9672L31.6618 11.9688L32.1487 11.2298ZM21.6487 10.7298L21.3277 9.90502L21.327 9.90529L21.6487 10.7298ZM109.117 65.4194H110.002C110.002 65.1061 109.837 64.8161 109.567 64.657C109.297 64.4979 108.963 64.4934 108.689 64.6451L109.117 65.4194ZM109.117 96.0594L109.546 96.8337C109.828 96.6778 110.002 96.3813 110.002 96.0594H109.117ZM75.8773 114.459H74.9923C74.9923 114.773 75.158 115.063 75.4279 115.222C75.6978 115.381 76.0318 115.385 76.3059 115.234L75.8773 114.459ZM75.8773 83.8194L75.4487 83.0452C75.1671 83.201 74.9923 83.4975 74.9923 83.8194H75.8773ZM104.716 94.4416L105.144 95.2159C105.426 95.06 105.601 94.7635 105.601 94.4416H104.716ZM80.2757 107.972H79.3907C79.3907 108.285 79.5564 108.575 79.8263 108.734C80.0963 108.893 80.4302 108.898 80.7044 108.746L80.2757 107.972ZM80.2757 85.4416L79.8471 84.6674C79.5655 84.8232 79.3907 85.1197 79.3907 85.4416H80.2757ZM104.716 71.9116H105.601C105.601 71.5983 105.435 71.3083 105.165 71.1492C104.895 70.9901 104.561 70.9856 104.287 71.1374L104.716 71.9116ZM100.686 96.6718L101.108 97.4498C101.394 97.295 101.571 96.9964 101.571 96.6718H100.686ZM85.4164 104.952H84.5313C84.5313 105.264 84.6956 105.553 84.9636 105.712C85.2317 105.872 85.564 105.878 85.8382 105.73L85.4164 104.952ZM85.4164 88.6118L84.9941 87.834C84.7089 87.9888 84.5313 88.2873 84.5313 88.6118H85.4164ZM100.686 80.3218H101.571C101.571 80.0097 101.407 79.7208 101.139 79.5612C100.871 79.4017 100.538 79.3951 100.264 79.544L100.686 80.3218ZM84.9972 92.8917C84.5667 93.1231 84.4054 93.6598 84.6369 94.0903C84.8683 94.5208 85.405 94.6821 85.8355 94.4506L84.9972 92.8917ZM100.695 86.4606C101.126 86.2292 101.287 85.6925 101.056 85.262C100.824 84.8316 100.288 84.6702 99.8572 84.9017L100.695 86.4606ZM75.879 83.8194H76.764C76.764 83.4842 76.5746 83.1778 76.2748 83.0279L75.879 83.8194ZM75.879 114.459L75.4504 115.234C75.7245 115.385 76.0585 115.381 76.3284 115.222C76.5983 115.063 76.764 114.773 76.764 114.459H75.879ZM42.639 96.0594H41.754C41.754 96.3813 41.9288 96.6778 42.2104 96.8337L42.639 96.0594ZM42.639 65.4194L43.265 64.7939C43.012 64.5406 42.6313 64.4648 42.3005 64.6017C41.9697 64.7387 41.754 65.0614 41.754 65.4194H42.639ZM42.649 65.4294L42.023 66.055C42.0816 66.1136 42.1481 66.1637 42.2206 66.2038L42.649 65.4294ZM75.819 83.8094L75.3875 84.5821C75.6432 84.7249 75.953 84.7319 76.2149 84.6009L75.819 83.8094ZM109.119 65.4201L109.547 66.1948C109.833 66.0369 110.008 65.7344 110.004 65.4078C109.999 65.0813 109.815 64.7838 109.525 64.6338L109.119 65.4201ZM45.5488 66.9301L45.1152 67.7016L45.1179 67.7031L45.5488 66.9301ZM45.5988 63.8701L46.0022 64.6577L46.0023 64.6577L45.5988 63.8701ZM50.4988 61.3601L50.0957 60.5722L50.0953 60.5724L50.4988 61.3601ZM76.0088 48.3101L76.4151 47.5238C76.1614 47.3927 75.86 47.3921 75.6057 47.5222L76.0088 48.3101ZM65.5542 60.7497C65.5542 61.2385 65.9504 61.6347 66.4392 61.6347C66.9279 61.6347 67.3242 61.2385 67.3242 60.7497H65.5542ZM66.4392 47.2297H67.3242C67.3242 46.9408 67.1831 46.67 66.9463 46.5044L66.4392 47.2297ZM57.3063 39.7644C56.9057 39.4844 56.3539 39.5821 56.0739 39.9826C55.7938 40.3832 55.8915 40.935 56.2921 41.215L57.3063 39.7644ZM55.2992 31.7613L55.6595 30.9529L55.6525 30.9499L55.2992 31.7613ZM54.2837 22.3564C54.0733 24.8214 51.9535 27.2798 48.1242 29.1597C44.3384 31.0183 39.0849 32.1966 33.0955 32.1966V33.9666C39.2961 33.9666 44.8276 32.7499 48.9042 30.7485C52.9375 28.7685 55.7576 25.9018 56.0473 22.5069L54.2837 22.3564ZM33.0955 32.1966C27.1062 32.1966 21.868 31.0184 18.0912 29.16C14.2729 27.2813 12.1486 24.8211 11.9166 22.3489L10.1543 22.5143C10.4723 25.9021 13.283 28.7669 17.3098 30.7482C21.3779 32.7499 26.8947 33.9666 33.0955 33.9666V32.1966ZM11.9165 22.3484C11.7008 20.0634 11.7246 18.2394 11.9408 16.7923L10.1902 16.5309C9.9463 18.1638 9.93014 20.1399 10.1544 22.5148L11.9165 22.3484ZM10.1839 16.7395C10.4773 20.061 13.409 22.8004 17.4524 24.6722C21.5549 26.5715 27.069 27.7166 33.0955 27.7166V25.9466C27.2719 25.9466 22.021 24.8368 18.196 23.066C14.3119 21.2679 12.1536 18.9223 11.947 16.5837L10.1839 16.7395ZM33.0955 27.7166C39.1206 27.7166 44.5962 26.5894 48.6793 24.7173C52.707 22.8707 55.6243 20.1737 56.0045 16.9038L54.2464 16.6994C53.9766 19.0195 51.8039 21.3376 47.9416 23.1084C44.1347 24.8538 38.9203 25.9466 33.0955 25.9466V27.7166ZM54.2489 16.9235C54.447 18.348 54.4701 20.1382 54.2836 22.3575L56.0474 22.5058C56.2408 20.205 56.2239 18.2752 56.002 16.6797L54.2489 16.9235ZM54.2824 16.1905C54.2824 16.4064 54.2795 16.5275 54.2596 16.627L55.9953 16.9741C56.0554 16.6735 56.0524 16.3747 56.0524 16.1905H54.2824ZM54.2484 16.6983C53.9789 19.0159 51.7898 21.3346 47.9144 23.107C44.0965 24.853 38.8816 25.9455 33.0974 25.9455V27.7155C39.0833 27.7155 44.5584 26.5881 48.6505 24.7166C52.6851 22.8714 55.626 20.1751 56.0065 16.9027L54.2484 16.6983ZM33.0974 25.9455C27.3146 25.9455 22.0632 24.8359 18.2272 23.0646C14.33 21.2649 12.1554 18.9186 11.949 16.5826L10.1859 16.7384C10.4795 20.0624 13.4349 22.8012 17.4852 24.6715C21.5967 26.5701 27.1103 27.7155 33.0974 27.7155V25.9455ZM11.9456 16.5508C11.9298 16.4245 11.9224 16.3112 11.9224 16.1905H10.1524C10.1524 16.3898 10.1651 16.5766 10.1893 16.7703L11.9456 16.5508ZM11.9224 16.1905C11.9224 13.7829 13.9741 11.3455 17.8847 9.45751C21.733 7.59962 27.1109 6.42553 33.0974 6.42553V4.65553C26.904 4.65553 21.2519 5.86643 17.1152 7.86355C13.0408 9.83056 10.1524 12.7182 10.1524 16.1905H11.9224ZM33.0974 6.42553C39.084 6.42553 44.4645 7.59962 48.3154 9.4576C52.2289 11.3458 54.2824 13.7833 54.2824 16.1905H56.0524C56.0524 12.7178 53.161 9.83025 49.0845 7.86345C44.9454 5.86643 39.2909 4.65553 33.0974 4.65553V6.42553ZM33.0864 79.4265C36.5706 79.4265 39.8778 79.0395 42.8363 78.3536L42.4365 76.6293C39.615 77.2835 36.4422 77.6565 33.0864 77.6565V79.4265ZM41.7514 77.4915V83.7015H43.5214V77.4915H41.7514ZM42.4288 82.8411C39.6412 83.5137 36.4811 83.8965 33.0864 83.8965V85.6665C36.6117 85.6665 39.9116 85.2692 42.8439 84.5618L42.4288 82.8411ZM33.0864 83.8965C27.0967 83.8965 21.8431 82.7205 18.0572 80.8643C14.228 78.9868 12.1085 76.531 11.8982 74.0662L10.1346 74.2167C10.4243 77.612 13.2448 80.4761 17.278 82.4536C21.3547 84.4524 26.886 85.6665 33.0864 85.6665V83.8965ZM11.8981 74.0659C11.7217 72.0074 11.7341 70.3097 11.8954 68.9345L10.1374 68.7284C9.95862 70.2533 9.95105 72.0755 10.1346 74.217L11.8981 74.0659ZM11.9014 68.8315C11.9014 68.8053 11.9055 68.7687 11.9242 68.675L10.1886 68.3279C10.1673 68.4343 10.1314 68.6176 10.1314 68.8315H11.9014ZM10.1773 68.6035C10.5577 71.8805 13.498 74.5795 17.5331 76.4262C21.6254 78.299 27.1005 79.4265 33.0864 79.4265V77.6565C27.3022 77.6565 22.0874 76.5639 18.2697 74.8167C14.3948 73.0434 12.2051 70.7224 11.9355 68.3994L10.1773 68.6035ZM41.7629 65.8915V77.4915H43.5329V65.8915H41.7629ZM42.4487 76.6292C39.6166 77.2835 36.4436 77.6565 33.0879 77.6565V79.4265C36.5722 79.4265 39.8792 79.0394 42.8471 78.3538L42.4487 76.6292ZM33.0879 77.6565C27.3037 77.6565 22.0889 76.5639 18.2712 74.8167C14.3963 73.0434 12.2066 70.7224 11.937 68.3994L10.1788 68.6035C10.5592 71.8805 13.4995 74.5795 17.5346 76.4262C21.6269 78.299 27.1021 79.4265 33.0879 79.4265V77.6565ZM11.9331 68.3702C11.9118 68.2281 11.9029 68.065 11.9029 67.8915H10.1329C10.1329 68.1179 10.144 68.3749 10.1827 68.6327L11.9331 68.3702ZM11.9029 67.8915C11.9029 65.4842 13.954 63.0492 17.8659 61.1637C21.7155 59.3082 27.096 58.1365 33.0879 58.1365V56.3665C26.8898 56.3665 21.2353 57.5747 17.0974 59.5692C13.0218 61.5337 10.1329 64.4188 10.1329 67.8915H11.9029ZM33.0879 58.1365C40.0568 58.1365 46.181 59.725 50.0314 62.1135L50.9644 60.6094C46.7548 57.998 40.279 56.3665 33.0879 56.3665V58.1365ZM41.8283 65.2537L41.7683 65.7937L43.5275 65.9892L43.5875 65.4492L41.8283 65.2537ZM56.1842 58.9121V40.8921H54.4142V58.9121H56.1842ZM41.7618 32.4897V54.7097H43.5318V32.4897H41.7618ZM41.7618 62.1187V76.9287H43.5318V62.1187H41.7618ZM10.1329 19.4194V70.5194H11.9029V19.4194H10.1329ZM36.2087 14.3698C36.488 15.2095 36.4877 15.2096 36.4875 15.2097C36.4874 15.2097 36.4872 15.2098 36.4871 15.2098C36.4869 15.2099 36.4867 15.21 36.4866 15.21C36.4864 15.2101 36.4865 15.21 36.4868 15.2099C36.4874 15.2097 36.489 15.2092 36.4916 15.2084C36.4969 15.2067 36.5061 15.2038 36.5192 15.1997C36.5454 15.1916 36.5869 15.1791 36.6429 15.1632C36.7548 15.1313 36.924 15.0861 37.1423 15.0359C37.5796 14.9354 38.2109 14.816 38.9725 14.7447C40.5021 14.6013 42.5184 14.6551 44.5394 15.409L45.158 13.7506C42.809 12.8744 40.5053 12.8232 38.8074 12.9824C37.9552 13.0622 37.2459 13.196 36.746 13.3108C36.4958 13.3683 36.2972 13.4213 36.1585 13.4607C36.0892 13.4804 36.0347 13.4968 35.9962 13.5087C35.977 13.5147 35.9617 13.5195 35.9505 13.5231C35.9449 13.5249 35.9404 13.5264 35.9368 13.5275C35.9351 13.5281 35.9336 13.5286 35.9323 13.529C35.9317 13.5292 35.9312 13.5294 35.9307 13.5296C35.9304 13.5296 35.9301 13.5298 35.93 13.5298C35.9297 13.5299 35.9294 13.53 36.2087 14.3698ZM44.5394 15.409C45.5358 15.7806 46.0484 16.1971 46.2936 16.5412C46.5197 16.8584 46.5605 17.1693 46.4846 17.4925C46.311 18.232 45.4917 19.0749 44.5096 19.4823L45.1878 21.1172C46.4957 20.5746 47.8614 19.3726 48.2078 17.897C48.3919 17.1127 48.2764 16.2736 47.735 15.5139C47.2128 14.7812 46.3466 14.1939 45.158 13.7506L44.5394 15.409ZM44.5096 19.4823C42.3261 20.3881 38.4667 21.2736 34.8529 19.2386L33.9844 20.7809C38.2907 23.2059 42.7913 22.1114 45.1878 21.1172L44.5096 19.4823ZM34.4187 20.0098C34.8052 19.2137 34.8055 19.2138 34.8058 19.2139C34.8059 19.214 34.8062 19.2141 34.8064 19.2142C34.8068 19.2144 34.8071 19.2146 34.8074 19.2147C34.808 19.215 34.8085 19.2153 34.809 19.2155C34.8098 19.2159 34.8103 19.2161 34.8104 19.2162C34.8106 19.2163 34.8092 19.2156 34.8066 19.2142C34.8012 19.2114 34.7904 19.2057 34.775 19.1972C34.744 19.1799 34.6955 19.1517 34.6359 19.1128C34.5145 19.0336 34.3593 18.9182 34.2146 18.7716C33.9198 18.4731 33.7491 18.1384 33.8127 17.7389L32.0647 17.4606C31.8783 18.6312 32.4476 19.5014 32.9553 20.0154C33.2118 20.2751 33.4735 20.4678 33.6687 20.5952C33.7674 20.6596 33.8521 20.7092 33.9147 20.7441C33.9461 20.7615 33.9722 20.7754 33.9921 20.7857C34.002 20.7908 34.0104 20.7951 34.0171 20.7984C34.0205 20.8001 34.0234 20.8016 34.0259 20.8028C34.0272 20.8035 34.0283 20.804 34.0293 20.8045C34.0299 20.8048 34.0304 20.805 34.0308 20.8052C34.0311 20.8054 34.0314 20.8055 34.0315 20.8056C34.0318 20.8057 34.0321 20.8059 34.4187 20.0098ZM33.8125 17.7398C33.9149 17.1011 34.2836 15.6766 34.3245 14.3866C34.3666 13.0607 34.0955 11.4526 32.6356 10.4908L31.6618 11.9688C32.3419 12.4169 32.5908 13.2139 32.5554 14.3305C32.5188 15.4829 32.2125 16.5385 32.0648 17.4597L33.8125 17.7398ZM32.638 10.4923C30.2268 8.8924 25.6188 8.23507 21.3277 9.90502L21.9697 11.5545C25.7985 10.0645 29.7906 10.7271 31.6594 11.9672L32.638 10.4923ZM21.327 9.90529C19.1734 10.7455 17.8412 12.1258 17.9171 13.806C17.9904 15.4275 19.365 16.7153 21.1647 17.4233L21.8127 15.7762C20.2824 15.1742 19.712 14.3171 19.6853 13.7261C19.6612 13.1937 20.074 12.2941 21.9703 11.5542L21.327 9.90529ZM21.1647 17.4233C22.9911 18.1418 25.0939 18.2705 26.6867 18.2358C27.4931 18.2182 28.1905 18.1581 28.6877 18.1022C28.9367 18.0742 29.1364 18.0472 29.2755 18.0269C29.345 18.0167 29.3995 18.0082 29.4375 18.0021C29.4565 17.999 29.4714 17.9966 29.482 17.9948C29.4873 17.9939 29.4915 17.9932 29.4946 17.9927C29.4962 17.9924 29.4975 17.9922 29.4985 17.992C29.499 17.9919 29.4995 17.9918 29.4998 17.9918C29.5 17.9917 29.5002 17.9917 29.5003 17.9917C29.5005 17.9916 29.5007 17.9916 29.3487 17.1198C29.1966 16.2479 29.1968 16.2479 29.1969 16.2479C29.197 16.2479 29.1971 16.2479 29.1971 16.2478C29.1972 16.2478 29.1973 16.2478 29.1972 16.2478C29.1971 16.2478 29.1968 16.2479 29.1961 16.248C29.1949 16.2482 29.1926 16.2486 29.1892 16.2492C29.1824 16.2503 29.1715 16.2521 29.1565 16.2545C29.1265 16.2594 29.0804 16.2666 29.0196 16.2754C28.898 16.2932 28.7177 16.3177 28.49 16.3433C28.0337 16.3946 27.3906 16.45 26.6482 16.4662C25.1434 16.499 23.3163 16.3677 21.8127 15.7762L21.1647 17.4233ZM108.232 65.4194V96.0594H110.002V65.4194H108.232ZM108.689 95.2851L75.4487 113.685L76.3059 115.234L109.546 96.8337L108.689 95.2851ZM76.7623 114.459V83.8194H74.9923V114.459H76.7623ZM76.3059 84.5937L109.546 66.1937L108.689 64.6451L75.4487 83.0452L76.3059 84.5937ZM104.287 93.6674L79.8471 107.197L80.7044 108.746L105.144 95.2159L104.287 93.6674ZM81.1607 107.972V85.4416H79.3907V107.972H81.1607ZM80.7044 86.2159L105.144 72.6859L104.287 71.1374L79.8471 84.6674L80.7044 86.2159ZM103.831 71.9116V94.4416H105.601V71.9116H103.831ZM100.264 95.8938L84.9945 104.174L85.8382 105.73L101.108 97.4498L100.264 95.8938ZM86.3014 104.952V88.6118H84.5313V104.952H86.3014ZM85.8386 89.3895L101.109 81.0995L100.264 79.544L84.9941 87.834L85.8386 89.3895ZM99.8013 80.3218V96.6718H101.571V80.3218H99.8013ZM85.8355 94.4506L100.695 86.4606L99.8572 84.9017L84.9972 92.8917L85.8355 94.4506ZM74.994 83.8194V114.459H76.764V83.8194H74.994ZM76.3076 113.685L43.0676 95.2851L42.2104 96.8337L75.4504 115.234L76.3076 113.685ZM43.524 96.0594V65.4194H41.754V96.0594H43.524ZM42.013 66.045L42.023 66.055L43.275 64.8039L43.265 64.7939L42.013 66.045ZM69.5675 81.3321L75.3875 84.5821L76.2505 83.0367L70.4305 79.7867L69.5675 81.3321ZM76.2149 84.6009L76.2349 84.5909L75.4431 83.0079L75.4231 83.0179L76.2149 84.6009ZM75.4432 84.591L75.4832 84.611L76.2748 83.0279L76.2348 83.0079L75.4432 84.591ZM69.5697 81.3333L75.4097 84.5733L76.2683 83.0256L70.4284 79.7856L69.5697 81.3333ZM108.691 64.6454L75.4112 83.0247L76.2669 84.5741L109.547 66.1948L108.691 64.6454ZM45.9824 66.1585C45.3818 65.8211 45.4064 64.9629 46.0022 64.6577L45.1953 63.0824C43.3312 64.0372 43.2957 66.6791 45.1152 67.7016L45.9824 66.1585ZM75.6025 49.0963L108.712 66.2063L109.525 64.6338L76.4151 47.5238L75.6025 49.0963ZM67.3242 60.7497V47.2297H65.5542V60.7497H67.3242ZM66.9463 46.5044L57.3063 39.7644L56.2921 41.215L65.9321 47.955L66.9463 46.5044ZM57.3842 36.3213C57.3842 37.9985 56.3821 39.4405 54.9389 40.0837L55.6595 41.7004C57.7162 40.7837 59.1542 38.7241 59.1542 36.3213H57.3842ZM54.9458 40.0807C54.4341 40.3035 53.8741 40.4263 53.2892 40.4263V42.1963C54.1242 42.1963 54.9243 42.0206 55.6525 41.7035L54.9458 40.0807ZM53.2892 40.4263C51.0179 40.4263 49.1842 38.5925 49.1842 36.3213H47.4142C47.4142 39.5701 50.0404 42.1963 53.2892 42.1963V40.4263ZM49.1842 36.3213C49.1842 34.0524 51.0156 32.2263 53.2892 32.2263V30.4563C50.0427 30.4563 47.4142 33.0702 47.4142 36.3213H49.1842ZM53.2892 32.2263C53.8735 32.2263 54.4334 32.3496 54.9458 32.5727L55.6525 30.9499C54.9249 30.633 54.1249 30.4563 53.2892 30.4563V32.2263ZM54.9389 32.5697C56.3832 33.2134 57.3842 34.6552 57.3842 36.3213H59.1542C59.1542 33.9274 57.7151 31.8692 55.6595 30.953L54.9389 32.5697ZM50.0945 60.5738L42.3045 64.5638L43.1114 66.1392L50.9014 62.1492L50.0945 60.5738ZM56.1842 31.7594V19.4194H54.4142V31.7594H56.1842ZM42.2206 66.2038L69.5706 81.3338L70.4274 79.785L43.0774 64.655L42.2206 66.2038ZM70.4299 79.7864L45.9797 66.1571L45.1179 67.7031L69.5681 81.3324L70.4299 79.7864ZM46.0023 64.6577L50.9023 62.1477L50.0953 60.5724L45.1953 63.0824L46.0023 64.6577ZM50.9018 62.148L76.4118 49.0979L75.6057 47.5222L50.0957 60.5722L50.9018 62.148Z"/><defs><linearGradient id="a" x1="10.881" x2="112.245" y1="5.541" y2="26.032" gradientUnits="userSpaceOnUse"><stop stop-color="#3B00B9"/><stop offset="1" stop-color="#2586B6"/></linearGradient></defs></svg>