<svg width="97" height="118" viewBox="0 0 97 118" fill="none" xmlns="http://www.w3.org/2000/svg">
<path d="M24.015 36.75C20.6737 36.75 17.8654 39.4929 17.7604 42.8272L17.7604 42.8289C17.6557 46.3781 20.4964 49.29 24.025 49.29C26.155 49.29 28.0427 48.2295 29.1725 46.599L27.7175 45.591C26.9073 46.7605 25.555 47.52 24.025 47.52C21.4939 47.52 19.4548 45.4324 19.5296 42.882C19.6051 40.4967 21.6366 38.52 24.015 38.52C25.7667 38.52 27.2829 39.508 28.0289 40.962L30.3204 45.9237C30.3759 46.0456 30.4614 46.225 30.5573 46.404C30.6433 46.5647 30.7701 46.7873 30.912 46.9579C32.0607 48.3703 33.8161 49.29 35.795 49.29C39.3236 49.29 42.1643 46.3781 42.0596 42.8289L42.0596 42.8272C41.9546 39.4929 39.1463 36.75 35.805 36.75C33.3624 36.75 31.2427 38.1356 30.2062 40.1738L31.7838 40.9762C32.5273 39.5144 34.0476 38.52 35.805 38.52C38.1833 38.52 40.2147 40.4965 40.2904 42.8817C40.3653 45.4322 38.3262 47.52 35.795 47.52C34.3764 47.52 33.1136 46.8619 32.2822 45.8373L32.2771 45.8311L32.2721 45.8251C32.2721 45.8251 32.2679 45.82 32.2581 45.806C32.248 45.7916 32.2353 45.7723 32.22 45.7477C32.1891 45.698 32.1544 45.637 32.1177 45.5685C32.0442 45.4312 31.9752 45.2868 31.9307 45.1888L29.6214 40.1887L29.6138 40.1738C28.5773 38.1356 26.4576 36.75 24.015 36.75Z" fill="url(#paint0_linear_6079_94812)"/>
<path fill-rule="evenodd" clip-rule="evenodd" d="M21.9263 71.764C22.1979 71.4612 22.641 71.3826 23.0002 71.5734L29.5702 75.0634C29.7803 75.1752 30.0192 75.1754 30.2294 75.0637L36.7998 71.5734C37.1581 71.3831 37.5999 71.4608 37.8718 71.7619C38.1437 72.063 38.1761 72.5104 37.9503 72.8475L30.6903 83.6875C30.526 83.9328 30.2502 84.08 29.955 84.08H29.945C29.6518 84.08 29.3775 83.9347 29.2128 83.6921L21.8528 72.8521C21.6243 72.5156 21.6547 72.0667 21.9263 71.764ZM31.0602 76.6266C30.3306 77.0145 29.4694 77.0145 28.7398 76.6266L25.3224 74.8112L29.945 81.6195L34.5198 74.7888L31.0602 76.6266Z" fill="url(#paint1_linear_6079_94812)"/>
<path fill-rule="evenodd" clip-rule="evenodd" d="M30.7203 56.5305C30.5624 56.2586 30.2721 56.0909 29.9576 56.09C29.6432 56.0891 29.3519 56.255 29.1924 56.526L21.8324 69.026C21.7073 69.2384 21.6765 69.4935 21.7474 69.7297C21.8184 69.9658 21.9846 70.1617 22.2061 70.27L29.5661 73.87C29.813 73.9907 30.102 73.99 30.3482 73.8679L37.6082 70.2679C37.8275 70.1591 37.992 69.9643 38.0625 69.7299C38.133 69.4954 38.1032 69.2422 37.9803 69.0305L30.7203 56.5305ZM29.9523 72.0885L23.8427 69.1001L29.9498 58.7281L35.975 69.1021L29.9523 72.0885Z" fill="url(#paint2_linear_6079_94812)"/>
<path fill-rule="evenodd" clip-rule="evenodd" d="M42.69 14.415C42.69 6.45382 49.1438 0 57.105 0C65.0662 0 71.52 6.45382 71.52 14.415C71.52 22.3762 65.0662 28.83 57.105 28.83C54.2074 28.83 51.5096 27.9751 49.2498 26.5037L45.092 31.9949L59.82 42.2837V57.66H67.3117C67.2841 57.2953 67.27 56.9268 67.27 56.555C67.27 48.5938 73.7238 42.14 81.685 42.14C89.6462 42.14 96.1 48.5938 96.1 56.555C96.1 64.5162 89.6462 70.97 81.685 70.97C74.7083 70.97 68.8893 66.0137 67.5567 59.43H59.82V74.8163L45.6386 84.7233L49.8165 90.2357C51.9549 88.98 54.4459 88.26 57.105 88.26C65.0662 88.26 71.52 94.7138 71.52 102.675C71.52 110.636 65.0662 117.09 57.105 117.09C49.1438 117.09 42.69 110.636 42.69 102.675C42.69 98.0086 44.9073 93.8601 48.3458 91.2256L44.1865 85.7377L29.9048 95.7147L0 74.8061V42.2838L29.9049 21.3854L43.6399 30.9805L47.8284 25.4489C44.6865 22.8046 42.69 18.843 42.69 14.415ZM57.105 1.77C50.1214 1.77 44.46 7.43136 44.46 14.415C44.46 16.701 45.0666 18.8453 46.1276 20.6957C48.1885 18.2565 50.9797 16.5161 54.2897 15.8828C52.1979 14.8454 50.76 12.6881 50.76 10.195C50.76 6.69075 53.6008 3.85 57.105 3.85C60.6092 3.85 63.45 6.69075 63.45 10.195C63.45 12.6952 62.0039 14.8577 59.9024 15.8916C63.1544 16.5319 66.0162 18.2663 68.0838 20.6932C69.144 18.8433 69.75 16.6999 69.75 14.415C69.75 7.43136 64.0886 1.77 57.105 1.77ZM67.0507 22.2248C64.7344 19.28 61.137 17.39 57.105 17.39C52.9193 17.39 49.4754 19.2734 47.1621 22.2284C49.4774 25.1706 53.0706 27.06 57.105 27.06C61.1411 27.06 64.7355 25.1691 67.0507 22.2248ZM69.1997 58.5699C69.4448 60.101 69.9649 61.5404 70.7076 62.8357C72.7685 60.3965 75.5597 58.6561 78.8697 58.0228C76.7779 56.9854 75.34 54.8281 75.34 52.335C75.34 48.8308 78.1808 45.99 81.685 45.99C85.1893 45.99 88.03 48.8308 88.03 52.335C88.03 54.8352 86.5839 56.9977 84.4824 58.0316C87.7344 58.6719 90.5962 60.4063 92.6638 62.8332C93.724 60.9833 94.33 58.8399 94.33 56.555C94.33 49.5714 88.6686 43.91 81.685 43.91C74.7014 43.91 69.04 49.5714 69.04 56.555C69.04 57.1347 69.079 57.7053 69.1546 58.2643C69.184 58.3525 69.2 58.4469 69.2 58.545C69.2 58.5533 69.1999 58.5616 69.1997 58.5699ZM50.1496 92.1403C50.0798 92.1932 50.0048 92.2341 49.9269 92.2635C46.6241 94.5448 44.46 98.3572 44.46 102.675C44.46 104.961 45.0666 107.105 46.1276 108.956C48.1885 106.516 50.9797 104.776 54.2897 104.143C52.1979 103.105 50.76 100.948 50.76 98.455C50.76 94.9508 53.6008 92.11 57.105 92.11C60.6092 92.11 63.45 94.9508 63.45 98.455C63.45 100.955 62.0039 103.118 59.9024 104.152C63.1544 104.792 66.0162 106.526 68.0838 108.953C69.144 107.103 69.75 104.96 69.75 102.675C69.75 95.6914 64.0886 90.03 57.105 90.03C54.5828 90.03 52.2331 90.7684 50.2603 92.0409C50.2267 92.0765 50.1898 92.1098 50.1496 92.1403ZM67.0507 110.485C64.7344 107.54 61.137 105.65 57.105 105.65C52.9193 105.65 49.4754 107.533 47.1621 110.488C49.4774 113.431 53.0706 115.32 57.105 115.32C61.1411 115.32 64.7355 113.429 67.0507 110.485ZM29.9051 23.5446L1.77 43.2062V73.8839L29.9052 93.5553L58.05 73.8937V43.2063L29.9051 23.5446ZM57.105 93.88C54.5783 93.88 52.53 95.9283 52.53 98.455C52.53 100.982 54.5783 103.03 57.105 103.03C59.6317 103.03 61.68 100.982 61.68 98.455C61.68 95.9283 59.6317 93.88 57.105 93.88ZM81.685 59.53C85.717 59.53 89.3144 61.42 91.6307 64.3648C89.3155 67.3091 85.7211 69.2 81.685 69.2C77.6506 69.2 74.0574 67.3106 71.7421 64.3684C74.0554 61.4134 77.4993 59.53 81.685 59.53ZM77.11 52.335C77.11 49.8083 79.1583 47.76 81.685 47.76C84.2117 47.76 86.26 49.8083 86.26 52.335C86.26 54.8617 84.2117 56.91 81.685 56.91C79.1583 56.91 77.11 54.8617 77.11 52.335ZM57.105 5.62C54.5783 5.62 52.53 7.6683 52.53 10.195C52.53 12.7217 54.5783 14.77 57.105 14.77C59.6317 14.77 61.68 12.7217 61.68 10.195C61.68 7.6683 59.6317 5.62 57.105 5.62Z" fill="url(#paint3_linear_6079_94812)"/>
<defs>
<linearGradient id="paint0_linear_6079_94812" x1="0" y1="0" x2="99.8322" y2="18.3649" gradientUnits="userSpaceOnUse">
<stop stop-color="#3B00B9"/>
<stop offset="1" stop-color="#2586B6"/>
</linearGradient>
<linearGradient id="paint1_linear_6079_94812" x1="0" y1="0" x2="99.8322" y2="18.3649" gradientUnits="userSpaceOnUse">
<stop stop-color="#3B00B9"/>
<stop offset="1" stop-color="#2586B6"/>
</linearGradient>
<linearGradient id="paint2_linear_6079_94812" x1="0" y1="0" x2="99.8322" y2="18.3649" gradientUnits="userSpaceOnUse">
<stop stop-color="#3B00B9"/>
<stop offset="1" stop-color="#2586B6"/>
</linearGradient>
<linearGradient id="paint3_linear_6079_94812" x1="0" y1="0" x2="99.8322" y2="18.3649" gradientUnits="userSpaceOnUse">
<stop stop-color="#3B00B9"/>
<stop offset="1" stop-color="#2586B6"/>
</linearGradient>
</defs>
</svg>
