<svg xmlns="http://www.w3.org/2000/svg" width="24" height="24" fill="none" viewBox="0 0 24 24"><g clip-path="url(#a)"><path fill="#fff" fill-opacity=".6" d="M9.835 11.502h2.17a4.5 4.5 0 0 1 4.5 4.5H9.504v1h8v-1a5.578 5.578 0 0 0-.885-3h2.886a5 5 0 0 1 4.516 2.852c-2.365 3.12-6.194 5.149-10.516 5.149-2.761 0-5.1-.59-7-1.625v-9.304a6.968 6.968 0 0 1 3.33 1.428Zm-4.33 7.5a1 1 0 0 1-1 1h-2a1 1 0 0 1-1-1v-9a1 1 0 0 1 1-1h2a1 1 0 0 1 1 1v9Zm13-14a3 3 0 1 1 0 6 3 3 0 0 1 0-6Zm-7-3a3 3 0 1 1 0 6 3 3 0 0 1 0-6Z"/></g><defs><clipPath id="a"><path fill="#fff" d="M0 0h24v24H0z"/></clipPath></defs></svg>