<svg width="24" height="24" viewBox="0 0 24 24" fill="none" xmlns="http://www.w3.org/2000/svg">
<g id="speed-mini-fill" clip-path="url(#clip0_15880_65719)">
<path id="Vector" d="M1.60431 19.3788C1.48614 19.4623 1.34505 19.5071 1.2004 19.5071C0.813584 19.5071 0.5 19.1935 0.5 18.8067V4.70046C0.5 4.55582 0.544783 4.41472 0.628201 4.29655C0.851265 3.98053 1.28829 3.90518 1.60431 4.12826L11.5962 11.1813C11.6615 11.2274 11.7185 11.2844 11.7646 11.3497C11.9876 11.6657 11.9122 12.1028 11.5962 12.3258L1.60431 19.3788ZM13.1072 4.70046C13.1072 4.55582 13.1521 4.41472 13.2354 4.29655C13.4586 3.98053 13.8955 3.90518 14.2115 4.12826L24.2034 11.1813C24.2687 11.2274 24.3257 11.2844 24.3718 11.3497C24.5948 11.6657 24.5194 12.1028 24.2034 12.3258L14.2115 19.3788C14.0934 19.4623 13.9523 19.5071 13.8076 19.5071C13.4209 19.5071 13.1072 19.1935 13.1072 18.8067V4.70046Z" fill="white" fill-opacity="0.6"/>
</g>
<defs>
<clipPath id="clip0_15880_65719">
<rect width="24" height="24" fill="white"/>
</clipPath>
</defs>
</svg>
