<svg xmlns="http://www.w3.org/2000/svg" width="24" height="24" fill="none" viewBox="0 0 24 24"><g clip-path="url(#a)"><path fill="#fff" fill-opacity=".6" d="M14.905.003a9.6 9.6 0 0 1 9.6 9.6 9.602 9.602 0 0 1-5.65 8.752 9.6 9.6 0 0 1-8.75 5.648 9.6 9.6 0 0 1-9.6-9.6 9.602 9.602 0 0 1 5.647-8.751 9.603 9.603 0 0 1 8.753-5.65Zm-3.6 8.4h-2.4v1.2a3 3 0 0 0-.197 5.993l.197.007h2.4l.108.01a.6.6 0 0 1 0 1.18l-.108.01h-4.8v2.4h2.4v1.2h2.4v-1.2a3 3 0 0 0 .197-5.994l-.197-.006h-2.4l-.108-.01a.6.6 0 0 1 0-1.18l.108-.01h4.8v-2.4h-2.4v-1.2Zm3.6-6c-2.14 0-4.062.934-5.381 2.416a9.6 9.6 0 0 1 10.164 10.165 7.2 7.2 0 0 0-4.783-12.581Z"/></g><defs><clipPath id="a"><path fill="#fff" d="M0 0h24v24H0z"/></clipPath></defs></svg>