<svg xmlns="http://www.w3.org/2000/svg" width="302" height="182" fill="none" viewBox="0 0 302 182"><path fill="#000" d="M62.846 24.152h15.732c-.967 13.301-12.627 17.285-26.806 17.285-14.766-.029-26.954-4.306-26.895-19.218v-2.871C24.818 4.465 37.006.188 51.772.128c14.18.03 25.84 4.015 26.806 17.286H62.846c-1.436-3.867-5.801-4.775-11.074-4.775-6.27.088-11.602 1.2-11.514 7.675v.967c-.088 6.416 5.244 7.588 11.514 7.676 5.273 0 9.668-.938 11.074-4.805Zm58.74 2.871H98.529v13.448H83.178V1.096h15.351v13.447h23.057V1.096h15.381V40.47h-15.381V27.023Zm46.816-14.472-5.42 11.63h10.811l-5.391-11.63Zm-30.263 27.978 21.123-39.375h18.252l21.123 39.375h-17.285l-3.106-6.738h-19.717l-3.105 6.738h-17.285Zm61.699-39.433h15.351V40.47h-15.351V1.096Zm61.904 20.86V1.095h15.381V40.47h-17.285l-21.152-24.053v24.053h-15.352V1.096h21.123l17.285 20.86ZM.882 110.528V71.154H48.9v12.48H16.234v4.805h28.828v11.514H16.235v10.576H.883Zm90.909-19.248V71.096h15.381v21.152c.058 14.883-12.129 19.16-26.895 19.19-14.765-.03-26.953-4.307-26.894-19.19V71.096h15.351V91.28c-.058 6.475 5.245 7.588 11.543 7.676 6.27-.088 11.602-1.201 11.514-7.676Zm35.859-7.207c0 1.729 4.776 1.963 10.957 2.256 10.987.557 26.426 1.318 26.397 11.192 0 11.249-12.891 13.916-26.719 13.916-13.799-.03-25.254-1.7-26.719-13.916h16.084c1.758 3.046 5.83 3.837 10.635 3.837 4.776 0 10.635-.791 10.635-3.837 0-1.729-4.775-1.993-10.957-2.286-10.986-.556-26.426-1.318-26.397-11.162 0-11.25 12.891-13.945 26.719-13.945 13.799.088 25.254 1.64 26.719 13.945H148.92c-1.758-3.105-5.83-3.838-10.635-3.838-4.775 0-10.635.703-10.635 3.838Zm41.455-12.978h15.352v39.375h-15.352V71.096Zm46.758-.967c14.825 0 26.866 4.336 26.866 19.219v2.87c.058 14.884-12.071 19.19-26.866 19.22-14.824-.03-26.953-4.336-26.894-19.22v-2.87c-.059-14.912 12.07-19.19 26.894-19.22Zm11.514 21.123v-.967c.088-6.416-5.244-7.588-11.514-7.676-6.299.088-11.631 1.26-11.543 7.676v.967c-.088 6.445 5.244 7.617 11.543 7.705 6.27-.088 11.602-1.26 11.514-7.705Zm58.359.703v-20.86h15.381v39.376h-17.285L262.68 86.418v24.053h-15.352V71.096h21.123l17.285 20.86ZM41.576 137.96h15.3c8.28 0 12.96 4.86 12.96 11.46 0 4.38-2.64 7.92-6.18 9.12 4.14 1.02 7.5 4.8 7.5 10.08 0 6.9-5.16 11.88-13.14 11.88h-16.44v-42.54Zm8.16 17.58h5.88c3.78 0 6.06-2.1 6.06-5.34 0-3.24-2.1-5.28-6.12-5.28h-5.82v10.62Zm0 18.06h6.72c4.02 0 6.42-2.1 6.42-5.52 0-3.36-2.16-5.7-6.3-5.7h-6.84v11.22Zm34.447-11.22h13.2c-.12-2.94-2.04-5.82-6.6-5.82-4.14 0-6.42 3.12-6.6 5.82Zm13.98 7.68 6.66 1.98c-1.5 5.1-6.18 9.36-13.44 9.36-8.1 0-15.24-5.82-15.24-15.78 0-9.42 6.96-15.54 14.52-15.54 9.12 0 14.58 5.82 14.58 15.3 0 1.14-.12 2.34-.12 2.46h-21.12c.18 3.9 3.48 6.72 7.44 6.72 3.72 0 5.76-1.86 6.72-4.5Zm21.508-6.54v16.98h-7.98v-29.52h7.74v3.66c1.8-3.06 5.34-4.44 8.52-4.44 7.32 0 10.68 5.22 10.68 11.7v18.6h-7.98v-17.22c0-3.3-1.62-5.88-5.46-5.88-3.48 0-5.52 2.7-5.52 6.12Zm33.125-1.14h13.2c-.12-2.94-2.04-5.82-6.6-5.82-4.14 0-6.42 3.12-6.6 5.82Zm13.98 7.68 6.66 1.98c-1.5 5.1-6.18 9.36-13.44 9.36-8.1 0-15.24-5.82-15.24-15.78 0-9.42 6.96-15.54 14.52-15.54 9.12 0 14.58 5.82 14.58 15.3 0 1.14-.12 2.34-.12 2.46h-21.12c.18 3.9 3.48 6.72 7.44 6.72 3.72 0 5.76-1.86 6.72-4.5Zm35.618-12.24h-11.82v22.68h-8.04v-22.68h-4.92v-6.84h4.92v-3.36c0-6.66 4.2-10.98 10.74-10.98 1.68 0 3.3.3 3.96.6v6.72c-.42-.12-1.2-.3-2.52-.3-1.74 0-4.14.78-4.14 4.08v3.24h19.74v29.52h-7.92v-22.68Zm-.96-16.56c0-2.76 2.22-4.98 4.92-4.98 2.7 0 4.92 2.22 4.92 4.98 0 2.7-2.22 4.86-4.92 4.86-2.7 0-4.92-2.16-4.92-4.86Zm27.454.9v8.82h5.94v7.08h-5.94v12.36c0 2.58 1.2 3.42 3.48 3.42.96 0 2.04-.12 2.46-.24v6.6c-.72.3-2.16.72-4.5.72-5.76 0-9.36-3.42-9.36-9.12v-13.74h-5.34v-7.08h1.5c3.12 0 4.56-2.04 4.56-4.68v-4.14h7.2Zm10.374 30.12 6.84-1.5c.18 2.34 1.92 4.5 5.4 4.5 2.64 0 3.9-1.38 3.9-2.94 0-1.32-.9-2.4-3.18-2.88l-3.9-.9c-5.7-1.26-8.28-4.68-8.28-8.82 0-5.28 4.68-9.66 11.04-9.66 8.4 0 11.22 5.34 11.58 8.52l-6.66 1.5c-.24-1.74-1.5-3.96-4.86-3.96-2.1 0-3.78 1.26-3.78 2.94 0 1.44 1.08 2.34 2.7 2.64l4.2.9c5.82 1.2 8.76 4.74 8.76 9.06 0 4.8-3.72 9.72-11.46 9.72-8.88 0-11.94-5.76-12.3-9.12Z"/></svg>