<svg width="660" height="180" viewBox="0 0 660 180" fill="none" xmlns="http://www.w3.org/2000/svg">
<g clip-path="url(#clip0_15715_91436)">
<path d="M123.268 79.6459C116.257 79.6459 108.603 76.733 100.508 70.9675C94.7421 66.8693 88.7154 61.3248 82.0861 54.0325C78.1888 58.4521 74.3117 62.3694 70.5751 65.6439C65.352 70.2242 60.1289 73.7397 55.0665 76.0901C49.9841 78.4405 45.0221 79.6459 40.3615 79.6459C29.634 79.6459 19.5494 75.5678 11.996 68.155C4.44258 60.7623 0.28418 50.8987 0.28418 40.4123C0.28418 37.3789 0.645779 34.3254 1.36898 31.3723C1.36898 31.3321 1.42925 31.1513 1.44933 31.0911C5.74835 13.7945 22.2413 1.17871 40.6226 1.17871C47.6337 1.17871 55.2875 4.0916 63.3833 9.85711C69.1488 13.9552 75.1755 19.4998 81.8048 26.792C85.7021 22.3524 89.5792 18.4551 93.3158 15.1807C103.923 5.8996 113.987 1.17871 123.268 1.17871C145.527 1.17871 163.627 18.7766 163.627 40.4123C163.627 43.4859 163.245 46.5394 162.522 49.5326C158.203 66.9899 141.71 79.6459 123.288 79.6459H123.268ZM24.7926 19.1783C19.228 20.002 14.5674 22.1314 10.9313 25.5063C7.37555 28.821 6.08986 32.216 5.94924 32.5977C5.32649 35.1289 5.02515 37.7806 5.02515 40.4123C5.02515 49.613 8.68133 58.2512 15.3107 64.76C21.9802 71.2889 30.8594 74.8848 40.3414 74.8848C48.4975 74.8848 57.8589 70.4452 67.4212 62.0681C70.8765 59.0347 74.4724 55.4187 78.1085 51.3406L78.8317 50.517L73.0461 44.3296L72.5037 44.9725C68.7069 49.3518 65.111 53.008 61.5552 56.1218C53.4996 63.173 46.4685 66.7488 40.6226 66.7488C25.7569 66.7488 13.6835 54.9365 13.6835 40.4123C13.6835 32.1357 17.9222 24.1001 24.8127 19.1583L24.7926 19.1783ZM94.1193 39.9904C99.8245 45.997 103.882 50.1152 106.193 52.2245C107.78 53.6709 113.606 58.6731 121.942 61.8672C122.364 61.9275 122.846 61.9877 123.268 61.9877C135.502 61.9074 145.446 52.2446 145.446 40.4123C145.446 28.5799 135.502 18.8368 123.268 18.8368C120.074 18.8368 114.389 20.4841 105.49 28.2987C101.833 31.4928 98.117 35.3298 94.1394 39.9904H94.1193ZM40.6226 18.8569C28.3885 18.9373 18.4445 28.6 18.4445 40.4324C18.4445 52.2647 28.3885 62.0078 40.6226 62.0078C43.8168 62.0078 49.5019 60.3605 58.4013 52.546C62.0776 49.3317 65.794 45.4948 69.7515 40.8542C64.0463 34.8477 59.9883 30.7295 57.6781 28.6201C56.0911 27.1737 50.2653 22.1716 41.9284 18.9775C41.5065 18.9172 41.0244 18.877 40.6025 18.877L40.6226 18.8569ZM123.268 14.0959C138.134 14.0959 150.207 25.9081 150.207 40.4324C150.207 48.709 145.969 56.7445 139.078 61.6864C144.643 60.8628 149.303 58.7333 152.94 55.3584C156.515 52.0237 157.781 48.6487 157.922 48.267C158.544 45.7358 158.846 43.1042 158.846 40.4525C158.846 21.4484 142.875 5.97995 123.248 5.97995C115.152 5.97995 106.132 10.2991 96.4496 18.7967C92.9943 21.8301 89.3984 25.4461 85.7623 29.5442L85.019 30.3478L90.8247 36.5552L91.3872 35.9124C95.184 31.533 98.7799 27.8768 102.336 24.7631C110.391 17.7119 117.422 14.136 123.268 14.136V14.0959Z" fill="white"/>
<path d="M123.267 1.46086C145.365 1.46086 163.344 18.9382 163.344 40.4132C163.344 43.4667 162.983 46.5001 162.239 49.4532C157.96 66.7899 141.568 79.3655 123.267 79.3655C116.316 79.3655 108.722 76.4526 100.667 70.7273C94.8611 66.589 88.7742 60.9842 82.0846 53.6116C78.1271 58.1316 74.1897 62.1092 70.3929 65.4439C65.1899 70.0041 59.9869 73.4996 54.9445 75.85C49.8821 78.2004 44.9805 79.3856 40.3399 79.3856C29.6727 79.3856 19.6685 75.3277 12.1753 67.9751C4.68217 60.6025 0.543865 50.8192 0.543865 40.4132C0.543865 37.3999 0.905464 34.3865 1.62866 31.4535C1.62866 31.4134 1.66884 31.2727 1.68893 31.2326C5.98795 13.9963 22.3604 1.46086 40.6212 1.46086C47.5719 1.46086 55.1655 4.37374 63.2212 10.0991C69.0268 14.2374 75.1138 19.8422 81.8034 27.2148C85.7609 22.6948 89.6983 18.7172 93.4951 15.4025C104.042 6.14156 114.066 1.46086 123.267 1.46086ZM90.8434 36.9177L91.5867 36.0539C95.3835 31.6946 98.9593 28.0384 102.515 24.9247C110.51 17.9136 117.501 14.3579 123.267 14.3579C137.972 14.3579 149.945 26.0496 149.945 40.4132C149.945 49.0715 145.405 57.2678 137.992 62.069C144.119 61.386 149.222 59.1762 153.139 55.52C156.755 52.1451 158.061 48.7099 158.181 48.3282C158.804 45.7568 159.125 43.085 159.125 40.4132C159.125 21.2484 143.034 5.65943 123.267 5.65943C115.111 5.65943 106.031 9.99863 96.2875 18.5364C92.8121 21.5899 89.1961 25.2059 85.5801 29.304L84.6761 30.2884L90.8635 36.8976M123.267 62.2699C135.642 62.1895 145.726 52.4062 145.726 40.4333C145.726 28.4603 135.642 18.5967 123.267 18.5967C120.033 18.5967 114.287 20.244 105.307 28.1188C101.591 31.3732 97.8142 35.2704 93.7563 40.0315C99.5418 46.1385 103.68 50.317 106.01 52.4464C107.597 53.9129 113.463 58.915 121.841 62.1493C122.323 62.2297 122.825 62.2699 123.267 62.2699ZM40.6212 62.2699C43.8555 62.2699 49.6009 60.6226 58.5806 52.7478C62.2971 49.4733 66.0939 45.576 70.1317 40.8351C64.3461 34.728 60.2078 30.5495 57.8775 28.4201C56.2905 26.9536 50.4245 21.9515 42.0475 18.7172C41.5654 18.6368 41.0631 18.5967 40.6212 18.5967C28.2464 18.677 18.1618 28.4603 18.1618 40.4333C18.1618 52.4062 28.2464 62.2699 40.6212 62.2699ZM25.896 18.7574C19.7689 19.4404 14.6663 21.6502 10.749 25.3064C7.13302 28.6813 5.84733 32.1165 5.70671 32.4982C5.08395 35.0695 4.76253 37.7414 4.76253 40.4132C4.76253 49.6742 8.43879 58.3927 15.1284 64.9417C21.8381 71.5309 30.7977 75.1469 40.36 75.1469C48.5764 75.1469 58.0181 70.6871 67.6206 62.2699C71.096 59.2164 74.6919 55.6004 78.328 51.5022L79.2119 50.4978L73.0446 43.9086L72.3013 44.7725C68.5045 49.1518 64.9287 52.7879 61.373 55.9017C53.3776 62.9127 46.3867 66.4685 40.6212 66.4685C25.9161 66.4685 13.9431 54.7767 13.9431 40.4132C13.9431 31.7549 18.4832 23.5586 25.896 18.7574ZM123.267 0.918457C113.925 0.918457 103.781 5.65943 93.1335 14.9807C89.4371 18.215 85.6404 22.052 81.8034 26.3912C75.2343 19.1993 69.2679 13.7151 63.5426 9.65712C55.4066 3.85143 47.6925 0.918457 40.6212 0.918457C22.1394 0.918457 5.546 13.5945 1.16662 31.0518C1.12644 31.1321 1.10635 31.2527 1.08626 31.3531C0.363065 34.3062 0.00146484 37.3597 0.00146484 40.4132C0.00146484 50.9799 4.17995 60.8838 11.7936 68.3568C19.4073 75.8299 29.5522 79.928 40.36 79.928C45.0809 79.928 50.0629 78.7227 55.1856 76.3522C60.2882 73.9817 65.5314 70.4661 70.7746 65.8658C74.4709 62.6315 78.2878 58.7945 82.1047 54.4553C88.6738 61.6471 94.6603 67.1314 100.365 71.1893C108.501 76.995 116.216 79.928 123.267 79.928C141.809 79.928 158.422 67.1716 162.782 49.5938C163.525 46.6006 163.907 43.5069 163.907 40.4132C163.887 18.6368 145.666 0.918457 123.267 0.918457ZM85.3993 30.3085L85.9618 29.6857C89.5778 25.6077 93.1737 21.9917 96.629 18.9583C106.272 10.5009 115.231 6.22192 123.247 6.22192C142.713 6.22192 158.563 21.5698 158.563 40.4132C158.563 43.0448 158.242 45.6564 157.639 48.1876C157.518 48.509 156.273 51.8237 152.757 55.1182C149.402 58.2521 145.184 60.2811 140.141 61.2052C146.57 56.183 150.467 48.4086 150.467 40.4132C150.467 25.7483 138.253 13.8155 123.247 13.8155C117.341 13.8155 110.249 17.4114 102.153 24.5229C98.5776 27.6567 94.9817 31.3129 91.1648 35.7124L90.8032 36.1142L85.3792 30.3085H85.3993ZM94.4995 39.9913C98.4169 35.4311 102.073 31.6745 105.669 28.5206C114.508 20.7663 120.133 19.1391 123.267 19.1391C135.34 19.1391 145.184 28.7014 145.184 40.4333C145.184 52.1652 135.36 61.6471 123.267 61.7275C122.885 61.7275 122.443 61.6873 121.981 61.607C113.725 58.4128 107.959 53.471 106.372 52.0246C104.102 49.9353 100.104 45.8974 94.4795 39.9913H94.4995ZM40.6212 61.7074C28.5478 61.7074 18.7042 52.1451 18.7042 40.4132C18.7042 28.6813 28.5277 19.1993 40.6212 19.119C41.0029 19.119 41.4448 19.1592 41.9069 19.2395C50.1634 22.4336 55.9289 27.3755 57.5159 28.8219C59.8061 30.9111 63.7836 34.9691 69.4085 40.8551C65.5113 45.4153 61.8551 49.1719 58.2391 52.346C49.4 60.1003 43.7751 61.7275 40.6413 61.7275L40.6212 61.7074ZM40.3399 74.6245C30.9383 74.6245 22.1193 71.0487 15.49 64.56C8.92093 58.1115 5.28484 49.5335 5.28484 40.4132C5.28484 37.7815 5.60626 35.17 6.20893 32.6388C6.32946 32.3174 7.59506 28.9826 11.0905 25.7081C14.4454 22.5944 18.664 20.5453 23.7063 19.6212C17.2779 24.6434 13.3807 32.4178 13.3807 40.4132C13.3807 55.0781 25.5947 67.0109 40.6011 67.0109C46.5072 67.0109 53.5986 63.4149 61.7145 56.3035C65.2903 53.1696 68.8862 49.5134 72.7031 45.114L73.0647 44.7122L78.4686 50.4978L77.9061 51.1406C74.2901 55.2187 70.6942 58.8347 67.2389 61.848C57.7168 70.1849 48.4157 74.6045 40.3399 74.6045V74.6245Z" fill="#231F20"/>
<path d="M86.858 177.418C86.6973 177.418 86.5566 177.277 86.5566 177.117V102.045C86.5566 101.884 86.6973 101.743 86.858 101.743H178.403C178.564 101.743 178.704 101.884 178.704 102.045V125.83C178.704 125.99 178.564 126.131 178.403 126.131H116.409V134.689H171.071C171.231 134.689 171.372 134.83 171.372 134.99V156.947C171.372 157.108 171.231 157.249 171.071 157.249H116.409V177.117C116.409 177.277 116.268 177.418 116.107 177.418H86.8379H86.858Z" fill="white"/>
<path d="M86.858 177.418C86.6973 177.418 86.5566 177.277 86.5566 177.117V102.045C86.5566 101.884 86.6973 101.743 86.858 101.743H178.403C178.564 101.743 178.704 101.884 178.704 102.045V125.83C178.704 125.99 178.564 126.131 178.403 126.131H116.409V134.689H171.071C171.231 134.689 171.372 134.83 171.372 134.99V156.947C171.372 157.108 171.231 157.249 171.071 157.249H116.409V177.117C116.409 177.277 116.268 177.418 116.107 177.418H86.8379H86.858Z" fill="white"/>
<path d="M238.187 179.146C218.139 179.106 203.755 174.847 195.458 166.51C189.552 160.564 186.559 152.408 186.599 142.263V101.924C186.599 101.764 186.74 101.623 186.9 101.623H216.17C216.331 101.623 216.471 101.764 216.471 101.924V140.415C216.351 152.749 226.837 154.597 238.187 154.758C249.537 154.597 260.004 152.749 259.843 140.415V101.924C259.843 101.764 259.984 101.623 260.144 101.623H289.474C289.635 101.623 289.775 101.764 289.775 101.924V142.263C289.816 152.408 286.843 160.564 280.916 166.51C272.62 174.847 258.256 179.106 238.187 179.146Z" fill="white"/>
<path d="M238.187 179.146C218.139 179.106 203.755 174.847 195.458 166.51C189.552 160.564 186.559 152.408 186.599 142.263V101.924C186.599 101.764 186.74 101.623 186.9 101.623H216.17C216.331 101.623 216.471 101.764 216.471 101.924V140.415C216.351 152.749 226.837 154.597 238.187 154.758C249.537 154.597 260.004 152.749 259.843 140.415V101.924C259.843 101.764 259.984 101.623 260.144 101.623H289.474C289.635 101.623 289.775 101.764 289.775 101.924V142.263C289.816 152.408 286.843 160.564 280.916 166.51C272.62 174.847 258.256 179.106 238.187 179.146Z" fill="white"/>
<path d="M348.734 179.146C324.427 179.085 300.461 176.976 297.508 152.347C297.508 152.267 297.508 152.186 297.588 152.106C297.669 152.026 297.729 152.005 297.809 152.005H328.485C328.585 152.005 328.686 152.066 328.746 152.146C331.579 157.028 337.927 159.318 348.775 159.318C353.455 159.318 368.763 158.816 368.763 152.287C368.763 149.193 358.759 148.731 348.152 148.229C326.697 147.144 297.488 145.657 297.548 126.653C297.548 108.573 314.302 99.7744 348.795 99.7744C373.122 99.9351 397.108 102.125 400.021 126.633C400.021 126.714 400.021 126.794 399.941 126.874C399.881 126.935 399.8 126.975 399.72 126.975H369.044C368.944 126.975 368.843 126.914 368.783 126.814C365.187 120.466 356.187 119.642 348.775 119.642C341.362 119.642 328.786 120.546 328.786 126.673C328.786 129.707 338.328 130.149 349.397 130.671C370.852 131.756 400.062 133.242 400.001 152.307C400.001 170.367 383.247 179.146 348.755 179.146H348.734Z" fill="white"/>
<path d="M348.734 179.146C324.427 179.085 300.461 176.976 297.508 152.347C297.508 152.267 297.508 152.186 297.588 152.106C297.669 152.026 297.729 152.005 297.809 152.005H328.485C328.585 152.005 328.686 152.066 328.746 152.146C331.579 157.028 337.927 159.318 348.775 159.318C353.455 159.318 368.763 158.816 368.763 152.287C368.763 149.193 358.759 148.731 348.152 148.229C326.697 147.144 297.488 145.657 297.548 126.653C297.548 108.573 314.302 99.7744 348.795 99.7744C373.122 99.9351 397.108 102.125 400.021 126.633C400.021 126.714 400.021 126.794 399.941 126.874C399.881 126.935 399.8 126.975 399.72 126.975H369.044C368.944 126.975 368.843 126.914 368.783 126.814C365.187 120.466 356.187 119.642 348.775 119.642C341.362 119.642 328.786 120.546 328.786 126.673C328.786 129.707 338.328 130.149 349.397 130.671C370.852 131.756 400.062 133.242 400.001 152.307C400.001 170.367 383.247 179.146 348.755 179.146H348.734Z" fill="white"/>
<path d="M436.767 101.643H407.497C407.331 101.643 407.196 101.777 407.196 101.944V177.016C407.196 177.182 407.331 177.317 407.497 177.317H436.767C436.933 177.317 437.068 177.182 437.068 177.016V101.944C437.068 101.777 436.933 101.643 436.767 101.643Z" fill="white"/>
<path d="M436.767 101.643H407.497C407.331 101.643 407.196 101.777 407.196 101.944V177.016C407.196 177.182 407.331 177.317 407.497 177.317H436.767C436.933 177.317 437.068 177.182 437.068 177.016V101.944C437.068 101.777 436.933 101.643 436.767 101.643Z" fill="white"/>
<path d="M496.651 179.146C476.602 179.106 462.238 174.867 453.942 166.531C448.015 160.564 445.042 152.388 445.082 142.223V136.759C445.042 126.574 448.015 118.378 453.942 112.411C462.339 103.974 476.301 99.8556 496.651 99.8154C530.842 99.8154 548.179 112.25 548.179 136.759V142.243C548.219 152.428 545.246 160.604 539.319 166.571C531.043 174.908 516.679 179.146 496.671 179.187L496.651 179.146ZM496.651 124.183C485.28 124.344 474.774 126.192 474.934 138.527V140.375C474.774 152.75 485.28 154.618 496.651 154.779C508.001 154.618 518.467 152.77 518.306 140.395V138.547C518.467 126.212 508.001 124.364 496.651 124.203V124.183Z" fill="white"/>
<path d="M496.651 179.146C476.602 179.106 462.238 174.867 453.942 166.531C448.015 160.564 445.042 152.388 445.082 142.223V136.759C445.042 126.574 448.015 118.378 453.942 112.411C462.339 103.974 476.301 99.8556 496.651 99.8154C530.842 99.8154 548.179 112.25 548.179 136.759V142.243C548.219 152.428 545.246 160.604 539.319 166.571C531.043 174.908 516.679 179.146 496.671 179.187L496.651 179.146ZM496.651 124.183C485.28 124.344 474.774 126.192 474.934 138.527V140.375C474.774 152.75 485.28 154.618 496.651 154.779C508.001 154.618 518.467 152.77 518.306 140.395V138.547C518.467 126.212 508.001 124.364 496.651 124.203V124.183Z" fill="white"/>
<path d="M626.122 177.317C626.122 177.317 625.961 177.277 625.901 177.217L586.085 131.937V177.016C586.085 177.177 585.944 177.317 585.784 177.317H556.514C556.354 177.317 556.213 177.177 556.213 177.016V101.944C556.213 101.783 556.354 101.643 556.514 101.643H596.792C596.792 101.643 596.973 101.683 597.013 101.743L629.437 140.876V101.924C629.437 101.763 629.577 101.623 629.738 101.623H659.068C659.229 101.623 659.369 101.763 659.369 101.924V176.996C659.369 177.157 659.229 177.297 659.068 177.297H626.102L626.122 177.317Z" fill="white"/>
<path d="M626.122 177.317C626.122 177.317 625.961 177.277 625.901 177.217L586.085 131.937V177.016C586.085 177.177 585.944 177.317 585.784 177.317H556.514C556.354 177.317 556.213 177.177 556.213 177.016V101.944C556.213 101.783 556.354 101.643 556.514 101.643H596.792C596.792 101.643 596.973 101.683 597.013 101.743L629.437 140.876V101.924C629.437 101.763 629.577 101.623 629.738 101.623H659.068C659.229 101.623 659.369 101.763 659.369 101.924V176.996C659.369 177.157 659.229 177.297 659.068 177.297H626.102L626.122 177.317Z" fill="white"/>
<path d="M230.141 79.9463C210.092 79.9061 195.729 75.6472 187.432 67.3104C181.506 61.344 178.533 53.1678 178.573 43.0028V37.5387C178.472 13.1708 195.829 0.735837 230.141 0.595215C262.645 0.655481 279.941 11.845 281.548 33.8222C281.548 33.9026 281.528 33.9829 281.468 34.0432C281.408 34.1035 281.327 34.1436 281.247 34.1436H251.254C251.134 34.1436 251.013 34.0633 250.973 33.9427C248.04 26.0478 238.297 25.0233 230.141 25.0233C218.791 25.184 208.324 27.0322 208.485 39.3667V41.2149C208.324 53.5495 218.791 55.3977 230.141 55.5584C242.295 55.5584 248.723 52.7861 250.973 46.5987C251.013 46.4782 251.134 46.3978 251.254 46.3978H281.247C281.247 46.3978 281.408 46.438 281.468 46.4983C281.528 46.5586 281.548 46.6389 281.548 46.7193C279.941 68.7768 262.645 79.9463 230.141 79.9463Z" fill="white"/>
<path d="M230.141 79.9463C210.092 79.9061 195.729 75.6472 187.432 67.3104C181.506 61.344 178.533 53.1678 178.573 43.0028V37.5387C178.472 13.1708 195.829 0.735837 230.141 0.595215C262.645 0.655481 279.941 11.845 281.548 33.8222C281.548 33.9026 281.528 33.9829 281.468 34.0432C281.408 34.1035 281.327 34.1436 281.247 34.1436H251.254C251.134 34.1436 251.013 34.0633 250.973 33.9427C248.04 26.0478 238.297 25.0233 230.141 25.0233C218.791 25.184 208.324 27.0322 208.485 39.3667V41.2149C208.324 53.5495 218.791 55.3977 230.141 55.5584C242.295 55.5584 248.723 52.7861 250.973 46.5987C251.013 46.4782 251.134 46.3978 251.254 46.3978H281.247C281.247 46.3978 281.408 46.438 281.468 46.4983C281.528 46.5586 281.548 46.6389 281.548 46.7193C279.941 68.7768 262.645 79.9463 230.141 79.9463Z" fill="white"/>
<path d="M363.188 78.0976C363.027 78.0976 362.887 77.957 362.887 77.7963V52.4441H319.515V77.7963C319.515 77.957 319.374 78.0976 319.213 78.0976H289.944C289.783 78.0976 289.643 77.957 289.643 77.7963V2.72418C289.643 2.56347 289.783 2.42285 289.944 2.42285H319.213C319.374 2.42285 319.515 2.56347 319.515 2.72418V28.0763H362.887V2.72418C362.887 2.56347 363.027 2.42285 363.188 2.42285H392.518C392.678 2.42285 392.819 2.56347 392.819 2.72418V77.7963C392.819 77.957 392.678 78.0976 392.518 78.0976H363.188Z" fill="white"/>
<path d="M363.188 78.0976C363.027 78.0976 362.887 77.957 362.887 77.7963V52.4441H319.515V77.7963C319.515 77.957 319.374 78.0976 319.213 78.0976H289.944C289.783 78.0976 289.643 77.957 289.643 77.7963V2.72418C289.643 2.56347 289.783 2.42285 289.944 2.42285H319.213C319.374 2.42285 319.515 2.56347 319.515 2.72418V28.0763H362.887V2.72418C362.887 2.56347 363.027 2.42285 363.188 2.42285H392.518C392.678 2.42285 392.819 2.56347 392.819 2.72418V77.7963C392.819 77.957 392.678 78.0976 392.518 78.0976H363.188Z" fill="white"/>
<path d="M477.152 78.2187C477.031 78.2187 476.931 78.1585 476.891 78.0379L471.045 65.3619H433.84L427.994 78.0379C427.954 78.1384 427.834 78.2187 427.733 78.2187H394.767C394.667 78.2187 394.566 78.1585 394.506 78.0781C394.446 77.9977 394.446 77.8772 394.506 77.7969L434.764 2.70466C434.764 2.70466 434.925 2.54395 435.025 2.54395H469.819C469.92 2.54395 470.02 2.60421 470.08 2.70466L510.359 77.7768C510.359 77.7768 510.399 77.9777 510.359 78.058C510.298 78.1384 510.198 78.1986 510.097 78.1986H477.132L477.152 78.2187ZM462.266 46.4582L452.442 25.2845L442.579 46.4582H462.266Z" fill="white"/>
<path d="M477.152 78.2187C477.031 78.2187 476.931 78.1585 476.891 78.0379L471.045 65.3619H433.84L427.994 78.0379C427.954 78.1384 427.834 78.2187 427.733 78.2187H394.767C394.667 78.2187 394.566 78.1585 394.506 78.0781C394.446 77.9977 394.446 77.8772 394.506 77.7969L434.764 2.70466C434.764 2.70466 434.925 2.54395 435.025 2.54395H469.819C469.92 2.54395 470.02 2.60421 470.08 2.70466L510.359 77.7768C510.359 77.7768 510.399 77.9777 510.359 78.058C510.298 78.1384 510.198 78.1986 510.097 78.1986H477.132L477.152 78.2187ZM462.266 46.4582L452.442 25.2845L442.579 46.4582H462.266Z" fill="white"/>
<path d="M541.618 2.44385H512.349C512.182 2.44385 512.047 2.57876 512.047 2.74518V77.8173C512.047 77.9837 512.182 78.1186 512.349 78.1186H541.618C541.785 78.1186 541.92 77.9837 541.92 77.8173V2.74518C541.92 2.57876 541.785 2.44385 541.618 2.44385Z" fill="white"/>
<path d="M541.618 2.44385H512.349C512.182 2.44385 512.047 2.57876 512.047 2.74518V77.8173C512.047 77.9837 512.182 78.1186 512.349 78.1186H541.618C541.785 78.1186 541.92 77.9837 541.92 77.8173V2.74518C541.92 2.57876 541.785 2.44385 541.618 2.44385Z" fill="white"/>
<path d="M626.735 78.0981C626.735 78.0981 626.574 78.0579 626.514 77.9977L586.697 32.7174V77.7968C586.697 77.9575 586.557 78.0981 586.396 78.0981H557.127C556.966 78.0981 556.825 77.9575 556.825 77.7968V2.72467C556.825 2.56396 556.966 2.42334 557.127 2.42334H597.405C597.405 2.42334 597.586 2.46352 597.626 2.52378L630.049 41.6569V2.72467C630.049 2.56396 630.19 2.42334 630.35 2.42334H659.68C659.841 2.42334 659.982 2.56396 659.982 2.72467V77.7968C659.982 77.9575 659.841 78.0981 659.68 78.0981H626.714H626.735Z" fill="white"/>
<path d="M626.735 78.0981C626.735 78.0981 626.574 78.0579 626.514 77.9977L586.697 32.7174V77.7968C586.697 77.9575 586.557 78.0981 586.396 78.0981H557.127C556.966 78.0981 556.825 77.9575 556.825 77.7968V2.72467C556.825 2.56396 556.966 2.42334 557.127 2.42334H597.405C597.405 2.42334 597.586 2.46352 597.626 2.52378L630.049 41.6569V2.72467C630.049 2.56396 630.19 2.42334 630.35 2.42334H659.68C659.841 2.42334 659.982 2.56396 659.982 2.72467V77.7968C659.982 77.9575 659.841 78.0981 659.68 78.0981H626.714H626.735Z" fill="white"/>
<path d="M123.268 79.6439C116.257 79.6439 108.603 76.731 100.508 70.9655C94.7421 66.8674 88.7154 61.3229 82.0861 54.0306C78.1888 58.4501 74.3117 62.3675 70.5751 65.642C65.352 70.2222 60.1289 73.7378 55.0665 76.0882C49.9841 78.4386 45.0221 79.6439 40.3615 79.6439C29.634 79.6439 19.5494 75.5659 11.996 68.1531C4.44258 60.7604 0.28418 50.8967 0.28418 40.4103C0.28418 37.3769 0.645779 34.3234 1.36898 31.3703C1.36898 31.3302 1.42925 31.1494 1.44933 31.0891C5.74835 13.7926 22.2413 1.17676 40.6226 1.17676C47.6337 1.17676 55.2875 4.08965 63.3833 9.85515C69.1488 13.9533 75.1755 19.4978 81.8048 26.7901C85.7021 22.3504 89.5792 18.4532 93.3158 15.1787C103.923 5.89764 113.987 1.17676 123.268 1.17676C145.527 1.17676 163.627 18.7746 163.627 40.4103C163.627 43.4839 163.245 46.5374 162.522 49.5307C158.203 66.9879 141.71 79.6439 123.288 79.6439H123.268ZM24.7926 19.1764C19.228 20 14.5674 22.1295 10.9313 25.5044C7.37555 28.8191 6.08986 32.2141 5.94924 32.5958C5.32649 35.127 5.02515 37.7787 5.02515 40.4103C5.02515 49.611 8.68133 58.2493 15.3107 64.7581C21.9802 71.2869 30.8594 74.8829 40.3414 74.8829C48.4975 74.8829 57.8589 70.4432 67.4212 62.0661C70.8765 59.0327 74.4724 55.4167 78.1085 51.3387L78.8317 50.515L73.0461 44.3277L72.5037 44.9705C68.7069 49.3499 65.111 53.0061 61.5552 56.1198C53.4996 63.171 46.4685 66.7469 40.6226 66.7469C25.7569 66.7469 13.6835 54.9346 13.6835 40.4103C13.6835 32.1337 17.9222 24.0982 24.8127 19.1563L24.7926 19.1764ZM94.1193 39.9885C99.8245 45.995 103.882 50.1133 106.193 52.2226C107.78 53.669 113.606 58.6711 121.942 61.8653C122.364 61.9255 122.846 61.9858 123.268 61.9858C135.502 61.9054 145.446 52.2427 145.446 40.4103C145.446 28.578 135.502 18.8349 123.268 18.8349C120.074 18.8349 114.389 20.4822 105.49 28.2967C101.833 31.4909 98.117 35.3279 94.1394 39.9885H94.1193ZM40.6226 18.855C28.3885 18.9353 18.4445 28.5981 18.4445 40.4304C18.4445 52.2628 28.3885 62.0059 40.6226 62.0059C43.8168 62.0059 49.5019 60.3586 58.4013 52.544C62.0776 49.3298 65.794 45.4928 69.7515 40.8523C64.0463 34.8457 59.9883 30.7275 57.6781 28.6182C56.0911 27.1718 50.2653 22.1696 41.9284 18.9755C41.5065 18.9152 41.0244 18.8751 40.6025 18.8751L40.6226 18.855ZM123.268 14.0939C138.134 14.0939 150.207 25.9062 150.207 40.4304C150.207 48.707 145.969 56.7426 139.078 61.6845C144.643 60.8608 149.303 58.7314 152.94 55.3565C156.515 52.0217 157.781 48.6468 157.922 48.2651C158.544 45.7339 158.846 43.1022 158.846 40.4505C158.846 21.4464 142.875 5.978 123.248 5.978C115.152 5.978 106.132 10.2971 96.4496 18.7947C92.9943 21.8281 89.3984 25.4441 85.7623 29.5423L85.019 30.3458L90.8247 36.5533L91.3872 35.9104C95.184 31.531 98.7799 27.8749 102.336 24.7611C110.391 17.7099 117.422 14.1341 123.268 14.1341V14.0939Z" fill="white"/>
<path d="M123.267 1.45842C145.365 1.45842 163.344 18.9357 163.344 40.4107C163.344 43.4643 162.983 46.4977 162.239 49.4507C157.96 66.7874 141.568 79.3631 123.267 79.3631C116.316 79.3631 108.722 76.4502 100.667 70.7249C94.8611 66.5865 88.7742 60.9818 82.0846 53.6091C78.1271 58.1291 74.1897 62.1067 70.3929 65.4415C65.1899 70.0017 59.9869 73.4971 54.9445 75.8475C49.8821 78.1979 44.9805 79.3832 40.3399 79.3832C29.6727 79.3832 19.6685 75.3252 12.1753 67.9727C4.68217 60.6001 0.543865 50.8168 0.543865 40.4107C0.543865 37.3974 0.905464 34.3841 1.62866 31.4511C1.62866 31.4109 1.66884 31.2703 1.68893 31.2301C5.98795 13.9939 22.3604 1.45842 40.6212 1.45842C47.5719 1.45842 55.1655 4.3713 63.2212 10.0966C69.0268 14.2349 75.1138 19.8397 81.8034 27.2124C85.7609 22.6924 89.6983 18.7148 93.4951 15.4001C104.042 6.13912 114.066 1.45842 123.267 1.45842ZM90.8434 36.9153L91.5867 36.0515C95.3835 31.6922 98.9593 28.036 102.515 24.9222C110.51 17.9112 117.501 14.3555 123.267 14.3555C137.972 14.3555 149.945 26.0472 149.945 40.4107C149.945 49.069 145.405 57.2653 137.992 62.0666C144.119 61.3835 149.222 59.1738 153.139 55.5176C156.755 52.1426 158.061 48.7075 158.181 48.3258C158.804 45.7544 159.125 43.0826 159.125 40.4107C159.125 21.246 143.034 5.65699 123.267 5.65699C115.111 5.65699 106.031 9.99619 96.2875 18.534C92.8121 21.5875 89.1961 25.2035 85.5801 29.3016L84.6761 30.286L90.8635 36.8952M123.267 62.2674C135.642 62.1871 145.726 52.4038 145.726 40.4308C145.726 28.4579 135.642 18.5942 123.267 18.5942C120.033 18.5942 114.287 20.2415 105.307 28.1164C101.591 31.3708 97.8142 35.268 93.7563 40.0291C99.5418 46.1361 103.68 50.3146 106.01 52.444C107.597 53.9105 113.463 58.9126 121.841 62.1469C122.323 62.2273 122.825 62.2674 123.267 62.2674ZM40.6212 62.2674C43.8555 62.2674 49.6009 60.6202 58.5806 52.7453C62.2971 49.4708 66.0939 45.5736 70.1317 40.8326C64.3461 34.7256 60.2078 30.5471 57.8775 28.4177C56.2905 26.9512 50.4245 21.9491 42.0475 18.7148C41.5654 18.6344 41.0631 18.5942 40.6212 18.5942C28.2464 18.6746 18.1618 28.4579 18.1618 40.4308C18.1618 52.4038 28.2464 62.2674 40.6212 62.2674ZM25.896 18.7549C19.7689 19.438 14.6663 21.6477 10.749 25.3039C7.13302 28.6788 5.84733 32.114 5.70671 32.4957C5.08395 35.0671 4.76253 37.7389 4.76253 40.4107C4.76253 49.6717 8.43879 58.3903 15.1284 64.9393C21.8381 71.5284 30.7977 75.1444 40.36 75.1444C48.5764 75.1444 58.0181 70.6847 67.6206 62.2674C71.096 59.2139 74.6919 55.5979 78.328 51.4998L79.2119 50.4954L73.0446 43.9062L72.3013 44.77C68.5045 49.1494 64.9287 52.7855 61.373 55.8993C53.3776 62.9103 46.3867 66.466 40.6212 66.466C25.9161 66.466 13.9431 54.7743 13.9431 40.4107C13.9431 31.7524 18.4832 23.5562 25.896 18.7549ZM123.267 0.916016C113.925 0.916016 103.781 5.65699 93.1335 14.9782C89.4371 18.2125 85.6404 22.0495 81.8034 26.3887C75.2343 19.1969 69.2679 13.7126 63.5426 9.65468C55.4066 3.84899 47.6925 0.916016 40.6212 0.916016C22.1394 0.916016 5.546 13.5921 1.16662 31.0493C1.12644 31.1297 1.10635 31.2502 1.08626 31.3507C0.363065 34.3037 0.00146484 37.3572 0.00146484 40.4107C0.00146484 50.9775 4.17995 60.8813 11.7936 68.3544C19.4073 75.8274 29.5522 79.9256 40.36 79.9256C45.0809 79.9256 50.0629 78.7202 55.1856 76.3497C60.2882 73.9793 65.5314 70.4637 70.7746 65.8633C74.4709 62.629 78.2878 58.7921 82.1047 54.4529C88.6738 61.6447 94.6603 67.1289 100.365 71.1869C108.501 76.9926 116.216 79.9256 123.267 79.9256C141.809 79.9256 158.422 67.1691 162.782 49.5914C163.525 46.5981 163.907 43.5044 163.907 40.4107C163.887 18.6344 145.666 0.916016 123.267 0.916016ZM85.3993 30.306L85.9618 29.6833C89.5778 25.6052 93.1737 21.9892 96.629 18.9558C106.272 10.4984 115.231 6.21948 123.247 6.21948C142.713 6.21948 158.563 21.5674 158.563 40.4107C158.563 43.0424 158.242 45.6539 157.639 48.1851C157.518 48.5066 156.273 51.8212 152.757 55.1158C149.402 58.2497 145.184 60.2786 140.141 61.2027C146.57 56.1805 150.467 48.4061 150.467 40.4107C150.467 25.7459 138.253 13.8131 123.247 13.8131C117.341 13.8131 110.249 17.409 102.153 24.5204C98.5776 27.6543 94.9817 31.3105 91.1648 35.7099L90.8032 36.1117L85.3792 30.306H85.3993ZM94.4995 39.9889C98.4169 35.4287 102.073 31.6721 105.669 28.5181C114.508 20.7638 120.133 19.1366 123.267 19.1366C135.34 19.1366 145.184 28.6989 145.184 40.4308C145.184 52.1627 135.36 61.6447 123.267 61.725C122.885 61.725 122.443 61.6849 121.981 61.6045C113.725 58.4104 107.959 53.4685 106.372 52.0221C104.102 49.9329 100.104 45.895 94.4795 39.9889H94.4995ZM40.6212 61.705C28.5478 61.705 18.7042 52.1426 18.7042 40.4107C18.7042 28.6788 28.5277 19.1969 40.6212 19.1165C41.0029 19.1165 41.4448 19.1567 41.9069 19.2371C50.1634 22.4312 55.9289 27.3731 57.5159 28.8195C59.8061 30.9087 63.7836 34.9667 69.4085 40.8527C65.5113 45.4129 61.8551 49.1695 58.2391 52.3435C49.4 60.0978 43.7751 61.725 40.6413 61.725L40.6212 61.705ZM40.3399 74.6221C30.9383 74.6221 22.1193 71.0463 15.49 64.5576C8.92093 58.109 5.28484 49.5311 5.28484 40.4107C5.28484 37.7791 5.60626 35.1675 6.20893 32.6363C6.32946 32.3149 7.59506 28.9802 11.0905 25.7057C14.4454 22.5919 18.664 20.5428 23.7063 19.6188C17.2779 24.641 13.3807 32.4154 13.3807 40.4107C13.3807 55.0756 25.5947 67.0084 40.6011 67.0084C46.5072 67.0084 53.5986 63.4125 61.7145 56.301C65.2903 53.1672 68.8862 49.511 72.7031 45.1115L73.0647 44.7098L78.4686 50.4954L77.9061 51.1382C74.2901 55.2162 70.6942 58.8322 67.2389 61.8456C57.7168 70.1825 48.4157 74.602 40.3399 74.602V74.6221Z" fill="white"/>
</g>
<defs>
<clipPath id="clip0_15715_91436">
<rect width="660" height="178.55" fill="white" transform="translate(0 0.597168)"/>
</clipPath>
</defs>
</svg>
