<svg xmlns="http://www.w3.org/2000/svg" width="660" height="180" fill="none" viewBox="0 0 660 180"><g clip-path="url(#a)"><path fill="#fff" d="M123.268 79.646c-7.011 0-14.665-2.913-22.76-8.678-5.766-4.099-11.793-9.643-18.422-16.936-3.897 4.42-7.774 8.337-11.51 11.612-5.224 4.58-10.447 8.096-15.51 10.446-5.082 2.35-10.044 3.556-14.705 3.556-10.727 0-20.812-4.078-28.365-11.491C4.443 60.762.284 50.899.284 40.412c0-3.033.362-6.087 1.085-9.04 0-.04.06-.22.08-.28C5.75 13.794 22.241 1.178 40.623 1.178c7.01 0 14.665 2.913 22.76 8.678 5.766 4.098 11.792 9.643 18.422 16.935 3.897-4.44 7.774-8.337 11.51-11.611C103.924 5.9 113.988 1.179 123.269 1.179c22.259 0 40.359 17.598 40.359 39.233 0 3.074-.382 6.127-1.105 9.12-4.319 17.458-20.812 30.114-39.234 30.114h-.02ZM24.793 19.178c-5.565.824-10.226 2.953-13.862 6.328-3.555 3.315-4.841 6.71-4.982 7.092a32.868 32.868 0 0 0-.924 7.814c0 9.201 3.656 17.84 10.286 24.348 6.67 6.529 15.548 10.125 25.03 10.125 8.157 0 17.518-4.44 27.08-12.817 3.455-3.033 7.051-6.65 10.688-10.727l.723-.824-5.786-6.187-.542.642c-3.797 4.38-7.393 8.036-10.949 11.15-8.055 7.051-15.087 10.627-20.932 10.627-14.866 0-26.94-11.812-26.94-26.337 0-8.276 4.24-16.312 11.13-21.254l-.02.02ZM94.119 39.99c5.706 6.007 9.763 10.125 12.074 12.234 1.587 1.447 7.413 6.45 15.749 9.643.422.06.904.12 1.326.12 12.234-.08 22.178-9.742 22.178-21.575 0-11.832-9.944-21.575-22.178-21.575-3.194 0-8.879 1.647-17.778 9.462-3.657 3.194-7.373 7.03-11.35 11.691h-.02ZM40.623 18.857c-12.234.08-22.178 9.743-22.178 21.575 0 11.833 9.944 21.576 22.178 21.576 3.194 0 8.879-1.648 17.778-9.462 3.677-3.214 7.393-7.051 11.35-11.692-5.705-6.006-9.763-10.124-12.073-12.234-1.587-1.446-7.413-6.448-15.75-9.643-.421-.06-.904-.1-1.325-.1l.02-.02Zm82.645-4.761c14.866 0 26.939 11.812 26.939 26.336 0 8.277-4.238 16.313-11.129 21.254 5.565-.823 10.225-2.953 13.862-6.328 3.575-3.334 4.841-6.71 4.982-7.091.622-2.531.924-5.163.924-7.815 0-19.004-15.971-34.472-35.598-34.472-8.096 0-17.116 4.32-26.798 12.817-3.456 3.033-7.052 6.65-10.688 10.747l-.743.804 5.806 6.207.562-.643c3.797-4.379 7.393-8.035 10.949-11.149 8.055-7.051 15.086-10.627 20.932-10.627v-.04Z"/><path fill="#231F20" d="M123.267 1.46c22.098 0 40.077 17.478 40.077 38.953a36.97 36.97 0 0 1-1.105 9.04c-4.279 17.337-20.671 29.912-38.972 29.912-6.951 0-14.545-2.912-22.6-8.638-5.806-4.138-11.893-9.743-18.582-17.115-3.958 4.52-7.895 8.497-11.692 11.832-5.203 4.56-10.406 8.056-15.449 10.406-5.062 2.35-9.964 3.536-14.604 3.536-10.667 0-20.672-4.058-28.165-11.41C4.682 60.602.544 50.818.544 40.412c0-3.013.361-6.026 1.085-8.96 0-.04.04-.18.06-.22C5.988 13.996 22.36 1.46 40.62 1.46c6.95 0 14.544 2.913 22.6 8.638 5.806 4.138 11.893 9.743 18.582 17.116 3.958-4.52 7.895-8.498 11.692-11.813 10.547-9.26 20.571-13.941 29.772-13.941ZM90.843 36.919l.744-.864c3.796-4.36 7.372-8.016 10.928-11.13 7.995-7.01 14.986-10.566 20.752-10.566 14.705 0 26.678 11.692 26.678 26.055 0 8.659-4.54 16.855-11.953 21.656 6.127-.683 11.23-2.893 15.147-6.549 3.616-3.375 4.922-6.81 5.042-7.192a33.71 33.71 0 0 0 .944-7.915c0-19.165-16.091-34.754-35.858-34.754-8.156 0-17.236 4.34-26.98 12.877-3.475 3.054-7.09 6.67-10.707 10.768l-.904.984 6.188 6.61m32.403 25.372c12.375-.08 22.459-9.864 22.459-21.837 0-11.973-10.084-21.836-22.459-21.836-3.234 0-8.98 1.647-17.96 9.522-3.716 3.254-7.493 7.151-11.55 11.913 5.785 6.107 9.923 10.285 12.253 12.414 1.587 1.467 7.453 6.469 15.831 9.703.482.08.984.12 1.426.12Zm-82.646 0c3.234 0 8.98-1.647 17.96-9.522 3.716-3.275 7.513-7.172 11.55-11.913-5.785-6.107-9.923-10.286-12.254-12.415-1.587-1.466-7.453-6.469-15.83-9.703a8.91 8.91 0 0 0-1.426-.12c-12.375.08-22.46 9.863-22.46 21.836 0 11.973 10.085 21.837 22.46 21.837ZM25.896 18.757c-6.127.683-11.23 2.893-15.147 6.55-3.616 3.374-4.902 6.81-5.042 7.191a33.721 33.721 0 0 0-.944 7.915c0 9.261 3.676 17.98 10.365 24.529 6.71 6.589 15.67 10.205 25.232 10.205 8.216 0 17.658-4.46 27.26-12.877 3.476-3.054 7.072-6.67 10.708-10.768l.884-1.004-6.167-6.59-.744.864c-3.797 4.38-7.372 8.016-10.928 11.13-7.995 7.01-14.986 10.567-20.752 10.567-14.705 0-26.678-11.692-26.678-26.056 0-8.658 4.54-16.854 11.953-21.656ZM123.267.918c-9.342 0-19.486 4.741-30.133 14.063-3.697 3.234-7.494 7.071-11.33 11.41-6.57-7.192-12.536-12.676-18.261-16.734C55.407 3.851 47.693.918 40.62.918 22.14.918 5.546 13.595 1.167 31.052c-.04.08-.06.2-.08.301A38.156 38.156 0 0 0 0 40.413c0 10.567 4.179 20.47 11.793 27.944 7.613 7.473 17.758 11.571 28.566 11.571 4.72 0 9.703-1.205 14.826-3.576 5.102-2.37 10.345-5.886 15.589-10.486 3.696-3.234 7.513-7.072 11.33-11.41 6.569 7.191 12.555 12.675 18.26 16.733 8.136 5.806 15.851 8.739 22.902 8.739 18.542 0 35.155-12.756 39.515-30.334a38.177 38.177 0 0 0 1.125-9.18c-.02-21.777-18.241-39.496-40.64-39.496Zm-37.868 29.39.563-.622c3.616-4.078 7.212-7.694 10.667-10.728 9.643-8.457 18.602-12.736 26.618-12.736 19.466 0 35.316 15.348 35.316 34.191 0 2.632-.321 5.243-.924 7.775-.121.321-1.366 3.636-4.882 6.93-3.355 3.134-7.573 5.163-12.616 6.087 6.429-5.022 10.326-12.796 10.326-20.792 0-14.665-12.214-26.597-27.22-26.597-5.906 0-12.998 3.595-21.094 10.707-3.575 3.134-7.171 6.79-10.988 11.19l-.362.401-5.424-5.805h.02Zm9.1 9.683c3.918-4.56 7.574-8.317 11.17-11.47 8.839-7.755 14.464-9.382 17.598-9.382 12.073 0 21.917 9.562 21.917 21.294 0 11.732-9.824 21.214-21.917 21.294-.382 0-.824-.04-1.286-.12-8.256-3.194-14.022-8.136-15.609-9.582-2.27-2.09-6.268-6.128-11.892-12.034h.02ZM40.621 61.707c-12.073 0-21.917-9.562-21.917-21.294 0-11.732 9.824-21.214 21.917-21.294.382 0 .824.04 1.286.12 8.256 3.195 14.022 8.136 15.609 9.583 2.29 2.09 6.268 6.147 11.893 12.033-3.898 4.56-7.554 8.317-11.17 11.491-8.839 7.754-14.464 9.382-17.598 9.382l-.02-.02Zm-.281 12.917c-9.402 0-18.22-3.575-24.85-10.064C8.92 58.111 5.285 49.533 5.285 40.413c0-2.631.321-5.243.924-7.774.12-.322 1.386-3.656 4.882-6.93 3.354-3.115 7.573-5.164 12.615-6.088-6.428 5.022-10.325 12.797-10.325 20.792 0 14.665 12.214 26.598 27.22 26.598 5.906 0 12.998-3.596 21.114-10.707 3.575-3.134 7.171-6.79 10.988-11.19l.362-.402 5.404 5.786-.563.643c-3.616 4.078-7.212 7.694-10.667 10.707-9.522 8.337-18.823 12.757-26.9 12.757v.02Z"/><path fill="#fff" d="M86.858 177.418a.31.31 0 0 1-.301-.301v-75.072a.31.31 0 0 1 .301-.302h91.545c.161 0 .301.141.301.302v23.785c0 .16-.14.301-.301.301h-61.994v8.558h54.662a.31.31 0 0 1 .301.301v21.957a.31.31 0 0 1-.301.302h-54.662v19.868a.31.31 0 0 1-.302.301h-29.27.021Z"/><path fill="#fff" d="M86.858 177.418a.31.31 0 0 1-.301-.301v-75.072a.31.31 0 0 1 .301-.302h91.545c.161 0 .301.141.301.302v23.785c0 .16-.14.301-.301.301h-61.994v8.558h54.662a.31.31 0 0 1 .301.301v21.957a.31.31 0 0 1-.301.302h-54.662v19.868a.31.31 0 0 1-.302.301h-29.27.021ZM238.187 179.146c-20.048-.04-34.432-4.299-42.729-12.636-5.906-5.946-8.899-14.102-8.859-24.247v-40.339a.31.31 0 0 1 .301-.301h29.27c.161 0 .301.141.301.301v38.491c-.12 12.334 10.366 14.182 21.716 14.343 11.35-.161 21.817-2.009 21.656-14.343v-38.491a.31.31 0 0 1 .301-.301h29.33c.161 0 .301.141.301.301v40.339c.041 10.145-2.932 18.301-8.859 24.247-8.296 8.337-22.66 12.596-42.729 12.636Z"/><path fill="#fff" d="M238.187 179.146c-20.048-.04-34.432-4.299-42.729-12.636-5.906-5.946-8.899-14.102-8.859-24.247v-40.339a.31.31 0 0 1 .301-.301h29.27c.161 0 .301.141.301.301v38.491c-.12 12.334 10.366 14.182 21.716 14.343 11.35-.161 21.817-2.009 21.656-14.343v-38.491a.31.31 0 0 1 .301-.301h29.33c.161 0 .301.141.301.301v40.339c.041 10.145-2.932 18.301-8.859 24.247-8.296 8.337-22.66 12.596-42.729 12.636ZM348.734 179.146c-24.307-.061-48.273-2.17-51.226-26.799 0-.08 0-.161.08-.241.081-.08.141-.101.221-.101h30.676c.1 0 .201.061.261.141 2.833 4.882 9.181 7.172 20.029 7.172 4.68 0 19.988-.502 19.988-7.031 0-3.094-10.004-3.556-20.611-4.058-21.455-1.085-50.664-2.572-50.604-21.576 0-18.08 16.754-26.879 51.247-26.879 24.327.161 48.313 2.351 51.226 26.859 0 .081 0 .161-.08.241a.32.32 0 0 1-.221.101h-30.676a.315.315 0 0 1-.261-.161c-3.596-6.348-12.596-7.172-20.008-7.172-7.413 0-19.989.904-19.989 7.031 0 3.034 9.542 3.476 20.611 3.998 21.455 1.085 50.665 2.571 50.604 21.636 0 18.06-16.754 26.839-51.246 26.839h-.021Z"/><path fill="#fff" d="M348.734 179.146c-24.307-.061-48.273-2.17-51.226-26.799 0-.08 0-.161.08-.241.081-.08.141-.101.221-.101h30.676c.1 0 .201.061.261.141 2.833 4.882 9.181 7.172 20.029 7.172 4.68 0 19.988-.502 19.988-7.031 0-3.094-10.004-3.556-20.611-4.058-21.455-1.085-50.664-2.572-50.604-21.576 0-18.08 16.754-26.879 51.247-26.879 24.327.161 48.313 2.351 51.226 26.859 0 .081 0 .161-.08.241a.32.32 0 0 1-.221.101h-30.676a.315.315 0 0 1-.261-.161c-3.596-6.348-12.596-7.172-20.008-7.172-7.413 0-19.989.904-19.989 7.031 0 3.034 9.542 3.476 20.611 3.998 21.455 1.085 50.665 2.571 50.604 21.636 0 18.06-16.754 26.839-51.246 26.839h-.021ZM436.767 101.643h-29.27a.3.3 0 0 0-.301.301v75.072c0 .166.135.301.301.301h29.27a.301.301 0 0 0 .301-.301v-75.072a.3.3 0 0 0-.301-.301Z"/><path fill="#fff" d="M436.767 101.643h-29.27a.3.3 0 0 0-.301.301v75.072c0 .166.135.301.301.301h29.27a.301.301 0 0 0 .301-.301v-75.072a.3.3 0 0 0-.301-.301ZM496.651 179.146c-20.049-.04-34.413-4.279-42.709-12.615-5.927-5.967-8.9-14.143-8.86-24.308v-5.464c-.04-10.185 2.933-18.381 8.86-24.348 8.397-8.437 22.359-12.555 42.709-12.596 34.191 0 51.528 12.435 51.528 36.944v5.484c.04 10.185-2.933 18.361-8.86 24.328-8.276 8.337-22.64 12.575-42.648 12.616l-.02-.041Zm0-54.963c-11.371.161-21.877 2.009-21.717 14.344v1.848c-.16 12.375 10.346 14.243 21.717 14.404 11.35-.161 21.816-2.009 21.655-14.384v-1.848c.161-12.335-10.305-14.183-21.655-14.344v-.02Z"/><path fill="#fff" d="M496.651 179.146c-20.049-.04-34.413-4.279-42.709-12.615-5.927-5.967-8.9-14.143-8.86-24.308v-5.464c-.04-10.185 2.933-18.381 8.86-24.348 8.397-8.437 22.359-12.555 42.709-12.596 34.191 0 51.528 12.435 51.528 36.944v5.484c.04 10.185-2.933 18.361-8.86 24.328-8.276 8.337-22.64 12.575-42.648 12.616l-.02-.041Zm0-54.963c-11.371.161-21.877 2.009-21.717 14.344v1.848c-.16 12.375 10.346 14.243 21.717 14.404 11.35-.161 21.816-2.009 21.655-14.384v-1.848c.161-12.335-10.305-14.183-21.655-14.344v-.02ZM626.122 177.317s-.161-.04-.221-.1l-39.816-45.28v45.079a.309.309 0 0 1-.301.301h-29.27a.309.309 0 0 1-.301-.301v-75.072c0-.161.141-.301.301-.301h40.278s.181.04.221.1l32.424 39.133v-38.952c0-.161.14-.301.301-.301h29.33c.161 0 .301.14.301.301v75.072c0 .161-.14.301-.301.301h-32.966l.02.02Z"/><path fill="#fff" d="M626.122 177.317s-.161-.04-.221-.1l-39.816-45.28v45.079a.309.309 0 0 1-.301.301h-29.27a.309.309 0 0 1-.301-.301v-75.072c0-.161.141-.301.301-.301h40.278s.181.04.221.1l32.424 39.133v-38.952c0-.161.14-.301.301-.301h29.33c.161 0 .301.14.301.301v75.072c0 .161-.14.301-.301.301h-32.966l.02.02ZM230.141 79.946c-20.049-.04-34.412-4.299-42.709-12.636-5.926-5.966-8.899-14.142-8.859-24.307v-5.464C178.472 13.17 195.829.736 230.141.595c32.504.06 49.8 11.25 51.407 33.227 0 .08-.02.16-.08.221-.06.06-.141.1-.221.1h-29.993a.302.302 0 0 1-.281-.2c-2.933-7.895-12.676-8.92-20.832-8.92-11.35.161-21.817 2.01-21.656 14.344v1.848c-.161 12.334 10.306 14.183 21.656 14.343 12.154 0 18.582-2.772 20.832-8.96.04-.12.161-.2.281-.2h29.993s.161.04.221.1c.06.06.08.14.08.221-1.607 22.058-18.903 33.227-51.407 33.227Z"/><path fill="#fff" d="M230.141 79.946c-20.049-.04-34.412-4.299-42.709-12.636-5.926-5.966-8.899-14.142-8.859-24.307v-5.464C178.472 13.17 195.829.736 230.141.595c32.504.06 49.8 11.25 51.407 33.227 0 .08-.02.16-.08.221-.06.06-.141.1-.221.1h-29.993a.302.302 0 0 1-.281-.2c-2.933-7.895-12.676-8.92-20.832-8.92-11.35.161-21.817 2.01-21.656 14.344v1.848c-.161 12.334 10.306 14.183 21.656 14.343 12.154 0 18.582-2.772 20.832-8.96.04-.12.161-.2.281-.2h29.993s.161.04.221.1c.06.06.08.14.08.221-1.607 22.058-18.903 33.227-51.407 33.227ZM363.188 78.098a.308.308 0 0 1-.301-.302V52.444h-43.372v25.352a.31.31 0 0 1-.302.302h-29.269a.308.308 0 0 1-.301-.302V2.724c0-.16.14-.301.301-.301h29.269a.31.31 0 0 1 .302.301v25.352h43.372V2.724c0-.16.14-.301.301-.301h29.33c.16 0 .301.14.301.301v75.072a.31.31 0 0 1-.301.302h-29.33Z"/><path fill="#fff" d="M363.188 78.098a.308.308 0 0 1-.301-.302V52.444h-43.372v25.352a.31.31 0 0 1-.302.302h-29.269a.308.308 0 0 1-.301-.302V2.724c0-.16.14-.301.301-.301h29.269a.31.31 0 0 1 .302.301v25.352h43.372V2.724c0-.16.14-.301.301-.301h29.33c.16 0 .301.14.301.301v75.072a.31.31 0 0 1-.301.302h-29.33ZM477.152 78.219c-.121 0-.221-.06-.261-.181l-5.846-12.676H433.84l-5.846 12.676c-.04.1-.16.18-.261.18h-32.966c-.1 0-.201-.06-.261-.14a.242.242 0 0 1 0-.281l40.258-75.092s.161-.161.261-.161h34.794c.101 0 .201.06.261.16l40.279 75.073s.04.2 0 .281a.345.345 0 0 1-.262.14h-32.965l.02.02Zm-14.886-31.76-9.824-21.175-9.863 21.174h19.687Z"/><path fill="#fff" d="M477.152 78.219c-.121 0-.221-.06-.261-.181l-5.846-12.676H433.84l-5.846 12.676c-.04.1-.16.18-.261.18h-32.966c-.1 0-.201-.06-.261-.14a.242.242 0 0 1 0-.281l40.258-75.092s.161-.161.261-.161h34.794c.101 0 .201.06.261.16l40.279 75.073s.04.2 0 .281a.345.345 0 0 1-.262.14h-32.965l.02.02Zm-14.886-31.76-9.824-21.175-9.863 21.174h19.687ZM541.618 2.444h-29.269a.302.302 0 0 0-.302.301v75.072c0 .167.135.302.302.302h29.269a.302.302 0 0 0 .302-.302V2.745a.302.302 0 0 0-.302-.301Z"/><path fill="#fff" d="M541.618 2.444h-29.269a.302.302 0 0 0-.302.301v75.072c0 .167.135.302.302.302h29.269a.302.302 0 0 0 .302-.302V2.745a.302.302 0 0 0-.302-.301ZM626.735 78.098s-.161-.04-.221-.1l-39.817-45.28v45.079c0 .16-.14.301-.301.301h-29.269a.31.31 0 0 1-.302-.301V2.725a.31.31 0 0 1 .302-.302h40.278s.181.04.221.1l32.423 39.134V2.725a.31.31 0 0 1 .301-.302h29.33a.31.31 0 0 1 .302.302v75.072a.31.31 0 0 1-.302.301h-32.966.021Z"/><path fill="#fff" d="M626.735 78.098s-.161-.04-.221-.1l-39.817-45.28v45.079c0 .16-.14.301-.301.301h-29.269a.31.31 0 0 1-.302-.301V2.725a.31.31 0 0 1 .302-.302h40.278s.181.04.221.1l32.423 39.134V2.725a.31.31 0 0 1 .301-.302h29.33a.31.31 0 0 1 .302.302v75.072a.31.31 0 0 1-.302.301h-32.966.021ZM123.268 79.644c-7.011 0-14.665-2.913-22.76-8.678-5.766-4.099-11.793-9.643-18.422-16.935-3.897 4.42-7.774 8.337-11.51 11.611-5.224 4.58-10.447 8.096-15.51 10.446-5.082 2.35-10.044 3.556-14.705 3.556-10.727 0-20.812-4.078-28.365-11.49C4.443 60.76.284 50.896.284 40.41c0-3.033.362-6.087 1.085-9.04 0-.04.06-.22.08-.28C5.75 13.792 22.241 1.176 40.623 1.176c7.01 0 14.665 2.913 22.76 8.678 5.766 4.098 11.792 9.643 18.422 16.935 3.897-4.44 7.774-8.337 11.51-11.611 10.608-9.281 20.672-14.002 29.953-14.002 22.259 0 40.359 17.598 40.359 39.233 0 3.074-.382 6.127-1.105 9.12-4.319 17.458-20.812 30.114-39.234 30.114h-.02ZM24.793 19.176C19.228 20 14.567 22.13 10.93 25.504c-3.555 3.315-4.841 6.71-4.982 7.092a32.868 32.868 0 0 0-.924 7.814c0 9.201 3.656 17.84 10.286 24.348 6.67 6.529 15.548 10.125 25.03 10.125 8.157 0 17.518-4.44 27.08-12.817 3.455-3.033 7.051-6.65 10.688-10.727l.723-.824-5.786-6.187-.542.642c-3.797 4.38-7.393 8.036-10.949 11.15C53.5 63.17 46.468 66.747 40.623 66.747c-14.866 0-26.94-11.812-26.94-26.337 0-8.276 4.24-16.312 11.13-21.254l-.02.02ZM94.119 39.99c5.706 6.006 9.763 10.124 12.074 12.234 1.587 1.446 7.413 6.448 15.749 9.642.422.06.904.12 1.326.12 12.234-.08 22.178-9.742 22.178-21.575 0-11.832-9.944-21.575-22.178-21.575-3.194 0-8.879 1.647-17.778 9.462-3.657 3.194-7.373 7.03-11.35 11.692h-.02ZM40.623 18.855c-12.234.08-22.178 9.743-22.178 21.575 0 11.833 9.944 21.576 22.178 21.576 3.194 0 8.879-1.647 17.778-9.462 3.677-3.214 7.393-7.051 11.35-11.692-5.705-6.006-9.763-10.124-12.073-12.234-1.587-1.446-7.413-6.448-15.75-9.642-.421-.06-.904-.1-1.325-.1l.02-.021Zm82.645-4.761c14.866 0 26.939 11.812 26.939 26.336 0 8.277-4.238 16.313-11.129 21.255 5.565-.824 10.225-2.954 13.862-6.329 3.575-3.334 4.841-6.71 4.982-7.09.622-2.532.924-5.164.924-7.816 0-19.004-15.971-34.472-35.598-34.472-8.096 0-17.116 4.32-26.798 12.817-3.456 3.033-7.052 6.65-10.688 10.747l-.743.804 5.806 6.207.562-.643c3.797-4.379 7.393-8.035 10.949-11.149 8.055-7.051 15.086-10.627 20.932-10.627v-.04Z"/><path fill="#fff" d="M123.267 1.458c22.098 0 40.077 17.478 40.077 38.953a36.97 36.97 0 0 1-1.105 9.04c-4.279 17.336-20.671 29.912-38.972 29.912-6.951 0-14.545-2.913-22.6-8.638-5.806-4.138-11.893-9.743-18.582-17.116-3.958 4.52-7.895 8.498-11.692 11.833-5.203 4.56-10.406 8.055-15.449 10.406-5.062 2.35-9.964 3.535-14.604 3.535-10.667 0-20.672-4.058-28.165-11.41C4.682 60.6.544 50.817.544 40.41c0-3.014.361-6.027 1.085-8.96 0-.04.04-.18.06-.22C5.988 13.993 22.36 1.457 40.62 1.457c6.95 0 14.544 2.913 22.6 8.639 5.806 4.138 11.893 9.743 18.582 17.115 3.958-4.52 7.895-8.497 11.692-11.812 10.547-9.26 20.571-13.942 29.772-13.942ZM90.843 36.915l.744-.864c3.796-4.359 7.372-8.015 10.928-11.129 7.995-7.01 14.986-10.567 20.752-10.567 14.705 0 26.678 11.692 26.678 26.056 0 8.658-4.54 16.854-11.953 21.656 6.127-.684 11.23-2.893 15.147-6.55 3.616-3.374 4.922-6.81 5.042-7.191a33.71 33.71 0 0 0 .944-7.915c0-19.165-16.091-34.754-35.858-34.754-8.156 0-17.236 4.34-26.98 12.877-3.475 3.053-7.09 6.67-10.707 10.768l-.904.984 6.188 6.61m32.403 25.371c12.375-.08 22.459-9.863 22.459-21.836 0-11.973-10.084-21.837-22.459-21.837-3.234 0-8.98 1.647-17.96 9.522-3.716 3.255-7.493 7.152-11.55 11.913 5.785 6.107 9.923 10.286 12.253 12.415 1.587 1.466 7.453 6.469 15.831 9.703.482.08.984.12 1.426.12Zm-82.646 0c3.234 0 8.98-1.647 17.96-9.522 3.716-3.274 7.513-7.171 11.55-11.912-5.785-6.107-9.923-10.286-12.254-12.415-1.587-1.467-7.453-6.469-15.83-9.703a8.91 8.91 0 0 0-1.426-.12c-12.375.08-22.46 9.863-22.46 21.836 0 11.973 10.085 21.836 22.46 21.836ZM25.896 18.755c-6.127.683-11.23 2.893-15.147 6.549-3.616 3.375-4.902 6.81-5.042 7.192a33.722 33.722 0 0 0-.944 7.915c0 9.26 3.676 17.98 10.365 24.528 6.71 6.59 15.67 10.205 25.232 10.205 8.216 0 17.658-4.46 27.26-12.877 3.476-3.053 7.072-6.67 10.708-10.767l.884-1.005-6.167-6.589-.744.864c-3.797 4.38-7.372 8.015-10.928 11.13-7.995 7.01-14.986 10.566-20.752 10.566-14.705 0-26.678-11.692-26.678-26.055 0-8.659 4.54-16.855 11.953-21.656ZM123.267.916c-9.342 0-19.486 4.741-30.133 14.062-3.697 3.234-7.494 7.071-11.33 11.41-6.57-7.191-12.536-12.675-18.261-16.733C55.407 3.849 47.693.916 40.62.916 22.14.916 5.546 13.592 1.167 31.049c-.04.08-.06.201-.08.302A38.155 38.155 0 0 0 0 40.41c0 10.566 4.179 20.47 11.793 27.943 7.613 7.473 17.758 11.572 28.566 11.572 4.72 0 9.703-1.206 14.826-3.576 5.102-2.37 10.345-5.886 15.589-10.487 3.696-3.234 7.513-7.07 11.33-11.41 6.569 7.192 12.555 12.676 18.26 16.734 8.136 5.806 15.851 8.739 22.902 8.739 18.542 0 35.155-12.757 39.515-30.335a38.179 38.179 0 0 0 1.125-9.18c-.02-21.777-18.241-39.495-40.64-39.495Zm-37.868 29.39.563-.623c3.616-4.078 7.212-7.694 10.667-10.727 9.643-8.458 18.602-12.737 26.618-12.737 19.466 0 35.316 15.348 35.316 34.192 0 2.631-.321 5.243-.924 7.774-.121.322-1.366 3.636-4.882 6.93-3.355 3.135-7.573 5.164-12.616 6.088 6.429-5.023 10.326-12.797 10.326-20.792 0-14.665-12.214-26.598-27.22-26.598-5.906 0-12.998 3.596-21.094 10.707-3.575 3.134-7.171 6.79-10.988 11.19l-.362.402-5.424-5.806h.02Zm9.1 9.683c3.918-4.56 7.574-8.317 11.17-11.47 8.839-7.755 14.464-9.382 17.598-9.382 12.073 0 21.917 9.562 21.917 21.294 0 11.732-9.824 21.214-21.917 21.294-.382 0-.824-.04-1.286-.12-8.256-3.195-14.022-8.136-15.609-9.583-2.27-2.09-6.268-6.127-11.892-12.033h.02ZM40.621 61.705c-12.073 0-21.917-9.562-21.917-21.294 0-11.732 9.824-21.214 21.917-21.295.382 0 .824.04 1.286.121 8.256 3.194 14.022 8.136 15.609 9.583 2.29 2.089 6.268 6.147 11.893 12.033-3.898 4.56-7.554 8.316-11.17 11.49-8.839 7.755-14.464 9.382-17.598 9.382l-.02-.02Zm-.281 12.917c-9.402 0-18.22-3.576-24.85-10.064C8.92 58.109 5.285 49.53 5.285 40.41c0-2.632.321-5.244.924-7.775.12-.321 1.386-3.656 4.882-6.93 3.354-3.114 7.573-5.163 12.615-6.087-6.428 5.022-10.325 12.796-10.325 20.792 0 14.665 12.214 26.597 27.22 26.597 5.906 0 12.998-3.595 21.114-10.707 3.575-3.134 7.171-6.79 10.988-11.19l.362-.401 5.404 5.785-.563.643c-3.616 4.078-7.212 7.694-10.667 10.708-9.522 8.337-18.823 12.756-26.9 12.756v.02Z"/></g><defs><clipPath id="a"><path fill="#fff" d="M0 0h660v178.55H0z" transform="translate(0 .597)"/></clipPath></defs></svg>