<svg width="660" height="179" viewBox="0 0 660 179" fill="none" xmlns="http://www.w3.org/2000/svg">
<g clip-path="url(#clip0_15756_192538)">
<path d="M86.856 177.418C86.6953 177.418 86.5547 177.278 86.5547 177.117V102.045C86.5547 101.884 86.6953 101.743 86.856 101.743H178.401C178.562 101.743 178.702 101.884 178.702 102.045V125.83C178.702 125.991 178.562 126.131 178.401 126.131H116.407V134.689H171.069C171.229 134.689 171.37 134.83 171.37 134.99V156.948C171.37 157.108 171.229 157.249 171.069 157.249H116.407V177.117C116.407 177.278 116.266 177.418 116.105 177.418H86.8359H86.856Z" fill="white" style="fill:white;fill-opacity:1;"/>
<path d="M86.856 177.418C86.6953 177.418 86.5547 177.278 86.5547 177.117V102.045C86.5547 101.884 86.6953 101.743 86.856 101.743H178.401C178.562 101.743 178.702 101.884 178.702 102.045V125.83C178.702 125.991 178.562 126.131 178.401 126.131H116.407V134.689H171.069C171.229 134.689 171.37 134.83 171.37 134.99V156.948C171.37 157.108 171.229 157.249 171.069 157.249H116.407V177.117C116.407 177.278 116.266 177.418 116.105 177.418H86.8359H86.856Z" fill="white" style="fill:white;fill-opacity:1;"/>
<path d="M238.186 179.146C218.138 179.106 203.754 174.847 195.457 166.51C189.551 160.564 186.558 152.408 186.598 142.263V101.924C186.598 101.764 186.739 101.623 186.899 101.623H216.169C216.33 101.623 216.47 101.764 216.47 101.924V140.415C216.35 152.749 226.836 154.597 238.186 154.758C249.536 154.597 260.003 152.749 259.842 140.415V101.924C259.842 101.764 259.983 101.623 260.143 101.623H289.473C289.634 101.623 289.775 101.764 289.775 101.924V142.263C289.815 152.408 286.842 160.564 280.915 166.51C272.619 174.847 258.255 179.106 238.186 179.146Z" fill="white" style="fill:white;fill-opacity:1;"/>
<path d="M238.186 179.146C218.138 179.106 203.754 174.847 195.457 166.51C189.551 160.564 186.558 152.408 186.598 142.263V101.924C186.598 101.764 186.739 101.623 186.899 101.623H216.169C216.33 101.623 216.47 101.764 216.47 101.924V140.415C216.35 152.749 226.836 154.597 238.186 154.758C249.536 154.597 260.003 152.749 259.842 140.415V101.924C259.842 101.764 259.983 101.623 260.143 101.623H289.473C289.634 101.623 289.775 101.764 289.775 101.924V142.263C289.815 152.408 286.842 160.564 280.915 166.51C272.619 174.847 258.255 179.106 238.186 179.146Z" fill="white" style="fill:white;fill-opacity:1;"/>
<path d="M348.734 179.146C324.427 179.085 300.461 176.976 297.508 152.347C297.508 152.267 297.508 152.186 297.588 152.106C297.669 152.026 297.729 152.005 297.809 152.005H328.485C328.585 152.005 328.686 152.066 328.746 152.146C331.579 157.028 337.927 159.318 348.775 159.318C353.455 159.318 368.763 158.816 368.763 152.287C368.763 149.193 358.759 148.731 348.152 148.229C326.697 147.144 297.488 145.657 297.548 126.653C297.548 108.573 314.302 99.7744 348.795 99.7744C373.122 99.9351 397.108 102.125 400.021 126.633C400.021 126.714 400.021 126.794 399.941 126.874C399.881 126.935 399.8 126.975 399.72 126.975H369.044C368.944 126.975 368.843 126.914 368.783 126.814C365.187 120.466 356.187 119.642 348.775 119.642C341.362 119.642 328.786 120.546 328.786 126.673C328.786 129.707 338.328 130.149 349.397 130.671C370.852 131.756 400.062 133.242 400.001 152.307C400.001 170.367 383.247 179.146 348.755 179.146H348.734Z" fill="white" style="fill:white;fill-opacity:1;"/>
<path d="M348.734 179.146C324.427 179.085 300.461 176.976 297.508 152.347C297.508 152.267 297.508 152.186 297.588 152.106C297.669 152.026 297.729 152.005 297.809 152.005H328.485C328.585 152.005 328.686 152.066 328.746 152.146C331.579 157.028 337.927 159.318 348.775 159.318C353.455 159.318 368.763 158.816 368.763 152.287C368.763 149.193 358.759 148.731 348.152 148.229C326.697 147.144 297.488 145.657 297.548 126.653C297.548 108.573 314.302 99.7744 348.795 99.7744C373.122 99.9351 397.108 102.125 400.021 126.633C400.021 126.714 400.021 126.794 399.941 126.874C399.881 126.935 399.8 126.975 399.72 126.975H369.044C368.944 126.975 368.843 126.914 368.783 126.814C365.187 120.466 356.187 119.642 348.775 119.642C341.362 119.642 328.786 120.546 328.786 126.673C328.786 129.707 338.328 130.149 349.397 130.671C370.852 131.756 400.062 133.242 400.001 152.307C400.001 170.367 383.247 179.146 348.755 179.146H348.734Z" fill="white" style="fill:white;fill-opacity:1;"/>
<path d="M436.766 101.643H407.497C407.33 101.643 407.195 101.777 407.195 101.944V177.016C407.195 177.182 407.33 177.317 407.497 177.317H436.766C436.933 177.317 437.067 177.182 437.067 177.016V101.944C437.067 101.777 436.933 101.643 436.766 101.643Z" fill="white" style="fill:white;fill-opacity:1;"/>
<path d="M436.766 101.643H407.497C407.33 101.643 407.195 101.777 407.195 101.944V177.016C407.195 177.182 407.33 177.317 407.497 177.317H436.766C436.933 177.317 437.067 177.182 437.067 177.016V101.944C437.067 101.777 436.933 101.643 436.766 101.643Z" fill="white" style="fill:white;fill-opacity:1;"/>
<path d="M496.651 179.147C476.602 179.106 462.238 174.868 453.942 166.531C448.015 160.564 445.042 152.388 445.082 142.223V136.759C445.042 126.574 448.015 118.378 453.942 112.411C462.339 103.974 476.301 99.8559 496.651 99.8157C530.842 99.8157 548.179 112.251 548.179 136.759V142.243C548.219 152.428 545.246 160.605 539.319 166.571C531.043 174.908 516.679 179.147 496.671 179.187L496.651 179.147ZM496.651 124.183C485.28 124.344 474.774 126.192 474.934 138.527V140.375C474.774 152.75 485.28 154.618 496.651 154.779C508.001 154.618 518.467 152.77 518.306 140.395V138.547C518.467 126.212 508.001 124.364 496.651 124.204V124.183Z" fill="white" style="fill:white;fill-opacity:1;"/>
<path d="M496.651 179.147C476.602 179.106 462.238 174.868 453.942 166.531C448.015 160.564 445.042 152.388 445.082 142.223V136.759C445.042 126.574 448.015 118.378 453.942 112.411C462.339 103.974 476.301 99.8559 496.651 99.8157C530.842 99.8157 548.179 112.251 548.179 136.759V142.243C548.219 152.428 545.246 160.605 539.319 166.571C531.043 174.908 516.679 179.147 496.671 179.187L496.651 179.147ZM496.651 124.183C485.28 124.344 474.774 126.192 474.934 138.527V140.375C474.774 152.75 485.28 154.618 496.651 154.779C508.001 154.618 518.467 152.77 518.306 140.395V138.547C518.467 126.212 508.001 124.364 496.651 124.204V124.183Z" fill="white" style="fill:white;fill-opacity:1;"/>
<path d="M626.12 177.317C626.12 177.317 625.96 177.277 625.899 177.217L586.083 131.937V177.016C586.083 177.177 585.942 177.317 585.782 177.317H556.512C556.352 177.317 556.211 177.177 556.211 177.016V101.944C556.211 101.783 556.352 101.643 556.512 101.643H596.79C596.79 101.643 596.971 101.683 597.011 101.743L629.435 140.876V101.924C629.435 101.763 629.576 101.623 629.736 101.623H659.066C659.227 101.623 659.367 101.763 659.367 101.924V176.996C659.367 177.157 659.227 177.297 659.066 177.297H626.1L626.12 177.317Z" fill="white" style="fill:white;fill-opacity:1;"/>
<path d="M626.12 177.317C626.12 177.317 625.96 177.277 625.899 177.217L586.083 131.937V177.016C586.083 177.177 585.942 177.317 585.782 177.317H556.512C556.352 177.317 556.211 177.177 556.211 177.016V101.944C556.211 101.783 556.352 101.643 556.512 101.643H596.79C596.79 101.643 596.971 101.683 597.011 101.743L629.435 140.876V101.924C629.435 101.763 629.576 101.623 629.736 101.623H659.066C659.227 101.623 659.367 101.763 659.367 101.924V176.996C659.367 177.157 659.227 177.297 659.066 177.297H626.1L626.12 177.317Z" fill="white" style="fill:white;fill-opacity:1;"/>
<path d="M230.141 79.9463C210.092 79.9061 195.729 75.6472 187.432 67.3104C181.506 61.344 178.533 53.1678 178.573 43.0028V37.5387C178.472 13.1708 195.829 0.735837 230.141 0.595215C262.645 0.655481 279.941 11.845 281.548 33.8222C281.548 33.9026 281.528 33.9829 281.468 34.0432C281.408 34.1035 281.327 34.1436 281.247 34.1436H251.254C251.134 34.1436 251.013 34.0633 250.973 33.9427C248.04 26.0478 238.297 25.0233 230.141 25.0233C218.791 25.184 208.324 27.0322 208.485 39.3667V41.2149C208.324 53.5495 218.791 55.3977 230.141 55.5584C242.295 55.5584 248.723 52.7861 250.973 46.5987C251.013 46.4782 251.134 46.3978 251.254 46.3978H281.247C281.247 46.3978 281.408 46.438 281.468 46.4983C281.528 46.5586 281.548 46.6389 281.548 46.7193C279.941 68.7768 262.645 79.9463 230.141 79.9463Z" fill="white" style="fill:white;fill-opacity:1;"/>
<path d="M230.141 79.9463C210.092 79.9061 195.729 75.6472 187.432 67.3104C181.506 61.344 178.533 53.1678 178.573 43.0028V37.5387C178.472 13.1708 195.829 0.735837 230.141 0.595215C262.645 0.655481 279.941 11.845 281.548 33.8222C281.548 33.9026 281.528 33.9829 281.468 34.0432C281.408 34.1035 281.327 34.1436 281.247 34.1436H251.254C251.134 34.1436 251.013 34.0633 250.973 33.9427C248.04 26.0478 238.297 25.0233 230.141 25.0233C218.791 25.184 208.324 27.0322 208.485 39.3667V41.2149C208.324 53.5495 218.791 55.3977 230.141 55.5584C242.295 55.5584 248.723 52.7861 250.973 46.5987C251.013 46.4782 251.134 46.3978 251.254 46.3978H281.247C281.247 46.3978 281.408 46.438 281.468 46.4983C281.528 46.5586 281.548 46.6389 281.548 46.7193C279.941 68.7768 262.645 79.9463 230.141 79.9463Z" fill="white" style="fill:white;fill-opacity:1;"/>
<path d="M363.186 78.0974C363.025 78.0974 362.885 77.9568 362.885 77.7961V52.4439H319.513V77.7961C319.513 77.9568 319.372 78.0974 319.211 78.0974H289.942C289.781 78.0974 289.641 77.9568 289.641 77.7961V2.72394C289.641 2.56323 289.781 2.42261 289.942 2.42261H319.211C319.372 2.42261 319.513 2.56323 319.513 2.72394V28.0761H362.885V2.72394C362.885 2.56323 363.025 2.42261 363.186 2.42261H392.516C392.676 2.42261 392.817 2.56323 392.817 2.72394V77.7961C392.817 77.9568 392.676 78.0974 392.516 78.0974H363.186Z" fill="white" style="fill:white;fill-opacity:1;"/>
<path d="M363.186 78.0974C363.025 78.0974 362.885 77.9568 362.885 77.7961V52.4439H319.513V77.7961C319.513 77.9568 319.372 78.0974 319.211 78.0974H289.942C289.781 78.0974 289.641 77.9568 289.641 77.7961V2.72394C289.641 2.56323 289.781 2.42261 289.942 2.42261H319.211C319.372 2.42261 319.513 2.56323 319.513 2.72394V28.0761H362.885V2.72394C362.885 2.56323 363.025 2.42261 363.186 2.42261H392.516C392.676 2.42261 392.817 2.56323 392.817 2.72394V77.7961C392.817 77.9568 392.676 78.0974 392.516 78.0974H363.186Z" fill="white" style="fill:white;fill-opacity:1;"/>
<path d="M477.152 78.2187C477.031 78.2187 476.931 78.1585 476.891 78.0379L471.045 65.3619H433.84L427.994 78.0379C427.954 78.1384 427.834 78.2187 427.733 78.2187H394.767C394.667 78.2187 394.566 78.1585 394.506 78.0781C394.446 77.9977 394.446 77.8772 394.506 77.7969L434.764 2.70466C434.764 2.70466 434.925 2.54395 435.025 2.54395H469.819C469.92 2.54395 470.02 2.60421 470.08 2.70466L510.359 77.7768C510.359 77.7768 510.399 77.9777 510.359 78.058C510.298 78.1384 510.198 78.1986 510.097 78.1986H477.132L477.152 78.2187ZM462.266 46.4582L452.442 25.2845L442.579 46.4582H462.266Z" fill="white" style="fill:white;fill-opacity:1;"/>
<path d="M477.152 78.2187C477.031 78.2187 476.931 78.1585 476.891 78.0379L471.045 65.3619H433.84L427.994 78.0379C427.954 78.1384 427.834 78.2187 427.733 78.2187H394.767C394.667 78.2187 394.566 78.1585 394.506 78.0781C394.446 77.9977 394.446 77.8772 394.506 77.7969L434.764 2.70466C434.764 2.70466 434.925 2.54395 435.025 2.54395H469.819C469.92 2.54395 470.02 2.60421 470.08 2.70466L510.359 77.7768C510.359 77.7768 510.399 77.9777 510.359 78.058C510.298 78.1384 510.198 78.1986 510.097 78.1986H477.132L477.152 78.2187ZM462.266 46.4582L452.442 25.2845L442.579 46.4582H462.266Z" fill="white" style="fill:white;fill-opacity:1;"/>
<path d="M541.618 2.4436H512.348C512.182 2.4436 512.047 2.57851 512.047 2.74494V77.817C512.047 77.9835 512.182 78.1184 512.348 78.1184H541.618C541.784 78.1184 541.919 77.9835 541.919 77.817V2.74494C541.919 2.57851 541.784 2.4436 541.618 2.4436Z" fill="white" style="fill:white;fill-opacity:1;"/>
<path d="M541.618 2.4436H512.348C512.182 2.4436 512.047 2.57851 512.047 2.74494V77.817C512.047 77.9835 512.182 78.1184 512.348 78.1184H541.618C541.784 78.1184 541.919 77.9835 541.919 77.817V2.74494C541.919 2.57851 541.784 2.4436 541.618 2.4436Z" fill="white" style="fill:white;fill-opacity:1;"/>
<path d="M626.734 78.0981C626.734 78.0981 626.573 78.0579 626.513 77.9977L586.696 32.7174V77.7968C586.696 77.9575 586.556 78.0981 586.395 78.0981H557.126C556.965 78.0981 556.824 77.9575 556.824 77.7968V2.72467C556.824 2.56396 556.965 2.42334 557.126 2.42334H597.404C597.404 2.42334 597.585 2.46352 597.625 2.52378L630.048 41.6569V2.72467C630.048 2.56396 630.189 2.42334 630.35 2.42334H659.679C659.84 2.42334 659.981 2.56396 659.981 2.72467V77.7968C659.981 77.9575 659.84 78.0981 659.679 78.0981H626.713H626.734Z" fill="white" style="fill:white;fill-opacity:1;"/>
<path d="M626.734 78.0981C626.734 78.0981 626.573 78.0579 626.513 77.9977L586.696 32.7174V77.7968C586.696 77.9575 586.556 78.0981 586.395 78.0981H557.126C556.965 78.0981 556.824 77.9575 556.824 77.7968V2.72467C556.824 2.56396 556.965 2.42334 557.126 2.42334H597.404C597.404 2.42334 597.585 2.46352 597.625 2.52378L630.048 41.6569V2.72467C630.048 2.56396 630.189 2.42334 630.35 2.42334H659.679C659.84 2.42334 659.981 2.56396 659.981 2.72467V77.7968C659.981 77.9575 659.84 78.0981 659.679 78.0981H626.713H626.734Z" fill="white" style="fill:white;fill-opacity:1;"/>
<path d="M123.267 79.6437C116.256 79.6437 108.602 76.7308 100.507 70.9653C94.7411 66.8671 88.7144 61.3226 82.0851 54.0303C78.1879 58.4499 74.3107 62.3672 70.5742 65.6417C65.3511 70.222 60.128 73.7375 55.0656 76.0879C49.9831 78.4383 45.0211 79.6437 40.3605 79.6437C29.633 79.6437 19.5484 75.5656 11.995 68.1528C4.4416 60.7601 0.283203 50.8965 0.283203 40.4101C0.283203 37.3767 0.644803 34.3232 1.368 31.3701C1.368 31.3299 1.42827 31.1491 1.44836 31.0889C5.74738 13.7923 22.2403 1.17651 40.6217 1.17651C47.6327 1.17651 55.2865 4.0894 63.3824 9.85491C69.1479 13.953 75.1745 19.4976 81.8039 26.7898C85.7011 22.3502 89.5782 18.4529 93.3148 15.1785C103.922 5.8974 113.986 1.17651 123.267 1.17651C145.526 1.17651 163.626 18.7744 163.626 40.4101C163.626 43.4837 163.244 46.5372 162.521 49.5304C158.202 66.9877 141.709 79.6437 123.287 79.6437H123.267ZM24.7916 19.1761C19.227 19.9998 14.5664 22.1292 10.9303 25.5041C7.37458 28.8188 6.08889 32.2138 5.94827 32.5955C5.32551 35.1267 5.02418 37.7784 5.02418 40.4101C5.02418 49.6108 8.68035 58.249 15.3097 64.7578C21.9792 71.2867 30.8585 74.8826 40.3404 74.8826C48.4965 74.8826 57.8579 70.443 67.4202 62.0659C70.8755 59.0325 74.4714 55.4165 78.1075 51.3384L78.8307 50.5148L73.0451 44.3274L72.5027 44.9703C68.7059 49.3496 65.11 53.0058 61.5543 56.1196C53.4986 63.1708 46.4675 66.7466 40.6217 66.7466C25.7559 66.7466 13.6825 54.9343 13.6825 40.4101C13.6825 32.1335 17.9212 24.0979 24.8117 19.1561L24.7916 19.1761ZM94.1183 39.9882C99.8236 45.9948 103.882 50.113 106.192 52.2224C107.779 53.6688 113.605 58.6709 121.941 61.865C122.363 61.9253 122.845 61.9855 123.267 61.9855C135.501 61.9052 145.445 52.2424 145.445 40.4101C145.445 28.5777 135.501 18.8346 123.267 18.8346C120.073 18.8346 114.388 20.4819 105.489 28.2965C101.832 31.4906 98.116 35.3276 94.1384 39.9882H94.1183ZM40.6217 18.8547C28.3875 18.9351 18.4435 28.5978 18.4435 40.4302C18.4435 52.2625 28.3875 62.0056 40.6217 62.0056C43.8158 62.0056 49.5009 60.3583 58.4003 52.5438C62.0766 49.3296 65.793 45.4926 69.7505 40.852C64.0453 34.8455 59.9873 30.7273 57.6771 28.6179C56.0901 27.1715 50.2643 22.1694 41.9274 18.9753C41.5056 18.915 41.0234 18.8748 40.6016 18.8748L40.6217 18.8547ZM123.267 14.0937C138.133 14.0937 150.206 25.9059 150.206 40.4302C150.206 48.7068 145.968 56.7423 139.077 61.6842C144.642 60.8606 149.302 58.7311 152.939 55.3562C156.514 52.0215 157.78 48.6465 157.921 48.2648C158.543 45.7336 158.845 43.102 158.845 40.4503C158.845 21.4462 142.874 5.97776 123.247 5.97776C115.151 5.97776 106.131 10.2969 96.4486 18.7945C92.9933 21.8279 89.3974 25.4439 85.7614 29.542L85.0181 30.3456L90.8238 36.553L91.3862 35.9102C95.183 31.5308 98.7789 27.8746 102.335 24.7609C110.39 17.7097 117.421 14.1338 123.267 14.1338V14.0937Z" fill="white" style="fill:white;fill-opacity:1;"/>
<path d="M123.265 1.45817C145.363 1.45817 163.343 18.9355 163.343 40.4105C163.343 43.464 162.981 46.4974 162.238 49.4505C157.959 66.7872 141.566 79.3628 123.265 79.3628C116.315 79.3628 108.721 76.4499 100.665 70.7246C94.8597 66.5863 88.7728 60.9815 82.0832 53.6089C78.1256 58.1289 74.1882 62.1065 70.3914 65.4412C65.1884 70.0014 59.9854 73.4969 54.9431 75.8473C49.8807 78.1977 44.979 79.3829 40.3385 79.3829C29.6713 79.3829 19.667 75.325 12.1739 67.9724C4.68071 60.5998 0.5424 50.8165 0.5424 40.4105C0.5424 37.3972 0.903999 34.3838 1.6272 31.4509C1.6272 31.4107 1.66738 31.2701 1.68747 31.2299C5.98649 13.9936 22.3589 1.45817 40.6197 1.45817C47.5705 1.45817 55.1641 4.37106 63.2197 10.0964C69.0254 14.2347 75.1123 19.8395 81.8019 27.2121C85.7594 22.6921 89.6968 18.7145 93.4936 15.3999C104.04 6.13888 114.065 1.45817 123.265 1.45817ZM90.8419 36.915L91.5852 36.0512C95.382 31.6919 98.9578 28.0358 102.514 24.922C110.509 17.911 117.5 14.3552 123.265 14.3552C137.97 14.3552 149.943 26.047 149.943 40.4105C149.943 49.0688 145.403 57.2651 137.991 62.0663C144.118 61.3833 149.22 59.1735 153.138 55.5173C156.754 52.1424 158.059 48.7072 158.18 48.3255C158.803 45.7541 159.124 43.0823 159.124 40.4105C159.124 21.2457 143.033 5.65675 123.265 5.65675C115.109 5.65675 106.029 9.99594 96.286 18.5337C92.8106 21.5872 89.1946 25.2032 85.5786 29.3014L84.6746 30.2857L90.862 36.8949M123.265 62.2672C135.64 62.1868 145.725 52.4036 145.725 40.4306C145.725 28.4576 135.64 18.594 123.265 18.594C120.031 18.594 114.286 20.2413 105.306 28.1161C101.589 31.3705 97.8127 35.2677 93.7548 40.0288C99.5404 46.1358 103.679 50.3143 106.009 52.4437C107.596 53.9102 113.462 58.9124 121.839 62.1467C122.321 62.227 122.823 62.2672 123.265 62.2672ZM40.6197 62.2672C43.854 62.2672 49.5994 60.6199 58.5792 52.7451C62.2956 49.4706 66.0924 45.5733 70.1303 40.8324C64.3447 34.7253 60.2064 30.5469 57.8761 28.4174C56.289 26.951 50.4231 21.9488 42.046 18.7145C41.5639 18.6342 41.0617 18.594 40.6197 18.594C28.245 18.6743 18.1603 28.4576 18.1603 40.4306C18.1603 52.4036 28.245 62.2672 40.6197 62.2672ZM25.8946 18.7547C19.7675 19.4377 14.6649 21.6475 10.7475 25.3037C7.13155 28.6786 5.84586 32.1138 5.70524 32.4955C5.08249 35.0669 4.76106 37.7387 4.76106 40.4105C4.76106 49.6715 8.43733 58.39 15.1269 64.939C21.8366 71.5282 30.7962 75.1442 40.3586 75.1442C48.5749 75.1442 58.0167 70.6844 67.6192 62.2672C71.0945 59.2137 74.6905 55.5977 78.3265 51.4996L79.2104 50.4951L73.0432 43.906L72.2999 44.7698C68.5031 49.1492 64.9273 52.7852 61.3715 55.899C53.3761 62.91 46.3852 66.4658 40.6197 66.4658C25.9146 66.4658 13.9417 54.774 13.9417 40.4105C13.9417 31.7522 18.4818 23.5559 25.8946 18.7547ZM123.265 0.915771C113.924 0.915771 103.779 5.65675 93.132 14.978C89.4357 18.2123 85.6389 22.0493 81.8019 26.3885C75.2328 19.1966 69.2664 13.7124 63.5411 9.65443C55.4051 3.84875 47.691 0.915771 40.6197 0.915771C22.1379 0.915771 5.54453 13.5919 1.16515 31.0491C1.12498 31.1294 1.10489 31.25 1.0848 31.3504C0.3616 34.3035 0 37.357 0 40.4105C0 50.9772 4.17849 60.8811 11.7922 68.3541C19.4059 75.8272 29.5507 79.9253 40.3586 79.9253C45.0794 79.9253 50.0615 78.72 55.1841 76.3495C60.2867 73.979 65.5299 70.4635 70.7731 65.8631C74.4695 62.6288 78.2864 58.7918 82.1032 54.4526C88.6723 61.6444 94.6588 67.1287 100.364 71.1867C108.5 76.9923 116.214 79.9253 123.265 79.9253C141.807 79.9253 158.421 67.1689 162.78 49.5911C163.523 46.5979 163.905 43.5042 163.905 40.4105C163.885 18.6342 145.664 0.915771 123.265 0.915771ZM85.3978 30.3058L85.9603 29.683C89.5763 25.605 93.1722 21.989 96.6275 18.9556C106.27 10.4982 115.23 6.21923 123.245 6.21923C142.711 6.21923 158.562 21.5671 158.562 40.4105C158.562 43.0421 158.24 45.6537 157.637 48.1849C157.517 48.5063 156.271 51.821 152.756 55.1156C149.401 58.2494 145.182 60.2784 140.14 61.2025C146.568 56.1803 150.466 48.4059 150.466 40.4105C150.466 25.7456 138.252 13.8128 123.245 13.8128C117.339 13.8128 110.248 17.4087 102.152 24.5202C98.5761 27.6541 94.9802 31.3102 91.1633 35.7097L90.8017 36.1115L85.3777 30.3058H85.3978ZM94.4981 39.9886C98.4154 35.4285 102.072 31.6718 105.667 28.5179C114.507 20.7636 120.131 19.1364 123.265 19.1364C135.339 19.1364 145.182 28.6987 145.182 40.4306C145.182 52.1625 135.359 61.6444 123.265 61.7248C122.884 61.7248 122.442 61.6846 121.98 61.6043C113.723 58.4101 107.958 53.4683 106.371 52.0219C104.101 49.9326 100.103 45.8948 94.478 39.9886H94.4981ZM40.6197 61.7047C28.5463 61.7047 18.7027 52.1424 18.7027 40.4105C18.7027 28.6786 28.5262 19.1966 40.6197 19.1163C41.0014 19.1163 41.4434 19.1565 41.9054 19.2368C50.1619 22.431 55.9274 27.3728 57.5145 28.8192C59.8046 30.9085 63.7822 34.9664 69.4071 40.8525C65.5098 45.4126 61.8537 49.1693 58.2377 52.3433C49.3985 60.0976 43.7737 61.7248 40.6398 61.7248L40.6197 61.7047ZM40.3385 74.6218C30.9369 74.6218 22.1179 71.046 15.4885 64.5573C8.91946 58.1088 5.28338 49.5308 5.28338 40.4105C5.28338 37.7789 5.6048 35.1673 6.20746 32.6361C6.328 32.3147 7.5936 28.9799 11.0891 25.7054C14.4439 22.5917 18.6626 20.5426 23.7049 19.6185C17.2764 24.6407 13.3792 32.4151 13.3792 40.4105C13.3792 55.0754 25.5932 67.0082 40.5996 67.0082C46.5057 67.0082 53.5971 63.4123 61.713 56.3008C65.2888 53.1669 68.8848 49.5108 72.7016 45.1113L73.0632 44.7095L78.4672 50.4951L77.9047 51.138C74.2887 55.216 70.6928 58.832 67.2375 61.8453C57.7153 70.1822 48.4142 74.6018 40.3385 74.6018V74.6218Z" fill="white" style="fill:white;fill-opacity:1;"/>
</g>
<defs>
<clipPath id="clip0_15756_192538">
<rect width="660" height="179" fill="white" style="fill:white;fill-opacity:1;"/>
</clipPath>
</defs>
</svg>
