<svg xmlns="http://www.w3.org/2000/svg" width="84" height="84" fill="none" viewBox="0 0 84 84"><g clip-path="url(#a)"><path fill="#3B00B9" d="M42 0c23.193 0 42 18.807 42 42S65.193 84 42 84 0 65.193 0 42 18.807 0 42 0Z"/><path fill="url(#b)" fill-rule="evenodd" d="M9.427 44.427c1.166 16.1 14.046 28.98 30.146 30.147v3.64C21.467 77 7 62.534 5.787 44.427h3.64Z" clip-rule="evenodd"/><path fill="#29ABE2" fill-rule="evenodd" d="M39.573 9.427c-16.1 1.167-28.98 14.047-30.146 30.147h-3.64c1.166-18.107 15.68-32.62 33.786-33.787v3.64Z" clip-rule="evenodd"/><path fill="url(#c)" fill-rule="evenodd" d="M74.573 39.527c-1.166-16.1-14.046-28.98-30.146-30.147V5.74c18.106 1.214 32.62 15.68 33.786 33.787h-3.64Z" clip-rule="evenodd"/><path fill="#29ABE2" fill-rule="evenodd" d="M44.427 74.574c16.1-1.167 28.98-14.047 30.146-30.147h3.64c-1.166 18.107-15.68 32.574-33.786 33.787v-3.64Z" clip-rule="evenodd"/><path fill="#fff" d="M57.447 37.24c.7-4.573-2.8-7.047-7.56-8.68l1.54-6.206-3.78-.934-1.494 6.067c-.98-.233-2.006-.467-3.033-.7l1.54-6.067-3.78-.933-1.54 6.207a196.83 196.83 0 0 1-2.427-.56l-5.226-1.307-1.027 4.06s2.8.653 2.753.7c1.54.373 1.82 1.4 1.774 2.193-1.4 5.694-2.847 11.34-4.247 17.034-.187.466-.653 1.166-1.727.886.047.047-2.753-.7-2.753-.7l-1.867 4.34 4.9 1.213c.934.234 1.82.467 2.707.7l-1.587 6.3 3.78.934 1.54-6.207c1.027.28 2.054.56 3.034.794l-1.54 6.206 3.78.934 1.586-6.254c6.44 1.214 11.294.747 13.347-5.087 1.633-4.713-.093-7.42-3.453-9.193 2.38-.746 4.246-2.38 4.76-5.74Zm-8.634 12.133c-1.166 4.714-9.053 2.147-11.62 1.54l2.1-8.306c2.52.607 10.734 1.867 9.52 6.767Zm1.167-12.18c-1.073 4.294-7.653 2.1-9.8 1.587l1.867-7.56c2.146.514 9.006 1.494 7.933 5.974Z"/></g><defs><linearGradient id="b" x1="30.501" x2="7.812" y1="70.962" y2="51.852" gradientUnits="userSpaceOnUse"><stop offset=".21" stop-color="#ED1E79"/><stop offset="1" stop-color="#522785"/></linearGradient><linearGradient id="c" x1="72.175" x2="49.485" y1="28.714" y2="9.604" gradientUnits="userSpaceOnUse"><stop offset=".21" stop-color="#F15A24"/><stop offset=".68" stop-color="#FBB03B"/></linearGradient><clipPath id="a"><path fill="#fff" d="M0 0h84v84H0z"/></clipPath></defs></svg>