<svg xmlns="http://www.w3.org/2000/svg" fill="none" viewBox="0 0 612 270"><mask id="b" width="616" height="274" x="-2" y="-2" fill="#000" maskUnits="userSpaceOnUse"><path fill="#fff" d="M-2-2h616v274H-2z"/><path d="M44.873 43.147V31.916h44.58v37.647H76.66l-1.27-10.206c-7.617 7.52-19.189 10.206-30.322 10.206C20.361 69.465.146 62.335.244 37.53v-4.785C.146 7.893 20.361.764 45.068.715c22.754 0 41.504 6.201 44.385 26.416H62.256c-1.611-2.197-3.955-3.662-6.983-4.444-3.027-.78-6.445-1.171-10.205-1.171-10.498.146-19.384 2.1-19.238 12.793v1.61c-.146 10.792 8.74 12.647 19.238 12.794 10.108 0 16.553-.586 20.41-5.566H44.873Zm58.348 24.902V2.424h76.806V19.22h-51.22v8.398h51.22v15.186h-51.22v8.398h51.22V68.05h-76.806Zm142.869 0h-25.586V23.225h-30.42V2.424h86.426v20.8h-30.42V68.05Zm141.207 0h-25.586V23.225h-30.42V2.424h86.426v20.8h-30.42V68.05Zm105.027-22.51h-38.428v22.412h-25.585V2.326h25.585v22.412h38.428V2.326h25.635v65.625h-25.635V45.54ZM534.9 68.05V2.424h76.807V19.22h-51.221v8.398h51.221v15.186h-51.221v8.398h51.221V68.05H534.9ZM74.193 152.424h34.424c2.197 0 4.004-2.197 4.004-4.395 0-2.197-1.807-4.394-4.004-4.394H74.193v8.789ZM103.832 118H74.193v8.838h29.639c2.197 0 4.004-2.246 4.004-4.443 0-2.198-1.807-4.395-4.004-4.395Zm20.41 16.113c7.422 2.393 12.403 8.057 12.403 16.309.146 11.474-9.522 17.627-20.801 17.627H48.607v-65.625h62.403c11.377-.049 20.996 6.152 20.849 17.578 0 6.299-2.929 11.133-7.617 14.111Zm21.287-31.787h25.586v65.625h-25.586v-65.625Zm79.735 40.82v-11.23h44.58v37.646h-12.793l-1.27-10.205c-7.617 7.52-19.189 10.205-30.322 10.205-24.707-.097-44.922-7.226-44.824-32.031v-4.785c-.098-24.853 20.117-31.982 44.824-32.031 22.754 0 41.504 6.201 44.385 26.416h-27.198c-1.611-2.197-3.955-3.662-6.982-4.443-3.027-.782-6.445-1.172-10.205-1.172-10.498.146-19.385 2.099-19.238 12.793v1.611c-.147 10.791 8.74 12.646 19.238 12.793 10.107 0 16.553-.586 20.41-5.567h-20.605Zm99.265 0v-11.23h44.58v37.646h-12.793l-1.269-10.205c-7.617 7.52-19.19 10.205-30.322 10.205-24.707-.097-44.922-7.226-44.825-32.031v-4.785c-.097-24.853 20.118-31.982 44.825-32.031 22.754 0 41.504 6.201 44.384 26.416h-27.197c-1.611-2.197-3.955-3.662-6.982-4.443-3.028-.782-6.446-1.172-10.205-1.172-10.498.146-19.385 2.099-19.239 12.793v1.611c-.146 10.791 8.741 12.646 19.239 12.793 10.107 0 16.552-.586 20.41-5.567h-20.606Zm58.348 24.903v-65.625h76.807v16.797h-51.221v8.398h51.221v15.186h-51.221v8.398h51.221v16.846h-76.807Zm92.43-65.674h63.232c13.525-.146 25 11.23 24.805 24.805 0 4.931-1.319 9.424-3.955 13.427-2.588 3.955-6.055 6.983-10.352 8.985L563.344 168h-27.246l-12.354-16.016h-22.851V168h-25.586v-65.625Zm56.787 19.189h-31.201v11.182h31.201c1.562 0 2.881-.537 3.955-1.611 1.123-1.123 1.66-2.442 1.66-3.955a5.586 5.586 0 0 0-5.615-5.616ZM32.201 232.795h31.25c1.514 0 2.832-.537 3.906-1.611 1.124-1.123 1.66-2.442 1.66-3.955 0-1.563-.536-2.881-1.66-3.956-1.074-1.123-2.392-1.66-3.906-1.66h-31.25v11.182ZM6.615 202.424h63.233c13.525-.147 25 11.23 24.804 24.805.196 13.525-11.279 25-24.804 24.804H32.2v16.016H6.615v-65.625Zm97.02-.098h25.586v65.625h-25.586v-65.625Zm98.386 38.428h26.221c-1.611 22.168-21.045 28.808-44.678 28.808-24.609-.048-44.921-7.177-44.824-32.031v-4.785c-.097-24.805 20.215-31.934 44.824-32.031 23.633.049 43.067 6.689 44.678 28.808h-26.221c-2.392-6.445-9.667-7.959-18.457-7.959-10.449.147-19.335 2.002-19.189 12.793v1.612c-.146 10.693 8.74 12.646 19.189 12.793 8.79 0 16.114-1.563 18.457-8.008Zm86.229 27.295h-25.586v-44.824h-30.42v-20.801h86.426v20.801h-30.42v44.824Zm105.125-32.08v-33.643h25.635v35.254c.097 24.805-20.215 31.934-44.824 31.982-24.61-.048-44.922-7.177-44.825-31.982v-35.254h25.586v33.643c-.097 10.791 8.741 12.646 19.239 12.793 10.449-.147 19.335-2.002 19.189-12.793Zm39.158-33.594h63.233c13.525-.146 25 11.23 24.804 24.805 0 4.931-1.318 9.424-3.955 13.427-2.588 3.955-6.054 6.983-10.351 8.985L520.57 268h-27.246l-12.353-16.016h-22.852V268h-25.586v-65.625Zm56.787 19.189h-31.201v11.182h31.201c1.563 0 2.881-.537 3.955-1.611 1.123-1.123 1.661-2.442 1.661-3.955a5.586 5.586 0 0 0-5.616-5.616Zm41.209 46.485v-65.625h76.807v16.797h-51.221v8.398h51.221v15.186h-51.221v8.398h51.221v16.846h-76.807Z"/></mask><path fill="url(#a)" d="M44.873 43.147h-2v2h2v-2Zm0-11.231v-2h-2v2h2Zm44.58 0h2v-2h-2v2Zm0 37.647v2h2v-2h-2Zm-12.793 0-1.984.246.218 1.754h1.766v-2Zm-1.27-10.206 1.985-.246-.5-4.028-2.89 2.851 1.406 1.423ZM45.069 69.563l-.008 2h.008v-2ZM.244 37.53l2 .008v-.008h-2Zm0-4.785h2v-.008l-2 .008ZM45.068.715v-2h-.004l.004 2ZM89.453 27.13v2h2.305l-.325-2.282-1.98.282Zm-27.197 0-1.613 1.183.6.817h1.013v-2Zm-17.188-5.615v-2h-.028l.028 2ZM25.83 34.309h2v-.028l-2 .028Zm0 1.61 2 .028v-.027h-2Zm19.238 12.794-.027 2h.027v-2Zm20.41-5.566 1.582 1.224 2.497-3.224h-4.079v2Zm-18.605 0V31.916h-4v11.23h4Zm-2-9.231h44.58v-4h-44.58v4Zm42.58-2v37.647h4V31.916h-4Zm2 35.647H76.66v4h12.793v-4Zm-10.808 1.753-1.27-10.206-3.97.494 1.27 10.205 3.97-.493Zm-4.66-11.382c-7.077 6.987-18.019 9.629-28.917 9.629v4c11.368 0 23.57-2.73 31.728-10.782l-2.81-2.847Zm-28.909 9.629c-12.232-.049-23.025-1.85-30.69-6.464-7.492-4.511-12.188-11.82-12.142-23.56l-4-.016c-.051 13.066 5.311 21.723 14.079 27.002 8.595 5.175 20.263 6.988 32.737 7.037l.016-4ZM2.244 37.53v-4.785h-4v4.785h4Zm0-4.793C2.198 20.973 6.895 13.652 14.386 9.142 22.05 4.528 32.841 2.74 45.072 2.715l-.008-4c-12.475.024-24.145 1.825-32.741 7-8.77 5.28-14.13 13.95-14.079 27.039l4-.016ZM45.068 2.715c11.246 0 21.249 1.54 28.727 5.404 7.361 3.803 12.336 9.875 13.678 19.294l3.96-.564c-1.539-10.797-7.38-17.932-15.802-22.284-8.305-4.29-19.054-5.85-30.563-5.85v4ZM89.453 25.13H62.256v4h27.197v-4Zm-25.584.817c-1.934-2.636-4.71-4.323-8.096-5.197l-1 3.873c2.669.689 4.58 1.931 5.87 3.69l3.226-2.366Zm-8.096-5.197c-3.22-.831-6.81-1.235-10.705-1.235v4c3.626 0 6.872.377 9.706 1.108l1-3.873ZM45.04 19.516c-5.273.073-10.542.589-14.511 2.67-2.033 1.066-3.765 2.561-4.962 4.632-1.194 2.064-1.777 4.564-1.737 7.518l4-.055c-.033-2.393.44-4.147 1.2-5.46.755-1.309 1.874-2.315 3.356-3.093 3.062-1.605 7.486-2.14 12.71-2.213l-.055-4ZM23.83 34.309v1.61h4v-1.61h-4Zm0 1.584c-.04 2.975.542 5.486 1.735 7.557 1.198 2.077 2.933 3.572 4.969 4.632 3.97 2.068 9.242 2.557 14.507 2.63l.055-3.999c-5.233-.073-9.654-.585-12.715-2.179-1.48-.77-2.595-1.773-3.35-3.082-.76-1.318-1.234-3.084-1.201-5.505l-4-.054Zm21.238 14.82c5.044 0 9.392-.14 12.996-.966 3.68-.843 6.713-2.428 8.996-5.376l-3.163-2.45c-1.574 2.034-3.692 3.232-6.726 3.927-3.11.712-7.04.865-12.103.865v4Zm20.41-9.566H44.873v4h20.605v-4Zm37.743 26.902h-2v2h2v-2Zm0-65.625v-2h-2v2h2Zm76.806 0h2v-2h-2v2Zm0 16.797v2h2v-2h-2Zm-51.22 0v-2h-2v2h2Zm0 8.398h-2v2h2v-2Zm51.22 0h2v-2h-2v2Zm0 15.186v2h2v-2h-2Zm-51.22 0v-2h-2v2h2Zm0 8.398h-2v2h2v-2Zm51.22 0h2v-2h-2v2Zm0 16.846v2h2v-2h-2Zm-74.806 0V2.424h-4v65.625h4Zm-2-63.625h76.806v-4h-76.806v4Zm74.806-2V19.22h4V2.424h-4Zm2 14.797h-51.22v4h51.22v-4Zm-53.22 2v8.398h4v-8.398h-4Zm2 10.398h51.22v-4h-51.22v4Zm49.22-2v15.186h4V27.619h-4Zm2 13.186h-51.22v4h51.22v-4Zm-53.22 2v8.398h4v-8.398h-4Zm2 10.398h51.22v-4h-51.22v4Zm49.22-2V68.05h4V51.203h-4Zm2 14.846h-76.806v4h76.806v-4Zm66.063 2v2h2v-2h-2Zm-25.586 0h-2v2h2v-2Zm0-44.824h2v-2h-2v2Zm-30.42 0h-2v2h2v-2Zm0-20.801v-2h-2v2h2Zm86.426 0h2v-2h-2v2Zm0 20.8v2h2v-2h-2Zm-30.42 0v-2h-2v2h2Zm0 42.825h-25.586v4h25.586v-4Zm-23.586 2V23.225h-4v44.824h4Zm-2-46.824h-30.42v4h30.42v-4Zm-28.42 2V2.424h-4v20.8h4Zm-2-18.801h86.426v-4h-86.426v4Zm84.426-2v20.8h4v-20.8h-4Zm2 18.8h-30.42v4h30.42v-4Zm-32.42 2V68.05h4V23.225h-4ZM387.297 68.05v2h2v-2h-2Zm-25.586 0h-2v2h2v-2Zm0-44.824h2v-2h-2v2Zm-30.42 0h-2v2h2v-2Zm0-20.801v-2h-2v2h2Zm86.426 0h2v-2h-2v2Zm0 20.8v2h2v-2h-2Zm-30.42 0v-2h-2v2h2Zm0 42.825h-25.586v4h25.586v-4Zm-23.586 2V23.225h-4v44.824h4Zm-2-46.824h-30.42v4h30.42v-4Zm-28.42 2V2.424h-4v20.8h4Zm-2-18.801h86.426v-4h-86.426v4Zm84.426-2v20.8h4v-20.8h-4Zm2 18.8h-30.42v4h30.42v-4Zm-32.42 2V68.05h4V23.225h-4ZM492.324 45.54h2v-2h-2v2Zm-38.428 0v-2h-2v2h2Zm0 22.412v2h2v-2h-2Zm-25.585 0h-2v2h2v-2Zm0-65.625v-2h-2v2h2Zm25.585 0h2v-2h-2v2Zm0 22.412h-2v2h2v-2Zm38.428 0v2h2v-2h-2Zm0-22.412v-2h-2v2h2Zm25.635 0h2v-2h-2v2Zm0 65.625v2h2v-2h-2Zm-25.635 0h-2v2h2v-2Zm0-24.412h-38.428v4h38.428v-4Zm-40.428 2v22.412h4V45.54h-4Zm2 20.412h-25.585v4h25.585v-4Zm-23.585 2V2.326h-4v65.625h4Zm-2-63.625h25.585v-4h-25.585v4Zm23.585-2v22.412h4V2.326h-4Zm2 24.412h38.428v-4h-38.428v4Zm40.428-2V2.326h-4v22.412h4Zm-2-20.412h25.635v-4h-25.635v4Zm23.635-2v65.625h4V2.326h-4Zm2 63.625h-25.635v4h25.635v-4Zm-23.635 2V45.54h-4v22.412h4Zm40.576.098h-2v2h2v-2Zm0-65.625v-2h-2v2h2Zm76.807 0h2v-2h-2v2Zm0 16.797v2h2v-2h-2Zm-51.221 0v-2h-2v2h2Zm0 8.398h-2v2h2v-2Zm51.221 0h2v-2h-2v2Zm0 15.186v2h2v-2h-2Zm-51.221 0v-2h-2v2h2Zm0 8.398h-2v2h2v-2Zm51.221 0h2v-2h-2v2Zm0 16.846v2h2v-2h-2Zm-74.807 0V2.424h-4v65.625h4Zm-2-63.625h76.807v-4H534.9v4Zm74.807-2V19.22h4V2.424h-4Zm2 14.797h-51.221v4h51.221v-4Zm-53.221 2v8.398h4v-8.398h-4Zm2 10.398h51.221v-4h-51.221v4Zm49.221-2v15.186h4V27.619h-4Zm2 13.186h-51.221v4h51.221v-4Zm-53.221 2v8.398h4v-8.398h-4Zm2 10.398h51.221v-4h-51.221v4Zm49.221-2V68.05h4V51.203h-4Zm2 14.846H534.9v4h76.807v-4ZM74.193 152.424h-2v2h2v-2Zm0-8.789v-2h-2v2h2Zm0-25.635v-2h-2v2h2Zm0 8.838h-2v2h2v-2Zm50.049 7.275-1.072-1.688-3.596 2.285 4.055 1.307.613-1.904Zm12.403 16.309h-2v.025l2-.025Zm-88.038 17.627h-2v2h2v-2Zm0-65.625v-2h-2v2h2Zm62.403 0v2h.008l-.008-2Zm20.849 17.578-1.999-.026-.001.013v.013h2Zm-57.666 34.422h34.424v-4H74.193v4Zm34.424 0c1.789 0 3.304-.891 4.326-2.051 1.019-1.156 1.678-2.715 1.678-4.344h-4c0 .569-.244 1.207-.678 1.699-.431.488-.917.696-1.326.696v4Zm6.004-6.395c0-1.628-.659-3.188-1.678-4.343-1.022-1.16-2.537-2.051-4.326-2.051v4c.409 0 .895.207 1.326.696.434.492.678 1.13.678 1.698h4Zm-6.004-6.394H74.193v4h34.424v-4Zm-36.424 2v8.789h4v-8.789h-4ZM103.832 116H74.193v4h29.639v-4Zm-31.639 2v8.838h4V118h-4Zm2 10.838h29.639v-4H74.193v4Zm29.639 0c1.804 0 3.321-.918 4.336-2.086 1.012-1.165 1.668-2.732 1.668-4.357h-4c0 .572-.247 1.226-.688 1.734-.438.504-.923.709-1.316.709v4Zm6.004-6.443c0-1.629-.659-3.189-1.678-4.344-1.022-1.16-2.538-2.051-4.326-2.051v4c.409 0 .895.208 1.326.696.434.492.678 1.13.678 1.699h4Zm13.793 13.622c6.724 2.167 11.016 7.149 11.016 14.405h4c0-9.248-5.669-15.595-13.789-18.212l-1.227 3.807Zm11.016 14.43c.065 5.102-2.022 8.92-5.347 11.515-3.38 2.638-8.152 4.087-13.454 4.087v4c5.977 0 11.678-1.627 15.915-4.934 4.293-3.35 6.967-8.345 6.885-14.719l-3.999.051Zm-18.801 15.602H48.607v4h67.237v-4Zm-65.237 2v-65.625h-4v65.625h4Zm-2-63.625h62.403v-4H48.607v4Zm62.411 0c5.349-.023 10.13 1.426 13.507 4.063 3.324 2.593 5.4 6.411 5.335 11.489l3.999.052c.082-6.348-2.579-11.344-6.873-14.695-4.239-3.308-9.956-4.935-15.985-4.909l.017 4Zm18.841 15.578c0 5.598-2.565 9.803-6.689 12.423l2.145 3.376c5.25-3.336 8.544-8.799 8.544-15.799h-4Zm15.67-17.676v-2h-2v2h2Zm25.586 0h2v-2h-2v2Zm0 65.625v2h2v-2h-2Zm-25.586 0h-2v2h2v-2Zm0-63.625h25.586v-4h-25.586v4Zm23.586-2v65.625h4v-65.625h-4Zm2 63.625h-25.586v4h25.586v-4Zm-23.586 2v-65.625h-4v65.625h4Zm77.735-24.805h-2v2h2v-2Zm0-11.23v-2h-2v2h2Zm44.58 0h2v-2h-2v2Zm0 37.646v2h2v-2h-2Zm-12.793 0-1.985.247.218 1.753h1.767v-2Zm-1.27-10.205 1.985-.246-.501-4.029-2.889 2.852 1.405 1.423Zm-30.322 10.205-.008 2h.008v-2Zm-44.824-32.031 2 .008v-.008h-2Zm0-4.785h2v-.008l-2 .008Zm44.824-32.031v-2h-.004l.004 2Zm44.385 26.416v2h2.305l-.325-2.282-1.98.282Zm-27.198 0-1.612 1.183.599.817h1.013v-2Zm-17.187-5.615v-2h-.028l.028 2Zm-19.238 12.793h2v-.028l-2 .028Zm0 1.611 2 .027v-.027h-2Zm19.238 12.793-.028 2h.028v-2Zm20.41-5.567 1.581 1.225 2.498-3.225h-4.079v2Zm-18.605 0v-11.23h-4v11.23h4Zm-2-9.23h44.58v-4h-44.58v4Zm42.58-2v37.646h4v-37.646h-4Zm2 35.646h-12.793v4h12.793v-4Zm-10.809 1.754-1.269-10.205-3.969.493 1.269 10.205 3.969-.493Zm-4.659-11.382c-7.077 6.987-18.019 9.628-28.917 9.628v4c11.368 0 23.57-2.729 31.727-10.781l-2.81-2.847Zm-28.909 9.629c-12.233-.049-23.025-1.849-30.69-6.464-7.493-4.512-12.188-11.821-12.142-23.56l-4-.016c-.052 13.066 5.311 21.723 14.078 27.002 8.595 5.175 20.264 6.988 32.738 7.037l.016-3.999Zm-42.832-30.032v-4.785h-4v4.785h4Zm0-4.793c-.046-11.765 4.651-19.086 12.142-23.596 7.663-4.614 18.454-6.403 30.686-6.427l-.008-4c-12.475.025-24.145 1.825-32.742 7-8.769 5.28-14.13 13.951-14.078 27.039l4-.016Zm42.824-30.023c11.246 0 21.249 1.541 28.727 5.404 7.361 3.803 12.335 9.875 13.678 19.294l3.96-.564c-1.539-10.796-7.38-17.932-15.802-22.284-8.306-4.29-19.055-5.85-30.563-5.85v4Zm44.385 22.416h-27.198v4h27.198v-4Zm-25.585.817c-1.933-2.636-4.708-4.323-8.095-5.197l-1 3.873c2.668.689 4.58 1.931 5.87 3.69l3.225-2.366Zm-8.095-5.197c-3.221-.831-6.811-1.235-10.705-1.235v4c3.625 0 6.871.377 9.705 1.108l1-3.873Zm-10.733-1.235c-5.274.073-10.542.589-14.512 2.67-2.033 1.066-3.765 2.561-4.962 4.632-1.193 2.064-1.777 4.564-1.736 7.518l4-.055c-.033-2.393.439-4.147 1.199-5.461.756-1.308 1.874-2.314 3.357-3.092 3.062-1.605 7.486-2.14 12.71-2.213l-.056-3.999Zm-21.21 14.793v1.611h4v-1.611h-4Zm0 1.584c-.04 2.975.541 5.487 1.735 7.557 1.198 2.077 2.932 3.572 4.968 4.632 3.971 2.068 9.242 2.557 14.507 2.631l.056-4c-5.233-.073-9.655-.585-12.715-2.179-1.48-.77-2.596-1.773-3.351-3.082-.759-1.318-1.233-3.084-1.2-5.505l-4-.054Zm21.238 14.82c5.044 0 9.392-.141 12.995-.966 3.68-.843 6.713-2.428 8.996-5.376l-3.162-2.449c-1.575 2.033-3.692 3.231-6.727 3.926-3.11.712-7.039.865-12.102.865v4Zm20.41-9.567h-20.605v4h20.605v-4Zm78.66 2h-2v2h2v-2Zm0-11.23v-2h-2v2h2Zm44.58 0h2v-2h-2v2Zm0 37.646v2h2v-2h-2Zm-12.793 0-1.984.247.218 1.753h1.766v-2Zm-1.269-10.205 1.985-.246-.502-4.029-2.888 2.852 1.405 1.423Zm-30.322 10.205-.008 2h.008v-2ZM279.9 137.531l2 .008v-.008h-2Zm0-4.785h2v-.008l-2 .008Zm44.825-32.031v-2h-.004l.004 2Zm44.384 26.416v2h2.306l-.326-2.282-1.98.282Zm-27.197 0-1.613 1.183.6.817h1.013v-2Zm-17.187-5.615v-2h-.028l.028 2Zm-19.239 12.793h2v-.028l-2 .028Zm0 1.611 2 .027v-.027h-2Zm19.239 12.793-.028 2h.028v-2Zm20.41-5.567 1.581 1.225 2.498-3.225h-4.079v2Zm-18.606 0v-11.23h-4v11.23h4Zm-2-9.23h44.58v-4h-44.58v4Zm42.58-2v37.646h4v-37.646h-4Zm2 35.646h-12.793v4h12.793v-4Zm-10.808 1.754-1.269-10.205-3.97.493 1.27 10.205 3.969-.493Zm-4.659-11.382c-7.077 6.987-18.02 9.628-28.917 9.628v4c11.367 0 23.57-2.729 31.727-10.781l-2.81-2.847Zm-28.909 9.629c-12.233-.049-23.025-1.849-30.691-6.464-7.492-4.512-12.188-11.821-12.142-23.56l-4-.016c-.051 13.066 5.312 21.723 14.079 27.002 8.595 5.175 20.263 6.988 32.738 7.037l.016-3.999ZM281.9 137.531v-4.785h-4v4.785h4Zm0-4.793c-.046-11.765 4.652-19.086 12.142-23.596 7.664-4.614 18.455-6.403 30.687-6.427l-.008-4c-12.476.025-24.146 1.825-32.742 7-8.769 5.28-14.13 13.951-14.079 27.039l4-.016Zm42.825-30.023c11.245 0 21.248 1.541 28.726 5.404 7.362 3.803 12.336 9.875 13.678 19.294l3.96-.564c-1.538-10.796-7.379-17.932-15.802-22.284-8.305-4.29-19.054-5.85-30.562-5.85v4Zm44.384 22.416h-27.197v4h27.197v-4Zm-25.584.817c-1.933-2.636-4.709-4.323-8.096-5.197l-.999 3.873c2.668.689 4.58 1.931 5.869 3.69l3.226-2.366Zm-8.096-5.197c-3.22-.831-6.81-1.235-10.704-1.235v4c3.625 0 6.871.377 9.705 1.108l.999-3.873Zm-10.732-1.235c-5.274.073-10.542.589-14.512 2.67-2.033 1.066-3.765 2.561-4.962 4.632-1.194 2.064-1.777 4.564-1.736 7.518l3.999-.055c-.033-2.393.44-4.147 1.2-5.461.756-1.308 1.874-2.314 3.356-3.092 3.062-1.605 7.486-2.14 12.711-2.213l-.056-3.999Zm-21.211 14.793v1.611h4v-1.611h-4Zm.001 1.584c-.041 2.975.541 5.487 1.735 7.557 1.198 2.077 2.932 3.572 4.968 4.632 3.971 2.068 9.242 2.557 14.507 2.631l.056-4c-5.234-.073-9.655-.585-12.715-2.179-1.48-.77-2.596-1.773-3.351-3.082-.76-1.318-1.234-3.084-1.201-5.505l-3.999-.054Zm21.238 14.82c5.044 0 9.391-.141 12.995-.966 3.68-.843 6.713-2.428 8.996-5.376l-3.162-2.449c-1.575 2.033-3.693 3.231-6.727 3.926-3.11.712-7.039.865-12.102.865v4Zm20.41-9.567h-20.606v4h20.606v-4Zm37.742 26.903h-2v2h2v-2Zm0-65.625v-2h-2v2h2Zm76.807 0h2v-2h-2v2Zm0 16.797v2h2v-2h-2Zm-51.221 0v-2h-2v2h2Zm0 8.398h-2v2h2v-2Zm51.221 0h2v-2h-2v2Zm0 15.186v2h2v-2h-2Zm-51.221 0v-2h-2v2h2Zm0 8.398h-2v2h2v-2Zm51.221 0h2v-2h-2v2Zm0 16.846v2h2v-2h-2Zm-74.807 0v-65.625h-4v65.625h4Zm-2-63.625h76.807v-4h-76.807v4Zm74.807-2v16.797h4v-16.797h-4Zm2 14.797h-51.221v4h51.221v-4Zm-53.221 2v8.398h4v-8.398h-4Zm2 10.398h51.221v-4h-51.221v4Zm49.221-2v15.186h4v-15.186h-4Zm2 13.186h-51.221v4h51.221v-4Zm-53.221 2v8.398h4v-8.398h-4Zm2 10.398h51.221v-4h-51.221v4Zm49.221-2v16.846h4v-16.846h-4Zm2 14.846h-76.807v4h76.807v-4Zm15.623-63.674v-2h-2v2h2Zm63.232 0v2h.022l-.022-2Zm24.805 24.805-2-.029V127.18h2Zm-3.955 13.427-1.671-1.1-.003.005 1.674 1.095Zm-10.352 8.985-.845-1.813-2.273 1.059 1.539 1.981 1.579-1.227ZM563.344 168v2h4.087l-2.508-3.227-1.579 1.227Zm-27.246 0-1.584 1.222.601.778h.983v-2Zm-12.354-16.016 1.584-1.221-.601-.779h-.983v2Zm-22.851 0v-2h-2v2h2Zm0 16.016v2h2v-2h-2Zm-25.586 0h-2v2h2v-2Zm25.586-46.436v-2h-2v2h2Zm0 11.182h-2v2h2v-2Zm-25.586-28.371h63.232v-4h-63.232v4Zm63.254 0c12.413-.135 22.962 10.338 22.783 22.776l4 .057c.211-14.71-12.189-26.991-26.827-26.833l.044 4Zm22.783 22.805c0 4.554-1.212 8.662-3.626 12.327l3.341 2.2c2.859-4.342 4.285-9.219 4.285-14.527h-4Zm-3.629 12.332c-2.387 3.648-5.568 6.425-9.523 8.267l1.69 3.626c4.639-2.162 8.391-5.44 11.18-9.703l-3.347-2.19Zm-10.257 11.307 14.307 18.408 3.158-2.454-14.307-18.408-3.158 2.454ZM563.344 166h-27.246v4h27.246v-4Zm-25.663.778-12.353-16.015-3.167 2.443 12.353 16.016 3.167-2.444Zm-13.937-16.794h-22.851v4h22.851v-4Zm-24.851 2V168h4v-16.016h-4Zm2 14.016h-25.586v4h25.586v-4Zm-23.586 2v-65.625h-4V168h4Zm54.787-48.436h-31.201v4h31.201v-4Zm-33.201 2v11.182h4v-11.182h-4Zm2 13.182h31.201v-4h-31.201v4Zm31.201 0c2.076 0 3.908-.736 5.369-2.197l-2.828-2.828c-.688.687-1.492 1.025-2.541 1.025v4Zm5.369-2.197c1.494-1.494 2.246-3.319 2.246-5.369h-4c0 .977-.322 1.788-1.074 2.541l2.828 2.828Zm2.246-5.369a7.586 7.586 0 0 0-7.615-7.616v4a3.586 3.586 0 0 1 3.615 3.616h4ZM32.201 232.795h-2v2h2v-2Zm35.156-9.522-1.445 1.383.03.032.033.031 1.382-1.446Zm-35.156-1.66v-2h-2v2h2ZM6.615 202.424v-2h-2v2h2Zm63.233 0v2H69.869l-.021-2Zm24.804 24.805-2-.029v.057l2-.028Zm-24.804 24.804.028-2h-.028v2Zm-37.647 0v-2h-2v2h2Zm0 16.016v2h2v-2h-2Zm-25.586 0h-2v2h2v-2Zm25.586-33.254h31.25v-4h-31.25v4Zm31.25 0c2.037 0 3.866-.743 5.32-2.197l-2.828-2.829c-.694.694-1.501 1.026-2.492 1.026v4Zm5.32-2.197c1.495-1.494 2.247-3.319 2.247-5.369h-4c0 .977-.323 1.788-1.075 2.54l2.829 2.829Zm2.247-5.369c0-2.082-.742-3.931-2.278-5.401l-2.765 2.891c.71.679 1.043 1.466 1.043 2.51h4Zm-2.215-5.338c-1.463-1.529-3.309-2.278-5.352-2.278v4c.985 0 1.776.326 2.461 1.043l2.89-2.765Zm-5.352-2.278h-31.25v4h31.25v-4Zm-33.25 2v11.182h4v-11.182h-4ZM6.615 204.424h63.233v-4H6.615v4Zm63.254 0c12.413-.135 22.963 10.338 22.784 22.776l4 .057c.21-14.71-12.19-26.992-26.827-26.833l.043 4Zm22.784 22.833c.179 12.399-10.378 22.955-22.777 22.776l-.057 4c14.652.212 27.045-12.181 26.833-26.833l-4 .057Zm-22.805 22.776H32.2v4h37.647v-4Zm-39.647 2v16.016h4v-16.016h-4Zm2 14.016H6.615v4h25.586v-4Zm-23.586 2v-65.625h-4v65.625h4Zm95.02-65.723v-2h-2v2h2Zm25.586 0h2v-2h-2v2Zm0 65.625v2h2v-2h-2Zm-25.586 0h-2v2h2v-2Zm0-63.625h25.586v-4h-25.586v4Zm23.586-2v65.625h4v-65.625h-4Zm2 63.625h-25.586v4h25.586v-4Zm-23.586 2v-65.625h-4v65.625h4Zm96.386-27.197v-2h-1.4l-.479 1.316 1.879.684Zm26.221 0 1.995.145.156-2.145h-2.151v2Zm-44.678 28.808-.004 2h.004v-2Zm-44.824-32.031 2 .008v-.008h-2Zm0-4.785h2v-.008l-2 .008Zm44.824-32.031.005-2h-.012l.007 2Zm44.678 28.808v2h2.151l-.156-2.145-1.995.145Zm-26.221 0-1.874.696.484 1.304h1.39v-2Zm-18.457-7.959v-2h-.014l-.014.001.028 1.999Zm-19.189 12.793h2v-.027l-2 .027Zm0 1.612 2 .027v-.027h-2Zm19.189 12.793-.028 2h.028v-2Zm18.457-6.008h26.221v-4h-26.221v4Zm24.226-2.145c-.755 10.395-5.618 17.001-13.053 21.112-7.577 4.189-17.942 5.841-29.63 5.841v4c11.946 0 23.114-1.668 31.565-6.341 8.593-4.751 14.252-12.55 15.108-24.322l-3.99-.29Zm-42.679 26.953c-12.181-.024-22.973-1.812-30.65-6.427-7.505-4.512-12.224-11.834-12.178-23.596l-4-.016c-.051 13.092 5.338 21.762 14.117 27.04 8.607 5.174 20.276 6.975 32.703 6.999l.008-4Zm-42.828-30.031v-4.785h-4v4.785h4Zm0-4.793c-.046-11.735 4.671-19.046 12.178-23.559 7.678-4.616 18.472-6.416 30.654-6.464l-.015-4c-12.427.049-24.095 1.862-32.7 7.036-8.778 5.277-14.168 13.933-14.117 27.003l4-.016Zm42.82-30.023c11.689.024 22.055 1.688 29.634 5.878 7.436 4.112 12.298 10.707 13.053 21.076l3.99-.291c-.856-11.75-6.517-19.535-15.108-24.285-8.449-4.673-19.616-6.353-31.56-6.378l-.009 4Zm44.682 24.808h-26.221v4h26.221v-4Zm-24.346 1.304c-1.445-3.894-4.386-6.242-8.013-7.577-3.553-1.308-7.853-1.686-12.319-1.686v4c4.324 0 8.056.379 10.937 1.44 2.805 1.033 4.698 2.664 5.646 5.215l3.749-1.392Zm-20.36-9.262c-5.241.073-10.5.562-14.465 2.631-2.032 1.061-3.765 2.555-4.962 4.632-1.192 2.07-1.774 4.582-1.734 7.557l4-.055c-.033-2.42.441-4.187 1.2-5.505.755-1.31 1.87-2.312 3.346-3.083 3.054-1.593 7.463-2.105 12.671-2.178l-.056-3.999Zm-21.161 14.792v1.612h4v-1.612h-4Zm0 1.584c-.04 2.954.543 5.454 1.735 7.518 1.196 2.07 2.926 3.566 4.956 4.632 3.964 2.082 9.22 2.597 14.47 2.671l.056-4c-5.199-.073-9.61-.608-12.666-2.212-1.479-.777-2.596-1.784-3.352-3.092-.759-1.314-1.232-3.069-1.199-5.462l-4-.055Zm21.189 14.821c4.471 0 8.783-.391 12.342-1.712 3.631-1.348 6.576-3.71 7.995-7.613l-3.759-1.367c-.925 2.544-2.814 4.185-5.628 5.23-2.887 1.071-6.631 1.462-10.95 1.462v4Zm104.686 17.287v2h2v-2h-2Zm-25.586 0h-2v2h2v-2Zm0-44.824h2v-2h-2v2Zm-30.42 0h-2v2h2v-2Zm0-20.801v-2h-2v2h2Zm86.426 0h2v-2h-2v2Zm0 20.801v2h2v-2h-2Zm-30.42 0v-2h-2v2h2Zm0 42.824h-25.586v4h25.586v-4Zm-23.586 2v-44.824h-4v44.824h4Zm-2-46.824h-30.42v4h30.42v-4Zm-28.42 2v-20.801h-4v20.801h4Zm-2-18.801h86.426v-4h-86.426v4Zm84.426-2v20.801h4v-20.801h-4Zm2 18.801h-30.42v4h30.42v-4Zm-32.42 2v44.824h4v-44.824h-4Zm107.125 12.744h-2v.027l2-.027Zm0-33.643v-2h-2v2h2Zm25.635 0h2v-2h-2v2Zm0 35.254h-2v.008l2-.008Zm-44.824 31.982-.004 2h.008l-.004-2Zm-44.825-31.982 2 .008v-.008h-2Zm0-35.254v-2h-2v2h2Zm25.586 0h2v-2h-2v2Zm0 33.643 2 .018v-.018h-2Zm19.239 12.793-.028 2h.056l-.028-2Zm21.189-12.793v-33.643h-4v33.643h4Zm-2-31.643h25.635v-4h-25.635v4Zm23.635-2v35.254h4v-35.254h-4Zm0 35.262c.046 11.735-4.671 19.045-12.177 23.552-7.677 4.61-18.47 6.398-30.651 6.422l.008 4c12.427-.024 24.096-1.825 32.702-6.993 8.779-5.271 14.169-13.928 14.118-26.997l-4 .016Zm-42.82 29.974c-12.182-.024-22.975-1.812-30.652-6.422-7.506-4.507-12.223-11.817-12.177-23.552l-4-.016c-.051 13.069 5.339 21.726 14.118 26.997 8.606 5.168 20.275 6.969 32.703 6.993l.008-4Zm-42.829-29.982v-35.254h-4v35.254h4Zm-2-33.254h25.586v-4h-25.586v4Zm23.586-2v33.643h4v-33.643h-4Zm0 33.625c-.027 2.973.562 5.482 1.757 7.549 1.2 2.076 2.931 3.569 4.964 4.63 3.965 2.069 9.225 2.558 14.49 2.632l.055-4c-5.233-.073-9.641-.585-12.695-2.178-1.476-.771-2.592-1.773-3.351-3.085-.762-1.32-1.242-3.09-1.22-5.512l-4-.036Zm21.267 14.811c5.241-.074 10.5-.563 14.465-2.632 2.032-1.06 3.765-2.555 4.962-4.632 1.192-2.07 1.774-4.582 1.734-7.556l-4 .054c.033 2.421-.441 4.188-1.2 5.505-.755 1.31-1.87 2.312-3.346 3.083-3.054 1.593-7.463 2.105-12.671 2.178l.056 4Zm58.319-48.387v-2h-2v2h2Zm63.233 0v2H495.787l-.021-2Zm24.804 24.805-2-.029V227.18h2Zm-3.955 13.427-1.67-1.1-.003.005 1.673 1.095Zm-10.351 8.985-.845-1.813-2.274 1.059 1.54 1.981 1.579-1.227ZM520.57 268v2h4.088l-2.509-3.227L520.57 268Zm-27.246 0-1.583 1.222.6.778h.983v-2Zm-12.353-16.016 1.583-1.221-.6-.779h-.983v2Zm-22.852 0v-2h-2v2h2Zm0 16.016v2h2v-2h-2Zm-25.586 0h-2v2h2v-2Zm25.586-46.436v-2h-2v2h2Zm0 11.182h-2v2h2v-2Zm-25.586-28.371h63.233v-4h-63.233v4Zm63.254 0c12.413-.135 22.963 10.338 22.783 22.776l4 .057c.212-14.71-12.188-26.991-26.826-26.833l.043 4Zm22.783 22.805c0 4.554-1.211 8.662-3.625 12.327l3.341 2.2c2.859-4.342 4.284-9.219 4.284-14.527h-4Zm-3.628 12.332c-2.387 3.648-5.569 6.425-9.523 8.267l1.689 3.626c4.64-2.162 8.392-5.44 11.181-9.703l-3.347-2.19Zm-10.257 11.307 14.306 18.408 3.158-2.454-14.306-18.408-3.158 2.454ZM520.57 266h-27.246v4h27.246v-4Zm-25.662.778-12.354-16.015-3.167 2.443 12.354 16.016 3.167-2.444Zm-13.937-16.794h-22.852v4h22.852v-4Zm-24.852 2V268h4v-16.016h-4Zm2 14.016h-25.586v4h25.586v-4Zm-23.586 2v-65.625h-4V268h4Zm54.787-48.436h-31.201v4h31.201v-4Zm-33.201 2v11.182h4v-11.182h-4Zm2 13.182h31.201v-4h-31.201v4Zm31.201 0c2.076 0 3.909-.736 5.37-2.197l-2.829-2.828c-.687.687-1.492 1.025-2.541 1.025v4Zm5.37-2.197c1.493-1.494 2.246-3.319 2.246-5.369h-4c0 .977-.323 1.788-1.075 2.541l2.829 2.828Zm2.246-5.369a7.586 7.586 0 0 0-7.616-7.616v4a3.586 3.586 0 0 1 3.616 3.616h4Zm33.593 40.869h-2v2h2v-2Zm0-65.625v-2h-2v2h2Zm76.807 0h2v-2h-2v2Zm0 16.797v2h2v-2h-2Zm-51.221 0v-2h-2v2h2Zm0 8.398h-2v2h2v-2Zm51.221 0h2v-2h-2v2Zm0 15.186v2h2v-2h-2Zm-51.221 0v-2h-2v2h2Zm0 8.398h-2v2h2v-2Zm51.221 0h2v-2h-2v2Zm0 16.846v2h2v-2h-2Zm-74.807 0v-65.625h-4v65.625h4Zm-2-63.625h76.807v-4h-76.807v4Zm74.807-2v16.797h4v-16.797h-4Zm2 14.797h-51.221v4h51.221v-4Zm-53.221 2v8.398h4v-8.398h-4Zm2 10.398h51.221v-4h-51.221v4Zm49.221-2v15.186h4v-15.186h-4Zm2 13.186h-51.221v4h51.221v-4Zm-53.221 2v8.398h4v-8.398h-4Zm2 10.398h51.221v-4h-51.221v4Zm49.221-2v16.846h4v-16.846h-4Zm2 14.846h-76.807v4h76.807v-4Z" mask="url(#b)"/><defs><linearGradient id="a" x1="696.725" x2="-136" y1="104.125" y2="104.125" gradientUnits="userSpaceOnUse"><stop stop-color="#C772EF"/><stop offset="1" stop-color="#6A85F1"/></linearGradient></defs></svg>