<svg width="16" height="16" viewBox="0 0 16 16" fill="none"
  xmlns="http://www.w3.org/2000/svg">
  <g clip-path="url(#clip0_629_7047)">
    <path d="M8 13.4334L11.3 10.1334C11.9526 9.48078 12.397 8.64926 12.577 7.74403C12.7571 6.8388 12.6646 5.90051 12.3114 5.04782C11.9582 4.19512 11.36 3.46632 10.5926 2.95356C9.82519 2.4408 8.92296 2.16711 8 2.16711C7.07704 2.16711 6.17481 2.4408 5.40739 2.95356C4.63997 3.46632 4.04183 4.19512 3.68861 5.04782C3.33539 5.90051 3.24294 6.8388 3.42297 7.74403C3.603 8.64926 4.04741 9.48078 4.7 10.1334L8 13.4334ZM8 15.3188L3.75734 11.0761C2.91823 10.237 2.34679 9.1679 2.11529 8.00401C1.88378 6.84013 2.0026 5.63373 2.45673 4.53738C2.91086 3.44103 3.6799 2.50396 4.66659 1.84467C5.65328 1.18539 6.81332 0.833496 8 0.833496C9.18669 0.833496 10.3467 1.18539 11.3334 1.84467C12.3201 2.50396 13.0891 3.44103 13.5433 4.53738C13.9974 5.63373 14.1162 6.84013 13.8847 8.00401C13.6532 9.1679 13.0818 10.237 12.2427 11.0761L8 15.3188ZM8 8.16678C8.35362 8.16678 8.69276 8.0263 8.94281 7.77626C9.19286 7.52621 9.33334 7.18707 9.33334 6.83345C9.33334 6.47982 9.19286 6.14069 8.94281 5.89064C8.69276 5.64059 8.35362 5.50011 8 5.50011C7.64638 5.50011 7.30724 5.64059 7.05719 5.89064C6.80715 6.14069 6.66667 6.47982 6.66667 6.83345C6.66667 7.18707 6.80715 7.52621 7.05719 7.77626C7.30724 8.0263 7.64638 8.16678 8 8.16678ZM8 9.50011C7.29276 9.50011 6.61448 9.21916 6.11438 8.71907C5.61429 8.21897 5.33334 7.54069 5.33334 6.83345C5.33334 6.1262 5.61429 5.44792 6.11438 4.94783C6.61448 4.44773 7.29276 4.16678 8 4.16678C8.70725 4.16678 9.38552 4.44773 9.88562 4.94783C10.3857 5.44792 10.6667 6.1262 10.6667 6.83345C10.6667 7.54069 10.3857 8.21897 9.88562 8.71907C9.38552 9.21916 8.70725 9.50011 8 9.50011Z" fill="currentColor"/>
  </g>
  <defs>
    <clipPath id="clip0_629_7047">
      <rect width="16" height="16" fill="white"/>
    </clipPath>
  </defs>
</svg>
