<svg width="320" height="37" viewBox="0 0 320 37" fill="none" xmlns="http://www.w3.org/2000/svg">
<g clip-path="url(#clip0_587_7410)">
<path d="M89.2001 23.2415C89.572 23.2415 89.8738 22.9399 89.8738 22.5678V13.4071C89.8738 13.035 89.572 12.7334 89.2001 12.7334H88.4725C88.1003 12.7334 87.7988 13.035 87.7988 13.4071V22.5678C87.7988 22.9399 88.1003 23.2415 88.4725 23.2415H89.2001Z" fill="#181818"/>
<path d="M105.068 23.2415C105.441 23.2415 105.742 22.9399 105.742 22.5678V13.4071C105.742 13.035 105.441 12.7334 105.068 12.7334H104.371C103.999 12.7334 103.697 13.035 103.697 13.4071V19.6845L99.5227 13.0484C99.3994 12.8524 99.1842 12.7334 98.9524 12.7334H97.4491C97.0772 12.7334 96.7754 13.035 96.7754 13.4071V22.5678C96.7754 22.9399 97.0772 23.2415 97.4491 23.2415H98.147C98.5192 23.2415 98.8207 22.9399 98.8207 22.5678V15.7865L103.394 22.9311C103.518 23.1245 103.732 23.2415 103.962 23.2415H105.068Z" fill="#181818"/>
<path d="M119.688 14.675C120.061 14.675 120.362 14.3733 120.362 14.0013V13.4071C120.362 13.035 120.061 12.7334 119.688 12.7334H112.336C111.964 12.7334 111.662 13.035 111.662 13.4071V14.0013C111.662 14.3733 111.964 14.675 112.336 14.675H114.982V22.5678C114.982 22.9399 115.284 23.2415 115.656 23.2415H116.368C116.741 23.2415 117.042 22.9399 117.042 22.5678V14.675H119.688Z" fill="#181818"/>
<path d="M132.184 23.2415C132.556 23.2415 132.858 22.9399 132.858 22.5678V21.9885C132.858 21.6164 132.556 21.3148 132.184 21.3148H128.323V18.8841H131.754C132.126 18.8841 132.428 18.5825 132.428 18.2105V17.7348C132.428 17.3628 132.126 17.0611 131.754 17.0611H128.323V14.6601H132.184C132.556 14.6601 132.858 14.3585 132.858 13.9865V13.4071C132.858 13.035 132.556 12.7334 132.184 12.7334H126.951C126.579 12.7334 126.277 13.035 126.277 13.4071V22.5678C126.277 22.9399 126.579 23.2415 126.951 23.2415H132.184Z" fill="#181818"/>
<path d="M144.309 22.8735C144.424 23.0993 144.656 23.2415 144.909 23.2415H145.665C146.171 23.2415 146.496 22.7037 146.261 22.2551L144.526 18.9434C145.904 18.5433 146.764 17.4317 146.764 15.9644C146.764 14.1414 145.459 12.7334 143.414 12.7334H139.982C139.61 12.7334 139.309 13.035 139.309 13.4071V22.5678C139.309 22.9399 139.61 23.2415 139.982 23.2415H140.695C141.067 23.2415 141.369 22.9399 141.369 22.5678V19.1954H142.436L144.309 22.8735ZM141.369 17.4317V14.5119H143.029C144.066 14.5119 144.674 15.0899 144.674 15.9792C144.674 16.8388 144.066 17.4317 143.029 17.4317H141.369Z" fill="#181818"/>
<path d="M161.381 23.2415C161.753 23.2415 162.055 22.9399 162.055 22.5678V13.4071C162.055 13.035 161.753 12.7334 161.381 12.7334H160.683C160.311 12.7334 160.009 13.035 160.009 13.4071V19.6845L155.835 13.0484C155.712 12.8524 155.497 12.7334 155.265 12.7334H153.762C153.389 12.7334 153.088 13.035 153.088 13.4071V22.5678C153.088 22.9399 153.389 23.2415 153.762 23.2415H154.46C154.831 23.2415 155.133 22.9399 155.133 22.5678V15.7865L159.707 22.9311C159.83 23.1245 160.044 23.2415 160.274 23.2415H161.381Z" fill="#181818"/>
<path d="M174.876 23.2415C175.248 23.2415 175.549 22.9399 175.549 22.5678V21.9885C175.549 21.6164 175.248 21.3148 174.876 21.3148H171.014V18.8841H174.446C174.818 18.8841 175.119 18.5825 175.119 18.2105V17.7348C175.119 17.3628 174.818 17.0611 174.446 17.0611H171.014V14.6601H174.876C175.248 14.6601 175.549 14.3585 175.549 13.9865V13.4071C175.549 13.035 175.248 12.7334 174.876 12.7334H169.642C169.271 12.7334 168.969 13.035 168.969 13.4071V22.5678C168.969 22.9399 169.271 23.2415 169.642 23.2415H174.876Z" fill="#181818"/>
<path d="M189.032 14.675C189.404 14.675 189.706 14.3733 189.706 14.0013V13.4071C189.706 13.035 189.404 12.7334 189.032 12.7334H181.68C181.307 12.7334 181.006 13.035 181.006 13.4071V14.0013C181.006 14.3733 181.307 14.675 181.68 14.675H184.326V22.5678C184.326 22.9399 184.627 23.2415 184.999 23.2415H185.712C186.084 23.2415 186.386 22.9399 186.386 22.5678V14.675H189.032Z" fill="#181818"/>
<path d="M207.937 23.4645C210.523 23.4645 212.004 21.9602 212.599 20.5006C212.735 20.1684 212.529 19.8112 212.185 19.7073L211.54 19.5122C211.18 19.4035 210.807 19.6149 210.627 19.9445C210.196 20.7334 209.353 21.4636 207.937 21.4636C206.247 21.4636 204.676 20.2335 204.676 17.9955C204.676 15.6093 206.336 14.4829 207.907 14.4829C209.329 14.4829 210.138 15.159 210.544 15.9346C210.724 16.2783 211.11 16.5038 211.48 16.3871L212.123 16.1842C212.461 16.0776 212.664 15.7245 212.533 15.3949C211.938 13.8975 210.471 12.5117 207.907 12.5117C205.091 12.5117 202.557 14.6459 202.557 17.9955C202.557 21.3451 205.002 23.4645 207.937 23.4645Z" fill="#181818"/>
<path d="M220.324 17.9807C220.324 15.6093 221.984 14.4829 223.6 14.4829C225.23 14.4829 226.89 15.6093 226.89 17.9807C226.89 20.3521 225.23 21.4785 223.6 21.4785C221.984 21.4785 220.324 20.3521 220.324 17.9807ZM218.205 17.9955C218.205 21.3747 220.754 23.4645 223.6 23.4645C226.46 23.4645 229.01 21.3747 229.01 17.9955C229.01 14.6015 226.46 12.5117 223.6 12.5117C220.754 12.5117 218.205 14.6015 218.205 17.9955Z" fill="#181818"/>
<path d="M246.339 23.2415C246.711 23.2415 247.012 22.9399 247.012 22.5678V13.4071C247.012 13.035 246.711 12.7334 246.339 12.7334H244.68C244.405 12.7334 244.159 12.8995 244.055 13.1535L241.143 20.3218L238.159 13.1483C238.055 12.8971 237.809 12.7334 237.537 12.7334H235.963C235.591 12.7334 235.289 13.035 235.289 13.4071V22.5678C235.289 22.9399 235.591 23.2415 235.963 23.2415H236.572C236.944 23.2415 237.245 22.9399 237.245 22.5678V15.9347L240.097 22.8254C240.201 23.0773 240.447 23.2415 240.719 23.2415H241.522C241.795 23.2415 242.041 23.0765 242.145 22.8237L244.997 15.8755V22.5678C244.997 22.9399 245.298 23.2415 245.671 23.2415H246.339Z" fill="#181818"/>
<path d="M255.98 17.5206V14.5119H257.596C258.618 14.5119 259.241 15.0899 259.241 16.0237C259.241 16.9278 258.618 17.5206 257.596 17.5206H255.98ZM257.848 19.2843C259.922 19.2843 261.301 17.9208 261.301 16.0089C261.301 14.1118 259.922 12.7334 257.848 12.7334H254.594C254.222 12.7334 253.92 13.035 253.92 13.4071V22.5678C253.92 22.9399 254.222 23.2415 254.594 23.2415H255.292C255.664 23.2415 255.965 22.9399 255.965 22.5678V19.2843H257.848Z" fill="#181818"/>
<path d="M271.281 23.4787C273.534 23.4787 275.327 22.1003 275.327 19.5214V13.4071C275.327 13.035 275.026 12.7334 274.654 12.7334H273.956C273.584 12.7334 273.282 13.035 273.282 13.4071V19.3732C273.282 20.7516 272.526 21.4778 271.281 21.4778C270.066 21.4778 269.295 20.7516 269.295 19.3732V13.4071C269.295 13.035 268.994 12.7334 268.622 12.7334H267.924C267.551 12.7334 267.25 13.035 267.25 13.4071V19.5214C267.25 22.1003 269.043 23.4787 271.281 23.4787Z" fill="#181818"/>
<path d="M289.183 14.675C289.554 14.675 289.856 14.3733 289.856 14.0013V13.4071C289.856 13.035 289.554 12.7334 289.183 12.7334H281.83C281.458 12.7334 281.156 13.035 281.156 13.4071V14.0013C281.156 14.3733 281.458 14.675 281.83 14.675H284.476V22.5678C284.476 22.9399 284.778 23.2415 285.15 23.2415H285.863C286.234 23.2415 286.536 22.9399 286.536 22.5678V14.675H289.183Z" fill="#181818"/>
<path d="M301.676 23.2415C302.048 23.2415 302.35 22.9399 302.35 22.5678V21.9885C302.35 21.6164 302.048 21.3148 301.676 21.3148H297.815V18.8841H301.247C301.618 18.8841 301.92 18.5825 301.92 18.2105V17.7348C301.92 17.3628 301.618 17.0611 301.247 17.0611H297.815V14.6601H301.676C302.048 14.6601 302.35 14.3585 302.35 13.9865V13.4071C302.35 13.035 302.048 12.7334 301.676 12.7334H296.443C296.071 12.7334 295.77 13.035 295.77 13.4071V22.5678C295.77 22.9399 296.071 23.2415 296.443 23.2415H301.676Z" fill="#181818"/>
<path d="M313.799 22.8735C313.914 23.0993 314.146 23.2415 314.399 23.2415H315.155C315.662 23.2415 315.987 22.7037 315.752 22.2551L314.016 18.9434C315.394 18.5433 316.254 17.4317 316.254 15.9644C316.254 14.1414 314.95 12.7334 312.904 12.7334H308.799V22.5678C308.799 22.9399 309.101 23.2415 309.473 23.2415H310.185C310.557 23.2415 310.859 22.9399 310.859 22.5678V19.1954H311.926L313.799 22.8735ZM310.859 17.4317V14.5119H312.519C313.556 14.5119 314.164 15.0899 314.164 15.9792C314.164 16.8388 313.556 17.4317 312.519 17.4317H310.859Z" fill="#181818"/>
<path d="M58.7553 0C54.4171 0 49.6878 2.22307 44.6894 6.60184C42.318 8.67672 40.27 10.8998 38.7344 12.6782C38.7344 12.6782 38.7344 12.6782 38.7478 12.6917V12.6782C38.7478 12.6782 41.1728 15.319 43.854 18.1483C45.2957 16.4373 47.3707 14.1064 49.7552 12.0046C54.2015 8.11086 57.098 7.28899 58.7553 7.28899C64.9936 7.28899 70.0593 12.2336 70.0593 18.31C70.0593 24.346 64.9801 29.2906 58.7553 29.3311C58.4723 29.3311 58.1085 29.2906 57.6504 29.1963C59.4694 29.9778 61.423 30.5437 63.2824 30.5437C74.7074 30.5437 76.9441 23.093 77.0923 22.5541C77.4291 21.1933 77.6043 19.7651 77.6043 18.2966C77.6043 8.21861 69.1431 0 58.7553 0Z" fill="url(#paint0_linear_587_7410)"/>
<path d="M18.8489 36.647C23.1873 36.647 27.9164 34.4239 32.9149 30.0451C35.2862 27.9703 37.3342 25.7472 38.8699 23.9688C38.8699 23.9688 38.8699 23.9687 38.8564 23.9553V23.9688C38.8564 23.9688 36.4315 21.328 33.7502 18.4986C32.3086 20.2097 30.2338 22.5406 27.849 24.6424C23.4029 28.5361 20.5061 29.358 18.8489 29.358C12.6109 29.3445 7.54496 24.3999 7.54496 18.3235C7.54496 12.2875 12.6243 7.34286 18.8489 7.30244C19.1319 7.30244 19.4956 7.34286 19.9538 7.43718C18.1349 6.65574 16.1813 6.08984 14.322 6.08984C2.89673 6.08984 0.673657 13.5405 0.51198 14.066C0.175151 15.4402 0 16.8549 0 18.3235C0 28.4284 8.46114 36.647 18.8489 36.647Z" fill="url(#paint1_linear_587_7410)"/>
<path d="M63.2583 30.382C57.4107 30.2338 51.3344 25.6259 50.0948 24.4807C46.8884 21.5166 39.4913 13.5001 38.9123 12.8669C33.496 6.79047 26.1531 0 18.8506 0H18.8372H18.8237C9.95835 0.0404194 2.5077 6.04945 0.513672 14.066C0.661876 13.5405 3.58556 5.94166 14.3102 6.21113C20.1575 6.35934 26.2609 11.0345 27.5139 12.1797C30.7205 15.1438 38.1174 23.1604 38.6967 23.7936C44.1128 29.8565 51.4556 36.6471 58.758 36.6471H58.7715H58.785C67.6503 36.6067 75.1144 30.5976 77.0951 22.581C76.9334 23.1065 73.9961 30.638 63.2583 30.382Z" fill="#29ABE2"/>
</g>
<defs>
<linearGradient id="paint0_linear_587_7410" x1="48.9434" y1="2.41636" x2="74.5707" y2="28.9543" gradientUnits="userSpaceOnUse">
<stop offset="0.21" stop-color="#F15A24"/>
<stop offset="0.6841" stop-color="#FBB03B"/>
</linearGradient>
<linearGradient id="paint1_linear_587_7410" x1="28.6609" y1="34.2305" x2="3.03347" y2="7.69274" gradientUnits="userSpaceOnUse">
<stop offset="0.21" stop-color="#ED1E79"/>
<stop offset="0.8929" stop-color="#522785"/>
</linearGradient>
<clipPath id="clip0_587_7410">
<rect width="320" height="36.7158" fill="white"/>
</clipPath>
</defs>
</svg>
