<svg  viewBox="0 0 162 162" fill="none" xmlns="http://www.w3.org/2000/svg">
<path d="M45.1579 100.924C41.872 95.0252 40 88.2312 40 81C40 58.3563 58.3563 40 81 40C103.644 40 122 58.3563 122 81C122 103.644 103.644 122 81 122C67.9672 122 56.3546 115.919 48.8449 106.44" stroke="white" stroke-opacity="0.7" stroke-width="2.2" stroke-linecap="round" stroke-linejoin="round"/>
<path d="M87.7511 69.1444C85.7158 70.2299 81.6681 74.2724 81.5779 81.8133M81.5779 81.8133C81.5769 81.8985 81.5764 81.9841 81.5764 82.0701V101.006M81.5779 81.8133C82.2648 82.1431 83.0301 82.4246 83.8816 82.6464C91.7193 84.6882 96.1487 77.1853 97.3836 73.1786M81.5779 81.8133C75.9429 79.1075 75.589 73.1501 76.225 70.2147C77.2129 66.208 82.1691 58.1782 94.0904 58.1123C102.241 58.1123 104.793 60.4175 104.793 60.4175C103.503 61.3505 100.71 63.8093 99.8535 66.1805M81.5764 101.006V107.345M81.5764 101.006C81.5764 97.3359 79.394 93.851 76.6373 91.159M67.1687 85.9395C69.3896 85.9395 73.4076 88.0051 76.6373 91.159M76.6373 91.159C75.063 94.05 71.5656 95.4074 69.1446 95.4074C65.9338 95.4074 64.3695 94.3371 60.8294 90.1383C57.9972 86.7793 55.6426 85.9395 54.8193 85.9395C55.8073 84.046 59.1005 79.4355 68.1567 79.4355C75.4017 79.4355 77.3776 85.0339 77.4599 87.8331C77.4599 89.1091 77.151 90.2157 76.6373 91.159Z" stroke="white" stroke-width="2.2" stroke-linecap="round" stroke-linejoin="round"/>
</svg>
