<svg width="64" height="62" viewBox="0 0 64 62" fill="none"
  xmlns="http://www.w3.org/2000/svg">
  <path d="M1.99988 31.5L1.12847 30.8287L0.611325 31.5L1.12847 32.1713L1.99988 31.5ZM61.9999 31.5L62.8713 32.1713L63.3884 31.5L62.8713 30.8287L61.9999 31.5ZM53.3433 42.737L54.2147 43.4083L53.3433 42.737ZM10.6564 42.737L9.78501 43.4083L10.6564 42.737ZM53.3433 20.263L52.4719 20.9343L53.3433 20.263ZM36.5042 12.0286V10.9286V12.0286ZM10.6564 20.263L11.5278 20.9343L10.6564 20.263ZM27.4956 12.0286V13.1286V12.0286ZM39.7138 39.0963L38.9419 39.8801L39.7138 40.6402L40.4856 39.8801L39.7138 39.0963ZM24.286 23.9037L23.5142 23.1199L22.7183 23.9037L23.5142 24.6874L24.286 23.9037ZM9.78501 19.5917L1.12847 30.8287L2.87129 32.1713L11.5278 20.9343L9.78501 19.5917ZM1.12847 32.1713L9.78501 43.4083L11.5278 42.0657L2.87129 30.8287L1.12847 32.1713ZM27.4956 52.0714H36.5042V49.8714H27.4956V52.0714ZM54.2147 43.4083L62.8713 32.1713L61.1285 30.8287L52.4719 42.0657L54.2147 43.4083ZM62.8713 30.8287L54.2147 19.5917L52.4719 20.9343L61.1285 32.1713L62.8713 30.8287ZM36.5042 10.9286H27.4956V13.1286H36.5042V10.9286ZM36.5042 52.0714C43.4535 52.0714 50.0079 48.8692 54.2147 43.4083L52.4719 42.0657C48.6864 46.9797 42.7788 49.8714 36.5042 49.8714V52.0714ZM9.78501 43.4083C13.9918 48.8692 20.5463 52.0714 27.4956 52.0714V49.8714C21.2209 49.8714 15.3134 46.9797 11.5278 42.0657L9.78501 43.4083ZM54.2147 19.5917C50.0079 14.1308 43.4535 10.9286 36.5042 10.9286V13.1286C42.7788 13.1286 48.6864 16.0203 52.4719 20.9343L54.2147 19.5917ZM11.5278 20.9343C15.3134 16.0203 21.2209 13.1286 27.4956 13.1286V10.9286C20.5463 10.9286 13.9918 14.1308 9.78501 19.5917L11.5278 20.9343ZM40.4856 39.8801C42.7396 37.6605 44.009 34.6464 44.009 31.5H41.809C41.809 34.0519 40.7797 36.5028 38.9419 38.3126L40.4856 39.8801ZM44.009 31.5C44.009 28.3536 42.7396 25.3395 40.4856 23.1199L38.9419 24.6874C40.7797 26.4972 41.809 28.9481 41.809 31.5H44.009ZM40.4856 23.1199C38.2322 20.9008 35.1795 19.6571 31.9999 19.6571V21.8571C34.6068 21.8571 37.1036 22.8771 38.9419 24.6874L40.4856 23.1199ZM31.9999 19.6571C28.8203 19.6571 25.7676 20.9008 23.5142 23.1199L25.0578 24.6874C26.8961 22.8771 29.3929 21.8571 31.9999 21.8571V19.6571ZM7.36442 8.78377L55.0917 55.7838L56.6353 54.2162L8.90806 7.21623L7.36442 8.78377ZM23.5142 24.6874L38.9419 39.8801L40.4856 38.3126L25.0578 23.1199L23.5142 24.6874Z" fill="white"/>
</svg>
