<svg  viewBox="0 0 162 162" fill="none" xmlns="http://www.w3.org/2000/svg">
<path d="M115 55.5C115 56.4649 114.344 57.5849 112.671 58.7714C111.024 59.9395 108.576 61.0323 105.461 61.9668C99.2444 63.8319 90.5957 65 81 65C71.4043 65 62.7556 63.8319 56.5386 61.9668C53.4237 61.0323 50.9758 59.9395 49.329 58.7714C47.6562 57.5849 47 56.4649 47 55.5C47 54.5351 47.6562 53.4151 49.329 52.2286C50.9758 51.0605 53.4237 49.9677 56.5386 49.0332C62.7556 47.1681 71.4043 46 81 46C90.5957 46 99.2444 47.1681 105.461 49.0332C108.576 49.9677 111.024 51.0605 112.671 52.2286C114.344 53.4151 115 54.5351 115 55.5Z" stroke="white" stroke-width="2"/>
<path d="M115.125 73.875C115.125 79.674 99.8467 84.375 81 84.375C62.1533 84.375 46.875 79.674 46.875 73.875" stroke="white" stroke-opacity="0.7" stroke-width="2"/>
<path d="M115.125 85.25C115.125 91.049 99.8467 95.75 81 95.75C62.1533 95.75 46.875 91.049 46.875 85.25" stroke="white" stroke-opacity="0.7" stroke-width="2"/>
<path d="M115.125 104.5C115.125 110.299 99.8467 115 81 115C62.1533 115 46.875 110.299 46.875 104.5" stroke="white" stroke-width="2"/>
<line x1="47" y1="55.5" x2="47" y2="104.5" stroke="white" stroke-width="2"/>
<line x1="115.25" y1="55.5" x2="115.25" y2="104.5" stroke="white" stroke-width="2"/>
<line x1="75.875" y1="84.375" x2="75.875" y2="94.875" stroke="white" stroke-opacity="0.7" stroke-width="2"/>
<line x1="87.25" y1="84.375" x2="87.25" y2="94.875" stroke="white" stroke-opacity="0.7" stroke-width="2"/>
<circle cx="55.625" cy="70.375" r="1.75" fill="white" fill-opacity="0.7"/>
<circle cx="55.625" cy="101" r="1.75" fill="white" fill-opacity="0.7"/>
<circle cx="62.625" cy="72.125" r="1.75" fill="white" fill-opacity="0.7"/>
<circle cx="62.625" cy="102.75" r="1.75" fill="white" fill-opacity="0.7"/>
<circle cx="69.625" cy="73.875" r="1.75" fill="white" fill-opacity="0.7"/>
<circle cx="69.625" cy="104.5" r="1.75" fill="white" fill-opacity="0.7"/>
</svg>
