<svg viewBox="0 0 72 72" fill="none"
  xmlns="http://www.w3.org/2000/svg">
  <path fill-rule="evenodd" clip-rule="evenodd" d="M17.9971 9.39709H26.9961V11.5971H17.9971C14.4625 11.5971 11.5971 14.4625 11.5971 17.9971V26.9959H9.39709V17.9971C9.39709 13.2474 13.2474 9.39709 17.9971 9.39709ZM9.39709 44.9959V53.9971C9.39709 58.7467 13.2474 62.5971 17.9971 62.5971H26.9961V60.3971H17.9971C14.4625 60.3971 11.5971 57.5317 11.5971 53.9971V44.9959H9.39709ZM60.3971 44.9959V53.9971C60.3971 57.5317 57.5317 60.3971 53.9971 60.3971H44.9961V62.5971H53.9971C58.7467 62.5971 62.5971 58.7467 62.5971 53.9971V44.9959H60.3971ZM62.5971 26.9959V17.9971C62.5971 13.2474 58.7467 9.39709 53.9971 9.39709H44.9961V11.5971H53.9971C57.5317 11.5971 60.3971 14.4625 60.3971 17.9971V26.9959H62.5971Z" fill="url(#paint0_linear_203_26468)"/>
  <path d="M24.75 27V34.5" stroke="url(#paint1_linear_203_26468)" stroke-width="2.2"/>
  <path d="M47.25 27V34.5" stroke="url(#paint2_linear_203_26468)" stroke-width="2.2"/>
  <path d="M36 27V39" stroke="url(#paint3_linear_203_26468)" stroke-width="2.2"/>
  <path d="M46.5499 43.7454C43.7626 46.4252 39.9788 47.9425 36.0248 47.9659C32.0708 47.9893 28.2676 46.5169 25.4458 43.8703" stroke="url(#paint4_linear_203_26468)" stroke-width="2.2"/>
  <defs>
    <linearGradient id="paint0_linear_203_26468" x1="9.39709" y1="9.39709" x2="63.8003" y2="21.5909" gradientUnits="userSpaceOnUse">
      <stop stop-color="#3B00B9"/>
      <stop offset="1" stop-color="#2586B6"/>
    </linearGradient>
    <linearGradient id="paint1_linear_203_26468" x1="24.75" y1="27" x2="25.823" y2="27.0321" gradientUnits="userSpaceOnUse">
      <stop stop-color="#3B00B9"/>
      <stop offset="1" stop-color="#2586B6"/>
    </linearGradient>
    <linearGradient id="paint2_linear_203_26468" x1="47.25" y1="27" x2="48.323" y2="27.0321" gradientUnits="userSpaceOnUse">
      <stop stop-color="#3B00B9"/>
      <stop offset="1" stop-color="#2586B6"/>
    </linearGradient>
    <linearGradient id="paint3_linear_203_26468" x1="36" y1="27" x2="37.0736" y2="27.0201" gradientUnits="userSpaceOnUse">
      <stop stop-color="#3B00B9"/>
      <stop offset="1" stop-color="#2586B6"/>
    </linearGradient>
    <linearGradient id="paint4_linear_203_26468" x1="25.4458" y1="43.7454" x2="35.4929" y2="55.005" gradientUnits="userSpaceOnUse">
      <stop stop-color="#3B00B9"/>
      <stop offset="1" stop-color="#2586B6"/>
    </linearGradient>
  </defs>
</svg>
