<svg width="73" height="72" viewBox="0 0 73 72" fill="none"
  xmlns="http://www.w3.org/2000/svg">
  <path d="M13.4167 13.2908L13.1837 12.2158L12.3167 12.4037V13.2908H13.4167ZM59.9167 13.2908H61.0167V12.4037L60.1498 12.2158L59.9167 13.2908ZM36.6667 66L36.0663 66.9216L36.6667 67.3129L37.2672 66.9216L36.6667 66ZM36.6667 8.25L36.8998 7.17498L36.6667 7.12444L36.4337 7.17498L36.6667 8.25ZM58.8167 13.2908V41.0962H61.0167V13.2908H58.8167ZM14.5167 41.0962V13.2908H12.3167V41.0962H14.5167ZM51.1422 55.256L36.0663 65.0784L37.2672 66.9216L52.3432 57.0993L51.1422 55.256ZM37.2672 65.0784L22.1913 55.256L20.9903 57.0993L36.0663 66.9216L37.2672 65.0784ZM13.6498 14.3658L36.8998 9.32502L36.4337 7.17498L13.1837 12.2158L13.6498 14.3658ZM36.4337 9.32502L59.6837 14.3658L60.1498 12.2158L36.8998 7.17498L36.4337 9.32502ZM12.3167 41.0962C12.3167 47.5538 15.5797 53.5742 20.9903 57.0993L22.1913 55.256C17.4039 52.1369 14.5167 46.81 14.5167 41.0962H12.3167ZM58.8167 41.0962C58.8167 46.81 55.9296 52.1369 51.1422 55.256L52.3432 57.0993C57.7538 53.5742 61.0167 47.5538 61.0167 41.0962H58.8167Z" fill="white"/>
  <path d="M36.6667 32.25L36.6667 42" stroke="white" stroke-width="2.2"/>
  <rect x="36.6667" y="25.6665" width="6.91097" height="6.91097" rx="3.45549" transform="rotate(45 36.6667 25.6665)" fill="white"/>
</svg>
