<svg viewBox="0 0 64 62" fill="none"
  xmlns="http://www.w3.org/2000/svg">
  <path d="M8.13621 8L55.8635 55M1.99985 31.5L10.6564 20.263C14.6526 15.0756 20.8836 12.0286 27.4955 12.0286H36.5041C43.1161 12.0286 49.3471 15.0756 53.3433 20.263L61.9998 31.5L53.3433 42.737C49.3471 47.9244 43.1161 50.9714 36.5041 50.9714H27.4955C20.8836 50.9714 14.6526 47.9244 10.6564 42.737L1.99985 31.5ZM39.7137 39.0963C41.7596 37.0817 42.9089 34.3492 42.9089 31.5C42.9089 28.6508 41.7596 25.9183 39.7137 23.9037C37.6679 21.889 34.8931 20.7571 31.9999 20.7571C29.1066 20.7571 26.3318 21.889 24.286 23.9037L39.7137 39.0963Z" stroke="url(#paint0_linear_203_26487)" stroke-width="2.2"/>
  <defs>
    <linearGradient id="paint0_linear_203_26487" x1="1.99985" y1="8" x2="61.5628" y2="25.0429" gradientUnits="userSpaceOnUse">
      <stop stop-color="#3B00B9"/>
      <stop offset="1" stop-color="#2586B6"/>
    </linearGradient>
  </defs>
</svg>
