<svg viewBox="0 0 163 162" fill="none" xmlns="http://www.w3.org/2000/svg">    <path d="M115.085 55.5C115.085 56.4649 114.429 57.5849 112.756 58.7714C111.109 59.9395 108.661 61.0323 105.546 61.9668C99.3293 63.8319 90.6807 65 81.085 65C71.4893 65 62.8406 63.8319 56.6236 61.9668C53.5087 61.0323 51.0608 59.9395 49.414 58.7714C47.7411 57.5849 47.085 56.4649 47.085 55.5C47.085 54.5351 47.7411 53.4151 49.414 52.2286C51.0608 51.0605 53.5087 49.9677 56.6236 49.0332C62.8406 47.1681 71.4893 46 81.085 46C90.6807 46 99.3293 47.1681 105.546 49.0332C108.661 49.9677 111.109 51.0605 112.756 52.2286C114.429 53.4151 115.085 54.5351 115.085 55.5Z" stroke="white" stroke-width="2"/>    <path d="M115.21 73.875C115.21 79.674 99.9317 84.375 81.085 84.375C62.2382 84.375 46.96 79.674 46.96 73.875" stroke="white" stroke-opacity="0.7" stroke-width="2"/>    <path d="M115.21 85.25C115.21 91.049 99.9317 95.75 81.085 95.75C62.2382 95.75 46.96 91.049 46.96 85.25" stroke="white" stroke-opacity="0.7" stroke-width="2"/>    <path d="M115.21 104.5C115.21 110.299 99.9317 115 81.085 115C62.2382 115 46.96 110.299 46.96 104.5" stroke="white" stroke-width="2"/>    <line x1="47.085" y1="55.5" x2="47.085" y2="104.5" stroke="white" stroke-width="2"/>    <line x1="115.335" y1="55.5" x2="115.335" y2="104.5" stroke="white" stroke-width="2"/>    <line x1="75.96" y1="84.375" x2="75.96" y2="94.875" stroke="white" stroke-opacity="0.7" stroke-width="2"/>    <line x1="87.335" y1="84.375" x2="87.335" y2="94.875" stroke="white" stroke-opacity="0.7" stroke-width="2"/>    <circle cx="55.71" cy="70.375" r="1.75" fill="white" fill-opacity="0.7"/>    <circle cx="55.71" cy="101" r="1.75" fill="white" fill-opacity="0.7"/>    <circle cx="62.71" cy="72.125" r="1.75" fill="white" fill-opacity="0.7"/>    <circle cx="62.71" cy="102.75" r="1.75" fill="white" fill-opacity="0.7"/>    <circle cx="69.71" cy="73.875" r="1.75" fill="white" fill-opacity="0.7"/>    <circle cx="69.71" cy="104.5" r="1.75" fill="white" fill-opacity="0.7"/></svg>