<svg viewBox="0 0 162 162" fill="none" xmlns="http://www.w3.org/2000/svg">    <path d="M101.653 61C97.1842 61 92.3092 63.3808 87.1635 68.0742C84.726 70.285 82.5932 72.6657 81.0359 74.5703C81.0359 74.5703 83.541 77.3932 86.2833 80.4202C87.7729 78.5835 89.9057 76.1008 92.3769 73.8561C96.9472 69.6728 99.9263 68.8225 101.653 68.8225C108.085 68.8225 113.299 74.0941 113.299 80.6243C113.299 87.0864 108.085 92.3579 101.653 92.4259C101.348 92.4259 100.976 92.392 100.536 92.29C102.397 93.1402 104.429 93.7524 106.325 93.7524C118.106 93.7524 120.407 85.7938 120.543 85.2156C120.881 83.7532 121.085 82.2228 121.085 80.6582C121.051 69.8088 112.351 61 101.653 61Z" fill="#FFFFFF88"/>    <path d="M60.517 100.219C64.9858 100.219 69.8606 97.8384 75.0064 93.145C77.4439 90.9342 79.5767 88.5535 81.134 86.6488C81.134 86.6488 78.6288 83.826 75.8866 80.7991C74.397 82.6356 72.2642 85.1184 69.793 87.3631C65.2227 91.5124 62.2097 92.3968 60.517 92.3968C54.0848 92.3968 48.8713 87.1251 48.8713 80.5949C48.8713 74.1329 54.0848 68.8613 60.517 68.7932C60.8216 68.7932 61.194 68.8272 61.6342 68.9292C59.7723 68.079 57.741 67.4668 55.8452 67.4668C44.0641 67.4668 41.762 75.4253 41.6266 76.0035C41.2881 77.466 41.085 78.9965 41.085 80.561C41.085 91.4105 49.7854 100.219 60.517 100.219Z" fill="#FFFFFF55"/>    <path opacity="0.9" fill-rule="evenodd" clip-rule="evenodd" d="M69.4743 74.0262C68.188 72.8017 61.8912 67.8022 55.8652 67.6321C45.1264 67.3682 41.9697 75.0094 41.6975 75.9949C43.7545 67.4263 51.4219 61.0339 60.537 61C67.968 61 75.4772 68.1315 81.0254 74.5676C81.0346 74.5568 81.0432 74.5463 81.0518 74.5361C81.0518 74.5361 83.5568 77.359 86.299 80.386C86.299 80.386 89.4136 83.9912 92.7313 87.154C94.0178 88.3786 100.28 93.3101 106.306 93.4803C117.343 93.7863 120.39 85.7258 120.559 85.1134C118.528 93.7183 110.843 100.146 101.702 100.18C94.2691 100.18 86.7572 93.044 81.1856 86.6062C81.1746 86.6193 81.164 86.6321 81.154 86.6442C81.154 86.6442 78.6488 83.8212 75.9066 80.7943C75.9066 80.7943 72.7921 77.1891 69.4743 74.0262Z" fill="white"/></svg>