<svg viewBox="0 0 163 162" fill="none" xmlns="http://www.w3.org/2000/svg">    <line x1="59.185" y1="63.1" x2="59.185" y2="80.9" stroke="white" stroke-width="2.2" stroke-linecap="round"/>    <line x1="67.985" y1="72.1" x2="50.185" y2="72.1" stroke="white" stroke-width="2.2" stroke-linecap="round"/>    <path d="M46.2566 89.1011L44.9625 93.9307C44.5337 95.5311 45.4834 97.1761 47.0838 97.6049L51.9134 98.899" stroke="white" stroke-width="2.2" stroke-linecap="round"/>    <path d="M116.913 89.1011L118.207 93.9307C118.636 95.5311 117.687 97.1761 116.086 97.6049L111.256 98.899" stroke="white" stroke-width="2.2" stroke-linecap="round"/>    <circle cx="106.085" cy="65" r="2" fill="white"/>    <circle cx="106.085" cy="75" r="2" fill="white"/>    <circle cx="101.085" cy="70" r="2" fill="white"/>    <circle cx="111.085" cy="70" r="2" fill="white"/>    <path d="M68.3549 93.9H67.5108L67.2924 94.7153L65.2753 102.243C64.0031 106.991 59.1229 109.809 54.3751 108.536L42.784 105.431C38.0363 104.158 35.2187 99.2784 36.4906 94.5307C36.4906 94.5306 36.4907 94.5304 36.4907 94.5303L44.6409 64.3092L44.6426 64.3038C44.6482 64.2862 44.6572 64.2586 44.6694 64.2217C44.6938 64.1478 44.7313 64.0368 44.7817 63.894C44.8828 63.6081 45.0356 63.1958 45.2396 62.6994C45.6489 61.7033 46.2579 60.3845 47.0598 59.0742C48.7228 56.3569 50.9499 54.1 53.6345 54.1H108.662C111.72 54.1 113.661 55.323 115.105 57.1614C116.6 59.0644 117.562 61.6217 118.534 64.3283L126.593 94.5291L126.593 94.5302C127.865 99.2781 125.047 104.158 120.3 105.43L108.708 108.536C103.961 109.808 99.0804 106.991 97.8082 102.243L95.7912 94.7153L95.5727 93.9H94.7287H68.3549Z" stroke="white" stroke-opacity="0.7" stroke-width="2.2"/></svg>