<svg viewBox="0 0 163 163" fill="none" xmlns="http://www.w3.org/2000/svg">    <rect x="47.5243" y="53.8588" width="67.8" height="44.8" rx="6.9" stroke="white" stroke-opacity="0.7" stroke-width="2.2"/>    <line x1="64.5243" y1="106.659" x2="98.3243" y2="106.659" stroke="white" stroke-opacity="0.7" stroke-width="2.2" stroke-linecap="round"/>    <path d="M60.7297 88.0394C60.3323 88.423 60.3212 89.0561 60.7049 89.4534C61.0885 89.8507 61.7215 89.8618 62.1188 89.4782L60.7297 88.0394ZM76.8909 73.8255L77.598 73.1183L76.9032 72.4235L76.1963 73.1061L76.8909 73.8255ZM84.8909 81.8255L84.1838 82.5326L84.9022 83.251L85.6092 82.5213L84.8909 81.8255ZM102.424 64.7429C102.415 64.1907 101.961 63.7501 101.408 63.7589L92.4095 63.9018C91.8573 63.9105 91.4168 64.3653 91.4255 64.9175C91.4343 65.4697 91.889 65.9103 92.4413 65.9015L100.44 65.7745L100.567 73.7735C100.576 74.3257 101.031 74.7663 101.583 74.7575C102.135 74.7488 102.576 74.294 102.567 73.7418L102.424 64.7429ZM62.1188 89.4782L77.5855 74.5449L76.1963 73.1061L60.7297 88.0394L62.1188 89.4782ZM76.1838 74.5326L84.1838 82.5326L85.598 81.1183L77.598 73.1183L76.1838 74.5326ZM85.6092 82.5213L102.142 65.4546L100.706 64.063L84.1727 81.1297L85.6092 82.5213Z" fill="white"/></svg>