<svg viewBox="0 0 163 162" fill="none" xmlns="http://www.w3.org/2000/svg">    <circle cx="81.085" cy="81" r="19.9" stroke="white" stroke-opacity="0.7" stroke-width="2.2"/>    <circle cx="47.085" cy="80" r="4.9" stroke="white" stroke-opacity="0.7" stroke-width="2.2"/>    <circle cx="115.085" cy="80" r="4.9" stroke="white" stroke-opacity="0.7" stroke-width="2.2"/>    <circle cx="81.085" cy="115" r="4.9" stroke="white" stroke-opacity="0.7" stroke-width="2.2"/>    <circle cx="81.085" cy="47" r="4.9" stroke="white" stroke-opacity="0.7" stroke-width="2.2"/>    <circle cx="51.085" cy="111" r="8.9" stroke="white" stroke-opacity="0.7" stroke-width="2.2"/>    <circle r="8.9" transform="matrix(1 0 0 -1 51.085 51)" stroke="white" stroke-opacity="0.7" stroke-width="2.2"/>    <circle cx="111.085" cy="111" r="8.9" stroke="white" stroke-opacity="0.7" stroke-width="2.2"/>    <circle r="8.9" transform="matrix(1 0 0 -1 111.085 51)" stroke="white" stroke-opacity="0.7" stroke-width="2.2"/>    <line x1="57.3071" y1="104.222" x2="66.3071" y2="95.2222" stroke="white" stroke-opacity="0.7" stroke-width="2.2"/>    <line y1="-1.1" x2="12.7279" y2="-1.1" transform="matrix(0.707107 0.707107 0.707107 -0.707107 58.085 57)" stroke="white" stroke-opacity="0.7" stroke-width="2.2"/>    <line x1="104.307" y1="104.778" x2="95.3071" y2="95.7778" stroke="white" stroke-opacity="0.7" stroke-width="2.2"/>    <line y1="-1.1" x2="12.7279" y2="-1.1" transform="matrix(-0.707107 0.707107 0.707107 0.707107 105.085 58)" stroke="white" stroke-opacity="0.7" stroke-width="2.2"/>    <line x1="80.985" y1="61" x2="80.985" y2="52" stroke="white" stroke-opacity="0.7" stroke-width="2.2"/>    <line x1="51.085" y1="80.9" x2="60.085" y2="80.9" stroke="white" stroke-opacity="0.7" stroke-width="2.2"/>    <line x1="101.085" y1="80.9" x2="110.085" y2="80.9" stroke="white" stroke-opacity="0.7" stroke-width="2.2"/>    <line x1="80.985" y1="110" x2="80.985" y2="101" stroke="white" stroke-opacity="0.7" stroke-width="2.2"/>    <circle cx="81.085" cy="89" r="2" stroke="white" stroke-width="2"/>    <path d="M76.085 85C77.0322 83.2181 78.9446 82 81.1495 82C83.2585 82 85.0998 83.1143 86.085 84.7705" stroke="white" stroke-width="2" stroke-linecap="round"/>    <path d="M72.085 81C73.79 78.6241 77.2323 77 81.2012 77C84.9973 77 88.3117 78.4857 90.085 80.694" stroke="white" stroke-width="2" stroke-linecap="round"/>    <path d="M68.085 77C70.5477 73.4361 75.52 71 81.2529 71C86.7361 71 91.5236 73.2286 94.085 76.541" stroke="white" stroke-width="2" stroke-linecap="round"/></svg>