<svg viewBox="0 0 162 162" fill="none" xmlns="http://www.w3.org/2000/svg">    <path d="M100.771 72.0802C100.77 72.08 100.771 72.0809 100.773 72.0827C100.772 72.0812 100.771 72.0803 100.771 72.0802ZM99.514 103.756C94.0315 105.882 86.05 107.96 75.9086 108.843C62.3055 109.501 53.5717 104.404 48.3978 97.8023C43.177 91.1411 41.5289 82.883 42.2669 77.2235C42.8074 73.079 44.3548 67.2437 48.6681 62.3658C52.9518 57.5212 60.0772 53.4923 72.0381 53.1298C90.4122 52.5732 105.059 59.9466 111.131 63.003C111.348 63.1126 111.555 63.2167 111.751 63.3147C115.1 64.9943 116.679 66.1783 117.389 67.0715C117.722 67.4895 117.841 67.8167 117.882 68.0892C117.924 68.3777 117.892 68.6946 117.789 69.1238C117.789 69.1253 117.787 69.1326 117.778 69.1476C117.769 69.1635 117.75 69.1906 117.714 69.2276C117.639 69.305 117.506 69.4075 117.287 69.522C116.842 69.7548 116.18 69.9664 115.313 70.1455C113.589 70.5016 111.323 70.6775 109.014 70.7837C107.866 70.8364 106.724 70.8714 105.647 70.9043L105.627 70.9049C104.562 70.9374 103.556 70.9682 102.692 71.0123C101.832 71.0562 101.063 71.1155 100.493 71.2135C100.218 71.2607 99.9154 71.3288 99.6554 71.4434C99.5261 71.5003 99.3426 71.5964 99.176 71.759C98.9964 71.9343 98.8015 72.2263 98.7896 72.6246C98.7794 72.9672 98.9096 73.233 99.0179 73.3951C99.1262 73.5573 99.2549 73.6804 99.3584 73.7673C99.5647 73.9406 99.8184 74.0914 100.062 74.2209C100.561 74.4854 101.243 74.7757 102.002 75.0822C102.48 75.2752 102.997 75.478 103.541 75.6916C104.772 76.1745 106.144 76.7124 107.524 77.3175C109.515 78.1899 111.41 79.1543 112.761 80.1903C114.171 81.2711 114.664 82.175 114.595 82.8965C114.528 83.607 113.893 84.3711 112.308 85.1239C110.786 85.8469 108.735 86.3886 106.577 86.838C105.508 87.0608 104.431 87.257 103.402 87.4417C103.265 87.4661 103.129 87.4904 102.995 87.5145C102.117 87.6714 101.277 87.8218 100.527 87.9723C99.6696 88.1446 98.8829 88.3262 98.2672 88.5341C97.9601 88.6377 97.6564 88.7607 97.3938 88.9131C97.1526 89.0531 96.8187 89.2896 96.6179 89.6777L96.6176 89.6782C96.1685 90.5472 96.6879 91.3364 96.9805 91.6925C97.3309 92.119 97.8433 92.5359 98.386 92.9248C99.4244 93.669 100.85 94.5012 102.245 95.3158C102.328 95.3643 102.411 95.4128 102.494 95.4611C104.001 96.3416 105.453 97.1996 106.5 97.9727C107.027 98.3619 107.394 98.6886 107.607 98.9456C107.652 99.0002 107.684 99.0442 107.707 99.0783C107.653 99.1597 107.548 99.2975 107.352 99.4918C107.011 99.8281 106.493 100.238 105.78 100.7C104.358 101.623 102.26 102.691 99.514 103.756ZM107.759 99.1701C107.758 99.1701 107.758 99.1686 107.757 99.1656C107.758 99.1686 107.759 99.1701 107.759 99.1701Z" stroke="white" stroke-opacity="0.7" stroke-width="2.2"/>    <path d="M92.9389 98.4704L92.9389 98.4706C92.9936 101.597 90.6422 103.898 86.7883 105.601C82.9838 107.282 78.1162 108.181 74.048 108.662C58.5406 110.498 44.4837 99.416 42.6484 83.908C40.8131 68.4 51.8954 54.3432 67.403 52.5087L67.4031 52.5087C72.9871 51.8477 79.8941 52.3914 85.3626 54.2595C90.9267 56.1601 94.4729 59.2155 94.4729 63.273C94.4729 63.5206 94.3441 63.9812 93.9376 64.6984C93.5479 65.3859 92.9734 66.1896 92.2524 67.0896C90.948 68.718 89.2498 70.5576 87.4915 72.4624C87.3039 72.6655 87.1156 72.8695 86.9271 73.074C84.9916 75.1733 83.0274 77.3315 81.5827 79.2662C80.8603 80.2338 80.241 81.1803 79.8177 82.0638C79.4054 82.9243 79.1145 83.8554 79.2199 84.7456C79.7665 89.3665 83.7816 91.4758 86.9868 93.1053C87.1195 93.1727 87.251 93.2394 87.3812 93.3054C88.917 94.0841 90.2699 94.77 91.2918 95.5883C92.3579 96.4419 92.9191 97.326 92.9389 98.4704ZM67.2738 51.4163L67.2739 51.4164L67.2738 51.4163Z" stroke="white" stroke-width="2.2"/>    <path d="M43.1245 81.328C42.7498 75.3506 44.2792 69.6482 47.2184 64.8488C50.4864 62.8243 54.7652 61.5814 59.4731 61.5814C64.7356 61.5814 69.4588 63.1341 72.8394 65.5887C76.2213 68.0443 78.1937 71.3413 78.1937 74.8728C78.1937 78.4042 76.2213 81.7012 72.8394 84.1568C69.4588 86.6114 64.7356 88.1641 59.4731 88.1641C52.3661 88.1641 46.2887 85.3398 43.1245 81.328Z" stroke="white" stroke-width="2.2"/>    <path d="M66.0591 74.2945C66.0591 75.3915 65.7783 76.3325 65.3824 76.9643C64.977 77.6111 64.5569 77.7962 64.2751 77.7962C63.9934 77.7962 63.5733 77.6111 63.1679 76.9643C62.772 76.3325 62.4912 75.3915 62.4912 74.2945C62.4912 73.1976 62.772 72.2566 63.1679 71.6248C63.5733 70.978 63.9934 70.7929 64.2751 70.7929C64.5569 70.7929 64.977 70.978 65.3824 71.6248C65.7783 72.2566 66.0591 73.1976 66.0591 74.2945Z" stroke="white" stroke-width="2.2"/>    <path d="M55.5564 74.6456C55.5564 75.7426 55.2756 76.6836 54.8797 77.3153C54.4743 77.9622 54.0542 78.1473 53.7725 78.1473C53.4907 78.1473 53.0707 77.9622 52.6653 77.3153C52.2693 76.6836 51.9885 75.7426 51.9885 74.6456C51.9885 73.5486 52.2693 72.6076 52.6653 71.9759C53.0707 71.329 53.4907 71.1439 53.7725 71.1439C54.0542 71.1439 54.4743 71.329 54.8797 71.9759C55.2756 72.6076 55.5564 73.5486 55.5564 74.6456Z" stroke="white" stroke-width="2.2"/></svg>