<svg viewBox="0 0 163 163" fill="none" xmlns="http://www.w3.org/2000/svg">    <path d="M82.3727 102.604C94.339 102.604 104.04 92.9035 104.04 80.9373C104.04 68.9711 94.339 59.2705 82.3727 59.2705C70.4065 59.2705 60.7059 68.9711 60.7059 80.9373C60.7059 92.9035 70.4065 102.604 82.3727 102.604Z" stroke="white" stroke-opacity="0.7" stroke-width="2.2" stroke-linecap="round" stroke-linejoin="round"/>    <path d="M57.0949 73.715C61.0836 73.715 64.3171 70.4815 64.3171 66.4928C64.3171 62.504 61.0836 59.2705 57.0949 59.2705C53.1061 59.2705 49.8726 62.504 49.8726 66.4928C49.8726 70.4815 53.1061 73.715 57.0949 73.715Z" stroke="white" stroke-width="2.2" stroke-linecap="round" stroke-linejoin="round"/>    <path d="M82.373 59.2702C86.3617 59.2702 89.5952 56.0367 89.5952 52.0479C89.5952 48.0592 86.3617 44.8257 82.373 44.8257C78.3842 44.8257 75.1507 48.0592 75.1507 52.0479C75.1507 56.0367 78.3842 59.2702 82.373 59.2702Z" stroke="white" stroke-width="2.2" stroke-linecap="round" stroke-linejoin="round"/>    <path d="M107.65 73.715C111.639 73.715 114.873 70.4815 114.873 66.4928C114.873 62.504 111.639 59.2705 107.65 59.2705C103.662 59.2705 100.428 62.504 100.428 66.4928C100.428 70.4815 103.662 73.715 107.65 73.715Z" stroke="white" stroke-width="2.2" stroke-linecap="round" stroke-linejoin="round"/>    <path d="M57.0949 102.604C61.0836 102.604 64.3171 99.3702 64.3171 95.3814C64.3171 91.3927 61.0836 88.1592 57.0949 88.1592C53.1061 88.1592 49.8726 91.3927 49.8726 95.3814C49.8726 99.3702 53.1061 102.604 57.0949 102.604Z" stroke="white" stroke-width="2.2" stroke-linecap="round" stroke-linejoin="round"/>    <path d="M107.65 102.604C111.639 102.604 114.873 99.3702 114.873 95.3814C114.873 91.3927 111.639 88.1592 107.65 88.1592C103.662 88.1592 100.428 91.3927 100.428 95.3814C100.428 99.3702 103.662 102.604 107.65 102.604Z" stroke="white" stroke-width="2.2" stroke-linecap="round" stroke-linejoin="round"/>    <path d="M67.928 117.048L82.3726 80.937L96.8171 117.048" stroke="white" stroke-opacity="0.7" stroke-width="2.2" stroke-linecap="round" stroke-linejoin="round"/></svg>