<svg width="24" height="25" viewBox="0 0 24 25" fill="none" xmlns="http://www.w3.org/2000/svg">
<path d="M6.3614 6.07136L8.63947 13.8163L10.9173 6.07136H17.093V6.84124L14.7676 10.8473C15.5845 11.1092 16.2023 11.586 16.6211 12.277C17.0402 12.9685 17.2499 13.7797 17.2499 14.7118C17.2499 15.8643 16.9432 16.8329 16.3304 17.6181C15.7176 18.4033 14.9243 18.7962 13.9505 18.7962C13.2171 18.7962 12.5785 18.5635 12.0342 18.0974C11.4895 17.6313 11.0864 17.0005 10.8247 16.2042L12.1125 15.6702C12.3012 16.152 12.55 16.5317 12.859 16.8089C13.1679 17.0865 13.5319 17.2254 13.9507 17.2254C14.3902 17.2254 14.7624 16.9792 15.066 16.4872C15.37 15.9949 15.5219 15.4035 15.5219 14.7116C15.5219 13.947 15.3595 13.3551 15.0351 12.9363C14.6575 12.4443 14.0657 12.1979 13.2594 12.1979H12.6314V11.444L14.8305 7.64203H12.1762L12.0252 7.89919L8.79641 18.7942H8.63934L6.28267 10.9085L3.92653 18.7942H3.7696L0 6.07083H1.6494L3.92721 13.8157L5.46697 8.60055L4.71308 6.07109H6.36207V6.07056L6.3614 6.07136Z" fill="white"/>
<path d="M23.6422 6L23.9093 7.62441L22.9636 9.4341C22.9636 9.4341 22.6006 8.66624 21.9974 8.24166C21.4894 7.88373 21.1582 7.8058 20.6403 7.91261C19.9754 8.04979 19.2214 8.8448 18.8923 9.82509C18.4986 10.9976 18.4947 11.5655 18.4808 12.0866C18.4587 12.9228 18.5904 13.4163 18.5904 13.4163C18.5904 13.4163 18.016 12.354 18.0215 10.7981C18.0252 9.68724 18.2 8.68008 18.7137 7.68635C19.1659 6.81247 19.8379 6.28793 20.4345 6.22626C21.0512 6.16271 21.5383 6.45978 21.9151 6.7813C22.3103 7.11935 22.71 7.85753 22.71 7.85753L23.6398 6H23.6422Z" fill="white"/>
<path d="M23.7596 15.1912C23.7596 15.1912 23.3417 15.9386 23.0813 16.2264C22.8207 16.5146 22.3546 17.0216 21.7792 17.2754C21.2037 17.5289 20.9019 17.5764 20.3329 17.5221C19.7647 17.4675 19.2366 17.1385 19.0515 17.0012C18.8665 16.8638 18.3934 16.4598 18.1259 16.0827C17.8583 15.7055 17.4404 14.9519 17.4404 14.9519C17.4404 14.9519 17.6731 15.7074 17.8193 16.0281C17.903 16.2129 18.1607 16.7773 18.5269 17.2685C18.8683 17.7267 19.5312 18.5158 20.5386 18.694C21.5461 18.8724 22.2383 18.4197 22.4097 18.3104C22.5808 18.201 22.9419 17.8984 23.1707 17.6535C23.4092 17.3987 23.6352 17.073 23.7599 16.8778C23.8515 16.735 24.0003 16.4459 24.0003 16.4459L23.7598 15.1921L23.7596 15.1912Z" fill="white"/>
</svg>
