<svg width="24" height="25" viewBox="0 0 24 25" fill="none" xmlns="http://www.w3.org/2000/svg">
<g id="pass-valid-fill">
<path id="Vector" d="M2 4.18652C1.44772 4.18652 1 4.63424 1 5.18652V19.1865C1 19.7388 1.44772 20.1865 2 20.1865H22C22.5523 20.1865 23 19.7388 23 19.1865V5.18652C23 4.63424 22.5523 4.18652 22 4.18652H2ZM9.00008 10.1865C9.00008 9.63424 8.55236 9.18652 8.00008 9.18652C7.44779 9.18652 7.00008 9.63424 7.00008 10.1865C7.00008 10.7388 7.44779 11.1865 8.00008 11.1865C8.55236 11.1865 9.00008 10.7388 9.00008 10.1865ZM11.0001 10.1865C11.0001 11.8434 9.65693 13.1865 8.00008 13.1865C6.34322 13.1865 5.00008 11.8434 5.00008 10.1865C5.00008 8.52967 6.34322 7.18652 8.00008 7.18652C9.65693 7.18652 11.0001 8.52967 11.0001 10.1865ZM5.52725 17.2116L4.11304 15.7974C5.10725 14.8032 6.48362 14.1865 8.00212 14.1865C9.52063 14.1865 10.897 14.8032 11.8912 15.7974L10.477 17.2116C9.84253 16.5772 8.9689 16.1865 8.00212 16.1865C7.03535 16.1865 6.16172 16.5772 5.52725 17.2116ZM20.2071 10.8936L16.2071 14.8936L15.5 15.6007L14.7929 14.8936L12.2929 12.3936L13.7071 10.9794L15.5 12.7723L18.7929 9.47941L20.2071 10.8936Z" fill="white"/>
</g>
</svg>
