<svg width="24" height="25" viewBox="0 0 24 25" fill="none" xmlns="http://www.w3.org/2000/svg">
<g id="folder-user-fill">
<path id="Vector" d="M12.4142 5.18652H21C21.5523 5.18652 22 5.63424 22 6.18652V20.1865C22 20.7388 21.5523 21.1865 21 21.1865H3C2.44772 21.1865 2 20.7388 2 20.1865V4.18652C2 3.63424 2.44772 3.18652 3 3.18652H10.4142L12.4142 5.18652ZM12 13.1865C13.3807 13.1865 14.5 12.0672 14.5 10.6865C14.5 9.30581 13.3807 8.18652 12 8.18652C10.6193 8.18652 9.5 9.30581 9.5 10.6865C9.5 12.0672 10.6193 13.1865 12 13.1865ZM8 18.1865H16C16 15.9774 14.2091 14.1865 12 14.1865C9.79086 14.1865 8 15.9774 8 18.1865Z" fill="white"/>
</g>
</svg>
