<svg width="24" height="25" viewBox="0 0 24 25" fill="none" xmlns="http://www.w3.org/2000/svg">
<g id="apps-2-add-fill">
<path id="Vector" d="M2.5 7.18652C2.5 9.6718 4.51472 11.6865 7 11.6865C9.48528 11.6865 11.5 9.6718 11.5 7.18652C11.5 4.70124 9.48528 2.68652 7 2.68652C4.51472 2.68652 2.5 4.70124 2.5 7.18652ZM2.5 17.1865C2.5 19.6718 4.51472 21.6865 7 21.6865C9.48528 21.6865 11.5 19.6718 11.5 17.1865C11.5 14.7012 9.48528 12.6865 7 12.6865C4.51472 12.6865 2.5 14.7012 2.5 17.1865ZM12.5 17.1865C12.5 19.6718 14.5147 21.6865 17 21.6865C19.4853 21.6865 21.5 19.6718 21.5 17.1865C21.5 14.7012 19.4853 12.6865 17 12.6865C14.5147 12.6865 12.5 14.7012 12.5 17.1865ZM16 11.1865V8.18652H13V6.18652H16V3.18652H18V6.18652H21V8.18652H18V11.1865H16Z" fill="white"/>
</g>
</svg>
