<svg width="24" height="21" viewBox="0 0 24 21" fill="none" xmlns="http://www.w3.org/2000/svg">
<g clip-path="url(#clip0_15583_5501)">
<path fill-rule="evenodd" clip-rule="evenodd" d="M11.9993 0.25749C12.0029 0.257626 12.0065 0.257763 12.0101 0.2579C13.127 0.300374 13.6635 0.557505 15.6279 1.53538C17.5923 2.51326 19.4516 2.51301 19.6718 2.86296C19.892 3.21291 19.6051 5.14755 19.4236 7.44687C19.1815 10.513 19.3435 14.4174 18.7294 15.2215C16.5173 18.1176 12.1914 20.2217 11.9993 20.2217C11.8071 20.2213 7.48123 18.1172 5.26916 15.221C4.65505 14.417 4.81709 10.5126 4.57501 7.44646C4.39347 5.14714 4.10656 3.2125 4.32676 2.86255C4.54697 2.5126 6.40627 2.51285 8.37068 1.53497C10.3351 0.557095 10.8716 0.299964 11.9885 0.25749C11.9921 0.257353 11.9957 0.257216 11.9993 0.25708V0.25749Z" fill="white"/>
<path fill-rule="evenodd" clip-rule="evenodd" d="M18.4894 9.37641H12.0215V1.5332V1.53338C12.0247 1.5335 12.0279 1.53362 12.0311 1.53374C13.0176 1.57078 13.4915 1.79505 15.2267 2.64793C16.9619 3.50081 18.6042 3.5006 18.7987 3.80581C18.9933 4.11103 18.7398 5.79838 18.5795 7.80379C18.539 8.30958 18.5114 8.84154 18.4894 9.37641ZM12.0215 18.9457C11.8518 18.9453 8.03071 17.1102 6.07677 14.5843C5.63694 14.0157 5.64783 11.6693 5.55371 9.37641H12.0215V18.9457Z" fill="#3B00B9"/>
</g>
<defs>
<clipPath id="clip0_15583_5501">
<rect width="24" height="20.2478" fill="white" transform="translate(0 0.186523)"/>
</clipPath>
</defs>
</svg>
