<svg xmlns="http://www.w3.org/2000/svg" width="98" height="98" fill="none" viewBox="0 0 98 98"><path fill="url(#a)" d="M88.0616 42.7402L88.3401 43.3174L88.3405 43.3172L88.0616 42.7402ZM63.3968 54.6381V55.2789C63.4932 55.2789 63.5884 55.2572 63.6753 55.2153L63.3968 54.6381ZM63.3896 54.6381V53.9972C63.2932 53.9972 63.198 54.0189 63.1112 54.0608L63.3896 54.6381ZM50.2968 60.9527L50.5752 61.53L50.5752 61.53L50.2968 60.9527ZM47.0526 60.9672L46.7788 61.5467L46.7824 61.5484L47.0526 60.9672ZM10.2219 43.5657L10.4957 42.9862L10.4943 42.9856L10.2219 43.5657ZM10.1495 36.7876L10.4349 37.3614L10.4351 37.3613L10.1495 36.7876ZM47.9071 17.9884L48.1927 18.5622L48.1953 18.5609L47.9071 17.9884ZM51.2382 17.974L50.9532 18.548L50.957 18.5499L51.2382 17.974ZM88.0761 35.962L87.7949 36.5379L87.7954 36.5382L88.0761 35.962ZM77.7244 66.8618C77.7244 66.5078 77.4375 66.2209 77.0836 66.2209C76.7296 66.2209 76.4427 66.5078 76.4427 66.8618H77.7244ZM20.8708 66.8618C20.8708 66.5078 20.5839 66.2209 20.2299 66.2209C19.876 66.2209 19.5891 66.5078 19.5891 66.8618H20.8708ZM76.4425 66.8546C76.4425 67.2086 76.7294 67.4955 77.0834 67.4955C77.4373 67.4955 77.7243 67.2086 77.7243 66.8546H76.4425ZM77.7243 48.3089C77.7243 47.955 77.4373 47.6681 77.0834 47.6681C76.7294 47.6681 76.4425 47.955 76.4425 48.3089H77.7243ZM19.5891 66.8546C19.5891 67.2086 19.876 67.4955 20.2299 67.4955C20.5839 67.4955 20.8708 67.2086 20.8708 66.8546H19.5891ZM20.8708 48.3089C20.8708 47.955 20.5839 47.6681 20.2299 47.6681C19.876 47.6681 19.5891 47.955 19.5891 48.3089H20.8708ZM50.0342 40.429C50.3855 40.3858 50.6353 40.0661 50.5922 39.7148C50.5491 39.3635 50.2293 39.1136 49.878 39.1567L50.0342 40.429ZM12.0754 44.4419L11.9973 43.8058C11.676 43.8453 11.4345 44.1182 11.4345 44.4419H12.0754ZM11.4345 63.4076C11.4345 63.7616 11.7214 64.0485 12.0754 64.0485C12.4293 64.0485 12.7163 63.7616 12.7163 63.4076H11.4345ZM17.4708 83.7275L16.8612 83.9253L16.8619 83.9277L17.4708 83.7275ZM6.68082 83.7275L6.0712 83.5297L6.06956 83.5349L6.68082 83.7275ZM87.7832 42.1629L63.1184 54.0608L63.6753 55.2153L88.3401 43.3174L87.7832 42.1629ZM63.3968 53.9972H63.3896V55.2789H63.3968V53.9972ZM63.1112 54.0608L50.0184 60.3755L50.5752 61.53L63.668 55.2153L63.1112 54.0608ZM50.0184 60.3755C49.1736 60.7829 48.1801 60.7846 47.3227 60.386L46.7824 61.5484C47.9816 62.1057 49.3778 62.1074 50.5752 61.53L50.0184 60.3755ZM10.4943 42.9856C8.12737 41.8742 8.08962 38.528 10.4349 37.3614L9.86407 36.2138C6.56095 37.8569 6.61009 42.5778 9.94953 44.1458L10.4943 42.9856ZM10.4351 37.3613L48.1927 18.5622L47.6214 17.4147L9.86386 36.2139L10.4351 37.3613ZM48.1953 18.5609C49.0668 18.1221 50.0855 18.1171 50.9532 18.548L51.5232 17.4C50.2908 16.788 48.8474 16.7975 47.6189 17.416L48.1953 18.5609ZM50.957 18.5499L87.7949 36.5379L88.3573 35.3862L51.5194 17.3981L50.957 18.5499ZM87.7954 36.5382C90.1377 37.6793 90.1332 41.027 87.7827 42.1632L88.3405 43.3172C91.653 41.716 91.6629 36.9966 88.3568 35.3859L87.7954 36.5382ZM76.4427 66.8618C76.4427 70.4369 73.5452 73.8446 68.4714 76.3967C63.4349 78.93 56.4318 80.5158 48.6604 80.5158V81.7975C56.5887 81.7975 63.7972 80.1825 69.0474 77.5417C74.2602 74.9197 77.7244 71.18 77.7244 66.8618H76.4427ZM48.6604 80.5158C40.889 80.5158 33.884 78.93 28.8457 76.3966C23.7699 73.8445 20.8708 70.4367 20.8708 66.8618H19.5891C19.5891 71.1801 23.0554 74.9198 28.2699 77.5418C33.5218 80.1825 40.7321 81.7975 48.6604 81.7975V80.5158ZM77.7243 66.8546V48.3089H76.4425V66.8546H77.7243ZM20.8708 66.8546V48.3089H19.5891V66.8546H20.8708ZM49.878 39.1567L11.9973 43.8058L12.1535 45.078L50.0342 40.429L49.878 39.1567ZM11.4345 44.4419V63.4076H12.7163V44.4419H11.4345ZM14.8238 67.2239C14.8238 68.7417 13.5934 69.9721 12.0756 69.9721V71.2538C14.3013 71.2538 16.1056 69.4496 16.1056 67.2239H14.8238ZM12.0756 69.9721C10.5578 69.9721 9.32744 68.7417 9.32744 67.2239H8.04568C8.04568 69.4496 9.84995 71.2538 12.0756 71.2538V69.9721ZM9.32744 67.2239C9.32744 65.7061 10.5578 64.4757 12.0756 64.4757V63.194C9.84995 63.194 8.04568 64.9982 8.04568 67.2239H9.32744ZM12.0756 64.4757C13.5934 64.4757 14.8238 65.7061 14.8238 67.2239H16.1056C16.1056 64.9982 14.3013 63.194 12.0756 63.194V64.4757ZM12.5452 70.6225L16.8612 83.9253L18.0804 83.5298L13.7644 70.227L12.5452 70.6225ZM16.8619 83.9277C16.8974 84.0354 16.8167 84.1584 16.6887 84.1584V85.4402C17.6759 85.4402 18.3918 84.4769 18.0796 83.5274L16.8619 83.9277ZM16.6887 84.1584H7.46291V85.4402H16.6887V84.1584ZM7.46291 84.1584C7.34482 84.1584 7.25367 84.042 7.29208 83.9201L6.06956 83.5349C5.77486 84.4703 6.4658 85.4402 7.46291 85.4402V84.1584ZM7.29042 83.9253L11.6064 70.6225L10.3872 70.227L6.07122 83.5298L7.29042 83.9253ZM47.3263 60.3877L10.4957 42.9862L9.94814 44.1452L46.7788 61.5467L47.3263 60.3877Z"/><defs><linearGradient id="a" x1="6.642" x2="89.908" y1="17.587" y2="40.786" gradientUnits="userSpaceOnUse"><stop stop-color="#3B00B9"/><stop offset="1" stop-color="#2586B6"/></linearGradient></defs></svg>