<svg width="156" height="133" viewBox="0 0 156 133" fill="none" xmlns="http://www.w3.org/2000/svg">
<path d="M132.433 54.7338L132.818 55.5309L132.819 55.5306L132.433 54.7338ZM98.3735 71.1638V72.0488C98.5066 72.0488 98.6381 72.0188 98.758 71.9609L98.3735 71.1638ZM98.3635 71.1638V70.2788C98.2304 70.2788 98.0989 70.3088 97.979 70.3667L98.3635 71.1638ZM80.2835 79.8838L80.6679 80.681L80.6679 80.6809L80.2835 79.8838ZM75.8035 79.9038L75.4254 80.704L75.4305 80.7064L75.8035 79.9038ZM24.9435 55.8738L25.3215 55.0736L25.3196 55.0727L24.9435 55.8738ZM24.8435 46.5138L25.2376 47.3062L25.2379 47.306L24.8435 46.5138ZM76.9835 20.5538L77.3779 21.3461L77.3814 21.3443L76.9835 20.5538ZM81.5835 20.5338L81.1899 21.3265L81.1952 21.3291L81.5835 20.5338ZM132.453 45.3738L132.065 46.1691L132.066 46.1694L132.453 45.3738ZM118.158 88.0438C118.158 87.555 117.762 87.1588 117.273 87.1588C116.785 87.1588 116.388 87.555 116.388 88.0438H118.158ZM39.6485 88.0438C39.6485 87.555 39.2523 87.1588 38.7635 87.1588C38.2747 87.1588 37.8785 87.555 37.8785 88.0438H39.6485ZM116.388 88.0338C116.388 88.5226 116.785 88.9188 117.273 88.9188C117.762 88.9188 118.158 88.5226 118.158 88.0338H116.388ZM118.158 62.4238C118.158 61.935 117.762 61.5388 117.273 61.5388C116.785 61.5388 116.388 61.935 116.388 62.4238H118.158ZM37.8785 88.0338C37.8785 88.5226 38.2747 88.9188 38.7635 88.9188C39.2523 88.9188 39.6485 88.5226 39.6485 88.0338H37.8785ZM39.6485 62.4238C39.6485 61.935 39.2523 61.5388 38.7635 61.5388C38.2747 61.5388 37.8785 61.935 37.8785 62.4238H39.6485ZM79.9213 51.5422C80.4064 51.4827 80.7514 51.0411 80.6919 50.556C80.6324 50.0709 80.1908 49.7259 79.7057 49.7854L79.9213 51.5422ZM27.5035 57.0838L27.3957 56.2054C26.9519 56.2599 26.6185 56.6367 26.6185 57.0838H27.5035ZM26.6185 83.2738C26.6185 83.7626 27.0147 84.1588 27.5035 84.1588C27.9923 84.1588 28.3885 83.7626 28.3885 83.2738H26.6185ZM34.9535 111.334L34.1117 111.607L34.1128 111.61L34.9535 111.334ZM20.0535 111.334L19.2116 111.061L19.2094 111.068L20.0535 111.334ZM132.049 53.9367L97.989 70.3667L98.758 71.9609L132.818 55.5309L132.049 53.9367ZM98.3735 70.2788H98.3635V72.0488H98.3735V70.2788ZM97.979 70.3667L79.899 79.0867L80.6679 80.6809L98.7479 71.9609L97.979 70.3667ZM79.899 79.0867C78.7325 79.6493 77.3606 79.6516 76.1765 79.1013L75.4305 80.7064C77.0864 81.476 79.0145 81.4784 80.6679 80.681L79.899 79.0867ZM25.3196 55.0727C22.0511 53.538 21.999 48.9172 25.2376 47.3062L24.4493 45.7214C19.888 47.9904 19.9559 54.5096 24.5673 56.6749L25.3196 55.0727ZM25.2379 47.306L77.3779 21.346L76.589 19.7616L24.449 45.7216L25.2379 47.306ZM77.3814 21.3443C78.585 20.7384 79.9917 20.7315 81.1899 21.3265L81.9771 19.7411C80.2752 18.8961 78.282 18.9093 76.5855 19.7633L77.3814 21.3443ZM81.1952 21.3291L132.065 46.1691L132.842 44.5786L81.9718 19.7386L81.1952 21.3291ZM132.066 46.1694C135.3 47.7452 135.294 52.3681 132.048 53.937L132.819 55.5306C137.393 53.3196 137.407 46.8024 132.841 44.5782L132.066 46.1694ZM116.388 88.0438C116.388 92.9808 112.387 97.6865 105.381 101.211C98.4258 104.709 88.7551 106.899 78.0235 106.899V108.669C88.9718 108.669 98.9262 106.439 106.176 102.792C113.375 99.1711 118.158 94.0069 118.158 88.0438H116.388ZM78.0235 106.899C67.2918 106.899 57.6186 104.709 50.661 101.211C43.6518 97.6863 39.6485 92.9805 39.6485 88.0438H37.8785C37.8785 94.0071 42.6651 99.1713 49.8659 102.792C57.1183 106.439 67.0751 108.669 78.0235 108.669V106.899ZM118.158 88.0338V62.4238H116.388V88.0338H118.158ZM39.6485 88.0338V62.4238H37.8785V88.0338H39.6485ZM79.7057 49.7854L27.3957 56.2054L27.6113 57.9622L79.9213 51.5422L79.7057 49.7854ZM26.6185 57.0838V83.2738H28.3885V57.0838H26.6185ZM31.2985 88.5438C31.2985 90.6397 29.5994 92.3388 27.5035 92.3388V94.1088C30.5769 94.1088 33.0685 91.6173 33.0685 88.5438H31.2985ZM27.5035 92.3388C25.4076 92.3388 23.7085 90.6397 23.7085 88.5438H21.9385C21.9385 91.6173 24.43 94.1088 27.5035 94.1088V92.3388ZM23.7085 88.5438C23.7085 86.4479 25.4076 84.7488 27.5035 84.7488V82.9788C24.43 82.9788 21.9385 85.4703 21.9385 88.5438H23.7085ZM27.5035 84.7488C29.5994 84.7488 31.2985 86.4479 31.2985 88.5438H33.0685C33.0685 85.4703 30.5769 82.9788 27.5035 82.9788V84.7488ZM28.1517 93.2369L34.1117 111.607L35.7953 111.061L29.8353 92.6907L28.1517 93.2369ZM34.1128 111.61C34.1617 111.759 34.0503 111.929 33.8735 111.929V113.699C35.2367 113.699 36.2253 112.369 35.7942 111.057L34.1128 111.61ZM33.8735 111.929H21.1335V113.699H33.8735V111.929ZM21.1335 111.929C20.9704 111.929 20.8445 111.768 20.8976 111.6L19.2094 111.068C18.8024 112.36 19.7566 113.699 21.1335 113.699V111.929ZM20.8953 111.607L26.8553 93.2369L25.1717 92.6907L19.2117 111.061L20.8953 111.607ZM76.1815 79.1036L25.3215 55.0736L24.5654 56.674L75.4254 80.704L76.1815 79.1036Z" fill="url(#paint0_linear_11115_1564)"/>
<defs>
<linearGradient id="paint0_linear_11115_1564" x1="20" y1="20" x2="134.983" y2="52.0359" gradientUnits="userSpaceOnUse">
<stop stop-color="#3B00B9"/>
<stop offset="1" stop-color="#2586B6"/>
</linearGradient>
</defs>
</svg>
