<svg width="154" height="145" viewBox="0 0 154 145" fill="none" xmlns="http://www.w3.org/2000/svg">
<path d="M96.9328 57.3106C96.5872 57.6562 96.5872 58.2166 96.9328 58.5622C97.2784 58.9078 97.8388 58.9078 98.1844 58.5622L96.9328 57.3106ZM109.804 46.9422C110.15 46.5966 110.15 46.0362 109.804 45.6906C109.459 45.345 108.898 45.345 108.553 45.6906L109.804 46.9422ZM64.6435 58.1119C64.9891 58.4575 65.5495 58.4575 65.8951 58.1119C66.2407 57.7663 66.2407 57.2059 65.8951 56.8603L64.6435 58.1119ZM55.9051 46.8703C55.5595 46.5247 54.9991 46.5247 54.6535 46.8703C54.3079 47.2159 54.3079 47.7763 54.6535 48.1219L55.9051 46.8703ZM105.144 98.6119C105.489 98.9575 106.049 98.9575 106.395 98.6119C106.741 98.2663 106.741 97.7059 106.395 97.3603L105.144 98.6119ZM96.4051 87.3703C96.0595 87.0247 95.4991 87.0247 95.1535 87.3703C94.8079 87.7159 94.8079 88.2763 95.1535 88.6219L96.4051 87.3703ZM98.1844 58.5622L109.804 46.9422L108.553 45.6906L96.9328 57.3106L98.1844 58.5622ZM65.8951 56.8603L55.9051 46.8703L54.6535 48.1219L64.6435 58.1119L65.8951 56.8603ZM106.395 97.3603L96.4051 87.3703L95.1535 88.6219L105.144 98.6119L106.395 97.3603ZM101.645 72.4155C101.645 83.6959 92.5006 92.8405 81.2202 92.8405V94.6105C93.4781 94.6105 103.415 84.6734 103.415 72.4155H101.645ZM81.2202 92.8405C69.9397 92.8405 60.7952 83.6959 60.7952 72.4155H59.0252C59.0252 84.6734 68.9622 94.6105 81.2202 94.6105V92.8405ZM60.7952 72.4155C60.7952 61.1351 69.9397 51.9905 81.2202 51.9905V50.2205C68.9622 50.2205 59.0252 60.1575 59.0252 72.4155H60.7952ZM81.2202 51.9905C92.5006 51.9905 101.645 61.1351 101.645 72.4155H103.415C103.415 60.1575 93.4781 50.2205 81.2202 50.2205V51.9905ZM99.3524 84.204C95.3335 78.5297 88.7093 74.8205 81.2202 74.8205V76.5905C88.111 76.5905 94.2068 80.0012 97.908 85.227L99.3524 84.204ZM81.2202 74.8205C73.7363 74.8205 67.5718 78.274 63.525 83.6107L64.9353 84.6802C68.6686 79.757 74.3241 76.5905 81.2202 76.5905V74.8205ZM88.9352 65.7655C88.9352 70.0263 85.481 73.4805 81.2202 73.4805V75.2505C86.4586 75.2505 90.7052 71.0039 90.7052 65.7655H88.9352ZM81.2202 73.4805C76.9593 73.4805 73.5052 70.0263 73.5052 65.7655H71.7352C71.7352 71.0039 75.9817 75.2505 81.2202 75.2505V73.4805ZM73.5052 65.7655C73.5052 61.5046 76.9593 58.0505 81.2202 58.0505V56.2805C75.9817 56.2805 71.7352 60.5271 71.7352 65.7655H73.5052ZM81.2202 58.0505C85.481 58.0505 88.9352 61.5046 88.9352 65.7655H90.7052C90.7052 60.5271 86.4586 56.2805 81.2202 56.2805V58.0505ZM59.0249 35.7372C59.0249 43.737 52.5398 50.2222 44.5399 50.2222V51.9922C53.5173 51.9922 60.7949 44.7146 60.7949 35.7372H59.0249ZM44.5399 50.2222C36.5401 50.2222 30.0549 43.737 30.0549 35.7372H28.2849C28.2849 44.7146 35.5625 51.9922 44.5399 51.9922V50.2222ZM30.0549 35.7372C30.0549 27.7373 36.5401 21.2522 44.5399 21.2522V19.4822C35.5625 19.4822 28.2849 26.7598 28.2849 35.7372H30.0549ZM44.5399 21.2522C52.5398 21.2522 59.0249 27.7373 59.0249 35.7372H60.7949C60.7949 26.7598 53.5173 19.4822 44.5399 19.4822V21.2522ZM57.8224 44.0961C54.8834 39.9413 50.0289 37.2222 44.5399 37.2222V38.9922C49.4309 38.9922 53.7564 41.413 56.3774 45.1183L57.8224 44.0961ZM44.5399 37.2222C39.0556 37.2222 34.5415 39.7561 31.5751 43.6619L32.9847 44.7324C35.6384 41.2383 39.6443 38.9922 44.5399 38.9922V37.2222ZM49.8649 30.9372C49.8649 33.8781 47.4808 36.2622 44.5399 36.2622V38.0322C48.4584 38.0322 51.6349 34.8556 51.6349 30.9372H49.8649ZM44.5399 36.2622C41.599 36.2622 39.2149 33.8781 39.2149 30.9372H37.4449C37.4449 34.8556 40.6215 38.0322 44.5399 38.0322V36.2622ZM39.2149 30.9372C39.2149 27.9963 41.599 25.6122 44.5399 25.6122V23.8422C40.6215 23.8422 37.4449 27.0187 37.4449 30.9372H39.2149ZM44.5399 25.6122C47.4808 25.6122 49.8649 27.9963 49.8649 30.9372H51.6349C51.6349 27.0187 48.4584 23.8422 44.5399 23.8422V25.6122ZM132.394 109.108C132.394 117.108 125.909 123.593 117.909 123.593V125.363C126.886 125.363 134.164 118.086 134.164 109.108H132.394ZM117.909 123.593C109.909 123.593 103.424 117.108 103.424 109.108H101.654C101.654 118.086 108.932 125.363 117.909 125.363V123.593ZM103.424 109.108C103.424 101.108 109.909 94.6233 117.909 94.6233V92.8533C108.932 92.8533 101.654 100.131 101.654 109.108H103.424ZM117.909 94.6233C125.909 94.6233 132.394 101.108 132.394 109.108H134.164C134.164 100.131 126.886 92.8533 117.909 92.8533V94.6233ZM131.182 117.467C128.243 113.312 123.388 110.593 117.899 110.593V112.363C122.79 112.363 127.116 114.784 129.737 118.489L131.182 117.467ZM117.899 110.593C112.415 110.593 107.901 113.127 104.934 117.033L106.344 118.104C108.997 114.609 113.003 112.363 117.899 112.363V110.593ZM123.234 104.308C123.234 107.249 120.85 109.633 117.909 109.633V111.403C121.828 111.403 125.004 108.227 125.004 104.308H123.234ZM117.909 109.633C114.968 109.633 112.584 107.249 112.584 104.308H110.814C110.814 108.227 113.991 111.403 117.909 111.403V109.633ZM112.584 104.308C112.584 101.367 114.968 98.9833 117.909 98.9833V97.2133C113.991 97.2133 110.814 100.39 110.814 104.308H112.584ZM117.909 98.9833C120.85 98.9833 123.234 101.367 123.234 104.308H125.004C125.004 100.39 121.828 97.2133 117.909 97.2133V98.9833ZM49.855 89.745C49.855 97.7448 43.3698 104.23 35.37 104.23V106C44.3474 106 51.625 98.7224 51.625 89.745H49.855ZM35.37 104.23C27.3702 104.23 20.885 97.7448 20.885 89.745H19.115C19.115 98.7224 26.3926 106 35.37 106V104.23ZM20.885 89.745C20.885 81.7452 27.3702 75.26 35.37 75.26V73.49C26.3926 73.49 19.115 80.7676 19.115 89.745H20.885ZM35.37 75.26C43.3698 75.26 49.855 81.7452 49.855 89.745H51.625C51.625 80.7676 44.3474 73.49 35.37 73.49V75.26ZM48.6525 98.1039C45.7135 93.9492 40.859 91.23 35.37 91.23V93C40.261 93 44.5865 95.4208 47.2075 99.1261L48.6525 98.1039ZM35.37 91.23C29.8856 91.23 25.3716 93.7639 22.4052 97.6697L23.8148 98.7403C26.4684 95.2461 30.4744 93 35.37 93V91.23ZM40.695 84.945C40.695 87.8859 38.3109 90.27 35.37 90.27V92.04C39.2885 92.04 42.465 88.8635 42.465 84.945H40.695ZM35.37 90.27C32.4291 90.27 30.045 87.8859 30.045 84.945H28.275C28.275 88.8635 31.4515 92.04 35.37 92.04V90.27ZM30.045 84.945C30.045 82.0041 32.4291 79.62 35.37 79.62V77.85C31.4515 77.85 28.275 81.0265 28.275 84.945H30.045ZM35.37 79.62C38.3109 79.62 40.695 82.0041 40.695 84.945H42.465C42.465 81.0265 39.2885 77.85 35.37 77.85V79.62ZM82.1948 117.975C82.1948 125.975 75.7097 132.46 67.7098 132.46V134.23C76.6872 134.23 83.9648 126.953 83.9648 117.975H82.1948ZM67.7098 132.46C59.71 132.46 53.2248 125.975 53.2248 117.975H51.4548C51.4548 126.953 58.7325 134.23 67.7098 134.23V132.46ZM53.2248 117.975C53.2248 109.976 59.71 103.49 67.7098 103.49V101.72C58.7325 101.72 51.4548 108.998 51.4548 117.975H53.2248ZM67.7098 103.49C75.7097 103.49 82.1948 109.976 82.1948 117.975H83.9648C83.9648 108.998 76.6872 101.72 67.7098 101.72V103.49ZM80.9824 126.334C78.0434 122.18 73.1888 119.46 67.6998 119.46V121.23C72.5909 121.23 76.9163 123.651 79.5373 127.357L80.9824 126.334ZM67.6998 119.46C62.2155 119.46 57.7014 121.994 54.7351 125.9L56.1446 126.971C58.7983 123.477 62.8042 121.23 67.6998 121.23V119.46ZM73.0348 113.175C73.0348 116.116 70.6508 118.5 67.7098 118.5V120.27C71.6283 120.27 74.8048 117.094 74.8048 113.175H73.0348ZM67.7098 118.5C64.7689 118.5 62.3848 116.116 62.3848 113.175H60.6148C60.6148 117.094 63.7914 120.27 67.7098 120.27V118.5ZM62.3848 113.175C62.3848 110.235 64.7689 107.85 67.7098 107.85V106.08C63.7914 106.08 60.6148 109.257 60.6148 113.175H62.3848ZM67.7098 107.85C70.6508 107.85 73.0348 110.235 73.0348 113.175H74.8048C74.8048 109.257 71.6283 106.08 67.7098 106.08V107.85ZM129.435 37.1483C129.435 43.5134 124.275 48.6733 117.91 48.6733V50.4433C125.253 50.4433 131.205 44.4909 131.205 37.1483H129.435ZM117.91 48.6733C111.545 48.6733 106.385 43.5134 106.385 37.1483H104.615C104.615 44.4909 110.567 50.4433 117.91 50.4433V48.6733ZM106.385 37.1483C106.385 30.7832 111.545 25.6233 117.91 25.6233V23.8533C110.567 23.8533 104.615 29.8057 104.615 37.1483H106.385ZM117.91 25.6233C124.275 25.6233 129.435 30.7832 129.435 37.1483H131.205C131.205 29.8057 125.253 23.8533 117.91 23.8533V25.6233Z" fill="url(#paint0_linear_11087_65885)"/>
<defs>
<linearGradient id="paint0_linear_11087_65885" x1="20" y1="20.3672" x2="135.812" y2="46.394" gradientUnits="userSpaceOnUse">
<stop stop-color="#3B00B9"/>
<stop offset="1" stop-color="#2586B6"/>
</linearGradient>
</defs>
</svg>
