<svg width="140" height="140" viewBox="0 0 140 140" fill="none" xmlns="http://www.w3.org/2000/svg">
<path d="M53.2465 80.2794C53.7593 80.0741 54.0086 79.4921 53.8034 78.9794C53.5982 78.4666 53.0161 78.2173 52.5034 78.4225L53.2465 80.2794ZM42.7503 97.0547L42.0433 97.7619C42.3263 98.0448 42.7507 98.1318 43.1221 97.983C43.4936 97.8342 43.7406 97.4783 43.75 97.0782L42.7503 97.0547ZM42.7271 97.0316L42.7028 96.0319C42.3028 96.0416 41.9472 96.2888 41.7986 96.6603C41.6501 97.0317 41.7372 97.456 42.0201 97.7388L42.7271 97.0316ZM61.3588 87.2798C61.5647 86.7673 61.3162 86.185 60.8038 85.979C60.2913 85.7731 59.709 86.0215 59.503 86.534L61.3588 87.2798ZM52.1704 106.045C52.5609 105.654 52.5609 105.021 52.1704 104.63C51.7799 104.24 51.1467 104.24 50.7562 104.63L52.1704 106.045ZM36.327 119.06C35.9365 119.45 35.9365 120.083 36.327 120.474C36.7176 120.864 37.3507 120.864 37.7413 120.474L36.327 119.06ZM35.6324 105.516C36.0231 105.126 36.0234 104.492 35.633 104.102C35.2426 103.711 34.6095 103.711 34.2188 104.101L35.6324 105.516ZM19.7896 118.519C19.399 118.909 19.3987 119.542 19.7891 119.933C20.1794 120.324 20.8126 120.324 21.2033 119.934L19.7896 118.519ZM66.1464 103.44C66.5369 103.05 66.5369 102.417 66.1464 102.026C65.7559 101.636 65.1227 101.636 64.7322 102.026L66.1464 103.44ZM58.4722 108.286C58.0817 108.677 58.0817 109.31 58.4722 109.7C58.8628 110.091 59.4959 110.091 59.8865 109.7L58.4722 108.286ZM35.1363 89.0146C35.5268 88.6241 35.5268 87.9909 35.1363 87.6004C34.7457 87.2099 34.1126 87.2099 33.722 87.6004L35.1363 89.0146ZM19.2929 102.03C18.9024 102.42 18.9024 103.053 19.2929 103.444C19.6834 103.834 20.3166 103.834 20.7071 103.444L19.2929 102.03ZM37.7426 75.0365C38.1331 74.646 38.1331 74.0128 37.7426 73.6223C37.3521 73.2318 36.7189 73.2318 36.3284 73.6223L37.7426 75.0365ZM30.0684 79.8823C29.6779 80.2728 29.6779 80.906 30.0684 81.2965C30.459 81.687 31.0921 81.687 31.4827 81.2965L30.0684 79.8823ZM83.7737 80.1192C83.3673 79.7453 82.7347 79.7717 82.3608 80.1782C81.9869 80.5847 82.0133 81.2173 82.4198 81.5912L83.7737 80.1192ZM78.2832 101.648L77.3545 101.277C77.1765 101.723 77.3402 102.233 77.7447 102.491C78.1492 102.75 78.6802 102.684 79.01 102.335L78.2832 101.648ZM71.491 86.9994L70.7801 87.7028C70.8558 87.7793 70.9434 87.8431 71.0394 87.8917L71.491 86.9994ZM52.9772 68.289L52.0853 68.7413C52.1323 68.8339 52.1934 68.9186 52.2664 68.9923L52.9772 68.289ZM38.3282 61.4967L37.6413 60.77C37.2924 61.0997 37.2271 61.6309 37.4857 62.0354C37.7443 62.4399 38.2538 62.6035 38.6996 62.4252L38.3282 61.4967ZM58.3855 57.3602C58.7593 57.7666 59.392 57.7931 59.7984 57.4192C60.2049 57.0453 60.2313 56.4127 59.8574 56.0062L58.3855 57.3602ZM51.1532 74.8022H50.1532L52.1401 74.9637L51.1532 74.8022ZM53.7451 66.5404L54.667 66.9279L54.6746 66.9099L54.6815 66.8916L53.7451 66.5404ZM53.8608 66.2743L52.9591 65.8421L52.94 65.8819L52.9245 65.9232L53.8608 66.2743ZM115.812 20.0246L115.709 19.03L115.706 19.0303L115.812 20.0246ZM119.747 23.9588L118.753 23.8504L118.752 23.8534L119.747 23.9588ZM73.5086 85.9104L73.0764 85.0087L73.0688 85.0123L73.0614 85.016L73.5086 85.9104ZM73.2424 86.0262L72.8913 85.0898L72.873 85.0967L72.855 85.1043L73.2424 86.0262ZM64.9807 88.6181L64.8191 87.6312L64.8163 87.6317L64.9807 88.6181ZM60.8035 87.2527L61.5106 86.5456L60.8035 87.2527ZM52.5186 78.9678L51.8115 79.6749L52.5186 78.9678ZM51.1532 74.7906H52.1532L50.1656 74.6335L51.1532 74.7906ZM115.611 38.8373C116.002 39.2279 116.635 39.2282 117.026 38.8378C117.416 38.4474 117.417 37.8143 117.026 37.4236L115.611 38.8373ZM102.354 22.7399C101.964 22.3492 101.331 22.349 100.94 22.7393C100.549 23.1297 100.549 23.7629 100.939 24.1535L102.354 22.7399ZM52.5034 78.4225C47.205 80.5432 44.5343 85.3028 43.1882 89.3588C42.5107 91.4005 42.1525 93.3092 41.9631 94.7057C41.8682 95.4053 41.8153 95.9797 41.786 96.3823C41.7713 96.5836 41.7625 96.7422 41.7574 96.8523C41.7548 96.9073 41.7531 96.9502 41.7521 96.9803C41.7516 96.9953 41.7512 97.0071 41.751 97.0156C41.7508 97.0199 41.7507 97.0233 41.7507 97.0259C41.7506 97.0272 41.7506 97.0283 41.7506 97.0292C41.7506 97.0296 41.7506 97.0302 41.7506 97.0304C41.7505 97.0308 41.7505 97.0312 42.7503 97.0547C43.75 97.0782 43.75 97.0785 43.75 97.0788C43.75 97.0788 43.75 97.0789 43.75 97.079C43.75 97.079 43.75 97.0788 43.75 97.0785C43.75 97.0777 43.75 97.0762 43.7501 97.0738C43.7502 97.069 43.7505 97.061 43.7509 97.0499C43.7517 97.0275 43.753 96.9926 43.7552 96.9457C43.7596 96.852 43.7673 96.7107 43.7807 96.5275C43.8074 96.1611 43.8563 95.6282 43.945 94.9745C44.1226 93.6645 44.4579 91.8827 45.0864 89.9888C46.3526 86.1736 48.7442 82.0813 53.2465 80.2794L52.5034 78.4225ZM43.4572 96.3475L43.4341 96.3244L42.0201 97.7388L42.0433 97.7619L43.4572 96.3475ZM42.7271 97.0316C42.7515 98.0313 42.7519 98.0313 42.7523 98.0313C42.7525 98.0313 42.753 98.0312 42.7535 98.0312C42.7544 98.0312 42.7555 98.0312 42.7568 98.0312C42.7594 98.0311 42.7628 98.031 42.767 98.0309C42.7756 98.0306 42.7874 98.0302 42.8024 98.0297C42.8324 98.0286 42.8753 98.0269 42.9303 98.0243C43.0402 98.0191 43.1987 98.0102 43.3999 97.9953C43.8022 97.9657 44.3761 97.9124 45.0752 97.817C46.4708 97.6267 48.3783 97.2674 50.4191 96.5891C54.4734 95.2417 59.2322 92.5713 61.3588 87.2798L59.503 86.534C57.6955 91.0316 53.6023 93.4236 49.7883 94.6912C47.8949 95.3205 46.1141 95.6569 44.805 95.8354C44.1517 95.9245 43.6192 95.9738 43.253 96.0007C43.07 96.0142 42.9288 96.0221 42.8352 96.0266C42.7883 96.0288 42.7534 96.0302 42.7311 96.031C42.7199 96.0314 42.7119 96.0316 42.7072 96.0318C42.7048 96.0318 42.7032 96.0319 42.7025 96.0319C42.7021 96.0319 42.702 96.0319 42.702 96.0319C42.702 96.0319 42.7022 96.0319 42.7022 96.0319C42.7025 96.0319 42.7028 96.0319 42.7271 97.0316ZM50.7562 104.63L36.327 119.06L37.7413 120.474L52.1704 106.045L50.7562 104.63ZM34.2188 104.101L19.7896 118.519L21.2033 119.934L35.6324 105.516L34.2188 104.101ZM64.7322 102.026L58.4722 108.286L59.8865 109.7L66.1464 103.44L64.7322 102.026ZM33.722 87.6004L19.2929 102.03L20.7071 103.444L35.1363 89.0146L33.722 87.6004ZM36.3284 73.6223L30.0684 79.8823L31.4827 81.2965L37.7426 75.0365L36.3284 73.6223ZM82.4198 81.5912C84.1593 83.1913 84.7646 85.1062 84.694 87.1499C84.6219 89.2343 83.8419 91.4545 82.7766 93.5339C81.7168 95.6025 80.4105 97.4631 79.3619 98.8127C78.8391 99.4856 78.3839 100.027 78.0609 100.398C77.8995 100.584 77.7714 100.727 77.6845 100.822C77.6411 100.87 77.608 100.906 77.5863 100.929C77.5755 100.941 77.5675 100.95 77.5625 100.955C77.5599 100.958 77.5582 100.96 77.5572 100.961C77.5567 100.961 77.5563 100.962 77.5562 100.962C77.5561 100.962 77.5562 100.962 77.5562 100.962C77.5563 100.962 77.5564 100.962 78.2832 101.648C79.01 102.335 79.0102 102.335 79.0105 102.335C79.0107 102.335 79.011 102.334 79.0113 102.334C79.012 102.333 79.0128 102.332 79.0138 102.331C79.0159 102.329 79.0187 102.326 79.0223 102.322C79.0295 102.315 79.0397 102.304 79.0527 102.29C79.0788 102.261 79.1163 102.221 79.1644 102.168C79.2605 102.062 79.3985 101.908 79.5702 101.711C79.9136 101.316 80.3926 100.746 80.9412 100.04C82.0354 98.6315 83.4208 96.6628 84.5566 94.4458C85.687 92.2395 86.6064 89.7177 86.6928 87.2189C86.7805 84.6793 86.0031 82.1698 83.7737 80.1192L82.4198 81.5912ZM78.2832 101.648C79.2118 102.019 79.212 102.019 79.2123 102.018C79.2124 102.018 79.2126 102.017 79.2128 102.017C79.2132 102.016 79.2137 102.015 79.2142 102.013C79.2152 102.011 79.2164 102.008 79.2179 102.004C79.2208 101.997 79.2245 101.987 79.229 101.975C79.238 101.951 79.2501 101.918 79.2648 101.877C79.2941 101.795 79.3336 101.678 79.3788 101.53C79.4692 101.235 79.5828 100.816 79.6829 100.298C79.8824 99.2646 80.0317 97.8225 79.8233 96.1931C79.3992 92.8772 77.5063 88.9227 71.9425 86.1072L71.0394 87.8917C75.9938 90.3988 77.497 93.7689 77.8394 96.4468C78.0143 97.8144 77.8895 99.0365 77.7192 99.9184C77.6343 100.358 77.5389 100.708 77.4666 100.944C77.4305 101.062 77.4003 101.151 77.3801 101.208C77.3701 101.236 77.3625 101.256 77.3581 101.268C77.3559 101.274 77.3544 101.278 77.3538 101.279C77.3535 101.28 77.3534 101.28 77.3535 101.28C77.3536 101.28 77.3537 101.28 77.3539 101.279C77.354 101.279 77.3541 101.279 77.3542 101.278C77.3543 101.278 77.3545 101.277 78.2832 101.648ZM72.2018 86.2961L53.688 67.5856L52.2664 68.9923L70.7801 87.7028L72.2018 86.2961ZM53.8691 67.8367C51.0478 62.2736 47.0938 60.3808 43.7793 59.9566C42.1505 59.7482 40.7094 59.8975 39.6771 60.0971C39.1595 60.1972 38.7401 60.3108 38.4455 60.4012C38.2981 60.4464 38.1815 60.4859 38.0991 60.5153C38.0578 60.5299 38.0251 60.542 38.0013 60.5511C37.9893 60.5556 37.9796 60.5593 37.9722 60.5622C37.9685 60.5636 37.9654 60.5649 37.9628 60.5659C37.9615 60.5664 37.9604 60.5669 37.9594 60.5672C37.9589 60.5674 37.9582 60.5677 37.958 60.5678C37.9574 60.568 37.9568 60.5683 38.3282 61.4967C38.6996 62.4252 38.6991 62.4254 38.6986 62.4256C38.6985 62.4256 38.6981 62.4258 38.6979 62.4259C38.6974 62.4261 38.6972 62.4262 38.697 62.4263C38.6967 62.4264 38.6969 62.4263 38.6977 62.426C38.6993 62.4254 38.703 62.4239 38.7089 62.4217C38.7206 62.4173 38.7408 62.4097 38.7691 62.3997C38.8257 62.3796 38.9145 62.3493 39.0322 62.3132C39.2678 62.2409 39.6178 62.1456 40.0568 62.0607C40.9377 61.8904 42.1587 61.7656 43.5254 61.9405C46.2018 62.2829 49.5724 63.7862 52.0853 68.7413L53.8691 67.8367ZM38.3282 61.4967C39.0151 62.2235 39.0149 62.2237 39.0148 62.2238C39.0148 62.2237 39.0148 62.2238 39.0149 62.2237C39.015 62.2236 39.0153 62.2233 39.0159 62.2228C39.0169 62.2218 39.0188 62.22 39.0215 62.2175C39.0269 62.2124 39.0355 62.2044 39.0472 62.1936C39.0705 62.1719 39.1064 62.1388 39.1542 62.0954C39.2497 62.0086 39.3927 61.8804 39.5783 61.719C39.9498 61.396 40.4911 60.9408 41.1639 60.418C42.5135 59.3694 44.3742 58.0631 46.4428 57.0033C48.5221 55.938 50.7423 55.158 52.8268 55.0859C54.8704 55.0153 56.7854 55.6206 58.3855 57.3602L59.8574 56.0062C57.8068 53.7768 55.2973 52.9994 52.7577 53.0871C50.2589 53.1735 47.7372 54.093 45.5308 55.2233C43.3138 56.3591 41.3451 57.7445 39.9368 58.8387C39.2307 59.3873 38.6609 59.8664 38.266 60.2097C38.0685 60.3815 37.9145 60.5195 37.8088 60.6155C37.756 60.6636 37.7152 60.7012 37.6871 60.7272C37.673 60.7403 37.6621 60.7504 37.6545 60.7576C37.6506 60.7612 37.6476 60.764 37.6454 60.7661C37.6443 60.7671 37.6434 60.768 37.6428 60.7686C37.6424 60.7689 37.642 60.7693 37.6419 60.7694C37.6416 60.7697 37.6413 60.77 38.3282 61.4967ZM52.1401 74.9637C52.6507 71.8444 54.3282 67.7341 54.667 66.9279L52.8232 66.153C52.491 66.9435 50.7202 71.2571 50.1663 74.6406L52.1401 74.9637ZM54.6815 66.8916C54.6814 66.8917 54.6828 66.8879 54.6874 66.8776C54.6925 66.8661 54.6984 66.8534 54.7092 66.8303C54.7271 66.7919 54.764 66.714 54.7972 66.6254L52.9245 65.9232C52.9246 65.9231 52.9231 65.9269 52.9186 65.9372C52.9135 65.9486 52.9076 65.9613 52.8968 65.9845C52.8789 66.0228 52.842 66.1008 52.8088 66.1893L54.6815 66.8916ZM54.7626 66.7065C72.8574 28.95 104.628 22.2266 115.919 21.019L115.706 19.0303C104.063 20.2757 71.4753 27.2062 52.9591 65.8421L54.7626 66.7065ZM115.916 21.0192C116.87 20.9198 117.612 21.2132 118.089 21.6885C118.564 22.163 118.856 22.8998 118.753 23.8504L120.741 24.0672C120.903 22.5763 120.449 21.2188 119.501 20.2729C118.554 19.3278 117.196 18.8749 115.709 19.03L115.916 21.0192ZM118.752 23.8534C117.556 35.143 110.833 66.9139 73.0764 85.0087L73.9407 86.8122C112.577 68.2961 119.507 35.7085 120.741 24.0642L118.752 23.8534ZM73.0614 85.016C73.0028 85.0453 72.9541 85.0663 72.8913 85.0898L73.5936 86.9625C73.7159 86.9166 73.8292 86.8681 73.9558 86.8049L73.0614 85.016ZM72.855 85.1043C72.0487 85.4431 67.9385 87.1206 64.8191 87.6312L65.1422 89.6049C68.5258 89.051 72.8393 87.2803 73.6299 86.948L72.855 85.1043ZM64.8163 87.6317C63.6192 87.8312 62.39 87.425 61.5106 86.5456L60.0964 87.9598C61.4155 89.2789 63.2874 89.9141 65.1451 89.6045L64.8163 87.6317ZM61.5106 86.5456L53.2257 78.2607L51.8115 79.6749L60.0964 87.9598L61.5106 86.5456ZM53.2257 78.2607C52.3503 77.3853 51.9487 76.1551 52.1408 74.9477L50.1656 74.6335C49.8717 76.4809 50.4883 78.3517 51.8115 79.6749L53.2257 78.2607ZM50.1532 74.7906V74.8022H52.1532V74.7906H50.1532ZM101.515 44.4511C101.515 47.8737 98.7402 50.6483 95.3175 50.6483V52.6483C99.8447 52.6483 103.515 48.9783 103.515 44.4511H101.515ZM95.3175 50.6483C91.8949 50.6483 89.1203 47.8737 89.1203 44.4511H87.1203C87.1203 48.9783 90.7903 52.6483 95.3175 52.6483V50.6483ZM89.1203 44.4511C89.1203 41.0285 91.8949 38.2539 95.3175 38.2539V36.2539C90.7903 36.2539 87.1203 39.9239 87.1203 44.4511H89.1203ZM95.3175 38.2539C98.7402 38.2539 101.515 41.0285 101.515 44.4511H103.515C103.515 39.9239 99.8447 36.2539 95.3175 36.2539V38.2539ZM117.026 37.4236L102.354 22.7399L100.939 24.1535L115.611 38.8373L117.026 37.4236Z" fill="url(#paint0_linear_11115_1562)"/>
<defs>
<linearGradient id="paint0_linear_11115_1562" x1="20" y1="20" x2="122.029" y2="42.8701" gradientUnits="userSpaceOnUse">
<stop stop-color="#3B00B9"/>
<stop offset="1" stop-color="#2586B6"/>
</linearGradient>
</defs>
</svg>
