<svg xmlns="http://www.w3.org/2000/svg" width="97" height="100" fill="none" viewBox="0 0 97 100"><path stroke="url(#a)" stroke-width="1.282" d="M56.0976 47.686C56.0976 54.5407 50.5363 60.102 43.6816 60.102C36.827 60.102 31.2656 54.5407 31.2656 47.686C31.2656 40.8314 36.827 35.27 43.6816 35.27C50.5363 35.27 56.0976 40.8314 56.0976 47.686Z"/><path stroke="url(#b)" stroke-width="1.282" d="M68.1106 76.3088C62.6139 68.4437 53.5687 63.3027 43.3433 63.3027C33.1178 63.3027 24.7112 68.08 19.166 75.4843"/><path stroke="url(#c)" stroke-width="1.282" d="M56.0976 47.686C56.0976 54.5407 50.5363 60.102 43.6816 60.102C36.827 60.102 31.2656 54.5407 31.2656 47.686C31.2656 40.8314 36.827 35.27 43.6816 35.27C50.5363 35.27 56.0976 40.8314 56.0976 47.686Z"/><path stroke="url(#d)" stroke-width="1.282" d="M71.9253 45.083C71.3675 43.7978 70.7289 42.561 70.0095 41.3728C66.0891 41.2515 62.589 39.4489 60.1883 36.6602C59.0889 35.383 58.2321 33.8957 57.6744 32.2709C57.3672 31.406 57.157 30.5007 57.0358 29.5711C52.9941 27.6149 48.4594 26.5237 43.674 26.5237C31.2257 26.5237 20.5153 33.9199 15.6895 44.5576C13.9112 48.4295 12.9331 52.746 12.9331 57.2808C12.9331 60.797 13.5151 64.1759 14.6225 67.3122C18.7612 79.3644 30.2072 88.0217 43.674 88.0217C54.0611 88.0217 63.2357 82.8807 68.7889 75.0156C70.5673 72.5259 71.9576 69.7614 72.9276 66.8029C73.9057 63.804 74.4392 60.603 74.4392 57.2808C74.4392 52.94 73.5339 48.8175 71.9253 45.083ZM43.674 60.1019C36.8194 60.1019 31.2661 54.5405 31.2661 47.6859C31.2661 40.8312 36.8194 35.2698 43.674 35.2698C50.5287 35.2698 56.09 40.8312 56.09 47.6859C56.09 54.5405 50.5287 60.1019 43.674 60.1019Z"/><path stroke="url(#e)" stroke-width="1.282" d="M84.0008 27.8562C84.0008 29.3193 83.7664 30.7258 83.3299 32.0434C82.9095 33.3448 82.2952 34.5654 81.5111 35.6567C81.2686 36.0042 81.0099 36.3357 80.727 36.659C78.2535 39.5528 74.5675 41.3877 70.4612 41.3877C70.3076 41.3877 70.1621 41.3877 70.0085 41.3716C66.0881 41.2503 62.588 39.4477 60.1873 36.659C59.0879 35.3818 58.2311 33.8945 57.6734 32.2697C57.3662 31.4048 57.156 30.4995 57.0348 29.5699C56.962 29.0041 56.9297 28.4382 56.9297 27.8562C56.9297 25.8597 57.3581 23.9601 58.1422 22.2545C60.2681 17.5742 64.9807 14.3167 70.4612 14.3167C75.9417 14.3167 80.8159 17.6793 82.8934 22.4889C83.6047 24.1298 84.0008 25.9405 84.0008 27.8562Z"/><path stroke="url(#f)" stroke-linecap="round" stroke-linejoin="round" stroke-width="1.282" d="M64.4956 30.735L67.9553 34.1138L76.8146 23.8965"/><defs><linearGradient id="a" x1="31.266" x2="56.659" y1="35.27" y2="40.962" gradientUnits="userSpaceOnUse"><stop stop-color="#3B00B9"/><stop offset="1" stop-color="#2586B6"/></linearGradient><linearGradient id="b" x1="19.166" x2="49.88" y1="63.303" y2="89.21" gradientUnits="userSpaceOnUse"><stop stop-color="#3B00B9"/><stop offset="1" stop-color="#2586B6"/></linearGradient><linearGradient id="c" x1="31.266" x2="56.659" y1="35.27" y2="40.962" gradientUnits="userSpaceOnUse"><stop stop-color="#3B00B9"/><stop offset="1" stop-color="#2586B6"/></linearGradient><linearGradient id="d" x1="12.933" x2="75.829" y1="26.524" y2="40.623" gradientUnits="userSpaceOnUse"><stop stop-color="#3B00B9"/><stop offset="1" stop-color="#2586B6"/></linearGradient><linearGradient id="e" x1="56.93" x2="84.613" y1="14.317" y2="20.521" gradientUnits="userSpaceOnUse"><stop stop-color="#3B00B9"/><stop offset="1" stop-color="#2586B6"/></linearGradient><linearGradient id="f" x1="64.496" x2="76.826" y1="23.896" y2="27.229" gradientUnits="userSpaceOnUse"><stop stop-color="#3B00B9"/><stop offset="1" stop-color="#2586B6"/></linearGradient></defs></svg>