<svg width="98" height="100" viewBox="0 0 98 100" fill="none" xmlns="http://www.w3.org/2000/svg">
<path d="M34.4441 54.0206C34.4441 56.9735 32.0453 59.3723 29.0924 59.3723C26.1395 59.3723 23.7407 56.9735 23.7407 54.0206C23.7407 51.0677 26.1395 48.6689 29.0924 48.6689C32.0453 48.6689 34.4441 51.0677 34.4441 54.0206Z" stroke="url(#paint0_linear_11108_65909)" stroke-width="1.28176"/>
<path d="M39.6309 66.3655C37.2638 62.9772 33.3609 60.7605 28.9513 60.7605C24.5417 60.7605 20.9159 62.8188 18.533 66.0093" stroke="url(#paint1_linear_11108_65909)" stroke-width="1.28176"/>
<path d="M34.4441 54.0206C34.4441 56.9735 32.0453 59.3723 29.0924 59.3723C26.1395 59.3723 23.7407 56.9735 23.7407 54.0206C23.7407 51.0677 26.1395 48.6689 29.0924 48.6689C32.0453 48.6689 34.4441 51.0677 34.4441 54.0206Z" stroke="url(#paint2_linear_11108_65909)" stroke-width="1.28176"/>
<path d="M41.2677 52.9043C39.2331 48.2018 34.5464 44.9084 29.0919 44.9084C23.6373 44.9084 19.1089 48.0989 17.0269 52.6826C16.2589 54.353 15.8394 56.2134 15.8394 58.1609C15.8394 59.673 16.0927 61.1297 16.5677 62.4834C18.3489 67.6847 23.2889 71.4134 29.0919 71.4134C33.5648 71.4134 37.5231 69.1968 39.9139 65.8085C40.6819 64.7397 41.2835 63.5443 41.6952 62.2697C42.1148 60.9793 42.3444 59.6018 42.3444 58.1689C42.3444 56.3005 41.9564 54.5193 41.2598 52.9122L41.2677 52.9043ZM29.0998 59.3722C26.1469 59.3722 23.7481 56.9734 23.7481 54.0205C23.7481 51.0676 26.1469 48.6689 29.0998 48.6689C32.0527 48.6689 34.4514 51.0676 34.4514 54.0205C34.4514 56.9734 32.0527 59.3722 29.0998 59.3722Z" stroke="url(#paint3_linear_11108_65909)" stroke-width="1.28176"/>
<path d="M90.0973 40.3805V77.0742C90.0973 80.2884 87.4927 82.9009 84.2707 82.9009H14.1607C10.9386 82.9009 8.33398 80.2884 8.33398 77.0742V40.3805C8.33398 37.1584 10.9386 34.5459 14.1607 34.5459H55.1927C57.6232 37.3801 61.2332 39.1771 65.2548 39.1771C69.2765 39.1771 72.8865 37.3801 75.309 34.5459H84.2707C87.4927 34.5459 90.0973 37.1584 90.0973 40.3805Z" stroke="url(#paint4_linear_11108_65909)" stroke-width="1.28176"/>
<path d="M49.2163 48.6536H80.9463" stroke="url(#paint5_linear_11108_65909)" stroke-width="1.28176" stroke-linecap="round"/>
<path d="M49.2163 58.1379H80.9463" stroke="url(#paint6_linear_11108_65909)" stroke-width="1.28176" stroke-linecap="round"/>
<path d="M49.2163 67.6226H80.9463" stroke="url(#paint7_linear_11108_65909)" stroke-width="1.28176" stroke-linecap="round"/>
<path d="M78.5158 25.9272C78.5158 27.3601 78.2863 28.7376 77.8588 30.028C77.4471 31.3026 76.8454 32.498 76.0775 33.5667C75.84 33.9072 75.5867 34.2317 75.3096 34.5484C72.8871 37.3826 69.2771 39.1797 65.2554 39.1797C61.2338 39.1797 57.6238 37.3826 55.1933 34.5484C54.1167 33.2976 53.2775 31.8409 52.7313 30.2497C52.2563 28.8959 52.0029 27.4392 52.0029 25.9272C52.0029 23.9717 52.4225 22.1113 53.1904 20.4409C55.2725 15.8572 59.8879 12.6667 65.2554 12.6667C70.6229 12.6667 75.3967 15.9601 77.4313 20.6705C78.1279 22.2776 78.5158 24.0509 78.5158 25.9272Z" stroke="url(#paint8_linear_11108_65909)" stroke-width="1.28176"/>
<path d="M59.405 28.7374L62.8013 32.0545L71.47 22.0479" stroke="url(#paint9_linear_11108_65909)" stroke-width="1.28176" stroke-linecap="round" stroke-linejoin="round"/>
<defs>
<linearGradient id="paint0_linear_11108_65909" x1="23.7407" y1="48.6689" x2="34.6861" y2="51.1222" gradientUnits="userSpaceOnUse">
<stop stop-color="#3B00B9"/>
<stop offset="1" stop-color="#2586B6"/>
</linearGradient>
<linearGradient id="paint1_linear_11108_65909" x1="18.533" y1="60.7605" x2="31.7699" y2="71.9283" gradientUnits="userSpaceOnUse">
<stop stop-color="#3B00B9"/>
<stop offset="1" stop-color="#2586B6"/>
</linearGradient>
<linearGradient id="paint2_linear_11108_65909" x1="23.7407" y1="48.6689" x2="34.6861" y2="51.1222" gradientUnits="userSpaceOnUse">
<stop stop-color="#3B00B9"/>
<stop offset="1" stop-color="#2586B6"/>
</linearGradient>
<linearGradient id="paint3_linear_11108_65909" x1="15.8394" y1="44.9084" x2="42.9438" y2="50.9836" gradientUnits="userSpaceOnUse">
<stop stop-color="#3B00B9"/>
<stop offset="1" stop-color="#2586B6"/>
</linearGradient>
<linearGradient id="paint4_linear_11108_65909" x1="8.33398" y1="34.5459" x2="85.1181" y2="63.6466" gradientUnits="userSpaceOnUse">
<stop stop-color="#3B00B9"/>
<stop offset="1" stop-color="#2586B6"/>
</linearGradient>
<linearGradient id="paint5_linear_11108_65909" x1="49.2163" y1="48.6536" x2="49.877" y2="53.3523" gradientUnits="userSpaceOnUse">
<stop stop-color="#3B00B9"/>
<stop offset="1" stop-color="#2586B6"/>
</linearGradient>
<linearGradient id="paint6_linear_11108_65909" x1="49.2163" y1="58.1379" x2="49.877" y2="62.8367" gradientUnits="userSpaceOnUse">
<stop stop-color="#3B00B9"/>
<stop offset="1" stop-color="#2586B6"/>
</linearGradient>
<linearGradient id="paint7_linear_11108_65909" x1="49.2163" y1="67.6226" x2="49.877" y2="72.3213" gradientUnits="userSpaceOnUse">
<stop stop-color="#3B00B9"/>
<stop offset="1" stop-color="#2586B6"/>
</linearGradient>
<linearGradient id="paint8_linear_11108_65909" x1="52.0029" y1="12.6667" x2="79.1155" y2="18.7437" gradientUnits="userSpaceOnUse">
<stop stop-color="#3B00B9"/>
<stop offset="1" stop-color="#2586B6"/>
</linearGradient>
<linearGradient id="paint9_linear_11108_65909" x1="59.405" y1="22.0479" x2="71.4808" y2="25.3112" gradientUnits="userSpaceOnUse">
<stop stop-color="#3B00B9"/>
<stop offset="1" stop-color="#2586B6"/>
</linearGradient>
</defs>
</svg>
