<svg width="129" height="146" viewBox="0 0 129 146" fill="none" xmlns="http://www.w3.org/2000/svg">
<path d="M51.0295 43.5063C51.3885 43.8379 51.9484 43.8157 52.2801 43.4567C52.6118 43.0977 52.5896 42.5377 52.2305 42.2061L51.0295 43.5063ZM40.9 39.4862L40.7759 38.6099L40.7754 38.61L40.9 39.4862ZM38.5 49.5162L39.1295 48.8941L39.1294 48.894L38.5 49.5162ZM51.56 53.0862L51.2855 52.2448L51.2535 52.2553L51.2224 52.2681L51.56 53.0862ZM54.23 49.5962L53.3508 49.4956L53.3507 49.496L54.23 49.5962ZM57.55 39.3462L57.1673 38.5482L57.167 38.5483L57.55 39.3462ZM69.19 42.8162L69.8468 42.223L69.8459 42.222L69.19 42.8162ZM67.31 52.2062L67.1125 51.3435L67.1119 51.3436L67.31 52.2062ZM58.9888 49.4255C58.5742 49.1666 58.0283 49.2928 57.7694 49.7074C57.5105 50.122 57.6367 50.6679 58.0513 50.9268L58.9888 49.4255ZM20.8471 32.5603C20.7057 32.0924 20.2117 31.8278 19.7439 31.9693C19.276 32.1107 19.0114 32.6047 19.1529 33.0725L20.8471 32.5603ZM38.0029 95.4225C38.1443 95.8904 38.6383 96.155 39.1061 96.0135C39.574 95.8721 39.8386 95.3782 39.6971 94.9103L38.0029 95.4225ZM77.3701 45.987L78.125 45.5252L78.1226 45.5212L77.3701 45.987ZM92.5201 56.257L92.8922 55.454L92.8831 55.4499L92.5201 56.257ZM92.7301 57.317L92.085 56.7111L92.08 56.7165L92.7301 57.317ZM51.6301 63.157L51.6069 64.0417L51.6072 64.0417L51.6301 63.157ZM35.86 67.8859C35.5224 68.2394 35.5354 68.7996 35.8889 69.1371C36.2424 69.4747 36.8026 69.4617 37.1402 69.1082L35.86 67.8859ZM23.6912 30.9915C23.3843 31.3719 23.444 31.9291 23.8245 32.2359C24.205 32.5428 24.7621 32.4831 25.069 32.1026L23.6912 30.9915ZM40.0501 25.587L40.0732 24.7023L40.073 24.7023L40.0501 25.587ZM80.7301 20.197L80.0966 19.579L80.0945 19.5812L80.7301 20.197ZM81.8601 20.637L82.7444 20.6017L82.7439 20.5913L81.8601 20.637ZM77.4001 45.297L78.1364 45.788L78.1371 45.787L77.4001 45.297ZM92.6768 82.3194C92.2474 82.553 92.0886 83.0904 92.3222 83.5197C92.5557 83.9491 93.0931 84.1079 93.5225 83.8743L92.6768 82.3194ZM109.242 75.3243C109.672 75.0908 109.831 74.5534 109.597 74.124C109.364 73.6947 108.826 73.5359 108.397 73.7694L109.242 75.3243ZM96.0166 87.93C95.5384 88.0308 95.2324 88.5003 95.3333 88.9785C95.4341 89.4568 95.9036 89.7627 96.3818 89.6619L96.0166 87.93ZM106.862 87.4519C107.34 87.351 107.646 86.8816 107.545 86.4033C107.444 85.9251 106.975 85.6191 106.497 85.72L106.862 87.4519ZM88.7776 77.1928C88.5112 77.6026 88.6273 78.1507 89.037 78.4172C89.4468 78.6837 89.995 78.5675 90.2614 78.1578L88.7776 77.1928ZM96.1014 69.1778C96.3679 68.7681 96.2518 68.2199 95.842 67.9534C95.4323 67.6869 94.8841 67.8031 94.6176 68.2128L96.1014 69.1778ZM51.63 42.8562C52.2305 42.2061 52.2303 42.2058 52.23 42.2056C52.2299 42.2055 52.2296 42.2052 52.2293 42.205C52.2289 42.2046 52.2283 42.2041 52.2277 42.2035C52.2265 42.2024 52.225 42.201 52.2232 42.1994C52.2197 42.1961 52.215 42.1919 52.2091 42.1866C52.1975 42.1762 52.1814 42.1618 52.161 42.1438C52.1201 42.1079 52.0616 42.0575 51.9864 41.995C51.8359 41.87 51.618 41.6962 51.3385 41.4923C50.7803 41.0851 49.9719 40.5544 48.9612 40.0523C46.945 39.0508 44.0786 38.142 40.7759 38.6099L41.0242 40.3624C43.8614 39.9604 46.36 40.7365 48.1738 41.6375C49.0781 42.0867 49.801 42.5616 50.2953 42.9222C50.5421 43.1022 50.7307 43.2529 50.8552 43.3564C50.9175 43.4081 50.9636 43.448 50.993 43.4737C51.0076 43.4866 51.0181 43.4959 51.0242 43.5014C51.0272 43.5042 51.0292 43.506 51.0301 43.5068C51.0306 43.5072 51.0307 43.5074 51.0306 43.5073C51.0306 43.5072 51.0305 43.5071 51.0303 43.507C51.0302 43.5069 51.03 43.5067 51.0299 43.5067C51.0297 43.5065 51.0295 43.5063 51.63 42.8562ZM40.7754 38.61C39.0243 38.859 37.7095 39.5056 36.8134 40.4625C35.9176 41.4191 35.514 42.6071 35.4416 43.8027C35.2998 46.145 36.4131 48.664 37.8706 50.1384L39.1294 48.894C37.9869 47.7383 37.1002 45.6974 37.2084 43.9096C37.261 43.0403 37.5449 42.2708 38.1054 41.6724C38.6655 41.0742 39.5757 40.5684 41.0246 40.3624L40.7754 38.61ZM37.8706 50.1383C40.4852 52.7837 45.7033 56.4607 51.8976 53.9042L51.2224 52.2681C46.0768 54.3917 41.6148 51.4087 39.1295 48.8941L37.8706 50.1383ZM51.56 53.0862C51.8345 53.9275 51.8349 53.9274 51.8354 53.9272C51.8355 53.9272 51.836 53.9271 51.8363 53.9269C51.8369 53.9267 51.8376 53.9265 51.8383 53.9263C51.8397 53.9258 51.8412 53.9253 51.8429 53.9248C51.8463 53.9236 51.8502 53.9223 51.8548 53.9207C51.8638 53.9176 51.8752 53.9136 51.8886 53.9087C51.9156 53.8989 51.9511 53.8855 51.9941 53.8681C52.08 53.8334 52.1964 53.7824 52.334 53.7126C52.608 53.5736 52.9734 53.3561 53.3507 53.0365C54.1143 52.3899 54.9238 51.3243 55.1093 49.6964L53.3507 49.496C53.2262 50.588 52.7008 51.2675 52.2068 51.6858C51.9554 51.8987 51.7114 52.0437 51.5333 52.1341C51.4448 52.179 51.3744 52.2095 51.33 52.2274C51.3078 52.2364 51.2923 52.2422 51.2845 52.245C51.2807 52.2464 51.2787 52.2471 51.2788 52.247C51.2789 52.247 51.2794 52.2468 51.2806 52.2465C51.2811 52.2463 51.2818 52.246 51.2826 52.2458C51.283 52.2456 51.2835 52.2455 51.284 52.2453C51.2842 52.2453 51.2846 52.2451 51.2847 52.2451C51.2851 52.245 51.2855 52.2448 51.56 53.0862ZM55.1093 49.6968C55.2763 48.2371 55.3413 46.1705 55.7485 44.1715C55.9482 43.1908 56.2195 42.2984 56.5933 41.5847C56.9662 40.8725 57.4105 40.3948 57.933 40.144L57.167 38.5483C56.1895 39.0175 55.5076 39.8423 55.0252 40.7636C54.5436 41.6833 54.2306 42.7553 54.0141 43.8183C53.5887 45.9068 53.4938 48.2452 53.3508 49.4956L55.1093 49.6968ZM57.9327 40.1441C60.4496 38.9371 64.991 39.4987 68.5341 43.4103L69.8459 42.222C65.889 37.8536 60.5304 36.9353 57.1673 38.5482L57.9327 40.1441ZM68.5333 43.4094C70.2009 45.2557 70.5773 47.0848 70.2303 48.4698C69.8839 49.8523 68.7796 50.9617 67.1125 51.3435L67.5076 53.0688C69.7704 52.5506 71.4261 50.98 71.9472 48.9C72.4677 46.8225 71.8191 44.4066 69.8468 42.223L68.5333 43.4094ZM67.1119 51.3436C65.3375 51.7511 63.3369 51.3124 61.7025 50.7096C60.8991 50.4133 60.2142 50.0886 59.731 49.8383C59.4899 49.7134 59.3004 49.6078 59.1729 49.5344C59.1093 49.4978 59.0612 49.4693 59.03 49.4506C59.0145 49.4412 59.0031 49.4343 58.9962 49.4301C58.9927 49.4279 58.9904 49.4265 58.9891 49.4257C58.9885 49.4253 58.9882 49.4251 58.9881 49.4251C58.9881 49.4251 58.9881 49.4251 58.9882 49.4252C58.9883 49.4252 58.9884 49.4253 58.9885 49.4253C58.9886 49.4254 58.9888 49.4255 58.52 50.1762C58.0513 50.9268 58.0515 50.927 58.0517 50.9271C58.0518 50.9272 58.052 50.9273 58.0522 50.9274C58.0526 50.9277 58.0531 50.928 58.0537 50.9283C58.0548 50.929 58.0562 50.9299 58.0578 50.9309C58.0612 50.933 58.0657 50.9358 58.0713 50.9392C58.0825 50.9461 58.0983 50.9557 58.1185 50.9678C58.1587 50.992 58.2164 51.0262 58.2903 51.0686C58.4379 51.1536 58.6503 51.2719 58.9169 51.41C59.449 51.6856 60.2022 52.0428 61.09 52.3703C62.8381 53.015 65.2325 53.5913 67.5081 53.0687L67.1119 51.3436ZM19.1529 33.0725L38.0029 95.4225L39.6971 94.9103L20.8471 32.5603L19.1529 33.0725ZM76.6151 46.4489C77.3688 47.6808 78.5622 48.8697 79.9176 49.9659C81.282 51.0695 82.8575 52.1164 84.4225 53.0548C87.5525 54.9316 90.6979 56.4078 92.157 57.0641L92.8831 55.4499C91.4523 54.8063 88.3776 53.3625 85.3327 51.5368C83.8102 50.6239 82.3094 49.624 81.0307 48.5897C79.7429 47.5482 78.7264 46.5082 78.125 45.5252L76.6151 46.4489ZM92.148 57.06C92.0215 57.0014 91.9735 56.8298 92.085 56.7111L93.3751 57.923C94.1066 57.1443 93.8387 55.8927 92.8922 55.4541L92.148 57.06ZM92.08 56.7165C86.3725 62.8945 79.2008 64.3976 71.9498 64.2871C68.317 64.2318 64.693 63.7715 61.2416 63.2999C57.8147 62.8316 54.524 62.3464 51.6529 62.2723L51.6072 64.0417C54.3561 64.1127 57.5267 64.5787 61.002 65.0536C64.4528 65.5251 68.1719 65.9998 71.9228 66.0569C79.4393 66.1715 87.1977 64.6096 93.3801 57.9176L92.08 56.7165ZM51.6532 62.2723C42.5724 62.0345 37.6838 65.9757 35.86 67.8859L37.1402 69.1082C38.6963 67.4784 43.1277 63.8196 51.6069 64.0417L51.6532 62.2723ZM25.069 32.1026C25.949 31.0114 30.3675 26.2208 40.0271 26.4717L40.073 24.7023C29.7126 24.4332 24.8111 29.6027 23.6912 30.9915L25.069 32.1026ZM40.027 26.4717C42.741 26.5426 45.8689 26.9995 49.2969 27.4695C52.7011 27.9362 56.3705 28.4107 60.0756 28.4869C67.4973 28.6394 75.1807 27.1955 81.3656 20.8129L80.0945 19.5812C74.3894 25.4686 67.2828 26.8647 60.112 26.7172C56.5208 26.6434 52.9434 26.1829 49.5373 25.7159C46.1549 25.2521 42.9091 24.7764 40.0732 24.7023L40.027 26.4717ZM81.3635 20.8151C81.3352 20.8441 81.2898 20.8705 81.2366 20.8807C81.188 20.8899 81.1459 20.8834 81.1137 20.8709C81.0814 20.8584 81.0485 20.8358 81.0216 20.8003C80.9921 20.7613 80.978 20.7171 80.9762 20.6828L82.7439 20.5913C82.6755 19.2683 81.0549 18.5968 80.0966 19.579L81.3635 20.8151ZM80.9758 20.6723C81.0648 22.9039 81.1286 27.2434 80.5885 31.8937C80.0452 36.5708 78.904 41.4362 76.6631 44.8071L78.1371 45.787C80.6161 42.0579 81.7949 36.8483 82.3467 32.0979C82.9015 27.3207 82.8353 22.8802 82.7444 20.6018L80.9758 20.6723ZM76.6637 44.8061C76.3596 45.2622 76.28 45.9075 76.6176 46.4529L78.1226 45.5212C78.2002 45.6466 78.1605 45.7519 78.1364 45.788L76.6637 44.8061ZM89.3046 99.6973C89.3046 113.386 78.208 124.482 64.5196 124.482V126.252C79.1855 126.252 91.0746 114.363 91.0746 99.6973H89.3046ZM64.5196 124.482C50.8312 124.482 39.7346 113.386 39.7346 99.6973H37.9646C37.9646 114.363 49.8537 126.252 64.5196 126.252V124.482ZM39.7346 99.6973C39.7346 86.009 50.8312 74.9123 64.5196 74.9123V73.1423C49.8537 73.1423 37.9646 85.0314 37.9646 99.6973H39.7346ZM64.5196 74.9123C78.208 74.9123 89.3046 86.009 89.3046 99.6973H91.0746C91.0746 85.0314 79.1855 73.1423 64.5196 73.1423V74.9123ZM86.2112 113.997C81.4025 107.203 73.4782 102.763 64.5188 102.763V104.533C72.8795 104.533 80.2752 108.674 84.7665 115.02L86.2112 113.997ZM64.5188 102.763C55.5647 102.763 48.1904 106.897 43.3439 113.283L44.7538 114.353C49.2873 108.38 56.153 104.533 64.5188 104.533V102.763ZM73.9952 91.6764C73.9952 96.9093 69.7531 101.151 64.5202 101.151V102.921C70.7306 102.921 75.7652 97.8868 75.7652 91.6764H73.9952ZM64.5202 101.151C59.2873 101.151 55.0452 96.9093 55.0452 91.6764H53.2752C53.2752 97.8868 58.3097 102.921 64.5202 102.921V101.151ZM55.0452 91.6764C55.0452 86.4435 59.2873 82.2014 64.5202 82.2014V80.4314C58.3097 80.4314 53.2752 85.466 53.2752 91.6764H55.0452ZM64.5202 82.2014C69.7531 82.2014 73.9952 86.4435 73.9952 91.6764H75.7652C75.7652 85.466 70.7306 80.4314 64.5202 80.4314V82.2014ZM93.5225 83.8743L109.242 75.3243L108.397 73.7694L92.6768 82.3194L93.5225 83.8743ZM96.3818 89.6619L106.862 87.4519L106.497 85.72L96.0166 87.93L96.3818 89.6619ZM90.2614 78.1578L96.1014 69.1778L94.6176 68.2128L88.7776 77.1928L90.2614 78.1578Z" fill="url(#paint0_linear_11087_65884)"/>
<defs>
<linearGradient id="paint0_linear_11087_65884" x1="20" y1="20" x2="112.104" y2="37.4018" gradientUnits="userSpaceOnUse">
<stop stop-color="#3B00B9"/>
<stop offset="1" stop-color="#2586B6"/>
</linearGradient>
</defs>
</svg>
