<svg xmlns="http://www.w3.org/2000/svg" width="97" height="98" fill="none" viewBox="0 0 97 98"><path stroke="url(#a)" stroke-width="1.282" d="M63.4427 75.4973C59.8695 70.4508 53.9928 67.1625 47.3347 67.1625C40.6767 67.1625 35.2151 70.2311 31.6174 74.9764M89.5557 70.8433C86.9999 67.2294 82.7918 64.8771 78.0302 64.8771C73.2687 64.8771 69.3536 67.0747 66.7815 70.4689M28.5078 70.8444C25.952 67.2305 21.7439 64.8782 16.9823 64.8782C12.2208 64.8782 8.30567 67.0759 5.7336 70.47M55.2961 57.9653C55.2961 62.3606 51.731 65.9257 47.3357 65.9257C42.9403 65.9257 39.3753 62.3606 39.3753 57.9653C39.3753 53.57 42.9403 50.0049 47.3357 50.0049C51.731 50.0049 55.2961 53.57 55.2961 57.9653ZM65.4396 56.2972C62.4117 49.2973 55.4362 44.3973 47.3293 44.3973C39.2223 44.3973 32.4747 49.1426 29.3817 55.9635C28.2422 58.4461 27.6155 61.2135 27.6155 64.1193C27.6155 66.3739 27.9899 68.539 28.698 70.5495C31.3515 78.2819 38.6933 83.8331 47.3293 83.8331C53.9873 83.8331 59.8722 80.5366 63.4291 75.4901C64.5686 73.8948 65.464 72.1204 66.0826 70.2239C66.7093 68.303 67.0512 66.2518 67.0512 64.1193C67.0512 61.3356 66.4733 58.6902 65.4396 56.2972ZM47.3293 65.9262C42.9339 65.9262 39.3689 62.3611 39.3689 57.9658C39.3689 53.5705 42.9339 50.0054 47.3293 50.0054C51.7246 50.0054 55.2897 53.5705 55.2897 57.9658C55.2897 62.3611 51.7246 65.9262 47.3293 65.9262ZM92.1441 62.6937C92.1441 65.7298 91.1918 68.5297 89.5558 70.8332C87 74.4471 82.7919 76.8076 78.0303 76.8076C73.0001 76.8076 68.5885 74.1785 66.0816 70.2228C66.7083 68.3018 67.0502 66.2507 67.0502 64.1181C67.0502 61.3345 66.4723 58.6891 65.4386 56.2961C67.7746 51.7136 72.5362 48.5799 78.0303 48.5799C85.8198 48.5799 92.1441 54.8961 92.1441 62.6937ZM83.7282 58.2828C83.7282 61.4295 81.1773 63.9804 78.0305 63.9804C74.8838 63.9804 72.3329 61.4295 72.3329 58.2828C72.3329 55.136 74.8838 52.5851 78.0305 52.5851C81.1773 52.5851 83.7282 55.136 83.7282 58.2828ZM27.6191 64.1222C27.6191 66.3768 27.9936 68.5419 28.7017 70.5524C28.6366 70.65 28.5715 70.7396 28.4982 70.8291C25.9587 74.443 21.7425 76.8116 16.9727 76.8116C9.17511 76.8116 2.85889 70.4873 2.85889 62.6978C2.85889 54.9083 9.17511 48.584 16.9727 48.584C22.3366 48.584 26.9924 51.5711 29.3854 55.9664C28.2459 58.449 27.6191 61.2164 27.6191 64.1222ZM22.6718 58.2839C22.6718 61.4306 20.1209 63.9815 16.9741 63.9815C13.8274 63.9815 11.2765 61.4306 11.2765 58.2839C11.2765 55.1372 13.8274 52.5863 16.9741 52.5863C20.1209 52.5863 22.6718 55.1372 22.6718 58.2839ZM47.336 30.095L53.1476 33.3671L51.943 26.6276L56.7453 21.9149L50.1849 21.0195L47.336 15.1672L44.4954 21.0195L37.935 21.9149L42.7372 26.6276L41.5245 33.3671L47.336 30.095ZM67.0029 32.3269L68.118 36.2908L70.5273 32.8234L74.6784 32.8641L72.204 29.6083L73.5226 25.8153L69.7215 27.1258L66.4738 24.6514L66.5064 28.8025L63.0471 31.2118L67.0029 32.3269ZM24.099 32.85L25.206 36.814L27.6234 33.3465L31.7745 33.3873L29.3001 30.1315L30.6106 26.3385L26.8176 27.6489L23.57 25.1745L23.6025 29.3257L20.1351 31.7349L24.099 32.85Z"/><defs><linearGradient id="a" x1="2.859" x2="91.243" y1="15.167" y2="40.926" gradientUnits="userSpaceOnUse"><stop stop-color="#3B00B9"/><stop offset="1" stop-color="#2586B6"/></linearGradient></defs></svg>