<svg width="25" height="25" viewBox="0 0 25 25" fill="none" xmlns="http://www.w3.org/2000/svg">
<g id="exchange-2-fill">
<path id="Vector" d="M7.5 21.6868C5.01472 21.6868 3 19.6721 3 17.1868C3 14.7015 5.01472 12.6868 7.5 12.6868C9.98528 12.6868 12 14.7015 12 17.1868C12 19.6721 9.98528 21.6868 7.5 21.6868ZM17.5 11.6868C15.0147 11.6868 13 9.67205 13 7.18677C13 4.70149 15.0147 2.68677 17.5 2.68677C19.9853 2.68677 22 4.70149 22 7.18677C22 9.67205 19.9853 11.6868 17.5 11.6868ZM3.5 8.18677C3.5 5.42535 5.73858 3.18677 8.5 3.18677H11.5V5.18677H8.5C6.84315 5.18677 5.5 6.52992 5.5 8.18677V11.1868H3.5V8.18677ZM19.5 13.1868V16.1868C19.5 17.8437 18.1569 19.1868 16.5 19.1868H13.5V21.1868H16.5C19.2614 21.1868 21.5 18.9482 21.5 16.1868V13.1868H19.5Z" fill="#3B00B9"/>
</g>
</svg>
