<svg width="25" height="25" viewBox="0 0 25 25" fill="none" xmlns="http://www.w3.org/2000/svg">
<g id="git-repository-private-fill">
<path id="Vector" d="M18.5 8.18677H20.5C21.0523 8.18677 21.5 8.63449 21.5 9.18677V21.1868C21.5 21.7391 21.0523 22.1868 20.5 22.1868H4.5C3.94772 22.1868 3.5 21.7391 3.5 21.1868V9.18677C3.5 8.63449 3.94772 8.18677 4.5 8.18677H6.5V7.18677C6.5 3.87306 9.18629 1.18677 12.5 1.18677C15.8137 1.18677 18.5 3.87306 18.5 7.18677V8.18677ZM16.5 8.18677V7.18677C16.5 4.97763 14.7091 3.18677 12.5 3.18677C10.2909 3.18677 8.5 4.97763 8.5 7.18677V8.18677H16.5ZM7.5 11.1868V13.1868H9.5V11.1868H7.5ZM7.5 14.1868V16.1868H9.5V14.1868H7.5ZM7.5 17.1868V19.1868H9.5V17.1868H7.5Z" fill="#3B00B9"/>
</g>
</svg>
