<svg width="24" height="25" viewBox="0 0 24 25" fill="none" xmlns="http://www.w3.org/2000/svg">
<g id="user-shared-2-line">
<path id="Vector" d="M14 14.4385V16.5279C13.3744 16.3068 12.7013 16.1865 12 16.1865C8.68629 16.1865 6 18.8728 6 22.1865H4C4 17.7682 7.58172 14.1865 12 14.1865C12.6906 14.1865 13.3608 14.274 14 14.4385ZM12 13.1865C8.685 13.1865 6 10.5015 6 7.18652C6 3.87152 8.685 1.18652 12 1.18652C15.315 1.18652 18 3.87152 18 7.18652C18 10.5015 15.315 13.1865 12 13.1865ZM12 11.1865C14.21 11.1865 16 9.39652 16 7.18652C16 4.97652 14.21 3.18652 12 3.18652C9.79 3.18652 8 4.97652 8 7.18652C8 9.39652 9.79 11.1865 12 11.1865ZM18 17.1865V13.6865L23 18.1865L18 22.6865V19.1865H15V17.1865H18Z" fill="white"/>
</g>
</svg>
