<svg width="24" height="25" viewBox="0 0 24 25" fill="none" xmlns="http://www.w3.org/2000/svg">
<g id="hand-coin-line">
<path id="Vector" d="M5.00391 9.18933C5.5562 9.18933 6.00391 9.63704 6.00391 10.1893C7.63868 10.1893 9.14255 10.7497 10.3339 11.6888L12.5039 11.6893C13.8365 11.6893 15.0338 12.2686 15.8578 13.189L19.0039 13.1893C20.9962 13.1893 22.7163 14.3546 23.52 16.0407C21.1552 19.1613 17.3258 21.1893 13.0039 21.1893C10.2132 21.1893 7.85369 20.5861 5.94303 19.5314C5.8046 19.9149 5.4363 20.1893 5.00391 20.1893H2.00391C1.45163 20.1893 1.00391 19.7416 1.00391 19.1893V10.1893C1.00391 9.63704 1.45163 9.18933 2.00391 9.18933H5.00391ZM6.00492 12.1893L6.00391 17.2113L6.04927 17.2438C7.84309 18.5042 10.182 19.1893 13.0039 19.1893C16.0079 19.1893 18.8025 18.0337 20.839 16.0599L20.9719 15.9263L20.8527 15.8259C20.3887 15.4629 19.8195 15.2377 19.2089 15.1962L19.0039 15.1893H16.8924C16.9654 15.5109 17.0039 15.8456 17.0039 16.1893V17.1893H8.00391V15.1893L14.7939 15.1883L14.7595 15.1098C14.379 14.3162 13.592 13.7546 12.6683 13.6946L12.5039 13.6893L9.5745 13.6892C8.66726 12.7638 7.40315 12.1896 6.00492 12.1893ZM4.00391 11.1893H3.00391V18.1893H4.00391V11.1893ZM18.0039 5.18933C19.6607 5.18933 21.0039 6.53247 21.0039 8.18933C21.0039 9.84618 19.6607 11.1893 18.0039 11.1893C16.347 11.1893 15.0039 9.84618 15.0039 8.18933C15.0039 6.53247 16.347 5.18933 18.0039 5.18933ZM18.0039 7.18933C17.4516 7.18933 17.0039 7.63704 17.0039 8.18933C17.0039 8.74161 17.4516 9.18933 18.0039 9.18933C18.5562 9.18933 19.0039 8.74161 19.0039 8.18933C19.0039 7.63704 18.5562 7.18933 18.0039 7.18933ZM11.0039 2.18933C12.6607 2.18933 14.0039 3.53247 14.0039 5.18933C14.0039 6.84618 12.6607 8.18933 11.0039 8.18933C9.34706 8.18933 8.00391 6.84618 8.00391 5.18933C8.00391 3.53247 9.34706 2.18933 11.0039 2.18933ZM11.0039 4.18933C10.4516 4.18933 10.0039 4.63704 10.0039 5.18933C10.0039 5.74161 10.4516 6.18933 11.0039 6.18933C11.5562 6.18933 12.0039 5.74161 12.0039 5.18933C12.0039 4.63704 11.5562 4.18933 11.0039 4.18933Z" fill="white"/>
</g>
</svg>
