<svg width="24" height="25" viewBox="0 0 24 25" fill="none" xmlns="http://www.w3.org/2000/svg">
<g id="lock-password-line">
<path id="Vector" d="M18 8.18652H20C20.5523 8.18652 21 8.63424 21 9.18652V21.1865C21 21.7388 20.5523 22.1865 20 22.1865H4C3.44772 22.1865 3 21.7388 3 21.1865V9.18652C3 8.63424 3.44772 8.18652 4 8.18652H6V7.18652C6 3.87281 8.68629 1.18652 12 1.18652C15.3137 1.18652 18 3.87281 18 7.18652V8.18652ZM5 10.1865V20.1865H19V10.1865H5ZM11 14.1865H13V16.1865H11V14.1865ZM7 14.1865H9V16.1865H7V14.1865ZM15 14.1865H17V16.1865H15V14.1865ZM16 8.18652V7.18652C16 4.97738 14.2091 3.18652 12 3.18652C9.79086 3.18652 8 4.97738 8 7.18652V8.18652H16Z" fill="white"/>
</g>
</svg>
