<svg width="24" height="25" viewBox="0 0 24 25" fill="none" xmlns="http://www.w3.org/2000/svg">
<g id="code-box-line">
<path id="Vector" d="M3 3.18652H21C21.5523 3.18652 22 3.63424 22 4.18652V20.1865C22 20.7388 21.5523 21.1865 21 21.1865H3C2.44772 21.1865 2 20.7388 2 20.1865V4.18652C2 3.63424 2.44772 3.18652 3 3.18652ZM4 5.18652V19.1865H20V5.18652H4ZM20 12.1865L16.4645 15.722L15.0503 14.3078L17.1716 12.1865L15.0503 10.0652L16.4645 8.65099L20 12.1865ZM6.82843 12.1865L8.94975 14.3078L7.53553 15.722L4 12.1865L7.53553 8.65099L8.94975 10.0652L6.82843 12.1865ZM11.2443 17.1865H9.11597L12.7557 7.18652H14.884L11.2443 17.1865Z" fill="white"/>
</g>
</svg>
