<svg width="298" height="411" viewBox="0 0 298 411" fill="none" xmlns="http://www.w3.org/2000/svg">
<path d="M272.411 333.191L156.308 266.073C151.436 263.366 145.753 263.366 140.882 266.073L25.5902 333.191C22.6132 335.085 22.6132 339.415 25.5902 341.039L141.693 408.157C146.565 410.864 152.248 410.864 157.12 408.157L272.411 341.039C275.388 339.415 275.388 335.085 272.411 333.191Z" fill="url(#paint0_linear_15224_55262)"/>
<path d="M140.882 192.907L48.3243 246.764H23.4258V263.814C23.4258 265.438 24.2377 266.791 25.5908 267.874L141.694 334.992C144.13 336.345 147.107 337.157 149.813 336.886V191.013C146.836 190.471 143.859 191.283 140.882 192.907Z" fill="url(#paint1_linear_15224_55262)"/>
<path d="M249.677 246.763L156.308 192.907C154.413 191.824 152.248 191.012 149.812 191.012V336.885C152.248 336.885 154.684 336.074 157.12 334.72L272.411 267.602C274.035 266.791 274.576 265.167 274.576 263.543V246.493H249.677V246.763Z" fill="url(#paint2_linear_15224_55262)"/>
<path d="M272.411 242.703L156.308 175.585C151.436 172.879 145.753 172.879 140.882 175.585L25.5902 242.703C22.6132 244.598 22.6132 248.928 25.5902 250.552L141.693 317.67C146.565 320.376 152.248 320.376 157.12 317.67L272.411 250.552C275.388 248.928 275.388 244.327 272.411 242.703Z" fill="url(#paint3_linear_15224_55262)"/>
<g opacity="0.86">
<path d="M226.135 244.868C222.346 242.703 216.392 242.703 212.603 244.868C209.355 246.763 209.085 249.469 211.25 251.634L184.727 267.06L164.7 255.423L135.742 272.203L107.325 255.694L127.894 243.786C131.683 245.139 136.554 244.868 139.531 242.974C143.32 240.809 143.32 237.29 139.531 235.125C135.742 232.96 129.518 232.96 125.999 235.125C122.752 237.02 122.481 239.726 124.646 241.891L100.83 255.694L132.495 274.097L98.9355 293.583L102.183 295.477L164.7 259.212L184.727 270.849L214.497 253.529C218.286 254.882 223.158 254.611 226.135 252.717C229.924 250.552 229.924 247.033 226.135 244.868Z" fill="url(#paint4_linear_15224_55262)"/>
<path d="M200.153 201.837L196.905 199.943L159.016 221.864L137.906 209.686L89.733 237.561C85.9441 236.208 81.0726 236.479 78.0956 238.373C74.3067 240.538 74.3067 244.057 78.0956 246.222C81.8845 248.387 88.1092 248.387 91.6274 246.222C94.8751 244.327 95.1457 241.621 92.9806 239.456L137.906 213.475L159.016 225.653L200.153 201.837Z" fill="url(#paint5_linear_15224_55262)"/>
</g>
<path d="M225.59 244.056C221.801 241.891 215.847 241.891 212.058 244.056C208.81 245.951 208.54 248.657 210.705 250.822L184.183 266.248L164.155 254.611L135.197 271.391L106.78 254.882L127.349 242.974C131.138 244.327 136.009 244.056 138.986 242.162C142.775 239.997 142.775 236.478 138.986 234.313C135.197 232.148 128.973 232.148 125.454 234.313C122.207 236.208 121.936 238.914 124.101 241.079L100.285 254.882L131.95 273.285L98.3906 292.771L101.638 294.665L164.155 258.4L184.183 270.037L213.953 252.717C217.742 254.07 222.613 253.799 225.59 251.905C229.379 249.74 229.379 246.221 225.59 244.056Z" fill="url(#paint6_linear_15224_55262)"/>
<path d="M199.608 201.025L196.36 199.131L158.471 221.052L137.361 208.874L89.188 237.02C85.3991 235.667 80.5277 235.937 77.5507 237.832C73.7618 239.997 73.7618 243.515 77.5507 245.68C81.3396 247.846 87.5642 247.846 91.0825 245.68C94.3302 243.786 94.6008 241.08 92.4357 238.915L137.361 212.933L158.471 225.112L199.608 201.025Z" fill="url(#paint7_linear_15224_55262)"/>
<path d="M227.069 94.8575L226.901 154.673C226.901 169.795 215.392 199.535 185.736 212.053C204.89 197.519 212.619 175.256 212.703 162.822L212.871 103.007C212.871 96.4537 210.351 90.1529 205.73 85.4483L143.31 21.516C140.202 18.3236 136.169 16.3073 131.801 15.7192L78.286 8.66233L75.3456 8.24228C73.2453 7.99024 71.229 8.32628 69.5488 9.2504L82.8226 1.60541C84.7548 0.345246 87.1071 -0.24282 89.5434 0.0932233L145.999 7.48617C150.367 8.07425 154.4 10.0905 157.508 13.1989L219.928 77.1312C224.465 82.0038 227.069 88.3046 227.069 94.8575Z" fill="url(#paint8_linear_15224_55262)"/>
<path d="M131.799 15.8027L75.3437 8.40979C69.379 7.65369 64.0023 12.2743 64.0023 18.3231L63.8343 76.9627C63.7502 96.8732 83.1567 164.586 137.932 226.082C192.875 227.93 212.618 182.816 212.702 162.906L212.87 103.09C212.87 96.5372 210.349 90.2364 205.729 85.5318L143.309 21.5995C140.2 18.4071 136.168 16.3908 131.799 15.8027Z" fill="url(#paint9_linear_15224_55262)"/>
<path d="M140.789 219.866C112.393 187.437 95.3391 155.009 86.0139 133.418C74.9245 107.711 69.9678 86.5403 70.0518 76.963L70.2199 18.3235C70.2199 16.2232 71.9001 14.543 74.0004 14.543C74.1684 14.543 74.3364 14.543 74.5044 14.543L130.96 21.9359C133.9 22.356 136.672 23.7002 138.773 25.8844L201.193 89.8167C204.637 93.3452 206.57 98.0498 206.57 103.006L206.401 162.822C206.317 178.028 190.775 219.866 141.041 219.866C141.125 219.866 140.873 219.866 140.789 219.866Z" fill="url(#paint10_linear_15224_55262)"/>
<path d="M206.655 103.007L206.487 162.822C206.487 176.432 194.053 211.129 156.164 218.437C155.912 218.437 155.66 218.437 155.408 218.437H155.072C126.677 186.009 109.622 153.581 100.297 131.99C89.2077 106.283 84.251 85.1122 84.335 75.5349L84.5031 16.8954C84.5031 16.5593 84.5871 16.1393 84.6711 15.8032L131.045 21.852C133.985 22.2721 136.842 23.6162 138.858 25.8005L201.278 89.7328C204.723 93.4293 206.655 98.0499 206.655 103.007Z" fill="url(#paint11_linear_15224_55262)"/>
<g opacity="0.3">
<path d="M114.901 64.1936C115.321 64.4457 115.657 64.5297 115.993 64.3617C116.077 64.3617 122.882 62.3454 136.66 70.3264C150.354 78.2234 156.823 88.3048 156.823 88.3888C157.159 88.9769 157.579 89.3969 158.083 89.6489C158.587 89.901 159.091 89.985 159.427 89.7329C160.099 89.2289 160.015 87.8847 159.259 86.7085C159.007 86.2045 151.866 74.863 136.576 66.1259C121.37 57.3888 113.977 59.7411 113.641 59.8251C112.801 60.0771 112.717 61.3373 113.305 62.5974C113.809 63.3535 114.397 63.9416 114.901 64.1936Z" fill="url(#paint12_linear_15224_55262)"/>
<path d="M169.09 114.6C168.67 113.592 159.261 88.9766 136.494 75.8709C113.727 62.7652 103.898 75.6188 103.478 76.2069C102.974 76.879 103.226 78.3912 104.15 79.4834C104.402 79.8194 104.738 80.1554 105.074 80.3235C105.662 80.6595 106.334 80.6595 106.67 80.2394C107.006 79.7354 115.912 68.3099 136.494 80.1554C157.077 92.001 165.562 113.928 165.898 114.852C166.234 115.776 166.822 116.532 167.494 116.868C167.83 117.036 168.082 117.12 168.418 117.12C169.258 117.036 169.594 115.86 169.09 114.6Z" fill="url(#paint13_linear_15224_55262)"/>
<path d="M136.493 85.8689C125.32 79.4001 116.835 79.5681 110.534 86.373C103.141 94.27 107.425 114.769 107.593 115.609C107.845 116.701 108.517 117.709 109.358 118.129C109.526 118.213 109.694 118.297 109.862 118.297C110.87 118.549 111.374 117.709 111.122 116.449C111.122 116.281 107.089 97.2944 113.558 90.4895C119.187 84.5248 126.664 84.3568 136.493 90.0695C139.097 91.5817 152.287 99.8987 159.344 118.717C162.2 126.362 162.873 132.159 161.108 135.099C159.932 137.032 157.664 137.536 155.144 136.359C154.807 136.191 154.555 136.107 154.303 135.939C149.599 133.251 147.583 126.95 147.247 123.842C146.49 117.625 142.038 109.224 136.073 105.78C135.821 105.611 135.485 105.443 135.233 105.359C132.377 103.931 129.772 104.099 127.924 105.78C125.572 107.964 124.648 112.332 125.404 118.213C126.832 128.883 135.317 145.349 147.078 154.506C147.163 154.59 147.247 154.674 147.415 154.758C148.255 155.262 149.095 155.01 149.263 154.086C149.431 153.078 148.759 151.565 147.751 150.809C136.745 142.24 130.108 127.118 129.1 119.641C128.512 115.021 129.1 111.66 130.864 110.064C132.041 108.972 133.721 108.888 135.569 109.812C135.737 109.896 135.905 109.98 136.073 110.064C140.358 112.5 143.214 118.717 143.634 122.498C144.474 128.882 148.339 136.78 154.387 140.224C154.807 140.476 155.228 140.644 155.648 140.896C159.428 142.576 162.789 141.904 164.553 138.964C166.905 135.099 166.317 127.874 162.789 118.549C156.32 101.999 144.978 90.8256 136.493 85.8689Z" fill="url(#paint14_linear_15224_55262)"/>
<path d="M120.446 102.587C123.051 96.7063 128.763 95.6142 135.652 99.6467C135.736 99.7307 135.82 99.7307 135.904 99.8147C149.598 107.964 152.202 121.49 152.706 126.866C152.79 128.042 153.631 129.219 154.555 129.807C154.639 129.807 154.723 129.891 154.723 129.891C155.731 130.311 156.487 129.723 156.319 128.546C155.395 117.877 149.514 103.679 135.988 95.6142C135.904 95.6142 135.82 95.5302 135.82 95.5302C127.419 90.6575 120.194 92.0017 117.086 99.0586C113.809 106.536 114.733 121.994 127.419 142.744C127.755 143.332 128.175 143.752 128.679 144.004C129.183 144.256 129.687 144.34 130.023 144.088C130.696 143.668 130.696 142.24 129.939 141.064C118.598 122.498 117.674 108.972 120.446 102.587Z" fill="url(#paint15_linear_15224_55262)"/>
<path d="M156.994 148.289L156.826 148.205C139.016 137.956 137.84 120.062 137.756 119.894C137.672 118.717 136.915 117.457 135.907 116.869L135.823 116.785C134.815 116.281 134.059 116.869 134.143 118.045C134.479 124.178 139.268 142.241 156.826 152.406L156.994 152.49C158.002 153.078 158.842 152.574 158.842 151.398C158.842 150.222 158.002 148.877 156.994 148.289Z" fill="url(#paint16_linear_15224_55262)"/>
</g>
<path d="M113.393 65.0335C113.813 65.2855 114.149 65.3695 114.485 65.2015C114.569 65.2015 121.374 63.1852 135.152 71.1663C148.846 79.0633 155.315 89.1446 155.315 89.2286C155.651 89.8167 156.071 90.2368 156.575 90.4888C157.079 90.7408 157.583 90.8248 157.919 90.5728C158.591 90.0687 158.507 88.7246 157.751 87.5484C157.499 87.0443 150.358 75.7029 135.068 66.9657C119.862 58.2286 112.469 60.5809 112.133 60.6649C111.293 60.9169 111.209 62.1771 111.797 63.4373C112.385 64.1934 112.889 64.7814 113.393 65.0335Z" fill="url(#paint17_linear_15224_55262)"/>
<path d="M167.663 115.441C167.243 114.433 157.833 89.8179 135.066 76.7122C112.299 63.6065 102.47 76.4602 102.05 77.0482C101.546 77.7203 101.798 79.2325 102.722 80.3247C102.974 80.6607 103.31 80.9967 103.646 81.1648C104.234 81.5008 104.907 81.5008 105.243 81.0808C105.579 80.5767 114.484 69.1512 135.066 80.9967C155.649 92.8423 164.134 114.769 164.47 115.693C164.806 116.617 165.394 117.373 166.066 117.709C166.402 117.878 166.655 117.962 166.991 117.962C167.831 117.878 168.083 116.701 167.663 115.441Z" fill="url(#paint18_linear_15224_55262)"/>
<path d="M134.983 86.7083C123.81 80.2395 115.325 80.4075 109.024 87.2124C101.631 95.1094 105.916 115.608 106.084 116.448C106.336 117.54 107.008 118.548 107.848 118.968C108.016 119.052 108.184 119.136 108.352 119.136C109.36 119.389 109.864 118.548 109.612 117.288C109.612 117.12 105.58 98.1338 112.048 91.3289C117.677 85.3641 125.154 85.1961 134.983 90.9088C137.588 92.421 150.777 100.738 157.834 119.557C160.691 127.202 161.363 132.998 159.599 135.939C158.422 137.871 156.154 138.375 153.634 137.199C153.298 137.031 153.046 136.947 152.794 136.779C148.089 134.09 146.073 127.79 145.737 124.681C144.981 118.464 140.528 110.063 134.563 106.619C134.311 106.451 133.975 106.283 133.723 106.199C130.867 104.771 128.263 104.939 126.414 106.619C124.062 108.803 123.138 113.172 123.894 119.052C125.322 129.722 133.807 146.188 145.569 155.345C145.653 155.429 145.737 155.513 145.905 155.597C146.745 156.101 147.585 155.849 147.753 154.925C147.921 153.917 147.249 152.405 146.241 151.649C135.235 143.08 128.599 127.958 127.59 120.481C127.002 115.86 127.59 112.5 129.355 110.903C130.531 109.811 132.211 109.727 134.059 110.651C134.227 110.735 134.395 110.819 134.563 110.903C138.848 113.34 141.704 119.557 142.124 123.337C142.964 129.722 146.829 137.619 152.878 141.063C153.298 141.315 153.718 141.483 154.138 141.735C157.918 143.416 161.279 142.744 163.043 139.803C165.395 135.939 164.807 128.714 161.279 119.389C154.81 102.838 143.468 91.6649 134.983 86.7083Z" fill="url(#paint19_linear_15224_55262)"/>
<path d="M119.018 103.427C121.623 97.5462 127.336 96.454 134.224 100.487C134.308 100.571 134.392 100.571 134.476 100.655C148.17 108.804 150.775 122.329 151.279 127.706C151.363 128.882 152.203 130.058 153.127 130.646C153.211 130.646 153.295 130.73 153.295 130.73C154.303 131.151 155.059 130.562 154.891 129.386C153.967 118.717 148.086 104.519 134.56 96.454C134.476 96.454 134.392 96.37 134.392 96.37C125.991 91.4974 118.766 92.8415 115.658 99.8985C112.382 107.375 113.306 122.833 125.991 143.584C126.327 144.172 126.747 144.592 127.252 144.844C127.756 145.096 128.26 145.18 128.596 144.928C129.268 144.508 129.268 143.08 128.512 141.904C117.17 123.337 116.162 109.812 119.018 103.427Z" fill="url(#paint20_linear_15224_55262)"/>
<path d="M155.566 149.13L155.398 149.046C137.588 138.796 136.412 120.902 136.328 120.734C136.244 119.558 135.488 118.298 134.48 117.71L134.396 117.626C133.387 117.122 132.631 117.71 132.715 118.886C133.051 125.019 137.84 143.081 155.398 153.246L155.566 153.33C156.574 153.918 157.415 153.414 157.415 152.238C157.331 151.062 156.574 149.718 155.566 149.13Z" fill="url(#paint21_linear_15224_55262)"/>
<path d="M66.6064 53.6084C65.6822 53.1043 64.7581 52.6002 63.834 52.1802L63.75 76.9634C63.75 84.0203 66.1863 97.21 71.815 113.928C83.1565 117.625 91.6416 110.904 91.6416 97.042C91.8096 81.0799 80.5522 61.5894 66.6064 53.6084Z" fill="url(#paint22_radial_15224_55262)"/>
<defs>
<linearGradient id="paint0_linear_15224_55262" x1="207.073" y1="139.882" x2="111.963" y2="463.486" gradientUnits="userSpaceOnUse">
<stop offset="0.0251397" stop-color="#4591D7"/>
<stop offset="0.7861" stop-color="#D6E6F6" stop-opacity="0.2194"/>
<stop offset="1" stop-color="white" stop-opacity="0"/>
</linearGradient>
<linearGradient id="paint1_linear_15224_55262" x1="93.7324" y1="152.847" x2="84.8181" y2="328.162" gradientUnits="userSpaceOnUse">
<stop offset="0.0251397" stop-color="#0068D1"/>
<stop offset="0.6969" stop-color="#9082D5"/>
<stop offset="1" stop-color="#D38ED7"/>
</linearGradient>
<linearGradient id="paint2_linear_15224_55262" x1="214.179" y1="191.471" x2="205.268" y2="366.71" gradientUnits="userSpaceOnUse">
<stop offset="0.0251397" stop-color="#0068D1"/>
<stop offset="0.6969" stop-color="#9082D5"/>
<stop offset="1" stop-color="#D38ED7"/>
</linearGradient>
<linearGradient id="paint3_linear_15224_55262" x1="84.6545" y1="211.748" x2="437.836" y2="403.127" gradientUnits="userSpaceOnUse">
<stop offset="0.0251397" stop-color="#0043C6"/>
<stop offset="0.582" stop-color="#90ADE6"/>
<stop offset="1" stop-color="white"/>
</linearGradient>
<linearGradient id="paint4_linear_15224_55262" x1="156.843" y1="310.042" x2="174.627" y2="181.635" gradientUnits="userSpaceOnUse">
<stop offset="0.0251397" stop-color="#0043C6"/>
<stop offset="0.1556" stop-color="#0446C7"/>
<stop offset="0.279" stop-color="#0F4EC9"/>
<stop offset="0.3997" stop-color="#225CCE"/>
<stop offset="0.5187" stop-color="#3D70D4"/>
<stop offset="0.6366" stop-color="#608ADB"/>
<stop offset="0.7535" stop-color="#8AA9E5"/>
<stop offset="0.8698" stop-color="#BDCEF0"/>
<stop offset="0.9827" stop-color="#F6F8FD"/>
<stop offset="1" stop-color="white"/>
</linearGradient>
<linearGradient id="paint5_linear_15224_55262" x1="132.303" y1="261.289" x2="148.842" y2="141.883" gradientUnits="userSpaceOnUse">
<stop offset="0.0251397" stop-color="#0043C6"/>
<stop offset="0.1556" stop-color="#0446C7"/>
<stop offset="0.279" stop-color="#0F4EC9"/>
<stop offset="0.3997" stop-color="#225CCE"/>
<stop offset="0.5187" stop-color="#3D70D4"/>
<stop offset="0.6366" stop-color="#608ADB"/>
<stop offset="0.7535" stop-color="#8AA9E5"/>
<stop offset="0.8698" stop-color="#BDCEF0"/>
<stop offset="0.9827" stop-color="#F6F8FD"/>
<stop offset="1" stop-color="white"/>
</linearGradient>
<linearGradient id="paint6_linear_15224_55262" x1="126.163" y1="111.478" x2="171.398" y2="304.597" gradientUnits="userSpaceOnUse">
<stop offset="0.0251397" stop-color="#0068D1"/>
<stop offset="0.3456" stop-color="#5377D3"/>
<stop offset="0.6357" stop-color="#9883D5"/>
<stop offset="0.8438" stop-color="#C38BD7"/>
<stop offset="0.9499" stop-color="#D38ED7"/>
</linearGradient>
<linearGradient id="paint7_linear_15224_55262" x1="112.172" y1="114.755" x2="157.407" y2="307.874" gradientUnits="userSpaceOnUse">
<stop offset="0.0251397" stop-color="#0068D1"/>
<stop offset="0.3456" stop-color="#5377D3"/>
<stop offset="0.6357" stop-color="#9883D5"/>
<stop offset="0.8438" stop-color="#C38BD7"/>
<stop offset="0.9499" stop-color="#D38ED7"/>
</linearGradient>
<linearGradient id="paint8_linear_15224_55262" x1="213.39" y1="190.089" x2="108.403" y2="-36.8838" gradientUnits="userSpaceOnUse">
<stop offset="0.0251397" stop-color="#0043C6"/>
<stop offset="0.1556" stop-color="#0446C7"/>
<stop offset="0.279" stop-color="#0F4EC9"/>
<stop offset="0.3997" stop-color="#225CCE"/>
<stop offset="0.5187" stop-color="#3D70D4"/>
<stop offset="0.6366" stop-color="#608ADB"/>
<stop offset="0.7535" stop-color="#8AA9E5"/>
<stop offset="0.8698" stop-color="#BDCEF0"/>
<stop offset="0.9827" stop-color="#F6F8FD"/>
<stop offset="1" stop-color="white"/>
</linearGradient>
<linearGradient id="paint9_linear_15224_55262" x1="125.108" y1="-69.2009" x2="147.252" y2="197.827" gradientUnits="userSpaceOnUse">
<stop offset="0.0251397" stop-color="#0068D1"/>
<stop offset="0.3456" stop-color="#5377D3"/>
<stop offset="0.6357" stop-color="#9883D5"/>
<stop offset="0.8438" stop-color="#C38BD7"/>
<stop offset="0.9499" stop-color="#D38ED7"/>
</linearGradient>
<linearGradient id="paint10_linear_15224_55262" x1="146.999" y1="125.428" x2="203.992" y2="341.403" gradientUnits="userSpaceOnUse">
<stop offset="0.0251397" stop-color="#0043C6"/>
<stop offset="0.1556" stop-color="#0446C7"/>
<stop offset="0.279" stop-color="#0F4EC9"/>
<stop offset="0.3997" stop-color="#225CCE"/>
<stop offset="0.5187" stop-color="#3D70D4"/>
<stop offset="0.6366" stop-color="#608ADB"/>
<stop offset="0.7535" stop-color="#8AA9E5"/>
<stop offset="0.8698" stop-color="#BDCEF0"/>
<stop offset="0.9827" stop-color="#F6F8FD"/>
<stop offset="1" stop-color="white"/>
</linearGradient>
<linearGradient id="paint11_linear_15224_55262" x1="204.677" y1="163.376" x2="60.0139" y2="59.914" gradientUnits="userSpaceOnUse">
<stop offset="0.0251397" stop-color="#0068D1"/>
<stop offset="0.6969" stop-color="#9082D5"/>
<stop offset="1" stop-color="#D38ED7"/>
</linearGradient>
<linearGradient id="paint12_linear_15224_55262" x1="139.828" y1="78.7121" x2="99.3563" y2="29.3159" gradientUnits="userSpaceOnUse">
<stop offset="0.0251397" stop-color="#0043C6"/>
<stop offset="1" stop-color="#0C6ADD"/>
</linearGradient>
<linearGradient id="paint13_linear_15224_55262" x1="142.083" y1="100.715" x2="85.3285" y2="31.4454" gradientUnits="userSpaceOnUse">
<stop offset="0.0251397" stop-color="#0043C6"/>
<stop offset="1" stop-color="#0C6ADD"/>
</linearGradient>
<linearGradient id="paint14_linear_15224_55262" x1="140.558" y1="121.224" x2="80.6904" y2="48.1556" gradientUnits="userSpaceOnUse">
<stop offset="0.0251397" stop-color="#0043C6"/>
<stop offset="1" stop-color="#0C6ADD"/>
</linearGradient>
<linearGradient id="paint15_linear_15224_55262" x1="134.891" y1="121.154" x2="96.2809" y2="74.0298" gradientUnits="userSpaceOnUse">
<stop offset="0.0251397" stop-color="#0043C6"/>
<stop offset="1" stop-color="#0C6ADD"/>
</linearGradient>
<linearGradient id="paint16_linear_15224_55262" x1="148.03" y1="138.765" x2="114.891" y2="98.3178" gradientUnits="userSpaceOnUse">
<stop offset="0.0251397" stop-color="#0043C6"/>
<stop offset="1" stop-color="#0C6ADD"/>
</linearGradient>
<linearGradient id="paint17_linear_15224_55262" x1="115.844" y1="33.6171" x2="178.503" y2="170.934" gradientUnits="userSpaceOnUse">
<stop offset="0.0251397" stop-color="white"/>
<stop offset="1" stop-color="#83B8F6"/>
</linearGradient>
<linearGradient id="paint18_linear_15224_55262" x1="107.54" y1="37.4069" x2="170.199" y2="174.724" gradientUnits="userSpaceOnUse">
<stop offset="0.0251397" stop-color="white"/>
<stop offset="1" stop-color="#83B8F6"/>
</linearGradient>
<linearGradient id="paint19_linear_15224_55262" x1="98.7231" y1="41.4291" x2="161.382" y2="178.746" gradientUnits="userSpaceOnUse">
<stop offset="0.0251397" stop-color="white"/>
<stop offset="1" stop-color="#83B8F6"/>
</linearGradient>
<linearGradient id="paint20_linear_15224_55262" x1="98.0919" y1="41.7163" x2="160.751" y2="179.033" gradientUnits="userSpaceOnUse">
<stop offset="0.0251397" stop-color="white"/>
<stop offset="1" stop-color="#83B8F6"/>
</linearGradient>
<linearGradient id="paint21_linear_15224_55262" x1="100.63" y1="40.5602" x2="163.29" y2="177.877" gradientUnits="userSpaceOnUse">
<stop offset="0.0251397" stop-color="white"/>
<stop offset="1" stop-color="#83B8F6"/>
</linearGradient>
<radialGradient id="paint22_radial_15224_55262" cx="0" cy="0" r="1" gradientUnits="userSpaceOnUse" gradientTransform="translate(92.9102 155.24) scale(67.1959 67.1958)">
<stop offset="0.0251397" stop-color="#0043C6"/>
<stop offset="0.1556" stop-color="#0446C7" stop-opacity="0.8662"/>
<stop offset="0.279" stop-color="#0F4EC9" stop-opacity="0.7396"/>
<stop offset="0.3997" stop-color="#225CCE" stop-opacity="0.6158"/>
<stop offset="0.5187" stop-color="#3D70D4" stop-opacity="0.4937"/>
<stop offset="0.6366" stop-color="#608ADB" stop-opacity="0.3728"/>
<stop offset="0.7535" stop-color="#8AA9E5" stop-opacity="0.2528"/>
<stop offset="0.8698" stop-color="#BDCEF0" stop-opacity="0.1336"/>
<stop offset="0.9827" stop-color="#F6F8FD" stop-opacity="0.0177473"/>
<stop offset="1" stop-color="white" stop-opacity="0"/>
</radialGradient>
</defs>
</svg>
