<svg width="24" height="25" viewBox="0 0 24 25" fill="none" xmlns="http://www.w3.org/2000/svg">
<path d="M7 11.6865C4.51472 11.6865 2.5 9.6718 2.5 7.18652C2.5 4.70124 4.51472 2.68652 7 2.68652C9.48528 2.68652 11.5 4.70124 11.5 7.18652C11.5 9.6718 9.48528 11.6865 7 11.6865ZM7 21.6865C4.51472 21.6865 2.5 19.6718 2.5 17.1865C2.5 14.7012 4.51472 12.6865 7 12.6865C9.48528 12.6865 11.5 14.7012 11.5 17.1865C11.5 19.6718 9.48528 21.6865 7 21.6865ZM17 11.6865C14.5147 11.6865 12.5 9.6718 12.5 7.18652C12.5 4.70124 14.5147 2.68652 17 2.68652C19.4853 2.68652 21.5 4.70124 21.5 7.18652C21.5 9.6718 19.4853 11.6865 17 11.6865ZM17 21.6865C14.5147 21.6865 12.5 19.6718 12.5 17.1865C12.5 14.7012 14.5147 12.6865 17 12.6865C19.4853 12.6865 21.5 14.7012 21.5 17.1865C21.5 19.6718 19.4853 21.6865 17 21.6865Z" fill="#3B00B9"/>
</svg>
