<svg width="24" height="25" viewBox="0 0 24 25" fill="none" xmlns="http://www.w3.org/2000/svg">
<path d="M3 18.1865H21V6.18652H3V18.1865ZM1 5.18652C1 4.63424 1.44772 4.18652 2 4.18652H22C22.5523 4.18652 23 4.63424 23 5.18652V19.1865C23 19.7388 22.5523 20.1865 22 20.1865H2C1.44772 20.1865 1 19.7388 1 19.1865V5.18652ZM9 10.1865C9 9.63424 8.55228 9.18652 8 9.18652C7.44772 9.18652 7 9.63424 7 10.1865C7 10.7388 7.44772 11.1865 8 11.1865C8.55228 11.1865 9 10.7388 9 10.1865ZM11 10.1865C11 11.8434 9.65685 13.1865 8 13.1865C6.34315 13.1865 5 11.8434 5 10.1865C5 8.52967 6.34315 7.18652 8 7.18652C9.65685 7.18652 11 8.52967 11 10.1865ZM8.0018 16.1865C7.03503 16.1865 6.1614 16.5772 5.52693 17.2116L4.11272 15.7974C5.10693 14.8032 6.4833 14.1865 8.0018 14.1865C9.52031 14.1865 10.8967 14.8032 11.8909 15.7974L10.4767 17.2116C9.84221 16.5772 8.96858 16.1865 8.0018 16.1865ZM16.2071 14.8936L20.2071 10.8936L18.7929 9.47941L15.5 12.7723L13.7071 10.9794L12.2929 12.3936L14.7929 14.8936L15.5 15.6007L16.2071 14.8936Z" fill="#3B00B9"/>
</svg>
