<svg xmlns="http://www.w3.org/2000/svg" width="655" height="368" fill="none" viewBox="0 0 655 368"><g clip-path="url(#a)"><rect width="673" height="727.131" x="-9" y="-185.646" fill="#3B00B9"/><g clip-path="url(#b)"><rect width="1298.13" height="758.045" fill="#3B00B9" transform="translate(-16.2715 -195.746)"/><g filter="url(#c)"><path fill="#9275B4" d="M-3058.08 -1260.69C-3058.08 -2451.81 -1295.73 -2772.71 -150.47 -2772.71C994.792 -2772.71 1923.21 -1807.12 1923.21 -615.989C1923.21 575.138 994.792 1540.74 -150.47 1540.74C-1295.73 1540.74 -3058.08 -69.5612 -3058.08 -1260.69Z"/></g><g filter="url(#d)"><path fill="#B0D5ED" d="M427.711 -465.57C427.711 -775.827 886.367 -859.413 1184.42 -859.413C1482.48 -859.413 1724.1 -607.9 1724.1 -297.643C1724.1 12.6137 1482.48 264.127 1184.42 264.127C886.367 264.127 427.711 -155.313 427.711 -465.57Z"/></g></g><rect width="673" height="727.131" x="-9" y="-185.646" fill="#3B00B9" opacity=".2"/><rect width="2461.12" height="820.375" fill="url(#e)" opacity=".5" transform="translate(-401.923 -224.189)"/></g><defs><clipPath id="a"><rect width="673" height="727.131" fill="#fff" transform="translate(-9 -185.646)"/></clipPath><clipPath id="b"><rect width="1298.13" height="758.045" fill="#fff" transform="translate(-16.2715 -195.746)"/></clipPath><filter id="c" width="6138.61" height="5470.77" x="-3636.74" y="-3351.38" color-interpolation-filters="sRGB" filterUnits="userSpaceOnUse"><feFlood flood-opacity="0" result="BackgroundImageFix"/><feBlend in="SourceGraphic" in2="BackgroundImageFix" result="shape"/><feGaussianBlur result="effect1_foregroundBlur_633_19548" stdDeviation="289.33"/></filter><filter id="d" width="2867.78" height="2694.92" x="-357.981" y="-1645.11" color-interpolation-filters="sRGB" filterUnits="userSpaceOnUse"><feFlood flood-opacity="0" result="BackgroundImageFix"/><feBlend in="SourceGraphic" in2="BackgroundImageFix" result="shape"/><feGaussianBlur result="effect1_foregroundBlur_633_19548" stdDeviation="392.846"/></filter><radialGradient id="e" cx="0" cy="0" r="1" gradientTransform="translate(1230.56 160.77) rotate(90) scale(874.824 1308.33)" gradientUnits="userSpaceOnUse"><stop stop-color="#98509F"/><stop offset=".551" stop-color="#2B1447"/><stop offset="1" stop-color="#0E031F"/></radialGradient></defs></svg>