<svg width="278" height="284" viewBox="0 0 278 284" fill="none" xmlns="http://www.w3.org/2000/svg">
<g opacity="0.6" filter="url(#filter0_f_397_21136)">
<path d="M120.577 252.84L102.53 241.836L143.466 55.4204L157.772 48.5977L174.719 60.7025L134.443 245.797L120.577 252.84Z" fill="#0D080F"/>
<path d="M120.577 252.84L160.413 66.4249L174.719 60.7025L134.443 245.797L120.577 252.84Z" fill="#0D080F"/>
<path d="M160.193 66.4249L143.246 55.4204L157.552 48.5977L174.499 60.7025L160.193 66.4249Z" fill="#0D080F"/>
<path d="M161.807 119.845L146.285 132.681L143.277 146.496L158.799 133.66L161.807 119.845Z" fill="#0D080F"/>
<path d="M156.959 141.947L141.705 154.02L131.314 201.744L146.568 189.671L156.959 141.947Z" fill="#0D080F"/>
<path d="M6.13074 213.444L19.116 222.028V233.692L6.13074 224.889V213.444Z" fill="#0D080F"/>
<path d="M97.2475 137.293L84.2623 128.71L6.13074 213.444L19.116 222.028L97.2475 137.293Z" fill="#0D080F"/>
<path d="M36.2829 219.167H97.2475L84.2623 210.363H44.6629L36.2829 219.167Z" fill="#0D080F"/>
<path d="M19.116 222.028L97.2475 137.293V155.121L44.6629 210.363L36.2829 219.167H97.2475V235.453L19.116 233.692V222.028Z" fill="#0D080F"/>
<path d="M190.345 87.9936L177.36 79.8503V97.2373L190.345 105.601V87.9936Z" fill="#0D080F"/>
<path d="M190.345 186.813V169.647L177.36 161.063V178.45L190.345 186.813Z" fill="#0D080F"/>
<path d="M190.345 87.9936L177.36 79.8503L254.611 82.4913L268.257 90.1944L190.345 87.9936Z" fill="#0D080F"/>
<path d="M190.345 169.647L250.209 105.601H229.521L177.36 161.063L190.345 169.647Z" fill="#0D080F"/>
<path d="M190.345 105.601V87.9936L268.257 90.1944V102.519L190.345 186.813V169.647L250.209 105.601H229.521H190.345Z" fill="#0D080F"/>
<path d="M68.1984 218.94L50.5889 234.353L63.7931 234.792L75.8979 218.946L68.1984 218.94Z" fill="#0D080F"/>
<path d="M217.859 88.6548L198.929 105.556L213.369 105.557L226.002 88.8749L217.859 88.6548Z" fill="#0D080F"/>
<path d="M229.081 89.0943L214.774 105.557L222.477 105.558L237.224 89.3144L229.081 89.0943Z" fill="#0D080F"/>
</g>
<path d="M129.82 247.559L111.773 236.554L152.709 50.1392L167.015 43.3164L183.962 55.4213L143.686 240.516L129.82 247.559Z" fill="url(#paint0_linear_397_21136)"/>
<path d="M129.82 247.557L169.656 61.1422L183.962 55.4199L143.685 240.515L129.82 247.557Z" fill="url(#paint1_linear_397_21136)"/>
<path d="M169.436 61.1436L152.49 50.1392L166.795 43.3164L183.742 55.4213L169.436 61.1436Z" fill="url(#paint2_linear_397_21136)"/>
<path opacity="0.6" d="M171.049 114.564L155.528 127.4L152.52 141.215L168.041 128.379L171.049 114.564Z" fill="url(#paint3_linear_397_21136)"/>
<path opacity="0.6" d="M166.202 136.667L150.948 148.741L140.557 196.465L155.811 184.392L166.202 136.667Z" fill="url(#paint4_linear_397_21136)"/>
<path d="M15.3733 208.166L28.3585 216.749V228.414L15.3733 219.611V208.166Z" fill="#62619F"/>
<path d="M106.49 132.015L93.5048 123.432L15.3733 208.166L28.3585 216.749L106.49 132.015Z" fill="url(#paint5_linear_397_21136)"/>
<path d="M45.5255 213.888H106.49L93.5048 205.085H53.9055L45.5255 213.888Z" fill="url(#paint6_linear_397_21136)"/>
<path d="M28.3582 216.75L106.49 132.016V149.843L53.9051 205.085L45.5251 213.889H106.49V230.175L28.3582 228.415V216.75Z" fill="url(#paint7_linear_397_21136)"/>
<path d="M199.588 82.7136L186.603 74.5703V91.9573L199.588 100.321V82.7136Z" fill="#62619F"/>
<path d="M199.588 181.533V164.367L186.603 155.783V173.17L199.588 181.533Z" fill="#62619F"/>
<path d="M199.588 82.7136L186.603 74.5703L263.854 77.2114L277.499 84.9145L199.588 82.7136Z" fill="url(#paint8_linear_397_21136)"/>
<path d="M199.588 164.368L259.452 100.322H238.764L186.603 155.785L199.588 164.368Z" fill="url(#paint9_linear_397_21136)"/>
<path d="M199.588 100.322V82.7148L277.499 84.9157V97.2407L199.588 181.535V164.368L259.452 100.322H238.763H199.588Z" fill="url(#paint10_linear_397_21136)"/>
<path opacity="0.6" d="M77.4419 213.657L59.8324 229.07L73.0365 229.51L85.1414 213.664L77.4419 213.657Z" fill="url(#paint11_linear_397_21136)"/>
<path opacity="0.6" d="M227.102 83.3737L208.172 100.274L222.612 100.275L235.245 83.5937L227.102 83.3737Z" fill="url(#paint12_linear_397_21136)"/>
<path opacity="0.6" d="M238.324 83.8132L224.017 100.276L231.72 100.277L246.467 84.0333L238.324 83.8132Z" fill="url(#paint13_linear_397_21136)"/>
<defs>
<filter id="filter0_f_397_21136" x="0.230737" y="42.6977" width="273.926" height="216.042" filterUnits="userSpaceOnUse" color-interpolation-filters="sRGB">
<feFlood flood-opacity="0" result="BackgroundImageFix"/>
<feBlend mode="normal" in="SourceGraphic" in2="BackgroundImageFix" result="shape"/>
<feGaussianBlur stdDeviation="2.95" result="effect1_foregroundBlur_397_21136"/>
</filter>
<linearGradient id="paint0_linear_397_21136" x1="147.362" y1="147.6" x2="175.864" y2="-158.855" gradientUnits="userSpaceOnUse">
<stop stop-color="#DCE4EB"/>
<stop offset="0.6697" stop-color="#4C95EC"/>
<stop offset="1" stop-color="#006CED"/>
</linearGradient>
<linearGradient id="paint1_linear_397_21136" x1="-125.456" y1="-113.017" x2="132.921" y2="270.387" gradientUnits="userSpaceOnUse">
<stop offset="0.0251397" stop-color="#0068D1"/>
<stop offset="0.6969" stop-color="#9082D5"/>
<stop offset="1" stop-color="#D38ED7"/>
</linearGradient>
<linearGradient id="paint2_linear_397_21136" x1="167.897" y1="52.4187" x2="168.403" y2="25.4481" gradientUnits="userSpaceOnUse">
<stop stop-color="#DCE4EB"/>
<stop offset="0.6697" stop-color="#4C95EC"/>
<stop offset="1" stop-color="#006CED"/>
</linearGradient>
<linearGradient id="paint3_linear_397_21136" x1="138.446" y1="68.2183" x2="144.664" y2="164.267" gradientUnits="userSpaceOnUse">
<stop offset="0.0251397" stop-color="white"/>
<stop offset="1" stop-color="#83B8F6" stop-opacity="0"/>
</linearGradient>
<linearGradient id="paint4_linear_397_21136" x1="126.662" y1="53.2611" x2="138.404" y2="223.581" gradientUnits="userSpaceOnUse">
<stop offset="0.0251397" stop-color="white"/>
<stop offset="1" stop-color="#83B8F6" stop-opacity="0"/>
</linearGradient>
<linearGradient id="paint5_linear_397_21136" x1="60.2943" y1="171.078" x2="65.0436" y2="30.0088" gradientUnits="userSpaceOnUse">
<stop stop-color="#DCE4EB"/>
<stop offset="0.6697" stop-color="#4C95EC"/>
<stop offset="1" stop-color="#006CED"/>
</linearGradient>
<linearGradient id="paint6_linear_397_21136" x1="60.2943" y1="171.078" x2="65.0436" y2="30.0088" gradientUnits="userSpaceOnUse">
<stop stop-color="#DCE4EB"/>
<stop offset="0.6697" stop-color="#4C95EC"/>
<stop offset="1" stop-color="#006CED"/>
</linearGradient>
<linearGradient id="paint7_linear_397_21136" x1="-340.028" y1="45.9641" x2="-275.734" y2="315.455" gradientUnits="userSpaceOnUse">
<stop offset="0.0251397" stop-color="#0068D1"/>
<stop offset="0.6969" stop-color="#9082D5"/>
<stop offset="1" stop-color="#D38ED7"/>
</linearGradient>
<linearGradient id="paint8_linear_397_21136" x1="231.415" y1="79.8519" x2="231.474" y2="64.197" gradientUnits="userSpaceOnUse">
<stop stop-color="#DCE4EB"/>
<stop offset="0.6697" stop-color="#4C95EC"/>
<stop offset="1" stop-color="#006CED"/>
</linearGradient>
<linearGradient id="paint9_linear_397_21136" x1="222.518" y1="133.023" x2="225.317" y2="36.1754" gradientUnits="userSpaceOnUse">
<stop stop-color="#DCE4EB"/>
<stop offset="0.6697" stop-color="#4C95EC"/>
<stop offset="1" stop-color="#006CED"/>
</linearGradient>
<linearGradient id="paint10_linear_397_21136" x1="-167.761" y1="-3.91552" x2="-102.483" y2="267.108" gradientUnits="userSpaceOnUse">
<stop offset="0.0251397" stop-color="#0068D1"/>
<stop offset="0.6969" stop-color="#9082D5"/>
<stop offset="1" stop-color="#D38ED7"/>
</linearGradient>
<linearGradient id="paint11_linear_397_21136" x1="48.8399" y1="162.481" x2="55.0579" y2="258.53" gradientUnits="userSpaceOnUse">
<stop offset="0.0251397" stop-color="white"/>
<stop offset="1" stop-color="#83B8F6" stop-opacity="0"/>
</linearGradient>
<linearGradient id="paint12_linear_397_21136" x1="197.041" y1="28.8778" x2="203.819" y2="131.2" gradientUnits="userSpaceOnUse">
<stop offset="0.0251397" stop-color="white"/>
<stop offset="1" stop-color="#83B8F6" stop-opacity="0"/>
</linearGradient>
<linearGradient id="paint13_linear_397_21136" x1="212.888" y1="28.8779" x2="219.666" y2="131.2" gradientUnits="userSpaceOnUse">
<stop offset="0.0251397" stop-color="white"/>
<stop offset="1" stop-color="#83B8F6" stop-opacity="0"/>
</linearGradient>
</defs>
</svg>
