<svg width="299" height="282" viewBox="0 0 299 282" fill="none" xmlns="http://www.w3.org/2000/svg">
<path d="M15.0171 249.857C15.0171 249.857 59.8003 249.77 69.4339 259.382C76.7242 266.672 60.972 271.684 34.5664 270.013C34.0239 269.97 33.0692 263.092 33.0692 263.092L5.23159 261.899C4.3637 261.812 14.9954 249.857 14.9954 249.857H15.0171Z" fill="#181818" fill-opacity="0.2"/>
<path d="M11.6136 161.252C13.8701 162.229 19.8369 165.614 20.7915 165.397C23.916 164.659 29.2969 162.207 30.6421 161.361C31.4883 160.818 32.443 157.325 32.6383 155.503C32.9203 152.856 34.4392 153.637 35.2854 150.859C35.3938 150.534 35.4589 150.187 35.6759 149.905C35.8929 149.644 36.2834 149.471 36.5872 149.666C37.1079 150.013 36.8259 151.641 36.5872 152.183C36.3051 152.769 35.8061 153.224 35.5457 153.81C35.0684 154.83 35.6976 155.286 36.8476 154.136C38.3013 152.66 42.2285 148.755 42.5757 150.339C42.8143 151.424 38.0843 154.526 38.7352 155.286C39.1909 155.763 43.9426 151.575 44.7454 151.424C45.0274 151.358 45.3529 151.467 45.5048 151.706C45.7651 152.205 45.2878 152.617 44.8105 152.899C43.8124 153.507 39.4946 156.891 39.8635 157.282C40.2323 157.651 44.7888 153.81 45.8737 154.006C46.1557 154.049 46.3944 154.288 46.3076 154.591C46.0255 155.568 42.4238 157.629 41.5993 158.302C41.1436 158.67 40.4493 159.018 40.688 159.473C41.1219 160.037 44.7454 157.021 45.3312 157.803C45.8086 159.083 43.4001 159.799 36.4353 164.03C32.5081 166.416 21.0519 173.75 18.4699 173.75C15.888 173.75 9.59576 170.712 9.59576 170.712C8.59768 169.779 6.53641 167.87 6.03737 166.612C5.16948 164.355 7.27413 159.386 11.6136 161.274V161.252Z" fill="#864F33"/>
<path d="M24.5458 263.165C24.5458 263.165 24.5458 263.078 24.5458 263.056C24.6326 262.644 24.6326 262.253 24.5458 261.841L30.556 262.449C40.6018 263.078 45.5705 262.687 45.679 266.224C46.894 273.167 31.988 272.234 24.9581 271.301C21.1828 270.802 24.3072 264.792 24.5458 263.165Z" fill="#291259"/>
<path d="M3.43158 252.859L7.7276 249.647C8.48701 248.606 8.35682 248.302 9.3549 247.478C10.9388 246.176 15.9075 246.697 15.9509 249.257C16.1462 250.906 15.8207 251.665 15.5386 252.186C14.6924 253.705 10.6785 259.303 9.7455 260.735C7.3371 264.445 2.04296 263.577 2.15144 261.017C2.21653 259.411 1.78258 259.932 3.43158 252.859Z" fill="#291259"/>
<path d="M1.82657 236.694C1.91336 235.132 2.17377 233.591 2.47753 232.051C6.7519 210.484 2.99823 201.089 6.57829 195.317L35.1319 201.197C37.4536 219.358 34.0254 219.618 34.199 230.141C34.2641 234.047 33.8735 238.169 34.0254 242.075C34.3943 251.817 31.9424 256.482 32.5934 262.601C32.4632 265.399 23.9362 265.855 24.0013 263.143C24.1531 256.178 21.0721 247.304 22.3522 240.881C22.7211 239.016 22.8947 236.889 22.9815 234.98C23.0683 233.092 22.3522 226.93 18.6637 214.78C18.6637 214.78 14.3893 227.776 14.2808 231.508C14.2591 232.42 14.2158 233.309 14.1724 234.134C14.0205 237.215 13.3479 240.252 12.3064 243.16C11.4819 245.46 10.6574 248.627 10.5923 254.399C10.5489 257.936 2.5209 257.719 2.65108 255.115C2.95484 246.588 1.47942 242.834 1.82657 236.737V236.694Z" fill="#3B00B9"/>
<path d="M1.82657 236.694C1.91336 235.132 2.17377 233.591 2.47753 232.051C6.7519 210.484 2.99823 201.089 6.57829 195.317L35.1319 201.197C37.4536 219.358 34.0254 219.618 34.199 230.141C34.2641 234.047 33.8735 238.169 34.0254 242.075C34.3943 251.817 31.9424 256.482 32.5934 262.601C32.4632 265.399 23.9362 265.855 24.0013 263.143C24.1531 256.178 21.0721 247.304 22.3522 240.881C22.7211 239.016 22.8947 236.889 22.9815 234.98C23.0683 233.092 22.3522 226.93 18.6637 214.78C18.6637 214.78 14.3893 227.776 14.2808 231.508C14.2591 232.42 14.2158 233.309 14.1724 234.134C14.0205 237.215 13.3479 240.252 12.3064 243.16C11.4819 245.46 10.6574 248.627 10.5923 254.399C10.5489 257.936 2.5209 257.719 2.65108 255.115C2.95484 246.588 1.47942 242.834 1.82657 236.737V236.694Z" fill="black" fill-opacity="0.2"/>
<path d="M6.32237 148.451C3.697 148.451 3.63192 150.252 3.28476 151.532C-0.729237 166.916 10.8354 172.384 4.86869 198.42C1.78767 211.764 37.5665 213.413 35.3968 202.109C33.878 192.432 29.7989 179.37 31.1224 168.717C31.4262 166.287 32.7714 163.206 31.7299 160.841C30.8403 158.823 7.38554 148.451 6.32237 148.451Z" fill="white"/>
<path d="M57.7851 156.458C58.3709 156.219 59.4124 158.172 59.6944 158.736C59.4992 157.63 58.5879 155.503 59.4992 155.243C60.8444 154.852 61.8642 158.931 62.2981 160.298C62.8189 161.947 63.166 163.64 63.4481 165.354C63.5566 166.005 63.6434 166.265 63.6217 166.547C63.5783 167.393 63.166 169.107 61.3001 171.255C58.2624 174.749 50.0174 182.712 48.6071 182.798C47.7609 182.842 46.9147 182.538 46.1119 182.256C43.1394 181.193 30.5333 175.877 29.2531 174.423C27.7343 172.687 33.0936 161.231 34.0699 162.143C37.7585 165.592 48.5854 173.902 48.5854 173.902C48.5854 173.902 57.4596 168.673 57.3294 168.413C56.7219 167.285 54.9427 162.533 55.5286 162.186C55.9842 161.904 56.3531 162.555 56.5483 162.88C56.6351 162.012 56.4615 161.144 56.0927 160.363C55.4852 159.062 56.5484 158.671 57.1993 159.452C57.3512 159.647 57.8719 160.168 57.8719 159.799C57.8285 158.107 56.787 156.913 57.8068 156.523L57.7851 156.458Z" fill="#864F33"/>
<path d="M27.951 159.843C28.3633 159.387 30.1425 159.583 30.6632 159.908C32.9631 161.383 41.0779 166.829 43.9854 169.129C46.3721 171.017 40.9694 180.672 37.2375 179.479C35.8706 179.045 26.9964 175.074 26.2587 174.12C24.5446 171.885 25.6077 162.425 27.9294 159.821L27.951 159.843Z" fill="white"/>
<path d="M56.6573 168.717L64.5985 159.322C64.9456 158.888 65.0107 158.259 64.707 157.933L61.6694 154.462C61.6694 154.462 61.5391 154.353 61.474 154.31L62.125 154.635C62.125 154.635 62.2768 154.722 62.3202 154.787L65.3579 158.259C65.6616 158.606 65.6182 159.235 65.2494 159.647L57.3082 169.042C57.0261 169.389 56.6139 169.498 56.3101 169.346L55.6592 169.021C55.963 169.172 56.3752 169.064 56.6573 168.717Z" fill="#CFCEDD"/>
<path d="M52.5343 164.008L60.4756 154.613C60.8227 154.179 61.3651 154.114 61.6689 154.461L64.7065 157.933C65.0103 158.28 64.9669 158.909 64.598 159.322L56.6568 168.716C56.3097 169.15 55.7455 169.216 55.4635 168.868L52.4258 165.397C52.1221 165.05 52.1872 164.42 52.5343 164.008Z" fill="white"/>
<path d="M58.9767 159.973C58.89 159.669 58.7815 159.365 58.8249 159.062C58.8683 158.758 59.1069 158.454 59.4107 158.454C59.6711 158.454 59.8663 158.671 60.0399 158.845C60.5824 159.452 61.1248 160.038 61.6672 160.645C62.1012 161.123 62.5568 161.622 62.8605 162.208C63.2511 162.989 63.4898 165.072 63.5766 166.026C63.5983 166.33 63.4464 166.634 63.186 166.786C62.3832 167.22 60.7342 168.044 60.1267 168.326C59.3022 168.695 58.6296 168.804 58.9117 167.741C59.1286 166.873 59.3673 166.026 59.4541 165.115C59.6277 163.379 59.4541 161.6 58.9551 159.951L58.9767 159.973Z" fill="#864F33"/>
<path d="M15.279 168.435C16.0167 171.906 4.49549 174.314 3.6276 170.409C2.99838 167.61 0.112626 155.937 0.633362 153.268C2.00029 146.195 8.2274 147.67 10.8528 151.706C13.5432 155.872 15.1488 167.827 15.3007 168.456L15.279 168.435Z" fill="white"/>
<path d="M24.3498 133.372C26.129 135.151 27.1053 137.711 26.9318 140.228C26.9318 140.51 26.8884 140.814 26.9968 141.074C27.1704 141.465 27.5827 141.639 27.9515 141.855C28.3204 142.072 28.6676 142.42 28.5808 142.832C28.5157 143.136 28.2119 143.331 28.06 143.613C27.9081 143.873 27.8864 144.155 27.843 144.459C27.7346 145.674 27.6044 146.889 27.6912 148.104C27.7129 148.495 27.7563 148.885 27.6478 149.254C27.344 150.274 26.0856 150.578 25.0875 150.925C24.5451 151.099 24.3064 151.25 24.0894 151.945C23.4819 153.832 23.5036 154.722 23.6121 156.197C23.829 159.148 11.3531 156.675 12.9587 152.834C13.154 152.335 13.4795 150.621 13.154 150.079C12.1776 148.365 8.92303 147.236 8.72776 141.639C8.29381 129.705 19.75 128.815 24.3932 133.393L24.3498 133.372Z" fill="#864F33"/>
<path d="M22.6129 144.134C22.96 145.609 20.2261 145.826 19.9224 144.785C19.1847 143.136 17.514 143.526 16.8414 144.568C15.9735 145.935 16.4508 147.475 17.8828 149.189C18.4903 149.905 18.23 151.034 17.3621 151.381C14.4981 152.531 8.18416 146.998 7.09929 140.359C6.2965 134.999 7.68509 131.94 11.6123 129.814C13.5651 128.772 16.6678 128.208 18.23 128.208C24.4788 128.208 27.5381 132.2 26.9957 136.8C26.9089 137.538 26.4099 138.189 25.7155 138.471C23.9147 139.187 21.6581 140.315 22.5911 144.156L22.6129 144.134Z" fill="#291259"/>
<path d="M242.261 219.416L298.739 252.027L248.423 281.08H204.529L242.261 219.416Z" fill="#181818" fill-opacity="0.2"/>
<path d="M204.573 225.231L254.889 196.178L204.573 167.125L154.257 196.178L204.573 225.231Z" fill="url(#paint0_linear_622_10395)"/>
<path d="M204.573 281.296L254.889 252.244V196.178L204.573 225.231V281.296Z" fill="#6A8BA9"/>
<path d="M154.256 252.244L204.572 281.296V225.231L154.256 196.178V252.244Z" fill="#A4B3C1"/>
<path d="M225.902 136.076C222.908 144.277 214.554 144.234 212.797 149.376C212.645 149.832 212.493 150.374 212.038 150.526C210.779 150.96 205.745 144.581 206.96 139.873C207.351 138.376 208.024 137.725 208.696 136.336C210.15 133.298 215.292 125.227 220.391 126.182C224.817 127.006 227.421 131.91 225.902 136.097V136.076Z" fill="#3B00B9"/>
<path d="M170.094 253.047C170.311 252.613 171.917 248.382 172.308 245.171C172.459 243.847 172.351 241.873 172.351 240.245C172.351 239.529 177.406 240.419 177.406 240.419C177.45 241.374 177.406 242.09 177.732 242.654C178.578 242.979 179.316 243.63 179.663 244.563C180.054 245.604 179.923 246.798 179.554 247.861C179.207 248.924 178.643 249.901 178.166 250.92C177.732 251.853 177.385 252.808 177.103 253.784C176.734 255.086 176.517 256.41 176.018 257.646C175.258 259.534 171.939 260.858 169.921 260.641C168.467 260.489 166.579 259.838 166.818 258.037C167.144 255.737 168.988 255.13 170.073 253.047H170.094Z" fill="#CA957A"/>
<path d="M168.64 211.041C168.402 209.175 168.315 207.244 168.836 205.421C171.331 197.068 183.872 184.961 189.491 180.079C190.511 179.211 191.357 178.169 191.813 176.889L193.31 172.745C213.619 176.607 205.873 188.953 195.502 197.306C184.132 206.484 179.814 211.431 179.814 211.431C179.814 211.431 183.72 219.264 181.16 229.093C180.596 231.241 179.749 233.324 179.315 235.494C178.773 238.162 178.122 241.439 178.057 242.524C177.927 244.433 172.307 245.041 172.329 242.936C172.329 242.936 170.571 225.556 168.662 210.997L168.64 211.041Z" fill="#3B00B9"/>
<path d="M147.095 229.31C147.485 229.028 150.805 225.947 152.584 223.257C153.322 222.128 154.103 220.327 154.841 218.874C155.166 218.244 159.289 221.282 159.289 221.282C158.898 222.15 158.551 222.779 158.594 223.43C159.202 224.103 159.571 225.014 159.484 226.012C159.376 227.14 158.725 228.138 157.922 228.92C157.119 229.722 156.186 230.33 155.296 231.046C154.494 231.675 153.756 232.391 153.062 233.129C152.15 234.127 151.369 235.212 150.349 236.101C148.831 237.447 145.272 237.165 143.558 236.058C142.343 235.277 140.933 233.845 141.953 232.348C143.276 230.438 145.207 230.72 147.095 229.353V229.31Z" fill="#CA957A"/>
<path d="M164.105 191.405C164.973 190.58 165.993 189.843 167.165 189.604C168.076 189.409 188.797 190.146 195.414 188.736L209.67 180.947C212.425 180.426 215.05 179.558 215.701 185.395C216.396 191.578 214.096 197.827 209.192 201.646C205.504 204.488 200.947 206.007 196.391 205.985C192.984 205.964 173.413 202.557 171.656 202.926C169.898 203.317 168.445 210.303 159.679 223.235C158.269 225.318 152.389 223.365 153.322 220.631C158.507 209.023 161.502 193.9 164.127 191.405H164.105Z" fill="#3B00B9"/>
<path d="M172.806 180.621C172.111 179.428 172.133 177.931 171.981 176.585C171.829 175.283 172.242 174.22 173.5 173.895C174.411 173.678 175.496 173.244 177.948 171.118C183.09 166.67 191.227 158.945 191.227 158.945C192.529 152.349 190.88 147.164 193.093 140.806C193.809 138.767 196.195 137.291 198.474 138.658L198.17 144.603C196.347 150.418 197.41 157.73 196.261 164.695C195.892 166.995 184.913 172.441 181.311 174.22C178.078 175.826 177.557 176.781 174.259 179.775C173.782 180.209 173.283 180.447 172.784 180.599L172.806 180.621Z" fill="#CA957A"/>
<path d="M218.956 149.963C220.453 151.33 220.996 153.651 220.28 155.539C219.238 158.316 213.228 165.064 211.861 171.117C211.427 173.027 211.362 174.372 214.834 179.905C220.063 188.215 188.276 187.564 191.422 177.345C195.133 165.303 188.255 162.634 188.276 158.663C188.276 155.734 191.249 154.671 192.269 152.262C193.896 148.465 191.661 142.759 194.417 139.483C198.561 134.557 218.414 149.485 218.935 149.963H218.956Z" fill="white"/>
<path d="M200.059 143.519C201.144 141.436 201.838 139.114 201.751 136.749L212.253 135.925C210.712 138.876 210.582 141.675 211.233 144.625C212.253 149.269 197.52 148.379 200.037 143.519H200.059Z" fill="#CA957A"/>
<path d="M194.526 190.906L188.147 180.665C188.038 180.513 187.843 180.296 187.626 180.122C187.518 180.035 187.388 179.949 187.279 179.883L170.182 170.011C169.965 169.903 169.856 169.859 169.813 169.924L169.574 170.206C169.574 170.206 169.726 170.206 169.921 170.293C169.943 170.293 187.04 180.187 187.04 180.187C187.149 180.252 187.279 180.339 187.388 180.426C187.604 180.599 187.821 180.816 187.908 180.968L194.287 191.209C194.287 191.209 194.352 191.383 194.331 191.405L194.569 191.123C194.569 191.123 194.569 191.014 194.526 190.927V190.906Z" fill="white"/>
<path d="M169.921 170.294L187.019 180.166C187.344 180.361 187.735 180.708 187.887 180.969L194.266 191.21C194.417 191.448 194.266 191.492 193.94 191.318L176.843 181.446C176.517 181.251 176.127 180.904 175.975 180.643L169.596 170.402C169.444 170.163 169.596 170.12 169.921 170.294Z" fill="#E3DDDA"/>
<path d="M184.045 184.18C183.329 181.771 188.32 185.178 189.969 185.373C191.032 185.503 191.032 184.874 190.468 184.44L188.645 181.511C188.645 181.511 188.775 181.576 188.862 181.598C189.795 182.01 190.403 181.945 192.138 182.769C193.679 183.507 194.72 185.199 196.174 185.351C196.304 185.308 196.695 185.438 197.259 185.026C201.143 181.424 210.798 173.418 210.798 173.418C210.798 173.418 212.078 157.752 213.076 154.563C215.528 146.773 221.842 150.505 221.582 155.582C221.495 157.188 218.891 170.619 217.502 175.913C216.287 180.513 206.111 183.702 198.083 189.647C194.894 192.012 192.529 191.969 191.704 191.795C190.554 191.557 188.385 190.884 186.128 189.626C184.783 188.888 184.327 188.02 184.523 187.825C183.59 186.913 183.676 185.807 184.219 186.002C183.004 184.961 183.112 184.028 184.045 184.158V184.18Z" fill="#CA957A"/>
<path d="M178.101 180.144C178.209 179.753 178.057 179.233 177.797 178.842C177.189 177.974 176.3 177.67 175.519 177.28C174.455 176.759 173.696 176.282 172.741 175.436L171.96 174.22C171.288 174.98 171.418 175.718 171.591 176.954C171.808 178.495 172.199 180.621 173.089 181.489C174.26 182.639 176.278 183.789 176.799 182.834C177.016 182.986 177.276 183.095 177.515 183.095C178.036 183.073 178.187 182.357 178.014 182.292C178.383 182.444 178.752 182.183 178.817 181.771C178.947 180.816 178.122 180.166 178.122 180.166L178.101 180.144Z" fill="#CA957A"/>
<path d="M178.924 179.667C179.162 180.079 179.878 180.751 180.529 181.164C181.18 181.576 181.484 181.576 181.245 181.164C181.007 180.751 180.291 180.079 179.64 179.667C178.989 179.254 178.685 179.254 178.924 179.667Z" fill="#C2BCBA"/>
<path d="M202.834 142.021C200.881 141.782 197.063 141.153 196.563 139.287C196.216 137.964 197.822 136.206 197.366 134.904C197.149 134.297 196.954 134.145 197.67 133.494C198.646 132.604 199.211 131.932 199.71 130.695C200.491 128.786 200.057 127.31 204.548 124.077C205.741 123.209 206.24 122.927 211.578 123.991C212.815 124.229 213.162 124.446 214.03 125.596C215.527 127.571 215.766 128.287 215.527 130.934C215.397 132.322 215.267 133.733 214.789 135.034C214.16 136.727 213.422 138.419 211.817 139.374C209.951 140.48 205.308 142.325 202.834 141.999V142.021Z" fill="#C2927A"/>
<path d="M206.957 139.873C208.042 138.636 212.382 139.482 212.425 139.678C212.512 140.046 210.169 141.522 209.04 141.826C210.277 142.585 221.95 139.83 220.952 129.675C220.258 122.775 213.792 119.998 208.758 120.823C206.372 121.213 203.855 123.036 203.009 125.314C203.508 124.88 203.508 125.813 203.833 126.529C204.441 127.896 205.33 130.369 205.938 133.407C206.133 134.449 206.241 138.788 206.957 139.873Z" fill="#3B00B9"/>
<path d="M209.127 138.701C207.326 139.005 206.003 139.96 206.133 140.828C206.285 141.696 207.847 142.173 209.648 141.869C211.449 141.565 212.772 140.611 212.642 139.743C212.49 138.875 210.928 138.398 209.127 138.723V138.701Z" fill="#C2927A"/>
<path d="M60.365 103.935L75.4245 95.2292L90.4839 103.935L75.4245 112.625L60.365 103.935Z" fill="#51BBE8"/>
<path d="M75.4245 129.148L90.4839 120.458V103.935L75.4245 112.624V129.148Z" fill="#1F89B8"/>
<path d="M60.3659 120.458L75.4253 129.148V112.624L60.3659 103.935V120.458Z" fill="#29ABE2"/>
<path d="M100.651 126.609C100.791 126.609 100.915 126.547 100.993 126.422C101.102 126.235 101.04 126.002 100.853 125.893L83.6757 115.973C83.4888 115.864 83.2552 115.926 83.1462 116.113C83.0372 116.3 83.0995 116.533 83.2864 116.642L100.464 126.562C100.464 126.562 100.588 126.609 100.651 126.609Z" fill="#9FFFFA"/>
<path d="M88.9099 102.798L120.01 84.8418L151.11 102.798L120.01 120.754L88.9099 102.798Z" fill="#51BBE8"/>
<path d="M120.01 154.891L151.11 136.935V102.798L120.01 120.754V154.891Z" fill="#1F89B8"/>
<path d="M88.9113 136.934L120.011 154.89V120.754L88.9113 102.798V136.934Z" fill="#29ABE2"/>
<path d="M132.199 5.83104L138.818 2L145.452 5.83104L138.818 9.66208L132.199 5.83104Z" fill="#51BBE8"/>
<path d="M138.818 16.9348L145.452 13.1038V5.83105L138.818 9.6621V16.9348Z" fill="#1F89B8"/>
<path d="M132.199 13.1038L138.818 16.9348V9.6621L132.199 5.83105V13.1038Z" fill="#29ABE2"/>
<path d="M155.122 69.2612L169.029 61.241L182.951 69.2612L169.029 77.2971L155.122 69.2612Z" fill="#51BBE8"/>
<path d="M169.029 92.5592L182.951 84.5389V69.2615L169.029 77.2973V92.5592Z" fill="#1F89B8"/>
<path d="M155.121 84.5389L169.028 92.5592V77.2973L155.121 69.2615V84.5389Z" fill="#29ABE2"/>
<path d="M120.348 100.034C120.566 100.034 120.738 99.8628 120.738 99.6448V11.1882C120.738 10.9701 120.566 10.7988 120.348 10.7988C120.13 10.7988 119.959 10.9701 119.959 11.1882V99.6448C119.959 99.8628 120.13 100.034 120.348 100.034Z" fill="#9FFFFA"/>
<path d="M105.367 11.1886L120.349 2.52979L135.346 11.1886L120.349 19.8473L105.367 11.1886Z" fill="#F15A24"/>
<path d="M120.349 36.3088L135.346 27.65V11.189L120.349 19.8477V36.3088Z" fill="#AD3E16"/>
<path d="M105.369 27.65L120.35 36.3088V19.8477L105.369 11.189V27.65Z" fill="#CF4C1D"/>
<g style="mix-blend-mode:overlay" filter="url(#filter0_f_622_10395)">
<circle cx="6.85633" cy="6.85633" r="6.85633" transform="matrix(-0.866044 0.499967 0.866044 0.499967 120.916 12.1616)" fill="white"/>
</g>
<path d="M54.0435 50.4334L77.9641 36.6042L101.9 50.4334L77.9641 64.2469L54.0435 50.4334Z" fill="#571CD6"/>
<path d="M77.9641 90.5036L101.9 76.69V50.4333L77.9641 64.2469V90.5036Z" fill="#3500A6"/>
<path d="M54.0427 76.69L77.9634 90.5036V64.2469L54.0427 50.4333V76.69Z" fill="#3B00B9"/>
<defs>
<filter id="filter0_f_622_10395" x="98.8488" y="0.500374" width="44.1335" height="37.0342" filterUnits="userSpaceOnUse" color-interpolation-filters="sRGB">
<feFlood flood-opacity="0" result="BackgroundImageFix"/>
<feBlend mode="normal" in="SourceGraphic" in2="BackgroundImageFix" result="shape"/>
<feGaussianBlur stdDeviation="6.83465" result="effect1_foregroundBlur_622_10395"/>
</filter>
<linearGradient id="paint0_linear_622_10395" x1="153.655" y1="225.603" x2="204.29" y2="137.909" gradientUnits="userSpaceOnUse">
<stop offset="0.30863" stop-color="#BDC8D2"/>
<stop offset="1" stop-color="#E5EDF4"/>
</linearGradient>
</defs>
</svg>
