<svg width="219" height="217" viewBox="0 0 219 217" fill="none" xmlns="http://www.w3.org/2000/svg">
<path fill-rule="evenodd" clip-rule="evenodd" d="M160.968 182.975C201.98 181.676 217.754 154.768 217.754 154.768C217.754 95.0117 191.031 46.576 191.031 46.576C164.308 26.5337 138.884 27.0904 138.884 27.0904L136.286 30.0596C167.834 39.7097 182.495 53.628 182.495 53.628C163.195 43.0501 144.266 37.8539 126.636 35.8125C113.274 34.3279 100.469 34.6991 89.1492 36.1837L85.9944 36.5549C79.4992 37.1116 63.7251 39.5241 43.8684 48.2462C37.002 51.401 32.9193 53.628 32.9193 53.628C32.9193 53.628 48.3222 38.9674 81.7261 29.3173L79.8704 27.0904C79.8704 27.0904 54.4463 26.5337 27.7231 46.576C27.7231 46.576 1 95.0117 1 154.768C1 154.768 16.5885 181.676 57.6011 182.975C57.6011 182.975 64.4674 174.624 70.0348 167.572C46.4664 160.521 37.5587 145.674 37.5587 145.674L42.7549 148.829L43.4972 149.386L44.2241 149.803L44.4406 149.896L45.1674 150.314C49.8068 152.912 54.4463 154.953 58.7145 156.623C66.3232 159.593 75.4165 162.562 85.9944 164.603C99.9127 167.201 116.244 168.129 134.059 164.789C142.781 163.304 151.689 160.706 160.968 156.809C167.463 154.396 174.7 150.87 182.309 145.86C182.309 145.86 173.03 161.077 148.72 167.944C154.287 174.996 160.968 182.975 160.968 182.975ZM74.6742 96.3108C64.0963 96.3108 55.7453 105.59 55.7453 116.91C55.7453 128.23 64.2819 137.509 74.6742 137.509C85.2521 137.509 93.6031 128.23 93.6031 116.91C93.7887 105.59 85.2521 96.3108 74.6742 96.3108ZM142.41 96.3108C131.832 96.3108 123.481 105.59 123.481 116.91C123.481 128.23 132.018 137.509 142.41 137.509C152.988 137.509 161.339 128.23 161.339 116.91C161.339 105.59 152.988 96.3108 142.41 96.3108Z" fill="url(#paint0_linear_701_5366)" stroke="url(#paint1_linear_701_5366)" stroke-opacity="0.5" stroke-width="2"/>
<defs>
<linearGradient id="paint0_linear_701_5366" x1="186.291" y1="27.0889" x2="67.787" y2="278.02" gradientUnits="userSpaceOnUse">
<stop stop-color="white"/>
<stop offset="1" stop-color="white" stop-opacity="0"/>
</linearGradient>
<linearGradient id="paint1_linear_701_5366" x1="21.0595" y1="201.083" x2="191.462" y2="27.0889" gradientUnits="userSpaceOnUse">
<stop offset="0.271546" stop-color="white"/>
<stop offset="1" stop-color="white" stop-opacity="0"/>
</linearGradient>
</defs>
</svg>
