<svg xmlns="http://www.w3.org/2000/svg" width="160" height="160" fill="none" viewBox="0 0 160 160"><path fill="url(#a)" d="M96.7196 65.2521L97.6033 65.3002L97.654 64.3671H96.7196V65.2521ZM96.6432 66.3437L97.525 66.4191L97.5257 66.4103L96.6432 66.3437ZM44.185 66.3437L43.3038 66.4254L43.3039 66.4265L44.185 66.3437ZM44.2136 59.4811L45.0955 59.4071L45.0945 59.3949L45.0932 59.3828L44.2136 59.4811ZM94.2079 64.265L94.6018 63.4724L94.5978 63.4705L94.2079 64.265ZM96.2325 65.1572L95.9075 65.9804L95.9155 65.9835L95.9235 65.9865L96.2325 65.1572ZM80.3127 47.3126L81.1499 47.0258L81.1497 47.0252L80.3127 47.3126ZM96.6145 127.423L97.4957 127.506L97.4958 127.505L96.6145 127.423ZM44.1563 127.423L43.2745 127.499L43.2746 127.499L44.1563 127.423ZM44.2041 120.732L45.0837 120.634L45.081 120.61L45.0769 120.585L44.2041 120.732ZM96.5859 120.561L95.7131 120.414L95.707 120.451L95.7039 120.488L96.5859 120.561ZM96.796 65.2616V64.3766H95.911V65.2616H96.796ZM82.6493 78.2179C82.6493 77.7291 82.253 77.3329 81.7643 77.3329C81.2755 77.3329 80.8793 77.7291 80.8793 78.2179H82.6493ZM80.8793 104.472C80.8793 104.961 81.2755 105.357 81.7643 105.357C82.253 105.357 82.6493 104.961 82.6493 104.472H80.8793ZM82.6493 113.224C82.6493 112.735 82.253 112.339 81.7643 112.339C81.2755 112.339 80.8793 112.735 80.8793 113.224H82.6493ZM80.8793 130.717C80.8793 131.206 81.2755 131.602 81.7643 131.602C82.253 131.602 82.6493 131.206 82.6493 130.717H80.8793ZM71.9851 63.4867L72.4184 62.715L72.3953 62.7021L72.3715 62.6905L71.9851 63.4867ZM56.8196 52.5236L57.1382 53.3493L57.1401 53.3486L56.8196 52.5236ZM77.6005 29.1928L76.7157 29.1719L76.7156 29.1764L77.6005 29.1928ZM79.0616 27.6836L79.0149 26.7998L79.0094 26.8002L79.0616 27.6836ZM95.0865 20.6976L95.7033 21.3324L95.7041 21.3316L95.0865 20.6976ZM98.5055 20.6976L97.888 21.3316L97.8899 21.3335L98.5055 20.6976ZM114.53 27.6836L114.582 26.8001L114.577 26.7998L114.53 27.6836ZM115.992 29.1928L115.107 29.2033L115.107 29.2096L115.992 29.1928ZM97.3594 65.1572L97.6785 65.9827L97.6796 65.9823L97.3594 65.1572ZM99.7979 37.7829C99.7979 38.2716 100.194 38.6679 100.683 38.6679C101.172 38.6679 101.568 38.2716 101.568 37.7829H99.7979ZM92.0241 37.7829C92.0241 38.2716 92.4204 38.6679 92.9091 38.6679C93.3979 38.6679 93.7941 38.2716 93.7941 37.7829H92.0241ZM95.9206 48.613C95.9206 49.1018 96.3168 49.498 96.8055 49.498C97.2943 49.498 97.6905 49.1018 97.6905 48.613H95.9206ZM95.8359 65.2041C95.8174 65.5434 95.7898 65.8918 95.7607 66.2771L97.5257 66.4103C97.5539 66.0362 97.5835 65.6632 97.6033 65.3002L95.8359 65.2041ZM95.7614 66.2682C95.5054 69.2602 92.9227 72.2009 88.3491 74.4314C83.8204 76.6399 77.5482 78.0353 70.4093 78.0353V79.8053C77.7578 79.8053 84.3065 78.3721 89.1249 76.0223C93.8984 73.6943 97.1889 70.3467 97.525 66.4191L95.7614 66.2682ZM70.4093 78.0353C63.2709 78.0353 57.0156 76.6377 52.4966 74.4282C47.9344 72.1976 45.3475 69.255 45.0661 66.2609L43.3039 66.4265C43.6719 70.3424 46.9534 73.6882 51.7192 76.0183C56.5282 78.3696 63.0604 79.8053 70.4093 79.8053V78.0353ZM45.0662 66.262C44.8123 63.5234 44.8354 61.3395 45.0893 59.6096L43.338 59.3526C43.057 61.2675 43.042 63.6018 43.3038 66.4254L45.0662 66.262ZM43.3317 59.5552C43.6551 63.4063 47.0665 66.6176 51.8589 68.8285C56.7117 71.0673 63.2511 72.4207 70.4093 72.4207V70.6507C63.4526 70.6507 57.1759 69.3322 52.6004 67.2213C47.9645 65.0826 45.3356 62.2667 45.0955 59.4071L43.3317 59.5552ZM70.4093 72.4207C75.7558 72.4207 80.7517 71.6672 84.9569 70.3577C89.1486 69.0525 92.6167 67.1751 94.843 64.8814L93.5729 63.6486C91.6258 65.6547 88.4615 67.4126 84.4306 68.6678C80.4132 69.9188 75.5965 70.6507 70.4093 70.6507V72.4207ZM93.8141 65.0575C94.4909 65.3939 95.1928 65.6982 95.9075 65.9804L96.5576 64.3341C95.878 64.0657 95.2238 63.7815 94.6018 63.4725L93.8141 65.0575ZM95.9235 65.9865C96.1507 66.0712 96.4284 66.1371 96.7196 66.1371V64.3671C96.6861 64.3671 96.62 64.3572 96.5416 64.3279L95.9235 65.9865ZM45.0932 59.3828C45.0778 59.2453 45.07 59.1073 45.07 58.9591H43.3C43.3 59.1716 43.3113 59.3753 43.3341 59.5794L45.0932 59.3828ZM45.07 58.9591C45.07 56.0254 47.5836 53.1056 52.2507 50.8668C56.8535 48.6588 63.2732 47.2674 70.4093 47.2674V45.4974C63.0676 45.4974 56.3751 46.9251 51.4852 49.2709C46.6597 51.5857 43.3 54.9542 43.3 58.9591H45.07ZM70.4093 47.2674C73.859 47.2674 77.1446 47.5945 80.1427 48.1812L80.4826 46.4441C77.3688 45.8348 73.9693 45.4974 70.4093 45.4974V47.2674ZM79.4754 47.5995C81.793 54.3645 86.0471 61.2469 93.8181 65.0595L94.5978 63.4705C87.3944 59.9364 83.3782 53.5303 81.1499 47.0258L79.4754 47.5995ZM95.7334 127.341C95.452 130.339 92.8629 133.282 88.2995 135.511C83.7794 137.72 77.524 139.115 70.3902 139.115V140.885C77.7342 140.885 84.2663 139.452 89.0765 137.102C93.8435 134.773 97.1277 131.427 97.4957 127.506L95.7334 127.341ZM70.3902 139.115C63.2562 139.115 56.9839 137.72 52.454 135.511C47.8789 133.28 45.2941 130.34 45.0381 127.348L43.2746 127.499C43.6107 131.427 46.9039 134.774 51.6783 137.102C56.4978 139.452 63.0464 140.885 70.3902 140.885V139.115ZM45.0381 127.348C44.8126 124.705 44.844 122.572 45.0808 120.852L43.3274 120.611C43.0675 122.498 43.0416 124.769 43.2745 127.499L45.0381 127.348ZM43.3245 120.829C43.7457 124.624 47.1711 127.785 51.9523 129.963C56.7927 132.169 63.2851 133.5 70.3902 133.5V131.73C63.4855 131.73 57.2525 130.433 52.6861 128.353C48.0606 126.245 45.3978 123.464 45.0837 120.634L43.3245 120.829ZM70.3902 133.5C77.4969 133.5 84.0381 132.144 88.904 129.905C93.7065 127.695 97.1496 124.484 97.4679 120.634L95.7039 120.488C95.4683 123.339 92.8185 126.155 88.1641 128.297C83.5731 130.41 77.2934 131.73 70.3902 131.73V133.5ZM95.7103 120.689C95.9641 122.419 95.9872 124.603 95.7333 127.342L97.4958 127.505C97.7576 124.682 97.7425 122.347 97.4615 120.432L95.7103 120.689ZM95.7295 120.048C95.7295 120.231 95.7276 120.328 95.7131 120.414L97.4587 120.707C97.5015 120.452 97.4995 120.207 97.4995 120.048H95.7295ZM95.7039 120.488C95.468 123.342 92.8404 126.157 88.2026 128.297C83.6259 130.41 77.3467 131.73 70.3902 131.73V133.5C77.5486 133.5 84.0904 132.145 88.9443 129.905C93.7371 127.693 97.1499 124.481 97.4679 120.634L95.7039 120.488ZM70.3902 131.73C63.4322 131.73 57.1997 130.433 52.6476 128.353C48.0386 126.247 45.3981 123.467 45.0837 120.634L43.3245 120.829C43.7454 124.622 47.1405 127.783 51.9121 129.963C56.7404 132.169 63.2334 133.5 70.3902 133.5V131.73ZM45.0769 120.585C45.0503 120.427 45.0413 120.254 45.0413 120.048H43.2713C43.2713 120.298 43.2815 120.581 43.3313 120.878L45.0769 120.585ZM45.0413 120.048C45.0413 117.11 47.5551 114.19 52.223 111.952C56.8269 109.746 63.2491 108.357 70.3902 108.357V106.587C63.044 106.587 56.3492 108.012 51.458 110.356C46.6308 112.67 43.2713 116.039 43.2713 120.048H45.0413ZM70.3902 108.357C77.5314 108.357 83.9511 109.746 88.5525 111.952C93.2177 114.19 95.7295 117.109 95.7295 120.048H97.4995C97.4995 116.039 94.143 112.67 89.3178 110.356C84.4289 108.012 77.7364 106.587 70.3902 106.587V108.357ZM97.681 123.152V65.2616H95.911V123.152H97.681ZM80.8793 78.2179V104.472H82.6493V78.2179H80.8793ZM80.8793 113.224V130.717H82.6493V113.224H80.8793ZM43.2809 62.7748V123.152H45.0509V62.7748H43.2809ZM74.1052 56.8139C74.383 57.6542 74.3828 57.6543 74.3825 57.6543C74.3825 57.6543 74.3823 57.6544 74.3822 57.6544C74.382 57.6545 74.3819 57.6546 74.3818 57.6546C74.3817 57.6546 74.3819 57.6545 74.3824 57.6544C74.3834 57.654 74.3857 57.6533 74.3891 57.6522C74.3959 57.6501 74.4074 57.6464 74.4236 57.6414C74.4559 57.6315 74.5066 57.6163 74.5745 57.5971C74.7102 57.5587 74.9143 57.5045 75.1771 57.4445C75.7034 57.3243 76.4619 57.182 77.3766 57.0972C79.2123 56.927 81.6379 56.9923 84.0719 57.8995L84.6901 56.2409C81.9289 55.2118 79.2166 55.149 77.2132 55.3347C76.2083 55.4279 75.3719 55.5845 74.7832 55.7189C74.4886 55.7861 74.2552 55.848 74.0928 55.8939C74.0116 55.9169 73.948 55.9359 73.9034 55.9496C73.8811 55.9565 73.8635 55.962 73.8507 55.9661C73.8444 55.9681 73.8392 55.9698 73.8353 55.9711C73.8334 55.9717 73.8317 55.9722 73.8304 55.9727C73.8297 55.9729 73.8291 55.9731 73.8286 55.9732C73.8284 55.9733 73.828 55.9734 73.8279 55.9735C73.8276 55.9736 73.8273 55.9737 74.1052 56.8139ZM84.0719 57.8995C85.2757 58.3481 85.9195 58.8579 86.2377 59.3015C86.5363 59.7175 86.5911 60.1317 86.492 60.5525C86.2715 61.4888 85.2495 62.5157 84.0452 63.0095L84.7168 64.6472C86.2438 64.021 87.8194 62.637 88.2148 60.9583C88.4237 60.0716 88.2912 59.1272 87.6759 58.2696C87.0803 57.4395 86.0839 56.7604 84.6901 56.2409L84.0719 57.8995ZM84.0452 63.0095C81.4167 64.0874 76.7707 65.1592 72.4184 62.715L71.5517 64.2583C76.5966 67.0915 81.8826 65.8094 84.7168 64.6472L84.0452 63.0095ZM71.9851 63.4867C72.3715 62.6905 72.3718 62.6906 72.3721 62.6908C72.3722 62.6908 72.3725 62.691 72.3727 62.691C72.373 62.6912 72.3733 62.6914 72.3736 62.6915C72.3742 62.6918 72.3746 62.692 72.375 62.6922C72.3757 62.6925 72.3759 62.6926 72.3757 62.6925C72.3752 62.6923 72.373 62.6912 72.3691 62.6892C72.3613 62.6851 72.347 62.6776 72.3272 62.6666C72.2874 62.6445 72.2263 62.6089 72.1519 62.5604C72.0007 62.462 71.8064 62.3179 71.624 62.1339C71.2532 61.7599 71.0158 61.3164 71.1018 60.7789L69.354 60.4993C69.1439 61.8128 69.7851 62.793 70.3669 63.38C70.6608 63.6765 70.9613 63.8973 71.1859 64.0436C71.2993 64.1175 71.3963 64.1742 71.4677 64.2139C71.5034 64.2337 71.5329 64.2494 71.5551 64.2609C71.5661 64.2666 71.5754 64.2713 71.5827 64.275C71.5864 64.2768 71.5895 64.2784 71.5922 64.2797C71.5935 64.2803 71.5947 64.2809 71.5958 64.2814C71.5963 64.2817 71.5968 64.2819 71.5973 64.2822C71.5975 64.2823 71.5979 64.2825 71.598 64.2825C71.5983 64.2827 71.5986 64.2828 71.9851 63.4867ZM71.1018 60.7789C71.2267 59.998 71.6593 58.3457 71.7081 56.8366C71.7581 55.288 71.4379 53.4641 69.7782 52.3727L68.8057 53.8516C69.6863 54.4307 69.9821 55.4449 69.939 56.7794C69.8946 58.1535 69.5251 59.4293 69.354 60.4993L71.1018 60.7789ZM69.7782 52.3727C66.969 50.5253 61.5443 49.7387 56.4992 51.6987L57.1401 53.3486C61.7214 51.5688 66.5343 52.3579 68.8057 53.8516L69.7782 52.3727ZM56.5011 51.6979C53.9637 52.6768 52.4611 54.2616 52.5489 56.1479C52.6339 57.972 54.1961 59.4555 56.3044 60.2856L56.9529 58.6387C55.1075 57.9121 54.3538 56.8566 54.317 56.0656C54.2831 55.3369 54.8529 54.2309 57.1382 53.3493L56.5011 51.6979ZM56.3044 60.2856C58.4429 61.1276 60.9159 61.2805 62.8006 61.2392C63.753 61.2183 64.5769 61.1471 65.1642 61.0811C65.4581 61.048 65.6937 61.0161 65.8574 60.9921C65.9393 60.9802 66.0033 60.9702 66.0477 60.963C66.0699 60.9595 66.0872 60.9566 66.0995 60.9545C66.1056 60.9535 66.1104 60.9527 66.114 60.9521C66.1157 60.9518 66.1172 60.9515 66.1183 60.9513C66.1189 60.9512 66.1193 60.9512 66.1197 60.9511C66.1199 60.9511 66.1202 60.951 66.1203 60.951C66.1205 60.951 66.1207 60.9509 65.9686 60.0791C65.8165 59.2073 65.8166 59.2072 65.8167 59.2072C65.8168 59.2072 65.8169 59.2072 65.8169 59.2072C65.817 59.2072 65.817 59.2072 65.8169 59.2072C65.8167 59.2072 65.8162 59.2073 65.8153 59.2075C65.8137 59.2077 65.8107 59.2083 65.8065 59.209C65.7981 59.2104 65.7847 59.2126 65.7665 59.2155C65.7301 59.2214 65.6745 59.2301 65.6014 59.2407C65.4551 59.2621 65.239 59.2915 64.9662 59.3222C64.42 59.3836 63.6503 59.4501 62.7619 59.4696C60.965 59.509 58.7681 59.3534 56.9529 58.6387L56.3044 60.2856ZM81.1497 47.0252C78.6101 39.6298 78.4288 32.2495 78.4853 29.2092L76.7156 29.1764C76.6575 32.3058 76.8392 39.9225 79.4757 47.6001L81.1497 47.0252ZM78.4852 29.2137C78.4933 28.8719 78.7666 28.5876 79.1139 28.5671L79.0094 26.8002C77.7522 26.8745 76.7458 27.9001 76.7157 29.1719L78.4852 29.2137ZM79.1083 28.5674C87.4762 28.125 93.0636 23.897 95.7033 21.3324L94.4698 20.0629C92.0098 22.453 86.8057 26.388 79.0149 26.7998L79.1083 28.5674ZM95.7041 21.3316C96.3154 20.7361 97.2766 20.7361 97.888 21.3316L99.123 20.0637C97.8243 18.7988 95.7677 18.7988 94.469 20.0637L95.7041 21.3316ZM97.8899 21.3335C100.538 23.8965 106.115 28.125 114.484 28.5674L114.577 26.7998C106.787 26.388 101.592 22.4536 99.121 20.0617L97.8899 21.3335ZM114.479 28.5671C114.84 28.5882 115.103 28.8747 115.107 29.2033L116.876 29.1823C116.861 27.8973 115.844 26.8739 114.582 26.8001L114.479 28.5671ZM115.107 29.2096C115.163 32.1836 114.994 39.3194 112.611 46.5491C110.229 53.7735 105.679 60.9796 97.0393 64.3322L97.6796 65.9823C106.994 62.3679 111.817 54.6101 114.292 47.1033C116.765 39.6017 116.935 32.2388 116.876 29.176L115.107 29.2096ZM97.0404 64.3317C96.9679 64.3597 96.8849 64.3766 96.796 64.3766V66.1466C97.1082 66.1466 97.4072 66.0876 97.6785 65.9827L97.0404 64.3317ZM91.7822 38.6679H101.819V36.8979H91.7822V38.6679ZM101.819 38.6679C103.408 38.6679 104.687 39.9468 104.687 41.5132H106.457C106.457 38.9591 104.376 36.8979 101.819 36.8979V38.6679ZM104.687 41.5132V48.6035H106.457V41.5132H104.687ZM104.687 48.6035C104.687 50.1698 103.408 51.4488 101.819 51.4488V53.2188C104.376 53.2188 106.457 51.1576 106.457 48.6035H104.687ZM101.819 51.4488H91.7822V53.2188H101.819V51.4488ZM91.7822 51.4488C90.1931 51.4488 88.9141 50.1698 88.9141 48.6035H87.1441C87.1441 51.1576 89.2258 53.2188 91.7822 53.2188V51.4488ZM88.9141 48.6035V41.5132H87.1441V48.6035H88.9141ZM88.9141 41.5132C88.9141 39.9468 90.1931 38.6679 91.7822 38.6679V36.8979C89.2258 36.8979 87.1441 38.9591 87.1441 41.5132H88.9141ZM101.568 37.7829V32.8756H99.7979V37.7829H101.568ZM101.568 32.8756C101.568 30.2461 99.4284 28.1275 96.796 28.1275V29.8975C98.4611 29.8975 99.7979 31.2338 99.7979 32.8756H101.568ZM96.796 28.1275C94.1636 28.1275 92.0241 30.2461 92.0241 32.8756H93.7941C93.7941 31.2338 95.1309 29.8975 96.796 29.8975V28.1275ZM92.0241 32.8756V37.7829H93.7941V32.8756H92.0241ZM97.8114 43.8861C97.8114 44.4302 97.3662 44.8805 96.8055 44.8805V46.6505C98.3335 46.6505 99.5814 45.4179 99.5814 43.8861H97.8114ZM96.8055 44.8805C96.2449 44.8805 95.7996 44.4302 95.7996 43.8861H94.0296C94.0296 45.4179 95.2776 46.6505 96.8055 46.6505V44.8805ZM95.7996 43.8861C95.7996 43.342 96.2449 42.8917 96.8055 42.8917V41.1217C95.2776 41.1217 94.0296 42.3543 94.0296 43.8861H95.7996ZM96.8055 42.8917C97.3662 42.8917 97.8114 43.342 97.8114 43.8861H99.5814C99.5814 42.3543 98.3335 41.1217 96.8055 41.1217V42.8917ZM95.9206 45.7655V48.613H97.6905V45.7655H95.9206Z"/><defs><linearGradient id="a" x1="44" x2="119.954" y1="20" y2="30.214" gradientUnits="userSpaceOnUse"><stop stop-color="color(display-p3 .2322 0 .7255)"/><stop offset="1" stop-color="color(display-p3 .144 .5258 .7142)"/></linearGradient></defs></svg>