<svg xmlns="http://www.w3.org/2000/svg" width="157" height="161" fill="none" viewBox="0 0 157 161"><path fill="url(#a)" fill-rule="evenodd" d="M113.53 21.77C105.065 21.77 97.7829 26.8012 94.4974 34.0342L94.4958 34.0379C93.2864 36.6685 92.624 39.6015 92.624 42.6894C92.624 43.577 92.6724 44.4349 92.78 45.2887L92.7862 45.3367C92.8272 45.651 92.8747 45.9633 92.9289 46.2732C92.9987 46.6727 93.0796 47.0684 93.1717 47.4597C93.3354 48.1549 93.5346 48.8362 93.7706 49.5008L93.7737 49.5096C94.6354 52.0197 95.9587 54.3165 97.6558 56.2881C101.368 60.6004 106.775 63.3829 112.829 63.5701L112.861 63.5711L112.889 63.574L113.31 63.587L113.315 63.595C113.357 63.5954 113.401 63.5956 113.447 63.5957C113.474 63.5957 113.502 63.5957 113.53 63.5957C119.874 63.5957 125.568 60.7619 129.39 56.2904L129.397 56.2826L129.397 56.2827C129.831 55.7867 130.227 55.2786 130.6 54.7449L130.607 54.7348L130.607 54.7349C131.815 53.0534 132.763 51.1705 133.412 49.1604L133.414 49.1541C134.088 47.1215 134.45 44.9504 134.45 42.6894C134.45 39.7276 133.838 36.9313 132.739 34.3977L132.739 34.3966C129.53 26.9671 121.994 21.77 113.53 21.77ZM90.854 42.6894C90.854 43.1302 90.8652 43.5666 90.8888 44.001C84.623 41.2051 77.6831 39.6585 70.3907 39.6585C49.9846 39.6585 32.429 51.7833 24.5189 69.2181C21.6026 75.5684 20 82.645 20 90.0752C20 95.8346 20.9531 101.375 22.7699 106.521C29.5552 126.276 48.3162 140.466 70.3907 140.466C87.4163 140.466 102.455 132.038 111.558 119.148C114.474 115.064 116.753 110.532 118.342 105.686L118.343 105.684C119.946 100.768 120.82 95.5207 120.82 90.0752C120.82 82.9606 119.336 76.2028 116.7 70.0817L116.699 70.0794C115.994 68.4565 115.211 66.8803 114.349 65.3512C120.899 65.1179 126.752 62.0981 130.732 57.4444C131.207 56.9017 131.641 56.3453 132.048 55.7626C133.363 53.9314 134.392 51.8858 135.096 49.7073C135.827 47.4972 136.22 45.1394 136.22 42.6894C136.22 39.4812 135.556 36.446 134.364 33.6948C130.882 25.6335 122.718 20 113.53 20C104.345 20 96.4488 25.4601 92.8867 33.3004C91.5712 36.1627 90.854 39.3473 90.854 42.6894ZM70.3907 41.4285C77.794 41.4285 84.8154 43.0792 91.0984 46.0447C91.1326 46.2709 91.17 46.4963 91.2107 46.7209C91.2752 47.0762 91.3478 47.4294 91.4289 47.7799C91.6102 48.5645 91.8337 49.3361 92.1015 50.0908C93.0363 52.812 94.4721 55.3041 96.3148 57.4449C100.235 61.9992 105.912 64.9874 112.288 65.321C113.327 67.0754 114.256 68.8961 115.075 70.7834C117.619 76.69 119.05 83.2096 119.05 90.0752C119.05 95.3297 118.207 100.392 116.66 105.134C115.125 109.816 112.926 114.187 110.116 118.121L110.113 118.125C109.924 118.393 109.732 118.659 109.538 118.923C100.458 106.763 86.0646 98.8883 69.8582 98.8883C53.4029 98.8883 39.8119 106.442 30.7252 118.189C28.0831 114.462 25.9546 110.345 24.4427 105.943L24.4402 105.935C22.691 100.981 21.77 95.6398 21.77 90.0752C21.77 82.9005 23.3173 76.0751 26.1282 69.955L26.1299 69.9512C33.7632 53.1249 50.7035 41.4285 70.3907 41.4285ZM31.8191 119.672C40.6958 131.24 54.6733 138.696 70.3907 138.696C85.8025 138.696 99.5259 131.541 108.417 120.385C99.6722 108.418 85.6533 100.658 69.8582 100.658C53.8054 100.658 40.5959 108.096 31.8191 119.672ZM71.0258 55.5238C70.8191 55.5172 70.6116 55.5139 70.4033 55.5139C60.9024 55.5139 53.0155 62.4559 51.5408 71.5418C51.5315 71.5991 51.5225 71.6565 51.5137 71.7139C51.3689 72.6626 51.2938 73.6343 51.2938 74.6234C51.2938 84.9677 59.51 93.3975 69.7735 93.7235C69.9784 93.7301 70.1842 93.7333 70.3907 93.7333C80.9408 93.7333 89.5006 85.1735 89.5006 74.6234C89.5006 64.2858 81.2822 55.8591 71.0258 55.5238ZM49.9017 78.599C49.6534 77.312 49.5234 75.983 49.5234 74.6238C49.5234 73.4896 49.6139 72.3764 49.7881 71.2911C51.3825 61.3467 59.9965 53.7435 70.3907 53.7435C70.6227 53.7435 70.8539 53.7473 71.0841 53.7548C82.2969 54.1143 91.2832 63.324 91.2832 74.6238C91.2832 86.1515 81.9309 95.5037 70.4033 95.5037C70.1691 95.5037 69.9358 95.4999 69.7035 95.4922C59.8424 95.173 51.7148 88.0085 49.9017 78.599ZM124.43 36.8926C124.75 36.5233 124.71 35.9644 124.341 35.6442C123.972 35.324 123.413 35.3638 123.093 35.733L109.441 51.4777L104.541 46.6925C104.191 46.351 103.631 46.3576 103.289 46.7073C102.948 47.057 102.955 47.6173 103.304 47.9588L108.876 53.4001C109.05 53.5705 109.287 53.6613 109.531 53.6512C109.774 53.6411 110.003 53.531 110.163 53.3467L124.43 36.8926Z" clip-rule="evenodd"/><defs><linearGradient id="a" x1="20" x2="139.243" y1="20" y2="45.785" gradientUnits="userSpaceOnUse"><stop stop-color="color(display-p3 .2322 0 .7255)"/><stop offset="1" stop-color="color(display-p3 .144 .5258 .7142)"/></linearGradient></defs></svg>