<svg width="91" height="108" viewBox="0 0 91 108" fill="none" xmlns="http://www.w3.org/2000/svg">
<path d="M52.6764 49.8982L52.6614 49.0133L52.6471 49.0136L52.6329 49.0143L52.6764 49.8982ZM54.1075 49.8331V48.9481H54.077L54.0466 48.9502L54.1075 49.8331ZM54.1481 49.8331V50.7181H54.177L54.2057 50.7163L54.1481 49.8331ZM55.2377 49.7437L55.3178 50.6252L55.3303 50.6238L55.2377 49.7437ZM55.3922 49.7274L55.3387 48.8441L55.3191 48.8453L55.2996 48.8473L55.3922 49.7274ZM56.1809 49.638V48.753H56.1122L56.0443 48.7636L56.1809 49.638ZM56.5387 49.5973L56.4817 48.7142L56.4168 48.7184L56.3533 48.732L56.5387 49.5973ZM57.2705 49.5079L57.1535 48.6307L57.1392 48.6326L57.125 48.6349L57.2705 49.5079ZM58.3682 49.3371L58.2227 48.4641L58.2099 48.4664L58.3682 49.3371ZM59.6367 49.1095L59.807 49.9779L59.8385 49.9717L59.8695 49.9633L59.6367 49.1095ZM59.7261 49.0851L59.5456 48.2187L59.5193 48.2242L59.4933 48.2313L59.7261 49.0851ZM60.8726 48.8249L60.699 47.9571L60.674 47.9621L60.6492 47.9685L60.8726 48.8249ZM60.9539 48.8086L61.1275 49.6764L61.1482 49.6723L61.1686 49.6672L60.9539 48.8086ZM61.8972 48.5565L61.6719 47.7007L61.6615 47.7034L61.6511 47.7064L61.8972 48.5565ZM62.0516 48.5159L61.8505 47.654L61.8384 47.6569L61.8264 47.66L62.0516 48.5159ZM62.7591 48.3126L62.4984 47.4668L62.4882 47.4701L62.7591 48.3126ZM66.0522 47.0685L65.7003 46.2565L65.6874 46.2621L65.6747 46.2681L66.0522 47.0685ZM66.7677 46.727L66.3842 45.9293L66.372 45.9355L66.7677 46.727ZM67.9549 46.0847L68.4151 46.8406L68.4243 46.835L68.4335 46.8291L67.9549 46.0847ZM68.3127 45.8732L68.7518 46.6416L68.7828 46.6239L68.8124 46.6037L68.3127 45.8732ZM68.4672 45.7675L67.9886 45.0231L67.9779 45.03L67.9674 45.0371L68.4672 45.7675ZM68.8005 45.548L69.2791 46.2925L69.2813 46.291L68.8005 45.548ZM69.9389 44.7024L70.6602 44.1896L70.1084 43.4133L69.3747 44.0206L69.9389 44.7024ZM70.8089 47.0604L71.6905 46.9826L71.6902 46.9788L70.8089 47.0604ZM71.0285 49.5486L71.697 50.1285L71.9431 49.8448L71.9101 49.4708L71.0285 49.5486ZM29.535 45.6212H28.65V45.6625L28.6538 45.7036L29.535 45.6212ZM29.5106 45.3203L30.3925 45.2468L30.3925 45.2458L29.5106 45.3203ZM69.9389 44.704L70.4888 45.3974L71.1469 44.8755L70.66 44.191L69.9389 44.704ZM69.1989 45.2732L69.7003 46.0024L69.7079 45.9972L69.7154 45.9918L69.1989 45.2732ZM68.8005 45.5496L69.2791 46.2941L69.2813 46.2926L68.8005 45.5496ZM68.4671 45.7692L67.9885 45.0247L67.9779 45.0316L67.9674 45.0388L68.4671 45.7692ZM68.3126 45.8749L68.7517 46.6433L68.7828 46.6255L68.8123 46.6053L68.3126 45.8749ZM67.9548 46.0863L68.415 46.8422L68.4243 46.8366L68.4334 46.8307L67.9548 46.0863ZM66.7677 46.7286L66.3842 45.9309L66.3719 45.9371L66.7677 46.7286ZM66.0521 47.0702L65.7003 46.2581L65.6874 46.2637L65.6747 46.2697L66.0521 47.0702ZM62.759 48.3142L62.4983 47.4684L62.4882 47.4717L62.759 48.3142ZM62.0516 48.5175L61.8505 47.6557L61.8384 47.6585L61.8264 47.6616L62.0516 48.5175ZM61.8971 48.5582L61.6719 47.7023L61.6614 47.7051L61.651 47.7081L61.8971 48.5582ZM60.9539 48.8102L61.1275 49.678L61.1507 49.6734L61.1737 49.6675L60.9539 48.8102ZM60.8726 48.8265L60.699 47.9587L60.6739 47.9637L60.6492 47.9702L60.8726 48.8265ZM59.7261 49.0867L59.5456 48.2203L59.5192 48.2258L59.4932 48.2329L59.7261 49.0867ZM59.6366 49.1111L59.8069 49.9795L59.8385 49.9734L59.8695 49.9649L59.6366 49.1111ZM58.3682 49.3388L58.2227 48.4657L58.2099 48.468L58.3682 49.3388ZM57.2705 49.5095L57.1535 48.6323L57.1392 48.6342L57.125 48.6366L57.2705 49.5095ZM56.5386 49.599L56.4817 48.7158L56.4168 48.72L56.3532 48.7336L56.5386 49.599ZM56.1809 49.6396V48.7546H56.1121L56.0442 48.7652L56.1809 49.6396ZM55.3921 49.7291L55.3386 48.8457L55.319 48.8469L55.2995 48.8489L55.3921 49.7291ZM55.2377 49.7453L55.3178 50.6268L55.3303 50.6255L55.2377 49.7453ZM54.1481 49.8348V50.7198H54.1769L54.2057 50.7179L54.1481 49.8348ZM54.1074 49.8348V48.9498H54.0769L54.0465 48.9519L54.1074 49.8348ZM52.6763 49.8998L52.6613 49.0149L52.6471 49.0152L52.6329 49.0159L52.6763 49.8998ZM29.6732 40.6302L29.0411 40.0108L28.704 40.3548L28.8098 40.8246L29.6732 40.6302ZM35.2349 32.4421L34.8212 31.6598L34.5591 31.7984L34.4334 32.0669L35.2349 32.4421ZM70.7113 34.9953L71.5764 35.1819L71.6774 34.7138L71.3407 34.3732L70.7113 34.9953ZM66.3286 38.7926L66.3898 39.6755L66.3914 39.6754L66.3286 38.7926ZM64.4503 38.9227L64.3891 38.0398L64.3853 38.0401L64.4503 38.9227ZM63.1249 39.0203L63.1822 39.9034L63.1899 39.9029L63.1249 39.0203ZM63.1249 42.4435L63.0643 43.3264L63.0652 43.3265L63.1249 42.4435ZM64.2064 42.5167L64.2706 41.634L64.2661 41.6337L64.2064 42.5167ZM66.3286 42.6712L66.2643 43.5538L66.2662 43.554L66.3286 42.6712ZM72.8041 96.3279L73.6852 96.4103L73.9138 93.965L72.178 95.7024L72.8041 96.3279ZM29.5136 96.3279L28.6317 96.4025L28.6317 96.4028L29.5136 96.3279ZM29.5461 90.8069L30.4249 90.7025L28.6693 90.6864L29.5461 90.8069ZM72.7715 90.6605L73.6474 90.5334L71.8901 90.5818L72.7715 90.6605ZM72.7959 96.3361L71.9147 96.2548L71.6896 98.6956L73.422 96.9616L72.7959 96.3361ZM72.8041 90.2053V89.3203H71.9191V90.2053H72.8041ZM72.7797 90.6606L71.9055 90.5226L71.9009 90.5522L71.8982 90.582L72.7797 90.6606ZM29.5543 90.807L30.4331 90.7028L30.4324 90.6972L29.5543 90.807ZM72.8122 90.2053V91.0903H73.6972V90.2053H72.8122ZM61.4279 55.4788C61.4279 54.99 61.0317 54.5938 60.5429 54.5938C60.0542 54.5938 59.6579 54.99 59.6579 55.4788H61.4279ZM59.6579 77.2704C59.6579 77.7591 60.0542 78.1554 60.5429 78.1554C61.0317 78.1554 61.4279 77.7591 61.4279 77.2704H59.6579ZM61.4279 84.5396C61.4279 84.0508 61.0317 83.6546 60.5429 83.6546C60.0542 83.6546 59.6579 84.0508 59.6579 84.5396H61.4279ZM59.6579 99.07C59.6579 99.5588 60.0542 99.955 60.5429 99.955C61.0317 99.955 61.4279 99.5588 61.4279 99.07H59.6579ZM39.8 39.9L39.4756 40.7234L39.477 40.724L39.8 39.9ZM39.9545 34.1432L40.275 34.9681L40.2765 34.9675L39.9545 34.1432ZM50.2405 34.631L50.7294 33.8933L50.7287 33.8929L50.2405 34.631ZM52.4603 43.242L52.895 42.4711L52.8706 42.4573L52.8454 42.4451L52.4603 43.242ZM62.6975 43.5266L63.0333 44.3454L63.0387 44.3431L62.6975 43.5266ZM62.7035 37.9178L63.0142 37.0892L63.0134 37.0889L62.7035 37.9178ZM82.773 42.4461L82.8357 43.3289L83.0115 43.3164L83.169 43.2375L82.773 42.4461ZM79.5693 42.6738L79.6299 43.5567L79.632 43.5565L79.5693 42.6738ZM75.089 47.0646L74.2078 46.9829L74.2074 46.9867L75.089 47.0646ZM74.658 51.9433L73.7764 51.8655L73.7762 51.8678L74.658 51.9433ZM71.2348 51.9433L70.3532 52.0212L70.3533 52.0222L71.2348 51.9433ZM70.8038 47.0646L71.6854 46.9867L71.6851 46.983L70.8038 47.0646ZM69.9338 44.6984L70.658 44.1898L70.6574 44.1889L69.9338 44.6984ZM66.3317 42.6656L66.2674 43.5483L66.269 43.5484L66.3317 42.6656ZM64.2094 42.5111L64.2737 41.6285L64.2696 41.6282L64.2094 42.5111ZM63.1361 42.438L63.0755 43.3209L63.0759 43.3209L63.1361 42.438ZM63.1361 39.0066L63.1968 39.8895L63.2011 39.8892L63.1361 39.0066ZM64.4615 38.909L64.4003 38.0261L64.3965 38.0264L64.4615 38.909ZM66.3398 38.7789L66.4009 39.6618L66.4029 39.6617L66.3398 38.7789ZM70.7225 34.9817L69.8639 34.767L69.8604 34.781L69.8574 34.7951L70.7225 34.9817ZM70.8201 34.3881L71.6988 34.4935L71.7004 34.4798L71.7017 34.466L70.8201 34.3881ZM71.251 29.5094L70.3696 29.4305L70.3695 29.4315L71.251 29.5094ZM74.6743 29.5094L73.7925 29.5848L73.7927 29.5872L74.6743 29.5094ZM75.1052 34.3881L74.2237 34.466L74.2238 34.4668L75.1052 34.3881ZM79.5855 38.7789L79.6483 37.8962L79.6462 37.896L79.5855 38.7789ZM82.7892 39.0066L82.7265 39.8894L82.7285 39.8895L82.7892 39.0066ZM82.7892 42.438L82.7285 41.5551L82.5517 41.5672L82.3931 41.6465L82.7892 42.438ZM86.234 45.9431C86.234 45.4543 85.8378 45.0581 85.349 45.0581C84.8602 45.0581 84.464 45.4543 84.464 45.9431H86.234ZM84.464 48.5044C84.464 48.9932 84.8602 49.3894 85.349 49.3894C85.8378 49.3894 86.234 48.9932 86.234 48.5044H84.464ZM86.234 51.3657C86.234 50.877 85.8378 50.4807 85.349 50.4807C84.8602 50.4807 84.464 50.877 84.464 51.3657H86.234ZM84.464 53.9189C84.464 54.4077 84.8602 54.8039 85.349 54.8039C85.8378 54.8039 86.234 54.4077 86.234 53.9189H84.464ZM89.3325 50.8204C89.8213 50.8204 90.2175 50.4242 90.2175 49.9354C90.2175 49.4466 89.8213 49.0504 89.3325 49.0504V50.8204ZM86.7793 49.0504C86.2906 49.0504 85.8943 49.4466 85.8943 49.9354C85.8943 50.4242 86.2906 50.8204 86.7793 50.8204V49.0504ZM83.9181 50.8204C84.4068 50.8204 84.8031 50.4242 84.8031 49.9354C84.8031 49.4466 84.4068 49.0504 83.9181 49.0504V50.8204ZM81.3567 49.0504C80.868 49.0504 80.4717 49.4466 80.4717 49.9354C80.4717 50.4242 80.868 50.8204 81.3567 50.8204V49.0504ZM30.0889 41.4756C30.4339 41.1293 30.4329 40.569 30.0867 40.224C29.7405 39.879 29.1801 39.88 28.8351 40.2262L30.0889 41.4756ZM20.9731 46.3882L21.292 47.2138L21.295 47.2126L20.9731 46.3882ZM19.8591 46.3882L19.5371 47.2126L19.5401 47.2138L19.8591 46.3882ZM1.34435 10.4158L2.22923 10.4325L2.22931 10.4248L1.34435 10.4158ZM2.7917 8.91968L2.83634 9.80355L2.83911 9.8034L2.7917 8.91968ZM18.7126 1.92685L19.3302 2.56071L19.3302 2.56071L18.7126 1.92685ZM22.1196 1.92685L21.5019 2.56071L21.502 2.56071L22.1196 1.92685ZM38.0404 8.91968L37.993 9.80341L37.9954 9.80353L38.0404 8.91968ZM39.4878 10.4158L38.6028 10.4248L38.6029 10.4317L39.4878 10.4158ZM35.2352 32.4432L36.0367 32.8185L36.0368 32.8182L35.2352 32.4432ZM29.0413 40.0119C28.6992 40.361 28.7049 40.9213 29.054 41.2634C29.4031 41.6055 29.9634 41.5999 30.3055 41.2508L29.0413 40.0119ZM30.3357 41.2166C30.6604 40.8513 30.6275 40.2919 30.2622 39.9672C29.8969 39.6425 29.3375 39.6754 29.0128 40.0407L30.3357 41.2166ZM28.837 40.2224C28.4914 40.568 28.4914 41.1283 28.837 41.474C29.1827 41.8196 29.743 41.8196 30.0886 41.474L28.837 40.2224ZM15.1564 24.6737C14.7984 24.3409 14.2384 24.3613 13.9056 24.7193C13.5728 25.0773 13.5933 25.6372 13.9512 25.97L15.1564 24.6737ZM18.717 29.1923L18.1144 29.8405L18.1182 29.844L18.717 29.1923ZM19.7334 29.0622L18.9788 28.5998L18.9761 28.6043L19.7334 29.0622ZM27.0499 18.8158C27.3052 18.3991 27.1744 17.8542 26.7576 17.5988C26.3409 17.3435 25.796 17.4743 25.5407 17.8911L27.0499 18.8158ZM28.8098 40.823C29.4942 43.8625 32.4163 46.3486 36.3318 48.0547C40.2978 49.7827 45.5038 50.8157 51.1802 50.8157V49.0457C45.7006 49.0457 40.7427 48.0459 37.0389 46.432C33.2847 44.7962 31.0313 42.6312 30.5366 40.4342L28.8098 40.823ZM51.1802 50.8157C51.6935 50.8157 52.2049 50.8075 52.7199 50.7821L52.6329 49.0143C52.1559 49.0377 51.6752 49.0457 51.1802 49.0457V50.8157ZM52.6914 50.7831C53.1907 50.7746 53.6864 50.7493 54.1684 50.716L54.0466 48.9502C53.5853 48.9821 53.1216 49.0055 52.6614 49.0133L52.6914 50.7831ZM54.1075 50.7181H54.1481V48.9481H54.1075V50.7181ZM54.2057 50.7163C54.5928 50.691 54.9616 50.6575 55.3178 50.6251L55.1576 48.8623C54.7983 48.895 54.4515 48.9265 54.0905 48.95L54.2057 50.7163ZM55.3303 50.6238L55.4848 50.6076L55.2996 48.8473L55.1451 48.8636L55.3303 50.6238ZM55.4457 50.6108C55.7505 50.5924 56.0399 50.5558 56.3175 50.5124L56.0443 48.7636C55.8015 48.8015 55.5705 48.83 55.3387 48.8441L55.4457 50.6108ZM56.1809 50.523C56.3792 50.523 56.5648 50.4968 56.7241 50.4627L56.3533 48.732C56.2849 48.7466 56.2265 48.753 56.1809 48.753V50.523ZM56.5957 50.4805C56.8886 50.4616 57.1564 50.4241 57.416 50.3809L57.125 48.6349C56.8967 48.673 56.6929 48.7005 56.4817 48.7142L56.5957 50.4805ZM57.3875 50.3851C57.7638 50.335 58.152 50.276 58.5265 50.2079L58.2099 48.4664C57.8688 48.5284 57.509 48.5833 57.1535 48.6307L57.3875 50.3851ZM58.5137 50.2101C58.9579 50.1361 59.3814 50.0614 59.807 49.9779L59.4664 48.241C59.0626 48.3202 58.6567 48.3919 58.2227 48.4642L58.5137 50.2101ZM59.8695 49.9633L59.959 49.9389L59.4933 48.2313L59.4038 48.2557L59.8695 49.9633ZM59.9066 49.9515C60.2966 49.8702 60.6983 49.785 61.096 49.6812L60.6492 47.9685C60.2989 48.0599 59.9362 48.1373 59.5456 48.2187L59.9066 49.9515ZM61.0462 49.6927L61.1275 49.6764L60.7803 47.9408L60.699 47.9571L61.0462 49.6927ZM61.1686 49.6672C61.5004 49.5842 61.8205 49.5001 62.1432 49.4066L61.6511 47.7064C61.3558 47.7919 61.058 47.8704 60.7393 47.95L61.1686 49.6672ZM62.1224 49.4124L62.2769 49.3717L61.8264 47.66L61.6719 47.7007L62.1224 49.4124ZM62.2527 49.3777C62.5343 49.3121 62.7992 49.2293 63.0299 49.1552L62.4882 47.4701C62.2636 47.5423 62.0569 47.6059 61.8505 47.654L62.2527 49.3777ZM63.0197 49.1583C64.2337 48.7842 65.381 48.3635 66.4296 47.869L65.6747 46.2681C64.7231 46.7168 63.6588 47.1092 62.4984 47.4669L63.0197 49.1583ZM66.4041 47.8806C66.674 47.7636 66.9395 47.6306 67.1635 47.5186L66.372 45.9355C66.1406 46.0511 65.9183 46.162 65.7003 46.2565L66.4041 47.8806ZM67.1512 47.5246C67.5988 47.3095 68.0148 47.0843 68.4151 46.8406L67.4947 45.3287C67.1469 45.5404 66.7824 45.738 66.3843 45.9294L67.1512 47.5246ZM68.4335 46.8291C68.5229 46.7716 68.6279 46.7124 68.7518 46.6416L67.8736 45.1049C67.7697 45.1642 67.6146 45.2514 67.4763 45.3402L68.4335 46.8291ZM68.8124 46.6037L68.9669 46.498L67.9674 45.0371L67.8129 45.1428L68.8124 46.6037ZM68.9457 46.512C69.0098 46.4708 69.0708 46.4301 69.1248 46.3941C69.1805 46.357 69.2294 46.3244 69.2791 46.2925L68.322 44.8036C68.2579 44.8448 68.1969 44.8854 68.143 44.9214C68.0872 44.9586 68.0383 44.9911 67.9886 45.0231L68.9457 46.512ZM69.2813 46.291C69.4269 46.1968 69.6167 46.0583 69.7004 46.0008L68.6976 44.5423C68.5211 44.6636 68.4507 44.7203 68.3198 44.805L69.2813 46.291ZM69.7004 46.0008C69.9935 45.7993 70.2614 45.5842 70.5032 45.3842L69.3747 44.0206C69.1447 44.2108 68.9249 44.386 68.6976 44.5423L69.7004 46.0008ZM69.2176 45.2151C69.6081 45.7645 69.861 46.4211 69.9277 47.142L71.6902 46.9788C71.5943 45.9433 71.2292 44.99 70.6602 44.1896L69.2176 45.2151ZM69.9274 47.1382L70.1469 49.6263L71.9101 49.4708L71.6905 46.9826L69.9274 47.1382ZM70.36 48.9686C68.8477 50.7118 66.3109 52.2688 62.9838 53.3894C59.6691 54.5057 55.629 55.1685 51.1802 55.1685V56.9385C55.7977 56.9385 60.0311 56.2515 63.5487 55.0668C67.0538 53.8862 69.908 52.1907 71.697 50.1285L70.36 48.9686ZM51.1802 55.1685C45.3094 55.1685 40.1713 54.0148 36.4666 52.1957C32.7199 50.356 30.6416 47.9501 30.4162 45.5388L28.6538 45.7036C28.9651 49.0329 31.733 51.8432 35.6865 53.7845C39.682 55.7464 45.0982 56.9385 51.1802 56.9385V55.1685ZM30.42 45.6212C30.42 45.4784 30.393 45.2528 30.3925 45.2468L28.6287 45.3938C28.6316 45.4285 28.635 45.4615 28.6378 45.4881C28.6409 45.5179 28.643 45.5369 28.6452 45.5588C28.6473 45.5789 28.6485 45.5934 28.6492 45.6047C28.6496 45.6101 28.6498 45.6142 28.6499 45.617C28.65 45.6199 28.65 45.6212 28.65 45.6212H30.42ZM30.3925 45.2458C30.249 43.5478 30.2353 42.1299 30.3433 40.9273L28.5804 40.7691C28.4606 42.1034 28.4795 43.629 28.6287 45.3949L30.3925 45.2458ZM69.3889 44.0106C69.1479 44.2018 68.922 44.3823 68.6824 44.5545L69.7154 45.9918C69.9963 45.7899 70.2583 45.5802 70.4888 45.3974L69.3889 44.0106ZM68.6975 44.5439C68.521 44.6653 68.4506 44.7219 68.3197 44.8066L69.2813 46.2926C69.4268 46.1985 69.6167 46.0599 69.7003 46.0024L68.6975 44.5439ZM68.3219 44.8052C68.2578 44.8464 68.1969 44.887 68.1429 44.923C68.0871 44.9602 68.0383 44.9928 67.9885 45.0247L68.9457 46.5136C69.0098 46.4724 69.0707 46.4318 69.1247 46.3958C69.1805 46.3586 69.2293 46.326 69.2791 46.2941L68.3219 44.8052ZM67.9674 45.0388L67.8129 45.1445L68.8123 46.6053L68.9668 46.4996L67.9674 45.0388ZM67.8735 45.1065C67.7697 45.1658 67.6145 45.253 67.4763 45.3418L68.4334 46.8307C68.5229 46.7732 68.6279 46.714 68.7517 46.6433L67.8735 45.1065ZM67.4947 45.3303C67.1469 45.542 66.7823 45.7397 66.3842 45.931L67.1512 47.5263C67.5987 47.3111 68.0147 47.0859 68.415 46.8422L67.4947 45.3303ZM66.3719 45.9371C66.1406 46.0527 65.9182 46.1637 65.7003 46.2581L66.404 47.8822C66.6739 47.7652 66.9395 47.6322 67.1635 47.5202L66.3719 45.9371ZM65.6747 46.2697C64.7231 46.7184 63.6587 47.1108 62.4983 47.4685L63.0197 49.16C64.2336 48.7858 65.381 48.3651 66.4296 47.8706L65.6747 46.2697ZM62.4882 47.4717C62.2635 47.5439 62.0569 47.6075 61.8505 47.6557L62.2527 49.3794C62.5342 49.3137 62.7992 49.2309 63.0298 49.1568L62.4882 47.4717ZM61.8264 47.6616L61.6719 47.7023L62.1223 49.414L62.2768 49.3734L61.8264 47.6616ZM61.651 47.7081C61.3574 47.7931 61.0536 47.871 60.7341 47.953L61.1737 49.6675C61.4884 49.5868 61.8189 49.5021 62.1432 49.4083L61.651 47.7081ZM60.7803 47.9424L60.699 47.9587L61.0462 49.6943L61.1275 49.678L60.7803 47.9424ZM60.6492 47.9702C60.2988 48.0616 59.9362 48.1389 59.5456 48.2203L59.9066 49.9531C60.2966 49.8718 60.6983 49.7866 61.096 49.6828L60.6492 47.9702ZM59.4932 48.2329L59.4038 48.2573L59.8695 49.9649L59.9589 49.9405L59.4932 48.2329ZM59.4663 48.2426C59.0625 48.3218 58.6567 48.3935 58.2227 48.4658L58.5137 50.2117C58.9578 50.1377 59.3813 50.063 59.8069 49.9795L59.4663 48.2426ZM58.2099 48.468C57.8688 48.53 57.5089 48.5849 57.1535 48.6323L57.3874 50.3868C57.7638 50.3366 58.152 50.2776 58.5265 50.2095L58.2099 48.468ZM57.125 48.6366C56.8967 48.6746 56.6929 48.7022 56.4817 48.7158L56.5956 50.4821C56.8885 50.4632 57.1564 50.4257 57.4159 50.3825L57.125 48.6366ZM56.3532 48.7336C56.2849 48.7482 56.2265 48.7546 56.1809 48.7546V50.5246C56.3792 50.5246 56.5647 50.4985 56.7241 50.4643L56.3532 48.7336ZM56.0442 48.7652C55.8015 48.8032 55.5705 48.8316 55.3386 48.8457L55.4457 50.6124C55.7505 50.594 56.0399 50.5574 56.3175 50.514L56.0442 48.7652ZM55.2995 48.8489L55.145 48.8652L55.3303 50.6255L55.4848 50.6092L55.2995 48.8489ZM55.1575 48.864C54.7982 48.8966 54.4515 48.9281 54.0905 48.9516L54.2057 50.7179C54.5927 50.6926 54.9615 50.6591 55.3178 50.6267L55.1575 48.864ZM54.1481 48.9498H54.1074V50.7198H54.1481V48.9498ZM54.0465 48.9519C53.5853 48.9837 53.1215 49.0071 52.6613 49.0149L52.6913 50.7847C53.1906 50.7762 53.6863 50.7509 54.1683 50.7177L54.0465 48.9519ZM52.6329 49.0159C52.1558 49.0393 51.6751 49.0473 51.1802 49.0473V50.8173C51.6935 50.8173 52.2048 50.8091 52.7198 50.7837L52.6329 49.0159ZM51.1802 49.0473C45.7006 49.0473 40.7427 48.0475 37.0388 46.4337C33.2846 44.7978 31.0312 42.6329 30.5366 40.4359L28.8098 40.8246C29.4941 43.8641 32.4162 46.3502 36.3318 48.0563C40.2977 49.7844 45.5038 50.8173 51.1802 50.8173V49.0473ZM30.3053 41.2497C32.771 38.7335 34.6289 35.8239 36.0364 32.8174L34.4334 32.0669C33.0926 34.9311 31.3403 37.6646 29.0411 40.0108L30.3053 41.2497ZM35.6486 33.2245C39.443 31.218 44.9764 29.9364 51.1802 29.9364V28.1664C44.7643 28.1664 38.9304 29.4868 34.8212 31.6598L35.6486 33.2245ZM51.1802 29.9364C55.4061 29.9364 59.3296 30.5314 62.6076 31.5483C65.8982 32.5691 68.4796 33.9964 70.0819 35.6175L71.3407 34.3732C69.4629 32.4734 66.5842 30.9288 63.132 29.8578C59.6672 28.783 55.5652 28.1664 51.1802 28.1664V29.9364ZM69.8462 34.8087C69.481 36.5019 68.04 37.7836 66.2658 37.9098L66.3914 39.6754C68.9593 39.4926 71.0472 37.6356 71.5764 35.1819L69.8462 34.8087ZM66.2675 37.9097L64.3891 38.0398L64.5115 39.8056L66.3898 39.6755L66.2675 37.9097ZM64.3853 38.0401L63.0599 38.1377L63.1899 39.9029L64.5153 39.8053L64.3853 38.0401ZM63.0676 38.1371C59.8022 38.349 59.8662 43.1067 63.0643 43.3264L63.1856 41.5606C62.6665 41.5249 62.4121 41.1708 62.4121 40.7288C62.4121 40.5038 62.486 40.3024 62.6033 40.1632C62.7093 40.0374 62.8822 39.9229 63.1822 39.9034L63.0676 38.1371ZM63.0652 43.3265L64.1466 43.3997L64.2661 41.6337L63.1847 41.5605L63.0652 43.3265ZM64.1421 43.3993L66.2643 43.5538L66.3929 41.7885L64.2706 41.634L64.1421 43.3993ZM66.2662 43.554C67.488 43.6403 68.5435 44.2691 69.2177 45.2169L70.66 44.191C69.6917 42.8296 68.1615 41.9135 66.391 41.7884L66.2662 43.554ZM71.9229 96.2456C71.6974 98.6573 69.6205 101.065 65.8751 102.907C62.1715 104.728 57.0335 105.883 51.1588 105.883V107.653C57.2451 107.653 62.6614 106.459 66.6561 104.495C70.6089 102.552 73.374 99.7392 73.6852 96.4103L71.9229 96.2456ZM51.1588 105.883C45.2837 105.883 40.1333 104.73 36.4236 102.909C32.6706 101.068 30.5999 98.6622 30.3954 96.2531L28.6317 96.4028C28.9152 99.7424 31.6866 102.557 35.644 104.498C39.6446 106.461 45.073 107.653 51.1588 107.653V105.883ZM30.3954 96.2534C30.2118 94.0817 30.2313 92.3217 30.4229 90.9273L28.6693 90.6864C28.4543 92.2518 28.4413 94.1508 28.6317 96.4025L30.3954 96.2534ZM28.6673 90.9112C29.049 94.1272 31.9421 96.7751 35.9003 98.5862C39.916 100.423 45.2845 101.531 51.1507 101.531V99.7606C45.4868 99.7606 40.3783 98.6886 36.6368 96.9766C32.8379 95.2385 30.6937 92.967 30.4249 90.7025L28.6673 90.9112ZM51.1507 101.531C57.0182 101.531 62.4305 100.405 66.4699 98.5391C70.4478 96.702 73.3609 94.0099 73.653 90.7392L71.8901 90.5818C71.6862 92.8648 69.5539 95.1652 65.7278 96.9322C61.9634 98.6708 56.8132 99.7606 51.1507 99.7606V101.531ZM71.8957 90.7876C72.102 92.2088 72.1221 94.0046 71.9147 96.2548L73.6772 96.4173C73.8926 94.0816 73.8802 92.137 73.6474 90.5334L71.8957 90.7876ZM73.422 96.9616L73.4302 96.9534L72.178 95.7024L72.1699 95.7106L73.422 96.9616ZM71.9191 90.2053C71.9191 90.369 71.9174 90.4473 71.9055 90.5226L73.6539 90.7986C73.6908 90.565 73.6891 90.3505 73.6891 90.2053H71.9191ZM71.8982 90.582C71.6939 92.8726 69.583 95.172 65.7747 96.9358C62.0249 98.6725 56.8754 99.7607 51.1588 99.7607V101.531C57.078 101.531 62.491 100.407 66.5186 98.5419C70.4878 96.7035 73.3695 94.0104 73.6612 90.7392L71.8982 90.582ZM51.1588 99.7607C45.4409 99.7607 40.3331 98.6903 36.6062 96.9802C32.825 95.2452 30.7024 92.9747 30.4331 90.7028L28.6754 90.9111C29.0566 94.1278 31.9184 96.7767 35.868 98.5889C39.8718 100.426 45.2411 101.531 51.1588 101.531V99.7607ZM30.4324 90.6972C30.4141 90.5509 30.4067 90.387 30.4067 90.2053H28.6367C28.6367 90.4301 28.6456 90.6727 28.6761 90.9167L30.4324 90.6972ZM30.4067 90.2053C30.4067 87.8554 32.411 85.4704 36.2465 83.6203C40.0196 81.8003 45.2939 80.6498 51.167 80.6498V78.8798C45.0872 78.8798 39.5389 80.067 35.4775 82.026C31.4787 83.9549 28.6367 86.7901 28.6367 90.2053H30.4067ZM51.167 80.6498C57.0401 80.6498 62.3144 81.8003 66.0874 83.6203C69.923 85.4704 71.9272 87.8554 71.9272 90.2053H73.6972C73.6972 86.7901 70.8553 83.9549 66.8564 82.026C62.7951 80.067 57.2467 78.8798 51.167 78.8798V80.6498ZM72.8122 89.3203H72.8041V91.0903H72.8122V89.3203ZM72.0723 53.51V92.7755H73.8423V53.51H72.0723ZM59.6579 55.4788V77.2704H61.4279V55.4788H59.6579ZM59.6579 84.5396V99.07H61.4279V84.5396H59.6579ZM28.6367 42.6563V92.777H30.4067V42.6563H28.6367ZM47.5084 40.4123C47.3564 39.5405 47.3566 39.5404 47.3567 39.5404C47.3567 39.5404 47.3569 39.5404 47.3569 39.5404C47.357 39.5404 47.357 39.5403 47.357 39.5404C47.3569 39.5404 47.3566 39.5404 47.356 39.5405C47.3548 39.5407 47.3525 39.5411 47.3493 39.5417C47.3427 39.5428 47.332 39.5445 47.3174 39.5469C47.2882 39.5516 47.2432 39.5586 47.1838 39.5673C47.065 39.5846 46.8888 39.6085 46.6661 39.6334C46.22 39.6835 45.5908 39.7376 44.8641 39.7531C43.391 39.7847 41.601 39.6555 40.123 39.0761L39.477 40.724C41.2759 41.4293 43.3401 41.5562 44.902 41.5227C45.6927 41.5058 46.3762 41.4471 46.8634 41.3924C47.1074 41.3651 47.303 41.3386 47.4393 41.3187C47.5075 41.3088 47.561 41.3005 47.5982 41.2945C47.6169 41.2915 47.6315 41.2891 47.6419 41.2873C47.6471 41.2864 47.6513 41.2857 47.6543 41.2852C47.6559 41.2849 47.6572 41.2847 47.6582 41.2845C47.6587 41.2845 47.6591 41.2844 47.6595 41.2843C47.6597 41.2843 47.6599 41.2842 47.66 41.2842C47.6602 41.2842 47.6604 41.2842 47.5084 40.4123ZM40.1244 39.0766C38.6291 38.4875 38.0743 37.6496 38.0475 37.0778C38.0236 36.5672 38.4166 35.6901 40.275 34.9681L39.634 33.3182C37.5162 34.1411 36.2017 35.5001 36.2794 37.1606C36.3543 38.7598 37.7103 40.0279 39.4756 40.7234L40.1244 39.0766ZM40.2765 34.9675C44.0191 33.5057 47.9318 34.165 49.7522 35.3692L50.7287 33.8929C48.3697 32.3325 43.8422 31.6745 39.6325 33.3188L40.2765 34.9675ZM49.7515 35.3687C50.4135 35.8075 50.6576 36.5837 50.6234 37.6748C50.588 38.7995 50.2878 39.837 50.1396 40.7407L51.8863 41.0272C51.9901 40.394 52.3526 39.0003 52.3925 37.7304C52.4334 36.4268 52.1653 34.845 50.7294 33.8933L49.7515 35.3687ZM50.1396 40.7407C49.95 41.8969 50.5126 42.7562 51.0131 43.2618C51.2659 43.5173 51.524 43.7066 51.7164 43.8316C51.8137 43.8949 51.8972 43.9437 51.9591 43.9779C51.9901 43.9951 52.0159 44.0087 52.0355 44.0188C52.0453 44.0239 52.0536 44.0281 52.0603 44.0314C52.0636 44.0331 52.0665 44.0345 52.069 44.0358C52.0702 44.0364 52.0714 44.0369 52.0724 44.0374C52.0729 44.0377 52.0734 44.0379 52.0739 44.0382C52.0741 44.0383 52.0745 44.0384 52.0746 44.0385C52.0749 44.0386 52.0752 44.0388 52.4603 43.242C52.8454 42.4451 52.8457 42.4453 52.846 42.4454C52.846 42.4455 52.8463 42.4456 52.8465 42.4457C52.8469 42.4459 52.8472 42.446 52.8475 42.4462C52.8482 42.4465 52.8487 42.4467 52.8491 42.447C52.85 42.4474 52.8505 42.4476 52.8506 42.4477C52.8508 42.4478 52.8496 42.4472 52.8471 42.4459C52.8419 42.4432 52.8314 42.4377 52.8165 42.4294C52.7864 42.4128 52.7391 42.3854 52.681 42.3476C52.5626 42.2707 52.4116 42.1586 52.2711 42.0167C51.9849 41.7275 51.8238 41.4077 51.8863 41.0272L50.1396 40.7407ZM52.0256 44.0128C56.2515 46.396 60.671 45.3141 63.0332 44.3454L62.3617 42.7077C60.203 43.5929 56.4262 44.4625 52.895 42.4711L52.0256 44.0128ZM63.0387 44.3431C63.688 44.0718 64.3136 43.658 64.8275 43.1441L63.5759 41.8925C63.2279 42.2405 62.7965 42.526 62.3562 42.71L63.0387 44.3431ZM54.2226 37.7064C54.501 38.5465 54.5008 38.5466 54.5006 38.5467C54.5005 38.5467 54.5003 38.5467 54.5002 38.5468C54.4999 38.5469 54.4998 38.5469 54.4997 38.547C54.4995 38.547 54.4995 38.547 54.4998 38.5469C54.5004 38.5467 54.502 38.5462 54.5045 38.5454C54.5096 38.5438 54.5187 38.5409 54.5315 38.5369C54.5571 38.5291 54.5978 38.5168 54.6526 38.5013C54.7624 38.4702 54.9283 38.4259 55.1426 38.3769C55.5717 38.2787 56.191 38.1621 56.9381 38.0926C58.4387 37.9531 60.4151 38.0072 62.3936 38.7468L63.0134 37.0889C60.7068 36.2266 58.4428 36.175 56.7742 36.3302C55.9367 36.4081 55.2393 36.539 54.7478 36.6515C54.5017 36.7078 54.3064 36.7597 54.17 36.7984C54.1017 36.8177 54.0481 36.8338 54.0102 36.8455C53.9912 36.8513 53.9761 36.8561 53.9651 36.8596C53.9596 36.8613 53.9551 36.8628 53.9516 36.8639C53.9499 36.8645 53.9484 36.865 53.9472 36.8654C53.9465 36.8656 53.946 36.8658 53.9455 36.8659C53.9453 36.866 53.945 36.8661 53.9448 36.8662C53.9445 36.8663 53.9443 36.8664 54.2226 37.7064ZM62.3927 38.7465C63.102 39.0125 63.5703 39.3026 63.8612 39.5698L65.0584 38.2661C64.5525 37.8015 63.8661 37.4086 63.0142 37.0892L62.3927 38.7465ZM82.7102 41.5633L79.5065 41.791L79.632 43.5565L82.8357 43.3289L82.7102 41.5633ZM79.5086 41.7909C76.7059 41.9835 74.4671 44.1881 74.2078 46.9829L75.9702 47.1464C76.15 45.2088 77.7002 43.6893 79.6299 43.5567L79.5086 41.7909ZM74.2074 46.9867L73.7765 51.8655L75.5396 52.0212L75.9705 47.1425L74.2074 46.9867ZM73.7762 51.8678C73.6918 52.8543 72.2092 52.9033 72.1163 51.8644L70.3533 52.0222C70.6344 55.1628 75.2665 55.2118 75.5398 52.0188L73.7762 51.8678ZM71.6851 46.983C71.5891 45.9469 71.2238 44.9954 70.658 44.1898L69.2096 45.2071C69.6032 45.7675 69.8559 46.426 69.9226 47.1462L71.6851 46.983ZM70.6574 44.1889C69.6954 42.8229 68.1548 41.9079 66.3944 41.7829L66.269 43.5484C67.4846 43.6348 68.5459 44.2647 69.2102 45.208L70.6574 44.1889ZM66.3959 41.783L64.2737 41.6285L64.1452 43.3938L66.2674 43.5483L66.3959 41.783ZM64.2696 41.6282L63.1963 41.555L63.0759 43.3209L64.1492 43.3941L64.2696 41.6282ZM63.1968 41.5551C62.1655 41.4842 62.1655 39.9604 63.1968 39.8895L63.0755 38.1237C59.846 38.3456 59.846 43.099 63.0755 43.3209L63.1968 41.5551ZM63.2011 39.8892L64.5265 39.7916L64.3965 38.0264L63.0711 38.124L63.2011 39.8892ZM64.5226 39.7919L66.4009 39.6618L66.2786 37.896L64.4003 38.0261L64.5226 39.7919ZM66.4029 39.6617C68.9614 39.4789 71.0582 37.623 71.5876 35.1683L69.8574 34.7951C69.4924 36.4872 68.044 37.7699 66.2767 37.8962L66.4029 39.6617ZM71.5811 35.1963C71.6452 34.9398 71.675 34.6921 71.6988 34.4935L69.9414 34.2826C69.9164 34.4907 69.8974 34.6333 69.8639 34.767L71.5811 35.1963ZM71.7017 34.466L72.1326 29.5872L70.3695 29.4315L69.9385 34.3102L71.7017 34.466ZM72.1325 29.5883C72.2255 28.5494 73.7081 28.5984 73.7925 29.5848L75.5561 29.4339C75.2827 26.2409 70.6506 26.2899 70.3696 29.4305L72.1325 29.5883ZM73.7927 29.5872L74.2237 34.466L75.9868 34.3102L75.5558 29.4315L73.7927 29.5872ZM74.2238 34.4668C74.4739 37.2665 76.7247 39.4694 79.5248 39.6618L79.6462 37.896C77.714 37.7632 76.1594 36.242 75.9867 34.3093L74.2238 34.4668ZM79.5228 39.6617L82.7265 39.8894L82.8519 38.1238L79.6483 37.8962L79.5228 39.6617ZM82.7285 39.8895C83.7598 39.9604 83.7598 41.4842 82.7285 41.5551L82.8499 43.3209C86.0794 43.099 86.0794 38.3456 82.8499 38.1237L82.7285 39.8895ZM82.3931 41.6465L82.3769 41.6547L83.169 43.2375L83.1853 43.2294L82.3931 41.6465ZM84.464 45.9431V48.5044H86.234V45.9431H84.464ZM84.464 51.3657V53.9189H86.234V51.3657H84.464ZM89.3325 49.0504H86.7793V50.8204H89.3325V49.0504ZM83.9181 49.0504H81.3567V50.8204H83.9181V49.0504ZM28.8351 40.2262C26.6416 42.4276 23.9473 44.2768 20.6512 45.5639L21.295 47.2126C24.8291 45.8326 27.729 43.8439 30.0889 41.4756L28.8351 40.2262ZM20.6541 45.5627C20.5016 45.6216 20.3306 45.6216 20.178 45.5627L19.5401 47.2138C20.1032 47.4313 20.729 47.4313 21.292 47.2138L20.6541 45.5627ZM20.1811 45.5639C11.5993 42.2117 7.07731 35.0062 4.71012 27.7789C2.34149 20.5473 2.17311 13.4091 2.22919 10.4325L0.459508 10.3991C0.401759 13.464 0.57082 20.8278 3.02805 28.3299C5.48673 35.8364 10.2791 43.5963 19.5371 47.2126L20.1811 45.5639ZM2.22931 10.4248C2.23263 10.0955 2.49095 9.82099 2.83634 9.80355L2.74706 8.0358C1.48248 8.09967 0.472332 9.12619 0.459396 10.4069L2.22931 10.4248ZM2.83911 9.8034C11.1639 9.35683 16.7059 5.11771 19.3302 2.56071L18.095 1.29298C15.6454 3.67975 10.4868 7.62061 2.7443 8.03595L2.83911 9.8034ZM19.3302 2.56071C19.9379 1.9686 20.8943 1.9686 21.5019 2.56071L22.7372 1.29298C21.4422 0.0311771 19.39 0.0311771 18.095 1.29298L19.3302 2.56071ZM21.502 2.56071C24.1262 5.11771 29.6683 9.35683 37.993 9.8034L38.0879 8.03595C30.3454 7.62061 25.1867 3.67975 22.7372 1.29298L21.502 2.56071ZM37.9954 9.80353C38.3364 9.82093 38.5995 10.0988 38.6028 10.4248L40.3728 10.4069C40.3598 9.12282 39.3382 8.09974 38.0855 8.03582L37.9954 9.80353ZM38.6029 10.4317C38.6673 14.0189 38.4119 23.5625 34.4335 32.0683L36.0368 32.8182C40.1896 23.9395 40.4384 14.0658 40.3727 10.3999L38.6029 10.4317ZM34.4337 32.068C33.0928 34.9322 31.3405 37.6657 29.0413 40.0119L30.3055 41.2508C32.7712 38.7346 34.6292 35.825 36.0367 32.8185L34.4337 32.068ZM29.0128 40.0407C28.9681 40.0909 28.9141 40.1454 28.837 40.2224L30.0886 41.474C30.158 41.4046 30.2503 41.3127 30.3357 41.2166L29.0128 40.0407ZM13.9512 25.97L18.1144 29.8405L19.3196 28.5442L15.1564 24.6737L13.9512 25.97ZM18.1182 29.844C18.8038 30.474 19.9713 30.3792 20.4907 29.5201L18.9761 28.6043C19.0266 28.5207 19.103 28.4895 19.1507 28.4837C19.196 28.4781 19.2594 28.4889 19.3158 28.5407L18.1182 29.844ZM20.488 29.5246L27.0499 18.8158L25.5407 17.8911L18.9788 28.5998L20.488 29.5246ZM72.1164 51.8655L71.6854 46.9867L69.9223 47.1425L70.3532 52.0212L72.1164 51.8655Z" fill="url(#paint0_linear_13381_56474)"/>
<defs>
<linearGradient id="paint0_linear_13381_56474" x1="1.33594" y1="1.23163" x2="92.6541" y2="18.2977" gradientUnits="userSpaceOnUse">
<stop stop-color="#3B00B9"/>
<stop offset="1" stop-color="#2586B6"/>
</linearGradient>
</defs>
</svg>
