<svg width="120" height="120" viewBox="0 0 120 120" fill="none" xmlns="http://www.w3.org/2000/svg">
<path d="M85.3996 55.3158H92.1826C94.6807 55.3158 96.7018 57.3369 96.7018 59.8351V97.4363H97.4779C99.968 97.4363 101.997 95.4151 101.997 92.9251V54.5397C101.997 52.0497 99.968 50.0285 97.4779 50.0285H92.3119M85.3996 55.3158C88.1484 53.9172 90.4282 52.1062 92.3119 50.0285M85.3996 55.3158C84.7044 55.6715 83.9682 55.9949 83.2083 56.2941C82.8607 56.4315 82.4645 56.4315 82.1169 56.2941C81.3569 55.9949 80.6212 55.6716 79.926 55.3158C77.1772 53.9172 74.8974 52.1063 73.0137 50.0285C64.4198 40.5939 63.9671 25.8153 64.0479 21.191C64.0641 20.4068 64.6785 19.7681 65.4627 19.7277C73.3047 19.3073 78.5273 15.3216 81.0012 12.9043C81.9309 11.9989 83.3942 11.9989 84.324 12.9043C86.7978 15.3216 92.0285 19.3073 99.8624 19.7277C100.647 19.7681 101.261 20.4068 101.277 21.191C101.358 25.8153 100.906 40.5938 92.3119 50.0285M82.6667 37.3694V40.1424M79.9273 55.3152H57.711C56.0375 55.3152 54.5014 54.3854 53.7172 52.906L51.025 47.7885C50.2408 46.309 48.7048 45.3793 47.0313 45.3793H28.2994V44.6032C28.2994 42.105 30.3205 40.0839 32.8186 40.0839H52.3186C54.0002 40.0839 55.5362 41.0136 56.3204 42.4931L59.0126 47.6106C59.7968 49.0982 61.3328 50.0279 63.0063 50.0279H73.015C74.8987 52.1056 77.1785 53.9165 79.9273 55.3152ZM96.7061 59.8348V98.2121C96.7061 100.71 94.685 102.731 92.1869 102.731H91.6533V64.8796C91.6533 62.5431 89.8747 60.619 87.6029 60.3926C87.4655 60.3765 87.3281 60.3684 87.1906 60.3684H52.7181C52.613 60.3684 52.5079 60.3684 52.4028 60.3603C50.8344 60.2714 49.4115 59.3578 48.6759 57.9511L45.9837 52.8417C45.248 51.4511 43.8494 50.5457 42.2971 50.4325C42.2082 50.4244 42.1193 50.4244 42.0304 50.4244H23.0074V49.8908C23.0074 47.4008 25.0286 45.3796 27.5267 45.3796H47.0347C48.7082 45.3796 50.2443 46.3094 51.0285 47.7888L53.7206 52.9063C54.5048 54.3858 56.0409 55.3155 57.7144 55.3155H79.9307C80.626 55.6713 81.3617 55.9946 82.1216 56.2938C82.4693 56.4312 82.8654 56.4312 83.213 56.2938C83.973 55.9946 84.7087 55.6713 85.4039 55.3155H92.1869C94.685 55.3155 96.7061 57.3367 96.7061 59.8348ZM87.1814 60.367H52.7089C51.0354 60.367 49.4913 59.4373 48.7151 57.9497L46.023 52.8403C45.2388 51.3527 43.7027 50.423 42.0211 50.423H22.5131C20.0231 50.423 18.002 52.4441 18.002 54.9423V103.264C18.002 105.754 20.0231 107.775 22.5131 107.775H87.1814C89.6714 107.775 91.6926 105.754 91.6926 103.264V64.8782C91.6926 62.3881 89.6714 60.367 87.1814 60.367ZM69.3938 93.9655C67.3241 93.9655 65.6021 95.4612 65.2545 97.4338C65.206 97.6763 65.1817 97.9189 65.1817 98.1776C65.1817 100.506 67.0654 102.39 69.3938 102.39C71.7221 102.39 73.6139 100.506 73.6139 98.1776C73.6139 97.9189 73.5897 97.6763 73.5411 97.4338C73.1935 95.4612 71.4634 93.9655 69.3938 93.9655ZM85.5462 97.4338C85.1986 95.4612 83.4846 93.9655 81.4069 93.9655C79.3292 93.9655 77.6153 95.4612 77.2676 97.4338C77.2191 97.6763 77.1949 97.9189 77.1949 98.1776C77.1949 100.506 79.0785 102.39 81.4069 102.39C83.7352 102.39 85.6189 100.506 85.6189 98.1776C85.6189 97.9189 85.5947 97.6763 85.5462 97.4338ZM74.1536 32.76C74.1536 30.9975 75.5846 29.5747 77.3389 29.5747H78.8911V24.7886C78.8911 22.7109 80.5808 21.0212 82.6666 21.0212C84.7524 21.0212 86.434 22.7109 86.434 24.7886V29.5747H87.9863C89.7487 29.5747 91.1716 30.9975 91.1716 32.76V40.5939C91.1716 42.3563 89.7487 43.7792 87.9863 43.7792H77.3389C75.5846 43.7792 74.1536 42.3563 74.1536 40.5939V32.76ZM91.1707 32.7591V40.593C91.1707 42.3554 89.7478 43.7783 87.9853 43.7783H77.338C75.5837 43.7783 74.1527 42.3554 74.1527 40.593V32.7591C74.1527 30.9966 75.5837 29.5738 77.338 29.5738H78.8902V24.7877C78.8902 22.71 80.5799 21.0203 82.6657 21.0203C84.7515 21.0203 86.4331 22.71 86.4331 24.7877V29.5738H87.9853C89.7478 29.5738 91.1707 30.9966 91.1707 32.7591ZM77.338 29.5754H87.9853C89.7445 29.5754 91.1707 31.0015 91.1707 32.7607V40.5946C91.1707 42.3538 89.7445 43.78 87.9853 43.78H77.338C75.5788 43.78 74.1527 42.3538 74.1527 40.5946V32.7607C74.1527 31.0015 75.5788 29.5754 77.338 29.5754ZM84.5023 35.5318C84.5023 36.5454 83.6806 37.367 82.6671 37.367C81.6536 37.367 80.8319 36.5454 80.8319 35.5318C80.8319 34.5183 81.6536 33.6966 82.6671 33.6966C83.6806 33.6966 84.5023 34.5183 84.5023 35.5318Z" stroke="url(#paint0_linear_13379_56371)" stroke-width="1.77" stroke-linecap="round"/>
<defs>
<linearGradient id="paint0_linear_13379_56371" x1="18.002" y1="12.2252" x2="104.841" y2="29.3354" gradientUnits="userSpaceOnUse">
<stop stop-color="#3B00B9"/>
<stop offset="1" stop-color="#2586B6"/>
</linearGradient>
</defs>
</svg>
