<svg width="121" height="122" viewBox="0 0 121 122" fill="none" xmlns="http://www.w3.org/2000/svg">
<path d="M77.3866 46.2521L78.2703 46.3002L78.321 45.3671H77.3866V46.2521ZM77.3102 47.3437L78.192 47.4191L78.1927 47.4103L77.3102 47.3437ZM24.852 47.3437L23.9708 47.4254L23.9709 47.4265L24.852 47.3437ZM24.8806 40.4811L25.7625 40.4071L25.7615 40.3949L25.7601 40.3828L24.8806 40.4811ZM74.8749 45.265L75.2688 44.4724L75.2647 44.4705L74.8749 45.265ZM76.8995 46.1572L76.5745 46.9804L76.5825 46.9835L76.5905 46.9865L76.8995 46.1572ZM60.9797 28.3126L61.8169 28.0258L61.8167 28.0252L60.9797 28.3126ZM77.2815 108.423L78.1627 108.506L78.1628 108.505L77.2815 108.423ZM24.8233 108.423L23.9415 108.499L23.9415 108.499L24.8233 108.423ZM24.8711 101.732L25.7507 101.634L25.748 101.61L25.7439 101.585L24.8711 101.732ZM77.2529 101.561L76.3801 101.414L76.3739 101.451L76.3709 101.488L77.2529 101.561ZM77.463 46.2616V45.3766H76.578V46.2616H77.463ZM63.3163 59.2179C63.3163 58.7291 62.92 58.3329 62.4313 58.3329C61.9425 58.3329 61.5463 58.7291 61.5463 59.2179H63.3163ZM61.5463 85.4722C61.5463 85.961 61.9425 86.3572 62.4313 86.3572C62.92 86.3572 63.3163 85.961 63.3163 85.4722H61.5463ZM63.3163 94.2237C63.3163 93.7349 62.92 93.3387 62.4313 93.3387C61.9425 93.3387 61.5463 93.7349 61.5463 94.2237H63.3163ZM61.5463 111.717C61.5463 112.206 61.9425 112.602 62.4313 112.602C62.92 112.602 63.3163 112.206 63.3163 111.717H61.5463ZM52.6521 44.4867L53.0854 43.715L53.0623 43.7021L53.0385 43.6905L52.6521 44.4867ZM37.4866 33.5236L37.8052 34.3493L37.8071 34.3486L37.4866 33.5236ZM58.2675 10.1928L57.3827 10.1719L57.3826 10.1764L58.2675 10.1928ZM59.7286 8.68361L59.6819 7.79982L59.6764 7.80015L59.7286 8.68361ZM75.7535 1.69765L76.3702 2.3324L76.371 2.33162L75.7535 1.69765ZM79.1724 1.69765L78.5549 2.33162L78.5569 2.33355L79.1724 1.69765ZM95.1974 8.68361L95.249 7.8001L95.2441 7.79984L95.1974 8.68361ZM96.6585 10.1928L95.7736 10.2033L95.7737 10.2096L96.6585 10.1928ZM78.0264 46.1572L78.3455 46.9827L78.3466 46.9823L78.0264 46.1572ZM80.4648 18.7829C80.4648 19.2716 80.8611 19.6679 81.3498 19.6679C81.8386 19.6679 82.2348 19.2716 82.2348 18.7829H80.4648ZM72.6911 18.7829C72.6911 19.2716 73.0874 19.6679 73.5761 19.6679C74.0649 19.6679 74.4611 19.2716 74.4611 18.7829H72.6911ZM76.5875 29.613C76.5875 30.1018 76.9838 30.498 77.4725 30.498C77.9613 30.498 78.3575 30.1018 78.3575 29.613H76.5875ZM76.5029 46.2041C76.4844 46.5434 76.4568 46.8918 76.4277 47.2771L78.1927 47.4103C78.2209 47.0362 78.2505 46.6632 78.2703 46.3002L76.5029 46.2041ZM76.4284 47.2682C76.1724 50.2602 73.5896 53.2009 69.016 55.4314C64.4874 57.6399 58.2151 59.0353 51.0763 59.0353V60.8053C58.4248 60.8053 64.9735 59.3721 69.7919 57.0223C74.5654 54.6943 77.8559 51.3467 78.192 47.4191L76.4284 47.2682ZM51.0763 59.0353C43.9379 59.0353 37.6826 57.6377 33.1636 55.4282C28.6014 53.1976 26.0145 50.255 25.7331 47.2609L23.9709 47.4265C24.3389 51.3424 27.6204 54.6882 32.3862 57.0183C37.1952 59.3696 43.7274 60.8053 51.0763 60.8053V59.0353ZM25.7332 47.262C25.4793 44.5234 25.5024 42.3395 25.7562 40.6096L24.005 40.3526C23.724 42.2675 23.709 44.6018 23.9708 47.4254L25.7332 47.262ZM23.9987 40.5552C24.3221 44.4063 27.7335 47.6176 32.5259 49.8285C37.3787 52.0673 43.9181 53.4207 51.0763 53.4207V51.6507C44.1196 51.6507 37.8429 50.3322 33.2674 48.2213C28.6315 46.0826 26.0026 43.2667 25.7625 40.4071L23.9987 40.5552ZM51.0763 53.4207C56.4228 53.4207 61.4187 52.6672 65.6239 51.3577C69.8156 50.0525 73.2837 48.1751 75.51 45.8814L74.2399 44.6486C72.2928 46.6547 69.1284 48.4126 65.0976 49.6678C61.0802 50.9188 56.2635 51.6507 51.0763 51.6507V53.4207ZM74.4811 46.0575C75.1579 46.3939 75.8598 46.6982 76.5745 46.9804L77.2245 45.3341C76.545 45.0657 75.8908 44.7815 75.2688 44.4725L74.4811 46.0575ZM76.5905 46.9865C76.8176 47.0712 77.0954 47.1371 77.3866 47.1371V45.3671C77.3531 45.3671 77.287 45.3572 77.2086 45.3279L76.5905 46.9865ZM25.7601 40.3828C25.7448 40.2453 25.737 40.1073 25.737 39.9591H23.967C23.967 40.1716 23.9783 40.3753 24.0011 40.5794L25.7601 40.3828ZM25.737 39.9591C25.737 37.0254 28.2506 34.1056 32.9177 31.8668C37.5205 29.6588 43.9402 28.2674 51.0763 28.2674V26.4974C43.7346 26.4974 37.0421 27.9251 32.1522 30.2709C27.3267 32.5857 23.967 35.9542 23.967 39.9591H25.737ZM51.0763 28.2674C54.526 28.2674 57.8115 28.5945 60.8097 29.1812L61.1496 27.4441C58.0358 26.8348 54.6363 26.4974 51.0763 26.4974V28.2674ZM60.1424 28.5995C62.46 35.3645 66.7141 42.2469 74.4851 46.0595L75.2647 44.4705C68.0614 40.9364 64.0452 34.5303 61.8169 28.0258L60.1424 28.5995ZM76.4004 108.341C76.119 111.339 73.5299 114.282 68.9665 116.511C64.4464 118.72 58.191 120.115 51.0572 120.115V121.885C58.4012 121.885 64.9333 120.452 69.7435 118.102C74.5105 115.773 77.7947 112.427 78.1627 108.506L76.4004 108.341ZM51.0572 120.115C43.9232 120.115 37.6509 118.72 33.121 116.511C28.5459 114.28 25.9611 111.34 25.7051 108.348L23.9415 108.499C24.2776 112.427 27.5709 115.774 32.3453 118.102C37.1648 120.452 43.7134 121.885 51.0572 121.885V120.115ZM25.7051 108.348C25.4796 105.705 25.511 103.572 25.7478 101.852L23.9943 101.611C23.7345 103.498 23.7086 105.769 23.9415 108.499L25.7051 108.348ZM23.9915 101.829C24.4127 105.624 27.8381 108.785 32.6193 110.963C37.4597 113.169 43.9521 114.5 51.0572 114.5V112.73C44.1525 112.73 37.9195 111.433 33.3531 109.353C28.7276 107.245 26.0648 104.464 25.7507 101.634L23.9915 101.829ZM51.0572 114.5C58.1639 114.5 64.7051 113.144 69.571 110.905C74.3735 108.695 77.8166 105.484 78.1349 101.634L76.3709 101.488C76.1353 104.339 73.4855 107.155 68.8311 109.297C64.2401 111.41 57.9604 112.73 51.0572 112.73V114.5ZM76.3773 101.689C76.6311 103.419 76.6542 105.603 76.4003 108.342L78.1628 108.505C78.4245 105.682 78.4095 103.347 78.1285 101.432L76.3773 101.689ZM76.3965 101.048C76.3965 101.231 76.3945 101.328 76.3801 101.414L78.1257 101.707C78.1685 101.452 78.1665 101.207 78.1665 101.048H76.3965ZM76.3709 101.488C76.135 104.342 73.5074 107.157 68.8696 109.297C64.2928 111.41 58.0137 112.73 51.0572 112.73V114.5C58.2156 114.5 64.7574 113.145 69.6113 110.905C74.4041 108.693 77.8169 105.481 78.1349 101.634L76.3709 101.488ZM51.0572 112.73C44.0991 112.73 37.8667 111.433 33.3146 109.353C28.7056 107.247 26.0651 104.467 25.7507 101.634L23.9915 101.829C24.4124 105.622 27.8075 108.783 32.579 110.963C37.4074 113.169 43.9003 114.5 51.0572 114.5V112.73ZM25.7439 101.585C25.7173 101.427 25.7083 101.254 25.7083 101.048H23.9383C23.9383 101.298 23.9485 101.581 23.9983 101.878L25.7439 101.585ZM25.7083 101.048C25.7083 98.1097 28.2221 95.19 32.89 92.9525C37.4939 90.7457 43.9161 89.3566 51.0572 89.3566V87.5866C43.711 87.5866 37.0162 89.0119 32.125 91.3564C27.2978 93.6702 23.9383 97.0388 23.9383 101.048H25.7083ZM51.0572 89.3566C58.1984 89.3566 64.6181 90.7457 69.2194 92.9524C73.8847 95.1897 76.3965 98.1094 76.3965 101.048H78.1665C78.1665 97.0391 74.8099 93.6705 69.9848 91.3565C65.0959 89.0119 58.4034 87.5866 51.0572 87.5866V89.3566ZM78.348 104.152V46.2616H76.578V104.152H78.348ZM61.5463 59.2179V85.4722H63.3163V59.2179H61.5463ZM61.5463 94.2237V111.717H63.3163V94.2237H61.5463ZM23.9479 43.7748V104.152H25.7179V43.7748H23.9479ZM54.7722 37.8139C55.05 38.6542 55.0498 38.6543 55.0495 38.6543C55.0495 38.6543 55.0493 38.6544 55.0492 38.6544C55.049 38.6545 55.0489 38.6546 55.0488 38.6546C55.0487 38.6546 55.0489 38.6545 55.0494 38.6544C55.0504 38.654 55.0527 38.6533 55.0561 38.6522C55.0629 38.6501 55.0744 38.6464 55.0906 38.6414C55.1229 38.6315 55.1736 38.6163 55.2414 38.5971C55.3772 38.5587 55.5813 38.5045 55.8441 38.4445C56.3704 38.3243 57.1289 38.182 58.0436 38.0972C59.8793 37.927 62.3049 37.9923 64.7389 38.8995L65.3571 37.2409C62.5959 36.2118 59.8836 36.149 57.8802 36.3347C56.8753 36.4279 56.0389 36.5845 55.4502 36.7189C55.1556 36.7861 54.9222 36.848 54.7598 36.8939C54.6786 36.9169 54.615 36.9359 54.5704 36.9496C54.5481 36.9565 54.5305 36.962 54.5177 36.9661C54.5114 36.9681 54.5062 36.9698 54.5023 36.9711C54.5004 36.9717 54.4987 36.9722 54.4974 36.9727C54.4967 36.9729 54.4961 36.9731 54.4956 36.9732C54.4953 36.9733 54.495 36.9734 54.4949 36.9735C54.4946 36.9736 54.4943 36.9737 54.7722 37.8139ZM64.7389 38.8995C65.9426 39.3481 66.5865 39.8579 66.9047 40.3015C67.2032 40.7175 67.2581 41.1317 67.159 41.5525C66.9384 42.4888 65.9165 43.5157 64.7122 44.0095L65.3838 45.6472C66.9108 45.021 68.4864 43.637 68.8818 41.9583C69.0907 41.0716 68.9582 40.1272 68.3429 39.2696C67.7473 38.4395 66.7509 37.7604 65.3571 37.2409L64.7389 38.8995ZM64.7122 44.0095C62.0837 45.0874 57.4377 46.1592 53.0854 43.715L52.2187 45.2583C57.2636 48.0915 62.5496 46.8094 65.3838 45.6472L64.7122 44.0095ZM52.6521 44.4867C53.0385 43.6905 53.0388 43.6906 53.0391 43.6908C53.0392 43.6908 53.0395 43.691 53.0396 43.691C53.04 43.6912 53.0403 43.6914 53.0406 43.6915C53.0412 43.6918 53.0416 43.692 53.042 43.6922C53.0427 43.6925 53.0429 43.6926 53.0427 43.6925C53.0422 43.6923 53.04 43.6912 53.0361 43.6892C53.0283 43.6851 53.014 43.6776 52.9942 43.6666C52.9544 43.6445 52.8933 43.6089 52.8188 43.5604C52.6677 43.462 52.4734 43.3179 52.291 43.1339C51.9202 42.7599 51.6828 42.3164 51.7687 41.7789L50.021 41.4993C49.8109 42.8128 50.4521 43.793 51.0339 44.38C51.3278 44.6765 51.6283 44.8973 51.8529 45.0436C51.9663 45.1175 52.0633 45.1742 52.1346 45.2139C52.1704 45.2337 52.1999 45.2494 52.2221 45.2609C52.2331 45.2666 52.2424 45.2713 52.2497 45.275C52.2533 45.2768 52.2565 45.2784 52.2592 45.2797C52.2605 45.2803 52.2617 45.2809 52.2628 45.2814C52.2633 45.2817 52.2638 45.2819 52.2643 45.2822C52.2645 45.2823 52.2649 45.2825 52.265 45.2825C52.2653 45.2827 52.2656 45.2828 52.6521 44.4867ZM51.7687 41.7789C51.8936 40.998 52.3263 39.3457 52.3751 37.8366C52.4251 36.288 52.1049 34.4641 50.4452 33.3727L49.4727 34.8516C50.3533 35.4307 50.6491 36.4449 50.606 37.7794C50.5616 39.1535 50.1921 40.4293 50.021 41.4993L51.7687 41.7789ZM50.4452 33.3727C47.636 31.5253 42.2113 30.7387 37.1662 32.6987L37.8071 34.3486C42.3884 32.5688 47.2013 33.3579 49.4727 34.8516L50.4452 33.3727ZM37.1681 32.6979C34.6307 33.6768 33.1281 35.2616 33.2159 37.1479C33.3009 38.972 34.8631 40.4555 36.9714 41.2856L37.6199 39.6387C35.7744 38.9121 35.0208 37.8566 34.984 37.0656C34.9501 36.3369 35.5199 35.2309 37.8052 34.3493L37.1681 32.6979ZM36.9714 41.2856C39.1099 42.1276 41.5829 42.2805 43.4676 42.2392C44.42 42.2183 45.2439 42.1471 45.8311 42.0811C46.1251 42.048 46.3607 42.0161 46.5244 41.9921C46.6063 41.9802 46.6703 41.9702 46.7147 41.963C46.7369 41.9595 46.7542 41.9566 46.7664 41.9545C46.7726 41.9535 46.7774 41.9527 46.7809 41.9521C46.7827 41.9518 46.7842 41.9515 46.7853 41.9513C46.7858 41.9512 46.7863 41.9512 46.7867 41.9511C46.7869 41.9511 46.7871 41.951 46.7872 41.951C46.7875 41.951 46.7877 41.9509 46.6356 41.0791C46.4834 40.2073 46.4836 40.2072 46.4837 40.2072C46.4837 40.2072 46.4839 40.2072 46.4839 40.2072C46.484 40.2072 46.4839 40.2072 46.4839 40.2072C46.4837 40.2072 46.4832 40.2073 46.4823 40.2075C46.4807 40.2077 46.4777 40.2083 46.4735 40.209C46.4651 40.2104 46.4517 40.2126 46.4335 40.2155C46.3971 40.2214 46.3415 40.2301 46.2684 40.2407C46.1221 40.2621 45.906 40.2915 45.6332 40.3222C45.087 40.3836 44.3173 40.4501 43.4288 40.4696C41.632 40.509 39.4351 40.3534 37.6199 39.6387L36.9714 41.2856ZM61.8167 28.0252C59.2771 20.6298 59.0958 13.2495 59.1523 10.2092L57.3826 10.1764C57.3245 13.3058 57.5062 20.9225 60.1426 28.6001L61.8167 28.0252ZM59.1522 10.2137C59.1603 9.87189 59.4336 9.58761 59.7809 9.56706L59.6764 7.80015C58.4192 7.87452 57.4128 8.90011 57.3827 10.1719L59.1522 10.2137ZM59.7753 9.56737C68.1432 9.12499 73.7306 4.897 76.3702 2.33239L75.1368 1.0629C72.6768 3.45301 67.4727 7.38796 59.6819 7.79984L59.7753 9.56737ZM76.371 2.33162C76.9824 1.73613 77.9436 1.73613 78.5549 2.33162L79.7899 1.06368C78.4913 -0.201226 76.4347 -0.201226 75.136 1.06368L76.371 2.33162ZM78.5569 2.33355C81.2047 4.89645 86.7823 9.12496 95.1506 9.56737L95.2441 7.79984C87.4538 7.38799 82.259 3.45356 79.788 1.06175L78.5569 2.33355ZM95.1457 9.5671C95.5073 9.58824 95.7697 9.87473 95.7736 10.2033L97.5434 10.1823C97.5282 8.89727 96.5109 7.87389 95.249 7.80012L95.1457 9.5671ZM95.7737 10.2096C95.8301 13.1836 95.661 20.3194 93.2777 27.5491C90.8962 34.7735 86.3459 41.9796 77.7063 45.3322L78.3466 46.9823C87.661 43.3679 92.4841 35.6101 94.9587 28.1033C97.4316 20.6017 97.6015 13.2388 97.5434 10.176L95.7737 10.2096ZM77.7074 45.3317C77.6349 45.3597 77.5519 45.3766 77.463 45.3766V47.1466C77.7752 47.1466 78.0742 47.0876 78.3455 46.9827L77.7074 45.3317ZM72.4492 19.6679H82.4863V17.8979H72.4492V19.6679ZM82.4863 19.6679C84.0754 19.6679 85.3545 20.9468 85.3545 22.5132H87.1245C87.1245 19.9591 85.0428 17.8979 82.4863 17.8979V19.6679ZM85.3545 22.5132V29.6035H87.1245V22.5132H85.3545ZM85.3545 29.6035C85.3545 31.1698 84.0754 32.4488 82.4863 32.4488V34.2188C85.0428 34.2188 87.1245 32.1576 87.1245 29.6035H85.3545ZM82.4863 32.4488H72.4492V34.2188H82.4863V32.4488ZM72.4492 32.4488C70.8601 32.4488 69.5811 31.1698 69.5811 29.6035H67.8111C67.8111 32.1576 69.8928 34.2188 72.4492 34.2188V32.4488ZM69.5811 29.6035V22.5132H67.8111V29.6035H69.5811ZM69.5811 22.5132C69.5811 20.9468 70.8601 19.6679 72.4492 19.6679V17.8979C69.8928 17.8979 67.8111 19.9591 67.8111 22.5132H69.5811ZM82.2348 18.7829V13.8756H80.4648V18.7829H82.2348ZM82.2348 13.8756C82.2348 11.2461 80.0954 9.12746 77.463 9.12746V10.8975C79.1281 10.8975 80.4648 12.2338 80.4648 13.8756H82.2348ZM77.463 9.12746C74.8306 9.12746 72.6911 11.2461 72.6911 13.8756H74.4611C74.4611 12.2338 75.7979 10.8975 77.463 10.8975V9.12746ZM72.6911 13.8756V18.7829H74.4611V13.8756H72.6911ZM78.4784 24.8861C78.4784 25.4302 78.0332 25.8805 77.4725 25.8805V27.6505C79.0005 27.6505 80.2484 26.4179 80.2484 24.8861H78.4784ZM77.4725 25.8805C76.9119 25.8805 76.4666 25.4302 76.4666 24.8861H74.6966C74.6966 26.4179 75.9446 27.6505 77.4725 27.6505V25.8805ZM76.4666 24.8861C76.4666 24.342 76.9119 23.8917 77.4725 23.8917V22.1217C75.9446 22.1217 74.6966 23.3543 74.6966 24.8861H76.4666ZM77.4725 23.8917C78.0332 23.8917 78.4784 24.342 78.4784 24.8861H80.2484C80.2484 23.3543 79.0005 22.1217 77.4725 22.1217V23.8917ZM76.5875 26.7655V29.613H78.3575V26.7655H76.5875Z" fill="url(#paint0_linear_13243_53522)"/>
<defs>
<linearGradient id="paint0_linear_13243_53522" x1="24.667" y1="1" x2="130.549" y2="64.5294" gradientUnits="userSpaceOnUse">
<stop stop-color="#29ABE2"/>
<stop offset="1" stop-color="#522785"/>
</linearGradient>
</defs>
</svg>
