<svg xmlns="http://www.w3.org/2000/svg" width="169" height="150" fill="none" viewBox="0 0 169 150"><path stroke="url(#a)" stroke-linecap="round" stroke-linejoin="round" stroke-width="1.77" d="M94.1793 48.1826L114.156 58.9013M52.6778 80.5449L72.6545 91.2747M94.826 91.2747L114.803 80.5449M54.3155 58.9013L74.3033 48.1826M61.9332 51.8318L84.0915 64.0896V43.6709L61.9332 31.4131V51.8318ZM106.236 51.8318L84.0887 64.0896V43.6709L106.236 31.4131V51.8318ZM84.1247 43.6631L61.9332 31.4163L84.0029 20L106.194 31.3609L84.1247 43.6631ZM61.9332 117.742L84.0915 130V109.581L61.9332 97.3235V117.742ZM106.236 117.742L84.0887 130V109.581L106.236 97.3235V117.742ZM84.1247 109.573L61.9332 97.3267L84.0029 85.9104L106.194 97.2713L84.1247 109.573ZM104.697 84.5073L126.856 96.7651V76.3465L104.697 64.0886V84.5073ZM149 84.5073L126.853 96.7651V76.3465L149 64.0886V84.5073ZM126.889 76.3512L104.697 64.0933L126.767 52.6881L148.958 64.0491L126.889 76.3512ZM20 84.5073L42.1582 96.7651V76.3465L20 64.0886V84.5073ZM64.3136 84.5073L42.1554 96.7651V76.3465L64.3136 64.0886V84.5073ZM42.1914 76.3512L20 64.0933L42.0696 52.6881L64.261 64.0491L42.1914 76.3512Z"/><defs><linearGradient id="a" x1="20" x2="149.591" y1="20" y2="54.063" gradientUnits="userSpaceOnUse"><stop stop-color="color(display-p3 .2322 0 .7255)"/><stop offset="1" stop-color="color(display-p3 .144 .5258 .7142)"/></linearGradient></defs></svg>