<svg width="120" height="121" viewBox="0 0 120 121" fill="none" xmlns="http://www.w3.org/2000/svg">
<path d="M41.457 41.3038L59.664 51.3763V34.5979L41.457 24.5254V41.3038Z" stroke="white" stroke-width="1.77" stroke-linejoin="round"/>
<path d="M77.858 41.3038L59.6602 51.3763V34.5979L77.858 24.5254V41.3038Z" stroke="white" stroke-width="1.77" stroke-linejoin="round"/>
<path d="M59.6913 34.5919L41.457 24.5284L59.5912 15.1475L77.8254 24.483L59.6913 34.5919Z" stroke="white" stroke-width="1.77" stroke-linejoin="round"/>
<path d="M41.457 95.464L59.664 105.536V88.7581L41.457 78.6855V95.464Z" stroke="white" stroke-width="1.77" stroke-linejoin="round"/>
<path d="M77.858 95.464L59.6602 105.536V88.7581L77.858 78.6855V95.464Z" stroke="white" stroke-width="1.77" stroke-linejoin="round"/>
<path d="M59.6913 88.752L41.457 78.6886L59.5912 69.3076L77.8254 78.6431L59.6913 88.752Z" stroke="white" stroke-width="1.77" stroke-linejoin="round"/>
<path d="M76.5938 68.1544L94.8007 78.2269V61.4485L76.5938 51.376V68.1544Z" stroke="white" stroke-width="1.77" stroke-linejoin="round"/>
<path d="M112.995 68.1544L94.7969 78.2269V61.4485L112.995 51.376V68.1544Z" stroke="white" stroke-width="1.77" stroke-linejoin="round"/>
<path d="M94.828 61.4522L76.5938 51.3797L94.7279 42.0078L112.962 51.3433L94.828 61.4522Z" stroke="white" stroke-width="1.77" stroke-linejoin="round"/>
<path d="M7 68.1544L25.2069 78.2269V61.4485L7 51.376V68.1544Z" stroke="white" stroke-width="1.77" stroke-linejoin="round"/>
<path d="M43.4101 68.1544L25.2031 78.2269V61.4485L43.4101 51.376V68.1544Z" stroke="white" stroke-width="1.77" stroke-linejoin="round"/>
<path d="M25.2342 61.4522L7 51.3797L25.1342 42.0078L43.3684 51.3433L25.2342 61.4522Z" stroke="white" stroke-width="1.77" stroke-linejoin="round"/>
<path d="M67.9531 38.3057L84.3676 47.1134" stroke="white" stroke-width="1.77" stroke-linecap="round" stroke-linejoin="round"/>
<path d="M33.8516 64.8984L50.266 73.7153" stroke="white" stroke-width="1.77" stroke-linecap="round" stroke-linejoin="round"/>
<path d="M68.4844 73.7153L84.8988 64.8984" stroke="white" stroke-width="1.77" stroke-linecap="round" stroke-linejoin="round"/>
<path d="M35.1953 47.1134L51.6189 38.3057" stroke="white" stroke-width="1.77" stroke-linecap="round" stroke-linejoin="round"/>
</svg>
