<svg width="120" height="120" viewBox="0 0 120 120" fill="none" xmlns="http://www.w3.org/2000/svg">
<path d="M43.1024 69.5786C33.3017 73.5012 32.9777 87.2824 32.9777 87.2824L32.9546 87.2592C32.9546 87.2592 46.7242 86.9237 50.6584 77.1345" stroke="white" stroke-width="2" stroke-linecap="round" stroke-linejoin="round"/>
<path d="M41.6909 95.5652L27.2617 109.994" stroke="white" stroke-width="2" stroke-linecap="round" stroke-linejoin="round"/>
<path d="M25.1533 95.0363L10.7241 109.454" stroke="white" stroke-width="2" stroke-linecap="round" stroke-linejoin="round"/>
<path d="M55.6667 92.9609L49.4067 99.2208" stroke="white" stroke-width="2" stroke-linecap="round" stroke-linejoin="round"/>
<path d="M24.6567 78.5352L10.2275 92.9643" stroke="white" stroke-width="2" stroke-linecap="round" stroke-linejoin="round"/>
<path d="M27.2629 64.5571L21.0029 70.817" stroke="white" stroke-width="2" stroke-linecap="round" stroke-linejoin="round"/>
<path d="M73.3242 71.0828C81.262 78.3842 68.5107 91.8761 68.5107 91.8761C68.5107 91.8761 72.2365 82.5498 61.7184 77.2271L43.2047 58.5166C37.8704 47.9985 28.5557 51.7244 28.5557 51.7244C28.5557 51.7244 42.0476 38.9731 49.3489 46.9108" stroke="white" stroke-width="2" stroke-linecap="round" stroke-linejoin="round"/>
<path d="M41.3809 65.0299C41.9131 61.7784 43.6372 57.5665 43.9728 56.7681C44.0075 56.6755 44.0538 56.5945 44.0885 56.502C62.394 18.3058 94.5732 11.4788 106.04 10.2523C108.482 9.99772 110.24 11.745 109.974 14.1865C108.759 25.6534 101.932 57.8326 63.7362 76.1381C63.6437 76.1844 63.5627 76.2191 63.4701 76.2538C62.6717 76.5894 58.4598 78.3135 55.2083 78.8457C53.6809 79.1003 52.1304 78.5796 51.0312 77.4803L42.7463 69.1954C41.647 68.0962 41.1379 66.5457 41.3809 65.0183V65.0299Z" stroke="white" stroke-width="2"/>
<path d="M85.5449 41.876C89.5198 41.876 92.7421 38.6537 92.7421 34.6788C92.7421 30.7039 89.5198 27.4816 85.5449 27.4816C81.57 27.4816 78.3477 30.7039 78.3477 34.6788C78.3477 38.6537 81.57 41.876 85.5449 41.876Z" stroke="white" stroke-width="2" stroke-linecap="round" stroke-linejoin="round"/>
<path d="M106.546 28.3581L91.874 13.6744" stroke="white" stroke-width="2" stroke-linecap="round" stroke-linejoin="round"/>
</svg>
