<svg width="120" height="121" viewBox="0 0 120 121" fill="none" xmlns="http://www.w3.org/2000/svg">
<path d="M9.88857 107.138C9.47123 107.392 9.33915 107.937 9.59355 108.354C9.84796 108.771 10.3925 108.903 10.8099 108.649L9.88857 107.138ZM32.2492 94.5434L32.1651 93.6624L31.9624 93.6817L31.7886 93.7877L32.2492 94.5434ZM68.3992 91.0934L68.4833 91.9744L68.5759 91.9655L68.6646 91.9376L68.3992 91.0934ZM107.999 78.6434L108.265 79.4876L108.272 79.4853L108.279 79.4829L107.999 78.6434ZM110.999 72.7934L111.848 72.5419L110.999 72.7934ZM105.149 69.7934L104.986 68.9235L105.149 69.7934ZM8.3954 76.1621C7.93633 76.3299 7.70021 76.8381 7.868 77.2972C8.0358 77.7562 8.54397 77.9924 9.00304 77.8246L8.3954 76.1621ZM30.4492 69.0434V68.1584H30.2925L30.1454 68.2121L30.4492 69.0434ZM73.3492 76.9934L73.5063 77.8643L73.5075 77.8641L73.3492 76.9934ZM72.2992 12.9434V12.0584V12.9434ZM96.5992 37.2434H95.7142H96.5992ZM72.2992 61.5434V60.6584V61.5434ZM66.2992 26.4434L67.0875 26.0411L66.2992 24.4964L65.5109 26.0411L66.2992 26.4434ZM69.7166 33.1397L68.9283 33.542L69.133 33.943L69.5776 34.0138L69.7166 33.1397ZM77.1413 34.3206L77.7675 34.946L78.9929 33.7189L77.2803 33.4465L77.1413 34.3206ZM71.8287 39.64L71.2025 39.0146L70.8843 39.3332L70.9545 39.7779L71.8287 39.64ZM73 47.0662L72.5987 47.8549L74.1444 48.6413L73.8742 46.9283L73 47.0662ZM66.2992 43.6574L66.7005 42.8686L66.2992 42.6644L65.8979 42.8686L66.2992 43.6574ZM59.5985 47.0662L58.7243 46.9283L58.4541 48.6413L59.9997 47.8549L59.5985 47.0662ZM60.7698 39.64L61.644 39.7779L61.7141 39.3332L61.396 39.0146L60.7698 39.64ZM55.4572 34.3206L55.3182 33.4465L53.6055 33.7189L54.831 34.946L55.4572 34.3206ZM62.8818 33.1397L63.0208 34.0138L63.4655 33.943L63.6701 33.542L62.8818 33.1397ZM10.8099 108.649L32.7099 95.299L31.7886 93.7877L9.88857 107.138L10.8099 108.649ZM32.3333 95.4244L68.4833 91.9744L68.3151 90.2124L32.1651 93.6624L32.3333 95.4244ZM68.6646 91.9376L108.265 79.4876L107.734 77.7991L68.1338 90.2491L68.6646 91.9376ZM108.279 79.4829C109.085 79.2142 110.269 78.5608 111.114 77.4294C111.992 76.2552 112.463 74.6167 111.848 72.5419L110.151 73.0448C110.603 74.57 110.248 75.6315 109.697 76.3698C109.113 77.151 108.263 77.6225 107.719 77.8038L108.279 79.4829ZM111.848 72.5419C111.406 71.0505 110.502 69.9588 109.25 69.3427C108.02 68.7372 106.541 68.632 104.986 68.9235L105.312 70.6632C106.608 70.4203 107.675 70.5401 108.469 70.9307C109.241 71.3107 109.837 71.9862 110.151 73.0448L111.848 72.5419ZM104.986 68.9235C103.088 69.2795 85.8354 71.8656 77.419 73.118L77.6795 74.8687C86.063 73.6212 103.371 71.0273 105.312 70.6632L104.986 68.9235ZM9.00304 77.8246L30.753 69.8746L30.1454 68.2121L8.3954 76.1621L9.00304 77.8246ZM30.4492 69.9284H73.3492V68.1584H30.4492V69.9284ZM73.3492 69.9284C73.9242 69.9284 74.7762 70.0611 75.4574 70.5249C76.0825 70.9505 76.6642 71.7187 76.6642 73.2434H78.4342C78.4342 71.168 77.5909 69.8362 76.4535 69.0618C75.3722 68.3256 74.1243 68.1584 73.3492 68.1584V69.9284ZM76.6642 73.2434C76.6642 74.2509 76.2161 74.856 75.5771 75.282C74.8899 75.7401 73.9887 75.9776 73.1909 76.1226L73.5075 77.8641C74.3597 77.7091 75.5586 77.4216 76.5589 76.7547C77.6074 76.0557 78.4342 74.9359 78.4342 73.2434H76.6642ZM73.1922 76.1224L54.8922 79.4224L55.2063 81.1643L73.5063 77.8643L73.1922 76.1224ZM89.7142 37.2434C89.7142 50.1751 79.231 60.6584 66.2992 60.6584V62.4284C80.2085 62.4284 91.4842 51.1527 91.4842 37.2434H89.7142ZM66.2992 60.6584C53.3675 60.6584 42.8842 50.1751 42.8842 37.2434H41.1142C41.1142 51.1527 52.3899 62.4284 66.2992 62.4284V60.6584ZM42.8842 37.2434C42.8842 24.3116 53.3675 13.8284 66.2992 13.8284V12.0584C52.3899 12.0584 41.1142 23.3341 41.1142 37.2434H42.8842ZM66.2992 13.8284C79.231 13.8284 89.7142 24.3116 89.7142 37.2434H91.4842C91.4842 23.3341 80.2085 12.0584 66.2992 12.0584V13.8284ZM72.2992 13.8284C85.231 13.8284 95.7142 24.3116 95.7142 37.2434H97.4842C97.4842 23.3341 86.2085 12.0584 72.2992 12.0584V13.8284ZM95.7142 37.2434C95.7142 50.1751 85.231 60.6584 72.2992 60.6584V62.4284C86.2085 62.4284 97.4842 51.1526 97.4842 37.2434H95.7142ZM72.2992 12.0584L66.2992 12.0584V13.8284L72.2992 13.8284V12.0584ZM72.2992 60.6584L66.2992 60.6584V62.4284L72.2992 62.4284V60.6584ZM65.5109 26.8456L68.9283 33.542L70.5049 32.7374L67.0875 26.0411L65.5109 26.8456ZM69.5776 34.0138L77.0023 35.1946L77.2803 33.4465L69.8556 32.2657L69.5776 34.0138ZM76.5151 33.6952L71.2025 39.0146L72.4549 40.2654L77.7675 34.946L76.5151 33.6952ZM70.9545 39.7779L72.1258 47.204L73.8742 46.9283L72.7029 39.5021L70.9545 39.7779ZM73.4013 46.2774L66.7005 42.8686L65.8979 44.4462L72.5987 47.8549L73.4013 46.2774ZM65.8979 42.8686L59.1972 46.2774L59.9997 47.8549L66.7005 44.4462L65.8979 42.8686ZM60.4727 47.204L61.644 39.7779L59.8956 39.5021L58.7243 46.9283L60.4727 47.204ZM61.396 39.0146L56.0834 33.6952L54.831 34.946L60.1436 40.2654L61.396 39.0146ZM55.5962 35.1946L63.0208 34.0138L62.7428 32.2657L55.3182 33.4465L55.5962 35.1946ZM63.6701 33.542L67.0875 26.8456L65.5109 26.0411L62.0936 32.7374L63.6701 33.542Z" fill="white"/>
</svg>
