<svg width="120" height="122" viewBox="0 0 120 122" fill="none" xmlns="http://www.w3.org/2000/svg">
<path d="M21.0811 57.4629L60.1728 79.202V42.9814L21.0811 21.2423V57.4629Z" stroke="white" stroke-width="1.77" stroke-linejoin="round"/>
<path d="M99.2651 57.4629L60.1733 79.202V42.9814L99.2651 21.2423V57.4629Z" stroke="white" stroke-width="1.77" stroke-linejoin="round"/>
<path d="M60.2395 42.9796L21.0811 21.2406L60.0282 1L99.1867 21.1511L60.2395 42.9796Z" stroke="white" stroke-width="1.77" stroke-linejoin="round"/>
<path d="M63.1424 20.5813C63.1424 20.5813 67.4476 19.094 71.853 21.2411C76.2583 23.3881 74.1669 27.0113 71.853 28.0401C69.5391 29.0689 65.3228 30.0418 61.3403 27.2126C61.3403 27.2126 59.5937 26.1279 59.8496 24.2828C60.1054 22.4376 61.2068 18.4566 59.0597 16.6786C56.9127 14.9005 52.563 13.9053 48.4803 15.5938C44.3975 17.2824 44.9649 20.8497 48.3245 22.5718C51.6841 24.2939 56.2452 23.5559 56.2452 23.5559" stroke="white" stroke-width="1.77"/>
<path d="M54.2532 76.3955C49.6365 87.2427 60.2048 98.3918 60.2048 98.3918H60.1714C60.1714 98.3918 70.7398 87.2427 66.1231 76.3955" stroke="white" stroke-width="1.77" stroke-linejoin="round"/>
<path d="M70.7397 92.8899V110.838" stroke="white" stroke-width="1.77" stroke-linecap="round" stroke-linejoin="round"/>
<path d="M60.1714 102.832V120.78" stroke="white" stroke-width="1.77" stroke-linecap="round" stroke-linejoin="round"/>
<path d="M77.7817 82.5765V90.3596" stroke="white" stroke-width="1.77" stroke-linecap="round" stroke-linejoin="round"/>
<path d="M49.6704 92.8899V110.838" stroke="white" stroke-width="1.77" stroke-linecap="round" stroke-linejoin="round"/>
<path d="M42.6284 82.5765V90.3596" stroke="white" stroke-width="1.77" stroke-linecap="round" stroke-linejoin="round"/>
<path d="M88.6838 63.8587C95.6033 68.4548 87.5825 80.3195 87.5825 80.3195C87.5825 80.3195 88.3723 72.0891 79.7285 69.3158" stroke="white" stroke-width="1.77" stroke-linecap="round" stroke-linejoin="round"/>
<path d="M31.9142 63.8587C24.9948 68.4548 33.0156 80.3195 33.0156 80.3195C33.0156 80.3195 32.2257 72.0891 40.8695 69.3158" stroke="white" stroke-width="1.77" stroke-linecap="round" stroke-linejoin="round"/>
</svg>
