<svg width="120" height="123" viewBox="0 0 120 123" fill="none" xmlns="http://www.w3.org/2000/svg">
<path d="M23.0233 45.6137L22.2765 45.6829L22.2765 45.6833L23.0233 45.6137ZM23.0488 38.5848L23.7958 38.5185L23.7957 38.5168L23.0488 38.5848ZM51.7155 50.9193L51.6942 50.1695L51.6844 50.1699L51.7155 50.9193ZM53.4923 50.8344V50.0844H53.4652L53.4382 50.0864L53.4923 50.8344ZM53.5433 50.8344V51.5844H53.571L53.5987 51.5824L53.5433 50.8344ZM54.8951 50.7241L54.8273 49.9771L54.8234 49.9775L54.8951 50.7241ZM55.0821 50.7071L55.0247 49.9592L55.0143 49.9601L55.0821 50.7071ZM56.0683 50.5967L56.0243 49.848L55.9877 49.8502L55.9515 49.8559L56.0683 50.5967ZM56.5103 50.5458L56.4481 49.7984L56.414 49.8012L56.3802 49.8072L56.5103 50.5458ZM57.4115 50.4354L57.5174 51.1779L57.5212 51.1774L57.4115 50.4354ZM58.7802 50.2232L58.9056 50.9627L58.909 50.9621L58.7802 50.2232ZM60.3445 49.9346L60.4914 50.6701L60.5021 50.6679L60.5129 50.6654L60.3445 49.9346ZM60.455 49.9091L60.3007 49.1752L60.2936 49.1766L60.2866 49.1783L60.455 49.9091ZM61.8832 49.5865L61.7016 48.8589L61.6985 48.8596L61.8832 49.5865ZM61.9852 49.5611L61.8111 48.8315L61.8036 48.8334L61.9852 49.5611ZM63.1499 49.2555L62.9609 48.5297L62.9514 48.5321L62.9421 48.5348L63.1499 49.2555ZM63.3455 49.2045L63.1589 48.4781L63.1564 48.4788L63.3455 49.2045ZM64.2211 48.9499L64.0017 48.2327L63.993 48.2353L63.9843 48.2382L64.2211 48.9499ZM68.3103 47.4134L67.9989 46.7311L67.9958 46.7325L68.3103 47.4134ZM69.1945 46.9889L68.8638 46.3157L68.8594 46.3179L69.1945 46.9889ZM70.6652 46.1909L70.2853 45.5442L70.2797 45.5476L70.6652 46.1909ZM71.1073 45.9278L71.5143 46.5577L71.5166 46.5563L71.1073 45.9278ZM71.7109 45.5288L71.3025 44.8997L71.2944 44.905L71.2864 44.9105L71.7109 45.5288ZM72.2039 45.1893L72.6271 45.8086L72.6379 45.8009L72.2039 45.1893ZM73.1221 44.4762L73.7342 44.0428L73.7338 44.0422L73.1221 44.4762ZM74.2018 47.4049L74.9489 47.3387L74.9485 47.3348L74.2018 47.4049ZM68.6504 37.1587L68.7022 37.9069L68.7024 37.9069L68.6504 37.1587ZM64.6802 37.4388L64.7306 38.1871L64.7344 38.1869L64.6802 37.4388ZM64.6802 41.6833L64.7325 40.9351L64.7306 40.935L64.6802 41.6833ZM66.0149 41.7767L66.0679 41.0286L66.0673 41.0285L66.0149 41.7767ZM68.6504 41.9634L68.5973 42.7116L68.5989 42.7117L68.6504 41.9634ZM76.6672 108.415L77.4139 108.485L77.414 108.484L76.6672 108.415ZM22.9893 108.415L22.2419 108.478L22.242 108.478L22.9893 108.415ZM76.6417 101.386L75.8948 101.318L75.8946 101.32L76.6417 101.386ZM62.2167 57.8293C62.2167 57.4151 61.8809 57.0793 61.4667 57.0793C61.0524 57.0793 60.7167 57.4151 60.7167 57.8293H62.2167ZM60.7167 84.8157C60.7167 85.2299 61.0524 85.5657 61.4667 85.5657C61.8809 85.5657 62.2167 85.2299 62.2167 84.8157H60.7167ZM62.2167 93.814C62.2167 93.3998 61.8809 93.064 61.4667 93.064C61.0524 93.064 60.7167 93.3998 60.7167 93.814H62.2167ZM60.7167 111.802C60.7167 112.216 61.0524 112.552 61.4667 112.552C61.8809 112.552 62.2167 112.216 62.2167 111.802H60.7167ZM35.7414 38.5339L35.4662 39.2316L35.4667 39.2318L35.7414 38.5339ZM35.9369 31.4032L36.2078 32.1025L36.2089 32.1021L35.9369 31.4032ZM48.6975 32.0059L49.1117 31.3806L49.1113 31.3803L48.6975 32.0059ZM51.452 42.668L51.8198 42.0144L51.7999 42.0032L51.7794 41.9932L51.452 42.668ZM64.1446 43.0246L64.429 43.7186L64.4333 43.7168L64.1446 43.0246ZM64.1446 36.0806L64.409 35.3787L64.4072 35.3781L64.1446 36.0806ZM89.0367 41.6833L88.9863 40.935L88.9839 40.9352L89.0367 41.6833ZM85.0666 41.9634L85.1186 42.7116L85.1194 42.7116L85.0666 41.9634ZM79.5152 47.4049L78.7682 47.3378L78.7681 47.3387L79.5152 47.4049ZM78.9796 53.449L78.2325 53.3828L78.2323 53.3852L78.9796 53.449ZM74.7374 53.449L75.4844 53.3828L75.4844 53.3827L74.7374 53.449ZM74.2018 31.7173L74.9481 31.792L74.9489 31.7835L74.2018 31.7173ZM74.7374 25.6731L73.9903 25.6069L73.9903 25.6069L74.7374 25.6731ZM78.9796 25.6731L78.2323 25.7369L78.2325 25.7393L78.9796 25.6731ZM79.5152 31.7173L78.7681 31.7835L78.7682 31.7845L79.5152 31.7173ZM85.0666 37.1587L85.1194 36.4106L85.1186 36.4105L85.0666 37.1587ZM89.0367 37.4388L88.984 38.187L88.9863 38.1871L89.0367 37.4388ZM68.5738 4.8412L67.8265 4.9039L67.8268 4.90738L68.5738 4.8412ZM68.8799 8.29621L68.1328 8.36239L68.1329 8.36277L68.8799 8.29621ZM73.3941 12.719L73.4453 11.9707L73.4447 11.9707L73.3941 12.719ZM75.63 12.8718L75.6836 12.1237L75.6811 12.1235L75.63 12.8718ZM75.63 15.5288L75.6812 16.2771L75.6836 16.2769L75.63 15.5288ZM73.3941 15.6816L73.343 14.9334L73.341 14.9335L73.3941 15.6816ZM68.8799 20.1044L68.1329 20.0376L68.1328 20.0382L68.8799 20.1044ZM68.5738 23.5594L69.3209 23.626L69.3209 23.6255L68.5738 23.5594ZM65.9214 23.5594L66.6688 23.4967L66.6685 23.4932L65.9214 23.5594ZM65.6154 20.1044L66.3624 20.0382L66.3624 20.0378L65.6154 20.1044ZM61.1011 15.6816L61.05 16.4299L61.0506 16.4299L61.1011 15.6816ZM58.8652 15.5288L58.8116 16.2769L58.8141 16.2771L58.8652 15.5288ZM58.8652 12.8718L58.8141 12.1235L58.8116 12.1237L58.8652 12.8718ZM61.1011 12.719L61.1522 13.4672L61.1543 13.4671L61.1011 12.719ZM65.6154 8.29621L66.3624 8.36301L66.3624 8.36239L65.6154 8.29621ZM65.9214 4.8412L65.1744 4.77461L65.1743 4.77503L65.9214 4.8412ZM92.9748 46.0212C92.9748 45.607 92.639 45.2712 92.2248 45.2712C91.8106 45.2712 91.4748 45.607 91.4748 46.0212H92.9748ZM91.4748 49.1876C91.4748 49.6018 91.8106 49.9376 92.2248 49.9376C92.639 49.9376 92.9748 49.6018 92.9748 49.1876H91.4748ZM92.9748 52.7275C92.9748 52.3132 92.639 51.9775 92.2248 51.9775C91.8106 51.9775 91.4748 52.3132 91.4748 52.7275H92.9748ZM91.4748 55.8938C91.4748 56.308 91.8106 56.6438 92.2248 56.6438C92.639 56.6438 92.9748 56.308 92.9748 55.8938H91.4748ZM97.1726 51.7033C97.5868 51.7033 97.9226 51.3675 97.9226 50.9533C97.9226 50.539 97.5868 50.2033 97.1726 50.2033V51.7033ZM94.0016 50.2033C93.5874 50.2033 93.2516 50.539 93.2516 50.9533C93.2516 51.3675 93.5874 51.7033 94.0016 51.7033V50.2033ZM90.448 51.7033C90.8622 51.7033 91.198 51.3675 91.198 50.9533C91.198 50.539 90.8622 50.2033 90.448 50.2033V51.7033ZM87.2769 50.2033C86.8627 50.2033 86.5269 50.539 86.5269 50.9533C86.5269 51.3675 86.8627 51.7033 87.2769 51.7033V50.2033ZM91.521 14.2045C91.521 13.7903 91.1852 13.4545 90.771 13.4545C90.3568 13.4545 90.021 13.7903 90.021 14.2045H91.521ZM90.021 15.3675C90.021 15.7817 90.3568 16.1175 90.771 16.1175C91.1852 16.1175 91.521 15.7817 91.521 15.3675H90.021ZM91.521 16.6663C91.521 16.2521 91.1852 15.9163 90.771 15.9163C90.3568 15.9163 90.021 16.2521 90.021 16.6663H91.521ZM90.021 17.8293C90.021 18.2435 90.3568 18.5793 90.771 18.5793C91.1852 18.5793 91.521 18.2435 91.521 17.8293H90.021ZM92.5903 16.7712C93.0045 16.7712 93.3403 16.4354 93.3403 16.0212C93.3403 15.607 93.0045 15.2712 92.5903 15.2712V16.7712ZM91.4256 15.2712C91.0114 15.2712 90.6756 15.607 90.6756 16.0212C90.6756 16.4354 91.0114 16.7712 91.4256 16.7712V15.2712ZM90.1249 16.7712C90.5391 16.7712 90.8749 16.4354 90.8749 16.0212C90.8749 15.607 90.5391 15.2712 90.1249 15.2712V16.7712ZM88.9602 15.2712C88.546 15.2712 88.2102 15.607 88.2102 16.0212C88.2102 16.4354 88.546 16.7712 88.9602 16.7712V15.2712ZM51.981 1.34375C51.981 0.929536 51.6452 0.59375 51.231 0.59375C50.8167 0.59375 50.481 0.929536 50.481 1.34375H51.981ZM50.481 4.25547C50.481 4.66968 50.8167 5.00547 51.231 5.00547C51.6452 5.00547 51.981 4.66968 51.981 4.25547H50.481ZM51.981 7.51523C51.981 7.10101 51.6452 6.76523 51.231 6.76523C50.8167 6.76523 50.481 7.10101 50.481 7.51523H51.981ZM50.481 10.4269C50.481 10.8412 50.8167 11.1769 51.231 11.1769C51.6452 11.1769 51.981 10.8412 51.981 10.4269H50.481ZM55.7792 6.63535C56.1934 6.63535 56.5292 6.29956 56.5292 5.88535C56.5292 5.47113 56.1934 5.13535 55.7792 5.13535V6.63535ZM52.8632 5.13535C52.449 5.13535 52.1132 5.47113 52.1132 5.88535C52.1132 6.29956 52.449 6.63535 52.8632 6.63535V5.13535ZM49.5987 6.63535C50.0129 6.63535 50.3487 6.29956 50.3487 5.88535C50.3487 5.47113 50.0129 5.13535 49.5987 5.13535V6.63535ZM46.6827 5.13535C46.2685 5.13535 45.9327 5.47113 45.9327 5.88535C45.9327 6.29956 46.2685 6.63535 46.6827 6.63535V5.13535ZM73.907 49.9868C71.9798 52.2111 68.7715 54.1685 64.6099 55.5693C60.459 56.9665 55.4103 57.7924 49.8622 57.7924V59.2924C55.5531 59.2924 60.7655 58.446 65.0884 56.9909C69.4006 55.5394 72.8786 53.4645 75.0407 50.969L73.907 49.9868ZM49.8622 57.7924C42.5384 57.7924 36.1122 56.3549 31.462 54.0724C26.776 51.7725 24.0653 48.7117 23.77 45.5441L22.2765 45.6833C22.6444 49.6295 25.9399 53.033 30.801 55.419C35.6978 57.8224 42.3596 59.2924 49.8622 59.2924V57.7924ZM23.7701 45.5445C23.5098 42.7364 23.5303 40.4907 23.791 38.6925L22.3065 38.4772C22.0232 40.4311 22.0096 42.8034 22.2765 45.6829L23.7701 45.5445ZM22.3017 38.6512C22.6447 42.5138 26.0664 45.7727 30.9569 48.0347C35.897 50.3196 42.5589 51.7033 49.8622 51.7033V50.2033C42.7302 50.2033 36.2913 48.8493 31.5866 46.6732C26.8323 44.4742 24.0649 41.549 23.7958 38.5185L22.3017 38.6512ZM49.8622 51.7033C50.4893 51.7033 51.1209 51.6947 51.7467 51.6687L51.6844 50.1699C51.086 50.1948 50.4764 50.2033 49.8622 50.2033V51.7033ZM51.7369 51.669C52.3387 51.6518 52.9454 51.6259 53.5465 51.5825L53.4382 50.0864C52.866 50.1278 52.2826 50.1528 51.6942 50.1696L51.7369 51.669ZM53.4923 51.5844H53.5433V50.0844H53.4923V51.5844ZM53.5987 51.5824C54.0573 51.5485 54.5155 51.514 54.9668 51.4706L54.8234 49.9775C54.3905 50.0191 53.9476 50.0525 53.488 50.0865L53.5987 51.5824ZM54.9629 51.471L55.1499 51.454L55.0143 49.9601L54.8273 49.9771L54.9629 51.471ZM55.1395 51.4549C55.4828 51.4285 55.8357 51.3927 56.1851 51.3376L55.9515 49.8559C55.6548 49.9027 55.3445 49.9347 55.0247 49.9593L55.1395 51.4549ZM56.0683 51.3467C56.2876 51.3467 56.5023 51.3088 56.6405 51.2844L56.3802 49.8072C56.2294 49.8337 56.1379 49.8467 56.0683 49.8467V51.3467ZM56.5725 51.2932C56.9041 51.2656 57.2232 51.2199 57.5174 51.1779L57.3056 49.6929C57.0047 49.7359 56.7287 49.775 56.4481 49.7984L56.5725 51.2932ZM57.5212 51.1774C57.9789 51.1096 58.4459 51.0406 58.9056 50.9627L58.6548 49.4838C58.2134 49.5586 57.7622 49.6254 57.3017 49.6935L57.5212 51.1774ZM58.909 50.9621C59.4468 50.8683 59.9723 50.7737 60.4914 50.6701L60.1976 49.1991C59.6964 49.2992 59.1849 49.3913 58.6514 49.4844L58.909 50.9621ZM60.5129 50.6654L60.6234 50.64L60.2866 49.1783L60.1761 49.2037L60.5129 50.6654ZM60.6093 50.6431C61.0937 50.5412 61.5836 50.4365 62.068 50.3134L61.6985 48.8596C61.2477 48.9742 60.7854 49.0733 60.3007 49.1752L60.6093 50.6431ZM62.0649 50.3142L62.1669 50.2887L61.8036 48.8334L61.7016 48.8589L62.0649 50.3142ZM62.1559 50.2914C62.5701 50.1946 62.9652 50.0893 63.3578 49.9761L62.9421 48.5348C62.5695 48.6423 62.1995 48.7408 61.8146 48.8307L62.1559 50.2914ZM63.339 49.9812L63.5345 49.9303L63.1564 48.4788L62.9609 48.5297L63.339 49.9812ZM63.532 49.931C63.8418 49.8514 64.1568 49.7617 64.458 49.6615L63.9843 48.2382C63.7244 48.3247 63.4443 48.4048 63.159 48.4781L63.532 49.931ZM64.4405 49.6671C65.9376 49.2091 67.3389 48.6882 68.6248 48.0942L67.9958 46.7325C66.7823 47.293 65.4462 47.7908 64.0017 48.2327L64.4405 49.6671ZM68.6217 48.0956C68.9297 47.9551 69.2355 47.8067 69.5295 47.6599L68.8594 46.3179C68.5753 46.4597 68.286 46.6 67.9989 46.7311L68.6217 48.0956ZM69.525 47.6621C70.0615 47.3987 70.5644 47.1256 71.0506 46.8343L70.2797 45.5476C69.8308 45.8165 69.3646 46.0698 68.8638 46.3157L69.525 47.6621ZM71.029 46.8468C71.1925 46.7561 71.3521 46.6625 71.5143 46.5577L70.7002 45.2978C70.5734 45.3798 70.444 45.456 70.3014 45.5351L71.029 46.8468ZM71.5166 46.5563L71.7121 46.4289L70.8935 45.172L70.698 45.2993L71.5166 46.5563ZM71.6999 46.4367C71.8326 46.3539 71.9951 46.253 72.1604 46.1291L71.2613 44.9285C71.1546 45.0084 71.0451 45.0772 70.9057 45.1642L71.6999 46.4367ZM72.1192 46.1579C72.2944 46.0442 72.499 45.896 72.627 45.8085L71.7809 44.57C71.5859 44.7032 71.4674 44.7927 71.3025 44.8997L72.1192 46.1579ZM72.6379 45.8009C72.9782 45.5595 73.3018 45.3083 73.6084 45.0472L72.6358 43.9052C72.3643 44.1364 72.0758 44.3606 71.77 44.5776L72.6379 45.8009ZM72.51 44.9096C73.03 45.6439 73.3655 46.5205 73.4551 47.475L74.9485 47.3348C74.8341 46.116 74.4044 44.9893 73.7342 44.0428L72.51 44.9096ZM73.4547 47.471L73.7267 50.544L75.2209 50.4117L74.9489 47.3387L73.4547 47.471ZM72.6457 43.8969C72.3678 44.1254 72.0724 44.3549 71.7595 44.5851L72.6484 45.7934C72.9816 45.5482 73.2983 45.3023 73.5985 45.0555L72.6457 43.8969ZM71.2864 44.9105C71.2261 44.9519 71.1648 44.9921 71.0958 45.0373C71.0288 45.0812 70.9541 45.1301 70.8783 45.1821L71.7273 46.4188C71.7875 46.3774 71.8488 46.3372 71.9179 46.2919C71.9849 46.2481 72.0596 46.1991 72.1353 46.1471L71.2864 44.9105ZM70.7274 45.2811C70.6519 45.3255 70.5746 45.3717 70.5008 45.416C70.4259 45.4609 70.3543 45.5037 70.2853 45.5443L71.045 46.8376C71.1206 46.7933 71.1978 46.747 71.2717 46.7027C71.3466 46.6579 71.4182 46.615 71.4871 46.5745L70.7274 45.2811ZM62.9421 48.5348C62.572 48.6416 62.1923 48.7405 61.8111 48.8316L62.1594 50.2906C62.5603 50.1948 62.9627 50.09 63.3578 49.9761L62.9421 48.5348ZM56.3802 49.8072C56.267 49.8271 56.1429 49.841 56.0243 49.848L56.1122 51.3454C56.2827 51.3354 56.4646 51.3154 56.6405 51.2844L56.3802 49.8072ZM23.7957 38.5168C23.7807 38.3526 23.7733 38.1885 23.7733 38.0246H22.2733C22.2733 38.2341 22.2828 38.4436 22.3019 38.6528L23.7957 38.5168ZM23.7733 38.0246C23.7733 34.9068 26.4209 31.8652 31.2084 29.5587C35.9427 27.2777 42.5364 25.8459 49.8622 25.8459V24.3459C42.3616 24.3459 35.5359 25.8087 30.5573 28.2073C25.6319 30.5803 22.2733 34.0032 22.2733 38.0246H23.7733ZM49.8622 25.8459C55.1336 25.8459 60.0335 26.588 64.1351 27.8592C68.2473 29.1336 71.5075 30.9241 73.5502 32.9839L74.6153 31.9277C72.3393 29.6327 68.8281 27.7432 64.5792 26.4264C60.3196 25.1063 55.2686 24.3459 49.8622 24.3459V25.8459ZM73.3495 32.2983C72.8664 34.547 70.9482 36.2471 68.5983 36.4105L68.7024 37.9069C71.7254 37.6967 74.194 35.5089 74.816 32.6133L73.3495 32.2983ZM68.5986 36.4105L66.2692 36.5718L66.3728 38.0682L68.7022 37.9069L68.5986 36.4105ZM66.2668 36.5719L64.626 36.6908L64.7344 38.1869L66.3751 38.068L66.2668 36.5719ZM64.6297 36.6905C61.0531 36.9317 61.0531 42.1905 64.6297 42.4316L64.7306 40.935C63.0194 40.8196 63.0194 38.3025 64.7306 38.1871L64.6297 36.6905ZM64.6279 42.4315L65.9626 42.5249L66.0673 41.0285L64.7325 40.9351L64.6279 42.4315ZM65.9619 42.5248L68.5973 42.7116L68.7034 41.2153L66.0679 41.0286L65.9619 42.5248ZM68.5989 42.7117C70.2193 42.823 71.6239 43.6604 72.5104 44.9101L73.7338 44.0422C72.597 42.4397 70.788 41.3586 68.7018 41.2152L68.5989 42.7117ZM75.9204 108.345C75.6252 111.509 72.9146 114.57 68.2284 116.871C63.578 119.154 57.1519 120.594 49.8282 120.594V122.094C57.3311 122.094 63.9928 120.622 68.8895 118.217C73.7504 115.83 77.0461 112.427 77.4139 108.485L75.9204 108.345ZM49.8282 120.594C42.5043 120.594 36.0631 119.156 31.4052 116.874C26.7102 114.573 24.0049 111.514 23.7366 108.352L22.242 108.478C22.5773 112.43 25.8782 115.835 30.7451 118.221C35.6493 120.624 42.3257 122.094 49.8282 122.094V120.594ZM23.7367 108.352C23.5099 105.643 23.5298 103.445 23.7747 101.676L22.2889 101.47C22.0237 103.386 22.0096 105.703 22.2419 108.478L23.7367 108.352ZM22.287 101.662C22.7389 105.461 26.1811 108.665 31.0591 110.893C35.9859 113.142 42.5931 114.505 49.8282 114.505V113.005C42.764 113.005 36.3768 111.672 31.6821 109.528C26.9386 107.362 24.1323 104.476 23.7765 101.484L22.287 101.662ZM49.8282 114.505C57.0646 114.505 63.7258 113.118 68.6817 110.833C73.5853 108.572 77.0454 105.314 77.3887 101.453L75.8946 101.32C75.6258 104.343 72.829 107.269 68.0536 109.471C63.3307 111.649 56.8913 113.005 49.8282 113.005V114.505ZM75.8994 101.494C76.1602 103.292 76.1806 105.538 75.9204 108.346L77.414 108.484C77.6808 105.605 77.6673 103.232 77.3839 101.279L75.8994 101.494ZM75.9172 100.826C75.9172 100.99 75.9097 101.154 75.8948 101.318L77.3886 101.454C77.4076 101.245 77.4172 101.035 77.4172 100.826H75.9172ZM75.8946 101.32C75.6256 104.346 72.8584 107.271 68.1037 109.471C63.3989 111.649 56.9601 113.005 49.8282 113.005V114.505C57.1317 114.505 63.7936 113.119 68.7337 110.833C73.6239 108.57 77.0457 105.311 77.3887 101.453L75.8946 101.32ZM49.8282 113.005C42.6951 113.005 36.3086 111.671 31.632 109.529C26.9092 107.365 24.1327 104.479 23.7765 101.484L22.287 101.662C22.7385 105.458 26.1426 108.663 31.0072 110.892C35.9181 113.143 42.526 114.505 49.8282 114.505V113.005ZM23.7778 101.496C23.754 101.266 23.7393 101.047 23.7393 100.826H22.2393C22.2393 101.114 22.2585 101.387 22.2858 101.65L23.7778 101.496ZM23.7393 100.826C23.7393 97.7083 26.3887 94.6667 31.1775 92.3601C35.9129 90.0791 42.5067 88.6472 49.8282 88.6472V87.1472C42.3318 87.1472 35.5061 88.6101 30.5265 91.0087C25.6003 93.3815 22.2393 96.8043 22.2393 100.826H23.7393ZM49.8282 88.6472C57.1498 88.6472 63.7435 90.0791 68.479 92.3601C73.2677 94.6667 75.9172 97.7083 75.9172 100.826H77.4172C77.4172 96.8043 74.0561 93.3815 69.1299 91.0087C64.1504 88.6101 57.3247 87.1472 49.8282 87.1472V88.6472ZM76.1042 55.393V104.018H77.6042V55.393H76.1042ZM60.7167 57.8293V84.8157H62.2167V57.8293H60.7167ZM60.7167 93.814V111.802H62.2167V93.814H60.7167ZM22.2393 41.9465V104.018H23.7393V41.9465H22.2393ZM45.297 39.1706C45.1681 38.4317 45.1683 38.4317 45.1684 38.4317C45.1684 38.4317 45.1684 38.4317 45.1685 38.4317C45.1685 38.4317 45.1684 38.4317 45.1683 38.4317C45.168 38.4317 45.1674 38.4319 45.1665 38.432C45.1646 38.4323 45.1615 38.4329 45.157 38.4336C45.1481 38.4351 45.1341 38.4374 45.1152 38.4405C45.0773 38.4466 45.0198 38.4555 44.9444 38.4665C44.7935 38.4886 44.571 38.5187 44.2905 38.5502C43.7289 38.6132 42.9377 38.6813 42.0238 38.7009C40.1794 38.7404 37.9071 38.5802 36.0161 37.836L35.4667 39.2318C37.6308 40.0835 40.1364 40.2417 42.0559 40.2005C43.0241 40.1798 43.8614 40.1078 44.4578 40.0408C44.7563 40.0073 44.9953 39.975 45.1611 39.9508C45.2439 39.9387 45.3086 39.9286 45.3533 39.9215C45.3756 39.9179 45.393 39.915 45.4051 39.9129C45.4112 39.9119 45.416 39.9111 45.4195 39.9105C45.4212 39.9102 45.4226 39.91 45.4236 39.9098C45.4242 39.9097 45.4246 39.9096 45.425 39.9096C45.4252 39.9095 45.4254 39.9095 45.4255 39.9095C45.4257 39.9095 45.4258 39.9094 45.297 39.1706ZM36.0166 37.8362C34.1069 37.0831 33.2635 35.9603 33.2218 35.052C33.1825 34.1953 33.8516 33.0152 36.2078 32.1025L35.666 30.7038C33.0914 31.7011 31.6394 33.2884 31.7234 35.1207C31.805 36.9013 33.3292 38.3888 35.4662 39.2316L36.0166 37.8362ZM36.2089 32.1021C40.9435 30.26 45.92 31.0682 48.2838 32.6315L49.1113 31.3803C46.2892 29.514 40.792 28.7094 35.665 30.7042L36.2089 32.1021ZM48.2834 32.6312C49.256 33.2755 49.5625 34.3941 49.5186 35.7864C49.4737 37.2098 49.0899 38.5587 48.9177 39.6286L50.3987 39.867C50.5325 39.0354 50.9692 37.3749 51.0178 35.8337C51.0674 34.2611 50.7405 32.4596 49.1117 31.3806L48.2834 32.6312ZM48.9177 39.6286C48.712 40.9071 49.33 41.8647 49.9069 42.4483C50.1977 42.7424 50.4958 42.9619 50.7191 43.1074C50.8317 43.1809 50.9279 43.2371 50.9981 43.2762C51.0333 43.2957 51.0622 43.311 51.0836 43.3221C51.0943 43.3277 51.1032 43.3322 51.1101 43.3356C51.1135 43.3374 51.1165 43.3388 51.1189 43.34C51.1201 43.3406 51.1212 43.3411 51.1222 43.3416C51.1226 43.3418 51.1231 43.3421 51.1235 43.3423C51.1237 43.3424 51.124 43.3425 51.1241 43.3426C51.1244 43.3427 51.1246 43.3428 51.452 42.668C51.7794 41.9932 51.7796 41.9934 51.7799 41.9935C51.7799 41.9935 51.7802 41.9936 51.7803 41.9937C51.7806 41.9938 51.7808 41.994 51.7811 41.9941C51.7815 41.9943 51.7818 41.9945 51.7821 41.9946C51.7825 41.9948 51.7824 41.9947 51.7819 41.9945C51.7808 41.9939 51.778 41.9925 51.7734 41.9901C51.7642 41.9854 51.7482 41.977 51.7266 41.9649C51.6832 41.9408 51.6177 41.9027 51.5383 41.8509C51.3774 41.746 51.1697 41.592 50.9737 41.3937C50.5772 40.9926 50.2984 40.4901 50.3987 39.867L48.9177 39.6286ZM51.0842 43.3216C56.1896 46.1949 61.545 44.9002 64.429 43.7186L63.8603 42.3306C61.1503 43.4409 56.338 44.5571 51.8198 42.0144L51.0842 43.3216ZM64.4333 43.7168C65.1912 43.4007 65.9372 42.9142 66.5449 42.3074L65.485 41.246C65.0215 41.7088 64.4413 42.0882 63.8559 42.3324L64.4333 43.7168ZM53.6284 35.8174C53.8642 36.5294 53.864 36.5295 53.8638 36.5295C53.8637 36.5295 53.8636 36.5296 53.8635 36.5296C53.8634 36.5297 53.8633 36.5297 53.8633 36.5297C53.8633 36.5297 53.8637 36.5296 53.8643 36.5294C53.8656 36.5289 53.8681 36.5281 53.8719 36.5269C53.8794 36.5245 53.8918 36.5206 53.9089 36.5153C53.943 36.5048 53.9961 36.4889 54.0667 36.4689C54.208 36.4288 54.4196 36.3725 54.6915 36.3103C55.2358 36.1859 56.0192 36.0386 56.9633 35.9509C58.857 35.775 61.3643 35.8419 63.882 36.7831L64.4072 35.3781C61.6116 34.3329 58.8607 34.2682 56.8246 34.4573C55.8038 34.5521 54.9544 34.7115 54.3571 34.8481C54.0583 34.9164 53.8218 34.9792 53.6579 35.0257C53.5759 35.0489 53.5119 35.068 53.4673 35.0818C53.445 35.0887 53.4275 35.0942 53.415 35.0982C53.4087 35.1002 53.4037 35.1018 53.4 35.103C53.3981 35.1036 53.3966 35.1041 53.3953 35.1046C53.3947 35.1048 53.3942 35.1049 53.3937 35.1051C53.3935 35.1052 53.3932 35.1053 53.3931 35.1053C53.3928 35.1054 53.3925 35.1055 53.6284 35.8174ZM63.8803 36.7825C64.7886 37.1246 65.4119 37.5058 65.8154 37.874L66.8265 36.766C66.2438 36.2343 65.4389 35.7667 64.409 35.3787L63.8803 36.7825ZM88.9839 40.9352L85.0138 41.2153L85.1194 42.7116L89.0895 42.4314L88.9839 40.9352ZM85.0146 41.2152C81.7147 41.4445 79.0647 44.0331 78.7682 47.3378L80.2622 47.4719C80.4927 44.9022 82.5525 42.8899 85.1186 42.7116L85.0146 41.2152ZM78.7681 47.3387L78.2325 53.3828L79.7266 53.5152L80.2622 47.4711L78.7681 47.3387ZM78.2323 53.3852C78.0908 55.0422 75.6347 55.0775 75.4844 53.3828L73.9903 53.5152C74.2991 56.9988 79.4262 57.0341 79.7269 53.5128L78.2323 53.3852ZM75.4844 53.3827L75.2209 50.4116L73.7268 50.5441L73.9903 53.5153L75.4844 53.3827ZM74.8103 32.638C74.8826 32.3493 74.921 32.0622 74.9481 31.792L73.4555 31.6425C73.4316 31.8817 73.402 32.0869 73.3552 32.2737L74.8103 32.638ZM74.9489 31.7835L75.4844 25.7393L73.9903 25.6069L73.4547 31.6511L74.9489 31.7835ZM75.4844 25.7394C75.6347 24.0447 78.0908 24.08 78.2323 25.7369L79.7269 25.6093C79.4262 22.088 74.2991 22.1233 73.9903 25.6069L75.4844 25.7394ZM78.2325 25.7393L78.7681 31.7835L80.2622 31.6511L79.7266 25.6069L78.2325 25.7393ZM78.7682 31.7845C79.0647 35.0797 81.7138 37.6776 85.0146 37.9069L85.1186 36.4105C82.5533 36.2323 80.4927 34.2122 80.2621 31.65L78.7682 31.7845ZM85.0138 37.9068L88.984 38.187L89.0895 36.6907L85.1194 36.4106L85.0138 37.9068ZM88.9863 38.1871C90.6975 38.3025 90.6975 40.8196 88.9863 40.935L89.0872 42.4316C92.6639 42.1905 92.6639 36.9317 89.0872 36.6905L88.9863 38.1871ZM67.8268 4.90738L68.1328 8.36239L69.627 8.23003L69.3209 4.77503L67.8268 4.90738ZM68.1329 8.36277C68.3781 11.115 70.5856 13.281 73.3436 13.4673L73.4447 11.9707C71.4249 11.8343 69.8068 10.2482 69.6269 8.22965L68.1329 8.36277ZM73.343 13.4672L75.5789 13.62L75.6811 12.1235L73.4453 11.9707L73.343 13.4672ZM75.5764 13.6198C76.3057 13.6721 76.3057 14.7284 75.5764 14.7807L75.6836 16.2769C78.2699 16.0915 78.2699 12.3091 75.6836 12.1237L75.5764 13.6198ZM75.5789 14.7806L73.343 14.9334L73.4453 16.4299L75.6811 16.2771L75.5789 14.7806ZM73.341 14.9335C70.5862 15.1293 68.3783 17.2928 68.1329 20.0376L69.6269 20.1712C69.8066 18.1621 71.4243 16.5735 73.4473 16.4297L73.341 14.9335ZM68.1328 20.0382L67.8268 23.4932L69.3209 23.6255L69.627 20.1705L68.1328 20.0382ZM67.8268 23.4928C67.808 23.7042 67.7257 23.8221 67.6393 23.8937C67.5424 23.9739 67.4021 24.0254 67.2444 24.0254C67.0867 24.0254 66.9477 23.9739 66.8524 23.8947C66.7678 23.8243 66.6865 23.7077 66.6688 23.4967L65.174 23.6221C65.3892 26.1876 69.0976 26.1309 69.3209 23.626L67.8268 23.4928ZM66.6685 23.4932L66.3624 20.0382L64.8683 20.1705L65.1743 23.6255L66.6685 23.4932ZM66.3624 20.0378C66.1172 17.2856 63.9097 15.1195 61.1516 14.9333L61.0506 16.4299C63.0703 16.5663 64.6885 18.1524 64.8683 20.1709L66.3624 20.0378ZM61.1522 14.9334L58.9164 14.7806L58.8141 16.2771L61.05 16.4299L61.1522 14.9334ZM58.9189 14.7807C58.1896 14.7284 58.1896 13.6721 58.9189 13.6198L58.8116 12.1237C56.2253 12.3091 56.2253 16.0915 58.8116 16.2769L58.9189 14.7807ZM58.9164 13.62L61.1522 13.4672L61.05 11.9707L58.8141 12.1235L58.9164 13.62ZM61.1543 13.4671C63.909 13.2713 66.1169 11.1078 66.3624 8.36301L64.8683 8.22941C64.6887 10.2385 63.071 11.8271 61.0479 11.9708L61.1543 13.4671ZM66.3624 8.36239L66.6685 4.90738L65.1743 4.77503L64.8683 8.23003L66.3624 8.36239ZM66.6684 4.90779C66.6873 4.69639 66.7695 4.57842 66.856 4.50689C66.9528 4.42668 67.0932 4.37516 67.2508 4.37516C67.4085 4.37516 67.5476 4.42666 67.6428 4.50586C67.7275 4.57623 67.8088 4.69287 67.8265 4.9039L69.3212 4.7785C69.106 2.21302 65.3976 2.2697 65.1744 4.77461L66.6684 4.90779ZM91.4748 46.0212V49.1876H92.9748V46.0212H91.4748ZM91.4748 52.7275V55.8938H92.9748V52.7275H91.4748ZM97.1726 50.2033H94.0016V51.7033H97.1726V50.2033ZM90.448 50.2033H87.2769V51.7033H90.448V50.2033ZM90.021 14.2045V15.3675H91.521V14.2045H90.021ZM90.021 16.6663V17.8293H91.521V16.6663H90.021ZM92.5903 15.2712H91.4256V16.7712H92.5903V15.2712ZM90.1249 15.2712H88.9602V16.7712H90.1249V15.2712ZM50.481 1.34375V4.25547H51.981V1.34375H50.481ZM50.481 7.51523V10.4269H51.981V7.51523H50.481ZM55.7792 5.13535H52.8632V6.63535H55.7792V5.13535ZM49.5987 5.13535H46.6827V6.63535H49.5987V5.13535Z" fill="white"/>
</svg>
