<svg width="120" height="120" viewBox="0 0 120 120" fill="none" xmlns="http://www.w3.org/2000/svg">
<path fill-rule="evenodd" clip-rule="evenodd" d="M17 27C17 24.2386 19.2386 22 22 22H70C72.7614 22 75 24.2386 75 27V48.4474C76.4541 48.154 77.959 48 79.5 48C91.9204 48 102 58.0061 102 70.3626V75.6374C102 87.9939 91.9203 98 79.5 98C67.0796 98 57 87.9939 57 75.6374V70.3626C57 70.2415 57.001 70.1206 57.0029 70H22C19.2386 70 17 67.7614 17 65V27ZM57.124 68C58.0807 58.9424 64.4762 51.4999 73 48.9475V27C73 25.3431 71.6569 24 70 24H22C20.3431 24 19 25.3431 19 27V65C19 66.6569 20.3431 68 22 68H57.124ZM41.9999 61L50.9999 30L52.9206 30.5576L43.9206 61.5576L41.9999 61ZM28.3999 44.95L37.3999 38.2L38.5999 39.8L30.6666 45.75L38.5999 51.7L37.3999 53.3L28.3999 46.55L27.3333 45.75L28.3999 44.95ZM55.5999 38.2L64.5999 44.95L65.6666 45.75L64.5999 46.55L55.5999 53.3L54.3999 51.7L62.3332 45.75L54.3999 39.8L55.5999 38.2ZM59 70.3626C59 59.1227 68.1721 50 79.5 50C90.8279 50 100 59.1227 100 70.3626C100 81.6026 90.8279 90.7253 79.5 90.7253C68.1721 90.7253 59 81.6026 59 70.3626ZM79.5 92.7253C88.0263 92.7253 95.4495 88.0099 99.2661 81.0558C96.8783 89.6684 88.9372 96 79.5 96C70.0628 96 62.1217 89.6684 59.7339 81.0558C63.5505 88.0099 70.9737 92.7253 79.5 92.7253Z" fill="url(#paint0_linear_5360_87434)"/>
<defs>
<linearGradient id="paint0_linear_5360_87434" x1="17" y1="22" x2="102.892" y2="43.5313" gradientUnits="userSpaceOnUse">
<stop stop-color="#3B00B9"/>
<stop offset="1" stop-color="#2586B6"/>
</linearGradient>
</defs>
</svg>
