<svg width="120" height="120" viewBox="0 0 120 120" fill="none" xmlns="http://www.w3.org/2000/svg">
<path fill-rule="evenodd" clip-rule="evenodd" d="M13 23C13 20.2386 15.2386 18 18 18H68C70.7614 18 73 20.2386 73 23V24H75C77.7614 24 80 26.2386 80 29V60C80 60.5523 79.5523 61 79 61C78.4477 61 78 60.5523 78 60V29C78 27.3431 76.6569 26 75 26H25C23.3431 26 22 27.3431 22 29V69C22 70.6569 23.3431 72 25 72H63C63.5523 72 64 72.4477 64 73C64 73.5523 63.5523 74 63 74H25C22.2386 74 20 71.7614 20 69V68H18C15.2386 68 13 65.7614 13 63V23ZM71 23V24H25C22.2386 24 20 26.2386 20 29V66H18C16.3431 66 15 64.6569 15 63V23C15 21.3431 16.3431 20 18 20H68C69.6569 20 71 21.3431 71 23ZM54.6667 33L45.6667 64L47.5874 64.5576L56.5874 33.5576L54.6667 33ZM41.0667 41.2L32.0667 47.95L31 48.75L32.0667 49.55L41.0667 56.3L42.2667 54.7L34.3333 48.75L42.2667 42.8L41.0667 41.2ZM68.2667 47.95L59.2667 41.2L58.0667 42.8L66 48.75L58.0667 54.7L59.2667 56.3L68.2667 49.55L69.3333 48.75L68.2667 47.95ZM91 53C91 50.2386 93.2386 48 96 48H102C104.761 48 107 50.2386 107 53V96C107 98.7614 104.761 101 102 101H96C93.2386 101 91 98.7614 91 96V53ZM96 50C94.3431 50 93 51.3431 93 53V96C93 97.6569 94.3431 99 96 99H102C103.657 99 105 97.6569 105 96V53C105 51.3431 103.657 50 102 50H96ZM75 65C72.2386 65 70 67.2386 70 70V96C70 98.7614 72.2386 101 75 101H81C83.7614 101 86 98.7614 86 96V70C86 67.2386 83.7614 65 81 65H75ZM72 70C72 68.3431 73.3431 67 75 67H81C82.6569 67 84 68.3431 84 70V96C84 97.6569 82.6569 99 81 99H75C73.3431 99 72 97.6569 72 96V70ZM54 82C51.2386 82 49 84.2386 49 87V96C49 98.7614 51.2386 101 54 101H60C62.7614 101 65 98.7614 65 96V87C65 84.2386 62.7614 82 60 82H54ZM51 87C51 85.3431 52.3431 84 54 84H60C61.6569 84 63 85.3431 63 87V96C63 97.6569 61.6569 99 60 99H54C52.3431 99 51 97.6569 51 96V87Z" fill="url(#paint0_linear_5416_89587)"/>
<defs>
<linearGradient id="paint0_linear_5416_89587" x1="13" y1="18" x2="107.844" y2="42.0754" gradientUnits="userSpaceOnUse">
<stop stop-color="#3B00B9"/>
<stop offset="1" stop-color="#2586B6"/>
</linearGradient>
</defs>
</svg>
