<svg width="120" height="120" viewBox="0 0 120 120" fill="none" xmlns="http://www.w3.org/2000/svg">
<path fill-rule="evenodd" clip-rule="evenodd" d="M94 34H26C24.8954 34 24 34.8954 24 36V77V81C24 82.1046 24.8954 83 26 83H94C95.1046 83 96 82.1046 96 81V77V36C96 34.8954 95.1046 34 94 34ZM22 36V77V81V82.1458C22 83.1665 22.3124 84.1627 22.8952 85.0006L24.8802 87.8549C25.8149 89.1987 27.3482 90 28.9851 90H91.0149C92.6518 90 94.1851 89.1987 95.1198 87.8549L97.1048 85.0006C97.6876 84.1627 98 83.1665 98 82.1458V81V77V36C98 33.7909 96.2091 32 94 32H26C23.7909 32 22 33.7909 22 36ZM26.5222 86.7129L25.2868 84.9366C25.5182 84.9783 25.7566 85 26 85H94C94.2434 85 94.4818 84.9783 94.7132 84.9366L93.4778 86.7129C92.917 87.5192 91.9971 88 91.0149 88H28.9851C28.0029 88 27.083 87.5192 26.5222 86.7129ZM35 42H53C54.1046 42 55 42.8954 55 44V62.7102C54.6638 62.4902 54.2755 62.2611 53.8313 62.0333C51.8056 60.9944 48.6477 60 44 60C39.3523 60 36.1944 60.9944 34.1687 62.0333C33.7245 62.2611 33.3362 62.4902 33 62.7102V44C33 42.8954 33.8954 42 35 42ZM33 65.2401V71V73C33 74.1046 33.8954 75 35 75H53C54.1046 75 55 74.1046 55 73V71V65.2401C54.9311 65.1736 54.8451 65.0944 54.7409 65.0054C54.3751 64.6927 53.7833 64.2563 52.9187 63.8129C51.1944 62.9286 48.3523 62 44 62C39.6477 62 36.8056 62.9286 35.0813 63.8129C34.2167 64.2563 33.6249 64.6927 33.2591 65.0054C33.1549 65.0944 33.0689 65.1736 33 65.2401ZM57 71V73C57 75.2091 55.2091 77 53 77H35C32.7909 77 31 75.2091 31 73V71V64.8462V64.5023V44C31 41.7909 32.7909 40 35 40H53C55.2091 40 57 41.7909 57 44V64.5023V64.8462V71ZM65 69C65 68.4477 65.4477 68 66 68H78C78.5523 68 79 68.4477 79 69C79 69.5523 78.5523 70 78 70H66C65.4477 70 65 69.5523 65 69ZM66 63C65.4477 63 65 63.4477 65 64C65 64.5523 65.4477 65 66 65H86C86.5523 65 87 64.5523 87 64C87 63.4477 86.5523 63 86 63H66ZM65 59C65 58.4477 65.4477 58 66 58H86C86.5523 58 87 58.4477 87 59C87 59.5523 86.5523 60 86 60H66C65.4477 60 65 59.5523 65 59ZM66.5 50H85.5C86.3284 50 87 50.6716 87 51.5C87 52.3284 86.3284 53 85.5 53H66.5C65.6716 53 65 52.3284 65 51.5C65 50.6716 65.6716 50 66.5 50ZM63 51.5C63 49.567 64.567 48 66.5 48H85.5C87.433 48 89 49.567 89 51.5C89 53.433 87.433 55 85.5 55H66.5C64.567 55 63 53.433 63 51.5ZM44 56C46.7614 56 49 53.7614 49 51C49 48.2386 46.7614 46 44 46C41.2386 46 39 48.2386 39 51C39 53.7614 41.2386 56 44 56ZM44 58C47.866 58 51 54.866 51 51C51 47.134 47.866 44 44 44C40.134 44 37 47.134 37 51C37 54.866 40.134 58 44 58Z" fill="url(#paint0_linear_5360_87428)"/>
<defs>
<linearGradient id="paint0_linear_5360_87428" x1="22" y1="32" x2="97.1417" y2="54.0689" gradientUnits="userSpaceOnUse">
<stop stop-color="#3B00B9"/>
<stop offset="1" stop-color="#2586B6"/>
</linearGradient>
</defs>
</svg>
