<svg width="860" height="520" viewBox="0 0 860 520" fill="none" xmlns="http://www.w3.org/2000/svg">
<g clip-path="url(#clip0_5435_77591)">
<path fill-rule="evenodd" clip-rule="evenodd" d="M323.707 127C318.737 127 314.707 131.029 314.707 136V228.535C314.707 229.096 314.64 229.655 314.506 230.2L310.092 248.224C309.418 250.978 312.588 253.044 314.836 251.315L341.074 231.122C342.298 230.18 343.799 229.669 345.343 229.669H437.707C442.678 229.669 446.707 225.64 446.707 220.669V136C446.707 131.029 442.678 127 437.707 127H323.707ZM316.707 136C316.707 132.134 319.841 129 323.707 129H437.707C441.573 129 444.707 132.134 444.707 136V220.669C444.707 224.535 441.573 227.669 437.707 227.669H345.343C343.358 227.669 341.428 228.326 339.854 229.537L313.616 249.73C312.867 250.306 311.81 249.618 312.035 248.7L316.449 230.675C316.621 229.975 316.707 229.256 316.707 228.535V136ZM342.707 156C342.155 156 341.707 156.448 341.707 157C341.707 157.552 342.155 158 342.707 158H418.707C419.26 158 419.707 157.552 419.707 157C419.707 156.448 419.26 156 418.707 156H342.707ZM341.707 175C341.707 174.448 342.155 174 342.707 174H418.707C419.26 174 419.707 174.448 419.707 175C419.707 175.552 419.26 176 418.707 176H342.707C342.155 176 341.707 175.552 341.707 175ZM342.707 192C342.155 192 341.707 192.448 341.707 193C341.707 193.552 342.155 194 342.707 194H418.707C419.26 194 419.707 193.552 419.707 193C419.707 192.448 419.26 192 418.707 192H342.707Z" fill="white"/>
<path fill-rule="evenodd" clip-rule="evenodd" d="M536.707 268C541.677 268 545.707 272.029 545.707 277V369.535C545.707 370.096 545.774 370.655 545.908 371.2L550.322 389.224C550.996 391.978 547.826 394.044 545.578 392.315L519.34 372.122C518.116 371.18 516.615 370.669 515.071 370.669H422.707C417.736 370.669 413.707 366.64 413.707 361.669V277C413.707 272.029 417.736 268 422.707 268H536.707ZM543.707 277C543.707 273.134 540.573 270 536.707 270H422.707C418.841 270 415.707 273.134 415.707 277V361.669C415.707 365.535 418.841 368.669 422.707 368.669H515.071C517.056 368.669 518.986 369.326 520.56 370.537L546.798 390.73C547.547 391.306 548.604 390.618 548.379 389.7L543.965 371.675C543.794 370.975 543.707 370.256 543.707 369.535V277ZM517.707 297C518.259 297 518.707 297.448 518.707 298C518.707 298.552 518.259 299 517.707 299H441.707C441.155 299 440.707 298.552 440.707 298C440.707 297.448 441.155 297 441.707 297H517.707ZM518.707 316C518.707 315.448 518.259 315 517.707 315H441.707C441.155 315 440.707 315.448 440.707 316C440.707 316.552 441.155 317 441.707 317H517.707C518.259 317 518.707 316.552 518.707 316ZM517.707 333C518.259 333 518.707 333.448 518.707 334C518.707 334.552 518.259 335 517.707 335H441.707C441.155 335 440.707 334.552 440.707 334C440.707 333.448 441.155 333 441.707 333H517.707Z" fill="white"/>
<g opacity="0.2">
<path d="M183.001 35L124.001 69.3085L183.001 103.617L242 69.3085L183.001 35Z" stroke="white" stroke-width="2" stroke-linejoin="round"/>
<path d="M124 126.74V69.2651L182.999 103.574L182.999 161L124 126.74Z" stroke="white" stroke-width="2" stroke-linejoin="round"/>
<path d="M241.947 126.74L241.947 69.2651L182.947 103.574L182.947 161L241.947 126.74Z" stroke="white" stroke-width="2" stroke-linejoin="round"/>
</g>
<g opacity="0.2">
<path d="M622.001 -24L520.002 35.313L622.001 94.6259L724 35.313L622.001 -24Z" stroke="white" stroke-width="2" stroke-linejoin="round"/>
<path d="M520 134.601V35.238L621.999 94.551L621.999 193.831L520 134.601Z" stroke="white" stroke-width="2" stroke-linejoin="round"/>
<path d="M723.908 134.601L723.908 35.238L621.909 94.551L621.909 193.831L723.908 134.601Z" stroke="white" stroke-width="2" stroke-linejoin="round"/>
</g>
<g opacity="0.2">
<path fill-rule="evenodd" clip-rule="evenodd" d="M736.966 244H630.276C627.914 244 626 245.914 626 248.276V312.603H626.569V320.677C626.569 320.796 626.573 320.915 626.581 321.033C627.322 322.302 628.7 323.155 630.276 323.155H736.966C738.542 323.155 739.919 322.302 740.66 321.033C740.668 320.915 740.672 320.796 740.672 320.677V312.603H741.241V248.276C741.241 245.914 739.327 244 736.966 244ZM624 318.879C624 319.864 624.227 320.796 624.631 321.625C624.782 322.773 625.205 323.873 625.872 324.831L628.986 329.31C630.346 331.265 632.577 332.431 634.959 332.431H732.282C734.664 332.431 736.895 331.265 738.255 329.31L741.37 324.831C742.036 323.873 742.459 322.773 742.61 321.625C743.015 320.796 743.241 319.864 743.241 318.879V248.276C743.241 244.81 740.432 242 736.966 242H630.276C626.81 242 624 244.81 624 248.276V318.879ZM630.628 328.168L628.316 324.843C628.933 325.046 629.591 325.155 630.276 325.155H736.966C737.65 325.155 738.309 325.046 738.925 324.843L736.613 328.168C735.627 329.586 734.009 330.431 732.282 330.431H634.959C633.232 330.431 631.614 329.586 630.628 328.168ZM644.397 256.552H672.638C674.999 256.552 676.914 258.466 676.914 260.828V291.726C676.196 291.128 675.14 290.375 673.683 289.627C670.59 288.041 665.725 286.5 658.517 286.5C651.309 286.5 646.444 288.041 643.352 289.627C641.895 290.375 640.838 291.128 640.121 291.726V260.828C640.121 258.466 642.035 256.552 644.397 256.552ZM640.121 303.19V306.328C640.121 308.689 642.035 310.603 644.397 310.603H672.638C674.999 310.603 676.914 308.689 676.914 306.328V303.19H676.345V293.917C676.21 293.778 676.011 293.584 675.739 293.352C675.133 292.834 674.168 292.124 672.77 291.407C669.979 289.976 665.43 288.5 658.517 288.5C651.605 288.5 647.056 289.976 644.265 291.407C642.867 292.124 641.901 292.834 641.296 293.352C641.024 293.584 640.824 293.778 640.69 293.917V303.19H640.121ZM638.121 260.828C638.121 257.362 640.93 254.552 644.397 254.552H672.638C676.104 254.552 678.914 257.362 678.914 260.828V306.328C678.914 309.794 676.104 312.603 672.638 312.603H644.397C640.93 312.603 638.121 309.794 638.121 306.328V260.828ZM692.035 300.052C692.035 299.499 692.482 299.052 693.035 299.052H711.862C712.414 299.052 712.862 299.499 712.862 300.052C712.862 300.604 712.414 301.052 711.862 301.052H693.035C692.482 301.052 692.035 300.604 692.035 300.052ZM693.035 291.207C692.482 291.207 692.035 291.655 692.035 292.207C692.035 292.759 692.482 293.207 693.035 293.207H724.414C724.966 293.207 725.414 292.759 725.414 292.207C725.414 291.655 724.966 291.207 724.414 291.207H693.035ZM692.035 284.362C692.035 283.81 692.482 283.362 693.035 283.362H724.414C724.966 283.362 725.414 283.81 725.414 284.362C725.414 284.914 724.966 285.362 724.414 285.362H693.035C692.482 285.362 692.035 284.914 692.035 284.362ZM693.819 269.103H723.629C725.558 269.103 727.121 270.667 727.121 272.595C727.121 274.523 725.558 276.086 723.629 276.086H693.819C691.891 276.086 690.328 274.523 690.328 272.595C690.328 270.667 691.891 269.103 693.819 269.103ZM688.328 272.595C688.328 269.562 690.786 267.103 693.819 267.103H723.629C726.662 267.103 729.121 269.562 729.121 272.595C729.121 275.628 726.662 278.086 723.629 278.086H693.819C690.786 278.086 688.328 275.628 688.328 272.595ZM658.517 280.793C663.478 280.793 667.5 276.771 667.5 271.81C667.5 266.849 663.478 262.828 658.517 262.828C653.556 262.828 649.535 266.849 649.535 271.81C649.535 276.771 653.556 280.793 658.517 280.793ZM658.517 282.793C664.583 282.793 669.5 277.876 669.5 271.81C669.5 265.745 664.583 260.828 658.517 260.828C652.452 260.828 647.535 265.745 647.535 271.81C647.535 277.876 652.452 282.793 658.517 282.793Z" fill="white"/>
</g>
<path opacity="0.2" fill-rule="evenodd" clip-rule="evenodd" d="M249.48 320L249.69 320.045L309.156 332.68L309.959 332.85V333.672V403.098C309.959 418.845 301.926 433.505 288.654 441.979L250.025 466.644L249.48 466.992L248.934 466.644L210.305 441.979C197.033 433.505 189 418.845 189 403.098V333.672V332.85L189.803 332.68L249.269 320.045L249.48 320ZM191.028 334.493V403.098C191.028 418.153 198.707 432.168 211.397 440.27L249.48 464.586L287.562 440.27C300.252 432.168 307.931 418.153 307.931 403.098V334.493L249.48 322.073L191.028 334.493ZM250.493 384.457C254.003 384.029 256.721 381.038 256.721 377.413C256.721 373.493 253.544 370.316 249.624 370.316H249.335C245.415 370.316 242.237 373.493 242.237 377.413C242.237 381.038 244.956 384.029 248.466 384.457L248.466 405.632H250.493V384.457Z" fill="white"/>
</g>
<defs>
<clipPath id="clip0_5435_77591">
<rect width="860" height="520" fill="white"/>
</clipPath>
</defs>
</svg>
