<svg width="120" height="120" viewBox="0 0 120 120" fill="none" xmlns="http://www.w3.org/2000/svg">
<path fill-rule="evenodd" clip-rule="evenodd" d="M76.2581 18.9074L78.8829 16.2277L79.8162 19.8608C80.0331 20.7052 80.6067 21.4135 81.3876 21.8013L84.7472 23.4696L81.5804 25.4799C80.8443 25.9472 80.3479 26.7115 80.2204 27.574L79.672 31.2848L76.7815 28.8941C76.1096 28.3385 75.2293 28.1026 74.3696 28.2479L70.671 28.873L72.0514 25.3852C72.3722 24.5745 72.3245 23.6643 71.9207 22.8916L70.1833 19.5672L73.927 19.8022C74.7971 19.8569 75.648 19.5302 76.2581 18.9074ZM78.6956 13.5608C79.2407 13.0043 80.1847 13.2572 80.3786 14.0117L81.7533 19.3632C81.8256 19.6446 82.0168 19.8807 82.2771 20.01L87.2258 22.4673C87.9235 22.8138 87.9747 23.7898 87.317 24.2073L82.6523 27.1684C82.4069 27.3242 82.2414 27.579 82.199 27.8665L81.3911 33.3323C81.2772 34.1029 80.3648 34.4532 79.7645 33.9567L75.5068 30.4353C75.2829 30.2501 74.9894 30.1715 74.7029 30.2199L69.2549 31.1406C68.4868 31.2705 67.8717 30.511 68.1584 29.7866L70.1917 24.6491C70.2987 24.3789 70.2828 24.0755 70.1482 23.818L67.589 18.9212C67.2282 18.2307 67.7604 17.4111 68.5379 17.4599L74.0523 17.8062C74.3423 17.8244 74.626 17.7155 74.8293 17.5079L78.6956 13.5608ZM25.8829 25.2277L23.2581 27.9074C22.648 28.5302 21.7971 28.8569 20.927 28.8022L17.1833 28.5672L18.9207 31.8916C19.3245 32.6643 19.3722 33.5745 19.0514 34.3852L17.671 37.873L21.3696 37.2479C22.2293 37.1026 23.1096 37.3385 23.7815 37.8941L26.672 40.2848L27.2204 36.574C27.3479 35.7115 27.8443 34.9472 28.5804 34.4799L31.7472 32.4696L28.3876 30.8013C27.6067 30.4135 27.0331 29.7052 26.8162 28.8608L25.8829 25.2277ZM27.3786 23.0117C27.1847 22.2572 26.2407 22.0043 25.6956 22.5608L21.8293 26.5079C21.626 26.7155 21.3423 26.8244 21.0523 26.8062L15.5379 26.4599C14.7604 26.4111 14.2282 27.2307 14.589 27.9212L17.1482 32.818C17.2828 33.0755 17.2987 33.3789 17.1917 33.6491L15.1584 38.7866C14.8718 39.511 15.4868 40.2705 16.2549 40.1406L21.7029 39.2199C21.9894 39.1715 22.2829 39.2501 22.5068 39.4353L26.7645 42.9567C27.3648 43.4532 28.2772 43.1029 28.3911 42.3323L29.1989 36.8665C29.2414 36.579 29.4069 36.3242 29.6523 36.1684L34.317 33.2073C34.9747 32.7898 34.9235 31.8138 34.2258 31.4673L29.2771 29.01C29.0168 28.8807 28.8256 28.6446 28.7533 28.3632L27.3786 23.0117ZM70.9872 51.0094C73.2743 59.5448 68.209 68.3182 59.6735 70.6053C51.138 72.8923 42.3647 67.827 40.0776 59.2916C37.7905 50.7561 42.8558 41.9827 51.3913 39.6957C58.4324 37.809 65.6354 40.9256 69.2256 46.8662L69.4391 47.659L69.6448 47.6036C70.2096 48.6619 70.6634 49.8009 70.9872 51.0094ZM71.6214 47.0713C72.1588 48.1443 72.5963 49.2873 72.9191 50.4917C73.4636 52.5238 73.6376 54.568 73.4826 56.5523L90.0284 52.1189L88.3055 45.689C87.8762 44.0871 86.2288 43.1374 84.6275 43.5686L71.6214 47.0713ZM73.1823 58.7034C71.8713 65.1906 67.0178 70.7079 60.1911 72.5371C53.3645 74.3663 46.4026 72.0149 42.0236 67.0523L24.6603 71.7048L33.3627 104.183C33.7916 105.783 35.4366 106.733 37.037 106.304L97.1271 90.2028C98.7275 89.774 99.6772 88.129 99.2484 86.5286L90.546 54.0508L73.1823 58.7034ZM40.688 65.3397L24.1427 69.7729L22.3841 63.21C21.9655 61.6476 22.8609 60.0346 24.4082 59.5635L37.5331 55.568C37.5668 56.9714 37.7663 58.3932 38.1457 59.8092C38.6902 61.8413 39.5615 63.6986 40.688 65.3397ZM37.6075 53.4547L23.8258 57.6502C21.2468 58.4353 19.7546 61.1236 20.4523 63.7276L31.4309 104.7C32.1456 107.368 34.8873 108.95 37.5546 108.236L40.6015 107.419L41.3167 110.088C42.0314 112.756 44.7731 114.339 47.4404 113.624L107.531 97.5229C110.198 96.8082 111.781 94.0665 111.066 91.3991L100.122 50.5546C99.4071 47.8873 96.6654 46.3044 93.9981 47.0191L90.9512 47.8355L90.2373 45.1713C89.5219 42.5016 86.7763 40.9187 84.1075 41.6374L70.5893 45.278C66.4456 38.956 58.5736 35.7006 50.8737 37.7638C43.4038 39.7653 38.2965 46.1827 37.6075 53.4547ZM91.4688 49.7673L101.18 86.0109C101.895 88.6783 100.312 91.42 97.6447 92.1347L42.5333 106.902L43.2485 109.571C43.6773 111.171 45.3224 112.121 46.9227 111.692L107.013 95.591C108.613 95.1622 109.563 93.5172 109.134 91.9168L98.1899 51.0722C97.7611 49.4718 96.1161 48.5221 94.5157 48.9509L91.4688 49.7673ZM81.8391 76.0541L70.248 79.1599C69.181 79.4458 68.5479 80.5425 68.8338 81.6094L70.1278 86.4391C70.4137 87.506 71.5104 88.1392 72.5773 87.8533L84.1684 84.7474C85.2354 84.4616 85.8685 83.3649 85.5827 82.298L84.2886 77.4683C84.0027 76.4014 82.906 75.7682 81.8391 76.0541ZM69.7303 77.2281C67.5965 77.7999 66.3301 79.9932 66.9019 82.1271L68.196 86.9567C68.7678 89.0906 70.9611 90.3569 73.095 89.7851L84.6861 86.6793C86.82 86.1075 88.0863 83.9142 87.5145 81.7803L86.2204 76.9507C85.6487 74.8168 83.4553 73.5505 81.3214 74.1223L69.7303 77.2281ZM35.7333 89.4433L56.9837 83.7493L56.4661 81.8174L35.2157 87.5115L35.7333 89.4433ZM50.3609 93.8061L37.8039 97.1707L37.2862 95.2389L49.8433 91.8742L50.3609 93.8061ZM52.5474 51.1269L53.4807 47.4938L56.1055 50.1735C56.7156 50.7963 57.5665 51.1229 58.4366 51.0683L62.1803 50.8333L60.4429 54.1577C60.0391 54.9304 59.9914 55.8405 60.3122 56.6512L61.6926 60.139L57.994 59.5139C57.1343 59.3686 56.254 59.6045 55.5821 60.1602L52.6916 62.5508L52.1432 58.8401C52.0157 57.9776 51.5193 57.2132 50.7832 56.746L47.6164 54.7356L50.976 53.0674C51.7569 52.6796 52.3305 51.9713 52.5474 51.1269ZM51.985 45.2778C52.1789 44.5233 53.1229 44.2703 53.668 44.8268L57.5343 48.7739C57.7376 48.9816 58.0213 49.0904 58.3113 49.0722L63.8257 48.726C64.6032 48.6772 65.1354 49.4968 64.7746 50.1872L62.2154 55.084C62.0808 55.3416 62.0649 55.645 62.1719 55.9152L64.2052 61.0527C64.4918 61.777 63.8768 62.5365 63.1087 62.4067L57.6607 61.486C57.3742 61.4375 57.0807 61.5162 56.8568 61.7014L52.5991 65.2227C51.9988 65.7192 51.0864 65.369 50.9725 64.5984L50.1646 59.1325C50.1222 58.845 49.9567 58.5902 49.7113 58.4345L45.0466 55.4733C44.3889 55.0558 44.4401 54.0799 45.1378 53.7334L50.0865 51.2761C50.3468 51.1468 50.538 50.9107 50.6103 50.6292L51.985 45.2778Z" fill="url(#paint0_linear_5360_87432)"/>
<defs>
<linearGradient id="paint0_linear_5360_87432" x1="14.4736" y1="13.2599" x2="113.776" y2="34.6822" gradientUnits="userSpaceOnUse">
<stop stop-color="#3B00B9"/>
<stop offset="1" stop-color="#2586B6"/>
</linearGradient>
</defs>
</svg>
