<svg width="120" height="120" viewBox="0 0 120 120" fill="none" xmlns="http://www.w3.org/2000/svg">
<path d="M60.7656 37.3044C58.5133 35.7516 55.8784 34.8462 53.1474 34.6865C50.4165 34.5269 47.694 35.1192 45.2762 36.399C42.8584 37.6788 40.8378 39.5971 39.4342 41.9453C38.0307 44.2934 37.2979 46.9815 37.3156 49.7171C37.3332 52.4526 38.1007 55.131 39.5345 57.4608C40.9683 59.7906 43.0135 61.6826 45.4477 62.9311C47.8818 64.1795 50.6117 64.7366 53.3404 64.5417C56.0691 64.3468 58.6921 63.4073 60.9241 61.8256L66.9717 65.9865L72.202 65.9249L76.2725 71.3195L81.005 71.9816L85.0754 77.3761L95.7517 76.9397L91.132 68.5732L67.0454 52.0011C67.4954 49.2083 67.1442 46.3451 66.0327 43.7438C64.9212 41.1425 63.0948 38.9097 60.7656 37.3044ZM54.0469 50.8398C53.5678 51.5362 52.8929 52.0749 52.1075 52.3878C51.3222 52.7006 50.4618 52.7736 49.635 52.5974C48.8082 52.4212 48.0523 52.0038 47.4627 51.398C46.8731 50.7922 46.4765 50.0252 46.3228 49.1939C46.1692 48.3627 46.2655 47.5045 46.5996 46.728C46.9337 45.9515 47.4905 45.2915 48.1997 44.8314C48.9089 44.3714 49.7386 44.132 50.5838 44.1435C51.4291 44.1549 52.252 44.4168 52.9484 44.896C53.8823 45.5385 54.5227 46.5257 54.7287 47.6404C54.9347 48.7551 54.6894 49.9059 54.0469 50.8398Z" stroke="url(#paint0_linear_5416_89487)" stroke-width="2.24485"/>
<path fill-rule="evenodd" clip-rule="evenodd" d="M21.558 32.8882C22.5734 30.3093 24.2424 28.039 26.4009 26.3004C28.5593 24.5618 31.133 23.4147 33.869 22.9719C36.605 22.5291 39.4091 22.8058 42.0058 23.7747C44.6025 24.7437 46.9024 26.3716 48.6794 28.4985C50.4565 30.6254 51.6497 33.178 52.1415 35.9056C52.6334 38.6332 52.4072 41.4418 51.485 44.0555C51.2788 44.6401 51.5855 45.2812 52.1701 45.4875C52.7546 45.6937 53.3957 45.387 53.602 44.8024C54.6537 41.8215 54.9118 38.6181 54.3508 35.5072C53.7897 32.3963 52.4289 29.4849 50.4021 27.0591C48.3753 24.6333 45.7522 22.7766 42.7906 21.6715C39.829 20.5664 36.6308 20.2508 33.5103 20.7559C30.3898 21.261 27.4545 22.5692 24.9927 24.5522C22.5309 26.5351 20.6274 29.1244 19.4692 32.0657C18.3111 35.007 17.9381 38.199 18.3871 41.328C18.836 44.4571 20.0913 47.4155 22.0297 49.9125C22.4098 50.4022 23.1149 50.491 23.6046 50.1108C24.0943 49.7307 24.1831 49.0256 23.803 48.5359C22.1034 46.3466 21.0028 43.7527 20.6092 41.0092C20.2155 38.2657 20.5425 35.467 21.558 32.8882ZM36.5121 50.9672C35.0865 53.6103 34.8137 55.9169 34.9587 58.7813C35.1074 61.7184 36.0586 64.5585 37.7089 66.9927C39.3591 69.4269 41.6453 71.3619 44.3187 72.5874C46.7519 73.7028 49.4211 74.1914 52.0837 74.0149L55.0461 79.8884L55.2068 80.2069L55.5219 80.3742L59.6435 82.5626L60.5309 88.6892L60.5977 89.1502L60.9712 89.4284L64.4299 92.0048L65.3417 98.2315L65.4269 98.8132L65.9537 99.0745L75.5256 103.821L77.1527 104.628L77.1467 102.812L77.1153 93.2546L77.1144 92.9753L76.9827 92.729L60.9899 62.8242L59.0103 63.8828L74.8714 93.5413L74.8959 101.003L67.4777 97.3245L66.5837 91.2197L66.5164 90.7598L66.1437 90.4821L62.6858 87.9064L61.7835 81.6774L61.7019 81.1139L61.1991 80.8469L56.8898 78.5589L53.7445 72.3228L53.3916 71.623L52.6131 71.7133C50.0996 72.0046 47.5543 71.6011 45.2541 70.5467C42.9539 69.4923 40.9869 67.8274 39.567 65.733C38.1471 63.6386 37.3286 61.195 37.2007 58.6679C37.0691 56.0681 37.3163 54.2051 38.4879 52.0328L36.5121 50.9672Z" fill="url(#paint1_linear_5416_89487)"/>
<defs>
<linearGradient id="paint0_linear_5416_89487" x1="31.4712" y1="53.4652" x2="52.1517" y2="29.0862" gradientUnits="userSpaceOnUse">
<stop stop-color="#3B00B9"/>
<stop offset="1" stop-color="#2586B6"/>
</linearGradient>
<linearGradient id="paint1_linear_5416_89487" x1="18.2024" y1="20.5219" x2="79.9895" y2="30.2285" gradientUnits="userSpaceOnUse">
<stop stop-color="#3B00B9"/>
<stop offset="1" stop-color="#2586B6"/>
</linearGradient>
</defs>
</svg>
