<svg width="120" height="120" viewBox="0 0 120 120" fill="none" xmlns="http://www.w3.org/2000/svg">
<path d="M114.9 85.2H114.015H114.9ZM66.2999 85.2H65.4148H66.2999ZM114.9 91.2H115.785H114.9ZM90.5998 115.5V116.385V115.5ZM66.2999 91.2H67.1848H66.2999ZM5.67406 89.5242C5.32845 89.8698 5.32845 90.4302 5.67406 90.7758C6.01968 91.1214 6.58003 91.1214 6.92564 90.7758L5.67406 89.5242ZM29.4222 67.0276L30.048 66.4018L29.4222 65.776L28.7965 66.4018L29.4222 67.0276ZM30.3071 66.9C30.3071 66.4112 29.9109 66.015 29.4221 66.015C28.9333 66.015 28.5371 66.4112 28.5371 66.9H30.3071ZM90.5775 52.9724L89.9517 53.5982L90.5775 54.224L91.2032 53.5982L90.5775 52.9724ZM68.0809 29.2242C67.7352 28.8786 67.1749 28.8786 66.8293 29.2242C66.4837 29.5698 66.4837 30.1302 66.8293 30.4758L68.0809 29.2242ZM91.4626 4.5C91.4626 4.01123 91.0664 3.615 90.5776 3.615C90.0888 3.615 89.6926 4.01123 89.6926 4.5L91.4626 4.5ZM53.6999 34.8H54.5849H53.6999ZM29.3998 59.1V59.985V59.1ZM5.09985 34.8H4.21485H5.09985ZM52.8148 28.8C52.8148 41.7318 42.3316 52.215 29.3999 52.215V53.985C43.3091 53.985 54.5849 42.7093 54.5849 28.8H52.8148ZM29.3999 52.215C16.4681 52.215 5.98485 41.7318 5.98485 28.8H4.21485C4.21485 42.7093 15.4906 53.985 29.3999 53.985V52.215ZM5.98485 28.8C5.98485 15.8683 16.4681 5.385 29.3999 5.385V3.615C15.4906 3.615 4.21485 14.8907 4.21485 28.8H5.98485ZM29.3999 5.385C42.3316 5.385 52.8148 15.8683 52.8148 28.8H54.5849C54.5849 14.8907 43.3091 3.615 29.3999 3.615V5.385ZM114.015 85.2C114.015 98.1318 103.532 108.615 90.5998 108.615V110.385C104.509 110.385 115.785 99.1093 115.785 85.2H114.015ZM90.5998 108.615C77.6681 108.615 67.1848 98.1317 67.1848 85.2H65.4148C65.4148 99.1093 76.6906 110.385 90.5998 110.385V108.615ZM67.1848 85.2C67.1849 72.2682 77.6681 61.785 90.5999 61.785V60.015C76.6906 60.015 65.4149 71.2907 65.4148 85.2H67.1848ZM90.5999 61.785C103.532 61.785 114.015 72.2683 114.015 85.2H115.785C115.785 71.2907 104.509 60.015 90.5999 60.015V61.785ZM114.015 91.2C114.015 104.132 103.532 114.615 90.5998 114.615V116.385C104.509 116.385 115.785 105.109 115.785 91.2H114.015ZM90.5998 114.615C77.6681 114.615 67.1848 104.132 67.1848 91.2H65.4148C65.4148 105.109 76.6906 116.385 90.5998 116.385V114.615ZM115.785 91.2V85.2H114.015V91.2H115.785ZM67.1848 91.2V85.2H65.4148V91.2H67.1848ZM6.92564 90.7758L30.048 67.6534L28.7965 66.4018L5.67406 89.5242L6.92564 90.7758ZM28.7965 67.6534L51.9188 90.7758L53.1704 89.5242L30.048 66.4018L28.7965 67.6534ZM28.5371 66.9V115.5H30.3071V66.9H28.5371ZM113.074 29.2242L89.9517 52.3466L91.2032 53.5982L114.326 30.4758L113.074 29.2242ZM91.2032 52.3466L68.0809 29.2242L66.8293 30.4758L89.9517 53.5982L91.2032 52.3466ZM91.4626 53.1L91.4626 4.5L89.6926 4.5L89.6926 53.1H91.4626ZM52.8148 34.8C52.8148 47.7318 42.3316 58.215 29.3998 58.215V59.985C43.3091 59.985 54.5848 48.7093 54.5849 34.8H52.8148ZM29.3998 58.215C16.4681 58.215 5.98485 47.7317 5.98485 34.8H4.21485C4.21485 48.7093 15.4906 59.985 29.3998 59.985V58.215ZM54.5849 34.8V28.8H52.8148V34.8H54.5849ZM5.98485 34.8L5.98485 28.8H4.21485L4.21485 34.8H5.98485Z" fill="#3B00B9"/>
</svg>
