<svg width="121" height="120" viewBox="0 0 121 120" fill="none" xmlns="http://www.w3.org/2000/svg">
<path d="M27.0658 28.8C27.0658 15.3795 37.9453 4.5 51.3658 4.5M27.0658 28.8C27.0658 36.9636 31.0914 44.1869 37.2658 48.5932M27.0658 28.8H12.9658C7.66391 28.8 3.36584 33.0981 3.36584 38.4V111.9C3.36584 113.888 4.97762 115.5 6.96584 115.5H108.366C110.354 115.5 111.966 113.888 111.966 111.9V93.15M51.3658 4.5C64.7864 4.5 75.6658 15.3795 75.6658 28.8C75.6658 36.9636 71.6402 44.1869 65.4658 48.5932M51.3658 4.5H57.3658C70.7864 4.5 81.6658 15.3795 81.6658 28.8M81.6658 28.8C81.6658 36.9636 77.6402 44.1869 71.4658 48.5932M81.6658 28.8H96.6658C98.6541 28.8 100.266 30.4086 100.266 32.3968V48.6M3.36584 38.7V39C3.36584 44.3019 7.66391 48.6 12.9658 48.6H108.366C110.354 48.6 111.966 50.2118 111.966 52.2V70.65M90.9658 93.3H114.666C116.654 93.3 118.266 91.6882 118.266 89.7V74.1C118.266 72.1118 116.654 70.5 114.666 70.5H90.9658C84.6698 70.5 79.5658 75.604 79.5658 81.9C79.5658 88.196 84.6698 93.3 90.9658 93.3Z" stroke="#3B00B9" stroke-width="1.77"/>
<circle cx="89.4658" cy="81.9001" r="1.8" fill="#3B00B9"/>
</svg>
