<svg width="120" height="120" viewBox="0 0 120 120" fill="none" xmlns="http://www.w3.org/2000/svg">
<path fill-rule="evenodd" clip-rule="evenodd" d="M60.7072 7.29289C60.3166 6.90237 59.6835 6.90237 59.2929 7.29289L52.929 13.6569C52.5385 14.0474 52.5385 14.6805 52.929 15.0711C53.3195 15.4616 53.9527 15.4616 54.3432 15.0711L59 10.4142V32C59 32.5523 59.4478 33 60 33C60.5523 33 61 32.5523 61 32V10.4142L65.6569 15.0711C66.0474 15.4616 66.6806 15.4616 67.0711 15.0711C67.4616 14.6805 67.4616 14.0474 67.0711 13.6569L60.7072 7.29289ZM23.0437 14.4752C22.5033 14.3614 21.9729 14.7073 21.8591 15.2477L20.0051 24.0547C19.8913 24.5951 20.2372 25.1255 20.7776 25.2392C21.318 25.353 21.8484 25.0071 21.9622 24.4667L23.3189 18.0222L35.1105 36.1027C35.4122 36.5653 36.0318 36.6957 36.4944 36.394C36.957 36.0923 37.0874 35.4727 36.7857 35.0101L24.9941 16.9296L31.4386 18.2864C31.9791 18.4002 32.5094 18.0543 32.6232 17.5138C32.737 16.9734 32.3911 16.4431 31.8507 16.3293L23.0437 14.4752ZM25 46H95C96.1046 46 97 46.8954 97 48V81V87.9377C97 88.0543 96.9933 88.1704 96.9798 88.2855C96.8413 89.2548 96.0077 90 95 90H25C23.9924 90 23.1588 89.2548 23.0203 88.2855C23.0068 88.1704 23 88.0543 23 87.9377V81V48C23 46.8954 23.8955 46 25 46ZM21 81L21 48C21 45.7909 22.7909 44 25 44H95C97.2092 44 99 45.7909 99 48V81V87.9377V88C99 88.1896 98.9869 88.3761 98.9613 88.5587C98.8796 89.2114 98.6697 89.8437 98.3413 90.4184L96.02 94.4807C95.1298 96.0386 93.473 97 91.6788 97H28.3213C26.5271 97 24.8703 96.0386 23.9801 94.4807L21.6588 90.4184C21.3304 89.8437 21.1204 89.2114 21.0387 88.5586C21.0132 88.3761 21 88.1896 21 88V87.9388L21 87.9377V81ZM24.8648 91.9978L25.7166 93.4884C26.2507 94.4231 27.2448 95 28.3213 95H91.6788C92.7553 95 93.7494 94.4231 94.2835 93.4884L95.1353 91.9978C95.0904 91.9993 95.0453 92 95 92H25C24.9548 92 24.9097 91.9993 24.8648 91.9978ZM68 70C68 68.8954 67.1046 68 66 68H54C52.8955 68 52 68.8954 52 70V77C52 78.1046 52.8955 79 54 79H66C67.1046 79 68 78.1046 68 77V70ZM54 66C51.7909 66 50 67.7909 50 70V77C50 79.2091 51.7909 81 54 81H66C68.2092 81 70 79.2091 70 77V70C70 67.7909 68.2092 66 66 66V62C66 59.2386 63.7615 57 61 57H59C56.2386 57 54 59.2386 54 62V66ZM64 62V66H56V62C56 60.3431 57.3432 59 59 59H61C62.6569 59 64 60.3431 64 62ZM98.1409 15.2477C98.0272 14.7073 97.4968 14.3614 96.9564 14.4752L88.1494 16.3293C87.609 16.4431 87.2631 16.9734 87.3769 17.5138C87.4907 18.0543 88.021 18.4002 88.5615 18.2864L95.006 16.9296L83.2144 35.0101C82.9127 35.4727 83.0431 36.0923 83.5057 36.394C83.9683 36.6957 84.5879 36.5653 84.8896 36.1027L96.6812 18.0222L98.0379 24.4667C98.1517 25.0071 98.6821 25.353 99.2225 25.2392C99.7629 25.1255 100.109 24.5951 99.995 24.0547L98.1409 15.2477Z" fill="url(#paint0_linear_5360_87426)"/>
<defs>
<linearGradient id="paint0_linear_5360_87426" x1="19.9834" y1="7" x2="102.654" y2="23.4776" gradientUnits="userSpaceOnUse">
<stop stop-color="#3B00B9"/>
<stop offset="1" stop-color="#2586B6"/>
</linearGradient>
</defs>
</svg>
