<svg width="121" height="120" viewBox="0 0 121 120" fill="none" xmlns="http://www.w3.org/2000/svg">
<path d="M57.9335 68.3C57.9335 81.7205 47.054 92.6 33.6335 92.6C20.213 92.6 9.3335 81.7205 9.3335 68.3M57.9335 68.3C57.9335 54.8795 47.054 44 33.6335 44C20.213 44 9.3335 54.8795 9.3335 68.3M57.9335 68.3V74.3C57.9335 87.7205 47.054 98.6 33.6335 98.6C20.213 98.6 9.33349 87.7205 9.3335 74.3L9.3335 68.3" stroke="#3B00B9" stroke-width="1.77"/>
<path d="M50.3336 51.4999L95.8 25.2499C99.8655 22.9027 105.064 24.2957 107.411 28.3612V28.3612C109.758 32.4266 108.365 37.6252 104.3 39.9724L102.787 40.8457C102.653 40.9233 102.486 40.9183 102.357 40.8328L100.702 39.7403L68.226 58.4903V58.4903C68.3081 59.8581 67.6097 61.1547 66.4225 61.8388L58.3335 66.5" stroke="#3B00B9" stroke-width="1.77"/>
<path d="M100.333 39.5V39.5C99.2079 37.8119 96.9663 37.2858 95.2074 38.2969L93.9387 39.0261" stroke="#3B00B9" stroke-width="1.77"/>
<path d="M81.1804 42.9282L84.6804 48.9904M88.9746 38.4282L92.4746 44.4904" stroke="#3B00B9" stroke-width="1.77"/>
<path d="M79.2164 47.5261L69.7758 53.0332C67.8828 54.1374 67.2309 56.5593 68.3136 58.4646L68.3337 58.5" stroke="#3B00B9" stroke-width="1.77"/>
</svg>
