<svg width="120" height="120" viewBox="0 0 120 120" fill="none" xmlns="http://www.w3.org/2000/svg">
<path fill-rule="evenodd" clip-rule="evenodd" d="M79.2264 24.9593L82.4551 24.0942C86.1894 23.0936 90.0277 25.3097 91.0283 29.044L93.0989 36.7714L86.3375 38.5831L84.2669 30.8557C83.5352 28.1247 81.623 26.0253 79.2264 24.9593ZM72.3661 44.3972L93.6165 38.7032L99.8282 61.8854L78.5778 67.5794C74.8435 68.58 71.0052 66.364 70.0046 62.6297L67.4164 52.9704C66.4158 49.2362 68.6319 45.3978 72.3661 44.3972ZM93.5844 65.629L100.346 63.8173L102.416 71.5447C103.417 75.279 101.201 79.1173 97.4666 80.1179L94.238 80.983C95.7804 78.8616 96.3867 76.0873 95.655 73.3564L93.5844 65.629ZM79.0954 69.5113L91.6526 66.1466L93.7231 73.8741C94.7219 77.6016 92.5156 81.4329 88.7936 82.4418L38.5451 95.9059L38.5451 95.9059C34.8109 96.9064 30.9726 94.6904 29.972 90.9561L18.584 48.4554C17.5834 44.7211 19.7995 40.8828 23.5337 39.8822L73.7619 26.4236C77.4961 25.423 81.3345 27.6391 82.3351 31.3733L84.4056 39.1007L71.8485 42.4654C67.0473 43.7519 64.1981 48.6869 65.4845 53.4881L68.0727 63.1473C69.3592 67.9485 74.2942 70.7978 79.0954 69.5113ZM23.016 37.9503L23.016 37.9503L81.9375 22.1624C86.7387 20.8759 91.6737 23.7251 92.9602 28.5263L104.348 71.0271C105.635 75.8282 102.785 80.7633 97.9842 82.0498L89.3139 84.373L89.291 84.3791L39.0629 97.8377C34.2617 99.1242 29.3266 96.275 28.0402 91.4738L16.6521 48.973C15.3657 44.1719 18.2149 39.2369 23.016 37.9503ZM85.1312 53.4002C85.5601 55.0006 84.6103 56.6456 83.0099 57.0744C81.4095 57.5032 79.7645 56.5535 79.3357 54.9531C78.9069 53.3527 79.8566 51.7077 81.457 51.2789C83.0574 50.85 84.7024 51.7998 85.1312 53.4002ZM87.0631 52.8825C87.7778 55.5499 86.1949 58.2916 83.5276 59.0063C80.8602 59.721 78.1185 58.1381 77.4038 55.4707C76.6891 52.8034 78.272 50.0617 80.9394 49.347C83.6067 48.6323 86.3484 50.2152 87.0631 52.8825Z" fill="url(#paint0_linear_5360_87436)"/>
<defs>
<linearGradient id="paint0_linear_5360_87436" x1="14.3228" y1="40.2797" x2="95.8951" y2="41.6167" gradientUnits="userSpaceOnUse">
<stop stop-color="#3B00B9"/>
<stop offset="1" stop-color="#2586B6"/>
</linearGradient>
</defs>
</svg>
