<svg width="120" height="120" viewBox="0 0 120 120" fill="none" xmlns="http://www.w3.org/2000/svg">
<path fill-rule="evenodd" clip-rule="evenodd" d="M60.7071 9.29284L54.3431 2.92888C53.9526 2.53836 53.3195 2.53836 52.9289 2.92888C52.5384 3.3194 52.5384 3.95257 52.9289 4.34309L57.6394 9.05361C30.5687 10.2869 9 32.6246 9 59.9999C9 83.9485 25.5059 104.039 47.7608 109.522C48.2971 109.654 48.8389 109.326 48.971 108.79C49.1031 108.254 48.7754 107.712 48.2392 107.58C26.8569 102.312 11 83.0068 11 59.9999C11 33.7682 31.6127 12.3508 57.5243 11.0614L52.9289 15.6568C52.5384 16.0473 52.5384 16.6805 52.9289 17.071C53.3195 17.4615 53.9526 17.4615 54.3431 17.071L60.7071 10.7071C61.0976 10.3165 61.0976 9.68336 60.7071 9.29284ZM59.2929 110.707L65.6569 117.071C66.0474 117.462 66.6805 117.462 67.0711 117.071C67.4616 116.68 67.4616 116.047 67.0711 115.657L62.3606 110.946C89.4313 109.713 111 87.3753 111 59.9999C111 36.6034 95.2462 16.8889 73.7694 10.8807C73.2375 10.7319 72.6858 11.0424 72.537 11.5743C72.3882 12.1061 72.6987 12.6579 73.2306 12.8067C93.8661 18.5796 109 37.5237 109 59.9999C109 86.2317 88.3873 107.649 62.4757 108.938L67.0711 104.343C67.4616 103.953 67.4616 103.319 67.0711 102.929C66.6805 102.538 66.0474 102.538 65.6569 102.929L59.2929 109.293C58.9024 109.683 58.9024 110.317 59.2929 110.707ZM47 37.9999H38C36.8954 37.9999 36 38.8954 36 39.9999V79.9999C36 81.1045 36.8954 81.9999 38 81.9999H82C83.1046 81.9999 84 81.1045 84 79.9999V39.9999C84 38.8954 83.1046 37.9999 82 37.9999H73V52.4535C73 55.0638 69.897 56.4288 67.9728 54.6649L60.6757 47.9759C60.2934 47.6255 59.7066 47.6255 59.3243 47.9759L52.0272 54.6649C50.103 56.4288 47 55.0638 47 52.4535V37.9999ZM49 37.9999H71V52.4535C71 53.3236 69.9657 53.7786 69.3243 53.1906L62.0272 46.5016C60.8802 45.4502 59.1198 45.4502 57.9728 46.5016L50.6757 53.1906C50.0343 53.7786 49 53.3236 49 52.4535V37.9999ZM38 35.9999C35.7909 35.9999 34 37.7908 34 39.9999V79.9999C34 82.2091 35.7909 83.9999 38 83.9999H82C84.2091 83.9999 86 82.2091 86 79.9999V39.9999C86 37.7908 84.2091 35.9999 82 35.9999H38Z" fill="url(#paint0_linear_5360_87424)"/>
<defs>
<linearGradient id="paint0_linear_5360_87424" x1="9" y1="2.63599" x2="114.363" y2="23.6319" gradientUnits="userSpaceOnUse">
<stop stop-color="#3B00B9"/>
<stop offset="1" stop-color="#2586B6"/>
</linearGradient>
</defs>
</svg>
