        <svg width="370" height="64" viewBox="0 0 370 64" fill="none" xmlns="http://www.w3.org/2000/svg">
<path d="M0.429688 40.3027C0.429688 26.2054 11.9324 16.5189 27.8459 16.5189C41.4243 16.5189 50.2459 24.0432 52.6675 31.5676L40.7324 36.6703C39.1756 31.9135 34.5054 27.8486 27.7594 27.8486C19.8027 27.8486 13.9216 32.5189 13.9216 40.3027C13.9216 48 19.8027 52.7567 27.7594 52.7567C34.5054 52.7567 39.1756 48.6919 40.7324 43.8486L52.6675 49.1243C50.1594 56.5622 41.4243 64 27.8459 64C11.9324 64 0.429688 54.3135 0.429688 40.3027Z" fill="#121212"/>
<path d="M75.8347 64C64.5914 64 56.5482 58.8973 56.5482 49.9027C56.5482 40.9946 64.4184 36.5838 75.1428 35.5459L93.3049 33.9027V33.6432C93.3049 30.1838 90.3644 27.4162 83.013 27.4162C76.786 27.4162 72.0293 30.0108 70.6455 33.5568L58.1914 30.1838C61.0455 21.9676 71.0779 16.5189 83.6184 16.5189C98.1482 16.5189 106.71 22.3135 106.71 33.7297V42.0324V63.0475H94.6022V58.0324C90.4509 61.6649 83.8779 64 75.8347 64ZM93.3049 45.5784V43.1568L77.132 44.8C72.3752 45.2324 69.9536 46.3568 69.9536 49.3838C69.9536 52.3243 72.9806 53.8811 78.3428 53.8811C85.4347 53.8811 93.3049 50.854 93.3049 45.5784Z" fill="#121212"/>
<path d="M114.051 16.7784C114.051 5.44865 122.007 0 135.499 0C139.737 0 144.148 0.605403 146.916 1.64324L145.099 12.4541C142.245 11.6757 139.564 11.2432 136.364 11.2432C130.483 11.2432 127.716 12.973 127.716 17.0378V17.4703H144.494V28.8865H127.716V63.0486H114.051V16.7784Z" fill="#121212"/>
<path d="M150.284 16.7784C150.284 5.44865 158.241 0 171.732 0C175.97 0 180.381 0.605403 183.149 1.64324L181.332 12.4541C178.478 11.6757 175.797 11.2432 172.597 11.2432C166.716 11.2432 163.949 12.973 163.949 17.0378V17.4703H180.727V28.8865H163.949V63.0486H150.284V28.8865H139.992V17.4703H150.284V16.7784Z" fill="#121212"/>
<path d="M208.5 53.0162C214.554 53.0162 219.397 50.2486 221.386 45.8378L233.581 50.2486C230.295 58.2919 220.522 64 208.587 64C192.414 64 181.084 54.4 181.084 40.2162C181.084 26.7243 192.414 16.5189 208.5 16.5189C224.846 16.5189 234.359 27.0703 234.359 40.0432V43.8486H194.576C196.132 49.6432 201.408 53.0162 208.5 53.0162ZM208.068 27.2432C202.014 27.2432 196.824 30.0108 194.922 35.373H220.435C219.83 31.5676 215.332 27.2432 208.068 27.2432Z" fill="#121212"/>
<path d="M240.345 12.8V0.951349H254.442V12.8H240.345ZM254.269 17.4703V63.0486H240.431V17.4703H254.269Z" fill="#121212"/>
<path d="M261.989 63.0486V17.4703H275.827V23.0054C279.373 19.2865 285.081 16.5189 292.432 16.5189C304.281 16.5189 312.324 24.4757 312.324 37.1027V63.0486H298.486V41.1676C298.486 33.4703 294.767 28.8 287.675 28.8C280.151 28.8 275.827 33.3838 275.827 41.254V63.0486H261.989Z" fill="#121212"/>
<path d="M344.121 53.0162C350.175 53.0162 355.018 50.2486 357.008 45.8378L369.202 50.2486C365.916 58.2919 356.143 64 344.208 64C328.035 64 316.705 54.4 316.705 40.2162C316.705 26.7243 328.035 16.5189 344.121 16.5189C360.467 16.5189 369.981 27.0703 369.981 40.0432V43.8486H330.197C331.754 49.6432 337.029 53.0162 344.121 53.0162ZM343.689 27.2432C337.635 27.2432 332.445 30.0108 330.543 35.373H356.056C355.451 31.5676 350.954 27.2432 343.689 27.2432Z" fill="#121212"/>
</svg>