<svg  viewBox="0 0 350 32" fill="none" xmlns="http://www.w3.org/2000/svg">
<g clip-path="url(#clip0_15725_100586)">
<mask id="mask0_15725_100586" style="mask-type:luminance" maskUnits="userSpaceOnUse" x="0" y="0" width="350" height="32">
<path d="M349.538 0H0V32H349.538V0Z" fill="white"/>
</mask>
<g mask="url(#mask0_15725_100586)">
<mask id="mask1_15725_100586" style="mask-type:luminance" maskUnits="userSpaceOnUse" x="-1" y="0" width="351" height="32">
<path d="M349.537 0H-0.000976562V32H349.537V0Z" fill="white"/>
</mask>
<g mask="url(#mask1_15725_100586)">
<path d="M86.082 25.7994V6.20752H91.079V25.7994H86.082Z" fill="white"/>
<path d="M108.79 13.6457C107.946 11.5009 106.092 10.2291 104.061 10.2291C100.943 10.2291 98.8224 12.9033 98.8224 15.9485C98.8224 18.9939 100.992 21.7711 104.081 21.7711C106.065 21.7711 107.754 20.6574 108.79 18.4645H114.027C112.813 23.1804 108.769 26.1707 104.143 26.1707C101.418 26.1707 98.8568 25.2152 96.8458 23.2353C94.7313 21.1731 93.832 18.6845 93.832 15.7148C93.832 10.5247 98.3005 5.83643 103.902 5.83643C106.6 5.83643 108.769 6.57885 110.726 8.24243C112.579 9.83037 113.684 11.6315 114.027 13.6457H108.79Z" fill="white"/>
<path d="M116.608 25.7991V6.20733H123.219C125.306 6.17983 126.864 6.47543 127.901 6.94976C130.015 7.93279 131.34 10.1807 131.34 12.8273C131.34 16.4569 129.329 19.6604 123.727 19.6604H121.4V25.7991H116.616H116.608ZM123.542 15.2608C125.553 15.2608 126.555 14.5734 126.555 12.9029C126.555 11.2325 125.573 10.6 123.356 10.6H121.4V15.2608H123.542Z" fill="white"/>
<path d="M152.991 25.7994V17.9627H146.593V25.7994H141.596V6.20752H146.593V13.57H152.991V6.20752H157.989V25.7994H152.991Z" fill="white"/>
<path d="M171.491 6.20752H176.489V18.2032C176.489 20.2449 176.173 21.7779 175.507 22.8365C174.209 24.9263 172.019 26.1706 169.054 26.1706C167.414 26.1706 166.013 25.8543 164.874 25.1875C162.575 23.8402 161.462 22.0116 161.462 18.2238V6.20752H166.46V18.1483C166.46 20.5817 167.228 21.7779 168.999 21.7779C170.771 21.7779 171.484 20.9323 171.484 18.1757V6.20752H171.491Z" fill="white"/>
<path d="M179.976 25.7994V6.20752H186.243C187.643 6.20752 188.673 6.29001 189.359 6.44812C191.583 6.94994 193.43 8.67543 193.43 11.322C193.43 12.9925 192.634 14.4705 191.158 15.2954C193.3 16.0378 194.384 17.5983 194.384 19.8462C194.384 21.7229 193.588 23.4484 192.112 24.4795C190.582 25.5656 189.572 25.8063 186.483 25.8063H179.982L179.976 25.7994ZM186.744 13.6455C187.986 13.6455 188.645 13.1162 188.645 12.0851C188.645 11.0539 188.014 10.6002 186.771 10.6002H184.76V13.6455H186.744ZM187.327 21.3998C188.728 21.3998 189.599 20.788 189.599 19.5231C189.599 18.3819 188.831 17.832 187.354 17.832H184.767V21.4067H187.334L187.327 21.3998Z" fill="white"/>
<path d="M204.749 11.9269C204.536 10.5245 203.953 10.0227 202.978 10.0227C202.052 10.0227 201.262 10.6826 201.262 11.5557C201.262 12.7175 202.319 13.2468 204.461 14.1748C208.772 16.0309 209.856 17.5913 209.856 20.1555C209.856 23.9432 207.268 26.1636 203.033 26.1636C198.797 26.1636 195.977 23.9363 195.977 19.7292V19.3031H200.946C200.973 20.9185 201.763 21.9771 203.006 21.9771C204.036 21.9771 204.887 21.1591 204.887 20.1004C204.887 18.54 202.717 17.8526 200.946 17.1376C197.747 15.8384 196.292 14.1473 196.292 11.6038C196.292 8.26971 199.519 5.82935 203.116 5.82935C204.413 5.82935 205.545 6.11807 206.582 6.6474C208.669 7.73354 209.678 9.29404 209.699 11.9131H204.756L204.749 11.9269Z" fill="white"/>
<path d="M232.559 25.7994L225.049 13.8311L225.18 25.7994H220.395V6.20752H224.706L232.319 18.595L232.106 6.20752H236.89V25.7994H232.552H232.559Z" fill="white"/>
<path d="M240.459 25.7994V6.20752H251.325V10.6002H245.243V13.6455H251.14V18.0382H245.243V21.3998H251.325V25.7925H240.459V25.7994Z" fill="white"/>
<path d="M256.77 25.7994V10.6002H252.912V6.20752H265.605V10.6002H261.774V25.7994H256.777H256.77Z" fill="white"/>
<path d="M281.756 25.7994L278.825 13.1162H278.771L275.839 25.7994H271.315L266.263 6.20752H271.336L273.951 18.9456H274.006L276.889 6.20752H280.72L283.548 18.9938H283.603L286.273 6.20752H291.325L286.143 25.7994H281.756Z" fill="white"/>
<path d="M292.17 16.4504C292.17 10.3873 296.529 5.83643 302.481 5.83643C308.432 5.83643 312.819 10.2566 312.819 15.873C312.819 21.4893 308.323 26.1707 302.721 26.1707C297.12 26.1707 292.17 22.2524 292.17 16.4572V16.4504ZM307.822 16.0242C307.822 12.9514 305.625 10.2291 302.481 10.2291C299.337 10.2291 297.168 12.8482 297.168 15.9485C297.168 19.0489 299.364 21.7711 302.563 21.7711C305.763 21.7711 307.822 19.152 307.822 16.0242Z" fill="white"/>
<path d="M324.874 25.7994L320.35 19.4749H320.295V25.7994H315.511V6.20752H321.908C323.947 6.20752 325.505 6.47562 326.535 6.92245C328.65 7.87799 330.132 10.1809 330.132 12.9581C330.132 16.0584 328.279 18.595 325.265 19.1244L330.579 25.7994H324.867H324.874ZM322.149 16.0516C324.133 16.0516 325.348 15.1235 325.348 13.2468C325.348 11.5558 324.078 10.6002 322.204 10.6002H320.302V16.0516H322.155H322.149Z" fill="white"/>
<path d="M343.69 25.7994L338.349 17.3302H338.294V25.7994H333.297V6.20752H338.294V15.0204H338.349L343.875 6.20752H349.112L342.633 15.9759L349.532 25.7994H343.69Z" fill="white"/>
<path d="M55.568 26.5899C50.9481 26.5899 46.0674 23.5652 43.6785 21.3723C41.0631 18.9731 33.869 11.157 33.8347 11.1226C29.1187 5.85005 22.7758 0 16.4467 0C8.82692 0 2.18203 5.28636 0.452148 12.2844C0.582576 11.8238 3.00578 5.4101 12.1013 5.4101C16.7212 5.4101 21.602 8.43479 23.9908 10.6277C26.6063 13.0269 33.8004 20.843 33.8347 20.8774C38.5507 26.1499 44.8935 32 51.2227 32C58.8424 32 65.4874 26.7137 67.2172 19.7156C67.0868 20.1762 64.6636 26.5899 55.568 26.5899Z" fill="#00A3DF"/>
<path d="M33.8346 20.8842C33.8346 20.8842 31.7478 18.6158 29.4275 16.1616C28.1713 17.6533 26.366 19.6882 24.286 21.5098C20.4144 24.9126 17.8951 25.6275 16.4534 25.6275C11.0167 25.6275 6.58904 21.3105 6.58904 16.0035C6.58904 10.6965 11.0167 6.41381 16.4534 6.37944C16.6526 6.37944 16.8928 6.40006 17.1811 6.44818C15.5473 5.82261 13.8106 5.41016 12.1082 5.41016C3.00572 5.41016 0.582514 11.8239 0.452087 12.2845C0.156909 13.4806 -0.000976562 14.718 -0.000976562 15.9966C-0.000976562 24.8164 7.26864 32 16.3299 32C20.1054 32 24.3408 30.0615 28.6999 26.2325C30.7593 24.4246 32.5441 22.486 33.8896 20.9324C33.869 20.9118 33.8552 20.8911 33.8346 20.8774V20.8842Z" fill="url(#paint0_linear_15725_100586)"/>
<path d="M33.8342 11.1226C33.8342 11.1226 35.9211 13.3912 38.2413 15.8453C39.4976 14.3535 41.303 12.3187 43.3829 10.497C47.2546 7.09427 49.7739 6.37934 51.2154 6.37934C56.6522 6.37934 61.0799 10.6964 61.0799 16.0034C61.0799 21.276 56.6522 25.5931 51.2154 25.6275C51.0164 25.6275 50.7761 25.6069 50.4878 25.5587C52.1216 26.1843 53.8583 26.5967 55.5607 26.5967C64.6563 26.5967 67.0795 20.1829 67.2099 19.7224C67.5051 18.5263 67.663 17.2889 67.663 16.0103C67.663 7.19051 60.2767 0.00683594 51.2154 0.00683594C47.4399 0.00683594 43.3211 1.94539 38.9621 5.7744C36.9027 7.58234 35.1179 9.52088 33.7725 11.0745C33.7931 11.0951 33.8068 11.1158 33.8274 11.1295L33.8342 11.1226Z" fill="url(#paint1_linear_15725_100586)"/>
</g>
</g>
</g>
<defs>
<linearGradient id="paint0_linear_15725_100586" x1="24.9724" y1="29.9103" x2="2.68477" y2="6.85782" gradientUnits="userSpaceOnUse">
<stop offset="0.22" stop-color="#FF0079"/>
<stop offset="0.89" stop-color="#612084"/>
</linearGradient>
<linearGradient id="paint1_linear_15725_100586" x1="42.6827" y1="2.10351" x2="64.9704" y2="25.1559" gradientUnits="userSpaceOnUse">
<stop offset="0.21" stop-color="#FF3100"/>
<stop offset="0.68" stop-color="#FF9900"/>
</linearGradient>
<clipPath id="clip0_15725_100586">
<rect width="349.538" height="32" fill="white"/>
</clipPath>
</defs>
</svg>
