<svg width="266" height="11" viewBox="0 0 266 11" fill="none" xmlns="http://www.w3.org/2000/svg">
<path d="M0.506642 10.2628V0.234084H3.78902V10.2628H0.506642ZM11.5515 10.5421C7.52883 10.5421 4.88896 8.46098 4.88896 5.24844C4.88896 2.06383 7.52883 -0.00336388 11.5515 -0.00336388C15.2669 -0.00336388 17.8788 1.71465 18.1442 4.28468H14.6523C14.4847 3.41869 13.2835 2.74824 11.5515 2.74824C9.58206 2.74824 8.31101 3.75391 8.31101 5.24844C8.31101 6.75693 9.58206 7.77657 11.5515 7.77657C13.2835 7.77657 14.4847 7.10612 14.6523 6.22617H18.1442C17.8788 8.82413 15.2669 10.5421 11.5515 10.5421ZM19.2488 10.2628V0.234084H27.0986C29.5988 0.234084 31.1212 1.63084 31.1212 4.00532C31.1212 6.36584 29.5988 7.77657 27.0986 7.77657H22.5312V10.2628H19.2488ZM22.5312 5.02496H26.3164C27.2522 5.02496 27.6992 4.82941 27.6992 4.00532C27.6992 3.18124 27.2522 2.99966 26.3164 2.99966H22.5312V5.02496ZM37.5136 10.2628V0.234084H47.7658V2.99966H40.7959V4.67577H46.9277V7.44134H40.7959V10.2628H37.5136ZM55.4825 10.5421C51.2224 10.5421 48.4568 8.46098 48.4568 5.24844C48.4568 2.06383 51.2224 -0.00336388 55.4825 -0.00336388C59.7706 -0.00336388 62.5222 2.06383 62.5222 5.24844C62.5222 8.46098 59.7706 10.5421 55.4825 10.5421ZM51.8789 5.24844C51.8789 6.7709 53.2896 7.77657 55.4825 7.77657C57.7034 7.77657 59.1141 6.7709 59.1141 5.24844C59.1141 3.73994 57.7034 2.74824 55.4825 2.74824C53.2756 2.74824 51.8789 3.73994 51.8789 5.24844ZM69.7389 10.5421C65.4369 10.5421 63.6351 8.72636 63.6351 5.36018V0.234084H66.9175V5.24844C66.9175 6.50552 67.4762 7.77657 69.7389 7.77657C72.0017 7.77657 72.5464 6.49155 72.5464 5.24844V0.234084H75.8427V5.36018C75.8427 8.72636 74.027 10.5421 69.7389 10.5421ZM77.0641 10.2628V0.234084H85.2352C87.9868 0.234084 89.3556 1.28165 89.3556 3.30695C89.3556 4.68974 88.6013 5.59763 87.2465 6.00269C88.5315 6.08649 89.3416 6.82677 89.3416 8.05592V10.2628H86.0592V8.58668C86.0592 7.69276 85.8078 7.42738 84.9139 7.42738H80.3465V10.2628H77.0641ZM80.3465 4.80148H84.453C85.3329 4.80148 85.9335 4.63386 85.9335 3.82375C85.9335 3.01363 85.3329 2.85999 84.453 2.85999H80.3465V4.80148ZM90.3126 2.99966V0.234084H102.241V2.99966H97.9249V10.2628H94.6425V2.99966H90.3126ZM103.336 10.2628V0.234084H106.618V3.86565H112.624V0.234084H115.906V10.2628H112.624V6.61726H106.618V10.2628H103.336ZM122.293 10.2628L127.433 0.234084H131.623L136.749 10.2628H133.243L132.363 8.40511H126.679L125.785 10.2628H122.293ZM127.796 6.04459H131.232L129.514 2.45493L127.796 6.04459ZM137.976 10.2628V0.234084H142.836L147.963 7.10612V0.234084H151.245V10.2628H146.384L141.258 3.37678V10.2628H137.976ZM152.878 10.2628V0.234084H157.739L162.865 7.10612V0.234084H166.147V10.2628H161.286L156.16 3.37678V10.2628H152.878ZM167.78 10.2628V0.234084H171.063V10.2628H167.78ZM176.751 10.2628L171.876 0.234084H175.368L179.097 8.04195L182.827 0.234084H186.332L181.43 10.2628H176.751ZM187.15 10.2628V0.234084H197.402V2.70634H190.432V4.11707H197.123V6.36584H190.432V7.79053H197.402V10.2628H187.15ZM198.642 10.2628V0.234084H206.813C209.565 0.234084 210.933 1.28165 210.933 3.30695C210.933 4.68974 210.179 5.59763 208.824 6.00269C210.109 6.08649 210.919 6.82677 210.919 8.05592V10.2628H207.637V8.58668C207.637 7.69276 207.386 7.42738 206.492 7.42738H201.924V10.2628H198.642ZM201.924 4.80148H206.031C206.911 4.80148 207.511 4.63386 207.511 3.82375C207.511 3.01363 206.911 2.85999 206.031 2.85999H201.924V4.80148ZM218.358 10.5421C214.321 10.5421 212.002 9.57838 211.877 6.95248H215.285C215.285 7.67879 216.039 8.16766 218.218 8.16766C220.439 8.16766 220.858 7.86037 220.858 7.3296C220.858 6.71503 220.481 6.58932 218.05 6.43568L217.561 6.40774C213.72 6.18426 212.03 5.23447 212.03 3.08347C212.03 1.03024 214.223 -0.00336388 217.673 -0.00336388C221.612 -0.00336388 223.721 1.19785 223.847 3.41869H220.439C220.439 2.65047 219.531 2.37112 217.645 2.37112C215.871 2.37112 215.438 2.65047 215.438 3.08347C215.438 3.60027 215.816 3.79581 218.064 3.94945L218.637 3.99136C222.059 4.25674 224.266 4.6199 224.266 7.2039C224.266 9.73202 222.059 10.5421 218.358 10.5421ZM224.242 10.2628L229.382 0.234084H233.572L238.698 10.2628H235.192L234.312 8.40511H228.628L227.734 10.2628H224.242ZM229.745 6.04459H233.181L231.463 2.45493L229.745 6.04459ZM239.529 10.2628V0.234084H247.7C250.452 0.234084 251.821 1.28165 251.821 3.30695C251.821 4.68974 251.066 5.59763 249.712 6.00269C250.997 6.08649 251.807 6.82677 251.807 8.05592V10.2628H248.524V8.58668C248.524 7.69276 248.273 7.42738 247.379 7.42738H242.812V10.2628H239.529ZM242.812 4.80148H246.918C247.798 4.80148 248.399 4.63386 248.399 3.82375C248.399 3.01363 247.798 2.85999 246.918 2.85999H242.812V4.80148ZM257.106 10.2628V6.91058L251.673 0.234084H255.751L258.74 4.15897L261.743 0.234084H265.822L260.389 6.91058V10.2628H257.106Z" fill="white"/>
</svg>
