<svg width="136" height="30" viewBox="0 0 136 30" fill="none" xmlns="http://www.w3.org/2000/svg">
<path d="M13.2836 29.2623H8.68701L0.0273438 0.533535H4.33666L9.50784 18.2222V22.2853C9.50784 22.983 9.83616 23.3113 10.5339 23.3113H11.4368C12.1345 23.3113 12.4628 22.983 12.4628 22.2853V18.3043L17.8802 0.533535H22.3127L27.689 18.1812V22.2853C27.689 22.983 28.0174 23.3113 28.7151 23.3113H29.618C30.3157 23.3113 30.644 22.983 30.644 22.2853V18.3454L35.8562 0.533535H40.1655L31.5059 29.2623H26.9093L21.5739 12.0661V7.51052C21.5739 6.81282 21.2456 6.48449 20.5479 6.48449H19.645C18.9473 6.48449 18.619 6.81282 18.619 7.51052V12.0661L13.2836 29.2623Z" fill="white" style="mix-blend-mode:difference"/>
<path d="M43.5787 12.3123C42.881 12.3123 42.5526 12.6407 42.5526 13.3384V16.4164C42.5526 17.1141 42.881 17.4425 43.5787 17.4425H44.3995C45.2614 22.6136 48.873 25.8969 54.0441 25.8969C58.6407 25.8969 62.1292 23.3113 62.7859 19.4124H66.89C65.8229 25.6917 60.898 29.7958 54.0441 29.7958C45.7538 29.7958 40.0902 23.8038 40.0902 14.8569C40.0902 5.95096 45.6718 0 54.0441 0C60.9801 0 66.0692 4.10411 67.0131 10.3834H62.909C62.0061 6.44345 58.5587 3.8989 54.0441 3.8989C48.914 3.8989 45.3024 7.18219 44.3995 12.3123H43.5787Z" fill="white" style="mix-blend-mode:difference"/>
<path d="M82.6825 3.40641C82.6825 2.50351 82.231 2.05205 81.3281 2.05205H78.6605C77.7576 2.05205 77.3471 2.50351 77.3471 3.40641V4.26827C75.0899 4.92493 73.6945 6.40241 73.6945 8.33134C73.6945 11.2863 77.0188 11.943 80.8356 12.6817C85.8427 13.6667 91.6294 14.8158 91.6294 21.4645C91.6294 26.3894 87.3201 29.7958 81.164 29.7958C73.1199 29.7958 68.9337 26.1432 68.6875 18.961H72.7916C72.8737 22.6136 74.5153 24.7888 77.8807 25.5686V26.3894C77.8807 27.2923 78.2911 27.7438 79.194 27.7438H81.8617C82.7646 27.7438 83.216 27.2923 83.216 26.3894V25.6917C85.8837 25.1582 87.5253 23.5165 87.5253 21.3003C87.5253 17.976 83.9548 17.2783 80.0148 16.4985C75.0899 15.5135 69.5904 14.4054 69.5904 8.08509C69.5904 3.32433 73.8997 0 80.0969 0C86.4172 0 90.234 3.44745 90.6445 9.52153H86.5404C86.3762 6.77178 85.0629 4.96597 82.6825 4.26827V3.40641Z" fill="white" style="mix-blend-mode:difference"/>
<path d="M93.9495 24.8299C94.9345 15.9239 108.806 14.1181 108.806 7.92093C108.806 6.44345 108.068 5.21222 106.836 4.47348V3.32433C106.836 2.62663 106.508 2.2983 105.81 2.2983H102.609C101.912 2.2983 101.583 2.62663 101.583 3.32433V4.47348C100.27 5.21222 99.408 6.52553 99.1207 8.2903H95.0577C95.4681 3.03704 98.8334 0 104.415 0C109.832 0 112.828 2.87288 112.828 7.46948C112.828 17.1552 99.408 18.6737 98.0537 24.8299C97.8895 25.5686 97.5612 25.8559 96.9045 25.8559H94.9345C94.2368 25.8559 93.8675 25.4865 93.9495 24.8299ZM93.9085 29.2623V27.7438C94.0316 27.7848 94.1958 27.7848 94.36 27.7848H97.5612C98.2589 27.7848 98.5872 27.4565 98.5872 26.7588V25.4455H113.321V29.2623H93.9085Z" fill="white" style="mix-blend-mode:difference"/>
<path d="M120.938 13.1331C121.102 13.2563 121.266 13.2973 121.43 13.2973C121.677 13.2973 121.923 13.1742 122.087 12.8869L123.647 10.5065C124.467 10.1371 125.493 9.93194 126.725 9.93194C132.224 9.93194 136 13.9129 136 19.5766C136 25.5686 131.814 29.7958 125.863 29.7958C120.486 29.7958 116.3 26.2663 116.3 21.7107H120.322C120.322 23.2703 121.636 24.7478 123.441 25.4865V26.5946C123.441 27.2923 123.77 27.6206 124.467 27.6206H127.669C128.366 27.6206 128.695 27.2923 128.695 26.5946V25.4044C130.706 24.4605 131.978 22.4084 131.978 19.7818C131.978 16.2112 129.639 13.7488 126.273 13.7488C123.606 13.7488 121.389 15.2673 120.938 17.3604H116.998L118.27 0.533535H119.46C119.419 0.656659 119.419 0.779783 119.419 0.943945V3.93994C119.419 4.63764 119.748 4.96597 120.445 4.96597H121.923L121.554 9.35737L120.076 11.5736C119.789 12.025 119.871 12.4354 120.322 12.7227L120.938 13.1331ZM134.399 4.35035H122.374C121.677 4.35035 121.348 4.02203 121.348 3.32433V1.55956C121.348 0.861864 121.677 0.533535 122.374 0.533535H134.399V4.35035Z" fill="white" style="mix-blend-mode:difference"/>
</svg>
