<svg width="540" height="1010" viewBox="0 0 540 1010" fill="none" xmlns="http://www.w3.org/2000/svg">
<path opacity="0.33" d="M416.685 552.672C391.808 552.672 372.262 532.238 372.262 508.249V405.186C372.262 380.309 392.697 360.762 416.685 360.762C441.563 360.762 461.109 381.197 461.109 405.186V508.249C461.997 532.238 441.563 552.672 416.685 552.672Z" fill="url(#paint0_linear_192_15699)"/>
<path opacity="0.33" d="M264.873 1009.37C154.922 1009.37 68.5312 918.966 68.5312 812.841V356.897C68.5312 246.841 158.849 160.369 264.873 160.369C374.825 160.369 461.215 250.772 461.215 356.897V812.841C465.142 918.966 374.825 1009.37 264.873 1009.37Z" fill="url(#paint1_linear_192_15699)"/>
<path opacity="0.33" d="M112.955 315.677C88.0777 315.677 68.5312 295.242 68.5312 271.253V168.19C68.5312 143.313 88.9661 123.767 112.955 123.767C137.832 123.767 157.379 144.201 157.379 168.19V271.253C157.379 295.242 136.944 315.677 112.955 315.677Z" fill="url(#paint2_linear_192_15699)"/>
<path opacity="0.33" d="M512.504 362.091C497.349 362.091 485.441 349.642 485.441 335.029V272.243C485.441 257.087 497.89 245.18 512.504 245.18C527.659 245.18 539.567 257.629 539.567 272.243V335.029C539.567 350.184 527.659 362.091 512.504 362.091Z" fill="url(#paint3_linear_192_15699)"/>
<path opacity="0.33" d="M27.7465 504.038C12.5913 504.038 0.683594 491.589 0.683594 476.975V414.189C0.683594 399.034 13.1325 387.126 27.7465 387.126C42.9017 387.126 54.8093 399.575 54.8093 414.189V476.975C54.8093 492.13 42.9017 504.038 27.7465 504.038Z" fill="url(#paint4_linear_192_15699)"/>
<path d="M307.913 445.703V333.152C307.913 328.381 302.581 325.293 298.37 327.819L163.366 406.128C159.436 408.373 156.91 412.583 156.91 417.355V530.467C156.91 534.957 161.962 537.764 165.611 535.519L301.177 457.21C305.668 454.404 307.913 450.194 307.913 445.703Z" fill="url(#paint5_linear_192_15699)"/>
<path d="M312.964 447.388V334.837C312.964 330.065 307.631 326.978 303.421 329.504L168.417 407.812C164.487 410.058 161.961 414.268 161.961 419.039V532.151C161.961 536.642 167.013 539.449 170.662 537.204L306.228 458.895C310.438 456.369 312.964 452.159 312.964 447.388Z" fill="url(#paint6_linear_192_15699)"/>
<g opacity="0.29">
<path d="M216.022 480.444L182.902 499.53" stroke="#2062D7" stroke-width="1.96205" stroke-miterlimit="10" stroke-linecap="round" stroke-linejoin="round"/>
<path d="M248.861 444.798L183.184 482.97" stroke="#2062D7" stroke-width="1.96205" stroke-miterlimit="10" stroke-linecap="round" stroke-linejoin="round"/>
<path d="M216.022 480.444L182.902 499.53" stroke="#0660D7" stroke-width="4.15248" stroke-miterlimit="10" stroke-linecap="round" stroke-linejoin="round"/>
<path d="M248.861 444.798L183.184 482.97" stroke="#0660D7" stroke-width="4.15248" stroke-miterlimit="10" stroke-linecap="round" stroke-linejoin="round"/>
</g>
<path d="M332.05 467.034V431.108C332.05 429.424 330.365 428.582 328.962 429.424L285.738 454.404C284.335 455.246 283.773 456.369 283.773 458.053V494.26C283.773 495.663 285.457 496.505 286.58 495.944L329.804 470.964C331.488 469.841 332.05 468.438 332.05 467.034Z" fill="url(#paint7_linear_192_15699)"/>
<path d="M393.616 494.308V381.757C393.616 376.985 388.284 373.898 384.074 376.424L249.069 454.732C245.139 456.978 242.613 461.188 242.613 465.959V579.071C242.613 583.562 247.666 586.369 251.314 584.124L386.88 505.815C391.371 503.009 393.616 498.798 393.616 494.308Z" fill="url(#paint8_linear_192_15699)"/>
<path d="M398.667 495.992V383.442C398.667 378.67 393.335 375.583 389.124 378.109L254.12 456.417C250.19 458.663 247.664 462.873 247.664 467.644V580.756C247.664 585.247 252.716 588.054 256.365 585.808L391.931 507.5C396.141 504.974 398.667 500.764 398.667 495.992Z" fill="url(#paint9_linear_192_15699)"/>
<path d="M301.933 462.242C302.458 461.973 302.984 461.704 303.246 461.435L301.933 497.744L274.365 499.896C278.828 484.565 289.593 469.504 301.933 462.242Z" fill="url(#paint10_linear_192_15699)"/>
<path d="M303.244 461.436C319.26 452.829 332.125 460.898 332.125 479.994C332.125 499.627 318.735 523.564 302.194 533.246C285.653 543.198 272 535.129 272 515.496C272 510.385 272.787 505.006 274.363 499.896L301.931 497.744L303.244 461.436Z" fill="url(#paint11_linear_192_15699)"/>
<path d="M350.765 253.267V140.716C350.765 135.944 345.432 132.857 341.222 135.383L206.217 213.691C202.288 215.937 199.762 220.147 199.762 224.918V338.03C199.762 342.521 204.814 345.328 208.463 343.083L344.029 264.774C348.52 261.968 350.765 257.757 350.765 253.267Z" fill="url(#paint12_linear_192_15699)"/>
<path d="M355.816 254.951V142.401C355.816 137.629 350.483 134.542 346.273 137.068L211.268 215.376C207.339 217.622 204.812 221.832 204.812 226.603V339.715C204.812 344.206 209.865 347.013 213.514 344.767L349.08 266.459C353.29 263.933 355.816 259.723 355.816 254.951Z" fill="url(#paint13_linear_192_15699)"/>
<path d="M302.314 207.657C302.943 212.373 304.829 216.146 308.288 218.033C312.375 220.233 317.72 219.604 323.064 216.461C328.409 213.317 333.754 207.972 337.526 201.055C341.614 194.138 343.5 186.907 343.5 180.619C343.5 174.646 341.299 169.616 337.212 167.415C333.754 165.528 329.667 165.528 325.265 167.415C324.322 167.729 323.379 168.358 322.436 168.672C317.091 171.816 311.746 177.161 307.973 184.078C303.886 190.994 302 198.226 302 204.513C302 205.771 302 206.714 302.314 207.657Z" fill="url(#paint14_linear_192_15699)"/>
<g opacity="0.29">
<path d="M258.874 288.008L225.754 307.094" stroke="#2062D7" stroke-width="1.96205" stroke-miterlimit="10" stroke-linecap="round" stroke-linejoin="round"/>
<path d="M291.713 252.362L226.035 290.534" stroke="#2062D7" stroke-width="1.96205" stroke-miterlimit="10" stroke-linecap="round" stroke-linejoin="round"/>
<path d="M258.874 288.008L225.754 307.094" stroke="#0660D7" stroke-width="4.15248" stroke-miterlimit="10" stroke-linecap="round" stroke-linejoin="round"/>
<path d="M291.713 252.362L226.035 290.534" stroke="#0660D7" stroke-width="4.15248" stroke-miterlimit="10" stroke-linecap="round" stroke-linejoin="round"/>
</g>
<path d="M173.94 366.146V330.219C173.94 328.535 172.256 327.693 170.853 328.535L127.629 353.516C126.225 354.358 125.664 355.48 125.664 357.164V393.371C125.664 394.775 127.348 395.617 128.471 395.055L171.695 370.075C173.379 368.953 173.94 367.549 173.94 366.146Z" fill="url(#paint15_linear_192_15699)"/>
<path d="M417.659 325.972V290.046C417.659 288.362 415.975 287.52 414.571 288.362L371.348 313.342C369.944 314.184 369.383 315.307 369.383 316.991V353.198C369.383 354.601 371.067 355.443 372.19 354.882L415.414 329.902C417.098 328.779 417.659 327.376 417.659 325.972Z" fill="url(#paint16_linear_192_15699)"/>
<path d="M229.292 223.307V187.38C229.292 185.696 227.608 184.854 226.204 185.696L182.98 210.676C181.577 211.518 181.016 212.641 181.016 214.325V250.532C181.016 251.936 182.7 252.778 183.822 252.216L227.046 227.236C228.73 226.114 229.292 224.71 229.292 223.307Z" fill="url(#paint17_linear_192_15699)"/>
<defs>
<linearGradient id="paint0_linear_192_15699" x1="416.974" y1="352.87" x2="416.974" y2="509.278" gradientUnits="userSpaceOnUse">
<stop offset="0.0251397" stop-color="white"/>
<stop offset="1" stop-color="#83B8F6" stop-opacity="0"/>
</linearGradient>
<linearGradient id="paint1_linear_192_15699" x1="266.15" y1="125.454" x2="266.15" y2="817.393" gradientUnits="userSpaceOnUse">
<stop offset="0.0251397" stop-color="white"/>
<stop offset="1" stop-color="#83B8F6" stop-opacity="0"/>
</linearGradient>
<linearGradient id="paint2_linear_192_15699" x1="112.558" y1="115.934" x2="112.558" y2="272.342" gradientUnits="userSpaceOnUse">
<stop offset="0.0251397" stop-color="white"/>
<stop offset="1" stop-color="#83B8F6" stop-opacity="0"/>
</linearGradient>
<linearGradient id="paint3_linear_192_15699" x1="512.437" y1="240.51" x2="512.437" y2="335.793" gradientUnits="userSpaceOnUse">
<stop offset="0.0251397" stop-color="white"/>
<stop offset="1" stop-color="#83B8F6" stop-opacity="0"/>
</linearGradient>
<linearGradient id="paint4_linear_192_15699" x1="27.6788" y1="382.456" x2="27.6788" y2="477.74" gradientUnits="userSpaceOnUse">
<stop offset="0.0251397" stop-color="white"/>
<stop offset="1" stop-color="#83B8F6" stop-opacity="0"/>
</linearGradient>
<linearGradient id="paint5_linear_192_15699" x1="215.149" y1="412.963" x2="340.25" y2="545.281" gradientUnits="userSpaceOnUse">
<stop offset="0.0251397" stop-color="white"/>
<stop offset="1" stop-color="#83B8F6"/>
</linearGradient>
<linearGradient id="paint6_linear_192_15699" x1="285.262" y1="517.541" x2="130.089" y2="243.282" gradientUnits="userSpaceOnUse">
<stop offset="0.0251397" stop-color="white"/>
<stop offset="1" stop-color="#83B8F6"/>
</linearGradient>
<linearGradient id="paint7_linear_192_15699" x1="294.859" y1="400.241" x2="314.052" y2="490.687" gradientUnits="userSpaceOnUse">
<stop offset="0.0251397" stop-color="#0068D1"/>
<stop offset="0.3456" stop-color="#5377D3"/>
<stop offset="0.6357" stop-color="#9883D5"/>
<stop offset="0.8438" stop-color="#C38BD7"/>
<stop offset="0.9499" stop-color="#D38ED7"/>
</linearGradient>
<linearGradient id="paint8_linear_192_15699" x1="300.852" y1="461.567" x2="425.953" y2="593.886" gradientUnits="userSpaceOnUse">
<stop offset="0.0251397" stop-color="white"/>
<stop offset="1" stop-color="#83B8F6"/>
</linearGradient>
<linearGradient id="paint9_linear_192_15699" x1="432.347" y1="818.917" x2="249.423" y2="451.441" gradientUnits="userSpaceOnUse">
<stop offset="0.0251397" stop-color="#0068D1"/>
<stop offset="0.3456" stop-color="#5377D3"/>
<stop offset="0.6357" stop-color="#9883D5"/>
<stop offset="0.8438" stop-color="#C38BD7"/>
<stop offset="0.9499" stop-color="#D38ED7"/>
</linearGradient>
<linearGradient id="paint10_linear_192_15699" x1="279.663" y1="496.139" x2="307.56" y2="444.796" gradientUnits="userSpaceOnUse">
<stop offset="0.0251397" stop-color="white"/>
<stop offset="1" stop-color="#83B8F6"/>
</linearGradient>
<linearGradient id="paint11_linear_192_15699" x1="318.319" y1="423.772" x2="296.543" y2="531.5" gradientUnits="userSpaceOnUse">
<stop offset="0.0251397" stop-color="#0068D1"/>
<stop offset="0.3456" stop-color="#5377D3"/>
<stop offset="0.6357" stop-color="#9883D5"/>
<stop offset="0.8438" stop-color="#C38BD7"/>
<stop offset="0.9499" stop-color="#D38ED7"/>
</linearGradient>
<linearGradient id="paint12_linear_192_15699" x1="258.001" y1="220.526" x2="383.101" y2="352.845" gradientUnits="userSpaceOnUse">
<stop offset="0.0251397" stop-color="white"/>
<stop offset="1" stop-color="#83B8F6"/>
</linearGradient>
<linearGradient id="paint13_linear_192_15699" x1="328.114" y1="325.105" x2="172.941" y2="50.8455" gradientUnits="userSpaceOnUse">
<stop offset="0.0251397" stop-color="white"/>
<stop offset="1" stop-color="#83B8F6"/>
</linearGradient>
<linearGradient id="paint14_linear_192_15699" x1="292.744" y1="278.51" x2="337.171" y2="182.212" gradientUnits="userSpaceOnUse">
<stop offset="0.0251397" stop-color="#0068D1"/>
<stop offset="0.3456" stop-color="#5377D3"/>
<stop offset="0.6357" stop-color="#9883D5"/>
<stop offset="0.8438" stop-color="#C38BD7"/>
<stop offset="0.9499" stop-color="#D38ED7"/>
</linearGradient>
<linearGradient id="paint15_linear_192_15699" x1="136.75" y1="299.353" x2="155.943" y2="389.798" gradientUnits="userSpaceOnUse">
<stop offset="0.0251397" stop-color="#0068D1"/>
<stop offset="0.3456" stop-color="#5377D3"/>
<stop offset="0.6357" stop-color="#9883D5"/>
<stop offset="0.8438" stop-color="#C38BD7"/>
<stop offset="0.9499" stop-color="#D38ED7"/>
</linearGradient>
<linearGradient id="paint16_linear_192_15699" x1="380.468" y1="259.179" x2="399.662" y2="349.625" gradientUnits="userSpaceOnUse">
<stop offset="0.0251397" stop-color="#0068D1"/>
<stop offset="0.3456" stop-color="#5377D3"/>
<stop offset="0.6357" stop-color="#9883D5"/>
<stop offset="0.8438" stop-color="#C38BD7"/>
<stop offset="0.9499" stop-color="#D38ED7"/>
</linearGradient>
<linearGradient id="paint17_linear_192_15699" x1="192.101" y1="156.514" x2="211.295" y2="246.959" gradientUnits="userSpaceOnUse">
<stop offset="0.0251397" stop-color="#0068D1"/>
<stop offset="0.3456" stop-color="#5377D3"/>
<stop offset="0.6357" stop-color="#9883D5"/>
<stop offset="0.8438" stop-color="#C38BD7"/>
<stop offset="0.9499" stop-color="#D38ED7"/>
</linearGradient>
</defs>
</svg>
