<svg width="120" height="120" viewBox="0 0 120 120" fill="none"
  xmlns="http://www.w3.org/2000/svg">
  <path d="M24 19.8558L23.8113 18.9912L23.115 19.1431V19.8558H24ZM96 19.8558H96.885V19.1431L96.1887 18.9912L96 19.8558ZM60 102L59.5147 102.74L60 103.058L60.4853 102.74L60 102ZM60 12L60.1887 11.1353L60 11.0942L59.8113 11.1353L60 12ZM95.115 19.8558V68.6714H96.885V19.8558H95.115ZM24.885 68.6714V19.8558H23.115V68.6714H24.885ZM87.3853 82.9836L59.5147 101.26L60.4853 102.74L88.3559 84.4638L87.3853 82.9836ZM60.4853 101.26L32.6147 82.9836L31.6441 84.4638L59.5147 102.74L60.4853 101.26ZM24.1887 20.7205L60.1887 12.8647L59.8113 11.1353L23.8113 18.9912L24.1887 20.7205ZM59.8113 12.8647L95.8113 20.7205L96.1887 18.9912L60.1887 11.1353L59.8113 12.8647ZM23.115 68.6714C23.115 75.0365 26.3214 80.9734 31.6441 84.4638L32.6147 82.9836C27.7909 79.8204 24.885 74.4399 24.885 68.6714H23.115ZM95.115 68.6714C95.115 74.4399 92.2092 79.8203 87.3853 82.9836L88.3559 84.4638C93.6786 80.9734 96.885 75.0365 96.885 68.6714H95.115Z" fill="url(#paint0_linear_4022_94407)"/>
  <path d="M60 109L59.5147 109.74L60 110.058L60.4853 109.74L60 109ZM32.1294 90.7237L31.6441 91.4638L32.1294 90.7237ZM95.115 26.8558V75.6714H96.885V26.8558H95.115ZM24.885 75.6714V26.8558H23.115V75.6714H24.885ZM87.3853 89.9836L59.5147 108.26L60.4853 109.74L88.3559 91.4638L87.3853 89.9836ZM60.4853 108.26L32.6147 89.9836L31.6441 91.4638L59.5147 109.74L60.4853 108.26ZM23.115 75.6714C23.115 82.0365 26.3214 87.9734 31.6441 91.4638L32.6147 89.9836C27.7909 86.8204 24.885 81.4399 24.885 75.6714H23.115ZM95.115 75.6714C95.115 81.4399 92.2092 86.8204 87.3853 89.9836L88.3559 91.4638C93.6786 87.9734 96.885 82.0365 96.885 75.6714H95.115Z" fill="url(#paint1_linear_4022_94407)"/>
  <path d="M60 54L60 69" stroke="url(#paint2_linear_4022_94407)" stroke-width="1.77"/>
  <rect x="51.885" y="37.885" width="16.23" height="16.23" rx="8.115" stroke="url(#paint3_linear_4022_94407)" stroke-width="1.77"/>
  <defs>
    <linearGradient id="paint0_linear_4022_94407" x1="24" y1="12" x2="98.9186" y2="25.4336" gradientUnits="userSpaceOnUse">
      <stop stop-color="#3B00B9"/>
      <stop offset="1" stop-color="#2586B6"/>
    </linearGradient>
    <linearGradient id="paint1_linear_4022_94407" x1="24" y1="26.8558" x2="98.4537" y2="41.4829" gradientUnits="userSpaceOnUse">
      <stop stop-color="#3B00B9"/>
      <stop offset="1" stop-color="#2586B6"/>
    </linearGradient>
    <linearGradient id="paint2_linear_4022_94407" x1="60" y1="54" x2="61.0738" y2="54.016" gradientUnits="userSpaceOnUse">
      <stop stop-color="#3B00B9"/>
      <stop offset="1" stop-color="#2586B6"/>
    </linearGradient>
    <linearGradient id="paint3_linear_4022_94407" x1="51" y1="37" x2="69.4071" y2="41.1257" gradientUnits="userSpaceOnUse">
      <stop stop-color="#3B00B9"/>
      <stop offset="1" stop-color="#2586B6"/>
    </linearGradient>
  </defs>
</svg>
