<svg width="546" height="505" viewBox="0 0 546 505" fill="none"
  xmlns="http://www.w3.org/2000/svg">
  <rect x="43.7158" y="190.257" width="269.789" height="252.253" rx="16.1873" fill="white"/>
  <rect x="43.7158" y="190.257" width="269.789" height="252.253" rx="16.1873" fill="#4A13BE" fill-opacity="0.1"/>
  <rect x="43.7158" y="190.257" width="269.789" height="252.253" rx="16.1873" fill="black" fill-opacity="0.17"/>
  <path d="M77.407 231.179H80.6444L74.817 215.876H71.3637L65.4931 231.179H68.6442L69.9176 227.682H76.1336L77.407 231.179ZM73.0256 219.178L75.1407 224.963H70.9104L73.0256 219.178ZM92.3211 215.553H89.4937V221.617C89.1915 221.056 88.3282 220.301 86.4936 220.301C83.4936 220.301 81.4 222.74 81.4 225.848C81.4 229.064 83.5583 231.438 86.58 231.438C88.0044 231.438 89.0836 230.79 89.5584 229.948C89.5584 230.445 89.6232 230.963 89.6663 231.179H92.4074C92.3642 230.747 92.3211 229.97 92.3211 229.258V215.553ZM84.2921 225.848C84.2921 223.948 85.4576 222.869 86.9253 222.869C88.3929 222.869 89.5368 223.927 89.5368 225.826C89.5368 227.747 88.3929 228.869 86.9253 228.869C85.4145 228.869 84.2921 227.747 84.2921 225.848ZM105.537 215.553H102.709V221.617C102.407 221.056 101.544 220.301 99.7091 220.301C96.709 220.301 94.6155 222.74 94.6155 225.848C94.6155 229.064 96.7738 231.438 99.7954 231.438C101.22 231.438 102.299 230.79 102.774 229.948C102.774 230.445 102.839 230.963 102.882 231.179H105.623C105.58 230.747 105.537 229.97 105.537 229.258V215.553ZM97.5076 225.848C97.5076 223.948 98.6731 222.869 100.141 222.869C101.608 222.869 102.752 223.927 102.752 225.826C102.752 227.747 101.608 228.869 100.141 228.869C98.6299 228.869 97.5076 227.747 97.5076 225.848ZM118.521 228.891C117.118 228.891 115.823 227.855 115.823 225.869C115.823 223.862 117.118 222.848 118.521 222.848C119.924 222.848 121.219 223.862 121.219 225.869C121.219 227.876 119.924 228.891 118.521 228.891ZM118.521 220.236C115.348 220.236 112.953 222.589 112.953 225.869C112.953 229.128 115.348 231.502 118.521 231.502C121.694 231.502 124.09 229.128 124.09 225.869C124.09 222.589 121.694 220.236 118.521 220.236ZM132.848 220.517C132.632 220.495 132.416 220.473 132.179 220.473C131.272 220.473 129.805 220.732 129.157 222.135V220.56H126.373V231.179H129.244V226.323C129.244 224.035 130.517 223.322 131.985 223.322C132.244 223.322 132.524 223.344 132.848 223.409V220.517ZM147.319 231.179H150.643L147.362 224.92C149.369 224.337 150.621 222.718 150.621 220.581C150.621 217.927 148.722 215.876 145.743 215.876H139.765V231.179H142.765V225.287H144.319L147.319 231.179ZM142.765 222.718V218.466H145.182C146.693 218.466 147.578 219.308 147.578 220.603C147.578 221.855 146.693 222.718 145.182 222.718H142.765ZM154.796 224.661C154.861 223.689 155.681 222.567 157.17 222.567C158.811 222.567 159.501 223.603 159.544 224.661H154.796ZM159.825 227.423C159.48 228.373 158.746 229.042 157.408 229.042C155.983 229.042 154.796 228.028 154.731 226.625H162.329C162.329 226.582 162.372 226.15 162.372 225.74C162.372 222.33 160.408 220.236 157.127 220.236C154.408 220.236 151.904 222.438 151.904 225.826C151.904 229.409 154.472 231.502 157.386 231.502C159.998 231.502 161.681 229.97 162.221 228.135L159.825 227.423ZM167.562 231.179V224.963C167.562 223.797 168.296 222.869 169.548 222.869C170.843 222.869 171.425 223.733 171.425 224.876V231.179H174.274V224.963C174.274 223.819 175.008 222.869 176.238 222.869C177.555 222.869 178.116 223.733 178.116 224.876V231.179H180.9V224.294C180.9 221.445 179.023 220.258 177.059 220.258C175.656 220.258 174.533 220.732 173.692 222.027C173.152 220.884 171.987 220.258 170.541 220.258C169.375 220.258 168.015 220.819 167.433 221.855V220.56H164.691V231.179H167.562ZM188.645 228.891C187.242 228.891 185.947 227.855 185.947 225.869C185.947 223.862 187.242 222.848 188.645 222.848C190.048 222.848 191.343 223.862 191.343 225.869C191.343 227.876 190.048 228.891 188.645 228.891ZM188.645 220.236C185.472 220.236 183.077 222.589 183.077 225.869C183.077 229.128 185.472 231.502 188.645 231.502C191.818 231.502 194.214 229.128 194.214 225.869C194.214 222.589 191.818 220.236 188.645 220.236ZM206.24 220.56H203.219L200.693 227.682L198.06 220.56H194.909L199.247 231.179H202.118L206.24 220.56ZM209.934 224.661C209.999 223.689 210.819 222.567 212.308 222.567C213.949 222.567 214.639 223.603 214.683 224.661H209.934ZM214.963 227.423C214.618 228.373 213.884 229.042 212.546 229.042C211.121 229.042 209.934 228.028 209.87 226.625H217.467C217.467 226.582 217.51 226.15 217.51 225.74C217.51 222.33 215.546 220.236 212.265 220.236C209.546 220.236 207.042 222.438 207.042 225.826C207.042 229.409 209.611 231.502 212.524 231.502C215.136 231.502 216.819 229.97 217.359 228.135L214.963 227.423ZM80.148 260.179V244.876H77.1695V254.999L70.8025 244.876H67.0902V260.179H70.0687V249.322L77.0185 260.179H80.148ZM88.1277 257.891C86.7248 257.891 85.4298 256.855 85.4298 254.869C85.4298 252.862 86.7248 251.848 88.1277 251.848C89.5306 251.848 90.8256 252.862 90.8256 254.869C90.8256 256.876 89.5306 257.891 88.1277 257.891ZM88.1277 249.236C84.955 249.236 82.5593 251.589 82.5593 254.869C82.5593 258.128 84.955 260.502 88.1277 260.502C91.3004 260.502 93.6962 258.128 93.6962 254.869C93.6962 251.589 91.3004 249.236 88.1277 249.236ZM106.253 244.553H103.426V250.617C103.124 250.056 102.26 249.301 100.426 249.301C97.4256 249.301 95.3321 251.74 95.3321 254.848C95.3321 258.064 97.4904 260.438 100.512 260.438C101.937 260.438 103.016 259.79 103.491 258.948C103.491 259.445 103.555 259.963 103.598 260.179H106.339C106.296 259.747 106.253 258.97 106.253 258.258V244.553ZM98.2242 254.848C98.2242 252.948 99.3897 251.869 100.857 251.869C102.325 251.869 103.469 252.927 103.469 254.826C103.469 256.747 102.325 257.869 100.857 257.869C99.3465 257.869 98.2242 256.747 98.2242 254.848ZM111.461 253.661C111.526 252.689 112.346 251.567 113.835 251.567C115.476 251.567 116.166 252.603 116.21 253.661H111.461ZM116.49 256.423C116.145 257.373 115.411 258.042 114.073 258.042C112.648 258.042 111.461 257.028 111.397 255.625H118.994C118.994 255.582 119.037 255.15 119.037 254.74C119.037 251.33 117.073 249.236 113.792 249.236C111.073 249.236 108.569 251.438 108.569 254.826C108.569 258.409 111.138 260.502 114.051 260.502C116.663 260.502 118.346 258.97 118.886 257.135L116.49 256.423ZM129.802 251.848V247.466H132.155C133.644 247.466 134.55 248.308 134.55 249.668C134.55 250.984 133.644 251.848 132.155 251.848H129.802ZM132.522 254.416C135.543 254.416 137.551 252.43 137.551 249.646C137.551 246.884 135.543 244.876 132.522 244.876H126.802V260.179H129.781V254.416H132.522ZM145.916 249.517C145.7 249.495 145.484 249.473 145.247 249.473C144.34 249.473 142.873 249.732 142.225 251.135V249.56H139.441V260.179H142.311V255.323C142.311 253.035 143.585 252.322 145.053 252.322C145.312 252.322 145.592 252.344 145.916 252.409V249.517ZM152.603 257.891C151.2 257.891 149.905 256.855 149.905 254.869C149.905 252.862 151.2 251.848 152.603 251.848C154.006 251.848 155.301 252.862 155.301 254.869C155.301 256.876 154.006 257.891 152.603 257.891ZM152.603 249.236C149.43 249.236 147.035 251.589 147.035 254.869C147.035 258.128 149.43 260.502 152.603 260.502C155.776 260.502 158.172 258.128 158.172 254.869C158.172 251.589 155.776 249.236 152.603 249.236ZM170.198 249.56H167.176L164.651 256.682L162.018 249.56H158.867L163.205 260.179H166.076L170.198 249.56ZM174.897 260.179V249.56H172.026V260.179H174.897ZM171.681 246.085C171.681 247.035 172.48 247.833 173.451 247.833C174.444 247.833 175.221 247.035 175.221 246.085C175.221 245.092 174.444 244.294 173.451 244.294C172.48 244.294 171.681 245.092 171.681 246.085ZM188.096 244.553H185.269V250.617C184.967 250.056 184.103 249.301 182.269 249.301C179.269 249.301 177.175 251.74 177.175 254.848C177.175 258.064 179.333 260.438 182.355 260.438C183.78 260.438 184.859 259.79 185.334 258.948C185.334 259.445 185.398 259.963 185.441 260.179H188.183C188.139 259.747 188.096 258.97 188.096 258.258V244.553ZM180.067 254.848C180.067 252.948 181.233 251.869 182.7 251.869C184.168 251.869 185.312 252.927 185.312 254.826C185.312 256.747 184.168 257.869 182.7 257.869C181.19 257.869 180.067 256.747 180.067 254.848ZM193.304 253.661C193.369 252.689 194.189 251.567 195.678 251.567C197.319 251.567 198.009 252.603 198.053 253.661H193.304ZM198.333 256.423C197.988 257.373 197.254 258.042 195.916 258.042C194.491 258.042 193.304 257.028 193.24 255.625H200.837C200.837 255.582 200.88 255.15 200.88 254.74C200.88 251.33 198.916 249.236 195.635 249.236C192.916 249.236 190.412 251.438 190.412 254.826C190.412 258.409 192.981 260.502 195.894 260.502C198.506 260.502 200.189 258.97 200.729 257.135L198.333 256.423ZM209.675 249.517C209.459 249.495 209.243 249.473 209.006 249.473C208.099 249.473 206.631 249.732 205.984 251.135V249.56H203.2V260.179H206.07V255.323C206.07 253.035 207.344 252.322 208.811 252.322C209.07 252.322 209.351 252.344 209.675 252.409V249.517Z" fill="#181818"/>
  <rect x="65.2988" y="397.995" width="74.8665" height="22.9321" rx="11.466" fill="#18D0B5" fill-opacity="0.24"/>
  <path d="M82.4889 413.693V412.114H78.7739V410.123H82.1368V408.63H78.7739V406.663H82.4889V405.085H77.0985V413.693H82.4889ZM83.2914 413.693H85.1125C85.3188 413.365 86.1201 412.187 86.3386 411.859L87.5891 413.693H89.483L87.322 410.645L89.4102 407.719H87.577L86.3993 409.492C86.193 409.164 85.416 408.047 85.2096 407.719H83.2914L85.416 410.694L83.2914 413.693ZM91.4224 410.026C91.4588 409.48 91.9201 408.848 92.7578 408.848C93.6805 408.848 94.069 409.431 94.0933 410.026H91.4224ZM94.2511 411.58C94.0569 412.114 93.6441 412.491 92.8914 412.491C92.0901 412.491 91.4224 411.92 91.386 411.131H95.6594C95.6594 411.107 95.6837 410.864 95.6837 410.633C95.6837 408.715 94.5789 407.537 92.7336 407.537C91.2039 407.537 89.7956 408.776 89.7956 410.682C89.7956 412.697 91.2403 413.875 92.8792 413.875C94.3482 413.875 95.2952 413.013 95.5987 411.981L94.2511 411.58ZM99.7566 409.031C100.558 409.031 100.934 409.54 101.08 410.038L102.525 409.553C102.27 408.545 101.347 407.537 99.7201 407.537C97.984 407.537 96.6243 408.861 96.6243 410.706C96.6243 412.539 98.0083 413.875 99.7687 413.875C101.359 413.875 102.294 412.855 102.561 411.859L101.141 411.386C101.007 411.847 100.594 412.393 99.7687 412.393C98.9431 412.393 98.239 411.786 98.239 410.706C98.239 409.625 98.931 409.031 99.7566 409.031ZM107.644 413.693H109.186C109.161 413.486 109.125 413.073 109.125 412.612V407.719H107.51V411.192C107.51 411.884 107.097 412.369 106.381 412.369C105.628 412.369 105.289 411.835 105.289 411.167V407.719H103.674V411.495C103.674 412.794 104.499 413.85 105.944 413.85C106.575 413.85 107.267 413.608 107.595 413.049C107.595 413.292 107.62 413.571 107.644 413.693ZM112.877 405.935H111.42V406.772C111.42 407.307 111.129 407.719 110.498 407.719H110.194V409.152H111.275V411.932C111.275 413.085 112.003 413.777 113.169 413.777C113.642 413.777 113.934 413.693 114.079 413.632V412.296C113.994 412.321 113.776 412.345 113.581 412.345C113.12 412.345 112.877 412.175 112.877 411.653V409.152H114.079V407.719H112.877V405.935ZM116.593 410.026C116.629 409.48 117.09 408.848 117.928 408.848C118.851 408.848 119.239 409.431 119.264 410.026H116.593ZM119.421 411.58C119.227 412.114 118.814 412.491 118.062 412.491C117.26 412.491 116.593 411.92 116.556 411.131H120.83C120.83 411.107 120.854 410.864 120.854 410.633C120.854 408.715 119.749 407.537 117.904 407.537C116.374 407.537 114.966 408.776 114.966 410.682C114.966 412.697 116.41 413.875 118.049 413.875C119.518 413.875 120.465 413.013 120.769 411.981L119.421 411.58ZM127.938 404.903H126.347V408.314C126.177 407.999 125.692 407.574 124.66 407.574C122.972 407.574 121.795 408.946 121.795 410.694C121.795 412.503 123.009 413.838 124.708 413.838C125.51 413.838 126.117 413.474 126.384 413C126.384 413.28 126.42 413.571 126.444 413.693H127.986C127.962 413.45 127.938 413.013 127.938 412.612V404.903ZM123.421 410.694C123.421 409.625 124.077 409.018 124.902 409.018C125.728 409.018 126.371 409.613 126.371 410.682C126.371 411.762 125.728 412.393 124.902 412.393C124.053 412.393 123.421 411.762 123.421 410.694Z" fill="#18D0B5"/>
  <path d="M82.4889 413.693V412.114H78.7739V410.123H82.1368V408.63H78.7739V406.663H82.4889V405.085H77.0985V413.693H82.4889ZM83.2914 413.693H85.1125C85.3188 413.365 86.1201 412.187 86.3386 411.859L87.5891 413.693H89.483L87.322 410.645L89.4102 407.719H87.577L86.3993 409.492C86.193 409.164 85.416 408.047 85.2096 407.719H83.2914L85.416 410.694L83.2914 413.693ZM91.4224 410.026C91.4588 409.48 91.9201 408.848 92.7578 408.848C93.6805 408.848 94.069 409.431 94.0933 410.026H91.4224ZM94.2511 411.58C94.0569 412.114 93.6441 412.491 92.8914 412.491C92.0901 412.491 91.4224 411.92 91.386 411.131H95.6594C95.6594 411.107 95.6837 410.864 95.6837 410.633C95.6837 408.715 94.5789 407.537 92.7336 407.537C91.2039 407.537 89.7956 408.776 89.7956 410.682C89.7956 412.697 91.2403 413.875 92.8792 413.875C94.3482 413.875 95.2952 413.013 95.5987 411.981L94.2511 411.58ZM99.7566 409.031C100.558 409.031 100.934 409.54 101.08 410.038L102.525 409.553C102.27 408.545 101.347 407.537 99.7201 407.537C97.984 407.537 96.6243 408.861 96.6243 410.706C96.6243 412.539 98.0083 413.875 99.7687 413.875C101.359 413.875 102.294 412.855 102.561 411.859L101.141 411.386C101.007 411.847 100.594 412.393 99.7687 412.393C98.9431 412.393 98.239 411.786 98.239 410.706C98.239 409.625 98.931 409.031 99.7566 409.031ZM107.644 413.693H109.186C109.161 413.486 109.125 413.073 109.125 412.612V407.719H107.51V411.192C107.51 411.884 107.097 412.369 106.381 412.369C105.628 412.369 105.289 411.835 105.289 411.167V407.719H103.674V411.495C103.674 412.794 104.499 413.85 105.944 413.85C106.575 413.85 107.267 413.608 107.595 413.049C107.595 413.292 107.62 413.571 107.644 413.693ZM112.877 405.935H111.42V406.772C111.42 407.307 111.129 407.719 110.498 407.719H110.194V409.152H111.275V411.932C111.275 413.085 112.003 413.777 113.169 413.777C113.642 413.777 113.934 413.693 114.079 413.632V412.296C113.994 412.321 113.776 412.345 113.581 412.345C113.12 412.345 112.877 412.175 112.877 411.653V409.152H114.079V407.719H112.877V405.935ZM116.593 410.026C116.629 409.48 117.09 408.848 117.928 408.848C118.851 408.848 119.239 409.431 119.264 410.026H116.593ZM119.421 411.58C119.227 412.114 118.814 412.491 118.062 412.491C117.26 412.491 116.593 411.92 116.556 411.131H120.83C120.83 411.107 120.854 410.864 120.854 410.633C120.854 408.715 119.749 407.537 117.904 407.537C116.374 407.537 114.966 408.776 114.966 410.682C114.966 412.697 116.41 413.875 118.049 413.875C119.518 413.875 120.465 413.013 120.769 411.981L119.421 411.58ZM127.938 404.903H126.347V408.314C126.177 407.999 125.692 407.574 124.66 407.574C122.972 407.574 121.795 408.946 121.795 410.694C121.795 412.503 123.009 413.838 124.708 413.838C125.51 413.838 126.117 413.474 126.384 413C126.384 413.28 126.42 413.571 126.444 413.693H127.986C127.962 413.45 127.938 413.013 127.938 412.612V404.903ZM123.421 410.694C123.421 409.625 124.077 409.018 124.902 409.018C125.728 409.018 126.371 409.613 126.371 410.682C126.371 411.762 125.728 412.393 124.902 412.393C124.053 412.393 123.421 411.762 123.421 410.694Z" fill="black" fill-opacity="0.2"/>
  <rect opacity="0.1" x="65.2988" y="284.683" width="211.11" height="10.7916" rx="5.39578" fill="#181818"/>
  <rect opacity="0.1" x="65.2988" y="306.266" width="211.11" height="10.7916" rx="5.39578" fill="#181818"/>
  <rect x="21.9463" y="140.961" width="312.971" height="292.627" rx="18.7782" fill="white"/>
  <rect x="21.9463" y="140.961" width="312.971" height="292.627" rx="18.7782" fill="#4A13BE" fill-opacity="0.1"/>
  <rect x="21.9463" y="140.961" width="312.971" height="292.627" rx="18.7782" fill="black" fill-opacity="0.1"/>
  <path d="M61.0295 188.826H64.7852L58.025 171.074H54.019L47.2087 188.826H50.8642L52.3415 184.77H59.5523L61.0295 188.826ZM55.9469 174.905L58.4006 181.615H53.4932L55.9469 174.905ZM78.3307 170.699H75.0508V177.734C74.7003 177.083 73.6988 176.207 71.5706 176.207C68.0903 176.207 65.6617 179.036 65.6617 182.642C65.6617 186.372 68.1654 189.126 71.6707 189.126C73.3232 189.126 74.5751 188.375 75.1259 187.399C75.1259 187.975 75.201 188.576 75.2511 188.826H78.4309C78.3808 188.325 78.3307 187.424 78.3307 186.598V170.699ZM69.0167 182.642C69.0167 180.438 70.3688 179.186 72.0713 179.186C73.7739 179.186 75.1009 180.413 75.1009 182.617C75.1009 184.845 73.7739 186.147 72.0713 186.147C70.3187 186.147 69.0167 184.845 69.0167 182.642ZM93.6614 170.699H90.3815V177.734C90.0309 177.083 89.0294 176.207 86.9012 176.207C83.421 176.207 80.9923 179.036 80.9923 182.642C80.9923 186.372 83.4961 189.126 87.0014 189.126C88.6539 189.126 89.9057 188.375 90.4566 187.399C90.4566 187.975 90.5317 188.576 90.5818 188.826H93.7615C93.7115 188.325 93.6614 187.424 93.6614 186.598V170.699ZM84.3474 182.642C84.3474 180.438 85.6994 179.186 87.402 179.186C89.1045 179.186 90.4315 180.413 90.4315 182.617C90.4315 184.845 89.1045 186.147 87.402 186.147C85.6493 186.147 84.3474 184.845 84.3474 182.642ZM108.724 186.172C107.097 186.172 105.595 184.97 105.595 182.667C105.595 180.338 107.097 179.161 108.724 179.161C110.352 179.161 111.854 180.338 111.854 182.667C111.854 184.995 110.352 186.172 108.724 186.172ZM108.724 176.132C105.044 176.132 102.265 178.861 102.265 182.667C102.265 186.447 105.044 189.201 108.724 189.201C112.405 189.201 115.184 186.447 115.184 182.667C115.184 178.861 112.405 176.132 108.724 176.132ZM125.344 176.457C125.094 176.432 124.843 176.407 124.568 176.407C123.516 176.407 121.814 176.708 121.063 178.335V176.507H117.833V188.826H121.163V183.192C121.163 180.538 122.64 179.712 124.343 179.712C124.643 179.712 124.969 179.737 125.344 179.812V176.457ZM142.131 188.826H145.987L142.181 181.565C144.51 180.889 145.962 179.011 145.962 176.532C145.962 173.453 143.759 171.074 140.303 171.074H133.368V188.826H136.848V181.991H138.651L142.131 188.826ZM136.848 179.011V174.079H139.652C141.405 174.079 142.432 175.055 142.432 176.557C142.432 178.01 141.405 179.011 139.652 179.011H136.848ZM150.805 181.265C150.88 180.138 151.832 178.836 153.559 178.836C155.462 178.836 156.264 180.038 156.314 181.265H150.805ZM156.639 184.469C156.238 185.571 155.387 186.347 153.835 186.347C152.182 186.347 150.805 185.17 150.73 183.543H159.543C159.543 183.493 159.594 182.992 159.594 182.516C159.594 178.56 157.315 176.132 153.509 176.132C150.355 176.132 147.45 178.686 147.45 182.617C147.45 186.773 150.43 189.201 153.81 189.201C156.839 189.201 158.792 187.424 159.418 185.296L156.639 184.469ZM165.614 188.826V181.615C165.614 180.263 166.466 179.186 167.918 179.186C169.42 179.186 170.096 180.188 170.096 181.515V188.826H173.401V181.615C173.401 180.288 174.252 179.186 175.68 179.186C177.207 179.186 177.858 180.188 177.858 181.515V188.826H181.088V180.839C181.088 177.534 178.909 176.157 176.631 176.157C175.004 176.157 173.702 176.708 172.725 178.21C172.099 176.883 170.747 176.157 169.07 176.157C167.718 176.157 166.14 176.808 165.464 178.01V176.507H162.284V188.826H165.614ZM190.072 186.172C188.445 186.172 186.942 184.97 186.942 182.667C186.942 180.338 188.445 179.161 190.072 179.161C191.7 179.161 193.202 180.338 193.202 182.667C193.202 184.995 191.7 186.172 190.072 186.172ZM190.072 176.132C186.392 176.132 183.612 178.861 183.612 182.667C183.612 186.447 186.392 189.201 190.072 189.201C193.753 189.201 196.532 186.447 196.532 182.667C196.532 178.861 193.753 176.132 190.072 176.132ZM210.483 176.507H206.978L204.049 184.77L200.994 176.507H197.339L202.371 188.826H205.701L210.483 176.507ZM214.769 181.265C214.844 180.138 215.795 178.836 217.523 178.836C219.426 178.836 220.227 180.038 220.277 181.265H214.769ZM220.602 184.469C220.202 185.571 219.351 186.347 217.798 186.347C216.146 186.347 214.769 185.17 214.694 183.543H223.507C223.507 183.493 223.557 182.992 223.557 182.516C223.557 178.56 221.278 176.132 217.473 176.132C214.318 176.132 211.414 178.686 211.414 182.617C211.414 186.773 214.393 189.201 217.773 189.201C220.803 189.201 222.756 187.424 223.382 185.296L220.602 184.469ZM64.2093 221.826V204.074H60.7541V215.817L53.368 204.074H49.0615V221.826H52.5167V209.232L60.5788 221.826H64.2093ZM73.4662 219.172C71.8387 219.172 70.3365 217.97 70.3365 215.667C70.3365 213.338 71.8387 212.161 73.4662 212.161C75.0936 212.161 76.5959 213.338 76.5959 215.667C76.5959 217.995 75.0936 219.172 73.4662 219.172ZM73.4662 209.132C69.7857 209.132 67.0065 211.861 67.0065 215.667C67.0065 219.447 69.7857 222.201 73.4662 222.201C77.1467 222.201 79.9259 219.447 79.9259 215.667C79.9259 211.861 77.1467 209.132 73.4662 209.132ZM94.4927 203.699H91.2128V210.734C90.8623 210.083 89.8608 209.207 87.7326 209.207C84.2523 209.207 81.8237 212.036 81.8237 215.642C81.8237 219.372 84.3274 222.126 87.8327 222.126C89.4852 222.126 90.7371 221.375 91.2879 220.399C91.2879 220.975 91.363 221.576 91.4131 221.826H94.5929C94.5428 221.325 94.4927 220.424 94.4927 219.598V203.699ZM85.1787 215.642C85.1787 213.438 86.5308 212.186 88.2333 212.186C89.9359 212.186 91.2629 213.413 91.2629 215.617C91.2629 217.845 89.9359 219.147 88.2333 219.147C86.4807 219.147 85.1787 217.845 85.1787 215.642ZM100.534 214.265C100.61 213.138 101.561 211.836 103.289 211.836C105.191 211.836 105.993 213.038 106.043 214.265H100.534ZM106.368 217.469C105.968 218.571 105.116 219.347 103.564 219.347C101.911 219.347 100.534 218.17 100.459 216.543H109.273C109.273 216.493 109.323 215.992 109.323 215.516C109.323 211.56 107.044 209.132 103.238 209.132C100.084 209.132 97.1794 211.686 97.1794 215.617C97.1794 219.773 100.159 222.201 103.539 222.201C106.568 222.201 108.521 220.424 109.147 218.296L106.368 217.469ZM121.811 212.161V207.079H124.54C126.268 207.079 127.319 208.055 127.319 209.633C127.319 211.16 126.268 212.161 124.54 212.161H121.811ZM124.966 215.141C128.471 215.141 130.799 212.837 130.799 209.608C130.799 206.403 128.471 204.074 124.966 204.074H118.331V221.826H121.786V215.141H124.966ZM140.504 209.457C140.253 209.432 140.003 209.407 139.728 209.407C138.676 209.407 136.973 209.708 136.222 211.335V209.507H132.992V221.826H136.322V216.192C136.322 213.538 137.8 212.712 139.502 212.712C139.803 212.712 140.128 212.737 140.504 212.812V209.457ZM148.261 219.172C146.634 219.172 145.132 217.97 145.132 215.667C145.132 213.338 146.634 212.161 148.261 212.161C149.889 212.161 151.391 213.338 151.391 215.667C151.391 217.995 149.889 219.172 148.261 219.172ZM148.261 209.132C144.581 209.132 141.802 211.861 141.802 215.667C141.802 219.447 144.581 222.201 148.261 222.201C151.942 222.201 154.721 219.447 154.721 215.667C154.721 211.861 151.942 209.132 148.261 209.132ZM168.672 209.507H165.167L162.238 217.77L159.183 209.507H155.528L160.56 221.826H163.89L168.672 209.507ZM174.123 221.826V209.507H170.793V221.826H174.123ZM170.393 205.476C170.393 206.578 171.319 207.504 172.446 207.504C173.598 207.504 174.499 206.578 174.499 205.476C174.499 204.325 173.598 203.398 172.446 203.398C171.319 203.398 170.393 204.325 170.393 205.476ZM189.435 203.699H186.155V210.734C185.805 210.083 184.803 209.207 182.675 209.207C179.195 209.207 176.766 212.036 176.766 215.642C176.766 219.372 179.27 222.126 182.775 222.126C184.428 222.126 185.68 221.375 186.23 220.399C186.23 220.975 186.306 221.576 186.356 221.826H189.535C189.485 221.325 189.435 220.424 189.435 219.598V203.699ZM180.121 215.642C180.121 213.438 181.473 212.186 183.176 212.186C184.878 212.186 186.205 213.413 186.205 215.617C186.205 217.845 184.878 219.147 183.176 219.147C181.423 219.147 180.121 217.845 180.121 215.642ZM195.477 214.265C195.552 213.138 196.504 211.836 198.231 211.836C200.134 211.836 200.935 213.038 200.985 214.265H195.477ZM201.311 217.469C200.91 218.571 200.059 219.347 198.507 219.347C196.854 219.347 195.477 218.17 195.402 216.543H204.215C204.215 216.493 204.265 215.992 204.265 215.516C204.265 211.56 201.987 209.132 198.181 209.132C195.026 209.132 192.122 211.686 192.122 215.617C192.122 219.773 195.101 222.201 198.481 222.201C201.511 222.201 203.464 220.424 204.09 218.296L201.311 217.469ZM214.467 209.457C214.217 209.432 213.967 209.407 213.691 209.407C212.64 209.407 210.937 209.708 210.186 211.335V209.507H206.956V221.826H210.286V216.192C210.286 213.538 211.763 212.712 213.466 212.712C213.766 212.712 214.092 212.737 214.467 212.812V209.457Z" fill="#181818"/>
  <rect x="46.9834" y="381.948" width="86.8493" height="26.6025" rx="13.3012" fill="#18D0B5" fill-opacity="0.24"/>
  <path d="M66.9241 400.078V398.247H62.6144V395.937H66.5156V394.205H62.6144V391.923H66.9241V390.092H60.6709V400.078H66.9241ZM67.855 400.078H69.9676C70.207 399.697 71.1365 398.331 71.39 397.951L72.8406 400.078H75.0377L72.5308 396.543L74.9532 393.149H72.8265L71.4604 395.205C71.221 394.825 70.3196 393.529 70.0802 393.149H67.855L70.3196 396.599L67.855 400.078ZM77.2874 395.824C77.3297 395.191 77.8649 394.458 78.8366 394.458C79.907 394.458 80.3577 395.134 80.3858 395.824H77.2874ZM80.5689 397.627C80.3436 398.247 79.8647 398.683 78.9916 398.683C78.062 398.683 77.2874 398.022 77.2452 397.106H82.2026C82.2026 397.078 82.2308 396.796 82.2308 396.529C82.2308 394.303 80.9492 392.937 78.8085 392.937C77.0339 392.937 75.4002 394.374 75.4002 396.585C75.4002 398.923 77.0762 400.289 78.9775 400.289C80.6816 400.289 81.7801 399.289 82.1322 398.092L80.5689 397.627ZM86.9555 394.67C87.8851 394.67 88.3217 395.261 88.4907 395.839L90.1666 395.275C89.8709 394.106 88.8005 392.937 86.9133 392.937C84.8993 392.937 83.322 394.472 83.322 396.613C83.322 398.74 84.9275 400.289 86.9696 400.289C88.8146 400.289 89.899 399.106 90.2089 397.951L88.5611 397.402C88.4062 397.937 87.9273 398.571 86.9696 398.571C86.0119 398.571 85.1951 397.867 85.1951 396.613C85.1951 395.36 85.9979 394.67 86.9555 394.67ZM96.1052 400.078H97.8938C97.8657 399.838 97.8234 399.359 97.8234 398.824V393.149H95.9503V397.177C95.9503 397.979 95.4714 398.543 94.6405 398.543C93.7673 398.543 93.373 397.923 93.373 397.148V393.149H91.4998V397.529C91.4998 399.036 92.4575 400.261 94.1335 400.261C94.8658 400.261 95.6686 399.979 96.0489 399.331C96.0489 399.613 96.077 399.937 96.1052 400.078ZM102.176 391.078H100.486V392.05C100.486 392.67 100.148 393.149 99.416 393.149H99.0639V394.81H100.317V398.036C100.317 399.374 101.162 400.176 102.514 400.176C103.064 400.176 103.402 400.078 103.571 400.007V398.458C103.472 398.486 103.219 398.514 102.993 398.514C102.458 398.514 102.176 398.317 102.176 397.712V394.81H103.571V393.149H102.176V391.078ZM106.486 395.824C106.529 395.191 107.064 394.458 108.036 394.458C109.106 394.458 109.557 395.134 109.585 395.824H106.486ZM109.768 397.627C109.542 398.247 109.064 398.683 108.19 398.683C107.261 398.683 106.486 398.022 106.444 397.106H111.402C111.402 397.078 111.43 396.796 111.43 396.529C111.43 394.303 110.148 392.937 108.007 392.937C106.233 392.937 104.599 394.374 104.599 396.585C104.599 398.923 106.275 400.289 108.176 400.289C109.88 400.289 110.979 399.289 111.331 398.092L109.768 397.627ZM119.647 389.881H117.802V393.839C117.605 393.473 117.042 392.98 115.845 392.98C113.887 392.98 112.521 394.571 112.521 396.599C112.521 398.698 113.929 400.247 115.901 400.247C116.83 400.247 117.535 399.824 117.844 399.275C117.844 399.599 117.887 399.937 117.915 400.078H119.704C119.675 399.796 119.647 399.289 119.647 398.824V389.881ZM114.408 396.599C114.408 395.36 115.169 394.656 116.126 394.656C117.084 394.656 117.83 395.346 117.83 396.585C117.83 397.838 117.084 398.571 116.126 398.571C115.14 398.571 114.408 397.838 114.408 396.599Z" fill="#18D0B5"/>
  <path d="M66.9241 400.078V398.247H62.6144V395.937H66.5156V394.205H62.6144V391.923H66.9241V390.092H60.6709V400.078H66.9241ZM67.855 400.078H69.9676C70.207 399.697 71.1365 398.331 71.39 397.951L72.8406 400.078H75.0377L72.5308 396.543L74.9532 393.149H72.8265L71.4604 395.205C71.221 394.825 70.3196 393.529 70.0802 393.149H67.855L70.3196 396.599L67.855 400.078ZM77.2874 395.824C77.3297 395.191 77.8649 394.458 78.8366 394.458C79.907 394.458 80.3577 395.134 80.3858 395.824H77.2874ZM80.5689 397.627C80.3436 398.247 79.8647 398.683 78.9916 398.683C78.062 398.683 77.2874 398.022 77.2452 397.106H82.2026C82.2026 397.078 82.2308 396.796 82.2308 396.529C82.2308 394.303 80.9492 392.937 78.8085 392.937C77.0339 392.937 75.4002 394.374 75.4002 396.585C75.4002 398.923 77.0762 400.289 78.9775 400.289C80.6816 400.289 81.7801 399.289 82.1322 398.092L80.5689 397.627ZM86.9555 394.67C87.8851 394.67 88.3217 395.261 88.4907 395.839L90.1666 395.275C89.8709 394.106 88.8005 392.937 86.9133 392.937C84.8993 392.937 83.322 394.472 83.322 396.613C83.322 398.74 84.9275 400.289 86.9696 400.289C88.8146 400.289 89.899 399.106 90.2089 397.951L88.5611 397.402C88.4062 397.937 87.9273 398.571 86.9696 398.571C86.0119 398.571 85.1951 397.867 85.1951 396.613C85.1951 395.36 85.9979 394.67 86.9555 394.67ZM96.1052 400.078H97.8938C97.8657 399.838 97.8234 399.359 97.8234 398.824V393.149H95.9503V397.177C95.9503 397.979 95.4714 398.543 94.6405 398.543C93.7673 398.543 93.373 397.923 93.373 397.148V393.149H91.4998V397.529C91.4998 399.036 92.4575 400.261 94.1335 400.261C94.8658 400.261 95.6686 399.979 96.0489 399.331C96.0489 399.613 96.077 399.937 96.1052 400.078ZM102.176 391.078H100.486V392.05C100.486 392.67 100.148 393.149 99.416 393.149H99.0639V394.81H100.317V398.036C100.317 399.374 101.162 400.176 102.514 400.176C103.064 400.176 103.402 400.078 103.571 400.007V398.458C103.472 398.486 103.219 398.514 102.993 398.514C102.458 398.514 102.176 398.317 102.176 397.712V394.81H103.571V393.149H102.176V391.078ZM106.486 395.824C106.529 395.191 107.064 394.458 108.036 394.458C109.106 394.458 109.557 395.134 109.585 395.824H106.486ZM109.768 397.627C109.542 398.247 109.064 398.683 108.19 398.683C107.261 398.683 106.486 398.022 106.444 397.106H111.402C111.402 397.078 111.43 396.796 111.43 396.529C111.43 394.303 110.148 392.937 108.007 392.937C106.233 392.937 104.599 394.374 104.599 396.585C104.599 398.923 106.275 400.289 108.176 400.289C109.88 400.289 110.979 399.289 111.331 398.092L109.768 397.627ZM119.647 389.881H117.802V393.839C117.605 393.473 117.042 392.98 115.845 392.98C113.887 392.98 112.521 394.571 112.521 396.599C112.521 398.698 113.929 400.247 115.901 400.247C116.83 400.247 117.535 399.824 117.844 399.275C117.844 399.599 117.887 399.937 117.915 400.078H119.704C119.675 399.796 119.647 399.289 119.647 398.824V389.881ZM114.408 396.599C114.408 395.36 115.169 394.656 116.126 394.656C117.084 394.656 117.83 395.346 117.83 396.585C117.83 397.838 117.084 398.571 116.126 398.571C115.14 398.571 114.408 397.838 114.408 396.599Z" fill="black" fill-opacity="0.2"/>
  <rect opacity="0.1" x="46.9834" y="250.5" width="244.899" height="12.5188" rx="6.25941" fill="#181818"/>
  <rect opacity="0.1" x="46.9834" y="275.538" width="244.899" height="12.5188" rx="6.25941" fill="#181818"/>
  <rect y="91" width="356.863" height="333.667" rx="21.4118" fill="white"/>
  <path d="M44.5648 147.549H48.8472L41.1389 127.308H36.5711L28.8058 147.549H32.9739L34.6583 142.924H42.8804L44.5648 147.549ZM38.7694 131.676L41.5672 139.327H35.9716L38.7694 131.676ZM64.2924 126.879H60.5525V134.902C60.1528 134.159 59.0109 133.16 56.5842 133.16C52.6159 133.16 49.8466 136.386 49.8466 140.497C49.8466 144.751 52.7015 147.891 56.6984 147.891C58.5826 147.891 60.0101 147.035 60.6382 145.922C60.6382 146.578 60.7238 147.263 60.7809 147.549H64.4066C64.3495 146.978 64.2924 145.95 64.2924 145.008V126.879ZM53.6722 140.497C53.6722 137.985 55.2138 136.557 57.1552 136.557C59.0965 136.557 60.6096 137.956 60.6096 140.469C60.6096 143.01 59.0965 144.494 57.1552 144.494C55.1567 144.494 53.6722 143.01 53.6722 140.497ZM81.7731 126.879H78.0332V134.902C77.6335 134.159 76.4916 133.16 74.0649 133.16C70.0966 133.16 67.3273 136.386 67.3273 140.497C67.3273 144.751 70.1822 147.891 74.1791 147.891C76.0633 147.891 77.4908 147.035 78.1189 145.922C78.1189 146.578 78.2045 147.263 78.2616 147.549H81.8873C81.8302 146.978 81.7731 145.95 81.7731 145.008V126.879ZM71.1529 140.497C71.1529 137.985 72.6945 136.557 74.6359 136.557C76.5772 136.557 78.0903 137.956 78.0903 140.469C78.0903 143.01 76.5772 144.494 74.6359 144.494C72.6374 144.494 71.1529 143.01 71.1529 140.497ZM98.9485 144.523C97.0928 144.523 95.3799 143.152 95.3799 140.526C95.3799 137.871 97.0928 136.529 98.9485 136.529C100.804 136.529 102.517 137.871 102.517 140.526C102.517 143.181 100.804 144.523 98.9485 144.523ZM98.9485 133.074C94.7518 133.074 91.5828 136.186 91.5828 140.526C91.5828 144.837 94.7518 147.977 98.9485 147.977C103.145 147.977 106.314 144.837 106.314 140.526C106.314 136.186 103.145 133.074 98.9485 133.074ZM117.899 133.446C117.614 133.417 117.328 133.389 117.014 133.389C115.815 133.389 113.874 133.731 113.017 135.587V133.503H109.335V147.549H113.132V141.125C113.132 138.099 114.816 137.157 116.757 137.157C117.1 137.157 117.471 137.186 117.899 137.271V133.446ZM137.04 147.549H141.437L137.098 139.27C139.753 138.499 141.408 136.358 141.408 133.531C141.408 130.02 138.896 127.308 134.956 127.308H127.048V147.549H131.017V139.755H133.072L137.04 147.549ZM131.017 136.358V130.733H134.214C136.213 130.733 137.383 131.847 137.383 133.56C137.383 135.216 136.213 136.358 134.214 136.358H131.017ZM146.931 138.927C147.017 137.642 148.102 136.158 150.072 136.158C152.241 136.158 153.155 137.528 153.212 138.927H146.931ZM153.583 142.581C153.126 143.837 152.156 144.722 150.386 144.722C148.501 144.722 146.931 143.381 146.845 141.525H156.895C156.895 141.468 156.952 140.897 156.952 140.354C156.952 135.844 154.354 133.074 150.014 133.074C146.417 133.074 143.106 135.986 143.106 140.469C143.106 145.208 146.503 147.977 150.357 147.977C153.811 147.977 156.038 145.95 156.752 143.523L153.583 142.581ZM163.817 147.549V139.327C163.817 137.785 164.788 136.557 166.444 136.557C168.157 136.557 168.927 137.699 168.927 139.213V147.549H172.696V139.327C172.696 137.814 173.667 136.557 175.294 136.557C177.035 136.557 177.778 137.699 177.778 139.213V147.549H181.461V138.442C181.461 134.673 178.977 133.103 176.379 133.103C174.523 133.103 173.039 133.731 171.925 135.444C171.211 133.931 169.67 133.103 167.757 133.103C166.215 133.103 164.417 133.845 163.646 135.216V133.503H160.02V147.549H163.817ZM191.705 144.523C189.849 144.523 188.136 143.152 188.136 140.526C188.136 137.871 189.849 136.529 191.705 136.529C193.561 136.529 195.274 137.871 195.274 140.526C195.274 143.181 193.561 144.523 191.705 144.523ZM191.705 133.074C187.508 133.074 184.339 136.186 184.339 140.526C184.339 144.837 187.508 147.977 191.705 147.977C195.902 147.977 199.071 144.837 199.071 140.526C199.071 136.186 195.902 133.074 191.705 133.074ZM214.979 133.503H210.982L207.642 142.924L204.159 133.503H199.99L205.729 147.549H209.526L214.979 133.503ZM219.865 138.927C219.951 137.642 221.035 136.158 223.005 136.158C225.175 136.158 226.089 137.528 226.146 138.927H219.865ZM226.517 142.581C226.06 143.837 225.089 144.722 223.319 144.722C221.435 144.722 219.865 143.381 219.779 141.525H229.829C229.829 141.468 229.886 140.897 229.886 140.354C229.886 135.844 227.288 133.074 222.948 133.074C219.351 133.074 216.039 135.986 216.039 140.469C216.039 145.208 219.437 147.977 223.291 147.977C226.745 147.977 228.972 145.95 229.686 143.523L226.517 142.581ZM48.1906 185.549V165.308H44.2508V178.697L35.8288 165.308H30.9184V185.549H34.8582V171.189L44.0509 185.549H48.1906ZM58.7457 182.523C56.89 182.523 55.177 181.152 55.177 178.526C55.177 175.871 56.89 174.529 58.7457 174.529C60.6014 174.529 62.3143 175.871 62.3143 178.526C62.3143 181.181 60.6014 182.523 58.7457 182.523ZM58.7457 171.074C54.549 171.074 51.38 174.186 51.38 178.526C51.38 182.837 54.549 185.977 58.7457 185.977C62.9424 185.977 66.1113 182.837 66.1113 178.526C66.1113 174.186 62.9424 171.074 58.7457 171.074ZM82.721 164.879H78.9811V172.902C78.5814 172.159 77.4395 171.16 75.0128 171.16C71.0445 171.16 68.2752 174.386 68.2752 178.497C68.2752 182.751 71.1301 185.891 75.127 185.891C77.0112 185.891 78.4387 185.035 79.0668 183.922C79.0668 184.578 79.1524 185.263 79.2095 185.549H82.8352C82.7781 184.978 82.721 183.95 82.721 183.008V164.879ZM72.1008 178.497C72.1008 175.985 73.6425 174.557 75.5838 174.557C77.5251 174.557 79.0382 175.956 79.0382 178.469C79.0382 181.01 77.5251 182.494 75.5838 182.494C73.5854 182.494 72.1008 181.01 72.1008 178.497ZM89.6101 176.927C89.6957 175.642 90.7806 174.158 92.7504 174.158C94.9202 174.158 95.8337 175.528 95.8908 176.927H89.6101ZM96.262 180.581C95.8052 181.837 94.8345 182.722 93.0645 182.722C91.1803 182.722 89.6101 181.381 89.5244 179.525H99.5737C99.5737 179.468 99.6308 178.897 99.6308 178.354C99.6308 173.844 97.0328 171.074 92.6933 171.074C89.0962 171.074 85.7845 173.986 85.7845 178.469C85.7845 183.208 89.1818 185.977 93.0359 185.977C96.4904 185.977 98.7172 183.95 99.4309 181.523L96.262 180.581ZM113.87 174.529V168.733H116.982C118.952 168.733 120.151 169.847 120.151 171.645C120.151 173.387 118.952 174.529 116.982 174.529H113.87ZM117.468 177.926C121.465 177.926 124.12 175.3 124.12 171.617C124.12 167.963 121.465 165.308 117.468 165.308H109.902V185.549H113.842V177.926H117.468ZM135.185 171.446C134.899 171.417 134.614 171.389 134.3 171.389C133.101 171.389 131.159 171.731 130.303 173.587V171.503H126.62V185.549H130.417V179.125C130.417 176.099 132.101 175.157 134.043 175.157C134.385 175.157 134.757 175.186 135.185 175.271V171.446ZM144.03 182.523C142.175 182.523 140.462 181.152 140.462 178.526C140.462 175.871 142.175 174.529 144.03 174.529C145.886 174.529 147.599 175.871 147.599 178.526C147.599 181.181 145.886 182.523 144.03 182.523ZM144.03 171.074C139.834 171.074 136.665 174.186 136.665 178.526C136.665 182.837 139.834 185.977 144.03 185.977C148.227 185.977 151.396 182.837 151.396 178.526C151.396 174.186 148.227 171.074 144.03 171.074ZM167.304 171.503H163.307L159.967 180.924L156.484 171.503H152.316L158.054 185.549H161.851L167.304 171.503ZM173.519 185.549V171.503H169.722V185.549H173.519ZM169.266 166.906C169.266 168.162 170.322 169.219 171.607 169.219C172.92 169.219 173.948 168.162 173.948 166.906C173.948 165.593 172.92 164.537 171.607 164.537C170.322 164.537 169.266 165.593 169.266 166.906ZM190.979 164.879H187.239V172.902C186.839 172.159 185.697 171.16 183.27 171.16C179.302 171.16 176.533 174.386 176.533 178.497C176.533 182.751 179.388 185.891 183.385 185.891C185.269 185.891 186.696 185.035 187.324 183.922C187.324 184.578 187.41 185.263 187.467 185.549H191.093C191.036 184.978 190.979 183.95 190.979 183.008V164.879ZM180.358 178.497C180.358 175.985 181.9 174.557 183.841 174.557C185.783 174.557 187.296 175.956 187.296 178.469C187.296 181.01 185.783 182.494 183.841 182.494C181.843 182.494 180.358 181.01 180.358 178.497ZM197.868 176.927C197.953 175.642 199.038 174.158 201.008 174.158C203.178 174.158 204.091 175.528 204.149 176.927H197.868ZM204.52 180.581C204.063 181.837 203.092 182.722 201.322 182.722C199.438 182.722 197.868 181.381 197.782 179.525H207.831C207.831 179.468 207.888 178.897 207.888 178.354C207.888 173.844 205.29 171.074 200.951 171.074C197.354 171.074 194.042 173.986 194.042 178.469C194.042 183.208 197.439 185.977 201.294 185.977C204.748 185.977 206.975 183.95 207.689 181.523L204.52 180.581ZM219.521 171.446C219.236 171.417 218.951 171.389 218.636 171.389C217.437 171.389 215.496 171.731 214.64 173.587V171.503H210.957V185.549H214.754V179.125C214.754 176.099 216.438 175.157 218.38 175.157C218.722 175.157 219.093 175.186 219.521 175.271V171.446Z" fill="#181818"/>
  <rect x="28.5488" y="365.784" width="167.549" height="31.1373" rx="15.5686" fill="#18D0B5" fill-opacity="0.24"/>
  <path d="M46.3883 380.154V376.894H48.1387C49.2468 376.894 49.9212 377.521 49.9212 378.532C49.9212 379.512 49.2468 380.154 48.1387 380.154H46.3883ZM48.4117 382.065C50.6599 382.065 52.1534 380.588 52.1534 378.516C52.1534 376.461 50.6599 374.967 48.4117 374.967H44.1561V386.353H46.3722V382.065H48.4117ZM58.3776 378.42C58.217 378.404 58.0564 378.388 57.8798 378.388C57.2053 378.388 56.1133 378.58 55.6315 379.624V378.452H53.5599V386.353H55.6958V382.74C55.6958 381.037 56.6432 380.507 57.7352 380.507C57.9279 380.507 58.1367 380.524 58.3776 380.572V378.42ZM63.3532 384.651C62.3094 384.651 61.3458 383.88 61.3458 382.402C61.3458 380.909 62.3094 380.154 63.3532 380.154C64.397 380.154 65.3605 380.909 65.3605 382.402C65.3605 383.896 64.397 384.651 63.3532 384.651ZM63.3532 378.211C60.9925 378.211 59.21 379.961 59.21 382.402C59.21 384.827 60.9925 386.594 63.3532 386.594C65.7138 386.594 67.4964 384.827 67.4964 382.402C67.4964 379.961 65.7138 378.211 63.3532 378.211ZM71.3312 389.404V385.582C71.7166 386.112 72.5195 386.546 73.6115 386.546C75.8437 386.546 77.3372 384.779 77.3372 382.386C77.3372 380.042 76.0043 378.275 73.6918 378.275C72.5035 378.275 71.6202 378.805 71.2669 379.415V378.452H69.1953V389.404H71.3312ZM75.2335 382.402C75.2335 383.816 74.3663 384.635 73.2743 384.635C72.1823 384.635 71.2991 383.8 71.2991 382.402C71.2991 381.005 72.1823 380.186 73.2743 380.186C74.3663 380.186 75.2335 381.005 75.2335 382.402ZM82.721 384.651C81.6772 384.651 80.7137 383.88 80.7137 382.402C80.7137 380.909 81.6772 380.154 82.721 380.154C83.7648 380.154 84.7284 380.909 84.7284 382.402C84.7284 383.896 83.7648 384.651 82.721 384.651ZM82.721 378.211C80.3604 378.211 78.5778 379.961 78.5778 382.402C78.5778 384.827 80.3604 386.594 82.721 386.594C85.0817 386.594 86.8642 384.827 86.8642 382.402C86.8642 379.961 85.0817 378.211 82.721 378.211ZM88.0332 384.153C88.1296 385.052 88.9486 386.594 91.3253 386.594C93.3969 386.594 94.3925 385.277 94.3925 383.992C94.3925 382.836 93.6056 381.889 92.0479 381.567L90.9238 381.326C90.4902 381.246 90.2012 381.005 90.2012 380.62C90.2012 380.17 90.6508 379.833 91.2129 379.833C92.1122 379.833 92.4494 380.427 92.5136 380.893L94.2962 380.491C94.1998 379.64 93.445 378.211 91.1968 378.211C89.4946 378.211 88.242 379.383 88.242 380.797C88.242 381.905 88.9325 382.82 90.4581 383.157L91.5019 383.398C92.1122 383.527 92.353 383.816 92.353 384.169C92.353 384.586 92.0158 384.956 91.3092 384.956C90.3778 384.956 89.9121 384.378 89.8639 383.751L88.0332 384.153ZM95.6564 384.201C95.6564 385.438 96.6842 386.578 98.3703 386.578C99.5426 386.578 100.297 386.032 100.699 385.405C100.699 385.711 100.731 386.144 100.779 386.353H102.738C102.69 386.08 102.642 385.518 102.642 385.1V381.214C102.642 379.624 101.711 378.211 99.2054 378.211C97.0856 378.211 95.9455 379.576 95.817 380.813L97.7119 381.214C97.7762 380.524 98.29 379.929 99.2215 379.929C100.121 379.929 100.554 380.395 100.554 380.957C100.554 381.23 100.41 381.455 99.9602 381.519L98.017 381.808C96.7002 382.001 95.6564 382.788 95.6564 384.201ZM98.82 384.988C98.1295 384.988 97.7922 384.538 97.7922 384.073C97.7922 383.462 98.2258 383.157 98.7718 383.077L100.554 382.804V383.157C100.554 384.554 99.7193 384.988 98.82 384.988ZM106.899 386.353V374.726H104.763V386.353H106.899ZM114.573 381.503C114.621 380.78 115.231 379.945 116.339 379.945C117.56 379.945 118.074 380.716 118.106 381.503H114.573ZM118.315 383.559C118.058 384.265 117.512 384.763 116.516 384.763C115.456 384.763 114.573 384.008 114.525 382.964H120.177C120.177 382.932 120.209 382.611 120.209 382.306C120.209 379.769 118.748 378.211 116.307 378.211C114.284 378.211 112.421 379.849 112.421 382.37C112.421 385.036 114.332 386.594 116.5 386.594C118.443 386.594 119.696 385.454 120.097 384.089L118.315 383.559ZM120.755 386.353H123.163C123.436 385.919 124.496 384.362 124.785 383.928L126.439 386.353H128.945L126.086 382.322L128.848 378.452H126.423L124.866 380.797C124.593 380.363 123.565 378.886 123.292 378.452H120.755L123.565 382.386L120.755 386.353ZM131.51 381.503C131.558 380.78 132.168 379.945 133.276 379.945C134.497 379.945 135.011 380.716 135.043 381.503H131.51ZM135.252 383.559C134.995 384.265 134.449 384.763 133.453 384.763C132.393 384.763 131.51 384.008 131.462 382.964H137.114C137.114 382.932 137.147 382.611 137.147 382.306C137.147 379.769 135.685 378.211 133.244 378.211C131.221 378.211 129.358 379.849 129.358 382.37C129.358 385.036 131.269 386.594 133.437 386.594C135.38 386.594 136.633 385.454 137.034 384.089L135.252 383.559ZM142.534 380.186C143.594 380.186 144.092 380.861 144.284 381.519L146.195 380.877C145.858 379.544 144.638 378.211 142.486 378.211C140.189 378.211 138.391 379.961 138.391 382.402C138.391 384.827 140.221 386.594 142.55 386.594C144.654 386.594 145.89 385.245 146.243 383.928L144.365 383.302C144.188 383.912 143.642 384.635 142.55 384.635C141.458 384.635 140.527 383.832 140.527 382.402C140.527 380.973 141.442 380.186 142.534 380.186ZM152.967 386.353H155.006C154.974 386.08 154.926 385.534 154.926 384.924V378.452H152.79V383.045C152.79 383.96 152.244 384.602 151.297 384.602C150.301 384.602 149.851 383.896 149.851 383.013V378.452H147.715V383.446C147.715 385.165 148.807 386.562 150.718 386.562C151.554 386.562 152.469 386.24 152.902 385.502C152.902 385.823 152.935 386.192 152.967 386.353ZM159.889 376.091H157.962V377.199C157.962 377.906 157.577 378.452 156.742 378.452H156.34V380.347H157.77V384.024C157.77 385.55 158.733 386.465 160.275 386.465C160.901 386.465 161.286 386.353 161.479 386.273V384.506C161.367 384.538 161.078 384.57 160.821 384.57C160.21 384.57 159.889 384.346 159.889 383.655V380.347H161.479V378.452H159.889V376.091ZM164.804 381.503C164.852 380.78 165.462 379.945 166.57 379.945C167.791 379.945 168.305 380.716 168.337 381.503H164.804ZM168.545 383.559C168.288 384.265 167.742 384.763 166.747 384.763C165.687 384.763 164.804 384.008 164.756 382.964H170.408C170.408 382.932 170.44 382.611 170.44 382.306C170.44 379.769 168.979 378.211 166.538 378.211C164.515 378.211 162.652 379.849 162.652 382.37C162.652 385.036 164.563 386.594 166.731 386.594C168.674 386.594 169.926 385.454 170.328 384.089L168.545 383.559ZM179.81 374.726H177.707V379.239C177.482 378.821 176.839 378.259 175.474 378.259C173.242 378.259 171.685 380.074 171.685 382.386C171.685 384.779 173.29 386.546 175.539 386.546C176.599 386.546 177.401 386.064 177.755 385.438C177.755 385.807 177.803 386.192 177.835 386.353H179.875C179.842 386.032 179.81 385.454 179.81 384.924V374.726ZM173.836 382.386C173.836 380.973 174.704 380.17 175.796 380.17C176.888 380.17 177.739 380.957 177.739 382.37C177.739 383.8 176.888 384.635 175.796 384.635C174.671 384.635 173.836 383.8 173.836 382.386Z" fill="#18D0B5"/>
  <path d="M46.3883 380.154V376.894H48.1387C49.2468 376.894 49.9212 377.521 49.9212 378.532C49.9212 379.512 49.2468 380.154 48.1387 380.154H46.3883ZM48.4117 382.065C50.6599 382.065 52.1534 380.588 52.1534 378.516C52.1534 376.461 50.6599 374.967 48.4117 374.967H44.1561V386.353H46.3722V382.065H48.4117ZM58.3776 378.42C58.217 378.404 58.0564 378.388 57.8798 378.388C57.2053 378.388 56.1133 378.58 55.6315 379.624V378.452H53.5599V386.353H55.6958V382.74C55.6958 381.037 56.6432 380.507 57.7352 380.507C57.9279 380.507 58.1367 380.524 58.3776 380.572V378.42ZM63.3532 384.651C62.3094 384.651 61.3458 383.88 61.3458 382.402C61.3458 380.909 62.3094 380.154 63.3532 380.154C64.397 380.154 65.3605 380.909 65.3605 382.402C65.3605 383.896 64.397 384.651 63.3532 384.651ZM63.3532 378.211C60.9925 378.211 59.21 379.961 59.21 382.402C59.21 384.827 60.9925 386.594 63.3532 386.594C65.7138 386.594 67.4964 384.827 67.4964 382.402C67.4964 379.961 65.7138 378.211 63.3532 378.211ZM71.3312 389.404V385.582C71.7166 386.112 72.5195 386.546 73.6115 386.546C75.8437 386.546 77.3372 384.779 77.3372 382.386C77.3372 380.042 76.0043 378.275 73.6918 378.275C72.5035 378.275 71.6202 378.805 71.2669 379.415V378.452H69.1953V389.404H71.3312ZM75.2335 382.402C75.2335 383.816 74.3663 384.635 73.2743 384.635C72.1823 384.635 71.2991 383.8 71.2991 382.402C71.2991 381.005 72.1823 380.186 73.2743 380.186C74.3663 380.186 75.2335 381.005 75.2335 382.402ZM82.721 384.651C81.6772 384.651 80.7137 383.88 80.7137 382.402C80.7137 380.909 81.6772 380.154 82.721 380.154C83.7648 380.154 84.7284 380.909 84.7284 382.402C84.7284 383.896 83.7648 384.651 82.721 384.651ZM82.721 378.211C80.3604 378.211 78.5778 379.961 78.5778 382.402C78.5778 384.827 80.3604 386.594 82.721 386.594C85.0817 386.594 86.8642 384.827 86.8642 382.402C86.8642 379.961 85.0817 378.211 82.721 378.211ZM88.0332 384.153C88.1296 385.052 88.9486 386.594 91.3253 386.594C93.3969 386.594 94.3925 385.277 94.3925 383.992C94.3925 382.836 93.6056 381.889 92.0479 381.567L90.9238 381.326C90.4902 381.246 90.2012 381.005 90.2012 380.62C90.2012 380.17 90.6508 379.833 91.2129 379.833C92.1122 379.833 92.4494 380.427 92.5136 380.893L94.2962 380.491C94.1998 379.64 93.445 378.211 91.1968 378.211C89.4946 378.211 88.242 379.383 88.242 380.797C88.242 381.905 88.9325 382.82 90.4581 383.157L91.5019 383.398C92.1122 383.527 92.353 383.816 92.353 384.169C92.353 384.586 92.0158 384.956 91.3092 384.956C90.3778 384.956 89.9121 384.378 89.8639 383.751L88.0332 384.153ZM95.6564 384.201C95.6564 385.438 96.6842 386.578 98.3703 386.578C99.5426 386.578 100.297 386.032 100.699 385.405C100.699 385.711 100.731 386.144 100.779 386.353H102.738C102.69 386.08 102.642 385.518 102.642 385.1V381.214C102.642 379.624 101.711 378.211 99.2054 378.211C97.0856 378.211 95.9455 379.576 95.817 380.813L97.7119 381.214C97.7762 380.524 98.29 379.929 99.2215 379.929C100.121 379.929 100.554 380.395 100.554 380.957C100.554 381.23 100.41 381.455 99.9602 381.519L98.017 381.808C96.7002 382.001 95.6564 382.788 95.6564 384.201ZM98.82 384.988C98.1295 384.988 97.7922 384.538 97.7922 384.073C97.7922 383.462 98.2258 383.157 98.7718 383.077L100.554 382.804V383.157C100.554 384.554 99.7193 384.988 98.82 384.988ZM106.899 386.353V374.726H104.763V386.353H106.899ZM114.573 381.503C114.621 380.78 115.231 379.945 116.339 379.945C117.56 379.945 118.074 380.716 118.106 381.503H114.573ZM118.315 383.559C118.058 384.265 117.512 384.763 116.516 384.763C115.456 384.763 114.573 384.008 114.525 382.964H120.177C120.177 382.932 120.209 382.611 120.209 382.306C120.209 379.769 118.748 378.211 116.307 378.211C114.284 378.211 112.421 379.849 112.421 382.37C112.421 385.036 114.332 386.594 116.5 386.594C118.443 386.594 119.696 385.454 120.097 384.089L118.315 383.559ZM120.755 386.353H123.163C123.436 385.919 124.496 384.362 124.785 383.928L126.439 386.353H128.945L126.086 382.322L128.848 378.452H126.423L124.866 380.797C124.593 380.363 123.565 378.886 123.292 378.452H120.755L123.565 382.386L120.755 386.353ZM131.51 381.503C131.558 380.78 132.168 379.945 133.276 379.945C134.497 379.945 135.011 380.716 135.043 381.503H131.51ZM135.252 383.559C134.995 384.265 134.449 384.763 133.453 384.763C132.393 384.763 131.51 384.008 131.462 382.964H137.114C137.114 382.932 137.147 382.611 137.147 382.306C137.147 379.769 135.685 378.211 133.244 378.211C131.221 378.211 129.358 379.849 129.358 382.37C129.358 385.036 131.269 386.594 133.437 386.594C135.38 386.594 136.633 385.454 137.034 384.089L135.252 383.559ZM142.534 380.186C143.594 380.186 144.092 380.861 144.284 381.519L146.195 380.877C145.858 379.544 144.638 378.211 142.486 378.211C140.189 378.211 138.391 379.961 138.391 382.402C138.391 384.827 140.221 386.594 142.55 386.594C144.654 386.594 145.89 385.245 146.243 383.928L144.365 383.302C144.188 383.912 143.642 384.635 142.55 384.635C141.458 384.635 140.527 383.832 140.527 382.402C140.527 380.973 141.442 380.186 142.534 380.186ZM152.967 386.353H155.006C154.974 386.08 154.926 385.534 154.926 384.924V378.452H152.79V383.045C152.79 383.96 152.244 384.602 151.297 384.602C150.301 384.602 149.851 383.896 149.851 383.013V378.452H147.715V383.446C147.715 385.165 148.807 386.562 150.718 386.562C151.554 386.562 152.469 386.24 152.902 385.502C152.902 385.823 152.935 386.192 152.967 386.353ZM159.889 376.091H157.962V377.199C157.962 377.906 157.577 378.452 156.742 378.452H156.34V380.347H157.77V384.024C157.77 385.55 158.733 386.465 160.275 386.465C160.901 386.465 161.286 386.353 161.479 386.273V384.506C161.367 384.538 161.078 384.57 160.821 384.57C160.21 384.57 159.889 384.346 159.889 383.655V380.347H161.479V378.452H159.889V376.091ZM164.804 381.503C164.852 380.78 165.462 379.945 166.57 379.945C167.791 379.945 168.305 380.716 168.337 381.503H164.804ZM168.545 383.559C168.288 384.265 167.742 384.763 166.747 384.763C165.687 384.763 164.804 384.008 164.756 382.964H170.408C170.408 382.932 170.44 382.611 170.44 382.306C170.44 379.769 168.979 378.211 166.538 378.211C164.515 378.211 162.652 379.849 162.652 382.37C162.652 385.036 164.563 386.594 166.731 386.594C168.674 386.594 169.926 385.454 170.328 384.089L168.545 383.559ZM179.81 374.726H177.707V379.239C177.482 378.821 176.839 378.259 175.474 378.259C173.242 378.259 171.685 380.074 171.685 382.386C171.685 384.779 173.29 386.546 175.539 386.546C176.599 386.546 177.401 386.064 177.755 385.438C177.755 385.807 177.803 386.192 177.835 386.353H179.875C179.842 386.032 179.81 385.454 179.81 384.924V374.726ZM173.836 382.386C173.836 380.973 174.704 380.17 175.796 380.17C176.888 380.17 177.739 380.957 177.739 382.37C177.739 383.8 176.888 384.635 175.796 384.635C174.671 384.635 173.836 383.8 173.836 382.386Z" fill="black" fill-opacity="0.2"/>
  <rect opacity="0.1" x="28.5488" y="215.902" width="279.245" height="14.2745" rx="7.13726" fill="#181818"/>
  <rect opacity="0.1" x="28.5488" y="244.451" width="279.245" height="14.2745" rx="7.13726" fill="#181818"/>
  <g filter="url(#filter0_b_8183_18861)">
    <rect x="140.068" y="389.412" width="405.931" height="114.818" rx="19.0292" fill="white" fill-opacity="0.8"/>
  </g>
  <path d="M262.376 425.514C262.034 423.802 260.621 421.575 256.939 421.575C254.07 421.575 251.651 423.63 251.651 426.328C251.651 428.619 253.214 430.181 255.633 430.674L257.752 431.102C258.93 431.337 259.593 432.023 259.593 432.9C259.593 433.971 258.716 434.763 257.131 434.763C254.99 434.763 253.941 433.414 253.813 431.915L251.073 432.643C251.308 434.806 253.085 437.396 257.11 437.396C260.642 437.396 262.591 435.041 262.591 432.708C262.591 430.567 261.113 428.768 258.352 428.233L256.232 427.826C255.119 427.612 254.584 426.949 254.584 426.114C254.584 425.108 255.526 424.187 256.96 424.187C258.887 424.187 259.572 425.493 259.722 426.328L262.376 425.514ZM268.404 423.395H265.835V424.872C265.835 425.814 265.321 426.542 264.208 426.542H263.673V429.068H265.578V433.971C265.578 436.005 266.863 437.225 268.918 437.225C269.753 437.225 270.267 437.075 270.524 436.968V434.613C270.374 434.656 269.989 434.699 269.646 434.699C268.832 434.699 268.404 434.399 268.404 433.478V429.068H270.524V426.542H268.404V423.395ZM272.192 434.206C272.192 435.855 273.562 437.375 275.81 437.375C277.372 437.375 278.379 436.647 278.914 435.812C278.914 436.219 278.957 436.797 279.021 437.075H281.633C281.569 436.711 281.504 435.962 281.504 435.405V430.224C281.504 428.105 280.263 426.221 276.923 426.221C274.097 426.221 272.577 428.041 272.406 429.689L274.932 430.224C275.018 429.304 275.703 428.512 276.944 428.512C278.143 428.512 278.721 429.132 278.721 429.882C278.721 430.246 278.529 430.545 277.929 430.631L275.339 431.016C273.583 431.273 272.192 432.322 272.192 434.206ZM276.409 435.255C275.489 435.255 275.039 434.656 275.039 434.035C275.039 433.221 275.617 432.815 276.345 432.708L278.721 432.344V432.815C278.721 434.677 277.608 435.255 276.409 435.255ZM294.544 426.542H290.819L287.179 430.46V421.575H284.332V437.075H287.179V434.292L288.357 433.05L291.14 437.075H294.63L290.327 430.974L294.544 426.542ZM297.912 430.61C297.976 429.646 298.789 428.533 300.266 428.533C301.894 428.533 302.579 429.561 302.621 430.61H297.912ZM302.9 433.35C302.557 434.292 301.829 434.956 300.502 434.956C299.089 434.956 297.912 433.949 297.847 432.558H305.383C305.383 432.515 305.426 432.087 305.426 431.68C305.426 428.297 303.478 426.221 300.224 426.221C297.526 426.221 295.043 428.404 295.043 431.766C295.043 435.319 297.59 437.396 300.481 437.396C303.071 437.396 304.741 435.876 305.276 434.056L302.9 433.35ZM316.053 441.228L322.669 426.542H319.629L317.038 432.708L314.234 426.542H311.044L315.518 435.748L313.035 441.228H316.053ZM328.811 434.806C327.419 434.806 326.135 433.778 326.135 431.808C326.135 429.817 327.419 428.811 328.811 428.811C330.202 428.811 331.487 429.817 331.487 431.808C331.487 433.799 330.202 434.806 328.811 434.806ZM328.811 426.221C325.664 426.221 323.287 428.554 323.287 431.808C323.287 435.041 325.664 437.396 328.811 437.396C331.958 437.396 334.334 435.041 334.334 431.808C334.334 428.554 331.958 426.221 328.811 426.221ZM343.493 437.075H346.212C346.169 436.711 346.105 435.983 346.105 435.17V426.542H343.257V432.665C343.257 433.885 342.529 434.741 341.266 434.741C339.939 434.741 339.339 433.799 339.339 432.622V426.542H336.492V433.2C336.492 435.491 337.948 437.353 340.496 437.353C341.609 437.353 342.829 436.925 343.407 435.94C343.407 436.368 343.45 436.861 343.493 437.075ZM355.44 426.499C355.226 426.478 355.012 426.456 354.777 426.456C353.878 426.456 352.422 426.713 351.78 428.105V426.542H349.018V437.075H351.865V432.258C351.865 429.989 353.128 429.282 354.584 429.282C354.841 429.282 355.119 429.304 355.44 429.368V426.499ZM365.298 437.075V421.896H362.301V437.075H365.298ZM375.717 437.396C379.977 437.396 382.161 434.57 382.739 432.237L379.977 431.402C379.571 432.815 378.308 434.506 375.717 434.506C373.277 434.506 371.007 432.729 371.007 429.496C371.007 426.05 373.405 424.422 375.674 424.422C378.308 424.422 379.485 426.028 379.849 427.484L382.632 426.606C382.033 424.144 379.87 421.575 375.674 421.575C371.607 421.575 367.946 424.658 367.946 429.496C367.946 434.335 371.478 437.396 375.717 437.396ZM388.003 428.811V424.465H390.336C391.813 424.465 392.713 425.3 392.713 426.649C392.713 427.955 391.813 428.811 390.336 428.811H388.003ZM390.7 431.359C393.697 431.359 395.688 429.389 395.688 426.628C395.688 423.887 393.697 421.896 390.7 421.896H385.027V437.075H387.981V431.359H390.7ZM401.584 434.206C401.584 435.855 402.954 437.375 405.202 437.375C406.765 437.375 407.771 436.647 408.306 435.812C408.306 436.219 408.349 436.797 408.413 437.075H411.025C410.961 436.711 410.897 435.962 410.897 435.405V430.224C410.897 428.105 409.655 426.221 406.315 426.221C403.489 426.221 401.969 428.041 401.798 429.689L404.324 430.224C404.41 429.304 405.095 428.512 406.337 428.512C407.536 428.512 408.114 429.132 408.114 429.882C408.114 430.246 407.921 430.545 407.321 430.631L404.731 431.016C402.976 431.273 401.584 432.322 401.584 434.206ZM405.801 435.255C404.881 435.255 404.431 434.656 404.431 434.035C404.431 433.221 405.009 432.815 405.737 432.708L408.114 432.344V432.815C408.114 434.677 407 435.255 405.801 435.255ZM416.572 431.016C416.572 429.796 417.3 428.833 418.541 428.833C419.912 428.833 420.49 429.753 420.49 430.931V437.075H423.337V430.438C423.337 428.126 422.138 426.264 419.526 426.264C418.392 426.264 417.128 426.756 416.486 427.848V426.542H413.724V437.075H416.572V431.016ZM436.334 421.575H433.529V427.591C433.229 427.034 432.373 426.285 430.553 426.285C427.577 426.285 425.501 428.704 425.501 431.787C425.501 434.977 427.642 437.332 430.639 437.332C432.052 437.332 433.122 436.69 433.593 435.855C433.593 436.347 433.658 436.861 433.7 437.075H436.419C436.376 436.647 436.334 435.876 436.334 435.17V421.575ZM428.37 431.787C428.37 429.903 429.526 428.833 430.981 428.833C432.437 428.833 433.572 429.882 433.572 431.766C433.572 433.671 432.437 434.784 430.981 434.784C429.483 434.784 428.37 433.671 428.37 431.787ZM446.58 430.61C446.644 429.646 447.458 428.533 448.935 428.533C450.562 428.533 451.247 429.561 451.29 430.61H446.58ZM451.568 433.35C451.226 434.292 450.498 434.956 449.17 434.956C447.757 434.956 446.58 433.949 446.516 432.558H454.052C454.052 432.515 454.094 432.087 454.094 431.68C454.094 428.297 452.146 426.221 448.892 426.221C446.195 426.221 443.711 428.404 443.711 431.766C443.711 435.319 446.259 437.396 449.149 437.396C451.739 437.396 453.409 435.876 453.945 434.056L451.568 433.35ZM455.774 434.206C455.774 435.855 457.145 437.375 459.393 437.375C460.955 437.375 461.962 436.647 462.497 435.812C462.497 436.219 462.54 436.797 462.604 437.075H465.216C465.151 436.711 465.087 435.962 465.087 435.405V430.224C465.087 428.105 463.845 426.221 460.506 426.221C457.68 426.221 456.16 428.041 455.989 429.689L458.515 430.224C458.6 429.304 459.285 428.512 460.527 428.512C461.726 428.512 462.304 429.132 462.304 429.882C462.304 430.246 462.111 430.545 461.512 430.631L458.922 431.016C457.166 431.273 455.774 432.322 455.774 434.206ZM459.992 435.255C459.071 435.255 458.622 434.656 458.622 434.035C458.622 433.221 459.2 432.815 459.928 432.708L462.304 432.344V432.815C462.304 434.677 461.191 435.255 459.992 435.255ZM474.338 426.499C474.123 426.478 473.909 426.456 473.674 426.456C472.775 426.456 471.319 426.713 470.677 428.105V426.542H467.915V437.075H470.762V432.258C470.762 429.989 472.025 429.282 473.481 429.282C473.738 429.282 474.016 429.304 474.338 429.368V426.499ZM479.062 431.016C479.062 429.796 479.79 428.833 481.032 428.833C482.402 428.833 482.98 429.753 482.98 430.931V437.075H485.827V430.438C485.827 428.126 484.629 426.264 482.017 426.264C480.882 426.264 479.619 426.756 478.977 427.848V426.542H476.215V437.075H479.062V431.016ZM261.863 454.542H258.865L256.361 461.607L253.749 454.542H250.623L254.926 465.075H257.774L261.863 454.542ZM268.16 462.806C266.769 462.806 265.484 461.778 265.484 459.808C265.484 457.817 266.769 456.811 268.16 456.811C269.552 456.811 270.836 457.817 270.836 459.808C270.836 461.799 269.552 462.806 268.16 462.806ZM268.16 454.221C265.013 454.221 262.637 456.554 262.637 459.808C262.637 463.041 265.013 465.396 268.16 465.396C271.307 465.396 273.684 463.041 273.684 459.808C273.684 456.554 271.307 454.221 268.16 454.221ZM279.506 451.395H276.937V452.872C276.937 453.814 276.423 454.542 275.31 454.542H274.775V457.068H276.68V461.971C276.68 464.005 277.964 465.225 280.02 465.225C280.855 465.225 281.368 465.075 281.625 464.968V462.613C281.475 462.656 281.09 462.699 280.748 462.699C279.934 462.699 279.506 462.399 279.506 461.478V457.068H281.625V454.542H279.506V451.395ZM286.761 465.075V454.542H283.914V465.075H286.761ZM283.571 451.095C283.571 452.037 284.364 452.829 285.327 452.829C286.312 452.829 287.082 452.037 287.082 451.095C287.082 450.11 286.312 449.318 285.327 449.318C284.364 449.318 283.571 450.11 283.571 451.095ZM292.511 459.016C292.511 457.796 293.239 456.833 294.48 456.833C295.85 456.833 296.428 457.753 296.428 458.931V465.075H299.276V458.438C299.276 456.126 298.077 454.264 295.465 454.264C294.33 454.264 293.067 454.756 292.425 455.848V454.542H289.663V465.075H292.511V459.016ZM301.461 465.653C301.761 467.665 303.688 469.464 306.578 469.464C310.538 469.464 312.101 466.83 312.101 463.94V454.542H309.361V455.784C308.997 455.077 308.034 454.349 306.364 454.349C303.474 454.349 301.461 456.704 301.461 459.487C301.461 462.442 303.559 464.604 306.364 464.604C307.884 464.604 308.869 463.94 309.297 463.255V464.026C309.297 466.06 308.29 466.959 306.492 466.959C305.143 466.959 304.223 466.124 304.03 464.968L301.461 465.653ZM306.856 462.163C305.379 462.163 304.33 461.136 304.33 459.487C304.33 457.86 305.443 456.833 306.856 456.833C308.226 456.833 309.34 457.86 309.34 459.487C309.34 461.114 308.312 462.163 306.856 462.163ZM326.505 454.499C326.291 454.478 326.077 454.456 325.842 454.456C324.943 454.456 323.487 454.713 322.844 456.105V454.542H320.083V465.075H322.93V460.258C322.93 457.989 324.193 457.282 325.649 457.282C325.906 457.282 326.184 457.304 326.505 457.368V454.499ZM330.505 458.61C330.569 457.646 331.383 456.533 332.86 456.533C334.487 456.533 335.172 457.561 335.215 458.61H330.505ZM335.493 461.35C335.151 462.292 334.423 462.956 333.096 462.956C331.683 462.956 330.505 461.949 330.441 460.558H337.977C337.977 460.515 338.02 460.087 338.02 459.68C338.02 456.297 336.071 454.221 332.817 454.221C330.12 454.221 327.637 456.404 327.637 459.766C327.637 463.319 330.184 465.396 333.074 465.396C335.665 465.396 337.335 463.876 337.87 462.056L335.493 461.35ZM346.318 454.542L344.027 461.307L342.079 454.542H339.081L342.443 465.075H345.333L347.752 457.882L350.214 465.075H353.061L356.358 454.542H353.532L351.584 461.328L349.315 454.542H346.318ZM357.408 462.206C357.408 463.855 358.778 465.375 361.026 465.375C362.589 465.375 363.595 464.647 364.13 463.812C364.13 464.219 364.173 464.797 364.237 465.075H366.849C366.785 464.711 366.721 463.962 366.721 463.405V458.224C366.721 456.105 365.479 454.221 362.139 454.221C359.313 454.221 357.793 456.041 357.622 457.689L360.148 458.224C360.234 457.304 360.919 456.512 362.161 456.512C363.359 456.512 363.937 457.132 363.937 457.882C363.937 458.246 363.745 458.545 363.145 458.631L360.555 459.016C358.799 459.273 357.408 460.322 357.408 462.206ZM361.625 463.255C360.705 463.255 360.255 462.656 360.255 462.035C360.255 461.221 360.833 460.815 361.561 460.708L363.937 460.344V460.815C363.937 462.677 362.824 463.255 361.625 463.255ZM375.971 454.499C375.757 454.478 375.543 454.456 375.307 454.456C374.408 454.456 372.952 454.713 372.31 456.105V454.542H369.548V465.075H372.396V460.258C372.396 457.989 373.659 457.282 375.115 457.282C375.371 457.282 375.65 457.304 375.971 457.368V454.499ZM387.913 449.575H385.109V455.591C384.809 455.034 383.953 454.285 382.133 454.285C379.157 454.285 377.081 456.704 377.081 459.787C377.081 462.977 379.222 465.332 382.219 465.332C383.632 465.332 384.702 464.69 385.173 463.855C385.173 464.347 385.237 464.861 385.28 465.075H387.999C387.956 464.647 387.913 463.876 387.913 463.17V449.575ZM379.949 459.787C379.949 457.903 381.105 456.833 382.561 456.833C384.017 456.833 385.152 457.882 385.152 459.766C385.152 461.671 384.017 462.784 382.561 462.784C381.063 462.784 379.949 461.671 379.949 459.787ZM390.125 462.142C390.253 463.341 391.345 465.396 394.514 465.396C397.275 465.396 398.603 463.641 398.603 461.928C398.603 460.386 397.554 459.123 395.477 458.695L393.979 458.374C393.401 458.267 393.015 457.946 393.015 457.432C393.015 456.833 393.615 456.383 394.364 456.383C395.563 456.383 396.012 457.175 396.098 457.796L398.474 457.261C398.346 456.126 397.34 454.221 394.342 454.221C392.073 454.221 390.403 455.784 390.403 457.668C390.403 459.145 391.324 460.365 393.358 460.815L394.749 461.136C395.563 461.307 395.884 461.692 395.884 462.163C395.884 462.72 395.434 463.212 394.492 463.212C393.251 463.212 392.63 462.442 392.566 461.607L390.125 462.142Z" fill="#181818"/>
  <g filter="url(#filter1_d_8183_18861)">
    <circle cx="197.929" cy="444.561" r="33.4509" fill="white"/>
  </g>
  <path d="M207.501 435.519C205.459 435.519 203.233 436.566 200.881 438.627C199.765 439.603 198.801 440.649 198.078 441.486C198.078 441.486 198.078 441.486 198.084 441.493V441.486C198.084 441.486 199.226 442.729 200.488 444.061C201.166 443.256 202.143 442.159 203.265 441.169C205.358 439.337 206.721 438.95 207.501 438.95C210.437 438.95 212.821 441.277 212.821 444.137C212.821 446.978 210.431 449.305 207.501 449.324C207.368 449.324 207.196 449.305 206.981 449.261C207.837 449.628 208.756 449.895 209.632 449.895C215.009 449.895 216.061 446.388 216.131 446.134C216.29 445.494 216.372 444.822 216.372 444.131C216.372 439.387 212.39 435.519 207.501 435.519Z" fill="url(#paint0_linear_8183_18861)"/>
  <path d="M188.719 452.767C190.761 452.767 192.986 451.721 195.339 449.66C196.455 448.683 197.419 447.637 198.142 446.8C198.142 446.8 198.142 446.8 198.135 446.794V446.8C198.135 446.8 196.994 445.557 195.732 444.226C195.054 445.031 194.077 446.128 192.955 447.117C190.862 448.95 189.499 449.337 188.719 449.337C185.783 449.33 183.399 447.003 183.399 444.143C183.399 441.302 185.789 438.975 188.719 438.956C188.852 438.956 189.023 438.975 189.239 439.02C188.383 438.652 187.463 438.385 186.588 438.385C181.211 438.385 180.165 441.892 180.089 442.139C179.93 442.786 179.848 443.452 179.848 444.143C179.848 448.899 183.83 452.767 188.719 452.767Z" fill="url(#paint1_linear_8183_18861)"/>
  <path d="M209.619 449.819C206.867 449.749 204.007 447.58 203.424 447.041C201.915 445.646 198.434 441.873 198.161 441.575C195.612 438.715 192.156 435.519 188.719 435.519H188.713H188.706C184.534 435.538 181.027 438.367 180.089 442.14C180.159 441.892 181.535 438.316 186.582 438.443C189.334 438.512 192.207 440.713 192.796 441.252C194.306 442.647 197.787 446.42 198.06 446.718C200.609 449.571 204.064 452.767 207.501 452.767H207.508H207.514C211.686 452.748 215.199 449.92 216.132 446.147C216.055 446.394 214.673 449.939 209.619 449.819Z" fill="#29ABE2"/>
  <g filter="url(#filter2_b_8183_18861)">
    <rect x="250" width="245.789" height="158.804" rx="10.7059" fill="#3B00B9" fill-opacity="0.4"/>
    <path opacity="0.5" d="M292.041 109.306C281.301 113.114 265.19 115.969 265.19 115.969V126.701H479.994V21.7401L453.144 34.1136L426.293 46.4871C415.553 51.4365 410.183 53.7209 399.443 58.8606C388.703 64.0004 383.332 67.0462 372.592 72.1859C361.852 77.3257 356.482 79.61 345.742 84.5594L318.891 96.9329C308.151 101.882 302.781 105.499 292.041 109.306Z" fill="url(#paint2_linear_8183_18861)"/>
    <path d="M265.19 115.717C265.19 115.717 281.301 112.869 292.041 109.072C302.781 105.275 308.151 101.668 318.891 96.7316C329.632 91.7954 335.002 89.3273 345.742 84.3912C356.482 79.455 361.852 77.1768 372.592 72.0508C383.332 66.9248 388.703 63.8872 399.443 58.7612C410.183 53.6352 415.553 51.357 426.293 46.4208C437.033 41.4847 442.403 39.0166 453.144 34.0805C463.884 29.1443 479.994 21.7401 479.994 21.7401" stroke="white"/>
    <g filter="url(#filter3_b_8183_18861)">
      <mask id="path-29-inside-1_8183_18861" fill="white">
        <path fill-rule="evenodd" clip-rule="evenodd" d="M478.269 23.4661C478.727 23.9238 479.348 24.1809 479.995 24.1809L479.998 24.1809C480.645 24.1802 481.265 23.9225 481.723 23.4644C482.18 23.0063 482.437 22.3853 482.436 21.7381C482.436 21.0908 482.178 20.4702 481.72 20.0128C481.262 19.5554 480.641 19.2986 479.994 19.299C479.347 19.2993 478.726 19.5567 478.269 20.0145C477.811 20.4724 477.554 21.0932 477.554 21.7405C477.554 22.3878 477.812 23.0085 478.269 23.4661ZM452.331 35.9788C451.899 35.9788 451.485 35.8074 451.18 35.5023C450.875 35.1972 450.704 34.7834 450.704 34.3519C450.703 33.9204 450.875 33.5065 451.18 33.2012C451.485 32.896 451.898 32.7244 452.33 32.7242C452.762 32.7239 453.175 32.8951 453.481 33.2001C453.786 33.505 453.958 33.9187 453.958 34.3502C453.958 34.7818 453.787 35.1957 453.483 35.5011C453.178 35.8065 452.764 35.9783 452.332 35.9788H452.331ZM424.33 47.7071C424.635 48.0122 425.049 48.1836 425.48 48.1836H425.482C425.913 48.1832 426.327 48.0114 426.632 47.706C426.937 47.4006 427.108 46.9866 427.107 46.5551C427.107 46.1236 426.935 45.7099 426.63 45.4049C426.325 45.1 425.911 44.9288 425.479 44.929C425.048 44.9292 424.634 45.1008 424.329 45.4061C424.024 45.7113 423.853 46.1252 423.853 46.5567C423.853 46.9882 424.024 47.4021 424.33 47.7071ZM399.037 60.3884C398.606 60.3884 398.192 60.217 397.887 59.9119C397.582 59.6068 397.41 59.193 397.41 58.7615C397.41 58.3299 397.581 57.916 397.886 57.6108C398.191 57.3056 398.605 57.134 399.037 57.1338C399.468 57.1335 399.882 57.3047 400.187 57.6097C400.493 57.9146 400.664 58.3283 400.665 58.7598C400.665 59.1913 400.494 59.6053 400.189 59.9107C399.884 60.2161 399.47 60.3879 399.039 60.3884H399.037ZM371.037 73.3371C371.342 73.6422 371.756 73.8136 372.188 73.8136H372.189C372.621 73.8131 373.035 73.6413 373.339 73.3359C373.644 73.0305 373.815 72.6166 373.815 72.185C373.815 71.7535 373.643 71.3398 373.338 71.0349C373.032 70.7299 372.618 70.5588 372.187 70.559C371.755 70.5592 371.342 70.7308 371.037 71.036C370.732 71.3413 370.56 71.7552 370.56 72.1867C370.56 72.6182 370.732 73.032 371.037 73.3371ZM345.337 86.0183C344.905 86.0183 344.492 85.8469 344.186 85.5418C343.881 85.2367 343.71 84.8229 343.71 84.3914C343.71 83.9599 343.881 83.546 344.186 83.2408C344.491 82.9355 344.905 82.7639 345.336 82.7637C345.768 82.7635 346.182 82.9347 346.487 83.2396C346.792 83.5445 346.964 83.9583 346.964 84.3898C346.965 84.8213 346.794 85.2353 346.489 85.5407C346.184 85.8461 345.77 86.0179 345.339 86.0183H345.337ZM316.929 98.1534C317.234 98.4585 317.648 98.6299 318.079 98.6299H318.081C318.513 98.6294 318.926 98.4576 319.231 98.1522C319.536 97.8468 319.707 97.4328 319.707 97.0013C319.706 96.5698 319.535 96.1561 319.229 95.8512C318.924 95.5462 318.51 95.375 318.079 95.3753C317.647 95.3755 317.233 95.5471 316.928 95.8523C316.623 96.1576 316.452 96.5714 316.452 97.003C316.452 97.4345 316.624 97.8483 316.929 98.1534ZM291.229 110.835C290.797 110.835 290.383 110.663 290.078 110.358C289.773 110.053 289.602 109.639 289.601 109.208C289.601 108.776 289.773 108.362 290.078 108.057C290.383 107.752 290.796 107.58 291.228 107.58C291.659 107.58 292.073 107.751 292.379 108.056C292.684 108.361 292.856 108.775 292.856 109.206C292.856 109.638 292.685 110.052 292.38 110.357C292.076 110.662 291.662 110.834 291.23 110.835H291.229ZM265.192 117.344C264.76 117.344 264.346 117.172 264.041 116.867C263.736 116.562 263.565 116.148 263.564 115.717C263.564 115.285 263.736 114.871 264.041 114.566C264.346 114.261 264.759 114.089 265.191 114.089C265.622 114.089 266.036 114.26 266.342 114.565C266.647 114.87 266.819 115.284 266.819 115.715C266.819 116.147 266.648 116.561 266.343 116.866C266.039 117.171 265.625 117.343 265.193 117.344H265.192Z"/>
      </mask>
      <path fill-rule="evenodd" clip-rule="evenodd" d="M478.269 23.4661C478.727 23.9238 479.348 24.1809 479.995 24.1809L479.998 24.1809C480.645 24.1802 481.265 23.9225 481.723 23.4644C482.18 23.0063 482.437 22.3853 482.436 21.7381C482.436 21.0908 482.178 20.4702 481.72 20.0128C481.262 19.5554 480.641 19.2986 479.994 19.299C479.347 19.2993 478.726 19.5567 478.269 20.0145C477.811 20.4724 477.554 21.0932 477.554 21.7405C477.554 22.3878 477.812 23.0085 478.269 23.4661ZM452.331 35.9788C451.899 35.9788 451.485 35.8074 451.18 35.5023C450.875 35.1972 450.704 34.7834 450.704 34.3519C450.703 33.9204 450.875 33.5065 451.18 33.2012C451.485 32.896 451.898 32.7244 452.33 32.7242C452.762 32.7239 453.175 32.8951 453.481 33.2001C453.786 33.505 453.958 33.9187 453.958 34.3502C453.958 34.7818 453.787 35.1957 453.483 35.5011C453.178 35.8065 452.764 35.9783 452.332 35.9788H452.331ZM424.33 47.7071C424.635 48.0122 425.049 48.1836 425.48 48.1836H425.482C425.913 48.1832 426.327 48.0114 426.632 47.706C426.937 47.4006 427.108 46.9866 427.107 46.5551C427.107 46.1236 426.935 45.7099 426.63 45.4049C426.325 45.1 425.911 44.9288 425.479 44.929C425.048 44.9292 424.634 45.1008 424.329 45.4061C424.024 45.7113 423.853 46.1252 423.853 46.5567C423.853 46.9882 424.024 47.4021 424.33 47.7071ZM399.037 60.3884C398.606 60.3884 398.192 60.217 397.887 59.9119C397.582 59.6068 397.41 59.193 397.41 58.7615C397.41 58.3299 397.581 57.916 397.886 57.6108C398.191 57.3056 398.605 57.134 399.037 57.1338C399.468 57.1335 399.882 57.3047 400.187 57.6097C400.493 57.9146 400.664 58.3283 400.665 58.7598C400.665 59.1913 400.494 59.6053 400.189 59.9107C399.884 60.2161 399.47 60.3879 399.039 60.3884H399.037ZM371.037 73.3371C371.342 73.6422 371.756 73.8136 372.188 73.8136H372.189C372.621 73.8131 373.035 73.6413 373.339 73.3359C373.644 73.0305 373.815 72.6166 373.815 72.185C373.815 71.7535 373.643 71.3398 373.338 71.0349C373.032 70.7299 372.618 70.5588 372.187 70.559C371.755 70.5592 371.342 70.7308 371.037 71.036C370.732 71.3413 370.56 71.7552 370.56 72.1867C370.56 72.6182 370.732 73.032 371.037 73.3371ZM345.337 86.0183C344.905 86.0183 344.492 85.8469 344.186 85.5418C343.881 85.2367 343.71 84.8229 343.71 84.3914C343.71 83.9599 343.881 83.546 344.186 83.2408C344.491 82.9355 344.905 82.7639 345.336 82.7637C345.768 82.7635 346.182 82.9347 346.487 83.2396C346.792 83.5445 346.964 83.9583 346.964 84.3898C346.965 84.8213 346.794 85.2353 346.489 85.5407C346.184 85.8461 345.77 86.0179 345.339 86.0183H345.337ZM316.929 98.1534C317.234 98.4585 317.648 98.6299 318.079 98.6299H318.081C318.513 98.6294 318.926 98.4576 319.231 98.1522C319.536 97.8468 319.707 97.4328 319.707 97.0013C319.706 96.5698 319.535 96.1561 319.229 95.8512C318.924 95.5462 318.51 95.375 318.079 95.3753C317.647 95.3755 317.233 95.5471 316.928 95.8523C316.623 96.1576 316.452 96.5714 316.452 97.003C316.452 97.4345 316.624 97.8483 316.929 98.1534ZM291.229 110.835C290.797 110.835 290.383 110.663 290.078 110.358C289.773 110.053 289.602 109.639 289.601 109.208C289.601 108.776 289.773 108.362 290.078 108.057C290.383 107.752 290.796 107.58 291.228 107.58C291.659 107.58 292.073 107.751 292.379 108.056C292.684 108.361 292.856 108.775 292.856 109.206C292.856 109.638 292.685 110.052 292.38 110.357C292.076 110.662 291.662 110.834 291.23 110.835H291.229ZM265.192 117.344C264.76 117.344 264.346 117.172 264.041 116.867C263.736 116.562 263.565 116.148 263.564 115.717C263.564 115.285 263.736 114.871 264.041 114.566C264.346 114.261 264.759 114.089 265.191 114.089C265.622 114.089 266.036 114.26 266.342 114.565C266.647 114.87 266.819 115.284 266.819 115.715C266.819 116.147 266.648 116.561 266.343 116.866C266.039 117.171 265.625 117.343 265.193 117.344H265.192Z" fill="#3B00B9"/>
      <path d="M479.995 24.1809V24.6809L479.995 24.6809L479.995 24.1809ZM478.269 23.4661L477.916 23.8197L478.269 23.4661ZM479.998 24.1809L479.998 24.6809L479.998 24.6809L479.998 24.1809ZM481.72 20.0128L481.367 20.3666V20.3666L481.72 20.0128ZM479.994 19.299L479.994 18.799L479.994 19.299ZM478.269 20.0145L478.622 20.368L478.269 20.0145ZM477.554 21.7405L478.054 21.7404L477.554 21.7405ZM451.18 35.5023L451.534 35.1487L451.534 35.1487L451.18 35.5023ZM451.18 33.2012L451.533 33.5546V33.5546L451.18 33.2012ZM453.481 33.2001L453.127 33.5538V33.5539L453.481 33.2001ZM453.958 34.3502L454.458 34.3499V34.3499L453.958 34.3502ZM453.483 35.5011L453.129 35.1479L453.129 35.1479L453.483 35.5011ZM452.332 35.9788V36.4788H452.333L452.332 35.9788ZM424.33 47.7071L424.683 47.3535L424.683 47.3535L424.33 47.7071ZM425.482 48.1836V48.6836H425.482L425.482 48.1836ZM426.632 47.706L426.278 47.3527L426.278 47.3528L426.632 47.706ZM427.107 46.5551L427.607 46.5547V46.5547L427.107 46.5551ZM426.63 45.4049L426.277 45.7587V45.7587L426.63 45.4049ZM424.329 45.4061L424.683 45.7595V45.7595L424.329 45.4061ZM423.853 46.5567L424.353 46.5566L423.853 46.5567ZM397.887 59.9119L398.24 59.5583L398.24 59.5583L397.887 59.9119ZM397.41 58.7615L396.91 58.7616L397.41 58.7615ZM397.886 57.6108L398.24 57.9642V57.9642L397.886 57.6108ZM400.187 57.6097L399.834 57.9634V57.9634L400.187 57.6097ZM400.665 58.7598L401.165 58.7595V58.7594L400.665 58.7598ZM400.189 59.9107L399.835 59.5575L399.835 59.5575L400.189 59.9107ZM399.039 60.3884V60.8884H399.039L399.039 60.3884ZM371.037 73.3371L371.391 72.9835V72.9835L371.037 73.3371ZM372.189 73.8136V74.3136H372.19L372.189 73.8136ZM373.339 73.3359L372.986 72.9827L373.339 73.3359ZM373.815 72.185L373.315 72.1854L373.815 72.185ZM373.338 71.0349L373.691 70.6811L373.691 70.6811L373.338 71.0349ZM371.037 71.036L370.683 70.6826V70.6826L371.037 71.036ZM370.56 72.1867L370.06 72.1868L370.56 72.1867ZM343.71 84.3914L344.21 84.3913L343.71 84.3914ZM344.186 83.2408L343.832 82.8873V82.8873L344.186 83.2408ZM346.487 83.2396L346.84 82.8858V82.8858L346.487 83.2396ZM346.964 84.3898L347.464 84.3894L346.964 84.3898ZM345.339 86.0183V86.5183H345.339L345.339 86.0183ZM316.929 98.1534L316.575 98.507L316.575 98.507L316.929 98.1534ZM318.081 98.6299V99.1299H318.082L318.081 98.6299ZM319.231 98.1522L319.585 98.5055H319.585L319.231 98.1522ZM319.707 97.0013L320.207 97.001L319.707 97.0013ZM319.229 95.8512L318.876 96.2049L318.876 96.2049L319.229 95.8512ZM318.079 95.3753L318.079 95.8753L318.079 95.3753ZM316.928 95.8523L316.575 95.4989V95.4989L316.928 95.8523ZM316.452 97.003L316.952 97.0028L316.452 97.003ZM289.601 109.208L290.101 109.208L289.601 109.208ZM292.379 108.056L292.025 108.41H292.025L292.379 108.056ZM292.856 109.206L292.356 109.206L292.856 109.206ZM291.23 110.835V111.335H291.231L291.23 110.835ZM264.041 116.867L264.395 116.514L264.041 116.867ZM263.564 115.717L263.064 115.717L263.564 115.717ZM264.041 114.566L264.394 114.92L264.041 114.566ZM266.342 114.565L265.988 114.919H265.988L266.342 114.565ZM266.819 115.715L267.319 115.715L266.819 115.715ZM265.193 117.344V117.844H265.194L265.193 117.344ZM479.995 23.6809C479.48 23.6809 478.987 23.4764 478.623 23.1125L477.916 23.8197C478.467 24.3711 479.215 24.6809 479.995 24.6809V23.6809ZM479.997 23.6809L479.995 23.6809L479.995 24.6809L479.998 24.6809L479.997 23.6809ZM481.369 23.1112C481.005 23.4754 480.512 23.6803 479.997 23.6809L479.998 24.6809C480.778 24.6801 481.526 24.3696 482.077 23.8176L481.369 23.1112ZM481.936 21.7384C481.937 22.2531 481.732 22.7469 481.369 23.1112L482.077 23.8176C482.628 23.2657 482.937 22.5176 482.936 21.7377L481.936 21.7384ZM481.367 20.3666C481.731 20.7303 481.936 21.2238 481.936 21.7384L482.936 21.7377C482.936 20.9578 482.625 20.2101 482.073 19.659L481.367 20.3666ZM479.994 19.799C480.509 19.7987 481.003 20.0029 481.367 20.3666L482.073 19.659C481.522 19.1079 480.774 18.7986 479.994 18.799L479.994 19.799ZM478.622 20.368C478.986 20.0039 479.48 19.7992 479.994 19.799L479.994 18.799C479.214 18.7993 478.466 19.1095 477.915 19.6611L478.622 20.368ZM478.054 21.7404C478.054 21.2257 478.258 20.732 478.622 20.368L477.915 19.6611C477.364 20.2128 477.054 20.9608 477.054 21.7406L478.054 21.7404ZM478.623 23.1125C478.259 22.7486 478.054 22.2551 478.054 21.7404L477.054 21.7406C477.054 22.5205 477.364 23.2684 477.916 23.8197L478.623 23.1125ZM450.827 35.8559C451.226 36.2547 451.767 36.4788 452.331 36.4788V35.4788C452.032 35.4788 451.745 35.36 451.534 35.1487L450.827 35.8559ZM450.204 34.352C450.204 34.9161 450.428 35.4571 450.827 35.8559L451.534 35.1487C451.322 34.9373 451.204 34.6507 451.204 34.3517L450.204 34.352ZM450.826 32.8478C450.427 33.2468 450.203 33.7879 450.204 34.352L451.204 34.3517C451.203 34.0528 451.322 33.7661 451.533 33.5546L450.826 32.8478ZM452.33 32.2242C451.766 32.2244 451.225 32.4488 450.826 32.8478L451.533 33.5546C451.745 33.3432 452.031 33.2243 452.33 33.2242L452.33 32.2242ZM453.834 32.8463C453.435 32.4477 452.894 32.2239 452.33 32.2242L452.33 33.2242C452.629 33.224 452.916 33.3426 453.127 33.5538L453.834 32.8463ZM454.458 34.3499C454.458 33.7858 454.233 33.2449 453.834 32.8463L453.127 33.5539C453.339 33.7651 453.458 34.0517 453.458 34.3506L454.458 34.3499ZM453.836 35.8544C454.235 35.4552 454.459 34.914 454.458 34.3499L453.458 34.3506C453.458 34.6495 453.34 34.9363 453.129 35.1479L453.836 35.8544ZM452.333 36.4788C452.897 36.4782 453.438 36.2536 453.836 35.8544L453.129 35.1479C452.917 35.3594 452.631 35.4785 452.332 35.4788L452.333 36.4788ZM452.331 36.4788H452.332V35.4788H452.331V36.4788ZM425.48 47.6836C425.181 47.6836 424.895 47.5649 424.683 47.3535L423.976 48.0607C424.375 48.4596 424.916 48.6836 425.48 48.6836V47.6836ZM425.482 47.6836H425.48V48.6836H425.482V47.6836ZM426.278 47.3528C426.067 47.5643 425.78 47.6833 425.481 47.6836L425.482 48.6836C426.046 48.6831 426.587 48.4585 426.986 48.0592L426.278 47.3528ZM426.607 46.5555C426.608 46.8544 426.489 47.1412 426.278 47.3527L426.986 48.0592C427.384 47.66 427.608 47.1188 427.607 46.5547L426.607 46.5555ZM426.277 45.7587C426.488 45.9699 426.607 46.2565 426.607 46.5555L427.607 46.5547C427.607 45.9906 427.383 45.4498 426.983 45.0512L426.277 45.7587ZM425.48 45.429C425.779 45.4289 426.065 45.5475 426.277 45.7587L426.983 45.0512C426.584 44.6525 426.043 44.4287 425.479 44.429L425.48 45.429ZM424.683 45.7595C424.894 45.548 425.181 45.4292 425.48 45.429L425.479 44.429C424.915 44.4293 424.374 44.6536 423.975 45.0527L424.683 45.7595ZM424.353 46.5566C424.353 46.2577 424.471 45.971 424.683 45.7595L423.975 45.0527C423.577 45.4517 423.353 45.9928 423.353 46.5569L424.353 46.5566ZM424.683 47.3535C424.472 47.1422 424.353 46.8555 424.353 46.5566L423.353 46.5569C423.353 47.121 423.577 47.6619 423.976 48.0607L424.683 47.3535ZM397.533 60.2655C397.932 60.6643 398.473 60.8884 399.037 60.8884V59.8884C398.738 59.8884 398.452 59.7696 398.24 59.5583L397.533 60.2655ZM396.91 58.7616C396.91 59.3257 397.134 59.8666 397.533 60.2655L398.24 59.5583C398.029 59.3469 397.91 59.0603 397.91 58.7613L396.91 58.7616ZM397.533 57.2574C397.134 57.6564 396.91 58.1975 396.91 58.7616L397.91 58.7613C397.91 58.4624 398.029 58.1757 398.24 57.9642L397.533 57.2574ZM399.036 56.6338C398.472 56.634 397.931 56.8584 397.533 57.2574L398.24 57.9642C398.451 57.7528 398.738 57.6339 399.037 57.6338L399.036 56.6338ZM400.541 57.2559C400.141 56.8573 399.6 56.6335 399.036 56.6338L399.037 57.6338C399.336 57.6336 399.622 57.7522 399.834 57.9634L400.541 57.2559ZM401.165 58.7594C401.164 58.1954 400.94 57.6545 400.541 57.2559L399.834 57.9634C400.045 58.1747 400.164 58.4613 400.165 58.7602L401.165 58.7594ZM400.543 60.264C400.941 59.8647 401.165 59.3236 401.165 58.7595L400.165 58.7602C400.165 59.0591 400.046 59.3459 399.835 59.5575L400.543 60.264ZM399.039 60.8884C399.604 60.8878 400.144 60.6632 400.543 60.264L399.835 59.5575C399.624 59.769 399.337 59.8881 399.038 59.8884L399.039 60.8884ZM399.037 60.8884H399.039V59.8884H399.037V60.8884ZM372.188 73.3136C371.889 73.3136 371.602 73.1948 371.391 72.9835L370.684 73.6907C371.083 74.0895 371.624 74.3136 372.188 74.3136V73.3136ZM372.189 73.3136H372.188V74.3136H372.189V73.3136ZM372.986 72.9827C372.774 73.1943 372.488 73.3133 372.189 73.3136L372.19 74.3136C372.754 74.313 373.295 74.0884 373.693 73.6892L372.986 72.9827ZM373.315 72.1854C373.315 72.4844 373.197 72.7711 372.986 72.9827L373.693 73.6892C374.092 73.29 374.315 72.7488 374.315 72.1847L373.315 72.1854ZM372.984 71.3886C373.196 71.5999 373.315 71.8865 373.315 72.1854L374.315 72.1847C374.315 71.6206 374.09 71.0797 373.691 70.6811L372.984 71.3886ZM372.187 71.059C372.486 71.0588 372.773 71.1774 372.984 71.3886L373.691 70.6811C373.292 70.2825 372.751 70.0587 372.187 70.059L372.187 71.059ZM371.39 71.3895C371.602 71.178 371.888 71.0591 372.187 71.059L372.187 70.059C371.623 70.0593 371.082 70.2836 370.683 70.6826L371.39 71.3895ZM371.06 72.1866C371.06 71.8876 371.179 71.6009 371.39 71.3894L370.683 70.6826C370.284 71.0816 370.06 71.6227 370.06 72.1868L371.06 72.1866ZM371.391 72.9835C371.179 72.7721 371.06 72.4855 371.06 72.1866L370.06 72.1868C370.061 72.7509 370.285 73.2919 370.684 73.6907L371.391 72.9835ZM343.833 85.8954C344.232 86.2943 344.773 86.5183 345.337 86.5183V85.5183C345.038 85.5183 344.751 85.3996 344.54 85.1882L343.833 85.8954ZM343.21 84.3915C343.21 84.9556 343.434 85.4966 343.833 85.8954L344.54 85.1882C344.329 84.9769 344.21 84.6902 344.21 84.3913L343.21 84.3915ZM343.832 82.8873C343.433 83.2864 343.21 83.8274 343.21 84.3915L344.21 84.3913C344.21 84.0924 344.328 83.8056 344.54 83.5942L343.832 82.8873ZM345.336 82.2637C344.772 82.264 344.231 82.4883 343.832 82.8873L344.54 83.5942C344.751 83.3827 345.038 83.2638 345.336 83.2637L345.336 82.2637ZM346.84 82.8858C346.441 82.4872 345.9 82.2634 345.336 82.2637L345.336 83.2637C345.635 83.2635 345.922 83.3821 346.134 83.5934L346.84 82.8858ZM347.464 84.3894C347.464 83.8253 347.239 83.2845 346.84 82.8858L346.134 83.5934C346.345 83.8046 346.464 84.0912 346.464 84.3901L347.464 84.3894ZM346.843 85.8939C347.241 85.4947 347.465 84.9535 347.464 84.3894L346.464 84.3901C346.465 84.6891 346.346 84.9759 346.135 85.1874L346.843 85.8939ZM345.339 86.5183C345.903 86.5177 346.444 86.2931 346.843 85.8939L346.135 85.1874C345.924 85.399 345.637 85.518 345.338 85.5183L345.339 86.5183ZM345.337 86.5183H345.339V85.5183H345.337V86.5183ZM318.079 98.1299C317.781 98.1299 317.494 98.0111 317.282 97.7998L316.575 98.507C316.974 98.9058 317.515 99.1299 318.079 99.1299V98.1299ZM318.081 98.1299H318.079V99.1299H318.081V98.1299ZM318.877 97.799C318.666 98.0105 318.38 98.1296 318.081 98.1299L318.082 99.1299C318.646 99.1293 319.186 98.9047 319.585 98.5055L318.877 97.799ZM319.207 97.0017C319.207 97.3006 319.088 97.5874 318.877 97.799L319.585 98.5055C319.984 98.1062 320.207 97.5651 320.207 97.001L319.207 97.0017ZM318.876 96.2049C319.088 96.4162 319.207 96.7028 319.207 97.0017L320.207 97.001C320.206 96.4369 319.982 95.896 319.583 95.4974L318.876 96.2049ZM318.079 95.8753C318.378 95.8751 318.665 95.9937 318.876 96.2049L319.583 95.4974C319.184 95.0987 318.643 94.875 318.078 94.8753L318.079 95.8753ZM317.282 96.2057C317.493 95.9943 317.78 95.8754 318.079 95.8753L318.078 94.8753C317.514 94.8755 316.973 95.0999 316.575 95.4989L317.282 96.2057ZM316.952 97.0028C316.952 96.7039 317.071 96.4172 317.282 96.2057L316.575 95.4989C316.176 95.8979 315.952 96.439 315.952 97.0031L316.952 97.0028ZM317.282 97.7998C317.071 97.5884 316.952 97.3018 316.952 97.0028L315.952 97.0031C315.952 97.5672 316.177 98.1081 316.575 98.507L317.282 97.7998ZM289.725 110.712C290.124 111.111 290.665 111.335 291.229 111.335V110.335C290.93 110.335 290.643 110.216 290.432 110.005L289.725 110.712ZM289.101 109.208C289.102 109.772 289.326 110.313 289.725 110.712L290.432 110.005C290.22 109.793 290.102 109.506 290.101 109.208L289.101 109.208ZM289.724 107.704C289.325 108.103 289.101 108.644 289.101 109.208L290.101 109.208C290.101 108.909 290.22 108.622 290.431 108.41L289.724 107.704ZM291.228 107.08C290.664 107.08 290.123 107.305 289.724 107.704L290.431 108.41C290.643 108.199 290.929 108.08 291.228 108.08L291.228 107.08ZM292.732 107.702C292.333 107.303 291.792 107.08 291.228 107.08L291.228 108.08C291.527 108.08 291.814 108.198 292.025 108.41L292.732 107.702ZM293.356 109.206C293.356 108.642 293.131 108.101 292.732 107.702L292.025 108.41C292.237 108.621 292.356 108.908 292.356 109.206L293.356 109.206ZM292.734 110.71C293.133 110.311 293.357 109.77 293.356 109.206L292.356 109.206C292.356 109.505 292.238 109.792 292.027 110.004L292.734 110.71ZM291.231 111.335C291.795 111.334 292.336 111.109 292.734 110.71L292.027 110.004C291.815 110.215 291.529 110.334 291.23 110.335L291.231 111.335ZM291.229 111.335H291.23V110.335H291.229V111.335ZM263.688 117.221C264.087 117.62 264.628 117.844 265.192 117.844V116.844C264.893 116.844 264.606 116.725 264.395 116.514L263.688 117.221ZM263.064 115.717C263.065 116.281 263.289 116.822 263.688 117.221L264.395 116.514C264.183 116.302 264.065 116.016 264.064 115.717L263.064 115.717ZM263.687 114.213C263.288 114.612 263.064 115.153 263.064 115.717L264.064 115.717C264.064 115.418 264.183 115.131 264.394 114.92L263.687 114.213ZM265.191 113.589C264.627 113.589 264.086 113.814 263.687 114.213L264.394 114.92C264.606 114.708 264.892 114.589 265.191 114.589L265.191 113.589ZM266.695 114.211C266.296 113.813 265.755 113.589 265.191 113.589L265.191 114.589C265.49 114.589 265.777 114.708 265.988 114.919L266.695 114.211ZM267.319 115.715C267.319 115.151 267.094 114.61 266.695 114.211L265.988 114.919C266.2 115.13 266.319 115.417 266.319 115.716L267.319 115.715ZM266.697 117.219C267.096 116.82 267.319 116.279 267.319 115.715L266.319 115.716C266.319 116.014 266.201 116.301 265.99 116.513L266.697 117.219ZM265.194 117.844C265.758 117.843 266.299 117.619 266.697 117.219L265.99 116.513C265.778 116.724 265.492 116.843 265.193 116.844L265.194 117.844ZM265.192 117.844H265.193V116.844H265.192V117.844Z" fill="white" mask="url(#path-29-inside-1_8183_18861)"/>
    </g>
    <path d="M265.827 137.112C265.827 138.3 266.043 139.14 266.511 139.632C266.811 139.944 267.195 140.136 267.747 140.136C268.299 140.136 268.683 139.944 268.983 139.632C269.451 139.14 269.667 138.3 269.667 137.112C269.667 135.924 269.451 135.084 268.983 134.592C268.683 134.28 268.299 134.088 267.747 134.088C267.195 134.088 266.811 134.28 266.511 134.592C266.043 135.084 265.827 135.924 265.827 137.112ZM264.663 137.112C264.663 136.044 264.843 135.06 265.359 134.292C265.863 133.536 266.643 133.044 267.747 133.044C268.851 133.044 269.631 133.536 270.135 134.292C270.651 135.06 270.831 136.044 270.831 137.112C270.831 138.18 270.651 139.164 270.135 139.932C269.631 140.688 268.851 141.18 267.747 141.18C266.643 141.18 265.863 140.688 265.359 139.932C264.843 139.164 264.663 138.18 264.663 137.112ZM271.93 140.232C271.93 139.764 272.29 139.392 272.758 139.392C273.226 139.392 273.598 139.764 273.598 140.232C273.598 140.7 273.226 141.06 272.758 141.06C272.29 141.06 271.93 140.7 271.93 140.232ZM274.678 138.888L275.806 138.552C275.878 139.512 276.586 140.16 277.558 140.16C278.482 140.16 279.226 139.548 279.226 138.588C279.226 137.52 278.446 136.98 277.546 136.98C276.994 136.98 276.466 137.196 276.13 137.544C275.722 137.388 275.374 137.232 274.978 137.088L275.986 133.224H280.09V134.304H276.766L276.19 136.536C276.538 136.152 277.162 135.96 277.774 135.96C279.298 135.96 280.414 136.932 280.414 138.54C280.414 140.004 279.286 141.192 277.558 141.192C275.902 141.192 274.786 140.112 274.678 138.888Z" fill="white"/>
    <path d="M302.745 141H301.593V135.516H299.709V134.688C300.789 134.664 301.533 134.064 301.713 133.224H302.745V141Z" fill="white"/>
    <path d="M324.014 136.02L322.838 135.876C322.826 135.768 322.826 135.66 322.826 135.564C322.826 134.232 323.81 133.044 325.514 133.044C327.182 133.044 328.142 134.136 328.142 135.432C328.142 136.452 327.566 137.268 326.678 137.832L325.142 138.816C324.698 139.104 324.302 139.428 324.194 139.908H328.19V141H322.742C322.766 139.728 323.27 138.756 324.59 137.904L325.886 137.064C326.618 136.596 326.954 136.044 326.954 135.444C326.954 134.736 326.474 134.076 325.49 134.076C324.47 134.076 323.99 134.784 323.99 135.672C323.99 135.78 324.002 135.9 324.014 136.02Z" fill="white"/>
    <path d="M349.845 137.388L349.269 136.416L351.561 134.304H347.841V133.224H353.121V134.28L350.901 136.332C352.041 136.332 353.301 137.1 353.301 138.696C353.301 140.004 352.293 141.192 350.481 141.192C348.681 141.192 347.661 140.016 347.589 138.744L348.741 138.48C348.789 139.512 349.533 140.16 350.469 140.16C351.537 140.16 352.113 139.5 352.113 138.72C352.113 137.7 351.297 137.268 350.529 137.268C350.289 137.268 350.049 137.316 349.845 137.388Z" fill="white"/>
    <path d="M372.857 139.248V137.892L376.193 133.224H377.813V138.156H379.145V139.248H377.813V141H376.673V139.248H372.857ZM376.673 138.156V134.352L373.937 138.156H376.673Z" fill="white"/>
    <path d="M398.556 138.888L399.684 138.552C399.756 139.512 400.464 140.16 401.436 140.16C402.36 140.16 403.104 139.548 403.104 138.588C403.104 137.52 402.324 136.98 401.424 136.98C400.872 136.98 400.344 137.196 400.008 137.544C399.6 137.388 399.252 137.232 398.856 137.088L399.864 133.224H403.968V134.304H400.644L400.068 136.536C400.416 136.152 401.04 135.96 401.652 135.96C403.176 135.96 404.292 136.932 404.292 138.54C404.292 140.004 403.164 141.192 401.436 141.192C399.78 141.192 398.664 140.112 398.556 138.888Z" fill="white"/>
    <path d="M429.761 133.476L429.401 134.436C429.113 134.268 428.597 134.1 428.009 134.1C426.389 134.1 425.369 135.288 425.273 136.884C425.585 136.368 426.293 135.876 427.325 135.876C428.861 135.876 429.989 136.836 429.989 138.528C429.989 140.196 428.633 141.18 427.109 141.18C425.621 141.18 424.073 140.148 424.073 137.58C424.073 134.688 425.813 133.044 428.081 133.044C428.789 133.044 429.401 133.224 429.761 133.476ZM425.441 138.528C425.441 139.548 426.269 140.16 427.121 140.16C428.033 140.16 428.801 139.56 428.801 138.528C428.801 137.484 428.021 136.884 427.121 136.884C426.221 136.884 425.441 137.484 425.441 138.528Z" fill="white"/>
    <path d="M455.395 133.224V134.352C454.675 134.928 452.479 136.884 452.107 141H450.895C451.243 136.476 454.099 134.304 454.099 134.304H449.719V133.224H455.395Z" fill="white"/>
    <path d="M477.499 136.536C478.327 136.524 478.939 136.02 478.939 135.264C478.939 134.568 478.375 134.016 477.499 134.016C476.623 134.016 476.059 134.568 476.059 135.264C476.059 136.02 476.671 136.524 477.499 136.536ZM477.499 140.16C478.543 140.16 479.131 139.584 479.131 138.852C479.131 138.108 478.531 137.52 477.499 137.52C476.467 137.52 475.867 138.108 475.867 138.852C475.867 139.584 476.455 140.16 477.499 140.16ZM477.499 141.18C475.711 141.18 474.679 140.196 474.679 138.948C474.679 138 475.327 137.304 476.155 137.028C475.447 136.764 474.883 136.068 474.883 135.204C474.883 133.932 476.011 133.044 477.499 133.044C478.987 133.044 480.115 133.932 480.115 135.204C480.115 136.044 479.563 136.764 478.843 137.028C479.671 137.292 480.319 138 480.319 138.948C480.319 140.196 479.287 141.18 477.499 141.18Z" fill="white"/>
    <rect x="250.892" y="0.892157" width="244.005" height="157.02" rx="9.81373" stroke="url(#paint3_linear_8183_18861)" stroke-opacity="0.2" stroke-width="1.78431"/>
  </g>
  <defs>
    <filter id="filter0_b_8183_18861" x="111.02" y="360.364" width="464.028" height="172.914" filterUnits="userSpaceOnUse" color-interpolation-filters="sRGB">
      <feFlood flood-opacity="0" result="BackgroundImageFix"/>
      <feGaussianBlur in="BackgroundImageFix" stdDeviation="14.5241"/>
      <feComposite in2="SourceAlpha" operator="in" result="effect1_backgroundBlur_8183_18861"/>
      <feBlend mode="normal" in="SourceGraphic" in2="effect1_backgroundBlur_8183_18861" result="shape"/>
    </filter>
    <filter id="filter1_d_8183_18861" x="151.821" y="398.453" width="92.2156" height="92.2161" filterUnits="userSpaceOnUse" color-interpolation-filters="sRGB">
      <feFlood flood-opacity="0" result="BackgroundImageFix"/>
      <feColorMatrix in="SourceAlpha" type="matrix" values="0 0 0 0 0 0 0 0 0 0 0 0 0 0 0 0 0 0 127 0" result="hardAlpha"/>
      <feOffset/>
      <feGaussianBlur stdDeviation="6.32855"/>
      <feComposite in2="hardAlpha" operator="out"/>
      <feColorMatrix type="matrix" values="0 0 0 0 0.235294 0 0 0 0 0.00392157 0 0 0 0 0.729412 0 0 0 0.16 0"/>
      <feBlend mode="normal" in2="BackgroundImageFix" result="effect1_dropShadow_8183_18861"/>
      <feBlend mode="normal" in="SourceGraphic" in2="effect1_dropShadow_8183_18861" result="shape"/>
    </filter>
    <filter id="filter2_b_8183_18861" x="214.314" y="-35.6863" width="317.162" height="230.177" filterUnits="userSpaceOnUse" color-interpolation-filters="sRGB">
      <feFlood flood-opacity="0" result="BackgroundImageFix"/>
      <feGaussianBlur in="BackgroundImageFix" stdDeviation="17.8431"/>
      <feComposite in2="SourceAlpha" operator="in" result="effect1_backgroundBlur_8183_18861"/>
      <feBlend mode="normal" in="SourceGraphic" in2="effect1_backgroundBlur_8183_18861" result="shape"/>
    </filter>
    <filter id="filter3_b_8183_18861" x="228.245" y="-16.021" width="289.512" height="168.685" filterUnits="userSpaceOnUse" color-interpolation-filters="sRGB">
      <feFlood flood-opacity="0" result="BackgroundImageFix"/>
      <feGaussianBlur in="BackgroundImageFix" stdDeviation="17.66"/>
      <feComposite in2="SourceAlpha" operator="in" result="effect1_backgroundBlur_8183_18861"/>
      <feBlend mode="normal" in="SourceGraphic" in2="effect1_backgroundBlur_8183_18861" result="shape"/>
    </filter>
    <linearGradient id="paint0_linear_8183_18861" x1="202.883" y1="436.657" x2="214.944" y2="449.147" gradientUnits="userSpaceOnUse">
      <stop offset="0.21" stop-color="#F15A24"/>
      <stop offset="0.6841" stop-color="#FBB03B"/>
    </linearGradient>
    <linearGradient id="paint1_linear_8183_18861" x1="193.337" y1="451.63" x2="181.275" y2="439.14" gradientUnits="userSpaceOnUse">
      <stop offset="0.21" stop-color="#ED1E79"/>
      <stop offset="0.8929" stop-color="#522785"/>
    </linearGradient>
    <linearGradient id="paint2_linear_8183_18861" x1="372.592" y1="21.7401" x2="389.272" y2="116.937" gradientUnits="userSpaceOnUse">
      <stop stop-color="white"/>
      <stop offset="0.864583" stop-color="white" stop-opacity="0"/>
    </linearGradient>
    <linearGradient id="paint3_linear_8183_18861" x1="469.471" y1="158.804" x2="231.265" y2="-97.6912" gradientUnits="userSpaceOnUse">
      <stop stop-color="white"/>
      <stop offset="1" stop-color="white" stop-opacity="0"/>
    </linearGradient>
  </defs>
</svg>
