<svg viewBox="0 0 121 121" fill="none" xmlns="http://www.w3.org/2000/svg">
    <path d="M57.9333 74.8606H58.8183H57.9333ZM33.6333 99.1606V100.046V99.1606ZM9.33334 74.8606H8.44834H9.33334ZM57.0483 68.8606C57.0483 81.7924 46.5651 92.2756 33.6333 92.2756V94.0456C47.5426 94.0456 58.8183 82.7699 58.8183 68.8606H57.0483ZM33.6333 92.2756C20.7016 92.2756 10.2183 81.7924 10.2183 68.8606H8.44834C8.44834 82.7699 19.7241 94.0456 33.6333 94.0456V92.2756ZM10.2183 68.8606C10.2183 55.9289 20.7016 45.4456 33.6333 45.4456V43.6756C19.7241 43.6756 8.44834 54.9513 8.44834 68.8606H10.2183ZM33.6333 45.4456C46.5651 45.4456 57.0483 55.9289 57.0483 68.8606H58.8183C58.8183 54.9513 47.5426 43.6756 33.6333 43.6756V45.4456ZM57.0483 74.8606C57.0483 87.7924 46.5651 98.2756 33.6333 98.2756V100.046C47.5426 100.046 58.8183 88.7699 58.8183 74.8606H57.0483ZM33.6333 98.2756C20.7016 98.2756 10.2183 87.7924 10.2183 74.8606H8.44834C8.44834 88.7699 19.724 100.046 33.6333 100.046V98.2756ZM58.8183 74.8606V68.8606H57.0483V74.8606H58.8183ZM10.2183 74.8606L10.2183 68.8606H8.44834L8.44834 74.8606H10.2183Z" fill="currentColor" fill-opacity="0.5"/>
    <path d="M50.3335 52.0606L95.7998 25.8106C99.8653 23.4633 105.064 24.8563 107.411 28.9218V28.9218C109.758 32.9873 108.365 38.1858 104.3 40.533L102.787 41.4063C102.653 41.4839 102.486 41.4789 102.356 41.3934L100.702 40.3009L68.2258 59.0509V59.0509C68.3079 60.4187 67.6096 61.7153 66.4224 62.3994L58.3333 67.0606" stroke="currentColor" stroke-opacity="0.5" stroke-width="1.77"/>
    <path d="M100.333 40.0607V40.0607C99.2078 38.3726 96.9662 37.8465 95.2072 38.8576L93.9386 39.5868" stroke="currentColor" stroke-opacity="0.5" stroke-width="1.77"/>
    <path d="M81.1803 43.4888L84.6803 49.5509M88.9745 38.9888L92.4745 45.0509" stroke="currentColor" stroke-opacity="0.5" stroke-width="1.77"/>
    <path d="M79.2162 48.0868L69.7756 53.5939C67.8827 54.6982 67.2307 57.12 68.3135 59.0253L68.3336 59.0607" stroke="currentColor" stroke-opacity="0.5" stroke-width="1.77"/>
</svg>
