<svg width="120" height="120" viewBox="0 0 120 120" fill="none"
  xmlns="http://www.w3.org/2000/svg">
  <path d="M9.88906 106.794C9.47172 107.049 9.33963 107.593 9.59404 108.011C9.84845 108.428 10.393 108.56 10.8104 108.306L9.88906 106.794ZM32.2497 94.2L32.1656 93.319L31.9629 93.3383L31.7891 93.4443L32.2497 94.2ZM68.3997 90.75L68.4838 91.631L68.5764 91.6221L68.6651 91.5942L68.3997 90.75ZM108 78.3L108.265 79.1442L108.272 79.142L108.28 79.1396L108 78.3ZM111 72.45L111.848 72.1986H111.848L111 72.45ZM105.15 69.45L104.987 68.5801L105.15 69.45ZM8.39588 75.8188C7.93682 75.9866 7.7007 76.4947 7.86849 76.9538C8.03629 77.4129 8.54446 77.649 9.00353 77.4812L8.39588 75.8188ZM30.4497 68.7V67.815H30.293L30.1459 67.8688L30.4497 68.7ZM73.3497 76.65L73.5068 77.5209L73.508 77.5207L73.3497 76.65ZM72.2997 12.6V11.715V12.6ZM96.5997 36.9H95.7147H96.5997ZM72.2997 61.2V60.315V61.2ZM66.2997 26.1L67.088 25.6977L66.2997 24.153L65.5114 25.6977L66.2997 26.1ZM69.7171 32.7964L68.9288 33.1986L69.1335 33.5997L69.5781 33.6704L69.7171 32.7964ZM77.1418 33.9772L77.7679 34.6026L78.9934 33.3755L77.2808 33.1032L77.1418 33.9772ZM71.8292 39.2966L71.203 38.6712L70.8848 38.9898L70.955 39.4345L71.8292 39.2966ZM73.0005 46.7228L72.5992 47.5116L74.1448 48.2979L73.8747 46.5849L73.0005 46.7228ZM66.2997 43.314L66.701 42.5252L66.2997 42.321L65.8984 42.5252L66.2997 43.314ZM59.599 46.7228L58.7248 46.5849L58.4546 48.2979L60.0002 47.5116L59.599 46.7228ZM60.7703 39.2966L61.6445 39.4345L61.7146 38.9898L61.3965 38.6712L60.7703 39.2966ZM55.4577 33.9772L55.3187 33.1032L53.606 33.3755L54.8315 34.6026L55.4577 33.9772ZM62.8823 32.7964L63.0213 33.6704L63.466 33.5997L63.6706 33.1986L62.8823 32.7964ZM10.8104 108.306L32.7104 94.9556L31.7891 93.4443L9.88906 106.794L10.8104 108.306ZM32.3338 95.081L68.4838 91.631L68.3156 89.869L32.1656 93.319L32.3338 95.081ZM68.6651 91.5942L108.265 79.1442L107.734 77.4557L68.1343 89.9057L68.6651 91.5942ZM108.28 79.1396C109.086 78.8708 110.269 78.2174 111.115 77.086C111.992 75.9118 112.463 74.2733 111.848 72.1986L110.151 72.7014C110.603 74.2266 110.249 75.2881 109.697 76.0265C109.113 76.8076 108.264 77.2791 107.72 77.4604L108.28 79.1396ZM111.848 72.1986C111.406 70.7071 110.503 69.6155 109.251 68.9993C108.021 68.3938 106.541 68.2887 104.987 68.5801L105.313 70.3198C106.608 70.0769 107.676 70.1967 108.469 70.5874C109.241 70.9673 109.838 71.6429 110.151 72.7014L111.848 72.1986ZM104.987 68.5801C103.088 68.9361 85.8359 71.5222 77.4194 72.7746L77.68 74.5253C86.0635 73.2778 103.371 70.6839 105.313 70.3198L104.987 68.5801ZM9.00353 77.4812L30.7535 69.5312L30.1459 67.8688L8.39588 75.8188L9.00353 77.4812ZM30.4497 69.585H73.3497V67.815H30.4497V69.585ZM73.3497 69.585C73.9247 69.585 74.7767 69.7177 75.4579 70.1815C76.083 70.6071 76.6647 71.3754 76.6647 72.9H78.4347C78.4347 70.8246 77.5914 69.4928 76.454 68.7184C75.3727 67.9822 74.1248 67.815 73.3497 67.815V69.585ZM76.6647 72.9C76.6647 73.9075 76.2166 74.5126 75.5776 74.9386C74.8904 75.3967 73.9892 75.6342 73.1914 75.7792L73.508 77.5207C74.3602 77.3658 75.5591 77.0782 76.5594 76.4113C77.6079 75.7123 78.4347 74.5925 78.4347 72.9H76.6647ZM73.1926 75.779L54.8927 79.079L55.2068 80.8209L73.5068 77.5209L73.1926 75.779ZM89.7147 36.9C89.7147 49.8317 79.2315 60.315 66.2997 60.315V62.085C80.209 62.085 91.4847 50.8093 91.4847 36.9H89.7147ZM66.2997 60.315C53.368 60.315 42.8847 49.8317 42.8847 36.9H41.1147C41.1147 50.8093 52.3904 62.085 66.2997 62.085V60.315ZM42.8847 36.9C42.8847 23.9682 53.368 13.485 66.2997 13.485V11.715C52.3904 11.715 41.1147 22.9907 41.1147 36.9H42.8847ZM66.2997 13.485C79.2315 13.485 89.7147 23.9682 89.7147 36.9H91.4847C91.4847 22.9907 80.209 11.715 66.2997 11.715V13.485ZM72.2997 13.485C85.2315 13.485 95.7147 23.9682 95.7147 36.9H97.4847C97.4847 22.9907 86.209 11.715 72.2997 11.715V13.485ZM95.7147 36.9C95.7147 49.8317 85.2315 60.315 72.2997 60.315V62.085C86.209 62.085 97.4847 50.8093 97.4847 36.9H95.7147ZM72.2997 11.715L66.2997 11.715V13.485L72.2997 13.485V11.715ZM72.2997 60.315L66.2997 60.315V62.085L72.2997 62.085L72.2997 60.315ZM65.5114 26.5023L68.9288 33.1986L70.5054 32.3941L67.088 25.6977L65.5114 26.5023ZM69.5781 33.6704L77.0028 34.8512L77.2808 33.1032L69.8561 31.9223L69.5781 33.6704ZM76.5156 33.3518L71.203 38.6712L72.4553 39.922L77.7679 34.6026L76.5156 33.3518ZM70.955 39.4345L72.1263 46.8607L73.8747 46.5849L72.7033 39.1587L70.955 39.4345ZM73.4017 45.934L66.701 42.5252L65.8984 44.1028L72.5992 47.5116L73.4017 45.934ZM65.8984 42.5252L59.1977 45.934L60.0002 47.5116L66.701 44.1028L65.8984 42.5252ZM60.4731 46.8607L61.6445 39.4345L59.8961 39.1587L58.7248 46.5849L60.4731 46.8607ZM61.3965 38.6712L56.0839 33.3518L54.8315 34.6026L60.1441 39.922L61.3965 38.6712ZM55.5967 34.8512L63.0213 33.6704L62.7433 31.9223L55.3187 33.1032L55.5967 34.8512ZM63.6706 33.1986L67.088 26.5023L65.5114 25.6977L62.094 32.3941L63.6706 33.1986Z" fill="url(#paint0_linear_4022_94413)"/>
  <defs>
    <linearGradient id="paint0_linear_4022_94413" x1="8.69971" y1="12.6" x2="112.734" y2="37.7825" gradientUnits="userSpaceOnUse">
      <stop stop-color="#3B00B9"/>
      <stop offset="1" stop-color="#2586B6"/>
    </linearGradient>
  </defs>
</svg>
