<svg width="121" height="121" viewBox="0 0 121 121" fill="none" xmlns="http://www.w3.org/2000/svg">
    <path d="M76.2667 41.3605H75.3817H76.2667ZM27.6667 41.3605H26.7817H27.6667ZM76.2667 47.3605H77.1517H76.2667ZM51.9667 71.6605V70.7755V71.6605ZM27.6667 47.3605H28.5517H27.6667ZM92.7668 57.8605H91.8818H92.7668ZM68.4669 82.1605L68.4668 83.0455L68.4669 82.1605ZM92.7668 63.8605H93.6518H92.7668ZM60.9667 97.1606V96.2756V97.1606ZM60.9667 103.161V102.276V103.161ZM75.3817 41.3605C75.3817 54.2923 64.8984 64.7755 51.9667 64.7755V66.5455C65.876 66.5455 77.1517 55.2698 77.1517 41.3605H75.3817ZM51.9667 64.7755C39.0349 64.7755 28.5517 54.2923 28.5517 41.3605H26.7817C26.7817 55.2698 38.0574 66.5455 51.9667 66.5455V64.7755ZM28.5517 41.3605C28.5517 28.4288 39.0349 17.9455 51.9667 17.9455V16.1755C38.0574 16.1755 26.7817 27.4513 26.7817 41.3605H28.5517ZM51.9667 17.9455C64.8984 17.9455 75.3817 28.4288 75.3817 41.3605H77.1517C77.1517 27.4513 65.876 16.1755 51.9667 16.1755V17.9455ZM75.3817 47.3605C75.3817 60.2923 64.8984 70.7755 51.9667 70.7755V72.5455C65.876 72.5455 77.1517 61.2698 77.1517 47.3605H75.3817ZM51.9667 70.7755C39.0349 70.7755 28.5517 60.2923 28.5517 47.3605H26.7817C26.7817 61.2698 38.0574 72.5455 51.9667 72.5455V70.7755ZM77.1517 47.3605V41.3605H75.3817V47.3605H77.1517ZM28.5517 47.3605V41.3605H26.7817V47.3605H28.5517ZM91.8818 57.8605C91.8818 70.7923 81.3986 81.2755 68.4669 81.2755L68.4668 83.0455C82.3761 83.0455 93.6518 71.7698 93.6518 57.8605H91.8818ZM91.8818 63.8605C91.8818 76.7923 81.3986 87.2755 68.4669 87.2755V89.0455C82.3761 89.0455 93.6518 77.7698 93.6518 63.8605H91.8818ZM93.6518 63.8605V57.8605H91.8818V63.8605H93.6518ZM75.1171 35.4031C84.8104 38.269 91.8818 47.2401 91.8818 57.8605H93.6518C93.6518 46.4345 86.0437 36.7879 75.6189 33.7058L75.1171 35.4031ZM68.4669 87.2755C57.8988 87.2755 48.9639 80.2737 46.0523 70.654L44.3582 71.1667C47.4894 81.5122 57.0972 89.0455 68.4669 89.0455V87.2755ZM68.4669 81.2755C60.4746 81.2755 53.4172 77.2721 49.1908 71.1572L47.7348 72.1635C52.2775 78.7362 59.8688 83.0455 68.4668 83.0455L68.4669 81.2755ZM60.9667 96.2756C48.0349 96.2756 37.5517 85.7924 37.5517 72.8606H35.7817C35.7817 86.7699 47.0574 98.0456 60.9667 98.0456V96.2756ZM60.9667 102.276C48.0349 102.276 37.5517 91.7924 37.5517 78.8606H35.7817C35.7817 92.7699 47.0574 104.046 60.9667 104.046V102.276ZM37.5517 78.8606V72.8606H35.7817V78.8606H37.5517ZM37.5517 72.8606C37.5517 70.8546 37.8037 68.9088 38.2774 67.0526L36.5624 66.6149C36.0525 68.613 35.7817 70.7058 35.7817 72.8606H37.5517ZM84.1676 82.0414C82.6162 93.4683 72.8192 102.276 60.9667 102.276V104.046C73.7167 104.046 84.2526 94.5719 85.9215 82.2795L84.1676 82.0414ZM82.0707 83.0166C78.2871 90.8639 70.258 96.2756 60.9667 96.2756V98.0456C70.9631 98.0456 79.5975 92.2215 83.665 83.7854L82.0707 83.0166Z" fill="currentColor" fill-opacity="0.5"/>
</svg>
