<svg viewBox="0 0 120 120" fill="none" xmlns="http://www.w3.org/2000/svg">
    <path d="M9.88888 107.355C9.47154 107.609 9.33945 108.154 9.59386 108.571C9.84827 108.989 10.3928 109.121 10.8102 108.866L9.88888 107.355ZM32.2495 94.7606L32.1654 93.8796L31.9627 93.8989L31.7889 94.0049L32.2495 94.7606ZM68.3995 91.3106L68.4836 92.1916L68.5762 92.1827L68.665 92.1548L68.3995 91.3106ZM108 78.8606L108.265 79.7048L108.272 79.7025L108.279 79.7001L108 78.8606ZM111 73.0105L111.848 72.7591H111.848L111 73.0105ZM105.15 70.0106L104.986 69.1407L105.15 70.0106ZM8.3957 76.3793C7.93663 76.5471 7.70051 77.0553 7.86831 77.5144C8.03611 77.9734 8.54428 78.2096 9.00335 78.0418L8.3957 76.3793ZM30.4495 69.2606V68.3755H30.2929L30.1457 68.4293L30.4495 69.2606ZM73.3495 77.2105L73.5066 78.0815L73.5078 78.0813L73.3495 77.2105ZM72.2995 13.1606V12.2756V13.1606ZM96.5995 37.4606H95.7145H96.5995ZM72.2995 61.7606V60.8755V61.7606ZM66.2995 26.6606L67.0878 26.2583L66.2995 24.7136L65.5112 26.2583L66.2995 26.6606ZM69.7169 33.3569L68.9286 33.7592L69.1333 34.1602L69.5779 34.2309L69.7169 33.3569ZM77.1416 34.5378L77.7678 35.1631L78.9932 33.9361L77.2806 33.6637L77.1416 34.5378ZM71.829 39.8572L71.2028 39.2318L70.8846 39.5503L70.9548 39.9951L71.829 39.8572ZM73.0003 47.2833L72.599 48.0721L74.1447 48.8584L73.8745 47.1455L73.0003 47.2833ZM66.2995 43.8745L66.7008 43.0858L66.2995 42.8816L65.8983 43.0858L66.2995 43.8745ZM59.5988 47.2833L58.7246 47.1455L58.4544 48.8584L60 48.0721L59.5988 47.2833ZM60.7701 39.8572L61.6443 39.9951L61.7144 39.5503L61.3963 39.2318L60.7701 39.8572ZM55.4575 34.5378L55.3185 33.6637L53.6058 33.9361L54.8313 35.1631L55.4575 34.5378ZM62.8821 33.3569L63.0211 34.2309L63.4658 34.1602L63.6704 33.7592L62.8821 33.3569ZM10.8102 108.866L32.7102 95.5162L31.7889 94.0049L9.88888 107.355L10.8102 108.866ZM32.3336 95.6416L68.4836 92.1916L68.3154 90.4296L32.1654 93.8796L32.3336 95.6416ZM68.665 92.1548L108.265 79.7048L107.734 78.0163L68.1341 90.4663L68.665 92.1548ZM108.279 79.7001C109.086 79.4314 110.269 78.7779 111.115 77.6466C111.992 76.4724 112.463 74.8339 111.848 72.7591L110.151 73.262C110.603 74.7872 110.249 75.8487 109.697 76.587C109.113 77.3682 108.263 77.8397 107.72 78.021L108.279 79.7001ZM111.848 72.7591C111.406 71.2677 110.503 70.176 109.251 69.5599C108.021 68.9544 106.541 68.8492 104.986 69.1407L105.313 70.8804C106.608 70.6375 107.676 70.7573 108.469 71.1479C109.241 71.5279 109.837 72.2034 110.151 73.262L111.848 72.7591ZM104.986 69.1407C103.088 69.4967 85.8357 72.0827 77.4193 73.3352L77.6798 75.0859C86.0633 73.8384 103.371 71.2445 105.313 70.8804L104.986 69.1407ZM9.00335 78.0418L30.7533 70.0918L30.1457 68.4293L8.3957 76.3793L9.00335 78.0418ZM30.4495 70.1455H73.3495V68.3755H30.4495V70.1455ZM73.3495 70.1455C73.9245 70.1455 74.7765 70.2783 75.4577 70.7421C76.0828 71.1677 76.6645 71.9359 76.6645 73.4605H78.4345C78.4345 71.3852 77.5912 70.0534 76.4538 69.279C75.3725 68.5428 74.1246 68.3755 73.3495 68.3755V70.1455ZM76.6645 73.4605C76.6645 74.4681 76.2164 75.0732 75.5774 75.4992C74.8902 75.9573 73.989 76.1948 73.1912 76.3398L73.5078 78.0813C74.36 77.9263 75.5589 77.6388 76.5592 76.9719C77.6077 76.2729 78.4345 75.153 78.4345 73.4605H76.6645ZM73.1925 76.3396L54.8925 79.6396L55.2066 81.3815L73.5066 78.0815L73.1925 76.3396ZM89.7145 37.4606C89.7145 50.3923 79.2313 60.8756 66.2995 60.8756V62.6456C80.2088 62.6456 91.4845 51.3699 91.4845 37.4606H89.7145ZM66.2995 60.8756C53.3678 60.8756 42.8845 50.3923 42.8845 37.4606H41.1145C41.1145 51.3699 52.3902 62.6456 66.2995 62.6456V60.8756ZM42.8845 37.4606C42.8845 24.5288 53.3678 14.0456 66.2995 14.0456V12.2756C52.3902 12.2756 41.1145 23.5513 41.1145 37.4606H42.8845ZM66.2995 14.0456C79.2313 14.0456 89.7145 24.5288 89.7145 37.4606H91.4845C91.4845 23.5513 80.2088 12.2756 66.2995 12.2756V14.0456ZM72.2995 14.0456C85.2313 14.0456 95.7145 24.5288 95.7145 37.4606H97.4845C97.4845 23.5513 86.2088 12.2756 72.2995 12.2756V14.0456ZM95.7145 37.4606C95.7145 50.3923 85.2313 60.8755 72.2995 60.8755V62.6455C86.2088 62.6455 97.4845 51.3698 97.4845 37.4606H95.7145ZM72.2995 12.2756L66.2995 12.2756V14.0456L72.2995 14.0456V12.2756ZM72.2995 60.8755L66.2995 60.8756V62.6456L72.2995 62.6455L72.2995 60.8755ZM65.5112 27.0628L68.9286 33.7592L70.5052 32.9546L67.0878 26.2583L65.5112 27.0628ZM69.5779 34.2309L77.0026 35.4118L77.2806 33.6637L69.8559 32.4829L69.5779 34.2309ZM76.5154 33.9124L71.2028 39.2318L72.4552 40.4826L77.7678 35.1631L76.5154 33.9124ZM70.9548 39.9951L72.1261 47.4212L73.8745 47.1455L72.7032 39.7193L70.9548 39.9951ZM73.4016 46.4945L66.7008 43.0858L65.8983 44.6633L72.599 48.0721L73.4016 46.4945ZM65.8983 43.0858L59.1975 46.4945L60 48.0721L66.7008 44.6633L65.8983 43.0858ZM60.473 47.4212L61.6443 39.9951L59.8959 39.7193L58.7246 47.1455L60.473 47.4212ZM61.3963 39.2318L56.0837 33.9124L54.8313 35.1631L60.1439 40.4826L61.3963 39.2318ZM55.5965 35.4118L63.0211 34.2309L62.7431 32.4829L55.3185 33.6637L55.5965 35.4118ZM63.6704 33.7592L67.0878 27.0628L65.5112 26.2583L62.0939 32.9546L63.6704 33.7592Z"
          fill="currentColor" fill-opacity="0.5"/>
</svg>
