<?xml version="1.0" encoding="utf-8"?>
<svg width="24" height="24" viewBox="0 -2 24 22" fill="none" xmlns="http://www.w3.org/2000/svg">
    <path fill-rule="evenodd" clip-rule="evenodd"
          d="M6.2125 16.5636C2.99791 15.7017 0.474843 12.9556 0.058926 9.44537C-0.377036 5.75974 1.64492 2.34972 4.83697 0.861437C5.32053 0.610885 5.91935 0.402927 6.66349 0.2551C6.90402 0.20499 7.14957 0.164901 7.39761 0.134835C7.40137 0.134835 7.4045 0.134208 7.40764 0.133582C7.41077 0.132955 7.4139 0.132329 7.41766 0.132329C7.89872 0.0696909 8.42488 0.0270971 9.01117 0.00955846C9.52981 -0.00798023 10.0359 -0.000463496 10.5345 0.0245918C15.5436 0.215525 19.0535 2.032 20.7054 2.88692C20.8094 2.94071 20.906 2.9907 20.9951 3.03623C22.9068 4.01339 23.3779 4.70993 23.2426 5.27617C23.0892 5.9226 21.1729 6.04885 19.7536 6.14235C18.901 6.19853 18.2278 6.24288 18.224 6.38111C18.2199 6.50117 18.6796 6.65771 19.2962 6.86765C20.5709 7.30173 22.5162 7.96411 22.4182 9.0044C22.3287 9.95528 20.4627 10.385 19.0431 10.7119C18.1585 10.9156 17.4473 11.0794 17.4473 11.3045C17.4473 11.6006 18.1312 11.9204 18.8916 12.276C19.862 12.7298 20.9571 13.242 20.9149 13.8376C20.8623 14.5667 17.5976 16.2855 10.1988 16.8467C9.32687 16.9118 8.55266 16.9068 7.86364 16.8392C7.26732 16.7941 6.73114 16.7039 6.25008 16.5736C6.24758 16.5711 6.24507 16.5711 6.24256 16.5711L6.2125 16.5636ZM7.14706 4.65731C6.5282 4.64729 6.01456 5.47161 5.99702 6.49887C5.97948 7.52614 6.46806 8.36799 7.08693 8.37802C7.70579 8.38804 8.21943 7.56372 8.23696 6.53646C8.2545 5.50919 7.76593 4.66733 7.14706 4.65731ZM2.16357 4.46188C1.74264 4.44935 1.37934 5.19349 1.35428 6.12054C1.32923 7.05009 1.64994 7.81177 2.06836 7.82179C2.48929 7.83432 2.85259 7.09018 2.87764 6.16313C2.9052 5.23609 2.5845 4.47441 2.16357 4.46188ZM23.2926 7.17785C23.6083 7.16782 23.8589 6.9749 23.8514 6.7494C23.8439 6.5239 23.5783 6.34852 23.2626 6.36104C22.9469 6.37357 22.2078 6.58153 22.2153 6.80703C22.2228 7.03253 22.9769 7.18787 23.2926 7.17785ZM22.0098 12.68C22.6437 12.685 23.1599 12.3217 23.1624 11.8707C23.1674 11.4197 22.6587 11.0489 22.0223 11.0464C21.3909 11.0414 19.8926 11.3946 19.8901 11.8456C19.8876 12.2966 21.3784 12.675 22.0098 12.68ZM10.2214 20.0438C13.5839 20.0438 16.3098 19.668 16.3098 19.2044C16.3098 18.7408 13.5839 18.3651 10.2214 18.3651C6.85882 18.3651 4.13293 18.7408 4.13293 19.2044C4.13293 19.668 6.85882 20.0438 10.2214 20.0438Z"
          fill="currentColor"/>
</svg>
