<?xml version="1.0" encoding="utf-8"?>
<svg width="24" height="24" viewBox="0 0 24 24" fill="none" xmlns="http://www.w3.org/2000/svg">
    <g clip-path="url(#clip0_936_20441)">
        <path d="M12.0004 0.822815C5.83842 0.822815 0.823242 5.84035 0.823242 12C0.823242 18.1596 5.84078 23.1771 12.0004 23.1771C18.16 23.1771 23.1775 18.1596 23.1775 12C23.1775 5.84035 18.16 0.822815 12.0004 0.822815V0.822815ZM11.9838 1.81592C12.1749 1.82087 12.3566 1.90052 12.49 2.0379C12.6234 2.17527 12.698 2.3595 12.6979 2.55129C12.6979 2.74632 12.6204 2.93336 12.4825 3.07127C12.3446 3.20918 12.1576 3.28666 11.9626 3.28666C11.7675 3.28666 11.5805 3.20918 11.4426 3.07127C11.3047 2.93336 11.2272 2.74632 11.2272 2.55129C11.2271 2.4529 11.2468 2.35551 11.2851 2.26487C11.3234 2.17424 11.3795 2.0922 11.45 2.02363C11.5206 1.95506 11.6042 1.90135 11.6959 1.86567C11.7876 1.82999 11.8855 1.81307 11.9838 1.81592V1.81592ZM13.6674 3.02656C14.9583 3.26836 16.1812 3.78828 17.251 4.55021C18.3208 5.31214 19.2119 6.29781 19.8625 7.43878L18.9947 9.39661C18.8457 9.73474 18.9994 10.132 19.3352 10.2833L21.0045 11.0234C21.0563 11.5452 21.0626 12.0705 21.0234 12.5935H20.0942C20.002 12.5935 19.9641 12.6549 19.9641 12.7448V13.1704C19.9641 14.173 19.399 14.3929 18.9025 14.4472C18.4295 14.5016 17.907 14.2486 17.8408 13.9602C17.5618 12.3925 17.0983 12.0591 16.3653 11.4798C17.2757 10.9028 18.2215 10.0492 18.2215 8.90951C18.2215 7.67759 17.3773 6.90203 16.8028 6.52134C15.9941 5.98932 15.1003 5.88291 14.8591 5.88291H5.2591C6.58656 4.39998 8.36588 3.39604 10.3216 3.02656L11.4542 4.21355C11.7095 4.48075 12.1328 4.49257 12.4 4.23483L13.6674 3.02656ZM3.21615 8.46971C3.40747 8.47525 3.58909 8.55517 3.72243 8.69248C3.85577 8.82979 3.93032 9.01368 3.93024 9.20508C3.93024 9.40011 3.85276 9.58716 3.71485 9.72507C3.57694 9.86297 3.3899 9.94045 3.19487 9.94045C2.99984 9.94045 2.81279 9.86297 2.67488 9.72507C2.53697 9.58716 2.4595 9.40011 2.4595 9.20508C2.45946 9.10669 2.47916 9.0093 2.51744 8.91866C2.55572 8.82803 2.6118 8.746 2.68235 8.67743C2.75291 8.60885 2.83651 8.55514 2.9282 8.51946C3.01989 8.48378 3.1178 8.46686 3.21615 8.46971V8.46971ZM20.7492 8.50281C20.9405 8.50835 21.1221 8.58827 21.2554 8.72558C21.3888 8.86289 21.4633 9.04678 21.4632 9.23818C21.4632 9.43322 21.3858 9.62026 21.2479 9.75817C21.1099 9.89608 20.9229 9.97355 20.7279 9.97355C20.5328 9.97355 20.3458 9.89608 20.2079 9.75817C20.07 9.62026 19.9925 9.43322 19.9925 9.23818C19.9925 9.1398 20.0122 9.0424 20.0504 8.95177C20.0887 8.86113 20.1448 8.7791 20.2154 8.71053C20.2859 8.64196 20.3695 8.58824 20.4612 8.55256C20.5529 8.51688 20.6508 8.49997 20.7492 8.50281V8.50281ZM4.60176 8.62104H5.88334V14.4H3.29654C2.97707 13.2781 2.8775 12.105 3.00334 10.9454L4.58758 10.2407C4.92571 10.0894 5.0794 9.69454 4.92807 9.35641L4.60176 8.62104ZM9.95034 8.68252H13.0029C13.1614 8.68252 14.1166 8.86459 14.1166 9.58104C14.1166 10.1745 13.3836 10.3873 12.7807 10.3873H9.94797L9.95034 8.68252ZM9.95034 12.8346H12.2889C12.5017 12.8346 13.4309 12.8961 13.7265 14.0831C13.8187 14.4472 14.0244 15.6342 14.1639 16.0149C14.3034 16.4405 14.8686 17.2918 15.4715 17.2918H19.2879C19.0321 17.6343 18.7524 17.9583 18.4508 18.2612L16.8973 17.9278C16.5356 17.8498 16.1785 18.0815 16.1005 18.4433L15.7316 20.1647C14.5455 20.702 13.2573 20.977 11.9551 20.9709C10.653 20.9648 9.36745 20.6777 8.18639 20.1292L7.81753 18.4078C7.7395 18.0461 7.38482 17.8143 7.02305 17.8924L5.50265 18.2187C5.22051 17.9276 4.95825 17.618 4.71763 17.2918H12.1115C12.1943 17.2918 12.251 17.2776 12.251 17.1996V14.5844C12.251 14.5087 12.1943 14.4922 12.1115 14.4922H9.94797L9.95034 12.8346ZM6.53832 18.824C6.72964 18.8295 6.91126 18.9095 7.0446 19.0468C7.17794 19.1841 7.25249 19.368 7.2524 19.5594C7.2524 19.7544 7.17493 19.9414 7.03702 20.0794C6.89911 20.2173 6.71207 20.2947 6.51704 20.2947C6.322 20.2947 6.13496 20.2173 5.99705 20.0794C5.85914 19.9414 5.78167 19.7544 5.78167 19.5594C5.78162 19.461 5.80133 19.3636 5.83961 19.2729C5.87789 19.1823 5.93396 19.1003 6.00452 19.0317C6.07507 18.9631 6.15867 18.9094 6.25036 18.8737C6.34205 18.8381 6.43997 18.8211 6.53832 18.824V18.824ZM17.427 18.8571C17.6183 18.8626 17.7999 18.9426 17.9333 19.0799C18.0666 19.2172 18.1412 19.4011 18.1411 19.5925C18.1411 19.7875 18.0636 19.9745 17.9257 20.1125C17.7878 20.2504 17.6007 20.3278 17.4057 20.3278C17.2107 20.3278 17.0236 20.2504 16.8857 20.1125C16.7478 19.9745 16.6703 19.7875 16.6703 19.5925C16.6703 19.4941 16.69 19.3967 16.7283 19.3061C16.7666 19.2154 16.8226 19.1334 16.8932 19.0648C16.9637 18.9962 17.0473 18.9425 17.139 18.9068C17.2307 18.8712 17.3286 18.8543 17.427 18.8571V18.8571Z" fill="currentColor"/>
        <path fill-rule="evenodd" clip-rule="evenodd" d="M22.5529 12C22.5529 14.7988 21.4411 17.483 19.462 19.462C17.483 21.4411 14.7988 22.5529 12 22.5529C9.2012 22.5529 6.51702 21.4411 4.53797 19.462C2.55891 17.483 1.44709 14.7988 1.44709 12C1.44709 9.20119 2.55891 6.51702 4.53797 4.53797C6.51702 2.55891 9.2012 1.44709 12 1.44709C14.7988 1.44709 17.483 2.55891 19.462 4.53797C21.4411 6.51702 22.5529 9.20119 22.5529 12V12ZM22.3543 10.9809L24 12L22.3543 13.0191L23.7683 14.3409L21.957 15.0195L23.0873 16.5919L21.1744 16.904L21.9783 18.668L20.0418 18.5994L20.4863 20.4863L18.5994 20.0418L18.668 21.9783L16.904 21.1744L16.5919 23.0873L15.0195 21.957L14.3409 23.7683L13.0191 22.3543L12 24L10.9809 22.3543L9.65911 23.7683L8.98049 21.957L7.40808 23.0873L7.09596 21.1744L5.33202 21.9783L5.40059 20.0418L3.51369 20.4863L3.95823 18.5994L2.02168 18.668L2.82562 16.904L0.91271 16.5919L2.04296 15.0195L0.231724 14.3409L1.64571 13.0191L0 12L1.64571 10.9809L0.231724 9.65911L2.04296 8.98049L0.91271 7.40808L2.82562 7.09596L2.02168 5.33202L3.95823 5.40059L3.51369 3.51369L5.40059 3.95823L5.33202 2.02167L7.09596 2.82562L7.40808 0.912709L8.98049 2.04296L9.65911 0.231724L10.9809 1.64571L12 0L13.0191 1.64571L14.3409 0.231724L15.0195 2.04296L16.5919 0.912709L16.904 2.82562L18.668 2.02167L18.5994 3.95823L20.4863 3.51369L20.0418 5.40059L21.9783 5.33202L21.1744 7.09596L23.0873 7.40808L21.957 8.98049L23.7683 9.65911L22.3543 10.9809Z" fill="currentColor" stroke="currentColor" stroke-width="0.70936" stroke-linecap="round" stroke-linejoin="round"/>
    </g>
    <defs>
        <clipPath id="clip0_936_20441">
            <rect width="24" height="24" fill="white"/>
        </clipPath>
    </defs>
</svg>

