<svg width="64" height="64" viewBox="0 0 64 64" fill="none" xmlns="http://www.w3.org/2000/svg">
<rect width="64.0001" height="64" rx="32" fill="white"/>
<path d="M43.9646 20.7687C41.368 20.7687 38.5374 22.0993 35.5457 24.7201C34.1264 25.962 32.9006 27.2925 31.9814 28.357C31.9814 28.357 31.9814 28.357 31.9895 28.365V28.357C31.9895 28.357 33.4409 29.9375 35.0457 31.631C35.9086 30.6069 37.1505 29.2118 38.5777 27.9538C41.239 25.6233 42.9726 25.1314 43.9646 25.1314C47.6984 25.1314 50.7304 28.0909 50.7304 31.7278C50.7304 35.3405 47.6903 38.3 43.9646 38.3242C43.7952 38.3242 43.5775 38.3 43.3033 38.2436C44.392 38.7113 45.5613 39.05 46.6742 39.05C53.5124 39.05 54.8511 34.5905 54.9398 34.268C55.1415 33.4535 55.2463 32.5987 55.2463 31.7197C55.2463 25.6878 50.182 20.7687 43.9646 20.7687Z" fill="url(#paint0_linear_4046_103303)"/>
<path d="M20.0795 42.7033C22.6762 42.7033 25.5067 41.3727 28.4985 38.7519C29.9178 37.51 31.1436 36.1795 32.0627 35.115C32.0627 35.115 32.0627 35.115 32.0546 35.1069V35.115C32.0546 35.115 30.6032 33.5344 28.9984 31.841C28.1356 32.8651 26.8937 34.2602 25.4664 35.5182C22.8052 37.8487 21.0714 38.3406 20.0795 38.3406C16.3458 38.3326 13.3137 35.373 13.3137 31.7361C13.3137 28.1234 16.3539 25.1639 20.0795 25.1397C20.2489 25.1397 20.4666 25.1639 20.7408 25.2204C19.6521 24.7526 18.4828 24.4139 17.37 24.4139C10.5316 24.4139 9.20106 28.8734 9.10429 29.1879C8.90269 30.0104 8.79785 30.8572 8.79785 31.7361C8.79785 37.7842 13.8621 42.7033 20.0795 42.7033Z" fill="url(#paint1_linear_4046_103303)"/>
<path d="M46.6591 38.9532C43.1591 38.8645 39.5223 36.1066 38.7803 35.4211C36.8612 33.647 32.4339 28.8489 32.0873 28.4699C28.8454 24.833 24.4505 20.7687 20.0797 20.7687H20.0717H20.0636C14.7574 20.7929 10.298 24.3895 9.10449 29.1876C9.1932 28.8731 10.9431 24.3249 17.3621 24.4862C20.862 24.5749 24.515 27.3732 25.265 28.0586C27.1842 29.8327 31.6115 34.6308 31.9583 35.0099C35.1999 38.6387 39.5949 42.7031 43.9656 42.7031H43.9736H43.9817C49.2879 42.6789 53.7554 39.0822 54.9408 34.2841C54.8441 34.5986 53.086 39.1064 46.6591 38.9532Z" fill="#29ABE2"/>
<rect x="0.5" y="0.5" width="63.0001" height="63" rx="31.5" stroke="black" stroke-opacity="0.05"/>
<defs>
<linearGradient id="paint0_linear_4046_103303" x1="38.0919" y1="22.2149" x2="53.4306" y2="38.0987" gradientUnits="userSpaceOnUse">
<stop offset="0.21" stop-color="#F15A24"/>
<stop offset="0.6841" stop-color="#FBB03B"/>
</linearGradient>
<linearGradient id="paint1_linear_4046_103303" x1="25.9523" y1="41.257" x2="10.6135" y2="25.3733" gradientUnits="userSpaceOnUse">
<stop offset="0.21" stop-color="#ED1E79"/>
<stop offset="0.8929" stop-color="#522785"/>
</linearGradient>
</defs>
</svg>
