<svg width="24" height="24" viewBox="0 0 24 24" fill="none"
  xmlns="http://www.w3.org/2000/svg">
  <path d="M21 4H7C6.46957 4 5.96086 4.21071 5.58579 4.58579C5.21071 4.96086 5 5.46957 5 6C5 6.53043 5.21071 7.03914 5.58579 7.41421C5.96086 7.78929 6.46957 8 7 8H21V21C21 21.2652 20.8946 21.5196 20.7071 21.7071C20.5196 21.8946 20.2652 22 20 22H7C5.93913 22 4.92172 21.5786 4.17157 20.8284C3.42143 20.0783 3 19.0609 3 18V6C3 4.93913 3.42143 3.92172 4.17157 3.17157C4.92172 2.42143 5.93913 2 7 2H20C20.2652 2 20.5196 2.10536 20.7071 2.29289C20.8946 2.48043 21 2.73478 21 3V4ZM5 18C5 18.5304 5.21071 19.0391 5.58579 19.4142C5.96086 19.7893 6.46957 20 7 20H19V10H7C6.29782 10.0011 5.60784 9.81655 5 9.465V18ZM20 7H7C6.73478 7 6.48043 6.89464 6.29289 6.70711C6.10536 6.51957 6 6.26522 6 6C6 5.73478 6.10536 5.48043 6.29289 5.29289C6.48043 5.10536 6.73478 5 7 5H20V7Z" fill="currentColor"/>
</svg>
