<svg width="72" height="72" viewBox="0 0 72 72" fill="none"
  xmlns="http://www.w3.org/2000/svg">
  <path fillRule="evenodd" clipRule="evenodd" d="M17.997 9.39697H26.996V11.597H17.997C14.4624 11.597 11.597 14.4624 11.597 17.997V26.9958H9.39697V17.997C9.39697 13.2473 13.2473 9.39697 17.997 9.39697ZM9.39697 44.9958V53.997C9.39697 58.7466 13.2473 62.597 17.997 62.597H26.996V60.397H17.997C14.4624 60.397 11.597 57.5316 11.597 53.997V44.9958H9.39697ZM60.397 44.9958V53.997C60.397 57.5316 57.5316 60.397 53.997 60.397H44.996V62.597H53.997C58.7466 62.597 62.597 58.7466 62.597 53.997V44.9958H60.397ZM62.597 26.9958V17.997C62.597 13.2473 58.7466 9.39697 53.997 9.39697H44.996V11.597H53.997C57.5316 11.597 60.397 14.4624 60.397 17.997V26.9958H62.597Z" fill="white" />
  <path d="M24.75 27V34.5" stroke="white" stroke-width="2.2" />
  <path d="M47.25 27V34.5" stroke="white" stroke-width="2.2" />
  <path d="M34.9 27V39H37.1V27H34.9Z" fill="white" />
  <path d="M46.5499 43.7454C43.7626 46.4252 39.9788 47.9425 36.0248 47.9659C32.0708 47.9893 28.2676 46.5169 25.4458 43.8703" stroke="white" stroke-width="2.2" />
</svg>