<svg width="73" height="72" viewBox="0 0 73 72" fill="none"
  xmlns="http://www.w3.org/2000/svg">
  <path d="M3.3335 36L2.45714 36.6648L1.95279 36L2.45714 35.3352L3.3335 36ZM69.3335 36L70.2099 35.3352L70.7142 36L70.2099 36.6648L69.3335 36ZM31.3788 14.25V13.15V14.25ZM13.7321 24.1128L4.20985 36.6648L2.45714 35.3352L11.9793 22.7832L13.7321 24.1128ZM4.20985 35.3352L13.7321 47.8872L11.9793 49.2168L2.45714 36.6648L4.20985 35.3352ZM31.3788 56.65H41.2882V58.85H31.3788V56.65ZM58.9349 47.8872L68.4571 35.3352L70.2099 36.6648L60.6877 49.2168L58.9349 47.8872ZM68.4571 36.6648L58.9349 24.1128L60.6877 22.7832L70.2099 35.3352L68.4571 36.6648ZM41.2882 15.35L31.3788 15.35V13.15L41.2882 13.15V15.35ZM41.2882 56.65C48.2173 56.65 54.7471 53.4075 58.9349 47.8872L60.6877 49.2168C56.0839 55.2854 48.9055 58.85 41.2882 58.85V56.65ZM13.7321 47.8872C17.9199 53.4075 24.4497 56.65 31.3788 56.65V58.85C23.7615 58.85 16.5831 55.2854 11.9793 49.2168L13.7321 47.8872ZM58.9349 24.1128C54.7471 18.5925 48.2173 15.35 41.2882 15.35V13.15C48.9055 13.15 56.0839 16.7146 60.6877 22.7832L58.9349 24.1128ZM11.9793 22.7832C16.5831 16.7146 23.7615 13.15 31.3788 13.15V15.35C24.4497 15.35 17.9199 18.5925 13.7321 24.1128L11.9793 22.7832Z" fill="white" />
  <path d="M44.8188 44.4853C47.0692 42.2348 48.3335 39.1826 48.3335 36C48.3335 32.8174 47.0692 29.7652 44.8188 27.5147C42.5683 25.2643 39.5161 24 36.3335 24C33.1509 24 30.0987 25.2643 27.8482 27.5147L36.3335 36L44.8188 44.4853Z" stroke="white" stroke-width="2.2" />
  <path d="M10.0835 9.75L62.5835 62.25" stroke="white" stroke-width="2.2" />
</svg>