<svg width="73" height="72" viewBox="0 0 73 72" fill="none"
  xmlns="http://www.w3.org/2000/svg">
  <path d="M13.4165 13.2908L13.1834 12.2158L12.3165 12.4037V13.2908H13.4165ZM59.9165 13.2908H61.0165V12.4037L60.1496 12.2158L59.9165 13.2908ZM36.6665 66L36.066 66.9216L36.6665 67.3129L37.267 66.9216L36.6665 66ZM36.6665 8.25L36.8996 7.17498L36.6665 7.12444L36.4334 7.17498L36.6665 8.25ZM58.8165 13.2908V41.0962H61.0165V13.2908H58.8165ZM14.5165 41.0962V13.2908H12.3165V41.0962H14.5165ZM51.142 55.256L36.066 65.0784L37.267 66.9216L52.3429 57.0993L51.142 55.256ZM37.267 65.0784L22.191 55.256L20.9901 57.0993L36.066 66.9216L37.267 65.0784ZM13.6496 14.3658L36.8996 9.32502L36.4334 7.17498L13.1834 12.2158L13.6496 14.3658ZM36.4334 9.32502L59.6834 14.3658L60.1496 12.2158L36.8996 7.17498L36.4334 9.32502ZM12.3165 41.0962C12.3165 47.5538 15.5795 53.5742 20.9901 57.0993L22.191 55.256C17.4037 52.1369 14.5165 46.81 14.5165 41.0962H12.3165ZM58.8165 41.0962C58.8165 46.81 55.9294 52.1369 51.142 55.256L52.3429 57.0993C57.7535 53.5742 61.0165 47.5538 61.0165 41.0962H58.8165Z" fill="white" />
  <path d="M36.6665 32.25L36.6665 42" stroke="white" stroke-width="2.2" />
  <rect x="36.6665" y="25.6665" width="6.91097" height="6.91097" rx="3.45549" transform="rotate(45 36.6665 25.6665)" fill="white" />
</svg>