<svg width="24" height="24" viewBox="0 0 24 24" fill="none"
  xmlns="http://www.w3.org/2000/svg">
  <rect width="24" height="24" rx="12" fill="#F68E5F"/>
  <path d="M5.39634 17.2575L11.5617 6.25746C11.6503 6.09946 11.8177 6.00146 11.9997 6.00146C12.181 6.00146 12.349 6.09946 12.437 6.25746L18.6023 17.2575C18.645 17.3341 18.6663 17.4181 18.6663 17.5021C18.6663 17.7588 18.4603 18.0015 18.165 18.0015H5.83434C5.54101 18.0015 5.33301 17.7615 5.33301 17.5021C5.33301 17.4181 5.35367 17.3341 5.39634 17.2575ZM12.001 12.6701C11.725 12.6701 11.501 12.8941 11.501 13.1701V15.5035C11.501 15.7795 11.725 16.0035 12.001 16.0035C12.277 16.0035 12.501 15.7795 12.501 15.5035V13.1701C12.501 12.8941 12.277 12.6701 12.001 12.6701ZM11.9997 10.6701C11.6317 10.6701 11.333 10.9688 11.333 11.3368C11.333 11.7048 11.6317 12.0035 11.9997 12.0035C12.3677 12.0035 12.6663 11.7048 12.6663 11.3368C12.6663 10.9688 12.3677 10.6701 11.9997 10.6701Z" fill="white"/>
</svg>
