<svg width="24" height="24" viewBox="0 0 24 24" fill="none"
  xmlns="http://www.w3.org/2000/svg">
  <rect width="24" height="24" rx="12" fill="#EB318A"/>
  <g clip-path="url(#clip0_35_6691)">
    <path fill-rule="evenodd" clip-rule="evenodd" d="M15.3 9.643L14.3571 8.7002L12.0001 11.0573L9.643 8.7002L8.7002 9.64301L11.0573 12.0001L8.70029 14.357L9.6431 15.2999L12.0001 12.9429L14.357 15.2999L15.2999 14.3571L12.9429 12.0001L15.3 9.643Z" fill="white"/>
    <path fill-rule="evenodd" clip-rule="evenodd" d="M18.0003 15.0539V9.45357C18.0003 8.95752 17.725 8.50248 17.2855 8.27237L12.6188 5.82874C12.2314 5.62588 11.7692 5.62588 11.3818 5.82874L6.71514 8.27237C6.2757 8.50248 6.00033 8.95752 6.00033 9.45357V15.0539C6.00033 15.5841 6.31446 16.0639 6.8004 16.276L11.4671 18.3123C11.8071 18.4607 12.1936 18.4607 12.5336 18.3123L17.2003 16.276C17.6862 16.0639 18.0003 15.5841 18.0003 15.0539ZM6.09663 7.09118C5.21774 7.5514 4.66699 8.46147 4.66699 9.45357V15.0539C4.66699 16.1143 5.29525 17.0739 6.26714 17.498L10.9338 19.5344C11.6139 19.8311 12.3868 19.8311 13.0668 19.5344L17.7335 17.498C18.7054 17.0739 19.3337 16.1143 19.3337 15.0539V9.45357C19.3337 8.46147 18.7829 7.5514 17.904 7.09118L13.2374 4.64754C12.4626 4.24184 11.5381 4.24183 10.7633 4.64754L6.09663 7.09118Z" fill="white"/>
  </g>
  <defs>
    <clipPath id="clip0_35_6691">
      <rect width="16" height="16" fill="white" transform="translate(4 4)"/>
    </clipPath>
  </defs>
</svg>
