<svg width="24" height="24" viewBox="0 0 24 24" fill="none"
  xmlns="http://www.w3.org/2000/svg">
  <rect width="24" height="24" rx="12" fill="#29ABE2"/>
  <g clip-path="url(#clip0_35_6192)">
    <path d="M12 5.33333C15.676 5.33333 18.6667 8.324 18.6667 12C18.6667 15.676 15.676 18.6667 12 18.6667C8.324 18.6667 5.33333 15.676 5.33333 12C5.33333 8.324 8.324 5.33333 12 5.33333ZM12 4C7.582 4 4 7.582 4 12C4 16.418 7.582 20 12 20C16.418 20 20 16.418 20 12C20 7.582 16.418 4 12 4ZM11.9993 7.83333C12.4593 7.83333 12.8333 8.20667 12.8333 8.66667C12.8333 9.12667 12.4593 9.5 11.9993 9.5C11.5393 9.5 11.1667 9.12667 11.1667 8.66667C11.1667 8.20667 11.5393 7.83333 11.9993 7.83333ZM13.3333 16H10.6667V15.3333C10.9893 15.214 11.3333 15.1993 11.3333 14.8433V11.8653C11.3333 11.5093 10.9893 11.4533 10.6667 11.334V10.6673H12.6667V14.844C12.6667 15.2007 13.0113 15.216 13.3333 15.334V16Z" fill="white"/>
  </g>
  <defs>
    <clipPath id="clip0_35_6192">
      <rect width="16" height="16" fill="white" transform="translate(4 4)"/>
    </clipPath>
  </defs>
</svg>
