<svg width="24" height="24" viewBox="0 0 24 24" fill="none"
  xmlns="http://www.w3.org/2000/svg">
  <rect width="24" height="24" rx="12" fill="#FBB03B"/>
  <g clip-path="url(#clip0_35_6196)">
    <path fill-rule="evenodd" clip-rule="evenodd" d="M8.66634 6.66683C7.56177 6.66683 6.66634 7.56226 6.66634 8.66683V15.3335C6.66634 16.4381 7.56177 17.3335 8.66634 17.3335H15.333C16.4376 17.3335 17.333 16.4381 17.333 15.3335V11.3335C17.333 10.9653 17.6315 10.6668 17.9997 10.6668C18.3679 10.6668 18.6663 10.9653 18.6663 11.3335V15.3335C18.6663 17.1744 17.174 18.6668 15.333 18.6668H8.66634C6.82539 18.6668 5.33301 17.1744 5.33301 15.3335V8.66683C5.33301 6.82588 6.82539 5.3335 8.66634 5.3335H12.6663C13.0345 5.3335 13.333 5.63197 13.333 6.00016C13.333 6.36835 13.0345 6.66683 12.6663 6.66683H8.66634Z" fill="white"/>
    <path fill-rule="evenodd" clip-rule="evenodd" d="M12.8785 13.1701L17.548 6.50134C17.7592 6.19973 17.6859 5.78404 17.3843 5.57285C17.0827 5.36167 16.667 5.43497 16.4558 5.73657L11.7863 12.4054L11.5244 13.9417L12.8785 13.1701ZM18.149 4.48065C17.2442 3.84709 15.9971 4.06699 15.3636 4.9718L10.694 11.6406C10.5809 11.8022 10.505 11.9869 10.4719 12.1813L9.9733 15.1062C9.87874 15.661 10.4716 16.0761 10.9605 15.7975L13.5385 14.3286C13.7099 14.231 13.8575 14.0965 13.9707 13.9349L18.6402 7.26611C19.2738 6.3613 19.0539 5.1142 18.149 4.48065Z" fill="white"/>
  </g>
  <defs>
    <clipPath id="clip0_35_6196">
      <rect width="16" height="16" fill="white" transform="translate(4 4)"/>
    </clipPath>
  </defs>
</svg>
