<svg width="24" height="24" viewBox="0 0 24 24" fill="none"
  xmlns="http://www.w3.org/2000/svg">
  <rect width="24" height="24" rx="12" fill="#26D76D"/>
  <path d="M16.6663 8.48933C16.6663 11.2653 14.1663 13.1427 14.1663 15.3333H12.8383C12.839 13.9473 13.5023 12.7827 14.1503 11.658C14.759 10.6013 15.333 9.60267 15.333 8.48933C15.333 6.41733 13.6543 5.33333 11.997 5.33333C10.3423 5.33333 8.66634 6.41733 8.66634 8.48933C8.66634 9.60267 9.24034 10.6013 9.84901 11.658C10.497 12.7827 11.1597 13.9473 11.1603 15.3333H9.83301C9.83301 13.1427 7.33301 11.2647 7.33301 8.48933C7.33301 5.594 9.66501 4 11.997 4C14.3317 4 16.6663 5.596 16.6663 8.48933ZM13.9997 16.3333C13.9997 16.5173 13.8503 16.6667 13.6663 16.6667H10.333C10.149 16.6667 9.99967 16.5173 9.99967 16.3333C9.99967 16.1493 10.149 16 10.333 16H13.6663C13.8503 16 13.9997 16.1493 13.9997 16.3333ZM13.9997 17.6667C13.9997 17.8507 13.8503 18 13.6663 18H10.333C10.149 18 9.99967 17.8507 9.99967 17.6667C9.99967 17.4827 10.149 17.3333 10.333 17.3333H13.6663C13.8503 17.3333 13.9997 17.4827 13.9997 17.6667ZM12.8657 19.7727C12.739 19.9167 12.5557 20 12.3643 20H11.635C11.4437 20 11.2603 19.9167 11.1337 19.7727L10.1663 18.6667H13.833L12.8657 19.7727ZM10.4463 8.87467L9.65434 8.77267C9.82701 7.44267 10.6543 6.45733 11.9997 6.208L12.1457 6.99267C10.8477 7.23333 10.5237 8.27533 10.4463 8.87467Z" fill="white"/>
</svg>
