<svg width="72" height="72" viewBox="0 0 72 72" fill="none"
  xmlns="http://www.w3.org/2000/svg">
  <path d="M12.1364 12L59.8636 59M6 35.5L14.6565 24.263C18.6527 19.0756 24.8837 16.0286 31.4957 16.0286H40.5043C47.1163 16.0286 53.3473 19.0756 57.3435 24.263L66 35.5L57.3435 46.737C53.3473 51.9244 47.1163 54.9714 40.5043 54.9714H31.4957C24.8837 54.9714 18.6527 51.9244 14.6565 46.737L6 35.5ZM43.7139 43.0963C45.7597 41.0817 46.9091 38.3492 46.9091 35.5C46.9091 32.6508 45.7597 29.9183 43.7139 27.9037C41.668 25.889 38.8933 24.7571 36 24.7571C33.1067 24.7571 30.332 25.889 28.2861 27.9037L43.7139 43.0963Z" stroke="url(#paint0_linear_6_754)" stroke-width="2.2"/>
  <defs>
    <linearGradient id="paint0_linear_6_754" x1="62.3922" y1="30.5063" x2="6" y2="30.5063" gradientUnits="userSpaceOnUse">
      <stop stop-color="#FFB1C5"/>
      <stop offset="1" stop-color="#785DF6"/>
    </linearGradient>
  </defs>
</svg>
