<svg viewBox="0 0 279 200" fill="none" xmlns="http://www.w3.org/2000/svg">
    <path d="M193.521 29.5196C184.185 18.3278 171.631 10.2802 157.563 6.46965C143.496 2.65907 128.596 3.27012 114.888 8.2198C101.179 13.1695 89.3263 22.218 80.9381 34.1367C72.5498 46.0555 68.0327 60.2669 68.0002 74.8415C67.9676 89.4161 72.4212 103.648 80.7561 115.604C89.091 127.56 100.903 136.661 114.59 141.672C128.276 146.683 143.172 147.36 157.257 143.613C171.341 139.865 183.931 131.874 193.317 120.724L187.886 116.151C179.438 126.186 168.107 133.379 155.431 136.752C142.755 140.124 129.348 139.515 117.031 135.005C104.713 130.495 94.0819 122.304 86.5805 111.543C79.079 100.783 75.0709 87.9745 75.1002 74.8574C75.1295 61.7402 79.1948 48.9499 86.7443 38.2231C94.2937 27.4962 104.961 19.3526 117.299 14.8978C129.636 10.4431 143.046 9.89317 155.707 13.3227C168.368 16.7522 179.667 23.995 188.069 34.0677L193.521 29.5196Z" fill="#3B00B9"/>
    <path d="M193.533 29.5335C204.211 42.3411 210.041 58.4987 210 75.1739C209.959 91.8492 204.05 107.978 193.309 120.733L187.878 116.16C197.545 104.68 202.863 90.1643 202.9 75.1565C202.937 60.1488 197.69 45.607 188.079 34.0801L193.533 29.5335Z" fill="#DA3979"/>
    <path d="M224.982 73.632C224.934 73.456 224.902 73.248 224.902 73.056C224.902 72.08 225.446 71.328 226.55 71.328C227.59 71.328 228.118 72 228.118 72.752C228.118 73.472 227.766 74.016 226.886 74.544L225.174 75.568C223.318 76.688 222.742 78.176 222.726 80H230.406V78.096H225.43C225.59 77.696 225.926 77.408 226.326 77.152L228.326 75.936C229.606 75.152 230.342 74.064 230.342 72.72C230.342 70.912 228.918 69.376 226.598 69.376C224.182 69.376 222.806 71.024 222.806 72.848C222.806 73.104 222.854 73.424 222.886 73.568L224.982 73.632ZM234.06 73.632C234.012 73.456 233.98 73.248 233.98 73.056C233.98 72.08 234.524 71.328 235.628 71.328C236.668 71.328 237.196 72 237.196 72.752C237.196 73.472 236.844 74.016 235.964 74.544L234.252 75.568C232.396 76.688 231.82 78.176 231.804 80H239.484V78.096H234.508C234.668 77.696 235.004 77.408 235.404 77.152L237.404 75.936C238.684 75.152 239.42 74.064 239.42 72.72C239.42 70.912 237.996 69.376 235.676 69.376C233.26 69.376 231.884 71.024 231.884 72.848C231.884 73.104 231.932 73.424 231.964 73.568L234.06 73.632ZM240.963 78.656C240.963 79.456 241.619 80.112 242.419 80.112C243.235 80.112 243.891 79.456 243.891 78.656C243.891 77.856 243.235 77.2 242.419 77.2C241.619 77.2 240.963 77.856 240.963 78.656ZM247.545 73.632C247.497 73.456 247.465 73.248 247.465 73.056C247.465 72.08 248.009 71.328 249.113 71.328C250.153 71.328 250.681 72 250.681 72.752C250.681 73.472 250.329 74.016 249.449 74.544L247.737 75.568C245.881 76.688 245.305 78.176 245.289 80H252.969V78.096H247.993C248.153 77.696 248.489 77.408 248.889 77.152L250.889 75.936C252.169 75.152 252.905 74.064 252.905 72.72C252.905 70.912 251.481 69.376 249.161 69.376C246.745 69.376 245.369 71.024 245.369 72.848C245.369 73.104 245.417 73.424 245.449 73.568L247.545 73.632ZM255.759 72.064C255.759 71.408 256.223 70.96 256.815 70.96C257.423 70.96 257.871 71.408 257.871 72.064C257.871 72.72 257.423 73.184 256.815 73.184C256.223 73.184 255.759 72.736 255.759 72.064ZM254.159 72.064C254.159 73.52 255.359 74.672 256.815 74.672C258.255 74.672 259.487 73.552 259.487 72.064C259.487 70.592 258.255 69.44 256.815 69.44C255.375 69.44 254.159 70.592 254.159 72.064ZM262.751 77.568C262.751 76.912 263.215 76.464 263.807 76.464C264.415 76.464 264.863 76.912 264.863 77.568C264.863 78.224 264.415 78.688 263.807 78.688C263.215 78.688 262.751 78.24 262.751 77.568ZM261.151 77.568C261.151 79.024 262.351 80.176 263.807 80.176C265.247 80.176 266.479 79.056 266.479 77.568C266.479 76.096 265.247 74.944 263.807 74.944C262.367 74.944 261.151 76.096 261.151 77.568ZM257.583 80L264.911 69.616H263.055L255.727 80H257.583Z" fill="#DA3979"/>
    <path d="M21.3423 69.616H13.4543V71.52H18.7983C18.7983 71.52 15.3263 74.416 14.8943 80H17.1823C17.6463 74.768 20.5583 72.128 21.3423 71.456V69.616ZM29.8736 69.616H21.9856V71.52H27.3296C27.3296 71.52 23.8576 74.416 23.4256 80H25.7136C26.1776 74.768 29.0896 72.128 29.8736 71.456V69.616ZM29.7594 78.656C29.7594 79.456 30.4154 80.112 31.2154 80.112C32.0314 80.112 32.6874 79.456 32.6874 78.656C32.6874 77.856 32.0314 77.2 31.2154 77.2C30.4154 77.2 29.7594 77.856 29.7594 78.656ZM38.0697 73.872C37.1097 73.872 36.5497 73.248 36.5497 72.512C36.5497 71.824 37.1097 71.2 38.0697 71.2C39.0457 71.2 39.6057 71.824 39.6057 72.512C39.6057 73.248 39.0457 73.872 38.0697 73.872ZM38.0697 78.416C36.9337 78.416 36.3257 77.712 36.3257 76.976C36.3257 76.224 36.9017 75.504 38.0697 75.504C39.2377 75.504 39.8297 76.224 39.8297 76.976C39.8297 77.712 39.2217 78.416 38.0697 78.416ZM38.0697 80.24C40.4377 80.24 41.9897 78.992 41.9897 77.2C41.9897 76.08 41.2537 75.072 40.1657 74.672C41.2057 74.288 41.7817 73.264 41.7817 72.352C41.7817 70.608 40.2297 69.376 38.0697 69.376C35.9097 69.376 34.3577 70.608 34.3577 72.352C34.3577 73.28 34.9497 74.288 35.9897 74.672C34.8857 75.088 34.1497 76.08 34.1497 77.2C34.1497 78.992 35.7017 80.24 38.0697 80.24ZM44.7589 72.064C44.7589 71.408 45.2229 70.96 45.8149 70.96C46.4229 70.96 46.8709 71.408 46.8709 72.064C46.8709 72.72 46.4229 73.184 45.8149 73.184C45.2229 73.184 44.7589 72.736 44.7589 72.064ZM43.1589 72.064C43.1589 73.52 44.3589 74.672 45.8149 74.672C47.2549 74.672 48.4869 73.552 48.4869 72.064C48.4869 70.592 47.2549 69.44 45.8149 69.44C44.3749 69.44 43.1589 70.592 43.1589 72.064ZM51.7509 77.568C51.7509 76.912 52.2149 76.464 52.8069 76.464C53.4149 76.464 53.8629 76.912 53.8629 77.568C53.8629 78.224 53.4149 78.688 52.8069 78.688C52.2149 78.688 51.7509 78.24 51.7509 77.568ZM50.1509 77.568C50.1509 79.024 51.3509 80.176 52.8069 80.176C54.2469 80.176 55.4789 79.056 55.4789 77.568C55.4789 76.096 54.2469 74.944 52.8069 74.944C51.3669 74.944 50.1509 76.096 50.1509 77.568ZM46.5829 80L53.9109 69.616H52.0549L44.7269 80H46.5829Z" fill="#3B00B9"/>
    <path d="M10.6176 186.619H9.90657V187.834L8.80857 187.447L8.60157 188.095L9.71757 188.464L9.00657 189.4L9.55557 189.814L10.2576 188.842L11.0046 189.823L11.5536 189.409L10.8156 188.464L11.9316 188.095L11.7246 187.447L10.6176 187.825V186.619ZM18.213 193.135C19.68 193.135 20.688 192.28 21.03 191.083L20.247 190.795C19.986 191.668 19.302 192.325 18.213 192.325C17.052 192.325 15.945 191.47 15.945 189.805C15.945 188.14 17.052 187.294 18.213 187.294C19.257 187.294 19.959 187.834 20.202 188.797L21.021 188.509C20.697 187.276 19.671 186.484 18.213 186.484C16.629 186.484 15.045 187.672 15.045 189.805C15.045 191.938 16.566 193.135 18.213 193.135ZM23.9464 192.379C23.2264 192.379 22.5964 191.839 22.5964 190.831C22.5964 189.832 23.2264 189.292 23.9464 189.292C24.6664 189.292 25.2964 189.832 25.2964 190.831C25.2964 191.839 24.6664 192.379 23.9464 192.379ZM23.9464 188.536C22.6504 188.536 21.7324 189.517 21.7324 190.831C21.7324 192.154 22.6504 193.135 23.9464 193.135C25.2424 193.135 26.1604 192.154 26.1604 190.831C26.1604 189.517 25.2424 188.536 23.9464 188.536ZM28.0781 193V190.39C28.0781 189.742 28.4831 189.292 29.0861 189.292C29.7341 189.292 30.0041 189.724 30.0041 190.282V193H30.8501V190.381C30.8501 189.76 31.2551 189.292 31.8491 189.292C32.4881 189.292 32.7671 189.715 32.7671 190.282V193H33.6041V190.192C33.6041 189.058 32.8661 188.545 32.1101 188.545C31.5611 188.545 31.0031 188.743 30.6611 189.364C30.4271 188.806 29.9051 188.545 29.3651 188.545C28.8611 188.545 28.3211 188.77 28.0511 189.247V188.671H27.2411V193H28.0781ZM35.7598 193V190.39C35.7598 189.742 36.1648 189.292 36.7678 189.292C37.4158 189.292 37.6858 189.724 37.6858 190.282V193H38.5318V190.381C38.5318 189.76 38.9368 189.292 39.5308 189.292C40.1698 189.292 40.4488 189.715 40.4488 190.282V193H41.2858V190.192C41.2858 189.058 40.5478 188.545 39.7918 188.545C39.2428 188.545 38.6848 188.743 38.3428 189.364C38.1088 188.806 37.5868 188.545 37.0468 188.545C36.5428 188.545 36.0028 188.77 35.7328 189.247V188.671H34.9228V193H35.7598ZM45.4574 192.478C45.4574 192.658 45.4754 192.901 45.4934 193H46.3034C46.2854 192.847 46.2584 192.541 46.2584 192.199V188.671H45.4124V191.281C45.4124 191.938 45.0704 192.388 44.3864 192.388C43.6754 192.388 43.4054 191.866 43.4054 191.272V188.671H42.5594V191.398C42.5594 192.379 43.1714 193.135 44.1794 193.135C44.6834 193.135 45.2234 192.928 45.4574 192.478ZM48.4778 190.498C48.4778 189.841 48.8198 189.31 49.4858 189.31C50.2418 189.31 50.4938 189.796 50.4938 190.399V193H51.3398V190.255C51.3398 189.292 50.8268 188.545 49.7918 188.545C49.2878 188.545 48.7748 188.752 48.4598 189.292V188.671H47.6318V193H48.4778V190.498ZM53.4961 193V188.671H52.6591V193H53.4961ZM52.4701 187.033C52.4701 187.366 52.7401 187.636 53.0731 187.636C53.4151 187.636 53.6851 187.366 53.6851 187.033C53.6851 186.691 53.4151 186.421 53.0731 186.421C52.7401 186.421 52.4701 186.691 52.4701 187.033ZM56.0442 187.303H55.2702V188.005C55.2702 188.383 55.0722 188.671 54.6042 188.671H54.3702V189.436H55.1982V191.812C55.1982 192.595 55.6662 193.045 56.4042 193.045C56.6922 193.045 56.9082 192.991 56.9802 192.964V192.244C56.9082 192.262 56.7552 192.28 56.6472 192.28C56.2062 192.28 56.0442 192.082 56.0442 191.686V189.436H56.9802V188.671H56.0442V187.303ZM59.1913 194.809L62.0083 188.671H61.0993L59.8033 191.659L58.4533 188.671H57.4813L59.3443 192.523L58.2643 194.809H59.1913ZM62.2088 192.424C62.2088 192.811 62.4788 193.036 62.8118 193.036C62.9108 193.036 62.9828 193.009 63.0098 192.991C63.0008 193.423 62.7038 193.864 62.2628 193.963V194.431C62.8208 194.359 63.5948 193.864 63.5948 192.676C63.5948 192.109 63.2528 191.821 62.8658 191.821C62.4878 191.821 62.2088 192.1 62.2088 192.424ZM67.9016 190.498C67.9016 189.841 68.2436 189.31 68.9096 189.31C69.6656 189.31 69.9176 189.796 69.9176 190.399V193H70.7636V190.255C70.7636 189.292 70.2506 188.545 69.2156 188.545C68.7116 188.545 68.1986 188.752 67.8836 189.292V188.671H67.0556V193H67.9016V190.498ZM74.0089 192.379C73.2889 192.379 72.6589 191.839 72.6589 190.831C72.6589 189.832 73.2889 189.292 74.0089 189.292C74.7289 189.292 75.3589 189.832 75.3589 190.831C75.3589 191.839 74.7289 192.379 74.0089 192.379ZM74.0089 188.536C72.7129 188.536 71.7949 189.517 71.7949 190.831C71.7949 192.154 72.7129 193.135 74.0089 193.135C75.3049 193.135 76.2229 192.154 76.2229 190.831C76.2229 189.517 75.3049 188.536 74.0089 188.536ZM77.8886 190.822C77.8886 189.931 78.3926 189.301 79.1666 189.301C79.9406 189.301 80.4086 189.913 80.4086 190.804C80.4086 191.695 79.9316 192.37 79.1576 192.37C78.3476 192.37 77.8886 191.713 77.8886 190.822ZM80.4176 192.415C80.4176 192.676 80.4446 192.901 80.4626 193H81.2816C81.2726 192.928 81.2366 192.613 81.2366 192.199V186.484H80.3996V189.283C80.2556 188.932 79.8416 188.554 79.0766 188.554C77.8526 188.554 77.0246 189.598 77.0246 190.822C77.0246 192.109 77.8076 193.117 79.0766 193.117C79.7516 193.117 80.2106 192.757 80.4176 192.343V192.415ZM83.2242 190.39C83.2602 189.832 83.6922 189.283 84.4032 189.283C85.1682 189.283 85.5732 189.769 85.5912 190.39H83.2242ZM85.7172 191.515C85.5552 192.001 85.2042 192.388 84.5022 192.388C83.7732 192.388 83.2152 191.848 83.1972 191.074H86.4552C86.4642 191.02 86.4732 190.912 86.4732 190.804C86.4732 189.454 85.7262 188.536 84.3942 188.536C83.3052 188.536 82.3242 189.463 82.3242 190.822C82.3242 192.289 83.3412 193.135 84.5022 193.135C85.5102 193.135 86.2032 192.532 86.4462 191.767L85.7172 191.515ZM90.6387 194.71V192.415C90.8727 192.802 91.3767 193.117 92.0427 193.117C93.3117 193.117 94.0587 192.118 94.0587 190.831C94.0587 189.571 93.3657 188.572 92.0697 188.572C91.3677 188.572 90.8547 188.914 90.6207 189.346V188.671H89.8017V194.71H90.6387ZM93.1947 190.831C93.1947 191.722 92.6997 192.361 91.9167 192.361C91.1427 192.361 90.6297 191.722 90.6297 190.831C90.6297 189.967 91.1427 189.319 91.9167 189.319C92.7087 189.319 93.1947 189.967 93.1947 190.831ZM97.5484 188.626C97.5034 188.617 97.3864 188.599 97.2694 188.599C96.8284 188.599 96.2884 188.761 95.9734 189.427V188.671H95.1454V193H95.9914V190.831C95.9914 189.877 96.4684 189.499 97.1794 189.499C97.2964 189.499 97.4224 189.508 97.5484 189.526V188.626ZM100.262 192.379C99.5419 192.379 98.9119 191.839 98.9119 190.831C98.9119 189.832 99.5419 189.292 100.262 189.292C100.982 189.292 101.612 189.832 101.612 190.831C101.612 191.839 100.982 192.379 100.262 192.379ZM100.262 188.536C98.9659 188.536 98.0479 189.517 98.0479 190.831C98.0479 192.154 98.9659 193.135 100.262 193.135C101.558 193.135 102.476 192.154 102.476 190.831C102.476 189.517 101.558 188.536 100.262 188.536ZM107.259 188.671H106.35L105.108 192.01L103.875 188.671H102.921L104.676 193H105.531L107.259 188.671ZM108.999 193V188.671H108.162V193H108.999ZM107.973 187.033C107.973 187.366 108.243 187.636 108.576 187.636C108.918 187.636 109.188 187.366 109.188 187.033C109.188 186.691 108.918 186.421 108.576 186.421C108.243 186.421 107.973 186.691 107.973 187.033ZM110.953 190.822C110.953 189.931 111.457 189.301 112.231 189.301C113.005 189.301 113.473 189.913 113.473 190.804C113.473 191.695 112.996 192.37 112.222 192.37C111.412 192.37 110.953 191.713 110.953 190.822ZM113.482 192.415C113.482 192.676 113.509 192.901 113.527 193H114.346C114.337 192.928 114.301 192.613 114.301 192.199V186.484H113.464V189.283C113.32 188.932 112.906 188.554 112.141 188.554C110.917 188.554 110.089 189.598 110.089 190.822C110.089 192.109 110.872 193.117 112.141 193.117C112.816 193.117 113.275 192.757 113.482 192.343V192.415ZM116.289 190.39C116.325 189.832 116.757 189.283 117.468 189.283C118.233 189.283 118.638 189.769 118.656 190.39H116.289ZM118.782 191.515C118.62 192.001 118.269 192.388 117.567 192.388C116.838 192.388 116.28 191.848 116.262 191.074H119.52C119.529 191.02 119.538 190.912 119.538 190.804C119.538 189.454 118.791 188.536 117.459 188.536C116.37 188.536 115.389 189.463 115.389 190.822C115.389 192.289 116.406 193.135 117.567 193.135C118.575 193.135 119.268 192.532 119.511 191.767L118.782 191.515ZM123.002 188.626C122.957 188.617 122.84 188.599 122.723 188.599C122.282 188.599 121.742 188.761 121.427 189.427V188.671H120.599V193H121.445V190.831C121.445 189.877 121.922 189.499 122.633 189.499C122.75 189.499 122.876 189.508 123.002 189.526V188.626ZM123.526 191.875C123.598 192.37 124.102 193.135 125.29 193.135C126.361 193.135 126.874 192.406 126.874 191.794C126.874 191.155 126.46 190.678 125.677 190.507L124.975 190.354C124.642 190.282 124.48 190.093 124.48 189.832C124.48 189.535 124.768 189.256 125.2 189.256C125.884 189.256 126.064 189.751 126.1 189.976L126.847 189.697C126.757 189.31 126.388 188.536 125.2 188.536C124.354 188.536 123.661 189.166 123.661 189.904C123.661 190.516 124.066 190.975 124.741 191.119L125.479 191.281C125.839 191.362 126.037 191.569 126.037 191.839C126.037 192.145 125.776 192.415 125.299 192.415C124.687 192.415 124.345 192.055 124.291 191.605L123.526 191.875ZM127.793 192.424C127.793 192.811 128.063 193.036 128.396 193.036C128.495 193.036 128.567 193.009 128.594 192.991C128.585 193.423 128.288 193.864 127.847 193.963V194.431C128.405 194.359 129.179 193.864 129.179 192.676C129.179 192.109 128.837 191.821 128.45 191.821C128.072 191.821 127.793 192.1 127.793 192.424ZM133.225 190.822C133.225 189.931 133.729 189.301 134.503 189.301C135.277 189.301 135.745 189.913 135.745 190.804C135.745 191.695 135.268 192.37 134.494 192.37C133.684 192.37 133.225 191.713 133.225 190.822ZM135.754 192.415C135.754 192.676 135.781 192.901 135.799 193H136.618C136.609 192.928 136.573 192.613 136.573 192.199V186.484H135.736V189.283C135.592 188.932 135.178 188.554 134.413 188.554C133.189 188.554 132.361 189.598 132.361 190.822C132.361 192.109 133.144 193.117 134.413 193.117C135.088 193.117 135.547 192.757 135.754 192.343V192.415ZM138.56 190.39C138.596 189.832 139.028 189.283 139.739 189.283C140.504 189.283 140.909 189.769 140.927 190.39H138.56ZM141.053 191.515C140.891 192.001 140.54 192.388 139.838 192.388C139.109 192.388 138.551 191.848 138.533 191.074H141.791C141.8 191.02 141.809 190.912 141.809 190.804C141.809 189.454 141.062 188.536 139.73 188.536C138.641 188.536 137.66 189.463 137.66 190.822C137.66 192.289 138.677 193.135 139.838 193.135C140.846 193.135 141.539 192.532 141.782 191.767L141.053 191.515ZM146.573 188.671H145.664L144.422 192.01L143.189 188.671H142.235L143.99 193H144.845L146.573 188.671ZM147.938 190.39C147.974 189.832 148.406 189.283 149.117 189.283C149.882 189.283 150.287 189.769 150.305 190.39H147.938ZM150.431 191.515C150.269 192.001 149.918 192.388 149.216 192.388C148.487 192.388 147.929 191.848 147.911 191.074H151.169C151.178 191.02 151.187 190.912 151.187 190.804C151.187 189.454 150.44 188.536 149.108 188.536C148.019 188.536 147.038 189.463 147.038 190.822C147.038 192.289 148.055 193.135 149.216 193.135C150.224 193.135 150.917 192.532 151.16 191.767L150.431 191.515ZM153.094 193V186.484H152.248V193H153.094ZM156.389 192.379C155.669 192.379 155.039 191.839 155.039 190.831C155.039 189.832 155.669 189.292 156.389 189.292C157.109 189.292 157.739 189.832 157.739 190.831C157.739 191.839 157.109 192.379 156.389 192.379ZM156.389 188.536C155.093 188.536 154.175 189.517 154.175 190.831C154.175 192.154 155.093 193.135 156.389 193.135C157.685 193.135 158.603 192.154 158.603 190.831C158.603 189.517 157.685 188.536 156.389 188.536ZM160.521 194.71V192.415C160.755 192.802 161.259 193.117 161.925 193.117C163.194 193.117 163.941 192.118 163.941 190.831C163.941 189.571 163.248 188.572 161.952 188.572C161.25 188.572 160.737 188.914 160.503 189.346V188.671H159.684V194.71H160.521ZM163.077 190.831C163.077 191.722 162.582 192.361 161.799 192.361C161.025 192.361 160.512 191.722 160.512 190.831C160.512 189.967 161.025 189.319 161.799 189.319C162.591 189.319 163.077 189.967 163.077 190.831ZM165.639 190.39C165.675 189.832 166.107 189.283 166.818 189.283C167.583 189.283 167.988 189.769 168.006 190.39H165.639ZM168.132 191.515C167.97 192.001 167.619 192.388 166.917 192.388C166.188 192.388 165.63 191.848 165.612 191.074H168.87C168.879 191.02 168.888 190.912 168.888 190.804C168.888 189.454 168.141 188.536 166.809 188.536C165.72 188.536 164.739 189.463 164.739 190.822C164.739 192.289 165.756 193.135 166.917 193.135C167.925 193.135 168.618 192.532 168.861 191.767L168.132 191.515ZM172.352 188.626C172.307 188.617 172.19 188.599 172.073 188.599C171.632 188.599 171.092 188.761 170.777 189.427V188.671H169.949V193H170.795V190.831C170.795 189.877 171.272 189.499 171.983 189.499C172.1 189.499 172.226 189.508 172.352 189.526V188.626ZM172.877 191.875C172.949 192.37 173.453 193.135 174.641 193.135C175.712 193.135 176.225 192.406 176.225 191.794C176.225 191.155 175.811 190.678 175.028 190.507L174.326 190.354C173.993 190.282 173.831 190.093 173.831 189.832C173.831 189.535 174.119 189.256 174.551 189.256C175.235 189.256 175.415 189.751 175.451 189.976L176.198 189.697C176.108 189.31 175.739 188.536 174.551 188.536C173.705 188.536 173.012 189.166 173.012 189.904C173.012 190.516 173.417 190.975 174.092 191.119L174.83 191.281C175.19 191.362 175.388 191.569 175.388 191.839C175.388 192.145 175.127 192.415 174.65 192.415C174.038 192.415 173.696 192.055 173.642 191.605L172.877 191.875ZM179.294 191.839C179.294 192.523 179.861 193.135 180.743 193.135C181.517 193.135 181.949 192.721 182.138 192.415C182.138 192.73 182.165 192.892 182.183 193H183.011C182.993 192.892 182.957 192.667 182.957 192.289V190.12C182.957 189.274 182.453 188.536 181.157 188.536C180.221 188.536 179.474 189.112 179.384 189.94L180.194 190.129C180.248 189.625 180.581 189.256 181.175 189.256C181.832 189.256 182.111 189.607 182.111 190.03C182.111 190.183 182.039 190.318 181.778 190.354L180.608 190.525C179.861 190.633 179.294 191.065 179.294 191.839ZM180.86 192.424C180.428 192.424 180.158 192.118 180.158 191.794C180.158 191.407 180.428 191.2 180.788 191.146L182.111 190.948V191.146C182.111 192.091 181.553 192.424 180.86 192.424ZM185.139 190.498C185.139 189.841 185.481 189.31 186.147 189.31C186.903 189.31 187.155 189.796 187.155 190.399V193H188.001V190.255C188.001 189.292 187.488 188.545 186.453 188.545C185.949 188.545 185.436 188.752 185.121 189.292V188.671H184.293V193H185.139V190.498ZM189.905 190.822C189.905 189.931 190.409 189.301 191.183 189.301C191.957 189.301 192.425 189.913 192.425 190.804C192.425 191.695 191.948 192.37 191.174 192.37C190.364 192.37 189.905 191.713 189.905 190.822ZM192.434 192.415C192.434 192.676 192.461 192.901 192.479 193H193.298C193.289 192.928 193.253 192.613 193.253 192.199V186.484H192.416V189.283C192.272 188.932 191.858 188.554 191.093 188.554C189.869 188.554 189.041 189.598 189.041 190.822C189.041 192.109 189.824 193.117 191.093 193.117C191.768 193.117 192.227 192.757 192.434 192.343V192.415ZM197.908 187.303H197.134V188.005C197.134 188.383 196.936 188.671 196.468 188.671H196.234V189.436H197.062V191.812C197.062 192.595 197.53 193.045 198.268 193.045C198.556 193.045 198.772 192.991 198.844 192.964V192.244C198.772 192.262 198.619 192.28 198.511 192.28C198.07 192.28 197.908 192.082 197.908 191.686V189.436H198.844V188.671H197.908V187.303ZM200.696 190.453C200.714 189.814 201.056 189.31 201.704 189.31C202.46 189.31 202.712 189.796 202.712 190.399V193H203.558V190.255C203.558 189.292 203.045 188.545 202.01 188.545C201.515 188.545 201.011 188.716 200.696 189.175V186.484H199.85V193H200.696V190.453ZM205.489 190.39C205.525 189.832 205.957 189.283 206.668 189.283C207.433 189.283 207.838 189.769 207.856 190.39H205.489ZM207.982 191.515C207.82 192.001 207.469 192.388 206.767 192.388C206.038 192.388 205.48 191.848 205.462 191.074H208.72C208.729 191.02 208.738 190.912 208.738 190.804C208.738 189.454 207.991 188.536 206.659 188.536C205.57 188.536 204.589 189.463 204.589 190.822C204.589 192.289 205.606 193.135 206.767 193.135C207.775 193.135 208.468 192.532 208.711 191.767L207.982 191.515ZM213.137 193V186.619H212.237V193H213.137ZM217.602 193.135C219.069 193.135 220.077 192.28 220.419 191.083L219.636 190.795C219.375 191.668 218.691 192.325 217.602 192.325C216.441 192.325 215.334 191.47 215.334 189.805C215.334 188.14 216.441 187.294 217.602 187.294C218.646 187.294 219.348 187.834 219.591 188.797L220.41 188.509C220.086 187.276 219.06 186.484 217.602 186.484C216.018 186.484 214.434 187.672 214.434 189.805C214.434 191.938 215.955 193.135 217.602 193.135ZM228.021 193H228.975L226.437 186.619H225.42L222.882 193H223.827L224.502 191.218H227.328L228.021 193ZM225.906 187.537L227.013 190.399H224.817L225.906 187.537ZM229.417 191.875C229.489 192.37 229.993 193.135 231.181 193.135C232.252 193.135 232.765 192.406 232.765 191.794C232.765 191.155 232.351 190.678 231.568 190.507L230.866 190.354C230.533 190.282 230.371 190.093 230.371 189.832C230.371 189.535 230.659 189.256 231.091 189.256C231.775 189.256 231.955 189.751 231.991 189.976L232.738 189.697C232.648 189.31 232.279 188.536 231.091 188.536C230.245 188.536 229.552 189.166 229.552 189.904C229.552 190.516 229.957 190.975 230.632 191.119L231.37 191.281C231.73 191.362 231.928 191.569 231.928 191.839C231.928 192.145 231.667 192.415 231.19 192.415C230.578 192.415 230.236 192.055 230.182 191.605L229.417 191.875ZM233.512 191.875C233.584 192.37 234.088 193.135 235.276 193.135C236.347 193.135 236.86 192.406 236.86 191.794C236.86 191.155 236.446 190.678 235.663 190.507L234.961 190.354C234.628 190.282 234.466 190.093 234.466 189.832C234.466 189.535 234.754 189.256 235.186 189.256C235.87 189.256 236.05 189.751 236.086 189.976L236.833 189.697C236.743 189.31 236.374 188.536 235.186 188.536C234.34 188.536 233.647 189.166 233.647 189.904C233.647 190.516 234.052 190.975 234.727 191.119L235.465 191.281C235.825 191.362 236.023 191.569 236.023 191.839C236.023 192.145 235.762 192.415 235.285 192.415C234.673 192.415 234.331 192.055 234.277 191.605L233.512 191.875ZM239.876 192.379C239.156 192.379 238.526 191.839 238.526 190.831C238.526 189.832 239.156 189.292 239.876 189.292C240.596 189.292 241.226 189.832 241.226 190.831C241.226 191.839 240.596 192.379 239.876 192.379ZM239.876 188.536C238.58 188.536 237.662 189.517 237.662 190.831C237.662 192.154 238.58 193.135 239.876 193.135C241.172 193.135 242.09 192.154 242.09 190.831C242.09 189.517 241.172 188.536 239.876 188.536ZM245.061 189.319C245.799 189.319 246.114 189.814 246.222 190.237L246.987 189.913C246.807 189.256 246.213 188.536 245.061 188.536C243.828 188.536 242.883 189.481 242.883 190.831C242.883 192.145 243.81 193.135 245.07 193.135C246.195 193.135 246.816 192.406 247.023 191.785L246.276 191.461C246.177 191.803 245.88 192.352 245.07 192.352C244.368 192.352 243.747 191.821 243.747 190.831C243.747 189.823 244.377 189.319 245.061 189.319ZM248.859 193V188.671H248.022V193H248.859ZM247.833 187.033C247.833 187.366 248.103 187.636 248.436 187.636C248.778 187.636 249.048 187.366 249.048 187.033C249.048 186.691 248.778 186.421 248.436 186.421C248.103 186.421 247.833 186.691 247.833 187.033ZM249.94 191.839C249.94 192.523 250.507 193.135 251.389 193.135C252.163 193.135 252.595 192.721 252.784 192.415C252.784 192.73 252.811 192.892 252.829 193H253.657C253.639 192.892 253.603 192.667 253.603 192.289V190.12C253.603 189.274 253.099 188.536 251.803 188.536C250.867 188.536 250.12 189.112 250.03 189.94L250.84 190.129C250.894 189.625 251.227 189.256 251.821 189.256C252.478 189.256 252.757 189.607 252.757 190.03C252.757 190.183 252.685 190.318 252.424 190.354L251.254 190.525C250.507 190.633 249.94 191.065 249.94 191.839ZM251.506 192.424C251.074 192.424 250.804 192.118 250.804 191.794C250.804 191.407 251.074 191.2 251.434 191.146L252.757 190.948V191.146C252.757 192.091 252.199 192.424 251.506 192.424ZM256.083 187.303H255.309V188.005C255.309 188.383 255.111 188.671 254.643 188.671H254.409V189.436H255.237V191.812C255.237 192.595 255.705 193.045 256.443 193.045C256.731 193.045 256.947 192.991 257.019 192.964V192.244C256.947 192.262 256.794 192.28 256.686 192.28C256.245 192.28 256.083 192.082 256.083 191.686V189.436H257.019V188.671H256.083V187.303ZM258.861 193V188.671H258.024V193H258.861ZM257.835 187.033C257.835 187.366 258.105 187.636 258.438 187.636C258.78 187.636 259.05 187.366 259.05 187.033C259.05 186.691 258.78 186.421 258.438 186.421C258.105 186.421 257.835 186.691 257.835 187.033ZM262.156 192.379C261.436 192.379 260.806 191.839 260.806 190.831C260.806 189.832 261.436 189.292 262.156 189.292C262.876 189.292 263.506 189.832 263.506 190.831C263.506 191.839 262.876 192.379 262.156 192.379ZM262.156 188.536C260.86 188.536 259.942 189.517 259.942 190.831C259.942 192.154 260.86 193.135 262.156 193.135C263.452 193.135 264.37 192.154 264.37 190.831C264.37 189.517 263.452 188.536 262.156 188.536ZM266.297 190.498C266.297 189.841 266.639 189.31 267.305 189.31C268.061 189.31 268.313 189.796 268.313 190.399V193H269.159V190.255C269.159 189.292 268.646 188.545 267.611 188.545C267.107 188.545 266.594 188.752 266.279 189.292V188.671H265.451V193H266.297V190.498Z" fill="#181818"/>
    <circle cx="55" cy="165" r="6" fill="#3B00B9"/>
    <path d="M68.754 168.135C70.221 168.135 71.229 167.28 71.571 166.083L70.788 165.795C70.527 166.668 69.843 167.325 68.754 167.325C67.593 167.325 66.486 166.47 66.486 164.805C66.486 163.14 67.593 162.294 68.754 162.294C69.798 162.294 70.5 162.834 70.743 163.797L71.562 163.509C71.238 162.276 70.212 161.484 68.754 161.484C67.17 161.484 65.586 162.672 65.586 164.805C65.586 166.938 67.107 168.135 68.754 168.135ZM74.4874 167.379C73.7674 167.379 73.1374 166.839 73.1374 165.831C73.1374 164.832 73.7674 164.292 74.4874 164.292C75.2074 164.292 75.8374 164.832 75.8374 165.831C75.8374 166.839 75.2074 167.379 74.4874 167.379ZM74.4874 163.536C73.1914 163.536 72.2734 164.517 72.2734 165.831C72.2734 167.154 73.1914 168.135 74.4874 168.135C75.7834 168.135 76.7014 167.154 76.7014 165.831C76.7014 164.517 75.7834 163.536 74.4874 163.536ZM78.6191 168V165.39C78.6191 164.742 79.0241 164.292 79.6271 164.292C80.2751 164.292 80.5451 164.724 80.5451 165.282V168H81.3911V165.381C81.3911 164.76 81.7961 164.292 82.3901 164.292C83.0291 164.292 83.3081 164.715 83.3081 165.282V168H84.1451V165.192C84.1451 164.058 83.4071 163.545 82.6511 163.545C82.1021 163.545 81.5441 163.743 81.2021 164.364C80.9681 163.806 80.4461 163.545 79.9061 163.545C79.4021 163.545 78.8621 163.77 78.5921 164.247V163.671H77.7821V168H78.6191ZM86.3008 168V165.39C86.3008 164.742 86.7058 164.292 87.3088 164.292C87.9568 164.292 88.2268 164.724 88.2268 165.282V168H89.0728V165.381C89.0728 164.76 89.4778 164.292 90.0718 164.292C90.7108 164.292 90.9898 164.715 90.9898 165.282V168H91.8268V165.192C91.8268 164.058 91.0888 163.545 90.3328 163.545C89.7838 163.545 89.2258 163.743 88.8838 164.364C88.6498 163.806 88.1278 163.545 87.5878 163.545C87.0838 163.545 86.5438 163.77 86.2738 164.247V163.671H85.4638V168H86.3008ZM95.9984 167.478C95.9984 167.658 96.0164 167.901 96.0344 168H96.8444C96.8264 167.847 96.7994 167.541 96.7994 167.199V163.671H95.9534V166.281C95.9534 166.938 95.6114 167.388 94.9274 167.388C94.2164 167.388 93.9464 166.866 93.9464 166.272V163.671H93.1004V166.398C93.1004 167.379 93.7124 168.135 94.7204 168.135C95.2244 168.135 95.7644 167.928 95.9984 167.478ZM99.0188 165.498C99.0188 164.841 99.3608 164.31 100.027 164.31C100.783 164.31 101.035 164.796 101.035 165.399V168H101.881V165.255C101.881 164.292 101.368 163.545 100.333 163.545C99.8288 163.545 99.3158 163.752 99.0008 164.292V163.671H98.1728V168H99.0188V165.498ZM104.037 168V163.671H103.2V168H104.037ZM103.011 162.033C103.011 162.366 103.281 162.636 103.614 162.636C103.956 162.636 104.226 162.366 104.226 162.033C104.226 161.691 103.956 161.421 103.614 161.421C103.281 161.421 103.011 161.691 103.011 162.033ZM106.585 162.303H105.811V163.005C105.811 163.383 105.613 163.671 105.145 163.671H104.911V164.436H105.739V166.812C105.739 167.595 106.207 168.045 106.945 168.045C107.233 168.045 107.449 167.991 107.521 167.964V167.244C107.449 167.262 107.296 167.28 107.188 167.28C106.747 167.28 106.585 167.082 106.585 166.686V164.436H107.521V163.671H106.585V162.303ZM109.732 169.809L112.549 163.671H111.64L110.344 166.659L108.994 163.671H108.022L109.885 167.523L108.805 169.809H109.732ZM117.136 161.619H116.425V162.834L115.327 162.447L115.12 163.095L116.236 163.464L115.525 164.4L116.074 164.814L116.776 163.842L117.523 164.823L118.072 164.409L117.334 163.464L118.45 163.095L118.243 162.447L117.136 162.825V161.619Z" fill="#181818"/>
    <circle cx="137" cy="165" r="6" fill="#DA3979"/>
    <path d="M148.819 167.217V162.402H150.142C151.321 162.402 152.293 163.212 152.293 164.823C152.293 166.425 151.303 167.217 150.124 167.217H148.819ZM150.151 168C151.771 168 153.202 166.911 153.202 164.823C153.202 162.726 151.789 161.619 150.169 161.619H147.937V168H150.151ZM155.393 168V165.318H158.111V164.49H155.393V162.438H158.39V161.619H154.511V168H155.393ZM160.552 168V161.619H159.652V168H160.552ZM167.51 168V161.619H166.628V166.515L163.442 161.619H162.263V168H163.145V162.798L166.592 168H167.51ZM170.124 168V161.619H169.224V168H170.124ZM176.289 162.438V161.619H171.141V162.438H173.274V168H174.156V162.438H176.289ZM178.903 165.273V168H179.785V165.273L182.035 161.619H181.027L179.371 164.463L177.715 161.619H176.653L178.903 165.273ZM185.917 168V165.318H188.635V164.49H185.917V162.438H188.914V161.619H185.035V168H185.917ZM191.694 167.379C190.974 167.379 190.344 166.839 190.344 165.831C190.344 164.832 190.974 164.292 191.694 164.292C192.414 164.292 193.044 164.832 193.044 165.831C193.044 166.839 192.414 167.379 191.694 167.379ZM191.694 163.536C190.398 163.536 189.48 164.517 189.48 165.831C189.48 167.154 190.398 168.135 191.694 168.135C192.99 168.135 193.908 167.154 193.908 165.831C193.908 164.517 192.99 163.536 191.694 163.536ZM197.842 167.478C197.842 167.658 197.86 167.901 197.878 168H198.688C198.67 167.847 198.643 167.541 198.643 167.199V163.671H197.797V166.281C197.797 166.938 197.455 167.388 196.771 167.388C196.06 167.388 195.79 166.866 195.79 166.272V163.671H194.944V166.398C194.944 167.379 195.556 168.135 196.564 168.135C197.068 168.135 197.608 167.928 197.842 167.478ZM200.863 165.498C200.863 164.841 201.205 164.31 201.871 164.31C202.627 164.31 202.879 164.796 202.879 165.399V168H203.725V165.255C203.725 164.292 203.212 163.545 202.177 163.545C201.673 163.545 201.16 163.752 200.845 164.292V163.671H200.017V168H200.863V165.498ZM205.629 165.822C205.629 164.931 206.133 164.301 206.907 164.301C207.681 164.301 208.149 164.913 208.149 165.804C208.149 166.695 207.672 167.37 206.898 167.37C206.088 167.37 205.629 166.713 205.629 165.822ZM208.158 167.415C208.158 167.676 208.185 167.901 208.203 168H209.022C209.013 167.928 208.977 167.613 208.977 167.199V161.484H208.14V164.283C207.996 163.932 207.582 163.554 206.817 163.554C205.593 163.554 204.765 164.598 204.765 165.822C204.765 167.109 205.548 168.117 206.817 168.117C207.492 168.117 207.951 167.757 208.158 167.343V167.415ZM210.064 166.839C210.064 167.523 210.631 168.135 211.513 168.135C212.287 168.135 212.719 167.721 212.908 167.415C212.908 167.73 212.935 167.892 212.953 168H213.781C213.763 167.892 213.727 167.667 213.727 167.289V165.12C213.727 164.274 213.223 163.536 211.927 163.536C210.991 163.536 210.244 164.112 210.154 164.94L210.964 165.129C211.018 164.625 211.351 164.256 211.945 164.256C212.602 164.256 212.881 164.607 212.881 165.03C212.881 165.183 212.809 165.318 212.548 165.354L211.378 165.525C210.631 165.633 210.064 166.065 210.064 166.839ZM211.63 167.424C211.198 167.424 210.928 167.118 210.928 166.794C210.928 166.407 211.198 166.2 211.558 166.146L212.881 165.948V166.146C212.881 167.091 212.323 167.424 211.63 167.424ZM216.207 162.303H215.433V163.005C215.433 163.383 215.235 163.671 214.767 163.671H214.533V164.436H215.361V166.812C215.361 167.595 215.829 168.045 216.567 168.045C216.855 168.045 217.071 167.991 217.143 167.964V167.244C217.071 167.262 216.918 167.28 216.81 167.28C216.369 167.28 216.207 167.082 216.207 166.686V164.436H217.143V163.671H216.207V162.303ZM218.985 168V163.671H218.148V168H218.985ZM217.959 162.033C217.959 162.366 218.229 162.636 218.562 162.636C218.904 162.636 219.174 162.366 219.174 162.033C219.174 161.691 218.904 161.421 218.562 161.421C218.229 161.421 217.959 161.691 217.959 162.033ZM222.28 167.379C221.56 167.379 220.93 166.839 220.93 165.831C220.93 164.832 221.56 164.292 222.28 164.292C223 164.292 223.63 164.832 223.63 165.831C223.63 166.839 223 167.379 222.28 167.379ZM222.28 163.536C220.984 163.536 220.066 164.517 220.066 165.831C220.066 167.154 220.984 168.135 222.28 168.135C223.576 168.135 224.494 167.154 224.494 165.831C224.494 164.517 223.576 163.536 222.28 163.536ZM226.421 165.498C226.421 164.841 226.763 164.31 227.429 164.31C228.185 164.31 228.437 164.796 228.437 165.399V168H229.283V165.255C229.283 164.292 228.77 163.545 227.735 163.545C227.231 163.545 226.718 163.752 226.403 164.292V163.671H225.575V168H226.421V165.498Z" fill="#181818"/>
</svg>
