<svg viewBox="0 0 279 200" fill="none" xmlns="http://www.w3.org/2000/svg">
    <path opacity="0.5" d="M41.6421 135.55C28.3947 140.244 8.52344 143.766 8.52344 143.766V157H273.473V27.5684L240.354 42.8266L207.236 58.0848C193.988 64.1881 187.364 67.005 174.117 73.343C160.869 79.6811 154.246 83.4369 140.998 89.775C127.751 96.113 121.127 98.9299 107.88 105.033L74.7608 120.291C61.5134 126.395 54.8896 130.855 41.6421 135.55Z" fill="url(#paint0_linear_1030_37895)"/>
    <path d="M8.52344 143.454C8.52344 143.454 28.3947 139.943 41.6421 135.26C54.8896 130.578 61.5134 126.13 74.7609 120.043C88.0083 113.956 94.6321 110.913 107.88 104.826C121.127 98.7388 127.751 95.9294 140.998 89.6084C154.246 83.2873 160.869 79.5415 174.117 73.2204C187.364 66.8994 193.988 64.09 207.236 58.0031C220.483 51.9161 227.107 48.8727 240.354 42.7857C253.602 36.6988 273.473 27.5684 273.473 27.5684" stroke="#3B00B9" stroke-width="1.0036"/>
    <g filter="url(#filter0_b_1030_37895)">
        <path d="M8.52331 145.461C7.99105 145.461 7.48059 145.25 7.10418 144.874C6.72778 144.497 6.51625 143.987 6.51611 143.455C6.51598 142.923 6.72726 142.412 7.10347 142.036C7.47969 141.66 7.99005 141.448 8.5223 141.448C9.05456 141.447 9.56513 141.659 9.94172 142.035C10.3183 142.411 10.5301 142.921 10.5305 143.453C10.5309 143.985 10.3199 144.496 9.94385 144.872C9.56782 145.249 9.05757 145.461 8.52531 145.461H8.52331Z" fill="#3B00B9" fill-opacity="0.5"/>
        <path d="M8.52331 144.959C8.12408 144.959 7.74122 144.801 7.45892 144.519C7.17663 144.236 7.01801 143.854 7.01791 143.455C7.01781 143.056 7.17624 142.673 7.45839 142.391C7.74054 142.108 8.12332 141.95 8.52255 141.95C8.92179 141.949 9.30473 142.108 9.58716 142.39C9.8696 142.672 10.0284 143.054 10.0287 143.453C10.029 143.852 9.87077 144.235 9.58876 144.518C9.3068 144.8 8.92419 144.959 8.52504 144.959C8.52496 144.959 8.52489 144.959 8.52481 144.959L8.52331 144.959Z" stroke="#3B00B9" stroke-width="1.0036"/>
    </g>
    <g filter="url(#filter1_b_1030_37895)">
        <path d="M40.6383 137.435C40.106 137.435 39.5956 137.223 39.2192 136.847C38.8428 136.471 38.6312 135.961 38.6311 135.429C38.631 134.896 38.8422 134.386 39.2185 134.01C39.5947 133.633 40.105 133.422 40.6373 133.421C41.1695 133.421 41.6801 133.632 42.0567 134.008C42.4333 134.384 42.6451 134.894 42.6455 135.427C42.6459 135.959 42.4349 136.469 42.0588 136.846C41.6828 137.222 41.1726 137.434 40.6403 137.435H40.6383Z" fill="#3B00B9" fill-opacity="0.5"/>
        <path d="M40.6383 136.933C40.2391 136.933 39.8562 136.774 39.5739 136.492C39.2916 136.21 39.133 135.827 39.1329 135.428C39.1328 135.029 39.2912 134.647 39.5734 134.364C39.8555 134.082 40.2383 133.923 40.6375 133.923C41.0368 133.923 41.4197 134.081 41.7022 134.363C41.9846 134.645 42.1434 135.028 42.1437 135.427C42.144 135.826 41.9858 136.209 41.7037 136.491C41.4218 136.774 41.0392 136.933 40.64 136.933C40.64 136.933 40.6399 136.933 40.6398 136.933L40.6383 136.933Z" stroke="#3B00B9" stroke-width="1.0036"/>
    </g>
    <g filter="url(#filter2_b_1030_37895)">
        <path d="M73.7572 122.384C73.2249 122.384 72.7145 122.173 72.3381 121.797C71.9617 121.421 71.7501 120.91 71.75 120.378C71.7499 119.846 71.9611 119.336 72.3374 118.959C72.7136 118.583 73.2239 118.371 73.7562 118.371C74.2884 118.371 74.799 118.582 75.1756 118.958C75.5522 119.334 75.764 119.844 75.7644 120.376C75.7648 120.908 75.5538 121.419 75.1777 121.795C74.8017 122.172 74.2915 122.384 73.7592 122.384H73.7572Z" fill="#3B00B9" fill-opacity="0.5"/>
        <path d="M73.7572 121.883C73.358 121.883 72.9751 121.724 72.6928 121.442C72.4105 121.16 72.2519 120.777 72.2518 120.378C72.2517 119.979 72.4101 119.596 72.6923 119.314C72.9744 119.032 73.3572 118.873 73.7564 118.873C74.1557 118.873 74.5386 119.031 74.8211 119.313C75.1035 119.595 75.2623 119.978 75.2626 120.377C75.2629 120.776 75.1047 121.158 74.8226 121.441C74.5407 121.723 74.1581 121.882 73.7589 121.883C73.7588 121.883 73.7588 121.883 73.7587 121.883L73.7572 121.883Z" stroke="#3B00B9" stroke-width="1.0036"/>
    </g>
    <g filter="url(#filter3_b_1030_37895)">
        <path d="M107.378 106.833C106.845 106.833 106.335 106.621 105.958 106.245C105.582 105.869 105.37 105.359 105.37 104.827C105.37 104.294 105.582 103.784 105.958 103.408C106.334 103.031 106.844 102.82 107.377 102.819C107.909 102.819 108.419 103.03 108.796 103.406C109.173 103.782 109.384 104.292 109.385 104.825C109.385 105.357 109.174 105.867 108.798 106.244C108.422 106.62 107.912 106.832 107.38 106.833H107.378Z" fill="#3B00B9" fill-opacity="0.5"/>
        <path d="M107.378 106.331C106.978 106.331 106.595 106.172 106.313 105.89C106.031 105.608 105.872 105.225 105.872 104.826C105.872 104.427 106.03 104.045 106.313 103.762C106.595 103.48 106.978 103.321 107.377 103.321C107.776 103.321 108.159 103.479 108.441 103.761C108.724 104.043 108.883 104.426 108.883 104.825C108.883 105.224 108.725 105.607 108.443 105.889C108.161 106.172 107.778 106.33 107.379 106.331C107.379 106.331 107.379 106.331 107.379 106.331L107.378 106.331Z" stroke="#3B00B9" stroke-width="1.0036"/>
    </g>
    <g filter="url(#filter4_b_1030_37895)">
        <path d="M140.496 91.7824C139.964 91.7824 139.454 91.5711 139.077 91.1948C138.701 90.8186 138.489 90.3084 138.489 89.7762C138.489 89.2441 138.7 88.7337 139.077 88.3573C139.453 87.9809 139.963 87.7693 140.495 87.769C141.028 87.7688 141.538 87.9799 141.915 88.3559C142.291 88.7319 142.503 89.2421 142.504 89.7742C142.504 90.3063 142.293 90.8168 141.917 91.1934C141.541 91.57 141.031 91.7819 140.498 91.7824H140.496Z" fill="#3B00B9" fill-opacity="0.5"/>
        <path d="M140.496 91.2806C140.097 91.2806 139.714 91.1221 139.432 90.8399C139.15 90.5578 138.991 90.1751 138.991 89.7761C138.991 89.3771 139.149 88.9944 139.432 88.7121C139.714 88.4298 140.096 88.271 140.496 88.2708C140.895 88.2706 141.278 88.429 141.56 88.711C141.843 88.993 142.002 89.3756 142.002 89.7746C142.002 90.1736 141.844 90.5564 141.562 90.8389C141.28 91.1213 140.897 91.2802 140.498 91.2806C140.498 91.2806 140.498 91.2806 140.498 91.2806L140.496 91.2806Z" stroke="#3B00B9" stroke-width="1.0036"/>
    </g>
    <g filter="url(#filter5_b_1030_37895)">
        <path d="M173.615 75.2272C173.083 75.2272 172.573 75.0159 172.196 74.6397C171.82 74.2635 171.608 73.7532 171.608 73.2211C171.608 72.6889 171.819 72.1785 172.196 71.8021C172.572 71.4257 173.082 71.2141 173.614 71.2139C174.147 71.2136 174.657 71.4247 175.034 71.8007C175.41 72.1768 175.622 72.6869 175.623 73.219C175.623 73.7512 175.412 74.2617 175.036 74.6383C174.66 75.0148 174.15 75.2267 173.617 75.2272H173.615Z" fill="#3B00B9" fill-opacity="0.5"/>
        <path d="M173.615 74.7254C173.216 74.7254 172.833 74.5669 172.551 74.2848C172.269 74.0026 172.11 73.6199 172.11 73.2209C172.11 72.8219 172.268 72.4392 172.55 72.1569C172.833 71.8746 173.215 71.7159 173.615 71.7157C174.014 71.7155 174.397 71.8738 174.679 72.1558C174.962 72.4378 175.12 72.8204 175.121 73.2194C175.121 73.6184 174.963 74.0013 174.681 74.2837C174.399 74.5661 174.016 74.725 173.617 74.7254C173.617 74.7254 173.617 74.7254 173.617 74.7254L173.615 74.7254Z" stroke="#3B00B9" stroke-width="1.0036"/>
    </g>
    <g filter="url(#filter6_b_1030_37895)">
        <path d="M206.232 60.1769C205.7 60.1769 205.189 59.9656 204.813 59.5894C204.437 59.2132 204.225 58.7029 204.225 58.1708C204.225 57.6386 204.436 57.1283 204.812 56.7518C205.188 56.3754 205.699 56.1638 206.231 56.1636C206.763 56.1633 207.274 56.3744 207.65 56.7504C208.027 57.1265 208.239 57.6366 208.239 58.1688C208.24 58.7009 208.029 59.2114 207.653 59.588C207.277 59.9646 206.766 60.1764 206.234 60.1769H206.232Z" fill="#3B00B9" fill-opacity="0.5"/>
        <path d="M206.232 59.6751C205.833 59.6751 205.45 59.5166 205.168 59.2345C204.885 58.9523 204.727 58.5696 204.727 58.1706C204.727 57.7716 204.885 57.3889 205.167 57.1066C205.449 56.8243 205.832 56.6656 206.231 56.6654C206.631 56.6652 207.013 56.8235 207.296 57.1055C207.578 57.3875 207.737 57.7701 207.737 58.1691C207.738 58.5681 207.58 58.951 207.297 59.2334C207.016 59.5158 206.633 59.6747 206.234 59.6751C206.234 59.6751 206.234 59.6751 206.234 59.6751L206.232 59.6751Z" stroke="#3B00B9" stroke-width="1.0036"/>
    </g>
    <g filter="url(#filter7_b_1030_37895)">
        <path d="M239.351 45.1271C238.819 45.1271 238.308 44.9158 237.932 44.5396C237.555 44.1634 237.344 43.6531 237.344 43.121C237.344 42.5888 237.555 42.0785 237.931 41.702C238.307 41.3256 238.818 41.114 239.35 41.1138C239.882 41.1135 240.393 41.3246 240.769 41.7006C241.146 42.0767 241.358 42.5868 241.358 43.119C241.359 43.6511 241.148 44.1616 240.771 44.5382C240.395 44.9147 239.885 45.1266 239.353 45.1271L239.351 45.1271Z" fill="#3B00B9" fill-opacity="0.5"/>
        <path d="M239.352 44.6253L239.352 44.6253L239.351 44.6253C239.351 44.6253 239.351 44.6253 239.351 44.6253C238.952 44.6253 238.569 44.4668 238.287 44.1847C238.004 43.9025 237.846 43.5198 237.846 43.1208C237.845 42.7218 238.004 42.3391 238.286 42.0568C238.568 41.7745 238.951 41.6158 239.35 41.6156C239.749 41.6154 240.132 41.7737 240.415 42.0557C240.697 42.3377 240.856 42.7203 240.856 43.1193C240.857 43.5183 240.698 43.9012 240.416 44.1836C240.134 44.466 239.752 44.6249 239.352 44.6253Z" stroke="#3B00B9" stroke-width="1.0036"/>
    </g>
    <g filter="url(#filter8_b_1030_37895)">
        <path d="M273.473 30.5786C272.675 30.5786 271.909 30.2616 271.345 29.6973C270.78 29.133 270.463 28.3676 270.462 27.5694C270.462 26.7712 270.779 26.0056 271.343 25.441C271.908 24.8764 272.673 24.559 273.472 24.5586C274.27 24.5582 275.036 24.8748 275.601 25.4389C276.166 26.0029 276.483 26.7682 276.484 27.5664C276.485 28.3645 276.168 29.1303 275.604 29.6952C275.04 30.2601 274.275 30.5778 273.476 30.5786L273.473 30.5786Z" fill="#3B00B9" fill-opacity="0.5"/>
        <path d="M273.473 30.0768C273.473 30.0768 273.473 30.0768 273.473 30.0768C273.473 30.0768 273.473 30.0768 273.473 30.0768C272.808 30.0768 272.17 29.8126 271.699 29.3424C271.229 28.8721 270.964 28.2343 270.964 27.5692C270.964 26.9042 271.228 26.2662 271.698 25.7957C272.169 25.3252 272.807 25.0607 273.472 25.0604C274.137 25.0601 274.776 25.3239 275.246 25.794C275.717 26.264 275.982 26.9017 275.982 27.5667C275.983 28.2318 275.719 28.8699 275.249 29.3406C274.779 29.8113 274.141 30.0761 273.476 30.0768C273.476 30.0768 273.476 30.0768 273.476 30.0768L273.473 30.0768Z" stroke="#3B00B9" stroke-width="1.0036"/>
    </g>
    <path d="M3.9212 134.89V127.102H2.4932C2.3372 127.918 1.5452 128.554 0.405203 128.566V129.682H2.2772V134.89H3.9212ZM8.67902 134.89V127.102H7.25102C7.09502 127.918 6.30302 128.554 5.16302 128.566V129.682H7.03502V134.89H8.67902ZM10.2348 133.882C10.2348 134.482 10.7268 134.974 11.3268 134.974C11.9388 134.974 12.4308 134.482 12.4308 133.882C12.4308 133.282 11.9388 132.79 11.3268 132.79C10.7268 132.79 10.2348 133.282 10.2348 133.882ZM16.097 134.89V127.102H14.669C14.513 127.918 13.721 128.554 12.581 128.566V129.682H14.453V134.89H16.097Z" fill="#181818"/>
    <path d="M267.527 13.224C267.491 13.092 267.467 12.936 267.467 12.792C267.467 12.06 267.875 11.496 268.703 11.496C269.483 11.496 269.879 12 269.879 12.564C269.879 13.104 269.615 13.512 268.955 13.908L267.671 14.676C266.279 15.516 265.847 16.632 265.835 18H271.595V16.572H267.863C267.983 16.272 268.235 16.056 268.535 15.864L270.035 14.952C270.995 14.364 271.547 13.548 271.547 12.54C271.547 11.184 270.479 10.032 268.739 10.032C266.927 10.032 265.895 11.268 265.895 12.636C265.895 12.828 265.931 13.068 265.955 13.176L267.527 13.224ZM274.115 14.112C274.115 13.296 274.235 12.6 274.535 12.132C274.775 11.748 275.147 11.496 275.711 11.496C276.287 11.496 276.635 11.748 276.875 12.132C277.187 12.6 277.307 13.296 277.307 14.112C277.307 14.928 277.187 15.624 276.875 16.092C276.635 16.476 276.287 16.728 275.711 16.728C275.147 16.728 274.775 16.476 274.535 16.092C274.235 15.624 274.115 14.928 274.115 14.112ZM272.459 14.112C272.459 15.108 272.615 16.08 273.143 16.884C273.659 17.652 274.499 18.192 275.711 18.192C276.923 18.192 277.763 17.652 278.267 16.884C278.795 16.08 278.963 15.108 278.963 14.112C278.963 13.116 278.795 12.144 278.267 11.34C277.763 10.572 276.923 10.032 275.711 10.032C274.499 10.032 273.659 10.572 273.143 11.34C272.615 12.144 272.459 13.116 272.459 14.112Z" fill="#181818"/>
    <path d="M2.96677 163.763C2.96677 162.773 3.14677 162.073 3.53677 161.663C3.78677 161.403 4.10677 161.243 4.56677 161.243C5.02677 161.243 5.34677 161.403 5.59677 161.663C5.98677 162.073 6.16677 162.773 6.16677 163.763C6.16677 164.753 5.98677 165.453 5.59677 165.863C5.34677 166.123 5.02677 166.283 4.56677 166.283C4.10677 166.283 3.78677 166.123 3.53677 165.863C3.14677 165.453 2.96677 164.753 2.96677 163.763ZM1.99677 163.763C1.99677 164.653 2.14677 165.473 2.57677 166.113C2.99677 166.743 3.64677 167.153 4.56677 167.153C5.48677 167.153 6.13677 166.743 6.55677 166.113C6.98677 165.473 7.13677 164.653 7.13677 163.763C7.13677 162.873 6.98677 162.053 6.55677 161.413C6.13677 160.783 5.48677 160.373 4.56677 160.373C3.64677 160.373 2.99677 160.783 2.57677 161.413C2.14677 162.053 1.99677 162.873 1.99677 163.763ZM7.93895 166.363C7.93895 166.753 8.23895 167.053 8.62895 167.053C9.01895 167.053 9.32895 166.753 9.32895 166.363C9.32895 165.973 9.01895 165.663 8.62895 165.663C8.23895 165.663 7.93895 165.973 7.93895 166.363ZM10.3819 165.243C10.4719 166.263 11.4019 167.163 12.7819 167.163C14.2219 167.163 15.1619 166.173 15.1619 164.953C15.1619 163.613 14.2319 162.803 12.9619 162.803C12.4519 162.803 11.9319 162.963 11.6419 163.283L12.1219 161.423H14.8919V160.523H11.4719L10.6319 163.743C10.9619 163.863 11.2519 163.993 11.5919 164.123C11.8719 163.833 12.3119 163.653 12.7719 163.653C13.5219 163.653 14.1719 164.103 14.1719 164.993C14.1719 165.793 13.5519 166.303 12.7819 166.303C11.9719 166.303 11.3819 165.763 11.3219 164.963L10.3819 165.243Z" fill="#181818"/>
    <path d="M41.4181 167.003V160.523H40.5581C40.4081 161.223 39.7881 161.723 38.8881 161.743V162.433H40.4581V167.003H41.4181Z" fill="#181818"/>
    <path d="M71.5325 162.853C71.5225 162.753 71.5125 162.653 71.5125 162.563C71.5125 161.823 71.9125 161.233 72.7625 161.233C73.5825 161.233 73.9825 161.783 73.9825 162.373C73.9825 162.873 73.7025 163.333 73.0925 163.723L72.0125 164.423C70.9125 165.133 70.4925 165.943 70.4725 167.003H75.0125V166.093H71.6825C71.7725 165.693 72.1025 165.423 72.4725 165.183L73.7525 164.363C74.4925 163.893 74.9725 163.213 74.9725 162.363C74.9725 161.283 74.1725 160.373 72.7825 160.373C71.3625 160.373 70.5425 161.363 70.5425 162.473C70.5425 162.553 70.5425 162.643 70.5525 162.733L71.5325 162.853Z" fill="#181818"/>
    <path d="M105.624 163.993C105.794 163.933 105.994 163.893 106.194 163.893C106.834 163.893 107.514 164.253 107.514 165.103C107.514 165.753 107.034 166.303 106.144 166.303C105.364 166.303 104.744 165.763 104.704 164.903L103.744 165.123C103.804 166.183 104.654 167.163 106.154 167.163C107.664 167.163 108.504 166.173 108.504 165.083C108.504 163.753 107.454 163.113 106.504 163.113L108.354 161.403V160.523H103.954V161.423H107.054L105.144 163.183L105.624 163.993Z" fill="#181818"/>
    <path d="M136.984 165.543H140.164V167.003H141.114V165.543H142.224V164.633H141.114V160.523H139.764L136.984 164.413V165.543ZM140.164 164.633H137.884L140.164 161.463V164.633Z" fill="#181818"/>
    <path d="M170.485 165.243C170.575 166.263 171.505 167.163 172.885 167.163C174.325 167.163 175.265 166.173 175.265 164.953C175.265 163.613 174.335 162.803 173.065 162.803C172.555 162.803 172.035 162.963 171.745 163.283L172.225 161.423H174.995V160.523H171.575L170.735 163.743C171.065 163.863 171.355 163.993 171.695 164.123C171.975 163.833 172.415 163.653 172.875 163.653C173.625 163.653 174.275 164.103 174.275 164.993C174.275 165.793 173.655 166.303 172.885 166.303C172.075 166.303 171.485 165.763 171.425 164.963L170.485 165.243Z" fill="#181818"/>
    <path d="M208.592 160.733C208.292 160.523 207.782 160.373 207.192 160.373C205.302 160.373 203.852 161.743 203.852 164.153C203.852 166.293 205.142 167.153 206.382 167.153C207.652 167.153 208.782 166.333 208.782 164.943C208.782 163.533 207.842 162.733 206.562 162.733C205.702 162.733 205.112 163.143 204.852 163.573C204.932 162.243 205.782 161.253 207.132 161.253C207.622 161.253 208.052 161.393 208.292 161.533L208.592 160.733ZM204.992 164.943C204.992 164.073 205.642 163.573 206.392 163.573C207.142 163.573 207.792 164.073 207.792 164.943C207.792 165.803 207.152 166.303 206.392 166.303C205.682 166.303 204.992 165.793 204.992 164.943Z" fill="#181818"/>
    <path d="M241.473 160.523H236.743V161.423H240.393C240.393 161.423 238.013 163.233 237.723 167.003H238.733C239.043 163.573 240.873 161.943 241.473 161.463V160.523Z" fill="#181818"/>
    <path d="M271.981 163.283C271.291 163.273 270.781 162.853 270.781 162.223C270.781 161.643 271.251 161.183 271.981 161.183C272.711 161.183 273.181 161.643 273.181 162.223C273.181 162.853 272.671 163.273 271.981 163.283ZM271.981 166.303C271.111 166.303 270.621 165.823 270.621 165.213C270.621 164.593 271.121 164.103 271.981 164.103C272.841 164.103 273.341 164.593 273.341 165.213C273.341 165.823 272.851 166.303 271.981 166.303ZM271.981 167.153C273.471 167.153 274.331 166.333 274.331 165.293C274.331 164.503 273.791 163.913 273.101 163.693C273.701 163.473 274.161 162.873 274.161 162.173C274.161 161.113 273.221 160.373 271.981 160.373C270.741 160.373 269.801 161.113 269.801 162.173C269.801 162.893 270.271 163.473 270.861 163.693C270.171 163.923 269.631 164.503 269.631 165.293C269.631 166.333 270.491 167.153 271.981 167.153Z" fill="#181818"/>
    <path d="M69.639 195V187.91H68.639V195H69.639ZM74.5117 195.15C76.1417 195.15 77.2617 194.2 77.6417 192.87L76.7717 192.55C76.4817 193.52 75.7217 194.25 74.5117 194.25C73.2217 194.25 71.9917 193.3 71.9917 191.45C71.9917 189.6 73.2217 188.66 74.5117 188.66C75.6717 188.66 76.4517 189.26 76.7217 190.33L77.6317 190.01C77.2717 188.64 76.1317 187.76 74.5117 187.76C72.7517 187.76 70.9917 189.08 70.9917 191.45C70.9917 193.82 72.6817 195.15 74.5117 195.15ZM79.9217 191.22V188.79H81.3417C82.1917 188.79 82.7117 189.27 82.7117 190.02C82.7117 190.75 82.1917 191.22 81.3417 191.22H79.9217ZM81.5217 192.1C82.8317 192.1 83.7117 191.21 83.7117 190.01C83.7117 188.82 82.8317 187.91 81.5217 187.91H78.9417V195H79.9217V192.1H81.5217ZM92.3285 188.82V187.91H86.6085V188.82H88.9785V195H89.9585V188.82H92.3285ZM94.3392 194.31C93.5392 194.31 92.8392 193.71 92.8392 192.59C92.8392 191.48 93.5392 190.88 94.3392 190.88C95.1392 190.88 95.8392 191.48 95.8392 192.59C95.8392 193.71 95.1392 194.31 94.3392 194.31ZM94.3392 190.04C92.8992 190.04 91.8792 191.13 91.8792 192.59C91.8792 194.06 92.8992 195.15 94.3392 195.15C95.7792 195.15 96.7992 194.06 96.7992 192.59C96.7992 191.13 95.7792 190.04 94.3392 190.04ZM102.312 190.19H101.012L98.9319 192.32V187.76H98.0019V195H98.9319V193.55L99.6019 192.88L101.172 195H102.352L100.262 192.22L102.312 190.19ZM103.612 192.1C103.652 191.48 104.132 190.87 104.922 190.87C105.772 190.87 106.222 191.41 106.242 192.1H103.612ZM106.382 193.35C106.202 193.89 105.812 194.32 105.032 194.32C104.222 194.32 103.602 193.72 103.582 192.86H107.202C107.212 192.8 107.222 192.68 107.222 192.56C107.222 191.06 106.392 190.04 104.912 190.04C103.702 190.04 102.612 191.07 102.612 192.58C102.612 194.21 103.742 195.15 105.032 195.15C106.152 195.15 106.922 194.48 107.192 193.63L106.382 193.35ZM109.362 192.22C109.362 191.49 109.742 190.9 110.482 190.9C111.322 190.9 111.602 191.44 111.602 192.11V195H112.542V191.95C112.542 190.88 111.972 190.05 110.822 190.05C110.262 190.05 109.692 190.28 109.342 190.88V190.19H108.422V195H109.362V192.22ZM117.617 194.13V188.78H119.087C120.397 188.78 121.477 189.68 121.477 191.47C121.477 193.25 120.377 194.13 119.067 194.13H117.617ZM119.097 195C120.897 195 122.487 193.79 122.487 191.47C122.487 189.14 120.917 187.91 119.117 187.91H116.637V195H119.097ZM124.664 195V190.19H123.734V195H124.664ZM123.524 188.37C123.524 188.74 123.824 189.04 124.194 189.04C124.574 189.04 124.874 188.74 124.874 188.37C124.874 187.99 124.574 187.69 124.194 187.69C123.824 187.69 123.524 187.99 123.524 188.37ZM125.814 193.75C125.894 194.3 126.454 195.15 127.774 195.15C128.964 195.15 129.534 194.34 129.534 193.66C129.534 192.95 129.074 192.42 128.204 192.23L127.424 192.06C127.054 191.98 126.874 191.77 126.874 191.48C126.874 191.15 127.194 190.84 127.674 190.84C128.434 190.84 128.634 191.39 128.674 191.64L129.504 191.33C129.404 190.9 128.994 190.04 127.674 190.04C126.734 190.04 125.964 190.74 125.964 191.56C125.964 192.24 126.414 192.75 127.164 192.91L127.984 193.09C128.384 193.18 128.604 193.41 128.604 193.71C128.604 194.05 128.314 194.35 127.784 194.35C127.104 194.35 126.724 193.95 126.664 193.45L125.814 193.75ZM130.335 193.75C130.415 194.3 130.975 195.15 132.295 195.15C133.485 195.15 134.055 194.34 134.055 193.66C134.055 192.95 133.595 192.42 132.725 192.23L131.945 192.06C131.575 191.98 131.395 191.77 131.395 191.48C131.395 191.15 131.715 190.84 132.195 190.84C132.955 190.84 133.155 191.39 133.195 191.64L134.025 191.33C133.925 190.9 133.515 190.04 132.195 190.04C131.255 190.04 130.485 190.74 130.485 191.56C130.485 192.24 130.935 192.75 131.685 192.91L132.505 193.09C132.905 193.18 133.125 193.41 133.125 193.71C133.125 194.05 132.835 194.35 132.305 194.35C131.625 194.35 131.245 193.95 131.185 193.45L130.335 193.75ZM137.318 194.31C136.518 194.31 135.818 193.71 135.818 192.59C135.818 191.48 136.518 190.88 137.318 190.88C138.118 190.88 138.818 191.48 138.818 192.59C138.818 193.71 138.118 194.31 137.318 194.31ZM137.318 190.04C135.878 190.04 134.858 191.13 134.858 192.59C134.858 194.06 135.878 195.15 137.318 195.15C138.758 195.15 139.778 194.06 139.778 192.59C139.778 191.13 138.758 190.04 137.318 190.04ZM141.92 195V187.76H140.98V195H141.92ZM147.639 190.19H146.629L145.249 193.9L143.879 190.19H142.819L144.769 195H145.719L147.639 190.19ZM149.003 192.1C149.043 191.48 149.523 190.87 150.313 190.87C151.163 190.87 151.613 191.41 151.633 192.1H149.003ZM151.773 193.35C151.593 193.89 151.203 194.32 150.423 194.32C149.613 194.32 148.993 193.72 148.973 192.86H152.593C152.603 192.8 152.613 192.68 152.613 192.56C152.613 191.06 151.783 190.04 150.303 190.04C149.093 190.04 148.003 191.07 148.003 192.58C148.003 194.21 149.133 195.15 150.423 195.15C151.543 195.15 152.313 194.48 152.583 193.63L151.773 193.35ZM157.392 194.13V188.78H158.862C160.172 188.78 161.252 189.68 161.252 191.47C161.252 193.25 160.152 194.13 158.842 194.13H157.392ZM158.872 195C160.672 195 162.262 193.79 162.262 191.47C162.262 189.14 160.692 187.91 158.892 187.91H156.412V195H158.872ZM164.12 192.1C164.16 191.48 164.64 190.87 165.43 190.87C166.28 190.87 166.73 191.41 166.75 192.1H164.12ZM166.89 193.35C166.71 193.89 166.32 194.32 165.54 194.32C164.73 194.32 164.11 193.72 164.09 192.86H167.71C167.72 192.8 167.73 192.68 167.73 192.56C167.73 191.06 166.9 190.04 165.42 190.04C164.21 190.04 163.12 191.07 163.12 192.58C163.12 194.21 164.25 195.15 165.54 195.15C166.66 195.15 167.43 194.48 167.7 193.63L166.89 193.35ZM169.87 195V187.76H168.93V195H169.87ZM171.169 193.71C171.169 194.47 171.799 195.15 172.779 195.15C173.639 195.15 174.119 194.69 174.329 194.35C174.329 194.7 174.359 194.88 174.379 195H175.299C175.279 194.88 175.239 194.63 175.239 194.21V191.8C175.239 190.86 174.679 190.04 173.239 190.04C172.199 190.04 171.369 190.68 171.269 191.6L172.169 191.81C172.229 191.25 172.599 190.84 173.259 190.84C173.989 190.84 174.299 191.23 174.299 191.7C174.299 191.87 174.219 192.02 173.929 192.06L172.629 192.25C171.799 192.37 171.169 192.85 171.169 193.71ZM172.909 194.36C172.429 194.36 172.129 194.02 172.129 193.66C172.129 193.23 172.429 193 172.829 192.94L174.299 192.72V192.94C174.299 193.99 173.679 194.36 172.909 194.36ZM177.805 197.01L180.935 190.19H179.925L178.485 193.51L176.985 190.19H175.905L177.975 194.47L176.775 197.01H177.805ZM184.09 191.83C184.09 194.01 184.92 195.51 185.99 196.6L186.56 196.1C185.54 194.96 184.9 193.59 184.9 191.83C184.9 190.07 185.54 188.7 186.56 187.56L185.99 187.06C184.92 188.15 184.09 189.65 184.09 191.83ZM189.353 191.97V195H190.333V191.97L192.833 187.91H191.713L189.873 191.07L188.033 187.91H186.853L189.353 191.97ZM193.446 192.1C193.486 191.48 193.966 190.87 194.756 190.87C195.606 190.87 196.056 191.41 196.076 192.1H193.446ZM196.216 193.35C196.036 193.89 195.646 194.32 194.866 194.32C194.056 194.32 193.436 193.72 193.416 192.86H197.036C197.046 192.8 197.056 192.68 197.056 192.56C197.056 191.06 196.226 190.04 194.746 190.04C193.536 190.04 192.446 191.07 192.446 192.58C192.446 194.21 193.576 195.15 194.866 195.15C195.986 195.15 196.756 194.48 197.026 193.63L196.216 193.35ZM197.956 193.71C197.956 194.47 198.586 195.15 199.566 195.15C200.426 195.15 200.906 194.69 201.116 194.35C201.116 194.7 201.146 194.88 201.166 195H202.086C202.066 194.88 202.026 194.63 202.026 194.21V191.8C202.026 190.86 201.466 190.04 200.026 190.04C198.986 190.04 198.156 190.68 198.056 191.6L198.956 191.81C199.016 191.25 199.386 190.84 200.046 190.84C200.776 190.84 201.086 191.23 201.086 191.7C201.086 191.87 201.006 192.02 200.716 192.06L199.416 192.25C198.586 192.37 197.956 192.85 197.956 193.71ZM199.696 194.36C199.216 194.36 198.916 194.02 198.916 193.66C198.916 193.23 199.216 193 199.616 192.94L201.086 192.72V192.94C201.086 193.99 200.466 194.36 199.696 194.36ZM206.16 190.14C206.11 190.13 205.98 190.11 205.85 190.11C205.36 190.11 204.76 190.29 204.41 191.03V190.19H203.49V195H204.43V192.59C204.43 191.53 204.96 191.11 205.75 191.11C205.88 191.11 206.02 191.12 206.16 191.14V190.14ZM206.712 193.75C206.792 194.3 207.352 195.15 208.672 195.15C209.862 195.15 210.432 194.34 210.432 193.66C210.432 192.95 209.972 192.42 209.102 192.23L208.322 192.06C207.952 191.98 207.772 191.77 207.772 191.48C207.772 191.15 208.092 190.84 208.572 190.84C209.332 190.84 209.532 191.39 209.572 191.64L210.402 191.33C210.302 190.9 209.892 190.04 208.572 190.04C207.632 190.04 206.862 190.74 206.862 191.56C206.862 192.24 207.312 192.75 208.062 192.91L208.882 193.09C209.282 193.18 209.502 193.41 209.502 193.71C209.502 194.05 209.212 194.35 208.682 194.35C208.002 194.35 207.622 193.95 207.562 193.45L206.712 193.75ZM213.354 191.83C213.354 189.65 212.524 188.15 211.454 187.06L210.884 187.56C211.904 188.7 212.544 190.07 212.544 191.83C212.544 193.59 211.904 194.96 210.884 196.1L211.454 196.6C212.524 195.51 213.354 194.01 213.354 191.83Z" fill="#181818"/>
    <path d="M7.49006 23V21.152H3.06606V13.074H1.13406V23H7.49006ZM8.49008 21.124C8.49008 22.202 9.38608 23.196 10.8561 23.196C11.8781 23.196 12.5361 22.72 12.8861 22.174C12.8861 22.44 12.9141 22.818 12.9561 23H14.6641C14.6221 22.762 14.5801 22.272 14.5801 21.908V18.52C14.5801 17.134 13.7681 15.902 11.5841 15.902C9.73608 15.902 8.74208 17.092 8.63008 18.17L10.2821 18.52C10.3381 17.918 10.7861 17.4 11.5981 17.4C12.3821 17.4 12.7601 17.806 12.7601 18.296C12.7601 18.534 12.6341 18.73 12.2421 18.786L10.5481 19.038C9.40008 19.206 8.49008 19.892 8.49008 21.124ZM11.2481 21.81C10.6461 21.81 10.3521 21.418 10.3521 21.012C10.3521 20.48 10.7301 20.214 11.2061 20.144L12.7601 19.906V20.214C12.7601 21.432 12.0321 21.81 11.2481 21.81ZM18.7119 14.054H17.0319V15.02C17.0319 15.636 16.6959 16.112 15.9679 16.112H15.6179V17.764H16.8639V20.97C16.8639 22.3 17.7039 23.098 19.0479 23.098C19.5939 23.098 19.9299 23 20.0979 22.93V21.39C19.9999 21.418 19.7479 21.446 19.5239 21.446C18.9919 21.446 18.7119 21.25 18.7119 20.648V17.764H20.0979V16.112H18.7119V14.054ZM22.9692 18.772C23.0112 18.142 23.5432 17.414 24.5092 17.414C25.5732 17.414 26.0212 18.086 26.0492 18.772H22.9692ZM26.2312 20.564C26.0072 21.18 25.5312 21.614 24.6632 21.614C23.7392 21.614 22.9692 20.956 22.9272 20.046H27.8552C27.8552 20.018 27.8832 19.738 27.8832 19.472C27.8832 17.26 26.6092 15.902 24.4812 15.902C22.7172 15.902 21.0932 17.33 21.0932 19.528C21.0932 21.852 22.7592 23.21 24.6492 23.21C26.3432 23.21 27.4352 22.216 27.7852 21.026L26.2312 20.564ZM28.7615 21.082C28.8455 21.866 29.5595 23.21 31.6315 23.21C33.4375 23.21 34.3055 22.062 34.3055 20.942C34.3055 19.934 33.6195 19.108 32.2615 18.828L31.2815 18.618C30.9035 18.548 30.6515 18.338 30.6515 18.002C30.6515 17.61 31.0435 17.316 31.5335 17.316C32.3175 17.316 32.6115 17.834 32.6675 18.24L34.2215 17.89C34.1375 17.148 33.4795 15.902 31.5195 15.902C30.0355 15.902 28.9435 16.924 28.9435 18.156C28.9435 19.122 29.5455 19.92 30.8755 20.214L31.7855 20.424C32.3175 20.536 32.5275 20.788 32.5275 21.096C32.5275 21.46 32.2335 21.782 31.6175 21.782C30.8055 21.782 30.3995 21.278 30.3575 20.732L28.7615 21.082ZM38.0987 14.054H36.4187V15.02C36.4187 15.636 36.0827 16.112 35.3547 16.112H35.0047V17.764H36.2507V20.97C36.2507 22.3 37.0907 23.098 38.4347 23.098C38.9807 23.098 39.3167 23 39.4847 22.93V21.39C39.3867 21.418 39.1347 21.446 38.9107 21.446C38.3787 21.446 38.0987 21.25 38.0987 20.648V17.764H39.4847V16.112H38.0987V14.054ZM51.3583 23H53.4583L49.6783 13.074H47.4383L43.6303 23H45.6743L46.5003 20.732H50.5323L51.3583 23ZM48.5163 15.216L49.8883 18.968H47.1443L48.5163 15.216ZM56.4225 19.038C56.4225 18.24 56.8985 17.61 57.7105 17.61C58.6065 17.61 58.9845 18.212 58.9845 18.982V23H60.8465V18.66C60.8465 17.148 60.0625 15.93 58.3545 15.93C57.6125 15.93 56.7865 16.252 56.3665 16.966V16.112H54.5605V23H56.4225V19.038ZM64.5982 19.038C64.5982 18.24 65.0742 17.61 65.8862 17.61C66.7822 17.61 67.1602 18.212 67.1602 18.982V23H69.0222V18.66C69.0222 17.148 68.2382 15.93 66.5302 15.93C65.7882 15.93 64.9622 16.252 64.5422 16.966V16.112H62.7362V23H64.5982V19.038ZM75.3653 23H77.1433C77.1153 22.762 77.0733 22.286 77.0733 21.754V16.112H75.2113V20.116C75.2113 20.914 74.7353 21.474 73.9093 21.474C73.0413 21.474 72.6493 20.858 72.6493 20.088V16.112H70.7873V20.466C70.7873 21.964 71.7393 23.182 73.4053 23.182C74.1333 23.182 74.9313 22.902 75.3093 22.258C75.3093 22.538 75.3373 22.86 75.3653 23ZM78.6405 21.124C78.6405 22.202 79.5365 23.196 81.0065 23.196C82.0285 23.196 82.6865 22.72 83.0365 22.174C83.0365 22.44 83.0645 22.818 83.1065 23H84.8145C84.7725 22.762 84.7305 22.272 84.7305 21.908V18.52C84.7305 17.134 83.9185 15.902 81.7345 15.902C79.8865 15.902 78.8925 17.092 78.7805 18.17L80.4325 18.52C80.4885 17.918 80.9365 17.4 81.7485 17.4C82.5325 17.4 82.9105 17.806 82.9105 18.296C82.9105 18.534 82.7845 18.73 82.3925 18.786L80.6985 19.038C79.5505 19.206 78.6405 19.892 78.6405 21.124ZM81.3985 21.81C80.7965 21.81 80.5025 21.418 80.5025 21.012C80.5025 20.48 80.8805 20.214 81.3565 20.144L82.9105 19.906V20.214C82.9105 21.432 82.1825 21.81 81.3985 21.81ZM88.4693 23V12.864H86.6073V23H88.4693ZM92.3248 23V16.112H90.4628V23H92.3248ZM90.2388 13.858C90.2388 14.474 90.7568 14.992 91.3868 14.992C92.0308 14.992 92.5348 14.474 92.5348 13.858C92.5348 13.214 92.0308 12.696 91.3868 12.696C90.7568 12.696 90.2388 13.214 90.2388 13.858ZM99.5403 23V21.376H96.1243L99.4843 17.666V16.112H93.9263V17.722H97.1043L93.8423 21.362V23H99.5403ZM102.375 18.772C102.417 18.142 102.949 17.414 103.915 17.414C104.979 17.414 105.427 18.086 105.455 18.772H102.375ZM105.637 20.564C105.413 21.18 104.937 21.614 104.069 21.614C103.145 21.614 102.375 20.956 102.333 20.046H107.261C107.261 20.018 107.289 19.738 107.289 19.472C107.289 17.26 106.015 15.902 103.887 15.902C102.123 15.902 100.499 17.33 100.499 19.528C100.499 21.852 102.165 23.21 104.055 23.21C105.749 23.21 106.841 22.216 107.191 21.026L105.637 20.564ZM115.322 12.864H113.488V16.798C113.292 16.434 112.732 15.944 111.542 15.944C109.596 15.944 108.238 17.526 108.238 19.542C108.238 21.628 109.638 23.168 111.598 23.168C112.522 23.168 113.222 22.748 113.53 22.202C113.53 22.524 113.572 22.86 113.6 23H115.378C115.35 22.72 115.322 22.216 115.322 21.754V12.864ZM110.114 19.542C110.114 18.31 110.87 17.61 111.822 17.61C112.774 17.61 113.516 18.296 113.516 19.528C113.516 20.774 112.774 21.502 111.822 21.502C110.842 21.502 110.114 20.774 110.114 19.542ZM124.651 20.452L122.061 13.074H119.947L123.615 23H125.603L129.285 13.074H127.241L124.651 20.452ZM132.604 21.516C131.694 21.516 130.854 20.844 130.854 19.556C130.854 18.254 131.694 17.596 132.604 17.596C133.514 17.596 134.354 18.254 134.354 19.556C134.354 20.858 133.514 21.516 132.604 21.516ZM132.604 15.902C130.546 15.902 128.992 17.428 128.992 19.556C128.992 21.67 130.546 23.21 132.604 23.21C134.662 23.21 136.216 21.67 136.216 19.556C136.216 17.428 134.662 15.902 132.604 15.902ZM139.954 14.054H138.274V15.02C138.274 15.636 137.938 16.112 137.21 16.112H136.86V17.764H138.106V20.97C138.106 22.3 138.946 23.098 140.29 23.098C140.836 23.098 141.172 23 141.34 22.93V21.39C141.242 21.418 140.99 21.446 140.766 21.446C140.234 21.446 139.954 21.25 139.954 20.648V17.764H141.34V16.112H139.954V14.054ZM144.784 23V16.112H142.922V23H144.784ZM142.698 13.858C142.698 14.474 143.216 14.992 143.846 14.992C144.49 14.992 144.994 14.474 144.994 13.858C144.994 13.214 144.49 12.696 143.846 12.696C143.216 12.696 142.698 13.214 142.698 13.858ZM148.639 19.038C148.639 18.24 149.115 17.61 149.927 17.61C150.823 17.61 151.201 18.212 151.201 18.982V23H153.063V18.66C153.063 17.148 152.279 15.93 150.571 15.93C149.829 15.93 149.003 16.252 148.583 16.966V16.112H146.777V23H148.639V19.038ZM154.463 23.378C154.659 24.694 155.919 25.87 157.809 25.87C160.399 25.87 161.421 24.148 161.421 22.258V16.112H159.629V16.924C159.391 16.462 158.761 15.986 157.669 15.986C155.779 15.986 154.463 17.526 154.463 19.346C154.463 21.278 155.835 22.692 157.669 22.692C158.663 22.692 159.307 22.258 159.587 21.81V22.314C159.587 23.644 158.929 24.232 157.753 24.232C156.871 24.232 156.269 23.686 156.143 22.93L154.463 23.378ZM157.991 21.096C157.025 21.096 156.339 20.424 156.339 19.346C156.339 18.282 157.067 17.61 157.991 17.61C158.887 17.61 159.615 18.282 159.615 19.346C159.615 20.41 158.943 21.096 157.991 21.096ZM6.03406 45H8.19006L6.06206 40.94C7.36406 40.562 8.17606 39.512 8.17606 38.126C8.17606 36.404 6.94406 35.074 5.01206 35.074H1.13406V45H3.08006V41.178H4.08806L6.03406 45ZM3.08006 39.512V36.754H4.64806C5.62806 36.754 6.20206 37.3 6.20206 38.14C6.20206 38.952 5.62806 39.512 4.64806 39.512H3.08006ZM10.9107 40.772C10.9527 40.142 11.4847 39.414 12.4507 39.414C13.5147 39.414 13.9627 40.086 13.9907 40.772H10.9107ZM14.1727 42.564C13.9487 43.18 13.4727 43.614 12.6047 43.614C11.6807 43.614 10.9107 42.956 10.8687 42.046H15.7967C15.7967 42.018 15.8247 41.738 15.8247 41.472C15.8247 39.26 14.5507 37.902 12.4227 37.902C10.6587 37.902 9.03465 39.33 9.03465 41.528C9.03465 43.852 10.7007 45.21 12.5907 45.21C14.2847 45.21 15.3767 44.216 15.7267 43.026L14.1727 42.564ZM21.0876 38.112L19.5896 42.536L18.3156 38.112H16.3556L18.5536 45H20.4436L22.0256 40.296L23.6356 45H25.4976L27.6536 38.112H25.8056L24.5316 42.55L23.0476 38.112H21.0876ZM28.369 43.124C28.369 44.202 29.265 45.196 30.735 45.196C31.757 45.196 32.415 44.72 32.765 44.174C32.765 44.44 32.793 44.818 32.835 45H34.543C34.501 44.762 34.459 44.272 34.459 43.908V40.52C34.459 39.134 33.647 37.902 31.463 37.902C29.615 37.902 28.621 39.092 28.509 40.17L30.161 40.52C30.217 39.918 30.665 39.4 31.477 39.4C32.261 39.4 32.639 39.806 32.639 40.296C32.639 40.534 32.513 40.73 32.121 40.786L30.427 41.038C29.279 41.206 28.369 41.892 28.369 43.124ZM31.127 43.81C30.525 43.81 30.231 43.418 30.231 43.012C30.231 42.48 30.609 42.214 31.085 42.144L32.639 41.906V42.214C32.639 43.432 31.911 43.81 31.127 43.81ZM40.5359 38.084C40.3959 38.07 40.2559 38.056 40.1019 38.056C39.5139 38.056 38.5619 38.224 38.1419 39.134V38.112H36.3359V45H38.1979V41.85C38.1979 40.366 39.0239 39.904 39.9759 39.904C40.1439 39.904 40.3259 39.918 40.5359 39.96V38.084ZM48.3433 34.864H46.5093V38.798C46.3133 38.434 45.7533 37.944 44.5633 37.944C42.6173 37.944 41.2593 39.526 41.2593 41.542C41.2593 43.628 42.6593 45.168 44.6193 45.168C45.5433 45.168 46.2433 44.748 46.5513 44.202C46.5513 44.524 46.5933 44.86 46.6213 45H48.3993C48.3713 44.72 48.3433 44.216 48.3433 43.754V34.864ZM43.1353 41.542C43.1353 40.31 43.8913 39.61 44.8433 39.61C45.7953 39.61 46.5373 40.296 46.5373 41.528C46.5373 42.774 45.7953 43.502 44.8433 43.502C43.8633 43.502 43.1353 42.774 43.1353 41.542ZM55.9082 39.596V36.754H57.4342C58.4002 36.754 58.9882 37.3 58.9882 38.182C58.9882 39.036 58.4002 39.596 57.4342 39.596H55.9082ZM57.6722 41.262C59.6322 41.262 60.9342 39.974 60.9342 38.168C60.9342 36.376 59.6322 35.074 57.6722 35.074H53.9622V45H55.8942V41.262H57.6722ZM63.2329 40.772C63.2749 40.142 63.8069 39.414 64.7729 39.414C65.8369 39.414 66.2849 40.086 66.3129 40.772H63.2329ZM66.4949 42.564C66.2709 43.18 65.7949 43.614 64.9269 43.614C64.0029 43.614 63.2329 42.956 63.1909 42.046H68.1189C68.1189 42.018 68.1469 41.738 68.1469 41.472C68.1469 39.26 66.8729 37.902 64.7449 37.902C62.9809 37.902 61.3569 39.33 61.3569 41.528C61.3569 43.852 63.0229 45.21 64.9129 45.21C66.6069 45.21 67.6989 44.216 68.0489 43.026L66.4949 42.564ZM73.8132 38.084C73.6732 38.07 73.5332 38.056 73.3792 38.056C72.7912 38.056 71.8392 38.224 71.4192 39.134V38.112H69.6132V45H71.4752V41.85C71.4752 40.366 72.3012 39.904 73.2532 39.904C73.4212 39.904 73.6032 39.918 73.8132 39.96V38.084ZM78.1486 39.624C79.0726 39.624 79.5066 40.212 79.6746 40.786L81.3406 40.226C81.0466 39.064 79.9826 37.902 78.1066 37.902C76.1046 37.902 74.5366 39.428 74.5366 41.556C74.5366 43.67 76.1326 45.21 78.1626 45.21C79.9966 45.21 81.0746 44.034 81.3826 42.886L79.7446 42.34C79.5906 42.872 79.1146 43.502 78.1626 43.502C77.2106 43.502 76.3986 42.802 76.3986 41.556C76.3986 40.31 77.1966 39.624 78.1486 39.624ZM84.0415 40.772C84.0835 40.142 84.6155 39.414 85.5815 39.414C86.6455 39.414 87.0935 40.086 87.1215 40.772H84.0415ZM87.3035 42.564C87.0795 43.18 86.6035 43.614 85.7355 43.614C84.8115 43.614 84.0415 42.956 83.9995 42.046H88.9275C88.9275 42.018 88.9555 41.738 88.9555 41.472C88.9555 39.26 87.6815 37.902 85.5535 37.902C83.7895 37.902 82.1655 39.33 82.1655 41.528C82.1655 43.852 83.8315 45.21 85.7215 45.21C87.4155 45.21 88.5075 44.216 88.8575 43.026L87.3035 42.564ZM92.2838 41.038C92.2838 40.24 92.7598 39.61 93.5718 39.61C94.4678 39.61 94.8458 40.212 94.8458 40.982V45H96.7078V40.66C96.7078 39.148 95.9238 37.93 94.2158 37.93C93.4738 37.93 92.6478 38.252 92.2278 38.966V38.112H90.4218V45H92.2838V41.038ZM100.894 36.054H99.2136V37.02C99.2136 37.636 98.8776 38.112 98.1496 38.112H97.7996V39.764H99.0456V42.97C99.0456 44.3 99.8856 45.098 101.23 45.098C101.776 45.098 102.112 45 102.28 44.93V43.39C102.182 43.418 101.93 43.446 101.706 43.446C101.174 43.446 100.894 43.25 100.894 42.648V39.764H102.28V38.112H100.894V36.054ZM103.482 43.124C103.482 44.202 104.378 45.196 105.848 45.196C106.87 45.196 107.528 44.72 107.878 44.174C107.878 44.44 107.906 44.818 107.948 45H109.656C109.614 44.762 109.572 44.272 109.572 43.908V40.52C109.572 39.134 108.76 37.902 106.576 37.902C104.728 37.902 103.734 39.092 103.622 40.17L105.274 40.52C105.33 39.918 105.778 39.4 106.59 39.4C107.374 39.4 107.752 39.806 107.752 40.296C107.752 40.534 107.626 40.73 107.234 40.786L105.54 41.038C104.392 41.206 103.482 41.892 103.482 43.124ZM106.24 43.81C105.638 43.81 105.344 43.418 105.344 43.012C105.344 42.48 105.722 42.214 106.198 42.144L107.752 41.906V42.214C107.752 43.432 107.024 43.81 106.24 43.81ZM110.932 45.378C111.128 46.694 112.388 47.87 114.278 47.87C116.868 47.87 117.89 46.148 117.89 44.258V38.112H116.098V38.924C115.86 38.462 115.23 37.986 114.138 37.986C112.248 37.986 110.932 39.526 110.932 41.346C110.932 43.278 112.304 44.692 114.138 44.692C115.132 44.692 115.776 44.258 116.056 43.81V44.314C116.056 45.644 115.398 46.232 114.222 46.232C113.34 46.232 112.738 45.686 112.612 44.93L110.932 45.378ZM114.46 43.096C113.494 43.096 112.808 42.424 112.808 41.346C112.808 40.282 113.536 39.61 114.46 39.61C115.356 39.61 116.084 40.282 116.084 41.346C116.084 42.41 115.412 43.096 114.46 43.096ZM121.133 40.772C121.175 40.142 121.707 39.414 122.673 39.414C123.737 39.414 124.185 40.086 124.213 40.772H121.133ZM124.395 42.564C124.171 43.18 123.695 43.614 122.827 43.614C121.903 43.614 121.133 42.956 121.091 42.046H126.019C126.019 42.018 126.047 41.738 126.047 41.472C126.047 39.26 124.773 37.902 122.645 37.902C120.881 37.902 119.257 39.33 119.257 41.528C119.257 43.852 120.923 45.21 122.813 45.21C124.507 45.21 125.599 44.216 125.949 43.026L124.395 42.564Z" fill="#181818"/>
    <defs>
        <filter id="filter0_b_1030_37895" x="-13.5558" y="121.376" width="44.1583" height="44.1571" filterUnits="userSpaceOnUse" color-interpolation-filters="sRGB">
            <feFlood flood-opacity="0" result="BackgroundImageFix"/>
            <feGaussianBlur in="BackgroundImage" stdDeviation="10.036"/>
            <feComposite in2="SourceAlpha" operator="in" result="effect1_backgroundBlur_1030_37895"/>
            <feBlend mode="normal" in="SourceGraphic" in2="effect1_backgroundBlur_1030_37895" result="shape"/>
        </filter>
        <filter id="filter1_b_1030_37895" x="18.5592" y="113.349" width="44.1583" height="44.1571" filterUnits="userSpaceOnUse" color-interpolation-filters="sRGB">
            <feFlood flood-opacity="0" result="BackgroundImageFix"/>
            <feGaussianBlur in="BackgroundImage" stdDeviation="10.036"/>
            <feComposite in2="SourceAlpha" operator="in" result="effect1_backgroundBlur_1030_37895"/>
            <feBlend mode="normal" in="SourceGraphic" in2="effect1_backgroundBlur_1030_37895" result="shape"/>
        </filter>
        <filter id="filter2_b_1030_37895" x="51.6781" y="98.2992" width="44.1583" height="44.1571" filterUnits="userSpaceOnUse" color-interpolation-filters="sRGB">
            <feFlood flood-opacity="0" result="BackgroundImageFix"/>
            <feGaussianBlur in="BackgroundImage" stdDeviation="10.036"/>
            <feComposite in2="SourceAlpha" operator="in" result="effect1_backgroundBlur_1030_37895"/>
            <feBlend mode="normal" in="SourceGraphic" in2="effect1_backgroundBlur_1030_37895" result="shape"/>
        </filter>
        <filter id="filter3_b_1030_37895" x="85.2984" y="82.7474" width="44.1583" height="44.1571" filterUnits="userSpaceOnUse" color-interpolation-filters="sRGB">
            <feFlood flood-opacity="0" result="BackgroundImageFix"/>
            <feGaussianBlur in="BackgroundImage" stdDeviation="10.036"/>
            <feComposite in2="SourceAlpha" operator="in" result="effect1_backgroundBlur_1030_37895"/>
            <feBlend mode="normal" in="SourceGraphic" in2="effect1_backgroundBlur_1030_37895" result="shape"/>
        </filter>
        <filter id="filter4_b_1030_37895" x="118.417" y="67.6971" width="44.1583" height="44.1571" filterUnits="userSpaceOnUse" color-interpolation-filters="sRGB">
            <feFlood flood-opacity="0" result="BackgroundImageFix"/>
            <feGaussianBlur in="BackgroundImage" stdDeviation="10.036"/>
            <feComposite in2="SourceAlpha" operator="in" result="effect1_backgroundBlur_1030_37895"/>
            <feBlend mode="normal" in="SourceGraphic" in2="effect1_backgroundBlur_1030_37895" result="shape"/>
        </filter>
        <filter id="filter5_b_1030_37895" x="151.536" y="51.1419" width="44.1583" height="44.1571" filterUnits="userSpaceOnUse" color-interpolation-filters="sRGB">
            <feFlood flood-opacity="0" result="BackgroundImageFix"/>
            <feGaussianBlur in="BackgroundImage" stdDeviation="10.036"/>
            <feComposite in2="SourceAlpha" operator="in" result="effect1_backgroundBlur_1030_37895"/>
            <feBlend mode="normal" in="SourceGraphic" in2="effect1_backgroundBlur_1030_37895" result="shape"/>
        </filter>
        <filter id="filter6_b_1030_37895" x="184.153" y="36.0916" width="44.1583" height="44.1571" filterUnits="userSpaceOnUse" color-interpolation-filters="sRGB">
            <feFlood flood-opacity="0" result="BackgroundImageFix"/>
            <feGaussianBlur in="BackgroundImage" stdDeviation="10.036"/>
            <feComposite in2="SourceAlpha" operator="in" result="effect1_backgroundBlur_1030_37895"/>
            <feBlend mode="normal" in="SourceGraphic" in2="effect1_backgroundBlur_1030_37895" result="shape"/>
        </filter>
        <filter id="filter7_b_1030_37895" x="217.272" y="21.0418" width="44.1583" height="44.1571" filterUnits="userSpaceOnUse" color-interpolation-filters="sRGB">
            <feFlood flood-opacity="0" result="BackgroundImageFix"/>
            <feGaussianBlur in="BackgroundImage" stdDeviation="10.036"/>
            <feComposite in2="SourceAlpha" operator="in" result="effect1_backgroundBlur_1030_37895"/>
            <feBlend mode="normal" in="SourceGraphic" in2="effect1_backgroundBlur_1030_37895" result="shape"/>
        </filter>
        <filter id="filter8_b_1030_37895" x="250.39" y="4.48665" width="46.1655" height="46.1639" filterUnits="userSpaceOnUse" color-interpolation-filters="sRGB">
            <feFlood flood-opacity="0" result="BackgroundImageFix"/>
            <feGaussianBlur in="BackgroundImage" stdDeviation="10.036"/>
            <feComposite in2="SourceAlpha" operator="in" result="effect1_backgroundBlur_1030_37895"/>
            <feBlend mode="normal" in="SourceGraphic" in2="effect1_backgroundBlur_1030_37895" result="shape"/>
        </filter>
        <linearGradient id="paint0_linear_1030_37895" x1="140.998" y1="27.5684" x2="161.562" y2="144.961" gradientUnits="userSpaceOnUse">
            <stop stop-color="#3B00B9"/>
            <stop offset="1" stop-color="white" stop-opacity="0"/>
        </linearGradient>
    </defs>
</svg>
