<svg viewBox="0 0 279 200" fill="none" xmlns="http://www.w3.org/2000/svg">
    <path opacity="0.5" d="M41.6421 133.55C28.3947 138.245 8.52344 141.766 8.52344 141.766V155H273.473V25.5685L240.354 40.8268L207.236 56.085C193.988 62.1883 187.364 65.0052 174.117 71.3432C160.869 77.6812 154.246 81.4371 140.998 87.7751C127.751 94.1132 121.127 96.9301 107.88 103.033L74.7608 118.292C61.5134 124.395 54.8896 128.855 41.6421 133.55Z" fill="url(#paint0_linear_2030_43659)"/>
    <path d="M8.52344 141.455C8.52344 141.455 28.3947 137.943 41.6421 133.261C54.8896 128.578 61.5134 124.13 74.7609 118.043C88.0083 111.956 94.6321 108.913 107.88 102.826C121.127 96.739 127.751 93.9296 140.998 87.6086C154.246 81.2875 160.869 77.5417 174.117 71.2206C187.364 64.8996 193.988 62.0902 207.236 56.0033C220.483 49.9163 227.107 46.8728 240.354 40.7859C253.602 34.699 273.473 25.5685 273.473 25.5685" stroke="#3B00B9" stroke-width="1.0036"/>
    <g filter="url(#filter0_b_2030_43659)">
        <path d="M8.52331 143.461C7.99105 143.461 7.48059 143.25 7.10418 142.874C6.72778 142.497 6.51625 141.987 6.51611 141.455C6.51598 140.923 6.72726 140.413 7.10347 140.036C7.47969 139.66 7.99005 139.448 8.5223 139.448C9.05456 139.448 9.56513 139.659 9.94172 140.035C10.3183 140.411 10.5301 140.921 10.5305 141.453C10.5309 141.985 10.3199 142.496 9.94385 142.872C9.56782 143.249 9.05757 143.461 8.52531 143.461H8.52331Z" fill="#3B00B9" fill-opacity="0.5"/>
        <path d="M8.52331 142.959C8.12408 142.959 7.74122 142.801 7.45892 142.519C7.17663 142.237 7.01801 141.854 7.01791 141.455C7.01781 141.056 7.17624 140.673 7.45839 140.391C7.74054 140.109 8.12332 139.95 8.52255 139.95C8.92179 139.949 9.30473 140.108 9.58716 140.39C9.8696 140.672 10.0284 141.054 10.0287 141.453C10.029 141.852 9.87077 142.235 9.58876 142.518C9.3068 142.8 8.92419 142.959 8.52504 142.959C8.52496 142.959 8.52489 142.959 8.52481 142.959L8.52331 142.959Z" stroke="#3B00B9" stroke-width="1.0036"/>
    </g>
    <g filter="url(#filter1_b_2030_43659)">
        <path d="M40.6383 135.435C40.106 135.435 39.5956 135.223 39.2192 134.847C38.8428 134.471 38.6312 133.96 38.6311 133.428C38.631 132.896 38.8422 132.386 39.2185 132.009C39.5947 131.633 40.105 131.421 40.6373 131.421C41.1695 131.421 41.6801 131.632 42.0567 132.008C42.4333 132.384 42.6451 132.894 42.6455 133.426C42.6459 133.958 42.4349 134.469 42.0588 134.846C41.6828 135.222 41.1726 135.434 40.6403 135.435H40.6383Z" fill="#3B00B9" fill-opacity="0.5"/>
        <path d="M40.6383 134.933C40.2391 134.933 39.8562 134.774 39.5739 134.492C39.2916 134.21 39.133 133.827 39.1329 133.428C39.1328 133.029 39.2912 132.646 39.5734 132.364C39.8555 132.082 40.2383 131.923 40.6375 131.923C41.0368 131.923 41.4197 132.081 41.7022 132.363C41.9846 132.645 42.1434 133.028 42.1437 133.427C42.144 133.826 41.9858 134.209 41.7037 134.491C41.4218 134.773 41.0392 134.932 40.64 134.933C40.64 134.933 40.6399 134.933 40.6398 134.933L40.6383 134.933Z" stroke="#3B00B9" stroke-width="1.0036"/>
    </g>
    <g filter="url(#filter2_b_2030_43659)">
        <path d="M73.7572 120.384C73.2249 120.384 72.7145 120.173 72.3381 119.797C71.9617 119.421 71.7501 118.91 71.75 118.378C71.7499 117.846 71.9611 117.336 72.3374 116.959C72.7136 116.583 73.2239 116.371 73.7562 116.371C74.2884 116.371 74.799 116.582 75.1756 116.958C75.5522 117.334 75.764 117.844 75.7644 118.376C75.7648 118.908 75.5538 119.419 75.1777 119.795C74.8017 120.172 74.2915 120.384 73.7592 120.384H73.7572Z" fill="#3B00B9" fill-opacity="0.5"/>
        <path d="M73.7572 119.883C73.358 119.883 72.9751 119.724 72.6928 119.442C72.4105 119.16 72.2519 118.777 72.2518 118.378C72.2517 117.979 72.4101 117.596 72.6923 117.314C72.9744 117.032 73.3572 116.873 73.7564 116.873C74.1557 116.873 74.5386 117.031 74.821 117.313C75.1035 117.595 75.2623 117.978 75.2626 118.377C75.2629 118.776 75.1047 119.158 74.8226 119.441C74.5407 119.723 74.1581 119.882 73.7589 119.883C73.7588 119.883 73.7588 119.883 73.7587 119.883L73.7572 119.883Z" stroke="#3B00B9" stroke-width="1.0036"/>
    </g>
    <g filter="url(#filter3_b_2030_43659)">
        <path d="M107.378 104.833C106.845 104.833 106.335 104.621 105.958 104.245C105.582 103.869 105.37 103.359 105.37 102.826C105.37 102.294 105.582 101.784 105.958 101.407C106.334 101.031 106.844 100.819 107.377 100.819C107.909 100.819 108.419 101.03 108.796 101.406C109.173 101.782 109.384 102.292 109.385 102.824C109.385 103.357 109.174 103.867 108.798 104.244C108.422 104.62 107.912 104.832 107.38 104.833H107.378Z" fill="#3B00B9" fill-opacity="0.5"/>
        <path d="M107.378 104.331C106.978 104.331 106.595 104.172 106.313 103.89C106.031 103.608 105.872 103.225 105.872 102.826C105.872 102.427 106.03 102.045 106.313 101.762C106.595 101.48 106.978 101.321 107.377 101.321C107.776 101.321 108.159 101.479 108.441 101.761C108.724 102.043 108.883 102.426 108.883 102.825C108.883 103.224 108.725 103.607 108.443 103.889C108.161 104.171 107.778 104.33 107.379 104.331C107.379 104.331 107.379 104.331 107.379 104.331L107.378 104.331Z" stroke="#3B00B9" stroke-width="1.0036"/>
    </g>
    <g filter="url(#filter4_b_2030_43659)">
        <path d="M140.496 89.7824C139.964 89.7824 139.454 89.5711 139.077 89.1948C138.701 88.8186 138.489 88.3084 138.489 87.7762C138.489 87.2441 138.7 86.7337 139.077 86.3573C139.453 85.9809 139.963 85.7693 140.495 85.769C141.028 85.7688 141.538 85.9799 141.915 86.3559C142.291 86.7319 142.503 87.2421 142.504 87.7742C142.504 88.3063 142.293 88.8168 141.917 89.1934C141.541 89.57 141.031 89.7819 140.498 89.7824H140.496Z" fill="#3B00B9" fill-opacity="0.5"/>
        <path d="M140.496 89.2806C140.097 89.2806 139.714 89.1221 139.432 88.8399C139.15 88.5578 138.991 88.1751 138.991 87.7761C138.991 87.3771 139.149 86.9944 139.432 86.7121C139.714 86.4298 140.096 86.271 140.496 86.2708C140.895 86.2706 141.278 86.429 141.56 86.711C141.843 86.993 142.002 87.3756 142.002 87.7746C142.002 88.1736 141.844 88.5564 141.562 88.8389C141.28 89.1213 140.897 89.2802 140.498 89.2806C140.498 89.2806 140.498 89.2806 140.498 89.2806L140.496 89.2806Z" stroke="#3B00B9" stroke-width="1.0036"/>
    </g>
    <g filter="url(#filter5_b_2030_43659)">
        <path d="M173.615 73.2272C173.083 73.2272 172.573 73.0159 172.196 72.6397C171.82 72.2635 171.608 71.7532 171.608 71.2211C171.608 70.6889 171.819 70.1785 172.196 69.8021C172.572 69.4257 173.082 69.2141 173.614 69.2139C174.147 69.2136 174.657 69.4247 175.034 69.8007C175.41 70.1768 175.622 70.6869 175.623 71.219C175.623 71.7512 175.412 72.2617 175.036 72.6383C174.66 73.0148 174.15 73.2267 173.617 73.2272H173.615Z" fill="#3B00B9" fill-opacity="0.5"/>
        <path d="M173.615 72.7254C173.216 72.7254 172.833 72.5669 172.551 72.2848C172.269 72.0026 172.11 71.6199 172.11 71.2209C172.11 70.8219 172.268 70.4392 172.55 70.1569C172.833 69.8746 173.215 69.7159 173.615 69.7157C174.014 69.7155 174.397 69.8738 174.679 70.1558C174.962 70.4378 175.12 70.8204 175.121 71.2194C175.121 71.6184 174.963 72.0013 174.681 72.2837C174.399 72.5661 174.016 72.725 173.617 72.7254C173.617 72.7254 173.617 72.7254 173.617 72.7254L173.615 72.7254Z" stroke="#3B00B9" stroke-width="1.0036"/>
    </g>
    <g filter="url(#filter6_b_2030_43659)">
        <path d="M206.232 58.1772C205.7 58.1772 205.189 57.9658 204.813 57.5896C204.437 57.2134 204.225 56.7031 204.225 56.171C204.225 55.6389 204.436 55.1285 204.812 54.7521C205.188 54.3757 205.699 54.1641 206.231 54.1638C206.763 54.1636 207.274 54.3746 207.65 54.7507C208.027 55.1267 208.239 55.6369 208.239 56.169C208.24 56.7011 208.029 57.2116 207.653 57.5882C207.277 57.9648 206.766 58.1767 206.234 58.1772H206.232Z" fill="#3B00B9" fill-opacity="0.5"/>
        <path d="M206.232 57.6754C205.833 57.6754 205.45 57.5169 205.168 57.2347C204.885 56.9526 204.727 56.5699 204.727 56.1709C204.727 55.7719 204.885 55.3891 205.167 55.1068C205.449 54.8245 205.832 54.6658 206.231 54.6656C206.631 54.6654 207.013 54.8238 207.296 55.1058C207.578 55.3878 207.737 55.7704 207.737 56.1694C207.738 56.5684 207.58 56.9512 207.297 57.2336C207.016 57.516 206.633 57.6749 206.234 57.6754C206.234 57.6754 206.234 57.6754 206.234 57.6754L206.232 57.6754Z" stroke="#3B00B9" stroke-width="1.0036"/>
    </g>
    <g filter="url(#filter7_b_2030_43659)">
        <path d="M239.351 43.127C238.819 43.127 238.308 42.9157 237.932 42.5395C237.555 42.1632 237.344 41.653 237.344 41.1208C237.344 40.5887 237.555 40.0783 237.931 39.7019C238.307 39.3255 238.818 39.1139 239.35 39.1136C239.882 39.1134 240.393 39.3245 240.769 39.7005C241.146 40.0765 241.358 40.5867 241.358 41.1188C241.359 41.6509 241.148 42.1614 240.771 42.538C240.395 42.9146 239.885 43.1265 239.353 43.127L239.351 43.127Z" fill="#3B00B9" fill-opacity="0.5"/>
        <path d="M239.352 42.6252H239.352L239.351 42.6252C239.351 42.6252 239.351 42.6252 239.351 42.6252C238.952 42.6251 238.569 42.4666 238.287 42.1845C238.004 41.9024 237.846 41.5197 237.846 41.1207C237.845 40.7217 238.004 40.3389 238.286 40.0567C238.568 39.7744 238.951 39.6156 239.35 39.6154C239.749 39.6152 240.132 39.7736 240.415 40.0556C240.697 40.3376 240.856 40.7202 240.856 41.1192C240.857 41.5182 240.698 41.901 240.416 42.1835C240.134 42.4659 239.752 42.6248 239.352 42.6252Z" stroke="#3B00B9" stroke-width="1.0036"/>
    </g>
    <g filter="url(#filter8_b_2030_43659)">
        <path d="M273.473 28.5785C272.675 28.5785 271.909 28.2615 271.345 27.6972C270.78 27.1328 270.463 26.3674 270.462 25.5693C270.462 24.7711 270.779 24.0055 271.343 23.4409C271.908 22.8763 272.673 22.5589 273.472 22.5585C274.27 22.5581 275.036 22.8747 275.601 23.4388C276.166 24.0028 276.483 24.7681 276.484 25.5662C276.485 26.3644 276.168 27.1302 275.604 27.695C275.04 28.2599 274.275 28.5777 273.476 28.5785L273.473 28.5785Z" fill="#3B00B9" fill-opacity="0.5"/>
        <path d="M273.473 28.0767C273.473 28.0767 273.473 28.0767 273.473 28.0767C273.473 28.0767 273.473 28.0767 273.473 28.0767C272.808 28.0766 272.17 27.8125 271.699 27.3423C271.229 26.872 270.964 26.2342 270.964 25.5691C270.964 24.904 271.228 24.2661 271.698 23.7956C272.169 23.3251 272.807 23.0606 273.472 23.0603C274.137 23.0599 274.776 23.3238 275.246 23.7939C275.717 24.2639 275.982 24.9015 275.982 25.5666C275.983 26.2317 275.719 26.8698 275.249 27.3405C274.779 27.8112 274.141 28.0761 273.476 28.0767L273.473 28.0767Z" stroke="#3B00B9" stroke-width="1.0036"/>
    </g>
    <path d="M3.9212 132.89V125.102H2.4932C2.3372 125.918 1.5452 126.554 0.405203 126.566V127.682H2.2772V132.89H3.9212ZM8.67902 132.89V125.102H7.25102C7.09502 125.918 6.30302 126.554 5.16302 126.566V127.682H7.03502V132.89H8.67902ZM10.2348 131.882C10.2348 132.482 10.7268 132.974 11.3268 132.974C11.9388 132.974 12.4308 132.482 12.4308 131.882C12.4308 131.282 11.9388 130.79 11.3268 130.79C10.7268 130.79 10.2348 131.282 10.2348 131.882ZM16.097 132.89V125.102H14.669C14.513 125.918 13.721 126.554 12.581 126.566V127.682H14.453V132.89H16.097Z" fill="#181818"/>
    <path d="M267.527 11.224C267.491 11.092 267.467 10.936 267.467 10.792C267.467 10.06 267.875 9.496 268.703 9.496C269.483 9.496 269.879 10 269.879 10.564C269.879 11.104 269.615 11.512 268.955 11.908L267.671 12.676C266.279 13.516 265.847 14.632 265.835 16H271.595V14.572H267.863C267.983 14.272 268.235 14.056 268.535 13.864L270.035 12.952C270.995 12.364 271.547 11.548 271.547 10.54C271.547 9.184 270.479 8.032 268.739 8.032C266.927 8.032 265.895 9.268 265.895 10.636C265.895 10.828 265.931 11.068 265.955 11.176L267.527 11.224ZM274.115 12.112C274.115 11.296 274.235 10.6 274.535 10.132C274.775 9.748 275.147 9.496 275.711 9.496C276.287 9.496 276.635 9.748 276.875 10.132C277.187 10.6 277.307 11.296 277.307 12.112C277.307 12.928 277.187 13.624 276.875 14.092C276.635 14.476 276.287 14.728 275.711 14.728C275.147 14.728 274.775 14.476 274.535 14.092C274.235 13.624 274.115 12.928 274.115 12.112ZM272.459 12.112C272.459 13.108 272.615 14.08 273.143 14.884C273.659 15.652 274.499 16.192 275.711 16.192C276.923 16.192 277.763 15.652 278.267 14.884C278.795 14.08 278.963 13.108 278.963 12.112C278.963 11.116 278.795 10.144 278.267 9.34C277.763 8.572 276.923 8.032 275.711 8.032C274.499 8.032 273.659 8.572 273.143 9.34C272.615 10.144 272.459 11.116 272.459 12.112Z" fill="#181818"/>
    <path d="M3.49917 162.087C3.49917 161.196 3.66117 160.566 4.01217 160.197C4.23717 159.963 4.52517 159.819 4.93917 159.819C5.35317 159.819 5.64117 159.963 5.86617 160.197C6.21717 160.566 6.37917 161.196 6.37917 162.087C6.37917 162.978 6.21717 163.608 5.86617 163.977C5.64117 164.211 5.35317 164.355 4.93917 164.355C4.52517 164.355 4.23717 164.211 4.01217 163.977C3.66117 163.608 3.49917 162.978 3.49917 162.087ZM2.62617 162.087C2.62617 162.888 2.76117 163.626 3.14817 164.202C3.52617 164.769 4.11117 165.138 4.93917 165.138C5.76717 165.138 6.35217 164.769 6.73017 164.202C7.11717 163.626 7.25217 162.888 7.25217 162.087C7.25217 161.286 7.11717 160.548 6.73017 159.972C6.35217 159.405 5.76717 159.036 4.93917 159.036C4.11117 159.036 3.52617 159.405 3.14817 159.972C2.76117 160.548 2.62617 161.286 2.62617 162.087ZM8.07602 164.427C8.07602 164.778 8.34602 165.048 8.69702 165.048C9.04802 165.048 9.32702 164.778 9.32702 164.427C9.32702 164.076 9.04802 163.797 8.69702 163.797C8.34602 163.797 8.07602 164.076 8.07602 164.427ZM10.1368 163.419C10.2178 164.337 11.0548 165.147 12.2968 165.147C13.5928 165.147 14.4388 164.256 14.4388 163.158C14.4388 161.952 13.6018 161.223 12.4588 161.223C11.9998 161.223 11.5318 161.367 11.2708 161.655L11.7028 159.981H14.1958V159.171H11.1178L10.3618 162.069C10.6588 162.177 10.9198 162.294 11.2258 162.411C11.4778 162.15 11.8738 161.988 12.2878 161.988C12.9628 161.988 13.5478 162.393 13.5478 163.194C13.5478 163.914 12.9898 164.373 12.2968 164.373C11.5678 164.373 11.0368 163.887 10.9828 163.167L10.1368 163.419Z" fill="#181818"/>
    <path d="M41.4592 165.003V159.171H40.6852C40.5502 159.801 39.9922 160.251 39.1822 160.269V160.89H40.5952V165.003H41.4592Z" fill="#181818"/>
    <path d="M71.4043 161.268C71.3953 161.178 71.3863 161.088 71.3863 161.007C71.3863 160.341 71.7463 159.81 72.5113 159.81C73.2493 159.81 73.6093 160.305 73.6093 160.836C73.6093 161.286 73.3573 161.7 72.8083 162.051L71.8363 162.681C70.8463 163.32 70.4683 164.049 70.4503 165.003H74.5363V164.184H71.5393C71.6203 163.824 71.9173 163.581 72.2503 163.365L73.4023 162.627C74.0683 162.204 74.5003 161.592 74.5003 160.827C74.5003 159.855 73.7803 159.036 72.5293 159.036C71.2513 159.036 70.5133 159.927 70.5133 160.926C70.5133 160.998 70.5133 161.079 70.5223 161.16L71.4043 161.268Z" fill="#181818"/>
    <path d="M105.021 162.294C105.174 162.24 105.354 162.204 105.534 162.204C106.11 162.204 106.722 162.528 106.722 163.293C106.722 163.878 106.29 164.373 105.489 164.373C104.787 164.373 104.229 163.887 104.193 163.113L103.329 163.311C103.383 164.265 104.148 165.147 105.498 165.147C106.857 165.147 107.613 164.256 107.613 163.275C107.613 162.078 106.668 161.502 105.813 161.502L107.478 159.963V159.171H103.518V159.981H106.308L104.589 161.565L105.021 162.294Z" fill="#181818"/>
    <path d="M136.648 163.689H139.51V165.003H140.365V163.689H141.364V162.87H140.365V159.171H139.15L136.648 162.672V163.689ZM139.51 162.87H137.458L139.51 160.017V162.87Z" fill="#181818"/>
    <path d="M170.291 163.419C170.372 164.337 171.209 165.147 172.451 165.147C173.747 165.147 174.593 164.256 174.593 163.158C174.593 161.952 173.756 161.223 172.613 161.223C172.154 161.223 171.686 161.367 171.425 161.655L171.857 159.981H174.35V159.171H171.272L170.516 162.069C170.813 162.177 171.074 162.294 171.38 162.411C171.632 162.15 172.028 161.988 172.442 161.988C173.117 161.988 173.702 162.393 173.702 163.194C173.702 163.914 173.144 164.373 172.451 164.373C171.722 164.373 171.191 163.887 171.137 163.167L170.291 163.419Z" fill="#181818"/>
    <path d="M208.063 159.36C207.793 159.171 207.334 159.036 206.803 159.036C205.102 159.036 203.797 160.269 203.797 162.438C203.797 164.364 204.958 165.138 206.074 165.138C207.217 165.138 208.234 164.4 208.234 163.149C208.234 161.88 207.388 161.16 206.236 161.16C205.462 161.16 204.931 161.529 204.697 161.916C204.769 160.719 205.534 159.828 206.749 159.828C207.19 159.828 207.577 159.954 207.793 160.08L208.063 159.36ZM204.823 163.149C204.823 162.366 205.408 161.916 206.083 161.916C206.758 161.916 207.343 162.366 207.343 163.149C207.343 163.923 206.767 164.373 206.083 164.373C205.444 164.373 204.823 163.914 204.823 163.149Z" fill="#181818"/>
    <path d="M241.157 159.171H236.9V159.981H240.185C240.185 159.981 238.043 161.61 237.782 165.003H238.691C238.97 161.916 240.617 160.449 241.157 160.017V159.171Z" fill="#181818"/>
    <path d="M271.978 161.655C271.357 161.646 270.898 161.268 270.898 160.701C270.898 160.179 271.321 159.765 271.978 159.765C272.635 159.765 273.058 160.179 273.058 160.701C273.058 161.268 272.599 161.646 271.978 161.655ZM271.978 164.373C271.195 164.373 270.754 163.941 270.754 163.392C270.754 162.834 271.204 162.393 271.978 162.393C272.752 162.393 273.202 162.834 273.202 163.392C273.202 163.941 272.761 164.373 271.978 164.373ZM271.978 165.138C273.319 165.138 274.093 164.4 274.093 163.464C274.093 162.753 273.607 162.222 272.986 162.024C273.526 161.826 273.94 161.286 273.94 160.656C273.94 159.702 273.094 159.036 271.978 159.036C270.862 159.036 270.016 159.702 270.016 160.656C270.016 161.304 270.439 161.826 270.97 162.024C270.349 162.231 269.863 162.753 269.863 163.464C269.863 164.4 270.637 165.138 271.978 165.138Z" fill="#181818"/>
    <path d="M76.4603 193V186.619H75.5603V193H76.4603ZM80.9247 193.135C82.3917 193.135 83.3997 192.28 83.7417 191.083L82.9587 190.795C82.6977 191.668 82.0137 192.325 80.9247 192.325C79.7637 192.325 78.6567 191.47 78.6567 189.805C78.6567 188.14 79.7637 187.294 80.9247 187.294C81.9687 187.294 82.6707 187.834 82.9137 188.797L83.7327 188.509C83.4087 187.276 82.3827 186.484 80.9247 186.484C79.3407 186.484 77.7567 187.672 77.7567 189.805C77.7567 191.938 79.2777 193.135 80.9247 193.135ZM85.7851 189.598V187.411H87.0631C87.8281 187.411 88.2961 187.843 88.2961 188.518C88.2961 189.175 87.8281 189.598 87.0631 189.598H85.7851ZM87.2251 190.39C88.4041 190.39 89.1961 189.589 89.1961 188.509C89.1961 187.438 88.4041 186.619 87.2251 186.619H84.9031V193H85.7851V190.39H87.2251ZM96.5388 187.438V186.619H91.3908V187.438H93.5238V193H94.4058V187.438H96.5388ZM98.2684 192.379C97.5484 192.379 96.9184 191.839 96.9184 190.831C96.9184 189.832 97.5484 189.292 98.2684 189.292C98.9884 189.292 99.6184 189.832 99.6184 190.831C99.6184 191.839 98.9884 192.379 98.2684 192.379ZM98.2684 188.536C96.9724 188.536 96.0544 189.517 96.0544 190.831C96.0544 192.154 96.9724 193.135 98.2684 193.135C99.5644 193.135 100.482 192.154 100.482 190.831C100.482 189.517 99.5644 188.536 98.2684 188.536ZM105.442 188.671H104.272L102.4 190.588V186.484H101.563V193H102.4V191.695L103.003 191.092L104.416 193H105.478L103.597 190.498L105.442 188.671ZM106.675 190.39C106.711 189.832 107.143 189.283 107.854 189.283C108.619 189.283 109.024 189.769 109.042 190.39H106.675ZM109.168 191.515C109.006 192.001 108.655 192.388 107.953 192.388C107.224 192.388 106.666 191.848 106.648 191.074H109.906C109.915 191.02 109.924 190.912 109.924 190.804C109.924 189.454 109.177 188.536 107.845 188.536C106.756 188.536 105.775 189.463 105.775 190.822C105.775 192.289 106.792 193.135 107.953 193.135C108.961 193.135 109.654 192.532 109.897 191.767L109.168 191.515ZM111.831 190.498C111.831 189.841 112.173 189.31 112.839 189.31C113.595 189.31 113.847 189.796 113.847 190.399V193H114.693V190.255C114.693 189.292 114.18 188.545 113.145 188.545C112.641 188.545 112.128 188.752 111.813 189.292V188.671H110.985V193H111.831V190.498ZM119.333 192.217V187.402H120.656C121.835 187.402 122.807 188.212 122.807 189.823C122.807 191.425 121.817 192.217 120.638 192.217H119.333ZM120.665 193C122.285 193 123.716 191.911 123.716 189.823C123.716 187.726 122.303 186.619 120.683 186.619H118.451V193H120.665ZM125.638 193V188.671H124.801V193H125.638ZM124.612 187.033C124.612 187.366 124.882 187.636 125.215 187.636C125.557 187.636 125.827 187.366 125.827 187.033C125.827 186.691 125.557 186.421 125.215 186.421C124.882 186.421 124.612 186.691 124.612 187.033ZM126.665 191.875C126.737 192.37 127.241 193.135 128.429 193.135C129.5 193.135 130.013 192.406 130.013 191.794C130.013 191.155 129.599 190.678 128.816 190.507L128.114 190.354C127.781 190.282 127.619 190.093 127.619 189.832C127.619 189.535 127.907 189.256 128.339 189.256C129.023 189.256 129.203 189.751 129.239 189.976L129.986 189.697C129.896 189.31 129.527 188.536 128.339 188.536C127.493 188.536 126.8 189.166 126.8 189.904C126.8 190.516 127.205 190.975 127.88 191.119L128.618 191.281C128.978 191.362 129.176 191.569 129.176 191.839C129.176 192.145 128.915 192.415 128.438 192.415C127.826 192.415 127.484 192.055 127.43 191.605L126.665 191.875ZM130.761 191.875C130.833 192.37 131.337 193.135 132.525 193.135C133.596 193.135 134.109 192.406 134.109 191.794C134.109 191.155 133.695 190.678 132.912 190.507L132.21 190.354C131.877 190.282 131.715 190.093 131.715 189.832C131.715 189.535 132.003 189.256 132.435 189.256C133.119 189.256 133.299 189.751 133.335 189.976L134.082 189.697C133.992 189.31 133.623 188.536 132.435 188.536C131.589 188.536 130.896 189.166 130.896 189.904C130.896 190.516 131.301 190.975 131.976 191.119L132.714 191.281C133.074 191.362 133.272 191.569 133.272 191.839C133.272 192.145 133.011 192.415 132.534 192.415C131.922 192.415 131.58 192.055 131.526 191.605L130.761 191.875ZM137.125 192.379C136.405 192.379 135.775 191.839 135.775 190.831C135.775 189.832 136.405 189.292 137.125 189.292C137.845 189.292 138.475 189.832 138.475 190.831C138.475 191.839 137.845 192.379 137.125 192.379ZM137.125 188.536C135.829 188.536 134.911 189.517 134.911 190.831C134.911 192.154 135.829 193.135 137.125 193.135C138.421 193.135 139.339 192.154 139.339 190.831C139.339 189.517 138.421 188.536 137.125 188.536ZM141.266 193V186.484H140.42V193H141.266ZM146.486 188.671H145.577L144.335 192.01L143.102 188.671H142.148L143.903 193H144.758L146.486 188.671ZM147.852 190.39C147.888 189.832 148.32 189.283 149.031 189.283C149.796 189.283 150.201 189.769 150.219 190.39H147.852ZM150.345 191.515C150.183 192.001 149.832 192.388 149.13 192.388C148.401 192.388 147.843 191.848 147.825 191.074H151.083C151.092 191.02 151.101 190.912 151.101 190.804C151.101 189.454 150.354 188.536 149.022 188.536C147.933 188.536 146.952 189.463 146.952 190.822C146.952 192.289 147.969 193.135 149.13 193.135C150.138 193.135 150.831 192.532 151.074 191.767L150.345 191.515ZM155.482 192.217V187.402H156.805C157.984 187.402 158.956 188.212 158.956 189.823C158.956 191.425 157.966 192.217 156.787 192.217H155.482ZM156.814 193C158.434 193 159.865 191.911 159.865 189.823C159.865 187.726 158.452 186.619 156.832 186.619H154.6V193H156.814ZM161.616 190.39C161.652 189.832 162.084 189.283 162.795 189.283C163.56 189.283 163.965 189.769 163.983 190.39H161.616ZM164.109 191.515C163.947 192.001 163.596 192.388 162.894 192.388C162.165 192.388 161.607 191.848 161.589 191.074H164.847C164.856 191.02 164.865 190.912 164.865 190.804C164.865 189.454 164.118 188.536 162.786 188.536C161.697 188.536 160.716 189.463 160.716 190.822C160.716 192.289 161.733 193.135 162.894 193.135C163.902 193.135 164.595 192.532 164.838 191.767L164.109 191.515ZM166.771 193V186.484H165.925V193H166.771ZM167.852 191.839C167.852 192.523 168.419 193.135 169.301 193.135C170.075 193.135 170.507 192.721 170.696 192.415C170.696 192.73 170.723 192.892 170.741 193H171.569C171.551 192.892 171.515 192.667 171.515 192.289V190.12C171.515 189.274 171.011 188.536 169.715 188.536C168.779 188.536 168.032 189.112 167.942 189.94L168.752 190.129C168.806 189.625 169.139 189.256 169.733 189.256C170.39 189.256 170.669 189.607 170.669 190.03C170.669 190.183 170.597 190.318 170.336 190.354L169.166 190.525C168.419 190.633 167.852 191.065 167.852 191.839ZM169.418 192.424C168.986 192.424 168.716 192.118 168.716 191.794C168.716 191.407 168.986 191.2 169.346 191.146L170.669 190.948V191.146C170.669 192.091 170.111 192.424 169.418 192.424ZM173.925 194.809L176.742 188.671H175.833L174.537 191.659L173.187 188.671H172.215L174.078 192.523L172.998 194.809H173.925ZM179.349 190.147C179.349 192.109 180.096 193.459 181.059 194.44L181.572 193.99C180.654 192.964 180.078 191.731 180.078 190.147C180.078 188.563 180.654 187.33 181.572 186.304L181.059 185.854C180.096 186.835 179.349 188.185 179.349 190.147ZM184.16 190.273V193H185.042V190.273L187.292 186.619H186.284L184.628 189.463L182.972 186.619H181.91L184.16 190.273ZM187.737 190.39C187.773 189.832 188.205 189.283 188.916 189.283C189.681 189.283 190.086 189.769 190.104 190.39H187.737ZM190.23 191.515C190.068 192.001 189.717 192.388 189.015 192.388C188.286 192.388 187.728 191.848 187.71 191.074H190.968C190.977 191.02 190.986 190.912 190.986 190.804C190.986 189.454 190.239 188.536 188.907 188.536C187.818 188.536 186.837 189.463 186.837 190.822C186.837 192.289 187.854 193.135 189.015 193.135C190.023 193.135 190.716 192.532 190.959 191.767L190.23 191.515ZM191.759 191.839C191.759 192.523 192.326 193.135 193.208 193.135C193.982 193.135 194.414 192.721 194.603 192.415C194.603 192.73 194.63 192.892 194.648 193H195.476C195.458 192.892 195.422 192.667 195.422 192.289V190.12C195.422 189.274 194.918 188.536 193.622 188.536C192.686 188.536 191.939 189.112 191.849 189.94L192.659 190.129C192.713 189.625 193.046 189.256 193.64 189.256C194.297 189.256 194.576 189.607 194.576 190.03C194.576 190.183 194.504 190.318 194.243 190.354L193.073 190.525C192.326 190.633 191.759 191.065 191.759 191.839ZM193.325 192.424C192.893 192.424 192.623 192.118 192.623 191.794C192.623 191.407 192.893 191.2 193.253 191.146L194.576 190.948V191.146C194.576 192.091 194.018 192.424 193.325 192.424ZM199.16 188.626C199.115 188.617 198.998 188.599 198.881 188.599C198.44 188.599 197.9 188.761 197.585 189.427V188.671H196.757V193H197.603V190.831C197.603 189.877 198.08 189.499 198.791 189.499C198.908 189.499 199.034 189.508 199.16 189.526V188.626ZM199.685 191.875C199.757 192.37 200.261 193.135 201.449 193.135C202.52 193.135 203.033 192.406 203.033 191.794C203.033 191.155 202.619 190.678 201.836 190.507L201.134 190.354C200.801 190.282 200.639 190.093 200.639 189.832C200.639 189.535 200.927 189.256 201.359 189.256C202.043 189.256 202.223 189.751 202.259 189.976L203.006 189.697C202.916 189.31 202.547 188.536 201.359 188.536C200.513 188.536 199.82 189.166 199.82 189.904C199.82 190.516 200.225 190.975 200.9 191.119L201.638 191.281C201.998 191.362 202.196 191.569 202.196 191.839C202.196 192.145 201.935 192.415 201.458 192.415C200.846 192.415 200.504 192.055 200.45 191.605L199.685 191.875ZM205.507 190.147C205.507 188.185 204.76 186.835 203.797 185.854L203.284 186.304C204.202 187.33 204.778 188.563 204.778 190.147C204.778 191.731 204.202 192.964 203.284 193.99L203.797 194.44C204.76 193.459 205.507 192.109 205.507 190.147Z" fill="#181818"/>
    <path d="M4.752 15V14.172H1.737V8.619H0.855V15H4.752ZM5.31788 13.839C5.31788 14.523 5.88488 15.135 6.76688 15.135C7.54088 15.135 7.97288 14.721 8.16188 14.415C8.16188 14.73 8.18888 14.892 8.20688 15H9.03488C9.01688 14.892 8.98088 14.667 8.98088 14.289V12.12C8.98088 11.274 8.47688 10.536 7.18088 10.536C6.24487 10.536 5.49788 11.112 5.40788 11.94L6.21788 12.129C6.27188 11.625 6.60488 11.256 7.19888 11.256C7.85588 11.256 8.13488 11.607 8.13488 12.03C8.13488 12.183 8.06288 12.318 7.80188 12.354L6.63188 12.525C5.88488 12.633 5.31788 13.065 5.31788 13.839ZM6.88388 14.424C6.45188 14.424 6.18188 14.118 6.18188 13.794C6.18188 13.407 6.45188 13.2 6.81188 13.146L8.13488 12.948V13.146C8.13488 14.091 7.57688 14.424 6.88388 14.424ZM11.4607 9.303H10.6867V10.005C10.6867 10.383 10.4887 10.671 10.0207 10.671H9.78666V11.436H10.6147V13.812C10.6147 14.595 11.0827 15.045 11.8207 15.045C12.1087 15.045 12.3247 14.991 12.3967 14.964V14.244C12.3247 14.262 12.1717 14.28 12.0637 14.28C11.6227 14.28 11.4607 14.082 11.4607 13.686V11.436H12.3967V10.671H11.4607V9.303ZM13.9786 12.39C14.0146 11.832 14.4466 11.283 15.1576 11.283C15.9226 11.283 16.3276 11.769 16.3456 12.39H13.9786ZM16.4716 13.515C16.3096 14.001 15.9586 14.388 15.2566 14.388C14.5276 14.388 13.9696 13.848 13.9516 13.074H17.2096C17.2186 13.02 17.2276 12.912 17.2276 12.804C17.2276 11.454 16.4806 10.536 15.1486 10.536C14.0596 10.536 13.0786 11.463 13.0786 12.822C13.0786 14.289 14.0956 15.135 15.2566 15.135C16.2646 15.135 16.9576 14.532 17.2006 13.767L16.4716 13.515ZM17.9465 13.875C18.0185 14.37 18.5225 15.135 19.7105 15.135C20.7815 15.135 21.2945 14.406 21.2945 13.794C21.2945 13.155 20.8805 12.678 20.0975 12.507L19.3955 12.354C19.0625 12.282 18.9005 12.093 18.9005 11.832C18.9005 11.535 19.1885 11.256 19.6205 11.256C20.3045 11.256 20.4845 11.751 20.5205 11.976L21.2675 11.697C21.1775 11.31 20.8085 10.536 19.6205 10.536C18.7745 10.536 18.0815 11.166 18.0815 11.904C18.0815 12.516 18.4865 12.975 19.1615 13.119L19.8995 13.281C20.2595 13.362 20.4575 13.569 20.4575 13.839C20.4575 14.145 20.1965 14.415 19.7195 14.415C19.1075 14.415 18.7655 14.055 18.7115 13.605L17.9465 13.875ZM23.5632 9.303H22.7892V10.005C22.7892 10.383 22.5912 10.671 22.1232 10.671H21.8892V11.436H22.7172V13.812C22.7172 14.595 23.1852 15.045 23.9232 15.045C24.2112 15.045 24.4272 14.991 24.4992 14.964V14.244C24.4272 14.262 24.2742 14.28 24.1662 14.28C23.7252 14.28 23.5632 14.082 23.5632 13.686V11.436H24.4992V10.671H23.5632V9.303ZM32.1162 15H33.0702L30.5322 8.619H29.5152L26.9772 15H27.9222L28.5972 13.218H31.4232L32.1162 15ZM30.0012 9.537L31.1082 12.399H28.9122L30.0012 9.537ZM34.7527 12.498C34.7527 11.841 35.0947 11.31 35.7607 11.31C36.5167 11.31 36.7687 11.796 36.7687 12.399V15H37.6147V12.255C37.6147 11.292 37.1017 10.545 36.0667 10.545C35.5627 10.545 35.0497 10.752 34.7347 11.292V10.671H33.9067V15H34.7527V12.498ZM39.78 12.498C39.78 11.841 40.122 11.31 40.788 11.31C41.544 11.31 41.796 11.796 41.796 12.399V15H42.642V12.255C42.642 11.292 42.129 10.545 41.094 10.545C40.59 10.545 40.077 10.752 39.762 11.292V10.671H38.934V15H39.78V12.498ZM46.8143 14.478C46.8143 14.658 46.8323 14.901 46.8503 15H47.6603C47.6423 14.847 47.6153 14.541 47.6153 14.199V10.671H46.7693V13.281C46.7693 13.938 46.4273 14.388 45.7433 14.388C45.0323 14.388 44.7623 13.866 44.7623 13.272V10.671H43.9163V13.398C43.9163 14.379 44.5283 15.135 45.5363 15.135C46.0403 15.135 46.5803 14.928 46.8143 14.478ZM48.7007 13.839C48.7007 14.523 49.2677 15.135 50.1497 15.135C50.9237 15.135 51.3557 14.721 51.5447 14.415C51.5447 14.73 51.5717 14.892 51.5897 15H52.4177C52.3997 14.892 52.3637 14.667 52.3637 14.289V12.12C52.3637 11.274 51.8597 10.536 50.5637 10.536C49.6277 10.536 48.8807 11.112 48.7907 11.94L49.6007 12.129C49.6547 11.625 49.9877 11.256 50.5817 11.256C51.2387 11.256 51.5177 11.607 51.5177 12.03C51.5177 12.183 51.4457 12.318 51.1847 12.354L50.0147 12.525C49.2677 12.633 48.7007 13.065 48.7007 13.839ZM50.2667 14.424C49.8347 14.424 49.5647 14.118 49.5647 13.794C49.5647 13.407 49.8347 13.2 50.1947 13.146L51.5177 12.948V13.146C51.5177 14.091 50.9597 14.424 50.2667 14.424ZM54.5456 15V8.484H53.6996V15H54.5456ZM56.7515 15V10.671H55.9145V15H56.7515ZM55.7255 9.033C55.7255 9.366 55.9955 9.636 56.3285 9.636C56.6705 9.636 56.9405 9.366 56.9405 9.033C56.9405 8.691 56.6705 8.421 56.3285 8.421C55.9955 8.421 55.7255 8.691 55.7255 9.033ZM61.3245 15V14.235H58.9035L61.2795 11.409V10.671H57.8865V11.436H60.2265L57.8505 14.262V15H61.3245ZM62.9689 12.39C63.0049 11.832 63.4369 11.283 64.1479 11.283C64.9129 11.283 65.3179 11.769 65.3359 12.39H62.9689ZM65.4619 13.515C65.2999 14.001 64.9489 14.388 64.2469 14.388C63.5179 14.388 62.9599 13.848 62.9419 13.074H66.1999C66.2089 13.02 66.2179 12.912 66.2179 12.804C66.2179 11.454 65.4709 10.536 64.1389 10.536C63.0499 10.536 62.0689 11.463 62.0689 12.822C62.0689 14.289 63.0859 15.135 64.2469 15.135C65.2549 15.135 65.9479 14.532 66.1909 13.767L65.4619 13.515ZM67.8637 12.822C67.8637 11.931 68.3677 11.301 69.1417 11.301C69.9157 11.301 70.3837 11.913 70.3837 12.804C70.3837 13.695 69.9067 14.37 69.1327 14.37C68.3227 14.37 67.8637 13.713 67.8637 12.822ZM70.3927 14.415C70.3927 14.676 70.4197 14.901 70.4377 15H71.2567C71.2477 14.928 71.2117 14.613 71.2117 14.199V8.484H70.3747V11.283C70.2307 10.932 69.8167 10.554 69.0517 10.554C67.8277 10.554 66.9997 11.598 66.9997 12.822C66.9997 14.109 67.7827 15.117 69.0517 15.117C69.7267 15.117 70.1857 14.757 70.3927 14.343V14.415ZM76.9231 13.866L74.9971 8.619H74.0611L76.4641 15H77.3371L79.7941 8.619H78.8671L76.9231 13.866ZM81.9401 14.379C81.2201 14.379 80.5901 13.839 80.5901 12.831C80.5901 11.832 81.2201 11.292 81.9401 11.292C82.6601 11.292 83.2901 11.832 83.2901 12.831C83.2901 13.839 82.6601 14.379 81.9401 14.379ZM81.9401 10.536C80.6441 10.536 79.7261 11.517 79.7261 12.831C79.7261 14.154 80.6441 15.135 81.9401 15.135C83.2361 15.135 84.1541 14.154 84.1541 12.831C84.1541 11.517 83.2361 10.536 81.9401 10.536ZM86.3435 9.303H85.5695V10.005C85.5695 10.383 85.3715 10.671 84.9035 10.671H84.6695V11.436H85.4975V13.812C85.4975 14.595 85.9655 15.045 86.7035 15.045C86.9915 15.045 87.2075 14.991 87.2795 14.964V14.244C87.2075 14.262 87.0545 14.28 86.9465 14.28C86.5055 14.28 86.3435 14.082 86.3435 13.686V11.436H87.2795V10.671H86.3435V9.303ZM89.1216 15V10.671H88.2846V15H89.1216ZM88.0956 9.033C88.0956 9.366 88.3656 9.636 88.6986 9.636C89.0406 9.636 89.3106 9.366 89.3106 9.033C89.3106 8.691 89.0406 8.421 88.6986 8.421C88.3656 8.421 88.0956 8.691 88.0956 9.033ZM91.3366 12.498C91.3366 11.841 91.6786 11.31 92.3446 11.31C93.1006 11.31 93.3526 11.796 93.3526 12.399V15H94.1986V12.255C94.1986 11.292 93.6856 10.545 92.6506 10.545C92.1466 10.545 91.6336 10.752 91.3186 11.292V10.671H90.4906V15H91.3366V12.498ZM95.23 15.234C95.338 16.161 96.148 16.845 97.228 16.845C98.857 16.845 99.397 15.774 99.397 14.676V10.671H98.56V11.274C98.344 10.842 97.894 10.59 97.228 10.59C96.04 10.59 95.239 11.526 95.239 12.696C95.239 13.92 96.076 14.793 97.228 14.793C97.876 14.793 98.344 14.478 98.551 14.082V14.703C98.551 15.639 98.137 16.107 97.228 16.107C96.571 16.107 96.112 15.648 96.049 15.045L95.23 15.234ZM97.354 14.082C96.589 14.082 96.103 13.542 96.103 12.696C96.103 11.859 96.607 11.31 97.354 11.31C98.083 11.31 98.587 11.859 98.587 12.696C98.587 13.533 98.083 14.082 97.354 14.082ZM4.158 29H5.184L3.663 26.327C4.626 26.147 5.211 25.436 5.211 24.518C5.211 23.465 4.464 22.619 3.258 22.619H0.855V29H1.746V26.39H2.7L4.158 29ZM1.746 25.598V23.411H3.096C3.816 23.411 4.302 23.843 4.302 24.518C4.302 25.175 3.816 25.598 3.096 25.598H1.746ZM6.71006 26.39C6.74606 25.832 7.17806 25.283 7.88906 25.283C8.65406 25.283 9.05906 25.769 9.07706 26.39H6.71006ZM9.20306 27.515C9.04106 28.001 8.69006 28.388 7.98806 28.388C7.25906 28.388 6.70106 27.848 6.68306 27.074H9.94106C9.95006 27.02 9.95906 26.912 9.95906 26.804C9.95906 25.454 9.21206 24.536 7.88006 24.536C6.79106 24.536 5.81006 25.463 5.81006 26.822C5.81006 28.289 6.82706 29.135 7.98806 29.135C8.99606 29.135 9.68906 28.532 9.93206 27.767L9.20306 27.515ZM13.4973 24.671L12.3723 27.929L11.4003 24.671H10.4733L11.8953 29H12.7863L13.9113 25.706L15.0633 29H15.9363L17.3403 24.671H16.4493L15.4953 27.929L14.3703 24.671H13.4973ZM17.895 27.839C17.895 28.523 18.462 29.135 19.344 29.135C20.118 29.135 20.55 28.721 20.739 28.415C20.739 28.73 20.766 28.892 20.784 29H21.612C21.594 28.892 21.558 28.667 21.558 28.289V26.12C21.558 25.274 21.054 24.536 19.758 24.536C18.822 24.536 18.075 25.112 17.985 25.94L18.795 26.129C18.849 25.625 19.182 25.256 19.776 25.256C20.433 25.256 20.712 25.607 20.712 26.03C20.712 26.183 20.64 26.318 20.379 26.354L19.209 26.525C18.462 26.633 17.895 27.065 17.895 27.839ZM19.461 28.424C19.029 28.424 18.759 28.118 18.759 27.794C18.759 27.407 19.029 27.2 19.389 27.146L20.712 26.948V27.146C20.712 28.091 20.154 28.424 19.461 28.424ZM25.297 24.626C25.252 24.617 25.135 24.599 25.018 24.599C24.577 24.599 24.037 24.761 23.722 25.427V24.671H22.894V29H23.74V26.831C23.74 25.877 24.217 25.499 24.928 25.499C25.045 25.499 25.171 25.508 25.297 25.526V24.626ZM26.6694 26.822C26.6694 25.931 27.1734 25.301 27.9474 25.301C28.7214 25.301 29.1894 25.913 29.1894 26.804C29.1894 27.695 28.7124 28.37 27.9384 28.37C27.1284 28.37 26.6694 27.713 26.6694 26.822ZM29.1984 28.415C29.1984 28.676 29.2254 28.901 29.2434 29H30.0624C30.0534 28.928 30.0174 28.613 30.0174 28.199V22.484H29.1804V25.283C29.0364 24.932 28.6224 24.554 27.8574 24.554C26.6334 24.554 25.8054 25.598 25.8054 26.822C25.8054 28.109 26.5884 29.117 27.8574 29.117C28.5324 29.117 28.9914 28.757 29.1984 28.343V28.415ZM34.7136 25.598V23.411H35.9916C36.7566 23.411 37.2246 23.843 37.2246 24.518C37.2246 25.175 36.7566 25.598 35.9916 25.598H34.7136ZM36.1536 26.39C37.3326 26.39 38.1246 25.589 38.1246 24.509C38.1246 23.438 37.3326 22.619 36.1536 22.619H33.8316V29H34.7136V26.39H36.1536ZM39.3966 26.39C39.4326 25.832 39.8646 25.283 40.5756 25.283C41.3406 25.283 41.7456 25.769 41.7636 26.39H39.3966ZM41.8896 27.515C41.7276 28.001 41.3766 28.388 40.6746 28.388C39.9456 28.388 39.3876 27.848 39.3696 27.074H42.6276C42.6366 27.02 42.6456 26.912 42.6456 26.804C42.6456 25.454 41.8986 24.536 40.5666 24.536C39.4776 24.536 38.4966 25.463 38.4966 26.822C38.4966 28.289 39.5136 29.135 40.6746 29.135C41.6826 29.135 42.3756 28.532 42.6186 27.767L41.8896 27.515ZM46.1095 24.626C46.0645 24.617 45.9475 24.599 45.8305 24.599C45.3895 24.599 44.8495 24.761 44.5345 25.427V24.671H43.7065V29H44.5525V26.831C44.5525 25.877 45.0295 25.499 45.7405 25.499C45.8575 25.499 45.9835 25.508 46.1095 25.526V24.626ZM48.7869 25.319C49.5249 25.319 49.8399 25.814 49.9479 26.237L50.7129 25.913C50.5329 25.256 49.9389 24.536 48.7869 24.536C47.5539 24.536 46.6089 25.481 46.6089 26.831C46.6089 28.145 47.5359 29.135 48.7959 29.135C49.9209 29.135 50.5419 28.406 50.7489 27.785L50.0019 27.461C49.9029 27.803 49.6059 28.352 48.7959 28.352C48.0939 28.352 47.4729 27.821 47.4729 26.831C47.4729 25.823 48.1029 25.319 48.7869 25.319ZM52.3605 26.39C52.3965 25.832 52.8285 25.283 53.5395 25.283C54.3045 25.283 54.7095 25.769 54.7275 26.39H52.3605ZM54.8535 27.515C54.6915 28.001 54.3405 28.388 53.6385 28.388C52.9095 28.388 52.3515 27.848 52.3335 27.074H55.5915C55.6005 27.02 55.6095 26.912 55.6095 26.804C55.6095 25.454 54.8625 24.536 53.5305 24.536C52.4415 24.536 51.4605 25.463 51.4605 26.822C51.4605 28.289 52.4775 29.135 53.6385 29.135C54.6465 29.135 55.3395 28.532 55.5825 27.767L54.8535 27.515ZM57.5163 26.498C57.5163 25.841 57.8583 25.31 58.5243 25.31C59.2803 25.31 59.5323 25.796 59.5323 26.399V29H60.3783V26.255C60.3783 25.292 59.8653 24.545 58.8303 24.545C58.3263 24.545 57.8133 24.752 57.4983 25.292V24.671H56.6703V29H57.5163V26.498ZM62.8415 23.303H62.0675V24.005C62.0675 24.383 61.8695 24.671 61.4015 24.671H61.1675V25.436H61.9955V27.812C61.9955 28.595 62.4635 29.045 63.2015 29.045C63.4895 29.045 63.7055 28.991 63.7775 28.964V28.244C63.7055 28.262 63.5525 28.28 63.4445 28.28C63.0035 28.28 62.8415 28.082 62.8415 27.686V25.436H63.7775V24.671H62.8415V23.303ZM64.4946 27.839C64.4946 28.523 65.0616 29.135 65.9436 29.135C66.7176 29.135 67.1496 28.721 67.3386 28.415C67.3386 28.73 67.3656 28.892 67.3836 29H68.2116C68.1936 28.892 68.1576 28.667 68.1576 28.289V26.12C68.1576 25.274 67.6536 24.536 66.3576 24.536C65.4216 24.536 64.6746 25.112 64.5846 25.94L65.3946 26.129C65.4486 25.625 65.7816 25.256 66.3756 25.256C67.0326 25.256 67.3116 25.607 67.3116 26.03C67.3116 26.183 67.2396 26.318 66.9786 26.354L65.8086 26.525C65.0616 26.633 64.4946 27.065 64.4946 27.839ZM66.0606 28.424C65.6286 28.424 65.3586 28.118 65.3586 27.794C65.3586 27.407 65.6286 27.2 65.9886 27.146L67.3116 26.948V27.146C67.3116 28.091 66.7536 28.424 66.0606 28.424ZM69.2056 29.234C69.3136 30.161 70.1236 30.845 71.2036 30.845C72.8326 30.845 73.3726 29.774 73.3726 28.676V24.671H72.5356V25.274C72.3196 24.842 71.8696 24.59 71.2036 24.59C70.0156 24.59 69.2146 25.526 69.2146 26.696C69.2146 27.92 70.0516 28.793 71.2036 28.793C71.8516 28.793 72.3196 28.478 72.5266 28.082V28.703C72.5266 29.639 72.1126 30.107 71.2036 30.107C70.5466 30.107 70.0876 29.648 70.0246 29.045L69.2056 29.234ZM71.3296 28.082C70.5646 28.082 70.0786 27.542 70.0786 26.696C70.0786 25.859 70.5826 25.31 71.3296 25.31C72.0586 25.31 72.5626 25.859 72.5626 26.696C72.5626 27.533 72.0586 28.082 71.3296 28.082ZM75.3526 26.39C75.3886 25.832 75.8206 25.283 76.5316 25.283C77.2966 25.283 77.7016 25.769 77.7196 26.39H75.3526ZM77.8456 27.515C77.6836 28.001 77.3326 28.388 76.6306 28.388C75.9016 28.388 75.3436 27.848 75.3256 27.074H78.5836C78.5926 27.02 78.6016 26.912 78.6016 26.804C78.6016 25.454 77.8546 24.536 76.5226 24.536C75.4336 24.536 74.4526 25.463 74.4526 26.822C74.4526 28.289 75.4696 29.135 76.6306 29.135C77.6386 29.135 78.3316 28.532 78.5746 27.767L77.8456 27.515Z" fill="#181818"/>
    <defs>
        <filter id="filter0_b_2030_43659" x="-13.5558" y="119.376" width="44.1583" height="44.1573" filterUnits="userSpaceOnUse" color-interpolation-filters="sRGB">
            <feFlood flood-opacity="0" result="BackgroundImageFix"/>
            <feGaussianBlur in="BackgroundImage" stdDeviation="10.036"/>
            <feComposite in2="SourceAlpha" operator="in" result="effect1_backgroundBlur_2030_43659"/>
            <feBlend mode="normal" in="SourceGraphic" in2="effect1_backgroundBlur_2030_43659" result="shape"/>
        </filter>
        <filter id="filter1_b_2030_43659" x="18.5592" y="111.349" width="44.1583" height="44.1573" filterUnits="userSpaceOnUse" color-interpolation-filters="sRGB">
            <feFlood flood-opacity="0" result="BackgroundImageFix"/>
            <feGaussianBlur in="BackgroundImage" stdDeviation="10.036"/>
            <feComposite in2="SourceAlpha" operator="in" result="effect1_backgroundBlur_2030_43659"/>
            <feBlend mode="normal" in="SourceGraphic" in2="effect1_backgroundBlur_2030_43659" result="shape"/>
        </filter>
        <filter id="filter2_b_2030_43659" x="51.6781" y="96.299" width="44.1583" height="44.1573" filterUnits="userSpaceOnUse" color-interpolation-filters="sRGB">
            <feFlood flood-opacity="0" result="BackgroundImageFix"/>
            <feGaussianBlur in="BackgroundImage" stdDeviation="10.036"/>
            <feComposite in2="SourceAlpha" operator="in" result="effect1_backgroundBlur_2030_43659"/>
            <feBlend mode="normal" in="SourceGraphic" in2="effect1_backgroundBlur_2030_43659" result="shape"/>
        </filter>
        <filter id="filter3_b_2030_43659" x="85.2984" y="80.7473" width="44.1583" height="44.1573" filterUnits="userSpaceOnUse" color-interpolation-filters="sRGB">
            <feFlood flood-opacity="0" result="BackgroundImageFix"/>
            <feGaussianBlur in="BackgroundImage" stdDeviation="10.036"/>
            <feComposite in2="SourceAlpha" operator="in" result="effect1_backgroundBlur_2030_43659"/>
            <feBlend mode="normal" in="SourceGraphic" in2="effect1_backgroundBlur_2030_43659" result="shape"/>
        </filter>
        <filter id="filter4_b_2030_43659" x="118.417" y="65.6971" width="44.1583" height="44.1573" filterUnits="userSpaceOnUse" color-interpolation-filters="sRGB">
            <feFlood flood-opacity="0" result="BackgroundImageFix"/>
            <feGaussianBlur in="BackgroundImage" stdDeviation="10.036"/>
            <feComposite in2="SourceAlpha" operator="in" result="effect1_backgroundBlur_2030_43659"/>
            <feBlend mode="normal" in="SourceGraphic" in2="effect1_backgroundBlur_2030_43659" result="shape"/>
        </filter>
        <filter id="filter5_b_2030_43659" x="151.536" y="49.1419" width="44.1583" height="44.1573" filterUnits="userSpaceOnUse" color-interpolation-filters="sRGB">
            <feFlood flood-opacity="0" result="BackgroundImageFix"/>
            <feGaussianBlur in="BackgroundImage" stdDeviation="10.036"/>
            <feComposite in2="SourceAlpha" operator="in" result="effect1_backgroundBlur_2030_43659"/>
            <feBlend mode="normal" in="SourceGraphic" in2="effect1_backgroundBlur_2030_43659" result="shape"/>
        </filter>
        <filter id="filter6_b_2030_43659" x="184.153" y="34.0919" width="44.1583" height="44.1573" filterUnits="userSpaceOnUse" color-interpolation-filters="sRGB">
            <feFlood flood-opacity="0" result="BackgroundImageFix"/>
            <feGaussianBlur in="BackgroundImage" stdDeviation="10.036"/>
            <feComposite in2="SourceAlpha" operator="in" result="effect1_backgroundBlur_2030_43659"/>
            <feBlend mode="normal" in="SourceGraphic" in2="effect1_backgroundBlur_2030_43659" result="shape"/>
        </filter>
        <filter id="filter7_b_2030_43659" x="217.272" y="19.0417" width="44.1583" height="44.1573" filterUnits="userSpaceOnUse" color-interpolation-filters="sRGB">
            <feFlood flood-opacity="0" result="BackgroundImageFix"/>
            <feGaussianBlur in="BackgroundImage" stdDeviation="10.036"/>
            <feComposite in2="SourceAlpha" operator="in" result="effect1_backgroundBlur_2030_43659"/>
            <feBlend mode="normal" in="SourceGraphic" in2="effect1_backgroundBlur_2030_43659" result="shape"/>
        </filter>
        <filter id="filter8_b_2030_43659" x="250.39" y="2.48653" width="46.1654" height="46.164" filterUnits="userSpaceOnUse" color-interpolation-filters="sRGB">
            <feFlood flood-opacity="0" result="BackgroundImageFix"/>
            <feGaussianBlur in="BackgroundImage" stdDeviation="10.036"/>
            <feComposite in2="SourceAlpha" operator="in" result="effect1_backgroundBlur_2030_43659"/>
            <feBlend mode="normal" in="SourceGraphic" in2="effect1_backgroundBlur_2030_43659" result="shape"/>
        </filter>
        <linearGradient id="paint0_linear_2030_43659" x1="140.998" y1="25.5685" x2="161.562" y2="142.961" gradientUnits="userSpaceOnUse">
            <stop stop-color="#3B00B9"/>
            <stop offset="1" stop-color="white" stop-opacity="0"/>
        </linearGradient>
    </defs>
</svg>
