<svg viewBox="0 0 284 218" fill="none" xmlns="http://www.w3.org/2000/svg">
    <path d="M8.17113 73.1764C9.80113 73.1764 10.9211 72.2264 11.3011 70.8964L10.4311 70.5764C10.1411 71.5464 9.38113 72.2764 8.17113 72.2764C6.88113 72.2764 5.65113 71.3264 5.65113 69.4764C5.65113 67.6264 6.88113 66.6864 8.17113 66.6864C9.33113 66.6864 10.1111 67.2864 10.3811 68.3564L11.2911 68.0364C10.9311 66.6664 9.79113 65.7864 8.17113 65.7864C6.41113 65.7864 4.65113 67.1064 4.65113 69.4764C4.65113 71.8464 6.34113 73.1764 8.17113 73.1764ZM14.5416 72.3364C13.7416 72.3364 13.0416 71.7364 13.0416 70.6164C13.0416 69.5064 13.7416 68.9064 14.5416 68.9064C15.3416 68.9064 16.0416 69.5064 16.0416 70.6164C16.0416 71.7364 15.3416 72.3364 14.5416 72.3364ZM14.5416 68.0664C13.1016 68.0664 12.0816 69.1564 12.0816 70.6164C12.0816 72.0864 13.1016 73.1764 14.5416 73.1764C15.9816 73.1764 17.0016 72.0864 17.0016 70.6164C17.0016 69.1564 15.9816 68.0664 14.5416 68.0664ZM19.1324 73.0264V70.1264C19.1324 69.4064 19.5824 68.9064 20.2524 68.9064C20.9724 68.9064 21.2724 69.3864 21.2724 70.0064V73.0264H22.2124V70.1164C22.2124 69.4264 22.6624 68.9064 23.3224 68.9064C24.0324 68.9064 24.3424 69.3764 24.3424 70.0064V73.0264H25.2724V69.9064C25.2724 68.6464 24.4524 68.0764 23.6124 68.0764C23.0024 68.0764 22.3824 68.2964 22.0024 68.9864C21.7424 68.3664 21.1624 68.0764 20.5624 68.0764C20.0024 68.0764 19.4024 68.3264 19.1024 68.8564V68.2164H18.2024V73.0264H19.1324ZM27.6675 73.0264V70.1264C27.6675 69.4064 28.1175 68.9064 28.7875 68.9064C29.5075 68.9064 29.8075 69.3864 29.8075 70.0064V73.0264H30.7475V70.1164C30.7475 69.4264 31.1975 68.9064 31.8575 68.9064C32.5675 68.9064 32.8775 69.3764 32.8775 70.0064V73.0264H33.8075V69.9064C33.8075 68.6464 32.9875 68.0764 32.1475 68.0764C31.5375 68.0764 30.9175 68.2964 30.5375 68.9864C30.2775 68.3664 29.6975 68.0764 29.0975 68.0764C28.5375 68.0764 27.9375 68.3264 27.6375 68.8564V68.2164H26.7375V73.0264H27.6675ZM38.4427 72.4464C38.4427 72.6464 38.4627 72.9164 38.4827 73.0264H39.3827C39.3627 72.8564 39.3327 72.5164 39.3327 72.1364V68.2164H38.3927V71.1164C38.3927 71.8464 38.0127 72.3464 37.2527 72.3464C36.4627 72.3464 36.1627 71.7664 36.1627 71.1064V68.2164H35.2227V71.2464C35.2227 72.3364 35.9027 73.1764 37.0227 73.1764C37.5827 73.1764 38.1827 72.9464 38.4427 72.4464ZM41.7986 70.2464C41.7986 69.5164 42.1786 68.9264 42.9186 68.9264C43.7586 68.9264 44.0386 69.4664 44.0386 70.1364V73.0264H44.9786V69.9764C44.9786 68.9064 44.4086 68.0764 43.2586 68.0764C42.6986 68.0764 42.1286 68.3064 41.7786 68.9064V68.2164H40.8586V73.0264H41.7986V70.2464ZM47.3746 73.0264V68.2164H46.4446V73.0264H47.3746ZM46.2346 66.3964C46.2346 66.7664 46.5346 67.0664 46.9046 67.0664C47.2846 67.0664 47.5846 66.7664 47.5846 66.3964C47.5846 66.0164 47.2846 65.7164 46.9046 65.7164C46.5346 65.7164 46.2346 66.0164 46.2346 66.3964ZM50.2057 66.6964H49.3457V67.4764C49.3457 67.8964 49.1257 68.2164 48.6057 68.2164H48.3457V69.0664H49.2657V71.7064C49.2657 72.5764 49.7857 73.0764 50.6057 73.0764C50.9257 73.0764 51.1657 73.0164 51.2457 72.9864V72.1864C51.1657 72.2064 50.9957 72.2264 50.8757 72.2264C50.3857 72.2264 50.2057 72.0064 50.2057 71.5664V69.0664H51.2457V68.2164H50.2057V66.6964ZM53.7025 75.0364L56.8325 68.2164H55.8225L54.3825 71.5364L52.8825 68.2164H51.8025L53.8725 72.4964L52.6725 75.0364H53.7025ZM61.929 65.9364H61.139V67.2864L59.919 66.8564L59.689 67.5764L60.929 67.9864L60.139 69.0264L60.749 69.4864L61.529 68.4064L62.359 69.4964L62.969 69.0364L62.149 67.9864L63.389 67.5764L63.159 66.8564L61.929 67.2764V65.9364Z" fill="#181818"/>
    <path d="M20.8423 82.6424H12.9543V84.5464H18.2983C18.2983 84.5464 14.8263 87.4424 14.3943 93.0264H16.6823C17.1463 87.7944 20.0583 85.1544 20.8423 84.4824V82.6424ZM29.3736 82.6424H21.4856V84.5464H26.8296C26.8296 84.5464 23.3576 87.4424 22.9256 93.0264H25.2136C25.6776 87.7944 28.5896 85.1544 29.3736 84.4824V82.6424ZM29.2594 91.6824C29.2594 92.4824 29.9154 93.1384 30.7154 93.1384C31.5314 93.1384 32.1874 92.4824 32.1874 91.6824C32.1874 90.8824 31.5314 90.2264 30.7154 90.2264C29.9154 90.2264 29.2594 90.8824 29.2594 91.6824ZM37.5697 86.8984C36.6097 86.8984 36.0497 86.2744 36.0497 85.5384C36.0497 84.8504 36.6097 84.2264 37.5697 84.2264C38.5457 84.2264 39.1057 84.8504 39.1057 85.5384C39.1057 86.2744 38.5457 86.8984 37.5697 86.8984ZM37.5697 91.4424C36.4337 91.4424 35.8257 90.7384 35.8257 90.0024C35.8257 89.2504 36.4017 88.5304 37.5697 88.5304C38.7377 88.5304 39.3297 89.2504 39.3297 90.0024C39.3297 90.7384 38.7217 91.4424 37.5697 91.4424ZM37.5697 93.2664C39.9377 93.2664 41.4897 92.0184 41.4897 90.2264C41.4897 89.1064 40.7537 88.0984 39.6657 87.6984C40.7057 87.3144 41.2817 86.2904 41.2817 85.3784C41.2817 83.6344 39.7297 82.4024 37.5697 82.4024C35.4097 82.4024 33.8577 83.6344 33.8577 85.3784C33.8577 86.3064 34.4497 87.3144 35.4897 87.6984C34.3857 88.1144 33.6497 89.1064 33.6497 90.2264C33.6497 92.0184 35.2017 93.2664 37.5697 93.2664ZM44.2589 85.0904C44.2589 84.4344 44.7229 83.9864 45.3149 83.9864C45.9229 83.9864 46.3709 84.4344 46.3709 85.0904C46.3709 85.7464 45.9229 86.2104 45.3149 86.2104C44.7229 86.2104 44.2589 85.7624 44.2589 85.0904ZM42.6589 85.0904C42.6589 86.5464 43.8589 87.6984 45.3149 87.6984C46.7549 87.6984 47.9869 86.5784 47.9869 85.0904C47.9869 83.6184 46.7549 82.4664 45.3149 82.4664C43.8749 82.4664 42.6589 83.6184 42.6589 85.0904ZM51.2509 90.5944C51.2509 89.9384 51.7149 89.4904 52.3069 89.4904C52.9149 89.4904 53.3629 89.9384 53.3629 90.5944C53.3629 91.2504 52.9149 91.7144 52.3069 91.7144C51.7149 91.7144 51.2509 91.2664 51.2509 90.5944ZM49.6509 90.5944C49.6509 92.0504 50.8509 93.2024 52.3069 93.2024C53.7469 93.2024 54.9789 92.0824 54.9789 90.5944C54.9789 89.1224 53.7469 87.9704 52.3069 87.9704C50.8669 87.9704 49.6509 89.1224 49.6509 90.5944ZM46.0829 93.0264L53.4109 82.6424H51.5549L44.2269 93.0264H46.0829Z" fill="#3B00B9"/>
    <path d="M201.614 35.0123C192.271 23.8122 179.708 15.7587 165.63 11.9453C151.551 8.13191 136.641 8.74341 122.922 13.6968C109.204 18.6501 97.3421 27.7053 88.9476 39.6329C80.5532 51.5604 76.0328 65.7824 76.0002 80.3677C75.9676 94.9531 80.4244 109.195 88.7655 121.16C97.1066 133.125 108.928 142.233 122.624 147.248C136.32 152.262 151.228 152.94 165.323 149.19C179.418 145.439 192.017 137.442 201.41 126.284L195.974 121.708C187.521 131.751 176.181 138.948 163.496 142.324C150.81 145.699 137.394 145.089 125.067 140.576C112.74 136.062 102.101 127.865 94.5942 117.097C87.0872 106.328 83.0761 93.5104 83.1054 80.3836C83.1347 67.2568 87.2031 54.457 94.7581 43.7222C102.313 32.9874 112.989 24.8378 125.335 20.3797C137.682 15.9217 151.102 15.3714 163.772 18.8034C176.442 22.2355 187.749 29.4836 196.158 39.5637L201.614 35.0123Z" fill="#3B00B9"/>
    <path d="M201.626 35.0262C212.312 47.8433 218.146 64.0129 218.105 80.7004C218.064 97.388 212.151 113.529 201.402 126.293L195.967 121.717C205.641 110.229 210.963 95.7018 211 80.683C211.037 65.6642 205.786 51.1117 196.168 39.5762L201.626 35.0262Z" fill="#DA3979"/>
    <path d="M238.009 65.6564V60.3064H239.479C240.789 60.3064 241.869 61.2064 241.869 62.9964C241.869 64.7764 240.769 65.6564 239.459 65.6564H238.009ZM239.489 66.5264C241.289 66.5264 242.879 65.3164 242.879 62.9964C242.879 60.6664 241.309 59.4364 239.509 59.4364H237.029V66.5264H239.489ZM245.314 66.5264V63.5464H248.334V62.6264H245.314V60.3464H248.644V59.4364H244.334V66.5264H245.314ZM251.046 66.5264V59.4364H250.046V66.5264H251.046ZM258.777 66.5264V59.4364H257.797V64.8764L254.257 59.4364H252.947V66.5264H253.927V60.7464L257.757 66.5264H258.777ZM261.681 66.5264V59.4364H260.681V66.5264H261.681ZM268.532 60.3464V59.4364H262.812V60.3464H265.182V66.5264H266.162V60.3464H268.532ZM271.436 63.4964V66.5264H272.416V63.4964L274.916 59.4364H273.796L271.956 62.5964L270.116 59.4364H268.936L271.436 63.4964ZM232.125 79.5264V76.5464H235.145V75.6264H232.125V73.3464H235.455V72.4364H231.145V79.5264H232.125ZM238.544 78.8364C237.744 78.8364 237.044 78.2364 237.044 77.1164C237.044 76.0064 237.744 75.4064 238.544 75.4064C239.344 75.4064 240.044 76.0064 240.044 77.1164C240.044 78.2364 239.344 78.8364 238.544 78.8364ZM238.544 74.5664C237.104 74.5664 236.084 75.6564 236.084 77.1164C236.084 78.5864 237.104 79.6764 238.544 79.6764C239.984 79.6764 241.004 78.5864 241.004 77.1164C241.004 75.6564 239.984 74.5664 238.544 74.5664ZM245.375 78.9464C245.375 79.1464 245.395 79.4164 245.415 79.5264H246.315C246.295 79.3564 246.265 79.0164 246.265 78.6364V74.7164H245.325V77.6164C245.325 78.3464 244.945 78.8464 244.185 78.8464C243.395 78.8464 243.095 78.2664 243.095 77.6064V74.7164H242.155V77.7464C242.155 78.8364 242.835 79.6764 243.955 79.6764C244.515 79.6764 245.115 79.4464 245.375 78.9464ZM248.731 76.7464C248.731 76.0164 249.111 75.4264 249.851 75.4264C250.691 75.4264 250.971 75.9664 250.971 76.6364V79.5264H251.911V76.4764C251.911 75.4064 251.341 74.5764 250.191 74.5764C249.631 74.5764 249.061 74.8064 248.711 75.4064V74.7164H247.791V79.5264H248.731V76.7464ZM254.027 77.1064C254.027 76.1164 254.587 75.4164 255.447 75.4164C256.307 75.4164 256.827 76.0964 256.827 77.0864C256.827 78.0764 256.297 78.8264 255.437 78.8264C254.537 78.8264 254.027 78.0964 254.027 77.1064ZM256.837 78.8764C256.837 79.1664 256.867 79.4164 256.887 79.5264H257.797C257.787 79.4464 257.747 79.0964 257.747 78.6364V72.2864H256.817V75.3964C256.657 75.0064 256.197 74.5864 255.347 74.5864C253.987 74.5864 253.067 75.7464 253.067 77.1064C253.067 78.5364 253.937 79.6564 255.347 79.6564C256.097 79.6564 256.607 79.2564 256.837 78.7964V78.8764ZM258.955 78.2364C258.955 78.9964 259.585 79.6764 260.565 79.6764C261.425 79.6764 261.905 79.2164 262.115 78.8764C262.115 79.2264 262.145 79.4064 262.165 79.5264H263.085C263.065 79.4064 263.025 79.1564 263.025 78.7364V76.3264C263.025 75.3864 262.465 74.5664 261.025 74.5664C259.985 74.5664 259.155 75.2064 259.055 76.1264L259.955 76.3364C260.015 75.7764 260.385 75.3664 261.045 75.3664C261.775 75.3664 262.085 75.7564 262.085 76.2264C262.085 76.3964 262.005 76.5464 261.715 76.5864L260.415 76.7764C259.585 76.8964 258.955 77.3764 258.955 78.2364ZM260.695 78.8864C260.215 78.8864 259.915 78.5464 259.915 78.1864C259.915 77.7564 260.215 77.5264 260.615 77.4664L262.085 77.2464V77.4664C262.085 78.5164 261.465 78.8864 260.695 78.8864ZM265.781 73.1964H264.921V73.9764C264.921 74.3964 264.701 74.7164 264.181 74.7164H263.921V75.5664H264.841V78.2064C264.841 79.0764 265.361 79.5764 266.181 79.5764C266.501 79.5764 266.741 79.5164 266.821 79.4864V78.6864C266.741 78.7064 266.571 78.7264 266.451 78.7264C265.961 78.7264 265.781 78.5064 265.781 78.0664V75.5664H266.821V74.7164H265.781V73.1964ZM268.868 79.5264V74.7164H267.938V79.5264H268.868ZM267.728 72.8964C267.728 73.2664 268.028 73.5664 268.398 73.5664C268.778 73.5664 269.078 73.2664 269.078 72.8964C269.078 72.5164 268.778 72.2164 268.398 72.2164C268.028 72.2164 267.728 72.5164 267.728 72.8964ZM272.529 78.8364C271.729 78.8364 271.029 78.2364 271.029 77.1164C271.029 76.0064 271.729 75.4064 272.529 75.4064C273.329 75.4064 274.029 76.0064 274.029 77.1164C274.029 78.2364 273.329 78.8364 272.529 78.8364ZM272.529 74.5664C271.089 74.5664 270.069 75.6564 270.069 77.1164C270.069 78.5864 271.089 79.6764 272.529 79.6764C273.969 79.6764 274.989 78.5864 274.989 77.1164C274.989 75.6564 273.969 74.5664 272.529 74.5664ZM277.13 76.7464C277.13 76.0164 277.51 75.4264 278.25 75.4264C279.09 75.4264 279.37 75.9664 279.37 76.6364V79.5264H280.31V76.4764C280.31 75.4064 279.74 74.5764 278.59 74.5764C278.03 74.5764 277.46 74.8064 277.11 75.4064V74.7164H276.19V79.5264H277.13V76.7464Z" fill="#181818"/>
    <path d="M236.088 93.1584C236.04 92.9824 236.008 92.7744 236.008 92.5824C236.008 91.6064 236.552 90.8544 237.656 90.8544C238.696 90.8544 239.224 91.5264 239.224 92.2784C239.224 92.9984 238.872 93.5424 237.992 94.0704L236.28 95.0944C234.424 96.2144 233.848 97.7024 233.832 99.5264H241.512V97.6224H236.536C236.696 97.2224 237.032 96.9344 237.432 96.6784L239.432 95.4624C240.712 94.6784 241.448 93.5904 241.448 92.2464C241.448 90.4384 240.024 88.9024 237.704 88.9024C235.288 88.9024 233.912 90.5504 233.912 92.3744C233.912 92.6304 233.96 92.9504 233.992 93.0944L236.088 93.1584ZM245.166 93.1584C245.118 92.9824 245.086 92.7744 245.086 92.5824C245.086 91.6064 245.63 90.8544 246.734 90.8544C247.774 90.8544 248.302 91.5264 248.302 92.2784C248.302 92.9984 247.95 93.5424 247.07 94.0704L245.358 95.0944C243.502 96.2144 242.926 97.7024 242.91 99.5264H250.59V97.6224H245.614C245.774 97.2224 246.11 96.9344 246.51 96.6784L248.51 95.4624C249.79 94.6784 250.526 93.5904 250.526 92.2464C250.526 90.4384 249.102 88.9024 246.782 88.9024C244.366 88.9024 242.99 90.5504 242.99 92.3744C242.99 92.6304 243.038 92.9504 243.07 93.0944L245.166 93.1584ZM252.068 98.1824C252.068 98.9824 252.724 99.6384 253.524 99.6384C254.34 99.6384 254.996 98.9824 254.996 98.1824C254.996 97.3824 254.34 96.7264 253.524 96.7264C252.724 96.7264 252.068 97.3824 252.068 98.1824ZM258.65 93.1584C258.602 92.9824 258.57 92.7744 258.57 92.5824C258.57 91.6064 259.114 90.8544 260.218 90.8544C261.258 90.8544 261.786 91.5264 261.786 92.2784C261.786 92.9984 261.434 93.5424 260.554 94.0704L258.842 95.0944C256.986 96.2144 256.41 97.7024 256.394 99.5264H264.074V97.6224H259.098C259.258 97.2224 259.594 96.9344 259.994 96.6784L261.994 95.4624C263.274 94.6784 264.01 93.5904 264.01 92.2464C264.01 90.4384 262.586 88.9024 260.266 88.9024C257.85 88.9024 256.474 90.5504 256.474 92.3744C256.474 92.6304 256.522 92.9504 256.554 93.0944L258.65 93.1584ZM266.864 91.5904C266.864 90.9344 267.328 90.4864 267.92 90.4864C268.528 90.4864 268.976 90.9344 268.976 91.5904C268.976 92.2464 268.528 92.7104 267.92 92.7104C267.328 92.7104 266.864 92.2624 266.864 91.5904ZM265.264 91.5904C265.264 93.0464 266.464 94.1984 267.92 94.1984C269.36 94.1984 270.592 93.0784 270.592 91.5904C270.592 90.1184 269.36 88.9664 267.92 88.9664C266.48 88.9664 265.264 90.1184 265.264 91.5904ZM273.856 97.0944C273.856 96.4384 274.32 95.9904 274.912 95.9904C275.52 95.9904 275.968 96.4384 275.968 97.0944C275.968 97.7504 275.52 98.2144 274.912 98.2144C274.32 98.2144 273.856 97.7664 273.856 97.0944ZM272.256 97.0944C272.256 98.5504 273.456 99.7024 274.912 99.7024C276.352 99.7024 277.584 98.5824 277.584 97.0944C277.584 95.6224 276.352 94.4704 274.912 94.4704C273.472 94.4704 272.256 95.6224 272.256 97.0944ZM268.688 99.5264L276.016 89.1424H274.16L266.832 99.5264H268.688Z" fill="#DA3979"/>
    <path d="M47.4526 193.328H46.8206V194.408L45.8446 194.064L45.6606 194.64L46.6526 194.968L46.0206 195.8L46.5086 196.168L47.1326 195.304L47.7966 196.176L48.2846 195.808L47.6286 194.968L48.6206 194.64L48.4366 194.064L47.4526 194.4V193.328ZM53.2841 195.728C53.9401 195.728 54.2201 196.168 54.3161 196.544L54.9961 196.256C54.8361 195.672 54.3081 195.032 53.2841 195.032C52.1881 195.032 51.3481 195.872 51.3481 197.072C51.3481 198.24 52.1721 199.12 53.2921 199.12C54.2921 199.12 54.8441 198.472 55.0281 197.92L54.3641 197.632C54.2761 197.936 54.0121 198.424 53.2921 198.424C52.6681 198.424 52.1161 197.952 52.1161 197.072C52.1161 196.176 52.6761 195.728 53.2841 195.728ZM57.6286 198.448C56.9886 198.448 56.4286 197.968 56.4286 197.072C56.4286 196.184 56.9886 195.704 57.6286 195.704C58.2686 195.704 58.8286 196.184 58.8286 197.072C58.8286 197.968 58.2686 198.448 57.6286 198.448ZM57.6286 195.032C56.4766 195.032 55.6606 195.904 55.6606 197.072C55.6606 198.248 56.4766 199.12 57.6286 199.12C58.7806 199.12 59.5966 198.248 59.5966 197.072C59.5966 195.904 58.7806 195.032 57.6286 195.032ZM61.3092 196.776C61.3092 196.192 61.6132 195.72 62.2052 195.72C62.8772 195.72 63.1012 196.152 63.1012 196.688V199H63.8532V196.56C63.8532 195.704 63.3972 195.04 62.4772 195.04C62.0292 195.04 61.5732 195.224 61.2932 195.704V195.152H60.5572V199H61.3092V196.776ZM64.722 198C64.786 198.44 65.234 199.12 66.29 199.12C67.242 199.12 67.698 198.472 67.698 197.928C67.698 197.36 67.33 196.936 66.634 196.784L66.01 196.648C65.714 196.584 65.57 196.416 65.57 196.184C65.57 195.92 65.826 195.672 66.21 195.672C66.818 195.672 66.978 196.112 67.01 196.312L67.674 196.064C67.594 195.72 67.266 195.032 66.21 195.032C65.458 195.032 64.842 195.592 64.842 196.248C64.842 196.792 65.202 197.2 65.802 197.328L66.458 197.472C66.778 197.544 66.954 197.728 66.954 197.968C66.954 198.24 66.722 198.48 66.298 198.48C65.754 198.48 65.45 198.16 65.402 197.76L64.722 198ZM69.4106 199V195.152H68.6666V199H69.4106ZM68.4986 193.696C68.4986 193.992 68.7386 194.232 69.0346 194.232C69.3386 194.232 69.5786 193.992 69.5786 193.696C69.5786 193.392 69.3386 193.152 69.0346 193.152C68.7386 193.152 68.4986 193.392 68.4986 193.696ZM70.3235 198C70.3875 198.44 70.8355 199.12 71.8915 199.12C72.8435 199.12 73.2995 198.472 73.2995 197.928C73.2995 197.36 72.9315 196.936 72.2355 196.784L71.6115 196.648C71.3155 196.584 71.1715 196.416 71.1715 196.184C71.1715 195.92 71.4275 195.672 71.8115 195.672C72.4195 195.672 72.5795 196.112 72.6115 196.312L73.2755 196.064C73.1955 195.72 72.8675 195.032 71.8115 195.032C71.0595 195.032 70.4435 195.592 70.4435 196.248C70.4435 196.792 70.8035 197.2 71.4035 197.328L72.0595 197.472C72.3795 197.544 72.5555 197.728 72.5555 197.968C72.5555 198.24 72.3235 198.48 71.8995 198.48C71.3555 198.48 71.0515 198.16 71.0035 197.76L70.3235 198ZM75.3162 193.936H74.6282V194.56C74.6282 194.896 74.4522 195.152 74.0362 195.152H73.8282V195.832H74.5642V197.944C74.5642 198.64 74.9802 199.04 75.6362 199.04C75.8922 199.04 76.0842 198.992 76.1482 198.968V198.328C76.0842 198.344 75.9482 198.36 75.8522 198.36C75.4602 198.36 75.3162 198.184 75.3162 197.832V195.832H76.1482V195.152H75.3162V193.936ZM76.7376 198C76.8016 198.44 77.2496 199.12 78.3056 199.12C79.2576 199.12 79.7136 198.472 79.7136 197.928C79.7136 197.36 79.3456 196.936 78.6496 196.784L78.0256 196.648C77.7296 196.584 77.5856 196.416 77.5856 196.184C77.5856 195.92 77.8416 195.672 78.2256 195.672C78.8336 195.672 78.9936 196.112 79.0256 196.312L79.6896 196.064C79.6096 195.72 79.2816 195.032 78.2256 195.032C77.4736 195.032 76.8576 195.592 76.8576 196.248C76.8576 196.792 77.2176 197.2 77.8176 197.328L78.4736 197.472C78.7936 197.544 78.9696 197.728 78.9696 197.968C78.9696 198.24 78.7376 198.48 78.3136 198.48C77.7696 198.48 77.4656 198.16 77.4176 197.76L76.7376 198ZM84.4098 198.448C83.7698 198.448 83.2098 197.968 83.2098 197.072C83.2098 196.184 83.7698 195.704 84.4098 195.704C85.0498 195.704 85.6098 196.184 85.6098 197.072C85.6098 197.968 85.0498 198.448 84.4098 198.448ZM84.4098 195.032C83.2578 195.032 82.4418 195.904 82.4418 197.072C82.4418 198.248 83.2578 199.12 84.4098 199.12C85.5618 199.12 86.3778 198.248 86.3778 197.072C86.3778 195.904 85.5618 195.032 84.4098 195.032ZM89.284 195.832V195.152H88.356V194.544C88.356 194.016 88.7 193.888 88.964 193.888C89.156 193.888 89.252 193.92 89.292 193.936V193.264C89.26 193.24 89.1 193.184 88.844 193.184C88.148 193.184 87.58 193.648 87.58 194.504V195.152H86.868V195.832H87.58V199H88.356V195.832H89.284ZM92.645 199V195.152H91.901V199H92.645ZM91.733 193.696C91.733 193.992 91.973 194.232 92.269 194.232C92.573 194.232 92.813 193.992 92.813 193.696C92.813 193.392 92.573 193.152 92.269 193.152C91.973 193.152 91.733 193.392 91.733 193.696ZM94.6139 196.776C94.6139 196.192 94.9179 195.72 95.5099 195.72C96.1819 195.72 96.4059 196.152 96.4059 196.688V199H97.1579V196.56C97.1579 195.704 96.7019 195.04 95.7819 195.04C95.3339 195.04 94.8779 195.224 94.5979 195.704V195.152H93.8619V199H94.6139V196.776ZM101.669 195.152H100.861L99.7567 198.12L98.6607 195.152H97.8127L99.3727 199H100.133L101.669 195.152ZM102.882 196.68C102.914 196.184 103.298 195.696 103.93 195.696C104.61 195.696 104.97 196.128 104.986 196.68H102.882ZM105.098 197.68C104.954 198.112 104.642 198.456 104.018 198.456C103.37 198.456 102.874 197.976 102.858 197.288H105.754C105.762 197.24 105.77 197.144 105.77 197.048C105.77 195.848 105.106 195.032 103.922 195.032C102.954 195.032 102.082 195.856 102.082 197.064C102.082 198.368 102.986 199.12 104.018 199.12C104.914 199.12 105.53 198.584 105.746 197.904L105.098 197.68ZM106.409 198C106.473 198.44 106.921 199.12 107.977 199.12C108.929 199.12 109.385 198.472 109.385 197.928C109.385 197.36 109.017 196.936 108.321 196.784L107.697 196.648C107.401 196.584 107.257 196.416 107.257 196.184C107.257 195.92 107.513 195.672 107.897 195.672C108.505 195.672 108.665 196.112 108.697 196.312L109.361 196.064C109.281 195.72 108.953 195.032 107.897 195.032C107.145 195.032 106.529 195.592 106.529 196.248C106.529 196.792 106.889 197.2 107.489 197.328L108.145 197.472C108.465 197.544 108.641 197.728 108.641 197.968C108.641 198.24 108.409 198.48 107.985 198.48C107.441 198.48 107.137 198.16 107.089 197.76L106.409 198ZM111.402 193.936H110.714V194.56C110.714 194.896 110.538 195.152 110.122 195.152H109.914V195.832H110.65V197.944C110.65 198.64 111.066 199.04 111.722 199.04C111.978 199.04 112.17 198.992 112.234 198.968V198.328C112.17 198.344 112.034 198.36 111.938 198.36C111.546 198.36 111.402 198.184 111.402 197.832V195.832H112.234V195.152H111.402V193.936ZM114.808 198.448C114.168 198.448 113.608 197.968 113.608 197.072C113.608 196.184 114.168 195.704 114.808 195.704C115.448 195.704 116.008 196.184 116.008 197.072C116.008 197.968 115.448 198.448 114.808 198.448ZM114.808 195.032C113.656 195.032 112.84 195.904 112.84 197.072C112.84 198.248 113.656 199.12 114.808 199.12C115.96 199.12 116.776 198.248 116.776 197.072C116.776 195.904 115.96 195.032 114.808 195.032ZM119.873 195.112C119.833 195.104 119.729 195.088 119.625 195.088C119.233 195.088 118.753 195.232 118.473 195.824V195.152H117.737V199H118.489V197.072C118.489 196.224 118.913 195.888 119.545 195.888C119.649 195.888 119.761 195.896 119.873 195.912V195.112ZM120.339 198C120.403 198.44 120.851 199.12 121.907 199.12C122.859 199.12 123.315 198.472 123.315 197.928C123.315 197.36 122.947 196.936 122.251 196.784L121.627 196.648C121.331 196.584 121.187 196.416 121.187 196.184C121.187 195.92 121.443 195.672 121.827 195.672C122.435 195.672 122.595 196.112 122.627 196.312L123.291 196.064C123.211 195.72 122.883 195.032 121.827 195.032C121.075 195.032 120.459 195.592 120.459 196.248C120.459 196.792 120.819 197.2 121.419 197.328L122.075 197.472C122.395 197.544 122.571 197.728 122.571 197.968C122.571 198.24 122.339 198.48 121.915 198.48C121.371 198.48 121.067 198.16 121.019 197.76L120.339 198ZM124.132 198.488C124.132 198.832 124.372 199.032 124.668 199.032C124.756 199.032 124.82 199.008 124.844 198.992C124.836 199.376 124.572 199.768 124.18 199.856V200.272C124.676 200.208 125.364 199.768 125.364 198.712C125.364 198.208 125.06 197.952 124.716 197.952C124.38 197.952 124.132 198.2 124.132 198.488ZM129.192 196.776C129.192 196.192 129.496 195.72 130.088 195.72C130.76 195.72 130.984 196.152 130.984 196.688V199H131.736V196.56C131.736 195.704 131.28 195.04 130.36 195.04C129.912 195.04 129.456 195.224 129.176 195.704V195.152H128.44V199H129.192V196.776ZM134.621 198.448C133.981 198.448 133.421 197.968 133.421 197.072C133.421 196.184 133.981 195.704 134.621 195.704C135.261 195.704 135.821 196.184 135.821 197.072C135.821 197.968 135.261 198.448 134.621 198.448ZM134.621 195.032C133.469 195.032 132.653 195.904 132.653 197.072C132.653 198.248 133.469 199.12 134.621 199.12C135.773 199.12 136.589 198.248 136.589 197.072C136.589 195.904 135.773 195.032 134.621 195.032ZM138.069 197.064C138.069 196.272 138.517 195.712 139.205 195.712C139.893 195.712 140.309 196.256 140.309 197.048C140.309 197.84 139.885 198.44 139.197 198.44C138.477 198.44 138.069 197.856 138.069 197.064ZM140.317 198.48C140.317 198.712 140.341 198.912 140.357 199H141.085C141.077 198.936 141.045 198.656 141.045 198.288V193.208H140.301V195.696C140.173 195.384 139.805 195.048 139.125 195.048C138.037 195.048 137.301 195.976 137.301 197.064C137.301 198.208 137.997 199.104 139.125 199.104C139.725 199.104 140.133 198.784 140.317 198.416V198.48ZM142.812 196.68C142.844 196.184 143.228 195.696 143.86 195.696C144.54 195.696 144.9 196.128 144.916 196.68H142.812ZM145.028 197.68C144.884 198.112 144.572 198.456 143.948 198.456C143.3 198.456 142.804 197.976 142.788 197.288H145.684C145.692 197.24 145.7 197.144 145.7 197.048C145.7 195.848 145.036 195.032 143.852 195.032C142.884 195.032 142.012 195.856 142.012 197.064C142.012 198.368 142.916 199.12 143.948 199.12C144.844 199.12 145.46 198.584 145.676 197.904L145.028 197.68ZM149.403 200.52V198.48C149.611 198.824 150.059 199.104 150.651 199.104C151.779 199.104 152.443 198.216 152.443 197.072C152.443 195.952 151.827 195.064 150.675 195.064C150.051 195.064 149.595 195.368 149.387 195.752V195.152H148.659V200.52H149.403ZM151.675 197.072C151.675 197.864 151.235 198.432 150.539 198.432C149.851 198.432 149.395 197.864 149.395 197.072C149.395 196.304 149.851 195.728 150.539 195.728C151.243 195.728 151.675 196.304 151.675 197.072ZM155.545 195.112C155.505 195.104 155.401 195.088 155.297 195.088C154.905 195.088 154.425 195.232 154.145 195.824V195.152H153.409V199H154.161V197.072C154.161 196.224 154.585 195.888 155.217 195.888C155.321 195.888 155.433 195.896 155.545 195.912V195.112ZM157.957 198.448C157.317 198.448 156.757 197.968 156.757 197.072C156.757 196.184 157.317 195.704 157.957 195.704C158.597 195.704 159.157 196.184 159.157 197.072C159.157 197.968 158.597 198.448 157.957 198.448ZM157.957 195.032C156.805 195.032 155.989 195.904 155.989 197.072C155.989 198.248 156.805 199.12 157.957 199.12C159.109 199.12 159.925 198.248 159.925 197.072C159.925 195.904 159.109 195.032 157.957 195.032ZM164.177 195.152H163.369L162.265 198.12L161.169 195.152H160.321L161.881 199H162.641L164.177 195.152ZM165.723 199V195.152H164.979V199H165.723ZM164.811 193.696C164.811 193.992 165.051 194.232 165.347 194.232C165.651 194.232 165.891 193.992 165.891 193.696C165.891 193.392 165.651 193.152 165.347 193.152C165.051 193.152 164.811 193.392 164.811 193.696ZM167.46 197.064C167.46 196.272 167.908 195.712 168.596 195.712C169.284 195.712 169.7 196.256 169.7 197.048C169.7 197.84 169.276 198.44 168.588 198.44C167.868 198.44 167.46 197.856 167.46 197.064ZM169.708 198.48C169.708 198.712 169.732 198.912 169.748 199H170.476C170.468 198.936 170.436 198.656 170.436 198.288V193.208H169.692V195.696C169.564 195.384 169.196 195.048 168.516 195.048C167.428 195.048 166.692 195.976 166.692 197.064C166.692 198.208 167.388 199.104 168.516 199.104C169.116 199.104 169.524 198.784 169.708 198.416V198.48ZM172.203 196.68C172.235 196.184 172.619 195.696 173.251 195.696C173.931 195.696 174.291 196.128 174.307 196.68H172.203ZM174.419 197.68C174.275 198.112 173.963 198.456 173.339 198.456C172.691 198.456 172.195 197.976 172.179 197.288H175.075C175.083 197.24 175.091 197.144 175.091 197.048C175.091 195.848 174.427 195.032 173.243 195.032C172.275 195.032 171.403 195.856 171.403 197.064C171.403 198.368 172.307 199.12 173.339 199.12C174.235 199.12 174.851 198.584 175.067 197.904L174.419 197.68ZM178.17 195.112C178.13 195.104 178.026 195.088 177.922 195.088C177.53 195.088 177.05 195.232 176.77 195.824V195.152H176.034V199H176.786V197.072C176.786 196.224 177.21 195.888 177.842 195.888C177.946 195.888 178.058 195.896 178.17 195.912V195.112ZM178.405 198.488C178.405 198.832 178.645 199.032 178.941 199.032C179.029 199.032 179.093 199.008 179.117 198.992C179.109 199.376 178.845 199.768 178.453 199.856V200.272C178.949 200.208 179.637 199.768 179.637 198.712C179.637 198.208 179.333 197.952 178.989 197.952C178.653 197.952 178.405 198.2 178.405 198.488ZM183.233 197.064C183.233 196.272 183.681 195.712 184.369 195.712C185.057 195.712 185.473 196.256 185.473 197.048C185.473 197.84 185.049 198.44 184.361 198.44C183.641 198.44 183.233 197.856 183.233 197.064ZM185.481 198.48C185.481 198.712 185.505 198.912 185.521 199H186.249C186.241 198.936 186.209 198.656 186.209 198.288V193.208H185.465V195.696C185.337 195.384 184.969 195.048 184.289 195.048C183.201 195.048 182.465 195.976 182.465 197.064C182.465 198.208 183.161 199.104 184.289 199.104C184.889 199.104 185.297 198.784 185.481 198.416V198.48ZM187.976 196.68C188.008 196.184 188.392 195.696 189.024 195.696C189.704 195.696 190.064 196.128 190.08 196.68H187.976ZM190.192 197.68C190.048 198.112 189.736 198.456 189.112 198.456C188.464 198.456 187.968 197.976 187.952 197.288H190.848C190.856 197.24 190.864 197.144 190.864 197.048C190.864 195.848 190.2 195.032 189.016 195.032C188.048 195.032 187.176 195.856 187.176 197.064C187.176 198.368 188.08 199.12 189.112 199.12C190.008 199.12 190.624 198.584 190.84 197.904L190.192 197.68ZM195.098 195.152H194.29L193.186 198.12L192.09 195.152H191.242L192.802 199H193.562L195.098 195.152ZM196.312 196.68C196.344 196.184 196.728 195.696 197.36 195.696C198.04 195.696 198.4 196.128 198.416 196.68H196.312ZM198.528 197.68C198.384 198.112 198.072 198.456 197.448 198.456C196.8 198.456 196.304 197.976 196.288 197.288H199.184C199.192 197.24 199.2 197.144 199.2 197.048C199.2 195.848 198.536 195.032 197.352 195.032C196.384 195.032 195.512 195.856 195.512 197.064C195.512 198.368 196.416 199.12 197.448 199.12C198.344 199.12 198.96 198.584 199.176 197.904L198.528 197.68ZM200.895 199V193.208H200.143V199H200.895ZM203.824 198.448C203.184 198.448 202.624 197.968 202.624 197.072C202.624 196.184 203.184 195.704 203.824 195.704C204.464 195.704 205.024 196.184 205.024 197.072C205.024 197.968 204.464 198.448 203.824 198.448ZM203.824 195.032C202.672 195.032 201.856 195.904 201.856 197.072C201.856 198.248 202.672 199.12 203.824 199.12C204.976 199.12 205.792 198.248 205.792 197.072C205.792 195.904 204.976 195.032 203.824 195.032ZM207.497 200.52V198.48C207.705 198.824 208.153 199.104 208.745 199.104C209.873 199.104 210.537 198.216 210.537 197.072C210.537 195.952 209.921 195.064 208.769 195.064C208.145 195.064 207.689 195.368 207.481 195.752V195.152H206.753V200.52H207.497ZM209.769 197.072C209.769 197.864 209.329 198.432 208.633 198.432C207.945 198.432 207.489 197.864 207.489 197.072C207.489 196.304 207.945 195.728 208.633 195.728C209.337 195.728 209.769 196.304 209.769 197.072ZM212.047 196.68C212.079 196.184 212.463 195.696 213.095 195.696C213.775 195.696 214.135 196.128 214.151 196.68H212.047ZM214.263 197.68C214.119 198.112 213.807 198.456 213.183 198.456C212.535 198.456 212.039 197.976 212.023 197.288H214.919C214.927 197.24 214.935 197.144 214.935 197.048C214.935 195.848 214.271 195.032 213.087 195.032C212.119 195.032 211.247 195.856 211.247 197.064C211.247 198.368 212.151 199.12 213.183 199.12C214.079 199.12 214.695 198.584 214.911 197.904L214.263 197.68ZM218.014 195.112C217.974 195.104 217.87 195.088 217.766 195.088C217.374 195.088 216.894 195.232 216.614 195.824V195.152H215.878V199H216.63V197.072C216.63 196.224 217.054 195.888 217.686 195.888C217.79 195.888 217.902 195.896 218.014 195.912V195.112ZM218.48 198C218.544 198.44 218.992 199.12 220.048 199.12C221 199.12 221.456 198.472 221.456 197.928C221.456 197.36 221.088 196.936 220.392 196.784L219.768 196.648C219.472 196.584 219.328 196.416 219.328 196.184C219.328 195.92 219.584 195.672 219.968 195.672C220.576 195.672 220.736 196.112 220.768 196.312L221.432 196.064C221.352 195.72 221.024 195.032 219.968 195.032C219.216 195.032 218.6 195.592 218.6 196.248C218.6 196.792 218.96 197.2 219.56 197.328L220.216 197.472C220.536 197.544 220.712 197.728 220.712 197.968C220.712 198.24 220.48 198.48 220.056 198.48C219.512 198.48 219.208 198.16 219.16 197.76L218.48 198ZM224.184 197.968C224.184 198.576 224.688 199.12 225.472 199.12C226.16 199.12 226.544 198.752 226.712 198.48C226.712 198.76 226.736 198.904 226.752 199H227.488C227.472 198.904 227.44 198.704 227.44 198.368V196.44C227.44 195.688 226.992 195.032 225.84 195.032C225.008 195.032 224.344 195.544 224.264 196.28L224.984 196.448C225.032 196 225.328 195.672 225.856 195.672C226.44 195.672 226.688 195.984 226.688 196.36C226.688 196.496 226.624 196.616 226.392 196.648L225.352 196.8C224.688 196.896 224.184 197.28 224.184 197.968ZM225.576 198.488C225.192 198.488 224.952 198.216 224.952 197.928C224.952 197.584 225.192 197.4 225.512 197.352L226.688 197.176V197.352C226.688 198.192 226.192 198.488 225.576 198.488ZM229.38 196.776C229.38 196.192 229.684 195.72 230.276 195.72C230.948 195.72 231.172 196.152 231.172 196.688V199H231.924V196.56C231.924 195.704 231.468 195.04 230.548 195.04C230.1 195.04 229.644 195.224 229.364 195.704V195.152H228.628V199H229.38V196.776ZM233.616 197.064C233.616 196.272 234.064 195.712 234.752 195.712C235.44 195.712 235.856 196.256 235.856 197.048C235.856 197.84 235.432 198.44 234.744 198.44C234.024 198.44 233.616 197.856 233.616 197.064ZM235.864 198.48C235.864 198.712 235.888 198.912 235.904 199H236.632C236.624 198.936 236.592 198.656 236.592 198.288V193.208H235.848V195.696C235.72 195.384 235.352 195.048 234.672 195.048C233.584 195.048 232.848 195.976 232.848 197.064C232.848 198.208 233.544 199.104 234.672 199.104C235.272 199.104 235.68 198.784 235.864 198.416V198.48ZM240.73 193.936H240.042V194.56C240.042 194.896 239.866 195.152 239.45 195.152H239.242V195.832H239.978V197.944C239.978 198.64 240.394 199.04 241.05 199.04C241.306 199.04 241.498 198.992 241.562 198.968V198.328C241.498 198.344 241.362 198.36 241.266 198.36C240.874 198.36 240.73 198.184 240.73 197.832V195.832H241.562V195.152H240.73V193.936ZM243.208 196.736C243.224 196.168 243.528 195.72 244.104 195.72C244.776 195.72 245 196.152 245 196.688V199H245.752V196.56C245.752 195.704 245.296 195.04 244.376 195.04C243.936 195.04 243.488 195.192 243.208 195.6V193.208H242.456V199H243.208V196.736ZM247.468 196.68C247.5 196.184 247.884 195.696 248.516 195.696C249.196 195.696 249.556 196.128 249.572 196.68H247.468ZM249.684 197.68C249.54 198.112 249.228 198.456 248.604 198.456C247.956 198.456 247.46 197.976 247.444 197.288H250.34C250.348 197.24 250.356 197.144 250.356 197.048C250.356 195.848 249.692 195.032 248.508 195.032C247.54 195.032 246.668 195.856 246.668 197.064C246.668 198.368 247.572 199.12 248.604 199.12C249.5 199.12 250.116 198.584 250.332 197.904L249.684 197.68ZM123.599 211V205.328H122.799V211H123.599ZM127.567 211.12C128.871 211.12 129.767 210.36 130.071 209.296L129.375 209.04C129.143 209.816 128.535 210.4 127.567 210.4C126.535 210.4 125.551 209.64 125.551 208.16C125.551 206.68 126.535 205.928 127.567 205.928C128.495 205.928 129.119 206.408 129.335 207.264L130.063 207.008C129.775 205.912 128.863 205.208 127.567 205.208C126.159 205.208 124.751 206.264 124.751 208.16C124.751 210.056 126.103 211.12 127.567 211.12ZM136.829 211H137.677L135.421 205.328H134.517L132.261 211H133.101L133.701 209.416H136.213L136.829 211ZM134.949 206.144L135.933 208.688H133.981L134.949 206.144ZM138.07 210C138.134 210.44 138.582 211.12 139.638 211.12C140.59 211.12 141.046 210.472 141.046 209.928C141.046 209.36 140.678 208.936 139.982 208.784L139.358 208.648C139.062 208.584 138.918 208.416 138.918 208.184C138.918 207.92 139.174 207.672 139.558 207.672C140.166 207.672 140.326 208.112 140.358 208.312L141.022 208.064C140.942 207.72 140.614 207.032 139.558 207.032C138.806 207.032 138.19 207.592 138.19 208.248C138.19 208.792 138.55 209.2 139.15 209.328L139.806 209.472C140.126 209.544 140.302 209.728 140.302 209.968C140.302 210.24 140.07 210.48 139.646 210.48C139.102 210.48 138.798 210.16 138.75 209.76L138.07 210ZM141.71 210C141.774 210.44 142.222 211.12 143.278 211.12C144.23 211.12 144.686 210.472 144.686 209.928C144.686 209.36 144.318 208.936 143.622 208.784L142.998 208.648C142.702 208.584 142.558 208.416 142.558 208.184C142.558 207.92 142.814 207.672 143.198 207.672C143.806 207.672 143.966 208.112 143.998 208.312L144.662 208.064C144.582 207.72 144.254 207.032 143.198 207.032C142.446 207.032 141.83 207.592 141.83 208.248C141.83 208.792 142.19 209.2 142.79 209.328L143.446 209.472C143.766 209.544 143.942 209.728 143.942 209.968C143.942 210.24 143.71 210.48 143.286 210.48C142.742 210.48 142.438 210.16 142.39 209.76L141.71 210ZM147.367 210.448C146.727 210.448 146.167 209.968 146.167 209.072C146.167 208.184 146.727 207.704 147.367 207.704C148.007 207.704 148.567 208.184 148.567 209.072C148.567 209.968 148.007 210.448 147.367 210.448ZM147.367 207.032C146.215 207.032 145.399 207.904 145.399 209.072C145.399 210.248 146.215 211.12 147.367 211.12C148.519 211.12 149.335 210.248 149.335 209.072C149.335 207.904 148.519 207.032 147.367 207.032ZM151.976 207.728C152.632 207.728 152.912 208.168 153.008 208.544L153.688 208.256C153.528 207.672 153 207.032 151.976 207.032C150.88 207.032 150.04 207.872 150.04 209.072C150.04 210.24 150.863 211.12 151.984 211.12C152.984 211.12 153.536 210.472 153.72 209.92L153.056 209.632C152.968 209.936 152.704 210.424 151.984 210.424C151.36 210.424 150.808 209.952 150.808 209.072C150.808 208.176 151.368 207.728 151.976 207.728ZM155.352 211V207.152H154.608V211H155.352ZM154.44 205.696C154.44 205.992 154.68 206.232 154.976 206.232C155.28 206.232 155.52 205.992 155.52 205.696C155.52 205.392 155.28 205.152 154.976 205.152C154.68 205.152 154.44 205.392 154.44 205.696ZM156.313 209.968C156.313 210.576 156.817 211.12 157.601 211.12C158.289 211.12 158.673 210.752 158.841 210.48C158.841 210.76 158.865 210.904 158.881 211H159.617C159.601 210.904 159.569 210.704 159.569 210.368V208.44C159.569 207.688 159.121 207.032 157.969 207.032C157.137 207.032 156.473 207.544 156.393 208.28L157.113 208.448C157.161 208 157.457 207.672 157.985 207.672C158.569 207.672 158.817 207.984 158.817 208.36C158.817 208.496 158.753 208.616 158.521 208.648L157.481 208.8C156.817 208.896 156.313 209.28 156.313 209.968ZM157.705 210.488C157.321 210.488 157.081 210.216 157.081 209.928C157.081 209.584 157.321 209.4 157.641 209.352L158.817 209.176V209.352C158.817 210.192 158.321 210.488 157.705 210.488ZM161.773 205.936H161.085V206.56C161.085 206.896 160.909 207.152 160.493 207.152H160.285V207.832H161.021V209.944C161.021 210.64 161.437 211.04 162.093 211.04C162.349 211.04 162.541 210.992 162.605 210.968V210.328C162.541 210.344 162.405 210.36 162.309 210.36C161.917 210.36 161.773 210.184 161.773 209.832V207.832H162.605V207.152H161.773V205.936ZM164.243 211V207.152H163.499V211H164.243ZM163.331 205.696C163.331 205.992 163.571 206.232 163.867 206.232C164.171 206.232 164.411 205.992 164.411 205.696C164.411 205.392 164.171 205.152 163.867 205.152C163.571 205.152 163.331 205.392 163.331 205.696ZM167.172 210.448C166.532 210.448 165.972 209.968 165.972 209.072C165.972 208.184 166.532 207.704 167.172 207.704C167.812 207.704 168.372 208.184 168.372 209.072C168.372 209.968 167.812 210.448 167.172 210.448ZM167.172 207.032C166.02 207.032 165.204 207.904 165.204 209.072C165.204 210.248 166.02 211.12 167.172 211.12C168.324 211.12 169.14 210.248 169.14 209.072C169.14 207.904 168.324 207.032 167.172 207.032ZM170.852 208.776C170.852 208.192 171.156 207.72 171.748 207.72C172.42 207.72 172.644 208.152 172.644 208.688V211H173.396V208.56C173.396 207.704 172.94 207.04 172.02 207.04C171.572 207.04 171.116 207.224 170.836 207.704V207.152H170.1V211H170.852V208.776Z" fill="#181818"/>
</svg>
