<svg width="41" height="40" viewBox="0 0 41 40" fill="none"
  xmlns="http://www.w3.org/2000/svg">
  <path fill-rule="evenodd" clip-rule="evenodd" d="M0 16.7113V6.37649L8.98192 11.3153V21.7999L0 16.7113ZM9.79162 9.87235L18.6294 5.04381L9.72054 0L0.936575 5.00329L9.79162 9.87235ZM10.6365 11.2962V21.7026L19.5001 16.7113V6.4535L10.6365 11.2962Z" fill="#3B00B9"/>
  <path fill-rule="evenodd" clip-rule="evenodd" d="M21.1547 16.7113V6.3766L30.1364 11.3153V21.7998L21.1547 16.7113ZM30.9461 9.87238L39.7841 5.04379L30.8752 0L22.0911 5.00335L30.9461 9.87238ZM31.791 11.2962V21.7027L40.6548 16.7113V6.45346L31.791 11.2962Z" fill="#3B00B9"/>
  <path fill-rule="evenodd" clip-rule="evenodd" d="M10.2821 34.9125V23.8032L19.2639 28.8917V40.001L10.2821 34.9125ZM20.9184 39.9038L29.7822 34.9125V23.8032L20.9184 28.7946V39.9038Z" fill="#3B00B9"/>
</svg>
