<svg width="37" height="40" viewBox="0 0 37 40" fill="none"
  xmlns="http://www.w3.org/2000/svg">
  <path fill-rule="evenodd" clip-rule="evenodd" d="M14.6256 0C15.6062 0 16.5528 0.145642 17.4449 0.416476V29.6808L17.4245 29.6846L17.4449 29.6985V39.024C16.5412 39.6399 15.4492 40 14.2731 40C11.8362 40 9.76039 38.4542 8.97271 36.2896C8.86077 36.2962 8.74796 36.2996 8.63436 36.2996C5.52016 36.2996 2.99559 33.775 2.99559 30.6608C2.99559 30.0491 3.093 29.4601 3.27314 28.9086C1.34064 28.0142 0 26.0579 0 23.7885C0 22.7591 0.275868 21.7941 0.75771 20.9634C1.93194 20.3805 3.43141 19.7616 5.29079 19.1959C6.16573 18.9296 7.42053 18.9972 8.62521 19.2586C9.21026 19.3856 9.74437 19.5498 10.1635 19.7146C10.3731 19.797 10.5446 19.8759 10.6744 19.9454C10.7389 19.9799 10.7883 20.0096 10.8242 20.0334L10.8275 20.0355C10.9091 20.1514 11.0164 20.2518 11.1471 20.3275C11.6299 20.6071 12.248 20.4424 12.5276 19.9596C12.7992 19.4906 12.6516 18.894 12.2004 18.6039L12.2162 18.5865C11.8919 18.2928 11.3865 18.0464 10.8953 17.8533C10.3681 17.646 9.73033 17.4519 9.0493 17.3041C7.72182 17.0161 6.06781 16.8689 4.7086 17.2825C3.40446 17.6793 2.25877 18.1037 1.26197 18.53C0.458769 17.1182 0 15.4849 0 13.7445C0 9.56618 2.64412 6.00544 6.35038 4.64423C8.0529 1.85892 11.1221 0 14.6256 0ZM14.2476 9.07877C14.3742 8.90448 14.4489 8.69003 14.4489 8.45815C14.4489 7.87424 13.9755 7.40088 13.3916 7.40088C12.9484 7.40088 12.569 7.67353 12.4118 8.06022L12.4008 8.05872L12.394 8.10709C12.3553 8.21694 12.3343 8.33509 12.3343 8.45815V8.45877C12.2085 9.09388 11.9351 9.95329 11.2996 10.5465C10.9952 10.8306 10.4562 11.0321 9.78429 11.1182C9.42802 11.1639 9.08446 11.1707 8.79849 11.1575C8.69155 11.1211 8.57691 11.1013 8.45766 11.1013C8.41094 11.1013 8.36493 11.1044 8.31981 11.1102C8.2859 11.1046 8.25477 11.0987 8.22666 11.0927L8.21902 11.1284C7.75004 11.2366 7.40039 11.6567 7.40039 12.1586C7.40039 12.502 7.56416 12.8073 7.81787 13.0004L7.80761 13.0483C7.84477 13.0563 7.88344 13.0639 7.92351 13.0712C8.08026 13.1631 8.26281 13.2159 8.45766 13.2159C8.5776 13.2159 8.69286 13.1959 8.80033 13.1591C9.18461 13.1721 9.60959 13.157 10.0385 13.102C10.8791 12.9943 11.9113 12.7113 12.6642 12.0086C13.6366 11.1011 14.0563 9.91415 14.2476 9.07877ZM6.94845 23.8019C7.00489 23.8012 7.06025 23.8054 7.11413 23.8142L7.115 23.8072C7.89488 23.9035 9.90798 24.2175 11.3346 25.7076C12.1304 26.5389 12.4686 27.6982 12.6048 28.6635C12.7345 29.5831 12.703 30.4865 12.5989 31.0926C12.5999 31.1086 12.6005 31.1248 12.6007 31.1411C12.6078 31.6989 12.1613 32.1569 11.6034 32.164C11.0455 32.1711 10.5875 31.7246 10.5804 31.1667C10.5789 31.0458 10.5986 30.9295 10.6363 30.8215L10.616 30.8175C10.6883 30.4578 10.7345 29.7233 10.6244 28.9429C10.512 28.1459 10.2614 27.4788 9.88991 27.0907C8.9819 26.1423 7.60078 25.8823 6.86994 25.7921L6.87697 25.7352C6.39298 25.6926 6.01027 25.2845 6.0039 24.7825C5.99711 24.2476 6.42 23.8086 6.94845 23.8019Z" fill="#3B00B9"/>
  <path fill-rule="evenodd" clip-rule="evenodd" d="M21.6737 0C20.6931 0 19.7466 0.145616 18.8545 0.416402V29.6808L18.8747 29.6846L18.8545 29.6983V39.0242C19.7582 39.64 20.8501 40 22.0261 40C24.2047 40 26.0947 38.7645 27.0337 36.956C26.5656 36.8213 26.0892 36.6235 25.6318 36.338C24.6556 35.7286 24.042 34.6884 23.672 33.7865C23.3196 32.9272 23.1274 32.0438 23.0789 31.4308C23.0759 31.4216 23.0731 31.4124 23.0704 31.403C23.0687 31.3969 23.0669 31.3907 23.0653 31.3845C22.9209 30.8455 23.2407 30.2916 23.7796 30.1472C24.3185 30.0028 24.8725 30.3226 25.0169 30.8615C25.0482 30.9783 25.0577 31.0959 25.0478 31.2098L25.0684 31.2087C25.087 31.5751 25.2233 32.2983 25.5224 33.0275C25.8279 33.7722 26.2352 34.357 26.6909 34.6415C27.8047 35.3368 29.2073 35.2482 29.9378 35.1554L29.945 35.2123C30.2197 35.1676 30.4918 35.2473 30.6986 35.4148C32.2651 34.413 33.3036 32.6582 33.3036 30.6608C33.3036 30.0491 33.2062 29.4601 33.0261 28.9086C34.9586 28.0142 36.2992 26.0579 36.2992 23.7885C36.2992 22.6666 35.9716 21.6211 35.4067 20.7427C34.9546 21.1542 34.4656 21.5769 33.9372 22.0082C32.8366 22.9067 31.2505 23.3982 29.913 23.6355C29.2268 23.7572 28.5631 23.8196 27.9966 23.8279C27.4689 23.8356 26.9078 23.7995 26.4963 23.6508L26.5043 23.6287C25.9769 23.5315 25.6139 23.0356 25.6872 22.4987C25.7627 21.9458 26.272 21.5589 26.8248 21.6344C26.9744 21.6548 27.1118 21.707 27.2312 21.7832L27.2351 21.7839C27.2773 21.7923 27.3343 21.801 27.4072 21.8085C27.5536 21.8235 27.7422 21.8314 27.9674 21.8281C28.4177 21.8215 28.9742 21.7708 29.5636 21.6662C30.7774 21.4509 31.964 21.0372 32.6724 20.4589C33.6921 19.6266 34.5497 18.8343 35.2659 18.1037C35.9269 16.7933 36.2992 15.3124 36.2992 13.7445C36.2992 9.56618 33.6551 6.00544 29.9489 4.64423C28.2463 1.85892 25.1771 0 21.6737 0ZM11.9821 9.69163L11.9823 9.76115V9.62211L11.9821 9.69163ZM29.5573 15.8588C29.7584 15.9359 29.9849 15.9525 30.2089 15.8925C30.7729 15.7414 31.1076 15.1617 30.9565 14.5976C30.8418 14.1696 30.4802 13.8736 30.066 13.8219L30.0646 13.8108L30.0162 13.8168C29.9 13.8079 29.7805 13.8182 29.6616 13.85L29.661 13.8502C29.0149 13.8931 28.1141 13.8514 27.3766 13.3911C27.0235 13.1706 26.6893 12.7021 26.4322 12.0754C26.2959 11.743 26.2003 11.4129 26.1391 11.1333C26.1466 11.0206 26.136 10.9047 26.1051 10.7896C26.0931 10.7445 26.0782 10.7008 26.0609 10.6588C26.0576 10.6245 26.0552 10.5929 26.0537 10.5642L26.0173 10.5661C25.7914 10.1411 25.295 9.91207 24.8103 10.042C24.4785 10.1309 24.2261 10.368 24.1052 10.6631L24.0563 10.6656C24.0582 10.7035 24.0608 10.7428 24.0642 10.7834C24.0159 10.9586 24.0122 11.1486 24.0627 11.3368C24.0937 11.4527 24.1428 11.5589 24.2062 11.6532C24.2931 12.0277 24.4177 12.4343 24.5818 12.8344C24.9034 13.6184 25.4439 14.5422 26.3175 15.0876C27.4458 15.7919 28.7009 15.8902 29.5573 15.8588Z" fill="#3B00B9"/>
</svg>
