<svg width="84" height="84" viewBox="0 0 84 84" fill="none" xmlns="http://www.w3.org/2000/svg">
<path fill-rule="evenodd" clip-rule="evenodd" d="M42.6616 13.6133L41.8647 11.9763L41.0697 13.6142L38.96 17.9606L34.0793 18.6267L32.2907 18.8708L33.5791 20.1352L37.1615 23.6508L36.2553 28.6865L35.9224 30.5368L37.5605 29.6144L41.8659 27.1904L46.1712 29.6144L47.8069 30.5354L47.4766 28.6875L46.5764 23.6513L50.1593 20.1352L51.4477 18.8708L49.6591 18.6267L44.7778 17.9605L42.6616 13.6133ZM40.3454 19.1599L41.867 16.025L43.3935 19.1607L43.6006 19.5863L44.0695 19.6503L47.6311 20.1363L45.0031 22.7153L44.6696 23.0427L44.7518 23.5027L45.4039 27.1512L42.3001 25.4036L41.8659 25.1591L41.4317 25.4036L38.3303 27.1498L38.9864 23.5037L39.0693 23.0431L38.7353 22.7153L36.1073 20.1363L39.6689 19.6503L40.1384 19.5862L40.3454 19.1599ZM17.1043 42.1381C20.986 42.1381 24.3764 44.2156 26.2344 47.3196C25.3695 49.3502 24.8979 51.5862 24.8979 53.9228C24.8979 54.8245 24.9677 55.7106 25.1039 56.5753C23.6155 55.3183 21.8266 54.4065 19.8599 53.9619C21.5195 53.007 22.6369 51.2159 22.6369 49.1638C22.6369 46.1088 20.1603 43.6322 17.1053 43.6322C14.0503 43.6322 11.5737 46.1088 11.5737 49.1638C11.5737 51.2114 12.6862 52.9991 14.3397 53.9555C11.7077 54.5395 9.47407 55.9461 7.79076 57.8807C6.95463 56.3624 6.47898 54.6181 6.47898 52.7634C6.47898 46.8993 11.2342 42.1381 17.1043 42.1381ZM8.8173 59.4131C10.7644 61.8366 13.7526 63.3888 17.1043 63.3888C20.4643 63.3888 23.4589 61.8282 25.3964 59.3978C23.4485 56.9726 20.4626 55.4267 17.1121 55.4267C13.6286 55.4267 10.758 56.9796 8.8173 59.4131ZM17.1043 65.1588C20.8206 65.1588 24.1548 63.5209 26.4172 60.9357C29.0775 66.8055 34.9929 70.885 41.8602 70.885C47.5881 70.885 52.6517 68.0484 55.7119 63.7083C56.3741 62.7808 56.9402 61.7839 57.4017 60.7327C59.6775 63.4347 63.0849 65.1555 66.8981 65.1555C71.0809 65.1555 74.7768 63.0809 77.0196 59.9098C78.4568 57.886 79.2934 55.4247 79.2934 52.7602C79.2934 45.9119 73.7391 40.3649 66.8981 40.3649C62.6747 40.3649 58.9451 42.4738 56.7053 45.6966C53.8098 40.4843 48.2436 36.9538 41.8602 36.9538C35.4637 36.9538 30.0474 40.3921 27.1422 45.4861C24.8896 42.3874 21.2368 40.3681 17.1043 40.3681C10.256 40.3681 4.70898 45.9224 4.70898 52.7634C4.70898 59.6045 10.256 65.1588 17.1043 65.1588ZM28.7931 61.6711C28.3466 60.9177 27.9635 60.1223 27.6513 59.2922L27.6513 59.2921L27.5044 58.8751C26.9607 57.3316 26.6718 55.6654 26.6718 53.9251C26.6718 51.6834 27.1552 49.5523 28.0316 47.643L28.2165 47.24L28.2164 47.2397C30.6793 42.1932 35.7702 38.7238 41.8602 38.7238C48.0766 38.7238 53.4321 42.4629 55.784 47.8181L55.8167 47.8937C56.6129 49.737 57.0584 51.7751 57.0584 53.9218C57.0584 55.5658 56.795 57.146 56.3121 58.6258L56.259 58.7888C55.9171 59.7986 55.4731 60.7614 54.9359 61.6628C52.3818 58.5815 48.7601 56.4196 44.6336 55.7438C47.3359 54.6487 49.2425 51.9984 49.2425 48.904C49.2425 44.8307 45.9388 41.527 41.8655 41.527C41.6655 41.527 41.4674 41.535 41.2714 41.5506C37.4732 41.8508 34.4832 45.0293 34.4832 48.9044C34.4832 51.9921 36.3815 54.6375 39.0744 55.737C34.8622 56.4066 31.3382 58.5808 28.7931 61.6711ZM66.8981 63.3855C63.5458 63.3855 60.5574 61.835 58.6051 59.4099C60.5457 56.9777 63.4156 55.4258 66.898 55.4258C70.2511 55.4258 73.239 56.9741 75.1867 59.4024C73.2385 61.8321 70.2502 63.3855 66.8981 63.3855ZM77.5234 52.7602C77.5234 54.6184 77.0505 56.3565 76.2129 57.8726C74.521 55.9451 72.2402 54.5486 69.6509 53.9621C71.3116 53.0076 72.4299 51.2159 72.4299 49.1629C72.4299 46.1079 69.9533 43.6313 66.8983 43.6313C63.8433 43.6313 61.3667 46.1079 61.3667 49.1629C61.3667 51.2097 62.4783 52.9968 64.1308 53.9535C61.9874 54.4281 60.108 55.4481 58.5747 56.8546C58.7417 55.9025 58.8291 54.9229 58.8291 53.9228C58.8291 51.6816 58.3933 49.543 57.6075 47.589C59.427 44.3317 62.9063 42.1349 66.8981 42.1349C72.7622 42.1349 77.5234 46.8901 77.5234 52.7602ZM41.8602 69.115C36.9651 69.115 32.609 66.8006 29.8339 63.2048C32.6119 59.6021 36.7798 57.2896 41.8649 57.2896C46.7633 57.2896 51.1124 59.5978 53.8939 63.1927C51.1243 66.7948 46.7649 69.115 41.8602 69.115ZM41.8602 43.2974C41.7098 43.2974 41.5608 43.3034 41.4133 43.315C38.5289 43.5454 36.2586 45.9605 36.2586 48.904C36.2586 51.9997 38.7698 54.511 41.8655 54.511C42.0143 54.511 42.1617 54.5052 42.3075 54.4938C45.1943 54.2658 47.4672 51.8496 47.4672 48.9044C47.4672 45.8087 44.956 43.2974 41.8602 43.2974ZM63.1367 49.1629C63.1367 47.0854 64.8208 45.4013 66.8983 45.4013C68.9758 45.4013 70.6599 47.0854 70.6599 49.1629C70.6599 51.2404 68.9758 52.9245 66.8983 52.9245C64.8208 52.9245 63.1367 51.2404 63.1367 49.1629ZM17.1053 45.4022C15.0278 45.4022 13.3437 47.0863 13.3437 49.1638C13.3437 51.2413 15.0278 52.9254 17.1053 52.9254C19.1828 52.9254 20.8669 51.2413 20.8669 49.1638C20.8669 47.0863 19.1828 45.4022 17.1053 45.4022ZM56.5748 19.9377L58.0103 21.0314L60.282 22.7622L62.934 21.8479L64.6567 21.254L64.0584 22.9752L63.1389 25.6202L64.8697 27.8976L65.9627 29.3357L64.1564 29.318L61.2392 29.2894L59.5416 31.7327L58.471 33.2735L57.9629 31.4673L57.1878 28.7122L54.4392 27.9374L52.6372 27.4294L54.1735 26.3593L56.6119 24.6611L56.589 21.7423L56.5748 19.9377ZM58.3731 23.533L58.3855 25.1138L58.3891 25.5803L58.0063 25.8469L56.7215 26.7417L58.1455 27.1432L58.623 27.2778L58.7573 27.7553L59.1587 29.1819L60.0529 27.8949L60.3201 27.5103L60.7883 27.5149L62.3674 27.5304L61.4425 26.3134L61.1553 25.9355L61.3112 25.4873L61.7882 24.1151L60.4109 24.5899L59.963 24.7444L59.5862 24.4572L58.3731 23.533ZM23.0202 21.458L21.5847 20.3643L21.5989 22.1689L21.6217 25.0872L19.1776 26.7854L17.6368 27.8561L19.4429 28.3642L22.1967 29.1388L22.9657 31.8924L23.4705 33.7003L24.544 32.1605L26.2482 29.7161L29.1663 29.7447L30.9726 29.7624L29.8795 28.3242L28.1481 26.046L29.0622 23.4002L29.6563 21.6806L27.9367 22.2747L25.2916 23.1886L23.0202 21.458ZM23.3954 25.5404L23.383 23.9596L24.596 24.8839L24.9732 25.1713L25.4214 25.0164L26.7951 24.5418L26.3205 25.9155L26.1659 26.3631L26.4524 26.74L27.3773 27.9571L25.7982 27.9416L25.3309 27.937L25.0636 28.3204L24.1656 29.6084L23.7677 28.1836L23.6339 27.7044L23.155 27.5697L21.7284 27.1684L23.0154 26.2742L23.399 26.0076L23.3954 25.5404Z" fill="url(#paint0_linear_12296_24705)"/>
<defs>
<linearGradient id="paint0_linear_12296_24705" x1="4.70898" y1="11.9763" x2="78.8419" y2="33.0138" gradientUnits="userSpaceOnUse">
<stop stop-color="#3B00B9"/>
<stop offset="1" stop-color="#2586B6"/>
</linearGradient>
</defs>
</svg>
