<svg width="84" height="84" viewBox="0 0 84 84" fill="none" xmlns="http://www.w3.org/2000/svg">
<path d="M6.71198 75.2456C6.29532 75.5011 6.16468 76.046 6.4202 76.4627C6.67571 76.8793 7.22062 77.01 7.63729 76.7544L6.71198 75.2456ZM22.7652 66.4392L22.6807 65.5582L22.477 65.5778L22.3026 65.6847L22.7652 66.4392ZM48.5004 63.9684L48.585 64.8494L48.6781 64.8404L48.7673 64.8122L48.5004 63.9684ZM76.6916 55.0521L76.9585 55.8959L76.9658 55.8936L76.973 55.8912L76.6916 55.0521ZM78.8273 50.8626L79.6763 50.6125L78.8273 50.8626ZM74.6627 48.7141L74.4987 47.8444L74.6627 48.7141ZM5.69457 53.0398C5.23583 53.2085 5.00069 53.7171 5.16937 54.1759C5.33806 54.6346 5.84669 54.8698 6.30543 54.7011L5.69457 53.0398ZM21.4838 48.1769V47.2919H21.3263L21.1784 47.3463L21.4838 48.1769ZM52.0243 53.8705L52.1823 54.7412L52.1835 54.741L52.0243 53.8705ZM51.2768 8V7.115V8ZM68.576 25.4028H67.691H68.576ZM51.2768 42.8057V41.9207V42.8057ZM47.0054 17.6682L47.7947 17.2679L47.0054 15.7121L46.2162 17.2679L47.0054 17.6682ZM49.4382 22.464L48.649 22.8643L48.8531 23.2666L49.2984 23.3379L49.4382 22.464ZM54.7239 23.3096L55.3519 23.9331L56.5678 22.7084L54.8637 22.4358L54.7239 23.3096ZM50.9418 27.1192L50.3138 26.4957L49.9981 26.8137L50.0675 27.2563L50.9418 27.1192ZM51.7757 32.4376L51.3725 33.2254L52.9191 34.0169L52.65 32.3005L51.7757 32.4376ZM47.0054 29.9963L47.4086 29.2085L47.0054 29.0022L46.6022 29.2085L47.0054 29.9963ZM42.2351 32.4376L41.3608 32.3005L41.0917 34.0169L42.6383 33.2254L42.2351 32.4376ZM43.069 27.1192L43.9433 27.2563L44.0127 26.8137L43.6971 26.4957L43.069 27.1192ZM39.287 23.3096L39.1471 22.4358L37.443 22.7084L38.6589 23.9331L39.287 23.3096ZM44.5726 22.464L44.7124 23.3379L45.1578 23.2666L45.3618 22.8643L44.5726 22.464ZM7.63729 76.7544L23.2279 67.1936L22.3026 65.6847L6.71198 75.2456L7.63729 76.7544ZM22.8498 67.3201L48.585 64.8494L48.4158 63.0875L22.6807 65.5582L22.8498 67.3201ZM48.7673 64.8122L76.9585 55.8959L76.4247 54.2083L48.2335 63.1246L48.7673 64.8122ZM76.973 55.8912C77.5855 55.6858 78.4761 55.1913 79.1151 54.331C79.7855 53.4285 80.1364 52.1746 79.6763 50.6125L77.9784 51.1126C78.2776 52.1287 78.0412 52.8085 77.6942 53.2756C77.3158 53.785 76.7588 54.0962 76.4102 54.2131L76.973 55.8912ZM79.6763 50.6125C79.3439 49.4842 78.6577 48.6426 77.6969 48.1669C76.7575 47.7017 75.6435 47.6285 74.4987 47.8444L74.8267 49.5837C75.7108 49.417 76.4102 49.5048 76.9114 49.7531C77.3913 49.9907 77.7728 50.4146 77.9784 51.1126L79.6763 50.6125ZM74.4987 47.8444C73.1536 48.0981 60.8798 49.949 54.8833 50.8467L55.1453 52.5972C61.1087 51.7045 73.4381 49.8456 74.8267 49.5837L74.4987 47.8444ZM6.30543 54.7011L21.7892 49.0076L21.1784 47.3463L5.69457 53.0398L6.30543 54.7011ZM21.4838 49.0619H52.0243V47.2919H21.4838V49.0619ZM52.0243 49.0619C52.4039 49.0619 52.9526 49.1518 53.3796 49.4442C53.7509 49.6985 54.1293 50.1688 54.1293 51.1848H55.8993C55.8993 49.6226 55.2632 48.589 54.3798 47.9839C53.552 47.4169 52.6057 47.2919 52.0243 47.2919V49.0619ZM54.1293 51.1848C54.1293 51.8116 53.8624 52.1719 53.4668 52.4372C53.023 52.7348 52.4249 52.8975 51.8651 52.9999L52.1835 54.741C52.7984 54.6286 53.6952 54.4152 54.4527 53.9072C55.2585 53.3668 55.8993 52.4917 55.8993 51.1848H54.1293ZM51.8663 52.9997L38.8386 55.363L39.1545 57.1046L52.1823 54.7412L51.8663 52.9997ZM63.4196 25.4029C63.4196 34.5304 56.0657 41.9207 47.0054 41.9207V43.6907C57.0532 43.6907 65.1896 35.498 65.1896 25.4029H63.4196ZM47.0054 41.9207C37.9451 41.9207 30.5913 34.5304 30.5913 25.4029H28.8213C28.8213 35.498 36.9576 43.6907 47.0054 43.6907V41.9207ZM30.5913 25.4029C30.5913 16.2753 37.9451 8.88501 47.0054 8.88501V7.11501C36.9576 7.11501 28.8213 15.3077 28.8213 25.4029H30.5913ZM47.0054 8.88501C56.0657 8.88501 63.4196 16.2753 63.4196 25.4029H65.1896C65.1896 15.3077 57.0532 7.11501 47.0054 7.11501V8.88501ZM51.2768 8.885C60.3371 8.885 67.691 16.2753 67.691 25.4028H69.461C69.461 15.3077 61.3246 7.115 51.2768 7.115V8.885ZM67.691 25.4028C67.691 34.5304 60.3371 41.9207 51.2768 41.9207V43.6907C61.3246 43.6907 69.461 35.4979 69.461 25.4028H67.691ZM51.2768 7.115L47.0054 7.11501L47.0054 8.88501L51.2768 8.885L51.2768 7.115ZM51.2768 41.9207L47.0054 41.9207L47.0054 43.6907L51.2768 43.6907V41.9207ZM46.2162 18.0686L48.649 22.8643L50.2275 22.0636L47.7947 17.2679L46.2162 18.0686ZM49.2984 23.3379L54.584 24.1835L54.8637 22.4358L49.5781 21.5901L49.2984 23.3379ZM54.0958 22.6861L50.3138 26.4957L51.5699 27.7427L55.3519 23.9331L54.0958 22.6861ZM50.0675 27.2563L50.9014 32.5747L52.65 32.3005L51.8161 26.9821L50.0675 27.2563ZM52.1789 31.6498L47.4086 29.2085L46.6022 30.7842L51.3725 33.2254L52.1789 31.6498ZM46.6022 29.2085L41.832 31.6498L42.6383 33.2254L47.4086 30.7842L46.6022 29.2085ZM43.1095 32.5747L43.9433 27.2563L42.1947 26.9821L41.3608 32.3005L43.1095 32.5747ZM43.6971 26.4957L39.915 22.6861L38.6589 23.9331L42.4409 27.7427L43.6971 26.4957ZM39.4268 24.1835L44.7124 23.3379L44.4328 21.5901L39.1471 22.4358L39.4268 24.1835ZM45.3618 22.8643L47.7947 18.0686L46.2162 17.2679L43.7833 22.0636L45.3618 22.8643Z" fill="url(#paint0_linear_12550_4756)"/>
<defs>
<linearGradient id="paint0_linear_12550_4756" x1="6" y1="8" x2="80.1106" y2="25.8323" gradientUnits="userSpaceOnUse">
<stop stop-color="#3B00B9"/>
<stop offset="1" stop-color="#2586B6"/>
</linearGradient>
</defs>
</svg>
