<svg width="84" height="84" viewBox="0 0 84 84" fill="none" xmlns="http://www.w3.org/2000/svg">
<path d="M23.3114 21.1443C17.6597 13.2517 23.5123 8.87201 29.1141 6.63703C32.9125 5.12152 36.7108 5.13379 40.4175 6.92486M21.0083 13.8531C16.1528 15.4316 9.62665 20.7083 11.8572 30.9911C14.0878 41.274 26.2505 41.6398 31.8269 40.6125M60.9899 13.4021C60.8894 10.9967 58.8497 5.9906 51.4949 5.20886C44.1401 4.42712 41.0455 6.02714 40.4175 6.92486M45.7677 10.8464C44.0131 9.09626 42.2262 7.7988 40.4175 6.92486M74.9308 22.1966C74.5289 17.5112 70.3039 8.09527 58.7292 8.51621M62.3463 36.6287C62.6979 38.6832 61.5504 41.8958 58.3524 42.4165C54.6599 43.0178 52.8514 40.2367 52.8514 37.3052C52.8514 34.3737 55.3381 30.8408 61.5927 30.5402C63.5469 30.4462 64.9687 31.3519 65.2098 33.9978M43.5072 27.3831C44.3361 25.7044 44.9992 22.1966 41.0204 21.5953C36.0469 20.8436 28.2851 24.1509 28.2851 32.1186C28.2851 40.0863 35.8208 44.9722 41.774 44.9722C43.0522 44.9722 44.1706 44.844 45.165 44.6121M45.165 44.6121C48.8019 43.764 51.0903 41.7548 53.1615 39.3347M45.165 44.6121C47.062 46.2256 48.639 47.7059 49.9382 49.0312M63.0998 22.7228C67.9829 19.235 73.4237 20.6933 75.4583 22.7228C77.4929 24.7523 79.407 26.3458 78.9247 33.0206C78.4424 39.6955 72.7455 43.2183 69.8819 44.2205C67.7719 47.1671 64.1297 48.505 62.6476 48.7305C62.3933 50.2243 62.5485 51.7544 62.8601 53.0902M65.2852 73.9115L70.0326 69.176V44.2205M45.9186 68.725L39.2118 62.0351V44.8219M27.6069 63.2378V40.9883M11.1039 57.3747L17.886 50.6097V38.8837M66.3402 76.392C66.3402 78.3846 64.7207 80 62.7231 80C60.7254 80 59.1059 78.3846 59.1059 76.392C59.1059 74.3993 60.7254 72.784 62.7231 72.784C64.7207 72.784 66.3402 74.3993 66.3402 76.392ZM52.0224 71.2806C52.0224 73.2733 50.403 74.8886 48.4053 74.8886C46.4077 74.8886 44.7882 73.2733 44.7882 71.2806C44.7882 69.288 46.4077 67.6726 48.4053 67.6726C50.403 67.6726 52.0224 69.288 52.0224 71.2806ZM31.0733 66.9209C31.0733 68.9136 29.4539 70.529 27.4562 70.529C25.4586 70.529 23.8391 68.9136 23.8391 66.9209C23.8391 64.9283 25.4586 63.3129 27.4562 63.3129C29.4539 63.3129 31.0733 64.9283 31.0733 66.9209ZM12.2342 60.0056C12.2342 61.9982 10.6148 63.6136 8.61711 63.6136C6.61944 63.6136 5 61.9982 5 60.0056C5 58.0129 6.61944 56.3976 8.61711 56.3976C10.6148 56.3976 12.2342 58.0129 12.2342 60.0056Z" stroke="url(#paint0_linear_12550_4738)" stroke-width="1.77"/>
<defs>
<linearGradient id="paint0_linear_12550_4738" x1="5" y1="5" x2="80.7697" y2="21.7564" gradientUnits="userSpaceOnUse">
<stop stop-color="#3B00B9"/>
<stop offset="1" stop-color="#2586B6"/>
</linearGradient>
</defs>
</svg>
