<svg width="1598" height="923" viewBox="0 0 1598 923" fill="none" xmlns="http://www.w3.org/2000/svg">
<path fill-rule="evenodd" clip-rule="evenodd" d="M856.213 228.213C800.58 260.33 769.531 312.473 763.9 383.181C761.089 416.451 764.139 448.76 768.435 473.599C768.262 473.593 768.173 473.59 768.173 473.59C768.192 473.725 768.216 473.863 768.236 474.007C619.052 467.625 436.801 470.34 344.298 523.742C235.178 587.207 216.599 683.554 288.344 758.847C291.743 763.582 294.663 766.547 295.621 767.439C309.613 780.381 326.136 792.84 345.611 804.083C480.669 882.052 698.628 882.83 832.219 805.708C887.848 773.594 918.894 721.452 924.525 650.743C927.347 617.339 924.262 584.904 919.937 560.024C919.937 560.024 853.613 557.741 781.797 555.695C786.115 579.598 790.472 612.768 787.652 646.659C782.412 709.321 755.913 737.329 734.843 749.493C654.772 795.718 524.25 795.3 442.961 748.372C362.519 701.933 361.796 626.583 441.02 579.869C443.416 578.486 446.317 577.005 449.832 575.49C519.811 558.132 595.748 553.438 617.705 553.126C698.378 552.013 782.028 555.539 782.028 555.539C853.844 557.585 920.17 559.869 920.17 559.869C920.157 559.789 920.143 559.707 920.13 559.623C920.116 559.54 920.103 559.455 920.09 559.369C1069.59 565.593 1251.93 562.893 1344.46 509.476C1455.81 444.715 1472.89 345.719 1395.92 269.794C1394.45 268.097 1393.33 266.978 1392.8 266.487C1378.81 253.546 1362.29 241.084 1342.82 229.84C1207.33 152.117 989.378 151.337 856.213 228.213ZM1243.13 456.339C1244.71 455.556 1246.13 454.79 1247.41 454.052C1326.63 407.341 1325.91 331.99 1245.47 285.551C1164.18 238.623 1033.66 238.206 953.589 284.429C932.09 296.84 905.59 324.359 900.773 387.266C897.964 421.016 902.273 454.051 906.575 477.932C911.754 478.146 992.588 481.411 1070.63 480.334C1093.19 480.013 1172.01 474.943 1243.13 456.339Z" fill="black" fill-opacity="0.1"/>
<path d="M811.188 206.271C755.555 238.387 724.506 290.53 718.875 361.239C716.053 394.643 719.139 427.079 723.463 451.958C723.463 451.958 789.787 454.241 861.604 456.287C857.284 432.383 852.928 399.214 855.748 365.324C860.565 302.417 887.065 274.898 908.565 262.486C988.631 216.264 1119.15 216.681 1200.44 263.609C1280.89 310.048 1281.61 385.398 1202.39 432.109C1198.59 434.303 1193.53 436.735 1186.78 439.165C1220.54 431.895 1253.45 421.696 1277.05 408.071C1423.7 323.408 1353.28 249.674 1347.77 244.545C1333.78 231.604 1317.27 219.141 1297.79 207.898C1162.31 130.175 944.353 129.394 811.188 206.271Z" fill="url(#paint0_linear_6326_99024)"/>
<path d="M811.188 206.271C755.555 238.387 724.506 290.53 718.875 361.239C716.053 394.643 719.139 427.079 723.463 451.958C723.463 451.958 789.787 454.241 861.604 456.287C857.284 432.383 852.928 399.214 855.748 365.324C860.565 302.417 887.065 274.898 908.565 262.486C988.631 216.264 1119.15 216.681 1200.44 263.609C1280.89 310.048 1281.61 385.398 1202.39 432.109C1198.59 434.303 1193.53 436.735 1186.78 439.165C1220.54 431.895 1253.45 421.696 1277.05 408.071C1423.7 323.408 1353.28 249.674 1347.77 244.545C1333.78 231.604 1317.27 219.141 1297.79 207.898C1162.31 130.175 944.353 129.394 811.188 206.271Z" fill="black" fill-opacity="0.4"/>
<path d="M787.195 783.766C842.823 751.651 873.869 699.51 879.5 628.801C882.322 595.396 879.237 562.961 874.912 538.082C874.912 538.082 808.588 535.799 736.772 533.753C741.09 557.656 745.447 590.825 742.628 624.716C737.387 687.378 710.889 715.386 689.818 727.55C609.747 773.775 479.225 773.357 397.936 726.429C317.495 679.99 316.771 604.64 395.995 557.926C399.786 555.738 404.845 553.306 411.595 550.875C377.833 558.146 344.926 568.344 321.327 581.968C174.672 666.632 245.085 740.369 250.597 745.496C264.588 758.439 281.111 770.898 300.587 782.141C435.644 860.109 653.604 860.888 787.195 783.766Z" fill="url(#paint1_linear_6326_99024)"/>
<path d="M787.195 783.766C842.823 751.651 873.869 699.51 879.5 628.801C882.322 595.396 879.237 562.961 874.912 538.082C874.912 538.082 808.588 535.799 736.772 533.753C741.09 557.656 745.447 590.825 742.628 624.716C737.387 687.378 710.889 715.386 689.818 727.55C609.747 773.775 479.225 773.357 397.936 726.429C317.495 679.99 316.771 604.64 395.995 557.926C399.786 555.738 404.845 553.306 411.595 550.875C377.833 558.146 344.926 568.344 321.327 581.968C174.672 666.632 245.085 740.369 250.597 745.496C264.588 758.439 281.111 770.898 300.587 782.141C435.644 860.109 653.604 860.888 787.195 783.766Z" fill="black" fill-opacity="0.4"/>
<path fill-rule="evenodd" clip-rule="evenodd" d="M572.68 531.183C541.426 531.628 400.806 540.95 323.674 583.034C186.71 658.31 242.534 735.908 251.414 744.947C170.355 668.587 186.227 567.548 299.273 501.799C391.776 448.397 574.028 445.683 723.211 452.064C723.191 451.92 723.168 451.782 723.149 451.647C723.149 451.647 789.471 453.932 861.287 455.978C861.287 455.978 944.938 459.504 1025.61 458.391C1056.87 457.946 1196.22 448.379 1273.35 406.297C1414.55 329.183 1352.13 249.36 1346.61 243.746C1428.45 320.177 1412.8 421.599 1299.44 487.533C1206.91 540.95 1024.56 543.65 875.065 537.426C875.092 537.6 875.119 537.767 875.145 537.927C875.145 537.927 808.819 535.642 737.003 533.596C737.003 533.596 653.354 530.071 572.68 531.183Z" fill="#29ABE2"/>
<path fill-rule="evenodd" clip-rule="evenodd" d="M572.68 531.183C541.426 531.628 400.806 540.95 323.674 583.034C186.71 658.31 242.534 735.908 251.414 744.947C170.355 668.587 186.227 567.548 299.273 501.799C391.776 448.397 574.028 445.683 723.211 452.064C723.191 451.92 723.168 451.782 723.149 451.647C723.149 451.647 789.471 453.932 861.287 455.978C861.287 455.978 944.938 459.504 1025.61 458.391C1056.87 457.946 1196.22 448.379 1273.35 406.297C1414.55 329.183 1352.13 249.36 1346.61 243.746C1428.45 320.177 1412.8 421.599 1299.44 487.533C1206.91 540.95 1024.56 543.65 875.065 537.426C875.092 537.6 875.119 537.767 875.145 537.927C875.145 537.927 808.819 535.642 737.003 533.596C737.003 533.596 653.354 530.071 572.68 531.183Z" fill="black" fill-opacity="0.4"/>
<path d="M1397.85 349.152V284.75L1350.12 349.152H1397.85Z" fill="#196788"/>
<path d="M736.73 533.811V467.841H755.111L747.417 545.352L736.73 533.811Z" fill="#8F1349"/>
<path d="M717.923 387.051V321.082H736.303L728.609 398.592L717.923 387.051Z" fill="#913716"/>
<path d="M880.497 605.052V539.083H862.116L869.81 616.593L880.497 605.052Z" fill="#8F1349"/>
<path d="M251.148 744.97V679.143L246.731 674.441L235.76 660.335L223.649 701.513L239.893 731.292L251.148 744.97Z" fill="#196788"/>
<path d="M200.567 642.098V576.27L204.984 571.568L215.955 557.462L228.066 598.64L211.823 628.419L200.567 642.098Z" fill="#196788"/>
<path d="M404.745 553.473V487.646L387.788 493.488L362.996 512.153L340.198 544.069L332.79 576.556L343.333 610.467L349.317 599.068L357.866 587.527L370.69 575.558L382.089 566.297L393.915 558.888L401.039 555.041L404.745 553.473Z" fill="url(#paint2_linear_6326_99024)"/>
<path d="M404.745 553.473V487.646L387.788 493.488L362.996 512.153L340.198 544.069L332.79 576.556L343.333 610.467L349.317 599.068L357.866 587.527L370.69 575.558L382.089 566.297L393.915 558.888L401.039 555.041L404.745 553.473Z" fill="black" fill-opacity="0.4"/>
<path d="M811.187 140.729C755.555 172.846 724.505 224.989 718.875 295.698C716.052 329.102 719.139 361.538 723.462 386.416C723.462 386.416 789.786 388.699 861.603 390.746C857.284 366.842 852.927 333.673 855.747 299.782C860.564 236.875 887.065 209.356 908.564 196.945C988.63 150.723 1119.15 151.139 1200.44 198.067C1280.88 244.507 1281.6 319.857 1202.39 366.568C1198.59 368.762 1193.53 371.194 1186.78 373.623C1220.54 366.354 1253.45 356.154 1277.05 342.529C1423.7 257.866 1353.28 184.133 1347.77 179.003C1333.78 166.062 1317.27 153.6 1297.79 142.356C1162.31 64.6331 944.353 63.8528 811.187 140.729Z" fill="url(#paint3_linear_6326_99024)"/>
<path d="M787.195 718.224C842.823 686.109 873.869 633.968 879.5 563.259C882.322 529.854 879.237 497.419 874.912 472.54C874.912 472.54 808.588 470.257 736.772 468.211C741.09 492.114 745.447 525.283 742.628 559.174C737.387 621.837 710.888 649.844 689.818 662.008C609.747 708.233 479.225 707.815 397.936 660.887C317.494 614.448 316.771 539.098 395.995 492.384C399.786 490.196 404.845 487.764 411.594 485.333C377.833 492.604 344.926 502.802 321.327 516.426C174.672 601.09 245.085 674.827 250.597 679.954C264.588 692.897 281.111 705.356 300.586 716.599C435.644 794.567 653.604 795.346 787.195 718.224Z" fill="url(#paint4_linear_6326_99024)"/>
<path fill-rule="evenodd" clip-rule="evenodd" d="M572.68 465.641C541.426 466.086 400.806 475.408 323.674 517.492C186.71 592.768 242.534 670.366 251.414 679.405C170.355 603.045 186.227 502.006 299.273 436.257C391.776 382.855 573.965 379.724 723.149 386.105C723.167 386.24 723.129 385.961 723.149 386.105C723.149 386.105 789.471 388.39 861.287 390.436C861.287 390.436 944.938 393.963 1025.61 392.849C1056.87 392.404 1196.22 382.837 1273.35 340.755C1414.55 263.641 1352.13 183.818 1346.61 178.204C1428.45 254.635 1412.8 356.057 1299.44 421.991C1206.91 475.408 1024.56 478.108 875.065 471.884C875.092 472.058 875.118 472.225 875.145 472.385C875.145 472.385 808.819 470.1 737.003 468.054C737.003 468.054 653.353 464.529 572.68 465.641Z" fill="#29ABE2"/>
<path d="M482.898 721.753C482.898 721.753 532.154 721.658 542.75 732.23C550.768 740.248 533.443 745.761 504.4 743.923C503.803 743.876 502.753 736.311 502.753 736.311L472.135 734.998C471.18 734.903 482.874 721.753 482.874 721.753H482.898Z" fill="#181818" fill-opacity="0.2"/>
<path d="M479.155 624.3C481.637 625.373 488.199 629.096 489.249 628.858C492.686 628.046 498.604 625.35 500.084 624.419C501.015 623.822 502.065 619.98 502.279 617.976C502.59 615.064 504.26 615.923 505.191 612.869C505.31 612.511 505.382 612.129 505.62 611.819C505.859 611.532 506.289 611.341 506.623 611.556C507.195 611.938 506.885 613.728 506.623 614.324C506.312 614.969 505.764 615.47 505.477 616.114C504.952 617.236 505.644 617.737 506.909 616.472C508.508 614.849 512.827 610.554 513.209 612.296C513.472 613.489 508.269 616.902 508.985 617.737C509.486 618.262 514.713 613.656 515.596 613.489C515.906 613.417 516.264 613.537 516.431 613.799C516.717 614.348 516.192 614.802 515.667 615.112C514.57 615.78 509.821 619.503 510.226 619.932C510.632 620.338 515.643 616.114 516.837 616.329C517.147 616.377 517.409 616.639 517.314 616.973C517.004 618.047 513.042 620.314 512.135 621.054C511.634 621.46 510.871 621.842 511.133 622.343C511.61 622.963 515.596 619.646 516.24 620.505C516.765 621.913 514.116 622.701 506.456 627.354C502.136 629.979 489.536 638.045 486.696 638.045C483.856 638.045 476.935 634.704 476.935 634.704C475.838 633.678 473.571 631.578 473.022 630.194C472.067 627.712 474.382 622.247 479.155 624.323V624.3Z" fill="#864F33"/>
<path d="M493.379 736.391C493.379 736.391 493.379 736.295 493.379 736.271C493.474 735.818 493.474 735.388 493.379 734.935L499.989 735.603C511.038 736.295 516.503 735.866 516.623 739.756C517.959 747.392 501.564 746.366 493.832 745.34C489.68 744.791 493.116 738.181 493.379 736.391V736.391Z" fill="#291259"/>
<path d="M470.155 725.055L474.88 721.523C475.716 720.378 475.573 720.044 476.67 719.137C478.412 717.705 483.877 718.278 483.925 721.094C484.14 722.907 483.782 723.743 483.472 724.315C482.541 725.986 478.126 732.143 477.1 733.718C474.451 737.799 468.628 736.844 468.747 734.028C468.819 732.262 468.342 732.835 470.155 725.055Z" fill="#291259"/>
<path d="M468.39 707.276C468.486 705.558 468.772 703.863 469.106 702.169C473.808 678.448 469.679 668.115 473.617 661.767L505.022 668.234C507.576 688.208 503.805 688.495 503.996 700.069C504.068 704.365 503.638 708.899 503.805 713.194C504.211 723.909 501.514 729.04 502.23 735.77C502.087 738.849 492.708 739.35 492.78 736.367C492.947 728.706 489.558 718.946 490.966 711.882C491.372 709.829 491.563 707.491 491.658 705.391C491.754 703.315 490.966 696.537 486.909 683.173C486.909 683.173 482.208 697.468 482.089 701.572C482.065 702.575 482.017 703.553 481.969 704.46C481.802 707.849 481.062 711.19 479.917 714.388C479.01 716.917 478.103 720.401 478.032 726.749C477.984 730.639 469.154 730.401 469.297 727.537C469.631 718.158 468.009 714.03 468.39 707.324V707.276Z" fill="#3B00B9"/>
<path d="M468.39 707.276C468.486 705.558 468.772 703.863 469.106 702.169C473.808 678.448 469.679 668.115 473.617 661.767L505.022 668.234C507.576 688.208 503.805 688.495 503.996 700.069C504.068 704.365 503.638 708.899 503.805 713.194C504.211 723.909 501.514 729.04 502.23 735.77C502.087 738.849 492.708 739.35 492.78 736.367C492.947 728.706 489.558 718.946 490.966 711.882C491.372 709.829 491.563 707.491 491.658 705.391C491.754 703.315 490.966 696.537 486.909 683.173C486.909 683.173 482.208 697.468 482.089 701.572C482.065 702.575 482.017 703.553 481.969 704.46C481.802 707.849 481.062 711.19 479.917 714.388C479.01 716.917 478.103 720.401 478.032 726.749C477.984 730.639 469.154 730.401 469.297 727.537C469.631 718.158 468.009 714.03 468.39 707.324V707.276Z" fill="black" fill-opacity="0.2"/>
<path d="M473.336 610.22C470.448 610.22 470.376 612.201 469.995 613.609C465.58 630.528 478.299 636.542 471.737 665.179C468.348 679.856 507.7 681.67 505.314 669.236C503.643 658.593 499.157 644.226 500.613 632.509C500.947 629.836 502.426 626.448 501.281 623.846C500.302 621.627 474.505 610.22 473.336 610.22V610.22Z" fill="white"/>
<path d="M529.938 619.026C530.582 618.763 531.728 620.911 532.038 621.532C531.823 620.315 530.821 617.976 531.823 617.689C533.303 617.26 534.424 621.746 534.902 623.25C535.474 625.064 535.856 626.925 536.166 628.81C536.286 629.526 536.381 629.813 536.357 630.123C536.31 631.054 535.856 632.939 533.804 635.301C530.463 639.144 521.394 647.902 519.843 647.997C518.912 648.045 517.982 647.711 517.099 647.401C513.829 646.231 499.964 640.385 498.556 638.786C496.886 636.876 502.78 624.276 503.854 625.278C507.911 629.073 519.819 638.213 519.819 638.213C519.819 638.213 529.58 632.462 529.437 632.175C528.768 630.934 526.812 625.708 527.456 625.326C527.957 625.016 528.363 625.732 528.578 626.09C528.673 625.135 528.482 624.181 528.076 623.322C527.408 621.89 528.578 621.46 529.293 622.319C529.46 622.534 530.033 623.107 530.033 622.701C529.986 620.84 528.84 619.527 529.962 619.097L529.938 619.026Z" fill="#864F33"/>
<path d="M497.125 622.749C497.578 622.248 499.535 622.463 500.108 622.821C502.637 624.443 511.563 630.433 514.76 632.963C517.386 635.039 511.443 645.659 507.339 644.346C505.835 643.869 496.075 639.502 495.263 638.452C493.378 635.994 494.547 625.589 497.101 622.725L497.125 622.749Z" fill="white"/>
<path d="M528.698 632.509L537.432 622.176C537.814 621.699 537.885 621.007 537.551 620.649L534.21 616.831C534.21 616.831 534.067 616.711 533.995 616.664L534.711 617.022C534.711 617.022 534.878 617.117 534.926 617.189L538.267 621.007C538.601 621.389 538.553 622.081 538.148 622.534L529.413 632.868C529.103 633.249 528.65 633.369 528.316 633.202L527.6 632.844C527.934 633.011 528.387 632.891 528.698 632.509Z" fill="#CFCEDD"/>
<path d="M524.163 627.331L532.898 616.997C533.28 616.52 533.876 616.448 534.21 616.83L537.551 620.649C537.885 621.03 537.838 621.722 537.432 622.176L528.698 632.509C528.316 632.986 527.695 633.058 527.385 632.676L524.044 628.858C523.71 628.476 523.782 627.784 524.163 627.331Z" fill="white"/>
<path d="M531.249 622.892C531.153 622.558 531.034 622.224 531.082 621.89C531.129 621.556 531.392 621.222 531.726 621.222C532.012 621.222 532.227 621.46 532.418 621.651C533.015 622.319 533.611 622.964 534.208 623.632C534.685 624.157 535.186 624.706 535.52 625.35C535.95 626.209 536.212 628.5 536.308 629.55C536.332 629.884 536.165 630.219 535.878 630.386C534.995 630.863 533.182 631.77 532.513 632.08C531.607 632.486 530.867 632.605 531.177 631.436C531.416 630.481 531.678 629.55 531.774 628.548C531.964 626.639 531.774 624.682 531.225 622.868L531.249 622.892Z" fill="#864F33"/>
<path d="M483.186 632.199C483.997 636.017 471.325 638.666 470.371 634.371C469.679 631.292 466.505 618.453 467.077 615.518C468.581 607.738 475.43 609.361 478.317 613.8C481.277 618.382 483.043 631.531 483.21 632.223L483.186 632.199Z" fill="white"/>
<path d="M493.163 593.635C495.12 595.591 496.194 598.407 496.003 601.176C496.003 601.486 495.955 601.82 496.074 602.106C496.265 602.536 496.719 602.727 497.125 602.966C497.53 603.204 497.912 603.586 497.817 604.039C497.745 604.373 497.411 604.588 497.244 604.899C497.077 605.185 497.053 605.495 497.005 605.829C496.886 607.166 496.743 608.502 496.838 609.838C496.862 610.268 496.91 610.698 496.79 611.103C496.456 612.225 495.072 612.559 493.974 612.941C493.378 613.132 493.115 613.299 492.877 614.062C492.208 616.139 492.232 617.117 492.352 618.74C492.59 621.985 478.868 619.265 480.634 615.041C480.849 614.492 481.207 612.607 480.849 612.01C479.775 610.125 476.195 608.884 475.981 602.727C475.503 589.601 488.104 588.623 493.211 593.658L493.163 593.635Z" fill="#864F33"/>
<path d="M491.252 605.471C491.634 607.094 488.627 607.332 488.293 606.187C487.482 604.373 485.644 604.803 484.905 605.948C483.95 607.452 484.475 609.146 486.05 611.031C486.718 611.819 486.432 613.06 485.477 613.442C482.327 614.707 475.383 608.621 474.189 601.319C473.306 595.424 474.834 592.059 479.153 589.721C481.301 588.575 484.714 587.955 486.432 587.955C493.305 587.955 496.67 592.346 496.073 597.405C495.978 598.216 495.429 598.932 494.665 599.242C492.684 600.03 490.202 601.271 491.229 605.495L491.252 605.471Z" fill="#291259"/>
<path d="M863.257 457.747L877.361 487.361L879.498 507.309L880.353 525.57H821.757L863.257 457.747Z" fill="#181818" fill-opacity="0.2"/>
<path d="M821.805 464.143L877.146 432.189L821.805 400.234L766.463 432.189L821.805 464.143Z" fill="url(#paint5_linear_6326_99024)"/>
<path d="M821.805 525.808L877.146 493.854V432.188L821.805 464.143V525.808Z" fill="#6A8BA9"/>
<path d="M766.462 493.854L821.804 525.808V464.143L766.462 432.188V493.854Z" fill="#A4B3C1"/>
<path d="M845.265 366.084C841.972 375.104 832.784 375.057 830.851 380.713C830.684 381.214 830.517 381.81 830.016 381.977C828.631 382.455 823.095 375.438 824.431 370.26C824.861 368.613 825.601 367.897 826.34 366.37C827.939 363.029 833.595 354.151 839.203 355.201C844.072 356.108 846.935 361.502 845.265 366.108V366.084Z" fill="#3B00B9"/>
<path d="M783.884 494.738C784.122 494.26 785.888 489.607 786.318 486.075C786.485 484.619 786.366 482.447 786.366 480.658C786.366 479.87 791.926 480.849 791.926 480.849C791.974 481.899 791.926 482.686 792.284 483.307C793.215 483.665 794.026 484.38 794.408 485.407C794.838 486.552 794.694 487.865 794.289 489.034C793.907 490.203 793.286 491.277 792.761 492.399C792.284 493.425 791.902 494.475 791.592 495.549C791.186 496.981 790.948 498.437 790.399 499.797C789.564 501.873 785.912 503.329 783.693 503.09C782.094 502.923 780.018 502.207 780.28 500.226C780.638 497.697 782.667 497.029 783.86 494.738H783.884Z" fill="#CA957A"/>
<path d="M782.284 448.536C782.022 446.484 781.926 444.36 782.499 442.355C785.243 433.168 799.037 419.851 805.218 414.482C806.34 413.527 807.27 412.382 807.771 410.974L809.418 406.416C831.755 410.663 823.236 424.242 811.828 433.43C799.323 443.525 794.574 448.966 794.574 448.966C794.574 448.966 798.87 457.581 796.054 468.391C795.434 470.754 794.503 473.045 794.026 475.431C793.429 478.367 792.713 481.97 792.641 483.163C792.498 485.263 786.317 485.932 786.341 483.617C786.341 483.617 784.408 464.501 782.308 448.488L782.284 448.536Z" fill="#3B00B9"/>
<path d="M758.587 468.63C759.017 468.32 762.668 464.931 764.625 461.972C765.436 460.731 766.296 458.75 767.107 457.151C767.465 456.459 771.999 459.8 771.999 459.8C771.57 460.755 771.188 461.447 771.236 462.163C771.904 462.902 772.309 463.905 772.214 465.002C772.095 466.243 771.379 467.341 770.496 468.2C769.613 469.083 768.587 469.751 767.608 470.539C766.725 471.231 765.914 472.019 765.15 472.83C764.148 473.928 763.289 475.121 762.167 476.099C760.497 477.579 756.583 477.269 754.697 476.052C753.361 475.193 751.81 473.617 752.931 471.971C754.387 469.871 756.511 470.181 758.587 468.678V468.63Z" fill="#CA957A"/>
<path d="M777.296 426.939C778.251 426.032 779.373 425.221 780.661 424.958C781.663 424.743 804.454 425.555 811.733 424.003L827.412 415.436C830.442 414.863 833.33 413.909 834.046 420.328C834.809 427.13 832.28 434.003 826.887 438.203C822.83 441.329 817.818 442.999 812.807 442.976C809.06 442.952 787.534 439.205 785.601 439.611C783.668 440.04 782.069 447.725 772.428 461.948C770.877 464.239 764.41 462.091 765.436 459.084C771.139 446.317 774.433 429.683 777.32 426.939H777.296Z" fill="#3B00B9"/>
<path d="M786.866 415.078C786.102 413.765 786.126 412.119 785.959 410.639C785.792 409.207 786.245 408.038 787.629 407.68C788.632 407.441 789.825 406.964 792.522 404.625C798.178 399.733 807.127 391.237 807.127 391.237C808.559 383.983 806.745 378.279 809.179 371.287C809.967 369.044 812.592 367.421 815.097 368.924L814.763 375.463C812.759 381.859 813.928 389.901 812.663 397.562C812.258 400.091 800.182 406.081 796.221 408.038C792.665 409.804 792.092 410.854 788.465 414.147C787.94 414.625 787.391 414.887 786.842 415.054L786.866 415.078Z" fill="#CA957A"/>
<path d="M837.626 381.358C839.273 382.861 839.869 385.415 839.082 387.491C837.936 390.545 831.326 397.967 829.822 404.626C829.345 406.726 829.274 408.205 833.092 414.291C838.843 423.431 803.882 422.715 807.342 411.475C811.423 398.23 803.858 395.295 803.882 390.927C803.882 387.706 807.151 386.536 808.273 383.887C810.063 379.711 807.605 373.435 810.635 369.831C815.194 364.414 837.03 380.833 837.602 381.358H837.626Z" fill="white"/>
<path d="M816.841 374.27C818.034 371.979 818.798 369.426 818.702 366.824L830.253 365.917C828.558 369.163 828.415 372.242 829.131 375.487C830.253 380.594 814.049 379.616 816.817 374.27H816.841Z" fill="#CA957A"/>
<path d="M810.755 426.39L803.739 415.126C803.62 414.959 803.405 414.72 803.166 414.529C803.047 414.434 802.904 414.338 802.784 414.267L783.979 403.408C783.741 403.289 783.621 403.241 783.573 403.313L783.311 403.623C783.311 403.623 783.478 403.623 783.693 403.719C783.717 403.719 802.522 414.601 802.522 414.601C802.641 414.672 802.784 414.768 802.904 414.863C803.142 415.054 803.381 415.293 803.476 415.46L810.492 426.724C810.492 426.724 810.564 426.915 810.54 426.939L810.803 426.628C810.803 426.628 810.803 426.509 810.755 426.414V426.39Z" fill="white"/>
<path d="M783.693 403.719L802.498 414.577C802.856 414.792 803.285 415.174 803.452 415.46L810.468 426.724C810.636 426.987 810.468 427.035 810.111 426.844L791.305 415.985C790.947 415.771 790.518 415.389 790.351 415.102L783.335 403.838C783.168 403.576 783.335 403.528 783.693 403.719Z" fill="#E3DDDA"/>
<path d="M799.228 418.992C798.44 416.343 803.929 420.09 805.743 420.304C806.912 420.448 806.912 419.756 806.291 419.278L804.287 416.057C804.287 416.057 804.43 416.128 804.526 416.152C805.552 416.606 806.22 416.534 808.129 417.441C809.823 418.252 810.969 420.114 812.568 420.281C812.711 420.233 813.141 420.376 813.761 419.923C818.033 415.961 828.652 407.155 828.652 407.155C828.652 407.155 830.06 389.925 831.158 386.417C833.855 377.85 840.799 381.954 840.513 387.539C840.418 389.305 837.554 404.077 836.027 409.9C834.69 414.959 823.498 418.467 814.668 425.006C811.16 427.607 808.559 427.559 807.652 427.368C806.387 427.106 804 426.366 801.519 424.982C800.039 424.171 799.538 423.216 799.753 423.001C798.726 421.999 798.822 420.782 799.419 420.997C798.082 419.851 798.201 418.825 799.228 418.968V418.992Z" fill="#CA957A"/>
<path d="M792.689 414.553C792.808 414.124 792.641 413.551 792.354 413.121C791.686 412.167 790.708 411.833 789.849 411.403C788.679 410.83 787.844 410.305 786.794 409.374L785.935 408.038C785.195 408.873 785.338 409.685 785.529 411.045C785.768 412.739 786.197 415.078 787.176 416.033C788.465 417.297 790.684 418.562 791.257 417.512C791.495 417.679 791.782 417.799 792.044 417.799C792.617 417.775 792.784 416.987 792.593 416.916C792.999 417.083 793.405 416.796 793.476 416.343C793.619 415.293 792.712 414.577 792.712 414.577L792.689 414.553Z" fill="#CA957A"/>
<path d="M793.594 414.028C793.857 414.481 794.644 415.221 795.36 415.675C796.076 416.128 796.41 416.128 796.148 415.675C795.885 415.221 795.098 414.481 794.382 414.028C793.666 413.575 793.332 413.575 793.594 414.028Z" fill="#C2BCBA"/>
<path d="M819.892 372.623C817.744 372.36 813.544 371.668 812.995 369.616C812.614 368.16 814.379 366.227 813.878 364.795C813.64 364.127 813.425 363.96 814.212 363.244C815.286 362.266 815.907 361.526 816.456 360.166C817.315 358.066 816.837 356.443 821.777 352.887C823.09 351.932 823.639 351.622 829.509 352.792C830.87 353.054 831.252 353.293 832.206 354.558C833.853 356.729 834.115 357.517 833.853 360.428C833.71 361.955 833.566 363.507 833.041 364.939C832.349 366.8 831.538 368.661 829.772 369.711C827.72 370.929 822.613 372.957 819.892 372.599V372.623Z" fill="#C2927A"/>
<path d="M824.428 370.26C825.621 368.9 830.394 369.831 830.442 370.045C830.537 370.451 827.96 372.074 826.719 372.408C828.079 373.243 840.918 370.212 839.82 359.044C839.057 351.455 831.945 348.4 826.408 349.307C823.783 349.737 821.015 351.741 820.084 354.247C820.633 353.77 820.633 354.796 820.991 355.584C821.659 357.087 822.638 359.808 823.306 363.149C823.521 364.294 823.64 369.067 824.428 370.26V370.26Z" fill="#3B00B9"/>
<path d="M826.814 368.971C824.833 369.306 823.378 370.356 823.521 371.31C823.688 372.265 825.406 372.79 827.387 372.456C829.368 372.122 830.823 371.071 830.68 370.117C830.513 369.162 828.795 368.637 826.814 368.995V368.971Z" fill="#C2927A"/>
<path d="M484.022 453.504L505.542 441.063L527.063 453.504L505.542 465.922L484.022 453.504Z" fill="#51BBE8"/>
<path d="M505.543 489.535L527.063 477.116V453.503L505.543 465.922V489.535Z" fill="#1F89B8"/>
<path d="M484.024 477.116L505.545 489.535V465.922L484.024 453.503V477.116Z" fill="#29ABE2"/>
<path d="M541.594 485.907C541.794 485.907 541.972 485.818 542.083 485.64C542.239 485.373 542.15 485.039 541.883 484.884L517.335 470.707C517.068 470.551 516.734 470.64 516.579 470.907C516.423 471.174 516.512 471.508 516.779 471.664L541.327 485.841C541.327 485.841 541.505 485.907 541.594 485.907Z" fill="#9FFFFA"/>
<path d="M524.815 451.879L569.259 426.218L613.703 451.879L569.259 477.539L524.815 451.879Z" fill="#51BBE8"/>
<path d="M569.259 526.323L613.703 500.663V451.879L569.259 477.539V526.323Z" fill="#1F89B8"/>
<path d="M524.817 500.663L569.261 526.323V477.539L524.817 451.879V500.663Z" fill="#29ABE2"/>
<g style="mix-blend-mode:overlay" filter="url(#filter0_f_6326_99024)">
<circle cx="24.1849" cy="24.1849" r="24.1849" transform="matrix(-0.866044 0.499967 0.866044 0.499967 569.312 452.173)" fill="white"/>
</g>
<path d="M586.678 313.307L596.137 307.832L605.618 313.307L596.137 318.782L586.678 313.307Z" fill="#51BBE8"/>
<path d="M596.137 329.175L605.618 323.7V313.307L596.137 318.782V329.175Z" fill="#1F89B8"/>
<path d="M586.678 323.7L596.137 329.175V318.782L586.678 313.307V323.7Z" fill="#29ABE2"/>
<path d="M619.436 403.953L639.31 392.492L659.206 403.953L639.31 415.437L619.436 403.953Z" fill="#51BBE8"/>
<path d="M639.31 437.247L659.206 425.786V403.953L639.31 415.437V437.247Z" fill="#1F89B8"/>
<path d="M619.435 425.786L639.309 437.247V415.437L619.435 403.953V425.786Z" fill="#29ABE2"/>
<path d="M569.743 447.929C570.054 447.929 570.299 447.685 570.299 447.373V320.963C570.299 320.651 570.054 320.406 569.743 320.406C569.431 320.406 569.186 320.651 569.186 320.963V447.373C569.186 447.685 569.431 447.929 569.743 447.929Z" fill="#9FFFFA"/>
<path d="M548.333 320.963L569.743 308.589L591.175 320.963L569.743 333.337L548.333 320.963Z" fill="#F15A24"/>
<path d="M569.743 356.862L591.175 344.488V320.964L569.743 333.338V356.862Z" fill="#AD3E16"/>
<path d="M548.336 344.488L569.746 356.862V333.338L548.336 320.964V344.488Z" fill="#CF4C1D"/>
<g style="mix-blend-mode:overlay" filter="url(#filter1_f_6326_99024)">
<circle cx="9.79815" cy="9.79815" r="9.79815" transform="matrix(-0.866044 0.499967 0.866044 0.499967 570.553 322.354)" fill="white"/>
</g>
<path d="M474.988 377.046L509.173 357.284L543.379 377.046L509.173 396.787L474.988 377.046Z" fill="#571CD6"/>
<path d="M509.172 434.309L543.379 414.569V377.046L509.172 396.787V434.309Z" fill="#3500A6"/>
<path d="M474.988 414.569L509.172 434.309V396.787L474.988 377.046V414.569Z" fill="#3B00B9"/>
<path d="M1010.4 215.926L1054.84 190.266L1099.29 215.926L1054.84 241.586L1010.4 215.926Z" fill="#571CD6"/>
<path d="M1054.84 290.371L1099.29 264.71V215.927L1054.84 241.587V290.371Z" fill="#3500A6"/>
<path d="M1010.4 264.71L1054.84 290.37V241.587L1010.4 215.926V264.71Z" fill="#3B00B9"/>
<g style="mix-blend-mode:overlay" filter="url(#filter2_f_6326_99024)">
<circle cx="24.1849" cy="24.1849" r="24.1849" transform="matrix(-0.866044 0.499967 0.866044 0.499967 1054.9 216.22)" fill="white"/>
</g>
<path d="M1072.26 77.3547L1081.72 71.8799L1091.2 77.3547L1081.72 82.8295L1072.26 77.3547Z" fill="#51BBE8"/>
<path d="M1081.72 93.2225L1091.2 87.7477V77.3545L1081.72 82.8293V93.2225Z" fill="#1F89B8"/>
<path d="M1072.26 87.7477L1081.72 93.2225V82.8293L1072.26 77.3545V87.7477Z" fill="#29ABE2"/>
<path d="M1055.33 211.977C1055.64 211.977 1055.88 211.732 1055.88 211.42V85.01C1055.88 84.6984 1055.64 84.4536 1055.33 84.4536C1055.01 84.4536 1054.77 84.6984 1054.77 85.01V211.42C1054.77 211.732 1055.01 211.977 1055.33 211.977Z" fill="#9FFFFA"/>
<path d="M1033.92 85.0107L1055.33 72.6367L1076.76 85.0107L1055.33 97.3847L1033.92 85.0107Z" fill="#F15A24"/>
<path d="M1055.33 120.909L1076.76 108.535V85.0112L1055.33 97.3852V120.909Z" fill="#AD3E16"/>
<path d="M1033.92 108.535L1055.33 120.909V97.3852L1033.92 85.0112V108.535Z" fill="#CF4C1D"/>
<g style="mix-blend-mode:overlay" filter="url(#filter3_f_6326_99024)">
<circle cx="9.79815" cy="9.79815" r="9.79815" transform="matrix(-0.866044 0.499967 0.866044 0.499967 1056.14 86.4014)" fill="white"/>
</g>
<path d="M792.233 657.981H823.963L855.45 639.797L814.615 616.244L792.233 657.981Z" fill="#181818" fill-opacity="0.2"/>
<path d="M792.232 623.59L823.108 605.772L792.232 587.955L761.38 605.772L792.232 623.59Z" fill="#571CD6"/>
<path d="M792.232 657.981L823.108 640.163V605.772L792.232 623.59V657.981Z" fill="#3500A6"/>
<path d="M761.38 640.163L792.231 657.981V623.59L761.38 605.772V640.163Z" fill="#3B00B9"/>
<path d="M625.025 709.917H637.596L650.044 702.741L633.886 693.417L625.025 709.917Z" fill="#181818" fill-opacity="0.2"/>
<path d="M625.027 697.055L636.596 690.391L625.027 683.704L613.482 690.391L625.027 697.055Z" fill="#51BBE8"/>
<path d="M625.027 709.918L636.596 703.255V690.392L625.027 697.055V709.918Z" fill="#1F89B8"/>
<path d="M613.482 703.255L625.027 709.918V697.055L613.482 690.392V703.255Z" fill="#29ABE2"/>
<path d="M329.125 707.239H373.987L425.412 677.545L367.689 644.215L329.125 707.239Z" fill="#181818" fill-opacity="0.2"/>
<path d="M329.127 658.607L372.747 633.415L329.127 608.223L285.485 633.415L329.127 658.607Z" fill="url(#paint6_linear_6326_99024)"/>
<path d="M329.127 707.238L372.746 682.046V633.415L329.127 658.606V707.238Z" fill="#6A8BA9"/>
<path d="M285.485 682.046L329.127 707.238V658.606L285.485 633.415V682.046Z" fill="#A4B3C1"/>
<path d="M391.128 686.327C390.751 683.045 379.774 681.936 377.224 676.503C376.248 674.418 371.768 674.175 369.24 675.904C367.666 676.991 367.954 681.67 368.331 683.688C368.575 685.019 368.752 685.573 370.438 686.327C378.887 690.186 380.04 690.696 381.548 691.228C383.255 691.827 385.34 692.603 389.443 690.895C391.283 689.786 391.727 688.988 391.128 686.327V686.327Z" fill="#FBBD9E"/>
<path d="M362.321 703.535C361.944 701.561 361.323 699.677 360.658 697.681C359.815 695.153 358.818 692.669 358.108 690.119C357.864 689.254 357.443 687.746 357.443 687.746C357.132 687.502 355.957 687.524 355.58 687.458C353.961 687.125 351.5 688.389 349.881 688.699C349.06 688.855 349.703 694.465 349.77 695.02C349.992 696.905 350.08 698.834 350.28 700.719C350.502 702.826 351.034 704.622 351.81 706.618C352.253 707.771 352.963 709.19 354.094 709.789C355.07 710.299 356.667 710.232 357.731 710.144C359.793 709.966 362.898 708.946 362.721 706.462C362.654 705.464 362.521 704.489 362.321 703.557V703.535Z" fill="#FBBD9E"/>
<path d="M343.519 620.464L343.164 619.932L316.819 627.383C317.44 639.624 318.349 642.485 320.434 645.745C322.962 649.714 340.724 663.375 340.835 664.993C341.545 670.959 345.825 680.627 348.442 688.965C349.085 691.937 358.554 690.54 358.088 687.236C356.78 677.589 352.877 659.472 352.433 657.919C351.99 656.389 342.255 641.509 342.255 641.509C352.123 645.368 365.85 651.488 365.85 651.488C365.85 651.488 366.914 664.018 367.979 677.212C368.466 679.873 378.113 679.097 378.002 676.148C378.002 676.148 379.953 644.547 376.117 640.933C372.059 637.118 358.11 631.131 350.881 627.272C347.909 625.698 345.47 623.236 343.541 620.464H343.519Z" fill="#291259"/>
<path d="M306.218 587.977C300.186 592.345 302.825 598.244 306.661 603.478C311.939 610.707 314.578 616.761 316.285 627.317C318.193 639.048 349.061 631.73 344.537 621.817C342.719 617.826 339.903 612.126 339.082 607.824C338.084 602.591 339.37 597.224 339.193 591.902C339.016 586.38 336.465 580.104 330.611 578.486C324.136 576.712 312.56 583.364 306.195 587.977H306.218Z" fill="white"/>
<path d="M345.002 601.482C345.002 601.482 340.811 577.488 329.59 578.508L329.28 592.7C329.28 592.7 335.866 605.873 337.374 607.713C339.724 610.596 348.683 619.888 348.683 619.888C351.056 622.793 357.532 618.735 355.647 615.364L345.002 601.504V601.482Z" fill="white"/>
<path d="M315.153 582.699C314.932 583.364 314.932 584.074 315.109 584.739C316.373 589.396 321.141 592.235 325.332 591.104C326.13 590.882 328.614 589.485 327.86 586.713C327.461 585.227 327.239 583.719 326.685 582.3C325.931 580.393 325.088 578.486 324.201 576.645C323.27 574.716 321.784 573.052 319.899 572.032C319.322 571.722 318.701 571.456 318.058 571.411C317.415 571.367 316.772 571.522 316.151 571.7C315.752 571.811 315.331 571.921 314.976 572.165C314.178 572.72 314.51 573.252 314.71 573.984C314.909 574.849 314.954 575.736 315.198 576.601C315.996 579.328 315.53 581.59 315.176 582.721L315.153 582.699Z" fill="#F1A782"/>
<path d="M301.629 602.657C302.139 607.447 304.711 622.46 305.865 624.545C308.215 628.78 326.133 636.675 327.708 637.252C331.078 638.471 335.491 631.73 332.631 629.623C331.3 628.625 315.799 618.934 315.799 618.934C315.799 618.934 315.045 606.206 314.646 596.692C314.557 594.386 313.804 592.124 312.273 590.394C310.677 588.576 308.37 587.334 305.665 588.465C303.292 589.463 300.853 595.14 301.651 602.68L301.629 602.657Z" fill="white"/>
<path d="M358.397 623.37C358.397 622.216 359.55 621.551 359.395 620.398C359.151 618.557 358.907 618.668 357.842 617.914C357.199 617.56 356.268 617.138 355.448 616.406C354.183 614.943 347.797 617.715 349.837 620.088C351.256 621.751 355.603 625.853 356.978 626.585C357.133 626.674 357.399 626.763 357.687 626.873C358.02 625.72 358.419 624.612 358.441 623.347L358.397 623.37Z" fill="#FABC9D"/>
<path d="M334.715 636.12L341.19 625.72C341.301 625.565 341.501 625.343 341.723 625.166C341.833 625.077 341.966 624.988 342.077 624.922L359.441 614.898C359.663 614.787 359.774 614.765 359.818 614.81L360.062 615.098C360.062 615.098 359.907 615.098 359.707 615.186C359.685 615.186 342.321 625.21 342.321 625.21C342.21 625.277 342.077 625.365 341.966 625.454C341.745 625.631 341.523 625.853 341.434 626.008L334.959 636.409C334.959 636.409 334.892 636.564 334.915 636.608L334.671 636.32C334.671 636.32 334.671 636.231 334.715 636.12Z" fill="white"/>
<path d="M359.684 615.209L342.321 625.232C341.988 625.432 341.589 625.786 341.434 626.03L334.958 636.431C334.803 636.675 334.958 636.719 335.291 636.542L352.655 626.518C352.987 626.319 353.386 625.964 353.542 625.72L360.017 615.319C360.172 615.075 360.017 615.031 359.684 615.209Z" fill="#E3DDDA"/>
<path d="M345.358 629.29C345.602 628.581 345.513 628.093 344.759 628.137C344.027 628.182 343.362 628.647 342.741 628.98C342.142 629.29 341.543 629.579 340.922 629.867C340.457 630.067 339.858 630.444 339.348 630.51C338.261 630.643 338.261 630 338.838 629.557L340.679 626.585C340.679 626.585 340.545 626.652 340.457 626.674C339.525 627.095 337.929 627.228 336.177 628.071C334.491 628.869 333.937 630.421 332.23 630.377C330.322 630.044 326.286 636.32 329.369 636.875C331.52 637.251 337.463 637.695 338.993 637.407C340.146 637.185 344.537 635.167 345.003 634.125C345.114 633.859 345.269 633.526 345.069 633.326C346.045 632.728 345.845 631.242 345.291 631.441C346.888 630.266 346.267 628.78 345.38 629.313L345.358 629.29Z" fill="#FABC9D"/>
<path d="M351.59 625.21C351.368 624.811 351.457 624.279 351.701 623.88C352.277 622.993 353.319 622.705 354.251 622.305C355.47 621.773 356.624 621.064 357.644 620.221C357.91 619.999 358.176 619.733 358.22 619.4C358.22 619.289 358.22 619.179 358.242 619.068C358.265 618.957 358.486 618.447 358.597 618.469C359.595 619.245 359.573 621.396 359.617 622.638C359.662 624.213 359.573 625.72 358.642 626.607C357.4 627.761 354.827 629.269 353.807 627.982C353.563 628.138 353.275 628.249 352.965 628.249C352.299 628.226 351.967 627.495 352.166 627.428C351.723 627.561 351.191 627.317 351.058 626.874C350.814 626.186 351.479 625.033 351.59 625.233V625.21Z" fill="#FABC9D"/>
<path d="M350.545 624.7C350.302 625.122 349.57 625.809 348.927 626.23C348.284 626.652 347.951 626.652 348.195 626.23C348.439 625.809 349.171 625.122 349.814 624.7C350.457 624.279 350.789 624.279 350.545 624.7Z" fill="#C2BCBA"/>
<path d="M307.098 565.298C302.746 570.841 306.317 576.556 303.539 579.942C303.301 580.233 302.984 580.577 303.076 580.961C303.314 582.019 309.836 582.747 312.561 579.916C313.434 579.016 313.593 578.275 314.255 577.217C315.723 574.928 319.083 567.97 316.252 564.874C313.805 562.189 309.334 562.48 307.111 565.311L307.098 565.298Z" fill="#291259"/>
<path d="M322.428 565.335C320.566 564.138 318.592 563.894 316.485 563.451C314.356 563.007 312.25 563.384 310.342 564.404C308.568 565.358 307.105 566.954 306.484 568.884C305.597 571.656 306.55 574.782 308.302 577.089C310.076 579.395 316.729 587.511 326.708 585.471C327.906 585.227 329.236 584.895 329.813 583.83C330.523 582.477 329.879 580.726 329.392 579.417C329.037 578.441 328.992 578.508 329.591 577.82C330.101 577.222 330.567 576.823 329.99 575.98C329.702 575.559 329.258 575.27 328.859 574.96C328.105 574.383 326.93 573.452 326.62 572.498C326.331 571.656 326.464 570.658 326.132 569.771C325.422 567.93 324.092 566.356 322.428 565.291V565.335Z" fill="#FBBD9E"/>
<path d="M319.989 572.01C317.772 573.496 317.617 574.915 318.082 577.022C318.282 577.975 319.413 579.639 318.082 580.104C316.774 580.57 315.022 576.911 312.538 578.02C311.607 578.441 315.177 580.26 314.955 581.058C314.889 582.699 314.357 583.719 314.357 583.719C308.48 579.572 304.244 575.048 305.375 568.795C305.797 566.533 307.926 563.827 309.988 562.829C317.306 559.303 324.358 561.765 324.092 566.666C323.981 568.817 321.231 571.167 319.989 571.988V572.01Z" fill="#291259"/>
<path d="M316.796 580.237C315.975 578.973 314.911 578.042 314.223 577.732C310.742 576.246 309.744 581.59 316.086 583.83C317.062 584.163 317.993 582.056 316.796 580.237V580.237Z" fill="#FBBD9E"/>
<path d="M1165.24 158.527H1183.83L1202.29 147.861L1178.34 134.046L1165.24 158.527Z" fill="#181818" fill-opacity="0.2"/>
<path d="M1165.24 138.366L1183.32 127.92L1165.24 117.473L1147.12 127.92L1165.24 138.366Z" fill="#51BBE8"/>
<path d="M1165.24 158.527L1183.32 148.08V127.919L1165.24 138.366V158.527Z" fill="#1F89B8"/>
<path d="M1147.12 148.08L1165.23 158.527V138.366L1147.12 127.919V148.08Z" fill="#29ABE2"/>
<path d="M1133.95 113.196H1146.52L1158.97 106.02L1142.81 96.6958L1133.95 113.196Z" fill="#181818" fill-opacity="0.2"/>
<path d="M1133.96 100.333L1145.52 93.6692L1133.96 86.9814L1122.41 93.6692L1133.96 100.333Z" fill="#51BBE8"/>
<path d="M1133.96 113.196L1145.52 106.532V93.6694L1133.96 100.333V113.196Z" fill="#1F89B8"/>
<path d="M1122.41 106.532L1133.96 113.196V100.333L1122.41 93.6694V106.532Z" fill="#29ABE2"/>
<path d="M1211.63 505.951C1211.04 503.29 1209.02 501.923 1205.99 499.165C1205.09 497.921 1203.45 496.285 1201.77 493.185C1201.08 491.916 1200.4 489.915 1199.74 488.279C1199.45 487.572 1194.79 490.452 1194.79 490.452C1195.1 491.33 1195.37 491.965 1195.37 492.6C1194.69 493.137 1194.22 493.966 1194.18 495.016C1194.18 495.504 1194.49 496.554 1194.81 497.188C1194.93 497.506 1195.05 497.823 1195.2 498.14C1195.84 499.532 1200.67 506.048 1203.01 507.659C1204.82 508.904 1207.11 509.392 1209.21 508.831C1210.75 508.416 1211.99 507.537 1211.65 505.926L1211.63 505.951Z" fill="#FABC9D"/>
<path d="M1213.63 487.743C1213.21 486.303 1212.99 484.204 1212.7 482.471C1212.58 481.714 1207.38 483.52 1207.38 483.52C1207.52 484.741 1207.72 485.571 1207.21 486.303C1206.79 486.693 1206.45 487.206 1206.28 487.865C1205.45 490.965 1210.45 499.898 1212.5 502.193C1215.7 505.756 1221 505.121 1221 502.315C1221 497.726 1216.09 493.162 1213.6 487.767L1213.63 487.743Z" fill="#FABC9D"/>
<path d="M1210.31 455.11C1209.72 449.618 1206.11 446.542 1199.59 439.806C1195.88 435.949 1191.66 432.166 1185.19 427.626C1182.97 426.064 1180.99 424.16 1179.41 421.964L1177.01 418.644C1155.19 422.793 1152.14 430.311 1173.7 442.247L1199.62 456.428C1199.62 456.428 1195.64 461.822 1201.45 472.659C1204.94 479.151 1206.91 485.229 1207.33 486.84C1207.99 489.33 1214.02 488.036 1213.63 485.79C1213.63 485.79 1210.94 467.289 1210.28 455.11H1210.31Z" fill="#3B00B9"/>
<path d="M1201.15 490.428C1201.01 488.402 1199.89 478.81 1199.91 474.465C1199.91 470.071 1200.62 464.799 1199.84 460.992C1199.57 459.722 1199.1 458.453 1198.23 457.526C1197.54 456.794 1178.48 443.149 1173.5 437.853L1166.03 421.622L1153.8 426.552C1152.12 431.141 1152 436.315 1153.51 440.977C1155 445.639 1158.1 449.764 1162.18 452.522C1165.06 454.475 1185.29 462.969 1187.27 463.799C1187 464.531 1186.61 468.363 1186.97 472.83C1187.46 479.2 1192.44 486.181 1195.03 491.453C1195.64 492.673 1197.27 492.771 1198.74 492.502C1200.18 492.234 1201.45 491.624 1201.23 490.428H1201.15Z" fill="#3B00B9"/>
<path d="M1170.33 393.479C1172.77 399.313 1178.36 411.517 1178.94 412.615C1180.7 415.837 1186.58 412.81 1185.51 408.93C1183.24 400.655 1181.63 394.065 1178.87 383.496C1177.97 380.031 1174.72 378.713 1171.84 380.812C1169.16 382.764 1167.84 387.597 1170.3 393.479H1170.33Z" fill="white"/>
<path d="M1151.97 392.894C1151.44 395.261 1153.07 397.8 1154.12 399.972C1160.37 413.128 1156.2 415.91 1153.36 426.406C1152.07 431.214 1165.13 432.483 1171.47 430.36C1179.65 427.626 1179.92 423.452 1179.38 421.939C1177.53 416.594 1175.21 410.345 1179.09 405.439C1181.85 401.973 1182.12 400.948 1179.29 396.53C1178.11 394.675 1177.6 393.382 1178.31 387.646C1178.5 385.986 1179.02 384.375 1178.92 382.715C1178.85 381.178 1177.97 379.103 1176.28 379.054C1174.45 379.03 1152.83 388.915 1151.92 392.869L1151.97 392.894Z" fill="white"/>
<path d="M1170.26 382.593C1167.72 382.3 1164.94 383.838 1163.45 385.717C1162.35 387.084 1162.23 389.012 1162.96 390.623C1164.11 393.137 1166.74 395.285 1169.4 395.578C1172.94 395.993 1175.8 393.479 1175.8 389.989C1175.8 386.498 1173.8 383.008 1170.28 382.593H1170.26Z" fill="#FABC9D"/>
<path d="M1171.62 377.907C1171.23 377.711 1170.77 377.54 1170.33 377.638C1169.69 377.785 1168.64 377.272 1168.5 377.907C1167.64 381.958 1164.79 384.692 1164.25 385.717C1163.74 386.718 1163.22 390.135 1167.1 392.649C1169.79 394.382 1173.52 394.04 1174.77 389.94C1175.45 387.719 1176.7 383.398 1176.7 383.398L1171.64 377.931L1171.62 377.907Z" fill="#F1A782"/>
<path d="M1168.5 387.621C1166.45 387.841 1162.37 388.134 1161.39 386.328C1160.71 385.058 1161.95 382.862 1161.17 381.641C1160.81 381.056 1160.56 380.958 1161.15 380.104C1161.93 378.956 1162.34 378.127 1162.56 376.735C1162.93 374.587 1162.1 373.196 1165.93 368.778C1166.96 367.607 1167.4 367.192 1173.11 366.996C1174.43 366.948 1174.84 367.094 1176.01 368.046C1178.04 369.73 1178.43 370.389 1178.82 373.172C1179.04 374.636 1179.23 376.101 1179.06 377.565C1178.82 379.445 1178.48 381.373 1177.06 382.74C1175.4 384.326 1171.08 387.328 1168.47 387.597L1168.5 387.621Z" fill="#FCBE9F"/>
<path d="M1172.18 384.423C1173.01 382.886 1177.65 382.715 1177.75 382.91C1177.92 383.276 1175.87 385.327 1174.79 385.937C1176.26 386.425 1187.56 380.787 1184.07 370.609C1181.7 363.701 1174.38 362.407 1169.42 364.458C1167.08 365.434 1164.91 367.899 1164.62 370.438C1165.03 369.852 1165.25 370.828 1165.76 371.487C1166.71 372.756 1168.23 375.075 1169.57 378.053C1170.03 379.078 1171.18 383.496 1172.18 384.423Z" fill="#6E52AA"/>
<path d="M1174.16 382.716C1172.38 383.472 1171.25 384.766 1171.6 385.62C1171.96 386.474 1173.7 386.572 1175.45 385.84C1177.21 385.108 1178.36 383.79 1178.02 382.935C1177.65 382.081 1175.92 381.983 1174.16 382.716Z" fill="#FCBE9F"/>
<path d="M1178.77 412.322C1180.07 412.225 1183.63 412.298 1185.34 408.319C1188.15 412.029 1194.18 425.039 1194.81 426.284C1196.35 429.335 1190.03 430.677 1188.88 428.846C1186.34 424.819 1182.68 418.961 1178.77 412.298V412.322Z" fill="white"/>
<path d="M1175.48 437.609C1175.8 436.462 1175.92 435.68 1175.16 434.899C1172.13 431.873 1164.62 420.328 1164.62 420.328C1163.47 412.176 1162.03 404.633 1160.66 394.089C1160.2 390.428 1157.05 388.671 1153.88 390.55C1151.05 392.21 1149.22 396.799 1150.9 402.852C1152.22 407.611 1155.68 417.082 1157.47 422.354C1157.83 423.452 1158.34 424.502 1158.98 425.502C1160.76 428.285 1163.4 431.36 1171.18 439.464C1172.65 440.977 1175.14 438.902 1175.48 437.658V437.609Z" fill="white"/>
<path d="M1170.99 445.37V445.956C1170.99 445.956 1171.07 446.151 1171.19 446.224L1186.25 454.914C1186.52 455.06 1186.93 455.06 1187.2 454.914L1208.51 442.539C1208.63 442.466 1208.7 442.368 1208.7 442.27V441.685L1171.02 445.37H1170.99Z" fill="#C9C6C5"/>
<path d="M1208.48 441.392L1193.42 432.703C1193.15 432.556 1192.74 432.556 1192.47 432.703L1171.16 445.077C1170.89 445.224 1170.89 445.468 1171.16 445.614L1186.22 454.304C1186.49 454.45 1186.9 454.45 1187.17 454.304L1208.48 441.929C1208.75 441.782 1208.75 441.538 1208.48 441.392Z" fill="url(#paint7_linear_6326_99024)"/>
<g style="mix-blend-mode:multiply" opacity="0.3">
<path d="M1191.81 440.367L1184.78 444.419C1184.63 444.516 1184.37 444.516 1184.22 444.419L1179.56 441.734C1179.41 441.636 1179.41 441.49 1179.56 441.392L1186.59 437.34C1186.73 437.243 1187 437.243 1187.15 437.34L1191.81 440.025C1191.96 440.123 1191.96 440.269 1191.81 440.367Z" fill="#E6E1E0"/>
</g>
<path d="M1181.46 448.934L1180.51 449.471C1180.51 449.471 1180.26 449.52 1180.17 449.471L1179.36 449.007C1179.36 449.007 1179.26 448.861 1179.36 448.812L1180.31 448.275C1180.31 448.275 1180.56 448.226 1180.65 448.275L1181.46 448.739C1181.46 448.739 1181.56 448.885 1181.46 448.934ZM1183 447.86L1182.19 447.396C1182.19 447.396 1181.95 447.347 1181.85 447.396L1180.9 447.933C1180.9 447.933 1180.8 448.08 1180.9 448.128L1181.7 448.592C1181.7 448.592 1181.95 448.641 1182.05 448.592L1183 448.055C1183 448.055 1183.09 447.909 1183 447.86ZM1184.53 446.981L1183.73 446.518C1183.73 446.518 1183.49 446.469 1183.39 446.518L1182.44 447.054C1182.44 447.054 1182.34 447.201 1182.44 447.25L1183.24 447.713C1183.24 447.713 1183.49 447.762 1183.58 447.713L1184.53 447.177C1184.53 447.177 1184.63 447.03 1184.53 446.981ZM1186.07 446.103L1185.27 445.639C1185.27 445.639 1185.02 445.59 1184.93 445.639L1183.97 446.176C1183.97 446.176 1183.88 446.322 1183.97 446.371L1184.78 446.835C1184.78 446.835 1185.02 446.884 1185.12 446.835L1186.07 446.298C1186.07 446.298 1186.17 446.151 1186.07 446.103ZM1187.61 445.224L1186.8 444.76C1186.8 444.76 1186.56 444.711 1186.46 444.76L1185.51 445.297C1185.51 445.297 1185.41 445.444 1185.51 445.492L1186.32 445.956C1186.32 445.956 1186.56 446.005 1186.66 445.956L1187.61 445.419C1187.61 445.419 1187.71 445.273 1187.61 445.224ZM1189.15 444.345L1188.34 443.881C1188.34 443.881 1188.1 443.833 1188 443.881L1187.05 444.418C1187.05 444.418 1186.95 444.565 1187.05 444.614L1187.85 445.077C1187.85 445.077 1188.1 445.126 1188.2 445.077L1189.15 444.54C1189.15 444.54 1189.25 444.394 1189.15 444.345ZM1190.69 443.467L1189.88 443.003C1189.88 443.003 1189.64 442.954 1189.54 443.003L1188.59 443.54C1188.59 443.54 1188.49 443.686 1188.59 443.735L1189.39 444.199C1189.39 444.199 1189.64 444.248 1189.73 444.199L1190.69 443.662C1190.69 443.662 1190.78 443.515 1190.69 443.467ZM1192.22 442.588L1191.42 442.124C1191.42 442.124 1191.17 442.075 1191.08 442.124L1190.12 442.661C1190.12 442.661 1190.03 442.807 1190.12 442.856L1190.93 443.32C1190.93 443.32 1191.17 443.369 1191.27 443.32L1192.22 442.783C1192.22 442.783 1192.32 442.637 1192.22 442.588ZM1193.76 441.709L1192.96 441.245C1192.96 441.245 1192.71 441.197 1192.61 441.245L1191.66 441.782C1191.66 441.782 1191.56 441.929 1191.66 441.978L1192.47 442.441C1192.47 442.441 1192.71 442.49 1192.81 442.441L1193.76 441.904C1193.76 441.904 1193.86 441.758 1193.76 441.709ZM1195.79 440.538L1194.98 440.074C1194.98 440.074 1194.74 440.025 1194.64 440.074L1193.2 440.904C1193.2 440.904 1193.1 441.05 1193.2 441.099L1194 441.563C1194 441.563 1194.25 441.612 1194.35 441.563L1195.79 440.733C1195.79 440.733 1195.88 440.586 1195.79 440.538ZM1201.52 442.075L1200.72 441.611C1200.72 441.611 1200.47 441.563 1200.38 441.611L1199.42 442.148C1199.42 442.148 1199.33 442.295 1199.42 442.344L1200.23 442.807C1200.23 442.807 1200.47 442.856 1200.57 442.807L1201.52 442.271C1201.52 442.271 1201.62 442.124 1201.52 442.075ZM1203.06 441.197L1202.25 440.733C1202.25 440.733 1202.01 440.684 1201.91 440.733L1200.96 441.27C1200.96 441.27 1200.86 441.416 1200.96 441.465L1201.77 441.929C1201.77 441.929 1202.01 441.978 1202.11 441.929L1203.06 441.392C1203.06 441.392 1203.16 441.245 1203.06 441.197ZM1204.6 440.318L1203.79 439.854C1203.79 439.854 1203.55 439.805 1203.45 439.854L1202.5 440.391C1202.5 440.391 1202.4 440.538 1202.5 440.586L1203.3 441.05C1203.3 441.05 1203.55 441.099 1203.65 441.05L1204.6 440.513C1204.6 440.513 1204.7 440.367 1204.6 440.318ZM1202.94 442.881L1202.13 442.417C1202.13 442.417 1201.89 442.368 1201.79 442.417L1200.84 442.954C1200.84 442.954 1200.74 443.1 1200.84 443.149L1201.64 443.613C1201.64 443.613 1201.89 443.662 1201.99 443.613L1202.94 443.076C1202.94 443.076 1203.04 442.93 1202.94 442.881ZM1204.48 442.002L1203.67 441.538C1203.67 441.538 1203.43 441.489 1203.33 441.538L1202.38 442.075C1202.38 442.075 1202.28 442.222 1202.38 442.271L1203.18 442.734C1203.18 442.734 1203.43 442.783 1203.52 442.734L1204.48 442.197C1204.48 442.197 1204.57 442.051 1204.48 442.002ZM1206.01 441.123L1205.21 440.66C1205.21 440.66 1204.96 440.611 1204.87 440.66L1203.91 441.197C1203.91 441.197 1203.82 441.343 1203.91 441.392L1204.72 441.856C1204.72 441.856 1204.96 441.904 1205.06 441.856L1206.01 441.319C1206.01 441.319 1206.11 441.172 1206.01 441.123ZM1183.49 449.3L1182.68 448.836C1182.68 448.836 1182.44 448.787 1182.34 448.836L1180.9 449.666C1180.9 449.666 1180.8 449.813 1180.9 449.861L1181.7 450.325C1181.7 450.325 1181.95 450.374 1182.05 450.325L1183.49 449.495C1183.49 449.495 1183.58 449.349 1183.49 449.3ZM1185.02 448.421L1184.22 447.958C1184.22 447.958 1183.97 447.909 1183.88 447.958L1182.92 448.495C1182.92 448.495 1182.83 448.641 1182.92 448.69L1183.73 449.154C1183.73 449.154 1183.97 449.202 1184.07 449.154L1185.02 448.617C1185.02 448.617 1185.12 448.47 1185.02 448.421ZM1186.56 447.543L1185.76 447.079C1185.76 447.079 1185.51 447.03 1185.41 447.079L1184.46 447.616C1184.46 447.616 1184.36 447.762 1184.46 447.811L1185.27 448.275C1185.27 448.275 1185.51 448.324 1185.61 448.275L1186.56 447.738C1186.56 447.738 1186.66 447.591 1186.56 447.543ZM1188.1 446.664L1187.29 446.2C1187.29 446.2 1187.05 446.151 1186.95 446.2L1186 446.737C1186 446.737 1185.9 446.884 1186 446.932L1186.8 447.396C1186.8 447.396 1187.05 447.445 1187.15 447.396L1188.1 446.859C1188.1 446.859 1188.2 446.713 1188.1 446.664ZM1189.64 445.785L1188.83 445.322C1188.83 445.322 1188.59 445.273 1188.49 445.322L1187.54 445.858C1187.54 445.858 1187.44 446.005 1187.54 446.054L1188.34 446.518C1188.34 446.518 1188.59 446.566 1188.68 446.518L1189.64 445.981C1189.64 445.981 1189.73 445.834 1189.64 445.785ZM1191.17 444.907L1190.37 444.443C1190.37 444.443 1190.12 444.394 1190.03 444.443L1189.07 444.98C1189.07 444.98 1188.98 445.126 1189.07 445.175L1189.88 445.639C1189.88 445.639 1190.12 445.688 1190.22 445.639L1191.17 445.102C1191.17 445.102 1191.27 444.955 1191.17 444.907ZM1192.71 444.028L1191.91 443.564C1191.91 443.564 1191.66 443.515 1191.56 443.564L1190.61 444.101C1190.61 444.101 1190.51 444.248 1190.61 444.296L1191.42 444.76C1191.42 444.76 1191.66 444.809 1191.76 444.76L1192.71 444.223C1192.71 444.223 1192.81 444.077 1192.71 444.028ZM1194.25 443.149L1193.44 442.685C1193.44 442.685 1193.2 442.637 1193.1 442.685L1192.15 443.222C1192.15 443.222 1192.05 443.369 1192.15 443.418L1192.96 443.881C1192.96 443.881 1193.2 443.93 1193.3 443.881L1194.25 443.344C1194.25 443.344 1194.35 443.198 1194.25 443.149ZM1195.79 442.271L1194.98 441.807C1194.98 441.807 1194.74 441.758 1194.64 441.807L1193.69 442.344C1193.69 442.344 1193.59 442.49 1193.69 442.539L1194.49 443.003C1194.49 443.003 1194.74 443.052 1194.83 443.003L1195.79 442.466C1195.79 442.466 1195.88 442.319 1195.79 442.271ZM1197.32 441.392L1196.52 440.928C1196.52 440.928 1196.27 440.879 1196.18 440.928L1195.23 441.465C1195.23 441.465 1195.13 441.611 1195.23 441.66L1196.03 442.124C1196.03 442.124 1196.27 442.173 1196.37 442.124L1197.32 441.587C1197.32 441.587 1197.42 441.441 1197.32 441.392ZM1184.44 450.423L1183.63 449.959C1183.63 449.959 1183.39 449.91 1183.29 449.959L1182.34 450.496C1182.34 450.496 1182.24 450.642 1182.34 450.691L1183.14 451.155C1183.14 451.155 1183.39 451.204 1183.49 451.155L1184.44 450.618C1184.44 450.618 1184.53 450.472 1184.44 450.423ZM1185.97 449.544L1185.17 449.08C1185.17 449.08 1184.93 449.032 1184.83 449.08L1183.88 449.617C1183.88 449.617 1183.78 449.764 1183.88 449.813L1184.68 450.276C1184.68 450.276 1184.93 450.325 1185.02 450.276L1185.97 449.739C1185.97 449.739 1186.07 449.593 1185.97 449.544ZM1187.51 448.665L1186.71 448.202C1186.71 448.202 1186.46 448.153 1186.37 448.202L1185.41 448.739C1185.41 448.739 1185.32 448.885 1185.41 448.934L1186.22 449.398C1186.22 449.398 1186.46 449.446 1186.56 449.398L1187.51 448.861C1187.51 448.861 1187.61 448.714 1187.51 448.665ZM1189.05 447.787L1188.24 447.323C1188.24 447.323 1188 447.274 1187.9 447.323L1186.95 447.86C1186.95 447.86 1186.85 448.006 1186.95 448.055L1187.76 448.519C1187.76 448.519 1188 448.568 1188.1 448.519L1189.05 447.982C1189.05 447.982 1189.15 447.836 1189.05 447.787ZM1187.24 452.034L1186.44 451.57C1186.44 451.57 1186.19 451.521 1186.1 451.57L1185.14 452.107C1185.14 452.107 1185.05 452.253 1185.14 452.302L1185.95 452.766C1185.95 452.766 1186.19 452.815 1186.29 452.766L1187.24 452.229C1187.24 452.229 1187.34 452.083 1187.24 452.034ZM1188.78 451.155L1187.98 450.691C1187.98 450.691 1187.73 450.642 1187.63 450.691L1186.68 451.228C1186.68 451.228 1186.58 451.375 1186.68 451.424L1187.49 451.887C1187.49 451.887 1187.73 451.936 1187.83 451.887L1188.78 451.35C1188.78 451.35 1188.88 451.204 1188.78 451.155ZM1190.32 450.276L1189.51 449.813C1189.51 449.813 1189.27 449.764 1189.17 449.813L1188.22 450.35C1188.22 450.35 1188.12 450.496 1188.22 450.545L1189.03 451.009C1189.03 451.009 1189.27 451.057 1189.37 451.009L1190.32 450.472C1190.32 450.472 1190.42 450.325 1190.32 450.276ZM1191.86 449.398L1191.05 448.934C1191.05 448.934 1190.81 448.885 1190.71 448.934L1189.76 449.471C1189.76 449.471 1189.66 449.617 1189.76 449.666L1190.56 450.13C1190.56 450.13 1190.81 450.179 1190.91 450.13L1191.86 449.593C1191.86 449.593 1191.95 449.446 1191.86 449.398ZM1201.52 443.833L1200.72 443.369C1200.72 443.369 1200.47 443.32 1200.38 443.369L1198.94 444.199C1198.94 444.199 1198.84 444.345 1198.94 444.394L1199.74 444.858C1199.74 444.858 1199.98 444.907 1200.08 444.858L1201.52 444.028C1201.52 444.028 1201.62 443.881 1201.52 443.833ZM1190.61 446.932L1189.81 446.469C1189.81 446.469 1189.56 446.42 1189.47 446.469L1188.51 447.006C1188.51 447.006 1188.42 447.152 1188.51 447.201L1189.32 447.665C1189.32 447.665 1189.56 447.714 1189.66 447.665L1190.61 447.128C1190.61 447.128 1190.71 446.981 1190.61 446.932ZM1192.15 446.054L1191.34 445.59C1191.34 445.59 1191.1 445.541 1191 445.59L1190.05 446.127C1190.05 446.127 1189.95 446.273 1190.05 446.322L1190.86 446.786C1190.86 446.786 1191.1 446.835 1191.2 446.786L1192.15 446.249C1192.15 446.249 1192.25 446.103 1192.15 446.054ZM1193.69 445.175L1192.88 444.711C1192.88 444.711 1192.64 444.662 1192.54 444.711L1191.59 445.248C1191.59 445.248 1191.49 445.395 1191.59 445.444L1192.39 445.907C1192.39 445.907 1192.64 445.956 1192.74 445.907L1193.69 445.37C1193.69 445.37 1193.79 445.224 1193.69 445.175ZM1195.23 444.296L1194.42 443.833C1194.42 443.833 1194.18 443.784 1194.08 443.833L1193.13 444.37C1193.13 444.37 1193.03 444.516 1193.13 444.565L1193.93 445.029C1193.93 445.029 1194.18 445.077 1194.27 445.029L1195.23 444.492C1195.23 444.492 1195.32 444.345 1195.23 444.296ZM1196.76 443.418L1195.96 442.954C1195.96 442.954 1195.71 442.905 1195.62 442.954L1194.66 443.491C1194.66 443.491 1194.57 443.637 1194.66 443.686L1195.47 444.15C1195.47 444.15 1195.71 444.199 1195.81 444.15L1196.76 443.613C1196.76 443.613 1196.86 443.467 1196.76 443.418ZM1198.79 442.246L1197.98 441.782C1197.98 441.782 1197.74 441.734 1197.64 441.782L1196.2 442.612C1196.2 442.612 1196.1 442.759 1196.2 442.807L1197.01 443.271C1197.01 443.271 1197.25 443.32 1197.35 443.271L1198.79 442.441C1198.79 442.441 1198.89 442.295 1198.79 442.246ZM1186.46 450.984L1185.66 450.52C1185.66 450.52 1185.41 450.472 1185.32 450.52L1183.88 451.35C1183.88 451.35 1183.78 451.497 1183.88 451.546L1184.68 452.009C1184.68 452.009 1184.93 452.058 1185.02 452.009L1186.46 451.179C1186.46 451.179 1186.56 451.033 1186.46 450.984ZM1188 450.105L1187.2 449.642C1187.2 449.642 1186.95 449.593 1186.85 449.642L1185.9 450.179C1185.9 450.179 1185.8 450.325 1185.9 450.374L1186.71 450.838C1186.71 450.838 1186.95 450.887 1187.05 450.838L1188 450.301C1188 450.301 1188.1 450.154 1188 450.105ZM1189.54 449.227L1188.73 448.763C1188.73 448.763 1188.49 448.714 1188.39 448.763L1187.44 449.3C1187.44 449.3 1187.34 449.446 1187.44 449.495L1188.24 449.959C1188.24 449.959 1188.49 450.008 1188.59 449.959L1189.54 449.422C1189.54 449.422 1189.64 449.276 1189.54 449.227ZM1191.08 448.348L1190.27 447.884C1190.27 447.884 1190.03 447.836 1189.93 447.884L1188.98 448.421C1188.98 448.421 1188.88 448.568 1188.98 448.617L1189.78 449.08C1189.78 449.08 1190.03 449.129 1190.12 449.08L1191.08 448.543C1191.08 448.543 1191.17 448.397 1191.08 448.348ZM1192.61 447.469L1191.81 447.006C1191.81 447.006 1191.56 446.957 1191.47 447.006L1190.51 447.543C1190.51 447.543 1190.42 447.689 1190.51 447.738L1191.32 448.202C1191.32 448.202 1191.56 448.25 1191.66 448.202L1192.61 447.665C1192.61 447.665 1192.71 447.518 1192.61 447.469ZM1194.15 446.591L1193.35 446.127C1193.35 446.127 1193.1 446.078 1193 446.127L1192.05 446.664C1192.05 446.664 1191.95 446.81 1192.05 446.859L1192.86 447.323C1192.86 447.323 1193.1 447.372 1193.2 447.323L1194.15 446.786C1194.15 446.786 1194.25 446.64 1194.15 446.591ZM1195.69 445.712L1194.88 445.248C1194.88 445.248 1194.64 445.199 1194.54 445.248L1193.59 445.785C1193.59 445.785 1193.49 445.932 1193.59 445.981L1194.4 446.444C1194.4 446.444 1194.64 446.493 1194.74 446.444L1195.69 445.907C1195.69 445.907 1195.79 445.761 1195.69 445.712ZM1197.23 444.833L1196.42 444.37C1196.42 444.37 1196.18 444.321 1196.08 444.37L1195.13 444.907C1195.13 444.907 1195.03 445.053 1195.13 445.102L1195.93 445.566C1195.93 445.566 1196.18 445.614 1196.27 445.566L1197.23 445.029C1197.23 445.029 1197.32 444.882 1197.23 444.833ZM1198.76 443.955L1197.96 443.491C1197.96 443.491 1197.71 443.442 1197.62 443.491L1196.67 444.028C1196.67 444.028 1196.57 444.174 1196.67 444.223L1197.47 444.687C1197.47 444.687 1197.71 444.736 1197.81 444.687L1198.76 444.15C1198.76 444.15 1198.86 444.003 1198.76 443.955ZM1200.3 443.076L1199.5 442.612C1199.5 442.612 1199.25 442.563 1199.16 442.612L1198.2 443.149C1198.2 443.149 1198.11 443.296 1198.2 443.344L1199.01 443.808C1199.01 443.808 1199.25 443.857 1199.35 443.808L1200.3 443.271C1200.3 443.271 1200.4 443.125 1200.3 443.076ZM1197.67 439.781L1196.86 439.317C1196.86 439.317 1196.62 439.268 1196.52 439.317L1195.57 439.854C1195.57 439.854 1195.47 440.001 1195.57 440.049L1196.37 440.513C1196.37 440.513 1196.62 440.562 1196.71 440.513L1197.67 439.976C1197.67 439.976 1197.76 439.83 1197.67 439.781ZM1199.2 438.902L1198.4 438.438C1198.4 438.438 1198.15 438.39 1198.06 438.438L1197.1 438.975C1197.1 438.975 1197.01 439.122 1197.1 439.171L1197.91 439.634C1197.91 439.634 1198.15 439.683 1198.25 439.634L1199.2 439.097C1199.2 439.097 1199.3 438.951 1199.2 438.902ZM1200.74 438.024L1199.94 437.56C1199.94 437.56 1199.69 437.511 1199.59 437.56L1198.64 438.097C1198.64 438.097 1198.54 438.243 1198.64 438.292L1199.45 438.756C1199.45 438.756 1199.69 438.805 1199.79 438.756L1200.74 438.219C1200.74 438.219 1200.84 438.072 1200.74 438.024ZM1202.13 438.829L1201.33 438.365C1201.33 438.365 1201.08 438.316 1200.99 438.365L1200.03 438.902C1200.03 438.902 1199.94 439.049 1200.03 439.097L1200.84 439.561C1200.84 439.561 1201.08 439.61 1201.18 439.561L1202.13 439.024C1202.13 439.024 1202.23 438.878 1202.13 438.829Z" fill="white"/>
<path d="M1175.48 448.543L1176.12 448.908C1176.12 448.908 1176.24 448.908 1176.24 448.86C1176.24 448.811 1176.19 448.689 1176.12 448.64L1175.48 448.275C1175.48 448.275 1175.36 448.275 1175.36 448.324C1175.36 448.372 1175.41 448.494 1175.48 448.543Z" fill="#938E8C"/>
<path d="M1176.68 449.226L1177.31 449.592C1177.31 449.592 1177.44 449.592 1177.44 449.543C1177.44 449.494 1177.39 449.373 1177.31 449.324L1176.68 448.958C1176.68 448.958 1176.56 448.958 1176.56 449.007C1176.56 449.056 1176.61 449.178 1176.68 449.226Z" fill="#938E8C"/>
<path d="M1180.19 451.228L1178.34 450.154V449.983L1180.19 451.057V451.228Z" fill="#938E8C"/>
<path d="M1186.1 446.005C1186.51 446.151 1187.32 446.347 1187.76 446.249C1188.22 446.151 1188.46 445.443 1187.98 445.199C1188.46 445.443 1189.85 445.443 1189.93 444.614C1189.98 444.052 1188.68 443.125 1188.68 443.125C1191.15 442.295 1186.9 439.732 1183.29 437.95C1184.22 438.072 1185 437.926 1185.17 437.486C1185.46 436.73 1183.12 435.827 1181.51 435.485C1179.73 435.119 1177.41 435.924 1175.33 435.583C1173.72 435.314 1170.89 438.78 1172.13 439.61C1172.82 440.049 1176.94 443.222 1177.65 443.637C1180.07 445.077 1184.22 446.713 1185.29 446.81C1186.19 446.883 1186.41 446.273 1186.12 446.005H1186.1Z" fill="#FABC9D"/>
<path d="M1197.35 431.824C1196.08 429.676 1195.25 428.089 1194.44 427.04C1193.35 425.063 1188.95 426.356 1189.32 428.455C1189.49 429.31 1190.66 433.435 1190.9 434.265C1191.32 435.68 1191.56 441.172 1193.05 441.587C1194.3 441.929 1199.79 440.489 1199.59 438.219C1199.59 438.219 1198.89 434.411 1197.35 431.824V431.824Z" fill="#FABC9D"/>
<path d="M1187.1 454.914L1192.25 440.489L1192.1 440.343L1186.95 454.768C1186.88 454.939 1186.9 455.061 1186.95 455.134L1187.1 455.28C1187.1 455.28 1187.02 455.085 1187.1 454.914Z" fill="#E6E1E0"/>
<path d="M1214.63 426.967C1214.63 426.967 1214.34 426.894 1214.07 427.064L1193.2 439.122C1192.74 439.39 1192.22 439.952 1192.08 440.367L1192.22 440.513C1192.37 440.098 1192.88 439.537 1193.35 439.268L1214.21 427.211C1214.48 427.064 1214.68 427.04 1214.78 427.113L1214.63 426.967Z" fill="url(#paint8_linear_6326_99024)"/>
<path d="M1214.24 427.211L1193.37 439.268C1192.9 439.537 1192.39 440.098 1192.25 440.513L1187.1 454.938C1186.95 455.353 1187.22 455.475 1187.68 455.207L1208.55 443.149C1209.01 442.88 1209.53 442.319 1209.67 441.904L1214.82 427.479C1214.97 427.064 1214.7 426.942 1214.24 427.211Z" fill="#D9D5D4"/>
<path d="M1203.21 440.513C1203.21 441.221 1202.45 442.295 1201.5 442.905C1200.55 443.515 1199.79 443.418 1199.79 442.71C1199.79 442.002 1200.55 440.928 1201.5 440.318C1202.45 439.708 1203.21 439.805 1203.21 440.513Z" fill="#C8C3C2"/>
<path d="M833.048 227.899C833.048 227.899 875.081 230.606 872.374 235.736C869.667 240.865 867.53 245.71 865.535 251.266C853.281 249.574 826.453 251.97 815.239 251.266C805.977 247.989 815.239 240.176 815.239 240.176L845.73 233.883C842.738 226.807 833.048 227.899 833.048 227.899Z" fill="#181818" fill-opacity="0.2"/>
<path d="M852.274 231.908C852.323 231.518 852.152 231.078 851.566 230.615C848.857 228.418 842.316 224.366 841.242 221.852C840.436 219.973 836.116 219.973 833.724 221.242C832.601 221.828 832.382 223.78 832.504 225.562C832.65 227.856 832.479 228.345 834.163 229.37C841.193 233.665 842.169 234.251 843.438 234.886C847.075 236.692 853.299 236.228 852.274 231.908Z" fill="#FBBD9E"/>
<path d="M816.562 230.614C816.318 230.346 815.244 230.199 814.927 230.077C813.511 229.54 811.095 230.321 809.581 230.37C808.532 230.395 807.385 247.822 809.923 249.701C812.388 251.507 818.051 251.922 819.32 248.627C819.808 247.334 817.05 234.812 816.562 230.59V230.614Z" fill="#FBBD9E"/>
<path d="M840.311 150.775C838.407 149.75 822.2 151.849 818.881 151.947C817.807 151.971 814.682 152.02 813.535 153.387C811.802 155.462 809.191 164.639 809.337 172.962C809.386 176.477 809.484 180.578 810.021 190.365C810.021 190.878 810.021 191.39 810.021 191.903C809.996 195.54 809.606 199.128 808.654 202.618C808.019 205.035 807.238 208.842 807.238 213.114C807.238 216.824 807.946 231.639 807.946 231.639C808.263 235.618 817.758 235.081 817.831 231.639C817.831 231.639 820.296 212.723 821.346 207.646C821.907 204.986 822.444 202.569 822.688 201.642C823.421 198.957 827.765 176.184 827.765 176.184L830.621 189.389C830.938 191.171 831.036 192.977 830.865 194.783C830.865 194.978 830.816 195.198 830.816 195.418C830.401 199.689 830.572 203.985 831.207 208.232C831.402 209.477 831.524 210.795 831.573 212.455C831.622 214.578 832.012 220.704 832.061 221.778C832.11 225.366 842.41 225.098 842.41 221.974C842.532 213.626 842.703 207.085 842.849 202.276C842.971 199.006 843.313 191.366 843.484 189.462C844.851 174.28 842.703 152.069 840.311 150.8V150.775Z" fill="#3B00B9"/>
<path d="M862.45 159.856C862.45 159.856 860.79 158.343 860.009 156.854C859.228 155.365 866.258 156.854 865.696 154.755C865.233 153.046 859.009 154.193 857.276 153.095C856.519 152.607 849.294 133.568 849.197 133.031C848.684 130.127 847.561 122.487 847.561 122.487C847.561 122.487 846.585 120.437 845.535 121.194C842.582 123.341 839.604 125.343 836.236 126.392C838.14 131.176 840.019 135.57 841.02 137.889C841.581 139.158 851.271 154.608 851.662 156.048C851.93 157.049 852.662 159.612 853.029 160.564C853.614 162.223 856.006 163.834 857.764 164.2C859.253 164.518 863.475 162.443 865.696 160.832L862.45 159.88V159.856Z" fill="#FBBD9E"/>
<path d="M835.309 130.639C836.505 134.056 850.027 129.858 850.345 126.929C849.93 120.949 843.095 98.884 835.309 101.032C835.309 101.032 825.107 102.008 835.309 130.663V130.639Z" fill="white"/>
<path d="M810.511 115.409C805.312 121.877 811.634 131.713 813.269 137.351C815.051 143.527 813.44 148.067 812.586 155.047C811.414 164.737 842.95 165.274 841.949 155.047C841.949 154.998 841.949 154.95 841.949 154.901C840.948 144.698 841.192 134.374 842.754 124.244C843.047 122.292 843.389 120.193 843.731 117.971C843.901 116.946 843.95 115.872 843.901 114.823C843.828 113.358 843.779 112.284 843.462 111.015C842.998 109.111 839.654 104.596 837.824 103.913C831.624 101.643 812.562 112.846 810.536 115.384L810.511 115.409Z" fill="white"/>
<path d="M835.016 118.289C834.479 119.241 833.503 119.9 832.453 120.168C830.427 120.656 828.304 120.485 826.571 119.436C824.154 117.971 822.128 115.165 822.495 111.381C822.543 110.991 822.714 110.6 823.007 110.307C824.325 108.989 825.863 106.744 826.79 102.228C827.083 100.813 828.719 100.202 829.841 101.105C833.673 104.108 836.651 109.966 836.627 112.504C836.627 113.529 836.139 116.385 835.065 118.289H835.016Z" fill="#F2A883"/>
<path d="M870.921 158.782L870.555 157.757L849.71 161.564L850.076 162.59C850.076 162.59 850.271 162.809 850.516 162.834L863.208 164.127C863.769 164.176 864.648 163.908 865.185 163.517L870.579 159.392C870.872 159.172 870.994 158.953 870.921 158.806V158.782Z" fill="#CFCEDD"/>
<path d="M870.213 158.342L864.819 162.467C864.306 162.858 863.428 163.151 862.842 163.077L850.15 161.784C849.588 161.735 849.54 161.344 850.052 160.954L855.446 156.829C855.959 156.438 856.838 156.146 857.423 156.219L870.116 157.512C870.677 157.561 870.726 157.952 870.213 158.342Z" fill="#3B00B9"/>
<path d="M858.714 163.639C857.909 163.541 857.201 163.126 856.737 162.443C856.469 162.052 856.2 161.637 855.98 161.32C856.566 161.564 857.64 161.588 858.299 161.564C859.154 161.54 860.764 160.441 859.422 159.953C858.202 159.489 855.444 158.708 853.613 157.854C853.222 157.683 852.466 157.366 852.051 157.293C851.636 157.195 851.172 157.171 850.66 157.268C849.781 157.415 849.049 157.586 848.316 157.537C842.727 154.779 830.987 147.31 828.009 145.552C827.545 145.284 827.228 144.82 827.13 144.283C826.618 141.379 826.252 138.328 825.837 135.301C825.641 134.007 824.152 133.373 823.078 134.129C820.125 136.277 817.147 138.279 813.779 139.328C815.683 144.112 817.562 148.506 818.563 150.824C819.124 152.094 820.028 153.168 821.224 153.851C826.081 156.658 839.163 160.27 845.29 162.394C847.462 163.297 850.733 167.153 852.539 167.178C854.955 167.178 860.642 166.226 862.278 164.029L858.69 163.663L858.714 163.639Z" fill="#FBBD9E"/>
<path d="M812.877 143.6C814.073 147.017 827.595 142.819 827.913 139.89C827.498 133.91 820.663 111.845 812.877 113.993C812.877 113.993 802.675 114.969 812.877 143.624V143.6Z" fill="white"/>
<path d="M840.972 95.6136C839.117 92.4649 836.627 91.0249 833.015 90.8541C832.039 90.8052 830.428 91.6595 829.5 92.0012C826.059 93.246 825.424 98.9331 825.278 102.155C825.107 106.231 825.278 110.649 827.914 113.822C833.039 119.948 838.897 120.705 839.581 116.8C839.63 116.458 839.678 116.019 839.996 115.872C840.118 115.823 840.24 115.799 840.362 115.775C840.923 115.604 841.094 114.872 841.094 114.286C841.094 113.749 841.07 113.236 840.972 112.724C840.899 112.333 840.825 111.918 840.874 111.503C840.996 110.6 841.729 109.941 842.192 109.184C843.34 107.378 843.193 104.498 843.022 102.448C842.827 100.056 842.168 97.6639 840.948 95.5892L840.972 95.6136Z" fill="#FBBD9E"/>
<path d="M841.704 93.6611C838.067 89.6338 832.868 89.2677 829.329 91.4156C820.249 93.5635 820.347 104.059 825.79 110.869C825.229 109.062 827.621 108.086 827.962 108.648C828.939 110.307 829.158 111.601 830.135 111.674C830.916 111.723 830.403 110.234 832.673 109.258C833.064 109.087 839.751 109.063 842.802 106.475C843.047 106.28 843.217 106.012 843.315 105.719C843.852 104.254 846.195 98.5671 841.729 93.6611H841.704Z" fill="#3B00B9"/>
<path d="M827.253 107.622C825.716 105.865 823.006 108.11 827.327 112.992C827.766 113.48 828.327 113.968 828.913 113.627C830.158 112.87 828.157 108.647 827.253 107.622Z" fill="#FBBD9E"/>
<path d="M656.239 574.866L645.841 568.862L635.468 574.866L645.841 580.846L656.239 574.866Z" fill="#51BBE8"/>
<path d="M645.841 592.245L635.467 586.265V574.866L645.841 580.846V592.245Z" fill="#1F89B8"/>
<path d="M656.239 586.265L645.841 592.245V580.846L656.239 574.866V586.265Z" fill="#29ABE2"/>
<path d="M1052.01 350.597L1041.62 344.593L1031.24 350.597L1041.62 356.577L1052.01 350.597Z" fill="#51BBE8"/>
<path d="M1041.62 367.976L1031.24 361.996V350.597L1041.62 356.577V367.976Z" fill="#1F89B8"/>
<path d="M1052.01 361.996L1041.62 367.976V356.577L1052.01 350.597V361.996Z" fill="#29ABE2"/>
<g clip-path="url(#clip0_6326_99024)">
<path d="M1128.19 343.735L1081.58 316.774V364.177L1128.19 391.119V343.735Z" fill="white"/>
<path d="M1104.09 368.273L1109.46 366.85C1114.6 365.485 1120.72 362.466 1120.72 355.85C1120.72 351.216 1116.99 345.293 1112.38 342.62C1108.14 340.158 1104.64 342.793 1104.11 346.601C1103.57 342.178 1100.08 335.466 1095.83 333.005C1091.23 330.332 1087.5 331.909 1087.5 336.543C1087.5 343.178 1093.6 353.274 1098.72 360.6L1104.09 368.273V368.273Z" fill="#DA3979"/>
<path d="M1128.19 343.735L1135.43 339.504V386.907L1128.19 391.119V343.735Z" fill="#CEE4EA"/>
<path d="M1135.43 339.505L1088.86 312.563L1081.58 316.774L1128.19 343.735L1135.43 339.505Z" fill="#DFEEF2"/>
<path d="M1128.19 361.696L1142.16 379.734L1128.19 378.6V361.696Z" fill="white"/>
<path d="M1135.43 357.504L1149.42 375.523L1135.43 374.388V357.504Z" fill="#F4F8F9"/>
<path d="M1128.19 361.735L1135.43 357.504L1149.42 375.523L1142.16 379.734L1128.19 361.735Z" fill="#DFEEF2"/>
</g>
<defs>
<filter id="filter0_f_6326_99024" x="505.495" y="425.06" width="127.634" height="102.592" filterUnits="userSpaceOnUse" color-interpolation-filters="sRGB">
<feFlood flood-opacity="0" result="BackgroundImageFix"/>
<feBlend mode="normal" in="SourceGraphic" in2="BackgroundImageFix" result="shape"/>
<feGaussianBlur stdDeviation="17.098" result="effect1_foregroundBlur_6326_99024"/>
</filter>
<filter id="filter1_f_6326_99024" x="539.018" y="305.689" width="63.0696" height="52.9246" filterUnits="userSpaceOnUse" color-interpolation-filters="sRGB">
<feFlood flood-opacity="0" result="BackgroundImageFix"/>
<feBlend mode="normal" in="SourceGraphic" in2="BackgroundImageFix" result="shape"/>
<feGaussianBlur stdDeviation="9.76717" result="effect1_foregroundBlur_6326_99024"/>
</filter>
<filter id="filter2_f_6326_99024" x="991.078" y="189.107" width="127.634" height="102.592" filterUnits="userSpaceOnUse" color-interpolation-filters="sRGB">
<feFlood flood-opacity="0" result="BackgroundImageFix"/>
<feBlend mode="normal" in="SourceGraphic" in2="BackgroundImageFix" result="shape"/>
<feGaussianBlur stdDeviation="17.098" result="effect1_foregroundBlur_6326_99024"/>
</filter>
<filter id="filter3_f_6326_99024" x="1024.6" y="69.7367" width="63.0696" height="52.9246" filterUnits="userSpaceOnUse" color-interpolation-filters="sRGB">
<feFlood flood-opacity="0" result="BackgroundImageFix"/>
<feBlend mode="normal" in="SourceGraphic" in2="BackgroundImageFix" result="shape"/>
<feGaussianBlur stdDeviation="9.76717" result="effect1_foregroundBlur_6326_99024"/>
</filter>
<linearGradient id="paint0_linear_6326_99024" x1="775.472" y1="332.142" x2="1338.87" y2="346.438" gradientUnits="userSpaceOnUse">
<stop offset="0.21" stop-color="#F15A24"/>
<stop offset="0.6841" stop-color="#FBB03B"/>
</linearGradient>
<linearGradient id="paint1_linear_6326_99024" x1="822.51" y1="657.984" x2="259.114" y2="643.69" gradientUnits="userSpaceOnUse">
<stop offset="0.21" stop-color="#ED1E79"/>
<stop offset="0.8929" stop-color="#522785"/>
</linearGradient>
<linearGradient id="paint2_linear_6326_99024" x1="875.651" y1="968.1" x2="302.677" y2="1037.18" gradientUnits="userSpaceOnUse">
<stop offset="0.21" stop-color="#ED1E79"/>
<stop offset="0.8929" stop-color="#522785"/>
</linearGradient>
<linearGradient id="paint3_linear_6326_99024" x1="775.471" y1="266.6" x2="1338.87" y2="280.896" gradientUnits="userSpaceOnUse">
<stop offset="0.21" stop-color="#F15A24"/>
<stop offset="0.6841" stop-color="#FBB03B"/>
</linearGradient>
<linearGradient id="paint4_linear_6326_99024" x1="822.51" y1="592.442" x2="259.113" y2="578.148" gradientUnits="userSpaceOnUse">
<stop offset="0.21" stop-color="#ED1E79"/>
<stop offset="0.8929" stop-color="#522785"/>
</linearGradient>
<linearGradient id="paint5_linear_6326_99024" x1="765.801" y1="464.553" x2="821.493" y2="368.1" gradientUnits="userSpaceOnUse">
<stop offset="0.30863" stop-color="#BDC8D2"/>
<stop offset="1" stop-color="#E5EDF4"/>
</linearGradient>
<linearGradient id="paint6_linear_6326_99024" x1="284.962" y1="658.929" x2="328.867" y2="582.888" gradientUnits="userSpaceOnUse">
<stop offset="0.30863" stop-color="#BDC8D2"/>
<stop offset="1" stop-color="#E5EDF4"/>
</linearGradient>
<linearGradient id="paint7_linear_6326_99024" x1="1170.99" y1="443.515" x2="1208.68" y2="443.515" gradientUnits="userSpaceOnUse">
<stop stop-color="#EBE6E2"/>
<stop offset="1" stop-color="#FCF7F1"/>
</linearGradient>
<linearGradient id="paint8_linear_6326_99024" x1="1192.1" y1="433.703" x2="1214.8" y2="433.703" gradientUnits="userSpaceOnUse">
<stop stop-color="#EBE6E2"/>
<stop offset="1" stop-color="#FCF7F1"/>
</linearGradient>
<clipPath id="clip0_6326_99024">
<rect width="67.8437" height="78.5559" fill="white" transform="translate(1081.58 312.563)"/>
</clipPath>
</defs>
</svg>
