<svg width="65" height="106" viewBox="0 0 65 106" fill="none" xmlns="http://www.w3.org/2000/svg">
<path d="M47.0642 40.2185L47.9479 40.2663L47.9983 39.3335H47.0642V40.2185ZM46.9984 41.1645L47.8802 41.2395L47.8809 41.2307L46.9984 41.1645ZM1.82604 41.1645L0.944768 41.2457L0.944871 41.2468L1.82604 41.1645ZM1.85071 35.217L2.73264 35.1434L2.73164 35.1313L2.7303 35.1193L1.85071 35.217ZM44.9014 39.363L45.2973 38.5715L45.2932 38.5695L44.9014 39.363ZM46.6448 40.1362L46.3179 40.9587L46.3259 40.9619L46.3339 40.9649L46.6448 40.1362ZM32.936 24.671L33.7738 24.3858L33.7736 24.3852L32.936 24.671ZM46.9737 94.1003L47.8549 94.1824L47.855 94.1814L46.9737 94.1003ZM1.80137 94.1003L0.91953 94.175L0.919548 94.1752L1.80137 94.1003ZM1.84248 88.3008L2.72215 88.2038L2.71947 88.1795L2.71545 88.1553L1.84248 88.3008ZM46.949 88.1527L46.0761 88.0073L46.07 88.0436L46.067 88.0803L46.949 88.1527ZM47.13 40.2267V39.3417H46.245V40.2267H47.13ZM35.071 51.4555C35.071 50.9668 34.6748 50.5705 34.186 50.5705C33.6972 50.5705 33.301 50.9668 33.301 51.4555H35.071ZM33.301 74.2093C33.301 74.698 33.6972 75.0943 34.186 75.0943C34.6748 75.0943 35.071 74.698 35.071 74.2093H33.301ZM35.071 81.7938C35.071 81.3051 34.6748 80.9088 34.186 80.9088C33.6972 80.9088 33.301 81.3051 33.301 81.7938H35.071ZM33.301 96.9548C33.301 97.4435 33.6972 97.8398 34.186 97.8398C34.6748 97.8398 35.071 97.4435 35.071 96.9548H33.301ZM25.765 38.6884L26.2005 37.918L26.1773 37.9049L26.1535 37.8932L25.765 38.6884ZM12.7059 29.1871L13.0262 30.0122L13.0282 30.0114L12.7059 29.1871ZM30.6005 8.96709L29.7157 8.94628L29.7156 8.95076L30.6005 8.96709ZM31.8587 7.65913L31.8117 6.77536L31.8061 6.77569L31.8587 7.65913ZM45.6579 1.60463L46.2767 2.23739L46.2775 2.23661L45.6579 1.60463ZM48.602 1.60463L47.9825 2.23661L47.9844 2.23854L48.602 1.60463ZM62.4012 7.65913L62.4532 6.77564L62.4483 6.77538L62.4012 7.65913ZM63.6594 8.96709L62.7745 8.9775L62.7746 8.98378L63.6594 8.96709ZM47.6152 40.1362L47.936 40.961L47.9371 40.9606L47.6152 40.1362ZM49.592 16.4118C49.592 16.9006 49.9882 17.2968 50.477 17.2968C50.9658 17.2968 51.362 16.9006 51.362 16.4118H49.592ZM42.898 16.4118C42.898 16.9006 43.2942 17.2968 43.783 17.2968C44.2717 17.2968 44.668 16.9006 44.668 16.4118H42.898ZM46.2532 25.7979C46.2532 26.2867 46.6494 26.6829 47.1382 26.6829C47.627 26.6829 48.0232 26.2867 48.0232 25.7979H46.2532ZM46.1805 40.1708C46.1647 40.4634 46.1409 40.7638 46.1159 41.0984L47.8809 41.2307C47.9052 40.9072 47.9308 40.5824 47.9479 40.2663L46.1805 40.1708ZM46.1166 41.0896C45.9012 43.6227 43.723 46.1434 39.8003 48.0688C35.9213 49.9727 30.5401 51.1793 24.4081 51.1793V52.9493C30.7513 52.9493 36.4104 51.7044 40.5802 49.6577C44.7064 47.6324 47.5857 44.7033 47.8802 41.2395L46.1166 41.0896ZM24.4081 51.1793C18.2765 51.1793 12.91 49.9708 9.03931 48.0661C5.12665 46.1407 2.94399 43.6181 2.7072 41.0822L0.944871 41.2468C1.26729 44.6997 4.13805 47.6269 8.25781 49.6542C12.4195 51.7022 18.0645 52.9493 24.4081 52.9493V51.1793ZM2.70731 41.0833C2.48916 38.7153 2.50959 36.8322 2.72645 35.3446L0.974966 35.0893C0.731305 36.7606 0.718844 38.7932 0.944769 41.2457L2.70731 41.0833ZM0.968772 35.2905C1.25252 38.6918 4.24098 41.5022 8.38071 43.4243C12.5793 45.3737 18.2293 46.5493 24.4081 46.5493V44.7793C18.4323 44.7793 13.0463 43.6391 9.12611 41.8189C5.14707 39.9714 2.93409 37.5581 2.73264 35.1434L0.968772 35.2905ZM24.4081 46.5493C29.0236 46.5493 33.3387 45.8946 36.9732 44.7556C40.5946 43.6206 43.6022 41.985 45.5384 39.9773L44.2643 38.7486C42.6068 40.4674 39.9031 41.9825 36.4439 43.0666C32.998 44.1465 28.8632 44.7793 24.4081 44.7793V46.5493ZM44.5055 40.1545C45.0922 40.448 45.6999 40.7131 46.3179 40.9587L46.9716 39.3138C46.389 39.0823 45.8289 38.8374 45.2973 38.5715L44.5055 40.1545ZM46.3339 40.9649C46.5402 41.0422 46.7947 41.1035 47.0642 41.1035V39.3335C47.0541 39.3335 47.0125 39.329 46.9556 39.3076L46.3339 40.9649ZM2.7303 35.1193C2.71753 35.0043 2.71104 34.8889 2.71104 34.7645H0.941038C0.941038 34.9528 0.95099 35.1335 0.971118 35.3147L2.7303 35.1193ZM2.71104 34.7645C2.71104 32.2904 4.82106 29.7905 8.82672 27.8566C12.7697 25.9529 18.2782 24.7498 24.4081 24.7498V22.9798C18.071 22.9798 12.2884 24.2198 8.05716 26.2627C3.88855 28.2753 0.941038 31.2253 0.941038 34.7645H2.71104ZM24.4081 24.7498C27.3707 24.7498 30.1916 25.0325 32.765 25.5393L33.107 23.8026C30.4173 23.2729 27.4817 22.9798 24.4081 22.9798V24.7498ZM32.0982 24.9561C34.0994 30.8353 37.7781 36.8327 44.5095 40.1565L45.2932 38.5695C39.13 35.5262 35.6871 30.0068 33.7738 24.3858L32.0982 24.9561ZM46.0925 94.0181C45.8557 96.5578 43.6712 99.0804 39.7576 101.005C35.8859 102.909 30.5193 104.115 24.3917 104.115V105.885C30.731 105.885 36.3759 104.64 40.5386 102.593C44.6595 100.567 47.5325 97.6396 47.8549 94.1824L46.0925 94.0181ZM24.3917 104.115C18.2638 104.115 12.8826 102.909 9.00245 101.004C5.07845 99.0789 2.89853 96.5582 2.68319 94.0253L0.919548 94.1752C1.21407 97.6393 4.09579 100.568 8.22272 102.593C12.3935 104.64 18.0525 105.885 24.3917 105.885V104.115ZM2.6832 94.0255C2.48948 91.7405 2.51688 89.9006 2.71932 88.4207L0.965651 88.1808C0.740464 89.8269 0.718516 91.804 0.91953 94.175L2.6832 94.0255ZM0.962817 88.3978C1.33239 91.749 4.33166 94.5144 8.46164 96.4081C12.6493 98.3282 18.2587 99.485 24.3917 99.485V97.715C18.4605 97.715 13.112 96.5931 9.19937 94.7991C5.22909 92.9787 2.9858 90.5944 2.72215 88.2038L0.962817 88.3978ZM24.3917 99.485C30.5262 99.485 36.1777 98.3071 40.3874 96.3573C44.5353 94.4362 47.5517 91.6263 47.8311 88.2251L46.067 88.0803C45.8694 90.4868 43.6392 92.9006 39.6436 94.7512C35.7099 96.5731 30.3212 97.715 24.3917 97.715V99.485ZM46.0733 88.2804C46.2902 89.7679 46.3106 91.651 46.0924 94.0191L47.855 94.1814C48.0809 91.729 48.0685 89.6964 47.8248 88.025L46.0733 88.2804ZM46.0887 87.7085C46.0887 87.8682 46.0868 87.9432 46.0761 88.0073L47.822 88.2981C47.8607 88.0661 47.8587 87.8449 47.8587 87.7085H46.0887ZM46.067 88.0803C45.8691 90.4896 43.6575 92.9027 39.6766 94.7516C35.7553 96.5729 30.3672 97.715 24.3917 97.715V99.485C30.5706 99.485 36.2227 98.3074 40.4222 96.3569C44.5622 94.4341 47.552 91.6235 47.8311 88.2251L46.067 88.0803ZM24.3917 97.715C18.4145 97.715 13.0665 96.5929 9.1663 94.7995C5.21072 92.9807 2.9861 90.5972 2.72215 88.2038L0.962817 88.3978C1.33208 91.7462 4.30479 94.5123 8.42687 96.4077C12.6043 98.3285 18.2143 99.485 24.3917 99.485V97.715ZM2.71545 88.1553C2.69401 88.0266 2.68637 87.8839 2.68637 87.7085H0.916367C0.916367 87.9279 0.925171 88.1801 0.969518 88.4462L2.71545 88.1553ZM2.68637 87.7085C2.68637 85.2301 4.79661 82.7303 8.80284 80.7976C12.7468 78.8949 18.2573 77.6937 24.3917 77.6937V75.9237C18.0508 75.9237 12.2661 77.1616 8.03376 79.2034C3.86365 81.2152 0.916367 84.1652 0.916367 87.7085H2.68637ZM24.3917 77.6937C30.526 77.6937 36.0344 78.8949 39.9762 80.7975C43.9801 82.7301 46.0887 85.2298 46.0887 87.7085H47.8587C47.8587 84.1656 44.914 81.2154 40.7456 79.2035C36.5152 77.1616 30.7326 75.9237 24.3917 75.9237V77.6937ZM48.015 90.3985V40.2267H46.245V90.3985H48.015ZM33.301 51.4555V74.2093H35.071V51.4555H33.301ZM33.301 81.7938V96.9548H35.071V81.7938H33.301ZM0.92459 38.0715V90.3985H2.69459V38.0715H0.92459ZM27.5906 32.9054C27.8701 33.7451 27.8699 33.7452 27.8696 33.7453C27.8696 33.7453 27.8694 33.7454 27.8692 33.7454C27.869 33.7455 27.8689 33.7455 27.8688 33.7456C27.8686 33.7456 27.8686 33.7456 27.869 33.7455C27.8696 33.7453 27.8713 33.7447 27.8741 33.7438C27.8795 33.7421 27.889 33.7391 27.9025 33.7349C27.9295 33.7266 27.9722 33.7137 28.0296 33.6973C28.1446 33.6646 28.3182 33.6181 28.5423 33.5666C28.991 33.4636 29.6385 33.3412 30.4196 33.2683C31.9881 33.122 34.056 33.1787 36.1284 33.9561L36.7501 32.2989C34.3489 31.3982 31.9925 31.3439 30.2551 31.506C29.3832 31.5873 28.6574 31.7241 28.146 31.8416C27.89 31.9004 27.6869 31.9546 27.5451 31.9949C27.4742 32.0151 27.4185 32.0318 27.3792 32.044C27.3596 32.0501 27.344 32.055 27.3326 32.0587C27.3269 32.0605 27.3223 32.062 27.3187 32.0632C27.3169 32.0638 27.3154 32.0643 27.3141 32.0647C27.3135 32.0649 27.3129 32.0651 27.3124 32.0653C27.3122 32.0653 27.3119 32.0654 27.3118 32.0655C27.3115 32.0656 27.3112 32.0657 27.5906 32.9054ZM36.1284 33.9561C37.151 34.3397 37.6812 34.7695 37.9367 35.1279C38.173 35.4593 38.2156 35.7843 38.1371 36.1197C37.9584 36.8833 37.1147 37.7484 36.1016 38.1665L36.7769 39.8026C38.1158 39.2501 39.5089 38.0257 39.8606 36.523C40.0473 35.7252 39.9286 34.8728 39.378 34.1004C38.8465 33.3549 37.9643 32.7544 36.7501 32.2989L36.1284 33.9561ZM36.1016 38.1665C33.8529 39.0946 29.8987 40.0083 26.2005 37.918L25.3295 39.4589C29.7234 41.9424 34.3217 40.8159 36.7769 39.8026L36.1016 38.1665ZM25.765 38.6884C26.1535 37.8932 26.1538 37.8934 26.1541 37.8935C26.1542 37.8936 26.1544 37.8937 26.1546 37.8938C26.155 37.894 26.1553 37.8941 26.1556 37.8943C26.1562 37.8946 26.1567 37.8949 26.1572 37.8951C26.158 37.8955 26.1584 37.8957 26.1585 37.8957C26.1586 37.8958 26.1571 37.895 26.1543 37.8936C26.1486 37.8906 26.1374 37.8846 26.1214 37.8757C26.0893 37.8578 26.0393 37.8285 25.9779 37.7882C25.8529 37.7063 25.6928 37.5868 25.5434 37.435C25.2388 37.1258 25.0596 36.7763 25.1259 36.3595L23.3778 36.0817C23.1891 37.269 23.7665 38.1534 24.2823 38.677C24.543 38.9417 24.809 39.1384 25.0076 39.2686C25.1079 39.3344 25.194 39.3851 25.2577 39.4207C25.2895 39.4385 25.316 39.4526 25.3361 39.4631C25.3462 39.4684 25.3546 39.4727 25.3614 39.4761C25.3648 39.4778 25.3678 39.4793 25.3703 39.4805C25.3716 39.4812 25.3727 39.4817 25.3737 39.4823C25.3743 39.4825 25.3748 39.4827 25.3752 39.483C25.3755 39.4831 25.3758 39.4833 25.3759 39.4833C25.3762 39.4835 25.3765 39.4836 25.765 38.6884ZM25.1259 36.3595C25.2305 35.7011 25.6071 34.2451 25.6493 32.9286C25.6928 31.5743 25.4165 29.9401 23.9344 28.9592L22.9575 30.4352C23.6629 30.9021 23.917 31.7275 23.8803 32.8719C23.8423 34.0541 23.5281 35.1359 23.3778 36.0817L25.1259 36.3595ZM23.9344 28.9592C21.4772 27.3329 16.7617 26.6511 12.3836 28.3629L13.0282 30.0114C16.9395 28.4821 21.0397 29.1658 22.9575 30.4352L23.9344 28.9592ZM12.3856 28.3621C10.1801 29.2184 8.8265 30.6251 8.90553 32.3334C8.98172 33.9802 10.3792 35.2957 12.2154 36.0233L12.8674 34.3778C11.2991 33.7563 10.7023 32.8712 10.6736 32.2516C10.6478 31.6937 11.0788 30.7682 13.0262 30.0122L12.3856 28.3621ZM12.2154 36.0233C14.08 36.7622 16.2296 36.8945 17.859 36.8586C18.6837 36.8404 19.3972 36.7784 19.9058 36.7208C20.1605 36.6919 20.3647 36.6641 20.507 36.6432C20.5781 36.6327 20.6338 36.6239 20.6727 36.6177C20.6921 36.6145 20.7073 36.612 20.7181 36.6102C20.7235 36.6092 20.7278 36.6085 20.731 36.608C20.7326 36.6077 20.7339 36.6075 20.7349 36.6073C20.7354 36.6072 20.7359 36.6071 20.7363 36.607C20.7365 36.607 20.7367 36.607 20.7368 36.607C20.737 36.6069 20.7372 36.6069 20.5841 35.7352C20.4311 34.8636 20.4312 34.8635 20.4314 34.8635C20.4314 34.8635 20.4315 34.8635 20.4315 34.8635C20.4316 34.8635 20.4317 34.8635 20.4316 34.8635C20.4315 34.8635 20.4311 34.8635 20.4305 34.8637C20.4292 34.8639 20.4268 34.8643 20.4233 34.8649C20.4164 34.8661 20.4051 34.8679 20.3897 34.8704C20.359 34.8754 20.3117 34.8828 20.2494 34.892C20.1247 34.9103 19.94 34.9356 19.7066 34.962C19.2392 35.0149 18.5803 35.0722 17.82 35.089C16.2792 35.123 14.4074 34.988 12.8674 34.3778L12.2154 36.0233ZM33.7736 24.3852C31.5929 17.9939 31.4368 11.6127 31.4853 8.98343L29.7156 8.95076C29.6655 11.6685 29.8219 18.2848 32.0984 24.9567L33.7736 24.3852ZM31.4852 8.98791C31.4909 8.74882 31.6801 8.55633 31.9113 8.54256L31.8061 6.77569C30.6557 6.84419 29.743 7.78691 29.7157 8.94628L31.4852 8.98791ZM31.9057 8.54288C39.1533 8.15725 43.9917 4.47169 46.2767 2.23739L45.0392 0.971865C42.9327 3.03165 38.4785 6.42064 31.8117 6.77538L31.9057 8.54288ZM46.2775 2.23661C46.7557 1.7678 47.5042 1.7678 47.9825 2.23661L49.2215 0.972647C48.055 -0.170882 46.2049 -0.170882 45.0384 0.972647L46.2775 2.23661ZM47.9844 2.23854C50.2762 4.47114 55.1061 8.15722 62.3542 8.54288L62.4483 6.77538C55.782 6.42067 51.3357 3.0322 49.2196 0.97071L47.9844 2.23854ZM62.3492 8.5426C62.5934 8.55696 62.7719 8.75164 62.7745 8.9775L64.5444 8.95669C64.5306 7.78409 63.6071 6.84355 62.4532 6.77565L62.3492 8.5426ZM62.7746 8.98378C62.8231 11.5556 62.6775 17.7256 60.6309 23.9739C58.5858 30.2178 54.6853 36.4249 47.2932 39.3119L47.9371 40.9606C56.0054 37.8095 60.1764 31.048 62.313 24.5248C64.4482 18.006 64.5945 11.6104 64.5443 8.95041L62.7746 8.98378ZM47.2943 39.3115C47.2461 39.3302 47.1903 39.3417 47.13 39.3417V41.1117C47.415 41.1117 47.6882 41.0575 47.936 40.961L47.2943 39.3115ZM42.8126 17.2968H51.4556V15.5268H42.8126V17.2968ZM51.4556 17.2968C52.7515 17.2968 53.8025 18.3478 53.8025 19.6447H55.5725C55.5725 17.3707 53.7295 15.5268 51.4556 15.5268V17.2968ZM53.8025 19.6447V25.7897H55.5725V19.6447H53.8025ZM53.8025 25.7897C53.8025 27.0867 52.7515 28.1376 51.4556 28.1376V29.9076C53.7295 29.9076 55.5725 28.0637 55.5725 25.7897H53.8025ZM51.4556 28.1376H42.8126V29.9076H51.4556V28.1376ZM42.8126 28.1376C41.5167 28.1376 40.4657 27.0867 40.4657 25.7897H38.6957C38.6957 28.0637 40.5386 29.9076 42.8126 29.9076V28.1376ZM40.4657 25.7897V19.6447H38.6957V25.7897H40.4657ZM40.4657 19.6447C40.4657 18.3478 41.5167 17.2968 42.8126 17.2968V15.5268C40.5386 15.5268 38.6957 17.3707 38.6957 19.6447H40.4657ZM51.362 16.4118V12.1589H49.592V16.4118H51.362ZM51.362 12.1589C51.362 9.81946 49.4693 7.9258 47.13 7.9258V9.6958C48.4912 9.6958 49.592 10.7965 49.592 12.1589H51.362ZM47.13 7.9258C44.7906 7.9258 42.898 9.81946 42.898 12.1589H44.668C44.668 10.7965 45.7687 9.6958 47.13 9.6958V7.9258ZM42.898 12.1589V16.4118H44.668V12.1589H42.898ZM47.8815 21.7013C47.8815 22.1123 47.5484 22.4451 47.1382 22.4451V24.2151C48.5265 24.2151 49.6515 23.0893 49.6515 21.7013H47.8815ZM47.1382 22.4451C46.728 22.4451 46.3949 22.1123 46.3949 21.7013H44.6249C44.6249 23.0894 45.7499 24.2151 47.1382 24.2151V22.4451ZM46.3949 21.7013C46.3949 21.2902 46.728 20.9575 47.1382 20.9575V19.1875C45.7499 19.1875 44.6249 20.3132 44.6249 21.7013H46.3949ZM47.1382 20.9575C47.5484 20.9575 47.8815 21.2902 47.8815 21.7013H49.6515C49.6515 20.3132 48.5265 19.1875 47.1382 19.1875V20.9575ZM46.2532 23.3301V25.7979H48.0232V23.3301H46.2532Z" fill="url(#paint0_linear_6246_98948)"/>
<defs>
<linearGradient id="paint0_linear_6246_98948" x1="1.66675" y1="1" x2="67.0862" y2="9.74136" gradientUnits="userSpaceOnUse">
<stop stop-color="#3B00B9"/>
<stop offset="1" stop-color="#2586B6"/>
</linearGradient>
</defs>
</svg>
