<svg width="120" height="120" viewBox="0 0 120 120" fill="none" xmlns="http://www.w3.org/2000/svg">
<path d="M59.5001 79.094L38.6308 67.6505V48.5951M59.5001 79.094V60.0387M59.5001 79.094L80.3692 67.6505V48.5951L59.5001 60.0387M59.5001 60.0387L38.6308 48.5951M38.6308 48.5951L59.5347 60.0301L80.3258 48.5522L59.4219 37.9507L38.6308 48.5951ZM90.5782 102.995C96.0774 98.2696 98.8183 90.5203 98.8357 81.3277C98.8443 74.7726 97.4825 67.4958 94.7589 60.0301M90.5782 102.995C89.8756 101.99 88.7046 101.328 87.3775 101.328C85.2438 101.328 83.509 103.046 83.509 105.168C83.509 105.735 83.6305 106.277 83.856 106.758M90.5782 102.995C91.0032 103.613 91.2548 104.361 91.2548 105.168C91.2548 107.29 89.52 109 87.3776 109C85.8163 109 84.4632 108.081 83.856 106.758M83.856 106.758C76.7695 109.034 68.1477 107.479 59.5086 102.823M59.5086 102.823C53.8446 99.7816 48.1806 95.4001 42.9243 89.9103C39.2813 86.113 35.8465 81.7745 32.7499 76.9806C29.1416 71.3963 26.3054 65.6659 24.2497 60.0301M59.5086 102.823C65.1639 99.7816 70.828 95.4087 76.0844 89.9103C79.7274 86.113 83.1622 81.7831 86.2587 76.9806C89.867 71.3963 92.7032 65.6745 94.7589 60.0301M59.5086 102.823C50.4098 107.72 41.337 109.198 34.0424 106.363M24.2497 60.0301C21.5174 52.5471 20.1556 45.236 20.1729 38.6723C20.2076 29.8921 22.723 22.4349 27.7625 17.6668M24.2497 60.0301C21.5261 67.4872 20.173 74.7726 20.173 81.3277C20.1903 90.1251 22.6971 97.5909 27.7279 102.359M24.2497 60.0301C26.3054 54.3942 29.1417 48.6639 32.75 43.0882C35.8725 38.2514 39.3334 33.8956 43.0025 30.0725C48.2328 24.6171 53.8793 20.2699 59.5086 17.2458M27.7625 17.6668C28.4477 18.2939 29.3671 18.672 30.3646 18.672C32.4984 18.672 34.2332 16.9537 34.2332 14.8317C34.2332 14.4365 34.1724 14.0499 34.0597 13.6977M27.7625 17.6668C26.9732 16.9709 26.4875 15.9571 26.4875 14.8317C26.4875 12.7182 28.2222 11 30.3647 11C32.0994 11 33.5653 12.1341 34.0597 13.6977M34.0597 13.6977C41.3457 10.8712 50.4184 12.3488 59.5086 17.2458M59.5086 17.2458C65.1379 20.2785 70.7759 24.6257 76.0062 30.0725C79.6752 33.8956 83.1361 38.2514 86.2587 43.0882C89.867 48.6639 92.7032 54.3942 94.7589 60.0301M59.5086 17.2458C68.139 12.5894 76.7522 11.0258 83.8387 13.3024M94.7589 60.0301C97.4912 52.5471 98.8531 45.236 98.8357 38.6723C98.801 29.4883 96.0601 21.7562 90.5435 17.0396M34.0424 106.363C34.1638 105.985 34.2333 105.581 34.2333 105.168C34.2333 103.046 32.4984 101.328 30.3647 101.328C29.3498 101.328 28.4218 101.715 27.7279 102.359M34.0424 106.363C33.5393 107.9 32.0821 109 30.3647 109C28.2222 109 26.4875 107.29 26.4875 105.168C26.4875 104.06 26.9646 103.055 27.7279 102.359M83.8387 13.3024C83.6218 13.7664 83.5091 14.2904 83.5091 14.8317C83.5091 16.9537 85.2438 18.672 87.3776 18.672C88.6873 18.672 89.8496 18.0276 90.5435 17.0396M83.8387 13.3024C84.4285 11.945 85.7903 11 87.3776 11C89.52 11 91.2548 12.7182 91.2548 14.8317C91.2548 15.6564 90.9946 16.4211 90.5435 17.0396M113 59.9957C113 77.3712 89.0473 91.4567 59.5001 91.4567C29.9528 91.4567 6 77.3712 6 59.9957C6 42.6203 29.9528 28.5347 59.5001 28.5347C89.0473 28.5347 113 42.6203 113 59.9957Z" stroke="#463F93" stroke-width="1.77" stroke-linejoin="round"/>
</svg>
