<svg width="96" height="89" viewBox="0 0 96 89" fill="none" xmlns="http://www.w3.org/2000/svg">
<path d="M49.9438 19.5404L50.8257 19.6143L50.8258 19.6133L49.9438 19.5404ZM2.00176 19.5404L1.12045 19.621L1.12049 19.6215L2.00176 19.5404ZM2.02456 13.1863L2.90617 13.1088L1.14851 13.0608L2.02456 13.1863ZM49.9059 13.3551L50.7827 13.2352L49.0269 13.2518L49.9059 13.3551ZM49.9058 13.3628L50.7849 13.4661L50.7862 13.4529L49.9058 13.3628ZM2.02453 13.194L2.90613 13.1165L2.90597 13.1147L2.02453 13.194ZM48.9794 79.2056L49.7481 79.6443L50.0485 79.1179L49.6663 78.6475L48.9794 79.2056ZM1.97903 76.3125L1.09704 76.3855L1.09712 76.3864L1.97903 76.3125ZM2.01694 70.1273L2.89589 70.024L1.1401 70.0073L2.01694 70.1273ZM46.5801 75.407L47.3786 75.0253L46.8913 74.0061L46.0184 74.7231L46.5801 75.407ZM46.5801 75.4147L47.3786 75.033L47.3784 75.0326L46.5801 75.4147ZM2.01692 70.135L1.13643 70.2251L1.13797 70.2382L2.01692 70.135ZM44.6591 62.154L45.542 62.2143L45.5431 62.1989L45.5436 62.1834L44.6591 62.154ZM44.6591 63.4202L45.544 63.4059L45.5435 63.3781L45.5413 63.3504L44.6591 63.4202ZM44.7426 64.8169H45.6276V64.7732L45.6233 64.7297L44.7426 64.8169ZM37.2222 30.5832C37.2222 30.0945 36.826 29.6982 36.3372 29.6982C35.8484 29.6982 35.4522 30.0945 35.4522 30.5832H37.2222ZM35.4522 54.9788C35.4522 55.4676 35.8484 55.8638 36.3372 55.8638C36.826 55.8638 37.2222 55.4676 37.2222 54.9788H35.4522ZM37.2222 63.1209C37.2222 62.6322 36.826 62.2359 36.3372 62.2359C35.8484 62.2359 35.4522 62.6322 35.4522 63.1209H37.2222ZM35.4522 79.3744C35.4522 79.8632 35.8484 80.2594 36.3372 80.2594C36.826 80.2594 37.2222 79.8632 37.2222 79.3744H35.4522ZM27.3851 16.8928L27.8225 16.1235L27.8005 16.111L27.7778 16.0997L27.3851 16.8928ZM24.9326 7.2543L25.4265 6.51998L25.4254 6.51923L24.9326 7.2543ZM13.5279 6.70177L13.2049 5.87784L13.2036 5.87833L13.5279 6.70177ZM48.9794 79.2133L49.6697 78.6594L49.6663 78.6552L48.9794 79.2133ZM48.0607 73.9796L48.7911 73.4798L48.791 73.4797L48.0607 73.9796ZM49.9209 76.2972L50.5678 75.6932L50.5668 75.6921L49.9209 76.2972ZM82.3126 64.8169L81.4324 64.7247L81.4276 64.7707V64.8169H82.3126ZM61.1282 43.5523L61.83 43.0131L61.8283 43.0109L61.1282 43.5523ZM66.5313 57.3035C66.6878 57.7665 67.19 58.015 67.653 57.8585C68.1161 57.702 68.3646 57.1998 68.2081 56.7367L66.5313 57.3035ZM67.3697 65.9373L68.2543 65.9617V65.9615L67.3697 65.9373ZM60.471 66.9874C60.2457 66.5537 59.7114 66.3847 59.2777 66.61C58.8439 66.8353 58.6749 67.3695 58.9002 67.8033L60.471 66.9874ZM64.5948 52.0934C64.5948 51.6046 64.1986 51.2084 63.7098 51.2084C63.221 51.2084 62.8248 51.6046 62.8248 52.0934H64.5948ZM62.8248 54.8023C62.8248 55.2911 63.221 55.6873 63.7098 55.6873C64.1986 55.6873 64.5948 55.2911 64.5948 54.8023H62.8248ZM64.5948 69.7359C64.5948 69.2471 64.1986 68.8509 63.7098 68.8509C63.221 68.8509 62.8248 69.2471 62.8248 69.7359H64.5948ZM62.8248 72.4448C62.8248 72.9336 63.221 73.3298 63.7098 73.3298C64.1986 73.3298 64.5948 72.9336 64.5948 72.4448H62.8248ZM80.9307 50.3821L81.1586 51.2373L80.9307 49.4971V50.3821ZM57.6962 36.5766L56.84 36.8006L56.8412 36.8049L57.6962 36.5766ZM57.271 34.5814L58.1013 34.275L56.397 34.7205L57.271 34.5814ZM57.8253 35.909L58.6313 35.5434L58.6266 35.5334L57.8253 35.909ZM58.0834 36.4538L58.8766 36.0614L58.8733 36.0546L58.8698 36.0479L58.0834 36.4538ZM59.3286 38.6102L60.0718 38.1295L60.0649 38.1191L59.3286 38.6102ZM59.7235 39.1858L59.0027 39.6993L59.0063 39.7043L59.7235 39.1858ZM60.1639 39.769L60.8746 39.2416L60.8664 39.2305L60.8579 39.2197L60.1639 39.769ZM60.5891 40.2985L61.2719 39.7355L61.267 39.7295L61.2619 39.7236L60.5891 40.2985ZM60.9232 40.6899L61.5859 40.1032L61.5791 40.0955L61.5721 40.088L60.9232 40.6899ZM61.318 41.1196L61.9721 40.5235L61.9599 40.5101L61.9471 40.4972L61.318 41.1196ZM62.1381 41.9561L61.5265 42.5958L61.5329 42.6018L61.5393 42.6078L62.1381 41.9561ZM62.6392 42.4088L63.2234 41.7441L63.2211 41.7421L62.6392 42.4088ZM63.1707 42.8616L63.7385 42.1828L63.7312 42.1766L63.7236 42.1706L63.1707 42.8616ZM63.8541 43.3988L63.3232 44.1068L63.3283 44.1107L63.8541 43.3988ZM65.0538 44.2276L64.5786 44.9742L64.5828 44.9768L65.0538 44.2276ZM66.9748 45.2943L67.3621 44.4984L67.3554 44.4953L66.9748 45.2943ZM67.5898 45.5859L67.2272 46.3932L67.2341 46.3963L67.2411 46.3993L67.5898 45.5859ZM68.3491 45.8928L68.6861 45.0745L68.6703 45.068L68.6544 45.0622L68.3491 45.8928ZM68.9642 46.1231L69.2549 45.2871L69.2467 45.2844L68.9642 46.1231ZM71.1282 46.737L71.3368 45.8769L71.3271 45.8746L71.3173 45.8724L71.1282 46.737ZM71.6976 46.8521L71.8587 45.9819L71.8488 45.98L71.8389 45.9784L71.6976 46.8521ZM73.3377 47.0823L73.4365 46.2027L73.4231 46.2014L73.3377 47.0823ZM73.9527 47.1283L74.0362 46.2473L74.0111 46.2449L73.9858 46.244L73.9527 47.1283ZM74.6817 47.159L74.7015 46.2743L74.6916 46.274H74.6817V47.159ZM79.8905 46.5144L79.6585 45.6604L79.6569 45.6608L79.8905 46.5144ZM93.5502 24.7663L94.3766 24.4495L92.6766 24.9078L93.5502 24.7663ZM94.1576 26.6541L95.0129 26.4268L95.0118 26.4227L94.1576 26.6541ZM80.9231 50.3821L80.6907 49.5282L80.9231 51.2671V50.3821ZM79.898 46.5144V45.6294H79.7791L79.6645 45.6608L79.898 46.5144ZM74.6892 47.159L74.7089 46.2743L74.6991 46.274H74.6892V47.159ZM73.9603 47.1283L74.0161 46.2451L73.9882 46.2433H73.9603V47.1283ZM73.3453 47.0823L73.4441 46.2027L73.4307 46.2014L73.3453 47.0823ZM71.7052 46.8521L71.8662 45.9818L71.8564 45.98L71.8465 45.9784L71.7052 46.8521ZM71.1357 46.737L71.3443 45.8769L71.3346 45.8746L71.3249 45.8724L71.1357 46.737ZM68.9717 46.123L69.2624 45.2871L69.2543 45.2844L68.9717 46.123ZM68.3567 45.8928L68.6936 45.0745L68.6779 45.068L68.6619 45.0621L68.3567 45.8928ZM67.5974 45.5859L67.2347 46.3932L67.2416 46.3963L67.2486 46.3993L67.5974 45.5859ZM66.9824 45.2943L67.3696 44.4984L67.3629 44.4953L66.9824 45.2943ZM65.0613 44.2276L64.5862 44.9742L64.5904 44.9768L65.0613 44.2276ZM63.8617 43.3988L63.3307 44.1068L63.3359 44.1107L63.8617 43.3988ZM63.1783 42.8616L63.7461 42.1828L63.7387 42.1766L63.7312 42.1706L63.1783 42.8616ZM62.6467 42.4088L63.2309 41.7441L63.2287 41.7421L62.6467 42.4088ZM62.1457 41.9561L61.5341 42.5958L61.5404 42.6018L61.5469 42.6078L62.1457 41.9561ZM61.3256 41.1196L61.9797 40.5235L61.9674 40.5101L61.9547 40.4972L61.3256 41.1196ZM60.9307 40.6899L61.5934 40.1032L61.5865 40.0955L61.5795 40.088L60.9307 40.6899ZM60.5967 40.2985L61.2795 39.7355L61.2745 39.7295L61.2695 39.7236L60.5967 40.2985ZM60.1714 39.769L60.8821 39.2416L60.8739 39.2305L60.8653 39.2197L60.1714 39.769ZM59.7311 39.1858L59.0102 39.6993L59.0139 39.7043L59.7311 39.1858ZM59.3362 38.6102L60.0793 38.1295L60.0724 38.1191L59.3362 38.6102ZM58.091 36.4538L58.8842 36.0614L58.8808 36.0546L58.8773 36.0479L58.091 36.4538ZM57.8328 35.909L58.6389 35.5434L58.6342 35.5334L57.8328 35.909ZM57.2785 34.5814L58.1088 34.275L58.107 34.2701L57.2785 34.5814ZM56.6787 32.7089L57.5354 32.4869L57.5338 32.4808L56.6787 32.7089ZM93.1401 22.7865L93.9957 22.5601L93.9953 22.5585L93.1401 22.7865ZM93.5654 24.7663L92.6916 24.9071L92.6917 24.9078L93.5654 24.7663ZM79.9056 46.5144V47.3994H80.0237L80.1376 47.3685L79.9056 46.5144ZM76.3823 21.6194C76.6532 22.0262 77.2026 22.1364 77.6095 21.8655C78.0163 21.5946 78.1265 21.0452 77.8556 20.6384L76.3823 21.6194ZM70.4068 24.5515L71.2619 24.3232L71.2617 24.3226L70.4068 24.5515ZM79.4121 29.7391L78.5507 29.9424L78.5509 29.9431L79.4121 29.7391ZM73.0193 32.5649C72.6897 32.204 72.13 32.1786 71.769 32.5081C71.4081 32.8377 71.3827 33.3975 71.7122 33.7584L73.0193 32.5649ZM73.1678 17.1097C73.0417 16.6374 72.5567 16.3568 72.0845 16.4829C71.6122 16.6089 71.3316 17.0939 71.4576 17.5662L73.1678 17.1097ZM72.1561 20.183C72.2822 20.6552 72.7672 20.9359 73.2394 20.8098C73.7117 20.6838 73.9923 20.1988 73.8663 19.7265L72.1561 20.183ZM77.7082 34.1453C77.5818 33.6732 77.0966 33.3929 76.6244 33.5193C76.1523 33.6457 75.872 34.1309 75.9984 34.603L77.7082 34.1453ZM76.6969 37.2122C76.8233 37.6843 77.3085 37.9646 77.7806 37.8382C78.2528 37.7118 78.5331 37.2266 78.4067 36.7545L76.6969 37.2122ZM49.0619 19.4664C48.831 22.2201 46.4924 24.9366 42.3259 27.0028C38.201 29.0483 32.4832 30.3428 25.9728 30.3428V32.1128C32.697 32.1128 38.6951 30.779 43.1123 28.5885C47.4879 26.4186 50.5174 23.2914 50.8257 19.6143L49.0619 19.4664ZM25.9728 30.3428C19.4626 30.3428 13.7582 29.0484 9.6401 27.003C5.48207 24.9378 3.13724 22.2195 2.88303 19.4592L1.12049 19.6215C1.45853 23.292 4.48196 26.4174 8.85276 28.5883C13.2635 30.7789 19.2485 32.1128 25.9728 32.1128V30.3428ZM2.88308 19.4597C2.65151 16.9305 2.67065 14.917 2.90062 13.3118L1.14851 13.0608C0.892529 14.8475 0.881254 17.0086 1.12045 19.621L2.88308 19.4597ZM1.14296 13.2637C1.45904 16.862 4.6026 19.8556 8.99351 21.9121C13.4404 23.9949 19.4238 25.2523 25.9728 25.2523V23.4823C19.629 23.4823 13.9116 22.261 9.74425 20.3092C5.52092 18.3311 3.13678 15.7342 2.90617 13.1088L1.14296 13.2637ZM25.9728 25.2523C32.5204 25.2523 38.4553 24.0165 42.876 21.9663C47.2448 19.9402 50.3691 16.9966 50.7848 13.4584L49.0269 13.2518C48.7213 15.8528 46.3256 18.4154 42.1313 20.3605C37.9891 22.2816 32.3181 23.4823 25.9728 23.4823V25.2523ZM49.029 13.4751C49.2451 15.0548 49.2637 17.0268 49.0618 19.4674L50.8258 19.6133C51.0339 17.0965 51.0222 14.986 50.7827 13.2352L49.029 13.4751ZM49.0588 12.6875C49.0588 12.8789 49.0462 13.0699 49.0254 13.2727L50.7862 13.4529C50.811 13.2106 50.8287 12.9565 50.8287 12.6875H49.0588ZM49.0269 13.2595C48.7217 15.857 46.3005 18.4204 42.0868 20.3677C37.928 22.2896 32.2563 23.49 25.9728 23.49V25.26C32.4606 25.26 38.3948 24.0238 42.8293 21.9744C47.209 19.9504 50.3686 17.0078 50.7848 13.4661L49.0269 13.2595ZM25.9728 23.49C19.6907 23.49 13.9726 22.2691 9.78869 20.3164C5.54586 18.3362 3.13643 15.7383 2.90613 13.1165L1.14292 13.2714C1.45931 16.8733 4.63832 19.8659 9.04011 21.9203C13.5009 24.0022 19.4835 25.26 25.9728 25.26V23.49ZM2.90597 13.1147C2.89314 12.972 2.88672 12.8297 2.88672 12.6875H1.11672C1.11672 12.883 1.12554 13.0782 1.14308 13.2733L2.90597 13.1147ZM2.88672 12.6875C2.88672 9.98804 5.15748 7.29241 9.40935 5.21902C13.6018 3.17462 19.4563 1.885 25.9728 1.885V0.115C19.2472 0.115 13.1161 1.44221 8.63355 3.6281C4.21043 5.785 1.11672 8.93311 1.11672 12.6875H2.88672ZM25.9728 1.885C32.4893 1.885 38.3438 3.17462 42.5362 5.21902C46.788 7.29241 49.0588 9.98804 49.0588 12.6875H50.8287C50.8287 8.93311 47.7351 5.785 43.312 3.6281C38.8294 1.44221 32.6984 0.115 25.9728 0.115V1.885ZM48.2108 78.7669C46.912 81.0425 44.1579 83.139 40.2539 84.6695C36.3707 86.1919 31.4445 87.115 25.95 87.115V88.885C31.6323 88.885 36.782 87.9318 40.8999 86.3174C44.9969 84.7112 48.1692 82.4105 49.7481 79.6443L48.2108 78.7669ZM25.95 87.115C19.4357 87.115 13.718 85.8205 9.59412 83.775C5.42884 81.7089 3.0918 78.9925 2.86093 76.2386L1.09712 76.3864C1.40535 80.0633 4.43273 83.1906 8.80762 85.3606C13.2239 87.5512 19.2221 88.885 25.95 88.885V87.115ZM2.86101 76.2396C2.65916 73.799 2.67768 71.8269 2.89377 70.2472L1.1401 70.0073C0.90061 71.7581 0.888876 73.8687 1.09704 76.3855L2.86101 76.2396ZM1.13798 70.2306C1.5541 73.7721 4.71151 76.7148 9.09052 78.7389C13.5242 80.7883 19.4584 82.0245 25.95 82.0245V80.2545C19.6626 80.2545 13.9909 79.0541 9.83318 77.1322C5.62073 75.1851 3.2011 72.6217 2.89589 70.024L1.13798 70.2306ZM25.95 82.0245C34.8402 82.0245 42.7484 79.6996 47.1419 76.0909L46.0184 74.7231C42.0596 77.9749 34.6147 80.2545 25.95 80.2545V82.0245ZM45.7817 75.7887C46.4644 77.2168 47.3065 78.55 48.2926 79.7637L49.6663 78.6475C48.7694 77.5436 48.0019 76.3291 47.3786 75.0253L45.7817 75.7887ZM46.0184 74.7308C42.0595 77.9826 34.6147 80.2621 25.95 80.2621V82.0321C34.8402 82.0321 42.7484 79.7073 47.1418 76.0985L46.0184 74.7308ZM25.95 80.2621C19.6626 80.2621 13.9909 79.0618 9.83317 77.1399C5.62072 75.1928 3.20109 72.6293 2.89588 70.0317L1.13797 70.2382C1.55409 73.7798 4.7115 76.7224 9.09051 78.7466C13.5242 80.796 19.4584 82.0321 25.95 82.0321V80.2621ZM2.89733 70.0448C2.87657 69.8421 2.86402 69.651 2.86402 69.4596H1.09402C1.09402 69.7287 1.11172 69.9827 1.13652 70.2251L2.89733 70.0448ZM2.86402 69.4596C2.86402 66.7602 5.13475 64.0646 9.3866 61.9912C13.579 59.9468 19.4335 58.6572 25.95 58.6572V56.8872C19.2244 56.8872 13.0933 58.2144 8.61079 60.4003C4.18769 62.5572 1.09402 65.7053 1.09402 69.4596H2.86402ZM25.95 58.6572C33.4082 58.6572 39.9864 60.3466 44.199 62.91L45.1191 61.398C40.5543 58.6203 33.6322 56.8872 25.95 56.8872V58.6572ZM43.7761 62.0938C43.7585 62.3515 43.7589 62.6043 43.7589 62.8293H45.5289C45.5289 62.5939 45.5292 62.4017 45.542 62.2143L43.7761 62.0938ZM43.7589 62.8293C43.7589 63.0221 43.7584 63.2572 43.7768 63.4901L45.5413 63.3504C45.5294 63.1995 45.5289 63.0356 45.5289 62.8293H43.7589ZM43.7741 63.4202C43.7741 63.9331 43.8156 64.4361 43.8619 64.904L45.6233 64.7297C45.5785 64.2768 45.5441 63.8436 45.5441 63.4202H43.7741ZM43.8576 64.8169V64.8476H45.6276V64.8169H43.8576ZM43.8624 64.7554C43.7904 65.4424 43.7589 66.1411 43.7589 66.8351H45.5289C45.5289 66.1939 45.5581 65.5574 45.6228 64.9398L43.8624 64.7554ZM43.7589 66.8351C43.7589 70.0472 44.4882 73.0936 45.7818 75.7967L47.3784 75.0326C46.1967 72.5634 45.5289 69.7776 45.5289 66.8351H43.7589ZM49.1955 16.2252V49.3385H50.9655V16.2252H49.1955ZM35.4522 30.5832V54.9788H37.2222V30.5832H35.4522ZM35.4522 63.1209V79.3744H37.2222V63.1209H35.4522ZM1.08642 16.2252V72.3374H2.85642V16.2252H1.08642ZM29.3364 10.6922C29.6182 11.5312 29.6179 11.5313 29.6177 11.5314C29.6176 11.5314 29.6174 11.5315 29.6173 11.5315C29.6171 11.5316 29.6169 11.5316 29.6168 11.5317C29.6167 11.5317 29.6168 11.5317 29.6172 11.5315C29.618 11.5313 29.6199 11.5307 29.6228 11.5297C29.6288 11.5278 29.639 11.5245 29.6535 11.52C29.6824 11.5109 29.728 11.497 29.7893 11.4794C29.9119 11.4442 30.0968 11.3943 30.3353 11.339C30.8128 11.2284 31.5015 11.0971 32.3322 11.0189C33.9999 10.8619 36.2008 10.9226 38.4081 11.7579L39.0345 10.1024C36.4963 9.14196 34.0047 9.08368 32.1664 9.25669C31.244 9.3435 30.4764 9.48944 29.9357 9.61475C29.665 9.67747 29.4504 9.73522 29.3008 9.77819C29.226 9.79968 29.1673 9.8175 29.1259 9.83041C29.1052 9.83687 29.0889 9.84211 29.077 9.84597C29.071 9.8479 29.0662 9.84949 29.0625 9.85071C29.0606 9.85132 29.059 9.85185 29.0577 9.85227C29.0571 9.85249 29.0565 9.85268 29.056 9.85285C29.0558 9.85293 29.0554 9.85304 29.0553 9.85308C29.055 9.85318 29.0547 9.85328 29.3364 10.6922ZM38.4081 11.7579C39.4972 12.17 40.0702 12.6354 40.3502 13.0327C40.612 13.4042 40.6608 13.7742 40.5728 14.1537C40.3758 15.0029 39.46 15.9417 38.3814 16.3903L39.0612 18.0246C40.4732 17.4373 41.9302 16.1352 42.297 14.5537C42.4909 13.7179 42.3693 12.825 41.797 12.013C41.243 11.2269 40.3182 10.5882 39.0345 10.1024L38.4081 11.7579ZM38.3814 16.3903C35.9944 17.3833 31.778 18.3727 27.8225 16.1235L26.9476 17.6622C31.6026 20.309 36.4673 19.1036 39.0612 18.0246L38.3814 16.3903ZM27.3851 16.8928C27.7778 16.0997 27.7781 16.0999 27.7784 16.1C27.7784 16.1001 27.7787 16.1002 27.7789 16.1003C27.7793 16.1005 27.7796 16.1006 27.7799 16.1008C27.7805 16.1011 27.781 16.1013 27.7814 16.1015C27.7821 16.1019 27.7825 16.1021 27.7824 16.1021C27.7823 16.102 27.7806 16.1011 27.7774 16.0994C27.7709 16.096 27.7585 16.0893 27.7411 16.0795C27.7061 16.0596 27.6519 16.0275 27.5855 15.9835C27.4506 15.894 27.2775 15.7633 27.1153 15.597C26.7857 15.2587 26.5814 14.8654 26.6569 14.3926L24.9091 14.1134C24.7112 15.3518 25.308 16.2785 25.8477 16.8323C26.1203 17.112 26.3989 17.3204 26.6071 17.4585C26.7123 17.5283 26.8025 17.5821 26.869 17.6197C26.9023 17.6386 26.93 17.6535 26.9508 17.6646C26.9613 17.6701 26.97 17.6746 26.977 17.6782C26.9805 17.68 26.9835 17.6815 26.9861 17.6828C26.9874 17.6834 26.9886 17.684 26.9896 17.6845C26.9901 17.6848 26.9906 17.6851 26.9911 17.6853C26.9913 17.6854 26.9917 17.6856 26.9918 17.6856C26.9921 17.6858 26.9924 17.6859 27.3851 16.8928ZM26.6569 14.3926C26.7716 13.6748 27.1684 12.1342 27.2133 10.7243C27.2592 9.28217 26.9693 7.55776 25.4265 6.51998L24.4386 7.98862C25.2117 8.50866 25.4837 9.42794 25.4442 10.6679C25.4037 11.9401 25.0678 13.1199 24.9091 14.1134L26.6569 14.3926ZM25.4254 6.51923C22.8294 4.77863 17.8414 4.06001 13.2049 5.87784L13.851 7.52571C18.0223 5.89024 22.3889 6.61433 24.4397 7.98937L25.4254 6.51923ZM13.2036 5.87833C10.8687 6.79784 9.46842 8.29115 9.55068 10.075C9.63021 11.7995 11.085 13.194 13.0334 13.9701L13.6884 12.3257C12.0149 11.6591 11.3513 10.6978 11.3188 9.99343C11.2891 9.34843 11.7832 8.34003 13.8522 7.52522L13.2036 5.87833ZM13.0334 13.9701C15.0069 14.7562 17.2796 14.8989 19.0055 14.8615C19.8784 14.8426 20.6332 14.7769 21.1711 14.7158C21.4404 14.6852 21.6563 14.6556 21.8066 14.6334C21.8817 14.6223 21.9405 14.613 21.9815 14.6064C22.0019 14.603 22.018 14.6004 22.0293 14.5984C22.035 14.5975 22.0395 14.5967 22.0428 14.5961C22.0445 14.5958 22.0459 14.5956 22.0469 14.5954C22.0475 14.5953 22.0479 14.5952 22.0483 14.5952C22.0485 14.5951 22.0487 14.5951 22.0488 14.5951C22.049 14.595 22.0492 14.595 21.8954 13.7235C21.7415 12.8519 21.7417 12.8519 21.7418 12.8519C21.7419 12.8519 21.742 12.8519 21.742 12.8519C21.7421 12.8518 21.7421 12.8518 21.7421 12.8519C21.7419 12.8519 21.7415 12.8519 21.7408 12.8521C21.7394 12.8523 21.7368 12.8528 21.7331 12.8534C21.7256 12.8547 21.7136 12.8567 21.6972 12.8593C21.6644 12.8647 21.6141 12.8726 21.5479 12.8824C21.4153 12.902 21.2191 12.9289 20.9713 12.9571C20.4749 13.0135 19.7752 13.0744 18.9671 13.0919C17.3313 13.1274 15.3368 12.9824 13.6884 12.3257L13.0334 13.9701ZM81.5263 66.8351C81.5263 77.0986 73.4404 85.3807 63.5276 85.3807V87.1507C74.4651 87.1507 83.2963 78.0282 83.2963 66.8351H81.5263ZM63.5276 85.3807C57.958 85.3807 52.9669 82.7682 49.6697 78.6594L48.2892 79.7672C51.9015 84.2686 57.3888 87.1507 63.5276 87.1507V85.3807ZM49.6663 78.6552C48.7693 77.5513 48.0018 76.3368 47.3786 75.033L45.7817 75.7964C46.4644 77.2245 47.3065 78.5577 48.2926 79.7714L49.6663 78.6552ZM43.8619 64.9347C44.2109 68.4621 45.4408 71.7192 47.3304 74.4795L48.791 73.4797C47.0663 70.9603 45.9425 67.9862 45.6233 64.7604L43.8619 64.9347ZM47.3303 74.4794C47.9177 75.3377 48.5685 76.148 49.2751 76.9022L50.5668 75.6921C49.9218 75.0036 49.3275 74.2638 48.7911 73.4798L47.3303 74.4794ZM49.2741 76.9011C52.8638 80.7459 57.923 83.1449 63.5276 83.1449V81.3749C58.4412 81.3749 53.8422 79.2002 50.5678 75.6932L49.2741 76.9011ZM63.5276 83.1449C73.7715 83.1449 82.1709 75.1398 83.1932 64.9358L81.432 64.7594C80.4953 74.1087 72.8128 81.3749 63.5276 81.3749V83.1449ZM81.4324 64.9398C81.4971 65.5574 81.5263 66.1939 81.5263 66.8351H83.2963C83.2963 66.1411 83.2647 65.4424 83.1928 64.7554L81.4324 64.9398ZM81.5263 62.8293C81.5263 63.4706 81.4971 64.1071 81.4324 64.7247L83.1928 64.9091C83.2647 64.2221 83.2963 63.5233 83.2963 62.8293H81.5263ZM81.4276 64.8169V64.8476H83.1976V64.8169H81.4276ZM45.6233 64.7297C45.5797 64.2891 45.5511 63.8456 45.544 63.4059L43.7742 63.4346C43.7822 63.931 43.8144 64.4238 43.8619 64.904L45.6233 64.7297ZM45.5436 62.1834C45.8486 53.0088 52.5985 45.5538 61.2423 44.4299L61.0141 42.6747C51.4803 43.9143 44.1074 52.1143 43.7746 62.1246L45.5436 62.1834ZM60.4264 44.0914C64.6709 49.6161 71.5206 52.6604 78.5303 51.7587L78.3045 50.0032C71.9506 50.8205 65.7099 48.0632 61.83 43.0131L60.4264 44.0914ZM77.7124 51.4159C80.0968 54.5582 81.5263 58.5229 81.5263 62.8293H83.2963C83.2963 58.1265 81.7342 53.7879 79.1224 50.346L77.7124 51.4159ZM68.2081 56.7367C67.8738 55.7478 67.0807 55.051 66.2011 54.6335C65.3169 54.2138 64.2667 54.0341 63.2555 54.1242C62.244 54.2142 61.2095 54.5812 60.4167 55.3263C59.6063 56.0881 59.1194 57.1799 59.1194 58.5626H60.8894C60.8894 57.6239 61.2056 57.014 61.629 56.616C62.0701 56.2014 62.7003 55.9506 63.4125 55.8872C64.1249 55.8238 64.8571 55.9549 65.4422 56.2325C66.0318 56.5124 66.3948 56.8996 66.5313 57.3035L68.2081 56.7367ZM59.1194 58.5626C59.1194 59.9504 59.7691 60.8767 60.6612 61.5118C61.481 62.0954 62.5524 62.4613 63.4289 62.7884C64.3748 63.1414 65.1496 63.465 65.6951 63.9403C66.1818 64.3644 66.5119 64.9327 66.485 65.913L68.2543 65.9615C68.2958 64.4479 67.7394 63.3739 66.8579 62.6058C66.0352 61.889 64.9602 61.4707 64.0477 61.1301C63.0658 60.7637 62.2703 60.4846 61.6877 60.0698C61.1775 59.7066 60.8894 59.2813 60.8894 58.5626H59.1194ZM66.485 65.9128C66.4581 66.8857 66.1393 67.5418 65.7181 67.972C65.2886 68.4108 64.6911 68.6769 64.0129 68.7506C62.6176 68.9022 61.1143 68.226 60.471 66.9874L58.9002 67.8033C59.9349 69.7954 62.2092 70.727 64.2041 70.5102C65.221 70.3997 66.2218 69.9877 66.983 69.2101C67.7525 68.424 68.2167 67.3256 68.2543 65.9617L66.485 65.9128ZM62.8248 52.0934V54.8023H64.5948V52.0934H62.8248ZM62.8248 69.7359V72.4448H64.5948V69.7359H62.8248ZM80.7028 49.527C79.9028 49.7401 79.0984 49.901 78.3045 50.0032L78.5303 51.7587C79.4068 51.6459 80.2881 51.4692 81.1586 51.2373L80.7028 49.527ZM61.8283 43.0109C60.3514 41.1012 59.2196 38.8517 58.5513 36.3484L56.8412 36.8049C57.57 39.5351 58.8071 41.9976 60.4281 44.0937L61.8283 43.0109ZM58.5524 36.3526C58.3837 35.7077 58.2459 35.0764 58.145 34.4422L56.397 34.7205C56.5086 35.4216 56.6595 36.1103 56.84 36.8006L58.5524 36.3526ZM56.4407 34.8877C56.6162 35.3633 56.808 35.8239 57.0239 36.2846L58.6266 35.5334C58.4325 35.1192 58.2599 34.705 58.1013 34.275L56.4407 34.8877ZM57.0193 36.2745C57.1011 36.4549 57.1938 36.6599 57.297 36.8598L58.8698 36.0479C58.7908 35.8948 58.7165 35.7314 58.6312 35.5435L57.0193 36.2745ZM57.2902 36.8463C57.6791 37.6325 58.1158 38.3868 58.5924 39.1013L60.0649 38.1191C59.6303 37.4676 59.2318 36.7792 58.8766 36.0614L57.2902 36.8463ZM58.5856 39.0909C58.7257 39.3075 58.864 39.5046 59.0027 39.6993L60.4443 38.6723C60.3096 38.4832 60.1898 38.312 60.0717 38.1295L58.5856 39.0909ZM59.0063 39.7043C59.1571 39.9128 59.3092 40.1151 59.47 40.3183L60.8579 39.2197C60.715 39.0392 60.5784 38.8578 60.4407 38.6672L59.0063 39.7043ZM59.4533 40.2964C59.6058 40.502 59.7638 40.695 59.9163 40.8734L61.2619 39.7236C61.1259 39.5644 60.9954 39.4044 60.8746 39.2416L59.4533 40.2964ZM59.9063 40.8615C60.0139 40.992 60.1389 41.1457 60.2744 41.2917L61.5721 40.088C61.4798 39.9885 61.3921 39.8812 61.2719 39.7355L59.9063 40.8615ZM60.2606 41.2765C60.3868 41.419 60.532 41.5835 60.6889 41.7421L61.9471 40.4972C61.8307 40.3795 61.7179 40.2523 61.5859 40.1032L60.2606 41.2765ZM60.6639 41.7157C60.9458 42.025 61.2338 42.3159 61.5265 42.5958L62.7497 41.3164C62.4805 41.0591 62.2217 40.7974 61.9721 40.5235L60.6639 41.7157ZM61.5393 42.6078C61.7047 42.7597 61.8802 42.921 62.0572 43.0756L63.2211 41.7421C63.0641 41.605 62.9056 41.4594 62.7369 41.3044L61.5393 42.6078ZM62.055 43.0736C62.2272 43.2249 62.417 43.392 62.6178 43.5526L63.7236 42.1706C63.56 42.0396 63.4005 41.8997 63.2234 41.7441L62.055 43.0736ZM62.6029 43.5405C62.8397 43.7385 63.0811 43.9253 63.3232 44.1068L64.3851 42.6907C64.1564 42.5193 63.9422 42.3531 63.7385 42.1828L62.6029 43.5405ZM63.3283 44.1107C63.5363 44.2643 63.7428 44.4087 63.9389 44.546L64.9537 43.0957C64.755 42.9567 64.5668 42.8249 64.3799 42.6869L63.3283 44.1107ZM63.9389 44.546C64.1448 44.69 64.3608 44.8356 64.5787 44.9742L65.5289 43.4809C65.3368 43.3587 65.1426 43.2279 64.9537 43.0957L63.9389 44.546ZM64.5828 44.9768C65.2283 45.3826 65.8965 45.7609 66.5943 46.0933L67.3554 44.4953C66.7319 44.1983 66.1245 43.8553 65.5248 43.4783L64.5828 44.9768ZM66.5876 46.09C66.7903 46.1887 67.0076 46.2946 67.2272 46.3932L67.9524 44.7786C67.762 44.693 67.5693 44.5993 67.3621 44.4985L66.5876 46.09ZM67.2411 46.3993C67.4958 46.5085 67.771 46.6232 68.0438 46.7235L68.6544 45.0622C68.4261 44.9782 68.185 44.8781 67.9386 44.7725L67.2411 46.3993ZM68.0121 46.7112C68.2347 46.8028 68.4578 46.8863 68.6816 46.9617L69.2467 45.2844C69.0605 45.2216 68.8736 45.1517 68.6861 45.0745L68.0121 46.7112ZM68.6735 46.959C69.4103 47.2152 70.1656 47.4323 70.939 47.6015L71.3173 45.8724C70.6177 45.7193 69.9303 45.522 69.2549 45.2872L68.6735 46.959ZM70.9195 47.597C71.1313 47.6484 71.3436 47.6913 71.5564 47.7257L71.8389 45.9784C71.672 45.9514 71.5047 45.9176 71.3368 45.8769L70.9195 47.597ZM71.5366 47.7223C72.1011 47.8268 72.6731 47.907 73.2524 47.9632L73.4231 46.2014C72.8938 46.1501 72.3723 46.0769 71.8587 45.9819L71.5366 47.7223ZM73.239 47.9618C73.4657 47.9872 73.6925 48.0042 73.9196 48.0127L73.9858 46.244C73.8029 46.2371 73.6198 46.2234 73.4365 46.2028L73.239 47.9618ZM73.8692 48.0094C74.1484 48.0358 74.4208 48.044 74.6817 48.044V46.274C74.4567 46.274 74.243 46.2669 74.0362 46.2473L73.8692 48.0094ZM74.6619 48.0438C76.4627 48.0841 78.302 47.8666 80.124 47.368L79.6569 45.6608C78.0013 46.1138 76.3327 46.3107 74.7015 46.2743L74.6619 48.0438ZM80.1224 47.3685C90.021 44.6803 96.064 34.7553 94.4238 24.6249L92.6766 24.9078C94.1799 34.1926 88.6361 43.2223 79.6585 45.6604L80.1224 47.3685ZM92.7239 25.0832C92.9462 25.663 93.1347 26.2628 93.3034 26.8856L95.0118 26.4227C94.8313 25.7563 94.625 25.0975 94.3766 24.4495L92.7239 25.0832ZM93.3023 26.8815C95.9395 36.8012 90.2672 46.9224 80.6907 49.5282L81.1555 51.2361C91.7156 48.3626 97.8882 37.2422 95.0129 26.4268L93.3023 26.8815ZM80.9231 51.2671H80.9307V49.4971H80.9231V51.2671ZM79.6645 45.6608C78.0089 46.1138 76.3402 46.3107 74.7089 46.2743L74.6694 48.0438C76.4701 48.0841 78.3096 47.8666 80.1316 47.368L79.6645 45.6608ZM74.6892 46.274C74.4788 46.274 74.2637 46.2607 74.0161 46.2451L73.9045 48.0116C74.1427 48.0266 74.4136 48.044 74.6892 48.044V46.274ZM73.9603 46.2433C73.8131 46.2433 73.6576 46.2268 73.4441 46.2028L73.2465 47.9618C73.443 47.9838 73.6974 48.0133 73.9603 48.0133V46.2433ZM73.4307 46.2014C72.9013 46.1501 72.3799 46.0769 71.8662 45.9818L71.5441 47.7223C72.1087 47.8268 72.6807 47.907 73.2599 47.9632L73.4307 46.2014ZM71.8465 45.9784C71.6796 45.9514 71.5122 45.9176 71.3443 45.8769L70.9271 47.597C71.1388 47.6484 71.3511 47.6913 71.5639 47.7257L71.8465 45.9784ZM71.3249 45.8724C70.6253 45.7193 69.9379 45.522 69.2624 45.2871L68.681 46.9589C69.4179 47.2152 70.1731 47.4323 70.9465 47.6015L71.3249 45.8724ZM69.2543 45.2844C69.068 45.2216 68.8811 45.1517 68.6936 45.0745L68.0197 46.7112C68.2422 46.8028 68.4654 46.8863 68.6892 46.9617L69.2543 45.2844ZM68.6619 45.0621C68.4336 44.9782 68.1925 44.8781 67.9461 44.7725L67.2486 46.3993C67.5033 46.5085 67.7785 46.6232 68.0514 46.7235L68.6619 45.0621ZM67.96 44.7786C67.7695 44.693 67.5769 44.5993 67.3696 44.4985L66.5951 46.09C66.7979 46.1887 67.0152 46.2945 67.2347 46.3932L67.96 44.7786ZM67.3629 44.4953C66.7395 44.1983 66.1321 43.8553 65.5323 43.4783L64.5904 44.9768C65.2358 45.3826 65.9041 45.7609 66.6018 46.0933L67.3629 44.4953ZM65.5365 43.4809C65.3443 43.3587 65.1502 43.2279 64.9612 43.0957L63.9465 44.546C64.1524 44.69 64.3683 44.8356 64.5862 44.9742L65.5365 43.4809ZM64.9612 43.0957C64.7625 42.9567 64.5743 42.8249 64.3875 42.6869L63.3359 44.1107C63.5439 44.2643 63.7504 44.4088 63.9465 44.546L64.9612 43.0957ZM64.3926 42.6907C64.164 42.5193 63.9498 42.3531 63.7461 42.1828L62.6105 43.5404C62.8472 43.7384 63.0886 43.9253 63.3307 44.1068L64.3926 42.6907ZM63.7312 42.1706C63.5675 42.0396 63.408 41.8997 63.2309 41.7441L62.0625 43.0736C62.2347 43.2249 62.4246 43.392 62.6254 43.5526L63.7312 42.1706ZM63.2287 41.7421C63.0716 41.605 62.9131 41.4594 62.7444 41.3044L61.5469 42.6078C61.7123 42.7597 61.8877 42.921 62.0648 43.0756L63.2287 41.7421ZM62.7572 41.3164C62.4881 41.0591 62.2293 40.7974 61.9797 40.5235L60.6714 41.7157C60.9533 42.025 61.2414 42.3159 61.5341 42.5958L62.7572 41.3164ZM61.9547 40.4972C61.8381 40.3794 61.7252 40.2521 61.5934 40.1032L60.2681 41.2765C60.3944 41.4192 60.5396 41.5836 60.6965 41.7421L61.9547 40.4972ZM61.5795 40.088C61.4873 39.9885 61.3999 39.8815 61.2795 39.7355L59.9138 40.8615C60.0212 40.9917 60.1463 41.1456 60.2819 41.2917L61.5795 40.088ZM61.2695 39.7236C61.1333 39.5642 61.0028 39.4042 60.8821 39.2416L59.4607 40.2964C59.6134 40.5021 59.7715 40.6951 59.9239 40.8734L61.2695 39.7236ZM60.8653 39.2197C60.7226 39.0394 60.5861 38.8579 60.4482 38.6672L59.0139 39.7043C59.1645 39.9127 59.3165 40.1149 59.4775 40.3183L60.8653 39.2197ZM60.4519 38.6723C60.3172 38.4832 60.1973 38.312 60.0793 38.1295L58.5932 39.0909C58.7332 39.3075 58.8716 39.5046 59.0103 39.6993L60.4519 38.6723ZM60.0724 38.1191C59.6379 37.4676 59.2393 36.7792 58.8842 36.0614L57.2977 36.8463C57.6867 37.6325 58.1234 38.3868 58.6 39.1013L60.0724 38.1191ZM58.8773 36.0479C58.7983 35.8948 58.7241 35.7314 58.6388 35.5435L57.0268 36.2745C57.1086 36.4549 57.2013 36.6599 57.3046 36.8598L58.8773 36.0479ZM58.6342 35.5334C58.4401 35.1192 58.2674 34.7049 58.1088 34.275L56.4482 34.8877C56.6237 35.3633 56.8156 35.8239 57.0315 36.2845L58.6342 35.5334ZM58.107 34.2701C57.8877 33.6864 57.693 33.0951 57.5354 32.4869L55.822 32.9309C55.9984 33.6119 56.2138 34.2638 56.4501 34.8926L58.107 34.2701ZM57.5338 32.4808C54.8895 22.5693 60.5616 12.4407 70.138 9.8349L69.6733 8.127C59.1132 11.0004 52.9401 22.1288 55.8236 32.937L57.5338 32.4808ZM70.138 9.8349C79.7109 7.23008 89.6415 13.0985 92.285 23.0144L93.9953 22.5585C91.111 11.7393 80.237 5.25258 69.6733 8.127L70.138 9.8349ZM92.2846 23.0128C92.4528 23.6485 92.5906 24.2797 92.6916 24.9071L94.4391 24.6256C94.3276 23.9331 94.1768 23.2444 93.9957 22.5601L92.2846 23.0128ZM92.6917 24.9078C94.195 34.1926 88.6512 43.2223 79.6737 45.6604L80.1376 47.3685C90.0362 44.6803 96.0792 34.7553 94.439 24.6249L92.6917 24.9078ZM79.9056 45.6294H79.898V47.3994H79.9056V45.6294ZM77.8556 20.6384C77.2772 19.7696 76.3299 19.305 75.3726 19.1329C74.4101 18.9599 73.3496 19.0622 72.3969 19.4143C71.4439 19.7665 70.5406 20.3915 69.9682 21.3175C69.383 22.264 69.1945 23.445 69.5519 24.7803L71.2617 24.3226C71.0193 23.4172 71.1667 22.7448 71.4737 22.2482C71.7935 21.7309 72.3386 21.3229 73.0105 21.0746C73.6827 20.8262 74.4236 20.7607 75.0594 20.875C75.7004 20.9902 76.1483 21.2679 76.3823 21.6194L77.8556 20.6384ZM69.5518 24.7797C69.9098 26.1209 70.7774 26.8458 71.8041 27.225C72.7467 27.573 73.8761 27.6447 74.8057 27.7302C75.8097 27.8225 76.6394 27.9315 77.2863 28.2467C77.8619 28.5273 78.3254 28.9878 78.5507 29.9424L80.2734 29.5358C79.9254 28.0616 79.1124 27.1676 78.0617 26.6556C77.0822 26.1783 75.9359 26.0566 74.9677 25.9676C73.925 25.8717 73.0859 25.8115 72.4173 25.5646C71.8329 25.3488 71.4467 25.0156 71.2619 24.3232L69.5518 24.7797ZM78.5509 29.9431C78.7754 30.8904 78.6365 31.6094 78.3395 32.1376C78.0366 32.6761 77.5267 33.0908 76.8902 33.34C75.5808 33.8528 73.9573 33.5922 73.0193 32.5649L71.7122 33.7584C73.2268 35.4171 75.6655 35.7205 77.5356 34.9882C78.489 34.6148 79.3482 33.9547 79.8822 33.0052C80.4221 32.0454 80.5879 30.8631 80.2732 29.535L78.5509 29.9431ZM71.4576 17.5662L72.1561 20.183L73.8663 19.7265L73.1678 17.1097L71.4576 17.5662ZM75.9984 34.603L76.6969 37.2122L78.4067 36.7545L77.7082 34.1453L75.9984 34.603Z" fill="url(#paint0_linear_6246_98950)"/>
<defs>
<linearGradient id="paint0_linear_6246_98950" x1="1.8335" y1="1" x2="96.2922" y2="23.6318" gradientUnits="userSpaceOnUse">
<stop stop-color="#3B00B9"/>
<stop offset="1" stop-color="#2586B6"/>
</linearGradient>
</defs>
</svg>
