<svg width="116" height="101" viewBox="0 0 116 101" fill="none" xmlns="http://www.w3.org/2000/svg">
<path d="M70.0489 26.7896C69.7515 27.1775 69.8249 27.733 70.2127 28.0304C70.6006 28.3278 71.1561 28.2545 71.4535 27.8666L70.0489 26.7896ZM75.5799 22.4851C75.8773 22.0972 75.804 21.5417 75.4161 21.2443C75.0282 20.9468 74.4727 21.0202 74.1753 21.4081L75.5799 22.4851ZM71.8912 72.7732C71.5933 72.3857 71.0377 72.313 70.6502 72.6108C70.2626 72.9087 70.1899 73.4643 70.4878 73.8518L71.8912 72.7732ZM74.6555 79.2743C74.9533 79.6618 75.5089 79.7345 75.8965 79.4366C76.284 79.1388 76.3567 78.5832 76.0589 78.1956L74.6555 79.2743ZM32.9938 64.0683H32.1088V64.5327L32.491 64.7966L32.9938 64.0683ZM58.2233 81.487L57.7205 82.2153L58.2232 82.5624L58.726 82.2153L58.2233 81.487ZM83.4611 64.0683L83.9638 64.7967L84.3461 64.5328V64.0683H83.4611ZM83.4611 36.9399H84.3461V36.4754L83.9638 36.2115L83.4611 36.9399ZM58.2233 19.5211L58.726 18.7928L58.2232 18.4458L57.7205 18.7929L58.2233 19.5211ZM32.9938 36.9399L32.4909 36.2116L32.1088 36.4754V36.9399H32.9938ZM83.5851 49.6191C83.0963 49.6191 82.7001 50.0153 82.7001 50.5041C82.7001 50.9928 83.0963 51.3891 83.5851 51.3891V49.6191ZM91.6228 51.3891C92.1116 51.3891 92.5078 50.9928 92.5078 50.5041C92.5078 50.0153 92.1116 49.6191 91.6228 49.6191V51.3891ZM44.5553 27.8673C44.8531 28.2549 45.4087 28.3277 45.7963 28.0299C46.1839 27.7321 46.2567 27.1765 45.9589 26.7889L44.5553 27.8673ZM41.8243 21.4074C41.5265 21.0198 40.9709 20.947 40.5833 21.2448C40.1957 21.5426 40.1229 22.0982 40.4207 22.4857L41.8243 21.4074ZM45.5122 73.8518C45.8101 73.4643 45.7374 72.9087 45.3498 72.6108C44.9623 72.313 44.4067 72.3857 44.1088 72.7732L45.5122 73.8518ZM39.9411 78.1956C39.6433 78.5832 39.716 79.1388 40.1035 79.4366C40.491 79.7345 41.0467 79.6618 41.3445 79.2743L39.9411 78.1956ZM32.4149 51.3891C32.9037 51.3891 33.2999 50.9928 33.2999 50.5041C33.2999 50.0153 32.9037 49.6191 32.4149 49.6191V51.3891ZM24.3772 49.6191C23.8884 49.6191 23.4922 50.0153 23.4922 50.5041C23.4922 50.9928 23.8884 51.3891 24.3772 51.3891V49.6191ZM55.2794 55.6652L55.8602 56.3329L55.8604 56.3328L55.2794 55.6652ZM52.7408 52.9866L53.3217 53.6543L53.322 53.654L52.7408 52.9866ZM48.2506 44.3957V43.5107L48.2459 43.5107L48.2506 44.3957ZM61.1671 44.0445L60.5863 43.3768L60.5862 43.3769L61.1671 44.0445ZM63.7058 46.7231L63.1249 46.0554L63.1246 46.0557L63.7058 46.7231ZM68.196 55.118V56.0031L68.2006 56.003L68.196 55.118ZM70.4535 55.8203L70.4312 56.705L71.3385 56.7279V55.8203H70.4535ZM63.8712 52.8887L64.471 52.2379L64.4691 52.2361L63.8712 52.8887ZM58.2812 47.1233L57.6225 47.7143L57.6262 47.7184L58.2812 47.1233ZM48.2423 40.7454V39.8604L48.2374 39.8604L48.2423 40.7454ZM39.0882 47.7276L38.2295 47.5133L39.9394 47.97L39.0882 47.7276ZM45.9848 43.824L46.0071 42.9393L46.0064 42.9393L45.9848 43.824ZM52.5836 46.7802L53.1815 46.1277L53.1788 46.1252L52.5836 46.7802ZM58.1737 52.5456L58.8324 51.9546L58.8267 51.9482L58.8209 51.942L58.1737 52.5456ZM68.2126 58.9235V59.8085L68.2175 59.8085L68.2126 58.9235ZM77.3666 51.9413L78.2253 52.1556L76.5155 51.6989L77.3666 51.9413ZM70.4535 55.8122L70.475 54.9274L69.5685 54.9053V55.8122H70.4535ZM71.4535 27.8666L75.5799 22.4851L74.1753 21.4081L70.0489 26.7896L71.4535 27.8666ZM70.4878 73.8518L74.6555 79.2743L76.0589 78.1956L71.8912 72.7732L70.4878 73.8518ZM32.491 64.7966L57.7205 82.2153L58.7261 80.7587L33.4966 63.34L32.491 64.7966ZM58.726 82.2153L83.9638 64.7967L82.9584 63.34L57.7206 80.7586L58.726 82.2153ZM84.3461 64.0683V36.9399H82.5761V64.0683H84.3461ZM83.9638 36.2115L58.726 18.7928L57.7206 20.2495L82.9584 37.6682L83.9638 36.2115ZM57.7205 18.7929L32.4909 36.2116L33.4966 37.6681L58.7261 20.2494L57.7205 18.7929ZM32.1088 36.9399V64.0683H33.8788V36.9399H32.1088ZM92.7473 88.3875C92.7473 94.3017 87.8893 99.115 81.8733 99.115V100.885C88.8459 100.885 94.5173 95.3001 94.5173 88.3875H92.7473ZM81.8733 99.115C75.8574 99.115 70.9995 94.3017 70.9995 88.3875H69.2295C69.2295 95.3001 74.9008 100.885 81.8733 100.885V99.115ZM70.9995 88.3875C70.9995 82.4733 75.8574 77.6601 81.8733 77.6601V75.8901C74.9008 75.8901 69.2295 81.4749 69.2295 88.3875H70.9995ZM81.8733 77.6601C87.8893 77.6601 92.7473 82.4733 92.7473 88.3875H94.5173C94.5173 81.4749 88.8459 75.8901 81.8733 75.8901V77.6601ZM92.2012 94.576C89.9076 91.3803 86.1379 89.2909 81.8733 89.2909V91.0609C85.5473 91.0609 88.79 92.8587 90.7632 95.6081L92.2012 94.576ZM81.8733 89.2909C77.6143 89.2909 74.1029 91.2355 71.7948 94.2337L73.1973 95.3134C75.1892 92.7259 78.1939 91.0609 81.8733 91.0609V89.2909ZM85.7349 84.7617C85.7349 86.8513 84.0165 88.5641 81.8733 88.5641V90.3341C84.9731 90.3341 87.5049 87.8497 87.5049 84.7617H85.7349ZM81.8733 88.5641C79.7302 88.5641 78.0118 86.8513 78.0118 84.7617H76.2418C76.2418 87.8497 78.7736 90.3341 81.8733 90.3341V88.5641ZM78.0118 84.7617C78.0118 82.6721 79.7302 80.9592 81.8733 80.9592V79.1892C78.7736 79.1892 76.2418 81.6737 76.2418 84.7617H78.0118ZM81.8733 80.9592C84.0165 80.9592 85.7349 82.6721 85.7349 84.7617H87.5049C87.5049 81.6737 84.9731 79.1892 81.8733 79.1892V80.9592ZM114.115 48.7892C114.115 54.7034 109.257 59.5166 103.241 59.5166V61.2866C110.214 61.2866 115.885 55.7017 115.885 48.7892H114.115ZM103.241 59.5166C97.2252 59.5166 92.3672 54.7034 92.3672 48.7892H90.5972C90.5972 55.7017 96.2686 61.2866 103.241 61.2866V59.5166ZM92.3672 48.7892C92.3672 42.875 97.2252 38.0617 103.241 38.0617V36.2917C96.2686 36.2917 90.5972 41.8766 90.5972 48.7892H92.3672ZM103.241 38.0617C109.257 38.0617 114.115 42.875 114.115 48.7892H115.885C115.885 41.8766 110.214 36.2917 103.241 36.2917V38.0617ZM113.569 54.9777C111.275 51.782 107.506 49.6926 103.241 49.6926V51.4626C106.915 51.4626 110.158 53.2604 112.131 56.0097L113.569 54.9777ZM103.241 49.6926C98.9821 49.6926 95.4706 51.6371 93.1625 54.6354L94.565 55.7151C96.557 53.1276 99.5617 51.4626 103.241 51.4626V49.6926ZM107.103 45.1633C107.103 47.2529 105.384 48.9658 103.241 48.9658V50.7358C106.341 50.7358 108.873 48.2513 108.873 45.1633H107.103ZM103.241 48.9658C101.098 48.9658 99.3796 47.2529 99.3796 45.1633H97.6096C97.6096 48.2513 100.141 50.7358 103.241 50.7358V48.9658ZM99.3796 45.1633C99.3796 43.0737 101.098 41.3609 103.241 41.3609V39.5909C100.141 39.5909 97.6096 42.0753 97.6096 45.1633H99.3796ZM103.241 41.3609C105.384 41.3609 107.103 43.0737 107.103 45.1633H108.873C108.873 42.0753 106.341 39.5909 103.241 39.5909V41.3609ZM92.7473 12.6125C92.7473 18.5267 87.8893 23.3399 81.8733 23.3399V25.1099C88.8459 25.1099 94.5173 19.5251 94.5173 12.6125H92.7473ZM81.8733 23.3399C75.8574 23.3399 70.9995 18.5267 70.9995 12.6125H69.2295C69.2295 19.5251 74.9008 25.1099 81.8733 25.1099V23.3399ZM70.9995 12.6125C70.9995 6.69829 75.8574 1.885 81.8733 1.885V0.115C74.9008 0.115 69.2295 5.69992 69.2295 12.6125H70.9995ZM81.8733 1.885C87.8893 1.885 92.7473 6.6983 92.7473 12.6125H94.5173C94.5173 5.69991 88.8459 0.115 81.8733 0.115V1.885ZM92.2012 18.801C89.9075 15.6052 86.1379 13.5159 81.8733 13.5159V15.2859C85.5473 15.2859 88.79 17.0837 90.7632 19.833L92.2012 18.801ZM81.8733 13.5159C77.6143 13.5159 74.1029 15.4604 71.7948 18.4587L73.1973 19.5384C75.1892 16.9509 78.1939 15.2859 81.8733 15.2859V13.5159ZM85.7349 8.98666C85.7349 11.0763 84.0165 12.7891 81.8733 12.7891V14.5591C84.9731 14.5591 87.5049 12.0747 87.5049 8.98666H85.7349ZM81.8733 12.7891C79.7302 12.7891 78.0118 11.0763 78.0118 8.98666H76.2418C76.2418 12.0747 78.7736 14.5591 81.8733 14.5591V12.7891ZM78.0118 8.98666C78.0118 6.89704 79.7302 5.18421 81.8733 5.18421V3.41421C78.7736 3.41421 76.2418 5.89866 76.2418 8.98666H78.0118ZM81.8733 5.18421C84.0165 5.18421 85.7349 6.89704 85.7349 8.98666H87.5049C87.5049 5.89866 84.9731 3.41421 81.8733 3.41421V5.18421ZM83.5851 51.3891H91.6228V49.6191H83.5851V51.3891ZM45.9589 26.7889L41.8243 21.4074L40.4207 22.4857L44.5553 27.8673L45.9589 26.7889ZM44.1088 72.7732L39.9411 78.1956L41.3445 79.2743L45.5122 73.8518L44.1088 72.7732ZM45.0006 88.3875C45.0006 94.3017 40.1426 99.115 34.1267 99.115V100.885C41.0992 100.885 46.7706 95.3001 46.7706 88.3875H45.0006ZM34.1267 99.115C28.1107 99.115 23.2528 94.3017 23.2528 88.3875H21.4828C21.4828 95.3001 27.1541 100.885 34.1267 100.885V99.115ZM23.2528 88.3875C23.2528 82.4733 28.1107 77.6601 34.1267 77.6601V75.8901C27.1541 75.8901 21.4828 81.4749 21.4828 88.3875H23.2528ZM34.1267 77.6601C40.1426 77.6601 45.0006 82.4733 45.0006 88.3875H46.7706C46.7706 81.4749 41.0992 75.8901 34.1267 75.8901V77.6601ZM25.2368 95.6081C27.21 92.8587 30.4527 91.0609 34.1267 91.0609V89.2909C29.8621 89.2909 26.0924 91.3803 23.7988 94.576L25.2368 95.6081ZM34.1267 91.0609C37.6713 91.0609 40.8145 92.7306 42.8027 95.3134L44.2053 94.2337C41.8935 91.2307 38.2393 89.2909 34.1267 89.2909V91.0609ZM37.9882 84.7617C37.9882 86.8513 36.2698 88.5641 34.1267 88.5641V90.3341C37.2264 90.3341 39.7582 87.8497 39.7582 84.7617H37.9882ZM34.1267 88.5641C31.9835 88.5641 30.2651 86.8513 30.2651 84.7617H28.4951C28.4951 87.8497 31.0269 90.3341 34.1267 90.3341V88.5641ZM30.2651 84.7617C30.2651 82.6721 31.9835 80.9592 34.1267 80.9592V79.1892C31.0269 79.1892 28.4951 81.6737 28.4951 84.7617H30.2651ZM34.1267 80.9592C36.2698 80.9592 37.9882 82.6721 37.9882 84.7617H39.7582C39.7582 81.6737 37.2264 79.1892 34.1267 79.1892V80.9592ZM23.6328 48.7892C23.6328 54.7034 18.7749 59.5166 12.7589 59.5166V61.2866C19.7315 61.2866 25.4028 55.7017 25.4028 48.7892H23.6328ZM12.7589 59.5166C6.74294 59.5166 1.885 54.7034 1.885 48.7892H0.115C0.115 55.7017 5.78638 61.2866 12.7589 61.2866V59.5166ZM1.885 48.7892C1.885 42.875 6.74294 38.0617 12.7589 38.0617V36.2917C5.78637 36.2917 0.115 41.8766 0.115 48.7892H1.885ZM12.7589 38.0617C18.7749 38.0617 23.6328 42.875 23.6328 48.7892H25.4028C25.4028 41.8766 19.7315 36.2917 12.7589 36.2917V38.0617ZM3.86902 56.0097C5.84231 53.2604 9.085 51.4626 12.7589 51.4626V49.6926C8.49433 49.6926 4.72471 51.782 2.43106 54.9777L3.86902 56.0097ZM12.7589 51.4626C16.4384 51.4626 19.443 53.1276 21.435 55.7151L22.8375 54.6354C20.5294 51.6371 17.0179 49.6926 12.7589 49.6926V51.4626ZM16.6205 45.1633C16.6205 47.2529 14.9021 48.9658 12.7589 48.9658V50.7358C15.8586 50.7358 18.3905 48.2513 18.3905 45.1633H16.6205ZM12.7589 48.9658C10.6157 48.9658 8.89732 47.2529 8.89732 45.1633H7.12732C7.12732 48.2513 9.65919 50.7358 12.7589 50.7358V48.9658ZM8.89732 45.1633C8.89732 43.0737 10.6157 41.3609 12.7589 41.3609V39.5909C9.65919 39.5909 7.12732 42.0753 7.12732 45.1633H8.89732ZM12.7589 41.3609C14.9021 41.3609 16.6205 43.0737 16.6205 45.1633H18.3905C18.3905 42.0753 15.8586 39.5909 12.7589 39.5909V41.3609ZM45.0006 12.6125C45.0006 18.5267 40.1426 23.3399 34.1267 23.3399V25.1099C41.0992 25.1099 46.7706 19.5251 46.7706 12.6125H45.0006ZM34.1267 23.3399C28.1107 23.3399 23.2528 18.5267 23.2528 12.6125H21.4828C21.4828 19.5251 27.1541 25.1099 34.1267 25.1099V23.3399ZM23.2528 12.6125C23.2528 6.69829 28.1107 1.885 34.1267 1.885V0.115C27.1541 0.115 21.4828 5.69992 21.4828 12.6125H23.2528ZM34.1267 1.885C40.1426 1.885 45.0006 6.6983 45.0006 12.6125H46.7706C46.7706 5.69991 41.0992 0.115 34.1267 0.115V1.885ZM25.2368 19.833C27.21 17.0837 30.4527 15.2859 34.1267 15.2859V13.5159C29.8621 13.5159 26.0924 15.6052 23.7988 18.801L25.2368 19.833ZM34.1267 15.2859C37.6713 15.2859 40.8145 16.9556 42.8027 19.5384L44.2053 18.4587C41.8935 15.4557 38.2393 13.5159 34.1267 13.5159V15.2859ZM37.9882 8.98666C37.9882 11.0763 36.2698 12.7891 34.1267 12.7891V14.5591C37.2264 14.5591 39.7582 12.0747 39.7582 8.98666H37.9882ZM34.1267 12.7891C31.9835 12.7891 30.2651 11.0763 30.2651 8.98666H28.4951C28.4951 12.0747 31.0269 14.5591 34.1267 14.5591V12.7891ZM30.2651 8.98666C30.2651 6.89704 31.9835 5.18421 34.1267 5.18421V3.41421C31.0269 3.41421 28.4951 5.89866 28.4951 8.98666H30.2651ZM34.1267 5.18421C36.2698 5.18421 37.9882 6.89704 37.9882 8.98666H39.7582C39.7582 5.89866 37.2264 3.41421 34.1267 3.41421V5.18421ZM32.4149 49.6191H24.3772V51.3891H32.4149V49.6191ZM57.5893 52.0702C56.8345 52.9358 55.8388 54.0053 54.6985 54.9975L55.8604 56.3328C57.0851 55.2671 58.1401 54.1317 58.9234 53.2334L57.5893 52.0702ZM54.6986 54.9974C52.2805 57.1008 50.1156 58.0549 48.2506 58.0549V59.8249C50.7186 59.8249 53.2838 58.574 55.8602 56.3329L54.6986 54.9974ZM48.2506 58.0549C43.5151 58.0549 39.7086 54.3455 39.7086 49.8508H37.9386C37.9386 55.3843 42.5999 59.8249 48.2506 59.8249V58.0549ZM39.7086 49.8508C39.7086 49.1986 39.7901 48.5667 39.9397 47.9536L38.2202 47.5341C38.039 48.2766 37.9386 49.0494 37.9386 49.8508H39.7086ZM55.0176 49.3686C54.3108 50.203 53.3018 51.3244 52.1595 52.3193L53.322 53.654C54.5613 52.5747 55.6362 51.3768 56.3682 50.5126L55.0176 49.3686ZM52.1599 52.319C50.0202 54.1807 48.7725 54.4372 48.2423 54.4372V56.2072C49.3659 56.2072 51.0125 55.6634 53.3217 53.6543L52.1599 52.319ZM48.2423 54.4372C45.5858 54.4372 43.4794 52.3563 43.4794 49.8589H41.7094C41.7094 53.3883 44.6637 56.2072 48.2423 56.2072V54.4372ZM43.4794 49.8589C43.4794 47.3674 45.5891 45.2946 48.2552 45.2807L48.2459 43.5107C44.677 43.5294 41.7094 46.3238 41.7094 49.8589H43.4794ZM48.2506 45.2807C48.208 45.2807 48.1935 45.2722 48.2638 45.2896C48.2998 45.2985 48.3293 45.3065 48.3879 45.3216C48.4401 45.335 48.5028 45.3508 48.5735 45.3663L48.953 43.6374C48.8518 43.6152 48.8132 43.6021 48.688 43.5712C48.5929 43.5477 48.4337 43.5107 48.2506 43.5107V45.2807ZM58.8573 47.6395C59.6121 46.7739 60.6078 45.7044 61.7481 44.7122L60.5862 43.3769C59.3615 44.4426 58.3065 45.578 57.5232 46.4763L58.8573 47.6395ZM61.748 44.7123C64.1661 42.6089 66.331 41.6549 68.196 41.6549V39.8849C65.728 39.8849 63.1628 41.1357 60.5863 43.3768L61.748 44.7123ZM68.196 41.6549C72.9315 41.6549 76.738 45.3642 76.738 49.8589H78.508C78.508 44.3255 73.8467 39.8849 68.196 39.8849V41.6549ZM76.738 49.8589C76.738 50.5111 76.6564 51.143 76.5069 51.7561L78.2264 52.1756C78.4076 51.4331 78.508 50.6603 78.508 49.8589H76.738ZM61.429 50.3412C62.1358 49.5067 63.1448 48.3853 64.2871 47.3904L63.1246 46.0557C61.8853 47.1351 60.8104 48.3329 60.0784 49.1971L61.429 50.3412ZM64.2867 47.3907C66.4264 45.529 67.674 45.2725 68.2043 45.2725V43.5025C67.0807 43.5025 65.4341 44.0463 63.1249 46.0554L64.2867 47.3907ZM68.2043 45.2725C70.8607 45.2725 72.9672 47.3535 72.9672 49.8508H74.7372C74.7372 46.3214 71.7828 43.5025 68.2043 43.5025V45.2725ZM72.9672 49.8508C72.9672 52.3015 70.9012 54.2189 68.1914 54.2331L68.2006 56.003C71.7259 55.9846 74.7372 53.4267 74.7372 49.8508H72.9672ZM68.196 54.233C68.1529 54.233 67.9956 54.2265 67.8187 54.2178C67.7369 54.2138 67.6592 54.2097 67.6019 54.2067C67.5733 54.2052 67.5498 54.204 67.5335 54.2031C67.5254 54.2026 67.5191 54.2023 67.5148 54.2021C67.5127 54.202 67.5111 54.2019 67.51 54.2018C67.5095 54.2018 67.5091 54.2018 67.5088 54.2017C67.5087 54.2017 67.5086 54.2017 67.5086 54.2017C67.5085 54.2017 67.5085 54.2017 67.5085 54.2017C67.5085 54.2017 67.5085 54.2017 67.5085 54.2017C67.5085 54.2017 67.5085 54.2017 67.46 55.0854C67.4116 55.9691 67.4116 55.9691 67.4116 55.9691C67.4116 55.9691 67.4116 55.9691 67.4116 55.9691C67.4117 55.9691 67.4117 55.9691 67.4117 55.9691C67.4118 55.9691 67.4119 55.9691 67.4121 55.9691C67.4124 55.9691 67.4129 55.9691 67.4135 55.9692C67.4147 55.9692 67.4164 55.9693 67.4187 55.9695C67.4232 55.9697 67.4298 55.9701 67.4382 55.9705C67.4551 55.9714 67.4792 55.9727 67.5086 55.9743C67.5674 55.9774 67.6473 55.9815 67.732 55.9857C67.8879 55.9933 68.0986 56.003 68.196 56.003V54.233ZM70.4758 54.9356C69.2186 54.904 67.8728 54.3871 66.7221 53.7633C65.5781 53.1431 64.7231 52.4703 64.471 52.2379L63.2714 53.5394C63.6395 53.8787 64.6161 54.6349 65.8785 55.3193C67.1341 56 68.7694 56.6632 70.4312 56.705L70.4758 54.9356ZM64.4691 52.2361C62.8992 50.7977 59.229 46.8503 58.9361 46.5281L57.6262 47.7184C57.9122 48.0332 61.6347 52.0397 63.2733 53.5412L64.4691 52.2361ZM58.9399 46.5322C57.5696 45.0052 55.9232 43.3557 54.132 42.0829C52.3517 40.8179 50.3386 39.8604 48.2506 39.8604V41.6304C49.8093 41.6304 51.4594 42.3552 53.1068 43.5257C54.7432 44.6885 56.2887 46.228 57.6225 47.7143L58.9399 46.5322ZM48.2506 39.8604H48.2423V41.6304H48.2506V39.8604ZM48.2374 39.8604C43.4121 39.8871 39.3225 43.1329 38.2295 47.5133L39.9469 47.9418C40.8385 44.3683 44.2078 41.6527 48.2472 41.6304L48.2374 39.8604ZM39.9394 47.97C39.9371 47.9778 40.2424 47.1173 41.1535 46.2807C42.034 45.4723 43.5186 44.6492 45.9632 44.7088L46.0064 42.9393C43.0925 42.8683 41.1661 43.8662 39.9564 44.9769C38.7774 46.0594 38.3137 47.216 38.2371 47.4851L39.9394 47.97ZM45.9625 44.7088C47.2173 44.7404 48.566 45.2636 49.7221 45.8951C50.8694 46.5218 51.7317 47.2019 51.9885 47.4353L53.1788 46.1252C52.8154 45.7951 51.8378 45.0339 50.5705 44.3417C49.312 43.6543 47.6713 42.9812 46.0071 42.9393L45.9625 44.7088ZM51.9858 47.4327C53.5571 48.8725 57.2211 52.8219 57.5265 53.1493L58.8209 51.942C58.5473 51.6487 54.8187 47.6279 53.1815 46.1277L51.9858 47.4327ZM57.515 53.1367C58.8852 54.6637 60.5316 56.3132 62.3228 57.586C64.1031 58.851 66.1163 59.8085 68.2043 59.8085V58.0385C66.6456 58.0385 64.9954 57.3137 63.3481 56.1432C61.7117 54.9804 60.1661 53.4409 58.8324 51.9546L57.515 53.1367ZM68.2043 59.8085H68.2126V58.0385H68.2043V59.8085ZM68.2175 59.8085C73.0427 59.7818 77.1323 56.536 78.2253 52.1556L76.508 51.7271C75.6163 55.3006 72.2471 58.0162 68.2077 58.0385L68.2175 59.8085ZM76.5155 51.6989C76.519 51.6865 76.2141 52.5386 75.2999 53.3684C74.4167 54.17 72.9266 54.9871 70.475 54.9274L70.432 56.6969C73.3471 56.7679 75.2764 55.7802 76.4895 54.679C77.6715 53.6061 78.1398 52.4575 78.2178 52.1837L76.5155 51.6989ZM69.5685 55.8122V55.8203H71.3385V55.8122H69.5685Z" fill="url(#paint0_linear_6246_98952)"/>
<defs>
<linearGradient id="paint0_linear_6246_98952" x1="1" y1="1" x2="115.788" y2="30.6266" gradientUnits="userSpaceOnUse">
<stop stop-color="#3B00B9"/>
<stop offset="1" stop-color="#2586B6"/>
</linearGradient>
</defs>
</svg>
