<svg width="120" height="120" viewBox="0 0 120 120" fill="none" xmlns="http://www.w3.org/2000/svg">
<path d="M72.0489 35.7896C71.7515 36.1775 71.8249 36.733 72.2127 37.0304C72.6006 37.3278 73.1561 37.2545 73.4535 36.8666L72.0489 35.7896ZM77.5799 31.4851C77.8773 31.0972 77.804 30.5417 77.4161 30.2443C77.0282 29.9468 76.4727 30.0202 76.1753 30.4081L77.5799 31.4851ZM73.8912 81.7732C73.5933 81.3857 73.0377 81.313 72.6502 81.6108C72.2626 81.9087 72.1899 82.4643 72.4878 82.8518L73.8912 81.7732ZM76.6555 88.2743C76.9533 88.6618 77.509 88.7345 77.8965 88.4366C78.284 88.1388 78.3567 87.5832 78.0589 87.1956L76.6555 88.2743ZM34.9938 73.0683H34.1088V73.5327L34.491 73.7966L34.9938 73.0683ZM60.2233 90.487L59.7205 91.2153L60.2232 91.5624L60.726 91.2153L60.2233 90.487ZM85.4611 73.0683L85.9638 73.7967L86.3461 73.5328V73.0683H85.4611ZM85.4611 45.9399H86.3461V45.4754L85.9638 45.2115L85.4611 45.9399ZM60.2233 28.5211L60.726 27.7928L60.2232 27.4458L59.7205 27.7929L60.2233 28.5211ZM34.9938 45.9399L34.491 45.2116L34.1088 45.4754V45.9399H34.9938ZM85.5851 58.6191C85.0963 58.6191 84.7001 59.0153 84.7001 59.5041C84.7001 59.9928 85.0963 60.3891 85.5851 60.3891V58.6191ZM93.6228 60.3891C94.1116 60.3891 94.5078 59.9928 94.5078 59.5041C94.5078 59.0153 94.1116 58.6191 93.6228 58.6191V60.3891ZM46.5553 36.8673C46.8531 37.2549 47.4087 37.3277 47.7963 37.0299C48.1839 36.7321 48.2567 36.1765 47.9589 35.7889L46.5553 36.8673ZM43.8243 30.4074C43.5265 30.0198 42.9709 29.947 42.5833 30.2448C42.1957 30.5426 42.1229 31.0982 42.4207 31.4857L43.8243 30.4074ZM47.5122 82.8518C47.8101 82.4643 47.7374 81.9087 47.3498 81.6108C46.9623 81.313 46.4067 81.3857 46.1088 81.7732L47.5122 82.8518ZM41.9411 87.1956C41.6433 87.5832 41.716 88.1388 42.1035 88.4366C42.491 88.7345 43.0467 88.6618 43.3445 88.2743L41.9411 87.1956ZM34.4149 60.3891C34.9037 60.3891 35.2999 59.9928 35.2999 59.5041C35.2999 59.0153 34.9037 58.6191 34.4149 58.6191V60.3891ZM26.3772 58.6191C25.8884 58.6191 25.4922 59.0153 25.4922 59.5041C25.4922 59.9928 25.8884 60.3891 26.3772 60.3891V58.6191ZM57.2794 64.6652L57.8602 65.3329L57.8604 65.3328L57.2794 64.6652ZM54.7408 61.9866L55.3217 62.6543L55.322 62.654L54.7408 61.9866ZM50.2506 53.3957L50.2506 52.5107L50.2459 52.5107L50.2506 53.3957ZM63.1671 53.0445L62.5863 52.3768L62.5862 52.3769L63.1671 53.0445ZM65.7058 55.7231L65.1249 55.0554L65.1246 55.0557L65.7058 55.7231ZM70.196 64.118L70.196 65.0031L70.2006 65.003L70.196 64.118ZM72.4535 64.8203L72.4312 65.705L73.3385 65.7279V64.8203H72.4535ZM65.8712 61.8887L66.471 61.2379L66.4691 61.2362L65.8712 61.8887ZM60.2812 56.1233L59.6225 56.7143L59.6262 56.7184L60.2812 56.1233ZM50.2423 49.7454L50.2423 48.8604L50.2374 48.8604L50.2423 49.7454ZM41.0882 56.7276L40.2295 56.5133L41.9394 56.97L41.0882 56.7276ZM47.9848 52.824L48.0071 51.9393L48.0064 51.9393L47.9848 52.824ZM54.5836 55.7802L55.1815 55.1277L55.1788 55.1252L54.5836 55.7802ZM60.1737 61.5456L60.8324 60.9546L60.8267 60.9482L60.8209 60.942L60.1737 61.5456ZM70.2126 67.9235L70.2126 68.8085L70.2175 68.8085L70.2126 67.9235ZM79.3666 60.9413L80.2253 61.1556L78.5155 60.6989L79.3666 60.9413ZM72.4535 64.8122L72.475 63.9274L71.5685 63.9053V64.8122H72.4535ZM73.4535 36.8666L77.5799 31.4851L76.1753 30.4081L72.0489 35.7896L73.4535 36.8666ZM72.4878 82.8518L76.6555 88.2743L78.0589 87.1956L73.8912 81.7732L72.4878 82.8518ZM34.491 73.7966L59.7205 91.2153L60.7261 89.7587L35.4966 72.34L34.491 73.7966ZM60.726 91.2153L85.9638 73.7967L84.9584 72.34L59.7206 89.7586L60.726 91.2153ZM86.3461 73.0683V45.9399H84.5761V73.0683H86.3461ZM85.9638 45.2115L60.726 27.7928L59.7206 29.2495L84.9584 46.6682L85.9638 45.2115ZM59.7205 27.7929L34.491 45.2116L35.4966 46.6681L60.7261 29.2494L59.7205 27.7929ZM34.1088 45.9399V73.0683H35.8788V45.9399H34.1088ZM94.7473 97.3875C94.7473 103.302 89.8893 108.115 83.8733 108.115V109.885C90.8459 109.885 96.5173 104.3 96.5173 97.3875H94.7473ZM83.8733 108.115C77.8574 108.115 72.9995 103.302 72.9995 97.3875H71.2295C71.2295 104.3 76.9008 109.885 83.8733 109.885V108.115ZM72.9995 97.3875C72.9995 91.4733 77.8574 86.6601 83.8733 86.6601V84.8901C76.9008 84.8901 71.2295 90.4749 71.2295 97.3875H72.9995ZM83.8733 86.6601C89.8893 86.6601 94.7473 91.4733 94.7473 97.3875H96.5173C96.5173 90.4749 90.8459 84.8901 83.8733 84.8901V86.6601ZM94.2012 103.576C91.9076 100.38 88.1379 98.2909 83.8733 98.2909V100.061C87.5473 100.061 90.79 101.859 92.7632 104.608L94.2012 103.576ZM83.8733 98.2909C79.6143 98.2909 76.1029 100.235 73.7948 103.234L75.1973 104.313C77.1892 101.726 80.1939 100.061 83.8733 100.061V98.2909ZM87.7349 93.7617C87.7349 95.8513 86.0165 97.5641 83.8733 97.5641V99.3341C86.9731 99.3341 89.5049 96.8497 89.5049 93.7617H87.7349ZM83.8733 97.5641C81.7302 97.5641 80.0118 95.8513 80.0118 93.7617H78.2418C78.2418 96.8497 80.7736 99.3341 83.8733 99.3341V97.5641ZM80.0118 93.7617C80.0118 91.6721 81.7302 89.9592 83.8733 89.9592V88.1892C80.7736 88.1892 78.2418 90.6737 78.2418 93.7617H80.0118ZM83.8733 89.9592C86.0165 89.9592 87.7349 91.6721 87.7349 93.7617H89.5049C89.5049 90.6737 86.9731 88.1892 83.8733 88.1892V89.9592ZM116.115 57.7892C116.115 63.7034 111.257 68.5166 105.241 68.5166V70.2866C112.214 70.2866 117.885 64.7017 117.885 57.7892H116.115ZM105.241 68.5166C99.2252 68.5166 94.3672 63.7034 94.3672 57.7892H92.5972C92.5972 64.7017 98.2686 70.2866 105.241 70.2866V68.5166ZM94.3672 57.7892C94.3672 51.875 99.2252 47.0617 105.241 47.0617V45.2917C98.2686 45.2917 92.5972 50.8766 92.5972 57.7892H94.3672ZM105.241 47.0617C111.257 47.0617 116.115 51.875 116.115 57.7892H117.885C117.885 50.8766 112.214 45.2917 105.241 45.2917V47.0617ZM115.569 63.9777C113.275 60.782 109.506 58.6926 105.241 58.6926V60.4626C108.915 60.4626 112.158 62.2604 114.131 65.0097L115.569 63.9777ZM105.241 58.6926C100.982 58.6926 97.4706 60.6371 95.1625 63.6354L96.565 64.7151C98.557 62.1276 101.562 60.4626 105.241 60.4626V58.6926ZM109.103 54.1633C109.103 56.2529 107.384 57.9658 105.241 57.9658V59.7358C108.341 59.7358 110.873 57.2513 110.873 54.1633H109.103ZM105.241 57.9658C103.098 57.9658 101.38 56.2529 101.38 54.1633H99.6096C99.6096 57.2513 102.141 59.7358 105.241 59.7358V57.9658ZM101.38 54.1633C101.38 52.0737 103.098 50.3609 105.241 50.3609V48.5909C102.141 48.5909 99.6096 51.0753 99.6096 54.1633H101.38ZM105.241 50.3609C107.384 50.3609 109.103 52.0737 109.103 54.1633H110.873C110.873 51.0753 108.341 48.5909 105.241 48.5909V50.3609ZM94.7473 21.6125C94.7473 27.5267 89.8893 32.3399 83.8733 32.3399V34.1099C90.8459 34.1099 96.5173 28.5251 96.5173 21.6125H94.7473ZM83.8733 32.3399C77.8574 32.3399 72.9995 27.5267 72.9995 21.6125H71.2295C71.2295 28.5251 76.9008 34.1099 83.8733 34.1099V32.3399ZM72.9995 21.6125C72.9995 15.6983 77.8574 10.885 83.8733 10.885V9.115C76.9008 9.115 71.2295 14.6999 71.2295 21.6125H72.9995ZM83.8733 10.885C89.8893 10.885 94.7473 15.6983 94.7473 21.6125H96.5173C96.5173 14.6999 90.8459 9.115 83.8733 9.115V10.885ZM94.2012 27.801C91.9075 24.6052 88.1379 22.5159 83.8733 22.5159V24.2859C87.5473 24.2859 90.79 26.0837 92.7632 28.833L94.2012 27.801ZM83.8733 22.5159C79.6143 22.5159 76.1029 24.4604 73.7948 27.4587L75.1973 28.5384C77.1892 25.9509 80.1939 24.2859 83.8733 24.2859V22.5159ZM87.7349 17.9867C87.7349 20.0763 86.0165 21.7891 83.8733 21.7891V23.5591C86.9731 23.5591 89.5049 21.0747 89.5049 17.9867H87.7349ZM83.8733 21.7891C81.7302 21.7891 80.0118 20.0763 80.0118 17.9867H78.2418C78.2418 21.0747 80.7736 23.5591 83.8733 23.5591V21.7891ZM80.0118 17.9867C80.0118 15.897 81.7302 14.1842 83.8733 14.1842V12.4142C80.7736 12.4142 78.2418 14.8987 78.2418 17.9867H80.0118ZM83.8733 14.1842C86.0165 14.1842 87.7349 15.897 87.7349 17.9867H89.5049C89.5049 14.8987 86.9731 12.4142 83.8733 12.4142V14.1842ZM85.5851 60.3891H93.6228V58.6191H85.5851V60.3891ZM47.9589 35.7889L43.8243 30.4074L42.4207 31.4857L46.5553 36.8673L47.9589 35.7889ZM46.1088 81.7732L41.9411 87.1956L43.3445 88.2743L47.5122 82.8518L46.1088 81.7732ZM47.0006 97.3875C47.0006 103.302 42.1426 108.115 36.1267 108.115V109.885C43.0992 109.885 48.7706 104.3 48.7706 97.3875H47.0006ZM36.1267 108.115C30.1107 108.115 25.2528 103.302 25.2528 97.3875H23.4828C23.4828 104.3 29.1541 109.885 36.1267 109.885V108.115ZM25.2528 97.3875C25.2528 91.4733 30.1107 86.6601 36.1267 86.6601V84.8901C29.1541 84.8901 23.4828 90.4749 23.4828 97.3875H25.2528ZM36.1267 86.6601C42.1426 86.6601 47.0006 91.4733 47.0006 97.3875H48.7706C48.7706 90.4749 43.0992 84.8901 36.1267 84.8901V86.6601ZM27.2368 104.608C29.21 101.859 32.4527 100.061 36.1267 100.061V98.2909C31.8621 98.2909 28.0924 100.38 25.7988 103.576L27.2368 104.608ZM36.1267 100.061C39.6713 100.061 42.8145 101.731 44.8027 104.313L46.2053 103.234C43.8935 100.231 40.2393 98.2909 36.1267 98.2909V100.061ZM39.9882 93.7617C39.9882 95.8513 38.2698 97.5641 36.1267 97.5641V99.3341C39.2264 99.3341 41.7582 96.8497 41.7582 93.7617H39.9882ZM36.1267 97.5641C33.9835 97.5641 32.2651 95.8513 32.2651 93.7617H30.4951C30.4951 96.8497 33.0269 99.3341 36.1267 99.3341V97.5641ZM32.2651 93.7617C32.2651 91.6721 33.9835 89.9592 36.1267 89.9592V88.1892C33.0269 88.1892 30.4951 90.6737 30.4951 93.7617H32.2651ZM36.1267 89.9592C38.2698 89.9592 39.9882 91.6721 39.9882 93.7617H41.7582C41.7582 90.6737 39.2264 88.1892 36.1267 88.1892V89.9592ZM25.6328 57.7892C25.6328 63.7034 20.7749 68.5166 14.7589 68.5166V70.2866C21.7315 70.2866 27.4028 64.7017 27.4028 57.7892H25.6328ZM14.7589 68.5166C8.74294 68.5166 3.885 63.7034 3.885 57.7892H2.115C2.115 64.7017 7.78638 70.2866 14.7589 70.2866V68.5166ZM3.885 57.7892C3.885 51.875 8.74294 47.0617 14.7589 47.0617V45.2917C7.78637 45.2917 2.115 50.8766 2.115 57.7892H3.885ZM14.7589 47.0617C20.7749 47.0617 25.6328 51.875 25.6328 57.7892H27.4028C27.4028 50.8766 21.7315 45.2917 14.7589 45.2917V47.0617ZM5.86902 65.0097C7.84231 62.2604 11.085 60.4626 14.7589 60.4626V58.6926C10.4943 58.6926 6.72471 60.782 4.43106 63.9777L5.86902 65.0097ZM14.7589 60.4626C18.4384 60.4626 21.443 62.1276 23.435 64.7151L24.8375 63.6354C22.5294 60.6371 19.0179 58.6926 14.7589 58.6926V60.4626ZM18.6205 54.1633C18.6205 56.2529 16.9021 57.9658 14.7589 57.9658V59.7358C17.8586 59.7358 20.3905 57.2513 20.3905 54.1633H18.6205ZM14.7589 57.9658C12.6157 57.9658 10.8973 56.2529 10.8973 54.1633H9.12732C9.12732 57.2513 11.6592 59.7358 14.7589 59.7358V57.9658ZM10.8973 54.1633C10.8973 52.0737 12.6157 50.3609 14.7589 50.3609V48.5909C11.6592 48.5909 9.12732 51.0753 9.12732 54.1633H10.8973ZM14.7589 50.3609C16.9021 50.3609 18.6205 52.0737 18.6205 54.1633H20.3905C20.3905 51.0753 17.8586 48.5909 14.7589 48.5909V50.3609ZM47.0006 21.6125C47.0006 27.5267 42.1426 32.3399 36.1267 32.3399V34.1099C43.0992 34.1099 48.7706 28.5251 48.7706 21.6125H47.0006ZM36.1267 32.3399C30.1107 32.3399 25.2528 27.5267 25.2528 21.6125H23.4828C23.4828 28.5251 29.1541 34.1099 36.1267 34.1099V32.3399ZM25.2528 21.6125C25.2528 15.6983 30.1107 10.885 36.1267 10.885V9.115C29.1541 9.115 23.4828 14.6999 23.4828 21.6125H25.2528ZM36.1267 10.885C42.1426 10.885 47.0006 15.6983 47.0006 21.6125H48.7706C48.7706 14.6999 43.0992 9.115 36.1267 9.115V10.885ZM27.2368 28.833C29.21 26.0837 32.4527 24.2859 36.1267 24.2859V22.5159C31.8621 22.5159 28.0924 24.6052 25.7988 27.801L27.2368 28.833ZM36.1267 24.2859C39.6713 24.2859 42.8145 25.9556 44.8027 28.5384L46.2053 27.4587C43.8935 24.4557 40.2393 22.5159 36.1267 22.5159V24.2859ZM39.9882 17.9867C39.9882 20.0763 38.2698 21.7891 36.1267 21.7891V23.5591C39.2264 23.5591 41.7582 21.0747 41.7582 17.9867H39.9882ZM36.1267 21.7891C33.9835 21.7891 32.2651 20.0763 32.2651 17.9867H30.4951C30.4951 21.0747 33.0269 23.5591 36.1267 23.5591V21.7891ZM32.2651 17.9867C32.2651 15.897 33.9835 14.1842 36.1267 14.1842V12.4142C33.0269 12.4142 30.4951 14.8987 30.4951 17.9867H32.2651ZM36.1267 14.1842C38.2698 14.1842 39.9882 15.897 39.9882 17.9867H41.7582C41.7582 14.8987 39.2264 12.4142 36.1267 12.4142V14.1842ZM34.4149 58.6191H26.3772V60.3891H34.4149V58.6191ZM59.5893 61.0702C58.8345 61.9358 57.8388 63.0053 56.6985 63.9975L57.8604 65.3328C59.0851 64.2671 60.1401 63.1317 60.9234 62.2334L59.5893 61.0702ZM56.6986 63.9974C54.2805 66.1008 52.1156 67.0549 50.2506 67.0549V68.8249C52.7186 68.8249 55.2838 67.574 57.8602 65.3329L56.6986 63.9974ZM50.2506 67.0549C45.5151 67.0549 41.7086 63.3455 41.7086 58.8508H39.9386C39.9386 64.3843 44.5999 68.8249 50.2506 68.8249V67.0549ZM41.7086 58.8508C41.7086 58.1986 41.7901 57.5667 41.9397 56.9536L40.2202 56.5341C40.039 57.2766 39.9386 58.0494 39.9386 58.8508H41.7086ZM57.0176 58.3686C56.3108 59.203 55.3018 60.3244 54.1595 61.3193L55.322 62.654C56.5613 61.5747 57.6362 60.3768 58.3682 59.5126L57.0176 58.3686ZM54.1599 61.319C52.0202 63.1807 50.7725 63.4372 50.2423 63.4372V65.2072C51.3659 65.2072 53.0125 64.6634 55.3217 62.6543L54.1599 61.319ZM50.2423 63.4372C47.5858 63.4372 45.4794 61.3563 45.4794 58.8589H43.7094C43.7094 62.3883 46.6637 65.2072 50.2423 65.2072V63.4372ZM45.4794 58.8589C45.4794 56.3674 47.5891 54.2946 50.2552 54.2807L50.2459 52.5107C46.677 52.5294 43.7094 55.3238 43.7094 58.8589H45.4794ZM50.2506 54.2807C50.208 54.2807 50.1935 54.2722 50.2638 54.2896C50.2998 54.2985 50.3293 54.3065 50.3879 54.3216C50.4401 54.3351 50.5028 54.3508 50.5735 54.3663L50.953 52.6374C50.8518 52.6152 50.8132 52.6021 50.688 52.5712C50.5929 52.5477 50.4337 52.5107 50.2506 52.5107V54.2807ZM60.8573 56.6395C61.6121 55.7739 62.6078 54.7044 63.7481 53.7122L62.5862 52.3769C61.3615 53.4426 60.3065 54.578 59.5232 55.4763L60.8573 56.6395ZM63.748 53.7123C66.1661 51.6089 68.331 50.6549 70.196 50.6549V48.8849C67.728 48.8849 65.1628 50.1357 62.5863 52.3768L63.748 53.7123ZM70.196 50.6549C74.9315 50.6549 78.738 54.3642 78.738 58.8589H80.508C80.508 53.3255 75.8467 48.8849 70.196 48.8849V50.6549ZM78.738 58.8589C78.738 59.5111 78.6564 60.143 78.5069 60.7561L80.2264 61.1756C80.4076 60.4331 80.508 59.6603 80.508 58.8589H78.738ZM63.429 59.3412C64.1358 58.5067 65.1448 57.3853 66.2871 56.3904L65.1246 55.0557C63.8853 56.1351 62.8104 57.3329 62.0784 58.1971L63.429 59.3412ZM66.2867 56.3907C68.4264 54.529 69.674 54.2725 70.2043 54.2725V52.5025C69.0807 52.5025 67.4341 53.0463 65.1249 55.0554L66.2867 56.3907ZM70.2043 54.2725C72.8607 54.2725 74.9672 56.3535 74.9672 58.8508H76.7372C76.7372 55.3214 73.7828 52.5025 70.2043 52.5025V54.2725ZM74.9672 58.8508C74.9672 61.3015 72.9012 63.2189 70.1914 63.2331L70.2006 65.003C73.7259 64.9846 76.7372 62.4267 76.7372 58.8508H74.9672ZM70.196 63.233C70.1529 63.233 69.9956 63.2265 69.8187 63.2178C69.7369 63.2138 69.6592 63.2097 69.6019 63.2067C69.5733 63.2052 69.5498 63.204 69.5335 63.2031C69.5254 63.2026 69.5191 63.2023 69.5148 63.2021C69.5127 63.2019 69.5111 63.2019 69.51 63.2018C69.5095 63.2018 69.5091 63.2018 69.5088 63.2017C69.5087 63.2017 69.5086 63.2017 69.5086 63.2017C69.5085 63.2017 69.5085 63.2017 69.5085 63.2017C69.5085 63.2017 69.5085 63.2017 69.5085 63.2017C69.5085 63.2017 69.5085 63.2017 69.46 64.0854C69.4116 64.9691 69.4116 64.9691 69.4116 64.9691C69.4116 64.9691 69.4116 64.9691 69.4116 64.9691C69.4117 64.9691 69.4117 64.9691 69.4117 64.9691C69.4118 64.9691 69.4119 64.9691 69.4121 64.9691C69.4124 64.9691 69.4129 64.9691 69.4135 64.9692C69.4147 64.9692 69.4164 64.9693 69.4187 64.9695C69.4232 64.9697 69.4298 64.9701 69.4382 64.9705C69.4551 64.9714 69.4792 64.9727 69.5086 64.9743C69.5674 64.9774 69.6473 64.9815 69.732 64.9857C69.8879 64.9933 70.0986 65.003 70.196 65.003V63.233ZM72.4758 63.9356C71.2186 63.904 69.8728 63.3871 68.7221 62.7633C67.5781 62.1431 66.7231 61.4703 66.471 61.2379L65.2714 62.5394C65.6395 62.8787 66.6161 63.6349 67.8785 64.3193C69.1341 65 70.7694 65.6632 72.4312 65.705L72.4758 63.9356ZM66.4691 61.2362C64.8992 59.7977 61.229 55.8503 60.9361 55.5281L59.6262 56.7184C59.9122 57.0332 63.6347 61.0397 65.2733 62.5412L66.4691 61.2362ZM60.9399 55.5322C59.5696 54.0052 57.9232 52.3557 56.132 51.0829C54.3517 49.8179 52.3386 48.8604 50.2506 48.8604V50.6304C51.8093 50.6304 53.4594 51.3552 55.1068 52.5257C56.7432 53.6885 58.2887 55.228 59.6225 56.7143L60.9399 55.5322ZM50.2506 48.8604H50.2423V50.6304H50.2506V48.8604ZM50.2374 48.8604C45.4121 48.8871 41.3225 52.1329 40.2295 56.5133L41.9469 56.9418C42.8385 53.3683 46.2078 50.6527 50.2472 50.6304L50.2374 48.8604ZM41.9394 56.97C41.9371 56.9778 42.2424 56.1173 43.1535 55.2807C44.034 54.4723 45.5186 53.6492 47.9632 53.7088L48.0064 51.9393C45.0925 51.8683 43.1661 52.8662 41.9564 53.9769C40.7774 55.0594 40.3137 56.216 40.2371 56.4851L41.9394 56.97ZM47.9625 53.7088C49.2173 53.7404 50.566 54.2636 51.7221 54.8951C52.8694 55.5218 53.7317 56.2019 53.9885 56.4353L55.1788 55.1252C54.8154 54.7951 53.8378 54.0339 52.5705 53.3417C51.312 52.6543 49.6713 51.9812 48.0071 51.9393L47.9625 53.7088ZM53.9858 56.4327C55.5571 57.8725 59.2211 61.8219 59.5265 62.1493L60.8209 60.942C60.5473 60.6487 56.8187 56.6279 55.1815 55.1277L53.9858 56.4327ZM59.515 62.1367C60.8852 63.6637 62.5316 65.3132 64.3228 66.586C66.1031 67.851 68.1163 68.8085 70.2043 68.8085V67.0385C68.6456 67.0385 66.9954 66.3137 65.3481 65.1432C63.7117 63.9804 62.1661 62.4409 60.8324 60.9546L59.515 62.1367ZM70.2043 68.8085H70.2126V67.0385H70.2043V68.8085ZM70.2175 68.8085C75.0427 68.7818 79.1323 65.536 80.2253 61.1556L78.508 60.7271C77.6163 64.3006 74.2471 67.0162 70.2077 67.0385L70.2175 68.8085ZM78.5155 60.6989C78.519 60.6865 78.2141 61.5386 77.2999 62.3684C76.4167 63.17 74.9266 63.9871 72.475 63.9274L72.432 65.6969C75.3471 65.7679 77.2764 64.7802 78.4895 63.679C79.6715 62.6061 80.1398 61.4575 80.2178 61.1837L78.5155 60.6989ZM71.5685 64.8122V64.8203H73.3385V64.8122H71.5685Z" fill="#463F93"/>
</svg>
