<svg width="120" height="120" viewBox="0 0 120 120" fill="none" xmlns="http://www.w3.org/2000/svg">
<path d="M86.6887 44.5534L86.0624 43.9281L85.8037 44.1872V44.5534H86.6887ZM36.1186 31.3371H37.0036V30.9716L36.7457 30.7126L36.1186 31.3371ZM86.5434 47.7388L85.6617 47.6632L85.6617 47.6636L86.5434 47.7388ZM36.1187 47.7388L36.9999 47.6572L36.9998 47.6561L36.1187 47.7388ZM86.5047 41.2808L85.6328 41.1292L85.6283 41.155L85.6254 41.181L86.5047 41.2808ZM86.5144 106.829L85.6333 106.747L85.6332 106.748L86.5144 106.829ZM36.0896 106.829L36.9714 106.754L36.9713 106.754L36.0896 106.829ZM36.1283 100.371L37.0076 100.272L37.0068 100.264L37.0059 100.257L36.1283 100.371ZM86.4951 100.207L85.6155 100.109L85.6143 100.12L85.6134 100.13L86.4951 100.207ZM73.1209 59.2316C73.1209 58.7429 72.7247 58.3466 72.2359 58.3466C71.7472 58.3466 71.3509 58.7429 71.3509 59.2316H73.1209ZM71.3509 84.6281C71.3509 85.1169 71.7472 85.5131 72.2359 85.5131C72.7247 85.5131 73.1209 85.1169 73.1209 84.6281H71.3509ZM73.1209 93.1001C73.1209 92.6113 72.7247 92.215 72.2359 92.215C71.7472 92.215 71.3509 92.6113 71.3509 93.1001H73.1209ZM71.3509 110.025C71.3509 110.513 71.7472 110.91 72.2359 110.91C72.7247 110.91 73.1209 110.513 73.1209 110.025H71.3509ZM62.8169 44.9697L63.2506 44.1982L63.2289 44.186L63.2065 44.1751L62.8169 44.9697ZM61.1326 42.22L62.006 42.3623L62.0062 42.3616L61.1326 42.22ZM93.1581 36.8213L86.0624 43.9281L87.3149 45.1787L94.4106 38.0719L93.1581 36.8213ZM85.8037 44.5534V81.9752H87.5737V44.5534H85.8037ZM93.0915 33.7286C93.0915 31.2244 95.1165 29.2013 97.608 29.2013V27.4313C94.1365 27.4313 91.3215 30.2493 91.3215 33.7286H93.0915ZM97.608 29.2013C100.098 29.2013 102.115 31.2223 102.115 33.7286H103.885C103.885 30.2513 101.082 27.4313 97.608 27.4313V29.2013ZM102.115 33.7286C102.115 36.2339 100.089 38.256 97.608 38.256V40.026C101.071 40.026 103.885 37.207 103.885 33.7286H102.115ZM97.608 38.256C95.1251 38.256 93.0915 36.2319 93.0915 33.7286H91.3215C91.3215 37.2091 94.1472 40.026 97.608 40.026V38.256ZM25.4918 21.9212L35.4916 31.9617L36.7457 30.7126L26.7459 20.6722L25.4918 21.9212ZM35.2336 31.3371V57.1499H37.0036V31.3371H35.2336ZM26.9182 17.4722C26.9182 19.9742 24.8944 21.9996 22.4016 21.9996V23.7696C25.8752 23.7696 28.6882 20.9485 28.6882 17.4722H26.9182ZM22.4016 21.9996C19.9088 21.9996 17.885 19.9743 17.885 17.4722H16.115C16.115 20.9485 18.9279 23.7696 22.4016 23.7696V21.9996ZM17.885 17.4722C17.885 14.9701 19.9088 12.9448 22.4016 12.9448V11.1748C18.9279 11.1748 16.115 13.9959 16.115 17.4722H17.885ZM22.4016 12.9448C24.8944 12.9448 26.9182 14.9701 26.9182 17.4722H28.6882C28.6882 13.9959 25.8752 11.1748 22.4016 11.1748V12.9448ZM61.4092 12.9312V29.0812H63.1792V12.9312H61.4092ZM67.0335 7.41236C67.0335 9.91441 65.0097 11.9397 62.5169 11.9397V13.7097C65.9905 13.7097 68.8035 10.8886 68.8035 7.41236H67.0335ZM62.5169 11.9397C60.0241 11.9397 58.0003 9.91442 58.0003 7.41236H56.2303C56.2303 10.8886 59.0432 13.7097 62.5169 13.7097V11.9397ZM58.0003 7.41236C58.0003 4.9103 60.0241 2.885 62.5169 2.885V1.115C59.0432 1.115 56.2303 3.93609 56.2303 7.41236H58.0003ZM62.5169 2.885C65.0097 2.885 67.0335 4.91031 67.0335 7.41236H68.8035C68.8035 3.93608 65.9905 1.115 62.5169 1.115V2.885ZM85.6617 47.6636C85.4158 50.5438 82.9441 53.3823 78.5542 55.5387C74.2079 57.6736 68.1854 59.0244 61.3262 59.0244V60.7944C68.397 60.7944 74.6975 59.4051 79.3346 57.1274C83.9281 54.871 87.1 51.6242 87.4252 47.8141L85.6617 47.6636ZM61.3262 59.0244C54.4671 59.0244 48.4594 57.6736 44.1218 55.539C39.7423 53.3837 37.2672 50.5436 36.9999 47.6572L35.2374 47.8204C35.5897 51.6245 38.7533 54.8697 43.3402 57.1271C47.969 59.4051 54.2553 60.7944 61.3262 60.7944V59.0244ZM36.9998 47.6561C36.7522 45.0181 36.7753 42.9037 37.0141 41.2316L35.2619 40.9814C34.9973 42.8337 34.9817 45.0956 35.2375 47.8215L36.9998 47.6561ZM35.256 41.1802C35.5683 44.9173 38.8606 48.03 43.4734 50.1706C48.1453 52.3386 54.4388 53.6489 61.3262 53.6489V51.8789C54.6418 51.8789 48.6122 50.604 44.2185 48.5651C39.7657 46.4987 37.2497 43.7828 37.0199 41.0328L35.256 41.1802ZM61.3262 53.6489C68.2122 53.6489 74.4562 52.3609 79.1021 50.2265C83.693 48.1174 86.9671 45.0561 87.3841 41.3805L85.6254 41.181C85.3163 43.9054 82.7871 46.5857 78.3632 48.6181C73.9943 50.6253 68.0121 51.8789 61.3262 51.8789V53.6489ZM85.6275 41.3977C85.8491 43.0597 85.8805 45.1128 85.6617 47.6632L87.4252 47.8145C87.6517 45.1752 87.6251 42.9875 87.382 41.1638L85.6275 41.3977ZM85.6584 40.603C85.6584 40.8396 85.6562 40.9946 85.6328 41.1292L87.3767 41.4324C87.4307 41.1216 87.4284 40.8119 87.4284 40.603H85.6584ZM85.6254 41.181C85.3167 43.9022 82.763 46.5833 78.3206 48.6177C73.936 50.6256 67.9531 51.8789 61.3262 51.8789V53.6489C68.155 53.6489 74.3983 52.3606 79.0576 50.227C83.6591 48.1197 86.9668 45.0593 87.3841 41.3805L85.6254 41.181ZM61.3262 51.8789C54.7008 51.8789 48.6705 50.6043 44.2611 48.5646C39.7898 46.4963 37.2494 43.7795 37.0199 41.0328L35.256 41.1802C35.5686 44.9206 38.8946 48.0325 43.518 50.1711C48.2032 52.3383 54.496 53.6489 61.3262 53.6489V51.8789ZM37.023 41.1065C37.023 40.9946 37.0164 40.8843 37.0119 40.8044C37.0068 40.7149 37.0036 40.6557 37.0036 40.603H35.2336C35.2336 40.7149 35.2402 40.8252 35.2447 40.9052C35.2498 40.9947 35.253 41.0538 35.253 41.1065H37.023ZM37.0036 40.603C37.0036 37.7755 39.4072 34.958 43.8871 32.7949C48.3047 30.6618 54.4695 29.3175 61.3262 29.3175V27.5475C54.2626 27.5475 47.8236 28.9286 43.1175 31.201C38.4737 33.4433 35.2336 36.7111 35.2336 40.603H37.0036ZM61.3262 29.3175C68.1829 29.3175 74.3502 30.6618 78.7703 32.795C83.2529 34.9583 85.6584 37.7759 85.6584 40.603H87.4284C87.4284 36.7107 84.1855 33.443 79.5396 31.2009C74.8312 28.9286 68.3898 27.5475 61.3262 27.5475V29.3175ZM85.6332 106.748C85.366 109.634 82.8887 112.474 78.5077 114.63C74.1688 116.764 68.161 118.115 61.3068 118.115V119.885C68.373 119.885 74.6592 118.496 79.2891 116.218C83.877 113.96 87.0434 110.715 87.3957 106.911L85.6332 106.748ZM61.3068 118.115C54.4523 118.115 48.4297 116.767 44.0822 114.633C39.6912 112.478 37.2173 109.639 36.9714 106.754L35.2078 106.905C35.533 110.72 38.7076 113.967 43.3023 116.222C47.9406 118.498 54.2411 119.885 61.3068 119.885V118.115ZM36.9713 106.754C36.7525 104.203 36.784 102.141 37.0054 100.489L35.2511 100.254C35.0079 102.068 34.9814 104.266 35.2078 106.905L36.9713 106.754ZM35.2489 100.471C35.6663 104.15 38.974 107.21 43.5755 109.318C48.2347 111.451 54.478 112.74 61.3068 112.74V110.97C54.68 110.97 48.6971 109.716 44.3124 107.708C39.8701 105.674 37.3163 102.993 37.0076 100.272L35.2489 100.471ZM61.3068 112.74C68.1371 112.74 74.4251 111.429 79.1078 109.263C83.7291 107.125 87.0531 104.017 87.3768 100.283L85.6134 100.13C85.3755 102.874 82.8333 105.59 78.3647 107.656C73.9576 109.695 67.9322 110.97 61.3068 110.97V112.74ZM85.6189 100.332C85.8578 102.004 85.8809 104.109 85.6333 106.747L87.3956 106.912C87.6514 104.186 87.6357 101.934 87.3712 100.082L85.6189 100.332ZM85.6294 99.6936C85.6294 99.8745 85.6286 99.9911 85.6155 100.109L87.3746 100.305C87.4003 100.074 87.3994 99.8614 87.3994 99.6936H85.6294ZM85.6134 100.13C85.3753 102.877 82.8554 105.592 78.4038 107.657C74.0111 109.695 67.9863 110.97 61.3068 110.97V112.74C68.1895 112.74 74.4781 111.429 79.1486 109.263C83.7603 107.123 87.0534 104.014 87.3768 100.283L85.6134 100.13ZM61.3068 110.97C54.6259 110.97 48.6436 109.716 44.2734 107.709C39.8479 105.676 37.3167 102.996 37.0076 100.272L35.2489 100.471C35.6659 104.147 38.9429 107.208 43.5346 109.317C48.1817 111.452 54.4256 112.74 61.3068 112.74V110.97ZM37.0059 100.257C36.9834 100.085 36.9746 99.8932 36.9746 99.6936H35.2046C35.2046 99.9395 35.2151 100.213 35.2507 100.486L37.0059 100.257ZM36.9746 99.6936C36.9746 96.8662 39.3781 94.0487 43.8592 91.8856C48.278 89.7525 54.4452 88.4081 61.3068 88.4081V86.6381C54.2384 86.6381 47.797 88.0192 43.0897 90.2916C38.4447 92.5339 35.2046 95.8016 35.2046 99.6936H36.9746ZM61.3068 88.4081C68.1684 88.4081 74.3331 89.7525 78.7495 91.8855C83.2278 94.0484 85.6294 96.8658 85.6294 99.6936H87.3994C87.3994 95.802 84.1622 92.5341 79.5193 90.2916C74.8143 88.0192 68.3752 86.6381 61.3068 86.6381V88.4081ZM85.8037 44.292V102.695H87.5737V44.292H85.8037ZM71.3509 59.2316V84.6281H73.1209V59.2316H71.3509ZM71.3509 93.1001V110.025H73.1209V93.1001H71.3509ZM35.2046 44.292V102.695H36.9746V44.292H35.2046ZM64.8692 38.5213C65.1491 39.3609 65.1488 39.361 65.1486 39.3611C65.1485 39.3611 65.1483 39.3612 65.1482 39.3612C65.148 39.3613 65.1479 39.3613 65.1478 39.3613C65.1477 39.3614 65.1478 39.3613 65.1483 39.3612C65.1492 39.3609 65.1513 39.3602 65.1545 39.3592C65.1609 39.3571 65.1719 39.3536 65.1872 39.3488C65.218 39.3393 65.2664 39.3247 65.3313 39.3062C65.461 39.2692 65.6564 39.2168 65.9081 39.1588C66.4122 39.0427 67.139 38.905 68.0157 38.8228C69.7753 38.6576 72.0997 38.7194 74.433 39.5923L75.0532 37.9345C72.3914 36.9387 69.7788 36.8795 67.8503 37.0605C66.8828 37.1513 66.0777 37.3034 65.5109 37.434C65.2272 37.4993 65.0024 37.5594 64.8458 37.604C64.7675 37.6264 64.7062 37.6449 64.6631 37.6582C64.6415 37.6649 64.6245 37.6703 64.6121 37.6743C64.6059 37.6763 64.6009 37.6779 64.5971 37.6792C64.5952 37.6798 64.5936 37.6803 64.5923 37.6808C64.5916 37.681 64.591 37.6812 64.5905 37.6813C64.5903 37.6814 64.59 37.6815 64.5898 37.6816C64.5895 37.6817 64.5892 37.6818 64.8692 38.5213ZM74.433 39.5923C75.5859 40.0236 76.1979 40.5126 76.4988 40.9344C76.7804 41.3292 76.8324 41.7221 76.7384 42.1233C76.5284 43.0188 75.554 44.0061 74.405 44.481L75.0812 46.1168C76.5555 45.5073 78.0787 44.1611 78.4617 42.5272C78.6641 41.6637 78.5363 40.7428 77.9398 39.9065C77.3625 39.0971 76.3978 38.4375 75.0532 37.9345L74.433 39.5923ZM74.405 44.481C71.887 45.5219 67.4348 46.5501 63.2506 44.1982L62.3833 45.7412C67.2599 48.4822 72.3525 47.2447 75.0812 46.1168L74.405 44.481ZM62.8169 44.9697C63.2065 44.1751 63.2068 44.1752 63.2071 44.1754C63.2072 44.1754 63.2075 44.1756 63.2077 44.1756C63.208 44.1758 63.2083 44.176 63.2086 44.1761C63.2092 44.1764 63.2097 44.1766 63.21 44.1768C63.2108 44.1772 63.211 44.1773 63.2109 44.1772C63.2106 44.1771 63.2085 44.176 63.2049 44.1742C63.1977 44.1704 63.1842 44.1632 63.1654 44.1527C63.1277 44.1315 63.0696 44.0974 62.9987 44.0509C62.8547 43.9563 62.6698 43.8181 62.4966 43.6421C62.1441 43.2839 61.924 42.8654 62.006 42.3623L60.2591 42.0776C60.0507 43.356 60.6728 44.3124 61.2351 44.8837C61.5193 45.1725 61.8099 45.3877 62.0271 45.5303C62.1368 45.6024 62.2307 45.6578 62.2999 45.6966C62.3345 45.716 62.3632 45.7314 62.3847 45.7426C62.3955 45.7483 62.4045 45.7529 62.4117 45.7565C62.4152 45.7583 62.4183 45.7599 62.421 45.7612C62.4223 45.7618 62.4235 45.7624 62.4245 45.763C62.425 45.7632 62.4255 45.7635 62.426 45.7637C62.4262 45.7638 62.4266 45.764 62.4267 45.764C62.427 45.7642 62.4273 45.7643 62.8169 44.9697ZM62.0062 42.3616C62.1287 41.6059 62.5473 40.0068 62.5943 38.5425C62.6425 37.0417 62.3329 35.2653 60.7199 34.2004L59.7447 35.6775C60.5809 36.2295 60.8666 37.198 60.8252 38.4857C60.7827 39.8099 60.4269 41.0428 60.259 42.0783L62.0062 42.3616ZM60.7199 34.2004C58.001 32.4053 52.7864 31.6519 47.918 33.5427L48.5588 35.1926C52.9641 33.4817 57.5654 34.2387 59.7447 35.6775L60.7199 34.2004ZM47.918 33.5427C45.4707 34.4932 44.0124 36.0358 44.0969 37.8757C44.1786 39.655 45.6933 41.0974 47.7297 41.9007L48.3792 40.2542C46.6112 39.5568 45.8994 38.5447 45.865 37.7945C45.8333 37.1049 46.3691 36.0431 48.5588 35.1926L47.918 33.5427ZM47.7297 41.9007C49.7932 42.7147 52.1746 42.8636 53.9867 42.8252C54.9027 42.8057 55.6949 42.7378 56.2595 42.6745C56.5422 42.6428 56.7687 42.6122 56.9262 42.5893C57.005 42.5778 57.0666 42.5682 57.1094 42.5613C57.1308 42.5579 57.1476 42.5551 57.1594 42.5531C57.1653 42.5521 57.17 42.5513 57.1734 42.5508C57.1751 42.5505 57.1766 42.5502 57.1777 42.55C57.1782 42.5499 57.1787 42.5499 57.1791 42.5498C57.1792 42.5498 57.1795 42.5497 57.1796 42.5497C57.1798 42.5497 57.18 42.5496 57.0281 41.6778C56.8762 40.8059 56.8764 40.8059 56.8765 40.8058C56.8765 40.8058 56.8767 40.8058 56.8767 40.8058C56.8768 40.8058 56.8768 40.8058 56.8767 40.8058C56.8765 40.8058 56.8761 40.8059 56.8753 40.806C56.8737 40.8063 56.8709 40.8068 56.867 40.8075C56.859 40.8088 56.8462 40.8109 56.8288 40.8137C56.794 40.8193 56.7409 40.8276 56.6709 40.8378C56.5309 40.8582 56.3238 40.8862 56.0624 40.9155C55.5389 40.9742 54.801 41.0375 53.9491 41.0556C52.2255 41.0922 50.12 40.9409 48.3792 40.2542L47.7297 41.9007Z" fill="#463F93"/>
</svg>
