<svg width="120" height="120" viewBox="0 0 120 120" fill="none" xmlns="http://www.w3.org/2000/svg">
<path d="M61.8972 45.0395L62.779 45.1154L62.7791 45.1144L61.8972 45.0395ZM9.83118 45.0395L8.95007 45.1223L8.95011 45.1228L9.83118 45.0395ZM9.85594 38.3202L10.7374 38.2407L8.98037 38.1914L9.85594 38.3202ZM61.8561 38.4988L62.7325 38.3757L60.9775 38.3928L61.8561 38.4988ZM61.856 38.5069L62.7348 38.6129L62.7362 38.5994L61.856 38.5069ZM9.8559 38.3284L10.7373 38.2488L10.7371 38.247L9.8559 38.3284ZM60.8499 108.134L61.6134 108.581L61.9281 108.045L61.5294 107.567L60.8499 108.134ZM9.80649 105.074L8.92466 105.149L8.92475 105.15L9.80649 105.074ZM9.84766 98.5337L10.7263 98.4277L8.97126 98.4106L9.84766 98.5337ZM58.2442 104.117L59.0387 103.727L58.5527 102.737L57.6915 103.426L58.2442 104.117ZM58.2442 104.125L59.0387 103.735L59.0385 103.735L58.2442 104.125ZM9.84765 98.5418L8.96739 98.6344L8.96902 98.6478L9.84765 98.5418ZM56.1579 90.1022L57.0408 90.1641L57.0419 90.1483L57.0424 90.1324L56.1579 90.1022ZM56.1579 91.4412L57.0428 91.4264L57.0423 91.3979L57.04 91.3695L56.1579 91.4412ZM56.2486 92.9181H57.1336V92.8733L57.1291 92.8286L56.2486 92.9181ZM48.0052 56.717C48.0052 56.2282 47.609 55.832 47.1202 55.832C46.6314 55.832 46.2352 56.2282 46.2352 56.717H48.0052ZM46.2352 82.5147C46.2352 83.0034 46.6314 83.3997 47.1202 83.3997C47.609 83.3997 48.0052 83.0034 48.0052 82.5147H46.2352ZM48.0052 91.1247C48.0052 90.6359 47.609 90.2397 47.1202 90.2397C46.6314 90.2397 46.2352 90.6359 46.2352 91.1247H48.0052ZM46.2352 108.312C46.2352 108.801 46.6314 109.197 47.1202 109.197C47.609 109.197 48.0052 108.801 48.0052 108.312H46.2352ZM37.398 42.2398L37.8267 41.4656L37.8048 41.4535L37.7823 41.4426L37.398 42.2398ZM34.7345 32.0473L35.2194 31.307L35.2183 31.3063L34.7345 32.0473ZM22.3488 31.4631L22.0332 30.6363L22.032 30.6367L22.3488 31.4631ZM60.8499 108.142L61.5329 107.579L61.5294 107.575L60.8499 108.142ZM59.8522 102.607L60.5763 102.099L60.5762 102.098L59.8522 102.607ZM61.8724 105.058L62.5112 104.446L62.5102 104.445L61.8724 105.058ZM97.0505 92.9181L96.1705 92.8234L96.1655 92.8706V92.9181H97.0505ZM74.0437 70.4314L74.7385 69.8832L74.7368 69.881L74.0437 70.4314ZM92.8202 78.1812L92.7102 77.3031L92.8202 78.1812ZM79.9861 84.9635C80.1464 85.4252 80.6506 85.6696 81.1123 85.5093C81.5741 85.349 81.8185 84.8448 81.6582 84.383L79.9861 84.9635ZM80.8221 94.1029L81.7068 94.128L81.7068 94.1278L80.8221 94.1029ZM73.2579 95.2282C73.0279 94.797 72.4918 94.6339 72.0605 94.8639C71.6293 95.094 71.4662 95.63 71.6962 96.0613L73.2579 95.2282ZM77.7324 79.4634C77.7324 78.9746 77.3362 78.5784 76.8474 78.5784C76.3587 78.5784 75.9624 78.9746 75.9624 79.4634H77.7324ZM75.9624 82.328C75.9624 82.8168 76.3587 83.213 76.8474 83.213C77.3362 83.213 77.7324 82.8168 77.7324 82.328H75.9624ZM77.7324 98.1198C77.7324 97.6311 77.3362 97.2348 76.8474 97.2348C76.3587 97.2348 75.9624 97.6311 75.9624 98.1198H77.7324ZM75.9624 100.984C75.9624 101.473 76.3587 101.869 76.8474 101.869C77.3362 101.869 77.7324 101.473 77.7324 100.984H75.9624ZM95.5497 77.6538L95.772 78.5104L95.5497 76.7688V77.6538ZM70.3166 63.0548L69.4619 63.2844L69.4631 63.2888L70.3166 63.0548ZM69.8547 60.9449L70.6823 60.6314L68.9813 61.0877L69.8547 60.9449ZM70.4567 62.3488L71.259 61.9752L71.2541 61.965L70.4567 62.3488ZM70.737 62.925L71.526 62.5241L71.5225 62.5173L71.5189 62.5105L70.737 62.925ZM72.0894 65.2053L72.8266 64.7155L72.8195 64.7052L72.0894 65.2053ZM72.5182 65.8139L71.804 66.3365L71.8077 66.3416L72.5182 65.8139ZM72.9966 66.4307L73.7005 65.8942L73.692 65.8832L73.6833 65.8724L72.9966 66.4307ZM73.4583 66.9906L74.1337 66.4187L74.1286 66.4127L74.1235 66.4069L73.4583 66.9906ZM73.8212 67.4045L74.476 66.8091L74.4691 66.8015L74.462 66.7941L73.8212 67.4045ZM74.2499 67.8589L74.896 67.2542L74.8836 67.2409L74.8706 67.2281L74.2499 67.8589ZM75.1405 68.7435L74.5375 69.3912L74.5439 69.3972L74.5505 69.403L75.1405 68.7435ZM75.6847 69.2222L76.2601 68.5498L76.2578 68.5479L75.6847 69.2222ZM76.262 69.701L76.8209 69.0148L76.8135 69.0088L76.8059 69.0029L76.262 69.701ZM77.0042 70.2691L76.4823 70.9839L76.4875 70.9876L77.0042 70.2691ZM78.307 71.1455L77.8409 71.8978L77.845 71.9003L78.307 71.1455ZM80.3933 72.2735L80.7723 71.4737L80.7657 71.4706L80.3933 72.2735ZM81.0612 72.5819L80.7066 73.3927L80.7134 73.3957L80.7202 73.3986L81.0612 72.5819ZM81.8858 72.9065L82.2152 72.085L82.1997 72.0788L82.184 72.0732L81.8858 72.9065ZM82.5538 73.1499L82.8377 72.3116L82.8296 72.309L82.5538 73.1499ZM84.9039 73.7991L85.1074 72.9378L85.0979 72.9356L85.0883 72.9336L84.9039 73.7991ZM85.5224 73.9208L85.6793 73.0499L85.6697 73.0481L85.66 73.0466L85.5224 73.9208ZM87.3036 74.1643L87.3998 73.2844L87.3867 73.2832L87.3036 74.1643ZM87.9715 74.213L88.0528 73.3317L88.0283 73.3295L88.0037 73.3286L87.9715 74.213ZM88.7632 74.2454L88.7824 73.3607L88.7728 73.3604H88.7632V74.2454ZM94.42 73.5638L94.1937 72.7082L94.1921 72.7086L94.42 73.5638ZM109.255 50.5658L110.078 50.2416L108.382 50.711L109.255 50.5658ZM109.914 52.5621L110.768 52.329L110.767 52.3249L109.914 52.5621ZM95.5415 77.6538L95.3148 76.7983L95.5415 78.5388V77.6538ZM94.4282 73.5638V72.6788H94.3123L94.2003 72.7086L94.4282 73.5638ZM88.7713 74.2454L88.7905 73.3607L88.7809 73.3604H88.7713V74.2454ZM87.9797 74.213L88.034 73.3297L88.0069 73.328H87.9797V74.213ZM87.3118 74.1643L87.408 73.2844L87.3949 73.2832L87.3118 74.1643ZM85.5306 73.9208L85.6875 73.0499L85.6779 73.0481L85.6682 73.0466L85.5306 73.9208ZM84.9121 73.7991L85.1156 72.9378L85.1061 72.9356L85.0965 72.9336L84.9121 73.7991ZM82.562 73.1499L82.8459 72.3116L82.8379 72.309L82.562 73.1499ZM81.894 72.9065L82.2234 72.085L82.2079 72.0788L82.1922 72.0732L81.894 72.9065ZM81.0694 72.5819L80.7148 73.3927L80.7216 73.3957L80.7284 73.3986L81.0694 72.5819ZM80.4015 72.2735L80.7805 71.4737L80.7739 71.4706L80.4015 72.2735ZM78.3152 71.1455L77.8491 71.8978L77.8532 71.9003L78.3152 71.1455ZM77.0124 70.2691L76.4905 70.9839L76.4957 70.9876L77.0124 70.2691ZM76.2702 69.701L76.8291 69.0148L76.8217 69.0088L76.8141 69.0029L76.2702 69.701ZM75.6929 69.2222L76.2683 68.5498L76.266 68.5479L75.6929 69.2222ZM75.1487 68.7435L74.5457 69.3912L74.5521 69.3972L74.5587 69.403L75.1487 68.7435ZM74.2581 67.8589L74.9042 67.2542L74.8918 67.2409L74.8789 67.2281L74.2581 67.8589ZM73.8293 67.4045L74.4841 66.8091L74.4772 66.8015L74.4701 66.794L73.8293 67.4045ZM73.4665 66.9906L74.1419 66.4187L74.1368 66.4127L74.1317 66.4069L73.4665 66.9906ZM73.0047 66.4307L73.7086 65.8942L73.7001 65.8832L73.6914 65.8724L73.0047 66.4307ZM72.5264 65.8139L71.8122 66.3365L71.8159 66.3416L72.5264 65.8139ZM72.0976 65.2053L72.8348 64.7155L72.8277 64.7052L72.0976 65.2053ZM70.7452 62.925L71.5342 62.5241L71.5308 62.5173L71.5272 62.5105L70.7452 62.925ZM70.4649 62.3488L71.2672 61.9752L71.2623 61.965L70.4649 62.3488ZM69.863 60.9449L70.6906 60.6313L70.6886 60.6263L69.863 60.9449ZM69.2115 58.9649L70.0667 58.7372L70.065 58.731L69.2115 58.9649ZM108.809 48.4721L109.663 48.24L109.663 48.2384L108.809 48.4721ZM109.271 50.5658L108.398 50.7102L108.398 50.711L109.271 50.5658ZM94.4365 73.5638V74.4488H94.5515L94.6627 74.4194L94.4365 73.5638ZM90.6796 47.2189C90.9555 47.6223 91.5062 47.7257 91.9096 47.4498C92.3131 47.1739 92.4165 46.6232 92.1406 46.2197L90.6796 47.2189ZM84.1205 50.3386L84.974 50.1046L84.9739 50.104L84.1205 50.3386ZM93.9004 55.8244L93.0403 56.0328L93.0405 56.0336L93.9004 55.8244ZM86.8936 58.8383C86.5592 58.4817 85.9992 58.4638 85.6426 58.7981C85.2861 59.1324 85.2681 59.6925 85.6025 60.049L86.8936 58.8383ZM87.0439 42.4765C86.9147 42.0051 86.4278 41.7277 85.9564 41.857C85.485 41.9862 85.2076 42.4731 85.3369 42.9444L87.0439 42.4765ZM86.0954 45.7117C86.2247 46.1831 86.7115 46.4604 87.1829 46.3312C87.6543 46.202 87.9317 45.7151 87.8025 45.2437L86.0954 45.7117ZM91.9749 60.4912C91.8453 60.0199 91.3582 59.7429 90.8869 59.8725C90.4156 60.0021 90.1386 60.4892 90.2682 60.9604L91.9749 60.4912ZM91.0268 63.7195C91.1564 64.1908 91.6435 64.4678 92.1147 64.3383C92.586 64.2087 92.863 63.7216 92.7335 63.2503L91.0268 63.7195ZM61.0155 44.9636C60.7634 47.892 58.2077 50.7793 53.6663 52.9723C49.1719 55.1425 42.9471 56.5137 35.8643 56.5137V58.2837C43.1545 58.2837 49.6534 56.8755 54.4359 54.5662C59.1713 52.2796 62.4456 48.9874 62.779 45.1154L61.0155 44.9636ZM35.8643 56.5137C28.7816 56.5137 22.5714 55.1425 18.0844 52.9725C13.5521 50.7806 10.9899 47.8913 10.7122 44.9562L8.95011 45.1228C9.31569 48.988 12.5835 52.2783 17.3137 54.5659C22.0892 56.8754 28.5739 58.2837 35.8643 58.2837V56.5137ZM10.7123 44.9566C10.4607 42.2809 10.4813 40.1493 10.7315 38.4491L8.98037 38.1914C8.70279 40.078 8.69041 42.361 8.95007 45.1223L10.7123 44.9566ZM8.97452 38.3998C9.31617 42.1869 12.7119 45.3377 17.4648 47.5052C22.2801 49.7012 28.7637 51.0288 35.8643 51.0288V49.2588C28.9629 49.2588 22.7392 47.9653 18.1992 45.8948C13.5969 43.7959 10.9894 41.0349 10.7374 38.2407L8.97452 38.3998ZM35.8643 51.0288C42.9634 51.0288 49.3945 49.724 54.1814 47.5624C58.9103 45.4269 62.2854 42.3286 62.7347 38.6048L60.9775 38.3928C60.6434 41.161 58.0235 43.8852 53.4529 45.9492C48.9402 47.9871 42.767 49.2588 35.8643 49.2588V51.0288ZM60.9797 38.6219C61.2147 40.2951 61.2347 42.3826 61.0154 44.9646L62.7791 45.1144C63.005 42.4541 62.9922 40.2244 62.7325 38.3757L60.9797 38.6219ZM61.0122 37.7928C61.0122 37.9964 60.9985 38.1993 60.9759 38.4144L62.7362 38.5994C62.7631 38.3438 62.7822 38.0761 62.7822 37.7928H61.0122ZM60.9774 38.4009C60.6438 41.1656 57.9959 43.8908 53.4044 45.9569C48.8739 47.9956 42.7 49.267 35.8642 49.267V51.037C42.8984 51.037 49.3287 49.7318 54.1308 47.571C58.8719 45.4376 62.2849 42.3402 62.7347 38.6129L60.9774 38.4009ZM35.8642 49.267C29.0298 49.267 22.8054 47.9737 18.2476 45.9024C13.6243 43.8014 10.9891 41.0395 10.7373 38.2488L8.97448 38.4079C9.31645 42.1985 12.7503 45.3484 17.5153 47.5138C22.3457 49.709 28.8286 51.037 35.8642 51.037V49.267ZM10.7371 38.247C10.7231 38.0953 10.7161 37.9439 10.7161 37.7928H8.94614C8.94614 37.9987 8.95568 38.2044 8.97465 38.4098L10.7371 38.247ZM10.7161 37.7928C10.7161 34.9203 13.1998 32.0539 17.8343 29.8534C22.402 27.6845 28.775 26.3186 35.8642 26.3186V24.5486C28.5722 24.5486 21.9287 25.9499 17.0751 28.2545C12.2884 30.5273 8.94614 33.8405 8.94614 37.7928H10.7161ZM35.8642 26.3186C42.9534 26.3186 49.3264 27.6845 53.8941 29.8534C58.5286 32.0539 61.0122 34.9203 61.0122 37.7928H62.7822C62.7822 33.8405 59.44 30.5273 54.6533 28.2545C49.7998 25.9499 43.1563 24.5486 35.8642 24.5486V26.3186ZM60.0865 107.686C58.6674 110.107 55.661 112.333 51.409 113.956C47.1795 115.571 41.8174 116.549 35.8395 116.549V118.319C41.9998 118.319 47.5803 117.312 52.0402 115.61C56.4775 113.916 59.9072 111.492 61.6134 108.581L60.0865 107.686ZM35.8395 116.549C28.7525 116.549 22.5277 115.177 18.0345 113.007C13.4943 110.814 10.9404 107.927 10.6882 104.999L8.92475 105.15C9.25808 109.022 12.5301 112.314 17.2647 114.601C22.0462 116.91 28.5452 118.319 35.8395 118.319V116.549ZM10.6883 105C10.469 102.417 10.489 100.33 10.7241 98.6568L8.97126 98.4106C8.71155 100.259 8.69869 102.489 8.92466 105.149L10.6883 105ZM8.96903 98.6397C9.41877 102.367 12.8294 105.464 17.5698 107.598C22.3708 109.759 28.8012 111.064 35.8395 111.064V109.294C28.9995 109.294 22.8257 108.022 18.2962 105.984C13.7061 103.918 11.0599 101.193 10.7263 98.4277L8.96903 98.6397ZM35.8395 111.064C45.4802 111.064 54.0451 108.609 58.797 104.808L57.6915 103.426C53.3727 106.88 45.2638 109.294 35.8395 109.294V111.064ZM57.4498 104.507C58.1899 106.014 59.1024 107.421 60.1704 108.701L61.5294 107.567C60.5525 106.396 59.7169 105.108 59.0387 103.727L57.4498 104.507ZM57.6915 103.434C53.3726 106.888 45.2638 109.302 35.8395 109.302V111.072C45.4802 111.072 54.0451 108.617 58.797 104.816L57.6915 103.434ZM35.8395 109.302C28.9995 109.302 22.8256 108.03 18.2962 105.992C13.7061 103.926 11.0599 101.201 10.7263 98.4358L8.96902 98.6478C9.41876 102.375 12.8294 105.472 17.5698 107.606C22.3708 109.767 28.8012 111.072 35.8395 111.072V109.302ZM10.7278 98.4493C10.7052 98.2343 10.6915 98.0313 10.6915 97.8277H8.92147C8.92147 98.111 8.94062 98.3787 8.96749 98.6343L10.7278 98.4493ZM10.6915 97.8277C10.6915 94.9553 13.1751 92.0889 17.8096 89.8883C22.3773 87.7195 28.7503 86.3535 35.8395 86.3535V84.5835C28.5474 84.5835 21.9039 85.9848 17.0504 88.2894C12.2637 90.5622 8.92147 93.8754 8.92147 97.8277H10.6915ZM35.8395 86.3535C43.9525 86.3535 51.1148 88.1428 55.7068 90.8636L56.6091 89.3408C51.6686 86.4136 44.1692 84.5835 35.8395 84.5835V86.3535ZM55.2751 90.0403C55.2561 90.3118 55.2564 90.5782 55.2564 90.8163H57.0264C57.0264 90.5675 57.0268 90.3633 57.0408 90.1641L55.2751 90.0403ZM55.2564 90.8163C55.2564 91.0204 55.2559 91.268 55.2758 91.5129L57.04 91.3695C57.027 91.2087 57.0264 91.0342 57.0264 90.8163H55.2564ZM55.2729 91.4412C55.2729 91.9821 55.3179 92.513 55.3682 93.0076L57.1291 92.8286C57.0804 92.3494 57.0429 91.8903 57.0429 91.4412H55.2729ZM55.3636 92.9181V92.9506H57.1336V92.9181H55.3636ZM55.3687 92.8559C55.2907 93.5813 55.2564 94.3193 55.2564 95.0524H57.0264C57.0264 94.3735 57.0582 93.6994 57.1286 93.0453L55.3687 92.8559ZM55.2564 95.0524C55.2564 98.4452 56.0476 101.662 57.45 104.515L59.0385 103.735C57.7526 101.118 57.0264 98.1678 57.0264 95.0524H55.2564ZM61.1607 41.5338V76.5501H62.9307V41.5338H61.1607ZM46.2352 56.717V82.5147H48.0052V56.717H46.2352ZM46.2352 91.1247V108.312H48.0052V91.1247H46.2352ZM8.91322 41.5338V100.871H10.6832V41.5338H8.91322ZM39.5172 35.6829C39.7923 36.524 39.792 36.5241 39.7918 36.5242C39.7917 36.5242 39.7915 36.5243 39.7914 36.5243C39.7912 36.5244 39.7911 36.5244 39.7911 36.5244C39.791 36.5245 39.7912 36.5244 39.7917 36.5242C39.7927 36.5239 39.7949 36.5232 39.7983 36.5221C39.805 36.52 39.8165 36.5164 39.8325 36.5116C39.8646 36.5018 39.9148 36.4869 39.9821 36.4681C40.1167 36.4305 40.3191 36.3773 40.5798 36.3184C41.1018 36.2006 41.8541 36.061 42.7614 35.9779C44.5824 35.811 46.9887 35.8751 49.4035 36.7649L50.0154 35.104C47.2764 34.0948 44.5865 34.0332 42.5999 34.2152C41.6033 34.3066 40.774 34.4601 40.1902 34.5918C39.898 34.6578 39.6665 34.7184 39.5055 34.7635C39.4249 34.786 39.3619 34.8046 39.3176 34.8181C39.2955 34.8248 39.2781 34.8303 39.2654 34.8342C39.2591 34.8362 39.254 34.8379 39.2501 34.8391C39.2482 34.8397 39.2466 34.8403 39.2452 34.8407C39.2446 34.8409 39.244 34.8411 39.2435 34.8413C39.2432 34.8413 39.2429 34.8415 39.2428 34.8415C39.2425 34.8416 39.2422 34.8417 39.5172 35.6829ZM49.4035 36.7649C50.5978 37.2049 51.234 37.7049 51.5471 38.1376C51.8397 38.5418 51.8925 38.9422 51.7955 39.3497C51.5782 40.2618 50.5693 41.2694 49.3772 41.7523L50.0417 43.3928C51.5543 42.7801 53.1223 41.4181 53.5173 39.7598C53.7264 38.8821 53.5942 37.9471 52.981 37.0998C52.3883 36.2809 51.398 35.6134 50.0154 35.104L49.4035 36.7649ZM49.3772 41.7523C46.7741 42.8066 42.1589 43.8641 37.8267 41.4656L36.9693 43.0141C41.9883 45.7928 47.2353 44.5295 50.0417 43.3928L49.3772 41.7523ZM37.398 42.2398C37.7823 41.4426 37.7826 41.4427 37.7829 41.4429C37.783 41.4429 37.7833 41.4431 37.7835 41.4431C37.7838 41.4433 37.7841 41.4435 37.7844 41.4436C37.785 41.4439 37.7854 41.4441 37.7858 41.4443C37.7864 41.4446 37.7867 41.4447 37.7864 41.4446C37.786 41.4444 37.7838 41.4433 37.7799 41.4413C37.7722 41.4373 37.758 41.4299 37.7383 41.419C37.6989 41.3973 37.6383 41.3623 37.5646 41.3147C37.4147 41.2179 37.2224 41.0766 37.0423 40.8966C36.6747 40.5293 36.4476 40.1023 36.5314 39.5915L34.7848 39.305C34.5717 40.6038 35.2146 41.5726 35.7912 42.1487C36.0831 42.4404 36.3815 42.6577 36.6043 42.8015C36.7168 42.8742 36.8131 42.9301 36.8838 42.9691C36.9193 42.9886 36.9485 43.0041 36.9705 43.0154C36.9815 43.021 36.9907 43.0257 36.9979 43.0293C37.0015 43.0311 37.0047 43.0326 37.0073 43.0339C37.0086 43.0345 37.0098 43.0351 37.0109 43.0356C37.0114 43.0359 37.0119 43.0361 37.0124 43.0364C37.0126 43.0365 37.013 43.0366 37.0131 43.0367C37.0134 43.0368 37.0137 43.037 37.398 42.2398ZM36.5314 39.5915C36.6567 38.828 37.0866 37.2047 37.1353 35.7159C37.1853 34.1885 36.8669 32.3861 35.2194 31.307L34.2496 32.7877C35.1173 33.356 35.4091 34.3492 35.3663 35.658C35.3222 37.0054 34.9564 38.2588 34.7848 39.305L36.5314 39.5915ZM35.2183 31.3063C32.4255 29.483 27.0427 28.7238 22.0332 30.6363L22.6645 32.2899C27.2204 30.5506 31.9969 31.317 34.2507 32.7884L35.2183 31.3063ZM22.032 30.6367C19.5199 31.6 18.0171 33.1604 18.1056 35.0289C18.1911 36.8352 19.7535 38.2926 21.8474 39.1048L22.4875 37.4546C20.648 36.7411 19.9097 35.7072 19.8736 34.9451C19.8404 34.2452 20.395 33.1601 22.6657 32.2894L22.032 30.6367ZM21.8474 39.1048C23.9735 39.9294 26.4265 40.0804 28.2955 40.0409C29.2398 40.021 30.0564 39.9517 30.6383 39.8874C30.9296 39.8552 31.163 39.824 31.3252 39.8007C31.4063 39.789 31.4697 39.7793 31.5137 39.7723C31.5357 39.7688 31.5529 39.766 31.565 39.764C31.571 39.763 31.5758 39.7622 31.5794 39.7616C31.5811 39.7613 31.5825 39.7611 31.5836 39.7609C31.5842 39.7608 31.5847 39.7607 31.5851 39.7607C31.5853 39.7606 31.5855 39.7606 31.5856 39.7606C31.5858 39.7605 31.586 39.7605 31.4361 38.8883C31.2862 38.0161 31.2863 38.0161 31.2865 38.016C31.2865 38.016 31.2866 38.016 31.2866 38.016C31.2867 38.016 31.2867 38.016 31.2866 38.016C31.2864 38.0161 31.2859 38.0161 31.2851 38.0163C31.2834 38.0166 31.2805 38.017 31.2763 38.0177C31.268 38.0191 31.2547 38.0213 31.2367 38.0241C31.2006 38.0298 31.1456 38.0383 31.0731 38.0487C30.9282 38.0696 30.714 38.0982 30.4437 38.1281C29.9023 38.188 29.1393 38.2527 28.2581 38.2713C26.4761 38.3089 24.2948 38.1556 22.4875 37.4546L21.8474 39.1048ZM96.2727 95.0524C96.2727 105.91 87.4812 114.715 76.6495 114.715V116.485C88.4618 116.485 98.0427 106.884 98.0427 95.0524H96.2727ZM76.6495 114.715C70.5672 114.715 65.1239 111.936 61.5329 107.579L60.167 108.705C64.0799 113.453 70.0163 116.485 76.6495 116.485V114.715ZM61.5294 107.575C60.5525 106.404 59.7169 105.116 59.0387 103.735L57.4498 104.515C58.1899 106.022 59.1024 107.429 60.1704 108.709L61.5294 107.575ZM55.3682 93.04C55.7468 96.7657 57.0808 100.204 59.1282 103.116L60.5762 102.098C58.6984 99.4276 57.4762 96.2766 57.1291 92.8611L55.3682 93.04ZM59.1281 103.116C59.7645 104.022 60.4695 104.876 61.2347 105.672L62.5102 104.445C61.8076 103.714 61.1603 102.93 60.5763 102.099L59.1281 103.116ZM61.2337 105.671C65.1209 109.725 70.5933 112.249 76.6495 112.249V110.479C71.0952 110.479 66.0785 108.166 62.5112 104.446L61.2337 105.671ZM76.6495 112.249C87.7137 112.249 96.8212 103.825 97.9308 93.0412L96.1701 92.86C95.1522 102.753 86.7945 110.479 76.6495 110.479V112.249ZM96.1705 93.0453C96.2409 93.6994 96.2727 94.3735 96.2727 95.0524H98.0427C98.0427 94.3193 98.0084 93.5813 97.9304 92.8559L96.1705 93.0453ZM96.2727 90.8163C96.2727 91.4952 96.2409 92.1693 96.1705 92.8234L97.9304 93.0128C98.0084 92.2874 98.0427 91.5494 98.0427 90.8163H96.2727ZM96.1655 92.9181V92.9506H97.9355V92.9181H96.1655ZM57.1291 92.8286C57.0817 92.3621 57.0506 91.8924 57.0428 91.4264L55.2731 91.4559C55.2818 91.98 55.3166 92.5003 55.3682 93.0076L57.1291 92.8286ZM57.0424 90.1324C57.3739 80.4246 64.7133 72.5048 74.1549 71.3094L73.9326 69.5534C63.6329 70.8574 55.6347 79.4923 55.2735 90.072L57.0424 90.1324ZM73.349 70.9796C77.9469 76.8069 85.357 80.0079 92.9302 79.0594L92.7102 77.3031C85.7702 78.1723 78.9639 75.2384 74.7385 69.8832L73.349 70.9796ZM92.1221 78.7252C94.7185 82.0569 96.2727 86.2571 96.2727 90.8163H98.0427C98.0427 85.8485 96.3479 81.2682 93.5183 77.6372L92.1221 78.7252ZM81.6582 84.383C81.2996 83.3499 80.4508 82.6254 79.5122 82.1916C78.567 81.7548 77.4439 81.5676 76.3628 81.6614C75.2824 81.755 74.1785 82.1363 73.3319 82.9112C72.4655 83.7041 71.9383 84.8472 71.9383 86.3044H73.7083C73.7083 85.3068 74.0532 84.6503 74.5268 84.2169C75.0202 83.7653 75.7243 83.4934 76.5157 83.4248C77.3066 83.3562 78.1192 83.4977 78.7697 83.7983C79.4267 84.102 79.8334 84.5237 79.9861 84.9635L81.6582 84.383ZM71.9383 86.3044C71.9383 87.7632 72.6388 88.7287 73.5898 89.388C74.4692 89.9976 75.6195 90.3804 76.5761 90.7281C77.6027 91.1011 78.4581 91.4478 79.0624 91.9604C79.6061 92.4217 79.9668 93.0351 79.9375 94.078L81.7068 94.1278C81.7517 92.5333 81.1497 91.4101 80.2075 90.6108C79.3259 89.8628 78.1723 89.4249 77.1806 89.0645C76.119 88.6787 75.2418 88.3794 74.5982 87.9333C74.0263 87.5369 73.7083 87.0731 73.7083 86.3044H71.9383ZM79.9375 94.0778C79.9082 95.1111 79.5604 95.8151 79.0912 96.2817C78.6119 96.7585 77.944 97.0481 77.1873 97.1282C75.6326 97.2926 73.9676 96.5587 73.2579 95.2282L71.6962 96.0613C72.8089 98.1472 75.2463 99.1134 77.3735 98.8884C78.4578 98.7736 79.5257 98.3461 80.3395 97.5366C81.1634 96.717 81.666 95.5657 81.7068 94.128L79.9375 94.0778ZM75.9624 79.4634V82.328H77.7324V79.4634H75.9624ZM75.9624 98.1198V100.984H77.7324V98.1198H75.9624ZM95.3275 76.7971C94.4549 77.0235 93.577 77.1945 92.7102 77.3031L92.9302 79.0594C93.8775 78.9407 94.8304 78.7547 95.772 78.5104L95.3275 76.7971ZM74.7368 69.881C73.1283 67.8559 71.8969 65.4721 71.1701 62.8208L69.4631 63.2888C70.2535 66.1721 71.5947 68.7709 73.3507 70.9818L74.7368 69.881ZM71.1713 62.8252C70.9878 62.1424 70.838 61.4738 70.7281 60.8021L68.9813 61.0877C69.1024 61.8281 69.266 62.5553 69.4619 63.2844L71.1713 62.8252ZM69.0272 61.2585C69.2174 61.7605 69.4253 62.2466 69.6593 62.7327L71.2541 61.965C71.0428 61.526 70.8549 61.0869 70.6823 60.6314L69.0272 61.2585ZM69.6544 62.7225C69.7434 62.9134 69.8436 63.1292 69.9551 63.3395L71.5189 62.5105C71.4325 62.3475 71.3514 62.1738 71.259 61.9752L69.6544 62.7225ZM69.948 63.3259C70.3697 64.1557 70.8429 64.9517 71.3593 65.7055L72.8195 64.7052C72.3464 64.0145 71.9125 63.2848 71.526 62.5241L69.948 63.3259ZM71.3523 65.6951C71.5038 65.9231 71.6535 66.1308 71.804 66.3365L73.2325 65.2914C73.0861 65.0913 72.9554 64.9095 72.8265 64.7156L71.3523 65.6951ZM71.8077 66.3416C71.971 66.5615 72.1357 66.7748 72.3098 66.9889L73.6833 65.8724C73.5276 65.6809 73.3788 65.4883 73.2288 65.2863L71.8077 66.3416ZM72.2927 66.9671C72.4574 67.1832 72.6281 67.3863 72.7931 67.5744L74.1235 66.4069C73.9752 66.2379 73.8326 66.0677 73.7005 65.8942L72.2927 66.9671ZM72.7829 67.5625C72.9002 67.7011 73.0348 67.862 73.1804 68.0149L74.462 66.7941C74.3602 66.6873 74.2638 66.5723 74.1337 66.4187L72.7829 67.5625ZM73.1664 67.9998C73.3036 68.1508 73.4602 68.3235 73.6291 68.4897L74.8706 67.2281C74.7427 67.1023 74.6191 66.9666 74.476 66.8091L73.1664 67.9998ZM73.6037 68.4637C73.9088 68.7896 74.2205 69.0961 74.5375 69.3912L75.7436 68.0957C75.4504 67.8228 75.1683 67.545 74.896 67.2542L73.6037 68.4637ZM74.5505 69.403C74.7302 69.5639 74.9201 69.7338 75.1116 69.8966L76.2578 68.5479C76.0865 68.4023 75.9137 68.2477 75.7306 68.0839L74.5505 69.403ZM75.1093 69.8947C75.2965 70.0549 75.5015 70.2304 75.7181 70.3992L76.8059 69.0029C76.6267 68.8633 76.4522 68.7142 76.2601 68.5498L75.1093 69.8947ZM75.7031 70.3873C75.9589 70.5955 76.2199 70.7923 76.4823 70.9838L77.526 69.5543C77.2772 69.3726 77.0434 69.1961 76.8209 69.0148L75.7031 70.3873ZM76.4875 70.9876C76.7124 71.1494 76.9359 71.3016 77.149 71.4468L78.1456 69.984C77.9299 69.8371 77.7247 69.6972 77.5209 69.5506L76.4875 70.9876ZM77.149 71.4468C77.3719 71.5987 77.6054 71.7519 77.8409 71.8978L78.7732 70.3932C78.5633 70.2632 78.3515 70.1243 78.1456 69.984L77.149 71.4468ZM77.845 71.9003C78.544 72.3282 79.2669 72.7266 80.021 73.0764L80.7657 71.4706C80.085 71.1549 79.4224 70.7906 78.769 70.3907L77.845 71.9003ZM80.0144 73.0733C80.2348 73.1777 80.4696 73.2891 80.7066 73.3927L81.4158 71.771C81.2075 71.6799 80.9971 71.5803 80.7723 71.4737L80.0144 73.0733ZM80.7202 73.3986C80.9965 73.5139 81.2936 73.6345 81.5876 73.7397L82.184 72.0732C81.9338 71.9837 81.6702 71.8771 81.4022 71.7652L80.7202 73.3986ZM81.5565 73.7279C81.7964 73.8241 82.0369 73.9118 82.278 73.9908L82.8296 72.309C82.6254 72.242 82.4206 72.1674 82.2152 72.085L81.5565 73.7279ZM82.27 73.9882C83.067 74.2581 83.8836 74.4866 84.7195 74.6647L85.0883 72.9336C84.3245 72.7708 83.5744 72.5611 82.8376 72.3117L82.27 73.9882ZM84.7005 74.6604C84.9281 74.7142 85.1562 74.7591 85.3847 74.7951L85.66 73.0466C85.4763 73.0177 85.2921 72.9815 85.1074 72.9378L84.7005 74.6604ZM85.3654 74.7918C85.9758 74.9018 86.5941 74.9863 87.2204 75.0454L87.3867 73.2832C86.8091 73.2287 86.24 73.1509 85.6793 73.0499L85.3654 74.7918ZM87.2074 75.0441C87.4512 75.0707 87.6951 75.0885 87.9392 75.0974L88.0037 73.3286C87.8025 73.3212 87.6013 73.3066 87.3998 73.2845L87.2074 75.0441ZM87.8902 75.0942C88.1892 75.1218 88.4818 75.1304 88.7632 75.1304V73.3604C88.5167 73.3604 88.2814 73.3528 88.0528 73.3317L87.8902 75.0942ZM88.7439 75.1302C90.69 75.1726 92.6781 74.9438 94.6478 74.419L94.1921 72.7086C92.3852 73.1901 90.5636 73.3994 88.7824 73.3607L88.7439 75.1302ZM94.6462 74.4194C105.345 71.5904 111.908 61.1294 110.128 50.4207L108.382 50.711C110.015 60.5332 103.995 70.1164 94.1937 72.7082L94.6462 74.4194ZM108.431 50.8901C108.673 51.5046 108.878 52.14 109.062 52.7993L110.767 52.3249C110.571 51.6209 110.348 50.9255 110.078 50.2416L108.431 50.8901ZM109.061 52.7952C111.926 63.2886 105.77 74.0281 95.3148 76.7983L95.7681 78.5092C107.181 75.4853 113.89 63.7624 110.768 52.329L109.061 52.7952ZM95.5415 78.5388H95.5497V76.7688H95.5415V78.5388ZM94.2003 72.7086C92.3934 73.1901 90.5717 73.3994 88.7905 73.3607L88.752 75.1302C90.6981 75.1726 92.6863 74.9438 94.656 74.419L94.2003 72.7086ZM88.7713 73.3604C88.5391 73.3604 88.3025 73.3462 88.034 73.3297L87.9253 75.0963C88.1846 75.1123 88.4756 75.1304 88.7713 75.1304V73.3604ZM87.9797 73.328C87.8134 73.328 87.6389 73.3098 87.408 73.2845L87.2156 75.0441C87.43 75.0675 87.7007 75.098 87.9797 75.098V73.328ZM87.3949 73.2832C86.8173 73.2287 86.2482 73.1509 85.6875 73.0499L85.3737 74.7918C85.984 74.9018 86.6023 74.9863 87.2286 75.0454L87.3949 73.2832ZM85.6682 73.0466C85.4845 73.0177 85.3003 72.9814 85.1156 72.9378L84.7087 74.6604C84.9363 74.7142 85.1644 74.7591 85.3929 74.7951L85.6682 73.0466ZM85.0965 72.9336C84.3327 72.7708 83.5826 72.5611 82.8458 72.3117L82.2782 73.9882C83.0752 74.2581 83.8918 74.4866 84.7277 74.6647L85.0965 72.9336ZM82.8379 72.309C82.6336 72.242 82.4288 72.1674 82.2234 72.085L81.5647 73.7279C81.8046 73.8241 82.0451 73.9118 82.2862 73.9908L82.8379 72.309ZM82.1922 72.0732C81.942 71.9837 81.6784 71.8771 81.4104 71.7652L80.7284 73.3986C81.0047 73.5139 81.3018 73.6345 81.5958 73.7397L82.1922 72.0732ZM81.424 71.771C81.2158 71.6799 81.0053 71.5803 80.7805 71.4737L80.0226 73.0733C80.243 73.1777 80.4778 73.2891 80.7148 73.3927L81.424 71.771ZM80.7739 71.4706C80.0932 71.1549 79.4306 70.7906 78.7772 70.3907L77.8532 71.9003C78.5522 72.3282 79.2751 72.7266 80.0292 73.0764L80.7739 71.4706ZM78.7814 70.3932C78.5715 70.2632 78.3597 70.1243 78.1538 69.984L77.1572 71.4468C77.3801 71.5986 77.6136 71.7519 77.8491 71.8978L78.7814 70.3932ZM78.1538 69.984C77.9381 69.8371 77.7329 69.6972 77.5291 69.5506L76.4957 70.9876C76.7206 71.1494 76.9441 71.3016 77.1572 71.4468L78.1538 69.984ZM77.5342 69.5543C77.2854 69.3726 77.0516 69.1961 76.8291 69.0148L75.7113 70.3872C75.9671 70.5955 76.2281 70.7923 76.4905 70.9838L77.5342 69.5543ZM76.8141 69.0029C76.6349 68.8633 76.4604 68.7142 76.2683 68.5498L75.1175 69.8947C75.3047 70.0549 75.5097 70.2304 75.7263 70.3992L76.8141 69.0029ZM76.266 68.5479C76.0947 68.4023 75.9219 68.2477 75.7388 68.0839L74.5587 69.403C74.7384 69.5638 74.9283 69.7338 75.1198 69.8966L76.266 68.5479ZM75.7518 68.0957C75.4586 67.8228 75.1765 67.545 74.9042 67.2542L73.612 68.4637C73.917 68.7896 74.2287 69.0961 74.5457 69.3912L75.7518 68.0957ZM74.8789 67.2281C74.7509 67.1022 74.627 66.9663 74.4841 66.8091L73.1745 67.9998C73.3119 68.151 73.4685 68.3235 73.6373 68.4897L74.8789 67.2281ZM74.4701 66.794C74.3684 66.6873 74.2722 66.5726 74.1419 66.4187L72.7911 67.5625C72.9082 67.7008 73.0428 67.862 73.1885 68.0149L74.4701 66.794ZM74.1317 66.4069C73.9832 66.2377 73.8406 66.0675 73.7086 65.8942L72.3008 66.9671C72.4656 67.1834 72.6364 67.3865 72.8013 67.5744L74.1317 66.4069ZM73.6914 65.8724C73.5358 65.681 73.3871 65.4885 73.237 65.2863L71.8159 66.3416C71.9791 66.5614 72.1437 66.7746 72.318 66.9889L73.6914 65.8724ZM73.2407 65.2914C73.0943 65.0913 72.9636 64.9095 72.8348 64.7156L71.3605 65.6951C71.512 65.9231 71.6617 66.1308 71.8122 66.3365L73.2407 65.2914ZM72.8277 64.7052C72.3546 64.0145 71.9207 63.2848 71.5342 62.5241L69.9562 63.3259C70.3779 64.1557 70.8511 64.9517 71.3675 65.7055L72.8277 64.7052ZM71.5272 62.5105C71.4407 62.3475 71.3596 62.1738 71.2672 61.9752L69.6626 62.7225C69.7516 62.9134 69.8518 63.1292 69.9633 63.3395L71.5272 62.5105ZM71.2623 61.965C71.051 61.526 70.8631 61.0869 70.6905 60.6314L69.0354 61.2585C69.2256 61.7605 69.4335 62.2466 69.6675 62.7327L71.2623 61.965ZM70.6886 60.6263C70.4501 60.0082 70.2382 59.3817 70.0667 58.7373L68.3562 59.1925C68.5476 59.9113 68.781 60.5995 69.0373 61.2635L70.6886 60.6263ZM70.065 58.731C67.1923 48.2462 73.3475 37.4989 83.8029 34.7287L83.3496 33.0177C71.9362 36.0417 65.2274 47.7729 68.3579 59.1987L70.065 58.731ZM83.8029 34.7287C94.2641 31.957 105.082 38.2077 107.956 48.7058L109.663 48.2384C106.534 36.8098 94.7571 29.9953 83.3496 33.0177L83.8029 34.7287ZM107.955 48.7042C108.138 49.3773 108.288 50.0457 108.398 50.7102L110.144 50.4214C110.023 49.6901 109.86 48.9628 109.663 48.24L107.955 48.7042ZM108.398 50.711C110.031 60.5332 104.012 70.1164 94.2102 72.7082L94.6627 74.4194C105.361 71.5904 111.925 61.1294 110.144 50.4207L108.398 50.711ZM94.4365 72.6788H94.4282V74.4488H94.4365V72.6788ZM92.1406 46.2197C91.5236 45.3175 90.5156 44.8364 89.496 44.6579C88.4691 44.4782 87.3352 44.5843 86.3153 44.9513C85.2962 45.318 84.3287 45.9692 83.7146 46.9365C83.0858 47.9269 82.8807 49.1673 83.2672 50.5732L84.9739 50.104C84.7089 49.1403 84.8687 48.4209 85.2089 47.8852C85.5636 47.3264 86.1691 46.885 86.9146 46.6168C87.6594 46.3488 88.4819 46.2774 89.1908 46.4014C89.907 46.5268 90.4142 46.8308 90.6796 47.2189L92.1406 46.2197ZM83.267 50.5726C83.6526 51.9789 84.582 52.7288 85.6716 53.1206C86.6806 53.4835 87.8913 53.5586 88.9069 53.6495C89.9958 53.747 90.9139 53.863 91.6334 54.2045C92.2824 54.5124 92.7937 55.0155 93.0403 56.0328L94.7605 55.6159C94.3846 54.0648 93.5096 53.1356 92.3923 52.6054C91.3456 52.1087 90.1176 51.9808 89.0647 51.8866C87.9383 51.7857 87.0112 51.7214 86.2705 51.4551C85.6104 51.2177 85.1781 50.8488 84.974 50.1046L83.267 50.5726ZM93.0405 56.0336C93.2856 57.0408 93.1351 57.8087 92.8069 58.3768C92.4716 58.9573 91.9054 59.4066 91.1968 59.6767C89.7417 60.2316 87.9358 59.9497 86.8936 58.8383L85.6025 60.049C87.2237 61.7779 89.8295 62.0924 91.8275 61.3306C92.8455 60.9424 93.7661 60.2551 94.3396 59.2621C94.9204 58.2566 95.1008 57.014 94.7603 55.6151L93.0405 56.0336ZM85.3369 42.9444L86.0954 45.7117L87.8025 45.2437L87.0439 42.4765L85.3369 42.9444ZM90.2682 60.9604L91.0268 63.7195L92.7335 63.2503L91.9749 60.4912L90.2682 60.9604Z" fill="#463F93"/>
</svg>
