<svg width="100" height="92" viewBox="0 0 100 92" fill="none" xmlns="http://www.w3.org/2000/svg">
<path d="M50.3333 63.5353L31.4145 53.026V35.5262M50.3333 63.5353V46.0355M50.3333 63.5353L69.252 53.026V35.5262L50.3333 46.0355M50.3333 46.0355L31.4145 35.5262M31.4145 35.5262L50.3647 46.0276L69.2127 35.4867L50.2625 25.7506L31.4145 35.5262ZM78.5069 85.485C83.4922 81.1455 85.977 74.0289 85.9927 65.5867C86.0006 59.5667 84.766 52.8839 82.297 46.0276M78.5069 85.485C77.87 84.5619 76.8085 83.9543 75.6054 83.9543C73.671 83.9543 72.0984 85.5323 72.0984 87.4811C72.0984 88.0019 72.2086 88.4989 72.413 88.9408M78.5069 85.485C78.8922 86.053 79.1203 86.7395 79.1203 87.4811C79.1203 89.4299 77.5476 91 75.6054 91C74.1901 91 72.9634 90.1558 72.413 88.9408M72.413 88.9408C65.9888 91.0316 58.1727 89.6035 50.341 85.3272M50.341 85.3272C45.2064 82.5341 40.0717 78.5103 35.3067 73.4687C32.0041 69.9814 28.8903 65.997 26.0832 61.5944C22.8121 56.466 20.2409 51.2034 18.3773 46.0276M50.341 85.3272C55.4678 82.5341 60.6026 78.5182 65.3677 73.4687C68.6702 69.9814 71.784 66.0049 74.5911 61.5944C77.8622 56.466 80.4334 51.2113 82.297 46.0276M50.341 85.3272C42.0926 89.8244 33.8678 91.1815 27.2548 88.5778M18.3773 46.0276C15.9004 39.1555 14.6659 32.4412 14.6816 26.4133C14.713 18.3499 16.9934 11.5014 21.5619 7.12255M18.3773 46.0276C15.9083 52.876 14.6816 59.5667 14.6816 65.5867C14.6974 73.6659 16.9699 80.5222 21.5305 84.9011M18.3773 46.0276C20.2409 40.8518 22.8122 35.5893 26.0832 30.4688C28.914 26.0268 32.0514 22.0266 35.3775 18.5156C40.119 13.5055 45.2378 9.51319 50.341 6.73595M21.5619 7.12255C22.1831 7.69851 23.0166 8.0457 23.9208 8.0457C25.8552 8.0457 27.4279 6.4677 27.4279 4.51889C27.4279 4.15596 27.3728 3.80093 27.2705 3.47745M21.5619 7.12255C20.8463 6.48347 20.406 5.55246 20.406 4.51889C20.406 2.57797 21.9787 1 23.9209 1C25.4935 1 26.8223 2.04148 27.2705 3.47745M27.2705 3.47745C33.8756 0.881671 42.1004 2.23871 50.341 6.73595M50.341 6.73595C55.4442 9.52108 60.5553 13.5134 65.2968 18.5156C68.6229 22.0266 71.7604 26.0268 74.5911 30.4688C77.8622 35.5893 80.4334 40.8518 82.297 46.0276M50.341 6.73595C58.1649 2.45963 65.9731 1.02367 72.3973 3.11449M82.297 46.0276C84.7738 39.1555 86.0085 32.4412 85.9927 26.4133C85.9613 17.9791 83.4765 10.8782 78.4755 6.5466M27.2548 88.5778C27.3649 88.2307 27.4279 87.8599 27.4279 87.4811C27.4279 85.5323 25.8552 83.9543 23.9209 83.9543C23.0009 83.9543 22.1596 84.3094 21.5305 84.9011M27.2548 88.5778C26.7988 89.9901 25.4778 91 23.9209 91C21.9787 91 20.406 89.4299 20.406 87.4811C20.406 86.4633 20.8386 85.5402 21.5305 84.9011M72.3973 3.11449C72.2007 3.54055 72.0985 4.02183 72.0985 4.51889C72.0985 6.4677 73.6711 8.0457 75.6054 8.0457C76.7928 8.0457 77.8465 7.45394 78.4755 6.5466M72.3973 3.11449C72.932 1.86789 74.1665 1 75.6054 1C77.5476 1 79.1203 2.57797 79.1203 4.51889C79.1203 5.27632 78.8844 5.97853 78.4755 6.5466M98.8333 45.9961C98.8333 61.9531 77.1191 74.8888 50.3333 74.8888C23.5475 74.8888 1.83325 61.9531 1.83325 45.9961C1.83325 30.039 23.5475 17.1033 50.3333 17.1033C77.1191 17.1033 98.8333 30.039 98.8333 45.9961Z" stroke="url(#paint0_linear_6246_98953)" stroke-width="1.77" stroke-linejoin="round"/>
<defs>
<linearGradient id="paint0_linear_6246_98953" x1="1.83325" y1="1" x2="100.266" y2="24.7785" gradientUnits="userSpaceOnUse">
<stop stop-color="#3B00B9"/>
<stop offset="1" stop-color="#2586B6"/>
</linearGradient>
</defs>
</svg>
