<svg width="74" height="101" viewBox="0 0 74 101" fill="none" xmlns="http://www.w3.org/2000/svg">
<path d="M59.344 37.0067L58.7144 36.3847L58.459 36.6433V37.0067H59.344ZM17.0063 25.8237H17.8913V25.461L17.6367 25.2026L17.0063 25.8237ZM59.2224 39.7021L58.3406 39.6272L58.3406 39.6276L59.2224 39.7021ZM17.0063 39.7021L17.8876 39.6213L17.8875 39.6203L17.0063 39.7021ZM59.19 34.2376L58.3178 34.0875L58.3134 34.1131L58.3105 34.1389L59.19 34.2376ZM59.1981 89.7018L58.3169 89.62L58.3168 89.6211L59.1981 89.7018ZM16.982 89.7018L17.8638 89.6275L17.8638 89.627L16.982 89.7018ZM17.0144 84.2373L17.8939 84.1386L17.893 84.1313L17.8921 84.1241L17.0144 84.2373ZM59.1819 84.0981L58.3022 84.0014L58.3011 84.0119L58.3001 84.0224L59.1819 84.0981ZM48.1291 49.4268C48.1291 48.938 47.7328 48.5418 47.2441 48.5418C46.7553 48.5418 46.3591 48.938 46.3591 49.4268H48.1291ZM46.3591 70.9161C46.3591 71.4049 46.7553 71.8011 47.2441 71.8011C47.7328 71.8011 48.1291 71.4049 48.1291 70.9161H46.3591ZM48.1291 78.0847C48.1291 77.5959 47.7328 77.1997 47.2441 77.1997C46.7553 77.1997 46.3591 77.5959 46.3591 78.0847H48.1291ZM46.3591 92.4054C46.3591 92.8942 46.7553 93.2904 47.2441 93.2904C47.7328 93.2904 48.1291 92.8942 48.1291 92.4054H46.3591ZM39.3584 37.359L39.7955 36.5895L39.7737 36.5771L39.7513 36.566L39.3584 37.359ZM37.9482 35.0323L38.8219 35.1732L38.822 35.1724L37.9482 35.0323ZM64.655 30.3713L58.7144 36.3847L59.9736 37.6287L65.9142 31.6153L64.655 30.3713ZM58.459 37.0067V68.6713H60.229V37.0067H58.459ZM64.8486 27.8473C64.8486 25.7945 66.4884 24.1526 68.4858 24.1526V22.3826C65.4908 22.3826 63.0786 24.8371 63.0786 27.8473H64.8486ZM68.4858 24.1526C70.4811 24.1526 72.115 25.7924 72.115 27.8473H73.885C73.885 24.8392 71.4828 22.3826 68.4858 22.3826V24.1526ZM72.115 27.8473C72.115 29.9012 70.4741 31.542 68.4858 31.542V33.312C71.4737 33.312 73.885 30.8565 73.885 27.8473H72.115ZM68.4858 31.542C66.4955 31.542 64.8486 29.8991 64.8486 27.8473H63.0786C63.0786 30.8586 65.5 33.312 68.4858 33.312V31.542ZM8.00402 17.9491L16.3759 26.4449L17.6367 25.2026L9.26476 16.7068L8.00402 17.9491ZM16.1213 25.8237V47.6653H17.8913V25.8237H16.1213ZM9.15956 14.0919C9.15956 16.1429 7.52059 17.7865 5.52225 17.7865V19.5565C8.5191 19.5565 10.9296 17.0994 10.9296 14.0919H9.15956ZM5.52225 17.7865C3.52393 17.7865 1.885 16.1429 1.885 14.0919H0.115C0.115 17.0994 2.52539 19.5565 5.52225 19.5565V17.7865ZM1.885 14.0919C1.885 12.0408 3.52393 10.3972 5.52225 10.3972V8.62716C2.52539 8.62716 0.115 11.0844 0.115 14.0919H1.885ZM5.52225 10.3972C7.52059 10.3972 9.15956 12.0408 9.15956 14.0919H10.9296C10.9296 11.0843 8.5191 8.62716 5.52225 8.62716V10.3972ZM38.0358 10.2495V23.9148H39.8058V10.2495H38.0358ZM42.7444 5.57969C42.7444 7.63077 41.1055 9.27438 39.1071 9.27438V11.0444C42.104 11.0444 44.5144 8.5872 44.5144 5.57969H42.7444ZM39.1071 9.27438C37.1088 9.27438 35.4699 7.63078 35.4699 5.57969H33.6999C33.6999 8.58719 36.1103 11.0444 39.1071 11.0444V9.27438ZM35.4699 5.57969C35.4699 3.5286 37.1088 1.885 39.1071 1.885V0.115C36.1103 0.115 33.6999 2.57219 33.6999 5.57969H35.4699ZM39.1071 1.885C41.1055 1.885 42.7444 3.52862 42.7444 5.57969H44.5144C44.5144 2.57218 42.104 0.115 39.1071 0.115V1.885ZM58.3406 39.6276C58.1404 41.9973 56.1226 44.3665 52.4669 46.1814C48.8527 47.9757 43.8344 49.1152 38.1103 49.1152V50.8853C44.0485 50.8853 49.3473 49.7063 53.254 47.7668C57.1192 45.8479 59.8263 43.068 60.1043 39.7766L58.3406 39.6276ZM38.1103 49.1152C32.3864 49.1152 27.3805 47.9758 23.7736 46.1817C20.1269 44.3678 18.1053 41.997 17.8876 39.6213L16.125 39.7828C16.426 43.0683 19.1253 45.8465 22.9853 47.7665C26.8851 49.7062 32.172 50.8853 38.1103 50.8853V49.1152ZM17.8875 39.6203C17.6808 37.3943 17.7007 35.6158 17.8988 34.214L16.1462 33.9663C15.9229 35.5466 15.9104 37.4711 16.1251 39.7839L17.8875 39.6203ZM16.1405 34.163C16.4079 37.3971 19.2216 40.0628 23.0999 41.8817C27.0348 43.7272 32.3264 44.8391 38.1103 44.8391V43.0691C32.5318 43.0691 27.5064 41.9935 23.8515 40.2792C20.1399 38.5385 18.0909 36.2722 17.9045 34.0172L16.1405 34.163ZM38.1103 44.8391C43.8928 44.8391 49.1428 43.7462 53.0559 41.9293C56.9162 40.1368 59.7126 37.5159 60.0695 34.3363L58.3105 34.1389C58.0596 36.3747 55.9974 38.6119 52.3104 40.3239C48.6762 42.0114 43.6903 43.0691 38.1103 43.0691V44.8391ZM58.3126 34.3533C58.4966 35.748 58.5233 37.4756 58.3406 39.6272L60.1042 39.7769C60.2944 37.5373 60.2725 35.6766 60.0674 34.1219L58.3126 34.3533ZM58.3374 33.6641C58.3374 33.8663 58.3353 33.9863 58.3178 34.0875L60.0622 34.3876C60.1096 34.112 60.1074 33.8388 60.1074 33.6641H58.3374ZM58.3105 34.1389C58.06 36.3714 55.9779 38.6096 52.275 40.3234C48.6273 42.0117 43.6407 43.0691 38.1103 43.0691V44.8391C43.8451 44.8391 49.0945 43.7459 53.0184 41.9297C56.887 40.1392 59.7122 37.5191 60.0695 34.3363L58.3105 34.1389ZM38.1103 43.0691C32.5813 43.0691 27.5553 41.9938 23.887 40.2788C20.1593 38.5361 18.0907 36.269 17.9045 34.0172L16.1405 34.163C16.4082 37.4004 19.2508 40.0652 23.1373 41.8822C27.0831 43.7269 32.3741 44.8391 38.1103 44.8391V43.0691ZM17.9075 34.0901C17.9075 33.9912 17.9018 33.8942 17.898 33.8273C17.8937 33.7508 17.8913 33.7044 17.8913 33.6641H16.1213C16.1213 33.763 16.127 33.86 16.1308 33.927C16.1351 34.0034 16.1375 34.0498 16.1375 34.0901H17.9075ZM17.8913 33.6641C17.8913 31.3485 19.8426 29.0002 23.5761 27.1782C27.2503 25.3852 32.3879 24.2509 38.1103 24.2509V22.4809C32.1785 22.4809 26.7641 23.6529 22.7998 25.5875C18.8949 27.4932 16.1213 30.294 16.1213 33.6641H17.8913ZM38.1103 24.2509C43.8327 24.2509 48.9725 25.3852 52.6487 27.1783C56.3846 29.0005 58.3374 31.3488 58.3374 33.6641H60.1074C60.1074 30.2937 57.3313 27.4929 53.4247 25.5875C49.4584 23.6529 44.0421 22.4809 38.1103 22.4809V24.2509ZM58.3168 89.6211C58.0992 91.9965 56.0759 94.3674 52.4279 96.1814C48.8198 97.9755 43.8139 99.115 38.0941 99.115V100.885C44.0285 100.885 49.3153 99.7059 53.216 97.7663C57.0767 95.8465 59.7784 93.0683 60.0794 89.7826L58.3168 89.6211ZM38.0941 99.115C32.3739 99.115 27.3556 97.9774 23.7403 96.1841C20.0837 94.3702 18.064 92.001 17.8638 89.6275L16.1001 89.7762C16.3781 93.072 19.0874 95.8518 22.9537 97.7697C26.8614 99.7081 32.1601 100.885 38.0941 100.885V99.115ZM17.8638 89.627C17.6811 87.475 17.7079 85.7396 17.8917 84.3537L16.1371 84.121C15.9319 85.6681 15.91 87.5374 16.1002 89.7767L17.8638 89.627ZM16.1349 84.3361C16.4921 87.5188 19.3174 90.1389 23.186 91.9295C27.1099 93.7456 32.3593 94.8388 38.0941 94.8388V93.0688C32.5637 93.0688 27.5771 92.0114 23.9294 90.3232C20.2265 88.6093 18.1444 86.3712 17.8939 84.1386L16.1349 84.3361ZM38.0941 94.8388C43.8304 94.8388 49.1173 93.7266 53.061 91.883C56.9458 90.0669 59.7866 87.4049 60.0637 84.1737L58.3001 84.0224C58.1072 86.2721 56.0366 88.538 52.3114 90.2796C48.645 91.9936 43.623 93.0688 38.0941 93.0688V94.8388ZM58.3056 84.2219C58.5037 85.6238 58.5236 87.3941 58.3169 89.62L60.0793 89.7837C60.2941 87.4708 60.2815 85.5545 60.0582 83.9742L58.3056 84.2219ZM58.3131 83.6638C58.3131 83.8178 58.3123 83.9096 58.3022 84.0014L60.0616 84.1948C60.0839 83.9916 60.0831 83.8048 60.0831 83.6638H58.3131ZM58.3001 84.0224C58.1069 86.2751 56.0544 88.5402 52.3439 90.28C48.6898 91.9933 43.6684 93.0688 38.0941 93.0688V94.8388C43.8741 94.8388 49.1616 93.7269 53.0953 91.8826C56.9726 90.0646 59.7868 87.4019 60.0637 84.1737L58.3001 84.0224ZM38.0941 93.0688C32.5182 93.0688 27.5323 92.0112 23.8969 90.3236C20.2086 88.6115 18.1448 86.3741 17.8939 84.1386L16.1349 84.3361C16.4918 87.5159 19.2906 90.1368 23.1517 91.9291C27.0656 93.7459 32.3156 94.8388 38.0941 94.8388V93.0688ZM17.8921 84.1241C17.8742 83.9856 17.867 83.8294 17.867 83.6638H16.097C16.097 83.8752 16.1059 84.1122 16.1367 84.3506L17.8921 84.1241ZM17.867 83.6638C17.867 81.3483 19.8182 79 23.5527 77.178C27.2279 75.385 32.3676 74.2507 38.0941 74.2507V72.4807C32.1583 72.4807 26.7419 73.6526 22.7766 75.5872C18.8707 77.4929 16.097 80.2937 16.097 83.6638H17.867ZM38.0941 74.2507C43.8206 74.2507 48.9582 75.385 52.6313 77.1779C56.3634 78.9998 58.3131 81.348 58.3131 83.6638H60.0831C60.0831 80.294 57.312 77.4931 53.4077 75.5873C49.4443 73.6526 44.0299 72.4807 38.0941 72.4807V74.2507ZM58.459 36.7855V86.2036H60.229V36.7855H58.459ZM46.3591 49.4268V70.9161H48.1291V49.4268H46.3591ZM46.3591 78.0847V92.4054H48.1291V78.0847H46.3591ZM16.097 36.7855V86.2036H17.867V36.7855H16.097ZM41.0765 31.9027C41.3591 32.7413 41.3588 32.7414 41.3586 32.7415C41.3585 32.7415 41.3583 32.7416 41.3582 32.7416C41.358 32.7417 41.3578 32.7418 41.3577 32.7418C41.3575 32.7419 41.3575 32.7419 41.3577 32.7418C41.3582 32.7416 41.3597 32.7411 41.3621 32.7404C41.367 32.7388 41.3757 32.736 41.388 32.7321C41.4127 32.7244 41.4521 32.7123 41.5053 32.697C41.6116 32.6664 41.7726 32.6227 41.9807 32.5743C42.3973 32.4773 42.9991 32.3621 43.7251 32.2932C45.1836 32.1549 47.1047 32.2073 49.0301 32.9353L49.6561 31.2797C47.3995 30.4265 45.1873 30.3765 43.558 30.5311C42.7402 30.6087 42.0594 30.7387 41.5795 30.8504C41.3392 30.9063 41.1484 30.9578 41.0151 30.9962C40.9484 31.0155 40.8959 31.0315 40.8588 31.0431C40.8402 31.0489 40.8254 31.0537 40.8145 31.0572C40.8091 31.059 40.8047 31.0604 40.8012 31.0616C40.7995 31.0621 40.798 31.0626 40.7968 31.063C40.7962 31.0632 40.7957 31.0634 40.7952 31.0636C40.7949 31.0637 40.7946 31.0638 40.7945 31.0638C40.7942 31.0639 40.7939 31.064 41.0765 31.9027ZM49.0301 32.9353C49.9785 33.2939 50.4626 33.6933 50.6931 34.0199C50.9053 34.3206 50.9439 34.6147 50.8728 34.9214C50.7096 35.6252 49.9349 36.4312 49.0019 36.8209L49.6842 38.4541C50.9476 37.9263 52.2638 36.7579 52.597 35.3213C52.7741 34.5578 52.6622 33.7404 52.1392 32.9993C51.6345 32.2841 50.7986 31.7117 49.6561 31.2797L49.0301 32.9353ZM49.0019 36.8209C46.9117 37.6942 43.2397 38.5461 39.7955 36.5895L38.9212 38.1285C43.0628 40.4812 47.3818 39.416 49.6842 38.4541L49.0019 36.8209ZM39.3584 37.359C39.7513 36.566 39.7516 36.5662 39.7519 36.5663C39.752 36.5663 39.7523 36.5665 39.7525 36.5666C39.7528 36.5668 39.7532 36.5669 39.7535 36.5671C39.7541 36.5674 39.7546 36.5677 39.7551 36.5679C39.7559 36.5683 39.7565 36.5686 39.7566 36.5687C39.7569 36.5688 39.7558 36.5683 39.7534 36.567C39.7485 36.5644 39.7385 36.559 39.7241 36.5508C39.6951 36.5344 39.6494 36.5074 39.5933 36.4701C39.4787 36.394 39.3324 36.2834 39.1961 36.1435C38.9182 35.8581 38.7621 35.5436 38.8219 35.1732L37.0745 34.8914C36.8911 36.0283 37.4401 36.8772 37.9281 37.3783C38.1748 37.6317 38.4265 37.8201 38.6144 37.9448C38.7094 38.0078 38.791 38.0565 38.8515 38.0908C38.8818 38.108 38.9071 38.1217 38.9263 38.1319C38.9359 38.1369 38.9441 38.1412 38.9506 38.1445C38.9539 38.1462 38.9568 38.1476 38.9593 38.1489C38.9605 38.1495 38.9616 38.1501 38.9626 38.1506C38.9632 38.1508 38.9636 38.1511 38.9641 38.1513C38.9643 38.1514 38.9647 38.1516 38.9648 38.1516C38.9651 38.1518 38.9654 38.152 39.3584 37.359ZM38.822 35.1724C38.9214 34.5532 39.2763 33.1737 39.316 31.9246C39.3567 30.6416 39.0973 29.0771 37.6857 28.1352L36.7033 29.6076C37.3421 30.0338 37.5811 30.7919 37.5469 31.8684C37.5116 32.9789 37.2182 33.9957 37.0744 34.8921L38.822 35.1724ZM37.6857 28.1352C35.3642 26.5862 30.9456 25.9486 26.8297 27.5642L27.4764 29.2118C31.1246 27.7798 34.9239 28.4202 36.7033 29.6076L37.6857 28.1352ZM26.8297 27.5642C24.755 28.3786 23.4673 29.7228 23.5418 31.3622C23.6136 32.9421 24.9405 34.1976 26.6713 34.8876L27.3268 33.2435C25.8726 32.6637 25.3354 31.8423 25.31 31.2819C25.2872 30.7809 25.669 29.9213 27.4764 29.2118L26.8297 27.5642ZM26.6713 34.8876C28.4265 35.5874 30.4439 35.7132 31.9689 35.6805C32.7413 35.6639 33.4093 35.606 33.8855 35.5521C34.124 35.5251 34.3153 35.4989 34.4487 35.4793C34.5155 35.4695 34.5678 35.4612 34.6043 35.4553C34.6226 35.4523 34.6369 35.4499 34.6471 35.4482C34.6522 35.4473 34.6563 35.4466 34.6594 35.4461C34.6609 35.4459 34.6622 35.4456 34.6632 35.4455C34.6637 35.4454 34.6641 35.4453 34.6645 35.4452C34.6646 35.4452 34.6649 35.4452 34.665 35.4452C34.6652 35.4451 34.6654 35.4451 34.5119 34.5735C34.3585 33.7019 34.3586 33.7019 34.3588 33.7018C34.3588 33.7018 34.3589 33.7018 34.359 33.7018C34.3591 33.7018 34.3591 33.7018 34.3591 33.7018C34.359 33.7018 34.3587 33.7018 34.3581 33.7019C34.357 33.7021 34.3548 33.7025 34.3517 33.703C34.3453 33.7041 34.335 33.7059 34.3208 33.7082C34.2923 33.7128 34.2486 33.7197 34.1907 33.7282C34.075 33.7452 33.9034 33.7687 33.6863 33.7933C33.2516 33.8426 32.6386 33.8957 31.9309 33.9109C30.4957 33.9417 28.7567 33.8136 27.3268 33.2435L26.6713 34.8876Z" fill="url(#paint0_linear_6246_98949)"/>
<defs>
<linearGradient id="paint0_linear_6246_98949" x1="1" y1="1" x2="76.3258" y2="13.2788" gradientUnits="userSpaceOnUse">
<stop stop-color="#3B00B9"/>
<stop offset="1" stop-color="#2586B6"/>
</linearGradient>
</defs>
</svg>
