<svg width="120" height="120" viewBox="0 0 120 120" fill="none" xmlns="http://www.w3.org/2000/svg">
<path d="M62.6822 19.2751C63.0404 19.6077 63.6003 19.5869 63.9329 19.2287C64.2654 18.8705 64.2446 18.3105 63.8864 17.978L62.6822 19.2751ZM56.326 16.4627L56.1834 15.5893L56.1813 15.5896L56.326 16.4627ZM54.805 23.0581L55.4517 22.454L55.4516 22.4539L54.805 23.0581ZM63.2368 25.5432L62.969 24.6997L62.9383 24.7094L62.9083 24.7214L63.2368 25.5432ZM67.2768 16.1887L66.8814 15.3969L66.8799 15.3976L67.2768 16.1887ZM75.4709 18.4942L76.117 17.8895L76.1158 17.8882L75.4709 18.4942ZM68.4111 22.8651C67.9966 22.6061 67.4506 22.7322 67.1916 23.1467C66.9327 23.5612 67.0587 24.1072 67.4732 24.3662L68.4111 22.8651ZM38.3028 74.6779H37.4178C37.4178 75.0006 37.5934 75.2977 37.8761 75.4533L38.3028 74.6779ZM59.596 86.3947L59.1693 87.1701C59.4349 87.3162 59.7569 87.3163 60.0225 87.1702L59.596 86.3947ZM38.3028 55.1658L37.8982 54.3787C37.6032 54.5303 37.4178 54.8341 37.4178 55.1658H38.3028ZM80.8988 74.6779L81.3253 75.4534C81.6081 75.2978 81.7838 75.0007 81.7838 74.6779H80.8988ZM80.8988 55.1658H81.7838C81.7838 54.8529 81.6185 54.5633 81.3492 54.404C81.0798 54.2448 80.7464 54.2396 80.4722 54.3904L80.8988 55.1658ZM59.634 66.8731L59.2082 67.6489C59.4745 67.7951 59.7972 67.7944 60.0629 67.6472L59.634 66.8731ZM59.52 44.2616L59.9214 43.4729C59.6681 43.344 59.3682 43.3446 59.1154 43.4745L59.52 44.2616ZM80.8512 55.1185L81.2801 55.8927C81.5664 55.734 81.7418 55.4303 81.7361 55.103C81.7303 54.7757 81.5444 54.4783 81.2527 54.3298L80.8512 55.1185ZM60.404 105.283H59.519C59.519 105.606 59.6946 105.903 59.9773 106.059L60.404 105.283ZM81.6972 117L81.2706 117.775C81.5362 117.922 81.8581 117.922 82.1237 117.775L81.6972 117ZM60.404 85.771L59.9993 84.984C59.7044 85.1356 59.519 85.4394 59.519 85.771H60.404ZM103 105.283L103.427 106.059C103.709 105.903 103.885 105.606 103.885 105.283H103ZM103 85.771H103.885C103.885 85.4581 103.72 85.1685 103.45 85.0092C103.181 84.85 102.848 84.8448 102.573 84.9956L103 85.771ZM81.7353 97.4784L81.3095 98.2542C81.5758 98.4003 81.8984 98.3997 82.1642 98.2525L81.7353 97.4784ZM81.6117 74.8669L82.013 74.0781C81.7596 73.9493 81.4598 73.9499 81.207 74.0799L81.6117 74.8669ZM102.952 85.7238L103.381 86.4979C103.668 86.3393 103.843 86.0355 103.837 85.7082C103.832 85.3809 103.646 85.0835 103.354 84.935L102.952 85.7238ZM17 105.283H16.115C16.115 105.606 16.2907 105.903 16.5735 106.059L17 105.283ZM38.3028 117L37.8762 117.775C38.1419 117.922 38.4638 117.922 38.7294 117.775L38.3028 117ZM17 85.771L16.5955 84.9839C16.3005 85.1355 16.115 85.4394 16.115 85.771H17ZM59.596 105.283L60.0226 106.059C60.3054 105.903 60.481 105.606 60.481 105.283H59.596ZM59.596 85.771H60.481C60.481 85.4581 60.3157 85.1684 60.0463 85.0092C59.777 84.85 59.4435 84.8448 59.1693 84.9957L59.596 85.771ZM38.3408 97.4784L37.9151 98.2543C38.1815 98.4004 38.5041 98.3997 38.7698 98.2524L38.3408 97.4784ZM38.2172 74.8669L38.6186 74.0782C38.3653 73.9493 38.0655 73.9499 37.8127 74.0798L38.2172 74.8669ZM59.5485 85.7238L59.9775 86.4979C60.2638 86.3392 60.4391 86.0355 60.4333 85.7082C60.4275 85.3809 60.2416 85.0836 59.9499 84.9351L59.5485 85.7238ZM45.3188 11.0084C45.1767 10.5407 44.6823 10.2769 44.2147 10.4191C43.747 10.5612 43.4832 11.0556 43.6254 11.5232L45.3188 11.0084ZM56.9717 55.4232C57.1138 55.8909 57.6082 56.1547 58.0758 56.0125C58.5435 55.8704 58.8073 55.376 58.6651 54.9084L56.9717 55.4232ZM82.106 21.3006L82.8596 20.8365L82.8552 20.8295L82.106 21.3006ZM92.8382 28.5291L93.2006 27.7217L93.1989 27.721L92.8382 28.5291ZM92.9903 29.2756L93.6385 29.8781L93.6398 29.8767L92.9903 29.2756ZM63.8832 33.3858L63.9063 32.5011L63.906 32.5011L63.8832 33.3858ZM53.1605 37.1466L53.7961 37.7624L53.7964 37.7621L53.1605 37.1466ZM52.3715 36.9576L53.2174 36.6976L53.2168 36.6953L52.3715 36.9576ZM44.4911 11.5587L45.3364 11.2964L45.3354 11.2933L44.4911 11.5587ZM44.5671 11.1335L43.8828 10.5723C43.8776 10.5788 43.8724 10.5853 43.8672 10.5919L44.5671 11.1335ZM55.6701 6.93816L55.6477 7.82288L55.6477 7.82288L55.6701 6.93816ZM84.4825 3.13965L85.1164 3.75719L85.1166 3.757L84.4825 3.13965ZM85.281 3.45148L86.1652 3.41442L86.165 3.41012L85.281 3.45148ZM82.125 20.8093L81.3894 20.3173C81.3847 20.3242 81.3802 20.3312 81.3758 20.3382L82.125 20.8093ZM63.2843 18.6265C63.8864 17.978 63.8862 17.9777 63.8859 17.9775C63.8858 17.9774 63.8855 17.9771 63.8853 17.9769C63.8849 17.9765 63.8844 17.9761 63.8839 17.9756C63.8829 17.9747 63.8817 17.9736 63.8803 17.9723C63.8775 17.9697 63.874 17.9665 63.8697 17.9626C63.8611 17.9549 63.8496 17.9445 63.8351 17.9318C63.8063 17.9063 63.7658 17.8712 63.7141 17.8281C63.6109 17.7418 63.4629 17.6231 63.274 17.4846C62.8972 17.2081 62.3532 16.849 61.6754 16.5115C60.3259 15.8395 58.3942 15.2283 56.1834 15.5893L56.4686 17.3362C58.1932 17.0546 59.7406 17.5253 60.8864 18.0959C61.4563 18.3796 61.9139 18.682 62.2269 18.9116C62.383 19.0261 62.5018 19.1216 62.5793 19.1864C62.618 19.2187 62.6463 19.2433 62.6636 19.2586C62.6723 19.2662 62.6782 19.2716 62.6813 19.2744C62.6829 19.2758 62.6837 19.2766 62.6839 19.2767C62.6839 19.2768 62.6838 19.2767 62.6836 19.2764C62.6834 19.2763 62.6832 19.2761 62.683 19.2759C62.6829 19.2758 62.6827 19.2756 62.6826 19.2756C62.6824 19.2753 62.6822 19.2751 63.2843 18.6265ZM56.1813 15.5896C55.0249 15.7812 54.1309 16.2469 53.5146 16.942C52.9012 17.6337 52.63 18.4767 52.579 19.3056C52.4796 20.9194 53.1993 22.6361 54.1584 23.6624L55.4516 22.4539C54.7947 21.751 54.2787 20.5007 54.3456 19.4144C54.3777 18.8933 54.5403 18.4531 54.8389 18.1163C55.1346 17.7829 55.6308 17.4749 56.4706 17.3358L56.1813 15.5896ZM54.1583 23.6623C55.8271 25.4487 59.293 28.0723 63.5652 26.365L62.9083 24.7214C59.7089 26 56.9959 24.107 55.4517 22.454L54.1583 23.6623ZM63.2368 25.5432C63.5045 26.3868 63.5049 26.3866 63.5053 26.3865C63.5055 26.3864 63.5059 26.3863 63.5062 26.3862C63.5068 26.386 63.5075 26.3858 63.5082 26.3856C63.5095 26.3851 63.5109 26.3847 63.5124 26.3842C63.5155 26.3832 63.5189 26.3821 63.5228 26.3808C63.5305 26.3782 63.5397 26.375 63.5504 26.3712C63.5718 26.3636 63.5991 26.3535 63.6315 26.3406C63.6963 26.3149 63.7823 26.2779 63.883 26.2275C64.0832 26.1271 64.3488 25.9703 64.6232 25.7384C65.1817 25.2663 65.7685 24.4864 65.9032 23.2997L64.1445 23.1C64.0701 23.7558 63.7633 24.1476 63.4806 24.3866C63.3343 24.5102 63.1924 24.5937 63.0902 24.6449C63.0397 24.6702 63.0008 24.6867 62.9784 24.6956C62.9673 24.7 62.9605 24.7024 62.9587 24.7031C62.9578 24.7034 62.9581 24.7032 62.9598 24.7027C62.9607 24.7024 62.9618 24.702 62.9634 24.7015C62.9641 24.7012 62.965 24.701 62.9659 24.7007C62.9664 24.7005 62.9669 24.7004 62.9674 24.7002C62.9677 24.7001 62.9681 24.7 62.9682 24.6999C62.9686 24.6998 62.969 24.6997 63.2368 25.5432ZM65.9032 23.2997C66.0194 22.2757 66.0596 20.9116 66.3333 19.5618C66.4664 18.9053 66.6443 18.3219 66.8821 17.8621C67.1192 17.4035 67.3864 17.1238 67.6736 16.9797L66.8799 15.3976C66.15 15.7638 65.6531 16.3853 65.3099 17.0491C64.9672 17.7117 64.7482 18.4718 64.5985 19.2102C64.3066 20.6502 64.2374 22.2814 64.1445 23.1L65.9032 23.2997ZM67.6721 16.9805C69.277 16.1791 72.3456 16.4605 74.8259 19.1003L76.1158 17.8882C73.2158 14.8019 69.3261 14.1762 66.8814 15.3969L67.6721 16.9805ZM74.8247 19.099C75.9999 20.3547 76.2279 21.5572 76.0063 22.4198C75.7852 23.2807 75.0714 23.9966 73.9402 24.2328L74.3019 25.9654C76.0224 25.6063 77.3144 24.4418 77.7207 22.8602C78.1265 21.2803 77.6035 19.4779 76.117 17.8895L74.8247 19.099ZM73.9402 24.2328C72.7597 24.4792 71.4062 24.1766 70.2728 23.7519C69.7197 23.5446 69.2479 23.3193 68.9153 23.1461C68.7495 23.0598 68.6196 22.9871 68.5329 22.9371C68.4895 22.9122 68.4571 22.8929 68.4365 22.8805C68.4262 22.8743 68.4189 22.8698 68.4146 22.8672C68.4124 22.8659 68.4111 22.865 68.4105 22.8647C68.4102 22.8645 68.4101 22.8644 68.4102 22.8645C68.4103 22.8645 68.4104 22.8646 68.4105 22.8647C68.4106 22.8647 68.4108 22.8648 68.4108 22.8649C68.411 22.865 68.4111 22.8651 67.9422 23.6156C67.4732 24.3662 67.4734 24.3663 67.4737 24.3664C67.4737 24.3665 67.474 24.3666 67.4742 24.3667C67.4745 24.3669 67.4749 24.3672 67.4754 24.3675C67.4763 24.368 67.4774 24.3687 67.4787 24.3696C67.4814 24.3712 67.4848 24.3733 67.4891 24.3759C67.4976 24.3811 67.5092 24.3883 67.524 24.3971C67.5535 24.4149 67.5954 24.4397 67.6486 24.4704C67.755 24.5318 67.9073 24.6168 68.0979 24.7161C68.4782 24.9141 69.0165 25.1713 69.6516 25.4093C70.8946 25.8751 72.6306 26.3143 74.3019 25.9654L73.9402 24.2328ZM37.8761 75.4533L59.1693 87.1701L60.0226 85.6193L38.7294 73.9026L37.8761 75.4533ZM60.481 86.3947V66.8825H58.711V86.3947H60.481ZM60.0226 66.1072L38.7294 54.3904L37.8761 55.9412L59.1693 67.6579L60.0226 66.1072ZM37.4178 55.1658V74.6779H39.1878V55.1658H37.4178ZM80.4722 73.9025L59.1695 85.6193L60.0225 87.1702L81.3253 75.4534L80.4722 73.9025ZM60.0225 67.658L81.3253 55.9413L80.4722 54.3904L59.1695 66.1071L60.0225 67.658ZM80.0138 55.1658V74.6779H81.7838V55.1658H80.0138ZM60.0598 66.0972L38.7286 54.39L37.877 55.9416L59.2082 67.6489L60.0598 66.0972ZM38.7073 55.9529L59.9245 45.0488L59.1154 43.4745L37.8982 54.3787L38.7073 55.9529ZM59.1185 45.0504L80.4498 55.9072L81.2527 54.3298L59.9214 43.4729L59.1185 45.0504ZM80.4223 54.3444L59.2051 66.0989L60.0629 67.6472L81.2801 55.8927L80.4223 54.3444ZM59.9773 106.059L81.2706 117.775L82.1239 116.225L60.8307 104.508L59.9773 106.059ZM82.5822 117V97.4878H80.8122V117H82.5822ZM82.1239 96.7124L60.8307 84.9957L59.9773 86.5464L81.2706 98.2632L82.1239 96.7124ZM59.519 85.771V105.283H61.289V85.771H59.519ZM102.573 104.508L81.2707 116.225L82.1237 117.775L103.427 106.059L102.573 104.508ZM82.1237 98.2633L103.427 86.5465L102.573 84.9956L81.2707 96.7124L82.1237 98.2633ZM102.115 85.771V105.283H103.885V85.771H102.115ZM82.1611 96.7025L60.8298 84.9952L59.9782 86.5469L81.3095 98.2542L82.1611 96.7025ZM60.8087 86.5581L82.0164 75.654L81.207 74.0799L59.9993 84.984L60.8087 86.5581ZM81.2104 75.6557L102.551 86.5126L103.354 84.935L82.013 74.0781L81.2104 75.6557ZM102.524 84.9497L81.3064 96.7042L82.1642 98.2525L103.381 86.4979L102.524 84.9497ZM16.5735 106.059L37.8762 117.775L38.7293 116.225L17.4265 104.508L16.5735 106.059ZM39.1878 117V97.4878H37.4178V117H39.1878ZM38.7293 96.7124L17.4265 84.9956L16.5735 86.5465L37.8762 98.2633L38.7293 96.7124ZM16.115 85.771V105.283H17.885V85.771H16.115ZM59.1693 104.508L37.8761 116.225L38.7294 117.775L60.0226 106.059L59.1693 104.508ZM38.7294 98.2632L60.0226 86.5464L59.1693 84.9957L37.8761 96.7124L38.7294 98.2632ZM58.711 85.771V105.283H60.481V85.771H58.711ZM38.7664 96.7024L17.4257 84.9951L16.5743 86.547L37.9151 98.2543L38.7664 96.7024ZM17.4045 86.5582L38.6217 75.6541L37.8127 74.0798L16.5955 84.9839L17.4045 86.5582ZM37.8158 75.6557L59.147 86.5125L59.9499 84.9351L38.6186 74.0782L37.8158 75.6557ZM59.1194 84.9498L37.9117 96.7043L38.7698 98.2524L59.9775 86.4979L59.1194 84.9498ZM43.6254 11.5232L56.9717 55.4232L58.6651 54.9084L45.3188 11.0084L43.6254 11.5232ZM81.3524 21.7647C81.9091 22.6686 82.7803 23.527 83.7498 24.3064C84.7283 25.0931 85.8547 25.8367 86.9692 26.5007C89.198 27.8288 91.4364 28.8725 92.4774 29.3372L93.1989 27.721C92.1867 27.2691 90.019 26.2577 87.8752 24.9802C86.8033 24.3415 85.7516 23.6447 84.8587 22.9269C83.9568 22.2018 83.2631 21.4917 82.8596 20.8365L81.3524 21.7647ZM92.4757 29.3365C92.2167 29.2202 92.1495 28.8811 92.3408 28.6744L93.6398 29.8767C94.2683 29.1976 94.049 28.1026 93.2006 27.7217L92.4757 29.3365ZM92.342 28.6731C88.3686 32.9481 83.3735 33.999 78.2754 33.9218C75.7195 33.8832 73.1666 33.561 70.7227 33.2287C68.303 32.8996 65.956 32.5547 63.9063 32.5011L63.86 34.2705C65.7885 34.3209 68.0163 34.6469 70.4841 34.9825C72.9277 35.3148 75.5751 35.6512 78.2487 35.6916C83.6095 35.7728 89.1897 34.6646 93.6385 29.8781L92.342 28.6731ZM63.906 32.5011C57.3897 32.3328 53.8643 35.1469 52.5246 36.5311L53.7964 37.7621C54.8712 36.6517 57.9429 34.1177 63.8603 34.2705L63.906 32.5011ZM52.5249 36.5308C52.7443 36.3043 53.1234 36.3917 53.2174 36.6976L51.5256 37.2176C51.8287 38.2038 53.0824 38.4991 53.7961 37.7624L52.5249 36.5308ZM53.2168 36.6953L45.3364 11.2964L43.6459 11.821L51.5263 37.2198L53.2168 36.6953ZM45.3354 11.2933C45.3528 11.3488 45.36 11.4185 45.3464 11.4935C45.3329 11.5681 45.302 11.63 45.2671 11.6751L43.8672 10.5919C43.5969 10.9413 43.5114 11.3934 43.6468 11.8241L45.3354 11.2933ZM45.2514 11.6947C45.846 10.9698 48.905 7.65218 55.6477 7.82288L55.6925 6.05345C48.2523 5.86509 44.7142 9.55859 43.8828 10.5723L45.2514 11.6947ZM55.6477 7.82288C57.5522 7.87095 59.7504 8.18935 62.1846 8.52107C64.5953 8.84957 67.2073 9.186 69.8478 9.24031C75.1396 9.34917 80.6651 8.32664 85.1164 3.75719L83.8486 2.52211C79.8776 6.59848 74.9276 7.57443 69.8842 7.47069C67.3569 7.4187 64.8364 7.09607 62.4236 6.76728C60.0345 6.44171 57.7186 6.10459 55.6924 6.05344L55.6477 7.82288ZM85.1166 3.757C84.8342 4.04707 84.4123 3.82046 84.3969 3.49285L86.165 3.41012C86.1117 2.2699 84.7011 1.6464 83.8484 2.5223L85.1166 3.757ZM84.3968 3.48855C84.4622 5.0507 84.5062 8.09195 84.1251 11.3471C83.7409 14.6292 82.9377 18.0022 81.3894 20.3173L82.8607 21.3013C84.6489 18.6273 85.4902 14.9088 85.8831 11.553C86.2791 8.17023 86.2328 5.02712 86.1652 3.41442L84.3968 3.48855ZM81.3758 20.3382C81.1429 20.7086 81.0411 21.2697 81.3568 21.7717L82.8552 20.8295C82.9808 21.0292 82.917 21.2123 82.8742 21.2803L81.3758 20.3382Z" fill="#463F93"/>
</svg>
