<svg width="120" height="122" viewBox="0 0 120 122" fill="none" xmlns="http://www.w3.org/2000/svg">
<path d="M76.7196 46.2521L77.6033 46.3002L77.654 45.3671H76.7196V46.2521ZM76.6432 47.3437L77.525 47.4191L77.5257 47.4103L76.6432 47.3437ZM24.185 47.3437L23.3038 47.4254L23.3039 47.4265L24.185 47.3437ZM24.2136 40.4811L25.0955 40.4071L25.0945 40.3949L25.0932 40.3828L24.2136 40.4811ZM74.2079 45.265L74.6018 44.4724L74.5978 44.4705L74.2079 45.265ZM76.2325 46.1572L75.9075 46.9804L75.9155 46.9835L75.9235 46.9865L76.2325 46.1572ZM60.3127 28.3126L61.1499 28.0258L61.1497 28.0252L60.3127 28.3126ZM76.6145 108.423L77.4957 108.506L77.4958 108.505L76.6145 108.423ZM24.1563 108.423L23.2745 108.499L23.2746 108.499L24.1563 108.423ZM24.2041 101.732L25.0837 101.634L25.081 101.61L25.0769 101.585L24.2041 101.732ZM76.5859 101.561L75.7131 101.414L75.707 101.451L75.7039 101.488L76.5859 101.561ZM76.796 46.2616V45.3766H75.911V46.2616H76.796ZM62.6493 59.2179C62.6493 58.7291 62.253 58.3329 61.7643 58.3329C61.2755 58.3329 60.8793 58.7291 60.8793 59.2179H62.6493ZM60.8793 85.4722C60.8793 85.961 61.2755 86.3572 61.7643 86.3572C62.253 86.3572 62.6493 85.961 62.6493 85.4722H60.8793ZM62.6493 94.2237C62.6493 93.7349 62.253 93.3387 61.7643 93.3387C61.2755 93.3387 60.8793 93.7349 60.8793 94.2237H62.6493ZM60.8793 111.717C60.8793 112.206 61.2755 112.602 61.7643 112.602C62.253 112.602 62.6493 112.206 62.6493 111.717H60.8793ZM51.9851 44.4867L52.4184 43.715L52.3953 43.7021L52.3715 43.6905L51.9851 44.4867ZM36.8196 33.5236L37.1382 34.3493L37.1401 34.3486L36.8196 33.5236ZM57.6005 10.1928L56.7157 10.1719L56.7156 10.1764L57.6005 10.1928ZM59.0616 8.68361L59.0149 7.79982L59.0094 7.80015L59.0616 8.68361ZM75.0865 1.69765L75.7033 2.3324L75.7041 2.33162L75.0865 1.69765ZM78.5055 1.69765L77.888 2.33162L77.8899 2.33355L78.5055 1.69765ZM94.5304 8.68361L94.582 7.8001L94.5771 7.79984L94.5304 8.68361ZM95.9915 10.1928L95.1066 10.2033L95.1067 10.2096L95.9915 10.1928ZM77.3594 46.1572L77.6785 46.9827L77.6796 46.9823L77.3594 46.1572ZM79.7979 18.7829C79.7979 19.2716 80.1941 19.6679 80.6829 19.6679C81.1716 19.6679 81.5679 19.2716 81.5679 18.7829H79.7979ZM72.0241 18.7829C72.0241 19.2716 72.4204 19.6679 72.9091 19.6679C73.3979 19.6679 73.7941 19.2716 73.7941 18.7829H72.0241ZM75.9206 29.613C75.9206 30.1018 76.3168 30.498 76.8055 30.498C77.2943 30.498 77.6905 30.1018 77.6905 29.613H75.9206ZM75.8359 46.2041C75.8174 46.5434 75.7898 46.8918 75.7607 47.2771L77.5257 47.4103C77.5539 47.0362 77.5835 46.6632 77.6033 46.3002L75.8359 46.2041ZM75.7614 47.2682C75.5054 50.2602 72.9227 53.2009 68.3491 55.4314C63.8204 57.6399 57.5482 59.0353 50.4093 59.0353V60.8053C57.7578 60.8053 64.3065 59.3721 69.1249 57.0223C73.8984 54.6943 77.1889 51.3467 77.525 47.4191L75.7614 47.2682ZM50.4093 59.0353C43.2709 59.0353 37.0156 57.6377 32.4966 55.4282C27.9344 53.1976 25.3475 50.255 25.0661 47.2609L23.3039 47.4265C23.6719 51.3424 26.9534 54.6882 31.7192 57.0183C36.5282 59.3696 43.0604 60.8053 50.4093 60.8053V59.0353ZM25.0662 47.262C24.8123 44.5234 24.8354 42.3395 25.0893 40.6096L23.338 40.3526C23.057 42.2675 23.042 44.6018 23.3038 47.4254L25.0662 47.262ZM23.3317 40.5552C23.6551 44.4063 27.0665 47.6176 31.8589 49.8285C36.7117 52.0673 43.2511 53.4207 50.4093 53.4207V51.6507C43.4526 51.6507 37.1759 50.3322 32.6004 48.2213C27.9645 46.0826 25.3356 43.2667 25.0955 40.4071L23.3317 40.5552ZM50.4093 53.4207C55.7558 53.4207 60.7517 52.6672 64.9569 51.3577C69.1486 50.0525 72.6167 48.1751 74.843 45.8814L73.5729 44.6486C71.6258 46.6547 68.4615 48.4126 64.4306 49.6678C60.4132 50.9188 55.5965 51.6507 50.4093 51.6507V53.4207ZM73.8141 46.0575C74.4909 46.3939 75.1928 46.6982 75.9075 46.9804L76.5576 45.3341C75.878 45.0657 75.2238 44.7815 74.6018 44.4725L73.8141 46.0575ZM75.9235 46.9865C76.1507 47.0712 76.4284 47.1371 76.7196 47.1371V45.3671C76.6861 45.3671 76.62 45.3572 76.5416 45.3279L75.9235 46.9865ZM25.0932 40.3828C25.0778 40.2453 25.07 40.1073 25.07 39.9591H23.3C23.3 40.1716 23.3113 40.3753 23.3341 40.5794L25.0932 40.3828ZM25.07 39.9591C25.07 37.0254 27.5836 34.1056 32.2507 31.8668C36.8535 29.6588 43.2732 28.2674 50.4093 28.2674V26.4974C43.0676 26.4974 36.3751 27.9251 31.4852 30.2709C26.6597 32.5857 23.3 35.9542 23.3 39.9591H25.07ZM50.4093 28.2674C53.859 28.2674 57.1446 28.5945 60.1427 29.1812L60.4826 27.4441C57.3688 26.8348 53.9693 26.4974 50.4093 26.4974V28.2674ZM59.4754 28.5995C61.793 35.3645 66.0471 42.2469 73.8181 46.0595L74.5978 44.4705C67.3944 40.9364 63.3782 34.5303 61.1499 28.0258L59.4754 28.5995ZM75.7334 108.341C75.452 111.339 72.8629 114.282 68.2995 116.511C63.7794 118.72 57.524 120.115 50.3902 120.115V121.885C57.7342 121.885 64.2663 120.452 69.0765 118.102C73.8435 115.773 77.1277 112.427 77.4957 108.506L75.7334 108.341ZM50.3902 120.115C43.2562 120.115 36.9839 118.72 32.454 116.511C27.8789 114.28 25.2941 111.34 25.0381 108.348L23.2746 108.499C23.6107 112.427 26.9039 115.774 31.6783 118.102C36.4978 120.452 43.0464 121.885 50.3902 121.885V120.115ZM25.0381 108.348C24.8126 105.705 24.844 103.572 25.0808 101.852L23.3274 101.611C23.0675 103.498 23.0416 105.769 23.2745 108.499L25.0381 108.348ZM23.3245 101.829C23.7457 105.624 27.1711 108.785 31.9523 110.963C36.7927 113.169 43.2851 114.5 50.3902 114.5V112.73C43.4855 112.73 37.2525 111.433 32.6861 109.353C28.0606 107.245 25.3978 104.464 25.0837 101.634L23.3245 101.829ZM50.3902 114.5C57.4969 114.5 64.0381 113.144 68.904 110.905C73.7065 108.695 77.1496 105.484 77.4679 101.634L75.7039 101.488C75.4683 104.339 72.8185 107.155 68.1641 109.297C63.5731 111.41 57.2934 112.73 50.3902 112.73V114.5ZM75.7103 101.689C75.9641 103.419 75.9872 105.603 75.7333 108.342L77.4958 108.505C77.7576 105.682 77.7425 103.347 77.4615 101.432L75.7103 101.689ZM75.7295 101.048C75.7295 101.231 75.7276 101.328 75.7131 101.414L77.4587 101.707C77.5015 101.452 77.4995 101.207 77.4995 101.048H75.7295ZM75.7039 101.488C75.468 104.342 72.8404 107.157 68.2026 109.297C63.6259 111.41 57.3467 112.73 50.3902 112.73V114.5C57.5486 114.5 64.0904 113.145 68.9443 110.905C73.7371 108.693 77.1499 105.481 77.4679 101.634L75.7039 101.488ZM50.3902 112.73C43.4322 112.73 37.1997 111.433 32.6476 109.353C28.0386 107.247 25.3981 104.467 25.0837 101.634L23.3245 101.829C23.7454 105.622 27.1405 108.783 31.9121 110.963C36.7404 113.169 43.2334 114.5 50.3902 114.5V112.73ZM25.0769 101.585C25.0503 101.427 25.0413 101.254 25.0413 101.048H23.2713C23.2713 101.298 23.2815 101.581 23.3313 101.878L25.0769 101.585ZM25.0413 101.048C25.0413 98.1097 27.5551 95.19 32.223 92.9525C36.8269 90.7457 43.2491 89.3566 50.3902 89.3566V87.5866C43.044 87.5866 36.3492 89.0119 31.458 91.3564C26.6308 93.6702 23.2713 97.0388 23.2713 101.048H25.0413ZM50.3902 89.3566C57.5314 89.3566 63.9511 90.7457 68.5525 92.9524C73.2177 95.1897 75.7295 98.1094 75.7295 101.048H77.4995C77.4995 97.0391 74.143 93.6705 69.3178 91.3565C64.4289 89.0119 57.7364 87.5866 50.3902 87.5866V89.3566ZM77.681 104.152V46.2616H75.911V104.152H77.681ZM60.8793 59.2179V85.4722H62.6493V59.2179H60.8793ZM60.8793 94.2237V111.717H62.6493V94.2237H60.8793ZM23.2809 43.7748V104.152H25.0509V43.7748H23.2809ZM54.1052 37.8139C54.383 38.6542 54.3828 38.6543 54.3825 38.6543C54.3825 38.6543 54.3823 38.6544 54.3822 38.6544C54.382 38.6545 54.3819 38.6546 54.3818 38.6546C54.3817 38.6546 54.3819 38.6545 54.3824 38.6544C54.3834 38.654 54.3857 38.6533 54.3891 38.6522C54.3959 38.6501 54.4074 38.6464 54.4236 38.6414C54.4559 38.6315 54.5066 38.6163 54.5745 38.5971C54.7102 38.5587 54.9143 38.5045 55.1771 38.4445C55.7034 38.3243 56.4619 38.182 57.3766 38.0972C59.2123 37.927 61.6379 37.9923 64.0719 38.8995L64.6901 37.2409C61.9289 36.2118 59.2166 36.149 57.2132 36.3347C56.2083 36.4279 55.3719 36.5845 54.7832 36.7189C54.4886 36.7861 54.2552 36.848 54.0928 36.8939C54.0116 36.9169 53.948 36.9359 53.9034 36.9496C53.8811 36.9565 53.8635 36.962 53.8507 36.9661C53.8444 36.9681 53.8392 36.9698 53.8353 36.9711C53.8334 36.9717 53.8317 36.9722 53.8304 36.9727C53.8297 36.9729 53.8291 36.9731 53.8286 36.9732C53.8284 36.9733 53.828 36.9734 53.8279 36.9735C53.8276 36.9736 53.8273 36.9737 54.1052 37.8139ZM64.0719 38.8995C65.2757 39.3481 65.9195 39.8579 66.2377 40.3015C66.5363 40.7175 66.5911 41.1317 66.492 41.5525C66.2715 42.4888 65.2495 43.5157 64.0452 44.0095L64.7168 45.6472C66.2438 45.021 67.8194 43.637 68.2148 41.9583C68.4237 41.0716 68.2912 40.1272 67.6759 39.2696C67.0803 38.4395 66.0839 37.7604 64.6901 37.2409L64.0719 38.8995ZM64.0452 44.0095C61.4167 45.0874 56.7707 46.1592 52.4184 43.715L51.5517 45.2583C56.5966 48.0915 61.8826 46.8094 64.7168 45.6472L64.0452 44.0095ZM51.9851 44.4867C52.3715 43.6905 52.3718 43.6906 52.3721 43.6908C52.3722 43.6908 52.3725 43.691 52.3727 43.691C52.373 43.6912 52.3733 43.6914 52.3736 43.6915C52.3742 43.6918 52.3746 43.692 52.375 43.6922C52.3757 43.6925 52.3759 43.6926 52.3757 43.6925C52.3752 43.6923 52.373 43.6912 52.3691 43.6892C52.3613 43.6851 52.347 43.6776 52.3272 43.6666C52.2874 43.6445 52.2263 43.6089 52.1519 43.5604C52.0007 43.462 51.8064 43.3179 51.624 43.1339C51.2532 42.7599 51.0158 42.3164 51.1018 41.7789L49.354 41.4993C49.1439 42.8128 49.7851 43.793 50.3669 44.38C50.6608 44.6765 50.9613 44.8973 51.1859 45.0436C51.2993 45.1175 51.3963 45.1742 51.4677 45.2139C51.5034 45.2337 51.5329 45.2494 51.5551 45.2609C51.5661 45.2666 51.5754 45.2713 51.5827 45.275C51.5864 45.2768 51.5895 45.2784 51.5922 45.2797C51.5935 45.2803 51.5947 45.2809 51.5958 45.2814C51.5963 45.2817 51.5968 45.2819 51.5973 45.2822C51.5975 45.2823 51.5979 45.2825 51.598 45.2825C51.5983 45.2827 51.5986 45.2828 51.9851 44.4867ZM51.1018 41.7789C51.2267 40.998 51.6593 39.3457 51.7081 37.8366C51.7581 36.288 51.4379 34.4641 49.7782 33.3727L48.8057 34.8516C49.6863 35.4307 49.9821 36.4449 49.939 37.7794C49.8946 39.1535 49.5251 40.4293 49.354 41.4993L51.1018 41.7789ZM49.7782 33.3727C46.969 31.5253 41.5443 30.7387 36.4992 32.6987L37.1401 34.3486C41.7214 32.5688 46.5343 33.3579 48.8057 34.8516L49.7782 33.3727ZM36.5011 32.6979C33.9637 33.6768 32.4611 35.2616 32.5489 37.1479C32.6339 38.972 34.1961 40.4555 36.3044 41.2856L36.9529 39.6387C35.1075 38.9121 34.3538 37.8566 34.317 37.0656C34.2831 36.3369 34.8529 35.2309 37.1382 34.3493L36.5011 32.6979ZM36.3044 41.2856C38.4429 42.1276 40.9159 42.2805 42.8006 42.2392C43.753 42.2183 44.5769 42.1471 45.1642 42.0811C45.4581 42.048 45.6937 42.0161 45.8574 41.9921C45.9393 41.9802 46.0033 41.9702 46.0477 41.963C46.0699 41.9595 46.0872 41.9566 46.0995 41.9545C46.1056 41.9535 46.1104 41.9527 46.114 41.9521C46.1157 41.9518 46.1172 41.9515 46.1183 41.9513C46.1189 41.9512 46.1193 41.9512 46.1197 41.9511C46.1199 41.9511 46.1202 41.951 46.1203 41.951C46.1205 41.951 46.1207 41.9509 45.9686 41.0791C45.8165 40.2073 45.8166 40.2072 45.8167 40.2072C45.8168 40.2072 45.8169 40.2072 45.8169 40.2072C45.817 40.2072 45.817 40.2072 45.8169 40.2072C45.8167 40.2072 45.8162 40.2073 45.8153 40.2075C45.8137 40.2077 45.8107 40.2083 45.8065 40.209C45.7981 40.2104 45.7847 40.2126 45.7665 40.2155C45.7301 40.2214 45.6745 40.2301 45.6014 40.2407C45.4551 40.2621 45.239 40.2915 44.9662 40.3222C44.42 40.3836 43.6503 40.4501 42.7619 40.4696C40.965 40.509 38.7681 40.3534 36.9529 39.6387L36.3044 41.2856ZM61.1497 28.0252C58.6101 20.6298 58.4288 13.2495 58.4853 10.2092L56.7156 10.1764C56.6575 13.3058 56.8392 20.9225 59.4757 28.6001L61.1497 28.0252ZM58.4852 10.2137C58.4933 9.87189 58.7666 9.58761 59.1139 9.56706L59.0094 7.80015C57.7522 7.87452 56.7458 8.90011 56.7157 10.1719L58.4852 10.2137ZM59.1083 9.56737C67.4762 9.12499 73.0636 4.897 75.7033 2.33239L74.4698 1.0629C72.0098 3.45301 66.8057 7.38796 59.0149 7.79984L59.1083 9.56737ZM75.7041 2.33162C76.3154 1.73613 77.2766 1.73613 77.888 2.33162L79.123 1.06368C77.8243 -0.201226 75.7677 -0.201226 74.469 1.06368L75.7041 2.33162ZM77.8899 2.33355C80.5377 4.89645 86.1153 9.12496 94.4837 9.56737L94.5771 7.79984C86.7869 7.38799 81.592 3.45356 79.121 1.06175L77.8899 2.33355ZM94.4787 9.5671C94.8403 9.58824 95.1027 9.87473 95.1066 10.2033L96.8765 10.1823C96.8612 8.89727 95.8439 7.87389 94.582 7.80012L94.4787 9.5671ZM95.1067 10.2096C95.1631 13.1836 94.994 20.3194 92.6107 27.5491C90.2292 34.7735 85.6789 41.9796 77.0393 45.3322L77.6796 46.9823C86.994 43.3679 91.8171 35.6101 94.2917 28.1033C96.7646 20.6017 96.9345 13.2388 96.8764 10.176L95.1067 10.2096ZM77.0404 45.3317C76.9679 45.3597 76.8849 45.3766 76.796 45.3766V47.1466C77.1082 47.1466 77.4072 47.0876 77.6785 46.9827L77.0404 45.3317ZM71.7822 19.6679H81.8193V17.8979H71.7822V19.6679ZM81.8193 19.6679C83.4085 19.6679 84.6875 20.9468 84.6875 22.5132H86.4575C86.4575 19.9591 84.3758 17.8979 81.8193 17.8979V19.6679ZM84.6875 22.5132V29.6035H86.4575V22.5132H84.6875ZM84.6875 29.6035C84.6875 31.1698 83.4085 32.4488 81.8193 32.4488V34.2188C84.3758 34.2188 86.4575 32.1576 86.4575 29.6035H84.6875ZM81.8193 32.4488H71.7822V34.2188H81.8193V32.4488ZM71.7822 32.4488C70.1931 32.4488 68.9141 31.1698 68.9141 29.6035H67.1441C67.1441 32.1576 69.2258 34.2188 71.7822 34.2188V32.4488ZM68.9141 29.6035V22.5132H67.1441V29.6035H68.9141ZM68.9141 22.5132C68.9141 20.9468 70.1931 19.6679 71.7822 19.6679V17.8979C69.2258 17.8979 67.1441 19.9591 67.1441 22.5132H68.9141ZM81.5679 18.7829V13.8756H79.7979V18.7829H81.5679ZM81.5679 13.8756C81.5679 11.2461 79.4284 9.12746 76.796 9.12746V10.8975C78.4611 10.8975 79.7979 12.2338 79.7979 13.8756H81.5679ZM76.796 9.12746C74.1636 9.12746 72.0241 11.2461 72.0241 13.8756H73.7941C73.7941 12.2338 75.1309 10.8975 76.796 10.8975V9.12746ZM72.0241 13.8756V18.7829H73.7941V13.8756H72.0241ZM77.8114 24.8861C77.8114 25.4302 77.3662 25.8805 76.8055 25.8805V27.6505C78.3335 27.6505 79.5814 26.4179 79.5814 24.8861H77.8114ZM76.8055 25.8805C76.2449 25.8805 75.7996 25.4302 75.7996 24.8861H74.0296C74.0296 26.4179 75.2776 27.6505 76.8055 27.6505V25.8805ZM75.7996 24.8861C75.7996 24.342 76.2449 23.8917 76.8055 23.8917V22.1217C75.2776 22.1217 74.0296 23.3543 74.0296 24.8861H75.7996ZM76.8055 23.8917C77.3662 23.8917 77.8114 24.342 77.8114 24.8861H79.5814C79.5814 23.3543 78.3335 22.1217 76.8055 22.1217V23.8917ZM75.9206 26.7655V29.613H77.6905V26.7655H75.9206Z" fill="#463F93"/>
</svg>
