<svg width="90" height="117" viewBox="0 0 90 117" fill="none" xmlns="http://www.w3.org/2000/svg">
<path d="M47.388 17.4131C47.7467 17.7451 48.3066 17.7235 48.6387 17.3648C48.9707 17.0062 48.9491 16.4462 48.5904 16.1142L47.388 17.4131ZM40.95 14.5808L40.8078 13.7073L40.8057 13.7076L40.95 14.5808ZM39.4114 21.2341L40.0572 20.629L40.0571 20.6289L39.4114 21.2341ZM47.9411 23.741L47.6741 22.8972L47.6434 22.9069L47.6135 22.9188L47.9411 23.741ZM52.0281 14.3044L51.6337 13.5122L51.6322 13.5129L52.0281 14.3044ZM60.3175 16.6302L60.9628 16.0245L60.9616 16.0232L60.3175 16.6302ZM53.1693 21.0453C52.7544 20.7868 52.2086 20.9136 51.9501 21.3285C51.6917 21.7433 51.8185 22.2891 52.2333 22.5476L53.1693 21.0453ZM22.7172 73.3067H21.8322C21.8322 73.6298 22.0082 73.9272 22.2915 74.0826L22.7172 73.3067ZM44.258 85.1262L43.8323 85.9021C44.0974 86.0476 44.4185 86.0476 44.6836 85.9022L44.258 85.1262ZM22.7172 53.6234L22.3136 52.8358C22.0181 52.9872 21.8322 53.2914 21.8322 53.6234H22.7172ZM65.8085 73.3067L66.2341 74.0826C66.5174 73.9273 66.6935 73.6298 66.6935 73.3067H65.8085ZM65.8085 53.6234H66.6935C66.6935 53.3107 66.5285 53.0212 66.2594 52.8619C65.9903 52.7026 65.6571 52.6971 65.3829 52.8475L65.8085 53.6234ZM44.2965 65.4334L43.8716 66.2097C44.1375 66.3552 44.4592 66.3545 44.7245 66.208L44.2965 65.4334ZM44.1811 42.6236L44.5816 41.8344C44.3288 41.7061 44.0298 41.7067 43.7775 41.836L44.1811 42.6236ZM65.7604 53.5757L66.1884 54.3503C66.4752 54.1919 66.651 53.8879 66.6453 53.5602C66.6395 53.2325 66.4532 52.9348 66.161 52.7865L65.7604 53.5757ZM45.0754 104.18H44.1904C44.1904 104.504 44.3665 104.801 44.6497 104.956L45.0754 104.18ZM66.6163 116L66.1906 116.776C66.4557 116.921 66.7767 116.921 67.0419 116.776L66.6163 116ZM45.0754 84.4971L44.6717 83.7096C44.3763 83.861 44.1904 84.1651 44.1904 84.4971H45.0754ZM88.1667 104.18L88.5923 104.956C88.8756 104.801 89.0517 104.504 89.0517 104.18H88.1667ZM88.1667 84.4971H89.0517C89.0517 84.1844 88.8867 83.8949 88.6176 83.7356C88.3485 83.5763 88.0154 83.5708 87.7412 83.7211L88.1667 84.4971ZM66.6548 96.3071L66.2299 97.0835C66.4957 97.2289 66.8175 97.2283 67.0827 97.0818L66.6548 96.3071ZM66.5297 73.4973L66.9301 72.7081C66.6773 72.5798 66.3783 72.5805 66.126 72.7098L66.5297 73.4973ZM88.1187 84.4495L88.5466 85.2241C88.8335 85.0656 89.0093 84.7616 89.0035 84.4339C88.9977 84.1062 88.8113 83.8085 88.5191 83.6602L88.1187 84.4495ZM1.16675 104.18H0.281748C0.281748 104.504 0.457855 104.801 0.741168 104.956L1.16675 104.18ZM22.7172 116L22.2916 116.776C22.5568 116.921 22.8778 116.921 23.1429 116.776L22.7172 116ZM1.16675 84.4971L0.763122 83.7095C0.467618 83.8609 0.281748 84.1651 0.281748 84.4971H1.16675ZM44.258 104.18L44.6838 104.956C44.967 104.801 45.143 104.504 45.143 104.18H44.258ZM44.258 84.4971H45.143C45.143 84.1844 44.978 83.8948 44.7089 83.7355C44.4397 83.5762 44.1065 83.5708 43.8323 83.7212L44.258 84.4971ZM22.7557 96.3071L22.3309 97.0835C22.5968 97.229 22.9186 97.2283 23.1838 97.0817L22.7557 96.3071ZM22.6307 73.4973L23.0312 72.7082C22.7784 72.5798 22.4794 72.5804 22.227 72.7097L22.6307 73.4973ZM44.21 84.4495L44.6381 85.224C44.9249 85.0655 45.1006 84.7615 45.0948 84.4339C45.0891 84.1062 44.9027 83.8086 44.6105 83.6603L44.21 84.4495ZM29.8048 9.08021C29.6623 8.61268 29.1677 8.34923 28.7002 8.49176C28.2327 8.6343 27.9692 9.12886 28.1117 9.59638L29.8048 9.08021ZM41.6132 53.8815C41.7558 54.349 42.2503 54.6125 42.7179 54.4699C43.1854 54.3274 43.4488 53.8328 43.3063 53.3653L41.6132 53.8815ZM67.0298 19.4611L67.7828 18.9961L67.7784 18.9891L67.0298 19.4611ZM77.8868 26.753L78.2484 25.9453L78.2467 25.9445L77.8868 26.753ZM78.0406 27.506L78.688 28.1095L78.6893 28.1081L78.0406 27.506ZM48.5951 31.6524L48.6181 30.7677L48.6179 30.7677L48.5951 31.6524ZM37.7477 35.4461L38.3825 36.0628L38.3828 36.0625L37.7477 35.4461ZM36.9495 35.2555L37.7953 34.9948L37.7946 34.9925L36.9495 35.2555ZM28.9775 9.63378L29.8226 9.37085L29.8216 9.36767L28.9775 9.63378ZM29.0544 9.20486L28.3709 8.6427C28.3656 8.64915 28.3604 8.65568 28.3553 8.66227L29.0544 9.20486ZM40.2865 4.97271L40.2641 5.85743L40.2642 5.85743L40.2865 4.97271ZM69.4339 1.14087L70.067 1.75931L70.0672 1.75912L69.4339 1.14087ZM70.2417 1.45544L71.1259 1.41827L71.1257 1.41396L70.2417 1.45544ZM67.049 18.9655L66.314 18.4725C66.3094 18.4795 66.3048 18.4864 66.3004 18.4935L67.049 18.9655ZM47.9892 16.7636C48.5904 16.1142 48.5902 16.114 48.5899 16.1137C48.5898 16.1136 48.5895 16.1134 48.5893 16.1132C48.5889 16.1128 48.5884 16.1123 48.5879 16.1119C48.5869 16.1109 48.5857 16.1098 48.5843 16.1085C48.5815 16.106 48.5779 16.1027 48.5736 16.0988C48.565 16.091 48.5533 16.0806 48.5387 16.0678C48.5096 16.0421 48.4687 16.0068 48.4165 15.9633C48.3123 15.8764 48.1626 15.7568 47.9718 15.6172C47.591 15.3385 47.0412 14.9766 46.3562 14.6365C44.9922 13.9592 43.0408 13.3438 40.8078 13.7073L41.0922 15.4543C42.8404 15.1697 44.4086 15.6456 45.569 16.2218C46.1461 16.5084 46.6096 16.8137 46.9266 17.0456C47.0847 17.1613 47.205 17.2578 47.2836 17.3232C47.3228 17.3559 47.3515 17.3807 47.3691 17.3962C47.3779 17.404 47.3839 17.4094 47.3871 17.4122C47.3887 17.4137 47.3895 17.4145 47.3897 17.4146C47.3898 17.4147 47.3897 17.4146 47.3894 17.4143C47.3893 17.4142 47.3891 17.414 47.3888 17.4138C47.3887 17.4137 47.3885 17.4135 47.3885 17.4135C47.3882 17.4133 47.388 17.4131 47.9892 16.7636ZM40.8057 13.7076C39.6383 13.9005 38.7363 14.3692 38.1144 15.0685C37.4954 15.7646 37.2213 16.6136 37.1697 17.449C37.0692 19.0755 37.7968 20.8055 38.7656 21.8393L40.0571 20.6289C39.3911 19.9183 38.8686 18.6553 38.9364 17.5581C38.9689 17.0316 39.1336 16.586 39.4371 16.2447C39.7379 15.9065 40.2423 15.5947 41.0942 15.454L40.8057 13.7076ZM38.7655 21.8391C40.4536 23.6411 43.9546 26.2823 48.2688 24.5631L47.6135 22.9188C44.3691 24.2117 41.6195 22.2967 40.0572 20.629L38.7655 21.8391ZM47.9411 23.741C48.2082 24.5847 48.2086 24.5846 48.209 24.5844C48.2092 24.5844 48.2096 24.5843 48.2099 24.5842C48.2105 24.584 48.2112 24.5838 48.2118 24.5835C48.2132 24.5831 48.2146 24.5827 48.2161 24.5822C48.2192 24.5812 48.2227 24.58 48.2265 24.5787C48.2342 24.5762 48.2435 24.573 48.2543 24.5692C48.2758 24.5616 48.3032 24.5514 48.3359 24.5385C48.4011 24.5127 48.4878 24.4754 48.5893 24.4247C48.7913 24.3238 49.0593 24.1661 49.3361 23.9327C49.8996 23.4578 50.4923 22.6727 50.6284 21.4771L48.8697 21.277C48.7942 21.9401 48.483 22.3369 48.1954 22.5793C48.0467 22.7046 47.9024 22.7893 47.7984 22.8413C47.747 22.8669 47.7073 22.8837 47.6844 22.8928C47.673 22.8973 47.666 22.8998 47.664 22.9005C47.663 22.9008 47.6633 22.9007 47.665 22.9002C47.6658 22.8999 47.667 22.8995 47.6685 22.899C47.6692 22.8988 47.6701 22.8985 47.671 22.8982C47.6715 22.898 47.672 22.8979 47.6725 22.8977C47.6728 22.8976 47.6732 22.8975 47.6733 22.8975C47.6737 22.8973 47.6741 22.8972 47.9411 23.741ZM50.6284 21.4771C50.7459 20.4448 50.7866 19.068 51.0635 17.7061C51.1982 17.0435 51.3783 16.4544 51.6192 15.9899C51.8595 15.5266 52.1308 15.2426 52.4241 15.0959L51.6322 13.5129C50.8965 13.8809 50.3949 14.506 50.048 15.1749C49.7017 15.8426 49.4803 16.6088 49.3289 17.3534C49.0337 18.8058 48.9638 20.4506 48.8697 21.277L50.6284 21.4771ZM52.4226 15.0966C54.0522 14.2852 57.1621 14.572 59.6734 17.2371L60.9616 16.0232C58.03 12.912 54.1007 12.2838 51.6337 13.5122L52.4226 15.0966ZM59.6722 17.2358C60.8626 18.5043 61.094 19.7193 60.8693 20.5915C60.645 21.4622 59.9206 22.1874 58.7716 22.4265L59.1323 24.1594C60.8683 23.798 62.1729 22.6263 62.5833 21.033C62.9934 19.4413 62.465 17.6252 60.9628 16.0245L59.6722 17.2358ZM58.7716 22.4265C57.5739 22.6758 56.2019 22.3696 55.0546 21.9409C54.4945 21.7316 54.0168 21.5041 53.68 21.3293C53.5121 21.2421 53.3806 21.1687 53.2927 21.1182C53.2489 21.093 53.216 21.0735 53.1951 21.061C53.1846 21.0547 53.1772 21.0502 53.1728 21.0475C53.1707 21.0462 53.1693 21.0453 53.1687 21.0449C53.1684 21.0448 53.1683 21.0447 53.1684 21.0448C53.1684 21.0448 53.1685 21.0448 53.1687 21.0449C53.1688 21.045 53.1689 21.0451 53.1689 21.0451C53.1691 21.0452 53.1693 21.0453 52.7013 21.7964C52.2333 22.5476 52.2335 22.5477 52.2337 22.5478C52.2338 22.5479 52.234 22.548 52.2342 22.5482C52.2346 22.5484 52.235 22.5486 52.2354 22.5489C52.2363 22.5495 52.2375 22.5502 52.2388 22.551C52.2415 22.5526 52.2449 22.5548 52.2492 22.5574C52.2578 22.5626 52.2696 22.5698 52.2845 22.5788C52.3143 22.5966 52.3566 22.6216 52.4103 22.6526C52.5179 22.7144 52.6718 22.8001 52.8645 22.9002C53.2489 23.0998 53.793 23.359 54.435 23.5989C55.6918 24.0685 57.4451 24.5106 59.1323 24.1594L58.7716 22.4265ZM22.2915 74.0826L43.8323 85.9021L44.6838 84.3504L23.1429 72.5308L22.2915 74.0826ZM45.143 85.1262V65.4429H43.373V85.1262H45.143ZM44.6838 64.667L23.1429 52.8475L22.2915 54.3993L43.8323 66.2188L44.6838 64.667ZM21.8322 53.6234V73.3067H23.6022V53.6234H21.8322ZM65.3829 72.5307L43.8325 84.3503L44.6836 85.9022L66.2341 74.0826L65.3829 72.5307ZM44.6836 66.2188L66.2341 54.3994L65.3829 52.8475L43.8325 64.6669L44.6836 66.2188ZM64.9235 53.6234V73.3067H66.6935V53.6234H64.9235ZM44.7214 64.657L23.1421 52.8471L22.2923 54.3997L43.8716 66.2097L44.7214 64.657ZM23.1208 54.411L44.5847 43.4112L43.7775 41.836L22.3136 52.8358L23.1208 54.411ZM43.7806 43.4128L65.3599 54.3649L66.161 52.7865L44.5816 41.8344L43.7806 43.4128ZM65.3325 52.8011L43.8686 64.6587L44.7245 66.208L66.1884 54.3503L65.3325 52.8011ZM44.6497 104.956L66.1906 116.776L67.042 115.224L45.5012 103.405L44.6497 104.956ZM67.5013 116V96.3167H65.7313V116H67.5013ZM67.042 95.5408L45.5012 83.7212L44.6497 85.273L66.1906 97.0925L67.042 95.5408ZM44.1904 84.4971V104.18H45.9604V84.4971H44.1904ZM87.7412 103.404L66.1907 115.224L67.0419 116.776L88.5923 104.956L87.7412 103.404ZM67.0419 97.0926L88.5923 85.2731L87.7412 83.7211L66.1907 95.5407L67.0419 97.0926ZM87.2817 84.4971V104.18H89.0517V84.4971H87.2817ZM67.0796 95.5308L45.5003 83.7208L44.6506 85.2734L66.2299 97.0835L67.0796 95.5308ZM45.4792 85.2846L66.9335 74.2849L66.126 72.7098L44.6717 83.7096L45.4792 85.2846ZM66.1293 74.2866L87.7183 85.2387L88.5191 83.6602L66.9301 72.7081L66.1293 74.2866ZM87.6907 83.6748L66.2268 95.5325L67.0827 97.0818L88.5466 85.2241L87.6907 83.6748ZM0.741168 104.956L22.2916 116.776L23.1428 115.224L1.59233 103.404L0.741168 104.956ZM23.6022 116V96.3167H21.8322V116H23.6022ZM23.1428 95.5407L1.59233 83.7211L0.741168 85.2731L22.2916 97.0926L23.1428 95.5407ZM0.281748 84.4971V104.18H2.05175V84.4971H0.281748ZM43.8323 103.405L22.2915 115.224L23.1429 116.776L44.6838 104.956L43.8323 103.405ZM23.1429 97.0925L44.6838 85.273L43.8323 83.7212L22.2915 95.5408L23.1429 97.0925ZM43.373 84.4971V104.18H45.143V84.4971H43.373ZM23.1804 95.5307L1.59148 83.7207L0.742015 85.2735L22.3309 97.0835L23.1804 95.5307ZM1.57037 85.2847L23.0343 74.2849L22.227 72.7097L0.763122 83.7095L1.57037 85.2847ZM22.2301 74.2865L43.8094 85.2386L44.6105 83.6603L23.0312 72.7082L22.2301 74.2865ZM43.7819 83.6749L22.3276 95.5325L23.1838 97.0817L44.6381 85.224L43.7819 83.6749ZM28.1117 9.59638L41.6132 53.8815L43.3063 53.3653L29.8048 9.08021L28.1117 9.59638ZM66.2768 19.9261C66.8392 20.8369 67.7197 21.7022 68.7001 22.488C69.6896 23.2812 70.8286 24.031 71.9557 24.7008C74.21 26.0402 76.4739 27.0929 77.5269 27.5616L78.2467 25.9445C77.2225 25.4886 75.0292 24.4681 72.8599 23.1791C71.7752 22.5346 70.7109 21.8314 69.8071 21.107C68.8942 20.3752 68.1916 19.6582 67.7828 18.9961L66.2768 19.9261ZM77.5252 27.5608C77.2698 27.4465 77.201 27.1097 77.392 26.904L78.6893 28.1081C79.3226 27.4257 79.0999 26.3265 78.2484 25.9453L77.5252 27.5608ZM77.3932 26.9026C73.371 31.218 68.314 32.2787 63.1545 32.2009C60.568 32.1618 57.9847 31.8368 55.5124 31.5015C53.0642 31.1695 50.6908 30.8217 48.6181 30.7677L48.572 32.5371C50.5238 32.5879 52.7783 32.9169 55.2745 33.2554C57.7465 33.5907 60.424 33.9298 63.1278 33.9707C68.5487 34.0525 74.1901 32.9352 78.688 28.1095L77.3932 26.9026ZM48.6179 30.7677C42.0302 30.5979 38.4667 33.4347 37.1127 34.8297L38.3828 36.0625C39.4713 34.9411 42.5816 32.3827 48.5723 32.5371L48.6179 30.7677ZM37.1129 34.8294C37.328 34.608 37.7016 34.6907 37.7953 34.9948L36.1038 35.5162C36.4091 36.5065 37.6674 36.7989 38.3825 36.0628L37.1129 34.8294ZM37.7946 34.9925L29.8226 9.37085L28.1325 9.89671L36.1045 35.5184L37.7946 34.9925ZM29.8216 9.36767C29.8389 9.42283 29.8462 9.49223 29.8326 9.56701C29.819 9.64144 29.7882 9.70286 29.7536 9.74745L28.3553 8.66227C28.0833 9.01281 27.997 9.46696 28.1335 9.89988L29.8216 9.36767ZM29.738 9.76702C30.3404 9.03459 33.4379 5.6851 40.2641 5.85743L40.3088 4.08799C32.7872 3.89811 29.211 7.62127 28.3709 8.6427L29.738 9.76702ZM40.2642 5.85743C42.1917 5.90594 44.4163 6.22727 46.8785 6.56185C49.3172 6.89324 51.959 7.23252 54.6293 7.28729C59.9806 7.39706 65.5666 6.36607 70.067 1.75931L68.8008 0.522441C64.781 4.63734 59.7697 5.62236 54.6656 5.51766C52.1081 5.46521 49.5576 5.13965 47.1169 4.80797C44.6996 4.4795 42.3577 4.13956 40.3087 4.08799L40.2642 5.85743ZM70.0672 1.75912C69.7911 2.04192 69.3731 1.82515 69.3577 1.49693L71.1257 1.41396C71.0718 0.265991 69.6538 -0.351144 68.8007 0.522625L70.0672 1.75912ZM69.3575 1.49261C69.4237 3.06862 69.4682 6.13685 69.0826 9.42098C68.6939 12.732 67.8813 16.1357 66.314 18.4725L67.784 19.4584C69.5922 16.7624 70.4431 13.0125 70.8406 9.62737C71.2411 6.21535 71.1943 3.04497 71.1259 1.41827L69.3575 1.49261ZM66.3004 18.4935C66.0659 18.8655 65.9634 19.4292 66.2812 19.9332L67.7784 18.9891C67.9039 19.1881 67.8399 19.3705 67.7976 19.4375L66.3004 18.4935Z" fill="url(#paint0_linear_6246_98951)"/>
<defs>
<linearGradient id="paint0_linear_6246_98951" x1="1.16675" y1="1" x2="91.9925" y2="16.4008" gradientUnits="userSpaceOnUse">
<stop stop-color="#3B00B9"/>
<stop offset="1" stop-color="#2586B6"/>
</linearGradient>
</defs>
</svg>
