<svg width="120" height="123" viewBox="0 0 120 123" fill="none" xmlns="http://www.w3.org/2000/svg">
<path d="M76.7191 46.5796L77.6028 46.6277L77.6535 45.6946H76.7191V46.5796ZM76.6427 47.6712L77.5245 47.7467L77.5252 47.7378L76.6427 47.6712ZM24.1845 47.6712L23.3033 47.7529L23.3034 47.754L24.1845 47.6712ZM24.2131 40.8086L25.095 40.7346L25.094 40.7224L25.0927 40.7103L24.2131 40.8086ZM74.2075 45.5925L74.6013 44.8L74.5973 44.798L74.2075 45.5925ZM76.2321 46.4847L75.907 47.3079L75.915 47.311L75.923 47.314L76.2321 46.4847ZM60.3122 28.6402L61.1494 28.3533L61.1492 28.3527L60.3122 28.6402ZM76.6141 108.751L77.4952 108.834L77.4953 108.833L76.6141 108.751ZM24.1558 108.751L23.274 108.826L23.2741 108.826L24.1558 108.751ZM24.2036 102.059L25.0832 101.962L25.0805 101.937L25.0764 101.913L24.2036 102.059ZM76.5854 101.888L75.7126 101.742L75.7065 101.779L75.7034 101.815L76.5854 101.888ZM76.7955 46.5891V45.7041H75.9105V46.5891H76.7955ZM62.6488 59.5454C62.6488 59.0567 62.2526 58.6604 61.7638 58.6604C61.275 58.6604 60.8788 59.0567 60.8788 59.5454H62.6488ZM60.8788 85.7997C60.8788 86.2885 61.275 86.6847 61.7638 86.6847C62.2526 86.6847 62.6488 86.2885 62.6488 85.7997H60.8788ZM62.6488 94.5512C62.6488 94.0624 62.2526 93.6662 61.7638 93.6662C61.275 93.6662 60.8788 94.0624 60.8788 94.5512H62.6488ZM60.8788 112.045C60.8788 112.533 61.275 112.93 61.7638 112.93C62.2526 112.93 62.6488 112.533 62.6488 112.045H60.8788ZM51.9846 44.8142L52.4179 44.0425L52.3948 44.0296L52.371 44.018L51.9846 44.8142ZM36.8192 33.8512L37.1377 34.6768L37.1396 34.6761L36.8192 33.8512ZM57.6 10.5203L56.7152 10.4994L56.7151 10.5039L57.6 10.5203ZM59.0611 9.01112L59.0144 8.12734L59.0089 8.12767L59.0611 9.01112ZM75.0861 2.02516L75.7028 2.65991L75.7036 2.65913L75.0861 2.02516ZM78.505 2.02516L77.8875 2.65913L77.8895 2.66106L78.505 2.02516ZM94.5299 9.01112L94.5815 8.12762L94.5766 8.12736L94.5299 9.01112ZM95.991 10.5203L95.1061 10.5308L95.1062 10.5371L95.991 10.5203ZM77.359 46.4847L77.678 47.3102L77.6791 47.3098L77.359 46.4847ZM79.7974 19.1104C79.7974 19.5992 80.1936 19.9954 80.6824 19.9954C81.1711 19.9954 81.5674 19.5992 81.5674 19.1104H79.7974ZM72.0237 19.1104C72.0237 19.5992 72.4199 19.9954 72.9087 19.9954C73.3974 19.9954 73.7937 19.5992 73.7937 19.1104H72.0237ZM75.9201 29.9405C75.9201 30.4293 76.3163 30.8255 76.8051 30.8255C77.2938 30.8255 77.6901 30.4293 77.6901 29.9405H75.9201ZM75.8354 46.5316C75.817 46.871 75.7893 47.2194 75.7602 47.6046L77.5252 47.7378C77.5534 47.3637 77.5831 46.9907 77.6028 46.6277L75.8354 46.5316ZM75.7609 47.5957C75.5049 50.5877 72.9222 53.5284 68.3486 55.7589C63.8199 57.9674 57.5477 59.3628 50.4088 59.3628V61.1328C57.7574 61.1328 64.306 59.6996 69.1244 57.3498C73.8979 55.0218 77.1884 51.6742 77.5245 47.7467L75.7609 47.5957ZM50.4088 59.3628C43.2704 59.3628 37.0151 57.9652 32.4962 55.7557C27.9339 53.5251 25.347 50.5825 25.0656 47.5884L23.3034 47.754C23.6714 51.6699 26.9529 55.0157 31.7187 57.3458C36.5277 59.6971 43.0599 61.1328 50.4088 61.1328V59.3628ZM25.0657 47.5895C24.8118 44.8509 24.8349 42.6671 25.0888 40.9371L23.3375 40.6802C23.0565 42.5951 23.0415 44.9293 23.3033 47.7529L25.0657 47.5895ZM23.3312 40.8827C23.6546 44.7338 27.0661 47.9451 31.8585 50.156C36.7112 52.3948 43.2506 53.7482 50.4088 53.7482V51.9782C43.4521 51.9782 37.1754 50.6597 32.5999 48.5488C27.9641 46.4101 25.3351 43.5942 25.095 40.7346L23.3312 40.8827ZM50.4088 53.7482C55.7553 53.7482 60.7512 52.9947 64.9564 51.6853C69.1481 50.38 72.6162 48.5026 74.8425 46.2089L73.5724 44.9761C71.6253 46.9822 68.461 48.7401 64.4301 49.9953C60.4127 51.2463 55.596 51.9782 50.4088 51.9782V53.7482ZM73.8136 46.385C74.4904 46.7214 75.1923 47.0257 75.907 47.3079L76.5571 45.6616C75.8775 45.3933 75.2233 45.1091 74.6013 44.8L73.8136 46.385ZM75.923 47.314C76.1502 47.3987 76.4279 47.4646 76.7191 47.4646V45.6946C76.6856 45.6946 76.6195 45.6847 76.5411 45.6555L75.923 47.314ZM25.0927 40.7103C25.0773 40.5728 25.0695 40.4348 25.0695 40.2866H23.2995C23.2995 40.4991 23.3108 40.7028 23.3336 40.907L25.0927 40.7103ZM25.0695 40.2866C25.0695 37.3529 27.5831 34.4331 32.2503 32.1943C36.853 29.9863 43.2728 28.595 50.4088 28.595V26.825C43.0671 26.825 36.3747 28.2527 31.4847 30.5984C26.6592 32.9132 23.2995 36.2818 23.2995 40.2866H25.0695ZM50.4088 28.595C53.8585 28.595 57.1441 28.922 60.1422 29.5087L60.4821 27.7716C57.3683 27.1623 53.9688 26.825 50.4088 26.825V28.595ZM59.475 28.927C61.7925 35.6921 66.0466 42.5745 73.8176 46.387L74.5973 44.798C67.3939 41.2639 63.3777 34.8578 61.1494 28.3533L59.475 28.927ZM75.7329 108.668C75.4515 111.667 72.8624 114.609 68.2991 116.839C63.7789 119.047 57.5236 120.443 50.3897 120.443V122.213C57.7337 122.213 64.2659 120.779 69.076 118.429C73.843 116.1 77.1272 112.754 77.4952 108.834L75.7329 108.668ZM50.3897 120.443C43.2557 120.443 36.9834 119.047 32.4535 116.839C27.8784 114.608 25.2936 111.667 25.0376 108.675L23.2741 108.826C23.6102 112.754 26.9034 116.102 31.6778 118.43C36.4973 120.779 43.0459 122.213 50.3897 122.213V120.443ZM25.0376 108.676C24.8121 106.033 24.8435 103.9 25.0803 102.18L23.3269 101.938C23.067 103.826 23.0412 106.097 23.274 108.826L25.0376 108.676ZM23.324 102.157C23.7452 105.952 27.1706 109.113 31.9518 111.291C36.7922 113.496 43.2846 114.828 50.3897 114.828V113.058C43.485 113.058 37.252 111.761 32.6856 109.68C28.0601 107.573 25.3973 104.792 25.0832 101.962L23.324 102.157ZM50.3897 114.828C57.4964 114.828 64.0376 113.472 68.9035 111.233C73.706 109.022 77.1491 105.812 77.4674 101.961L75.7034 101.815C75.4678 104.666 72.818 107.483 68.1636 109.625C63.5726 111.737 57.2929 113.058 50.3897 113.058V114.828ZM75.7098 102.017C75.9636 103.747 75.9867 105.931 75.7328 108.669L77.4953 108.833C77.7571 106.009 77.742 103.675 77.461 101.76L75.7098 102.017ZM75.7291 101.376C75.7291 101.558 75.7271 101.656 75.7126 101.742L77.4582 102.035C77.501 101.779 77.4991 101.535 77.4991 101.376H75.7291ZM75.7034 101.815C75.4675 104.669 72.84 107.485 68.2021 109.625C63.6254 111.737 57.3462 113.058 50.3897 113.058V114.828C57.5482 114.828 64.0899 113.472 68.9438 111.232C73.7366 109.02 77.1494 105.809 77.4674 101.961L75.7034 101.815ZM50.3897 113.058C43.4317 113.058 37.1993 111.76 32.6471 109.681C28.0381 107.575 25.3976 104.794 25.0832 101.962L23.324 102.157C23.7449 105.949 27.1401 109.111 31.9116 111.29C36.7399 113.496 43.2329 114.828 50.3897 114.828V113.058ZM25.0764 101.913C25.0498 101.754 25.0408 101.581 25.0408 101.376H23.2708C23.2708 101.626 23.281 101.909 23.3308 102.206L25.0764 101.913ZM25.0408 101.376C25.0408 98.4372 27.5546 95.5175 32.2226 93.28C36.8264 91.0732 43.2486 89.6841 50.3897 89.6841V87.9141C43.0435 87.9141 36.3487 89.3394 31.4575 91.6839C26.6303 93.9977 23.2708 97.3663 23.2708 101.376H25.0408ZM50.3897 89.6841C57.5309 89.6841 63.9506 91.0732 68.552 93.2799C73.2172 95.5173 75.7291 98.4369 75.7291 101.376H77.4991C77.4991 97.3666 74.1425 93.998 69.3173 91.684C64.4284 89.3394 57.7359 87.9141 50.3897 87.9141V89.6841ZM77.6805 104.48V46.5891H75.9105V104.48H77.6805ZM60.8788 59.5454V85.7997H62.6488V59.5454H60.8788ZM60.8788 94.5512V112.045H62.6488V94.5512H60.8788ZM23.2804 44.1023V104.48H25.0504V44.1023H23.2804ZM54.1047 38.1414C54.3825 38.9817 54.3823 38.9818 54.3821 38.9818C54.382 38.9819 54.3818 38.9819 54.3817 38.982C54.3815 38.982 54.3814 38.9821 54.3813 38.9821C54.3812 38.9821 54.3814 38.9821 54.3819 38.9819C54.3829 38.9816 54.3852 38.9808 54.3886 38.9798C54.3954 38.9776 54.407 38.9739 54.4231 38.969C54.4554 38.959 54.5061 38.9438 54.574 38.9246C54.7097 38.8862 54.9138 38.832 55.1766 38.772C55.7029 38.6519 56.4614 38.5095 57.3761 38.4247C59.2118 38.2545 61.6374 38.3198 64.0714 39.227L64.6896 37.5684C61.9284 36.5393 59.2161 36.4765 57.2127 36.6622C56.2078 36.7554 55.3714 36.912 54.7828 37.0464C54.4881 37.1136 54.2547 37.1755 54.0923 37.2214C54.0111 37.2444 53.9475 37.2634 53.9029 37.2771C53.8806 37.284 53.863 37.2895 53.8502 37.2936C53.8439 37.2956 53.8387 37.2973 53.8348 37.2986C53.8329 37.2992 53.8312 37.2997 53.8299 37.3002C53.8292 37.3004 53.8286 37.3006 53.8281 37.3008C53.8279 37.3008 53.8275 37.3009 53.8274 37.301C53.8271 37.3011 53.8268 37.3012 54.1047 38.1414ZM64.0714 39.227C65.2752 39.6756 65.919 40.1854 66.2372 40.629C66.5358 41.0451 66.5906 41.4592 66.4915 41.88C66.271 42.8163 65.249 43.8432 64.0447 44.3371L64.7163 45.9747C66.2433 45.3485 67.8189 43.9645 68.2144 42.2858C68.4232 41.3991 68.2907 40.4547 67.6754 39.5972C67.0798 38.7671 66.0834 38.0879 64.6896 37.5684L64.0714 39.227ZM64.0447 44.3371C61.4162 45.4149 56.7702 46.4868 52.4179 44.0425L51.5512 45.5858C56.5961 48.419 61.8822 47.1369 64.7163 45.9747L64.0447 44.3371ZM51.9846 44.8142C52.371 44.018 52.3713 44.0182 52.3716 44.0183C52.3717 44.0183 52.372 44.0185 52.3722 44.0186C52.3725 44.0187 52.3728 44.0189 52.3731 44.019C52.3737 44.0193 52.3742 44.0195 52.3745 44.0197C52.3752 44.02 52.3754 44.0201 52.3752 44.02C52.3747 44.0198 52.3725 44.0187 52.3686 44.0167C52.3608 44.0126 52.3465 44.0051 52.3267 43.9941C52.2869 43.972 52.2258 43.9364 52.1514 43.8879C52.0002 43.7895 51.8059 43.6455 51.6235 43.4615C51.2527 43.0874 51.0153 42.6439 51.1013 42.1064L49.3535 41.8269C49.1434 43.1403 49.7846 44.1206 50.3664 44.7075C50.6603 45.004 50.9608 45.2249 51.1854 45.3711C51.2988 45.445 51.3958 45.5018 51.4672 45.5414C51.5029 45.5612 51.5324 45.5769 51.5546 45.5884C51.5657 45.5941 51.5749 45.5988 51.5822 45.6025C51.5859 45.6043 51.589 45.6059 51.5917 45.6072C51.593 45.6078 51.5942 45.6084 51.5953 45.609C51.5958 45.6092 51.5963 45.6095 51.5968 45.6097C51.597 45.6098 51.5974 45.61 51.5975 45.61C51.5978 45.6102 51.5981 45.6103 51.9846 44.8142ZM51.1013 42.1064C51.2262 41.3256 51.6589 39.6732 51.7076 38.1641C51.7576 36.6155 51.4374 34.7917 49.7777 33.7002L48.8052 35.1791C49.6858 35.7582 49.9816 36.7724 49.9385 38.1069C49.8941 39.481 49.5246 40.7568 49.3535 41.8269L51.1013 42.1064ZM49.7777 33.7002C46.9685 31.8528 41.5439 31.0662 36.4987 33.0262L37.1396 34.6761C41.7209 32.8963 46.5338 33.6854 48.8052 35.1791L49.7777 33.7002ZM36.5006 33.0255C33.9632 34.0043 32.4606 35.5892 32.5484 37.4755C32.6334 39.2995 34.1956 40.783 36.3039 41.6131L36.9524 39.9662C35.107 39.2396 34.3534 38.1841 34.3165 37.3931C34.2826 36.6645 34.8524 35.5584 37.1377 34.6768L36.5006 33.0255ZM36.3039 41.6131C38.4424 42.4551 40.9154 42.608 42.8001 42.5667C43.7525 42.5458 44.5765 42.4746 45.1637 42.4086C45.4576 42.3755 45.6932 42.3436 45.8569 42.3197C45.9388 42.3077 46.0028 42.2977 46.0472 42.2906C46.0694 42.287 46.0867 42.2841 46.099 42.2821C46.1051 42.281 46.1099 42.2802 46.1135 42.2796C46.1152 42.2793 46.1167 42.2791 46.1178 42.2789C46.1184 42.2788 46.1188 42.2787 46.1192 42.2786C46.1194 42.2786 46.1197 42.2785 46.1198 42.2785C46.12 42.2785 46.1202 42.2785 45.9681 41.4066C45.816 40.5348 45.8161 40.5348 45.8163 40.5347C45.8163 40.5347 45.8164 40.5347 45.8164 40.5347C45.8165 40.5347 45.8165 40.5347 45.8164 40.5347C45.8162 40.5347 45.8157 40.5348 45.8148 40.535C45.8132 40.5353 45.8102 40.5358 45.806 40.5365C45.7976 40.5379 45.7842 40.5401 45.766 40.543C45.7296 40.5489 45.674 40.5576 45.6009 40.5683C45.4546 40.5896 45.2385 40.619 44.9657 40.6497C44.4195 40.7111 43.6498 40.7776 42.7614 40.7971C40.9645 40.8365 38.7676 40.6809 36.9524 39.9662L36.3039 41.6131ZM61.1492 28.3527C58.6096 20.9573 58.4284 13.577 58.4848 10.5368L56.7151 10.5039C56.657 13.6333 56.8387 21.2501 59.4752 28.9276L61.1492 28.3527ZM58.4847 10.5413C58.4928 10.1994 58.7661 9.91512 59.1134 9.89458L59.0089 8.12767C57.7517 8.20204 56.7453 9.22763 56.7152 10.4994L58.4847 10.5413ZM59.1079 9.89489C67.4757 9.4525 73.0631 5.22452 75.7028 2.65991L74.4694 1.39041C72.0093 3.78052 66.8052 7.71548 59.0144 8.12736L59.1079 9.89489ZM75.7036 2.65913C76.3149 2.06364 77.2761 2.06364 77.8875 2.65913L79.1225 1.39119C77.8238 0.126289 75.7672 0.126289 74.4686 1.39119L75.7036 2.65913ZM77.8895 2.66106C80.5372 5.22397 86.1148 9.45247 94.4832 9.89489L94.5766 8.12736C86.7864 7.71551 81.5915 3.78107 79.1205 1.38926L77.8895 2.66106ZM94.4782 9.89461C94.8398 9.91575 95.1022 10.2022 95.1061 10.5308L96.876 10.5098C96.8608 9.22478 95.8434 8.20141 94.5815 8.12763L94.4782 9.89461ZM95.1062 10.5371C95.1627 13.5111 94.9935 20.647 92.6102 27.8766C90.2287 35.101 85.6784 42.3071 77.0388 45.6597L77.6791 47.3098C86.9935 43.6954 91.8166 35.9377 94.2912 28.4308C96.7641 20.9292 96.934 13.5663 96.8759 10.5035L95.1062 10.5371ZM77.0399 45.6592C76.9674 45.6873 76.8844 45.7041 76.7955 45.7041V47.4741C77.1077 47.4741 77.4067 47.4151 77.678 47.3102L77.0399 45.6592ZM71.7818 19.9954H81.8188V18.2254H71.7818V19.9954ZM81.8188 19.9954C83.408 19.9954 84.687 21.2744 84.687 22.8407H86.457C86.457 20.2866 84.3753 18.2254 81.8188 18.2254V19.9954ZM84.687 22.8407V29.931H86.457V22.8407H84.687ZM84.687 29.931C84.687 31.4973 83.408 32.7763 81.8188 32.7763V34.5463C84.3753 34.5463 86.457 32.4851 86.457 29.931H84.687ZM81.8188 32.7763H71.7818V34.5463H81.8188V32.7763ZM71.7818 32.7763C70.1926 32.7763 68.9136 31.4973 68.9136 29.931H67.1436C67.1436 32.4851 69.2253 34.5463 71.7818 34.5463V32.7763ZM68.9136 29.931V22.8407H67.1436V29.931H68.9136ZM68.9136 22.8407C68.9136 21.2744 70.1926 19.9954 71.7818 19.9954V18.2254C69.2253 18.2254 67.1436 20.2866 67.1436 22.8407H68.9136ZM81.5674 19.1104V14.2031H79.7974V19.1104H81.5674ZM81.5674 14.2031C81.5674 11.5736 79.4279 9.45497 76.7955 9.45497V11.225C78.4606 11.225 79.7974 12.5613 79.7974 14.2031H81.5674ZM76.7955 9.45497C74.1631 9.45497 72.0237 11.5736 72.0237 14.2031H73.7937C73.7937 12.5613 75.1304 11.225 76.7955 11.225V9.45497ZM72.0237 14.2031V19.1104H73.7937V14.2031H72.0237ZM77.811 25.2136C77.811 25.7577 77.3657 26.208 76.8051 26.208V27.978C78.333 27.978 79.581 26.7454 79.581 25.2136H77.811ZM76.8051 26.208C76.2444 26.208 75.7992 25.7577 75.7992 25.2136H74.0292C74.0292 26.7454 75.2771 27.978 76.8051 27.978V26.208ZM75.7992 25.2136C75.7992 24.6695 76.2444 24.2192 76.8051 24.2192V22.4492C75.2771 22.4492 74.0292 23.6818 74.0292 25.2136H75.7992ZM76.8051 24.2192C77.3657 24.2192 77.811 24.6695 77.811 25.2136H79.581C79.581 23.6818 78.333 22.4492 76.8051 22.4492V24.2192ZM75.9201 27.093V29.9405H77.6901V27.093H75.9201Z" fill="url(#paint0_linear_14653_72000)"/>
<defs>
<linearGradient id="paint0_linear_14653_72000" x1="23.9995" y1="1.32751" x2="99.9532" y2="11.5419" gradientUnits="userSpaceOnUse">
<stop stop-color="#3B00B9"/>
<stop offset="1" stop-color="#2586B6"/>
</linearGradient>
</defs>
</svg>
