<svg width="121" height="121" viewBox="0 0 121 121" fill="none" xmlns="http://www.w3.org/2000/svg">
<path d="M44.3865 81.9283C44.5882 81.9283 44.79 81.9283 44.9918 81.9191C43.9921 84.0744 43.4143 86.4589 43.3593 88.981C25.2186 88.4307 10.6821 73.2798 10.6821 54.6713C10.6821 53.4791 10.7463 52.296 10.8564 51.1312C12.5989 68.4374 26.9428 81.9283 44.3865 81.9283Z" stroke="#463F93" stroke-width="1.77"/>
<path d="M78.0974 54.6713C78.0974 60.7702 76.5383 66.5022 73.7869 71.4639H68.6235C73.7319 66.0804 77.1345 59.0002 77.9232 51.1312C78.0332 52.296 78.0974 53.4791 78.0974 54.6713Z" stroke="#463F93" stroke-width="1.77"/>
<path d="M78.1 47.5901C78.1 48.7823 78.0358 49.9654 77.9257 51.1302C77.137 58.9991 73.7344 66.0793 68.6261 71.4628H61.3166C54.0805 71.4628 47.8348 75.7458 44.9918 81.918C44.79 81.9272 44.5882 81.9272 44.3865 81.9272C26.9428 81.9272 12.5989 68.4363 10.8564 51.1302C10.7463 49.9654 10.6821 48.7823 10.6821 47.5901C10.6821 28.6331 25.7688 13.2621 44.3865 13.2621C63.0041 13.2621 78.1 28.6331 78.1 47.5901Z" stroke="#463F93" stroke-width="1.77"/>
<path d="M51.2435 37.3418C49.5652 32.4169 38.0919 31.8666 38.0919 40.0657C38.0919 47.5127 51.482 44.2753 51.2343 53.098C51.0051 61.3521 40.5132 61.3888 37.5142 55.666" stroke="#463F93" stroke-width="1.77" stroke-linecap="round"/>
<path d="M44.7134 28.6486V33.4268" stroke="#463F93" stroke-width="1.77" stroke-linecap="round"/>
<path d="M44.7134 59.8044V64.5827" stroke="#463F93" stroke-width="1.77" stroke-linecap="round"/>
<path d="M105.393 76.7265C102.146 73.4707 97.6522 71.4622 92.6905 71.4622H61.3157C54.0796 71.4622 47.834 75.7451 44.9909 81.9174C43.9912 84.0726 43.4134 86.4571 43.3584 88.9792C43.3584 89.126 43.3584 89.2819 43.3584 89.4286C43.3584 99.3519 51.4016 107.395 61.3249 107.395H92.6997C102.623 107.395 110.666 99.3519 110.666 89.4286C110.666 84.467 108.658 79.9731 105.402 76.7265H105.393ZM70.0284 93.3539C70.0284 95.1607 69.2947 96.7931 68.1116 97.9762C66.9377 99.1593 65.3052 99.893 63.4985 99.893C59.885 99.893 56.9594 96.9674 56.9594 93.3539V85.5033C56.9594 81.899 59.885 78.9642 63.4985 78.9642C64.8283 78.9642 66.0572 79.3586 67.0844 80.0464C68.8545 81.2112 70.0284 83.2197 70.0284 85.5033V93.3539ZM84.5006 87.5944C82.4646 87.5944 80.8138 85.9436 80.8138 83.9075C80.8138 81.8715 82.4646 80.2299 84.5006 80.2299C86.5366 80.2299 88.1783 81.8807 88.1783 83.9075C88.1783 85.9344 86.5275 87.5944 84.5006 87.5944ZM95.5336 98.6274C93.5068 98.6274 91.8559 96.9857 91.8559 94.9497C91.8559 92.9137 93.5068 91.2721 95.5336 91.2721C97.5605 91.2721 99.2205 92.9137 99.2205 94.9497C99.2205 96.9857 97.5696 98.6274 95.5336 98.6274Z" stroke="#463F93" stroke-width="1.77"/>
<path d="M88.1785 83.9062C88.1785 85.9422 86.5277 87.593 84.5008 87.593C82.474 87.593 80.814 85.9422 80.814 83.9062C80.814 81.8702 82.4648 80.2285 84.5008 80.2285C86.5368 80.2285 88.1785 81.8793 88.1785 83.9062Z" stroke="#463F93" stroke-width="1.77"/>
<path d="M99.2205 94.9484C99.2205 96.9844 97.5696 98.6261 95.5336 98.6261C93.4976 98.6261 91.856 96.9844 91.856 94.9484C91.856 92.9124 93.5068 91.2708 95.5336 91.2708C97.5605 91.2708 99.2205 92.9124 99.2205 94.9484Z" stroke="#463F93" stroke-width="1.77"/>
<path d="M70.0295 85.5059V93.3565C70.0295 95.1632 69.2958 96.7957 68.1127 97.9788C66.9388 99.1619 65.3063 99.8956 63.4995 99.8956C59.8861 99.8956 56.9604 96.9699 56.9604 93.3565V85.5059C56.9604 81.9016 59.8861 78.9668 63.4995 78.9668C64.8294 78.9668 66.0583 79.3612 67.0855 80.049C68.8556 81.2138 70.0295 83.2223 70.0295 85.5059Z" stroke="#463F93" stroke-width="1.77"/>
<path d="M100.477 78.9719L79.5571 99.8915" stroke="#463F93" stroke-width="1.77" stroke-linecap="round"/>
<path d="M88.1785 83.9062C88.1785 85.9422 86.5277 87.593 84.5008 87.593C82.474 87.593 80.814 85.9422 80.814 83.9062C80.814 81.8702 82.4648 80.2285 84.5008 80.2285C86.5368 80.2285 88.1785 81.8793 88.1785 83.9062Z" stroke="#463F93" stroke-width="1.77" stroke-linecap="round"/>
<path d="M99.2205 94.9482C99.2205 96.9842 97.5696 98.6259 95.5336 98.6259C93.4976 98.6259 91.856 96.9842 91.856 94.9482C91.856 92.9122 93.5068 91.2705 95.5336 91.2705C97.5605 91.2705 99.2205 92.9122 99.2205 94.9482Z" stroke="#463F93" stroke-width="1.77" stroke-linecap="round"/>
</svg>
