<svg width="121" height="121" viewBox="0 0 121 121" fill="none" xmlns="http://www.w3.org/2000/svg">
<path d="M41.7905 41.2877L59.9975 51.3602V34.5818L41.7905 24.5093V41.2877Z" stroke="#463F93" stroke-width="1.77" stroke-linejoin="round"/>
<path d="M78.193 41.2877L59.9951 51.3602V34.5818L78.193 24.5093V41.2877Z" stroke="#463F93" stroke-width="1.77" stroke-linejoin="round"/>
<path d="M60.0248 34.5753L41.7905 24.5118L59.9247 15.1309L78.1589 24.4664L60.0248 34.5753Z" stroke="#463F93" stroke-width="1.77" stroke-linejoin="round"/>
<path d="M41.7905 95.4476L59.9975 105.52V88.7417L41.7905 78.6692V95.4476Z" stroke="#463F93" stroke-width="1.77" stroke-linejoin="round"/>
<path d="M78.193 95.4476L59.9951 105.52V88.7417L78.193 78.6692V95.4476Z" stroke="#463F93" stroke-width="1.77" stroke-linejoin="round"/>
<path d="M60.0248 88.7352L41.7905 78.6718L59.9247 69.2908L78.1589 78.6263L60.0248 88.7352Z" stroke="#463F93" stroke-width="1.77" stroke-linejoin="round"/>
<path d="M76.9292 68.1378L95.1361 78.2103V61.4319L76.9292 51.3594V68.1378Z" stroke="#463F93" stroke-width="1.77" stroke-linejoin="round"/>
<path d="M113.332 68.1378L95.1338 78.2103V61.4319L113.332 51.3594V68.1378Z" stroke="#463F93" stroke-width="1.77" stroke-linejoin="round"/>
<path d="M95.1634 61.4357L76.9292 51.3632L95.0634 41.9913L113.298 51.3268L95.1634 61.4357Z" stroke="#463F93" stroke-width="1.77" stroke-linejoin="round"/>
<path d="M7.33496 68.1378L25.5419 78.2103V61.4319L7.33496 51.3594V68.1378Z" stroke="#463F93" stroke-width="1.77" stroke-linejoin="round"/>
<path d="M43.7465 68.1378L25.5396 78.2103V61.4319L43.7465 51.3594V68.1378Z" stroke="#463F93" stroke-width="1.77" stroke-linejoin="round"/>
<path d="M25.5692 61.4357L7.33496 51.3632L25.4691 41.9913L43.7034 51.3268L25.5692 61.4357Z" stroke="#463F93" stroke-width="1.77" stroke-linejoin="round"/>
<path d="M68.2866 38.2891L84.7011 47.0968" stroke="#463F93" stroke-width="1.77" stroke-linecap="round" stroke-linejoin="round"/>
<path d="M34.1855 64.8818L50.6 73.6987" stroke="#463F93" stroke-width="1.77" stroke-linecap="round" stroke-linejoin="round"/>
<path d="M68.8179 73.6987L85.2323 64.8818" stroke="#463F93" stroke-width="1.77" stroke-linecap="round" stroke-linejoin="round"/>
<path d="M35.5312 47.0968L51.9548 38.2891" stroke="#463F93" stroke-width="1.77" stroke-linecap="round" stroke-linejoin="round"/>
</svg>
