<svg width="120" height="120" viewBox="0 0 120 120" fill="none" xmlns="http://www.w3.org/2000/svg">
<path d="M55.1656 22.4316C54.6656 28.2916 45.2856 33.0816 33.0956 33.0816C20.9056 33.0816 11.5856 28.2916 11.0356 22.4316C10.8156 20.1016 10.8356 18.2016 11.0656 16.6616C11.5656 22.3216 21.2456 26.8316 33.0956 26.8316C44.9456 26.8316 54.4756 22.3916 55.1256 16.8016C55.3356 18.3116 55.3556 20.1716 55.1656 22.4316Z" stroke="#473F99" stroke-width="1.77"/>
<path d="M55.1676 16.1905C55.1676 16.3905 55.1676 16.6005 55.1276 16.8005C54.4776 22.3905 44.8676 26.8305 33.0976 26.8305C21.3276 26.8305 11.5676 22.3205 11.0676 16.6605C11.0476 16.5005 11.0376 16.3505 11.0376 16.1905C11.0376 10.3105 20.9176 5.54053 33.0976 5.54053C45.2776 5.54053 55.1676 10.3105 55.1676 16.1905Z" stroke="#473F99" stroke-width="1.77"/>
<path d="M33.0865 78.5415C36.5065 78.5415 39.7465 78.1615 42.6365 77.4915V83.7015C39.7765 84.3915 36.5465 84.7815 33.0865 84.7815C20.8965 84.7815 11.5165 80.0015 11.0165 74.1415C10.8365 72.0415 10.8465 70.2815 11.0165 68.8315C11.0165 68.7115 11.0365 68.6015 11.0565 68.5015C11.7065 74.1015 21.3165 78.5415 33.0865 78.5415Z" stroke="#473F99" stroke-width="1.77"/>
<path d="M42.6481 65.8915V77.4915C39.7481 78.1615 36.5081 78.5415 33.0881 78.5415C21.3181 78.5415 11.7081 74.1015 11.0581 68.5015C11.0281 68.3015 11.0181 68.0915 11.0181 67.8915C11.0181 62.0115 20.8981 57.2515 33.0881 57.2515C40.1681 57.2515 46.4681 58.8615 50.4981 61.3615L48.8781 62.1915L42.7081 65.3515L42.6481 65.8915Z" stroke="#473F99" stroke-width="1.77"/>
<path d="M55.2993 58.9121V40.8921" stroke="#473F99" stroke-width="1.77"/>
<path d="M55.2993 31.7594V19.5194V19.4194" stroke="#473F99" stroke-width="1.77"/>
<path d="M42.647 32.4897V54.7097" stroke="#473F99" stroke-width="1.77" stroke-linecap="round"/>
<path d="M42.647 62.1187V76.9287" stroke="#473F99" stroke-width="1.77" stroke-linecap="round"/>
<path d="M11.0181 19.4194V70.5194" stroke="#473F99" stroke-width="1.77"/>
<path d="M36.2088 14.3698C36.2088 14.3698 40.4788 12.9498 44.8488 14.5798C49.2188 16.2098 47.1388 19.3498 44.8488 20.2998C42.5588 21.2498 38.3788 22.2398 34.4188 20.0098C34.4188 20.0098 32.6888 19.1698 32.9388 17.5998C33.1888 16.0398 34.2888 12.6398 32.1488 11.2298C30.0088 9.80977 25.7088 9.14977 21.6488 10.7298C17.5988 12.3098 18.1588 15.2898 21.4888 16.5998C24.8188 17.9098 29.3488 17.1198 29.3488 17.1198" stroke="#473F99" stroke-width="1.77"/>
<path d="M109.117 65.4194V96.0594L75.8774 114.459V83.8194L109.117 65.4194Z" stroke="#473F99" stroke-width="1.77" stroke-linejoin="round"/>
<path d="M104.716 94.4416L80.2759 107.972V85.4416L104.716 71.9116V94.4416Z" stroke="#473F99" stroke-width="1.77" stroke-linejoin="round"/>
<path d="M100.687 96.6718L85.4165 104.952V88.6118L100.687 80.3218V96.6718Z" stroke="#473F99" stroke-width="1.77" stroke-linejoin="round"/>
<path d="M85.4165 93.6712L100.277 85.6812" stroke="#473F99" stroke-width="1.77" stroke-linecap="round" stroke-linejoin="round"/>
<path d="M75.8792 83.8194V114.459L42.6392 96.0594V65.4194L42.6492 65.4294L53.7792 71.5894L55.2592 72.4094L69.9992 80.5594L75.8192 83.8094L75.8392 83.7994L75.8792 83.8194Z" stroke="#473F99" stroke-width="1.77" stroke-linejoin="round"/>
<path d="M75.8385 83.8001L75.8185 83.8101L69.9985 80.5601L75.8385 83.8001Z" stroke="#473F99" stroke-width="1.77" stroke-linejoin="round"/>
<path d="M109.119 65.4201L75.8389 83.8001L69.9989 80.5601L55.2689 72.3501L53.8189 71.5401L45.5489 66.9301C44.3389 66.2501 44.3689 64.5001 45.5989 63.8701L48.8789 62.1901L50.4989 61.3601L55.2989 58.9101L66.4389 53.2101L76.0089 48.3101L109.119 65.4201Z" stroke="#473F99" stroke-width="1.77" stroke-linejoin="round"/>
<path d="M75.8385 83.8001L75.8185 83.8101L69.9985 80.5601L75.8385 83.8001Z" stroke="#473F99" stroke-width="1.77" stroke-linejoin="round"/>
<path d="M66.4393 60.7497V47.2297L56.7993 40.4897" stroke="#473F99" stroke-width="1.77" stroke-linecap="round" stroke-linejoin="round"/>
<path d="M58.2693 36.3213C58.2693 38.3613 57.0493 40.1113 55.2993 40.8913C54.6793 41.1613 53.9993 41.3113 53.2893 41.3113C50.5293 41.3113 48.2993 39.0813 48.2993 36.3213C48.2993 33.5613 50.5293 31.3413 53.2893 31.3413C53.9993 31.3413 54.6793 31.4913 55.2993 31.7613C57.0493 32.5413 58.2693 34.2913 58.2693 36.3213Z" stroke="#473F99" stroke-width="1.77" stroke-linecap="round" stroke-linejoin="round"/>
</svg>
