<svg width="121" height="121" viewBox="0 0 121 121" fill="none" xmlns="http://www.w3.org/2000/svg">
<path d="M87.0219 44.8809L86.3956 44.2556L86.1369 44.5147V44.8809H87.0219ZM36.4519 31.6647H37.3369V31.2991L37.079 31.0401L36.4519 31.6647ZM86.8767 48.0663L85.9949 47.9907L85.9949 47.9911L86.8767 48.0663ZM36.4519 48.0663L37.3331 47.9847L37.333 47.9837L36.4519 48.0663ZM86.838 41.6083L85.9661 41.4567L85.9616 41.4825L85.9586 41.5085L86.838 41.6083ZM86.8477 107.157L85.9666 107.074L85.9665 107.075L86.8477 107.157ZM36.4228 107.157L37.3046 107.082L37.3046 107.081L36.4228 107.157ZM36.4615 100.699L37.3409 100.599L37.3401 100.592L37.3391 100.584L36.4615 100.699ZM86.8283 100.534L85.9487 100.437L85.9475 100.447L85.9466 100.458L86.8283 100.534ZM73.4542 59.5591C73.4542 59.0704 73.058 58.6741 72.5692 58.6741C72.0804 58.6741 71.6842 59.0704 71.6842 59.5591H73.4542ZM71.6842 84.9556C71.6842 85.4444 72.0804 85.8406 72.5692 85.8406C73.058 85.8406 73.4542 85.4444 73.4542 84.9556H71.6842ZM73.4542 93.4276C73.4542 92.9388 73.058 92.5426 72.5692 92.5426C72.0804 92.5426 71.6842 92.9388 71.6842 93.4276H73.4542ZM71.6842 110.352C71.6842 110.841 72.0804 111.237 72.5692 111.237C73.058 111.237 73.4542 110.841 73.4542 110.352H71.6842ZM63.1502 45.2972L63.5838 44.5257L63.5621 44.5135L63.5398 44.5026L63.1502 45.2972ZM61.4658 42.5475L62.3393 42.6899L62.3394 42.6891L61.4658 42.5475ZM93.4913 37.1488L86.3956 44.2556L87.6482 45.5062L94.7439 38.3994L93.4913 37.1488ZM86.1369 44.8809V82.3027H87.9069V44.8809H86.1369ZM93.4247 34.0562C93.4247 31.5519 95.4497 29.5288 97.9413 29.5288V27.7588C94.4698 27.7588 91.6547 30.5768 91.6547 34.0562H93.4247ZM97.9413 29.5288C100.431 29.5288 102.448 31.5499 102.448 34.0562H104.218C104.218 30.5788 101.415 27.7588 97.9413 27.7588V29.5288ZM102.448 34.0562C102.448 36.5614 100.422 38.5835 97.9413 38.5835V40.3535C101.404 40.3535 104.218 37.5345 104.218 34.0562H102.448ZM97.9413 38.5835C95.4584 38.5835 93.4247 36.5594 93.4247 34.0562H91.6547C91.6547 37.5366 94.4805 40.3535 97.9413 40.3535V38.5835ZM25.825 22.2487L35.8248 32.2892L37.079 31.0401L27.0792 20.9997L25.825 22.2487ZM35.5669 31.6647V57.4775H37.3369V31.6647H35.5669ZM27.2515 17.7997C27.2515 20.3018 25.2276 22.3271 22.7348 22.3271V24.0971C26.2085 24.0971 29.0215 21.276 29.0215 17.7997H27.2515ZM22.7348 22.3271C20.242 22.3271 18.2183 20.3018 18.2183 17.7997H16.4483C16.4483 21.276 19.2612 24.0971 22.7348 24.0971V22.3271ZM18.2183 17.7997C18.2183 15.2976 20.242 13.2723 22.7348 13.2723V11.5023C19.2612 11.5023 16.4483 14.3234 16.4483 17.7997H18.2183ZM22.7348 13.2723C25.2276 13.2723 27.2515 15.2977 27.2515 17.7997H29.0215C29.0215 14.3234 26.2085 11.5023 22.7348 11.5023V13.2723ZM61.7425 13.2587V29.4087H63.5125V13.2587H61.7425ZM67.3668 7.73988C67.3668 10.2419 65.3429 12.2672 62.8501 12.2672V14.0372C66.3238 14.0372 69.1368 11.2162 69.1368 7.73988H67.3668ZM62.8501 12.2672C60.3573 12.2672 58.3335 10.2419 58.3335 7.73988H56.5635C56.5635 11.2161 59.3764 14.0372 62.8501 14.0372V12.2672ZM58.3335 7.73988C58.3335 5.23782 60.3573 3.21251 62.8501 3.21251V1.44251C59.3764 1.44251 56.5635 4.26361 56.5635 7.73988H58.3335ZM62.8501 3.21251C65.3429 3.21251 67.3668 5.23783 67.3668 7.73988H69.1368C69.1368 4.26359 66.3238 1.44251 62.8501 1.44251V3.21251ZM85.9949 47.9911C85.749 50.8714 83.2773 53.7099 78.8875 55.8662C74.5412 58.0011 68.5187 59.3519 61.6595 59.3519V61.1219C68.7302 61.1219 75.0308 59.7326 79.6678 57.4549C84.2613 55.1985 87.4332 51.9517 87.7585 48.1416L85.9949 47.9911ZM61.6595 59.3519C54.8004 59.3519 48.7926 58.0012 44.455 55.8665C40.0756 53.7112 37.6004 50.8711 37.3331 47.9847L35.5707 48.1479C35.9229 51.952 39.0865 55.1972 43.6735 57.4546C48.3023 59.7326 54.5886 61.1219 61.6595 61.1219V59.3519ZM37.333 47.9837C37.0855 45.3456 37.1085 43.2312 37.3473 41.5592L35.5951 41.3089C35.3306 43.1612 35.315 45.4232 35.5708 48.149L37.333 47.9837ZM35.5893 41.5077C35.9016 45.2448 39.1938 48.3576 43.8067 50.4981C48.4786 52.6662 54.7721 53.9764 61.6595 53.9764V52.2064C54.975 52.2064 48.9454 50.9315 44.5517 48.8926C40.0989 46.8263 37.583 44.1103 37.3532 41.3603L35.5893 41.5077ZM61.6595 53.9764C68.5454 53.9764 74.7895 52.6884 79.4354 50.554C84.0262 48.4449 87.3004 45.3836 87.7174 41.7081L85.9586 41.5085C85.6496 44.2329 83.1204 46.9132 78.6964 48.9456C74.3275 50.9528 68.3453 52.2064 61.6595 52.2064V53.9764ZM85.9608 41.7252C86.1823 43.3872 86.2138 45.4403 85.9949 47.9907L87.7585 48.142C87.9849 45.5027 87.9583 43.315 87.7152 41.4914L85.9608 41.7252ZM85.9917 40.9305C85.9917 41.1671 85.9895 41.3221 85.9661 41.4567L87.7099 41.7599C87.7639 41.4491 87.7617 41.1394 87.7617 40.9305H85.9917ZM85.9586 41.5085C85.6499 44.2297 83.0962 46.9109 78.6539 48.9452C74.2692 50.9531 68.2863 52.2064 61.6595 52.2064V53.9764C68.4883 53.9764 74.7316 52.6881 79.3908 50.5545C83.9923 48.4473 87.3 45.3869 87.7174 41.7081L85.9586 41.5085ZM61.6595 52.2064C55.034 52.2064 49.0038 50.9318 44.5943 48.8921C40.123 46.8239 37.5827 44.107 37.3532 41.3603L35.5893 41.5077C35.9019 45.2481 39.2278 48.36 43.8512 50.4986C48.5364 52.6658 54.8292 53.9764 61.6595 53.9764V52.2064ZM37.3562 41.434C37.3562 41.3221 37.3497 41.2118 37.3451 41.1319C37.34 41.0424 37.3369 40.9832 37.3369 40.9305H35.5669C35.5669 41.0424 35.5734 41.1527 35.578 41.2327C35.5831 41.3222 35.5862 41.3813 35.5862 41.434H37.3562ZM37.3369 40.9305C37.3369 38.103 39.7405 35.2856 44.2204 33.1224C48.638 30.9894 54.8028 29.645 61.6595 29.645V27.875C54.5958 27.875 48.1568 29.2562 43.4507 31.5285C38.8069 33.7708 35.5669 37.0386 35.5669 40.9305H37.3369ZM61.6595 29.645C68.5161 29.645 74.6834 30.9894 79.1035 33.1225C83.5862 35.2858 85.9917 38.1034 85.9917 40.9305H87.7617C87.7617 37.0383 84.5187 33.7705 79.8728 31.5284C75.1644 29.2562 68.7231 27.875 61.6595 27.875V29.645ZM85.9665 107.075C85.6992 109.961 83.222 112.802 78.841 114.957C74.5021 117.092 68.4942 118.443 61.6401 118.443V120.213C68.7062 120.213 74.9924 118.823 79.6224 116.545C84.2102 114.288 87.3766 111.043 87.7289 107.239L85.9665 107.075ZM61.6401 118.443C54.7855 118.443 48.7629 117.094 44.4154 114.96C40.0245 112.805 37.5506 109.967 37.3046 107.082L35.541 107.232C35.8663 111.047 39.0408 114.294 43.6356 116.549C48.2739 118.826 54.5743 120.213 61.6401 120.213V118.443ZM37.3046 107.081C37.0857 104.531 37.1173 102.468 37.3387 100.817L35.5844 100.581C35.3411 102.396 35.3146 104.594 35.5411 107.233L37.3046 107.081ZM35.5822 100.799C35.9995 104.477 39.3072 107.538 43.9087 109.645C48.5679 111.779 54.8113 113.067 61.6401 113.067V111.297C55.0132 111.297 49.0303 110.044 44.6457 108.036C40.2033 106.001 37.6496 103.32 37.3409 100.599L35.5822 100.799ZM61.6401 113.067C68.4704 113.067 74.7583 111.756 79.4411 109.59C84.0624 107.453 87.3864 104.344 87.71 100.611L85.9466 100.458C85.7088 103.202 83.1665 105.917 78.698 107.984C74.2909 110.022 68.2654 111.297 61.6401 111.297V113.067ZM85.9522 100.659C86.191 102.331 86.2141 104.436 85.9666 107.074L87.7288 107.24C87.9846 104.514 87.969 102.261 87.7044 100.409L85.9522 100.659ZM85.9627 100.021C85.9627 100.202 85.9618 100.319 85.9487 100.437L87.7079 100.632C87.7335 100.401 87.7327 100.189 87.7327 100.021H85.9627ZM85.9466 100.458C85.7085 103.205 83.1886 105.919 78.737 107.984C74.3443 110.022 68.3195 111.297 61.6401 111.297V113.067C68.5228 113.067 74.8113 111.757 79.4819 109.59C84.0935 107.451 87.3867 104.341 87.71 100.611L85.9466 100.458ZM61.6401 111.297C54.9591 111.297 48.9769 110.043 44.6066 108.036C40.1812 106.004 37.6499 103.323 37.3409 100.599L35.5822 100.799C35.9992 104.475 39.2761 107.536 43.8679 109.645C48.5149 111.779 54.7589 113.067 61.6401 113.067V111.297ZM37.3391 100.584C37.3166 100.412 37.3078 100.221 37.3078 100.021H35.5378C35.5378 100.267 35.5483 100.54 35.584 100.813L37.3391 100.584ZM37.3078 100.021C37.3078 97.1937 39.7114 94.3762 44.1924 92.2131C48.6113 90.08 54.7785 88.7356 61.6401 88.7356V86.9656C54.5717 86.9656 48.1303 88.3467 43.423 90.6191C38.7779 92.8614 35.5378 96.1292 35.5378 100.021H37.3078ZM61.6401 88.7356C68.5017 88.7356 74.6664 90.08 79.0827 92.213C83.5611 94.376 85.9627 97.1934 85.9627 100.021H87.7327C87.7327 96.1295 84.4955 92.8616 79.8525 90.6192C75.1475 88.3468 68.7085 86.9656 61.6401 86.9656V88.7356ZM86.1369 44.6195V103.023H87.9069V44.6195H86.1369ZM71.6842 59.5591V84.9556H73.4542V59.5591H71.6842ZM71.6842 93.4276V110.352H73.4542V93.4276H71.6842ZM35.5378 44.6195V103.023H37.3078V44.6195H35.5378ZM65.2024 38.8489C65.4823 39.6884 65.4821 39.6885 65.4818 39.6886C65.4818 39.6886 65.4816 39.6887 65.4815 39.6887C65.4813 39.6888 65.4811 39.6888 65.4811 39.6889C65.4809 39.6889 65.4811 39.6888 65.4815 39.6887C65.4825 39.6884 65.4845 39.6877 65.4877 39.6867C65.4941 39.6846 65.5051 39.6811 65.5205 39.6764C65.5513 39.6668 65.5997 39.6522 65.6645 39.6337C65.7943 39.5967 65.9896 39.5443 66.2414 39.4863C66.7455 39.3703 67.4723 39.2325 68.3489 39.1503C70.1086 38.9851 72.433 39.0469 74.7663 39.9198L75.3864 38.262C72.7247 37.2662 70.1121 37.207 68.1835 37.388C67.2161 37.4788 66.411 37.631 65.8442 37.7615C65.5605 37.8268 65.3357 37.8869 65.1791 37.9316C65.1008 37.9539 65.0395 37.9724 64.9963 37.9857C64.9748 37.9924 64.9577 37.9978 64.9454 38.0018C64.9392 38.0038 64.9342 38.0054 64.9304 38.0067C64.9285 38.0073 64.9268 38.0079 64.9255 38.0083C64.9249 38.0085 64.9243 38.0087 64.9238 38.0089C64.9235 38.0089 64.9232 38.0091 64.9231 38.0091C64.9228 38.0092 64.9225 38.0093 65.2024 38.8489ZM74.7663 39.9198C75.9192 40.3511 76.5312 40.8401 76.8321 41.2619C77.1137 41.6567 77.1656 42.0496 77.0716 42.4508C76.8617 43.3464 75.8873 44.3336 74.7383 44.8085L75.4144 46.4443C76.8888 45.8348 78.4119 44.4887 78.7949 42.8547C78.9973 41.9912 78.8696 41.0703 78.273 40.234C77.6957 39.4246 76.731 38.765 75.3864 38.262L74.7663 39.9198ZM74.7383 44.8085C72.2202 45.8494 67.768 46.8776 63.5838 44.5257L62.7165 46.0687C67.5931 48.8097 72.6857 47.5723 75.4144 46.4443L74.7383 44.8085ZM63.1502 45.2972C63.5398 44.5026 63.5401 44.5027 63.5404 44.5029C63.5405 44.5029 63.5407 44.5031 63.5409 44.5032C63.5413 44.5033 63.5416 44.5035 63.5419 44.5036C63.5425 44.5039 63.5429 44.5041 63.5433 44.5043C63.544 44.5047 63.5443 44.5048 63.5441 44.5047C63.5438 44.5046 63.5418 44.5036 63.5382 44.5017C63.5309 44.4979 63.5175 44.4907 63.4987 44.4802C63.461 44.459 63.4029 44.4249 63.332 44.3784C63.188 44.2838 63.003 44.1456 62.8298 43.9696C62.4773 43.6114 62.2573 43.1929 62.3393 42.6899L60.5923 42.4051C60.3839 43.6836 61.0061 44.6399 61.5683 45.2112C61.8525 45.5 62.1432 45.7152 62.3603 45.8578C62.47 45.9299 62.564 45.9853 62.6331 46.0241C62.6678 46.0435 62.6964 46.0589 62.718 46.0702C62.7288 46.0758 62.7378 46.0804 62.7449 46.084C62.7485 46.0858 62.7516 46.0874 62.7542 46.0887C62.7555 46.0894 62.7567 46.0899 62.7578 46.0905C62.7583 46.0907 62.7588 46.091 62.7593 46.0912C62.7595 46.0913 62.7598 46.0915 62.7599 46.0915C62.7603 46.0917 62.7606 46.0919 63.1502 45.2972ZM62.3394 42.6891C62.4619 41.9334 62.8805 40.3343 62.9276 38.87C62.9757 37.3692 62.6661 35.5928 61.0532 34.5279L60.0779 36.005C60.9141 36.557 61.1998 37.5255 61.1585 38.8132C61.1159 40.1374 60.7601 41.3703 60.5922 42.4058L62.3394 42.6891ZM61.0532 34.5279C58.3342 32.7328 53.1196 31.9794 48.2512 33.8702L48.892 35.5202C53.2974 33.8092 57.8987 34.5662 60.0779 36.005L61.0532 34.5279ZM48.2512 33.8702C45.804 34.8207 44.3456 36.3633 44.4301 38.2032C44.5118 39.9825 46.0265 41.4249 48.0629 42.2282L48.7124 40.5817C46.9445 39.8843 46.2327 38.8722 46.1982 38.122C46.1666 37.4324 46.7024 36.3706 48.892 35.5202L48.2512 33.8702ZM48.0629 42.2282C50.1265 43.0423 52.5078 43.1912 54.3199 43.1527C55.2359 43.1333 56.0282 43.0653 56.5928 43.002C56.8754 42.9703 57.102 42.9397 57.2595 42.9168C57.3383 42.9053 57.3999 42.8957 57.4427 42.8888C57.4641 42.8854 57.4808 42.8826 57.4926 42.8806C57.4986 42.8797 57.5032 42.8789 57.5067 42.8783C57.5084 42.878 57.5098 42.8777 57.5109 42.8775C57.5115 42.8775 57.5119 42.8774 57.5123 42.8773C57.5125 42.8773 57.5127 42.8772 57.5128 42.8772C57.513 42.8772 57.5132 42.8771 57.3614 42.0053C57.2095 41.1334 57.2096 41.1334 57.2098 41.1333C57.2098 41.1333 57.2099 41.1333 57.2099 41.1333C57.21 41.1333 57.21 41.1333 57.2099 41.1333C57.2098 41.1333 57.2093 41.1334 57.2085 41.1336C57.207 41.1338 57.2042 41.1343 57.2002 41.135C57.1922 41.1363 57.1795 41.1384 57.1621 41.1412C57.1273 41.1468 57.0741 41.1551 57.0041 41.1653C56.8641 41.1857 56.6571 41.2137 56.3957 41.243C55.8721 41.3017 55.1343 41.365 54.2824 41.3831C52.5588 41.4197 50.4533 41.2684 48.7124 40.5817L48.0629 42.2282Z" fill="url(#paint0_linear_14653_71979)"/>
<defs>
<linearGradient id="paint0_linear_14653_71979" x1="17.3333" y1="2.32751" x2="129.001" y2="84.4079" gradientUnits="userSpaceOnUse">
<stop stop-color="#29ABE2"/>
<stop offset="1" stop-color="#522785"/>
</linearGradient>
</defs>
</svg>
