<svg width="120" height="121" viewBox="0 0 120 121" fill="none" xmlns="http://www.w3.org/2000/svg">
<path d="M72.0484 36.1171C71.751 36.505 71.8244 37.0605 72.2122 37.3579C72.6001 37.6554 73.1556 37.582 73.4531 37.1941L72.0484 36.1171ZM77.5794 31.8126C77.8768 31.4247 77.8035 30.8692 77.4156 30.5718C77.0277 30.2744 76.4722 30.3477 76.1748 30.7356L77.5794 31.8126ZM73.8907 82.1007C73.5928 81.7132 73.0372 81.6405 72.6497 81.9383C72.2621 82.2362 72.1894 82.7918 72.4873 83.1793L73.8907 82.1007ZM76.655 88.6018C76.9529 88.9893 77.5085 89.062 77.896 88.7641C78.2835 88.4663 78.3562 87.9107 78.0584 87.5231L76.655 88.6018ZM34.9933 73.3958H34.1083V73.8603L34.4905 74.1241L34.9933 73.3958ZM60.2228 90.8145L59.72 91.5428L60.2227 91.8899L60.7255 91.5429L60.2228 90.8145ZM85.4606 73.3958L85.9633 74.1242L86.3456 73.8603V73.3958H85.4606ZM85.4606 46.2674H86.3456V45.8029L85.9633 45.539L85.4606 46.2674ZM60.2228 28.8487L60.7255 28.1203L60.2227 27.7733L59.72 28.1204L60.2228 28.8487ZM34.9933 46.2674L34.4905 45.5391L34.1083 45.803V46.2674H34.9933ZM85.5846 58.9466C85.0958 58.9466 84.6996 59.3428 84.6996 59.8316C84.6996 60.3204 85.0958 60.7166 85.5846 60.7166V58.9466ZM93.6223 60.7166C94.1111 60.7166 94.5073 60.3204 94.5073 59.8316C94.5073 59.3428 94.1111 58.9466 93.6223 58.9466V60.7166ZM46.5548 37.1948C46.8526 37.5824 47.4082 37.6552 47.7958 37.3574C48.1834 37.0596 48.2562 36.504 47.9584 36.1165L46.5548 37.1948ZM43.8238 30.7349C43.526 30.3473 42.9704 30.2745 42.5828 30.5723C42.1952 30.8701 42.1224 31.4257 42.4202 31.8133L43.8238 30.7349ZM47.5117 83.1793C47.8096 82.7918 47.7369 82.2362 47.3493 81.9383C46.9618 81.6405 46.4062 81.7132 46.1083 82.1007L47.5117 83.1793ZM41.9407 87.5231C41.6428 87.9107 41.7155 88.4663 42.103 88.7641C42.4906 89.062 43.0462 88.9893 43.344 88.6018L41.9407 87.5231ZM34.4144 60.7166C34.9032 60.7166 35.2994 60.3204 35.2994 59.8316C35.2994 59.3428 34.9032 58.9466 34.4144 58.9466V60.7166ZM26.3767 58.9466C25.888 58.9466 25.4917 59.3428 25.4917 59.8316C25.4917 60.3204 25.888 60.7166 26.3767 60.7166V58.9466ZM57.2789 64.9927L57.8598 65.6604L57.8599 65.6603L57.2789 64.9927ZM54.7403 62.3142L55.3212 62.9818L55.3215 62.9815L54.7403 62.3142ZM50.2501 53.7232V52.8382L50.2454 52.8382L50.2501 53.7232ZM63.1666 53.3721L62.5858 52.7043L62.5857 52.7044L63.1666 53.3721ZM65.7053 56.0506L65.1244 55.3829L65.1241 55.3832L65.7053 56.0506ZM70.1955 64.4456V65.3306L70.2002 65.3305L70.1955 64.4456ZM72.453 65.1478L72.4307 66.0326L73.338 66.0554V65.1478H72.453ZM65.8707 62.2162L66.4705 61.5654L66.4686 61.5637L65.8707 62.2162ZM60.2807 56.4508L59.622 57.0419L59.6257 57.046L60.2807 56.4508ZM50.2418 50.0729V49.1879L50.2369 49.1879L50.2418 50.0729ZM41.0877 57.0551L40.229 56.8408L41.9389 57.2975L41.0877 57.0551ZM47.9843 53.1516L48.0066 52.2668L48.0059 52.2668L47.9843 53.1516ZM54.5832 56.1077L55.181 55.4552L55.1783 55.4527L54.5832 56.1077ZM60.1732 61.8731L60.8319 61.2821L60.8262 61.2757L60.8204 61.2695L60.1732 61.8731ZM70.2121 68.251V69.136L70.217 69.136L70.2121 68.251ZM79.3661 61.2689L80.2248 61.4831L78.515 61.0264L79.3661 61.2689ZM72.453 65.1397L72.4746 64.2549L71.568 64.2329V65.1397H72.453ZM73.4531 37.1941L77.5794 31.8126L76.1748 30.7356L72.0484 36.1171L73.4531 37.1941ZM72.4873 83.1793L76.655 88.6018L78.0584 87.5231L73.8907 82.1007L72.4873 83.1793ZM34.4905 74.1241L59.72 91.5428L60.7256 90.0862L35.4961 72.6675L34.4905 74.1241ZM60.7255 91.5429L85.9633 74.1242L84.9579 72.6675L59.7201 90.0861L60.7255 91.5429ZM86.3456 73.3958V46.2674H84.5756V73.3958H86.3456ZM85.9633 45.539L60.7255 28.1203L59.7201 29.577L84.9579 46.9957L85.9633 45.539ZM59.72 28.1204L34.4905 45.5391L35.4961 46.9957L60.7256 29.5769L59.72 28.1204ZM34.1083 46.2674V73.3958H35.8783V46.2674H34.1083ZM94.7468 97.715C94.7468 103.629 89.8888 108.443 83.8729 108.443V110.213C90.8454 110.213 96.5168 104.628 96.5168 97.715H94.7468ZM83.8729 108.443C77.8569 108.443 72.999 103.629 72.999 97.715H71.229C71.229 104.628 76.9003 110.213 83.8729 110.213V108.443ZM72.999 97.715C72.999 91.8008 77.8569 86.9876 83.8729 86.9876V85.2176C76.9003 85.2176 71.229 90.8024 71.229 97.715H72.999ZM83.8729 86.9876C89.8888 86.9876 94.7468 91.8008 94.7468 97.715H96.5168C96.5168 90.8024 90.8454 85.2176 83.8729 85.2176V86.9876ZM94.2007 103.904C91.9071 100.708 88.1374 98.6184 83.8729 98.6184V100.388C87.5468 100.388 90.7895 102.186 92.7627 104.936L94.2007 103.904ZM83.8729 98.6184C79.6138 98.6184 76.1024 100.563 73.7943 103.561L75.1968 104.641C77.1887 102.053 80.1934 100.388 83.8729 100.388V98.6184ZM87.7344 94.0892C87.7344 96.1788 86.016 97.8916 83.8729 97.8916V99.6616C86.9726 99.6616 89.5044 97.1772 89.5044 94.0892H87.7344ZM83.8729 97.8916C81.7297 97.8916 80.0113 96.1788 80.0113 94.0892H78.2413C78.2413 97.1772 80.7731 99.6616 83.8729 99.6616V97.8916ZM80.0113 94.0892C80.0113 91.9996 81.7297 90.2867 83.8729 90.2867V88.5167C80.7731 88.5167 78.2413 91.0012 78.2413 94.0892H80.0113ZM83.8729 90.2867C86.016 90.2867 87.7344 91.9996 87.7344 94.0892H89.5044C89.5044 91.0012 86.9726 88.5167 83.8729 88.5167V90.2867ZM116.115 58.1167C116.115 64.0309 111.257 68.8441 105.241 68.8441V70.6141C112.213 70.6141 117.885 65.0293 117.885 58.1167H116.115ZM105.241 68.8441C99.2247 68.8441 94.3667 64.0309 94.3667 58.1167H92.5967C92.5967 65.0293 98.2681 70.6141 105.241 70.6141V68.8441ZM94.3667 58.1167C94.3667 52.2025 99.2247 47.3892 105.241 47.3892V45.6192C98.2681 45.6192 92.5967 51.2041 92.5967 58.1167H94.3667ZM105.241 47.3892C111.257 47.3892 116.115 52.2025 116.115 58.1167H117.885C117.885 51.2041 112.213 45.6192 105.241 45.6192V47.3892ZM115.569 64.3052C113.275 61.1095 109.505 59.0201 105.241 59.0201V60.7901C108.915 60.7901 112.157 62.5879 114.131 65.3373L115.569 64.3052ZM105.241 59.0201C100.982 59.0201 97.4701 60.9646 95.162 63.9629L96.5646 65.0426C98.5565 62.4551 101.561 60.7901 105.241 60.7901V59.0201ZM109.102 54.4908C109.102 56.5805 107.384 58.2933 105.241 58.2933V60.0633C108.34 60.0633 110.872 57.5788 110.872 54.4908H109.102ZM105.241 58.2933C103.097 58.2933 101.379 56.5805 101.379 54.4908H99.6091C99.6091 57.5788 102.141 60.0633 105.241 60.0633V58.2933ZM101.379 54.4908C101.379 52.4012 103.097 50.6884 105.241 50.6884V48.9184C102.141 48.9184 99.6091 51.4028 99.6091 54.4908H101.379ZM105.241 50.6884C107.384 50.6884 109.102 52.4012 109.102 54.4908H110.872C110.872 51.4028 108.34 48.9184 105.241 48.9184V50.6884ZM94.7468 21.94C94.7468 27.8542 89.8888 32.6675 83.8729 32.6675V34.4375C90.8454 34.4375 96.5168 28.8526 96.5168 21.94H94.7468ZM83.8729 32.6675C77.8569 32.6675 72.999 27.8542 72.999 21.94H71.229C71.229 28.8526 76.9003 34.4375 83.8729 34.4375V32.6675ZM72.999 21.94C72.999 16.0258 77.8569 11.2125 83.8729 11.2125V9.44251C76.9003 9.44251 71.229 15.0274 71.229 21.94H72.999ZM83.8729 11.2125C89.8888 11.2125 94.7468 16.0258 94.7468 21.94H96.5168C96.5168 15.0274 90.8454 9.44251 83.8729 9.44251V11.2125ZM94.2007 28.1285C91.9071 24.9328 88.1374 22.8434 83.8729 22.8434V24.6134C87.5468 24.6134 90.7895 26.4112 92.7627 29.1605L94.2007 28.1285ZM83.8729 22.8434C79.6138 22.8434 76.1024 24.788 73.7943 27.7862L75.1968 28.8659C77.1887 26.2784 80.1934 24.6134 83.8729 24.6134V22.8434ZM87.7344 18.3142C87.7344 20.4038 86.016 22.1166 83.8729 22.1166V23.8866C86.9726 23.8866 89.5044 21.4022 89.5044 18.3142H87.7344ZM83.8729 22.1166C81.7297 22.1166 80.0113 20.4038 80.0113 18.3142H78.2413C78.2413 21.4022 80.7731 23.8866 83.8729 23.8866V22.1166ZM80.0113 18.3142C80.0113 16.2246 81.7297 14.5117 83.8729 14.5117V12.7417C80.7731 12.7417 78.2413 15.2262 78.2413 18.3142H80.0113ZM83.8729 14.5117C86.016 14.5117 87.7344 16.2246 87.7344 18.3142H89.5044C89.5044 15.2262 86.9726 12.7417 83.8729 12.7417V14.5117ZM85.5846 60.7166H93.6223V58.9466H85.5846V60.7166ZM47.9584 36.1165L43.8238 30.7349L42.4202 31.8133L46.5548 37.1948L47.9584 36.1165ZM46.1083 82.1007L41.9407 87.5231L43.344 88.6018L47.5117 83.1793L46.1083 82.1007ZM47.0001 97.715C47.0001 103.629 42.1421 108.443 36.1262 108.443V110.213C43.0987 110.213 48.7701 104.628 48.7701 97.715H47.0001ZM36.1262 108.443C30.1102 108.443 25.2523 103.629 25.2523 97.715H23.4823C23.4823 104.628 29.1536 110.213 36.1262 110.213V108.443ZM25.2523 97.715C25.2523 91.8008 30.1102 86.9876 36.1262 86.9876V85.2176C29.1536 85.2176 23.4823 90.8024 23.4823 97.715H25.2523ZM36.1262 86.9876C42.1421 86.9876 47.0001 91.8008 47.0001 97.715H48.7701C48.7701 90.8024 43.0987 85.2176 36.1262 85.2176V86.9876ZM27.2363 104.936C29.2096 102.186 32.4523 100.388 36.1262 100.388V98.6184C31.8616 98.6184 28.092 100.708 25.7983 103.904L27.2363 104.936ZM36.1262 100.388C39.6708 100.388 42.814 102.058 44.8023 104.641L46.2048 103.561C43.8931 100.558 40.2389 98.6184 36.1262 98.6184V100.388ZM39.9877 94.0892C39.9877 96.1788 38.2693 97.8916 36.1262 97.8916V99.6616C39.2259 99.6616 41.7577 97.1772 41.7577 94.0892H39.9877ZM36.1262 97.8916C33.983 97.8916 32.2646 96.1788 32.2646 94.0892H30.4946C30.4946 97.1772 33.0264 99.6616 36.1262 99.6616V97.8916ZM32.2646 94.0892C32.2646 91.9996 33.983 90.2867 36.1262 90.2867V88.5167C33.0264 88.5167 30.4946 91.0012 30.4946 94.0892H32.2646ZM36.1262 90.2867C38.2693 90.2867 39.9877 91.9996 39.9877 94.0892H41.7577C41.7577 91.0012 39.2259 88.5167 36.1262 88.5167V90.2867ZM25.6323 58.1167C25.6323 64.0309 20.7744 68.8441 14.7584 68.8441V70.6141C21.731 70.6141 27.4023 65.0293 27.4023 58.1167H25.6323ZM14.7584 68.8441C8.74245 68.8441 3.88451 64.0309 3.88451 58.1167H2.11451C2.11451 65.0293 7.78589 70.6141 14.7584 70.6141V68.8441ZM3.88451 58.1167C3.88451 52.2025 8.74246 47.3892 14.7584 47.3892V45.6192C7.78589 45.6192 2.11451 51.2041 2.11451 58.1167H3.88451ZM14.7584 47.3892C20.7744 47.3892 25.6323 52.2025 25.6323 58.1167H27.4023C27.4023 51.2041 21.731 45.6192 14.7584 45.6192V47.3892ZM5.86853 65.3373C7.84182 62.5879 11.0845 60.7901 14.7584 60.7901V59.0201C10.4938 59.0201 6.72422 61.1095 4.43057 64.3052L5.86853 65.3373ZM14.7584 60.7901C18.4379 60.7901 21.4426 62.4551 23.4345 65.0426L24.837 63.9629C22.5289 60.9646 19.0174 59.0201 14.7584 59.0201V60.7901ZM18.62 54.4908C18.62 56.5805 16.9016 58.2933 14.7584 58.2933V60.0633C17.8582 60.0633 20.39 57.5788 20.39 54.4908H18.62ZM14.7584 58.2933C12.6152 58.2933 10.8968 56.5804 10.8968 54.4908H9.12683C9.12683 57.5789 11.6587 60.0633 14.7584 60.0633V58.2933ZM10.8968 54.4908C10.8968 52.4012 12.6152 50.6884 14.7584 50.6884V48.9184C11.6587 48.9184 9.12683 51.4028 9.12683 54.4908H10.8968ZM14.7584 50.6884C16.9016 50.6884 18.62 52.4012 18.62 54.4908H20.39C20.39 51.4028 17.8582 48.9184 14.7584 48.9184V50.6884ZM47.0001 21.94C47.0001 27.8542 42.1421 32.6675 36.1262 32.6675V34.4375C43.0987 34.4375 48.7701 28.8526 48.7701 21.94H47.0001ZM36.1262 32.6675C30.1102 32.6675 25.2523 27.8542 25.2523 21.94H23.4823C23.4823 28.8526 29.1536 34.4375 36.1262 34.4375V32.6675ZM25.2523 21.94C25.2523 16.0258 30.1102 11.2125 36.1262 11.2125V9.44251C29.1536 9.44251 23.4823 15.0274 23.4823 21.94H25.2523ZM36.1262 11.2125C42.1421 11.2125 47.0001 16.0258 47.0001 21.94H48.7701C48.7701 15.0274 43.0987 9.44251 36.1262 9.44251V11.2125ZM27.2363 29.1605C29.2096 26.4112 32.4522 24.6134 36.1262 24.6134V22.8434C31.8616 22.8434 28.092 24.9328 25.7983 28.1285L27.2363 29.1605ZM36.1262 24.6134C39.6708 24.6134 42.814 26.2831 44.8023 28.8659L46.2048 27.7862C43.8931 24.7832 40.2389 22.8434 36.1262 22.8434V24.6134ZM39.9877 18.3142C39.9877 20.4038 38.2693 22.1166 36.1262 22.1166V23.8866C39.2259 23.8866 41.7577 21.4022 41.7577 18.3142H39.9877ZM36.1262 22.1166C33.983 22.1166 32.2646 20.4038 32.2646 18.3142H30.4946C30.4946 21.4022 33.0264 23.8866 36.1262 23.8866V22.1166ZM32.2646 18.3142C32.2646 16.2246 33.983 14.5117 36.1262 14.5117V12.7417C33.0264 12.7417 30.4946 15.2262 30.4946 18.3142H32.2646ZM36.1262 14.5117C38.2693 14.5117 39.9877 16.2246 39.9877 18.3142H41.7577C41.7577 15.2262 39.2259 12.7417 36.1262 12.7417V14.5117ZM34.4144 58.9466H26.3767V60.7166H34.4144V58.9466ZM59.5888 61.3977C58.834 62.2633 57.8383 63.3328 56.698 64.325L57.8599 65.6603C59.0846 64.5946 60.1396 63.4592 60.9229 62.5609L59.5888 61.3977ZM56.6981 64.3249C54.28 66.4283 52.1151 67.3824 50.2501 67.3824V69.1524C52.7181 69.1524 55.2833 67.9015 57.8598 65.6604L56.6981 64.3249ZM50.2501 67.3824C45.5146 67.3824 41.7081 63.673 41.7081 59.1783H39.9381C39.9381 64.7118 44.5994 69.1524 50.2501 69.1524V67.3824ZM41.7081 59.1783C41.7081 58.5261 41.7896 57.8942 41.9392 57.2812L40.2197 56.8616C40.0385 57.6041 39.9381 58.3769 39.9381 59.1783H41.7081ZM57.0171 58.6961C56.3103 59.5305 55.3013 60.6519 54.159 61.6468L55.3215 62.9815C56.5608 61.9022 57.6357 60.7043 58.3677 59.8401L57.0171 58.6961ZM54.1594 61.6465C52.0197 63.5082 50.7721 63.7647 50.2418 63.7647V65.5347C51.3654 65.5347 53.012 64.991 55.3212 62.9818L54.1594 61.6465ZM50.2418 63.7647C47.5853 63.7647 45.4789 61.6838 45.4789 59.1865H43.7089C43.7089 62.7159 46.6632 65.5347 50.2418 65.5347V63.7647ZM45.4789 59.1865C45.4789 56.6949 47.5886 54.6222 50.2547 54.6082L50.2454 52.8382C46.6765 52.8569 43.7089 55.6513 43.7089 59.1865H45.4789ZM50.2501 54.6082C50.2075 54.6082 50.193 54.5998 50.2633 54.6171C50.2993 54.626 50.3288 54.634 50.3874 54.6491C50.4396 54.6626 50.5023 54.6783 50.5731 54.6938L50.9525 52.9649C50.8513 52.9427 50.8127 52.9296 50.6875 52.8987C50.5924 52.8752 50.4332 52.8382 50.2501 52.8382V54.6082ZM60.8568 56.9671C61.6116 56.1014 62.6073 55.0319 63.7476 54.0397L62.5857 52.7044C61.361 53.7701 60.306 54.9055 59.5227 55.8038L60.8568 56.9671ZM63.7475 54.0398C66.1656 51.9364 68.3305 50.9824 70.1955 50.9824V49.2124C67.7275 49.2124 65.1623 50.4632 62.5858 52.7043L63.7475 54.0398ZM70.1955 50.9824C74.931 50.9824 78.7375 54.6917 78.7375 59.1865H80.5075C80.5075 53.653 75.8462 49.2124 70.1955 49.2124V50.9824ZM78.7375 59.1865C78.7375 59.8387 78.656 60.4705 78.5064 61.0836L80.2259 61.5032C80.4071 60.7606 80.5075 59.9879 80.5075 59.1865H78.7375ZM63.4285 59.6687C64.1353 58.8343 65.1443 57.7128 66.2866 56.7179L65.1241 55.3832C63.8848 56.4626 62.8099 57.6604 62.0779 58.5246L63.4285 59.6687ZM66.2862 56.7182C68.4259 54.8566 69.6735 54.6 70.2038 54.6V52.83C69.0802 52.83 67.4336 53.3738 65.1244 55.3829L66.2862 56.7182ZM70.2038 54.6C72.8603 54.6 74.9667 56.681 74.9667 59.1783H76.7367C76.7367 55.6489 73.7824 52.83 70.2038 52.83V54.6ZM74.9667 59.1783C74.9667 61.6291 72.9007 63.5464 70.1909 63.5606L70.2002 65.3305C73.7254 65.3121 76.7367 62.7542 76.7367 59.1783H74.9667ZM70.1955 63.5606C70.1524 63.5606 69.9951 63.554 69.8182 63.5453C69.7364 63.5413 69.6587 63.5373 69.6014 63.5342C69.5728 63.5327 69.5493 63.5315 69.5331 63.5306C69.5249 63.5302 69.5186 63.5298 69.5143 63.5296C69.5122 63.5295 69.5106 63.5294 69.5095 63.5293C69.509 63.5293 69.5086 63.5293 69.5083 63.5293C69.5082 63.5292 69.5081 63.5292 69.5081 63.5292C69.508 63.5292 69.508 63.5292 69.508 63.5292C69.508 63.5292 69.508 63.5292 69.508 63.5292C69.508 63.5292 69.508 63.5292 69.4595 64.4129C69.4111 65.2966 69.4111 65.2966 69.4111 65.2966C69.4111 65.2966 69.4111 65.2966 69.4111 65.2966C69.4112 65.2966 69.4112 65.2966 69.4112 65.2966C69.4113 65.2966 69.4115 65.2966 69.4116 65.2966C69.4119 65.2966 69.4124 65.2966 69.413 65.2967C69.4142 65.2967 69.4159 65.2968 69.4182 65.297C69.4227 65.2972 69.4293 65.2976 69.4378 65.298C69.4546 65.2989 69.4788 65.3002 69.5081 65.3018C69.5669 65.3049 69.6468 65.309 69.7315 65.3132C69.8874 65.3208 70.0981 65.3306 70.1955 65.3306V63.5606ZM72.4753 64.2631C71.2181 64.2315 69.8723 63.7146 68.7216 63.0908C67.5776 62.4706 66.7226 61.7978 66.4705 61.5654L65.2709 62.8669C65.639 63.2062 66.6156 63.9625 67.878 64.6468C69.1336 65.3276 70.7689 65.9907 72.4307 66.0326L72.4753 64.2631ZM66.4686 61.5637C64.8988 60.1253 61.2285 56.1778 60.9356 55.8556L59.6257 57.046C59.9117 57.3607 63.6342 61.3672 65.2728 62.8687L66.4686 61.5637ZM60.9394 55.8597C59.5691 54.3327 57.9227 52.6832 56.1315 51.4104C54.3512 50.1454 52.3381 49.1879 50.2501 49.1879V50.9579C51.8088 50.9579 53.4589 51.6827 55.1063 52.8532C56.7427 54.016 58.2882 55.5555 59.622 57.0418L60.9394 55.8597ZM50.2501 49.1879H50.2418V50.9579H50.2501V49.1879ZM50.2369 49.1879C45.4117 49.2146 41.322 52.4604 40.229 56.8408L41.9464 57.2693C42.838 53.6958 46.2073 50.9802 50.2467 50.9579L50.2369 49.1879ZM41.9389 57.2975C41.9366 57.3053 42.242 56.4448 43.153 55.6082C44.0335 54.7998 45.5181 53.9767 47.9627 54.0363L48.0059 52.2668C45.092 52.1958 43.1656 53.1937 41.9559 54.3044C40.777 55.387 40.3132 56.5435 40.2366 56.8127L41.9389 57.2975ZM47.962 54.0363C49.2168 54.0679 50.5655 54.5912 51.7216 55.2226C52.8689 55.8493 53.7312 56.5295 53.988 56.7628L55.1783 55.4527C54.8149 55.1226 53.8373 54.3614 52.57 53.6692C51.3115 52.9818 49.6708 52.3087 48.0066 52.2668L47.962 54.0363ZM53.9853 56.7603C55.5566 58.2 59.2207 62.1494 59.526 62.4768L60.8204 61.2695C60.5469 60.9763 56.8182 56.9554 55.181 55.4552L53.9853 56.7603ZM59.5145 62.4642C60.8848 63.9912 62.5312 65.6407 64.3224 66.9135C66.1026 68.1785 68.1158 69.136 70.2038 69.136V67.366C68.6451 67.366 66.9949 66.6413 65.3476 65.4707C63.7112 64.3079 62.1657 62.7684 60.8319 61.2821L59.5145 62.4642ZM70.2038 69.136H70.2121V67.366H70.2038V69.136ZM70.217 69.136C75.0422 69.1093 79.1319 65.8635 80.2248 61.4831L78.5075 61.0546C77.6158 64.6282 74.2466 67.3437 70.2072 67.366L70.217 69.136ZM78.515 61.0264C78.5185 61.014 78.2136 61.8661 77.2994 62.6959C76.4163 63.4976 74.9261 64.3146 72.4746 64.2549L72.4315 66.0244C75.3466 66.0954 77.2759 65.1077 78.489 64.0066C79.6711 62.9336 80.1393 61.785 80.2173 61.5113L78.515 61.0264ZM71.568 65.1397V65.1478H73.338V65.1397H71.568Z" fill="url(#paint0_linear_14653_71975)"/>
<defs>
<linearGradient id="paint0_linear_14653_71975" x1="2.99951" y1="10.3275" x2="117.788" y2="39.9541" gradientUnits="userSpaceOnUse">
<stop stop-color="#3B00B9"/>
<stop offset="1" stop-color="#2586B6"/>
</linearGradient>
</defs>
</svg>
