<svg width="119" height="119" viewBox="0 0 119 119" fill="none" xmlns="http://www.w3.org/2000/svg">
<path d="M21.0825 56.2054L59.5032 77.4603V42.0464L21.0825 20.7915V56.2054Z" stroke="#3B00B9" stroke-width="1.77" stroke-linejoin="round"/>
<path d="M97.9246 56.2054L59.5039 77.4603V42.0464L97.9246 20.7915V56.2054Z" stroke="#3B00B9" stroke-width="1.77" stroke-linejoin="round"/>
<path d="M59.5688 42.0447L21.0825 20.7898L59.361 1L97.8473 20.7023L59.5688 42.0447Z" stroke="#3B00B9" stroke-width="1.77" stroke-linejoin="round"/>
<path d="M62.422 20.1452C62.422 20.1452 66.6533 18.6911 70.983 20.7903C75.3127 22.8896 73.2572 26.4321 70.983 27.4379C68.7088 28.4438 64.565 29.3951 60.6508 26.6289C60.6508 26.6289 58.9342 25.5683 59.1857 23.7643C59.4371 21.9602 60.5196 18.0679 58.4094 16.3294C56.2992 14.591 52.0242 13.6179 48.0115 15.2688C43.9989 16.9198 44.5565 20.4076 47.8585 22.0914C51.1604 23.7752 55.6432 23.0536 55.6432 23.0536" stroke="#3B00B9" stroke-width="1.77"/>
<path d="M53.6853 74.7163C49.1478 85.3219 59.5348 96.2227 59.5348 96.2227H59.502C59.502 96.2227 69.8889 85.3219 65.3514 74.7163" stroke="#3B00B9" stroke-width="1.77" stroke-linejoin="round"/>
<path d="M69.8887 90.8434V108.392" stroke="#3B00B9" stroke-width="1.77" stroke-linecap="round" stroke-linejoin="round"/>
<path d="M59.5017 100.564V118.113" stroke="#3B00B9" stroke-width="1.77" stroke-linecap="round" stroke-linejoin="round"/>
<path d="M76.8098 80.7598V88.3695" stroke="#3B00B9" stroke-width="1.77" stroke-linecap="round" stroke-linejoin="round"/>
<path d="M49.1809 90.8434V108.392" stroke="#3B00B9" stroke-width="1.77" stroke-linecap="round" stroke-linejoin="round"/>
<path d="M42.26 80.7598V88.3695" stroke="#3B00B9" stroke-width="1.77" stroke-linecap="round" stroke-linejoin="round"/>
<path d="M87.5247 62.4587C94.3254 66.9524 86.4423 78.553 86.4423 78.553C86.4423 78.553 87.2185 70.5059 78.7231 67.7943" stroke="#3B00B9" stroke-width="1.77" stroke-linecap="round" stroke-linejoin="round"/>
<path d="M31.7299 62.4587C24.9292 66.9524 32.8124 78.553 32.8124 78.553C32.8124 78.553 32.0361 70.5059 40.5315 67.7943" stroke="#3B00B9" stroke-width="1.77" stroke-linecap="round" stroke-linejoin="round"/>
</svg>
