<svg width="119" height="118" viewBox="0 0 119 118" fill="none" xmlns="http://www.w3.org/2000/svg">
<path d="M8.8267 82.2675L51.5367 105.907C51.8067 106.057 52.1467 106.057 52.4167 105.897C52.6867 105.737 52.8567 105.447 52.8567 105.137V65.7675C52.8567 65.4475 52.6867 65.1475 52.3967 64.9975L9.6867 41.3475C9.4167 41.1975 9.0767 41.1975 8.8067 41.3575C8.5367 41.5175 8.3667 41.8075 8.3667 42.1175V81.4875C8.3667 81.8075 8.5367 82.1075 8.8267 82.2575V82.2675ZM10.1367 80.9675V56.4975L51.0767 78.5275V103.627L10.1367 80.9675ZM51.0767 66.2775V76.5175L10.1367 54.4875V43.6275L51.0767 66.2875V66.2775Z" fill="#3B00B9"/>
<path d="M110.497 41.3575C110.227 41.1975 109.897 41.1975 109.617 41.3475L66.9068 64.9875C66.6268 65.1475 66.4468 65.4375 66.4468 65.7575V105.127C66.4468 105.437 66.6168 105.727 66.8868 105.887C67.1568 106.047 67.4868 106.047 67.7668 105.897L110.477 82.2575C110.757 82.0975 110.937 81.8075 110.937 81.4875V42.1175C110.937 41.8075 110.767 41.5175 110.497 41.3575ZM68.2268 66.2775L109.167 43.6175V80.9675L68.2268 103.627V66.2775Z" fill="#3B00B9"/>
<path d="M118.287 30.1075C118.207 30.0175 118.117 29.9275 118.007 29.8675L59.8268 0.0975C59.5668 -0.0325 59.2768 -0.0325 59.0168 0.0975L1.16678 30.0075C1.16678 30.0075 1.15678 30.0075 1.14678 30.0175C1.14678 30.0175 1.12678 30.0175 1.12678 30.0275C1.09678 30.0475 1.06678 30.0675 1.04678 30.0975C1.01678 30.1175 0.986777 30.1375 0.966777 30.1575C0.936777 30.1875 0.916777 30.2175 0.886777 30.2575C0.866777 30.2875 0.836777 30.3175 0.816777 30.3475C0.796777 30.3875 0.786777 30.4275 0.766777 30.4575C0.756777 30.4875 0.736777 30.5175 0.726777 30.5575C0.716777 30.6075 0.706777 30.6575 0.706777 30.6975C0.706777 30.7275 0.696777 30.7475 0.696777 30.7775V84.3075C0.696777 84.6275 0.866777 84.9275 1.15678 85.0775L59.2368 117.217C59.2368 117.217 59.2968 117.238 59.3368 117.257C59.3768 117.268 59.4068 117.287 59.4468 117.298C59.4868 117.298 59.5168 117.307 59.5568 117.317C59.5968 117.317 59.6268 117.327 59.6668 117.327C59.7068 117.327 59.7368 117.327 59.7768 117.317C59.8168 117.317 59.8568 117.317 59.8868 117.298C59.9268 117.298 59.9568 117.268 59.9968 117.257C60.0268 117.247 60.0668 117.237 60.0968 117.217L118.177 85.0775C118.457 84.9175 118.637 84.6275 118.637 84.3075V30.7875C118.637 30.5175 118.507 30.2775 118.307 30.1075H118.287ZM59.4268 1.8775L115.727 30.6975L69.2068 56.6375L59.7168 61.8875L3.44678 30.8175L59.4268 1.8775ZM58.7668 114.957L2.45678 83.7975V32.2875L58.7668 63.4475V114.957ZM60.5368 63.4875L70.0268 58.1975L116.847 32.2875V83.7975L60.5368 114.957V63.4875Z" fill="#3B00B9"/>
<path d="M83.9068 70.9075C83.4868 70.6575 82.9468 70.8075 82.6968 71.2275L76.5268 81.7875C76.3868 82.0275 76.3668 82.3075 76.4668 82.5675C76.5668 82.8175 76.7768 83.0175 77.0468 83.0875L82.9668 84.7675C83.4368 84.8975 83.9268 84.6275 84.0568 84.1575C84.1868 83.6875 83.9168 83.1975 83.4468 83.0675L78.6268 81.6975L84.2168 72.1275C84.4668 71.7075 84.3168 71.1675 83.8968 70.9175L83.9068 70.9075Z" fill="#3B00B9"/>
<path d="M103.497 63.5674C103.397 63.3174 103.187 63.1174 102.917 63.0474L96.997 61.3674C96.527 61.2374 96.037 61.5074 95.907 61.9774C95.777 62.4474 96.047 62.9374 96.517 63.0674L101.337 64.4374L95.747 74.0074C95.497 74.4274 95.647 74.9674 96.067 75.2174C96.487 75.4674 97.027 75.3174 97.277 74.8974L103.447 64.3374C103.587 64.0974 103.607 63.8174 103.507 63.5574L103.497 63.5674Z" fill="#3B00B9"/>
<path d="M91.2067 64.2175C90.7267 64.1475 90.2767 64.4875 90.2067 64.9675L88.0267 80.2075C87.9567 80.6875 88.2967 81.1375 88.7767 81.2075C89.2567 81.2775 89.7067 80.9375 89.7767 80.4575L91.9567 65.2175C92.0267 64.7375 91.6867 64.2875 91.2067 64.2175Z" fill="#3B00B9"/>
<path d="M14.3268 54.3775C14.6568 54.5475 15.0268 54.6475 15.3868 54.6475C15.8668 54.6475 16.3468 54.4775 16.7168 54.1575C17.0868 53.8375 17.3268 53.3975 17.4368 52.9075C17.4768 52.7075 17.4968 52.5075 17.4968 52.3075C17.4968 51.7375 17.3368 51.1875 17.0568 50.7075C16.7768 50.2275 16.3768 49.8075 15.8468 49.5375C15.5168 49.3675 15.1468 49.2675 14.7868 49.2675C14.3068 49.2675 13.8268 49.4375 13.4568 49.7575C13.0868 50.0775 12.8468 50.5175 12.7368 51.0075C12.6968 51.2075 12.6768 51.4075 12.6768 51.6075C12.6768 52.1775 12.8368 52.7275 13.1168 53.2075C13.3968 53.6875 13.7968 54.1075 14.3268 54.3775ZM14.4768 51.3775C14.5168 51.2075 14.5768 51.1275 14.6268 51.0875L14.7968 51.0275C14.8568 51.0275 14.9368 51.0375 15.0468 51.0975C15.2168 51.1875 15.3968 51.3575 15.5268 51.5875C15.6568 51.8075 15.7268 52.0775 15.7268 52.3075L15.7068 52.5275C15.6668 52.6975 15.6068 52.7775 15.5568 52.8175L15.3868 52.8775C15.3268 52.8775 15.2468 52.8675 15.1368 52.8075C14.9668 52.7175 14.7868 52.5475 14.6568 52.3175C14.5268 52.0975 14.4568 51.8275 14.4568 51.5975L14.4768 51.3775Z" fill="#3B00B9"/>
<path d="M20.4967 57.5675C20.8267 57.7375 21.1967 57.8375 21.5567 57.8375C22.0367 57.8375 22.5167 57.6675 22.8867 57.3475C23.2567 57.0275 23.4967 56.5875 23.6067 56.0975C23.6467 55.8975 23.6667 55.6975 23.6667 55.4975C23.6667 54.9275 23.5067 54.3775 23.2267 53.8975C22.9467 53.4175 22.5467 52.9975 22.0167 52.7275C21.6867 52.5575 21.3167 52.4575 20.9567 52.4575C20.4767 52.4575 19.9967 52.6275 19.6267 52.9475C19.2567 53.2675 19.0167 53.7075 18.9067 54.1975C18.8667 54.3975 18.8467 54.5975 18.8467 54.7975C18.8467 55.3675 19.0067 55.9175 19.2867 56.3975C19.5667 56.8775 19.9667 57.2975 20.4967 57.5675ZM20.6467 54.5675C20.6867 54.3975 20.7467 54.3175 20.7967 54.2775L20.9667 54.2175C21.0267 54.2175 21.1067 54.2275 21.2167 54.2875C21.3867 54.3775 21.5667 54.5475 21.6967 54.7775C21.8267 54.9975 21.8967 55.2675 21.8967 55.4975L21.8767 55.7175C21.8367 55.8875 21.7767 55.9675 21.7267 56.0075L21.5567 56.0675C21.4967 56.0675 21.4167 56.0575 21.3067 55.9975C21.1367 55.9075 20.9567 55.7375 20.8267 55.5075C20.6967 55.2875 20.6267 55.0175 20.6267 54.7875L20.6467 54.5675Z" fill="#3B00B9"/>
<path d="M58.2369 35.8175C58.2369 37.3075 58.9369 38.4475 59.5769 39.1975C60.1769 39.8875 60.7269 40.2475 60.8569 40.3375C60.8569 40.3375 60.8569 40.3375 60.8669 40.3375L60.8969 40.3575C63.9469 42.4975 67.1169 43.2375 69.9369 43.2375C72.8969 43.2375 75.4969 42.4475 77.3369 41.6375C78.4669 41.1375 79.5269 40.3075 80.3369 39.2675C81.1369 38.2275 81.6969 36.9575 81.6969 35.5775C81.6969 34.5575 81.3669 33.4875 80.6569 32.5275C79.9469 31.5675 78.8669 30.7075 77.3669 29.9875C74.4769 28.5875 71.6269 28.1875 69.2969 28.1875C66.0569 28.1875 63.8069 28.9575 63.7469 28.9775L64.3269 30.6475H64.3369C64.5269 30.5775 66.5269 29.9475 69.2969 29.9475C71.4269 29.9475 73.9969 30.3175 76.5969 31.5775C77.8969 32.2075 78.7369 32.9075 79.2369 33.5775C79.7369 34.2575 79.9269 34.9075 79.9269 35.5675C79.9269 36.4475 79.5569 37.3675 78.9369 38.1775C78.3169 38.9775 77.4669 39.6475 76.6269 40.0075C74.9569 40.7375 72.5769 41.4575 69.9369 41.4575C67.3969 41.4575 64.6169 40.8076 61.8669 38.8675L61.8469 38.8475H61.8269C61.8269 38.8475 61.3169 38.4975 60.8569 37.9575C60.3969 37.4075 59.9969 36.6775 59.9969 35.7975C59.9969 35.6675 59.9969 35.5275 60.0269 35.3775C60.2169 33.9975 60.7869 31.5975 60.7969 29.1975C60.7969 28.1275 60.6869 27.0575 60.3469 26.0375C60.0169 25.0275 59.4369 24.0675 58.5369 23.3275C56.2869 21.4875 52.7569 20.2475 48.8169 20.2375C46.5869 20.2375 44.2269 20.6375 41.9269 21.5875C40.3469 22.2375 39.1469 23.0775 38.3369 24.0775C37.5269 25.0675 37.1069 26.2275 37.1069 27.3775C37.1069 28.5975 37.5569 29.7875 38.3369 30.8375C39.1169 31.8875 40.2369 32.7975 41.6169 33.4975C44.5169 34.9675 47.8469 35.2775 50.3169 35.2775C52.4169 35.2775 53.8869 35.0375 53.9269 35.0375L53.6469 33.2875H53.5969C53.3269 33.3375 52.0469 33.5075 50.3169 33.5075C48.0069 33.5075 44.9069 33.1875 42.4169 31.9175C41.2369 31.3175 40.3369 30.5675 39.7469 29.7675C39.1569 28.9675 38.8669 28.1475 38.8669 27.3675C38.8669 26.6275 39.1169 25.8975 39.6969 25.1875C40.2769 24.4775 41.2169 23.7775 42.5869 23.2175C44.6669 22.3675 46.7969 21.9975 48.8069 21.9975C52.3669 21.9975 55.5669 23.1575 57.4069 24.6775C58.0069 25.1775 58.4069 25.8075 58.6569 26.5775C58.9169 27.3475 59.0169 28.2375 59.0169 29.1775C59.0169 31.3175 58.4769 33.5876 58.2669 35.1175C58.2369 35.3376 58.2169 35.5675 58.2169 35.7775L58.2369 35.8175Z" fill="#3B00B9"/>
</svg>
