<svg width="121" height="121" viewBox="0 0 121 121" fill="none" xmlns="http://www.w3.org/2000/svg">
<path d="M63.3487 19.6026C63.7069 19.9352 64.2668 19.9144 64.5994 19.5562C64.9319 19.198 64.9111 18.638 64.5529 18.3055L63.3487 19.6026ZM56.9925 16.7902L56.8499 15.9168L56.8478 15.9171L56.9925 16.7902ZM55.4715 23.3856L56.1182 22.7815L56.1181 22.7814L55.4715 23.3856ZM63.9033 25.8707L63.6356 25.0272L63.6048 25.037L63.5748 25.0489L63.9033 25.8707ZM67.9433 16.5162L67.5479 15.7244L67.5465 15.7252L67.9433 16.5162ZM76.1374 18.8218L76.7836 18.217L76.7823 18.2157L76.1374 18.8218ZM69.0776 23.1926C68.6631 22.9336 68.1171 23.0597 67.8582 23.4742C67.5992 23.8887 67.7252 24.4347 68.1397 24.6937L69.0776 23.1926ZM38.9693 75.0055H38.0843C38.0843 75.3281 38.2599 75.6253 38.5426 75.7808L38.9693 75.0055ZM60.2625 86.7222L59.8358 87.4976C60.1014 87.6437 60.4234 87.6438 60.689 87.4977L60.2625 86.7222ZM38.9693 55.4933L38.5647 54.7062C38.2697 54.8578 38.0843 55.1616 38.0843 55.4933H38.9693ZM81.5653 75.0055L81.9918 75.7809C82.2746 75.6254 82.4503 75.3282 82.4503 75.0055H81.5653ZM81.5653 55.4933H82.4503C82.4503 55.1804 82.285 54.8908 82.0157 54.7315C81.7463 54.5723 81.4129 54.5671 81.1388 54.7179L81.5653 55.4933ZM60.3005 67.2006L59.8747 67.9764C60.141 68.1226 60.4637 68.1219 60.7294 67.9747L60.3005 67.2006ZM60.1865 44.5892L60.5879 43.8004C60.3346 43.6715 60.0347 43.6721 59.7819 43.802L60.1865 44.5892ZM81.5177 55.446L81.9466 56.2202C82.2329 56.0615 82.4083 55.7578 82.4026 55.4305C82.3968 55.1032 82.2109 54.8058 81.9192 54.6573L81.5177 55.446ZM61.0705 105.611H60.1855C60.1855 105.933 60.3611 106.231 60.6439 106.386L61.0705 105.611ZM82.3637 117.328L81.9371 118.103C82.2027 118.249 82.5246 118.249 82.7903 118.103L82.3637 117.328ZM61.0705 86.0986L60.6658 85.3115C60.3709 85.4631 60.1855 85.7669 60.1855 86.0986H61.0705ZM103.667 105.611L104.093 106.386C104.376 106.231 104.552 105.933 104.552 105.611H103.667ZM103.667 86.0986H104.552C104.552 85.7857 104.386 85.496 104.117 85.3368C103.848 85.1775 103.514 85.1723 103.24 85.3231L103.667 86.0986ZM82.4018 97.8059L81.976 98.5817C82.2423 98.7279 82.5649 98.7272 82.8307 98.58L82.4018 97.8059ZM82.2782 75.1945L82.6795 74.4057C82.4261 74.2768 82.1263 74.2774 81.8735 74.4074L82.2782 75.1945ZM103.619 86.0513L104.048 86.8255C104.334 86.6668 104.51 86.363 104.504 86.0357C104.498 85.7084 104.312 85.411 104.02 85.2625L103.619 86.0513ZM17.6665 105.611H16.7815C16.7815 105.933 16.9572 106.231 17.24 106.386L17.6665 105.611ZM38.9693 117.328L38.5428 118.103C38.8084 118.249 39.1303 118.249 39.3959 118.103L38.9693 117.328ZM17.6665 86.0986L17.262 85.3114C16.967 85.463 16.7815 85.7669 16.7815 86.0986H17.6665ZM60.2625 105.611L60.6892 106.386C60.9719 106.231 61.1475 105.933 61.1475 105.611H60.2625ZM60.2625 86.0986H61.1475C61.1475 85.7856 60.9822 85.496 60.7129 85.3367C60.4435 85.1775 60.11 85.1723 59.8358 85.3232L60.2625 86.0986ZM39.0073 97.8059L38.5816 98.5818C38.848 98.7279 39.1706 98.7272 39.4363 98.5799L39.0073 97.8059ZM38.8837 75.1945L39.2851 74.4057C39.0318 74.2768 38.732 74.2774 38.4792 74.4073L38.8837 75.1945ZM60.215 86.0513L60.644 86.8254C60.9303 86.6667 61.1056 86.363 61.0998 86.0357C61.0941 85.7084 60.9081 85.4111 60.6164 85.2626L60.215 86.0513ZM45.9853 11.3359C45.8432 10.8682 45.3488 10.6044 44.8812 10.7466C44.4135 10.8887 44.1497 11.3831 44.2919 11.8507L45.9853 11.3359ZM57.6382 55.7507C57.7803 56.2184 58.2747 56.4822 58.7423 56.3401C59.21 56.1979 59.4738 55.7035 59.3316 55.2359L57.6382 55.7507ZM82.7725 21.6281L83.5261 21.164L83.5217 21.157L82.7725 21.6281ZM93.5047 28.8566L93.8671 28.0492L93.8654 28.0485L93.5047 28.8566ZM93.6568 29.6031L94.305 30.2056L94.3063 30.2042L93.6568 29.6031ZM64.5497 33.7134L64.5728 32.8287L64.5725 32.8287L64.5497 33.7134ZM53.827 37.4741L54.4626 38.0899L54.4629 38.0896L53.827 37.4741ZM53.038 37.2851L53.8839 37.0251L53.8833 37.0229L53.038 37.2851ZM45.1576 11.8862L46.0029 11.624L46.0019 11.6208L45.1576 11.8862ZM45.2337 11.461L44.5494 10.8998C44.5441 10.9063 44.5389 10.9128 44.5338 10.9194L45.2337 11.461ZM56.3366 7.26568L56.3142 8.15039L56.3142 8.15039L56.3366 7.26568ZM85.149 3.46716L85.7829 4.0847L85.7831 4.08452L85.149 3.46716ZM85.9475 3.779L86.8317 3.74193L86.8315 3.73763L85.9475 3.779ZM82.7915 21.1368L82.0559 20.6448C82.0512 20.6517 82.0467 20.6587 82.0423 20.6657L82.7915 21.1368ZM63.9508 18.9541C64.5529 18.3055 64.5527 18.3052 64.5524 18.305C64.5523 18.3049 64.552 18.3046 64.5518 18.3044C64.5514 18.3041 64.5509 18.3036 64.5504 18.3032C64.5494 18.3022 64.5482 18.3011 64.5468 18.2998C64.544 18.2973 64.5405 18.294 64.5362 18.2901C64.5276 18.2824 64.5161 18.272 64.5017 18.2593C64.4728 18.2338 64.4323 18.1987 64.3806 18.1556C64.2774 18.0694 64.1294 17.9506 63.9405 17.8121C63.5637 17.5356 63.0197 17.1765 62.3419 16.839C60.9924 16.167 59.0607 15.5558 56.8499 15.9168L57.1351 17.6637C58.8597 17.3821 60.4071 17.8529 61.5529 18.4234C62.1228 18.7072 62.5805 19.0095 62.8934 19.2391C63.0495 19.3536 63.1683 19.4491 63.2458 19.5139C63.2845 19.5462 63.3128 19.5708 63.3301 19.5861C63.3388 19.5938 63.3447 19.5991 63.3478 19.6019C63.3494 19.6033 63.3502 19.6041 63.3504 19.6042C63.3505 19.6043 63.3503 19.6042 63.3501 19.6039C63.3499 19.6038 63.3497 19.6036 63.3495 19.6034C63.3494 19.6033 63.3492 19.6031 63.3491 19.6031C63.3489 19.6029 63.3487 19.6026 63.9508 18.9541ZM56.8478 15.9171C55.6914 16.1087 54.7974 16.5744 54.1811 17.2695C53.5677 17.9612 53.2966 18.8042 53.2455 19.6331C53.1461 21.2469 53.8658 22.9636 54.8249 23.9899L56.1181 22.7814C55.4612 22.0785 54.9452 20.8282 55.0121 19.742C55.0442 19.2208 55.2068 18.7806 55.5054 18.4438C55.8011 18.1104 56.2973 17.8025 57.1371 17.6633L56.8478 15.9171ZM54.8248 23.9898C56.4936 25.7762 59.9595 28.3998 64.2317 26.6925L63.5748 25.0489C60.3754 26.3275 57.6625 24.4345 56.1182 22.7815L54.8248 23.9898ZM63.9033 25.8707C64.171 26.7143 64.1714 26.7141 64.1718 26.714C64.172 26.7139 64.1724 26.7138 64.1727 26.7137C64.1734 26.7135 64.174 26.7133 64.1747 26.7131C64.176 26.7127 64.1774 26.7122 64.1789 26.7117C64.182 26.7107 64.1854 26.7096 64.1893 26.7083C64.197 26.7057 64.2062 26.7025 64.2169 26.6987C64.2383 26.6911 64.2656 26.681 64.298 26.6682C64.3628 26.6424 64.4488 26.6054 64.5495 26.555C64.7497 26.4547 65.0153 26.2978 65.2897 26.0659C65.8482 25.5938 66.435 24.8139 66.5697 23.6272L64.811 23.4276C64.7366 24.0834 64.4298 24.4751 64.1471 24.7141C64.0008 24.8377 63.8589 24.9212 63.7567 24.9724C63.7062 24.9977 63.6673 25.0142 63.6449 25.0231C63.6338 25.0275 63.627 25.0299 63.6252 25.0306C63.6243 25.0309 63.6246 25.0308 63.6263 25.0302C63.6272 25.0299 63.6283 25.0295 63.6299 25.029C63.6306 25.0288 63.6315 25.0285 63.6325 25.0282C63.6329 25.028 63.6334 25.0279 63.6339 25.0277C63.6342 25.0276 63.6346 25.0275 63.6347 25.0275C63.6351 25.0273 63.6356 25.0272 63.9033 25.8707ZM66.5697 23.6272C66.686 22.6032 66.7261 21.2391 66.9998 19.8894C67.1329 19.2328 67.3108 18.6494 67.5486 18.1897C67.7857 17.731 68.0529 17.4513 68.3401 17.3073L67.5465 15.7252C66.8166 16.0913 66.3196 16.7128 65.9764 17.3766C65.6337 18.0392 65.4147 18.7993 65.265 19.5377C64.9731 20.9777 64.9039 22.609 64.811 23.4276L66.5697 23.6272ZM68.3386 17.308C69.9435 16.5066 73.0121 16.7881 75.4924 19.4278L76.7823 18.2157C73.8823 15.1294 69.9926 14.5037 67.5479 15.7244L68.3386 17.308ZM75.4912 19.4265C76.6664 20.6822 76.8944 21.8847 76.6728 22.7473C76.4517 23.6082 75.7379 24.3242 74.6067 24.5603L74.9684 26.293C76.6889 25.9338 77.9809 24.7694 78.3872 23.1877C78.793 21.6078 78.27 19.8054 76.7836 18.217L75.4912 19.4265ZM74.6067 24.5603C73.4262 24.8067 72.0727 24.5041 70.9393 24.0794C70.3862 23.8721 69.9144 23.6468 69.5818 23.4736C69.416 23.3873 69.2861 23.3146 69.1994 23.2646C69.156 23.2397 69.1236 23.2204 69.103 23.208C69.0927 23.2018 69.0854 23.1973 69.0811 23.1947C69.079 23.1934 69.0776 23.1925 69.077 23.1922C69.0767 23.192 69.0766 23.192 69.0767 23.192C69.0768 23.192 69.0769 23.1921 69.077 23.1922C69.0771 23.1923 69.0773 23.1923 69.0773 23.1924C69.0775 23.1925 69.0776 23.1926 68.6087 23.9431C68.1397 24.6937 68.1399 24.6938 68.1402 24.6939C68.1403 24.694 68.1405 24.6941 68.1407 24.6942C68.141 24.6945 68.1414 24.6947 68.1419 24.695C68.1428 24.6956 68.1439 24.6963 68.1452 24.6971C68.1479 24.6987 68.1513 24.7008 68.1556 24.7034C68.1641 24.7087 68.1757 24.7158 68.1905 24.7247C68.22 24.7424 68.2619 24.7672 68.3151 24.7979C68.4215 24.8593 68.5738 24.9444 68.7644 25.0436C69.1447 25.2416 69.683 25.4988 70.3181 25.7368C71.5611 26.2026 73.2971 26.6418 74.9684 26.293L74.6067 24.5603ZM38.5426 75.7808L59.8358 87.4976L60.6892 85.9469L39.3959 74.2301L38.5426 75.7808ZM61.1475 86.7222V67.21H59.3775V86.7222H61.1475ZM60.6891 66.4347L39.3959 54.718L38.5426 56.2687L59.8358 67.9854L60.6891 66.4347ZM38.0843 55.4933V75.0055H39.8543V55.4933H38.0843ZM81.1387 74.23L59.836 85.9468L60.689 87.4977L81.9918 75.7809L81.1387 74.23ZM60.689 67.9855L81.9918 56.2688L81.1388 54.7179L59.836 66.4346L60.689 67.9855ZM80.6803 55.4933V75.0055H82.4503V55.4933H80.6803ZM60.7263 66.4247L39.3951 54.7175L38.5435 56.2692L59.8747 67.9764L60.7263 66.4247ZM39.3738 56.2805L60.591 45.3763L59.7819 43.802L38.5647 54.7062L39.3738 56.2805ZM59.785 45.3779L81.1163 56.2348L81.9192 54.6573L60.5879 43.8004L59.785 45.3779ZM81.0888 54.6719L59.8716 66.4264L60.7294 67.9747L81.9466 56.2202L81.0888 54.6719ZM60.6439 106.386L81.9371 118.103L82.7904 116.552L61.4972 104.835L60.6439 106.386ZM83.2487 117.328V97.8153H81.4787V117.328H83.2487ZM82.7904 97.04L61.4972 85.3232L60.6439 86.8739L81.9371 98.5907L82.7904 97.04ZM60.1855 86.0986V105.611H61.9555V86.0986H60.1855ZM103.24 104.835L81.9372 116.552L82.7903 118.103L104.093 106.386L103.24 104.835ZM82.7903 98.5908L104.093 86.874L103.24 85.3231L81.9372 97.0399L82.7903 98.5908ZM102.782 86.0986V105.611H104.552V86.0986H102.782ZM82.8276 97.03L61.4963 85.3227L60.6447 86.8744L81.976 98.5817L82.8276 97.03ZM61.4752 86.8856L82.6829 75.9815L81.8735 74.4074L60.6658 85.3115L61.4752 86.8856ZM81.8769 75.9832L103.218 86.8401L104.02 85.2625L82.6795 74.4057L81.8769 75.9832ZM103.19 85.2772L81.9729 97.0317L82.8307 98.58L104.048 86.8255L103.19 85.2772ZM17.24 106.386L38.5428 118.103L39.3958 116.552L18.093 104.835L17.24 106.386ZM39.8543 117.328V97.8153H38.0843V117.328H39.8543ZM39.3958 97.0399L18.093 85.3231L17.24 86.874L38.5428 98.5908L39.3958 97.0399ZM16.7815 86.0986V105.611H18.5515V86.0986H16.7815ZM59.8358 104.835L38.5426 116.552L39.3959 118.103L60.6892 106.386L59.8358 104.835ZM39.3959 98.5907L60.6892 86.8739L59.8358 85.3232L38.5426 97.04L39.3959 98.5907ZM59.3775 86.0986V105.611H61.1475V86.0986H59.3775ZM39.4329 97.03L18.0922 85.3226L17.2408 86.8745L38.5816 98.5818L39.4329 97.03ZM18.071 86.8857L39.2882 75.9816L38.4792 74.4073L17.262 85.3114L18.071 86.8857ZM38.4823 75.9832L59.8135 86.84L60.6164 85.2626L39.2851 74.4057L38.4823 75.9832ZM59.7859 85.2773L38.5783 97.0318L39.4363 98.5799L60.644 86.8254L59.7859 85.2773ZM44.2919 11.8507L57.6382 55.7507L59.3316 55.2359L45.9853 11.3359L44.2919 11.8507ZM82.0189 22.0922C82.5756 22.9961 83.4468 23.8546 84.4163 24.6339C85.3949 25.4206 86.5212 26.1642 87.6357 26.8282C89.8645 28.1564 92.1029 29.2 93.1439 29.6648L93.8654 28.0485C92.8532 27.5966 90.6855 26.5852 88.5417 25.3077C87.4698 24.669 86.4181 23.9722 85.5252 23.2544C84.6233 22.5293 83.9296 21.8193 83.5261 21.1641L82.0189 22.0922ZM93.1422 29.664C92.8832 29.5477 92.816 29.2086 93.0073 29.0019L94.3063 30.2042C94.9348 29.5251 94.7155 28.4301 93.8671 28.0492L93.1422 29.664ZM93.0085 29.0006C89.0351 33.2756 84.04 34.3265 78.9419 34.2494C76.386 34.2107 73.8331 33.8885 71.3892 33.5562C68.9695 33.2271 66.6225 32.8822 64.5728 32.8287L64.5266 34.5981C66.455 34.6484 68.6828 34.9744 71.1506 35.31C73.5942 35.6423 76.2417 35.9787 78.9152 36.0192C84.276 36.1003 89.8562 34.9921 94.305 30.2056L93.0085 29.0006ZM64.5725 32.8287C58.0562 32.6603 54.5308 35.4744 53.1911 36.8586L54.4629 38.0896C55.5377 36.9792 58.6094 34.4452 64.5268 34.5981L64.5725 32.8287ZM53.1914 36.8583C53.4108 36.6318 53.7899 36.7192 53.8839 37.0251L52.1921 37.5451C52.4952 38.5314 53.7489 38.8266 54.4626 38.0899L53.1914 36.8583ZM53.8833 37.0229L46.0029 11.624L44.3124 12.1485L52.1928 37.5474L53.8833 37.0229ZM46.0019 11.6208C46.0193 11.6763 46.0266 11.746 46.0129 11.821C45.9994 11.8956 45.9685 11.9575 45.9336 12.0027L44.5338 10.9194C44.2634 11.2688 44.1779 11.7209 44.3133 12.1516L46.0019 11.6208ZM45.918 12.0222C46.5125 11.2973 49.5715 7.97969 56.3142 8.15039L56.359 6.38096C48.9188 6.1926 45.3807 9.8861 44.5494 10.8998L45.918 12.0222ZM56.3142 8.15039C58.2187 8.19846 60.4169 8.51687 62.8512 8.84859C65.2618 9.17709 67.8738 9.51352 70.5143 9.56783C75.8061 9.67668 81.3316 8.65415 85.7829 4.0847L84.5151 2.84963C80.5441 6.926 75.5941 7.90194 70.5507 7.7982C68.0234 7.74622 65.5029 7.42359 63.0901 7.09479C60.701 6.76922 58.3851 6.4321 56.3589 6.38096L56.3142 8.15039ZM85.7831 4.08452C85.5007 4.37458 85.0788 4.14797 85.0634 3.82036L86.8315 3.73763C86.7782 2.59741 85.3676 1.97391 84.5149 2.84981L85.7831 4.08452ZM85.0633 3.81606C85.1287 5.37822 85.1727 8.41947 84.7916 11.6747C84.4074 14.9567 83.6042 18.3297 82.0559 20.6448L83.5272 21.6288C85.3154 18.9548 86.1567 15.2363 86.5496 11.8805C86.9456 8.49775 86.8993 5.35464 86.8317 3.74193L85.0633 3.81606ZM82.0423 20.6657C81.8094 21.0361 81.7076 21.5972 82.0233 22.0992L83.5217 21.157C83.6473 21.3567 83.5835 21.5398 83.5407 21.6079L82.0423 20.6657Z" fill="url(#paint0_linear_14653_71971)"/>
<defs>
<linearGradient id="paint0_linear_14653_71971" x1="17.6665" y1="3.32751" x2="107.462" y2="18.5108" gradientUnits="userSpaceOnUse">
<stop stop-color="#3B00B9"/>
<stop offset="1" stop-color="#2586B6"/>
</linearGradient>
</defs>
</svg>
