<svg width="364" height="281" viewBox="0 0 364 281" fill="none" xmlns="http://www.w3.org/2000/svg">
<path style="mix-blend-mode:multiply" d="M61.244 0.554688L121.73 35.6141L121.705 105.579L60.9998 140.375L0.616135 105.367L0.641846 35.402L61.244 0.554688Z" fill="url(#paint0_radial_598_6399)"/>
<g style="mix-blend-mode:screen">
<path d="M121.73 35.6138L61.1219 70.4611L60.9998 140.374L121.705 105.578L121.73 35.6138Z" fill="url(#paint1_linear_598_6399)"/>
<path d="M61.244 0.554688L121.73 35.6141L61.1219 70.4615L0.641853 35.402L61.244 0.554688Z" fill="url(#paint2_linear_598_6399)"/>
<path d="M0.641037 35.4019L61.1211 70.4613L60.999 140.375L0.61533 105.367L0.641037 35.4019Z" fill="url(#paint3_linear_598_6399)"/>
</g>
<path style="mix-blend-mode:multiply" d="M303.416 0.991211L363.902 36.0506L363.877 106.015L303.172 140.811L242.788 105.803L242.814 35.8386L303.416 0.991211Z" fill="url(#paint4_radial_598_6399)"/>
<g style="mix-blend-mode:screen">
<path d="M363.902 36.0498L303.294 70.8972L303.172 140.81L363.877 106.014L363.902 36.0498Z" fill="url(#paint5_linear_598_6399)"/>
<path d="M303.416 0.991211L363.902 36.0506L303.294 70.898L242.814 35.8386L303.416 0.991211Z" fill="url(#paint6_linear_598_6399)"/>
<path d="M242.813 35.8389L303.293 70.8983L303.171 140.812L242.787 105.804L242.813 35.8389Z" fill="url(#paint7_linear_598_6399)"/>
</g>
<path style="mix-blend-mode:multiply" d="M182.33 0.765625L242.816 35.825L242.791 105.79L182.086 140.586L121.702 105.578L121.728 35.613L182.33 0.765625Z" fill="url(#paint8_radial_598_6399)"/>
<g style="mix-blend-mode:screen">
<path d="M242.816 35.8247L182.208 70.6721L182.086 140.585L242.791 105.789L242.816 35.8247Z" fill="url(#paint9_linear_598_6399)"/>
<path d="M182.33 0.765625L242.816 35.825L182.208 70.6724L121.728 35.613L182.33 0.765625Z" fill="url(#paint10_linear_598_6399)"/>
<path d="M121.727 35.6128L182.207 70.6722L182.085 140.585L121.701 105.577L121.727 35.6128Z" fill="url(#paint11_linear_598_6399)"/>
</g>
<path style="mix-blend-mode:multiply" d="M182.224 70.6772L242.711 105.737L242.685 175.701L181.98 210.497L121.597 175.489L121.622 105.525L182.224 70.6772Z" fill="url(#paint12_radial_598_6399)"/>
<g style="mix-blend-mode:screen">
<path d="M242.711 105.735L182.102 140.583L181.98 210.496L242.685 175.7L242.711 105.735Z" fill="url(#paint13_linear_598_6399)"/>
<path d="M182.224 70.6772L242.711 105.737L182.102 140.584L121.622 105.525L182.224 70.6772Z" fill="url(#paint14_linear_598_6399)"/>
<path d="M121.622 105.524L182.102 140.584L181.979 210.497L121.596 175.489L121.622 105.524Z" fill="url(#paint15_linear_598_6399)"/>
</g>
<path style="mix-blend-mode:multiply" d="M121.818 105.523L182.305 140.582L182.279 210.547L121.574 245.343L61.1904 210.335L61.2161 140.37L121.818 105.523Z" fill="url(#paint16_radial_598_6399)"/>
<g style="mix-blend-mode:screen">
<path d="M182.305 140.582L121.696 175.429L121.574 245.343L182.279 210.547L182.305 140.582Z" fill="url(#paint17_linear_598_6399)"/>
<path d="M121.818 105.523L182.305 140.582L121.696 175.43L61.2161 140.37L121.818 105.523Z" fill="url(#paint18_linear_598_6399)"/>
<path d="M61.2153 140.37L121.695 175.43L121.573 245.343L61.1895 210.335L61.2153 140.37Z" fill="url(#paint19_linear_598_6399)"/>
</g>
<path style="mix-blend-mode:multiply" d="M61.2674 140.372L121.754 175.431L121.728 245.396L61.0232 280.192L0.639572 245.184L0.665283 175.219L61.2674 140.372Z" fill="url(#paint20_radial_598_6399)"/>
<g style="mix-blend-mode:screen">
<path d="M121.754 175.431L61.1453 210.278L61.0232 280.191L121.728 245.395L121.754 175.431Z" fill="url(#paint21_linear_598_6399)"/>
<path d="M61.2674 140.372L121.754 175.431L61.1453 210.279L0.665291 175.219L61.2674 140.372Z" fill="url(#paint22_linear_598_6399)"/>
<path d="M0.664474 175.219L61.1445 210.279L61.0224 280.192L0.638767 245.184L0.664474 175.219Z" fill="url(#paint23_linear_598_6399)"/>
</g>
<path style="mix-blend-mode:multiply" d="M303.264 70.9004L363.75 105.96L363.724 175.924L303.019 210.72L242.636 175.712L242.661 105.748L303.264 70.9004Z" fill="url(#paint24_radial_598_6399)"/>
<g style="mix-blend-mode:screen">
<path d="M363.75 105.959L303.141 140.806L303.019 210.72L363.724 175.924L363.75 105.959Z" fill="url(#paint25_linear_598_6399)"/>
<path d="M303.264 70.9004L363.75 105.96L303.141 140.807L242.661 105.748L303.264 70.9004Z" fill="url(#paint26_linear_598_6399)"/>
<path d="M242.661 105.748L303.141 140.807L303.019 210.72L242.635 175.712L242.661 105.748Z" fill="url(#paint27_linear_598_6399)"/>
</g>
<path style="mix-blend-mode:multiply" d="M303.228 140.806L363.715 175.866L363.689 245.83L302.984 280.626L242.601 245.618L242.626 175.654L303.228 140.806Z" fill="url(#paint28_radial_598_6399)"/>
<g style="mix-blend-mode:screen">
<path d="M363.715 175.865L303.106 210.713L302.984 280.626L363.689 245.83L363.715 175.865Z" fill="url(#paint29_linear_598_6399)"/>
<path d="M303.228 140.806L363.715 175.866L303.106 210.713L242.626 175.654L303.228 140.806Z" fill="url(#paint30_linear_598_6399)"/>
<path d="M242.625 175.653L303.105 210.713L302.983 280.626L242.6 245.618L242.625 175.653Z" fill="url(#paint31_linear_598_6399)"/>
</g>
<defs>
<radialGradient id="paint0_radial_598_6399" cx="0" cy="0" r="1" gradientUnits="userSpaceOnUse" gradientTransform="translate(97.5337 56.5565) rotate(-179.9) scale(161.077 161.077)">
<stop stop-color="#463E98"/>
<stop offset="0.42" stop-color="#382E82"/>
<stop offset="1" stop-color="#291C69"/>
</radialGradient>
<linearGradient id="paint1_linear_598_6399" x1="46.5843" y1="22.7572" x2="132.633" y2="147.955" gradientUnits="userSpaceOnUse">
<stop stop-color="#ED207A"/>
<stop offset="0.48" stop-color="#9B3E83"/>
<stop offset="0.5" stop-color="#933B7E"/>
<stop offset="0.66" stop-color="#65285F"/>
<stop offset="0.8" stop-color="#431A49"/>
<stop offset="0.92" stop-color="#2F123B"/>
<stop offset="1" stop-color="#280F37"/>
</linearGradient>
<linearGradient id="paint2_linear_598_6399" x1="26.088" y1="21.5073" x2="181.601" y2="83.4284" gradientUnits="userSpaceOnUse">
<stop stop-color="#F390BC"/>
<stop offset="1" stop-color="#9B3E83"/>
</linearGradient>
<linearGradient id="paint3_linear_598_6399" x1="9.02367" y1="56.2926" x2="155.466" y2="267.689" gradientUnits="userSpaceOnUse">
<stop stop-color="#ED207A"/>
<stop offset="0.48" stop-color="#9B3E83"/>
<stop offset="0.5" stop-color="#933B7E"/>
<stop offset="0.66" stop-color="#65285F"/>
<stop offset="0.8" stop-color="#431A49"/>
<stop offset="0.92" stop-color="#2F123B"/>
<stop offset="1" stop-color="#280F37"/>
</linearGradient>
<radialGradient id="paint4_radial_598_6399" cx="0" cy="0" r="1" gradientUnits="userSpaceOnUse" gradientTransform="translate(339.706 56.9931) rotate(-179.9) scale(161.077 161.077)">
<stop stop-color="#463E98"/>
<stop offset="0.42" stop-color="#382E82"/>
<stop offset="1" stop-color="#291C69"/>
</radialGradient>
<linearGradient id="paint5_linear_598_6399" x1="288.756" y1="23.1933" x2="374.805" y2="148.391" gradientUnits="userSpaceOnUse">
<stop stop-color="#ED207A"/>
<stop offset="0.48" stop-color="#9B3E83"/>
<stop offset="0.5" stop-color="#933B7E"/>
<stop offset="0.66" stop-color="#65285F"/>
<stop offset="0.8" stop-color="#431A49"/>
<stop offset="0.92" stop-color="#2F123B"/>
<stop offset="1" stop-color="#280F37"/>
</linearGradient>
<linearGradient id="paint6_linear_598_6399" x1="268.26" y1="21.9438" x2="423.773" y2="83.8649" gradientUnits="userSpaceOnUse">
<stop stop-color="#F390BC"/>
<stop offset="1" stop-color="#9B3E83"/>
</linearGradient>
<linearGradient id="paint7_linear_598_6399" x1="251.196" y1="56.7296" x2="397.638" y2="268.126" gradientUnits="userSpaceOnUse">
<stop stop-color="#ED207A"/>
<stop offset="0.48" stop-color="#9B3E83"/>
<stop offset="0.5" stop-color="#933B7E"/>
<stop offset="0.66" stop-color="#65285F"/>
<stop offset="0.8" stop-color="#431A49"/>
<stop offset="0.92" stop-color="#2F123B"/>
<stop offset="1" stop-color="#280F37"/>
</linearGradient>
<radialGradient id="paint8_radial_598_6399" cx="0" cy="0" r="1" gradientUnits="userSpaceOnUse" gradientTransform="translate(218.62 56.7675) rotate(-179.9) scale(161.077 161.077)">
<stop stop-color="#463E98"/>
<stop offset="0.42" stop-color="#382E82"/>
<stop offset="1" stop-color="#291C69"/>
</radialGradient>
<linearGradient id="paint9_linear_598_6399" x1="167.67" y1="22.9682" x2="253.719" y2="148.165" gradientUnits="userSpaceOnUse">
<stop stop-color="#ED207A"/>
<stop offset="0.48" stop-color="#9B3E83"/>
<stop offset="0.5" stop-color="#933B7E"/>
<stop offset="0.66" stop-color="#65285F"/>
<stop offset="0.8" stop-color="#431A49"/>
<stop offset="0.92" stop-color="#2F123B"/>
<stop offset="1" stop-color="#280F37"/>
</linearGradient>
<linearGradient id="paint10_linear_598_6399" x1="147.174" y1="21.7182" x2="302.687" y2="83.6393" gradientUnits="userSpaceOnUse">
<stop stop-color="#F390BC"/>
<stop offset="1" stop-color="#9B3E83"/>
</linearGradient>
<linearGradient id="paint11_linear_598_6399" x1="130.11" y1="56.5035" x2="276.552" y2="267.9" gradientUnits="userSpaceOnUse">
<stop stop-color="#ED207A"/>
<stop offset="0.48" stop-color="#9B3E83"/>
<stop offset="0.5" stop-color="#933B7E"/>
<stop offset="0.66" stop-color="#65285F"/>
<stop offset="0.8" stop-color="#431A49"/>
<stop offset="0.92" stop-color="#2F123B"/>
<stop offset="1" stop-color="#280F37"/>
</linearGradient>
<radialGradient id="paint12_radial_598_6399" cx="0" cy="0" r="1" gradientUnits="userSpaceOnUse" gradientTransform="translate(218.514 126.679) rotate(-179.9) scale(161.077 161.077)">
<stop stop-color="#463E98"/>
<stop offset="0.42" stop-color="#382E82"/>
<stop offset="1" stop-color="#291C69"/>
</radialGradient>
<linearGradient id="paint13_linear_598_6399" x1="167.565" y1="92.8788" x2="253.613" y2="218.076" gradientUnits="userSpaceOnUse">
<stop stop-color="#ED207A"/>
<stop offset="0.48" stop-color="#9B3E83"/>
<stop offset="0.5" stop-color="#933B7E"/>
<stop offset="0.66" stop-color="#65285F"/>
<stop offset="0.8" stop-color="#431A49"/>
<stop offset="0.92" stop-color="#2F123B"/>
<stop offset="1" stop-color="#280F37"/>
</linearGradient>
<linearGradient id="paint14_linear_598_6399" x1="147.068" y1="91.6298" x2="302.582" y2="153.551" gradientUnits="userSpaceOnUse">
<stop stop-color="#F390BC"/>
<stop offset="1" stop-color="#9B3E83"/>
</linearGradient>
<linearGradient id="paint15_linear_598_6399" x1="130.004" y1="126.415" x2="276.447" y2="337.812" gradientUnits="userSpaceOnUse">
<stop stop-color="#ED207A"/>
<stop offset="0.48" stop-color="#9B3E83"/>
<stop offset="0.5" stop-color="#933B7E"/>
<stop offset="0.66" stop-color="#65285F"/>
<stop offset="0.8" stop-color="#431A49"/>
<stop offset="0.92" stop-color="#2F123B"/>
<stop offset="1" stop-color="#280F37"/>
</linearGradient>
<radialGradient id="paint16_radial_598_6399" cx="0" cy="0" r="1" gradientUnits="userSpaceOnUse" gradientTransform="translate(158.108 161.525) rotate(-179.9) scale(161.077 161.077)">
<stop stop-color="#463E98"/>
<stop offset="0.42" stop-color="#382E82"/>
<stop offset="1" stop-color="#291C69"/>
</radialGradient>
<linearGradient id="paint17_linear_598_6399" x1="107.159" y1="127.725" x2="193.207" y2="252.923" gradientUnits="userSpaceOnUse">
<stop stop-color="#ED207A"/>
<stop offset="0.48" stop-color="#9B3E83"/>
<stop offset="0.5" stop-color="#933B7E"/>
<stop offset="0.66" stop-color="#65285F"/>
<stop offset="0.8" stop-color="#431A49"/>
<stop offset="0.92" stop-color="#2F123B"/>
<stop offset="1" stop-color="#280F37"/>
</linearGradient>
<linearGradient id="paint18_linear_598_6399" x1="86.6622" y1="126.476" x2="242.175" y2="188.397" gradientUnits="userSpaceOnUse">
<stop stop-color="#F390BC"/>
<stop offset="1" stop-color="#9B3E83"/>
</linearGradient>
<linearGradient id="paint19_linear_598_6399" x1="69.5979" y1="161.261" x2="216.041" y2="372.657" gradientUnits="userSpaceOnUse">
<stop stop-color="#ED207A"/>
<stop offset="0.48" stop-color="#9B3E83"/>
<stop offset="0.5" stop-color="#933B7E"/>
<stop offset="0.66" stop-color="#65285F"/>
<stop offset="0.8" stop-color="#431A49"/>
<stop offset="0.92" stop-color="#2F123B"/>
<stop offset="1" stop-color="#280F37"/>
</linearGradient>
<radialGradient id="paint20_radial_598_6399" cx="0" cy="0" r="1" gradientUnits="userSpaceOnUse" gradientTransform="translate(97.5572 196.374) rotate(-179.9) scale(161.077 161.077)">
<stop stop-color="#463E98"/>
<stop offset="0.42" stop-color="#382E82"/>
<stop offset="1" stop-color="#291C69"/>
</radialGradient>
<linearGradient id="paint21_linear_598_6399" x1="46.6077" y1="162.574" x2="132.656" y2="287.771" gradientUnits="userSpaceOnUse">
<stop stop-color="#ED207A"/>
<stop offset="0.48" stop-color="#9B3E83"/>
<stop offset="0.5" stop-color="#933B7E"/>
<stop offset="0.66" stop-color="#65285F"/>
<stop offset="0.8" stop-color="#431A49"/>
<stop offset="0.92" stop-color="#2F123B"/>
<stop offset="1" stop-color="#280F37"/>
</linearGradient>
<linearGradient id="paint22_linear_598_6399" x1="26.1114" y1="161.325" x2="181.625" y2="223.246" gradientUnits="userSpaceOnUse">
<stop stop-color="#F390BC"/>
<stop offset="1" stop-color="#9B3E83"/>
</linearGradient>
<linearGradient id="paint23_linear_598_6399" x1="9.04711" y1="196.11" x2="155.49" y2="407.506" gradientUnits="userSpaceOnUse">
<stop stop-color="#ED207A"/>
<stop offset="0.48" stop-color="#9B3E83"/>
<stop offset="0.5" stop-color="#933B7E"/>
<stop offset="0.66" stop-color="#65285F"/>
<stop offset="0.8" stop-color="#431A49"/>
<stop offset="0.92" stop-color="#2F123B"/>
<stop offset="1" stop-color="#280F37"/>
</linearGradient>
<radialGradient id="paint24_radial_598_6399" cx="0" cy="0" r="1" gradientUnits="userSpaceOnUse" gradientTransform="translate(339.553 126.902) rotate(-179.9) scale(161.077 161.077)">
<stop stop-color="#463E98"/>
<stop offset="0.42" stop-color="#382E82"/>
<stop offset="1" stop-color="#291C69"/>
</radialGradient>
<linearGradient id="paint25_linear_598_6399" x1="288.604" y1="93.1024" x2="374.652" y2="218.3" gradientUnits="userSpaceOnUse">
<stop stop-color="#ED207A"/>
<stop offset="0.48" stop-color="#9B3E83"/>
<stop offset="0.5" stop-color="#933B7E"/>
<stop offset="0.66" stop-color="#65285F"/>
<stop offset="0.8" stop-color="#431A49"/>
<stop offset="0.92" stop-color="#2F123B"/>
<stop offset="1" stop-color="#280F37"/>
</linearGradient>
<linearGradient id="paint26_linear_598_6399" x1="268.108" y1="91.853" x2="423.621" y2="153.774" gradientUnits="userSpaceOnUse">
<stop stop-color="#F390BC"/>
<stop offset="1" stop-color="#9B3E83"/>
</linearGradient>
<linearGradient id="paint27_linear_598_6399" x1="251.043" y1="126.638" x2="397.486" y2="338.035" gradientUnits="userSpaceOnUse">
<stop stop-color="#ED207A"/>
<stop offset="0.48" stop-color="#9B3E83"/>
<stop offset="0.5" stop-color="#933B7E"/>
<stop offset="0.66" stop-color="#65285F"/>
<stop offset="0.8" stop-color="#431A49"/>
<stop offset="0.92" stop-color="#2F123B"/>
<stop offset="1" stop-color="#280F37"/>
</linearGradient>
<radialGradient id="paint28_radial_598_6399" cx="0" cy="0" r="1" gradientUnits="userSpaceOnUse" gradientTransform="translate(339.518 196.808) rotate(-179.9) scale(161.077 161.077)">
<stop stop-color="#463E98"/>
<stop offset="0.42" stop-color="#382E82"/>
<stop offset="1" stop-color="#291C69"/>
</radialGradient>
<linearGradient id="paint29_linear_598_6399" x1="288.569" y1="163.009" x2="374.617" y2="288.206" gradientUnits="userSpaceOnUse">
<stop stop-color="#ED207A"/>
<stop offset="0.48" stop-color="#9B3E83"/>
<stop offset="0.5" stop-color="#933B7E"/>
<stop offset="0.66" stop-color="#65285F"/>
<stop offset="0.8" stop-color="#431A49"/>
<stop offset="0.92" stop-color="#2F123B"/>
<stop offset="1" stop-color="#280F37"/>
</linearGradient>
<linearGradient id="paint30_linear_598_6399" x1="268.072" y1="161.759" x2="423.586" y2="223.68" gradientUnits="userSpaceOnUse">
<stop stop-color="#F390BC"/>
<stop offset="1" stop-color="#9B3E83"/>
</linearGradient>
<linearGradient id="paint31_linear_598_6399" x1="251.008" y1="196.544" x2="397.451" y2="407.94" gradientUnits="userSpaceOnUse">
<stop stop-color="#ED207A"/>
<stop offset="0.48" stop-color="#9B3E83"/>
<stop offset="0.5" stop-color="#933B7E"/>
<stop offset="0.66" stop-color="#65285F"/>
<stop offset="0.8" stop-color="#431A49"/>
<stop offset="0.92" stop-color="#2F123B"/>
<stop offset="1" stop-color="#280F37"/>
</linearGradient>
</defs>
</svg>
