<svg width="662" height="540" viewBox="0 0 662 540" fill="none" xmlns="http://www.w3.org/2000/svg">
<path d="M134.385 272.954L275.062 191.789L310.647 212.383L169.97 293.548L134.385 272.954Z" fill="url(#paint0_linear_12451_3836)"/>
<path d="M169.97 154.537L134.385 133.943L169.97 113.349L205.556 133.943L169.97 154.537Z" fill="url(#paint1_linear_12451_3836)"/>
<path d="M169.97 154.537V293.548L205.556 272.954V133.943L169.97 154.537Z" fill="url(#paint2_linear_12451_3836)"/>
<path d="M169.97 154.537L134.385 133.943V272.954L169.97 293.548V154.537Z" fill="url(#paint3_linear_12451_3836)"/>
<path opacity="0.07" d="M169.97 293.548L134.385 272.954L169.97 252.36L205.556 272.954L169.97 293.548Z" fill="url(#paint4_linear_12451_3836)"/>
<path opacity="0.6" d="M205.556 174.223L169.97 209.96V221.62L205.556 185.883V174.223Z" fill="url(#paint5_linear_12451_3836)"/>
<path opacity="0.6" d="M205.556 192.849L169.97 228.434V268.714L205.556 233.129V192.849Z" fill="url(#paint6_linear_12451_3836)"/>
<path opacity="0.5" d="M224.038 438.611L101.835 368.045" stroke="url(#paint7_linear_12451_3836)" stroke-width="2.11999" stroke-miterlimit="10" stroke-linecap="round" stroke-linejoin="round"/>
<path opacity="0.5" d="M522.654 381.371L578.531 414.08C581.711 415.897 585.648 415.897 588.828 414.08L609.12 402.42C612.3 400.602 616.085 400.602 619.265 402.42L660 425.891" stroke="url(#paint8_linear_12451_3836)" stroke-width="2.11999" stroke-miterlimit="10" stroke-linecap="round" stroke-linejoin="round"/>
<path opacity="0.5" d="M449.514 388.337L403.783 414.837L363.049 391.365C359.869 389.548 356.083 389.548 352.903 391.365L296.875 423.62" stroke="url(#paint9_linear_12451_3836)" stroke-width="2.11999" stroke-miterlimit="10" stroke-linecap="round" stroke-linejoin="round"/>
<path opacity="0.5" d="M134.09 434.522L114.253 445.879C110.77 447.848 106.53 447.848 103.199 445.879L68.0672 425.588C64.8872 423.771 61.1015 423.771 57.9215 425.588L1.89307 457.842" stroke="url(#paint10_linear_12451_3836)" stroke-width="2.11999" stroke-miterlimit="10" stroke-linecap="round" stroke-linejoin="round"/>
<path opacity="0.5" d="M82.9067 369.711L137.572 401.36C140.449 403.025 140.449 406.962 137.572 408.628L119.704 418.925C116.827 420.591 116.827 424.528 119.704 426.194L159.227 449.059" stroke="url(#paint11_linear_12451_3836)" stroke-width="2.11999" stroke-miterlimit="10" stroke-linecap="round" stroke-linejoin="round"/>
<path opacity="0.5" d="M403.784 414.837L357.901 441.337" stroke="url(#paint12_linear_12451_3836)" stroke-width="2.11999" stroke-miterlimit="10" stroke-linecap="round" stroke-linejoin="round"/>
<path d="M188.453 491.459L329.129 410.294L364.715 430.737L224.038 512.054L188.453 491.459Z" fill="url(#paint13_linear_12451_3836)"/>
<path d="M224.038 423.922L188.453 403.328L224.038 382.734L259.624 403.328L224.038 423.922Z" fill="url(#paint14_linear_12451_3836)"/>
<path d="M224.038 423.922V512.054L259.624 491.459V403.328L224.038 423.922Z" fill="url(#paint15_linear_12451_3836)"/>
<path d="M224.038 423.922L188.453 403.328V491.459L224.038 512.054V423.922Z" fill="url(#paint16_linear_12451_3836)"/>
<path opacity="0.29" d="M224.038 512.054L188.453 491.459L224.038 470.865L259.624 491.459L224.038 512.054Z" fill="url(#paint17_linear_12451_3836)"/>
<g opacity="0.4">
<path d="M259.624 413.928L224.038 449.514V461.174L259.624 425.588V413.928Z" fill="url(#paint18_linear_12451_3836)"/>
<path d="M259.775 432.402L224.038 468.139V508.419L259.775 472.682V432.402Z" fill="url(#paint19_linear_12451_3836)"/>
</g>
<path d="M238.191 368.564C236.185 374.059 230.589 374.03 229.411 377.475C229.31 377.78 229.208 378.144 228.903 378.245C228.06 378.536 224.687 374.263 225.501 371.108C225.763 370.105 226.214 369.669 226.664 368.739C227.638 366.704 231.083 361.296 234.499 361.936C237.464 362.488 239.209 365.773 238.191 368.579V368.564Z" fill="url(#paint20_linear_12451_3836)"/>
<path d="M200.804 446.929C200.949 446.638 202.025 443.803 202.286 441.652C202.388 440.765 202.315 439.443 202.315 438.352C202.315 437.873 205.702 438.469 205.702 438.469C205.731 439.108 205.702 439.588 205.92 439.966C206.487 440.184 206.981 440.62 207.214 441.245C207.476 441.943 207.388 442.742 207.141 443.455C206.909 444.167 206.531 444.821 206.211 445.504C205.92 446.129 205.688 446.769 205.499 447.423C205.252 448.295 205.106 449.182 204.772 450.01C204.263 451.275 202.039 452.162 200.687 452.016C199.713 451.915 198.449 451.478 198.609 450.272C198.827 448.731 200.062 448.324 200.789 446.929H200.804Z" fill="#CA957A"/>
<path d="M199.829 418.787C199.669 417.537 199.611 416.243 199.96 415.022C201.632 409.426 210.034 401.315 213.798 398.044C214.482 397.463 215.049 396.765 215.354 395.907L216.357 393.131C229.963 395.718 224.773 403.989 217.825 409.586C210.208 415.735 207.315 419.049 207.315 419.049C207.315 419.049 209.932 424.296 208.217 430.881C207.839 432.32 207.272 433.716 206.981 435.169C206.618 436.957 206.182 439.152 206.138 439.879C206.051 441.158 202.286 441.565 202.3 440.155C202.3 440.155 201.123 428.512 199.844 418.758L199.829 418.787Z" fill="url(#paint21_linear_12451_3836)"/>
<path d="M185.395 431.027C185.656 430.838 187.88 428.774 189.072 426.971C189.566 426.216 190.09 425.009 190.584 424.035C190.802 423.614 193.564 425.649 193.564 425.649C193.302 426.23 193.07 426.652 193.099 427.088C193.506 427.538 193.753 428.149 193.695 428.817C193.622 429.573 193.186 430.242 192.648 430.765C192.11 431.303 191.485 431.71 190.889 432.19C190.351 432.611 189.857 433.091 189.392 433.585C188.781 434.254 188.258 434.981 187.575 435.577C186.557 436.478 184.174 436.289 183.025 435.548C182.211 435.024 181.266 434.065 181.95 433.062C182.836 431.783 184.13 431.972 185.395 431.056V431.027Z" fill="#CA957A"/>
<path d="M196.791 405.632C197.372 405.08 198.055 404.586 198.84 404.426C199.451 404.295 213.333 404.789 217.766 403.844L227.317 398.626C229.163 398.277 230.922 397.695 231.358 401.606C231.823 405.748 230.282 409.935 226.997 412.493C224.526 414.397 221.473 415.415 218.421 415.4C216.138 415.386 203.027 413.104 201.849 413.351C200.672 413.612 199.698 418.293 193.825 426.957C192.881 428.352 188.941 427.044 189.566 425.212C193.041 417.435 195.046 407.304 196.805 405.632H196.791Z" fill="url(#paint22_linear_12451_3836)"/>
<path d="M202.619 398.407C202.154 397.608 202.169 396.605 202.067 395.704C201.965 394.832 202.241 394.119 203.084 393.901C203.695 393.756 204.422 393.465 206.064 392.041C209.509 389.061 214.96 383.886 214.96 383.886C215.833 379.467 214.728 375.993 216.21 371.734C216.69 370.367 218.289 369.379 219.815 370.295L219.612 374.278C218.391 378.173 219.103 383.072 218.333 387.738C218.086 389.279 210.73 392.927 208.317 394.119C206.151 395.195 205.803 395.835 203.593 397.841C203.273 398.131 202.939 398.291 202.605 398.393L202.619 398.407Z" fill="#CA957A"/>
<path d="M233.539 377.868C234.542 378.784 234.905 380.339 234.426 381.604C233.728 383.464 229.701 387.985 228.786 392.041C228.495 393.32 228.451 394.221 230.777 397.928C234.28 403.495 212.985 403.059 215.093 396.213C217.578 388.145 212.97 386.357 212.985 383.697C212.985 381.735 214.976 381.022 215.66 379.409C216.75 376.865 215.252 373.042 217.099 370.847C219.875 367.547 233.176 377.548 233.524 377.868H233.539Z" fill="white"/>
<path d="M220.878 373.551C221.604 372.155 222.07 370.6 222.011 369.016L229.047 368.463C228.015 370.44 227.928 372.315 228.364 374.292C229.047 377.403 219.177 376.807 220.863 373.551H220.878Z" fill="#CA957A"/>
<path d="M217.171 405.298L212.898 398.437C212.825 398.335 212.694 398.19 212.549 398.073C212.476 398.015 212.389 397.957 212.316 397.914L200.862 391.3C200.716 391.227 200.644 391.198 200.615 391.241L200.455 391.43C200.455 391.43 200.556 391.43 200.687 391.489C200.702 391.489 212.156 398.117 212.156 398.117C212.229 398.161 212.316 398.219 212.389 398.277C212.534 398.393 212.679 398.539 212.738 398.64L217.011 405.501C217.011 405.501 217.055 405.618 217.04 405.632L217.2 405.443C217.2 405.443 217.2 405.371 217.171 405.312V405.298Z" fill="white"/>
<path d="M200.688 391.489L212.142 398.103C212.36 398.234 212.622 398.466 212.724 398.641L216.997 405.502C217.099 405.662 216.997 405.691 216.779 405.575L205.325 398.961C205.107 398.83 204.845 398.597 204.744 398.423L200.47 391.562C200.368 391.402 200.47 391.373 200.688 391.489Z" fill="#E3DDDA"/>
<path d="M210.15 400.792C209.67 399.178 213.013 401.46 214.118 401.591C214.83 401.678 214.83 401.257 214.452 400.966L213.231 399.004C213.231 399.004 213.318 399.047 213.377 399.062C214.002 399.338 214.409 399.295 215.572 399.847C216.604 400.341 217.301 401.475 218.275 401.577C218.362 401.548 218.624 401.635 219.002 401.359C221.604 398.946 228.073 393.582 228.073 393.582C228.073 393.582 228.93 383.087 229.599 380.95C231.241 375.732 235.471 378.232 235.297 381.633C235.239 382.709 233.495 391.707 232.564 395.253C231.75 398.335 224.933 400.472 219.554 404.455C217.418 406.039 215.833 406.01 215.281 405.894C214.51 405.734 213.057 405.283 211.545 404.44C210.644 403.946 210.339 403.365 210.469 403.234C209.844 402.623 209.902 401.882 210.266 402.013C209.452 401.315 209.525 400.69 210.15 400.777V400.792Z" fill="#CA957A"/>
<path d="M206.167 398.088C206.239 397.826 206.138 397.478 205.963 397.216C205.556 396.634 204.96 396.431 204.437 396.169C203.725 395.82 203.216 395.501 202.576 394.934L202.053 394.12C201.602 394.628 201.69 395.123 201.806 395.951C201.951 396.983 202.213 398.408 202.809 398.989C203.594 399.76 204.946 400.53 205.295 399.891C205.44 399.992 205.614 400.065 205.774 400.065C206.123 400.05 206.225 399.571 206.109 399.527C206.356 399.629 206.603 399.454 206.646 399.178C206.734 398.539 206.181 398.103 206.181 398.103L206.167 398.088Z" fill="#CA957A"/>
<path d="M206.718 397.768C206.878 398.044 207.358 398.495 207.794 398.771C208.23 399.047 208.433 399.047 208.273 398.771C208.113 398.495 207.634 398.044 207.198 397.768C206.762 397.492 206.558 397.492 206.718 397.768Z" fill="#C2BCBA"/>
<path d="M222.738 372.547C221.429 372.388 218.871 371.966 218.537 370.716C218.304 369.829 219.38 368.652 219.075 367.78C218.929 367.373 218.798 367.271 219.278 366.835C219.932 366.239 220.31 365.788 220.645 364.96C221.168 363.68 220.877 362.692 223.886 360.526C224.686 359.945 225.02 359.756 228.596 360.468C229.424 360.628 229.657 360.773 230.238 361.544C231.241 362.866 231.401 363.346 231.241 365.119C231.154 366.05 231.067 366.995 230.747 367.867C230.326 369.001 229.831 370.134 228.756 370.774C227.506 371.515 224.395 372.751 222.738 372.533V372.547Z" fill="#C2927A"/>
<path d="M225.5 371.108C226.227 370.28 229.134 370.847 229.163 370.978C229.221 371.225 227.652 372.213 226.896 372.417C227.724 372.925 235.545 371.079 234.876 364.276C234.411 359.654 230.079 357.793 226.707 358.346C225.108 358.607 223.422 359.828 222.855 361.355C223.189 361.064 223.189 361.689 223.407 362.169C223.814 363.084 224.41 364.742 224.817 366.777C224.948 367.474 225.021 370.382 225.5 371.108Z" fill="url(#paint23_linear_12451_3836)"/>
<path d="M226.953 370.323C225.747 370.527 224.86 371.166 224.947 371.748C225.049 372.329 226.096 372.649 227.302 372.446C228.509 372.242 229.395 371.602 229.308 371.021C229.206 370.44 228.16 370.12 226.953 370.338V370.323Z" fill="#C2927A"/>
<path d="M411.809 254.777L552.486 173.46L588.071 194.054L447.395 275.371L411.809 254.777Z" fill="url(#paint24_linear_12451_3836)"/>
<path d="M447.395 223.129L411.809 202.686L447.395 182.092L483.132 202.686L447.395 223.129Z" fill="url(#paint25_linear_12451_3836)"/>
<path d="M447.395 223.129V275.371L483.132 254.777V202.686L447.395 223.129Z" fill="url(#paint26_linear_12451_3836)"/>
<path d="M447.395 223.129L411.809 202.686V254.777L447.395 275.371V223.129Z" fill="url(#paint27_linear_12451_3836)"/>
<path opacity="0.09" d="M447.395 275.371L411.809 254.777L447.395 234.183L483.132 254.777L447.395 275.371Z" fill="url(#paint28_linear_12451_3836)"/>
<g opacity="0.4">
<path d="M483.132 221.311L447.395 256.897V268.557L483.132 232.971V221.311Z" fill="url(#paint29_linear_12451_3836)"/>
</g>
<path d="M236.606 518.565L377.283 437.399L413.02 457.994L272.192 539.159L236.606 518.565Z" fill="url(#paint30_linear_12451_3836)"/>
<path d="M272.192 487.068L236.606 466.474L272.192 446.031L307.929 466.474L272.192 487.068Z" fill="url(#paint31_linear_12451_3836)"/>
<g clip-path="url(#clip0_12451_3836)">
<path fill-rule="evenodd" clip-rule="evenodd" d="M275.366 453.798L295.084 465.181C296.405 465.944 296.405 467.181 295.084 467.944L275.367 479.327C274.045 480.09 271.902 480.09 270.581 479.327L250.864 467.944C249.542 467.181 249.542 465.944 250.864 465.181L270.581 453.798C271.902 453.035 274.045 453.035 275.366 453.798ZM266.248 473.813L268.643 472.43C268.713 472.891 268.912 473.321 269.239 473.72C269.566 474.12 269.989 474.469 270.509 474.769C270.813 474.945 271.107 475.082 271.389 475.182C271.671 475.281 271.937 475.347 272.186 475.379C272.436 475.41 272.664 475.41 272.872 475.377C273.079 475.343 273.26 475.282 273.414 475.193C273.624 475.072 273.751 474.929 273.796 474.765C273.841 474.601 273.83 474.418 273.762 474.218C273.695 474.018 273.584 473.798 273.429 473.559C273.274 473.32 273.099 473.066 272.904 472.798C272.415 472.112 272.216 471.505 272.308 470.976C272.401 470.447 272.803 469.976 273.517 469.564C274.076 469.242 274.669 469.029 275.295 468.927C275.922 468.825 276.558 468.81 277.205 468.884C277.852 468.958 278.491 469.106 279.122 469.329C279.754 469.553 280.354 469.829 280.923 470.158C281.483 470.48 281.945 470.786 282.309 471.074C282.674 471.362 282.968 471.652 283.193 471.943L280.954 473.236C280.899 473.06 280.813 472.883 280.696 472.706C280.578 472.529 280.439 472.357 280.276 472.191C280.114 472.026 279.937 471.87 279.745 471.724C279.552 471.579 279.356 471.448 279.157 471.333C278.882 471.175 278.606 471.046 278.329 470.946C278.052 470.847 277.788 470.78 277.539 470.745C277.289 470.71 277.056 470.707 276.839 470.734C276.622 470.762 276.431 470.823 276.266 470.918C276.086 471.022 275.973 471.142 275.925 471.279C275.878 471.416 275.878 471.571 275.925 471.746C275.973 471.92 276.06 472.115 276.188 472.329C276.315 472.544 276.471 472.78 276.656 473.036C276.906 473.388 277.101 473.721 277.241 474.035C277.38 474.349 277.445 474.65 277.435 474.938C277.426 475.227 277.322 475.503 277.125 475.766C276.928 476.03 276.612 476.287 276.178 476.538C275.579 476.883 274.963 477.108 274.329 477.212C273.695 477.316 273.057 477.328 272.415 477.248C271.774 477.169 271.14 477.012 270.513 476.777C269.887 476.542 269.286 476.259 268.712 475.927C268.123 475.587 267.612 475.235 267.18 474.87C266.748 474.505 266.437 474.153 266.248 473.813ZM273.592 468.471L270.519 466.697L261.765 471.751L259.33 470.345L268.084 465.292L265.025 463.526L266.992 462.391L275.558 467.336L273.592 468.471Z" fill="url(#paint32_linear_12451_3836)"/>
</g>
<path d="M272.192 487.068V539.159L307.929 518.565V466.474L272.192 487.068Z" fill="url(#paint33_linear_12451_3836)"/>
<path d="M272.192 487.068L236.606 466.474V518.565L272.192 539.159V487.068Z" fill="url(#paint34_linear_12451_3836)"/>
<path opacity="0.09" d="M272.192 539.159L236.606 518.565L272.192 498.122L307.929 518.565L272.192 539.159Z" fill="url(#paint35_linear_12451_3836)"/>
<g opacity="0.4">
<path d="M307.929 485.099L272.192 520.836V532.496L307.929 496.759V485.099Z" fill="url(#paint36_linear_12451_3836)"/>
</g>
<path d="M65.7574 312.925L13.969 343.06H0.0375977V352.599C0.0375977 353.508 0.491864 354.265 1.249 354.871L66.2117 392.425C67.5745 393.182 69.2402 393.636 70.7545 393.485V311.865C69.0888 311.562 67.4231 312.017 65.7574 312.925Z" fill="url(#paint37_linear_12451_3836)"/>
<path d="M126.632 343.06L74.3892 312.925C73.3292 312.32 72.1177 311.865 70.7549 311.865V393.485C72.1177 393.485 73.4806 393.031 74.8435 392.274L139.352 354.719C140.26 354.265 140.563 353.357 140.563 352.448V342.908H126.632V343.06Z" fill="url(#paint38_linear_12451_3836)"/>
<path d="M139.352 340.788L74.3891 303.234C71.6634 301.72 68.4834 301.72 65.7577 303.234L1.24928 340.788C-0.416427 341.848 -0.416427 344.271 1.24928 345.179L66.212 382.734C68.9377 384.248 72.1177 384.248 74.8434 382.734L139.352 345.179C141.018 344.271 141.018 341.697 139.352 340.788Z" fill="url(#paint39_linear_12451_3836)"/>
<path d="M113.155 341.545C111.035 340.334 107.703 340.334 105.583 341.545C103.766 342.605 103.615 344.119 104.826 345.331L89.9862 353.962L78.7805 347.451L62.5776 356.839L46.6777 347.602L58.1862 340.939C60.3062 341.697 63.0319 341.545 64.6976 340.485C66.8176 339.274 66.8176 337.305 64.6976 336.094C62.5776 334.882 59.0948 334.882 57.1262 336.094C55.3091 337.154 55.1577 338.668 56.3691 339.879L43.0434 347.602L60.7605 357.899L41.9834 368.802L43.8006 369.862L78.7805 349.571L89.9862 356.082L106.643 346.391C108.763 347.148 111.489 346.997 113.155 345.937C115.275 344.725 115.275 342.757 113.155 341.545Z" fill="url(#paint40_linear_12451_3836)"/>
<path d="M98.618 317.468L96.8008 316.408L75.6009 328.674L63.7895 321.86L36.8353 337.608C34.7153 336.851 31.9896 337.002 30.3239 338.062C28.2039 339.274 28.2039 341.242 30.3239 342.454C32.4439 343.665 35.9267 343.665 37.8953 342.454C39.7124 341.394 39.8639 339.88 38.6524 338.668L63.7895 324.131L75.6009 330.945L98.618 317.468Z" fill="url(#paint41_linear_12451_3836)"/>
<path d="M477.075 325.797L425.135 355.931H411.204V365.471C411.204 366.38 411.658 367.137 412.415 367.742L477.378 405.297C478.741 406.054 480.406 406.508 481.921 406.357V324.737C480.255 324.434 478.589 324.888 477.075 325.797Z" fill="url(#paint42_linear_12451_3836)"/>
<path d="M537.798 355.931L485.555 325.797C484.495 325.191 483.284 324.737 481.921 324.737V406.357C483.284 406.357 484.647 405.902 486.009 405.145L550.518 367.591C551.426 367.137 551.729 366.228 551.729 365.32V355.78H537.798V355.931Z" fill="url(#paint43_linear_12451_3836)"/>
<path d="M550.518 353.66L485.555 316.105C482.829 314.591 479.649 314.591 476.924 316.105L412.415 353.66C410.75 354.72 410.75 357.142 412.415 358.051L477.378 395.605C480.104 397.12 483.284 397.12 486.009 395.605L550.518 358.051C552.335 357.142 552.335 354.568 550.518 353.66Z" fill="url(#paint44_linear_12451_3836)"/>
<path d="M468.595 155.44C467.535 154.834 466.778 153.32 466.778 152.109V149.534C466.778 148.323 467.686 147.869 468.595 148.474L474.501 151.806C475.561 152.412 476.318 153.926 476.318 155.137V157.712C476.318 158.923 475.409 159.377 474.349 158.772L468.595 155.44ZM486.312 165.737C485.252 165.132 484.495 163.617 484.495 162.406V159.832C484.495 158.62 485.403 158.166 486.312 158.772L492.218 162.103C493.278 162.709 494.035 164.223 494.035 165.434V168.009C494.035 169.22 493.126 169.674 492.066 169.069L486.312 165.737ZM504.18 176.034C503.12 175.429 502.363 173.914 502.363 172.703V170.129C502.363 168.917 503.272 168.463 504.18 169.069L510.086 172.4C511.146 173.006 511.903 174.52 511.903 175.732V178.306C511.903 179.517 510.995 179.971 509.935 179.366L504.18 176.034ZM522.049 186.331C520.989 185.726 520.232 184.211 520.232 183V180.426C520.232 179.214 521.14 178.76 522.049 179.366L527.955 182.697C529.015 183.303 529.772 184.817 529.772 186.029V188.603C529.772 189.814 528.863 190.269 527.803 189.663L522.049 186.331ZM539.917 196.629C538.857 196.023 538.1 194.509 538.1 193.297V190.723C538.1 189.511 539.009 189.057 539.917 189.663L545.823 192.994C546.883 193.6 547.64 195.114 547.64 196.326V198.9C547.64 200.111 546.732 200.566 545.823 199.96L539.917 196.629ZM557.786 206.926C556.726 206.32 555.969 204.806 555.969 203.594V201.02C555.969 199.809 556.877 199.354 557.937 199.96L563.843 203.291C564.903 203.897 565.66 205.411 565.66 206.623V209.197C565.66 210.409 564.752 210.863 563.843 210.257L557.786 206.926ZM468.746 80.3318C467.686 79.7261 466.929 78.2118 466.929 77.0003V74.4261C466.929 73.2146 467.838 72.7603 468.746 73.3661L474.652 76.6975C475.712 77.3032 476.469 78.8175 476.469 80.0289V82.6032C476.469 83.8146 475.561 84.2689 474.501 83.6632L468.746 80.3318ZM486.615 90.6289C485.555 90.0232 484.798 88.5089 484.798 87.2975V84.7232C484.798 83.5118 485.706 83.0575 486.615 83.6632L492.52 86.9946C493.58 87.6003 494.338 89.1146 494.338 90.326V92.9003C494.338 94.1117 493.429 94.566 492.369 93.9603L486.615 90.6289ZM504.483 100.926C503.423 100.32 502.666 98.806 502.666 97.5946V95.0203C502.666 93.8089 503.575 93.3546 504.483 93.9603L510.389 97.2917C511.449 97.8974 512.206 99.4117 512.206 100.623V103.197C512.206 104.409 511.298 104.863 510.238 104.257L504.483 100.926ZM522.2 111.223C521.14 110.617 520.383 109.103 520.383 107.892V105.317C520.383 104.106 521.292 103.652 522.2 104.257L528.106 107.589C529.166 108.195 529.923 109.709 529.923 110.92V113.495C529.923 114.706 529.015 115.16 527.955 114.555L522.2 111.223ZM540.069 121.52C539.009 120.915 538.252 119.4 538.252 118.189V115.615C538.252 114.403 539.16 113.949 540.069 114.555L545.975 117.886C547.035 118.492 547.792 120.006 547.792 121.217V123.792C547.792 125.003 546.883 125.457 545.975 124.852L540.069 121.52ZM557.937 131.817C556.877 131.212 556.12 129.697 556.12 128.486V125.912C556.12 124.7 557.029 124.246 558.089 124.852L563.995 128.183C565.055 128.789 565.812 130.303 565.812 131.514V134.089C565.812 135.3 564.903 135.754 563.995 135.149L557.937 131.817ZM568.992 119.097L463.598 58.2232C459.055 55.649 455.421 57.769 455.421 62.9175L455.118 150.292C455.118 155.44 458.752 161.8 463.295 164.526L568.689 225.4C573.232 227.974 576.866 225.854 576.866 220.706L577.169 133.332C577.169 128.183 573.535 121.823 568.992 119.097Z" fill="url(#paint45_linear_12451_3836)"/>
<path d="M465.869 156.954C464.809 156.349 464.052 154.834 464.052 153.623V151.049C464.052 149.837 464.961 149.383 465.869 149.989L471.775 153.32C472.835 153.926 473.592 155.44 473.592 156.652V159.226C473.592 160.437 472.683 160.892 471.623 160.286L465.869 156.954ZM483.738 167.252C482.678 166.646 481.921 165.132 481.921 163.92V161.346C481.921 160.134 482.829 159.68 483.738 160.286L489.643 163.617C490.703 164.223 491.46 165.737 491.46 166.949V169.523C491.46 170.734 490.552 171.189 489.492 170.583L483.738 167.252ZM501.606 177.549C500.546 176.943 499.789 175.429 499.789 174.217V171.643C499.789 170.432 500.698 169.977 501.606 170.583L507.512 173.914C508.572 174.52 509.329 176.034 509.329 177.246V179.82C509.329 181.032 508.42 181.486 507.36 180.88L501.606 177.549ZM519.475 187.846C518.415 187.24 517.658 185.726 517.658 184.514V181.94C517.658 180.729 518.566 180.274 519.475 180.88L525.38 184.211C526.44 184.817 527.198 186.331 527.198 187.543V190.117C527.198 191.329 526.289 191.783 525.229 191.177L519.475 187.846ZM537.343 198.143C536.283 197.537 535.526 196.023 535.526 194.811V192.237C535.526 191.026 536.435 190.571 537.343 191.177L543.249 194.509C544.309 195.114 545.066 196.629 545.066 197.84V200.414C545.066 201.626 544.158 202.08 543.249 201.474L537.343 198.143ZM555.06 208.44C554 207.834 553.243 206.32 553.243 205.109V202.534C553.243 201.323 554.152 200.869 555.212 201.474L561.117 204.806C562.177 205.411 562.935 206.926 562.935 208.137V210.711C562.935 211.923 562.026 212.377 561.117 211.771L555.06 208.44ZM466.172 81.6946C465.112 81.0889 464.355 79.5746 464.355 78.3632V75.7889C464.355 74.5775 465.263 74.1232 466.172 74.7289L472.078 78.0603C473.138 78.6661 473.895 80.1803 473.895 81.3918V83.966C473.895 85.1775 472.986 85.6317 471.926 85.026L466.172 81.6946ZM484.041 91.9917C482.981 91.386 482.223 89.8717 482.223 88.6603V86.086C482.223 84.8746 483.132 84.4203 484.041 85.026L489.946 88.3574C491.006 88.9632 491.763 90.4775 491.763 91.6889V94.2632C491.763 95.4746 490.855 95.9289 489.795 95.3232L484.041 91.9917ZM501.758 102.289C500.698 101.683 499.941 100.169 499.941 98.9574V96.3831C499.941 95.1717 500.849 94.7174 501.758 95.3232L507.663 98.6546C508.723 99.2603 509.48 100.775 509.48 101.986V104.56C509.48 105.772 508.572 106.226 507.512 105.62L501.758 102.289ZM519.626 112.586C518.566 111.98 517.809 110.466 517.809 109.255V106.68C517.809 105.469 518.718 105.015 519.626 105.62L525.532 108.952C526.592 109.557 527.349 111.072 527.349 112.283V114.857C527.349 116.069 526.44 116.523 525.38 115.917L519.626 112.586ZM537.495 122.883C536.435 122.277 535.678 120.763 535.678 119.552V116.977C535.678 115.766 536.586 115.312 537.495 115.917L543.4 119.249C544.46 119.855 545.217 121.369 545.217 122.58V125.154C545.217 126.366 544.309 126.82 543.4 126.214L537.495 122.883ZM555.363 133.18C554.303 132.574 553.546 131.06 553.546 129.849V127.275C553.546 126.063 554.455 125.609 555.515 126.214L561.42 129.546C562.48 130.152 563.237 131.666 563.237 132.877V135.452C563.237 136.663 562.329 137.117 561.42 136.512L555.363 133.18ZM566.417 120.612L461.023 59.7375C456.481 57.1632 452.846 59.2832 452.846 64.4318L452.543 151.806C452.543 156.954 456.178 163.314 460.721 166.04L566.115 226.914C570.657 229.489 574.292 227.368 574.292 222.22L574.595 134.846C574.595 129.546 570.96 123.186 566.417 120.612Z" fill="url(#paint46_linear_12451_3836)"/>
<path d="M503.272 154.834C502.212 154.229 501.303 152.866 501.303 151.503L501.455 124.397C501.455 123.035 502.363 122.732 503.423 123.337C503.726 123.489 504.029 123.792 504.332 124.246L524.775 149.534C525.986 151.049 525.986 153.32 524.775 153.32L504.332 155.137C504.029 155.137 503.726 155.137 503.272 154.834Z" fill="url(#paint47_linear_12451_3836)"/>
<path d="M114.738 183.887L209.164 238.431C211.901 239.995 213.66 242.928 213.66 246.251V342.828C213.66 343.414 213.074 344.001 212.683 344.001C212.292 344.001 209.359 345.565 209.164 345.174L202.126 325.429L113.174 274.012C110.437 272.448 108.677 269.516 108.677 266.192V187.406C108.677 184.278 112.001 182.323 114.738 183.887Z" fill="url(#paint48_linear_12451_3836)"/>
<path d="M111.219 185.256L205.645 239.8C208.382 241.364 210.142 244.296 210.142 247.62V344.196C210.142 345.369 208.578 345.76 207.991 344.783L198.607 326.797L109.655 275.185C106.918 273.621 105.159 270.689 105.159 267.365V188.579C105.159 185.647 108.678 183.692 111.219 185.256Z" fill="url(#paint49_linear_12451_3836)"/>
<path opacity="0.5" d="M191.178 262.869L146.018 236.672" stroke="#0660D7" stroke-width="2.73699" stroke-miterlimit="10" stroke-linecap="round" stroke-linejoin="round"/>
<path opacity="0.5" d="M191.178 277.922L146.018 251.921" stroke="#0660D7" stroke-width="2.73699" stroke-miterlimit="10" stroke-linecap="round" stroke-linejoin="round"/>
<path opacity="0.5" d="M173.583 283.005L146.018 266.974" stroke="#0660D7" stroke-width="2.73699" stroke-miterlimit="10" stroke-linecap="round" stroke-linejoin="round"/>
<path d="M312.018 397.422C317.036 397.422 321.104 393.355 321.104 388.337C321.104 383.319 317.036 379.251 312.018 379.251C307 379.251 302.933 383.319 302.933 388.337C302.933 393.355 307 397.422 312.018 397.422Z" fill="url(#paint50_linear_12451_3836)"/>
<path d="M184.515 74.4261C192.042 74.4261 198.144 68.3243 198.144 60.7975C198.144 53.2707 192.042 47.169 184.515 47.169C176.988 47.169 170.887 53.2707 170.887 60.7975C170.887 68.3243 176.988 74.4261 184.515 74.4261Z" fill="url(#paint51_linear_12451_3836)"/>
<path d="M202.081 37.9319C206.263 37.9319 209.653 34.5421 209.653 30.3605C209.653 26.1789 206.263 22.7891 202.081 22.7891C197.9 22.7891 194.51 26.1789 194.51 30.3605C194.51 34.5421 197.9 37.9319 202.081 37.9319Z" fill="url(#paint52_linear_12451_3836)"/>
<path d="M220.877 180.25C218.933 179.14 217.545 176.363 217.545 174.142V169.423C217.545 167.202 219.211 166.369 220.877 167.479L231.705 173.587C233.648 174.698 235.036 177.474 235.036 179.695V184.415C235.036 186.636 233.37 187.469 231.427 186.358L220.877 180.25ZM253.638 199.129C251.694 198.019 250.306 195.243 250.306 193.022V188.302C250.306 186.081 251.972 185.248 253.638 186.358L264.465 192.466C266.409 193.577 267.797 196.353 267.797 198.574V203.294C267.797 205.515 266.131 206.348 264.188 205.237L253.638 199.129ZM286.121 218.009C284.177 216.898 282.789 214.122 282.789 211.901V207.181C282.789 204.96 284.455 204.127 286.121 205.237L296.949 211.345C298.892 212.456 300.28 215.232 300.28 217.453V222.173C300.28 224.394 298.614 225.227 296.671 224.117L286.121 218.009ZM318.882 236.888C316.938 235.777 315.55 233.001 315.55 230.78V226.06C315.55 223.839 317.216 223.006 318.882 224.117L329.71 230.225C331.653 231.335 333.041 234.111 333.041 236.333V241.052C333.041 243.273 331.375 244.106 329.432 242.996L318.882 236.888ZM351.643 255.767C349.699 254.656 348.311 251.88 348.311 249.659V244.939C348.311 242.718 349.977 241.885 351.643 242.996L362.47 249.104C364.414 250.214 365.802 252.991 365.802 255.212V259.931C365.802 262.152 364.136 262.985 362.47 261.875L351.643 255.767ZM384.403 274.646C382.46 273.535 381.072 270.759 381.072 268.538V263.818C381.072 261.597 382.738 260.764 384.681 261.875L395.509 267.983C397.452 269.093 398.84 271.87 398.84 274.091V278.811C398.84 281.032 397.175 281.865 395.509 280.754L384.403 274.646ZM221.155 42.2662C219.211 41.1556 217.823 38.3793 217.823 36.1583V31.4385C217.823 29.2174 219.489 28.3845 221.155 29.495L231.982 35.603C233.926 36.7135 235.314 39.4899 235.314 41.711V46.4307C235.314 48.6518 233.648 49.4847 231.705 48.3742L221.155 42.2662ZM253.915 61.1453C251.972 60.0348 250.584 57.2584 250.584 55.0374V50.3176C250.584 48.0966 252.25 47.2636 253.915 48.3742L264.743 54.4821C266.687 55.5927 268.075 58.369 268.075 60.59V65.3099C268.075 67.5309 266.409 68.3638 264.465 67.2532L253.915 61.1453ZM286.676 80.0244C284.733 78.9139 283.345 76.1376 283.345 73.9165V69.1967C283.345 66.9756 285.01 66.1427 286.676 67.2532L297.504 73.3612C299.447 74.4718 300.836 77.2481 300.836 79.4692V84.1889C300.836 86.41 299.17 87.243 297.226 86.1324L286.676 80.0244ZM319.437 98.9036C317.494 97.7931 316.105 95.0167 316.105 92.7956V88.0758C316.105 85.8547 317.771 85.0219 319.437 86.1324L330.265 92.2403C332.208 93.3509 333.596 96.1272 333.596 98.3483V103.068C333.596 105.289 331.931 106.122 329.987 105.012L319.437 98.9036ZM351.92 117.783C349.977 116.672 348.589 113.896 348.589 111.675V106.955C348.589 104.734 350.254 103.901 351.92 105.012L362.748 111.119C364.691 112.23 366.08 115.006 366.08 117.227V121.947C366.08 124.168 364.414 125.001 362.748 123.891L351.92 117.783ZM384.681 136.662C382.738 135.551 381.349 132.775 381.349 130.554V125.834C381.349 123.613 383.015 122.78 384.959 123.891L395.786 129.999C397.73 131.109 399.118 133.885 399.118 136.107V140.826C399.118 143.047 397.452 143.88 395.786 142.77L384.681 136.662ZM404.948 113.618L211.715 2.00926C203.386 -2.71052 196.723 1.17633 196.723 10.6159L196.167 170.811C196.167 180.25 202.831 191.911 211.16 196.908L404.393 308.517C412.722 313.237 419.385 309.35 419.385 299.911L419.941 139.716C420.218 129.999 413.277 118.338 404.948 113.618Z" fill="url(#paint53_linear_12451_3836)"/>
<path d="M216.157 182.749C214.213 181.639 212.825 178.862 212.825 176.641V171.921C212.825 169.7 214.491 168.867 216.157 169.978L226.984 176.086C228.928 177.196 230.316 179.973 230.316 182.194V186.914C230.316 189.135 228.65 189.968 226.707 188.857L216.157 182.749ZM248.918 201.628C246.974 200.518 245.586 197.741 245.586 195.52V190.8C245.586 188.579 247.252 187.747 248.918 188.857L259.745 194.965C261.689 196.076 263.077 198.852 263.077 201.073V205.793C263.077 208.014 261.411 208.847 259.468 207.736L248.918 201.628ZM281.401 220.507C279.457 219.397 278.069 216.62 278.069 214.399V209.68C278.069 207.459 279.735 206.626 281.401 207.736L292.229 213.844C294.172 214.955 295.56 217.731 295.56 219.952V224.672C295.56 226.893 293.894 227.726 291.951 226.615L281.401 220.507ZM314.162 239.386C312.218 238.276 310.83 235.5 310.83 233.279V228.559C310.83 226.338 312.496 225.505 314.162 226.615L324.989 232.723C326.933 233.834 328.321 236.61 328.321 238.831V243.551C328.321 245.772 326.655 246.605 324.712 245.494L314.162 239.386ZM346.922 258.266C344.979 257.155 343.591 254.379 343.591 252.158V247.438C343.591 245.217 345.257 244.384 346.922 245.494L357.75 251.602C359.694 252.713 361.082 255.489 361.082 257.71V262.43C361.082 264.651 359.416 265.484 357.75 264.374L346.922 258.266ZM379.683 277.145C377.74 276.034 376.352 273.258 376.352 271.037V266.317C376.352 264.096 378.017 263.263 379.961 264.374L390.789 270.481C392.732 271.592 394.12 274.368 394.12 276.589V281.309C394.12 283.53 392.454 284.363 390.789 283.253L379.683 277.145ZM216.434 45.0425C214.491 43.932 213.103 41.1557 213.103 38.9346V34.2148C213.103 31.9937 214.769 31.1608 216.434 32.2714L227.262 38.3793C229.205 39.4898 230.594 42.2662 230.594 44.4873V49.207C230.594 51.4281 228.928 52.261 226.984 51.1505L216.434 45.0425ZM249.195 63.9217C247.252 62.8111 245.864 60.0348 245.864 57.8137V53.094C245.864 50.8729 247.529 50.04 249.195 51.1505L260.023 57.2585C261.966 58.369 263.354 61.1453 263.354 63.3664V68.0862C263.354 70.3073 261.689 71.1401 259.745 70.0296L249.195 63.9217ZM281.956 82.8008C280.013 81.6902 278.624 78.9139 278.624 76.6929V71.9731C278.624 69.752 280.29 68.919 281.956 70.0296L292.784 76.1376C294.727 77.2481 296.115 80.0245 296.115 82.2456V86.9653C296.115 89.1864 294.45 90.0193 292.506 88.9088L281.956 82.8008ZM314.717 101.68C312.773 100.569 311.385 97.793 311.385 95.572V90.8521C311.385 88.6311 313.051 87.7982 314.717 88.9088L325.545 95.0167C327.488 96.1272 328.876 98.9036 328.876 101.125V105.844C328.876 108.066 327.21 108.898 325.267 107.788L314.717 101.68ZM347.2 120.559C345.257 119.449 343.868 116.672 343.868 114.451V109.731C343.868 107.51 345.534 106.677 347.2 107.788L358.028 113.896C359.971 115.006 361.359 117.783 361.359 120.004V124.724C361.359 126.945 359.694 127.778 358.028 126.667L347.2 120.559ZM379.961 139.438C378.017 138.328 376.629 135.551 376.629 133.33V128.61C376.629 126.389 378.295 125.556 380.238 126.667L391.066 132.775C393.01 133.885 394.398 136.662 394.398 138.883V143.603C394.398 145.824 392.732 146.657 391.066 145.546L379.961 139.438ZM400.228 116.395L206.995 4.7856C198.666 0.0658162 192.003 3.95267 192.003 13.3922L191.447 173.587C191.447 183.027 198.111 194.687 206.44 199.685L399.673 311.294C408.002 316.014 414.665 312.127 414.665 302.687L415.22 142.492C415.22 132.775 408.557 121.114 400.228 116.395Z" fill="url(#paint54_linear_12451_3836)"/>
<path d="M325.835 168.634L287.885 121.369C287.368 120.679 286.678 120.162 286.16 119.817C285.125 119.299 284.263 119.127 283.573 119.644L278.916 122.232L282.538 130.512L282.365 172.429C282.365 174.844 284.09 177.604 285.988 178.639C286.505 178.984 287.195 179.156 287.713 179.156L319.453 176.396L321.868 178.294L326.698 175.706C328.25 174.671 328.078 171.221 325.835 168.634Z" fill="url(#paint55_linear_12451_3836)"/>
<path d="M281.158 181.226C279.261 180.192 277.536 177.432 277.536 175.017L277.708 124.475C277.708 122.06 279.433 121.37 281.331 122.405C281.848 122.75 282.538 123.267 283.056 123.957L321.005 171.222C323.42 174.154 323.42 178.122 321.005 178.294L282.883 181.571C282.366 181.744 281.676 181.571 281.158 181.226Z" fill="url(#paint56_linear_12451_3836)"/>
<path d="M476.465 285.227C498.123 285.038 512.857 293.318 518.742 296.318C525.759 299.898 527.485 302.45 526.992 304.527C526.09 308.32 508.612 307.228 508.572 308.577C508.533 309.925 524.499 312.537 523.97 318.189C523.442 323.842 505.731 324.47 505.727 326.614C505.727 329.078 518.733 332.004 518.454 335.894C518.261 338.57 506.281 344.868 479.124 346.922C443.977 349.58 451.859 320.605 453.48 307.988C454.64 298.944 450.962 285.451 476.465 285.227Z" fill="#3DC5EE"/>
<path d="M474.754 285.227C490.586 284.74 503.966 289.863 511.848 293.758C522.63 299.082 524.89 301.682 524.72 303.83C524.408 307.795 504.517 305.168 504.264 307.537C504.011 309.905 521.075 312.173 520.541 317.878C520.007 323.584 502.372 324.213 501.85 326.311C501.162 329.078 514.461 332.495 514.271 335.532C514.081 338.569 501.228 344.536 479.671 346.704C443.597 350.336 449.76 320.989 451.395 308.254C452.563 299.126 449.021 286.022 474.754 285.227Z" fill="url(#paint57_linear_12451_3836)"/>
<path d="M482.491 320.415C483.471 328.691 496.746 328.261 496.862 334.888C497.002 342.891 484.653 345.696 476.067 346.712C459.201 348.706 443.909 336.662 441.916 319.813C439.923 302.965 451.974 287.682 468.84 285.687C480.832 284.269 498.47 288.001 498.47 298.09C498.467 302.612 481.913 315.543 482.491 320.415Z" fill="url(#paint58_linear_12451_3836)"/>
<mask id="mask0_12451_3836" style="mask-type:luminance" maskUnits="userSpaceOnUse" x="441" y="285" width="58" height="62">
<path d="M482.491 320.415C483.471 328.691 496.746 328.261 496.862 334.888C497.002 342.891 484.653 345.696 476.067 346.712C459.201 348.706 443.909 336.662 441.916 319.813C439.923 302.965 451.974 287.682 468.84 285.687C480.832 284.269 498.47 288.001 498.47 298.09C498.467 302.612 481.913 315.543 482.491 320.415Z" fill="white"/>
</mask>
<g mask="url(#mask0_12451_3836)">
<path d="M460.026 326.317C471.486 326.317 480.776 319.577 480.776 311.263C480.776 302.948 471.486 296.208 460.026 296.208C448.566 296.208 439.275 302.948 439.275 311.263C439.275 319.577 448.566 326.317 460.026 326.317Z" fill="#3A2416"/>
</g>
<path d="M469.446 309.145C469.507 305.38 467.716 302.298 465.445 302.261C463.174 302.223 461.283 305.245 461.221 309.01C461.159 312.776 462.95 315.858 465.222 315.895C467.493 315.932 469.384 312.91 469.446 309.145Z" fill="url(#paint59_linear_12451_3836)"/>
<mask id="mask1_12451_3836" style="mask-type:luminance" maskUnits="userSpaceOnUse" x="461" y="302" width="9" height="14">
<path d="M469.446 309.146C469.507 305.38 467.716 302.298 465.445 302.261C463.174 302.224 461.283 305.246 461.221 309.011C461.159 312.776 462.95 315.858 465.222 315.895C467.493 315.933 469.384 312.911 469.446 309.146Z" fill="white"/>
</mask>
<g mask="url(#mask1_12451_3836)">
<path d="M471.937 309.145C471.999 305.38 470.208 302.298 467.937 302.26C465.666 302.223 463.775 305.245 463.713 309.01C463.651 312.775 465.442 315.858 467.713 315.895C469.984 315.932 471.876 312.91 471.937 309.145Z" fill="#F7EA2F"/>
</g>
<path d="M449.866 308.853C449.962 305.452 448.787 302.66 447.241 302.616C445.696 302.573 444.366 305.295 444.27 308.696C444.175 312.097 445.35 314.89 446.895 314.933C448.44 314.977 449.771 312.255 449.866 308.853Z" fill="url(#paint60_linear_12451_3836)"/>
<mask id="mask2_12451_3836" style="mask-type:luminance" maskUnits="userSpaceOnUse" x="444" y="302" width="6" height="13">
<path d="M449.866 308.854C449.962 305.452 448.787 302.66 447.241 302.617C445.696 302.573 444.366 305.295 444.27 308.696C444.175 312.098 445.35 314.89 446.895 314.934C448.44 314.977 449.771 312.255 449.866 308.854Z" fill="white"/>
</mask>
<g mask="url(#mask2_12451_3836)">
<path d="M452.269 308.538C452.364 305.137 451.189 302.345 449.644 302.301C448.098 302.258 446.768 304.98 446.673 308.381C446.577 311.782 447.752 314.575 449.297 314.618C450.843 314.662 452.173 311.939 452.269 308.538Z" fill="#F7EA2F"/>
</g>
<path d="M479.211 358.638C491.55 358.638 501.553 357.262 501.553 355.565C501.553 353.868 491.55 352.493 479.211 352.493C466.873 352.493 456.87 353.868 456.87 355.565C456.87 357.262 466.873 358.638 479.211 358.638Z" fill="#4A3F5A"/>
<path opacity="0.5" d="M479.208 289.584C479.355 290.826 474.905 291.702 468.976 292.404C463.048 293.105 457.409 294.056 457.262 292.817C457.115 291.577 462.515 288.609 468.444 287.909C474.373 287.208 479.061 288.343 479.208 289.584Z" fill="url(#paint61_linear_12451_3836)"/>
<path d="M526.572 328.51C526.559 330.162 524.669 331.49 522.349 331.471C520.029 331.451 514.566 330.067 514.579 328.413C514.592 326.758 520.08 325.462 522.398 325.48C524.716 325.499 526.585 326.856 526.572 328.51Z" fill="#3DC5EE"/>
<path d="M529.094 309.748C529.123 310.574 528.206 311.278 527.049 311.318C525.891 311.358 523.131 310.783 523.101 309.956C523.072 309.128 525.786 308.365 526.944 308.324C528.103 308.284 529.065 308.922 529.094 309.748Z" fill="#3DC5EE"/>
<defs>
<linearGradient id="paint0_linear_12451_3836" x1="140.49" y1="334.755" x2="297.341" y2="158.582" gradientUnits="userSpaceOnUse">
<stop offset="0.0251397" stop-color="#4591D7"/>
<stop offset="0.7861" stop-color="#D6E6F6" stop-opacity="0.2194"/>
<stop offset="1" stop-color="white" stop-opacity="0"/>
</linearGradient>
<linearGradient id="paint1_linear_12451_3836" x1="300.115" y1="247.932" x2="144.401" y2="111.54" gradientUnits="userSpaceOnUse">
<stop offset="0.0251397" stop-color="#0043C6"/>
<stop offset="0.582" stop-color="#90ADE6"/>
<stop offset="1" stop-color="white"/>
</linearGradient>
<linearGradient id="paint2_linear_12451_3836" x1="1.42473" y1="-5.97058" x2="229.88" y2="263.403" gradientUnits="userSpaceOnUse">
<stop offset="0.0251397" stop-color="#0068D1"/>
<stop offset="0.6969" stop-color="#9082D5"/>
<stop offset="1" stop-color="#D38ED7"/>
</linearGradient>
<linearGradient id="paint3_linear_12451_3836" x1="151.882" y1="215.44" x2="186.737" y2="-20.9724" gradientUnits="userSpaceOnUse">
<stop offset="0.0251397" stop-color="#DCE4EB"/>
<stop offset="0.6697" stop-color="#4C95EC"/>
<stop offset="1" stop-color="#006CED"/>
</linearGradient>
<linearGradient id="paint4_linear_12451_3836" x1="134.312" y1="273.001" x2="205.588" y2="273.001" gradientUnits="userSpaceOnUse">
<stop offset="0.0251397" stop-color="#0043C6"/>
<stop offset="0.582" stop-color="#90ADE6"/>
<stop offset="1" stop-color="white"/>
</linearGradient>
<linearGradient id="paint5_linear_12451_3836" x1="171.642" y1="142.603" x2="193.797" y2="218.725" gradientUnits="userSpaceOnUse">
<stop offset="0.0251397" stop-color="white"/>
<stop offset="1" stop-color="#83B8F6" stop-opacity="0"/>
</linearGradient>
<linearGradient id="paint6_linear_12451_3836" x1="159.163" y1="132.579" x2="198.508" y2="267.765" gradientUnits="userSpaceOnUse">
<stop offset="0.0251397" stop-color="white"/>
<stop offset="1" stop-color="#83B8F6" stop-opacity="0"/>
</linearGradient>
<linearGradient id="paint7_linear_12451_3836" x1="110.932" y1="356.483" x2="214.958" y2="450.2" gradientUnits="userSpaceOnUse">
<stop offset="0.0251397" stop-color="#DCE4EB"/>
<stop offset="0.6697" stop-color="#4C95EC"/>
<stop offset="1" stop-color="#006CED"/>
</linearGradient>
<linearGradient id="paint8_linear_12451_3836" x1="541.502" y1="358.841" x2="641.018" y2="448.496" gradientUnits="userSpaceOnUse">
<stop stop-color="#006CED"/>
<stop offset="0.3303" stop-color="#4C95EC"/>
<stop offset="0.9749" stop-color="#DCE4EB"/>
</linearGradient>
<linearGradient id="paint9_linear_12451_3836" x1="339.086" y1="375.266" x2="407.375" y2="436.788" gradientUnits="userSpaceOnUse">
<stop offset="0.0251397" stop-color="#DCE4EB"/>
<stop offset="0.6697" stop-color="#4C95EC"/>
<stop offset="1" stop-color="#006CED"/>
</linearGradient>
<linearGradient id="paint10_linear_12451_3836" x1="36.5297" y1="417.942" x2="99.4064" y2="474.588" gradientUnits="userSpaceOnUse">
<stop offset="0.0251397" stop-color="#DCE4EB"/>
<stop offset="0.6697" stop-color="#4C95EC"/>
<stop offset="1" stop-color="#006CED"/>
</linearGradient>
<linearGradient id="paint11_linear_12451_3836" x1="135.151" y1="396.703" x2="110.993" y2="418.467" gradientUnits="userSpaceOnUse">
<stop stop-color="#006CED"/>
<stop offset="0.3303" stop-color="#4C95EC"/>
<stop offset="0.9749" stop-color="#DCE4EB"/>
</linearGradient>
<linearGradient id="paint12_linear_12451_3836" x1="374.011" y1="421.886" x2="387.713" y2="434.229" gradientUnits="userSpaceOnUse">
<stop offset="0.0251397" stop-color="#DCE4EB"/>
<stop offset="0.6697" stop-color="#4C95EC"/>
<stop offset="1" stop-color="#006CED"/>
</linearGradient>
<linearGradient id="paint13_linear_12451_3836" x1="194.588" y1="553.214" x2="351.438" y2="377.041" gradientUnits="userSpaceOnUse">
<stop offset="0.0251397" stop-color="#4591D7"/>
<stop offset="0.7358" stop-color="#D6E6F6" stop-opacity="0.2194"/>
<stop offset="0.9356" stop-color="white" stop-opacity="0"/>
</linearGradient>
<linearGradient id="paint14_linear_12451_3836" x1="354.212" y1="517.354" x2="198.498" y2="380.963" gradientUnits="userSpaceOnUse">
<stop offset="0.0251397" stop-color="#0043C6"/>
<stop offset="0.582" stop-color="#90ADE6"/>
<stop offset="1" stop-color="white"/>
</linearGradient>
<linearGradient id="paint15_linear_12451_3836" x1="209.059" y1="346.147" x2="253.957" y2="498.8" gradientUnits="userSpaceOnUse">
<stop offset="0.0251397" stop-color="#0068D1"/>
<stop offset="0.6969" stop-color="#9082D5"/>
<stop offset="1" stop-color="#D38ED7"/>
</linearGradient>
<linearGradient id="paint16_linear_12451_3836" x1="199.539" y1="503.059" x2="222.89" y2="344.679" gradientUnits="userSpaceOnUse">
<stop offset="0.0251397" stop-color="#DCE4EB"/>
<stop offset="0.6697" stop-color="#4C95EC"/>
<stop offset="1" stop-color="#006CED"/>
</linearGradient>
<linearGradient id="paint17_linear_12451_3836" x1="188.409" y1="491.46" x2="259.685" y2="491.46" gradientUnits="userSpaceOnUse">
<stop offset="0.0251397" stop-color="#0043C6"/>
<stop offset="0.582" stop-color="#90ADE6"/>
<stop offset="1" stop-color="white"/>
</linearGradient>
<linearGradient id="paint18_linear_12451_3836" x1="225.76" y1="382.221" x2="247.915" y2="458.343" gradientUnits="userSpaceOnUse">
<stop offset="0.0251397" stop-color="white"/>
<stop offset="1" stop-color="#83B8F6" stop-opacity="0"/>
</linearGradient>
<linearGradient id="paint19_linear_12451_3836" x1="213.281" y1="372.197" x2="252.626" y2="507.383" gradientUnits="userSpaceOnUse">
<stop offset="0.0251397" stop-color="white"/>
<stop offset="1" stop-color="#83B8F6" stop-opacity="0"/>
</linearGradient>
<linearGradient id="paint20_linear_12451_3836" x1="248.959" y1="364.265" x2="237.038" y2="356.715" gradientUnits="userSpaceOnUse">
<stop offset="0.0251397" stop-color="#B3CDFF"/>
<stop offset="1" stop-color="#3B00B9"/>
</linearGradient>
<linearGradient id="paint21_linear_12451_3836" x1="217.299" y1="423.922" x2="203.502" y2="417.362" gradientUnits="userSpaceOnUse">
<stop offset="0.0251397" stop-color="#B3CDFF"/>
<stop offset="1" stop-color="#3B00B9"/>
</linearGradient>
<linearGradient id="paint22_linear_12451_3836" x1="218.834" y1="417.12" x2="208.371" y2="403.496" gradientUnits="userSpaceOnUse">
<stop offset="0.0251397" stop-color="#B3CDFF"/>
<stop offset="1" stop-color="#3B00B9"/>
</linearGradient>
<linearGradient id="paint23_linear_12451_3836" x1="257.428" y1="360.323" x2="242.404" y2="347.105" gradientUnits="userSpaceOnUse">
<stop offset="0.0251397" stop-color="#B3CDFF"/>
<stop offset="1" stop-color="#3B00B9"/>
</linearGradient>
<linearGradient id="paint24_linear_12451_3836" x1="442.487" y1="288.979" x2="542.254" y2="176.923" gradientUnits="userSpaceOnUse">
<stop offset="0.0251397" stop-color="#4591D7"/>
<stop offset="0.7861" stop-color="#D6E6F6" stop-opacity="0.2194"/>
<stop offset="1" stop-color="white" stop-opacity="0"/>
</linearGradient>
<linearGradient id="paint25_linear_12451_3836" x1="577.631" y1="316.632" x2="421.917" y2="180.24" gradientUnits="userSpaceOnUse">
<stop offset="0.0251397" stop-color="#0043C6"/>
<stop offset="0.582" stop-color="#90ADE6"/>
<stop offset="1" stop-color="white"/>
</linearGradient>
<linearGradient id="paint26_linear_12451_3836" x1="468.083" y1="183.937" x2="463.537" y2="273.35" gradientUnits="userSpaceOnUse">
<stop offset="0.0251397" stop-color="#0068D1"/>
<stop offset="0.6969" stop-color="#9082D5"/>
<stop offset="1" stop-color="#D38ED7"/>
</linearGradient>
<linearGradient id="paint27_linear_12451_3836" x1="389.226" y1="295.26" x2="580.174" y2="29.2961" gradientUnits="userSpaceOnUse">
<stop offset="0.0251397" stop-color="#DCE4EB"/>
<stop offset="0.6697" stop-color="#4C95EC"/>
<stop offset="1" stop-color="#006CED"/>
</linearGradient>
<linearGradient id="paint28_linear_12451_3836" x1="411.828" y1="254.722" x2="483.104" y2="254.722" gradientUnits="userSpaceOnUse">
<stop offset="0.0251397" stop-color="#0043C6"/>
<stop offset="0.582" stop-color="#90ADE6"/>
<stop offset="1" stop-color="white"/>
</linearGradient>
<linearGradient id="paint29_linear_12451_3836" x1="449.179" y1="189.598" x2="471.334" y2="265.72" gradientUnits="userSpaceOnUse">
<stop offset="0.0251397" stop-color="white"/>
<stop offset="1" stop-color="#83B8F6" stop-opacity="0"/>
</linearGradient>
<linearGradient id="paint30_linear_12451_3836" x1="267.289" y1="552.894" x2="367.055" y2="440.837" gradientUnits="userSpaceOnUse">
<stop offset="0.0251397" stop-color="#4591D7"/>
<stop offset="0.7861" stop-color="#D6E6F6" stop-opacity="0.2194"/>
<stop offset="1" stop-color="white" stop-opacity="0"/>
</linearGradient>
<linearGradient id="paint31_linear_12451_3836" x1="402.433" y1="580.546" x2="246.719" y2="444.154" gradientUnits="userSpaceOnUse">
<stop offset="0.0251397" stop-color="#0043C6"/>
<stop offset="0.582" stop-color="#90ADE6"/>
<stop offset="1" stop-color="white"/>
</linearGradient>
<linearGradient id="paint32_linear_12451_3836" x1="285.225" y1="459.49" x2="272.975" y2="480.709" gradientUnits="userSpaceOnUse">
<stop stop-color="#8272FF"/>
<stop offset="1" stop-color="#4E4499"/>
</linearGradient>
<linearGradient id="paint33_linear_12451_3836" x1="292.885" y1="447.852" x2="288.339" y2="537.264" gradientUnits="userSpaceOnUse">
<stop offset="0.0251397" stop-color="#0068D1"/>
<stop offset="0.6969" stop-color="#9082D5"/>
<stop offset="1" stop-color="#D38ED7"/>
</linearGradient>
<linearGradient id="paint34_linear_12451_3836" x1="214.028" y1="559.174" x2="404.976" y2="293.21" gradientUnits="userSpaceOnUse">
<stop offset="0.0251397" stop-color="#DCE4EB"/>
<stop offset="0.6697" stop-color="#4C95EC"/>
<stop offset="1" stop-color="#006CED"/>
</linearGradient>
<linearGradient id="paint35_linear_12451_3836" x1="236.63" y1="518.636" x2="307.906" y2="518.636" gradientUnits="userSpaceOnUse">
<stop offset="0.0251397" stop-color="#0043C6"/>
<stop offset="0.582" stop-color="#90ADE6"/>
<stop offset="1" stop-color="white"/>
</linearGradient>
<linearGradient id="paint36_linear_12451_3836" x1="273.981" y1="453.513" x2="296.136" y2="529.635" gradientUnits="userSpaceOnUse">
<stop offset="0.0251397" stop-color="white"/>
<stop offset="1" stop-color="#83B8F6" stop-opacity="0"/>
</linearGradient>
<linearGradient id="paint37_linear_12451_3836" x1="39.3759" y1="290.511" x2="34.3882" y2="388.604" gradientUnits="userSpaceOnUse">
<stop offset="0.0251397" stop-color="#0068D1"/>
<stop offset="0.6969" stop-color="#9082D5"/>
<stop offset="1" stop-color="#D38ED7"/>
</linearGradient>
<linearGradient id="paint38_linear_12451_3836" x1="106.769" y1="312.122" x2="101.784" y2="410.172" gradientUnits="userSpaceOnUse">
<stop offset="0.0251397" stop-color="#0068D1"/>
<stop offset="0.6969" stop-color="#9082D5"/>
<stop offset="1" stop-color="#D38ED7"/>
</linearGradient>
<linearGradient id="paint39_linear_12451_3836" x1="46.2142" y1="311.914" x2="57.3154" y2="412.861" gradientUnits="userSpaceOnUse">
<stop offset="0.0251397" stop-color="#3B00B9"/>
<stop offset="1" stop-color="white"/>
</linearGradient>
<linearGradient id="paint40_linear_12451_3836" x1="57.5225" y1="267.364" x2="82.8326" y2="375.419" gradientUnits="userSpaceOnUse">
<stop offset="0.0251397" stop-color="#0068D1"/>
<stop offset="0.3456" stop-color="#5377D3"/>
<stop offset="0.6357" stop-color="#9883D5"/>
<stop offset="0.8438" stop-color="#C38BD7"/>
<stop offset="0.9499" stop-color="#D38ED7"/>
</linearGradient>
<linearGradient id="paint41_linear_12451_3836" x1="49.6952" y1="269.198" x2="75.0054" y2="377.253" gradientUnits="userSpaceOnUse">
<stop offset="0.0251397" stop-color="#0068D1"/>
<stop offset="0.3456" stop-color="#5377D3"/>
<stop offset="0.6357" stop-color="#9883D5"/>
<stop offset="0.8438" stop-color="#C38BD7"/>
<stop offset="0.9499" stop-color="#D38ED7"/>
</linearGradient>
<linearGradient id="paint42_linear_12451_3836" x1="450.56" y1="303.385" x2="445.572" y2="401.478" gradientUnits="userSpaceOnUse">
<stop offset="0.0251397" stop-color="#0068D1"/>
<stop offset="0.6969" stop-color="#9082D5"/>
<stop offset="1" stop-color="#D38ED7"/>
</linearGradient>
<linearGradient id="paint43_linear_12451_3836" x1="517.953" y1="324.997" x2="512.968" y2="423.047" gradientUnits="userSpaceOnUse">
<stop offset="0.0251397" stop-color="#0068D1"/>
<stop offset="0.6969" stop-color="#9082D5"/>
<stop offset="1" stop-color="#D38ED7"/>
</linearGradient>
<linearGradient id="paint44_linear_12451_3836" x1="741.472" y1="583.566" x2="430.498" y2="311.179" gradientUnits="userSpaceOnUse">
<stop offset="0.0251397" stop-color="#0043C6"/>
<stop offset="0.582" stop-color="#90ADE6"/>
<stop offset="1" stop-color="white"/>
</linearGradient>
<linearGradient id="paint45_linear_12451_3836" x1="596.603" y1="208.663" x2="410.184" y2="53.882" gradientUnits="userSpaceOnUse">
<stop offset="0.0251397" stop-color="#0068D1"/>
<stop offset="0.6969" stop-color="#9082D5"/>
<stop offset="1" stop-color="#D38ED7"/>
</linearGradient>
<linearGradient id="paint46_linear_12451_3836" x1="489.976" y1="41.6278" x2="544.569" y2="277.016" gradientUnits="userSpaceOnUse">
<stop offset="0.0251397" stop-color="white"/>
<stop offset="1" stop-color="#D38ED7"/>
</linearGradient>
<linearGradient id="paint47_linear_12451_3836" x1="503.399" y1="113.182" x2="534.103" y2="229.858" gradientUnits="userSpaceOnUse">
<stop stop-color="#D38ED7"/>
<stop offset="0.3031" stop-color="#9082D5"/>
<stop offset="0.9749" stop-color="#0068D1"/>
</linearGradient>
<linearGradient id="paint48_linear_12451_3836" x1="101.35" y1="163.562" x2="178.021" y2="282.42" gradientUnits="userSpaceOnUse">
<stop offset="0.0251397" stop-color="white"/>
<stop offset="1" stop-color="#83B8F6"/>
</linearGradient>
<linearGradient id="paint49_linear_12451_3836" x1="157.906" y1="257.663" x2="387.254" y2="508.512" gradientUnits="userSpaceOnUse">
<stop offset="0.0251397" stop-color="white"/>
<stop offset="1" stop-color="#83B8F6"/>
</linearGradient>
<linearGradient id="paint50_linear_12451_3836" x1="309.675" y1="383.91" x2="317.591" y2="398.688" gradientUnits="userSpaceOnUse">
<stop offset="0.0251397" stop-color="white"/>
<stop offset="1" stop-color="#83B8F6" stop-opacity="0"/>
</linearGradient>
<linearGradient id="paint51_linear_12451_3836" x1="180.844" y1="53.9731" x2="192.769" y2="76.2318" gradientUnits="userSpaceOnUse">
<stop offset="0.0251397" stop-color="white"/>
<stop offset="1" stop-color="#83B8F6" stop-opacity="0"/>
</linearGradient>
<linearGradient id="paint52_linear_12451_3836" x1="200.132" y1="26.6101" x2="206.768" y2="38.9972" gradientUnits="userSpaceOnUse">
<stop offset="0.0251397" stop-color="white"/>
<stop offset="1" stop-color="#83B8F6" stop-opacity="0"/>
</linearGradient>
<linearGradient id="paint53_linear_12451_3836" x1="455.646" y1="277.723" x2="113.859" y2="-6.05852" gradientUnits="userSpaceOnUse">
<stop offset="0.0251397" stop-color="#0068D1"/>
<stop offset="0.6969" stop-color="#9082D5"/>
<stop offset="1" stop-color="#D38ED7"/>
</linearGradient>
<linearGradient id="paint54_linear_12451_3836" x1="264.999" y1="40.052" x2="360.246" y2="403.044" gradientUnits="userSpaceOnUse">
<stop offset="0.0251397" stop-color="#3B00B9"/>
<stop offset="1" stop-color="white"/>
</linearGradient>
<linearGradient id="paint55_linear_12451_3836" x1="265.647" y1="91.7107" x2="301.894" y2="166.416" gradientUnits="userSpaceOnUse">
<stop offset="0.0251397" stop-color="white"/>
<stop offset="1" stop-color="#83B8F6"/>
</linearGradient>
<linearGradient id="paint56_linear_12451_3836" x1="269.114" y1="132.086" x2="375.837" y2="281.276" gradientUnits="userSpaceOnUse">
<stop offset="0.0251397" stop-color="white"/>
<stop offset="1" stop-color="#83B8F6"/>
</linearGradient>
<linearGradient id="paint57_linear_12451_3836" x1="487.345" y1="347.016" x2="487.345" y2="285.195" gradientUnits="userSpaceOnUse">
<stop offset="0.03" stop-color="#28AAE1"/>
<stop offset="1" stop-color="#2A3B8E"/>
</linearGradient>
<linearGradient id="paint58_linear_12451_3836" x1="470.082" y1="346.927" x2="470.082" y2="285.393" gradientUnits="userSpaceOnUse">
<stop stop-color="#EA2B7B"/>
<stop offset="1" stop-color="#2A3B8E"/>
</linearGradient>
<linearGradient id="paint59_linear_12451_3836" x1="465.339" y1="315.877" x2="465.339" y2="302.242" gradientUnits="userSpaceOnUse">
<stop stop-color="#EA2B7B"/>
<stop offset="1" stop-color="#8F288C"/>
</linearGradient>
<linearGradient id="paint60_linear_12451_3836" x1="447.201" y1="315.75" x2="447.401" y2="303.48" gradientUnits="userSpaceOnUse">
<stop stop-color="#EA2B7B"/>
<stop offset="1" stop-color="#8F288C"/>
</linearGradient>
<linearGradient id="paint61_linear_12451_3836" x1="468.389" y1="292.501" x2="467.854" y2="287.98" gradientUnits="userSpaceOnUse">
<stop stop-color="white" stop-opacity="0"/>
<stop offset="1" stop-color="white"/>
</linearGradient>
<clipPath id="clip0_12451_3836">
<rect width="28.293" height="28.293" fill="white" transform="matrix(0.866044 0.499967 -0.866044 0.499967 272.974 452.417)"/>
</clipPath>
</defs>
</svg>
