<svg width="120" height="120" viewBox="0 0 120 120" fill="none"
  xmlns="http://www.w3.org/2000/svg">
  <path d="M32.2197 28.1088C23.8185 16.3226 32.5183 9.7822 40.8452 6.44463C46.4916 4.18146 52.1377 4.1998 57.6477 6.87446M28.7961 17.2206C21.5784 19.5778 11.8775 27.4577 15.1931 42.8134C18.5088 58.1691 36.5886 58.7154 44.8778 57.1813M88.2282 16.5471C88.0788 12.9551 85.0469 5.47929 74.1141 4.3119C63.1813 3.1445 58.5812 5.53386 57.6477 6.87446M65.6006 12.7306C62.9925 10.1171 60.3363 8.17955 57.6477 6.87446M108.951 29.6802C108.354 22.6834 102.073 8.62227 84.8677 9.25087M90.2445 51.2322C90.7672 54.3003 89.0614 59.0977 84.3076 59.8754C78.8188 60.7733 76.1304 56.6201 76.1304 52.2424C76.1304 47.8647 79.8269 42.5889 89.1243 42.14C92.0292 41.9997 94.1426 43.3522 94.5011 47.3034M62.2404 37.4255C63.4726 34.9186 64.4583 29.6802 58.5438 28.7823C51.1507 27.6598 39.6131 32.5987 39.6131 44.4972C39.6131 56.3956 50.8147 63.6918 59.664 63.6918C61.564 63.6918 63.2266 63.5003 64.7047 63.1541M64.7047 63.1541C70.111 61.8876 73.5126 58.8872 76.5914 55.2731M64.7047 63.1541C67.5246 65.5636 69.8688 67.7741 71.8 69.7533M91.3646 30.466C98.6233 25.2576 106.711 27.4353 109.735 30.466C112.76 33.4967 115.605 35.8764 114.888 45.8442C114.171 55.8119 105.703 61.0726 101.446 62.5693C98.3096 66.9695 92.8955 68.9675 90.6924 69.3043C90.3144 71.535 90.545 73.8199 91.0083 75.8147M94.6131 106.908L101.67 99.8361V62.5693M65.8249 99.1626L55.8554 89.1724V63.4673M38.6049 90.9684V57.7426M14.0733 82.2129L24.1548 72.1105V54.5996M96.1813 110.612C96.1813 113.588 93.7741 116 90.8045 116C87.835 116 85.4278 113.588 85.4278 110.612C85.4278 107.636 87.835 105.224 90.8045 105.224C93.7741 105.224 96.1813 107.636 96.1813 110.612ZM74.8982 102.979C74.8982 105.955 72.491 108.367 69.5214 108.367C66.5519 108.367 64.1446 105.955 64.1446 102.979C64.1446 100.003 66.5519 97.5911 69.5214 97.5911C72.491 97.5911 74.8982 100.003 74.8982 102.979ZM43.7577 96.4686C43.7577 99.4443 41.3504 101.857 38.3809 101.857C35.4114 101.857 33.0041 99.4443 33.0041 96.4686C33.0041 93.4929 35.4114 91.0806 38.3809 91.0806C41.3504 91.0806 43.7577 93.4929 43.7577 96.4686ZM15.7536 86.1417C15.7536 89.1174 13.3463 91.5296 10.3768 91.5296C7.40727 91.5296 5 89.1174 5 86.1417C5 83.166 7.40727 80.7537 10.3768 80.7537C13.3463 80.7537 15.7536 83.166 15.7536 86.1417Z" stroke="url(#paint0_linear_4021_92308)" stroke-width="1.77"/>
  <defs>
    <linearGradient id="paint0_linear_4021_92308" x1="5" y1="4" x2="117.679" y2="28.8045" gradientUnits="userSpaceOnUse">
      <stop stop-color="#3B00B9"/>
      <stop offset="1" stop-color="#2586B6"/>
    </linearGradient>
  </defs>
</svg>
