<svg width="120" height="120" viewBox="0 0 120 120" fill="none"
  xmlns="http://www.w3.org/2000/svg">
  <path d="M9.88857 106.794C9.47123 107.049 9.33915 107.593 9.59355 108.011C9.84796 108.428 10.3925 108.56 10.8099 108.306L9.88857 106.794ZM32.2492 94.2L32.1651 93.319L31.9624 93.3384L31.7886 93.4443L32.2492 94.2ZM68.3992 90.75L68.4833 91.631L68.5759 91.6222L68.6646 91.5943L68.3992 90.75ZM107.999 78.3L108.265 79.1443L108.272 79.142L108.279 79.1396L107.999 78.3ZM110.999 72.45L110.151 72.7014L110.999 72.45ZM105.149 69.45L104.986 68.5802L105.149 69.45ZM8.3954 75.8188C7.93633 75.9866 7.70021 76.4948 7.868 76.9538C8.0358 77.4129 8.54397 77.649 9.00304 77.4812L8.3954 75.8188ZM30.4492 68.7V67.815H30.2925L30.1454 67.8688L30.4492 68.7ZM73.3492 76.65L73.5063 77.521L73.5075 77.5207L73.3492 76.65ZM68.4994 2L68.9443 1.23495C68.6692 1.07502 68.3295 1.07502 68.0545 1.23495L68.4994 2ZM97.9991 19.1542L98.4439 19.9193C98.7164 19.7608 98.8841 19.4694 98.8841 19.1542C98.8841 18.839 98.7164 18.5476 98.4439 18.3892L97.9991 19.1542ZM68.4994 36.3085L68.0545 37.0735C68.3295 37.2335 68.6692 37.2335 68.9443 37.0735L68.4994 36.3085ZM38.9997 19.1542L38.5548 18.3892C38.2823 18.5476 38.1147 18.839 38.1147 19.1542C38.1147 19.4694 38.2823 19.7608 38.5548 19.9193L38.9997 19.1542ZM97.9997 47.87L98.4441 48.6353C98.7169 48.4769 98.8847 48.1854 98.8847 47.87H97.9997ZM97.9997 19.1326H98.8847C98.8847 18.8159 98.7155 18.5234 98.441 18.3654C98.1665 18.2075 97.8286 18.2083 97.5548 18.3675L97.9997 19.1326ZM68.5 36.2868L68.0552 35.5218C67.7827 35.6802 67.615 35.9716 67.615 36.2868H68.5ZM68.5 65H67.615C67.615 65.3166 67.7841 65.609 68.0585 65.767C68.3328 65.9249 68.6707 65.9243 68.9444 65.7653L68.5 65ZM39.0263 47.87H38.1413C38.1413 48.1854 38.3092 48.4769 38.5819 48.6353L39.0263 47.87ZM39.0263 19.1326L39.4712 18.3675C39.1975 18.2083 38.8595 18.2075 38.585 18.3654C38.3105 18.5234 38.1413 18.8159 38.1413 19.1326H39.0263ZM68.526 36.2868H69.411C69.411 35.9716 69.2434 35.6802 68.9709 35.5218L68.526 36.2868ZM68.526 65L68.0816 65.7653C68.3554 65.9243 68.6932 65.9249 68.9675 65.767C69.2419 65.609 69.411 65.3166 69.411 65H68.526ZM10.8099 108.306L32.7099 94.9557L31.7886 93.4443L9.88857 106.794L10.8099 108.306ZM32.3333 95.081L68.4833 91.631L68.3151 89.869L32.1651 93.319L32.3333 95.081ZM68.6646 91.5943L108.265 79.1443L107.734 77.4557L68.1338 89.9057L68.6646 91.5943ZM108.279 79.1396C109.085 78.8709 110.269 78.2174 111.114 77.086C111.992 75.9119 112.463 74.2734 111.848 72.1986L110.151 72.7014C110.603 74.2266 110.248 75.2881 109.697 76.0265C109.113 76.8076 108.263 77.2792 107.719 77.4604L108.279 79.1396ZM111.848 72.1986C111.406 70.7071 110.502 69.6155 109.25 68.9993C108.02 68.3939 106.541 68.2887 104.986 68.5802L105.312 70.3199C106.608 70.077 107.675 70.1968 108.469 70.5874C109.241 70.9673 109.837 71.6429 110.151 72.7014L111.848 72.1986ZM104.986 68.5802C103.088 68.9361 85.8354 71.5222 77.419 72.7747L77.6795 74.5254C86.063 73.2778 103.371 70.6839 105.312 70.3199L104.986 68.5802ZM9.00304 77.4812L30.753 69.5312L30.1454 67.8688L8.3954 75.8188L9.00304 77.4812ZM30.4492 69.585H73.3492V67.815H30.4492V69.585ZM73.3492 69.585C73.9242 69.585 74.7762 69.7178 75.4574 70.1815C76.0825 70.6071 76.6642 71.3754 76.6642 72.9H78.4342C78.4342 70.8246 77.5909 69.4929 76.4535 68.7185C75.3722 67.9823 74.1243 67.815 73.3492 67.815V69.585ZM76.6642 72.9C76.6642 73.9075 76.2161 74.5126 75.5771 74.9386C74.8899 75.3968 73.9887 75.6342 73.1909 75.7793L73.5075 77.5207C74.3597 77.3658 75.5586 77.0782 76.5589 76.4114C77.6074 75.7124 78.4342 74.5925 78.4342 72.9H76.6642ZM73.1922 75.7791L54.8922 79.0791L55.2063 80.821L73.5063 77.521L73.1922 75.7791ZM68.0545 2.76505L97.5542 19.9193L98.4439 18.3892L68.9443 1.23495L68.0545 2.76505ZM97.5542 18.3892L68.0545 35.5434L68.9443 37.0735L98.4439 19.9193L97.5542 18.3892ZM68.9443 35.5434L39.4446 18.3892L38.5548 19.9193L68.0545 37.0735L68.9443 35.5434ZM39.4446 19.9193L68.9443 2.76505L68.0545 1.23495L38.5548 18.3892L39.4446 19.9193ZM98.8847 47.87V19.1326H97.1147V47.87H98.8847ZM97.5548 18.3675L68.0552 35.5218L68.9449 37.0519L98.4446 19.8976L97.5548 18.3675ZM67.615 36.2868L67.615 65H69.385L69.385 36.2868H67.615ZM68.9444 65.7653L98.4441 48.6353L97.5553 47.1046L68.0556 64.2347L68.9444 65.7653ZM39.9113 47.87L39.9113 19.1326H38.1413L38.1413 47.87H39.9113ZM38.5814 19.8976L68.0811 37.0519L68.9709 35.5218L39.4712 18.3675L38.5814 19.8976ZM67.641 36.2868L67.641 65H69.411L69.411 36.2868H67.641ZM68.9704 64.2347L39.4707 47.1046L38.5819 48.6353L68.0816 65.7653L68.9704 64.2347Z" fill="url(#paint0_linear_3978_87678)"/>
  <defs>
    <linearGradient id="paint0_linear_3978_87678" x1="8.69922" y1="2" x2="113.844" y2="24.8953" gradientUnits="userSpaceOnUse">
      <stop stop-color="#3B00B9"/>
      <stop offset="1" stop-color="#2586B6"/>
    </linearGradient>
  </defs>
</svg>
