<svg width="516" height="486" viewBox="0 0 516 486" fill="none"
  xmlns="http://www.w3.org/2000/svg">
  <path d="M491.047 431.124C491.047 431.124 413.692 430.974 397.052 447.577C384.46 460.169 411.669 468.827 457.279 465.941C458.216 465.866 459.865 453.985 459.865 453.985L507.949 451.924C509.448 451.774 491.084 431.124 491.084 431.124H491.047Z" fill="#181818" fill-opacity="0.2"/>
  <path d="M496.925 278.078C493.027 279.764 482.721 285.611 481.072 285.236C475.675 283.962 466.381 279.727 464.057 278.265C462.595 277.328 460.946 271.294 460.609 268.146C460.122 263.574 457.498 264.923 456.037 260.126C455.849 259.564 455.737 258.964 455.362 258.477C454.987 258.027 454.313 257.727 453.788 258.065C452.889 258.664 453.376 261.475 453.788 262.412C454.275 263.424 455.137 264.211 455.587 265.223C456.412 266.984 455.325 267.771 453.338 265.785C450.827 263.237 444.044 256.491 443.444 259.226C443.032 261.1 451.202 266.46 450.078 267.771C449.291 268.596 441.083 261.363 439.696 261.1C439.209 260.988 438.647 261.175 438.385 261.588C437.935 262.45 438.76 263.162 439.584 263.649C441.308 264.698 448.766 270.545 448.129 271.219C447.492 271.856 439.621 265.223 437.748 265.56C437.26 265.635 436.848 266.047 436.998 266.572C437.485 268.259 443.707 271.819 445.131 272.981C445.918 273.618 447.117 274.218 446.705 275.005C445.955 275.979 439.696 270.77 438.685 272.119C437.86 274.33 442.02 275.567 454.05 282.875C460.834 286.998 480.622 299.665 485.082 299.665C489.542 299.665 500.411 294.418 500.411 294.418C502.135 292.807 505.695 289.509 506.557 287.335C508.056 283.437 504.421 274.855 496.925 278.115V278.078Z" fill="#FCBE9F"/>
  <path d="M474.587 454.112C474.587 454.112 474.587 453.962 474.587 453.925C474.437 453.213 474.437 452.538 474.587 451.826L464.206 452.876C446.854 453.962 438.271 453.288 438.084 459.397C435.985 471.39 461.732 469.778 473.875 468.166C480.396 467.304 474.999 456.923 474.587 454.112Z" fill="#FCBE9F"/>
  <path d="M511.057 436.31L503.637 430.763C502.325 428.964 502.55 428.439 500.826 427.015C498.09 424.767 489.508 425.666 489.433 430.088C489.095 432.937 489.657 434.248 490.145 435.148C491.606 437.771 498.54 447.441 500.151 449.914C504.311 456.323 513.456 454.824 513.268 450.401C513.156 447.628 513.906 448.527 511.057 436.31Z" fill="#FCBE9F"/>
  <path d="M513.831 408.388C513.681 405.69 513.231 403.029 512.707 400.368C505.323 363.115 511.807 346.887 505.623 336.918L456.302 347.074C452.292 378.443 458.214 378.893 457.914 397.07C457.802 403.816 458.476 410.937 458.214 417.683C457.577 434.51 461.812 442.568 460.687 453.137C460.912 457.971 475.641 458.758 475.529 454.074C475.266 442.043 480.588 426.715 478.377 415.621C477.74 412.398 477.44 408.726 477.29 405.427C477.14 402.167 478.377 391.523 484.748 370.536C484.748 370.536 492.131 392.985 492.319 399.431C492.356 401.005 492.431 402.542 492.506 403.966C492.768 409.288 493.93 414.535 495.729 419.557C497.153 423.529 498.577 429.001 498.69 438.97C498.765 445.079 512.632 444.704 512.407 440.207C511.882 425.478 514.431 418.994 513.831 408.463V408.388Z" fill="#3B00B9"/>
  <path d="M506.064 255.967C510.599 255.967 510.711 259.078 511.311 261.289C518.244 287.86 498.269 297.305 508.575 342.278C513.897 365.327 452.096 368.175 455.844 348.65C458.467 331.934 465.513 309.373 463.227 290.971C462.702 286.774 460.378 281.452 462.177 277.367C463.714 273.881 504.228 255.967 506.064 255.967Z" fill="white"/>
  <path d="M417.173 269.796C416.161 269.383 414.362 272.756 413.875 273.731C414.212 271.82 415.787 268.147 414.212 267.697C411.889 267.022 410.127 274.068 409.378 276.429C408.478 279.278 407.879 282.201 407.392 285.162C407.204 286.286 407.054 286.736 407.092 287.223C407.167 288.684 407.879 291.645 411.102 295.356C416.349 301.39 430.59 315.144 433.026 315.294C434.488 315.369 435.95 314.844 437.336 314.357C442.471 312.52 464.245 303.338 466.457 300.827C469.08 297.829 459.823 278.041 458.137 279.615C451.765 285.574 433.064 299.928 433.064 299.928C433.064 299.928 417.735 290.896 417.96 290.446C419.01 288.497 422.083 280.29 421.071 279.69C420.284 279.203 419.647 280.327 419.309 280.889C419.16 279.39 419.459 277.891 420.097 276.542C421.146 274.293 419.309 273.618 418.185 274.968C417.923 275.305 417.023 276.204 417.023 275.567C417.098 272.644 418.897 270.583 417.136 269.908L417.173 269.796Z" fill="#FCBE9F"/>
  <path d="M468.705 275.643C467.993 274.856 464.919 275.193 464.02 275.755C460.047 278.304 446.031 287.711 441.008 291.684C436.886 294.944 446.218 311.622 452.664 309.561C455.025 308.811 470.354 301.953 471.628 300.303C474.589 296.443 472.752 280.103 468.742 275.606L468.705 275.643Z" fill="white"/>
  <path d="M419.121 290.971L405.404 274.743C404.805 273.994 404.692 272.907 405.217 272.345L410.464 266.348C410.464 266.348 410.689 266.161 410.801 266.086L409.677 266.648C409.677 266.648 409.415 266.798 409.34 266.91L404.093 272.907C403.568 273.507 403.643 274.593 404.28 275.305L417.997 291.533C418.484 292.133 419.196 292.32 419.721 292.058L420.845 291.496C420.321 291.758 419.608 291.571 419.121 290.971Z" fill="#CFCEDD"/>
  <path d="M426.242 282.838L412.525 266.61C411.925 265.86 410.988 265.748 410.464 266.347L405.217 272.344C404.692 272.943 404.767 274.03 405.404 274.742L419.121 290.97C419.721 291.72 420.695 291.832 421.182 291.233L426.429 285.236C426.954 284.637 426.841 283.55 426.242 282.838Z" fill="#3B00B9"/>
  <path d="M415.115 275.868C415.265 275.343 415.452 274.818 415.377 274.294C415.302 273.769 414.89 273.244 414.365 273.244C413.916 273.244 413.578 273.619 413.278 273.919C412.341 274.968 411.405 275.98 410.468 277.029C409.718 277.854 408.931 278.716 408.406 279.728C407.732 281.077 407.319 284.675 407.17 286.324C407.132 286.849 407.394 287.373 407.844 287.636C409.231 288.385 412.079 289.809 413.129 290.297C414.553 290.934 415.714 291.121 415.227 289.285C414.852 287.786 414.44 286.324 414.29 284.75C413.991 281.752 414.29 278.678 415.152 275.83L415.115 275.868Z" fill="#FCBE9F"/>
  <path d="M490.594 290.483C489.32 296.48 509.22 300.64 510.719 293.894C511.806 289.059 516.791 268.896 515.891 264.286C513.53 252.068 502.774 254.617 498.239 261.588C493.592 268.784 490.819 289.434 490.556 290.521L490.594 290.483Z" fill="white"/>
  <path d="M474.925 229.92C471.852 232.993 470.166 237.415 470.465 241.763C470.465 242.25 470.54 242.775 470.353 243.224C470.053 243.899 469.341 244.199 468.704 244.574C468.067 244.948 467.467 245.548 467.617 246.26C467.729 246.785 468.254 247.122 468.516 247.609C468.779 248.059 468.816 248.546 468.891 249.071C469.079 251.17 469.304 253.268 469.154 255.367C469.116 256.042 469.041 256.716 469.229 257.353C469.753 259.115 471.927 259.64 473.651 260.239C474.588 260.539 475 260.801 475.375 262.001C476.424 265.261 476.387 266.798 476.199 269.346C475.825 274.443 497.374 270.171 494.601 263.537C494.264 262.675 493.702 259.714 494.264 258.778C495.95 255.817 501.572 253.868 501.909 244.199C502.659 223.586 482.871 222.049 474.85 229.957L474.925 229.92Z" fill="#FABC9D"/>
  <path d="M477.926 248.509C477.326 251.057 482.048 251.432 482.573 249.633C483.847 246.785 486.733 247.459 487.895 249.258C489.394 251.619 488.569 254.28 486.096 257.241C485.046 258.478 485.496 260.427 486.995 261.026C491.942 263.013 502.848 253.456 504.722 241.988C506.109 232.731 503.71 227.446 496.927 223.773C493.554 221.974 488.195 221 485.496 221C474.703 221 469.418 227.896 470.355 235.841C470.505 237.115 471.367 238.24 472.566 238.727C475.677 239.964 479.575 241.913 477.963 248.546L477.926 248.509Z" fill="#6E52AA"/>
  <path d="M98.5284 378.543L0.973633 434.872L87.8847 485.055H163.702L98.5284 378.543Z" fill="#181818" fill-opacity="0.2"/>
  <path d="M163.627 388.587L76.7158 338.405L163.627 288.222L250.538 338.405L163.627 388.587Z" fill="url(#paint0_linear_2017_50644)"/>
  <path d="M163.627 485.43L76.7158 435.247V338.405L163.627 388.587V485.43Z" fill="#6A8BA9"/>
  <path d="M250.54 435.247L163.629 485.43V388.587L250.54 338.404V435.247Z" fill="#A4B3C1"/>
  <path d="M126.784 234.59C131.956 248.756 146.385 248.681 149.421 257.564C149.683 258.351 149.945 259.288 150.732 259.55C152.906 260.3 161.601 249.281 159.502 241.148C158.828 238.562 157.666 237.438 156.504 235.04C153.993 229.793 145.111 215.851 136.303 217.5C128.658 218.924 124.161 227.394 126.784 234.627V234.59Z" fill="#3B00B9"/>
  <path d="M223.181 436.634C222.806 435.885 220.033 428.577 219.358 423.03C219.096 420.744 219.283 417.333 219.283 414.522C219.283 413.286 210.551 414.822 210.551 414.822C210.476 416.471 210.551 417.708 209.989 418.682C208.527 419.245 207.253 420.369 206.653 421.981C205.979 423.779 206.204 425.841 206.841 427.677C207.44 429.514 208.415 431.2 209.239 432.961C209.989 434.573 210.588 436.222 211.076 437.909C211.713 440.157 212.088 442.443 212.95 444.58C214.261 447.84 219.995 450.126 223.481 449.752C225.992 449.489 229.252 448.365 228.84 445.254C228.278 441.282 225.092 440.232 223.218 436.634H223.181Z" fill="#FBBD9E"/>
  <path d="M225.693 364.077C226.105 360.854 226.255 357.518 225.355 354.37C221.046 339.941 199.383 319.029 189.677 310.596C187.915 309.097 186.453 307.298 185.666 305.087L183.08 297.929C148.001 304.6 161.381 325.925 179.295 340.354C198.934 356.207 206.392 364.752 206.392 364.752C206.392 364.752 199.646 378.281 204.068 395.259C205.042 398.969 206.504 402.567 207.254 406.315C208.191 410.924 209.315 416.584 209.427 418.457C209.652 421.755 219.359 422.805 219.322 419.169C219.322 419.169 222.357 389.15 225.655 364.002L225.693 364.077Z" fill="#3B00B9"/>
  <path d="M262.908 395.634C262.233 395.147 256.499 389.825 253.426 385.177C252.152 383.229 250.803 380.118 249.528 377.607C248.966 376.52 241.845 381.767 241.845 381.767C242.52 383.266 243.12 384.353 243.045 385.477C241.995 386.639 241.358 388.213 241.508 389.937C241.695 391.886 242.82 393.61 244.206 394.959C245.593 396.346 247.205 397.395 248.741 398.632C250.128 399.719 251.402 400.956 252.602 402.23C254.176 403.954 255.525 405.828 257.286 407.364C259.91 409.688 266.056 409.201 269.017 407.289C271.116 405.94 273.552 403.467 271.79 400.881C269.504 397.583 266.168 398.07 262.908 395.709V395.634Z" fill="#FBBD9E"/>
  <path d="M233.526 330.16C232.027 328.736 230.266 327.462 228.242 327.05C226.668 326.712 190.876 327.986 179.446 325.55L154.823 312.096C150.063 311.196 145.528 309.697 144.404 319.779C143.205 330.46 147.177 341.254 155.647 347.85C162.019 352.759 169.889 355.383 177.759 355.345C183.643 355.308 217.448 349.424 220.484 350.061C223.52 350.736 226.031 362.803 241.172 385.14C243.608 388.738 253.764 385.365 252.153 380.643C243.196 360.592 238.024 334.47 233.489 330.16H233.526Z" fill="#3B00B9"/>
  <path d="M218.497 311.533C219.697 309.472 219.659 306.886 219.922 304.562C220.184 302.314 219.472 300.477 217.298 299.915C215.724 299.54 213.85 298.791 209.615 295.118C200.733 287.435 186.679 274.093 186.679 274.093C184.43 262.7 187.278 253.742 183.456 242.761C182.219 239.238 178.096 236.69 174.161 239.051L174.686 249.32C177.834 259.364 175.998 271.994 177.984 284.024C178.621 287.997 197.585 297.404 203.806 300.477C209.39 303.251 210.29 304.9 215.986 310.071C216.811 310.821 217.673 311.233 218.535 311.496L218.497 311.533Z" fill="#FBBD9E"/>
  <path d="M138.781 258.577C136.195 260.938 135.258 264.948 136.495 268.209C138.294 273.006 148.675 284.661 151.036 295.118C151.786 298.416 151.898 300.739 145.902 310.296C136.869 324.65 191.774 323.526 186.34 305.874C179.931 285.074 191.812 280.464 191.774 273.605C191.774 268.546 186.64 266.71 184.878 262.55C182.068 255.991 185.928 246.134 181.168 240.475C174.01 231.968 139.718 257.752 138.818 258.577H138.781Z" fill="white"/>
  <path d="M171.423 247.446C169.549 243.848 168.35 239.838 168.5 235.753L150.36 234.329C153.021 239.426 153.246 244.261 152.122 249.358C150.36 257.378 175.808 255.841 171.46 247.446H171.423Z" fill="#F1A782"/>
  <path d="M180.98 329.299L191.999 311.609C192.186 311.347 192.523 310.972 192.898 310.672C193.086 310.522 193.31 310.372 193.498 310.26L223.03 293.208C223.405 293.02 223.593 292.945 223.667 293.058L224.08 293.545C224.08 293.545 223.817 293.545 223.48 293.695C223.443 293.695 193.91 310.785 193.91 310.785C193.723 310.897 193.498 311.047 193.31 311.197C192.936 311.497 192.561 311.872 192.411 312.134L181.392 329.823C181.392 329.823 181.28 330.123 181.318 330.161L180.905 329.674C180.905 329.674 180.905 329.486 180.98 329.336V329.299Z" fill="white"/>
  <path d="M223.48 293.695L193.948 310.748C193.386 311.085 192.711 311.685 192.449 312.134L181.43 329.824C181.168 330.236 181.43 330.311 181.992 330.011L211.525 312.959C212.087 312.622 212.762 312.022 213.024 311.572L224.043 293.883C224.305 293.47 224.043 293.395 223.48 293.695Z" fill="#E3DDDA"/>
  <path d="M199.084 317.68C200.32 313.52 191.7 319.404 188.852 319.741C187.016 319.966 187.016 318.879 187.99 318.13L191.138 313.07C191.138 313.07 190.913 313.183 190.763 313.22C189.152 313.932 188.103 313.82 185.104 315.244C182.443 316.518 180.644 319.442 178.133 319.704C177.909 319.629 177.234 319.854 176.26 319.142C169.551 312.921 152.873 299.091 152.873 299.091C152.873 299.091 150.662 272.032 148.938 266.523C144.703 253.068 133.797 259.515 134.247 268.284C134.397 271.058 138.894 294.257 141.293 303.401C143.391 311.346 160.969 316.856 174.835 327.125C180.345 331.21 184.43 331.135 185.854 330.835C187.84 330.423 191.588 329.261 195.486 327.087C197.809 325.813 198.596 324.314 198.259 323.976C199.871 322.402 199.721 320.491 198.784 320.828C200.882 319.029 200.695 317.418 199.084 317.643V317.68Z" fill="#FBBD9E"/>
  <path d="M209.353 310.709C209.165 310.034 209.428 309.135 209.877 308.46C210.927 306.961 212.463 306.437 213.813 305.762C215.649 304.862 216.961 304.038 218.61 302.576L219.959 300.478C221.121 301.789 220.896 303.064 220.596 305.2C220.221 307.861 219.547 311.534 218.01 313.033C215.986 315.019 212.501 317.005 211.601 315.356C211.227 315.619 210.777 315.806 210.365 315.806C209.465 315.769 209.203 314.532 209.503 314.419C208.865 314.682 208.228 314.232 208.116 313.52C207.891 311.871 209.315 310.746 209.315 310.746L209.353 310.709Z" fill="#FABC9D"/>
  <path d="M207.93 309.885C207.518 310.597 206.281 311.758 205.157 312.471C204.033 313.183 203.508 313.183 203.92 312.471C204.332 311.758 205.569 310.597 206.693 309.885C207.818 309.173 208.343 309.173 207.93 309.885Z" fill="#C2BCBA"/>
  <path d="M166.631 244.859C170.004 244.446 176.6 243.359 177.462 240.136C178.062 237.85 175.288 234.815 176.075 232.566C176.45 231.516 176.788 231.254 175.551 230.13C173.864 228.593 172.89 227.431 172.028 225.295C170.679 221.997 171.428 219.449 163.67 213.864C161.609 212.365 160.747 211.878 151.527 213.714C149.391 214.127 148.792 214.502 147.293 216.488C144.707 219.898 144.294 221.135 144.707 225.707C144.931 228.106 145.156 230.542 145.981 232.791C147.068 235.714 148.342 238.637 151.115 240.286C154.338 242.198 162.359 245.383 166.631 244.821V244.859Z" fill="#FCBE9F"/>
  <path d="M159.508 241.149C157.634 239.012 150.139 240.474 150.064 240.811C149.914 241.449 153.961 243.997 155.91 244.522C153.774 245.833 133.611 241.074 135.335 223.534C136.534 211.616 147.703 206.819 156.397 208.243C160.52 208.918 164.867 212.066 166.329 216.001C165.467 215.252 165.467 216.863 164.905 218.1C163.856 220.461 162.319 224.733 161.27 229.98C160.932 231.779 160.745 239.275 159.508 241.149Z" fill="#3B00B9"/>
  <path d="M155.76 239.125C158.871 239.65 161.157 241.299 160.932 242.798C160.67 244.297 157.972 245.122 154.861 244.597C151.75 244.072 149.464 242.423 149.689 240.924C149.951 239.425 152.65 238.601 155.76 239.163V239.125Z" fill="#FCBE9F"/>
  <path d="M412.718 179.072L386.706 164.035L360.693 179.072L386.706 194.082L412.718 179.072Z" fill="#51BBE8"/>
  <path d="M386.706 222.623L360.693 207.613V179.072L386.706 194.082V222.623Z" fill="#1F89B8"/>
  <path d="M412.714 207.613L386.702 222.623V194.082L412.714 179.072V207.613Z" fill="#29ABE2"/>
  <path d="M343.132 218.239C342.89 218.239 342.674 218.131 342.54 217.916C342.352 217.593 342.459 217.19 342.782 217.001L372.453 199.866C372.775 199.678 373.179 199.785 373.367 200.108C373.556 200.431 373.448 200.835 373.125 201.023L343.455 218.158C343.455 218.158 343.239 218.239 343.132 218.239Z" fill="#9FFFFA"/>
  <path d="M363.412 177.108L309.693 146.093L255.974 177.108L309.693 208.124L363.412 177.108Z" fill="#51BBE8"/>
  <path d="M309.693 267.089L255.974 236.073V177.108L309.693 208.124V267.089Z" fill="#1F89B8"/>
  <path d="M363.41 236.073L309.69 267.089V208.124L363.41 177.108V236.073Z" fill="#29ABE2"/>
  <path d="M288.638 9.61737L277.205 3L265.746 9.61737L277.205 16.2347L288.638 9.61737Z" fill="#51BBE8"/>
  <path d="M277.205 28.7968L265.746 22.1794V9.61719L277.205 16.2346V28.7968Z" fill="#1F89B8"/>
  <path d="M288.638 22.1794L277.205 28.7968V16.2346L288.638 9.61719V22.1794Z" fill="#29ABE2"/>
  <path d="M249.044 119.181L225.022 105.327L200.974 119.181L225.022 133.061L249.044 119.181Z" fill="#51BBE8"/>
  <path d="M225.022 159.423L200.974 145.57V119.181L225.022 133.061V159.423Z" fill="#1F89B8"/>
  <path d="M249.045 145.569L225.023 159.423V133.061L249.045 119.181V145.569Z" fill="#29ABE2"/>
  <path d="M309.108 172.335C308.731 172.335 308.436 172.039 308.436 171.662V18.8707C308.436 18.4941 308.731 18.1982 309.108 18.1982C309.485 18.1982 309.781 18.4941 309.781 18.8707V171.662C309.781 172.039 309.485 172.335 309.108 172.335Z" fill="#9FFFFA"/>
  <path d="M334.985 18.8714L309.108 3.91504L283.203 18.8714L309.108 33.8277L334.985 18.8714Z" fill="#F15A24"/>
  <path d="M309.108 62.2616L283.203 47.3053V18.8721L309.108 33.8284V62.2616Z" fill="#AD3E16"/>
  <path d="M334.982 47.305L309.104 62.2614V33.8282L334.982 18.8718V47.305Z" fill="#CF4C1D"/>
  <g style="mix-blend-mode:overlay" filter="url(#filter0_f_2017_50644)">
    <circle r="11.843" transform="matrix(0.866044 0.499967 -0.866044 0.499967 308.129 32.394)" fill="white"/>
  </g>
  <path d="M423.637 86.6586L382.319 62.7715L340.974 86.6586L382.319 110.519L423.637 86.6586Z" fill="#571CD6"/>
  <path d="M382.319 155.873L340.974 132.012V86.6592L382.319 110.519V155.873Z" fill="#3500A6"/>
  <path d="M423.638 132.012L382.319 155.873V110.519L423.638 86.6592V132.012Z" fill="#3B00B9"/>
  <defs>
    <filter id="filter0_f_2017_50644" x="270.013" y="0.409222" width="76.2318" height="63.9694" filterUnits="userSpaceOnUse" color-interpolation-filters="sRGB">
      <feFlood flood-opacity="0" result="BackgroundImageFix"/>
      <feBlend mode="normal" in="SourceGraphic" in2="BackgroundImageFix" result="shape"/>
      <feGaussianBlur stdDeviation="11.8055" result="effect1_foregroundBlur_2017_50644"/>
    </filter>
    <linearGradient id="paint0_linear_2017_50644" x1="251.579" y1="389.23" x2="164.117" y2="237.756" gradientUnits="userSpaceOnUse">
      <stop offset="0.30863" stop-color="#BDC8D2"/>
      <stop offset="1" stop-color="#E5EDF4"/>
    </linearGradient>
  </defs>
</svg>
