<svg xmlns="http://www.w3.org/2000/svg" width="120" height="120" fill="none" viewBox="0 0 120 120"><path fill="url(#a)" d="M13.9068 109.655C13.5203 109.885 13.4006 110.391 13.6307 110.778C13.8608 111.164 14.367 111.284 14.7536 111.054L13.9068 109.664V109.655ZM34.4866 98.0672L34.4129 97.2572L34.2288 97.2757L34.0724 97.3769L34.4958 98.0764L34.4866 98.0672ZM67.7584 94.8919L67.832 95.7018H67.9148L67.9977 95.665L67.7492 94.8919H67.7584ZM104.205 83.4331L104.454 84.2062L104.196 83.4331H104.205ZM12.5354 81.1506C12.1121 81.307 11.9004 81.7764 12.0476 82.1998C12.2041 82.6232 12.6735 82.8441 13.0877 82.6876L12.5262 81.1598L12.5354 81.1506ZM32.8299 74.5975V73.7783H32.6826L32.5445 73.8243L32.8207 74.5882L32.8299 74.5975ZM65.8256 35.3892L66.5527 35.021L65.8256 33.6036L65.0985 35.021L65.8256 35.3892ZM68.9733 41.5557L68.2462 41.9239L68.4302 42.292L68.8444 42.3565L68.9733 41.5557ZM75.8025 42.6418L76.3823 43.2216L77.5144 42.0896L75.9406 41.8411L75.8117 42.6418H75.8025ZM70.9153 47.5382L70.3354 46.9584L70.0409 47.2529L70.1053 47.6579L70.9153 47.529V47.5382ZM71.9921 54.3767L71.624 55.1038L73.0506 55.8309L72.802 54.257L72.0013 54.3859L71.9921 54.3767ZM65.8256 51.2382L66.1937 50.5111L65.8256 50.327L65.4574 50.5111L65.8256 51.2382ZM59.659 54.3767L58.8583 54.2478L58.6098 55.8217L60.0364 55.0946L59.6682 54.3675L59.659 54.3767ZM60.7358 47.5382L61.5366 47.6671L61.601 47.2621L61.3065 46.9676L60.7266 47.5474L60.7358 47.5382ZM55.8486 42.6418L55.7198 41.8411L54.1459 42.0896L55.278 43.2216L55.8578 42.6418H55.8486ZM62.6778 41.5557L62.8067 42.3565L63.2117 42.292L63.4049 41.9239L62.6778 41.5557ZM14.7536 111.054L34.9099 98.7667L34.0632 97.3769L13.9068 109.664L14.7536 111.054ZM34.5602 98.8863L67.832 95.711L67.6755 94.0911L34.4037 97.2664L34.5602 98.8863ZM67.9977 95.6742L104.445 84.2154L103.957 82.66L67.5099 94.1187L67.9977 95.6742ZM104.454 84.2154C105.199 83.9669 106.286 83.3687 107.068 82.3287C107.878 81.2518 108.31 79.7424 107.74 77.828L106.175 78.2882C106.589 79.6964 106.267 80.672 105.761 81.3438C105.227 82.0617 104.445 82.4943 103.939 82.66L104.454 84.2062V84.2154ZM107.74 77.828C107.335 76.4566 106.497 75.4534 105.347 74.8828C104.215 74.3213 102.853 74.2293 101.426 74.4962L101.73 76.0977C102.926 75.8768 103.902 75.9872 104.638 76.3462C105.347 76.6959 105.899 77.3218 106.184 78.2882L107.749 77.828H107.74ZM101.426 74.4962C99.6772 74.8275 83.8006 77.2021 76.051 78.3526L76.2903 79.9633C84.0031 78.8128 99.9349 76.429 101.72 76.0885L101.417 74.487L101.426 74.4962ZM13.0877 82.6876L33.106 75.3706L32.5445 73.8427L12.5262 81.1598L13.0877 82.6876ZM32.8299 75.4166H72.3142V73.7875H32.8299V75.4166ZM72.3142 75.4166C72.8481 75.4166 73.6304 75.5362 74.2563 75.9688C74.8361 76.3646 75.3699 77.0641 75.3699 78.4723H76.999C76.999 76.5579 76.2259 75.3338 75.1766 74.6251C74.1826 73.944 73.0321 73.7967 72.3142 73.7967V75.4258V75.4166ZM75.3699 78.4723C75.3699 79.4018 74.9557 79.9541 74.3667 80.3498C73.7316 80.7732 72.9033 80.9941 72.167 81.123L72.4615 82.7244C73.2438 82.5864 74.3483 82.3194 75.2687 81.7028C76.2351 81.0585 76.999 80.0277 76.999 78.4723H75.3699ZM72.1762 81.123L55.3332 84.1602L55.6185 85.7617L72.4615 82.7244L72.1762 81.123ZM87.3809 45.3385C87.3809 57.2391 77.7353 66.8847 65.8348 66.8847V68.5137C78.6373 68.5137 89.01 58.1318 89.01 45.3293H87.3809V45.3385ZM65.8348 66.8847C53.9342 66.8847 44.2794 57.2391 44.2794 45.3385H42.6503C42.6503 58.141 53.0322 68.5229 65.8256 68.5229V66.8939L65.8348 66.8847ZM44.2794 45.3385C44.2794 33.438 53.925 23.7832 65.8348 23.7832V22.1541C53.0322 22.1541 42.6595 32.536 42.6595 45.3293H44.2886L44.2794 45.3385ZM65.8348 23.7832C77.7353 23.7832 87.3809 33.4288 87.3809 45.3385H89.01C89.01 32.536 78.6373 22.1633 65.8348 22.1633V23.7924V23.7832ZM71.357 23.7832C83.2576 23.7832 92.9032 33.4288 92.9032 45.3385H94.5323C94.5323 32.536 84.1596 22.1633 71.357 22.1633V23.7924V23.7832ZM92.9032 45.3385C92.9032 57.2391 83.2576 66.8847 71.357 66.8847V68.5137C84.1596 68.5137 94.5323 58.1318 94.5323 45.3293H92.9032V45.3385ZM71.357 22.1633H65.8348V23.7924H71.357V22.1633ZM71.357 66.8939H65.8348V68.5229H71.357V66.8939ZM65.1077 35.7757L68.2554 41.9423L69.7096 41.206L66.5619 35.0394L65.1077 35.7757ZM68.8536 42.3749L75.6828 43.4609L75.9406 41.8503L69.1113 40.7642L68.8536 42.3749ZM75.2411 42.0804L70.3538 46.9768L71.5043 48.1273L76.3915 43.2308L75.2411 42.0804ZM70.1237 47.6763L71.2006 54.5147L72.8113 54.257L71.7344 47.4186L70.1237 47.6763ZM72.3787 53.6588L66.2121 50.5203L65.4758 51.9745L71.6424 55.113L72.3787 53.6588ZM65.4758 50.5203L59.3093 53.6588L60.0456 55.113L66.2121 51.9745L65.4758 50.5203ZM60.4781 54.5147L61.555 47.6763L59.9443 47.4186L58.8675 54.257L60.4781 54.5147ZM61.3249 46.9768L56.4377 42.0804L55.2872 43.2308L60.1744 48.1273L61.3249 46.9768ZM55.9867 43.4609L62.8159 42.3749L62.5582 40.7642L55.7198 41.8503L55.9775 43.4609H55.9867ZM63.4142 41.9423L66.5619 35.7757L65.1077 35.0394L61.96 41.206L63.4142 41.9423Z"/><path stroke="url(#b)" stroke-linecap="round" stroke-width="1.77" d="M93.7119 26.9005L99.9613 20.6511"/><path stroke="url(#c)" stroke-linecap="round" stroke-width="1.77" d="M43.7655 26.9005L37.5161 20.6511"/><path stroke="url(#d)" stroke-linecap="round" stroke-width="1.77" d="M66.5562 17.6683V8.83264"/><defs><linearGradient id="a" x1="12.001" x2="109.413" y1="22.145" y2="45.689" gradientUnits="userSpaceOnUse"><stop stop-color="#3B00B9"/><stop offset="1" stop-color="#2586B6"/></linearGradient><linearGradient id="b" x1="93.712" x2="100.103" y1="20.651" y2="22.084" gradientUnits="userSpaceOnUse"><stop stop-color="#3B00B9"/><stop offset="1" stop-color="#2586B6"/></linearGradient><linearGradient id="c" x1="37.516" x2="43.907" y1="20.651" y2="22.084" gradientUnits="userSpaceOnUse"><stop stop-color="#3B00B9"/><stop offset="1" stop-color="#2586B6"/></linearGradient><linearGradient id="d" x1="66.556" x2="67.629" y1="8.833" y2="8.86" gradientUnits="userSpaceOnUse"><stop stop-color="#3B00B9"/><stop offset="1" stop-color="#2586B6"/></linearGradient></defs></svg>