<svg width="120" height="120" viewBox="0 0 120 120" fill="none" xmlns="http://www.w3.org/2000/svg">
<path d="M78.9328 39.9434C78.5872 40.289 78.5872 40.8494 78.9328 41.195C79.2784 41.5406 79.8388 41.5406 80.1844 41.195L78.9328 39.9434ZM91.8044 29.575C92.15 29.2294 92.15 28.669 91.8044 28.3234C91.4588 27.9778 90.8984 27.9778 90.5528 28.3234L91.8044 29.575ZM46.6435 40.7447C46.9891 41.0903 47.5495 41.0903 47.8951 40.7447C48.2407 40.3991 48.2407 39.8387 47.8951 39.4931L46.6435 40.7447ZM37.9051 29.5031C37.5595 29.1575 36.9991 29.1575 36.6535 29.5031C36.3079 29.8487 36.3079 30.4091 36.6535 30.7547L37.9051 29.5031ZM87.1435 81.2447C87.4891 81.5903 88.0495 81.5903 88.3951 81.2447C88.7407 80.8991 88.7407 80.3387 88.3951 79.9931L87.1435 81.2447ZM78.4051 70.0031C78.0595 69.6575 77.4991 69.6575 77.1535 70.0031C76.8079 70.3487 76.8079 70.9091 77.1535 71.2547L78.4051 70.0031ZM80.1844 41.195L91.8044 29.575L90.5528 28.3234L78.9328 39.9434L80.1844 41.195ZM47.8951 39.4931L37.9051 29.5031L36.6535 30.7547L46.6435 40.7447L47.8951 39.4931ZM88.3951 79.9931L78.4051 70.0031L77.1535 71.2547L87.1435 81.2447L88.3951 79.9931ZM83.6451 55.0483C83.6451 66.3287 74.5006 75.4733 63.2202 75.4733V77.2433C75.4781 77.2433 85.4152 67.3062 85.4152 55.0483H83.6451ZM63.2202 75.4733C51.9397 75.4733 42.7952 66.3287 42.7952 55.0483H41.0252C41.0252 67.3062 50.9622 77.2433 63.2202 77.2433V75.4733ZM42.7952 55.0483C42.7952 43.7679 51.9397 34.6233 63.2202 34.6233V32.8533C50.9622 32.8533 41.0252 42.7903 41.0252 55.0483H42.7952ZM63.2202 34.6233C74.5006 34.6233 83.6451 43.7679 83.6451 55.0483H85.4152C85.4152 42.7903 75.4781 32.8533 63.2202 32.8533V34.6233ZM81.3524 66.8368C77.3335 61.1625 70.7093 57.4533 63.2202 57.4533V59.2233C70.111 59.2233 76.2068 62.634 79.908 67.8598L81.3524 66.8368ZM63.2202 57.4533C55.7363 57.4533 49.5718 60.9068 45.525 66.2435L46.9353 67.313C50.6686 62.3898 56.3241 59.2233 63.2202 59.2233V57.4533ZM70.9352 48.3983C70.9352 52.6592 67.481 56.1133 63.2202 56.1133V57.8833C68.4586 57.8833 72.7052 53.6367 72.7052 48.3983H70.9352ZM63.2202 56.1133C58.9593 56.1133 55.5052 52.6592 55.5052 48.3983H53.7352C53.7352 53.6367 57.9817 57.8833 63.2202 57.8833V56.1133ZM55.5052 48.3983C55.5052 44.1374 58.9593 40.6833 63.2202 40.6833V38.9133C57.9817 38.9133 53.7352 43.1599 53.7352 48.3983H55.5052ZM63.2202 40.6833C67.481 40.6833 70.9352 44.1374 70.9352 48.3983H72.7052C72.7052 43.1599 68.4586 38.9133 63.2202 38.9133V40.6833ZM41.0249 18.37C41.0249 26.3698 34.5398 32.855 26.5399 32.855V34.625C35.5173 34.625 42.7949 27.3474 42.7949 18.37H41.0249ZM26.5399 32.855C18.5401 32.855 12.0549 26.3698 12.0549 18.37H10.2849C10.2849 27.3474 17.5625 34.625 26.5399 34.625V32.855ZM12.0549 18.37C12.0549 10.3702 18.5401 3.885 26.5399 3.885V2.115C17.5625 2.115 10.2849 9.39261 10.2849 18.37H12.0549ZM26.5399 3.885C34.5398 3.885 41.0249 10.3702 41.0249 18.37H42.7949C42.7949 9.39261 35.5173 2.115 26.5399 2.115V3.885ZM39.8224 26.7289C36.8834 22.5741 32.0289 19.855 26.5399 19.855V21.625C31.4309 21.625 35.7564 24.0459 38.3774 27.7511L39.8224 26.7289ZM26.5399 19.855C21.0556 19.855 16.5415 22.3889 13.5751 26.2947L14.9847 27.3653C17.6384 23.8711 21.6443 21.625 26.5399 21.625V19.855ZM31.8649 13.57C31.8649 16.5109 29.4808 18.895 26.5399 18.895V20.665C30.4584 20.665 33.6349 17.4885 33.6349 13.57H31.8649ZM26.5399 18.895C23.599 18.895 21.2149 16.5109 21.2149 13.57H19.4449C19.4449 17.4885 22.6215 20.665 26.5399 20.665V18.895ZM21.2149 13.57C21.2149 10.6291 23.599 8.245 26.5399 8.245V6.475C22.6215 6.475 19.4449 9.65154 19.4449 13.57H21.2149ZM26.5399 8.245C29.4808 8.245 31.8649 10.6291 31.8649 13.57H33.6349C33.6349 9.65154 30.4584 6.475 26.5399 6.475V8.245ZM114.394 91.7411C114.394 99.7409 107.909 106.226 99.9091 106.226V107.996C108.886 107.996 116.164 100.718 116.164 91.7411H114.394ZM99.9091 106.226C91.9092 106.226 85.4241 99.7409 85.4241 91.7411H83.6541C83.6541 100.718 90.9317 107.996 99.9091 107.996V106.226ZM85.4241 91.7411C85.4241 83.7412 91.9092 77.2561 99.9091 77.2561V75.4861C90.9317 75.4861 83.6541 82.7637 83.6541 91.7411H85.4241ZM99.9091 77.2561C107.909 77.2561 114.394 83.7412 114.394 91.7411H116.164C116.164 82.7637 108.886 75.4861 99.9091 75.4861V77.2561ZM113.182 100.1C110.243 95.9452 105.388 93.2261 99.8991 93.2261V94.9961C104.79 94.9961 109.116 97.4169 111.737 101.122L113.182 100.1ZM99.8991 93.2261C94.4147 93.2261 89.9006 95.76 86.9343 99.6658L88.3438 100.736C90.9975 97.2422 95.0034 94.9961 99.8991 94.9961V93.2261ZM105.234 86.9411C105.234 89.882 102.85 92.2661 99.9091 92.2661V94.0361C103.828 94.0361 107.004 90.8596 107.004 86.9411H105.234ZM99.9091 92.2661C96.9681 92.2661 94.5841 89.882 94.5841 86.9411H92.8141C92.8141 90.8596 95.9906 94.0361 99.9091 94.0361V92.2661ZM94.5841 86.9411C94.5841 84.0002 96.9681 81.6161 99.9091 81.6161V79.8461C95.9906 79.8461 92.8141 83.0226 92.8141 86.9411H94.5841ZM99.9091 81.6161C102.85 81.6161 105.234 84.0002 105.234 86.9411H107.004C107.004 83.0226 103.828 79.8461 99.9091 79.8461V81.6161ZM31.855 72.3778C31.855 80.3777 25.3698 86.8628 17.37 86.8628V88.6328C26.3474 88.6328 33.625 81.3552 33.625 72.3778H31.855ZM17.37 86.8628C9.37016 86.8628 2.885 80.3777 2.885 72.3778H1.115C1.115 81.3552 8.39261 88.6328 17.37 88.6328V86.8628ZM2.885 72.3778C2.885 64.378 9.37015 57.8928 17.37 57.8928V56.1228C8.39261 56.1228 1.115 63.4004 1.115 72.3778H2.885ZM17.37 57.8928C25.3698 57.8928 31.855 64.378 31.855 72.3778H33.625C33.625 63.4004 26.3474 56.1228 17.37 56.1228V57.8928ZM30.6525 80.7367C27.7135 76.582 22.859 73.8628 17.37 73.8628V75.6328C22.261 75.6328 26.5865 78.0537 29.2075 81.7589L30.6525 80.7367ZM17.37 73.8628C11.8856 73.8628 7.37156 76.3967 4.40521 80.3026L5.81479 81.3731C8.46844 77.8789 12.4744 75.6328 17.37 75.6328V73.8628ZM22.695 67.5778C22.695 70.5187 20.3109 72.9028 17.37 72.9028V74.6728C21.2885 74.6728 24.465 71.4963 24.465 67.5778H22.695ZM17.37 72.9028C14.4291 72.9028 12.045 70.5187 12.045 67.5778H10.275C10.275 71.4963 13.4515 74.6728 17.37 74.6728V72.9028ZM12.045 67.5778C12.045 64.6369 14.4291 62.2528 17.37 62.2528V60.4828C13.4515 60.4828 10.275 63.6594 10.275 67.5778H12.045ZM17.37 62.2528C20.3109 62.2528 22.695 64.6369 22.695 67.5778H24.465C24.465 63.6594 21.2885 60.4828 17.37 60.4828V62.2528ZM64.1948 100.608C64.1948 108.608 57.7097 115.093 49.7098 115.093V116.863C58.6872 116.863 65.9648 109.586 65.9648 100.608H64.1948ZM49.7098 115.093C41.71 115.093 35.2248 108.608 35.2248 100.608H33.4548C33.4548 109.586 40.7325 116.863 49.7098 116.863V115.093ZM35.2248 100.608C35.2248 92.6084 41.71 86.1233 49.7098 86.1233V84.3533C40.7325 84.3533 33.4548 91.6309 33.4548 100.608H35.2248ZM49.7098 86.1233C57.7097 86.1233 64.1948 92.6084 64.1948 100.608H65.9648C65.9648 91.6309 58.6872 84.3533 49.7098 84.3533V86.1233ZM62.9824 108.967C60.0434 104.812 55.1888 102.093 49.6998 102.093V103.863C54.5909 103.863 58.9163 106.284 61.5373 109.989L62.9824 108.967ZM49.6998 102.093C44.2155 102.093 39.7014 104.627 36.7351 108.533L38.1446 109.604C40.7983 106.109 44.8042 103.863 49.6998 103.863V102.093ZM55.0348 95.8083C55.0348 98.7492 52.6508 101.133 49.7098 101.133V102.903C53.6283 102.903 56.8048 99.7267 56.8048 95.8083H55.0348ZM49.7098 101.133C46.7689 101.133 44.3848 98.7492 44.3848 95.8083H42.6148C42.6148 99.7267 45.7914 102.903 49.7098 102.903V101.133ZM44.3848 95.8083C44.3848 92.8674 46.7689 90.4833 49.7098 90.4833V88.7133C45.7914 88.7133 42.6148 91.8898 42.6148 95.8083H44.3848ZM49.7098 90.4833C52.6508 90.4833 55.0348 92.8674 55.0348 95.8083H56.8048C56.8048 91.8898 53.6283 88.7133 49.7098 88.7133V90.4833ZM111.435 19.7811C111.435 26.1462 106.275 31.3061 99.91 31.3061V33.0761C107.253 33.0761 113.205 27.1237 113.205 19.7811H111.435ZM99.91 31.3061C93.5449 31.3061 88.385 26.1462 88.385 19.7811H86.615C86.615 27.1237 92.5674 33.0761 99.91 33.0761V31.3061ZM88.385 19.7811C88.385 13.416 93.5449 8.25609 99.91 8.25609V6.48609C92.5674 6.48609 86.615 12.4385 86.615 19.7811H88.385ZM99.91 8.25609C106.275 8.25609 111.435 13.416 111.435 19.7811H113.205C113.205 12.4385 107.253 6.48609 99.91 6.48609V8.25609Z" fill="url(#paint0_linear_10196_4542)"/>
<defs>
<linearGradient id="paint0_linear_10196_4542" x1="2" y1="3" x2="117.812" y2="29.0268" gradientUnits="userSpaceOnUse">
<stop stop-color="#3B00B9"/>
<stop offset="1" stop-color="#2586B6"/>
</linearGradient>
</defs>
</svg>
