<svg xmlns="http://www.w3.org/2000/svg" width="120" height="120" fill="none" viewBox="0 0 120 120"><path fill="url(#a)" fill-rule="evenodd" d="M59.1849 14.0173C59.4388 13.886 59.7404 13.8854 59.9949 14.0156L78.2291 23.3511C78.3517 23.4139 78.4555 23.503 78.535 23.6095C78.6685 23.7671 78.7449 23.969 78.7449 24.1818V40.9602C78.7449 41.2821 78.5701 41.5786 78.2885 41.7345L77.5835 42.1247L84.6126 45.8964L94.3237 40.8777C94.5775 40.7465 94.879 40.7459 95.1333 40.8761L113.368 50.2116C113.452 50.2547 113.527 50.3103 113.592 50.3753C113.775 50.5413 113.883 50.779 113.883 51.0319V67.8103C113.883 68.1322 113.709 68.4287 113.427 68.5846L95.2696 78.6347L95.2523 78.6452C95.1134 78.727 94.9576 78.768 94.8017 78.7678C94.6458 78.768 94.49 78.7271 94.3511 78.6452L94.334 78.6348L77.6939 69.4292L70.2516 73.4267L78.2291 77.511C78.3517 77.5738 78.4555 77.6628 78.535 77.7693C78.6685 77.9269 78.7449 78.1289 78.7449 78.3417V95.1201C78.7449 95.442 78.5701 95.7385 78.2885 95.8944L60.1312 105.944L60.1138 105.955C59.975 106.037 59.8192 106.078 59.6633 106.078C59.5074 106.078 59.3515 106.037 59.2126 105.955L59.1955 105.945L41.029 95.8945C40.7472 95.7386 40.5724 95.442 40.5724 95.1201V78.3452V78.3435V78.3417C40.5724 78.0284 40.738 77.7384 41.0079 77.5793C41.0407 77.5599 41.0745 77.5429 41.109 77.5281L48.7635 73.5683L41.6957 69.7719L25.6752 78.6348L25.6581 78.6452C25.5193 78.7271 25.3634 78.768 25.2075 78.7678C25.0516 78.768 24.8958 78.7271 24.7569 78.6452L24.7398 78.6348L6.57329 68.5847C6.29156 68.4289 6.1167 68.1323 6.1167 67.8103V51.0365V51.0352V51.0319C6.1167 50.7186 6.28234 50.4287 6.55221 50.2695C6.58917 50.2477 6.62732 50.2289 6.66636 50.2129L24.7295 40.8777C24.9833 40.7465 25.2849 40.7459 25.5392 40.8761L35.1445 45.7938L41.8583 42.1934L41.029 41.7346C40.7472 41.5787 40.5724 41.2821 40.5724 40.9602V24.1853V24.1836V24.1818C40.5724 23.8685 40.738 23.5785 41.0079 23.4194C41.0407 23.4001 41.0745 23.383 41.109 23.3682L59.1849 14.0173ZM45.5583 42.2175L52.0399 38.7416C52.4706 38.5106 52.6325 37.9741 52.4015 37.5434C52.1705 37.1126 51.6341 36.9507 51.2033 37.1817L43.7149 41.1977L42.3424 40.4384V25.6836L43.003 26.0482L58.777 34.7748V49.5304L45.5583 42.2175ZM43.7017 43.2132L37.0605 46.7748L43.7734 50.2116C43.8273 50.2392 43.8776 50.2719 43.9238 50.309C44.1574 50.4739 44.2983 50.743 44.2983 51.0319V67.8103C44.2983 68.1323 44.1235 68.4289 43.8417 68.5847L43.5384 68.7525L50.6689 72.5826L59.1849 68.1772C59.4388 68.0459 59.7404 68.0453 59.9949 68.1755L68.3365 72.4462L75.9149 68.3756C75.7851 68.2192 75.7109 68.0202 75.7109 67.8103V51.0372V51.0344V51.0319C75.7109 50.7186 75.8765 50.4287 76.1464 50.2695C76.1833 50.2477 76.2215 50.2289 76.2605 50.2129L82.7057 46.8819L75.7408 43.1446L60.1311 51.7846L60.1138 51.795C59.975 51.8769 59.8192 51.9179 59.6633 51.9177C59.5074 51.9179 59.3515 51.877 59.2126 51.7951L59.1954 51.7847L43.7017 43.2132ZM93.9155 76.3806L79.5491 68.4327L85.3179 65.334C85.7485 65.1027 85.9101 64.5662 85.6788 64.1356C85.4475 63.705 84.9109 63.5434 84.4804 63.7747L77.7064 67.4133L77.4809 67.2885V52.5357L80.8425 54.3927L93.9155 61.6249V76.3806ZM76.9749 40.4385L75.7276 41.1289L68.3717 37.1818C67.9411 36.9507 67.4046 37.1125 67.1735 37.5432C66.9424 37.9739 67.1042 38.5104 67.5349 38.7415L73.8849 42.1488L60.5493 49.5301V34.7829L62.6251 33.6258L76.9749 25.6831V40.4385ZM75.9486 24.1721L61.7651 32.0787L59.6821 33.2317L43.8579 24.4984L43.3354 24.2093L59.5936 15.7987L75.9486 24.1721ZM39.8405 68.7755L33.4336 65.334C33.003 65.1027 32.8414 64.5662 33.0727 64.1356C33.304 63.705 33.8405 63.5434 34.2711 63.7747L41.6832 67.756L42.5283 67.2885V52.5329L30.4518 59.2139L26.0936 61.6434V76.3806L39.8405 68.7755ZM43.8568 78.6577L43.3354 78.3692L59.5936 69.9586L75.9486 78.332L61.7652 86.2386L59.6821 87.3916L43.8568 78.6577ZM60.5493 88.9428L62.627 87.7846L76.9749 79.843V94.5984L60.5493 103.69V88.9428ZM42.3424 79.8435L43.0009 80.207L58.777 88.9347V103.69L42.3424 94.5983V79.8435ZM78.4757 51.0605L81.6973 52.8427L94.8114 60.0869L99.5249 57.478L111.087 51.0326L94.7319 42.6591L78.4757 51.0605ZM100.385 59.025L95.6878 61.6434V76.3802L112.113 67.2886V52.5333L100.385 59.025ZM8.88153 51.0605L25.1378 42.6591L41.493 51.0326L29.5931 57.6662L25.2173 60.0869L12.1061 52.8444L8.88153 51.0605ZM7.8867 52.5357V67.2885L24.3214 76.3806V61.6249L11.2464 54.3916L7.8867 52.5357Z" clip-rule="evenodd"/><defs><linearGradient id="a" x1="6.117" x2="114.417" y1="13.918" y2="42.304" gradientUnits="userSpaceOnUse"><stop stop-color="#3B00B9"/><stop offset="1" stop-color="#2586B6"/></linearGradient></defs></svg>