<svg width="120" height="120" viewBox="0 0 120 120" fill="none" xmlns="http://www.w3.org/2000/svg">
<path d="M49.9992 51.4976L95.4655 25.2476C99.531 22.9004 104.73 24.2934 107.077 28.3588C109.424 32.4243 108.031 37.6228 103.966 39.9701L102.453 40.8434C102.318 40.921 102.152 40.916 102.022 40.8305L100.367 39.738L70.0324 57.2519C68.7203 58.0095 68.1019 59.5869 67.2168 60.8166C66.9225 61.2256 66.5408 61.5756 66.088 61.8365L57.999 66.4977M93.6043 39.0239L94.8729 38.2947C96.6318 37.2836 98.8734 37.8097 99.9988 39.4978M88.6402 38.4258L92.1402 44.488M84.346 48.988L80.846 42.9258M78.8819 47.5239L69.4413 53.031C67.5483 54.1352 66.8964 56.5571 67.9791 58.4624L67.9993 58.4978M57.6 68.2984C57.6 81.7189 46.7205 92.5984 33.3 92.5984C19.8795 92.5984 9 81.7189 9 68.2984M57.6 68.2984C57.6 54.8779 46.7205 43.9984 33.3 43.9984C19.8795 43.9984 9 54.8779 9 68.2984M57.6 68.2984L57.6 74.2984C57.6 87.7189 46.7205 98.5984 33.3 98.5984C19.8795 98.5984 9 87.7189 9 74.2984L9 68.2984" stroke="url(#paint0_linear_9163_73378)" stroke-width="1.77"/>
<defs>
<linearGradient id="paint0_linear_9163_73378" x1="9" y1="24.1074" x2="106.838" y2="53.3157" gradientUnits="userSpaceOnUse">
<stop stop-color="#3B00B9"/>
<stop offset="1" stop-color="#2586B6"/>
</linearGradient>
</defs>
</svg>
