<svg width="120" height="120" viewBox="0 0 120 120" fill="none" xmlns="http://www.w3.org/2000/svg">
<path d="M78.574 90.2885C74.411 84.4092 67.5644 80.5781 59.8074 80.5781C52.0504 80.5781 45.6874 84.1531 41.4959 89.6816M108.997 84.8665C106.019 80.6561 101.116 77.9155 95.5688 77.9155C90.0213 77.9155 85.4601 80.4759 82.4635 84.4303M37.8738 84.8677C34.8962 80.6573 29.9936 77.9168 24.4461 77.9168C18.8986 77.9168 14.3373 80.4772 11.3408 84.4315M69.0825 69.863C69.0825 74.9837 64.929 79.1373 59.8082 79.1373C54.6875 79.1373 50.534 74.9837 50.534 69.863C50.534 64.7422 54.6875 60.5887 59.8082 60.5887C64.929 60.5887 69.0825 64.7422 69.0825 69.863ZM80.9 67.9196C77.3724 59.7643 69.2455 54.0556 59.8006 54.0556C50.3557 54.0556 42.4943 59.5842 38.8909 67.5308C37.5633 70.4231 36.8331 73.6473 36.8331 77.0327C36.8331 79.6594 37.2693 82.1819 38.0943 84.5241C41.1857 93.5329 49.7393 100 59.8006 100C67.5576 100 74.4137 96.1596 78.5577 90.2802C79.8853 88.4216 80.9284 86.3543 81.6491 84.1448C82.3793 81.9069 82.7776 79.5172 82.7776 77.0327C82.7776 73.7895 82.1043 70.7076 80.9 67.9196ZM59.8006 79.1379C54.6798 79.1379 50.5263 74.9844 50.5263 69.8636C50.5263 64.7428 54.6798 60.5893 59.8006 60.5893C64.9214 60.5893 69.0748 64.7428 69.0748 69.8636C69.0748 74.9844 64.9214 79.1379 59.8006 79.1379ZM112.012 75.3718C112.012 78.909 110.903 82.1711 108.997 84.8547C106.019 89.0651 101.116 91.8151 95.569 91.8151C89.7086 91.8151 84.5689 88.7522 81.6481 84.1435C82.3783 81.9055 82.7766 79.5159 82.7766 77.0313C82.7766 73.7882 82.1033 70.7063 80.899 67.9183C83.6206 62.5794 89.1681 58.9285 95.569 58.9285C104.644 58.9285 112.012 66.2873 112.012 75.3718ZM102.207 70.2329C102.207 73.8989 99.2354 76.8709 95.5693 76.8709C91.9033 76.8709 88.9313 73.8989 88.9313 70.2329C88.9313 66.5668 91.9033 63.5949 95.5693 63.5949C99.2354 63.5949 102.207 66.5668 102.207 70.2329ZM36.8386 77.036C36.8386 79.6628 37.2748 82.1852 38.0998 84.5275C38.024 84.6413 37.9481 84.7456 37.8628 84.8499C34.9041 89.0603 29.992 91.8198 24.435 91.8198C15.3504 91.8198 7.9917 84.4516 7.9917 75.3765C7.9917 66.3014 15.3504 58.9332 24.435 58.9332C30.6842 58.9332 36.1084 62.4134 38.8964 67.5342C37.5688 70.4264 36.8386 73.6506 36.8386 77.036ZM31.0745 70.2341C31.0745 73.9002 28.1025 76.8722 24.4364 76.8722C20.7704 76.8722 17.7984 73.9002 17.7984 70.2341C17.7984 66.5681 20.7704 63.5961 24.4364 63.5961C28.1025 63.5961 31.0745 66.5681 31.0745 70.2341ZM59.8087 37.3927L66.5795 41.2048L65.176 33.353L70.7709 27.8624L63.1277 26.8193L59.8087 20.0011L56.4992 26.8193L48.856 27.8624L54.4509 33.353L53.0379 41.2048L59.8087 37.3927ZM82.7223 39.9929L84.0215 44.6111L86.8284 40.5714L91.6646 40.6188L88.7819 36.8257L90.3181 32.4067L85.8896 33.9334L82.1059 31.0506L82.1438 35.8869L78.1136 38.6938L82.7223 39.9929ZM32.7364 40.6025L34.0261 45.2206L36.8425 41.1809L41.6788 41.2284L38.796 37.4352L40.3227 33.0162L35.9037 34.5429L32.12 31.6601L32.158 36.4964L28.1183 39.3033L32.7364 40.6025Z" stroke="url(#paint0_linear_10196_4567)" stroke-width="1.77"/>
<defs>
<linearGradient id="paint0_linear_10196_4567" x1="7.9917" y1="20.0011" x2="110.963" y2="50.011" gradientUnits="userSpaceOnUse">
<stop stop-color="#3B00B9"/>
<stop offset="1" stop-color="#2586B6"/>
</linearGradient>
</defs>
</svg>
