<svg width="120" height="120" viewBox="0 0 120 120" fill="none" xmlns="http://www.w3.org/2000/svg">
<path d="M72.1561 35.8718C71.904 36.2005 71.9662 36.6713 72.2949 36.9233C72.6236 37.1753 73.0944 37.1132 73.3464 36.7845L72.1561 35.8718ZM77.4728 31.4029C77.7248 31.0742 77.6627 30.6034 77.3339 30.3514C77.0052 30.0993 76.5344 30.1615 76.2824 30.4902L77.4728 31.4029ZM73.7841 81.8555C73.5317 81.5271 73.0608 81.4654 72.7324 81.7179C72.404 81.9703 72.3424 82.4411 72.5948 82.7696L73.7841 81.8555ZM76.7625 88.192C77.0149 88.5204 77.4858 88.582 77.8142 88.3296C78.1426 88.0772 78.2042 87.6063 77.9518 87.2779L76.7625 88.192ZM34.9938 73.0683H34.2438V73.4619L34.5677 73.6855L34.9938 73.0683ZM60.2233 90.487L59.7972 91.1042L60.2232 91.3983L60.6493 91.1042L60.2233 90.487ZM85.4611 73.0683L85.8871 73.6856L86.2111 73.462V73.0683H85.4611ZM85.4611 45.9399H86.2111V45.5462L85.8871 45.3226L85.4611 45.9399ZM60.2233 28.5211L60.6493 27.9039L60.2232 27.6098L59.7972 27.904L60.2233 28.5211ZM34.9938 45.9399L34.5677 45.3227L34.2438 45.5463V45.9399H34.9938ZM85.5851 58.7541C85.1709 58.7541 84.8351 59.0899 84.8351 59.5041C84.8351 59.9183 85.1709 60.2541 85.5851 60.2541V58.7541ZM93.6228 60.2541C94.037 60.2541 94.3728 59.9183 94.3728 59.5041C94.3728 59.0899 94.037 58.7541 93.6228 58.7541V60.2541ZM46.6624 36.7851C46.9147 37.1135 47.3856 37.1752 47.714 36.9229C48.0425 36.6705 48.1042 36.1996 47.8518 35.8712L46.6624 36.7851ZM43.7172 30.4896C43.4648 30.1612 42.994 30.0995 42.6655 30.3518C42.3371 30.6042 42.2754 31.075 42.5277 31.4035L43.7172 30.4896ZM47.4052 82.7696C47.6576 82.4411 47.596 81.9703 47.2676 81.7179C46.9392 81.4654 46.4683 81.5271 46.2159 81.8555L47.4052 82.7696ZM42.0482 87.2779C41.7958 87.6063 41.8574 88.0772 42.1858 88.3296C42.5142 88.582 42.9851 88.5204 43.2375 88.192L42.0482 87.2779ZM34.4149 60.2541C34.8291 60.2541 35.1649 59.9183 35.1649 59.5041C35.1649 59.0899 34.8291 58.7541 34.4149 58.7541V60.2541ZM26.3772 58.7541C25.963 58.7541 25.6272 59.0899 25.6272 59.5041C25.6272 59.9183 25.963 60.2541 26.3772 60.2541V58.7541ZM57.2794 64.6652L57.7716 65.231L57.7718 65.231L57.2794 64.6652ZM54.7408 61.9866L55.2331 62.5525L55.2333 62.5522L54.7408 61.9866ZM50.2506 53.3957V52.6457L50.2466 52.6457L50.2506 53.3957ZM63.1671 53.0445L62.6749 52.4787L62.6748 52.4788L63.1671 53.0445ZM65.7058 55.7231L65.2135 55.1573L65.2132 55.1575L65.7058 55.7231ZM70.196 64.118V64.868L70.1999 64.868L70.196 64.118ZM72.4535 64.8203L72.4346 65.5701L73.2035 65.5895V64.8203H72.4535ZM65.8712 61.8887L66.3795 61.3372L66.3779 61.3357L65.8712 61.8887ZM60.2812 56.1233L59.723 56.6242L59.7261 56.6277L60.2812 56.1233ZM50.2423 49.7454V48.9954L50.2381 48.9954L50.2423 49.7454ZM41.0882 56.7276L40.3605 56.546L41.8095 56.933L41.0882 56.7276ZM47.9848 52.824L48.0037 52.0743L48.0031 52.0743L47.9848 52.824ZM54.5836 55.7802L55.0903 55.2273L55.088 55.2251L54.5836 55.7802ZM60.1737 61.5456L60.7319 61.0447L60.7271 61.0394L60.7221 61.0341L60.1737 61.5456ZM70.2126 67.9235V68.6735L70.2167 68.6735L70.2126 67.9235ZM79.3666 60.9413L80.0943 61.1229L78.6453 60.7359L79.3666 60.9413ZM72.4535 64.8122L72.4718 64.0624L71.7035 64.0437V64.8122H72.4535ZM73.3464 36.7845L77.4728 31.4029L76.2824 30.4902L72.1561 35.8718L73.3464 36.7845ZM72.5948 82.7696L76.7625 88.192L77.9518 87.2779L73.7841 81.8555L72.5948 82.7696ZM34.5677 73.6855L59.7972 91.1042L60.6494 89.8698L35.4199 72.4511L34.5677 73.6855ZM60.6493 91.1042L85.8871 73.6856L85.0351 72.4511L59.7973 89.8697L60.6493 91.1042ZM86.2111 73.0683V45.9399H84.7111V73.0683H86.2111ZM85.8871 45.3226L60.6493 27.9039L59.7973 29.1384L85.0351 46.5571L85.8871 45.3226ZM59.7972 27.904L34.5677 45.3227L35.4199 46.5571L60.6494 29.1383L59.7972 27.904ZM34.2438 45.9399V73.0683H35.7438V45.9399H34.2438ZM94.8823 97.3875C94.8823 103.378 89.9623 108.25 83.8733 108.25V109.75C90.7729 109.75 96.3823 104.224 96.3823 97.3875H94.8823ZM83.8733 108.25C77.7844 108.25 72.8645 103.378 72.8645 97.3875H71.3645C71.3645 104.224 76.9738 109.75 83.8733 109.75V108.25ZM72.8645 97.3875C72.8645 91.3972 77.7844 86.5251 83.8733 86.5251V85.0251C76.9738 85.0251 71.3645 90.5511 71.3645 97.3875H72.8645ZM83.8733 86.5251C89.9623 86.5251 94.8823 91.3972 94.8823 97.3875H96.3823C96.3823 90.5511 90.7729 85.0251 83.8733 85.0251V86.5251ZM94.0915 103.655C91.8223 100.493 88.0929 98.4259 83.8733 98.4259V99.9259C87.5923 99.9259 90.8752 101.746 92.8729 104.529L94.0915 103.655ZM83.8733 98.4259C79.6585 98.4259 76.1857 100.349 73.9017 103.316L75.0903 104.231C77.1064 101.612 80.1497 99.9259 83.8733 99.9259V98.4259ZM87.8699 93.7617C87.8699 95.9274 86.0895 97.6991 83.8733 97.6991V99.1991C86.9001 99.1991 89.3699 96.7735 89.3699 93.7617H87.8699ZM83.8733 97.6991C81.6572 97.6991 79.8768 95.9274 79.8768 93.7617H78.3768C78.3768 96.7735 80.8466 99.1991 83.8733 99.1991V97.6991ZM79.8768 93.7617C79.8768 91.5959 81.6572 89.8242 83.8733 89.8242V88.3242C80.8466 88.3242 78.3768 90.7498 78.3768 93.7617H79.8768ZM83.8733 89.8242C86.0895 89.8242 87.8699 91.5959 87.8699 93.7617H89.3699C89.3699 90.7498 86.9001 88.3242 83.8733 88.3242V89.8242ZM116.25 57.7892C116.25 63.7795 111.33 68.6516 105.241 68.6516V70.1516C112.141 70.1516 117.75 64.6256 117.75 57.7892H116.25ZM105.241 68.6516C99.1522 68.6516 94.2322 63.7795 94.2322 57.7892H92.7322C92.7322 64.6256 98.3416 70.1516 105.241 70.1516V68.6516ZM94.2322 57.7892C94.2322 51.7988 99.1522 46.9267 105.241 46.9267V45.4267C98.3416 45.4267 92.7322 50.9527 92.7322 57.7892H94.2322ZM105.241 46.9267C111.33 46.9267 116.25 51.7988 116.25 57.7892H117.75C117.75 50.9527 112.141 45.4267 105.241 45.4267V46.9267ZM115.459 64.0564C113.19 60.8947 109.461 58.8276 105.241 58.8276V60.3276C108.96 60.3276 112.243 62.1476 114.241 64.931L115.459 64.0564ZM105.241 58.8276C101.026 58.8276 97.5535 60.7508 95.2695 63.7177L96.4581 64.6327C98.4741 62.0139 101.517 60.3276 105.241 60.3276V58.8276ZM109.238 54.1633C109.238 56.3291 107.457 58.1008 105.241 58.1008V59.6008C108.268 59.6008 110.738 57.1752 110.738 54.1633H109.238ZM105.241 58.1008C103.025 58.1008 101.245 56.3291 101.245 54.1633H99.7446C99.7446 57.1752 102.214 59.6008 105.241 59.6008V58.1008ZM101.245 54.1633C101.245 51.9976 103.025 50.2259 105.241 50.2259V48.7259C102.214 48.7259 99.7446 51.1515 99.7446 54.1633H101.245ZM105.241 50.2259C107.457 50.2259 109.238 51.9976 109.238 54.1633H110.738C110.738 51.1515 108.268 48.7259 105.241 48.7259V50.2259ZM94.8823 21.6125C94.8823 27.6028 89.9623 32.4749 83.8733 32.4749V33.9749C90.7729 33.9749 96.3823 28.4489 96.3823 21.6125H94.8823ZM83.8733 32.4749C77.7844 32.4749 72.8645 27.6028 72.8645 21.6125H71.3645C71.3645 28.4489 76.9738 33.9749 83.8733 33.9749V32.4749ZM72.8645 21.6125C72.8645 15.6221 77.7844 10.75 83.8733 10.75V9.25C76.9738 9.25 71.3645 14.7761 71.3645 21.6125H72.8645ZM83.8733 10.75C89.9623 10.75 94.8823 15.6222 94.8823 21.6125H96.3823C96.3823 14.7761 90.7729 9.25 83.8733 9.25V10.75ZM94.0915 27.8797C91.8223 24.718 88.0929 22.6509 83.8733 22.6509V24.1509C87.5923 24.1509 90.8752 25.9709 92.8729 28.7543L94.0915 27.8797ZM83.8733 22.6509C79.6585 22.6509 76.1857 24.5741 73.9017 27.541L75.0903 28.456C77.1064 25.8372 80.1497 24.1509 83.8733 24.1509V22.6509ZM87.8699 17.9867C87.8699 20.1524 86.0895 21.9241 83.8733 21.9241V23.4241C86.9001 23.4241 89.3699 20.9985 89.3699 17.9867H87.8699ZM83.8733 21.9241C81.6572 21.9241 79.8768 20.1524 79.8768 17.9867H78.3768C78.3768 20.9985 80.8466 23.4241 83.8733 23.4241V21.9241ZM79.8768 17.9867C79.8768 15.8209 81.6572 14.0492 83.8733 14.0492V12.5492C80.8466 12.5492 78.3768 14.9748 78.3768 17.9867H79.8768ZM83.8733 14.0492C86.0895 14.0492 87.8699 15.8209 87.8699 17.9867H89.3699C89.3699 14.9748 86.9001 12.5492 83.8733 12.5492V14.0492ZM85.5851 60.2541H93.6228V58.7541H85.5851V60.2541ZM47.8518 35.8712L43.7172 30.4896L42.5277 31.4035L46.6624 36.7851L47.8518 35.8712ZM46.2159 81.8555L42.0482 87.2779L43.2375 88.192L47.4052 82.7696L46.2159 81.8555ZM47.1356 97.3875C47.1356 103.378 42.2156 108.25 36.1267 108.25V109.75C43.0262 109.75 48.6356 104.224 48.6356 97.3875H47.1356ZM36.1267 108.25C30.0377 108.25 25.1178 103.378 25.1178 97.3875H23.6178C23.6178 104.224 29.2271 109.75 36.1267 109.75V108.25ZM25.1178 97.3875C25.1178 91.3972 30.0377 86.5251 36.1267 86.5251V85.0251C29.2271 85.0251 23.6178 90.5511 23.6178 97.3875H25.1178ZM36.1267 86.5251C42.2156 86.5251 47.1356 91.3972 47.1356 97.3875H48.6356C48.6356 90.5511 43.0262 85.0251 36.1267 85.0251V86.5251ZM27.1271 104.529C29.1248 101.746 32.4077 99.9259 36.1267 99.9259V98.4259C31.9071 98.4259 28.1777 100.493 25.9085 103.655L27.1271 104.529ZM36.1267 99.9259C39.7146 99.9259 42.8968 101.616 44.9097 104.231L46.0983 103.316C43.8112 100.345 40.196 98.4259 36.1267 98.4259V99.9259ZM40.1232 93.7617C40.1232 95.9274 38.3428 97.6991 36.1267 97.6991V99.1991C39.1534 99.1991 41.6232 96.7735 41.6232 93.7617H40.1232ZM36.1267 97.6991C33.9105 97.6991 32.1301 95.9274 32.1301 93.7617H30.6301C30.6301 96.7735 33.0999 99.1991 36.1267 99.1991V97.6991ZM32.1301 93.7617C32.1301 91.5959 33.9105 89.8242 36.1267 89.8242V88.3242C33.0999 88.3242 30.6301 90.7498 30.6301 93.7617H32.1301ZM36.1267 89.8242C38.3428 89.8242 40.1232 91.5959 40.1232 93.7617H41.6232C41.6232 90.7498 39.1534 88.3242 36.1267 88.3242V89.8242ZM25.7678 57.7892C25.7678 63.7795 20.8478 68.6516 14.7589 68.6516V70.1516C21.6585 70.1516 27.2678 64.6256 27.2678 57.7892H25.7678ZM14.7589 68.6516C8.66998 68.6516 3.75 63.7795 3.75 57.7892H2.25C2.25 64.6256 7.85934 70.1516 14.7589 70.1516V68.6516ZM3.75 57.7892C3.75 51.7988 8.66999 46.9267 14.7589 46.9267V45.4267C7.85933 45.4267 2.25 50.9527 2.25 57.7892H3.75ZM14.7589 46.9267C20.8478 46.9267 25.7678 51.7988 25.7678 57.7892H27.2678C27.2678 50.9527 21.6585 45.4267 14.7589 45.4267V46.9267ZM5.75934 64.931C7.75707 62.1476 11.04 60.3276 14.7589 60.3276V58.8276C10.5394 58.8276 6.80995 60.8947 4.54073 64.0564L5.75934 64.931ZM14.7589 60.3276C18.4826 60.3276 21.5259 62.0139 23.5419 64.6327L24.7305 63.7177C22.4465 60.7508 18.9737 58.8276 14.7589 58.8276V60.3276ZM18.7555 54.1633C18.7555 56.3291 16.975 58.1008 14.7589 58.1008V59.6008C17.7857 59.6008 20.2555 57.1752 20.2555 54.1633H18.7555ZM14.7589 58.1008C12.5428 58.1008 10.7623 56.3291 10.7623 54.1633H9.26232C9.26232 57.1752 11.7321 59.6008 14.7589 59.6008V58.1008ZM10.7623 54.1633C10.7623 51.9976 12.5428 50.2259 14.7589 50.2259V48.7259C11.7321 48.7259 9.26232 51.1515 9.26232 54.1633H10.7623ZM14.7589 50.2259C16.975 50.2259 18.7555 51.9976 18.7555 54.1633H20.2555C20.2555 51.1515 17.7857 48.7259 14.7589 48.7259V50.2259ZM47.1356 21.6125C47.1356 27.6028 42.2156 32.4749 36.1267 32.4749V33.9749C43.0262 33.9749 48.6356 28.4489 48.6356 21.6125H47.1356ZM36.1267 32.4749C30.0377 32.4749 25.1178 27.6028 25.1178 21.6125H23.6178C23.6178 28.4489 29.2271 33.9749 36.1267 33.9749V32.4749ZM25.1178 21.6125C25.1178 15.6221 30.0377 10.75 36.1267 10.75V9.25C29.2271 9.25 23.6178 14.7761 23.6178 21.6125H25.1178ZM36.1267 10.75C42.2156 10.75 47.1356 15.6222 47.1356 21.6125H48.6356C48.6356 14.7761 43.0262 9.25 36.1267 9.25V10.75ZM27.1271 28.7543C29.1248 25.9709 32.4077 24.1509 36.1267 24.1509V22.6509C31.9071 22.6509 28.1777 24.718 25.9085 27.8797L27.1271 28.7543ZM36.1267 24.1509C39.7146 24.1509 42.8968 25.8412 44.9097 28.456L46.0983 27.541C43.8112 24.5701 40.196 22.6509 36.1267 22.6509V24.1509ZM40.1232 17.9867C40.1232 20.1524 38.3428 21.9241 36.1267 21.9241V23.4241C39.1534 23.4241 41.6232 20.9985 41.6232 17.9867H40.1232ZM36.1267 21.9241C33.9105 21.9241 32.1301 20.1524 32.1301 17.9867H30.6301C30.6301 20.9985 33.0999 23.4241 36.1267 23.4241V21.9241ZM32.1301 17.9867C32.1301 15.8209 33.9105 14.0492 36.1267 14.0492V12.5492C33.0999 12.5492 30.6301 14.9748 30.6301 17.9867H32.1301ZM36.1267 14.0492C38.3428 14.0492 40.1232 15.8209 40.1232 17.9867H41.6232C41.6232 14.9748 39.1534 12.5492 36.1267 12.5492V14.0492ZM34.4149 58.7541H26.3772V60.2541H34.4149V58.7541ZM59.6911 61.1589C58.9341 62.027 57.9338 63.1016 56.7871 64.0994L57.7718 65.231C58.99 64.1709 60.0405 63.0405 60.8216 62.1447L59.6911 61.1589ZM56.7872 64.0993C54.357 66.2132 52.1616 67.1899 50.2506 67.1899V68.6899C52.6726 68.6899 55.2072 67.4616 57.7716 65.231L56.7872 64.0993ZM50.2506 67.1899C45.4453 67.1899 41.5736 63.4247 41.5736 58.8508H40.0736C40.0736 64.305 44.6697 68.6899 50.2506 68.6899V67.1899ZM41.5736 58.8508C41.5736 58.1872 41.6566 57.5446 41.8086 56.9216L40.3513 56.5661C40.1725 57.2987 40.0736 58.0607 40.0736 58.8508H41.5736ZM57.1206 58.4558C56.4119 59.2925 55.3979 60.4198 54.2482 61.4211L55.2333 62.5522C56.4652 61.4793 57.5351 60.2873 58.2652 59.4254L57.1206 58.4558ZM54.2485 61.4208C52.0958 63.2938 50.8178 63.5722 50.2423 63.5722V65.0722C51.3206 65.0722 52.9368 64.5504 55.2331 62.5525L54.2485 61.4208ZM50.2423 63.5722C47.5155 63.5722 45.3444 61.435 45.3444 58.8589H43.8444C43.8444 62.3096 46.7341 65.0722 50.2423 65.0722V63.5722ZM45.3444 58.8589C45.3444 56.2878 47.5195 54.16 50.2545 54.1457L50.2466 52.6457C46.7466 52.664 43.8444 55.4034 43.8444 58.8589H45.3444ZM50.2506 54.1457C50.2252 54.1457 50.2239 54.1407 50.2961 54.1585C50.333 54.1676 50.3646 54.1762 50.4216 54.1909C50.4731 54.2041 50.534 54.2194 50.6025 54.2344L50.924 52.7693C50.8213 52.7467 50.7744 52.7316 50.6557 52.7023C50.5625 52.6793 50.4165 52.6457 50.2506 52.6457V54.1457ZM60.7555 56.5508C61.5125 55.6827 62.5127 54.6082 63.6595 53.6103L62.6748 52.4788C61.4565 53.5388 60.406 54.6692 59.6249 55.565L60.7555 56.5508ZM63.6594 53.6104C66.0896 51.4965 68.285 50.5199 70.196 50.5199V49.0199C67.774 49.0199 65.2393 50.2481 62.6749 52.4787L63.6594 53.6104ZM70.196 50.5199C75.0013 50.5199 78.873 54.285 78.873 58.8589H80.373C80.373 53.4047 75.7769 49.0199 70.196 49.0199V50.5199ZM78.873 58.8589C78.873 59.5225 78.79 60.1652 78.638 60.7881L80.0953 61.1436C80.274 60.411 80.373 59.649 80.373 58.8589H78.873ZM63.326 59.2539C64.0347 58.4172 65.0487 57.29 66.1984 56.2886L65.2132 55.1575C63.9813 56.2304 62.9115 57.4225 62.1814 58.2844L63.326 59.2539ZM66.1981 56.2889C68.3507 54.416 69.6288 54.1375 70.2043 54.1375V52.6375C69.126 52.6375 67.5098 53.1594 65.2135 55.1573L66.1981 56.2889ZM70.2043 54.1375C72.9311 54.1375 75.1022 56.2747 75.1022 58.8508H76.6022C76.6022 55.4001 73.7125 52.6375 70.2043 52.6375V54.1375ZM75.1022 58.8508C75.1022 61.3874 72.9641 63.3535 70.1921 63.368L70.1999 64.868C73.663 64.8499 76.6022 62.3409 76.6022 58.8508H75.1022ZM70.196 63.368C70.1487 63.368 69.9874 63.3612 69.812 63.3526C69.73 63.3486 69.6522 63.3446 69.5948 63.3415C69.5661 63.34 69.5426 63.3388 69.5263 63.3379C69.5181 63.3374 69.5118 63.3371 69.5075 63.3369C69.5054 63.3368 69.5037 63.3367 69.5027 63.3366C69.5021 63.3366 69.5017 63.3366 69.5014 63.3365C69.5013 63.3365 69.5012 63.3365 69.5012 63.3365C69.5011 63.3365 69.5011 63.3365 69.5011 63.3365C69.5011 63.3365 69.5011 63.3365 69.5011 63.3365C69.5011 63.3365 69.5011 63.3365 69.46 64.0854C69.419 64.8343 69.419 64.8343 69.419 64.8343C69.419 64.8343 69.419 64.8343 69.419 64.8343C69.419 64.8343 69.4191 64.8343 69.4191 64.8343C69.4192 64.8343 69.4193 64.8343 69.4195 64.8343C69.4198 64.8343 69.4202 64.8343 69.4208 64.8344C69.422 64.8344 69.4238 64.8345 69.426 64.8347C69.4305 64.8349 69.4371 64.8353 69.4455 64.8357C69.4623 64.8366 69.4864 64.8379 69.5157 64.8395C69.5744 64.8425 69.6542 64.8467 69.7386 64.8508C69.8961 64.8585 70.1027 64.868 70.196 64.868V63.368ZM72.4724 64.0706C71.1843 64.0381 69.8164 63.5101 68.6577 62.882C67.5047 62.2569 66.6404 61.5777 66.3795 61.3372L65.3629 62.4401C65.7222 62.7713 66.6895 63.5212 67.9428 64.2006C69.1905 64.877 70.8036 65.529 72.4346 65.5701L72.4724 64.0706ZM66.3779 61.3357C64.8028 59.8925 61.1285 55.9405 60.8362 55.6189L59.7261 56.6277C60.0126 56.943 63.7311 60.945 65.3645 62.4416L66.3779 61.3357ZM60.8394 55.6223C59.4719 54.0984 57.8332 52.4573 56.0538 51.1929C54.2837 49.9351 52.2982 48.9954 50.2506 48.9954V50.4954C51.8497 50.4954 53.5275 51.2379 55.185 52.4157C56.8332 53.5869 58.3864 55.1347 59.723 56.6242L60.8394 55.6223ZM50.2506 48.9954H50.2423V50.4954H50.2506V48.9954ZM50.2381 48.9954C45.4728 49.0217 41.4381 52.2271 40.3605 56.546L41.8159 56.9091C42.7229 53.274 46.1471 50.518 50.2464 50.4954L50.2381 48.9954ZM41.8095 56.933C41.8062 56.9446 41.8812 56.7199 42.088 56.3729C42.2887 56.0359 42.6021 55.6038 43.0622 55.1812C43.9678 54.3498 45.4861 53.5133 47.9665 53.5738L48.0031 52.0743C45.125 52.0041 43.2323 52.9887 42.0477 54.0764C40.8892 55.1401 40.4375 56.2741 40.3669 56.5221L41.8095 56.933ZM47.9659 53.5738C49.2519 53.6062 50.6229 54.1409 51.7868 54.7766C52.9433 55.4083 53.8144 56.0946 54.0793 56.3353L55.088 55.2251C54.7327 54.9024 53.7639 54.1474 52.5058 53.4602C51.2551 52.777 49.6367 52.1154 48.0037 52.0743L47.9659 53.5738ZM54.077 56.3332C55.6533 57.7776 59.3223 61.7324 59.6252 62.0572L60.7221 61.0341C60.4462 60.7382 56.7225 56.7228 55.0903 55.2273L54.077 56.3332ZM59.6155 62.0465C60.9829 63.5704 62.6216 65.2115 64.401 66.476C66.1712 67.7338 68.1566 68.6735 70.2043 68.6735V67.1735C68.6052 67.1735 66.9274 66.431 65.2699 65.2532C63.6217 64.082 62.0685 62.5342 60.7319 61.0447L59.6155 62.0465ZM70.2043 68.6735H70.2126V67.1735H70.2043V68.6735ZM70.2167 68.6735C74.982 68.6472 79.0167 65.4418 80.0943 61.1229L78.6389 60.7598C77.7319 64.3949 74.3077 67.1509 70.2084 67.1735L70.2167 68.6735ZM78.6453 60.7359C78.6494 60.7216 78.5752 60.943 78.3675 61.2875C78.1663 61.6212 77.8521 62.0495 77.3906 62.4684C76.4823 63.2928 74.9587 64.1229 72.4718 64.0624L72.4352 65.5619C75.315 65.632 77.2108 64.6574 78.3988 63.5791C79.5604 62.5247 80.0162 61.3987 80.088 61.1468L78.6453 60.7359ZM71.7035 64.8122V64.8203H73.2035V64.8122H71.7035Z" fill="url(#paint0_linear_9163_73362)"/>
<defs>
<linearGradient id="paint0_linear_9163_73362" x1="3" y1="10" x2="117.788" y2="39.6266" gradientUnits="userSpaceOnUse">
<stop stop-color="#3B00B9"/>
<stop offset="1" stop-color="#2586B6"/>
</linearGradient>
</defs>
</svg>
