<svg width="120" height="120" viewBox="0 0 120 120" fill="none"
  xmlns="http://www.w3.org/2000/svg">
  <path d="M75.6 40.8H74.715H75.6ZM27 40.8H26.115H27ZM75.6 46.8H76.485H75.6ZM51.3 71.1V70.215V71.1ZM27 46.8H27.885H27ZM92.1002 57.3H91.2152H92.1002ZM67.8002 81.6L67.8002 82.485L67.8002 81.6ZM92.1002 63.3H92.9852H92.1002ZM60.3 96.6001V95.715V96.6001ZM60.3 102.6V101.715V102.6ZM74.715 40.8C74.715 53.7317 64.2317 64.215 51.3 64.215V65.985C65.2093 65.985 76.485 54.7093 76.485 40.8H74.715ZM51.3 64.215C38.3682 64.215 27.885 53.7317 27.885 40.8H26.115C26.115 54.7093 37.3907 65.985 51.3 65.985V64.215ZM27.885 40.8C27.885 27.8682 38.3683 17.385 51.3 17.385V15.615C37.3907 15.615 26.115 26.8907 26.115 40.8H27.885ZM51.3 17.385C64.2318 17.385 74.715 27.8683 74.715 40.8H76.485C76.485 26.8907 65.2093 15.615 51.3 15.615V17.385ZM74.715 46.8C74.715 59.7317 64.2317 70.215 51.3 70.215V71.985C65.2093 71.985 76.485 60.7093 76.485 46.8H74.715ZM51.3 70.215C38.3682 70.215 27.885 59.7317 27.885 46.8H26.115C26.115 60.7093 37.3907 71.985 51.3 71.985V70.215ZM76.485 46.8V40.8H74.715V46.8H76.485ZM27.885 46.8V40.8H26.115V46.8H27.885ZM91.2152 57.3C91.2152 70.2317 80.7319 80.715 67.8002 80.715L67.8002 82.485C81.7095 82.485 92.9852 71.2093 92.9852 57.3H91.2152ZM91.2152 63.3C91.2152 76.2317 80.7319 86.715 67.8002 86.715V88.485C81.7094 88.485 92.9852 77.2093 92.9852 63.3H91.2152ZM92.9852 63.3V57.3H91.2152V63.3H92.9852ZM74.4504 34.8426C84.1437 37.7084 91.2152 46.6795 91.2152 57.3H92.9852C92.9852 45.874 85.377 36.2273 74.9523 33.1452L74.4504 34.8426ZM67.8002 86.715C57.2321 86.715 48.2972 79.7131 45.3856 70.0934L43.6915 70.6062C46.8227 80.9516 56.4305 88.485 67.8002 88.485V86.715ZM67.8002 80.715C59.8079 80.715 52.7505 76.7115 48.5241 70.5966L47.0681 71.603C51.6108 78.1756 59.2022 82.4849 67.8002 82.485L67.8002 80.715ZM60.3 95.715C47.3682 95.715 36.885 85.2318 36.885 72.3001H35.115C35.115 86.2094 46.3907 97.485 60.3 97.4851V95.715ZM60.3 101.715C47.3682 101.715 36.885 91.2318 36.885 78.3001H35.115C35.115 92.2093 46.3907 103.485 60.3 103.485V101.715ZM36.885 78.3001V72.3001H35.115V78.3001H36.885ZM36.885 72.3001C36.885 70.2941 37.137 68.3483 37.6107 66.492L35.8957 66.0544C35.3858 68.0525 35.115 70.1453 35.115 72.3001H36.885ZM83.5009 81.4809C81.9495 92.9077 72.1525 101.715 60.3 101.715V103.485C73.05 103.485 83.5859 94.0114 85.2548 81.719L83.5009 81.4809ZM81.404 82.4561C77.6204 90.3034 69.5913 95.7151 60.3 95.715V97.4851C70.2964 97.4851 78.9309 91.661 82.9983 83.2248L81.404 82.4561Z" fill="url(#paint0_linear_3978_87690)"/>
  <defs>
    <linearGradient id="paint0_linear_3978_87690" x1="27" y1="16.5" x2="94.965" y2="28.018" gradientUnits="userSpaceOnUse">
      <stop stop-color="#3B00B9"/>
      <stop offset="1" stop-color="#2586B6"/>
    </linearGradient>
  </defs>
</svg>
