<svg width="120" height="120" viewBox="0 0 120 120" fill="none"
  xmlns="http://www.w3.org/2000/svg">
  <path d="M114.9 85.2H114.015H114.9ZM66.2996 85.2H65.4146H66.2996ZM114.9 91.2H115.785H114.9ZM90.5996 115.5V116.385V115.5ZM66.2996 91.2H67.1846H66.2996ZM5.67382 89.5242C5.32821 89.8698 5.32821 90.4302 5.67382 90.7758C6.01943 91.1214 6.57979 91.1214 6.9254 90.7758L5.67382 89.5242ZM29.422 67.0276L30.0478 66.4018L29.422 65.776L28.7962 66.4018L29.422 67.0276ZM30.3069 66.9C30.3069 66.4112 29.9106 66.015 29.4219 66.015C28.9331 66.015 28.5369 66.4112 28.5369 66.9H30.3069ZM90.5772 52.9724L89.9514 53.5982L90.5772 54.224L91.203 53.5982L90.5772 52.9724ZM68.0806 29.2242C67.735 28.8786 67.1746 28.8786 66.829 29.2242C66.4834 29.5698 66.4834 30.1302 66.829 30.4758L68.0806 29.2242ZM91.4623 4.5C91.4623 4.01123 91.0661 3.615 90.5773 3.615C90.0886 3.615 89.6923 4.01123 89.6923 4.5L91.4623 4.5ZM53.6996 34.8H54.5846H53.6996ZM29.3996 59.1V59.985V59.1ZM5.09961 34.8H4.21461H5.09961ZM29.1398 29L29.9016 28.5497V28.5497L29.1398 29ZM52.8146 28.8C52.8146 41.7318 42.3314 52.215 29.3996 52.215V53.985C43.3089 53.985 54.5846 42.7093 54.5846 28.8H52.8146ZM29.3996 52.215C16.4679 52.215 5.98461 41.7318 5.98461 28.8H4.21461C4.21461 42.7093 15.4903 53.985 29.3996 53.985V52.215ZM5.98461 28.8C5.98461 15.8683 16.4679 5.385 29.3996 5.385V3.615C15.4903 3.615 4.21461 14.8907 4.21461 28.8H5.98461ZM29.3996 5.385C42.3314 5.385 52.8146 15.8683 52.8146 28.8H54.5846C54.5846 14.8907 43.3089 3.615 29.3996 3.615V5.385ZM114.015 85.2C114.015 98.1318 103.531 108.615 90.5996 108.615V110.385C104.509 110.385 115.785 99.1093 115.785 85.2H114.015ZM90.5996 108.615C77.6679 108.615 67.1846 98.1317 67.1846 85.2H65.4146C65.4146 99.1093 76.6903 110.385 90.5996 110.385V108.615ZM67.1846 85.2C67.1846 72.2682 77.6679 61.785 90.5996 61.785V60.015C76.6903 60.015 65.4146 71.2907 65.4146 85.2H67.1846ZM90.5996 61.785C103.531 61.785 114.015 72.2683 114.015 85.2H115.785C115.785 71.2907 104.509 60.015 90.5996 60.015V61.785ZM114.015 91.2C114.015 104.132 103.531 114.615 90.5996 114.615V116.385C104.509 116.385 115.785 105.109 115.785 91.2H114.015ZM90.5996 114.615C77.6679 114.615 67.1846 104.132 67.1846 91.2H65.4146C65.4146 105.109 76.6903 116.385 90.5996 116.385V114.615ZM115.785 91.2V85.2H114.015V91.2H115.785ZM67.1846 91.2V85.2H65.4146V91.2H67.1846ZM6.9254 90.7758L30.0478 67.6534L28.7962 66.4018L5.67382 89.5242L6.9254 90.7758ZM28.7962 67.6534L51.9186 90.7758L53.1702 89.5242L30.0478 66.4018L28.7962 67.6534ZM28.5369 66.9V115.5H30.3069V66.9H28.5369ZM113.074 29.2242L89.9514 52.3466L91.203 53.5982L114.325 30.4758L113.074 29.2242ZM91.203 52.3466L68.0806 29.2242L66.829 30.4758L89.9514 53.5982L91.203 52.3466ZM91.4623 53.1L91.4623 4.5L89.6923 4.5L89.6923 53.1H91.4623ZM52.8146 34.8C52.8146 47.7318 42.3313 58.215 29.3996 58.215V59.985C43.3089 59.985 54.5846 48.7093 54.5846 34.8H52.8146ZM29.3996 58.215C16.4679 58.215 5.98461 47.7317 5.98461 34.8H4.21461C4.21461 48.7093 15.4903 59.985 29.3996 59.985V58.215ZM54.5846 34.8V28.8H52.8146V34.8H54.5846ZM5.98461 34.8L5.98461 28.8H4.21461L4.21461 34.8H5.98461ZM22.2437 34.115C19.0177 34.115 16.885 31.8158 16.885 29H15.115C15.115 32.8116 18.0585 35.885 22.2437 35.885V34.115ZM16.885 29C16.885 26.2655 19.3972 23.885 22.7097 23.885V22.115C18.6109 22.115 15.115 25.1071 15.115 29H16.885ZM35.7563 35.885C39.9415 35.885 42.885 32.8116 42.885 29H41.115C41.115 31.8158 38.9823 34.115 35.7563 34.115V35.885ZM42.885 29C42.885 25.1884 39.9415 22.115 35.7563 22.115V23.885C38.9823 23.885 41.115 26.1842 41.115 29H42.885ZM35.7563 34.115C34.17 34.115 33.2599 33.5881 32.4819 32.6986C32.0681 32.2255 31.6849 31.6394 31.2671 30.9299C31.0592 30.5767 30.8485 30.2031 30.6223 29.8031C30.3974 29.4055 30.1589 28.9848 29.9016 28.5497L28.3779 29.4503C28.6256 29.8693 28.8567 30.2768 29.0816 30.6744C29.3051 31.0697 29.5244 31.4585 29.7419 31.8279C30.1751 32.5637 30.625 33.2641 31.1496 33.8639C32.2485 35.1203 33.6368 35.885 35.7563 35.885V34.115ZM29.9016 28.5497C29.1652 27.3037 28.2969 25.7063 27.2089 24.4515C26.1045 23.1777 24.6559 22.115 22.7097 22.115V23.885C23.9319 23.885 24.9349 24.5307 25.8716 25.611C26.8248 26.7104 27.5874 28.1129 28.3779 29.4503L29.9016 28.5497ZM22.2437 35.885C24.7948 35.885 27.0509 34.7405 28.708 32.531L27.292 31.469C25.9491 33.2595 24.2052 34.115 22.2437 34.115V35.885ZM35.7563 22.115C32.4948 22.115 30.7608 24.5134 29.7636 26.0091L31.2364 26.9909C32.2392 25.4866 33.5052 23.885 35.7563 23.885V22.115Z" fill="url(#paint0_linear_3978_87702)"/>
  <defs>
    <linearGradient id="paint0_linear_3978_87702" x1="5.09961" y1="4.5" x2="117.499" y2="29.4204" gradientUnits="userSpaceOnUse">
      <stop stop-color="#3B00B9"/>
      <stop offset="1" stop-color="#2586B6"/>
    </linearGradient>
  </defs>
</svg>
