<svg width="423" height="246" viewBox="0 0 423 246" fill="none"
  xmlns="http://www.w3.org/2000/svg">
  <g filter="url(#filter0_b_3309_77208)">
    <path d="M419.318 152.755C402.888 218.648 336.142 258.749 270.234 242.318C204.353 225.889 164.247 159.147 180.684 93.2584C197.107 27.358 263.853 -12.7473 329.742 3.68072C395.646 20.1087 435.748 86.8586 419.318 152.755Z" fill="white" fill-opacity="0.8"/>
  </g>
  <g clip-path="url(#clip0_3309_77208)">
    <path d="M312.096 54.6853L310.632 57.6427L294.676 148.136L295.428 149.213L341.648 131.761L312.096 54.6853Z" fill="#343434"/>
    <path d="M312.096 54.6853L257.965 117.006L295.428 149.213L303.173 105.291L312.096 54.6853Z" fill="#8C8C8C"/>
    <path d="M294.026 157.167L293.4 157.706L287.716 189.942L287.964 191.543L340.268 139.732L294.026 157.167Z" fill="#3C3C3B"/>
    <path d="M287.965 191.542L294.026 157.166L256.56 124.971L287.965 191.542Z" fill="#8C8C8C"/>
    <path d="M295.428 149.213L341.648 131.761L303.173 105.291L295.428 149.213Z" fill="#141414"/>
    <path d="M257.965 117.006L295.428 149.213L303.173 105.291L257.965 117.006Z" fill="#393939"/>
  </g>
  <g filter="url(#filter1_b_3309_77208)">
    <path d="M242.318 152.755C225.888 218.648 159.142 258.749 93.2342 242.318C27.353 225.889 -12.7531 159.147 3.68447 93.2584C20.1067 27.358 86.8529 -12.7473 152.742 3.68072C218.646 20.1087 258.748 86.8586 242.318 152.755Z" fill="#F7931A" fill-opacity="0.5"/>
  </g>
  <path d="M178.917 105.748C181.403 89.1308 168.749 80.1979 151.447 74.2387L157.06 51.7288L143.357 48.3141L137.892 70.2308C134.29 69.3332 130.59 68.4864 126.913 67.6473L132.417 45.5862L118.721 42.1714L113.105 64.6735C110.123 63.9944 107.196 63.3233 104.354 62.6169L104.37 62.5467L85.4716 57.8284L81.8263 72.463C81.8263 72.463 91.9935 74.7928 91.7788 74.9372C97.3288 76.3226 98.3319 79.9949 98.164 82.9062C93.036 103.475 87.9182 123.998 82.7863 144.57C82.1072 146.256 80.3861 148.785 76.5065 147.825C76.6431 148.024 66.5461 145.339 66.5461 145.339L59.7432 161.023L77.5759 165.468C80.8934 166.3 84.1445 167.17 87.345 167.989L81.6741 190.757L95.3617 194.172L100.978 171.646C104.717 172.661 108.347 173.597 111.899 174.479L106.302 196.9L120.005 200.314L125.676 177.59C149.043 182.011 166.614 180.228 174.011 159.096C179.97 142.08 173.714 132.266 161.42 125.865C170.373 123.801 177.117 117.912 178.917 105.748ZM147.607 149.648C143.372 166.663 114.72 157.464 105.431 155.158L112.956 124.995C122.245 127.313 152.033 131.903 147.607 149.648ZM151.846 105.502C147.982 120.979 124.134 113.116 116.399 111.188L123.221 83.8312C130.957 85.759 155.87 89.3571 151.846 105.502Z" fill="white"/>
  <defs>
    <filter id="filter0_b_3309_77208" x="137" y="-40" width="326" height="326" filterUnits="userSpaceOnUse" color-interpolation-filters="sRGB">
      <feFlood flood-opacity="0" result="BackgroundImageFix"/>
      <feGaussianBlur in="BackgroundImage" stdDeviation="20"/>
      <feComposite in2="SourceAlpha" operator="in" result="effect1_backgroundBlur_3309_77208"/>
      <feBlend mode="normal" in="SourceGraphic" in2="effect1_backgroundBlur_3309_77208" result="shape"/>
    </filter>
    <filter id="filter1_b_3309_77208" x="-31.0606" y="-31.0606" width="308.121" height="308.121" filterUnits="userSpaceOnUse" color-interpolation-filters="sRGB">
      <feFlood flood-opacity="0" result="BackgroundImageFix"/>
      <feGaussianBlur in="BackgroundImage" stdDeviation="15.5303"/>
      <feComposite in2="SourceAlpha" operator="in" result="effect1_backgroundBlur_3309_77208"/>
      <feBlend mode="normal" in="SourceGraphic" in2="effect1_backgroundBlur_3309_77208" result="shape"/>
    </filter>
    <clipPath id="clip0_3309_77208">
      <rect width="85" height="139" fill="white" transform="translate(270.254 47.3075) rotate(10)"/>
    </clipPath>
  </defs>
</svg>
