<svg width="246" height="246" viewBox="0 0 246 246" fill="none" xmlns="http://www.w3.org/2000/svg">
<path d="M85.6544 139.729L85.3754 139.596L85.1318 139.786C82.3695 141.942 76.0615 147.013 73.009 149.993C69.2269 153.686 66.7834 156.34 65.7269 157.93C65.207 158.713 64.8698 159.384 64.7917 160.018C64.7083 160.695 64.9256 161.259 65.3448 161.796C65.5652 162.079 66.0066 162.473 66.5391 162.895C67.0849 163.329 67.7655 163.823 68.4974 164.309C69.9471 165.272 71.6543 166.241 72.9358 166.621C74.0538 166.951 74.8979 166.693 75.4654 166.151C75.8461 165.787 76.0722 165.325 76.1921 164.914C77.0951 164.908 78.5549 164.627 79.6359 163.504C80.1641 162.955 81.5979 161.92 83.2358 160.819C84.4723 159.988 85.7904 159.142 86.8441 158.481L86.3148 162.776C86.1953 163.745 86.4924 164.407 86.7777 164.905C86.8359 165.006 86.8865 165.09 86.9314 165.164C87.0044 165.285 87.0625 165.381 87.1144 165.489C87.1866 165.639 87.2003 165.727 87.1914 165.799L85.7757 177.284C85.6739 178.11 86.01 178.89 86.4047 179.489C86.6363 179.841 86.903 180.154 87.1552 180.409C87.0376 180.506 86.9221 180.616 86.8186 180.737C86.5361 181.067 86.2644 181.583 86.4751 182.177C86.5289 182.328 86.602 182.552 86.6953 182.838C87.12 184.14 87.9646 186.728 89.3253 189.649C90.5872 192.358 93.0294 196.659 94.2553 198.752C93.869 199.208 93.4079 199.83 93.0601 200.477C92.8474 200.873 92.6659 201.298 92.5774 201.713C92.4896 202.124 92.4825 202.579 92.6867 202.985C93.0503 203.71 94.1507 205.233 95.3474 206.587C95.9503 207.269 96.5934 207.926 97.1987 208.429C97.5013 208.681 97.803 208.902 98.0924 209.069C98.3763 209.232 98.6788 209.362 98.9783 209.399C99.4686 209.459 100.137 209.391 100.85 209.254C101.575 209.114 102.392 208.893 103.197 208.62C104.003 208.346 104.808 208.017 105.508 207.657C106.2 207.301 106.824 206.899 107.239 206.468C108.241 205.426 109.568 203.927 110.327 203.054C110.623 203.27 110.981 203.519 111.341 203.744C111.61 203.912 111.887 204.071 112.145 204.196C112.393 204.315 112.666 204.423 112.914 204.454L120.298 205.364C121.602 205.525 122.974 205.364 124.081 204.809C125.204 204.245 126.057 203.267 126.232 201.844L129.317 176.821C129.382 176.292 129.557 175.953 129.766 175.727C129.979 175.498 130.261 175.35 130.598 175.261C131.297 175.076 132.122 175.172 132.755 175.25C133.35 175.324 133.741 174.943 133.962 174.557C134.18 174.177 134.309 173.68 134.395 173.207C134.482 172.723 134.53 172.215 134.564 171.784C134.577 171.613 134.587 171.459 134.597 171.324C134.608 171.161 134.617 171.026 134.627 170.918C134.666 170.904 134.723 170.887 134.807 170.871C134.995 170.833 135.207 170.811 135.456 170.786C135.601 170.771 135.759 170.755 135.932 170.734C136.36 170.681 136.861 170.596 137.277 170.388C137.72 170.165 138.097 169.783 138.173 169.168L140.408 151.036C141.047 151.421 142.106 152.113 143.552 153.194C145.564 154.698 147.184 154.462 148.016 153.895C148.835 154.302 150.382 154.935 151.893 155.122C152.512 155.198 153.087 155.078 153.582 154.757C154.071 154.441 154.449 153.953 154.726 153.35C155.275 152.155 155.473 150.415 155.313 148.278C155.225 147.106 154.627 145.758 153.801 144.391C152.966 143.011 151.863 141.554 150.7 140.153C149.02 138.13 147.181 136.187 145.816 134.743C145.295 134.194 144.844 133.716 144.496 133.335C142.968 131.66 141.118 130.595 139.768 130.019C143.899 128.365 151.439 124.891 156.459 120.973C159.318 118.741 161.988 114.499 164.154 110.178C166.298 105.903 167.985 101.473 168.902 98.642C170.448 97.2177 173.404 92.8051 174.325 85.3394C175.272 77.6553 170.474 71.4473 167.866 69.2012C166.845 66.5803 163.458 59.5807 157.569 51.2849C153.749 45.9042 144.924 40.4125 133.997 37.7039C123.049 34.99 109.908 35.0473 97.4141 40.8674C77.6138 50.0913 70.3107 68.1475 69.0784 76.2966C68.1603 76.9841 66.2021 79.3188 65.5219 84.8374C65.0537 88.6353 65.8231 91.1166 66.6995 92.862C67.0104 93.481 67.3412 94.0174 67.6155 94.4622C67.7186 94.6293 67.8136 94.7835 67.8967 94.9242C68.2291 95.4877 68.3363 95.7891 68.3093 96.0083C68.2451 96.5291 68.3909 97.3604 68.6756 98.3698C68.968 99.4059 69.4297 100.705 70.0594 102.201C71.3193 105.193 73.2619 108.997 75.8984 113.091C78.0446 116.424 81.448 119.448 84.7996 121.866C87.9913 124.168 91.1697 125.945 93.2478 126.937C93.2371 127.218 93.2463 127.558 93.2945 127.91C93.3654 128.428 93.5291 129.033 93.8953 129.502C94.2215 129.92 94.2836 130.222 94.2694 130.337C94.2693 130.338 94.2692 130.339 94.2691 130.34C94.2481 130.344 94.21 130.346 94.1483 130.339C93.6448 130.277 93.3167 130.63 93.1416 130.906C92.9556 131.2 92.822 131.581 92.7224 131.949C92.522 132.689 92.4175 133.537 92.367 133.946L92.366 133.954C92.3552 134.042 92.3015 134.183 92.1623 134.375C92.0267 134.562 91.832 134.767 91.5882 134.979C91.1007 135.403 90.4587 135.817 89.8227 136.137C88.2676 136.918 87.6143 138.719 87.455 140.012C87.4457 140.087 87.4282 140.095 87.4075 140.104L87.4035 140.106C87.3431 140.135 87.213 140.16 86.9927 140.139C86.5605 140.097 86.0229 139.904 85.6544 139.729Z" fill="#E2E2E2" stroke="#B6B6B6"/>
<path d="M101.72 187.162C100.899 187.061 98.9099 186.982 97.5163 187.477C95.7744 188.095 94.8529 188.814 94.4989 191.686C94.145 194.557 94.0944 194.967 97.2749 196.192C100.455 197.417 109.896 201.912 111.436 202.935" stroke="#7F7F81"/>
<path d="M106.027 43.7108L106.027 43.7108L106.035 43.7087C112.169 42.0781 121.722 41.0349 130.416 43.1673C139.06 45.2874 146.779 50.5119 149.595 61.4223C153.175 75.2886 149.499 88.6838 142.271 98.869C135.029 109.075 124.3 115.951 113.917 116.886C103.302 117.842 93.3049 116.376 85.882 111.982C78.5151 107.623 73.5914 100.331 73.1247 89.3568C72.6509 78.2168 75.0111 68.3277 80.3849 60.481C85.752 52.644 94.1851 46.7559 106.027 43.7108Z" fill="#080808" stroke="#7F7F81" stroke-width="2"/>
<path d="M166.574 69.8088C165.084 68.3759 161.904 67.1508 159.96 69.4097C157.907 71.7957 155.516 78.44 157.735 87.4588C159.955 96.4775 161.084 97.4496 162.573 98.8824C164.062 100.315 165.754 100.107 167.698 97.8485" stroke="#838081"/>
<path d="M94.1319 127.093C95.2576 125.843 98.5036 123.384 102.482 123.541C107.455 123.738 124.116 123.709 128.887 125.547C132.703 127.017 136.224 129.088 137.507 129.941" stroke="#7F7F81" stroke-width="2"/>
<path d="M94.9075 130.936C96.9923 130.915 101.592 130.761 103.314 130.307C105.466 129.739 106.848 128.66 108.849 129.323C110.849 129.986 112.237 132.24 113.979 131.621C115.721 131.003 117.564 129.564 118.744 130.126C119.688 130.576 121.292 130.857 121.975 130.941" stroke="#7F7F81"/>
<path d="M130.886 126.209C129.262 125.87 125.809 125.5 124.991 126.732C123.969 128.272 121.153 130.84 121.822 132.172C122.491 133.503 125.167 138.83 127.629 139.134C130.09 139.437 131.787 142.561 134.046 144.506C135.853 146.061 138.53 148.668 139.643 149.776" stroke="#7F7F81"/>
<path d="M137.918 129.991C136.414 129.806 133.027 129.805 131.512 131.284C129.618 133.133 127.882 137.083 129.63 139.797" stroke="#7F7F81"/>
<path d="M113.108 131.93C112.801 132.17 112.106 133.306 111.782 135.931C111.458 138.557 110.973 142.495 110.771 144.135" stroke="#7F7F81"/>
<path d="M92.7613 134.836C91.8811 139.725 90.0802 149.83 89.9184 151.143C89.7566 152.456 91.016 153.499 91.666 153.857" stroke="#7F7F81"/>
<path d="M87.9797 156.734C89.1054 155.485 91.613 152.934 92.6379 152.728C93.9191 152.469 103.196 151.53 104.837 151.733C106.15 151.894 107.572 152.07 108.119 152.137C108.46 151.624 109.47 150.638 110.782 150.8C112.423 151.002 115.705 151.406 117.346 151.609C118.986 151.811 125.096 153.947 127.708 155.385C129.657 156.458 133.096 158.964 132.894 160.605C132.692 162.246 132.287 165.527 132.136 166.758C132.014 167.742 130.549 168.367 129.832 168.556" stroke="#7F7F81"/>
<path d="M72.959 156.965C72.088 157.274 70.4079 158.066 70.6552 158.763C70.9024 159.46 74.2161 162.534 75.842 163.983" stroke="#7F7F81"/>
<path d="M87.7884 165.04C88.6931 164.457 90.6665 163.312 91.3229 163.393C92.1433 163.494 94.138 160.825 95.009 160.516C95.88 160.207 101.775 159.684 104.646 160.038C107.517 160.392 112.03 160.948 114.182 160.381C116.334 159.813 120.745 161.19 122.285 162.212C123.824 163.235 127.056 164.05 128.134 165.432C129.213 166.814 128.91 169.275 130.551 169.478C131.863 169.639 133.492 170.395 134.141 170.753" stroke="#7F7F81"/>
<path d="M128.007 179.991C126.929 178.609 123.796 175.641 119.899 174.827C115.027 173.81 113.385 173.614 110.129 173.002C106.873 172.389 103.901 172.855 103.086 176.086C102.271 179.317 99.8216 185.679 100.131 186.55" stroke="#7F7F81"/>
<path d="M131.54 147.945L131.147 157.891" stroke="#7F7F81"/>
<path d="M87.0283 140.792C86.7905 141.596 86.5407 143.397 87.4442 144.175C88.3478 144.953 89.7396 146.957 90.3225 147.861" stroke="#7F7F81"/>
<path d="M110.922 142.905C109.709 142.616 107.2 142.696 106.876 145.321C106.472 148.603 109.343 148.957 110.726 147.878" stroke="#7F7F81"/>
<path d="M133.635 144.455C131.601 144.066 126.948 143.298 124.611 143.343C122.273 143.388 119.126 143.916 117.845 144.174C116.648 143.749 113.906 143.023 112.512 143.517C110.77 144.135 109.028 144.753 109.287 146.035C109.546 147.316 109.804 148.597 112.827 147.72C115.851 146.844 117.182 146.175 118.413 146.327C119.644 146.478 126.207 147.287 127.848 147.49C129.488 147.692 132.46 147.225 133.18 148.147C133.9 149.068 135.439 150.091 136.361 149.372C137.098 148.796 137.383 147.832 137.434 147.422" stroke="#7F7F81"/>
<path d="M102.556 166.86C103.172 167.491 104.385 168.917 104.304 169.574C104.203 170.394 103.439 173.215 103.748 174.086" stroke="#7F7F81"/>
<path d="M92.3738 148.114C93.5183 147.839 95.8993 147.216 96.2679 146.928C96.7287 146.569 97.7456 141.697 97.3354 141.646C97.0073 141.606 94.3629 142.113 93.0817 142.371" stroke="#7F7F81"/>
<path d="M94.4523 134.628C95.5967 134.353 97.9575 133.894 98.2452 134.263C98.6049 134.724 98.0487 139.236 97.5879 139.595C97.2193 139.883 94.872 140.232 93.7444 140.371" stroke="#7F7F81"/>
<path d="M100.088 132.824C101.3 132.002 104.145 130.992 105.831 133.532C107.938 136.707 104.41 141.686 102.769 141.483C101.128 141.281 99.077 141.028 99.1782 140.208" stroke="#7F7F81"/>
<path d="M103.325 136.971C103.447 135.987 103.031 134.853 102.808 134.409C101.988 134.308 101.578 134.257 100.606 135.386C99.6335 136.516 100.252 138.258 101.072 138.359C101.892 138.46 103.174 138.202 103.325 136.971Z" stroke="#7F7F81"/>
<path d="M110.315 147.827L109.961 150.699" stroke="#7F7F81" stroke-width="2"/>
<path d="M129.781 168.966L129.326 172.658" stroke="#7F7F81"/>
<path d="M88.3794 180.52C88.9095 180.724 90.2158 181.163 91.2003 181.284C92.1848 181.406 93.0115 181.23 93.3018 181.127" stroke="#7F7F81"/>
<path d="M102.371 178.497L100.168 179.475" stroke="#7F7F81" stroke-width="2"/>
<path d="M77.1737 72.1149C78.5986 65.9607 85.0684 62.1219 88.1253 60.9717C87.2861 59.8966 84.8809 58.2398 81.9734 60.2134C78.3391 62.6805 74.045 70.4799 73.4439 78.7346C72.8428 86.9892 78.4902 91.8497 84.5352 90.0962C89.3712 88.6934 96.4107 79.3446 99.3259 74.8455L98.1851 67.209C93.274 73.2666 85.3443 83.533 82.4728 83.179C79.6014 82.8251 75.3925 79.8077 77.1737 72.1149Z" fill="url(#paint0_linear_3345_82726)"/>
<path d="M121.036 60.864C114.554 59.3986 106.726 66.5959 103.623 70.3777C100.019 71.4605 94.3667 71.8189 100.588 64.5902C108.365 55.5543 123.632 49.9403 132.207 58.0768C140.782 66.2132 140.534 71.5962 139.568 76.0579C137.831 80.0083 128.273 85.493 123.184 87.3643C119.113 85.4745 111.721 81.7038 114.715 81.7397C118.458 81.7846 125.274 80.5426 128.752 75.9741C132.23 71.4056 129.139 62.6956 121.036 60.864Z" fill="url(#paint1_linear_3345_82726)"/>
<path d="M84.2301 62.1576C80.2516 62.0003 76.5674 68.0148 75.2226 71.0418C75.6272 67.7601 78.1163 60.4045 84.8368 57.235C93.2375 53.2732 96.2214 59.4712 103.364 69.0968C110.506 78.7223 118.356 82.605 126.15 83.5658C132.385 84.3343 137.694 78.8809 139.568 76.0582C138.036 79.4784 133.066 86.9169 125.442 89.3086C115.912 92.2983 108.624 87.2356 99.6326 75.7164C90.6416 64.1972 89.2031 62.3541 84.2301 62.1576Z" fill="#29ABE2"/>
<path d="M69.7901 77.0212L70.0022 76.8995L70.0363 76.6572C71.133 68.8688 78.2321 50.9065 97.8364 41.7739C110.084 36.0684 122.985 36.0043 133.757 38.6745C144.55 41.3501 153.122 46.748 156.753 51.8638C162.694 60.2321 166.051 67.2468 166.978 69.6777L167.024 69.7989L167.123 69.8823C169.571 71.9399 174.234 77.904 173.332 85.2171C172.413 92.6718 169.426 96.8654 168.14 97.9825L168.035 98.074L167.992 98.207C167.098 100.99 165.41 105.442 163.26 109.73C161.101 114.038 158.513 118.101 155.844 120.184C150.375 124.453 141.775 128.223 138.153 129.573L136.648 130.134L138.205 130.527C139.208 130.779 141.782 131.843 143.757 134.009C144.123 134.41 144.587 134.901 145.117 135.461C146.479 136.9 148.273 138.796 149.931 140.792C151.079 142.175 152.147 143.589 152.945 144.908C153.751 146.241 154.246 147.423 154.316 148.352C154.471 150.418 154.264 151.96 153.817 152.933C153.596 153.413 153.328 153.731 153.039 153.917C152.757 154.1 152.422 154.179 152.016 154.129C150.461 153.938 148.814 153.202 148.195 152.861L147.859 152.677L147.593 152.953C147.329 153.227 146.133 153.874 144.151 152.393C142.007 150.791 140.655 149.994 140.217 149.786L139.591 149.488L139.506 150.176L137.18 169.045C137.155 169.25 137.051 169.382 136.829 169.494C136.579 169.619 136.228 169.69 135.81 169.741C135.69 169.756 135.56 169.769 135.426 169.783C135.141 169.812 134.843 169.843 134.609 169.89C134.432 169.926 134.229 169.982 134.056 170.086C133.869 170.199 133.682 170.394 133.646 170.692C133.628 170.835 133.613 171.054 133.596 171.301C133.587 171.431 133.577 171.569 133.567 171.707C133.534 172.128 133.488 172.596 133.41 173.029C133.33 173.473 133.225 173.832 133.094 174.06C132.973 174.272 132.903 174.262 132.88 174.258L132.877 174.258L132.848 174.254C132.246 174.18 131.244 174.056 130.343 174.294C129.873 174.418 129.406 174.645 129.033 175.047C128.658 175.452 128.411 175.997 128.324 176.699L125.24 201.721C125.112 202.76 124.507 203.476 123.632 203.915C122.741 204.362 121.577 204.514 120.42 204.371L113.036 203.461C112.956 203.451 112.804 203.403 112.579 203.295C112.365 203.192 112.122 203.053 111.871 202.896C111.371 202.583 110.869 202.218 110.563 201.979L110.187 201.685L109.876 202.047C109.23 202.798 107.654 204.593 106.518 205.774C106.216 206.088 105.707 206.431 105.051 206.768C104.404 207.101 103.646 207.412 102.876 207.673C102.107 207.934 101.335 208.142 100.66 208.272C99.9734 208.404 99.4307 208.447 99.1006 208.407C98.9899 208.393 98.8212 208.334 98.5917 208.202C98.3678 208.073 98.114 207.89 97.8383 207.661C97.2869 207.202 96.6815 206.586 96.0966 205.924C94.9177 204.591 93.8855 203.144 93.5804 202.537C93.5171 202.411 93.493 202.214 93.5554 201.921C93.617 201.633 93.7528 201.3 93.9408 200.95C94.3166 200.252 94.8567 199.564 95.238 199.149L95.4888 198.876L95.3004 198.557C94.1522 196.611 91.5377 192.03 90.2318 189.227C88.9021 186.372 88.084 183.868 87.6533 182.55C87.555 182.249 87.4769 182.01 87.4175 181.842C87.3809 181.739 87.3987 181.597 87.5783 181.387C87.7545 181.181 88.0123 181.007 88.1934 180.917L88.8994 180.562L88.2767 180.076C87.9968 179.857 87.5714 179.443 87.24 178.94C86.9039 178.429 86.7081 177.893 86.7681 177.407L88.1839 165.921C88.2256 165.583 88.1297 165.293 88.0154 165.055C87.9443 164.907 87.844 164.74 87.7543 164.591C87.7147 164.525 87.6772 164.463 87.6451 164.407C87.4163 164.008 87.2245 163.569 87.3073 162.898L87.9646 157.565L88.0919 156.533L87.2061 157.078C86.0753 157.775 84.308 158.894 82.678 159.989C81.0694 161.07 79.5335 162.168 78.9154 162.81C77.9167 163.848 76.4453 163.97 75.8529 163.897L75.3567 163.836L75.2955 164.332C75.2543 164.667 75.0916 165.125 74.7747 165.427C74.4925 165.697 74.0302 165.902 73.2196 165.662C72.0904 165.327 70.4879 164.431 69.0507 163.476C68.3392 163.004 67.6819 162.526 67.161 162.112C66.6267 161.688 66.2723 161.359 66.1331 161.181C65.8329 160.796 65.7411 160.49 65.7842 160.141C65.8324 159.749 66.0572 159.24 66.5599 158.484C67.5487 156.995 69.9152 154.411 73.7076 150.709C76.6321 147.854 82.6383 143.009 85.5112 140.759C85.9114 140.924 86.4234 141.088 86.8969 141.134C87.1911 141.162 87.5338 141.152 87.8328 141.009C88.1698 140.849 88.3966 140.547 88.4474 140.134C88.5915 138.966 89.1631 137.587 90.2715 137.03C90.9672 136.681 91.6822 136.222 92.2441 135.734C92.525 135.49 92.7781 135.229 92.9717 134.962C93.1617 134.701 93.3188 134.399 93.3585 134.077C93.4096 133.662 93.5073 132.876 93.6876 132.21C93.7791 131.873 93.8814 131.607 93.9862 131.442C94.0236 131.383 94.0508 131.351 94.0672 131.336C94.3368 131.362 94.614 131.323 94.8468 131.165C95.101 130.992 95.2288 130.729 95.2619 130.459C95.3236 129.959 95.0766 129.39 94.6836 128.887C94.4744 128.619 94.3458 128.216 94.2852 127.774C94.2258 127.34 94.2398 126.927 94.2687 126.693L94.3132 126.332L93.983 126.178C91.9755 125.246 88.6883 123.438 85.3847 121.055C82.0756 118.667 78.7873 115.73 76.7392 112.55C74.1328 108.502 72.2176 104.75 70.981 101.813C70.3625 100.344 69.9163 99.0845 69.6381 98.0983C69.3523 97.0853 69.2648 96.4303 69.3018 96.1307C69.3759 95.5295 69.0714 94.9473 68.758 94.4161C68.6589 94.2482 68.5537 94.0776 68.4442 93.9002C68.1763 93.4658 67.8831 92.9906 67.5932 92.4132C66.7978 90.8292 66.0724 88.5456 66.5144 84.9597C67.2314 79.1432 69.3778 77.2577 69.7901 77.0212ZM94.086 131.322C94.0859 131.323 94.0831 131.325 94.0775 131.327C94.0832 131.323 94.086 131.322 94.086 131.322Z" stroke="#838081"/>
<defs>
<linearGradient id="paint0_linear_3345_82726" x1="121.008" y1="86.0782" x2="98.8534" y2="47.2482" gradientUnits="userSpaceOnUse">
<stop offset="0.21" stop-color="#ED1E79"/>
<stop offset="0.8929" stop-color="#522785"/>
</linearGradient>
<linearGradient id="paint1_linear_3345_82726" x1="110.073" y1="59.9831" x2="129.31" y2="86.7746" gradientUnits="userSpaceOnUse">
<stop offset="0.21" stop-color="#F15A24"/>
<stop offset="0.6841" stop-color="#FBB03B"/>
</linearGradient>
</defs>
</svg>
