<svg width="246" height="246" viewBox="0 0 246 246" fill="none" xmlns="http://www.w3.org/2000/svg">
<path d="M92.1943 135.996L91.9153 135.863L91.6717 136.053C89.5163 137.736 84.5886 141.697 82.2013 144.028C79.2507 146.909 77.3352 148.987 76.5032 150.24C76.0956 150.854 75.8201 151.396 75.7558 151.917C75.6863 152.481 75.8697 152.95 76.2099 153.386C76.3908 153.617 76.7448 153.932 77.1602 154.262C77.589 154.602 78.1226 154.99 78.6962 155.371C79.829 156.123 81.1728 156.887 82.1897 157.188C83.096 157.457 83.7966 157.249 84.2708 156.796C84.5607 156.519 84.7407 156.175 84.8437 155.859C85.5739 155.838 86.6909 155.598 87.5291 154.727C87.9314 154.309 89.0392 153.508 90.3207 152.647C91.2096 152.049 92.1527 151.442 92.9384 150.947L92.5535 154.069C92.4562 154.858 92.6997 155.4 92.9286 155.799C92.9774 155.884 93.018 155.951 93.0532 156.009C93.1077 156.099 93.1491 156.168 93.1876 156.248C93.2394 156.355 93.241 156.401 93.2377 156.428L92.1328 165.392C92.0487 166.074 92.3265 166.709 92.6409 167.187C92.8012 167.43 92.9823 167.651 93.1588 167.838C93.0939 167.897 93.0309 167.96 92.9723 168.029C92.7405 168.3 92.5006 168.743 92.6841 169.261C92.7255 169.377 92.782 169.55 92.8543 169.772C93.185 170.786 93.8471 172.815 94.9126 175.102C95.8864 177.193 97.7568 180.492 98.7258 182.149C98.4313 182.503 98.091 182.969 97.8301 183.454C97.6614 183.768 97.5149 184.11 97.4428 184.448C97.3715 184.782 97.3625 185.165 97.5374 185.513C97.8276 186.091 98.6938 187.289 99.6297 188.347C100.102 188.882 100.608 189.399 101.087 189.797C101.326 189.996 101.566 190.173 101.799 190.307C102.027 190.438 102.278 190.547 102.532 190.579C102.933 190.628 103.468 190.572 104.027 190.464C104.599 190.354 105.241 190.18 105.874 189.965C106.507 189.751 107.14 189.492 107.692 189.208C108.236 188.928 108.735 188.607 109.072 188.258C109.827 187.473 110.818 186.356 111.42 185.665C111.635 185.821 111.885 185.992 112.136 186.15C112.348 186.282 112.568 186.408 112.774 186.508C112.971 186.602 113.197 186.693 113.408 186.719L119.171 187.429C120.205 187.557 121.299 187.431 122.186 186.985C123.09 186.532 123.783 185.74 123.925 184.587L126.332 165.058C126.381 164.664 126.509 164.422 126.655 164.265C126.803 164.106 127.003 163.998 127.251 163.933C127.773 163.795 128.396 163.866 128.893 163.927C129.421 163.992 129.761 163.651 129.944 163.332C130.124 163.018 130.227 162.615 130.294 162.243C130.363 161.86 130.402 161.459 130.428 161.122C130.438 160.984 130.447 160.862 130.454 160.756C130.46 160.667 130.466 160.588 130.471 160.521C130.488 160.517 130.508 160.512 130.53 160.508C130.672 160.479 130.829 160.463 131.019 160.444C131.132 160.432 131.258 160.42 131.4 160.402C131.735 160.361 132.143 160.293 132.486 160.121C132.855 159.935 133.179 159.61 133.244 159.085L134.967 145.102C135.47 145.413 136.243 145.927 137.268 146.693C138.827 147.858 140.119 147.724 140.825 147.278C141.485 147.599 142.668 148.075 143.83 148.218C144.336 148.28 144.811 148.182 145.221 147.917C145.625 147.656 145.931 147.256 146.154 146.772C146.594 145.814 146.747 144.435 146.622 142.759C146.551 141.818 146.073 140.748 145.426 139.677C144.771 138.594 143.906 137.452 142.997 136.357C141.683 134.775 140.243 133.253 139.177 132.126C138.772 131.698 138.421 131.327 138.151 131.031C137.034 129.807 135.701 128.997 134.662 128.522C137.936 127.194 143.64 124.536 147.474 121.544C149.727 119.786 151.819 116.455 153.511 113.082C155.179 109.753 156.494 106.306 157.214 104.09C158.449 102.937 160.742 99.4726 161.459 93.6606C162.202 87.6334 158.457 82.7679 156.401 80.9868C155.589 78.9119 152.944 73.4597 148.362 67.0058C145.361 62.7773 138.445 58.4809 129.903 56.3634C121.339 54.2406 111.056 54.2846 101.279 58.8394C85.8201 66.0407 80.0939 80.1211 79.1085 86.5293C78.3459 87.1228 76.85 88.9886 76.3257 93.242C75.9575 96.2293 76.5627 98.1876 77.2556 99.5674C77.5006 100.055 77.763 100.481 77.9777 100.829C78.0573 100.958 78.1304 101.076 78.1935 101.183C78.4551 101.627 78.517 101.831 78.5011 101.96C78.448 102.391 78.5682 103.059 78.7903 103.847C79.02 104.661 79.3821 105.679 79.8748 106.849C80.8606 109.191 82.3798 112.165 84.4407 115.365C86.1265 117.983 88.7953 120.353 91.4157 122.243C93.8794 124.02 96.3332 125.398 97.9615 126.181C97.957 126.39 97.9666 126.634 98.001 126.886C98.0575 127.299 98.1891 127.793 98.4922 128.181C98.608 128.33 98.6811 128.462 98.7219 128.568C98.7347 128.601 98.7435 128.63 98.7496 128.654C98.3142 128.621 98.0367 128.932 97.8978 129.151C97.7437 129.394 97.636 129.705 97.5573 129.995C97.3989 130.58 97.3166 131.248 97.2772 131.567L97.2762 131.575C97.2709 131.618 97.2404 131.711 97.1373 131.853C97.0379 131.99 96.8923 132.144 96.7061 132.306C96.3338 132.629 95.8408 132.948 95.351 133.194C94.0902 133.827 93.5711 135.276 93.444 136.298C93.4074 136.308 93.3315 136.318 93.2021 136.306C92.8828 136.275 92.4764 136.131 92.1943 135.996Z" fill="#E2E2E2" stroke="#B6B6B6"/>
<path d="M104.685 173.115C104.045 173.036 102.493 172.974 101.405 173.36C100.045 173.843 99.3262 174.404 99.05 176.645C98.7737 178.886 98.7343 179.206 101.217 180.162C103.699 181.118 111.067 184.627 112.268 185.425" stroke="#7F7F81"/>
<path d="M108.102 61.3708L108.102 61.3708L108.11 61.3687C112.873 60.1025 120.29 59.2942 127.029 60.9472C133.718 62.5879 139.665 66.6186 141.837 75.036C144.613 85.7861 141.764 96.1747 136.155 104.079C130.531 112.005 122.211 117.327 114.185 118.049C105.928 118.793 98.1767 117.649 92.4368 114.252C86.7528 110.888 82.9489 105.265 82.5878 96.7733C82.2196 88.1149 84.0546 80.4467 88.2158 74.3705C92.3704 68.304 98.9037 63.7361 108.102 61.3708Z" fill="#080808" stroke="#7F7F81" stroke-width="2"/>
<path d="M155.301 81.5262C154.138 80.4079 151.656 79.4518 150.139 81.2148C148.537 83.0769 146.67 88.2624 148.403 95.3012C150.135 102.34 151.016 103.099 152.178 104.217C153.341 105.335 154.661 105.173 156.178 103.41" stroke="#838081"/>
<path d="M98.7632 126.234C99.6417 125.259 102.175 123.339 105.28 123.462C109.161 123.615 122.164 123.593 125.888 125.027C128.866 126.174 131.614 127.791 132.615 128.456" stroke="#7F7F81" stroke-width="2"/>
<path d="M99.3686 129.233C100.996 129.217 104.586 129.096 105.929 128.742C107.609 128.299 108.688 127.457 110.249 127.974C111.81 128.492 112.894 130.251 114.253 129.768C115.613 129.285 117.051 128.163 117.972 128.601C118.709 128.952 119.96 129.171 120.494 129.237" stroke="#7F7F81"/>
<path d="M127.448 125.544C126.181 125.28 123.486 124.991 122.848 125.952C122.05 127.154 119.853 129.158 120.374 130.197C120.896 131.237 122.985 135.394 124.906 135.631C126.827 135.868 128.151 138.306 129.914 139.824C131.325 141.037 133.414 143.072 134.282 143.937" stroke="#7F7F81"/>
<path d="M132.936 128.496C131.762 128.351 129.119 128.35 127.937 129.505C126.459 130.947 125.104 134.031 126.468 136.149" stroke="#7F7F81"/>
<path d="M113.573 130.009C113.334 130.196 112.791 131.083 112.538 133.132C112.286 135.181 111.907 138.254 111.749 139.535" stroke="#7F7F81"/>
<path d="M97.6935 132.277C97.0065 136.092 95.601 143.979 95.4747 145.004C95.3484 146.028 96.3314 146.843 96.8387 147.122" stroke="#7F7F81"/>
<path d="M93.9618 149.367C94.8404 148.392 96.7974 146.402 97.5973 146.24C98.5972 146.039 105.838 145.306 107.118 145.464C108.143 145.59 109.253 145.727 109.679 145.78C109.946 145.379 110.734 144.609 111.758 144.736C113.039 144.894 115.6 145.209 116.88 145.367C118.161 145.525 122.93 147.192 124.967 148.314C126.489 149.152 129.173 151.108 129.015 152.388C128.858 153.669 128.542 156.23 128.423 157.19C128.329 157.959 127.185 158.446 126.625 158.594" stroke="#7F7F81"/>
<path d="M82.2391 149.547C81.5594 149.789 80.2481 150.407 80.4411 150.951C80.6341 151.495 83.2202 153.893 84.4892 155.025" stroke="#7F7F81"/>
<path d="M93.8127 155.849C94.5188 155.395 96.059 154.501 96.5712 154.564C97.2115 154.643 98.7683 152.56 99.4481 152.319C100.128 152.078 104.728 151.67 106.969 151.946C109.21 152.222 112.732 152.656 114.411 152.213C116.091 151.77 119.534 152.845 120.735 153.643C121.937 154.441 124.459 155.077 125.301 156.155C126.143 157.234 125.906 159.155 127.187 159.313C128.211 159.439 129.482 160.029 129.989 160.308" stroke="#7F7F81"/>
<path d="M125.201 167.518C124.359 166.44 121.915 164.123 118.873 163.488C115.071 162.695 113.789 162.542 111.248 162.063C108.707 161.585 106.387 161.949 105.751 164.471C105.116 166.992 103.204 171.957 103.445 172.637" stroke="#7F7F81"/>
<path d="M127.958 142.508L127.652 150.27" stroke="#7F7F81"/>
<path d="M93.2192 136.925C93.0335 137.553 92.8386 138.959 93.5438 139.566C94.249 140.172 95.3352 141.736 95.7901 142.443" stroke="#7F7F81"/>
<path d="M111.867 138.574C110.92 138.349 108.962 138.411 108.71 140.46C108.394 143.021 110.635 143.297 111.714 142.455" stroke="#7F7F81"/>
<path d="M129.593 139.784C128.006 139.48 124.375 138.881 122.55 138.916C120.726 138.951 118.27 139.363 117.27 139.565C116.336 139.233 114.196 138.666 113.108 139.052C111.749 139.535 110.389 140.017 110.591 141.017C110.793 142.017 110.995 143.017 113.354 142.332C115.714 141.648 116.753 141.126 117.713 141.245C118.674 141.363 123.796 141.995 125.077 142.152C126.357 142.31 128.677 141.946 129.238 142.665C129.8 143.385 131.002 144.183 131.721 143.621C132.296 143.172 132.519 142.42 132.558 142.1" stroke="#7F7F81"/>
<path d="M105.338 157.27C105.819 157.762 106.765 158.876 106.702 159.388C106.623 160.028 106.027 162.23 106.268 162.91" stroke="#7F7F81"/>
<path d="M97.3916 142.64C98.2848 142.425 100.143 141.939 100.431 141.714C100.79 141.434 101.584 137.631 101.264 137.592C101.008 137.56 98.944 137.956 97.9441 138.158" stroke="#7F7F81"/>
<path d="M99.0133 132.115C99.9065 131.9 101.749 131.542 101.974 131.829C102.254 132.189 101.82 135.711 101.461 135.991C101.173 136.216 99.3409 136.488 98.4608 136.597" stroke="#7F7F81"/>
<path d="M103.412 130.707C104.358 130.065 106.578 129.277 107.894 131.259C109.539 133.737 106.785 137.623 105.504 137.465C104.224 137.307 102.623 137.11 102.702 136.469" stroke="#7F7F81"/>
<path d="M105.938 133.943C106.033 133.175 105.709 132.29 105.535 131.943C104.895 131.864 104.574 131.825 103.816 132.707C103.057 133.588 103.54 134.948 104.18 135.026C104.82 135.105 105.82 134.904 105.938 133.943Z" stroke="#7F7F81"/>
<path d="M111.394 142.416L111.118 144.657" stroke="#7F7F81" stroke-width="2"/>
<path d="M126.586 158.914L126.231 161.795" stroke="#7F7F81"/>
<path d="M94.2739 167.931C94.6876 168.091 95.7071 168.433 96.4755 168.528C97.2438 168.622 97.8891 168.485 98.1157 168.405" stroke="#7F7F81"/>
<path d="M105.193 166.352L103.474 167.115" stroke="#7F7F81" stroke-width="2"/>
<path d="M85.5282 83.3261C86.6403 78.523 91.6897 75.527 94.0754 74.6294C93.4205 73.7903 91.5434 72.4972 89.2742 74.0376C86.4378 75.963 83.0864 82.0501 82.6173 88.4924C82.1482 94.9348 86.5558 98.7282 91.2736 97.3596C95.0478 96.2648 100.542 88.9685 102.817 85.4572L101.927 79.4973C98.0938 84.225 91.905 92.2373 89.664 91.9611C87.423 91.6849 84.1381 89.3299 85.5282 83.3261Z" fill="url(#paint0_linear_3309_77431)"/>
<path d="M119.761 74.5453C114.702 73.4016 108.593 79.0188 106.17 81.9703C103.358 82.8153 98.9466 83.095 103.802 77.4534C109.871 70.4013 121.787 66.0199 128.479 72.37C135.172 78.7201 134.978 82.9213 134.224 86.4034C132.869 89.4865 125.408 93.7671 121.437 95.2275C118.26 93.7526 112.491 90.8097 114.828 90.8378C117.748 90.8728 123.068 89.9035 125.783 86.338C128.497 82.7725 126.085 75.9748 119.761 74.5453Z" fill="url(#paint1_linear_3309_77431)"/>
<path d="M91.0352 75.5548C87.9303 75.4321 85.0549 80.1261 84.0054 82.4885C84.3211 79.9273 86.2637 74.1866 91.5088 71.713C98.0651 68.621 100.394 73.4582 105.968 80.9705C111.542 88.4828 117.669 91.5131 123.752 92.2629C128.618 92.8627 132.761 88.6066 134.224 86.4035C133.028 89.0729 129.149 94.8783 123.199 96.7449C115.761 99.0781 110.073 95.127 103.056 86.1368C96.0391 77.1466 94.9164 75.7082 91.0352 75.5548Z" fill="#29ABE2"/>
<path d="M79.8204 87.2504L80.0325 87.1287L80.0666 86.8865C80.9187 80.8355 86.4421 66.8542 101.701 59.7459C111.233 55.3056 121.275 55.2549 129.662 57.3341C138.071 59.4186 144.733 63.6211 147.547 67.5846C152.179 74.1094 154.794 79.5759 155.513 81.4631L155.559 81.5843L155.659 81.6677C157.554 83.2611 161.164 87.8823 160.466 93.5383C159.752 99.3359 157.43 102.581 156.451 103.432L156.346 103.523L156.303 103.656C155.607 105.824 154.292 109.293 152.617 112.633C150.932 115.994 148.922 119.145 146.859 120.755C142.604 124.076 135.905 127.014 133.081 128.067L131.577 128.627L133.133 129.02C133.9 129.213 135.888 130.034 137.412 131.705C137.7 132.02 138.064 132.405 138.478 132.843C139.541 133.966 140.936 135.44 142.227 136.996C143.122 138.073 143.951 139.171 144.57 140.195C145.197 141.231 145.572 142.135 145.625 142.834C145.745 144.438 145.582 145.62 145.245 146.354C145.079 146.716 144.882 146.945 144.678 147.077C144.482 147.204 144.246 147.262 143.952 147.225C142.758 147.078 141.486 146.511 141.01 146.249L140.674 146.064L140.408 146.34C140.249 146.505 139.379 147.022 137.866 145.892C136.191 144.64 135.13 144.013 134.778 143.845L134.152 143.547L134.067 144.236L132.251 158.962C132.237 159.077 132.187 159.152 132.037 159.228C131.86 159.316 131.603 159.37 131.278 159.41C131.19 159.421 131.091 159.431 130.988 159.441C130.763 159.465 130.52 159.49 130.332 159.527C130.19 159.556 130.017 159.603 129.865 159.694C129.7 159.794 129.527 159.972 129.493 160.247C129.479 160.362 129.467 160.539 129.453 160.733C129.446 160.834 129.439 160.94 129.431 161.044C129.405 161.372 129.37 161.733 129.31 162.066C129.248 162.408 129.168 162.674 129.076 162.834C129.043 162.893 129.017 162.921 129.004 162.933L128.988 162.931C128.52 162.873 127.72 162.775 126.996 162.966C126.615 163.066 126.23 163.252 125.922 163.585C125.61 163.92 125.41 164.369 125.34 164.935L122.933 184.464C122.838 185.232 122.393 185.762 121.738 186.092C121.066 186.429 120.18 186.546 119.293 186.437L113.531 185.727C113.486 185.721 113.381 185.69 113.208 185.607C113.046 185.529 112.86 185.423 112.666 185.302C112.279 185.06 111.891 184.777 111.655 184.592L111.279 184.299L110.968 184.66C110.463 185.246 109.236 186.645 108.351 187.565C108.128 187.797 107.743 188.057 107.235 188.318C106.735 188.575 106.149 188.816 105.553 189.018C104.956 189.221 104.358 189.382 103.838 189.482C103.304 189.585 102.895 189.616 102.655 189.586C102.589 189.578 102.472 189.54 102.299 189.441C102.131 189.344 101.938 189.205 101.726 189.029C101.302 188.675 100.833 188.199 100.379 187.685C99.4608 186.646 98.6627 185.526 98.431 185.065C98.3971 184.997 98.3749 184.872 98.4208 184.657C98.4659 184.445 98.5669 184.196 98.7109 183.928C98.9987 183.393 99.4142 182.864 99.7075 182.544L99.9583 182.271L99.7699 181.952C98.8737 180.433 96.8357 176.862 95.819 174.68C94.7846 172.459 94.149 170.514 93.8123 169.483C93.735 169.247 93.6735 169.059 93.6266 168.926C93.6171 168.9 93.6031 168.83 93.732 168.679C93.8575 168.532 94.0456 168.405 94.1779 168.339L94.8839 167.984L94.2613 167.498C94.0508 167.333 93.7274 167.019 93.4763 166.637C93.2204 166.248 93.083 165.857 93.1253 165.515L94.2302 156.551C94.2664 156.257 94.1825 156.009 94.0887 155.814C94.0308 155.694 93.9472 155.554 93.8761 155.436C93.8462 155.386 93.8185 155.34 93.796 155.301C93.6236 155.001 93.4855 154.682 93.546 154.191L94.059 150.029L94.1863 148.997L93.3005 149.542C92.4171 150.087 91.0365 150.961 89.7629 151.817C88.5107 152.658 87.3008 153.522 86.8085 154.033C86.0615 154.81 84.9532 154.903 84.5109 154.849L84.0147 154.788L83.9535 155.284C83.9234 155.528 83.8038 155.859 83.5802 156.073C83.3913 156.253 83.0724 156.407 82.4735 156.23C81.6089 155.974 80.3697 155.282 79.2494 154.538C78.6964 154.17 78.186 153.8 77.7822 153.479C77.365 153.147 77.0979 152.898 76.9982 152.77C76.777 152.487 76.7191 152.276 76.7483 152.039C76.7827 151.76 76.9457 151.381 77.3362 150.793C78.1005 149.643 79.9389 147.634 82.8999 144.743C85.1607 142.536 89.7917 138.798 92.053 137.025C92.3625 137.148 92.7462 137.267 93.1063 137.301C93.344 137.324 93.6348 137.317 93.8944 137.194C94.1919 137.053 94.3917 136.784 94.4359 136.425C94.5466 135.527 94.9838 134.497 95.7997 134.088C96.3493 133.812 96.9154 133.449 97.362 133.06C97.5853 132.866 97.7893 132.657 97.9468 132.44C98.1006 132.228 98.2345 131.975 98.2687 131.698C98.3087 131.373 98.3842 130.767 98.5226 130.256C98.593 129.996 98.6695 129.801 98.7424 129.687C98.7492 129.676 98.7553 129.667 98.7608 129.659C98.9712 129.67 99.1918 129.632 99.3829 129.502C99.6122 129.347 99.7252 129.11 99.7542 128.874C99.8076 128.441 99.5946 127.969 99.2805 127.566C99.1344 127.379 99.0379 127.087 98.9918 126.75C98.9468 126.422 98.9576 126.109 98.979 125.935L99.0236 125.574L98.6934 125.42C97.1327 124.696 94.5733 123.288 92.0008 121.432C89.4229 119.572 86.8692 117.29 85.2815 114.824C83.2506 111.67 81.7589 108.747 80.7964 106.461C80.3149 105.318 79.9684 104.339 79.7528 103.575C79.5296 102.784 79.4678 102.292 79.4936 102.083C79.5566 101.572 79.2973 101.086 79.0548 100.675C78.9756 100.541 78.8924 100.406 78.8064 100.267C78.5981 99.9292 78.3733 99.5648 78.1493 99.1187C77.5374 97.9002 76.9761 96.1396 77.3182 93.3643C77.8753 88.8446 79.5393 87.4117 79.8204 87.2504ZM98.792 129.622C98.792 129.622 98.7899 129.624 98.7858 129.627C98.7899 129.623 98.792 129.621 98.792 129.622Z" stroke="#838081"/>
<defs>
<linearGradient id="paint0_linear_3309_77431" x1="119.739" y1="94.2238" x2="102.448" y2="63.9189" gradientUnits="userSpaceOnUse">
<stop offset="0.21" stop-color="#ED1E79"/>
<stop offset="0.8929" stop-color="#522785"/>
</linearGradient>
<linearGradient id="paint1_linear_3309_77431" x1="111.204" y1="73.8578" x2="126.218" y2="94.7672" gradientUnits="userSpaceOnUse">
<stop offset="0.21" stop-color="#F15A24"/>
<stop offset="0.6841" stop-color="#FBB03B"/>
</linearGradient>
</defs>
</svg>
