<svg width="30" height="30" viewBox="0 0 30 30" fill="none" xmlns="http://www.w3.org/2000/svg">
<rect width="30" height="30" rx="15" fill="white"/>
<g clip-path="url(#clip0_391_26414)">
<path d="M10.4788 14.9333C10.4361 15.6746 11.0068 16.3093 11.7481 16.3519C11.7748 16.3519 11.8014 16.3519 11.8281 16.3519C12.5747 16.3519 13.1774 15.7493 13.172 15.0027C13.172 14.256 12.5694 13.6534 11.8228 13.6587C11.1081 13.6587 10.5161 14.2187 10.4788 14.9333Z" fill="#0033AD"/>
<path d="M5.45519 14.5869C5.2152 14.5709 5.00721 14.7576 4.99654 14.9975C4.98587 15.2375 5.1672 15.4455 5.40719 15.4562C5.64718 15.4722 5.84984 15.2855 5.86584 15.0455C5.88184 14.8056 5.69518 14.6029 5.45519 14.5869Z" fill="#0033AD"/>
<path d="M10.3943 7.11508C10.6076 7.00842 10.6929 6.74176 10.5863 6.52844C10.4796 6.31511 10.213 6.22978 9.99963 6.33645C9.78631 6.44311 9.70098 6.70443 9.80764 6.91776C9.9143 7.13641 10.1756 7.22708 10.3943 7.11508C10.3889 7.11508 10.3943 7.11508 10.3943 7.11508Z" fill="#0033AD"/>
<path d="M11.7613 9.49893C12.092 9.33361 12.2253 8.92829 12.06 8.59764C11.8946 8.26698 11.4893 8.13366 11.1587 8.29898C10.828 8.46431 10.6947 8.86963 10.86 9.20028C11.0253 9.53093 11.4307 9.66426 11.7613 9.49893Z" fill="#0033AD"/>
<path d="M7.16208 11.1362C7.41807 11.3015 7.75939 11.2322 7.93005 10.9762C8.09538 10.7202 8.02605 10.3789 7.77006 10.2082C7.51407 10.0429 7.17275 10.1122 7.00209 10.3682C6.83143 10.6242 6.90609 10.9709 7.16208 11.1362Z" fill="#0033AD"/>
<path d="M7.97997 14.3468C7.60665 14.3255 7.292 14.6082 7.27066 14.9815C7.24933 15.3548 7.53199 15.6694 7.9053 15.6908C8.27862 15.7121 8.59327 15.4295 8.61461 15.0561C8.63594 14.6882 8.35328 14.3682 7.97997 14.3468Z" fill="#0033AD"/>
<path d="M7.23852 18.8638C6.96654 19.0025 6.85454 19.3331 6.9932 19.6104C7.13186 19.8824 7.46252 19.9944 7.73984 19.8558C8.01183 19.7171 8.12382 19.3865 7.98516 19.1091C7.8465 18.8371 7.51051 18.7251 7.23852 18.8638Z" fill="#0033AD"/>
<path d="M9.85152 12.9551C10.2195 13.195 10.7101 13.0937 10.9448 12.7257C11.1848 12.3577 11.0835 11.8671 10.7155 11.6324C10.3475 11.3925 9.85685 11.4938 9.62219 11.8618C9.3822 12.2244 9.48353 12.7151 9.85152 12.9551Z" fill="#0033AD"/>
<path d="M18.1416 9.44566C18.4509 9.64832 18.8722 9.56299 19.0749 9.25367C19.2775 8.94435 19.1922 8.52303 18.8829 8.32037C18.5736 8.11771 18.1522 8.20304 17.9496 8.51236C17.7416 8.82702 17.8269 9.243 18.1416 9.44566Z" fill="#0033AD"/>
<path d="M19.5162 7.07251C19.7189 7.20584 19.9855 7.14717 20.1188 6.94451C20.2522 6.74186 20.1935 6.4752 19.9909 6.34187C19.7882 6.20854 19.5215 6.26721 19.3882 6.46453C19.2602 6.66719 19.3189 6.93918 19.5162 7.07251Z" fill="#0033AD"/>
<path d="M18.2451 13.6482C17.5038 13.6056 16.8638 14.1762 16.8265 14.9175C16.7838 15.6588 17.3544 16.2988 18.0957 16.3361C18.1224 16.3361 18.1491 16.3361 18.1704 16.3361C18.9117 16.3361 19.5144 15.7335 19.5144 14.9869C19.5197 14.2775 18.9597 13.6856 18.2451 13.6482Z" fill="#0033AD"/>
<path d="M12.1999 12.8589C12.4292 13.3122 12.8932 13.6002 13.4052 13.6002C14.1465 13.6002 14.7491 12.9975 14.7491 12.2509C14.7491 12.0429 14.7011 11.8349 14.6051 11.6429C14.2692 10.9763 13.4585 10.7096 12.7972 11.0456C12.1306 11.3869 11.8639 12.1976 12.1999 12.8589Z" fill="#0033AD"/>
<path d="M22.7545 11.1362C23.0265 10.9976 23.1332 10.6616 22.9945 10.3896C22.8559 10.1176 22.5199 10.0109 22.2479 10.1496C21.9759 10.2883 21.8693 10.6189 22.0026 10.8909C22.1466 11.1629 22.4772 11.2749 22.7545 11.1362Z" fill="#0033AD"/>
<path d="M19.3429 11.5628C18.9536 11.7601 18.7936 12.2347 18.9909 12.6241C19.1882 13.0134 19.6629 13.1734 20.0522 12.976C20.4415 12.7787 20.6015 12.3041 20.4042 11.9148C20.2068 11.5254 19.7322 11.3708 19.3429 11.5628Z" fill="#0033AD"/>
<path d="M14.9453 6.86984C15.2493 6.88584 15.5106 6.65118 15.5319 6.3472C15.5533 6.04321 15.3133 5.78189 15.0093 5.76055C14.7053 5.74455 14.444 5.97388 14.4226 6.27787C14.4066 6.58719 14.6413 6.84851 14.9453 6.86984Z" fill="#0033AD"/>
<path d="M14.939 10.3525C15.3763 10.3792 15.7497 10.0432 15.771 9.60591C15.7976 9.16859 15.4617 8.79528 15.0243 8.77394C14.587 8.74728 14.2137 9.08326 14.1924 9.52058C14.1711 9.95789 14.5017 10.3312 14.939 10.3525Z" fill="#0033AD"/>
<path d="M10.6498 18.4374C11.0392 18.24 11.1991 17.7654 11.0018 17.3761C10.8045 16.9868 10.3299 16.8268 9.94054 17.0241C9.55122 17.2214 9.39123 17.6961 9.58855 18.0854C9.78588 18.4747 10.2605 18.6347 10.6498 18.4374Z" fill="#0033AD"/>
<path d="M15.4501 11.5098C15.0447 12.1338 15.2154 12.9658 15.8394 13.3711C16.4633 13.7764 17.2953 13.6057 17.7006 12.9818C18.1059 12.3578 17.9353 11.5258 17.3113 11.1205C17.0927 10.9765 16.8367 10.9019 16.5753 10.9019C16.122 10.9019 15.7007 11.1312 15.4501 11.5098Z" fill="#0033AD"/>
<path d="M17.7887 17.1415C17.4527 16.4748 16.6421 16.2082 15.9808 16.5441C15.3142 16.8801 15.0475 17.6908 15.3835 18.3521C15.7195 19.0187 16.5301 19.2854 17.1914 18.9494C17.8527 18.6187 18.1247 17.8188 17.7941 17.1521C17.7941 17.1468 17.7941 17.1468 17.7887 17.1415Z" fill="#0033AD"/>
<path d="M20.1413 17.0455C19.7733 16.8055 19.2826 16.9069 19.048 17.2749C18.808 17.6428 18.9093 18.1335 19.2773 18.3681C19.6453 18.6081 20.1359 18.5068 20.3706 18.1388C20.6106 17.7762 20.5092 17.2855 20.1413 17.0455Z" fill="#0033AD"/>
<path d="M22.724 15.0239C22.7453 14.6506 22.4627 14.3359 22.0893 14.3146C21.716 14.2933 21.4014 14.5759 21.38 14.9492C21.3587 15.3226 21.6414 15.6372 22.0147 15.6586C22.3827 15.6799 22.7026 15.3919 22.724 15.0239Z" fill="#0033AD"/>
<path d="M24.5841 14.5439C24.3441 14.5279 24.1361 14.7146 24.1254 14.9546C24.1148 15.1946 24.2961 15.4026 24.5361 15.4132C24.7761 15.4292 24.9787 15.2426 24.9947 15.0026C25.0054 14.7626 24.8241 14.5599 24.5841 14.5439Z" fill="#0033AD"/>
<path d="M22.8302 18.864C22.5742 18.6987 22.2329 18.768 22.0622 19.024C21.8969 19.28 21.9662 19.6213 22.2222 19.792C22.4782 19.9573 22.8195 19.888 22.9902 19.632C23.1609 19.376 23.0862 19.0293 22.8302 18.864Z" fill="#0033AD"/>
<path d="M10.4675 22.9278C10.2648 22.7945 9.99815 22.8531 9.86482 23.0505C9.73149 23.2531 9.79016 23.5198 9.98748 23.6531C10.1901 23.7864 10.4568 23.7278 10.5901 23.5305C10.7288 23.3331 10.6701 23.0611 10.4675 22.9278Z" fill="#0033AD"/>
<path d="M19.5973 22.885C19.384 22.9917 19.2986 23.2584 19.4053 23.4717C19.512 23.685 19.7786 23.7703 19.9919 23.6637C20.2053 23.557 20.2906 23.2957 20.1839 23.0824C20.0773 22.8637 19.8159 22.773 19.5973 22.885C19.6026 22.885 19.5973 22.885 19.5973 22.885Z" fill="#0033AD"/>
<path d="M14.5442 18.491C14.9496 17.867 14.7789 17.035 14.1549 16.6244C13.531 16.2191 12.699 16.3897 12.2883 17.0137C11.8777 17.6377 12.0537 18.4696 12.6777 18.8803C12.8963 19.0243 13.1523 19.0989 13.4136 19.0989C13.8723 19.1043 14.2936 18.8749 14.5442 18.491Z" fill="#0033AD"/>
<path d="M11.8479 20.5543C11.5386 20.3516 11.1173 20.4369 10.9146 20.7463C10.712 21.0556 10.7973 21.4769 11.1066 21.6795C11.4159 21.8822 11.8372 21.7969 12.0399 21.4876C12.2479 21.1782 12.1626 20.7569 11.8479 20.5543Z" fill="#0033AD"/>
<path d="M14.9903 23.1302C14.6863 23.1142 14.425 23.3488 14.4037 23.6528C14.3823 23.9568 14.6223 24.2181 14.9263 24.2395C15.2303 24.2555 15.4916 24.0261 15.513 23.7221C15.5289 23.4128 15.2943 23.1515 14.9903 23.1302Z" fill="#0033AD"/>
<path d="M14.9975 19.648C14.5602 19.6213 14.1869 19.9573 14.1655 20.3946C14.1389 20.8319 14.4749 21.2052 14.9122 21.2266C15.3495 21.2479 15.7228 20.9172 15.7441 20.4799C15.7708 20.048 15.4348 19.6693 14.9975 19.648Z" fill="#0033AD"/>
<path d="M18.2349 20.5015C17.9043 20.6722 17.7709 21.0775 17.9416 21.4081C18.1123 21.7388 18.5176 21.8721 18.8482 21.7015C19.1789 21.5361 19.3122 21.1308 19.1469 20.8002C18.9762 20.4695 18.5709 20.3309 18.2349 20.5015Z" fill="#0033AD"/>
</g>
<defs>
<clipPath id="clip0_391_26414">
<rect width="19.9992" height="18.4792" fill="white" transform="translate(5 5.76025)"/>
</clipPath>
</defs>
</svg>
