<svg width="30" height="30" viewBox="0 0 30 30" fill="none" xmlns="http://www.w3.org/2000/svg">
<rect width="30" height="30" rx="15" fill="white"/>
<g clip-path="url(#clip0_391_26410)">
<path d="M16.9295 24.0003C15.6451 24.0003 14.7075 23.6909 14.1169 23.0722C13.5698 22.5484 13.2524 21.8293 13.2339 21.0721C13.2272 20.8421 13.2805 20.6143 13.3886 20.4111C13.4893 20.2355 13.6349 20.0899 13.8104 19.989C14.0144 19.8872 14.2392 19.8343 14.4671 19.8343C14.6951 19.8343 14.9199 19.8872 15.1239 19.989C15.299 20.0895 15.4439 20.2353 15.5433 20.4111C15.6545 20.6133 15.7098 20.8415 15.7035 21.0721C15.715 21.3476 15.636 21.6193 15.4786 21.8456C15.3473 22.0304 15.1598 22.1676 14.944 22.2368C15.155 22.5055 15.4536 22.6916 15.7877 22.7628C16.1616 22.8714 16.5487 22.9272 16.938 22.9287C17.4534 22.9332 17.9582 22.7822 18.3865 22.4956C18.8309 22.1816 19.1622 21.7329 19.3315 21.2159C19.5461 20.6005 19.6508 19.9522 19.6409 19.3006C19.6582 18.6212 19.5436 17.945 19.3034 17.3092C19.1227 16.8008 18.7797 16.3659 18.3274 16.0717C17.907 15.8057 17.4189 15.6661 16.9214 15.6696C16.4879 15.7063 16.0698 15.8482 15.7035 16.083L14.8005 16.5358V16.083L18.859 10.6385H13.2339V16.2883C13.218 16.696 13.3258 17.099 13.5433 17.4443C13.6485 17.5947 13.7907 17.7155 13.9563 17.7948C14.1218 17.8741 14.3051 17.9093 14.4883 17.8971C14.8267 17.8902 15.154 17.7749 15.4219 17.568C15.7257 17.3454 15.99 17.0735 16.2039 16.7636C16.2231 16.7092 16.2586 16.6621 16.3056 16.6287C16.3433 16.5961 16.3914 16.5781 16.4412 16.578C16.5389 16.587 16.6314 16.6263 16.7056 16.6905C16.7996 16.7955 16.8508 16.932 16.849 17.073C16.8381 17.1677 16.8212 17.2616 16.7984 17.3542C16.5985 17.8379 16.2636 18.2537 15.8336 18.552C15.4342 18.8222 14.9625 18.9655 14.4803 18.9631C13.2625 18.9631 12.4188 18.7231 11.9492 18.2431C11.7079 17.9777 11.5219 17.667 11.4021 17.3289C11.2823 16.9908 11.2312 16.6323 11.2517 16.2742V10.6385H8.39062V9.58877H11.265V7.19528L10.6069 6.53673V6H12.5166L13.2339 6.37131V9.58877L20.6645 9.56617L21.4043 10.3087L16.848 14.8872C17.1232 14.7765 17.4131 14.7064 17.7085 14.679C18.2933 14.7046 18.8637 14.8675 19.3739 15.1544C19.9646 15.4352 20.4624 15.8795 20.8084 16.4345C21.1183 16.9044 21.3377 17.4281 21.4553 17.9786C21.5519 18.4129 21.6037 18.8559 21.61 19.3007C21.613 20.1496 21.4205 20.9878 21.0475 21.7503C20.6937 22.4888 20.0983 23.0842 19.3599 23.4379C18.604 23.8104 17.7722 24.0029 16.9295 24.0003Z" fill="#2C7DF7"/>
</g>
<defs>
<clipPath id="clip0_391_26410">
<rect width="13.2191" height="18.0003" fill="white" transform="translate(8.39062 6)"/>
</clipPath>
</defs>
</svg>
