<svg width="30" height="30" viewBox="0 0 30 30" fill="none" xmlns="http://www.w3.org/2000/svg">
<rect width="30" height="30" rx="15" fill="white"/>
<path d="M9.12971 21.7538L11.3903 17.8566L13.651 13.9721L15.8989 10.0749L16.2682 9.4572L16.4338 10.0749L17.1215 12.6412L16.351 13.9721L14.0904 17.8566L11.8425 21.7538H14.5425L16.8031 17.8566L17.9748 15.8379L18.5288 17.8566L19.5732 21.7538H21.9994L20.955 17.8566L19.9043 13.9721L19.6305 12.9723L21.3117 10.0749H18.86L18.7772 9.78834L17.9239 6.60435L17.8156 6.19043H15.4595L15.4022 6.27321L13.1989 10.0749L10.9382 13.9721L8.69032 17.8566L6.42969 21.7538H9.12971Z" fill="black"/>
</svg>
