<svg width="30" height="30" viewBox="0 0 30 30" fill="none" xmlns="http://www.w3.org/2000/svg">
<rect width="30" height="30" rx="15" fill="white"/>
<g clip-path="url(#clip0_391_26406)">
<path d="M14.9996 9.77534C16.7921 9.77534 18.2452 8.9302 18.2452 7.88767C18.2452 6.84514 16.7921 6 14.9996 6C13.207 6 11.7539 6.84514 11.7539 7.88767C11.7539 8.9302 13.207 9.77534 14.9996 9.77534Z" fill="#E6007A"/>
<path d="M14.9996 23.9985C16.7921 23.9985 18.2452 23.1533 18.2452 22.1108C18.2452 21.0683 16.7921 20.2231 14.9996 20.2231C13.207 20.2231 11.7539 21.0683 11.7539 22.1108C11.7539 23.1533 13.207 23.9985 14.9996 23.9985Z" fill="#E6007A"/>
<path d="M10.4765 12.3883C11.3728 10.8359 11.367 9.15465 10.4635 8.63303C9.56008 8.11142 8.10113 8.94698 7.20487 10.4993C6.3086 12.0516 6.31442 13.7329 7.21786 14.2545C8.1213 14.7761 9.58025 13.9406 10.4765 12.3883Z" fill="#E6007A"/>
<path d="M22.7946 19.4993C23.6909 17.947 23.6856 16.266 22.7827 15.7447C21.8799 15.2234 20.4214 16.0593 19.5252 17.6116C18.6289 19.1639 18.6342 20.8449 19.5371 21.3662C20.4399 21.8875 21.8984 21.0516 22.7946 19.4993Z" fill="#E6007A"/>
<path d="M10.4635 21.3655C11.367 20.8439 11.3728 19.1626 10.4765 17.6103C9.58025 16.0579 8.1213 15.2224 7.21786 15.744C6.31442 16.2656 6.3086 17.9469 7.20487 19.4992C8.10113 21.0516 9.56008 21.8871 10.4635 21.3655Z" fill="#E6007A"/>
<path d="M22.7827 14.2548C23.6856 13.7335 23.6909 12.0526 22.7946 10.5002C21.8984 8.94789 20.4399 8.11205 19.5371 8.63331C18.6342 9.15458 18.6289 10.8356 19.5252 12.3879C20.4214 13.9402 21.8799 14.7761 22.7827 14.2548Z" fill="#E6007A"/>
</g>
<defs>
<clipPath id="clip0_391_26406">
<rect width="16.9252" height="17.9999" fill="white" transform="translate(6.53906 6)"/>
</clipPath>
</defs>
</svg>
