<svg width="30" height="30" viewBox="0 0 30 30" fill="none"
  xmlns="http://www.w3.org/2000/svg">
  <rect width="30" height="30" rx="15" fill="white"/>
  <path fill-rule="evenodd" clip-rule="evenodd" d="M25.7461 15C25.7461 20.935 20.935 25.7461 15 25.7461C9.06509 25.7461 4.25391 20.935 4.25391 15C4.25391 9.06509 9.06509 4.25391 15 4.25391C20.935 4.25391 25.7461 9.06509 25.7461 15ZM11.9549 19.2764H9.86935C9.43112 19.2764 9.21465 19.2764 9.08267 19.192C8.9401 19.0995 8.85299 18.9464 8.84243 18.7774C8.8345 18.6218 8.94275 18.4316 9.15922 18.0515L14.3086 8.97496C14.5277 8.58953 14.6386 8.39682 14.7785 8.32555C14.929 8.24899 15.1085 8.24899 15.259 8.32555C15.3989 8.39682 15.5098 8.58953 15.7289 8.97496L16.7875 10.8229L16.7929 10.8323C17.0295 11.2458 17.1495 11.4555 17.2019 11.6756C17.26 11.9158 17.26 12.1692 17.2019 12.4095C17.1491 12.6312 17.0304 12.8424 16.7901 13.2622L14.0853 18.0436L14.0783 18.0558C13.8401 18.4727 13.7193 18.684 13.552 18.8434C13.3699 19.0177 13.1507 19.1443 12.9105 19.2157C12.6914 19.2764 12.4459 19.2764 11.9549 19.2764ZM17.2215 19.2764H20.2098C20.6506 19.2764 20.8724 19.2764 21.0045 19.1894C21.147 19.097 21.2367 18.9411 21.2448 18.7723C21.2523 18.6216 21.1465 18.4389 20.939 18.0808C20.9318 18.0686 20.9247 18.0562 20.9174 18.0436L19.4205 15.4829L19.4035 15.4541C19.1931 15.0984 19.0869 14.9188 18.9506 14.8494C18.8002 14.7728 18.6232 14.7728 18.4728 14.8494C18.3355 14.9206 18.2246 15.1081 18.0055 15.4856L16.514 18.0463L16.5089 18.0551C16.2905 18.432 16.1814 18.6203 16.1893 18.7749C16.1998 18.9439 16.287 19.0995 16.4295 19.192C16.5589 19.2764 16.7806 19.2764 17.2215 19.2764Z" fill="black"/>
</svg>
