<svg width="40" height="40" viewBox="0 0 40 40" fill="none" xmlns="http://www.w3.org/2000/svg">
<rect width="40" height="40" rx="20" fill="white"/>
<path d="M27.7633 12.978C26.1243 12.978 24.3375 13.8179 22.4491 15.4723C21.5532 16.2562 20.7794 17.0961 20.1992 17.768C20.1992 17.768 20.1992 17.768 20.2043 17.7731V17.768C20.2043 17.768 21.1205 18.7657 22.1335 19.8346C22.6782 19.1882 23.4621 18.3076 24.363 17.5135C26.0428 16.0424 27.1372 15.7319 27.7633 15.7319C30.1202 15.7319 32.0341 17.6 32.0341 19.8957C32.0341 22.1762 30.1151 24.0443 27.7633 24.0596C27.6564 24.0596 27.519 24.0443 27.3459 24.0087C28.0331 24.3039 28.7712 24.5177 29.4737 24.5177C33.7902 24.5177 34.6352 21.7028 34.6912 21.4992C34.8185 20.985 34.8846 20.4455 34.8846 19.8906C34.8846 16.0831 31.6879 12.978 27.7633 12.978Z" fill="url(#paint0_linear_391_26243)"/>
<path d="M12.6838 26.8236C14.3229 26.8236 16.1096 25.9837 17.9981 24.3294C18.894 23.5454 19.6677 22.7056 20.2479 22.0336C20.2479 22.0336 20.2479 22.0336 20.2428 22.0285V22.0336C20.2428 22.0336 19.3267 21.0359 18.3137 19.967C17.769 20.6134 16.9851 21.4941 16.0841 22.2881C14.4043 23.7592 13.3099 24.0697 12.6838 24.0697C10.327 24.0647 8.41306 22.1965 8.41306 19.9008C8.41306 17.6203 10.3321 15.7522 12.6838 15.7369C12.7907 15.7369 12.9281 15.7522 13.1012 15.7878C12.414 15.4926 11.6759 15.2788 10.9735 15.2788C6.65691 15.2788 5.81701 18.0937 5.75593 18.2923C5.62867 18.8115 5.5625 19.346 5.5625 19.9008C5.5625 23.7185 8.7592 26.8236 12.6838 26.8236Z" fill="url(#paint1_linear_391_26243)"/>
<path d="M29.4594 24.4566C27.2501 24.4006 24.9545 22.6598 24.4861 22.2271C23.2747 21.1072 20.4801 18.0785 20.2613 17.8393C18.2149 15.5435 15.4407 12.978 12.6818 12.978H12.6767H12.6716C9.3222 12.9933 6.50727 15.2636 5.75391 18.2923C5.8099 18.0938 6.9145 15.2228 10.9664 15.3247C13.1755 15.3806 15.4814 17.147 15.9549 17.5797C17.1663 18.6995 19.961 21.7282 20.1798 21.9675C22.2261 24.2581 25.0003 26.8236 27.7592 26.8236H27.7643H27.7694C31.1188 26.8084 33.9388 24.5381 34.6871 21.5094C34.626 21.7079 33.5163 24.5534 29.4594 24.4566Z" fill="#29ABE2"/>
<defs>
<linearGradient id="paint0_linear_391_26243" x1="24.0563" y1="13.891" x2="33.7385" y2="23.9172" gradientUnits="userSpaceOnUse">
<stop offset="0.21" stop-color="#F15A24"/>
<stop offset="0.6841" stop-color="#FBB03B"/>
</linearGradient>
<linearGradient id="paint1_linear_391_26243" x1="16.3908" y1="25.9106" x2="6.70858" y2="15.8844" gradientUnits="userSpaceOnUse">
<stop offset="0.21" stop-color="#ED1E79"/>
<stop offset="0.8929" stop-color="#522785"/>
</linearGradient>
</defs>
</svg>
