<svg width="737" height="722" viewBox="0 0 737 722" fill="none" xmlns="http://www.w3.org/2000/svg">
<path opacity="0.5" d="M81.2202 417.469L3.75705 461.972C0.347911 463.943 0.347911 468.825 3.75705 470.703L36.5226 489.48C39.7424 491.358 39.7424 495.959 36.5226 497.836L32.3559 500.184C28.9468 502.155 28.9468 507.037 32.3559 508.915L52.0531 520.181" stroke="url(#paint0_linear_14211_91635)" stroke-width="1.4" stroke-miterlimit="10" stroke-linecap="round" stroke-linejoin="round"/>
<path d="M473.928 117.088L544.692 130.686L484.708 184.776L473.928 117.088Z" fill="url(#paint1_linear_14211_91635)"/>
<path d="M473.928 117.088L466.861 100.596L544.692 130.686L473.928 117.088Z" fill="url(#paint2_linear_14211_91635)"/>
<path d="M466.861 100.596L484.709 184.776L473.929 117.088L466.861 100.596Z" fill="url(#paint3_linear_14211_91635)"/>
<path d="M574.955 287.407H515.955L528.018 348.795H587.018L574.955 287.407Z" fill="url(#paint4_linear_14211_91635)"/>
<path d="M574.955 287.407L601.827 261.012H542.708L515.955 287.407H574.955Z" fill="url(#paint5_linear_14211_91635)"/>
<path d="M601.828 261.012L574.956 287.407L587.019 348.795L613.772 322.4L601.828 261.012Z" fill="url(#paint6_linear_14211_91635)"/>
<path d="M117.409 246.51L145.825 281.062L175.966 244.431L147.55 209.879L117.409 246.51Z" fill="url(#paint7_linear_14211_91635)"/>
<path d="M117.41 246.51L89.0096 243.485L117.483 278.107L145.826 281.062L117.41 246.51Z" fill="url(#paint8_linear_14211_91635)"/>
<path d="M89.0096 243.485L117.41 246.51L147.551 209.879L119.208 206.924L89.0096 243.485Z" fill="url(#paint9_linear_14211_91635)"/>
<path d="M147.415 431.264L96.1782 401.645C94.0284 400.45 91.5203 400.45 89.3706 401.645L38.4922 431.264C37.1784 432.1 37.1784 434.011 38.4922 434.727L89.7288 464.347C91.8786 465.541 94.3867 465.541 96.5365 464.347L147.415 434.727C148.729 434.011 148.729 432.1 147.415 431.264Z" fill="url(#paint10_linear_14211_91635)"/>
<path d="M70.9804 412.394L30.1343 436.161H19.1465V443.685C19.1465 444.402 19.5048 444.999 20.102 445.476L71.3386 475.096C72.4135 475.693 73.7273 476.051 74.9216 475.932V411.558C73.6079 411.438 72.1747 411.796 70.9804 412.394Z" fill="url(#paint11_linear_14211_91635)"/>
<path d="M118.872 436.161L77.6681 412.394C76.8321 411.916 75.8767 411.558 74.8018 411.558V475.932C75.8767 475.932 76.9516 475.574 78.0265 474.976L128.905 445.357C129.621 444.999 129.86 444.282 129.86 443.566V436.041H118.872V436.161Z" fill="url(#paint12_linear_14211_91635)"/>
<path d="M129.024 434.489L77.7876 404.869C75.6378 403.675 73.1297 403.675 70.9799 404.869L20.1015 434.489C18.7878 435.325 18.7878 437.236 20.1015 437.952L71.3382 467.572C73.488 468.766 75.9961 468.766 78.1459 467.572L129.024 437.952C130.338 437.116 130.338 435.205 129.024 434.489Z" fill="url(#paint13_linear_14211_91635)"/>
<g opacity="0.53">
<path d="M108.6 435.444C106.928 434.488 104.301 434.488 102.629 435.444C101.195 436.28 101.076 437.474 102.031 438.43L90.327 445.237L81.489 440.102L68.7096 447.507L56.1692 440.221L65.2461 434.966C66.9181 435.563 69.068 435.444 70.3817 434.608C72.0538 433.652 72.0538 432.1 70.3817 431.144C68.7097 430.189 65.9627 430.189 64.4101 431.144C62.9769 431.98 62.8575 433.175 63.8129 434.13L53.3028 440.221L67.2765 448.343L52.4668 456.942L53.9 457.778L81.489 441.774L90.327 446.909L103.465 439.266C105.137 439.863 107.286 439.743 108.6 438.907C110.272 437.952 110.153 436.399 108.6 435.444Z" fill="url(#paint14_linear_14211_91635)"/>
<path d="M97.0157 416.454L95.5825 415.618L78.8619 425.292L69.5462 419.918L48.2871 432.219C46.6151 431.622 44.4653 431.742 43.1515 432.578C41.4794 433.533 41.4794 435.086 43.1515 436.041C44.8236 436.997 47.5705 436.997 49.1231 436.041C50.5563 435.205 50.6758 434.011 49.7203 433.055L69.5462 421.59L78.8619 426.964L97.0157 416.454Z" fill="url(#paint15_linear_14211_91635)"/>
</g>
<path d="M108.362 435.086C106.69 434.13 104.062 434.13 102.39 435.086C100.957 435.922 100.838 437.116 101.793 438.071L90.0887 444.879L81.2507 439.743L68.4714 447.148L55.9309 439.863L65.0078 434.608C66.6799 435.205 68.8297 435.086 70.1434 434.25C71.8155 433.294 71.8155 431.741 70.1434 430.786C68.4714 429.83 65.7244 429.83 64.1718 430.786C62.7386 431.622 62.6192 432.816 63.5746 433.772L53.0646 439.863L67.0382 447.984L52.2285 456.583L53.6617 457.419L81.2507 441.415L90.0887 446.551L103.226 438.907C104.898 439.505 107.048 439.385 108.362 438.549C110.034 437.594 109.915 436.041 108.362 435.086Z" fill="url(#paint16_linear_14211_91635)"/>
<path d="M96.7774 416.096L95.3442 415.26L78.6236 424.934L69.3078 419.559L48.0488 431.861C46.3768 431.264 44.227 431.383 42.9132 432.219C41.2412 433.175 41.2412 434.727 42.9132 435.683C44.5853 436.638 47.3322 436.638 48.8849 435.683C50.3181 434.847 50.4375 433.652 49.482 432.697L69.3078 421.231L78.6236 426.606L96.7774 416.096Z" fill="url(#paint17_linear_14211_91635)"/>
<path d="M223.852 384.685L172.616 355.066C170.466 353.872 167.958 353.872 165.808 355.066L114.93 384.685C113.616 385.521 113.616 387.432 114.93 388.149L166.166 417.768C168.316 418.962 170.824 418.962 172.974 417.768L223.852 388.149C225.166 387.432 225.166 385.521 223.852 384.685Z" fill="url(#paint18_linear_14211_91635)"/>
<path d="M147.416 365.815L106.57 389.582H95.582V397.106C95.582 397.823 95.9404 398.42 96.5375 398.898L147.774 428.517C148.849 429.114 150.163 429.472 151.357 429.353V364.979C150.043 364.859 148.61 365.218 147.416 365.815Z" fill="url(#paint19_linear_14211_91635)"/>
<path d="M195.308 389.582L154.104 365.815C153.268 365.337 152.312 364.979 151.237 364.979V429.353C152.312 429.353 153.387 428.995 154.462 428.398L205.34 398.778C206.057 398.42 206.296 397.703 206.296 396.987V389.462H195.308V389.582Z" fill="url(#paint20_linear_14211_91635)"/>
<path d="M205.46 387.91L154.223 358.291C152.073 357.096 149.565 357.096 147.415 358.291L96.5371 387.91C95.2233 388.746 95.2233 390.657 96.5371 391.373L147.774 420.993C149.924 422.187 152.432 422.187 154.581 420.993L205.46 391.373C206.774 390.537 206.774 388.626 205.46 387.91Z" fill="url(#paint21_linear_14211_91635)"/>
<g opacity="0.53">
<path d="M185.036 388.866C183.364 387.91 180.736 387.91 179.064 388.866C177.631 389.702 177.512 390.896 178.467 391.851L166.763 398.659L157.925 393.523L145.145 400.928L132.605 393.643L141.682 388.388C143.354 388.985 145.504 388.866 146.817 388.03C148.489 387.074 148.489 385.521 146.817 384.566C145.145 383.61 142.398 383.61 140.846 384.566C139.412 385.402 139.293 386.596 140.248 387.552L129.738 393.643L143.712 401.764L128.902 410.363L130.336 411.199L157.925 395.195L166.763 400.331L179.9 392.687C181.572 393.285 183.722 393.165 185.036 392.329C186.708 391.374 186.588 389.821 185.036 388.866Z" fill="url(#paint22_linear_14211_91635)"/>
<path d="M173.451 369.876L172.018 369.04L155.297 378.714L145.982 373.339L124.723 385.641C123.051 385.044 120.901 385.163 119.587 385.999C117.915 386.954 117.915 388.507 119.587 389.463C121.259 390.418 124.006 390.418 125.559 389.463C126.992 388.627 127.111 387.432 126.156 386.477L145.982 375.011L155.297 380.386L173.451 369.876Z" fill="url(#paint23_linear_14211_91635)"/>
</g>
<path d="M184.798 388.507C183.126 387.551 180.499 387.551 178.827 388.507C177.394 389.343 177.274 390.537 178.23 391.493L166.525 398.3L157.687 393.165L144.908 400.57L132.367 393.284L141.444 388.029C143.116 388.626 145.266 388.507 146.58 387.671C148.252 386.715 148.252 385.163 146.58 384.207C144.908 383.252 142.161 383.252 140.608 384.207C139.175 385.043 139.056 386.238 140.011 387.193L129.501 393.284L143.475 401.406L128.665 410.005L130.098 410.841L157.687 394.837L166.525 399.972L179.663 392.329C181.335 392.926 183.485 392.806 184.798 391.97C186.471 391.015 186.351 389.462 184.798 388.507Z" fill="url(#paint24_linear_14211_91635)"/>
<path d="M173.214 369.517L171.781 368.681L155.06 378.355L145.744 372.981L124.485 385.282C122.813 384.685 120.664 384.805 119.35 385.641C117.678 386.596 117.678 388.149 119.35 389.104C121.022 390.06 123.769 390.06 125.321 389.104C126.755 388.268 126.874 387.074 125.919 386.118L145.744 374.653L155.06 380.027L173.214 369.517Z" fill="url(#paint25_linear_14211_91635)"/>
<path d="M637.743 518.502C637.545 513.369 636.773 509.04 630.983 505.682L360.607 348.723C350.081 342.613 331.665 343.33 319.479 350.333L54.2591 502.605C46.2309 507.215 44.4664 513.082 44.5767 518.827C44.505 521.138 44.5436 522.632 44.5767 524.479C44.4609 529.596 45.3211 534.222 51.2706 537.652L322.004 693.972C332.547 700.037 350.958 699.293 363.133 692.263L627.972 539.361C635.813 534.834 637.716 529.161 637.71 523.47C637.522 521.819 637.533 520.151 637.743 518.502Z" fill="url(#paint26_radial_14211_91635)"/>
<path d="M321.662 683.302L51.2863 526.343C40.7603 520.233 42.1112 509.603 54.297 502.633L319.517 350.36C331.708 343.358 350.119 342.641 360.651 348.75L631.026 505.71C641.552 511.819 640.201 522.45 628.016 529.42L362.796 681.698C350.604 688.695 332.193 689.417 321.662 683.302Z" fill="url(#paint27_linear_14211_91635)"/>
<path d="M322.473 631.664L130.109 520.602C119.798 514.647 121.088 504.243 133.004 497.367L319.578 389.647C331.494 382.771 349.514 382.021 359.83 387.993L552.195 499.054C562.506 505.009 561.215 515.414 549.3 522.29L362.719 629.993C350.804 636.875 332.784 637.619 322.473 631.664Z" fill="url(#paint28_radial_14211_91635)"/>
<g style="mix-blend-mode:overlay" opacity="0.22">
<path fill-rule="evenodd" clip-rule="evenodd" d="M322.473 631.664L130.109 520.603C119.798 514.647 121.088 504.243 133.004 497.367L319.578 389.647C331.494 382.771 349.514 382.021 359.83 387.993L552.195 499.054C562.506 505.009 561.215 515.414 549.3 522.29L362.719 629.993C350.804 636.875 332.784 637.619 322.473 631.664Z" stroke="white" stroke-width="0.370621"/>
</g>
<path d="M130.109 520.713L146.386 530.087L319.578 430.119C331.494 423.243 349.514 422.493 359.83 428.465L535.917 530.125L549.3 522.406C561.215 515.53 562.533 505.125 552.195 499.17L359.825 388.086C349.514 382.131 331.494 382.881 319.573 389.741L133.004 497.477C121.088 504.353 119.798 514.758 130.109 520.713Z" fill="url(#paint29_radial_14211_91635)"/>
<g style="mix-blend-mode:overlay" opacity="0.35">
<path d="M322.473 323.684L130.109 212.622C119.798 206.667 121.088 196.262 133.004 189.387L319.578 81.6665C331.494 74.7906 349.514 74.0407 359.83 80.0123L552.195 191.074C562.506 197.029 561.215 207.434 549.3 214.31L362.719 322.013C350.804 328.894 332.784 329.639 322.473 323.684Z" fill="url(#paint30_radial_14211_91635)"/>
</g>
<path fill-rule="evenodd" clip-rule="evenodd" d="M341.396 74.708C341.397 74.708 341.397 74.708 341.397 74.708V74.697C347.948 74.697 354.206 76.0204 358.876 78.7167L551.235 189.806C561.579 195.761 560.261 206.166 548.346 213.041L361.771 320.762C355.254 324.522 346.911 326.452 338.998 326.452C332.448 326.452 326.195 325.129 321.519 322.432L129.16 211.354C118.844 205.399 120.14 194.994 132.05 188.119L318.63 80.3984C325.142 76.638 333.49 74.7081 341.396 74.708ZM358.6 79.2072C354.194 76.6598 348.085 75.2592 341.396 75.2592C333.285 75.2592 325.086 77.3049 318.905 80.8779L132.303 188.582C126.215 192.11 122.725 196.726 122.725 201.264C122.725 204.974 125.102 208.388 129.413 210.88L321.794 321.936C326.206 324.483 332.315 325.884 338.998 325.884C347.114 325.884 355.308 323.838 361.495 320.271L548.07 212.562C554.157 209.033 557.647 204.418 557.647 199.88C557.647 196.169 555.276 192.756 550.959 190.263L358.6 79.2072Z" fill="url(#paint31_radial_14211_91635)"/>
<g style="mix-blend-mode:overlay" opacity="0.9">
<path d="M559.02 205.614C559.709 201.291 557.482 197.062 552.188 194.001L359.824 82.9453C349.513 76.9847 331.493 77.7346 319.572 84.5995L133.003 192.331C125.769 196.51 122.455 201.985 123.276 206.976C123.111 207.99 123.111 507.997 123.276 508.99C122.587 513.313 124.815 517.548 130.108 520.602L322.473 631.664C332.784 637.619 350.803 636.875 362.724 630.01L549.299 522.29C556.533 518.116 559.847 512.64 559.026 507.645C559.191 506.646 559.191 505.627 559.026 504.628C559.186 503.592 559.186 206.606 559.02 205.614Z" fill="url(#paint32_linear_14211_91635)"/>
</g>
<path d="M563.132 499.4L512.851 470.02L426.979 519.584C417.185 519.943 407.63 522.212 400.226 526.511C384.222 535.827 384.341 550.756 400.464 560.072C416.468 569.388 442.505 569.388 458.389 560.072C459.464 559.475 460.42 558.758 461.375 558.161L563.132 499.4Z" fill="url(#paint33_linear_14211_91635)"/>
<path d="M468.66 504.416C466.868 500.594 463.285 496.892 458.03 493.906C441.907 484.59 415.99 484.59 400.105 493.906C394.85 496.892 391.387 500.594 389.595 504.416H388.162V509.074V543.829C388.162 549.92 392.223 556.011 400.225 560.669C416.229 569.985 442.265 569.985 458.15 560.669C466.152 556.011 470.093 549.92 470.093 543.829V508.358V504.536H468.66V504.416Z" fill="url(#paint34_linear_14211_91635)"/>
<path d="M458.151 487.696C442.027 478.38 416.11 478.38 400.226 487.696C384.222 497.012 384.341 511.941 400.464 521.256C416.468 530.572 442.505 530.572 458.389 521.256C474.274 511.941 474.155 496.892 458.151 487.696Z" fill="url(#paint35_linear_14211_91635)"/>
<path d="M429.366 526.87C418.617 526.87 408.585 524.481 400.941 520.062C393.536 515.762 389.476 510.269 389.476 504.297C389.476 498.445 393.417 492.951 400.702 488.651C408.227 484.232 418.259 481.844 429.008 481.844C439.757 481.844 449.789 484.232 457.433 488.651C464.838 492.951 468.898 498.445 468.898 504.416C468.898 510.269 464.957 515.762 457.672 520.062C450.147 524.481 440.115 526.87 429.366 526.87Z" fill="url(#paint36_linear_14211_91635)"/>
<path d="M418.976 504.894L424.47 501.789L428.651 504.178C429.725 504.775 430.323 505.372 430.323 505.969C430.442 506.566 429.964 507.163 429.128 507.641C427.337 508.716 425.426 508.596 423.157 507.283L418.976 504.894ZM428.412 499.281L433.667 496.295L437.489 498.445C439.519 499.639 439.758 500.714 437.966 501.789C436.294 502.744 434.383 502.744 432.353 501.55L428.412 499.281ZM448.715 495.817L445.849 494.145L442.624 496.056L439.399 494.265L442.624 492.354L439.758 490.682L436.533 492.593L432.353 490.204L408.228 504.297L412.408 506.686L409.661 508.238L412.527 509.91L415.274 508.358L418.499 510.149L415.752 511.702L418.618 513.374L421.485 511.702C423.395 512.538 425.426 513.135 427.337 513.135C429.845 513.254 432.234 512.777 434.264 511.463C435.697 510.627 436.533 509.671 436.653 508.597C436.891 507.522 436.414 506.447 435.339 505.372C436.891 505.969 438.563 506.208 440.355 506.088C442.146 505.969 443.699 505.491 445.132 504.655C447.163 503.461 447.999 502.267 447.64 500.833C447.402 499.878 446.685 498.803 445.371 497.848L448.715 495.817Z" fill="url(#paint37_linear_14211_91635)"/>
<path opacity="0.5" d="M388.162 515.046C388.162 521.137 392.223 527.228 400.225 531.886C416.229 541.201 442.265 541.201 458.15 531.886C466.152 527.228 470.093 521.137 470.093 515.046" stroke="url(#paint38_linear_14211_91635)" stroke-width="1.4" stroke-miterlimit="10" stroke-linecap="round" stroke-linejoin="round"/>
<path opacity="0.5" d="M388.162 525.078C388.162 531.169 392.223 537.26 400.225 541.918C416.229 551.234 442.265 551.234 458.15 541.918C466.152 537.26 470.093 531.169 470.093 525.078" stroke="url(#paint39_linear_14211_91635)" stroke-width="1.4" stroke-miterlimit="10" stroke-linecap="round" stroke-linejoin="round"/>
<path opacity="0.5" d="M388.162 534.872C388.162 540.963 392.223 547.054 400.225 551.712C416.229 561.028 442.265 561.028 458.15 551.712C466.152 547.054 470.093 540.963 470.093 534.872" stroke="url(#paint40_linear_14211_91635)" stroke-width="1.4" stroke-miterlimit="10" stroke-linecap="round" stroke-linejoin="round"/>
<path opacity="0.65" d="M388.162 516.001C388.162 522.092 392.223 528.183 400.225 532.841C416.229 542.157 442.265 542.157 458.15 532.841C466.152 528.183 470.093 522.092 470.093 516.001" stroke="url(#paint41_linear_14211_91635)" stroke-width="1.4" stroke-miterlimit="10" stroke-linecap="round" stroke-linejoin="round"/>
<path opacity="0.65" d="M388.162 526.034C388.162 532.125 392.223 538.216 400.225 542.874C416.229 552.189 442.265 552.189 458.15 542.874C466.152 538.216 470.093 532.125 470.093 526.034" stroke="url(#paint42_linear_14211_91635)" stroke-width="1.4" stroke-miterlimit="10" stroke-linecap="round" stroke-linejoin="round"/>
<path opacity="0.65" d="M388.162 535.827C388.162 541.918 392.223 548.01 400.225 552.667C416.229 561.983 442.265 561.983 458.15 552.667C466.152 548.01 470.093 541.918 470.093 535.827" stroke="url(#paint43_linear_14211_91635)" stroke-width="1.4" stroke-miterlimit="10" stroke-linecap="round" stroke-linejoin="round"/>
<path d="M512.585 378.859C494.975 368.675 480.759 376.843 480.653 397C480.547 417.156 494.762 441.768 512.373 451.952C529.983 462.136 544.198 453.968 544.305 433.705C544.305 413.549 530.195 389.043 512.585 378.859Z" fill="url(#paint44_linear_14211_91635)"/>
<path d="M507.282 381.299C489.672 371.115 475.456 379.284 475.35 399.44C475.244 419.596 489.46 444.208 507.07 454.392C524.68 464.577 538.896 456.408 539.002 436.146C539.002 416.095 524.892 391.483 507.282 381.299Z" fill="url(#paint45_linear_14211_91635)"/>
<path d="M521.391 457.469C517.147 457.469 512.586 456.09 507.812 453.331C490.626 443.359 476.729 419.278 476.729 399.546C476.729 386.497 482.988 378.329 493.066 378.329C497.203 378.329 501.977 379.814 506.751 382.572C523.937 392.438 537.834 416.626 537.834 436.358C537.622 449.406 531.363 457.469 521.391 457.469Z" fill="url(#paint46_linear_14211_91635)"/>
<path d="M500.599 423.839V417.368L504.843 419.808C505.904 420.445 506.752 421.187 507.389 422.142C507.919 423.097 508.237 424.052 508.237 425.006C508.237 427.128 507.071 427.552 504.843 426.279L500.599 423.839ZM500.599 412.488V406.335L504.524 408.563C506.646 409.836 507.707 411.427 507.707 413.443C507.707 415.459 506.646 415.883 504.524 414.716L500.599 412.488ZM508.025 401.137L505.055 399.44V403.259L501.766 401.349V397.53L498.796 395.833V399.652L494.552 397.212L494.446 425.961L498.69 428.401V431.69L501.66 433.387V430.099L504.949 432.008V435.297L507.919 436.994V433.599C509.723 434.342 511.208 434.554 512.269 434.13C513.754 433.599 514.39 432.008 514.39 429.568C514.39 427.871 513.966 426.173 513.117 424.37C512.269 422.566 510.996 421.081 509.511 419.808C510.784 420.233 511.844 420.126 512.693 419.384C513.542 418.641 513.86 417.474 513.86 415.777C513.86 413.443 513.224 411.215 511.844 409.2C510.89 407.714 509.617 406.441 508.025 405.274V401.137Z" fill="url(#paint47_linear_14211_91635)"/>
<path d="M598.126 576.315L720.067 505.85L751 523.645L629.059 594.111L598.126 576.315Z" fill="url(#paint48_linear_14211_91635)"/>
<path d="M629.06 551.951L598.127 534.036L629.06 516.24L659.993 534.036L629.06 551.951Z" fill="url(#paint49_linear_14211_91635)"/>
<path d="M629.061 551.951V594.11L659.994 576.315V534.036L629.061 551.951Z" fill="url(#paint50_linear_14211_91635)"/>
<path d="M629.06 551.951L598.127 534.036V576.315L629.06 594.11V551.951Z" fill="url(#paint51_linear_14211_91635)"/>
<path opacity="0.07" d="M629.06 594.111L598.127 576.315L629.06 558.4L659.993 576.315L629.06 594.111Z" fill="url(#paint52_linear_14211_91635)"/>
<g opacity="0.4">
<path d="M659.994 544.785L629.061 575.718V585.75L659.994 554.817V544.785Z" fill="url(#paint53_linear_14211_91635)"/>
</g>
<path d="M438.325 705.064L549.278 641.048L577.345 657.29L466.392 721.306L438.325 705.064Z" fill="url(#paint54_linear_14211_91635)"/>
<path d="M466.392 611.667L438.325 595.424L466.392 579.181L494.459 595.424L466.392 611.667Z" fill="url(#paint55_linear_14211_91635)"/>
<path d="M466.392 611.667V721.306L494.458 705.063V595.424L466.392 611.667Z" fill="url(#paint56_linear_14211_91635)"/>
<path d="M466.392 611.667L438.325 595.424V705.063L466.392 721.306V611.667Z" fill="url(#paint57_linear_14211_91635)"/>
<path opacity="0.29" d="M466.392 721.306L438.325 705.063L466.392 688.94L494.459 705.063L466.392 721.306Z" fill="url(#paint58_linear_14211_91635)"/>
<path opacity="0.5" d="M516.314 692.523L527.183 698.853C537.335 704.705 549.995 704.705 560.146 698.853L683.043 627.91C690.686 623.491 690.686 612.503 683.162 608.084L644.466 585.272" stroke="url(#paint59_linear_14211_91635)" stroke-width="1.4" stroke-miterlimit="10" stroke-linecap="round" stroke-linejoin="round"/>
<path d="M279.181 623.536L289.811 580.54C290.169 579.346 289.572 578.032 288.497 577.435L232.602 545.188C231.408 544.471 229.736 545.188 229.378 546.502L218.509 590.333C218.151 591.528 218.748 592.841 219.823 593.439L274.882 625.208C276.673 626.163 278.704 625.327 279.181 623.536Z" fill="url(#paint60_linear_14211_91635)"/>
<path d="M215.523 594.036L171.691 619.356C170.496 620.072 170.496 621.744 171.691 622.461L226.51 654.111C228.182 655.066 230.213 655.066 231.885 654.111L274.642 629.388C275.836 628.672 275.836 626.999 274.642 626.283L218.747 594.036C217.792 593.439 216.478 593.439 215.523 594.036Z" fill="url(#paint61_linear_14211_91635)"/>
<path d="M278.225 622.7L288.855 579.704C289.213 578.51 288.616 577.196 287.541 576.599L231.646 544.352C230.452 543.635 228.78 544.352 228.422 545.666L217.553 589.497C217.195 590.692 217.792 592.006 218.867 592.603L273.926 624.372C275.717 625.327 277.748 624.491 278.225 622.7Z" fill="url(#paint62_linear_14211_91635)"/>
<path d="M275.479 622.461C275.359 622.461 275.359 622.461 275.24 622.461L220.181 590.572C220.062 590.453 219.942 590.334 219.942 590.095L230.691 546.502L286.228 578.629C286.347 578.749 286.466 578.868 286.466 579.107L275.837 622.103C275.837 622.342 275.598 622.461 275.479 622.461Z" fill="url(#paint63_linear_14211_91635)"/>
<path d="M215.523 592.603L171.691 617.922C170.496 618.639 170.496 620.311 171.691 621.028L226.51 652.677C228.182 653.633 230.213 653.633 231.885 652.677L274.642 627.955C275.836 627.238 275.836 625.566 274.642 624.849L218.747 592.603C217.792 591.886 216.478 591.886 215.523 592.603Z" fill="url(#paint64_linear_14211_91635)"/>
<path d="M236.304 591.528L239.887 577.196" stroke="#0061CA" stroke-width="1.4" stroke-miterlimit="10" stroke-linecap="round" stroke-linejoin="round"/>
<path d="M244.425 596.305L247.769 582.69" stroke="#CFE7FD" stroke-width="1.4" stroke-miterlimit="10" stroke-linecap="round" stroke-linejoin="round"/>
<path d="M252.546 600.963L258.398 577.196" stroke="#DA8FDA" stroke-width="1.4" stroke-miterlimit="10" stroke-linecap="round" stroke-linejoin="round"/>
<path d="M260.669 605.62L263.058 595.588" stroke="#0061CA" stroke-width="1.4" stroke-miterlimit="10" stroke-linecap="round" stroke-linejoin="round"/>
<path d="M280.256 585.317C279.659 587.706 277.867 588.781 276.195 587.706C274.523 586.631 273.568 583.765 274.165 581.376C274.762 578.987 276.554 577.912 278.226 578.987C279.898 580.062 280.853 582.929 280.256 585.317Z" fill="url(#paint65_linear_14211_91635)"/>
<path d="M271.177 611.712L260.667 605.621L228.182 586.87L233.795 563.939" stroke="#0061CA" stroke-width="1.4" stroke-miterlimit="10" stroke-linecap="round" stroke-linejoin="round"/>
<path d="M228.182 608.129L222.211 604.785L216.358 608.129L222.211 611.593L228.182 608.129Z" fill="url(#paint66_linear_14211_91635)"/>
<path d="M236.544 613.026L230.572 609.562L224.72 613.026L230.691 616.489L236.544 613.026Z" fill="url(#paint67_linear_14211_91635)"/>
<path d="M244.903 617.923L239.051 614.459L233.079 617.923L239.051 621.267L244.903 617.923Z" fill="url(#paint68_linear_14211_91635)"/>
<path d="M253.263 622.7L247.411 619.236L241.439 622.7L247.411 626.163L253.263 622.7Z" fill="url(#paint69_linear_14211_91635)"/>
<path d="M219.943 612.906L213.971 609.562L208.119 612.906L214.091 616.37L219.943 612.906Z" fill="url(#paint70_linear_14211_91635)"/>
<path d="M228.302 617.803L222.45 614.34L216.479 617.803L222.45 621.267L228.302 617.803Z" fill="url(#paint71_linear_14211_91635)"/>
<path d="M236.782 622.7L230.811 619.236L224.839 622.7L230.811 626.044L236.782 622.7Z" fill="url(#paint72_linear_14211_91635)"/>
<path d="M245.142 627.477L239.171 624.014L233.318 627.477L239.171 630.941L245.142 627.477Z" fill="url(#paint73_linear_14211_91635)"/>
<path d="M211.701 617.684L205.849 614.34L199.877 617.684L205.849 621.147L211.701 617.684Z" fill="url(#paint74_linear_14211_91635)"/>
<path d="M220.181 622.58L214.21 619.117L208.357 622.58L214.21 626.044L220.181 622.58Z" fill="url(#paint75_linear_14211_91635)"/>
<path d="M228.542 627.358L222.57 624.014L216.718 627.358L222.689 630.822L228.542 627.358Z" fill="url(#paint76_linear_14211_91635)"/>
<path d="M236.902 632.255L230.93 628.791L225.078 632.255L231.05 635.718L236.902 632.255Z" fill="url(#paint77_linear_14211_91635)"/>
<path d="M203.58 622.461L197.608 618.997L191.756 622.461L197.608 625.924L203.58 622.461Z" fill="url(#paint78_linear_14211_91635)"/>
<path d="M211.94 627.358L205.968 623.894L200.116 627.358L206.088 630.702L211.94 627.358Z" fill="url(#paint79_linear_14211_91635)"/>
<path d="M220.3 632.135L214.448 628.791L208.477 632.135L214.448 635.599L220.3 632.135Z" fill="url(#paint80_linear_14211_91635)"/>
<path d="M228.78 637.032L222.809 633.569L216.837 637.032L222.809 640.496L228.78 637.032Z" fill="url(#paint81_linear_14211_91635)"/>
<path d="M61.5365 332.62C67.0786 330.492 69.8466 324.275 67.719 318.733C65.5915 313.19 59.3739 310.422 53.8318 312.55C48.2897 314.678 45.5216 320.895 47.6492 326.437C49.7768 331.979 55.9944 334.747 61.5365 332.62Z" fill="url(#paint82_linear_14211_91635)"/>
<path d="M213.515 222.975C221.027 220.091 224.78 211.663 221.896 204.15C219.012 196.638 210.583 192.885 203.071 195.769C195.558 198.653 191.806 207.082 194.69 214.594C197.574 222.107 206.002 225.859 213.515 222.975Z" fill="url(#paint83_linear_14211_91635)"/>
<path d="M64.1542 300.783C67.2331 299.601 68.7709 296.147 67.5889 293.068C66.4069 289.989 62.9527 288.451 59.8738 289.633C56.7948 290.815 55.257 294.269 56.439 297.348C57.621 300.427 61.0752 301.965 64.1542 300.783Z" fill="url(#paint84_linear_14211_91635)"/>
<g style="mix-blend-mode:overlay" opacity="0.22">
<path d="M449.804 314.875L449.637 314.953L449.637 314.954L449.804 314.875ZM416.544 269.308L416.491 269.131L416.18 269.224L416.419 269.444L416.544 269.308ZM453.027 226.465L452.841 226.464V226.465H453.027ZM428.892 148.407L429.044 148.302L429.044 148.301L428.892 148.407ZM381.268 100.762H381.082V100.859L381.162 100.914L381.268 100.762ZM381.268 50.6223H381.453V50.5152L381.36 50.4618L381.268 50.6223ZM352.414 33.9922L352.507 33.8317L352.229 33.6715V33.9922H352.414ZM352.414 82.9055L352.322 83.0661L352.6 83.2261V82.9055H352.414ZM323.54 66.2754H323.355V66.3825L323.448 66.436L323.54 66.2754ZM323.54 17.2998H323.726V17.1927L323.633 17.1392L323.54 17.2998ZM294.687 0.669678L294.78 0.509126L294.502 0.348983V0.669678H294.687ZM294.687 49.5622L294.595 49.7226L294.873 49.8831V49.5622H294.687ZM272.652 36.8401L272.56 37.0006L272.56 37.0006L272.652 36.8401ZM242.032 19.1499L242.125 18.9894L241.847 18.8288V19.1499H242.032ZM242.032 46.7143H241.847V46.8051L241.919 46.8607L242.032 46.7143ZM272.652 70.4537H272.838V70.3629L272.766 70.3073L272.652 70.4537ZM272.652 319.385L272.587 319.559L272.838 319.654V319.385H272.652ZM242.032 307.765L242.098 307.592L241.847 307.497V307.765H242.032ZM242.032 335.101H241.847V335.208L241.94 335.261L242.032 335.101ZM294.687 365.513H294.873V365.406L294.78 365.353L294.687 365.513ZM294.687 415.008H294.502V415.115L294.594 415.169L294.687 415.008ZM323.416 431.639L323.323 431.799L323.601 431.96V431.639H323.416ZM323.416 382.102L323.508 381.941L323.23 381.781V382.102H323.416ZM352.29 398.732H352.475V398.625L352.382 398.571L352.29 398.732ZM352.29 448.269H352.104V448.376L352.197 448.429L352.29 448.269ZM381.143 464.899L381.05 465.059L381.328 465.219V464.899H381.143ZM381.143 415.216L381.228 415.052L380.958 414.911V415.216H381.143ZM407.751 443.508L407.806 443.685L407.807 443.685L407.751 443.508ZM439.577 426.275L439.674 426.433L439.674 426.433L439.577 426.275ZM464.002 374.098L463.817 374.098V374.098H464.002ZM371.453 228.192L371.361 228.352L371.364 228.354L371.453 228.192ZM309.631 192.583H309.446V192.69L309.538 192.743L309.631 192.583ZM309.631 91.8249L309.736 91.672L309.446 91.4735V91.8249H309.631ZM358.877 125.542L359.018 125.423L359.002 125.404L358.982 125.39L358.877 125.542ZM412.804 385.906L412.728 385.737L412.727 385.738L412.804 385.906ZM373.432 377.591L373.525 377.431L373.525 377.431L373.432 377.591ZM309.552 340.714H309.367V340.821L309.459 340.874L309.552 340.714ZM309.552 225.842L309.645 225.681L309.367 225.521V225.842H309.552ZM379.066 265.983L379.238 266.052L379.298 265.903L379.158 265.822L379.066 265.983ZM426.794 352.999H426.609V353L426.794 352.999ZM449.972 314.796C441.942 297.569 430.63 282.072 416.67 269.172L416.419 269.444C430.343 282.311 441.626 297.769 449.637 314.953L449.972 314.796ZM416.598 269.486C418.19 269.007 422.495 267.69 427.373 265.662C432.248 263.636 437.711 260.893 441.61 257.558L441.369 257.277C437.514 260.573 432.095 263.298 427.231 265.32C422.37 267.34 418.079 268.653 416.491 269.131L416.598 269.486ZM441.61 257.558C449.419 250.88 453.212 240.528 453.212 226.465H452.841C452.841 240.465 449.067 250.693 441.369 257.277L441.61 257.558ZM453.212 226.466C453.403 198.543 444.962 171.244 429.044 148.302L428.74 148.513C444.614 171.392 453.032 198.617 452.841 226.464L453.212 226.466ZM429.044 148.301C416.107 129.704 399.965 113.555 381.374 100.61L381.162 100.914C399.718 113.834 415.828 129.952 428.74 148.513L429.044 148.301ZM381.453 100.762V50.6223H381.082V100.762H381.453ZM381.36 50.4618L352.507 33.8317L352.322 34.1528L381.175 50.7829L381.36 50.4618ZM352.229 33.9922V82.9055H352.6V33.9922H352.229ZM352.507 82.7449L323.633 66.1148L323.448 66.436L352.322 83.0661L352.507 82.7449ZM323.726 66.2754V17.2998H323.355V66.2754H323.726ZM323.633 17.1392L294.78 0.509126L294.595 0.83023L323.448 17.4603L323.633 17.1392ZM294.502 0.669678V49.5622H294.873V0.669678H294.502ZM294.78 49.4017L272.745 36.6796L272.56 37.0006L294.595 49.7226L294.78 49.4017ZM272.745 36.6797L242.125 18.9894L241.94 19.3103L272.56 37.0006L272.745 36.6797ZM241.847 19.1499V46.7143H242.218V19.1499H241.847ZM241.919 46.8607L272.539 70.6002L272.766 70.3073L242.146 46.5678L241.919 46.8607ZM272.467 70.4537V319.385H272.838V70.4537H272.467ZM272.718 319.212L242.098 307.592L241.966 307.938L272.587 319.559L272.718 319.212ZM241.847 307.765V335.101H242.218V307.765H241.847ZM241.94 335.261L294.595 365.674L294.78 365.353L242.125 334.94L241.94 335.261ZM294.502 365.513V415.008H294.873V365.513H294.502ZM294.594 415.169L323.323 431.799L323.509 431.478L294.78 414.848L294.594 415.169ZM323.601 431.639V382.102H323.23V431.639H323.601ZM323.323 382.262L352.197 398.892L352.382 398.571L323.508 381.941L323.323 382.262ZM352.104 398.732V448.269H352.475V398.732H352.104ZM352.197 448.429L381.05 465.059L381.236 464.738L352.382 448.108L352.197 448.429ZM381.328 464.899V415.216H380.958V464.899H381.328ZM381.058 415.381C384.024 416.92 386.581 419.622 388.899 422.784C391.216 425.945 393.28 429.548 395.27 432.88C397.256 436.204 399.173 439.265 401.187 441.314C403.204 443.364 405.359 444.438 407.806 443.685L407.697 443.331C405.445 444.024 403.427 443.063 401.451 441.054C399.473 439.042 397.578 436.02 395.588 432.689C393.603 429.367 391.528 425.744 389.198 422.565C386.868 419.386 384.27 416.63 381.228 415.052L381.058 415.381ZM407.807 443.685C412.921 442.057 419.068 438.868 424.84 435.528C430.615 432.187 436.03 428.686 439.674 426.433L439.48 426.118C435.827 428.376 430.423 431.87 424.655 435.207C418.885 438.545 412.768 441.717 407.695 443.332L407.807 443.685ZM439.674 426.433C447.056 421.867 453.189 416.033 457.474 407.708C461.757 399.386 464.188 388.587 464.188 374.098H463.817C463.817 388.547 461.393 399.283 457.144 407.539C452.896 415.792 446.816 421.579 439.479 426.118L439.674 426.433ZM464.188 374.099C464.243 354.693 459.503 334.925 449.972 314.795L449.637 314.954C459.148 335.041 463.872 354.755 463.817 374.098L464.188 374.099ZM415.795 204.224C415.795 219.518 411.698 229.057 403.594 232.972L403.755 233.306C412.059 229.294 416.166 219.557 416.166 204.224H415.795ZM403.594 232.972C395.471 236.896 384.801 235.281 371.542 228.029L371.364 228.354C384.659 235.626 395.469 237.309 403.755 233.306L403.594 232.972ZM371.546 228.031L309.723 192.422L309.538 192.743L371.361 228.352L371.546 228.031ZM309.816 192.583V91.8249H309.446V192.583H309.816ZM309.526 91.9778L358.772 125.695L358.982 125.39L309.736 91.672L309.526 91.9778ZM358.735 125.662C377.441 147.755 382.55 154.756 391.817 168.448L392.124 168.24C382.848 154.535 377.73 147.524 359.018 125.423L358.735 125.662ZM391.817 168.448C394.145 171.887 396.814 174.785 399.503 177.461C402.198 180.143 404.897 182.587 407.318 185.148C412.145 190.255 415.795 195.757 415.795 204.224H416.166C416.166 195.624 412.447 190.035 407.587 184.894C405.164 182.33 402.44 179.861 399.764 177.198C397.082 174.529 394.432 171.651 392.124 168.24L391.817 168.448ZM412.727 385.738C403.475 389.938 390.425 387.21 373.525 377.431L373.339 377.752C390.255 387.54 403.452 390.356 412.881 386.075L412.727 385.738ZM373.525 377.431L309.645 340.553L309.459 340.874L373.34 377.752L373.525 377.431ZM309.737 340.714V225.842H309.367V340.714H309.737ZM309.459 226.002L378.973 266.143L379.158 265.822L309.645 225.681L309.459 226.002ZM378.894 265.913C376.484 271.87 378.139 279.005 381.343 286.497C384.548 293.991 389.335 301.912 393.245 309.431L393.574 309.26C389.647 301.708 384.882 293.83 381.684 286.352C378.485 278.872 376.887 271.861 379.238 266.052L378.894 265.913ZM393.245 309.431C395.218 313.226 398.302 316.697 401.804 320.054C405.301 323.406 409.244 326.669 412.916 330.015C420.284 336.732 426.609 343.828 426.609 352.999H426.979C426.979 343.649 420.53 336.454 413.165 329.741C409.471 326.374 405.557 323.138 402.06 319.786C398.568 316.439 395.519 313.001 393.574 309.26L393.245 309.431ZM426.609 353C426.664 370.68 422.004 381.545 412.728 385.737L412.88 386.075C422.368 381.787 427.035 370.713 426.979 352.999L426.609 353Z" fill="white"/>
</g>
<path d="M352.372 82.8833L322.978 99.3056L294.125 82.6547L323.498 66.2117L352.372 82.8833Z" fill="url(#paint85_radial_14211_91635)"/>
<path d="M381.227 50.6213L351.833 67.0643V117.204L381.227 100.761V50.6213Z" fill="url(#paint86_radial_14211_91635)"/>
<g style="mix-blend-mode:overlay" opacity="0.22">
<path fill-rule="evenodd" clip-rule="evenodd" d="M381.227 50.6213L351.833 67.0643V117.204L381.227 100.761V50.6213V50.6213Z" stroke="white" stroke-width="0.370621"/>
</g>
<g style="mix-blend-mode:overlay" opacity="0.22">
<path fill-rule="evenodd" clip-rule="evenodd" d="M381.227 415.216L351.833 431.638V481.424L381.227 465.002V415.216V415.216Z" stroke="white" stroke-width="0.370621"/>
</g>
<g style="mix-blend-mode:overlay" opacity="0.22">
<path fill-rule="evenodd" clip-rule="evenodd" d="M323.498 382.101L294.125 398.544V448.102L323.498 431.68V382.101V382.101Z" stroke="white" stroke-width="0.370621"/>
</g>
<path d="M241.99 307.703L212.597 324.146L243.217 335.746L272.611 319.323L241.99 307.703Z" fill="url(#paint87_radial_14211_91635)"/>
<g style="mix-blend-mode:overlay" opacity="0.22">
<path fill-rule="evenodd" clip-rule="evenodd" d="M241.99 307.703L212.597 324.146L243.217 335.746L272.611 319.323L241.99 307.703V307.703Z" stroke="white" stroke-width="0.370621"/>
</g>
<g style="mix-blend-mode:overlay" opacity="0.22">
<path fill-rule="evenodd" clip-rule="evenodd" d="M294.645 49.561L265.252 65.9832L212.597 35.5709L241.99 19.1487L294.645 49.561V49.561Z" stroke="white" stroke-width="0.370621"/>
</g>
<g style="mix-blend-mode:overlay" opacity="0.22">
<path fill-rule="evenodd" clip-rule="evenodd" d="M323.498 17.2979L294.125 33.7409V82.6541L323.498 66.2111V17.2979V17.2979Z" stroke="white" stroke-width="0.370621"/>
</g>
<path d="M309.637 192.497L280.243 208.94V108.266L309.72 125.291L309.637 192.497Z" fill="url(#paint88_linear_14211_91635)"/>
<g style="mix-blend-mode:overlay" opacity="0.22">
<path fill-rule="evenodd" clip-rule="evenodd" d="M309.637 192.497L280.243 208.94V108.266L309.72 125.291L309.637 192.497V192.497Z" stroke="white" stroke-width="0.370621"/>
</g>
<path d="M323.5 17.2996L294.127 33.7426L265.253 17.0709L294.647 0.648682L323.5 17.2996Z" fill="url(#paint89_radial_14211_91635)"/>
<path fill-rule="evenodd" clip-rule="evenodd" d="M449.807 314.874C441.787 297.668 430.489 282.19 416.547 269.307C419.728 268.351 433.739 264.048 441.492 257.417C449.246 250.785 453.029 240.495 453.029 226.464C453.22 198.579 444.791 171.317 428.895 148.406C415.97 129.827 399.844 113.694 381.271 100.761V50.6213L352.417 33.9913V82.9045L323.543 66.2744V17.2988L294.69 0.668701V49.5612L272.655 36.8392L242.035 19.1489V46.7133L272.655 70.4527V319.384L242.035 307.764V335.1L294.69 365.512V415.008L323.419 431.638V382.101L352.293 398.731V448.268L381.146 464.898V415.215C386.719 418.108 390.825 425.025 394.563 431.322C398.885 438.603 402.716 445.057 407.754 443.507C416.613 440.687 428.616 433.15 436.393 428.266C437.559 427.534 438.629 426.862 439.58 426.274C454.298 417.169 464.005 403.034 464.005 374.097C464.061 354.723 459.328 334.982 449.807 314.874ZM415.983 204.223C415.983 219.536 411.881 229.175 403.677 233.138C395.473 237.102 384.733 235.453 371.456 228.191L309.634 192.582V91.8242L358.88 125.542C377.589 147.639 382.702 154.644 391.974 168.343C395.185 173.089 399.052 176.804 402.736 180.342C409.687 187.019 415.983 193.068 415.983 204.223ZM373.435 377.591C390.342 387.375 403.466 390.146 412.807 385.906C422.189 381.665 426.852 370.696 426.797 352.999C426.797 341.878 417.587 333.807 408.53 325.871C402.503 320.589 396.544 315.367 393.412 309.345C392.127 306.873 390.749 304.363 389.365 301.84C382.311 288.981 375.089 275.818 379.069 265.982L309.555 225.841V340.713L373.435 377.591Z" fill="url(#paint90_radial_14211_91635)"/>
<path d="M381.225 415.216L351.831 431.638V481.424L381.225 465.002V415.216Z" fill="url(#paint91_radial_14211_91635)"/>
<path d="M323.498 382.101L294.125 398.544V448.102L323.498 431.679V382.101Z" fill="url(#paint92_radial_14211_91635)"/>
<path d="M294.644 49.561L265.251 65.9832L212.596 35.5709L241.989 19.1487L294.644 49.561Z" fill="url(#paint93_radial_14211_91635)"/>
<path d="M323.498 17.2979L294.125 33.7409V82.6541L323.498 66.2111V17.2979Z" fill="url(#paint94_radial_14211_91635)"/>
<path fill-rule="evenodd" clip-rule="evenodd" d="M420.41 331.297C411.383 311.81 398.132 294.576 381.62 280.845C394.259 282.813 404.438 280.485 412.157 273.86C419.876 267.236 423.729 256.912 423.715 242.887C423.895 215.001 415.459 187.739 399.56 164.829C386.645 146.247 370.517 130.119 351.935 117.205V67.0652L323.082 50.4351V99.3484L294.229 82.7183V33.7426L265.355 17.1125V65.9842L243.216 53.3038L212.596 35.6135V63.1779L243.216 86.9382V335.745L212.596 324.146V351.481L265.209 381.873V431.431L294.083 448.061V398.545L322.936 415.175V464.753L351.79 481.383V431.638C375.986 444.291 395.464 447.978 410.224 442.697C426.507 436.849 434.649 419.457 434.649 390.521C434.677 371.146 429.93 351.405 420.41 331.297ZM386.588 220.645C386.588 235.986 382.486 245.625 374.281 249.561C366.077 253.496 355.358 251.826 342.123 244.551L280.301 208.858V108.267L332.477 138.534C349.995 148.664 363.396 160.631 372.681 174.434C381.89 188.073 386.74 204.188 386.588 220.645ZM344.123 393.992C361.03 403.693 374.154 406.465 383.494 402.308C392.821 398.081 397.498 387.139 397.526 369.484C397.769 351.982 393.738 334.685 385.781 319.095C377.593 303.645 365.072 290.923 349.756 282.488L280.242 242.347V357.115L344.123 393.992Z" fill="url(#paint95_radial_14211_91635)"/>
<g style="mix-blend-mode:overlay" opacity="0.22">
<path fill-rule="evenodd" clip-rule="evenodd" d="M323.5 17.2996L294.127 33.7426L265.253 17.0709L294.647 0.648682L323.5 17.2996V17.2996Z" stroke="white" stroke-width="0.370621"/>
</g>
<path d="M381.226 50.6216L351.833 67.0646L322.979 50.3929L352.373 33.9707L381.226 50.6216Z" fill="url(#paint96_radial_14211_91635)"/>
<g style="mix-blend-mode:overlay" opacity="0.22">
<path fill-rule="evenodd" clip-rule="evenodd" d="M381.226 50.6216L351.833 67.0646L322.979 50.3929L352.373 33.9707L381.226 50.6216V50.6216Z" stroke="white" stroke-width="0.370621"/>
</g>
<path d="M309.637 340.692L280.243 357.114V242.345L309.72 259.558L309.637 340.692Z" fill="url(#paint97_linear_14211_91635)"/>
<g style="mix-blend-mode:overlay" opacity="0.22">
<path fill-rule="evenodd" clip-rule="evenodd" d="M309.637 340.692L280.243 357.114V242.345L309.72 259.558L309.637 340.692V340.692Z" stroke="white" stroke-width="0.370621"/>
</g>
<path d="M342.181 565.902V613.795C342.181 615.825 339.911 617.139 338.12 616.064L280.673 582.742C279.001 581.787 277.926 579.996 277.926 577.965V529.834C277.926 527.923 280.076 526.728 281.628 527.684L339.314 561.006C341.225 562.081 342.181 563.872 342.181 565.902Z" fill="url(#paint98_linear_14211_91635)"/>
<path d="M340.15 566.619V614.512C340.15 616.542 337.881 617.856 336.09 616.781L278.642 583.459C276.97 582.504 275.896 580.712 275.896 578.682V530.55C275.896 528.639 278.045 527.445 279.598 528.4L337.284 561.722C339.076 562.797 340.15 564.708 340.15 566.619Z" fill="url(#paint99_linear_14211_91635)"/>
<path opacity="0.5" d="M328.566 576.054L300.857 560.05" stroke="#0660D7" stroke-width="1.4" stroke-miterlimit="10" stroke-linecap="round" stroke-linejoin="round"/>
<path opacity="0.5" d="M328.566 585.251L300.857 569.366" stroke="#0660D7" stroke-width="1.4" stroke-miterlimit="10" stroke-linecap="round" stroke-linejoin="round"/>
<path opacity="0.5" d="M317.697 588.356L300.857 578.562" stroke="#0660D7" stroke-width="1.4" stroke-miterlimit="10" stroke-linecap="round" stroke-linejoin="round"/>
<path d="M286.286 567.455V563.514L288.914 564.947C289.63 565.305 290.108 565.783 290.466 566.38C290.825 566.977 290.944 567.455 290.944 568.171C290.944 569.485 290.227 569.724 288.914 568.888L286.286 567.455ZM286.286 560.528V556.825L288.675 558.139C289.989 558.856 290.586 559.811 290.586 561.125C290.586 562.319 289.989 562.558 288.675 561.842L286.286 560.528ZM290.825 553.72L289.033 552.645V554.914L287.003 553.72V551.451L285.211 550.376V552.645L282.703 551.212V568.53L285.211 569.963V571.993L287.003 573.068V571.038L289.033 572.232V574.263L290.825 575.337V573.307C291.899 573.785 292.735 573.904 293.452 573.665C294.288 573.307 294.766 572.352 294.766 570.918C294.766 569.963 294.527 568.888 293.93 567.813C293.333 566.738 292.616 565.783 291.78 565.066C292.616 565.305 293.213 565.186 293.691 564.827C294.169 564.35 294.408 563.633 294.408 562.678C294.408 561.244 294.049 559.931 293.213 558.617C292.616 557.781 291.78 556.945 290.944 556.228L290.825 553.72Z" fill="url(#paint100_linear_14211_91635)"/>
<path d="M165.71 511.578L221.056 479.615L280.047 514.213L225.71 545.615C223.916 546.624 221.729 546.624 219.935 545.615L165.71 513.877C164.813 513.316 164.813 512.082 165.71 511.578Z" fill="url(#paint101_linear_14211_91635)"/>
<path d="M226.159 393.932L173.561 363.539C171.486 362.362 169.467 362.193 167.841 363.147L162.906 366.119L165.261 392.979L164.981 500.643C164.981 504.961 167.897 510.007 171.654 512.138L216.682 538.157L225.037 545.895L229.58 543.148C229.692 543.092 229.86 543.036 229.972 542.923C231.542 542.026 232.439 540.176 232.439 537.821L232.832 405.427C232.776 401.109 229.86 396.063 226.159 393.932Z" fill="url(#paint102_linear_14211_91635)"/>
<path d="M221.224 396.848L168.625 366.455C166.551 365.277 164.532 365.109 162.906 366.062C161.336 366.96 160.438 368.81 160.438 371.165L160.046 503.559C160.046 507.876 162.962 512.923 166.719 515.054L219.317 545.447C220.495 546.12 221.672 546.456 222.738 546.456C223.579 546.456 224.308 546.232 225.037 545.839C226.607 544.942 227.504 543.092 227.504 540.736L227.897 408.343C227.897 404.081 224.925 399.035 221.224 396.848Z" fill="url(#paint103_linear_14211_91635)"/>
<path d="M222.457 406.885L222.065 537.316V539.222C222.065 540.96 220.831 541.633 219.317 540.792L166.719 510.4C165.205 509.558 163.971 507.428 164.027 505.689L164.42 373.352C164.42 371.614 165.653 370.941 167.167 371.782L169.467 373.128L181.411 380.025C181.971 380.361 182.476 381.034 182.644 381.763L182.925 382.66C183.261 383.894 184.102 385.072 185.055 385.576L201.878 395.277C202.831 395.838 203.672 395.67 204.065 394.829L204.345 394.212C204.57 393.763 205.074 393.651 205.579 393.932L219.766 402.119C221.224 403.072 222.457 405.147 222.457 406.885Z" fill="url(#paint104_linear_14211_91635)"/>
<path d="M222.457 406.885L222.064 537.316L171.765 508.269C170.251 507.372 169.017 505.297 169.073 503.559L169.466 373.128L181.41 380.025C181.97 380.362 182.475 381.035 182.643 381.764L182.924 382.661C183.26 383.895 184.101 385.072 185.055 385.577L201.877 395.278C202.83 395.839 203.671 395.67 204.064 394.829L204.344 394.212C204.569 393.764 205.073 393.652 205.578 393.932L219.765 402.119C221.223 403.072 222.457 405.147 222.457 406.885Z" fill="url(#paint105_linear_14211_91635)"/>
<path d="M195.655 386.138L188.141 381.764C187.637 381.483 187.244 381.708 187.244 382.268C187.244 382.829 187.637 383.502 188.141 383.782L195.655 388.156C196.16 388.437 196.553 388.212 196.553 387.652C196.553 387.091 196.16 386.418 195.655 386.138Z" fill="url(#paint106_linear_14211_91635)"/>
<path d="M199.804 388.549L199.132 388.156C198.627 387.876 198.234 388.1 198.234 388.661C198.234 389.222 198.627 389.894 199.132 390.175L199.804 390.567C200.309 390.848 200.702 390.623 200.702 390.063C200.702 389.502 200.253 388.829 199.804 388.549Z" fill="url(#paint107_linear_14211_91635)"/>
<path d="M227.785 444.736L227.729 467.278L187.074 443.782C185.672 442.997 184.551 441.035 184.551 439.409L184.607 422.642C184.607 421.016 185.728 420.399 187.13 421.184L227.785 444.736Z" fill="url(#paint108_linear_14211_91635)"/>
<path d="M227.673 475.297L227.617 497.895L187.018 474.456C185.617 473.671 184.495 471.708 184.495 470.082L184.551 453.316C184.551 451.689 185.673 451.073 187.075 451.858L227.673 475.297Z" fill="url(#paint109_linear_14211_91635)"/>
<path d="M227.561 505.858L227.505 528.4L187.018 505.017C185.617 504.232 184.495 502.269 184.495 500.643L184.551 483.876C184.551 482.25 185.673 481.633 187.075 482.418L227.561 505.858Z" fill="url(#paint110_linear_14211_91635)"/>
<path d="M176.251 384.904L183.541 389.11C184.943 389.951 185.84 391.465 185.84 393.091V401.502C185.84 402.96 184.27 403.857 182.98 403.128L175.691 398.923C174.289 398.082 173.392 396.568 173.392 394.941V386.53C173.448 385.072 175.018 384.175 176.251 384.904Z" fill="url(#paint111_linear_14211_91635)"/>
<path d="M176.251 436.437L183.541 440.642C184.943 441.484 185.84 442.998 185.84 444.624V453.035C185.84 454.493 184.27 455.39 182.98 454.661L175.691 450.456C174.289 449.614 173.392 448.1 173.392 446.474V438.063C173.448 436.661 175.018 435.708 176.251 436.437Z" fill="url(#paint112_linear_14211_91635)"/>
<path d="M192.402 393.876L199.692 398.081C201.093 398.923 201.991 400.437 201.991 402.063V410.474C201.991 411.932 200.421 412.829 199.131 412.1L191.841 407.895C190.439 407.053 189.542 405.539 189.542 403.913V395.502C189.542 394.044 191.112 393.147 192.402 393.876Z" fill="url(#paint113_linear_14211_91635)"/>
<path d="M241.523 519.319L182.196 485.113C180.794 484.328 179.672 484.945 179.672 486.571L179.616 503.337C179.616 504.964 180.738 506.87 182.14 507.711L241.411 541.973C242.813 542.758 243.934 542.141 243.934 540.515L243.99 523.749C244.047 522.067 242.925 520.104 241.523 519.319Z" fill="url(#paint114_linear_14211_91635)"/>
<path d="M240.625 519.823L181.354 485.562C179.952 484.776 178.83 485.393 178.83 487.02L178.774 503.786C178.774 505.412 179.896 507.319 181.298 508.16L240.513 542.422C241.915 543.207 243.036 542.59 243.036 540.964L243.093 524.197C243.149 522.627 241.971 520.665 240.625 519.823Z" fill="url(#paint115_linear_14211_91635)"/>
<path d="M187.579 502.776V501.15L188.701 501.767C188.981 501.935 189.206 502.103 189.318 502.384C189.486 502.608 189.542 502.888 189.542 503.113C189.542 503.673 189.262 503.73 188.701 503.449L187.579 502.776ZM187.579 499.916V498.346L188.589 498.907C189.15 499.244 189.43 499.636 189.43 500.197C189.43 500.701 189.15 500.814 188.645 500.533L187.579 499.916ZM189.486 497.001L188.701 496.552V497.505L187.86 497.001V496.047L187.131 495.599V496.552L186.065 495.935V503.281L187.131 503.898V504.739L187.86 505.187V504.346L188.701 504.851V505.692L189.486 506.141V505.244C189.935 505.468 190.327 505.468 190.608 505.356C191 505.187 191.168 504.851 191.168 504.178C191.168 503.73 191.056 503.337 190.832 502.832C190.608 502.384 190.327 501.991 189.935 501.655C190.271 501.767 190.551 501.711 190.72 501.543C190.944 501.374 191.056 501.038 191.056 500.589C191.056 499.972 190.888 499.412 190.551 498.907C190.271 498.515 189.991 498.178 189.598 497.898L189.486 497.001Z" fill="url(#paint116_linear_14211_91635)"/>
<path d="M221.001 515.673L202.216 504.851C201.374 504.346 200.646 504.739 200.646 505.748C200.646 506.701 201.318 507.935 202.216 508.44L221.001 519.318C221.842 519.823 222.571 519.43 222.571 518.421C222.571 517.412 221.898 516.178 221.001 515.673Z" fill="#83B8F6"/>
<path d="M235.972 526.047L230.701 522.963L233.337 529.973L235.972 526.047Z" fill="url(#paint117_linear_14211_91635)"/>
<path opacity="0.5" d="M218.196 521.281L200.869 511.244" stroke="#0660D7" stroke-width="1.4" stroke-miterlimit="10" stroke-linecap="round" stroke-linejoin="round"/>
<path d="M241.523 486.234L182.196 452.028C180.794 451.243 179.672 451.86 179.672 453.486L179.616 470.253C179.616 471.879 180.738 473.785 182.14 474.627L241.411 508.889C242.813 509.674 243.934 509.057 243.934 507.431L243.99 490.664C244.047 488.982 242.925 487.019 241.523 486.234Z" fill="url(#paint118_linear_14211_91635)"/>
<path d="M240.625 486.738L181.354 452.477C179.952 451.692 178.83 452.308 178.83 453.935L178.774 470.701C178.774 472.327 179.896 474.234 181.298 475.075L240.513 509.337C241.915 510.122 243.036 509.505 243.036 507.879L243.093 491.112C243.149 489.542 241.971 487.58 240.625 486.738Z" fill="url(#paint119_linear_14211_91635)"/>
<path d="M187.579 469.692V468.066L188.701 468.683C188.981 468.851 189.206 469.019 189.318 469.3C189.486 469.524 189.542 469.804 189.542 470.029C189.542 470.589 189.262 470.646 188.701 470.365L187.579 469.692ZM187.579 466.832V465.262L188.589 465.823C189.15 466.16 189.43 466.552 189.43 467.113C189.43 467.617 189.15 467.73 188.645 467.449L187.579 466.832ZM189.486 463.917L188.701 463.468V464.421L187.86 463.917V462.963L187.131 462.515V463.468L186.065 462.851V470.197L187.131 470.814V471.655L187.86 472.103V471.262L188.701 471.767V472.608L189.486 473.057V472.16C189.935 472.384 190.327 472.384 190.608 472.272C191 472.103 191.168 471.767 191.168 471.094C191.168 470.646 191.056 470.253 190.832 469.748C190.608 469.3 190.327 468.907 189.935 468.571C190.271 468.683 190.551 468.627 190.72 468.459C190.944 468.29 191.056 467.954 191.056 467.505C191.056 466.889 190.888 466.328 190.551 465.823C190.271 465.431 189.991 465.094 189.598 464.814L189.486 463.917Z" fill="url(#paint120_linear_14211_91635)"/>
<path d="M221.001 482.589L202.216 471.767C201.374 471.262 200.646 471.655 200.646 472.664C200.646 473.617 201.318 474.851 202.216 475.356L221.001 486.234C221.842 486.739 222.571 486.346 222.571 485.337C222.571 484.328 221.898 483.094 221.001 482.589Z" fill="#83B8F6"/>
<path d="M235.972 492.963L230.701 489.879L233.337 496.889L235.972 492.963Z" fill="url(#paint121_linear_14211_91635)"/>
<path opacity="0.5" d="M218.196 488.196L200.869 478.159" stroke="#0660D7" stroke-width="1.4" stroke-miterlimit="10" stroke-linecap="round" stroke-linejoin="round"/>
<defs>
<linearGradient id="paint0_linear_14211_91635" x1="12.6263" y1="450.798" x2="69.2568" y2="502.258" gradientUnits="userSpaceOnUse">
<stop stop-color="#006CED"/>
<stop offset="0.3303" stop-color="#4C95EC" stop-opacity="0.9322"/>
<stop offset="0.9749" stop-color="#DCE4EB" stop-opacity="0.8"/>
</linearGradient>
<linearGradient id="paint1_linear_14211_91635" x1="535.939" y1="107.733" x2="461.24" y2="164.695" gradientUnits="userSpaceOnUse">
<stop offset="0.0251397" stop-color="#0068D1"/>
<stop offset="0.0832336" stop-color="#116BD1"/>
<stop offset="0.3326" stop-color="#5577D3"/>
<stop offset="0.5578" stop-color="#8B81D5"/>
<stop offset="0.7511" stop-color="#B288D6"/>
<stop offset="0.9049" stop-color="#CA8CD7"/>
<stop offset="1" stop-color="#D38ED7"/>
</linearGradient>
<linearGradient id="paint2_linear_14211_91635" x1="515.956" y1="107.67" x2="465.267" y2="147.482" gradientUnits="userSpaceOnUse">
<stop offset="0.0251397" stop-color="white"/>
<stop offset="1" stop-color="#83B8F6"/>
</linearGradient>
<linearGradient id="paint3_linear_14211_91635" x1="498.531" y1="112.019" x2="451.046" y2="176" gradientUnits="userSpaceOnUse">
<stop offset="0.0251397" stop-color="#0043C6"/>
<stop offset="1" stop-color="#0C6ADD"/>
</linearGradient>
<linearGradient id="paint4_linear_14211_91635" x1="573.335" y1="385.586" x2="538.785" y2="278.864" gradientUnits="userSpaceOnUse">
<stop offset="0.0251397" stop-color="white"/>
<stop offset="1" stop-color="#83B8F6"/>
</linearGradient>
<linearGradient id="paint5_linear_14211_91635" x1="556.049" y1="263.718" x2="567.935" y2="308.235" gradientUnits="userSpaceOnUse">
<stop offset="0.0251397" stop-color="white"/>
<stop offset="1" stop-color="#83B8F6"/>
</linearGradient>
<linearGradient id="paint6_linear_14211_91635" x1="588.586" y1="273.095" x2="606.039" y2="368.673" gradientUnits="userSpaceOnUse">
<stop offset="0.0251397" stop-color="#0068D1"/>
<stop offset="0.0832336" stop-color="#116BD1"/>
<stop offset="0.3326" stop-color="#5577D3"/>
<stop offset="0.5578" stop-color="#8B81D5"/>
<stop offset="0.7511" stop-color="#B288D6"/>
<stop offset="0.9049" stop-color="#CA8CD7"/>
<stop offset="1" stop-color="#D38ED7"/>
</linearGradient>
<linearGradient id="paint7_linear_14211_91635" x1="175.686" y1="200.173" x2="129.827" y2="271.807" gradientUnits="userSpaceOnUse">
<stop offset="0.0251397" stop-color="white"/>
<stop offset="1" stop-color="#83B8F6"/>
</linearGradient>
<linearGradient id="paint8_linear_14211_91635" x1="112.643" y1="268.991" x2="132.988" y2="240.589" gradientUnits="userSpaceOnUse">
<stop offset="0.0251397" stop-color="white"/>
<stop offset="1" stop-color="#83B8F6"/>
</linearGradient>
<linearGradient id="paint9_linear_14211_91635" x1="102.464" y1="245.421" x2="150.031" y2="189.166" gradientUnits="userSpaceOnUse">
<stop offset="0.0251397" stop-color="#0068D1"/>
<stop offset="0.0832336" stop-color="#116BD1"/>
<stop offset="0.3326" stop-color="#5577D3"/>
<stop offset="0.5578" stop-color="#8B81D5"/>
<stop offset="0.7511" stop-color="#B288D6"/>
<stop offset="0.9049" stop-color="#CA8CD7"/>
<stop offset="1" stop-color="#D38ED7"/>
</linearGradient>
<linearGradient id="paint10_linear_14211_91635" x1="96.846" y1="426.468" x2="106.059" y2="410.921" gradientUnits="userSpaceOnUse">
<stop offset="0.0251397" stop-color="#4591D7"/>
<stop offset="0.6333" stop-color="#D6E6F6" stop-opacity="0.2194"/>
<stop offset="0.8042" stop-color="white" stop-opacity="0"/>
</linearGradient>
<linearGradient id="paint11_linear_14211_91635" x1="50.0966" y1="394.797" x2="46.1627" y2="472.164" gradientUnits="userSpaceOnUse">
<stop offset="0.0251397" stop-color="#0068D1"/>
<stop offset="0.6969" stop-color="#9082D5"/>
<stop offset="1" stop-color="#D38ED7"/>
</linearGradient>
<linearGradient id="paint12_linear_14211_91635" x1="103.25" y1="411.843" x2="99.3175" y2="489.176" gradientUnits="userSpaceOnUse">
<stop offset="0.0251397" stop-color="#0068D1"/>
<stop offset="0.6969" stop-color="#9082D5"/>
<stop offset="1" stop-color="#D38ED7"/>
</linearGradient>
<linearGradient id="paint13_linear_14211_91635" x1="279.541" y1="615.778" x2="34.2726" y2="400.945" gradientUnits="userSpaceOnUse">
<stop offset="0.0251397" stop-color="#0043C6"/>
<stop offset="0.582" stop-color="#90ADE6"/>
<stop offset="1" stop-color="white"/>
</linearGradient>
<linearGradient id="paint14_linear_14211_91635" x1="77.9448" y1="464.168" x2="85.7933" y2="407.502" gradientUnits="userSpaceOnUse">
<stop offset="0.0251397" stop-color="#0043C6"/>
<stop offset="0.1556" stop-color="#0446C7"/>
<stop offset="0.279" stop-color="#0F4EC9"/>
<stop offset="0.3997" stop-color="#225CCE"/>
<stop offset="0.5187" stop-color="#3D70D4"/>
<stop offset="0.6366" stop-color="#608ADB"/>
<stop offset="0.7535" stop-color="#8AA9E5"/>
<stop offset="0.8698" stop-color="#BDCEF0"/>
<stop offset="0.9827" stop-color="#F6F8FD"/>
<stop offset="1" stop-color="white"/>
</linearGradient>
<linearGradient id="paint15_linear_14211_91635" x1="67.1165" y1="442.653" x2="74.415" y2="389.959" gradientUnits="userSpaceOnUse">
<stop offset="0.0251397" stop-color="#0043C6"/>
<stop offset="0.1556" stop-color="#0446C7"/>
<stop offset="0.279" stop-color="#0F4EC9"/>
<stop offset="0.3997" stop-color="#225CCE"/>
<stop offset="0.5187" stop-color="#3D70D4"/>
<stop offset="0.6366" stop-color="#608ADB"/>
<stop offset="0.7535" stop-color="#8AA9E5"/>
<stop offset="0.8698" stop-color="#BDCEF0"/>
<stop offset="0.9827" stop-color="#F6F8FD"/>
<stop offset="1" stop-color="white"/>
</linearGradient>
<linearGradient id="paint16_linear_14211_91635" x1="64.4079" y1="376.541" x2="84.3703" y2="461.765" gradientUnits="userSpaceOnUse">
<stop offset="0.0251397" stop-color="#0068D1"/>
<stop offset="0.3456" stop-color="#5377D3"/>
<stop offset="0.6357" stop-color="#9883D5"/>
<stop offset="0.8438" stop-color="#C38BD7"/>
<stop offset="0.9499" stop-color="#D38ED7"/>
</linearGradient>
<linearGradient id="paint17_linear_14211_91635" x1="58.2345" y1="377.988" x2="78.1969" y2="463.211" gradientUnits="userSpaceOnUse">
<stop offset="0.0251397" stop-color="#0068D1"/>
<stop offset="0.3456" stop-color="#5377D3"/>
<stop offset="0.6357" stop-color="#9883D5"/>
<stop offset="0.8438" stop-color="#C38BD7"/>
<stop offset="0.9499" stop-color="#D38ED7"/>
</linearGradient>
<linearGradient id="paint18_linear_14211_91635" x1="173.283" y1="379.89" x2="182.497" y2="364.342" gradientUnits="userSpaceOnUse">
<stop offset="0.0251397" stop-color="#4591D7"/>
<stop offset="0.6333" stop-color="#D6E6F6" stop-opacity="0.2194"/>
<stop offset="0.8042" stop-color="white" stop-opacity="0"/>
</linearGradient>
<linearGradient id="paint19_linear_14211_91635" x1="126.532" y1="348.218" x2="122.598" y2="425.585" gradientUnits="userSpaceOnUse">
<stop offset="0.0251397" stop-color="#0068D1"/>
<stop offset="0.6969" stop-color="#9082D5"/>
<stop offset="1" stop-color="#D38ED7"/>
</linearGradient>
<linearGradient id="paint20_linear_14211_91635" x1="179.685" y1="365.264" x2="175.753" y2="442.597" gradientUnits="userSpaceOnUse">
<stop offset="0.0251397" stop-color="#0068D1"/>
<stop offset="0.6969" stop-color="#9082D5"/>
<stop offset="1" stop-color="#D38ED7"/>
</linearGradient>
<linearGradient id="paint21_linear_14211_91635" x1="355.977" y1="569.2" x2="110.708" y2="354.366" gradientUnits="userSpaceOnUse">
<stop offset="0.0251397" stop-color="#0043C6"/>
<stop offset="0.582" stop-color="#90ADE6"/>
<stop offset="1" stop-color="white"/>
</linearGradient>
<linearGradient id="paint22_linear_14211_91635" x1="154.38" y1="417.59" x2="162.229" y2="360.924" gradientUnits="userSpaceOnUse">
<stop offset="0.0251397" stop-color="#0043C6"/>
<stop offset="0.1556" stop-color="#0446C7"/>
<stop offset="0.279" stop-color="#0F4EC9"/>
<stop offset="0.3997" stop-color="#225CCE"/>
<stop offset="0.5187" stop-color="#3D70D4"/>
<stop offset="0.6366" stop-color="#608ADB"/>
<stop offset="0.7535" stop-color="#8AA9E5"/>
<stop offset="0.8698" stop-color="#BDCEF0"/>
<stop offset="0.9827" stop-color="#F6F8FD"/>
<stop offset="1" stop-color="white"/>
</linearGradient>
<linearGradient id="paint23_linear_14211_91635" x1="143.552" y1="396.074" x2="150.851" y2="343.38" gradientUnits="userSpaceOnUse">
<stop offset="0.0251397" stop-color="#0043C6"/>
<stop offset="0.1556" stop-color="#0446C7"/>
<stop offset="0.279" stop-color="#0F4EC9"/>
<stop offset="0.3997" stop-color="#225CCE"/>
<stop offset="0.5187" stop-color="#3D70D4"/>
<stop offset="0.6366" stop-color="#608ADB"/>
<stop offset="0.7535" stop-color="#8AA9E5"/>
<stop offset="0.8698" stop-color="#BDCEF0"/>
<stop offset="0.9827" stop-color="#F6F8FD"/>
<stop offset="1" stop-color="white"/>
</linearGradient>
<linearGradient id="paint24_linear_14211_91635" x1="140.844" y1="329.963" x2="160.807" y2="415.187" gradientUnits="userSpaceOnUse">
<stop offset="0.0251397" stop-color="#0068D1"/>
<stop offset="0.3456" stop-color="#5377D3"/>
<stop offset="0.6357" stop-color="#9883D5"/>
<stop offset="0.8438" stop-color="#C38BD7"/>
<stop offset="0.9499" stop-color="#D38ED7"/>
</linearGradient>
<linearGradient id="paint25_linear_14211_91635" x1="134.671" y1="331.409" x2="154.633" y2="416.633" gradientUnits="userSpaceOnUse">
<stop offset="0.0251397" stop-color="#0068D1"/>
<stop offset="0.3456" stop-color="#5377D3"/>
<stop offset="0.6357" stop-color="#9883D5"/>
<stop offset="0.8438" stop-color="#C38BD7"/>
<stop offset="0.9499" stop-color="#D38ED7"/>
</linearGradient>
<radialGradient id="paint26_radial_14211_91635" cx="0" cy="0" r="1" gradientUnits="userSpaceOnUse" gradientTransform="translate(72.9624 519.677) scale(588.347 350.603)">
<stop stop-color="#552ABE"/>
<stop offset="1" stop-color="#3E6ED6"/>
</radialGradient>
<linearGradient id="paint27_linear_14211_91635" x1="42.9054" y1="686.734" x2="636.782" y2="691.089" gradientUnits="userSpaceOnUse">
<stop stop-color="#4824A0"/>
<stop offset="1" stop-color="#2E529C"/>
</linearGradient>
<radialGradient id="paint28_radial_14211_91635" cx="0" cy="0" r="1" gradientUnits="userSpaceOnUse" gradientTransform="translate(-0.460991 565.756) scale(521.375 301.011)">
<stop stop-color="#BFA8FB"/>
<stop offset="1" stop-color="#9DCCFC"/>
</radialGradient>
<radialGradient id="paint29_radial_14211_91635" cx="0" cy="0" r="1" gradientUnits="userSpaceOnUse" gradientTransform="translate(611.712 658.875) scale(568.459 190.424)">
<stop stop-color="#552ABE"/>
<stop offset="1" stop-color="#3E6ED6"/>
</radialGradient>
<radialGradient id="paint30_radial_14211_91635" cx="0" cy="0" r="1" gradientUnits="userSpaceOnUse" gradientTransform="translate(553.336 217.53) scale(355.268 205.11)">
<stop stop-color="white"/>
<stop offset="1" stop-color="white" stop-opacity="0.01"/>
</radialGradient>
<radialGradient id="paint31_radial_14211_91635" cx="0" cy="0" r="1" gradientUnits="userSpaceOnUse" gradientTransform="translate(340.2 200.575) scale(178.001 102.777)">
<stop stop-color="white"/>
<stop offset="1" stop-color="white" stop-opacity="0.01"/>
</radialGradient>
<linearGradient id="paint32_linear_14211_91635" x1="548.436" y1="614.168" x2="548.436" y2="84.7594" gradientUnits="userSpaceOnUse">
<stop stop-color="white"/>
<stop offset="0.3" stop-color="white" stop-opacity="0.67"/>
<stop offset="0.58" stop-color="white" stop-opacity="0.09"/>
<stop offset="0.88" stop-color="white" stop-opacity="0.01"/>
<stop offset="1" stop-color="white" stop-opacity="0.01"/>
</linearGradient>
<linearGradient id="paint33_linear_14211_91635" x1="410.862" y1="575.716" x2="537.429" y2="462.649" gradientUnits="userSpaceOnUse">
<stop offset="0.0251397" stop-color="#4591D7"/>
<stop offset="0.715" stop-color="#D6E6F6" stop-opacity="0.2194"/>
<stop offset="0.909" stop-color="white" stop-opacity="0"/>
</linearGradient>
<linearGradient id="paint34_linear_14211_91635" x1="404" y1="527.758" x2="479.581" y2="526.266" gradientUnits="userSpaceOnUse">
<stop stop-color="#D38ED7"/>
<stop offset="0.3031" stop-color="#9082D5"/>
<stop offset="0.9749" stop-color="#0068D1"/>
</linearGradient>
<linearGradient id="paint35_linear_14211_91635" x1="405.555" y1="468.704" x2="448.551" y2="533.709" gradientUnits="userSpaceOnUse">
<stop stop-color="#83B8F6"/>
<stop offset="0.9749" stop-color="white"/>
</linearGradient>
<linearGradient id="paint36_linear_14211_91635" x1="425.696" y1="501.627" x2="491.474" y2="554.755" gradientUnits="userSpaceOnUse">
<stop offset="0.0251397" stop-color="white"/>
<stop offset="1" stop-color="#83B8F6"/>
</linearGradient>
<linearGradient id="paint37_linear_14211_91635" x1="419.267" y1="449.812" x2="440.743" y2="566.395" gradientUnits="userSpaceOnUse">
<stop offset="0.0251397" stop-color="#0043C6"/>
<stop offset="0.582" stop-color="#90ADE6"/>
<stop offset="1" stop-color="white"/>
</linearGradient>
<linearGradient id="paint38_linear_14211_91635" x1="404.236" y1="495.985" x2="453.671" y2="540.521" gradientUnits="userSpaceOnUse">
<stop offset="0.0251397" stop-color="#DCE4EB" stop-opacity="0.8"/>
<stop offset="0.6697" stop-color="#4C95EC" stop-opacity="0.9322"/>
<stop offset="1" stop-color="#006CED"/>
</linearGradient>
<linearGradient id="paint39_linear_14211_91635" x1="404.236" y1="506.007" x2="453.671" y2="550.544" gradientUnits="userSpaceOnUse">
<stop offset="0.0251397" stop-color="#DCE4EB" stop-opacity="0.8"/>
<stop offset="0.6697" stop-color="#4C95EC" stop-opacity="0.9322"/>
<stop offset="1" stop-color="#006CED"/>
</linearGradient>
<linearGradient id="paint40_linear_14211_91635" x1="404.236" y1="515.807" x2="453.671" y2="560.343" gradientUnits="userSpaceOnUse">
<stop offset="0.0251397" stop-color="#DCE4EB" stop-opacity="0.8"/>
<stop offset="0.6697" stop-color="#4C95EC" stop-opacity="0.9322"/>
<stop offset="1" stop-color="#006CED"/>
</linearGradient>
<linearGradient id="paint41_linear_14211_91635" x1="404.236" y1="496.918" x2="453.671" y2="541.454" gradientUnits="userSpaceOnUse">
<stop offset="0.0251397" stop-color="#DCE4EB" stop-opacity="0.8"/>
<stop offset="0.6697" stop-color="#4C95EC" stop-opacity="0.9322"/>
<stop offset="1" stop-color="#006CED"/>
</linearGradient>
<linearGradient id="paint42_linear_14211_91635" x1="404.236" y1="506.94" x2="453.671" y2="551.476" gradientUnits="userSpaceOnUse">
<stop offset="0.0251397" stop-color="#DCE4EB" stop-opacity="0.8"/>
<stop offset="0.6697" stop-color="#4C95EC" stop-opacity="0.9322"/>
<stop offset="1" stop-color="#006CED"/>
</linearGradient>
<linearGradient id="paint43_linear_14211_91635" x1="404.236" y1="516.74" x2="453.671" y2="561.276" gradientUnits="userSpaceOnUse">
<stop offset="0.0251397" stop-color="#DCE4EB" stop-opacity="0.8"/>
<stop offset="0.6697" stop-color="#4C95EC" stop-opacity="0.9322"/>
<stop offset="1" stop-color="#006CED"/>
</linearGradient>
<linearGradient id="paint44_linear_14211_91635" x1="527.646" y1="449.953" x2="505.042" y2="398.519" gradientUnits="userSpaceOnUse">
<stop offset="0.0251397" stop-color="#0068D1"/>
<stop offset="0.6969" stop-color="#9082D5"/>
<stop offset="1" stop-color="#D38ED7"/>
</linearGradient>
<linearGradient id="paint45_linear_14211_91635" x1="507.953" y1="408.634" x2="502.712" y2="470.878" gradientUnits="userSpaceOnUse">
<stop stop-color="#83B8F6"/>
<stop offset="0.9749" stop-color="white"/>
</linearGradient>
<linearGradient id="paint46_linear_14211_91635" x1="507.927" y1="408.942" x2="502.858" y2="469.131" gradientUnits="userSpaceOnUse">
<stop offset="0.0251397" stop-color="white"/>
<stop offset="1" stop-color="#83B8F6"/>
</linearGradient>
<linearGradient id="paint47_linear_14211_91635" x1="473.646" y1="365.158" x2="539.493" y2="480.637" gradientUnits="userSpaceOnUse">
<stop offset="0.0251397" stop-color="#0043C6"/>
<stop offset="0.582" stop-color="#90ADE6"/>
<stop offset="1" stop-color="white"/>
</linearGradient>
<linearGradient id="paint48_linear_14211_91635" x1="603.536" y1="629.795" x2="739.49" y2="477.092" gradientUnits="userSpaceOnUse">
<stop offset="0.0251397" stop-color="#4591D7"/>
<stop offset="0.6333" stop-color="#D6E6F6" stop-opacity="0.2194"/>
<stop offset="0.8042" stop-color="white" stop-opacity="0"/>
</linearGradient>
<linearGradient id="paint49_linear_14211_91635" x1="741.895" y1="632.898" x2="606.926" y2="514.677" gradientUnits="userSpaceOnUse">
<stop offset="0.0251397" stop-color="#0043C6"/>
<stop offset="0.582" stop-color="#90ADE6"/>
<stop offset="1" stop-color="white"/>
</linearGradient>
<linearGradient id="paint50_linear_14211_91635" x1="581.176" y1="489.403" x2="658.832" y2="580.967" gradientUnits="userSpaceOnUse">
<stop offset="0.0251397" stop-color="#0068D1"/>
<stop offset="0.6969" stop-color="#9082D5"/>
<stop offset="1" stop-color="#D38ED7"/>
</linearGradient>
<linearGradient id="paint51_linear_14211_91635" x1="613.537" y1="564.696" x2="626.06" y2="479.758" gradientUnits="userSpaceOnUse">
<stop offset="0.0251397" stop-color="#DCE4EB"/>
<stop offset="0.6697" stop-color="#4C95EC"/>
<stop offset="1" stop-color="#006CED"/>
</linearGradient>
<linearGradient id="paint52_linear_14211_91635" x1="598.181" y1="576.268" x2="659.962" y2="576.268" gradientUnits="userSpaceOnUse">
<stop offset="0.0251397" stop-color="#0043C6"/>
<stop offset="0.582" stop-color="#90ADE6"/>
<stop offset="1" stop-color="white"/>
</linearGradient>
<linearGradient id="paint53_linear_14211_91635" x1="630.539" y1="517.328" x2="649.742" y2="583.309" gradientUnits="userSpaceOnUse">
<stop offset="0.0251397" stop-color="white"/>
<stop offset="1" stop-color="#83B8F6" stop-opacity="0"/>
</linearGradient>
<linearGradient id="paint54_linear_14211_91635" x1="443.173" y1="753.82" x2="566.883" y2="614.871" gradientUnits="userSpaceOnUse">
<stop offset="0.0251397" stop-color="#4591D7"/>
<stop offset="0.7861" stop-color="#D6E6F6" stop-opacity="0.2194"/>
<stop offset="1" stop-color="white" stop-opacity="0"/>
</linearGradient>
<linearGradient id="paint55_linear_14211_91635" x1="569.071" y1="685.341" x2="446.258" y2="577.768" gradientUnits="userSpaceOnUse">
<stop offset="0.0251397" stop-color="#0043C6"/>
<stop offset="0.582" stop-color="#90ADE6"/>
<stop offset="1" stop-color="white"/>
</linearGradient>
<linearGradient id="paint56_linear_14211_91635" x1="441.161" y1="524.755" x2="494.947" y2="707.63" gradientUnits="userSpaceOnUse">
<stop offset="0.0251397" stop-color="#0068D1"/>
<stop offset="0.6969" stop-color="#9082D5"/>
<stop offset="1" stop-color="#D38ED7"/>
</linearGradient>
<linearGradient id="paint57_linear_14211_91635" x1="444.479" y1="711.794" x2="471.97" y2="525.334" gradientUnits="userSpaceOnUse">
<stop offset="0.0251397" stop-color="#DCE4EB"/>
<stop offset="0.6697" stop-color="#4C95EC"/>
<stop offset="1" stop-color="#006CED"/>
</linearGradient>
<linearGradient id="paint58_linear_14211_91635" x1="438.3" y1="705.113" x2="494.517" y2="705.113" gradientUnits="userSpaceOnUse">
<stop offset="0.0251397" stop-color="#0043C6"/>
<stop offset="0.582" stop-color="#90ADE6"/>
<stop offset="1" stop-color="white"/>
</linearGradient>
<linearGradient id="paint59_linear_14211_91635" x1="574.14" y1="627.069" x2="635.72" y2="682.546" gradientUnits="userSpaceOnUse">
<stop offset="0.0251397" stop-color="#DCE4EB" stop-opacity="0.8"/>
<stop offset="0.6697" stop-color="#4C95EC" stop-opacity="0.9322"/>
<stop offset="1" stop-color="#006CED"/>
</linearGradient>
<linearGradient id="paint60_linear_14211_91635" x1="301.81" y1="625.323" x2="241.347" y2="574.65" gradientUnits="userSpaceOnUse">
<stop offset="0.0251397" stop-color="#0068D1"/>
<stop offset="0.3456" stop-color="#5377D3"/>
<stop offset="0.6357" stop-color="#9883D5"/>
<stop offset="0.8438" stop-color="#C38BD7"/>
<stop offset="0.9499" stop-color="#D38ED7"/>
</linearGradient>
<linearGradient id="paint61_linear_14211_91635" x1="236.858" y1="648.902" x2="215.552" y2="610.705" gradientUnits="userSpaceOnUse">
<stop offset="0.0251397" stop-color="#0043C6"/>
<stop offset="1" stop-color="#0C6ADD"/>
</linearGradient>
<linearGradient id="paint62_linear_14211_91635" x1="284.92" y1="675.691" x2="240.744" y2="548.572" gradientUnits="userSpaceOnUse">
<stop offset="0.0251397" stop-color="#0068D1"/>
<stop offset="0.3456" stop-color="#5377D3"/>
<stop offset="0.6357" stop-color="#9883D5"/>
<stop offset="0.8438" stop-color="#C38BD7"/>
<stop offset="0.9499" stop-color="#D38ED7"/>
</linearGradient>
<linearGradient id="paint63_linear_14211_91635" x1="248.53" y1="535.312" x2="253.648" y2="588.545" gradientUnits="userSpaceOnUse">
<stop offset="0.0251397" stop-color="#0043C6"/>
<stop offset="1" stop-color="#0C6ADD"/>
</linearGradient>
<linearGradient id="paint64_linear_14211_91635" x1="289.581" y1="631.458" x2="179.021" y2="616.87" gradientUnits="userSpaceOnUse">
<stop offset="0.0251397" stop-color="#0068D1"/>
<stop offset="0.3456" stop-color="#5377D3"/>
<stop offset="0.6357" stop-color="#9883D5"/>
<stop offset="0.8438" stop-color="#C38BD7"/>
<stop offset="0.9499" stop-color="#D38ED7"/>
</linearGradient>
<linearGradient id="paint65_linear_14211_91635" x1="275.351" y1="580.84" x2="286.451" y2="587.153" gradientUnits="userSpaceOnUse">
<stop offset="0.0251397" stop-color="white"/>
<stop offset="1" stop-color="#83B8F6"/>
</linearGradient>
<linearGradient id="paint66_linear_14211_91635" x1="223.732" y1="610.168" x2="219.829" y2="605.014" gradientUnits="userSpaceOnUse">
<stop stop-color="#0C6ADD"/>
<stop offset="0.9749" stop-color="#0043C6"/>
</linearGradient>
<linearGradient id="paint67_linear_14211_91635" x1="232.123" y1="615.012" x2="228.22" y2="609.858" gradientUnits="userSpaceOnUse">
<stop stop-color="#0C6ADD"/>
<stop offset="0.9749" stop-color="#0043C6"/>
</linearGradient>
<linearGradient id="paint68_linear_14211_91635" x1="240.513" y1="619.856" x2="236.609" y2="614.702" gradientUnits="userSpaceOnUse">
<stop stop-color="#0C6ADD"/>
<stop offset="0.9749" stop-color="#0043C6"/>
</linearGradient>
<linearGradient id="paint69_linear_14211_91635" x1="248.9" y1="624.698" x2="244.996" y2="619.544" gradientUnits="userSpaceOnUse">
<stop stop-color="#0C6ADD"/>
<stop offset="0.9749" stop-color="#0043C6"/>
</linearGradient>
<linearGradient id="paint70_linear_14211_91635" x1="215.536" y1="614.932" x2="211.632" y2="609.778" gradientUnits="userSpaceOnUse">
<stop stop-color="#0C6ADD"/>
<stop offset="0.9749" stop-color="#0043C6"/>
</linearGradient>
<linearGradient id="paint71_linear_14211_91635" x1="218.437" y1="616.36" x2="235.779" y2="622.607" gradientUnits="userSpaceOnUse">
<stop offset="0.0251397" stop-color="white"/>
<stop offset="1" stop-color="#83B8F6"/>
</linearGradient>
<linearGradient id="paint72_linear_14211_91635" x1="232.315" y1="624.62" x2="228.411" y2="619.466" gradientUnits="userSpaceOnUse">
<stop stop-color="#0C6ADD"/>
<stop offset="0.9749" stop-color="#0043C6"/>
</linearGradient>
<linearGradient id="paint73_linear_14211_91635" x1="240.702" y1="629.463" x2="236.798" y2="624.309" gradientUnits="userSpaceOnUse">
<stop stop-color="#0C6ADD"/>
<stop offset="0.9749" stop-color="#0043C6"/>
</linearGradient>
<linearGradient id="paint74_linear_14211_91635" x1="201.849" y1="616.28" x2="219.191" y2="622.527" gradientUnits="userSpaceOnUse">
<stop offset="0.0251397" stop-color="white"/>
<stop offset="1" stop-color="#83B8F6"/>
</linearGradient>
<linearGradient id="paint75_linear_14211_91635" x1="215.727" y1="624.54" x2="211.824" y2="619.386" gradientUnits="userSpaceOnUse">
<stop stop-color="#0C6ADD"/>
<stop offset="0.9749" stop-color="#0043C6"/>
</linearGradient>
<linearGradient id="paint76_linear_14211_91635" x1="224.118" y1="629.385" x2="220.214" y2="624.231" gradientUnits="userSpaceOnUse">
<stop stop-color="#0C6ADD"/>
<stop offset="0.9749" stop-color="#0043C6"/>
</linearGradient>
<linearGradient id="paint77_linear_14211_91635" x1="227.017" y1="630.811" x2="244.359" y2="637.057" gradientUnits="userSpaceOnUse">
<stop offset="0.0251397" stop-color="white"/>
<stop offset="1" stop-color="#83B8F6"/>
</linearGradient>
<linearGradient id="paint78_linear_14211_91635" x1="199.139" y1="624.46" x2="195.235" y2="619.306" gradientUnits="userSpaceOnUse">
<stop stop-color="#0C6ADD"/>
<stop offset="0.9749" stop-color="#0043C6"/>
</linearGradient>
<linearGradient id="paint79_linear_14211_91635" x1="207.529" y1="629.305" x2="203.625" y2="624.151" gradientUnits="userSpaceOnUse">
<stop stop-color="#0C6ADD"/>
<stop offset="0.9749" stop-color="#0043C6"/>
</linearGradient>
<linearGradient id="paint80_linear_14211_91635" x1="215.919" y1="634.149" x2="212.015" y2="628.995" gradientUnits="userSpaceOnUse">
<stop stop-color="#0C6ADD"/>
<stop offset="0.9749" stop-color="#0043C6"/>
</linearGradient>
<linearGradient id="paint81_linear_14211_91635" x1="224.306" y1="638.991" x2="220.402" y2="633.837" gradientUnits="userSpaceOnUse">
<stop stop-color="#0C6ADD"/>
<stop offset="0.9749" stop-color="#0043C6"/>
</linearGradient>
<linearGradient id="paint82_linear_14211_91635" x1="53.0521" y1="318.598" x2="68.124" y2="331.616" gradientUnits="userSpaceOnUse">
<stop offset="0.0251397" stop-color="white"/>
<stop offset="1" stop-color="#83B8F6" stop-opacity="0"/>
</linearGradient>
<linearGradient id="paint83_linear_14211_91635" x1="202.068" y1="204.075" x2="222.466" y2="221.695" gradientUnits="userSpaceOnUse">
<stop offset="0.0251397" stop-color="white"/>
<stop offset="1" stop-color="#83B8F6" stop-opacity="0"/>
</linearGradient>
<linearGradient id="paint84_linear_14211_91635" x1="59.5183" y1="292.998" x2="67.906" y2="300.243" gradientUnits="userSpaceOnUse">
<stop offset="0.0251397" stop-color="white"/>
<stop offset="1" stop-color="#83B8F6" stop-opacity="0"/>
</linearGradient>
<radialGradient id="paint85_radial_14211_91635" cx="0" cy="0" r="1" gradientUnits="userSpaceOnUse" gradientTransform="translate(347.445 85.066) scale(56.9373 32.3498)">
<stop stop-color="#683FCE"/>
<stop offset="1" stop-color="#72BEED"/>
</radialGradient>
<radialGradient id="paint86_radial_14211_91635" cx="0" cy="0" r="1" gradientUnits="userSpaceOnUse" gradientTransform="translate(366.53 83.9231) scale(25.7351 58.2952)">
<stop stop-color="#BFA8FB"/>
<stop offset="1" stop-color="#9DCCFC"/>
</radialGradient>
<radialGradient id="paint87_radial_14211_91635" cx="0" cy="0" r="1" gradientUnits="userSpaceOnUse" gradientTransform="translate(242.614 321.735) scale(23.4276 10.947)">
<stop stop-color="#BFA8FB"/>
<stop offset="1" stop-color="#9DCCFC"/>
</radialGradient>
<linearGradient id="paint88_linear_14211_91635" x1="280.243" y1="208.93" x2="309.72" y2="208.93" gradientUnits="userSpaceOnUse">
<stop stop-color="#683FCE"/>
<stop offset="1" stop-color="#4F83CA"/>
</linearGradient>
<radialGradient id="paint89_radial_14211_91635" cx="0" cy="0" r="1" gradientUnits="userSpaceOnUse" gradientTransform="translate(294.376 17.1956) scale(23.6771 13.4525)">
<stop stop-color="#BFA8FB"/>
<stop offset="1" stop-color="#9DCCFC"/>
</radialGradient>
<radialGradient id="paint90_radial_14211_91635" cx="0" cy="0" r="1" gradientUnits="userSpaceOnUse" gradientTransform="translate(353.041 232.825) scale(181.996 380.625)">
<stop stop-color="#BFA8FB"/>
<stop offset="1" stop-color="#9DCCFC"/>
</radialGradient>
<radialGradient id="paint91_radial_14211_91635" cx="0" cy="0" r="1" gradientUnits="userSpaceOnUse" gradientTransform="translate(366.528 448.309) scale(25.6103 57.6867)">
<stop stop-color="#BFA8FB"/>
<stop offset="1" stop-color="#9DCCFC"/>
</radialGradient>
<radialGradient id="paint92_radial_14211_91635" cx="0" cy="0" r="1" gradientUnits="userSpaceOnUse" gradientTransform="translate(308.801 415.112) scale(25.548 57.4061)">
<stop stop-color="#BFA8FB"/>
<stop offset="1" stop-color="#9DCCFC"/>
</radialGradient>
<radialGradient id="paint93_radial_14211_91635" cx="0" cy="0" r="1" gradientUnits="userSpaceOnUse" gradientTransform="translate(253.63 42.5555) scale(33.4057 19.0684)">
<stop stop-color="#BFA8FB"/>
<stop offset="1" stop-color="#9DCCFC"/>
</radialGradient>
<radialGradient id="paint94_radial_14211_91635" cx="0" cy="0" r="1" gradientUnits="userSpaceOnUse" gradientTransform="translate(308.801 49.976) scale(25.3401 56.3831)">
<stop stop-color="#BFA8FB"/>
<stop offset="1" stop-color="#9DCCFC"/>
</radialGradient>
<radialGradient id="paint95_radial_14211_91635" cx="0" cy="0" r="1" gradientUnits="userSpaceOnUse" gradientTransform="translate(96.58 228.502) scale(405.171 847.135)">
<stop offset="0.35" stop-color="#683FCE"/>
<stop offset="1" stop-color="#72BEED"/>
</radialGradient>
<radialGradient id="paint96_radial_14211_91635" cx="0" cy="0" r="1" gradientUnits="userSpaceOnUse" gradientTransform="translate(352.103 50.5176) scale(23.6771 13.4525)">
<stop stop-color="#BFA8FB"/>
<stop offset="1" stop-color="#9DCCFC"/>
</radialGradient>
<linearGradient id="paint97_linear_14211_91635" x1="280.243" y1="357.104" x2="309.72" y2="357.104" gradientUnits="userSpaceOnUse">
<stop stop-color="#683FCE"/>
<stop offset="1" stop-color="#4F83CA"/>
</linearGradient>
<linearGradient id="paint98_linear_14211_91635" x1="283.715" y1="489.32" x2="315.091" y2="587.481" gradientUnits="userSpaceOnUse">
<stop offset="0.0251397" stop-color="white"/>
<stop offset="1" stop-color="#83B8F6"/>
</linearGradient>
<linearGradient id="paint99_linear_14211_91635" x1="294.588" y1="538.065" x2="412.919" y2="842.856" gradientUnits="userSpaceOnUse">
<stop offset="0.0251397" stop-color="white"/>
<stop offset="1" stop-color="#83B8F6"/>
</linearGradient>
<linearGradient id="paint100_linear_14211_91635" x1="302.846" y1="596.806" x2="278.277" y2="542.165" gradientUnits="userSpaceOnUse">
<stop offset="0.0251397" stop-color="#0043C6"/>
<stop offset="0.582" stop-color="#90ADE6"/>
<stop offset="1" stop-color="white"/>
</linearGradient>
<linearGradient id="paint101_linear_14211_91635" x1="207.458" y1="538.649" x2="235.711" y2="491.121" gradientUnits="userSpaceOnUse">
<stop offset="0.0251397" stop-color="#4591D7"/>
<stop offset="0.7358" stop-color="#D6E6F6" stop-opacity="0.2194"/>
<stop offset="0.9356" stop-color="white" stop-opacity="0"/>
</linearGradient>
<linearGradient id="paint102_linear_14211_91635" x1="237.603" y1="501.589" x2="121.089" y2="355.403" gradientUnits="userSpaceOnUse">
<stop offset="0.0251397" stop-color="#0043C6"/>
<stop offset="0.1556" stop-color="#0446C7"/>
<stop offset="0.279" stop-color="#0F4EC9"/>
<stop offset="0.3997" stop-color="#225CCE"/>
<stop offset="0.5187" stop-color="#3D70D4"/>
<stop offset="0.6366" stop-color="#608ADB"/>
<stop offset="0.7535" stop-color="#8AA9E5"/>
<stop offset="0.8698" stop-color="#BDCEF0"/>
<stop offset="0.9827" stop-color="#F6F8FD"/>
<stop offset="1" stop-color="white"/>
</linearGradient>
<linearGradient id="paint103_linear_14211_91635" x1="181.298" y1="303.347" x2="199.683" y2="525.044" gradientUnits="userSpaceOnUse">
<stop offset="0.0251397" stop-color="#0068D1"/>
<stop offset="0.3456" stop-color="#5377D3"/>
<stop offset="0.6357" stop-color="#9883D5"/>
<stop offset="0.8438" stop-color="#C38BD7"/>
<stop offset="0.9499" stop-color="#D38ED7"/>
</linearGradient>
<linearGradient id="paint104_linear_14211_91635" x1="208.031" y1="549.526" x2="179.904" y2="372.441" gradientUnits="userSpaceOnUse">
<stop stop-color="#0C6ADD"/>
<stop offset="0.9749" stop-color="#0043C6"/>
</linearGradient>
<linearGradient id="paint105_linear_14211_91635" x1="201.889" y1="317.486" x2="189.632" y2="592.173" gradientUnits="userSpaceOnUse">
<stop stop-color="white"/>
<stop offset="0.0173011" stop-color="#F6F8FD"/>
<stop offset="0.1302" stop-color="#BDCEF0"/>
<stop offset="0.2465" stop-color="#8AA9E5"/>
<stop offset="0.3634" stop-color="#608ADB"/>
<stop offset="0.4813" stop-color="#3D70D4"/>
<stop offset="0.6003" stop-color="#225CCE"/>
<stop offset="0.721" stop-color="#0F4EC9"/>
<stop offset="0.8444" stop-color="#0446C7"/>
<stop offset="0.9749" stop-color="#0043C6"/>
</linearGradient>
<linearGradient id="paint106_linear_14211_91635" x1="192.783" y1="383.51" x2="190.371" y2="387.531" gradientUnits="userSpaceOnUse">
<stop offset="0.0251397" stop-color="#0043C6"/>
<stop offset="0.1556" stop-color="#0446C7"/>
<stop offset="0.279" stop-color="#0F4EC9"/>
<stop offset="0.3997" stop-color="#225CCE"/>
<stop offset="0.5187" stop-color="#3D70D4"/>
<stop offset="0.6366" stop-color="#608ADB"/>
<stop offset="0.7535" stop-color="#8AA9E5"/>
<stop offset="0.8698" stop-color="#BDCEF0"/>
<stop offset="0.9827" stop-color="#F6F8FD"/>
<stop offset="1" stop-color="white"/>
</linearGradient>
<linearGradient id="paint107_linear_14211_91635" x1="200.278" y1="388.007" x2="197.866" y2="392.028" gradientUnits="userSpaceOnUse">
<stop offset="0.0251397" stop-color="#0043C6"/>
<stop offset="0.1556" stop-color="#0446C7"/>
<stop offset="0.279" stop-color="#0F4EC9"/>
<stop offset="0.3997" stop-color="#225CCE"/>
<stop offset="0.5187" stop-color="#3D70D4"/>
<stop offset="0.6366" stop-color="#608ADB"/>
<stop offset="0.7535" stop-color="#8AA9E5"/>
<stop offset="0.8698" stop-color="#BDCEF0"/>
<stop offset="0.9827" stop-color="#F6F8FD"/>
<stop offset="1" stop-color="white"/>
</linearGradient>
<linearGradient id="paint108_linear_14211_91635" x1="207.965" y1="441.882" x2="196.476" y2="459.115" gradientUnits="userSpaceOnUse">
<stop offset="0.0251397" stop-color="#4591D7"/>
<stop offset="0.7861" stop-color="#D6E6F6" stop-opacity="0.2194"/>
<stop offset="1" stop-color="white" stop-opacity="0"/>
</linearGradient>
<linearGradient id="paint109_linear_14211_91635" x1="205.451" y1="476.373" x2="196.934" y2="491.428" gradientUnits="userSpaceOnUse">
<stop offset="0.0251397" stop-color="#4591D7"/>
<stop offset="0.7861" stop-color="#D6E6F6" stop-opacity="0.2194"/>
<stop offset="1" stop-color="white" stop-opacity="0"/>
</linearGradient>
<linearGradient id="paint110_linear_14211_91635" x1="206.949" y1="504.314" x2="196.846" y2="520.953" gradientUnits="userSpaceOnUse">
<stop offset="0.0251397" stop-color="#4591D7"/>
<stop offset="0.7861" stop-color="#D6E6F6" stop-opacity="0.2194"/>
<stop offset="1" stop-color="white" stop-opacity="0"/>
</linearGradient>
<linearGradient id="paint111_linear_14211_91635" x1="175.11" y1="398.544" x2="184.158" y2="389.496" gradientUnits="userSpaceOnUse">
<stop offset="0.0251397" stop-color="#0068D1"/>
<stop offset="0.3456" stop-color="#5377D3"/>
<stop offset="0.6357" stop-color="#9883D5"/>
<stop offset="0.8438" stop-color="#C38BD7"/>
<stop offset="0.9499" stop-color="#D38ED7"/>
</linearGradient>
<linearGradient id="paint112_linear_14211_91635" x1="175.11" y1="450.094" x2="184.158" y2="441.047" gradientUnits="userSpaceOnUse">
<stop offset="0.0251397" stop-color="#0068D1"/>
<stop offset="0.3456" stop-color="#5377D3"/>
<stop offset="0.6357" stop-color="#9883D5"/>
<stop offset="0.8438" stop-color="#C38BD7"/>
<stop offset="0.9499" stop-color="#D38ED7"/>
</linearGradient>
<linearGradient id="paint113_linear_14211_91635" x1="191.219" y1="407.522" x2="200.267" y2="398.474" gradientUnits="userSpaceOnUse">
<stop offset="0.0251397" stop-color="#0068D1"/>
<stop offset="0.3456" stop-color="#5377D3"/>
<stop offset="0.6357" stop-color="#9883D5"/>
<stop offset="0.8438" stop-color="#C38BD7"/>
<stop offset="0.9499" stop-color="#D38ED7"/>
</linearGradient>
<linearGradient id="paint114_linear_14211_91635" x1="168.328" y1="451.753" x2="221.962" y2="527.866" gradientUnits="userSpaceOnUse">
<stop offset="0.0251397" stop-color="white"/>
<stop offset="1" stop-color="#83B8F6"/>
</linearGradient>
<linearGradient id="paint115_linear_14211_91635" x1="188.395" y1="501.005" x2="319.302" y2="576.59" gradientUnits="userSpaceOnUse">
<stop offset="0.0251397" stop-color="white"/>
<stop offset="1" stop-color="#83B8F6"/>
</linearGradient>
<linearGradient id="paint116_linear_14211_91635" x1="186.601" y1="496.947" x2="193.114" y2="513.189" gradientUnits="userSpaceOnUse">
<stop offset="0.0251397" stop-color="#0068D1"/>
<stop offset="0.4982" stop-color="#918FD7"/>
<stop offset="0.5056" stop-color="#9390D7"/>
<stop offset="0.5059" stop-color="#9390D7"/>
<stop offset="0.5162" stop-color="#8C90D7"/>
<stop offset="0.5447" stop-color="#8A90D7"/>
<stop offset="0.6073" stop-color="#9890D7"/>
<stop offset="0.7699" stop-color="#B88FD7"/>
<stop offset="0.9067" stop-color="#CC8ED7"/>
<stop offset="1" stop-color="#D38ED7"/>
</linearGradient>
<linearGradient id="paint117_linear_14211_91635" x1="232.011" y1="541.862" x2="233.458" y2="523.046" gradientUnits="userSpaceOnUse">
<stop offset="0.0251397" stop-color="white"/>
<stop offset="1" stop-color="#83B8F6"/>
</linearGradient>
<linearGradient id="paint118_linear_14211_91635" x1="168.328" y1="418.668" x2="221.962" y2="494.781" gradientUnits="userSpaceOnUse">
<stop offset="0.0251397" stop-color="white"/>
<stop offset="1" stop-color="#83B8F6"/>
</linearGradient>
<linearGradient id="paint119_linear_14211_91635" x1="188.395" y1="467.92" x2="319.302" y2="543.505" gradientUnits="userSpaceOnUse">
<stop offset="0.0251397" stop-color="white"/>
<stop offset="1" stop-color="#83B8F6"/>
</linearGradient>
<linearGradient id="paint120_linear_14211_91635" x1="186.601" y1="463.863" x2="193.114" y2="480.105" gradientUnits="userSpaceOnUse">
<stop offset="0.0251397" stop-color="#0068D1"/>
<stop offset="0.4982" stop-color="#918FD7"/>
<stop offset="0.5056" stop-color="#9390D7"/>
<stop offset="0.5059" stop-color="#9390D7"/>
<stop offset="0.5162" stop-color="#8C90D7"/>
<stop offset="0.5447" stop-color="#8A90D7"/>
<stop offset="0.6073" stop-color="#9890D7"/>
<stop offset="0.7699" stop-color="#B88FD7"/>
<stop offset="0.9067" stop-color="#CC8ED7"/>
<stop offset="1" stop-color="#D38ED7"/>
</linearGradient>
<linearGradient id="paint121_linear_14211_91635" x1="232.011" y1="508.778" x2="233.458" y2="489.962" gradientUnits="userSpaceOnUse">
<stop offset="0.0251397" stop-color="white"/>
<stop offset="1" stop-color="#83B8F6"/>
</linearGradient>
</defs>
</svg>
