<svg width="867" height="667" viewBox="0 0 867 667" fill="none" xmlns="http://www.w3.org/2000/svg">
<g opacity="0.1">
<path d="M631 606.402H632.1V605.302H631V606.402ZM436.13 606.402V605.302H435.03V606.402H436.13ZM436.13 665H435.03V666.1H436.13V665ZM631 665V666.1H632.1V665H631ZM448.95 564.1L448.676 565.166L448.95 564.1ZM612.864 606.315L613.138 605.25L612.864 606.315ZM425.707 602.443L426.663 602.987L426.67 602.974L426.677 602.962L425.707 602.443ZM445.385 565.664L444.416 565.145V565.145L445.385 565.664ZM592.797 644.84L593.067 643.774L592.797 644.84ZM621.204 637.027L620.427 636.249L621.204 637.027ZM425.001 605.347L426.101 605.315L425.001 605.347ZM425.469 621.67L426.569 621.638L425.469 621.67ZM428.224 625.217L428.525 624.159H428.525L428.224 625.217ZM427.733 603.129L427.473 604.197L427.733 603.129ZM629.9 606.402V649.796H632.1V606.402H629.9ZM631 648.696H436.13V650.896H631V648.696ZM437.23 649.796V606.402H435.03V649.796H437.23ZM436.13 607.502H441.815V605.302H436.13V607.502ZM613.313 607.502H631V605.302H613.313V607.502ZM436.13 666.1H631V663.9H436.13V666.1ZM632.1 665V649.796H629.9V665H632.1ZM435.03 649.796V665H437.23V649.796H435.03ZM448.676 565.166L612.589 607.38L613.138 605.25L449.225 563.035L448.676 565.166ZM426.677 602.962L446.355 566.183L444.416 565.145L424.737 601.924L426.677 602.962ZM424.751 601.898C424.466 602.399 423.9 603.705 423.9 605.452H426.1C426.1 604.158 426.527 603.225 426.663 602.987L424.751 601.898ZM593.067 643.774L442.085 605.464L441.544 607.596L592.526 645.907L593.067 643.774ZM620.427 636.249C613.258 643.405 602.871 646.262 593.067 643.774L592.526 645.907C603.083 648.585 614.265 645.509 621.981 637.806L620.427 636.249ZM612.589 607.38C625.474 610.699 629.86 626.831 620.427 636.249L621.981 637.806C632.615 627.188 627.68 608.995 613.138 605.25L612.589 607.38ZM449.225 563.035C447.327 562.547 445.343 563.412 444.416 565.145L446.355 566.183C446.803 565.347 447.757 564.929 448.676 565.166L449.225 563.035ZM423.902 605.379L424.37 621.701L426.569 621.638L426.101 605.315L423.902 605.379ZM427.923 626.275L435.829 628.524L436.431 626.408L428.525 624.159L427.923 626.275ZM427.473 604.197L441.554 607.629L442.075 605.492L427.993 602.06L427.473 604.197ZM424.37 621.701C424.431 623.838 425.868 625.691 427.923 626.275L428.525 624.159C427.396 623.838 426.603 622.819 426.569 621.638L424.37 621.701ZM426.101 605.315C426.079 604.575 426.765 604.025 427.473 604.197L427.993 602.06C425.867 601.542 423.839 603.195 423.902 605.379L426.101 605.315Z" fill="white"/>
<path d="M619.63 624.773C619.63 632.645 610.722 639.027 599.733 639.027C588.743 639.027 579.835 632.645 579.835 624.773C579.835 616.901 588.743 610.52 599.733 610.52C610.722 610.52 619.63 616.901 619.63 624.773Z" stroke="white" stroke-opacity="0.7" stroke-width="2.2"/>
<path d="M613.945 624.773C613.945 630.371 607.582 634.909 599.733 634.909C591.883 634.909 585.52 630.371 585.52 624.773C585.52 619.175 591.883 614.637 599.733 614.637C607.582 614.637 613.945 619.175 613.945 624.773Z" stroke="white" stroke-opacity="0.7" stroke-width="2.2"/>
</g>
<g opacity="0.6">
<path d="M278.325 627L277.243 627.2L277.409 628.1H278.325V627ZM248.073 535.469L249.173 535.498L249.173 535.483V535.469H248.073ZM309.675 627V628.1H310.591L310.757 627.2L309.675 627ZM339.927 535.469H338.827V535.483L338.827 535.498L339.927 535.469ZM279.406 626.8C279.014 624.679 277.536 622.147 275.621 619.451C273.677 616.716 271.158 613.647 268.518 610.438C263.195 603.968 257.383 596.923 254.291 590.463L252.306 591.413C255.539 598.167 261.554 605.436 266.819 611.836C269.472 615.061 271.938 618.066 273.827 620.725C275.744 623.423 276.948 625.605 277.243 627.2L279.406 626.8ZM254.291 590.463C252.789 587.326 251.688 582.354 250.904 576.549C250.124 570.776 249.67 564.293 249.413 558.202C249.156 552.115 249.096 546.436 249.1 542.279C249.102 540.201 249.121 538.504 249.138 537.327C249.147 536.739 249.156 536.28 249.162 535.97C249.165 535.814 249.168 535.696 249.17 535.617C249.171 535.577 249.172 535.547 249.172 535.527C249.172 535.517 249.173 535.51 249.173 535.505C249.173 535.502 249.173 535.5 249.173 535.499C249.173 535.499 249.173 535.498 249.173 535.498C249.173 535.498 249.173 535.498 248.073 535.469C246.974 535.44 246.974 535.441 246.974 535.441C246.974 535.441 246.974 535.442 246.974 535.443C246.974 535.444 246.973 535.446 246.973 535.449C246.973 535.454 246.973 535.462 246.973 535.473C246.972 535.493 246.972 535.524 246.971 535.565C246.969 535.646 246.966 535.767 246.963 535.924C246.956 536.239 246.947 536.701 246.938 537.294C246.921 538.48 246.902 540.187 246.9 542.277C246.896 546.455 246.956 552.167 247.215 558.295C247.473 564.42 247.931 570.978 248.723 576.844C249.512 582.678 250.646 587.944 252.306 591.413L254.291 590.463ZM249.173 535.469V486.607H246.973V535.469H249.173ZM293.999 625.9H278.325V628.1H293.999V625.9ZM249.173 486.607C249.173 483.564 251.637 481.1 254.674 481.1V478.9C250.42 478.9 246.973 482.351 246.973 486.607H249.173ZM310.757 627.2C311.052 625.605 312.256 623.423 314.173 620.725C316.062 618.066 318.528 615.061 321.181 611.836C326.446 605.436 332.461 598.167 335.694 591.413L333.709 590.463C330.617 596.923 324.805 603.968 319.482 610.438C316.842 613.647 314.323 616.716 312.379 619.451C310.464 622.147 308.986 624.679 308.594 626.8L310.757 627.2ZM335.694 591.413C337.354 587.944 338.488 582.678 339.277 576.844C340.069 570.978 340.527 564.42 340.785 558.295C341.044 552.167 341.104 546.455 341.1 542.277C341.098 540.187 341.079 538.48 341.062 537.294C341.053 536.701 341.044 536.239 341.037 535.924C341.034 535.767 341.031 535.646 341.029 535.565C341.028 535.524 341.028 535.493 341.027 535.473C341.027 535.462 341.027 535.454 341.027 535.449C341.027 535.446 341.026 535.444 341.026 535.443C341.026 535.442 341.026 535.441 341.026 535.441C341.026 535.441 341.026 535.44 339.927 535.469C338.827 535.498 338.827 535.498 338.827 535.498C338.827 535.498 338.827 535.499 338.827 535.499C338.827 535.5 338.827 535.502 338.827 535.505C338.827 535.51 338.828 535.517 338.828 535.527C338.828 535.547 338.829 535.577 338.83 535.617C338.832 535.696 338.835 535.814 338.838 535.97C338.844 536.28 338.853 536.739 338.862 537.327C338.879 538.504 338.898 540.201 338.9 542.279C338.904 546.436 338.844 552.115 338.587 558.202C338.33 564.293 337.876 570.776 337.096 576.549C336.312 582.354 335.211 587.326 333.709 590.463L335.694 591.413ZM341.027 535.469V486.607H338.827V535.469H341.027ZM294.001 628.1H309.675V625.9H294.001V628.1ZM341.027 486.607C341.027 482.351 337.58 478.9 333.326 478.9V481.1C336.363 481.1 338.827 483.564 338.827 486.607H341.027ZM254.674 481.1H333.326V478.9H254.674V481.1Z" fill="white"/>
<path d="M260.723 505.326C260.723 504.11 261.708 503.124 262.923 503.124H324.525C325.74 503.124 326.725 504.11 326.725 505.326V566.438C326.725 567.654 325.74 568.64 324.525 568.64H262.923C261.708 568.64 260.723 567.654 260.723 566.438V505.326Z" stroke="white" stroke-opacity="0.7" stroke-width="2.2"/>
<path d="M282.724 531.466H305.275V548.15L293.999 553.057L282.724 548.15V531.466Z" stroke="white" stroke-opacity="0.7" stroke-width="2.2"/>
<path d="M286.645 526.068C286.645 522.002 289.938 518.707 293.999 518.707C298.06 518.707 301.353 522.002 301.353 526.068V531.466H286.645V526.068Z" stroke="white" stroke-opacity="0.7" stroke-width="2.2"/>
</g>
<path d="M395 365.255C395 358.487 400.505 353 407.295 353H632.705C639.495 353 645 358.487 645 365.255V496.995C645 503.763 639.495 509.25 632.705 509.25H407.295C400.505 509.25 395 503.763 395 496.995V365.255Z" stroke="white" stroke-width="2.2"/>
<path d="M565.082 364.744C565.082 364.18 565.541 363.723 566.107 363.723H633.217C633.783 363.723 634.242 364.18 634.242 364.744V432.146C634.242 432.71 633.783 433.167 633.217 433.167H566.107C565.541 433.167 565.082 432.71 565.082 432.146V364.744Z" stroke="white" stroke-width="2.2"/>
<path d="M577.523 454.255C574.093 458.969 572.249 464.644 572.254 470.467C572.259 476.29 574.113 481.962 577.551 486.67L588.067 479.041C586.245 476.546 585.263 473.541 585.26 470.456C585.257 467.37 586.235 464.363 588.052 461.866L577.523 454.255Z" stroke="white" stroke-opacity="0.7" stroke-width="2.2"/>
<path d="M622.313 454.255C625.742 458.969 627.587 464.644 627.582 470.467C627.577 476.29 625.722 481.962 622.284 486.67L611.769 479.041C613.59 476.546 614.573 473.541 614.576 470.456C614.578 467.37 613.601 464.363 611.784 461.866L622.313 454.255Z" stroke="white" stroke-opacity="0.7" stroke-width="2.2"/>
<path d="M616.178 492.75C611.451 496.173 605.759 498.017 599.916 498.016C594.073 498.016 588.381 496.172 583.654 492.748L591.298 482.265C593.803 484.079 596.82 485.057 599.917 485.057C603.013 485.057 606.031 484.08 608.536 482.266L616.178 492.75Z" stroke="white" stroke-opacity="0.7" stroke-width="2.2"/>
<path d="M616.178 448.135C611.451 444.712 605.759 442.869 599.916 442.869C594.073 442.87 588.381 444.714 583.654 448.138L591.298 458.621C593.803 456.807 596.82 455.829 599.917 455.829C603.013 455.829 606.031 456.806 608.536 458.62L616.178 448.135Z" stroke="white" stroke-opacity="0.7" stroke-width="2.2"/>
<path d="M610.164 470.443C610.164 476.083 605.576 480.655 599.918 480.655C594.259 480.655 589.672 476.083 589.672 470.443C589.672 464.803 594.259 460.23 599.918 460.23C605.576 460.23 610.164 464.803 610.164 470.443Z" stroke="white" stroke-opacity="0.7" stroke-width="2.2"/>
<path d="M345 362.402H346.1V361.302H345V362.402ZM150.13 362.402V361.302H149.03V362.402H150.13ZM150.13 421H149.03V422.1H150.13V421ZM345 421V422.1H346.1V421H345ZM162.95 320.1L162.676 321.166L162.95 320.1ZM326.864 362.315L327.138 361.25L326.864 362.315ZM139.707 358.443L140.663 358.987L140.67 358.974L140.677 358.962L139.707 358.443ZM159.385 321.664L158.416 321.145V321.145L159.385 321.664ZM306.797 400.84L307.067 399.774L306.797 400.84ZM335.204 393.027L334.427 392.249L335.204 393.027ZM139.001 361.347L140.101 361.315L139.001 361.347ZM139.469 377.67L140.569 377.638L139.469 377.67ZM142.224 381.217L142.525 380.159H142.525L142.224 381.217ZM141.733 359.129L141.473 360.197L141.733 359.129ZM343.9 362.402V405.796H346.1V362.402H343.9ZM345 404.696H150.13V406.896H345V404.696ZM151.23 405.796V362.402H149.03V405.796H151.23ZM150.13 363.502H155.815V361.302H150.13V363.502ZM327.313 363.502H345V361.302H327.313V363.502ZM150.13 422.1H345V419.9H150.13V422.1ZM346.1 421V405.796H343.9V421H346.1ZM149.03 405.796V421H151.23V405.796H149.03ZM162.676 321.166L326.589 363.38L327.138 361.25L163.225 319.035L162.676 321.166ZM140.677 358.962L160.355 322.183L158.416 321.145L138.737 357.924L140.677 358.962ZM138.751 357.898C138.466 358.399 137.9 359.705 137.9 361.452H140.1C140.1 360.158 140.527 359.225 140.663 358.987L138.751 357.898ZM307.067 399.774L156.085 361.464L155.544 363.596L306.526 401.907L307.067 399.774ZM334.427 392.249C327.258 399.405 316.871 402.262 307.067 399.774L306.526 401.907C317.083 404.585 328.265 401.509 335.981 393.806L334.427 392.249ZM326.589 363.38C339.474 366.699 343.86 382.831 334.427 392.249L335.981 393.806C346.615 383.188 341.68 364.995 327.138 361.25L326.589 363.38ZM163.225 319.035C161.327 318.547 159.343 319.412 158.416 321.145L160.355 322.183C160.803 321.347 161.757 320.929 162.676 321.166L163.225 319.035ZM137.902 361.379L138.37 377.701L140.569 377.638L140.101 361.315L137.902 361.379ZM141.923 382.275L149.829 384.524L150.431 382.408L142.525 380.159L141.923 382.275ZM141.473 360.197L155.554 363.629L156.075 361.492L141.993 358.06L141.473 360.197ZM138.37 377.701C138.431 379.838 139.868 381.691 141.923 382.275L142.525 380.159C141.396 379.838 140.603 378.819 140.569 377.638L138.37 377.701ZM140.101 361.315C140.079 360.575 140.765 360.025 141.473 360.197L141.993 358.06C139.867 357.542 137.839 359.195 137.902 361.379L140.101 361.315Z" fill="white"/>
<path d="M333.63 380.773C333.63 388.645 324.722 395.027 313.733 395.027C302.743 395.027 293.835 388.645 293.835 380.773C293.835 372.901 302.743 366.52 313.733 366.52C324.722 366.52 333.63 372.901 333.63 380.773Z" stroke="white" stroke-opacity="0.7" stroke-width="2.2"/>
<path d="M327.945 380.773C327.945 386.371 321.582 390.909 313.733 390.909C305.883 390.909 299.52 386.371 299.52 380.773C299.52 375.175 305.883 370.637 313.733 370.637C321.582 370.637 327.945 375.175 327.945 380.773Z" stroke="white" stroke-opacity="0.7" stroke-width="2.2"/>
<g opacity="0.2">
<path d="M32.3245 371L31.2429 371.2L31.4093 372.1H32.3245V371ZM2.07326 279.469L3.17289 279.498L3.17326 279.483V279.469H2.07326ZM63.6755 371V372.1H64.5907L64.7571 371.2L63.6755 371ZM93.9267 279.469H92.8267V279.483L92.8271 279.498L93.9267 279.469ZM33.4062 370.8C33.0141 368.679 31.5364 366.147 29.6206 363.451C27.6771 360.716 25.1579 357.647 22.5176 354.438C17.1946 347.968 11.383 340.923 8.29066 334.463L6.3063 335.413C9.53921 342.167 15.5535 349.436 20.8187 355.836C23.4724 359.061 25.9378 362.066 27.8273 364.725C29.7444 367.423 30.9479 369.605 31.2429 371.2L33.4062 370.8ZM8.29066 334.463C6.78877 331.326 5.68804 326.354 4.90366 320.549C4.12359 314.776 3.67001 308.293 3.41292 302.202C3.15595 296.115 3.09592 290.436 3.10021 286.279C3.10235 284.201 3.12056 282.504 3.13822 281.327C3.14705 280.739 3.15574 280.28 3.16221 279.97C3.16545 279.814 3.16813 279.696 3.16999 279.617C3.17093 279.577 3.17166 279.547 3.17215 279.527C3.1724 279.517 3.17258 279.51 3.17271 279.505C3.17277 279.502 3.17282 279.5 3.17285 279.499C3.17286 279.499 3.17287 279.498 3.17288 279.498C3.17289 279.498 3.17289 279.498 2.07326 279.469C0.973633 279.44 0.973626 279.441 0.973616 279.441C0.973607 279.441 0.973592 279.442 0.973574 279.443C0.973538 279.444 0.973486 279.446 0.973418 279.449C0.973282 279.454 0.973083 279.462 0.972825 279.473C0.972309 279.493 0.971557 279.524 0.970601 279.565C0.968691 279.646 0.965966 279.767 0.962689 279.924C0.956134 280.239 0.947367 280.701 0.938471 281.294C0.920678 282.48 0.902365 284.187 0.900211 286.277C0.895903 290.455 0.956192 296.167 1.21487 302.295C1.47343 308.42 1.93082 314.978 2.72347 320.844C3.51181 326.678 4.64556 331.944 6.3063 335.413L8.29066 334.463ZM3.17326 279.469V230.607H0.97326V279.469H3.17326ZM47.9995 369.9H32.3245V372.1H47.9995V369.9ZM3.17326 230.607C3.17326 227.564 5.63683 225.1 8.67354 225.1V222.9C4.41978 222.9 0.97326 226.351 0.97326 230.607H3.17326ZM64.7571 371.2C65.0521 369.605 66.2556 367.423 68.1727 364.725C70.0622 362.066 72.5276 359.061 75.1813 355.836C80.4465 349.436 86.4608 342.167 89.6937 335.413L87.7093 334.463C84.617 340.923 78.8054 347.968 73.4824 354.438C70.8421 357.647 68.3229 360.716 66.3794 363.451C64.4637 366.147 62.9859 368.679 62.5938 370.8L64.7571 371.2ZM89.6937 335.413C91.3544 331.944 92.4882 326.678 93.2765 320.844C94.0692 314.978 94.5266 308.42 94.7851 302.295C95.0438 296.167 95.1041 290.455 95.0998 286.277C95.0976 284.187 95.0793 282.48 95.0615 281.294C95.0526 280.701 95.0439 280.239 95.0373 279.924C95.034 279.767 95.0313 279.646 95.0294 279.565C95.0285 279.524 95.0277 279.493 95.0272 279.473C95.0269 279.462 95.0267 279.454 95.0266 279.449C95.0265 279.446 95.0265 279.444 95.0264 279.443C95.0264 279.442 95.0264 279.441 95.0264 279.441C95.0264 279.441 95.0264 279.44 93.9267 279.469C92.8271 279.498 92.8271 279.498 92.8271 279.498C92.8271 279.498 92.8271 279.499 92.8272 279.499C92.8272 279.5 92.8272 279.502 92.8273 279.505C92.8274 279.51 92.8276 279.517 92.8279 279.527C92.8283 279.547 92.8291 279.577 92.83 279.617C92.8319 279.696 92.8346 279.814 92.8378 279.97C92.8443 280.28 92.853 280.739 92.8618 281.327C92.8794 282.504 92.8977 284.201 92.8998 286.279C92.9041 290.436 92.8441 296.115 92.5871 302.202C92.33 308.293 91.8764 314.776 91.0963 320.549C90.312 326.354 89.2112 331.326 87.7093 334.463L89.6937 335.413ZM95.0267 279.469V230.607H92.8267V279.469H95.0267ZM48.0005 372.1H63.6755V369.9H48.0005V372.1ZM95.0267 230.607C95.0267 226.351 91.5802 222.9 87.3265 222.9V225.1C90.3632 225.1 92.8267 227.564 92.8267 230.607H95.0267ZM8.67354 225.1H87.3265V222.9H8.67354V225.1Z" fill="white"/>
<path d="M14.7227 249.326C14.7227 248.11 15.7077 247.124 16.9228 247.124H78.5254C79.7404 247.124 80.7255 248.11 80.7255 249.326V310.438C80.7255 311.654 79.7404 312.64 78.5254 312.64H16.9228C15.7077 312.64 14.7227 311.654 14.7227 310.438V249.326Z" stroke="white" stroke-opacity="0.7" stroke-width="2.2"/>
<path d="M36.7236 275.466H59.2746V292.15L47.9991 297.057L36.7236 292.15V275.466Z" stroke="white" stroke-opacity="0.7" stroke-width="2.2"/>
<path d="M40.6455 270.068C40.6455 266.002 43.9378 262.707 47.9991 262.707C52.0603 262.707 55.3526 266.002 55.3526 270.068V275.466H40.6455V270.068Z" stroke="white" stroke-opacity="0.7" stroke-width="2.2"/>
</g>
<g opacity="0.4">
<path d="M149 119.255C149 112.487 154.505 107 161.295 107H386.705C393.495 107 399 112.487 399 119.255V250.995C399 257.763 393.495 263.25 386.705 263.25H161.295C154.505 263.25 149 257.763 149 250.995V119.255Z" stroke="white" stroke-width="2.2"/>
<path d="M319.082 118.744C319.082 118.18 319.541 117.723 320.107 117.723H387.217C387.783 117.723 388.242 118.18 388.242 118.744V186.146C388.242 186.71 387.783 187.167 387.217 187.167H320.107C319.541 187.167 319.082 186.71 319.082 186.146V118.744Z" stroke="white" stroke-width="2.2"/>
<path d="M331.523 208.255C328.093 212.969 326.249 218.644 326.254 224.467C326.259 230.29 328.113 235.962 331.551 240.67L342.067 233.041C340.245 230.546 339.263 227.541 339.26 224.456C339.257 221.37 340.235 218.363 342.052 215.866L331.523 208.255Z" stroke="white" stroke-opacity="0.7" stroke-width="2.2"/>
<path d="M376.313 208.255C379.742 212.969 381.587 218.644 381.582 224.467C381.577 230.29 379.722 235.962 376.284 240.67L365.769 233.041C367.59 230.546 368.573 227.541 368.576 224.456C368.578 221.37 367.601 218.363 365.784 215.866L376.313 208.255Z" stroke="white" stroke-opacity="0.7" stroke-width="2.2"/>
<path d="M370.178 246.75C365.451 250.173 359.759 252.017 353.916 252.016C348.073 252.016 342.381 250.172 337.654 246.748L345.298 236.265C347.803 238.079 350.82 239.057 353.917 239.057C357.013 239.057 360.031 238.08 362.536 236.266L370.178 246.75Z" stroke="white" stroke-opacity="0.7" stroke-width="2.2"/>
<path d="M370.178 202.135C365.451 198.712 359.759 196.869 353.916 196.869C348.073 196.87 342.381 198.714 337.654 202.138L345.298 212.621C347.803 210.807 350.82 209.829 353.917 209.829C357.013 209.829 360.031 210.806 362.536 212.62L370.178 202.135Z" stroke="white" stroke-opacity="0.7" stroke-width="2.2"/>
<path d="M364.164 224.443C364.164 230.083 359.576 234.655 353.918 234.655C348.259 234.655 343.672 230.083 343.672 224.443C343.672 218.803 348.259 214.23 353.918 214.23C359.576 214.23 364.164 218.803 364.164 224.443Z" stroke="white" stroke-opacity="0.7" stroke-width="2.2"/>
</g>
<g opacity="0.4">
<path d="M811 245.402H812.1V244.302H811V245.402ZM616.13 245.402V244.302H615.03V245.402H616.13ZM616.13 304H615.03V305.1H616.13V304ZM811 304V305.1H812.1V304H811ZM628.95 203.1L628.676 204.166L628.95 203.1ZM792.864 245.315L793.138 244.25L792.864 245.315ZM605.707 241.443L606.663 241.987L606.67 241.974L606.677 241.962L605.707 241.443ZM625.385 204.664L624.416 204.145V204.145L625.385 204.664ZM772.797 283.84L773.067 282.774L772.797 283.84ZM801.204 276.027L800.427 275.249L801.204 276.027ZM605.001 244.347L606.101 244.315L605.001 244.347ZM605.469 260.67L606.569 260.638L605.469 260.67ZM608.224 264.217L608.525 263.159H608.525L608.224 264.217ZM607.733 242.129L607.473 243.197L607.733 242.129ZM809.9 245.402V288.796H812.1V245.402H809.9ZM811 287.696H616.13V289.896H811V287.696ZM617.23 288.796V245.402H615.03V288.796H617.23ZM616.13 246.502H621.815V244.302H616.13V246.502ZM793.313 246.502H811V244.302H793.313V246.502ZM616.13 305.1H811V302.9H616.13V305.1ZM812.1 304V288.796H809.9V304H812.1ZM615.03 288.796V304H617.23V288.796H615.03ZM628.676 204.166L792.589 246.38L793.138 244.25L629.225 202.035L628.676 204.166ZM606.677 241.962L626.355 205.183L624.416 204.145L604.737 240.924L606.677 241.962ZM604.751 240.898C604.466 241.399 603.9 242.705 603.9 244.452H606.1C606.1 243.158 606.527 242.225 606.663 241.987L604.751 240.898ZM773.067 282.774L622.085 244.464L621.544 246.596L772.526 284.907L773.067 282.774ZM800.427 275.249C793.258 282.405 782.871 285.262 773.067 282.774L772.526 284.907C783.083 287.585 794.265 284.509 801.981 276.806L800.427 275.249ZM792.589 246.38C805.474 249.699 809.86 265.831 800.427 275.249L801.981 276.806C812.615 266.188 807.68 247.995 793.138 244.25L792.589 246.38ZM629.225 202.035C627.327 201.547 625.343 202.412 624.416 204.145L626.355 205.183C626.803 204.347 627.757 203.929 628.676 204.166L629.225 202.035ZM603.902 244.379L604.37 260.701L606.569 260.638L606.101 244.315L603.902 244.379ZM607.923 265.275L615.829 267.524L616.431 265.408L608.525 263.159L607.923 265.275ZM607.473 243.197L621.554 246.629L622.075 244.492L607.993 241.06L607.473 243.197ZM604.37 260.701C604.431 262.838 605.868 264.691 607.923 265.275L608.525 263.159C607.396 262.838 606.603 261.819 606.569 260.638L604.37 260.701ZM606.101 244.315C606.079 243.575 606.765 243.025 607.473 243.197L607.993 241.06C605.867 240.542 603.839 242.195 603.902 244.379L606.101 244.315Z" fill="white"/>
<path d="M799.63 263.773C799.63 271.645 790.722 278.027 779.733 278.027C768.743 278.027 759.835 271.645 759.835 263.773C759.835 255.901 768.743 249.52 779.733 249.52C790.722 249.52 799.63 255.901 799.63 263.773Z" stroke="white" stroke-opacity="0.7" stroke-width="2.2"/>
<path d="M793.945 263.773C793.945 269.371 787.582 273.909 779.733 273.909C771.883 273.909 765.52 269.371 765.52 263.773C765.52 258.175 771.883 253.637 779.733 253.637C787.582 253.637 793.945 258.175 793.945 263.773Z" stroke="white" stroke-opacity="0.7" stroke-width="2.2"/>
</g>
<path d="M490.325 309L489.243 309.2L489.409 310.1H490.325V309ZM460.073 217.469L461.173 217.498L461.173 217.483V217.469H460.073ZM521.675 309V310.1H522.591L522.757 309.2L521.675 309ZM551.927 217.469H550.827V217.483L550.827 217.498L551.927 217.469ZM491.406 308.8C491.014 306.679 489.536 304.147 487.621 301.451C485.677 298.716 483.158 295.647 480.518 292.438C475.195 285.968 469.383 278.923 466.291 272.463L464.306 273.413C467.539 280.167 473.554 287.436 478.819 293.836C481.472 297.061 483.938 300.066 485.827 302.725C487.744 305.423 488.948 307.605 489.243 309.2L491.406 308.8ZM466.291 272.463C464.789 269.326 463.688 264.354 462.904 258.549C462.124 252.776 461.67 246.293 461.413 240.202C461.156 234.115 461.096 228.436 461.1 224.279C461.102 222.201 461.121 220.504 461.138 219.327C461.147 218.739 461.156 218.28 461.162 217.97C461.165 217.814 461.168 217.696 461.17 217.617C461.171 217.577 461.172 217.547 461.172 217.527C461.172 217.517 461.173 217.51 461.173 217.505C461.173 217.502 461.173 217.5 461.173 217.499C461.173 217.499 461.173 217.498 461.173 217.498C461.173 217.498 461.173 217.498 460.073 217.469C458.974 217.44 458.974 217.441 458.974 217.441C458.974 217.441 458.974 217.442 458.974 217.443C458.974 217.444 458.973 217.446 458.973 217.449C458.973 217.454 458.973 217.462 458.973 217.473C458.972 217.493 458.972 217.524 458.971 217.565C458.969 217.646 458.966 217.767 458.963 217.924C458.956 218.239 458.947 218.701 458.938 219.294C458.921 220.48 458.902 222.187 458.9 224.277C458.896 228.455 458.956 234.167 459.215 240.295C459.473 246.42 459.931 252.978 460.723 258.844C461.512 264.678 462.646 269.944 464.306 273.413L466.291 272.463ZM461.173 217.469V168.607H458.973V217.469H461.173ZM505.999 307.9H490.325V310.1H505.999V307.9ZM461.173 168.607C461.173 165.564 463.637 163.1 466.674 163.1V160.9C462.42 160.9 458.973 164.351 458.973 168.607H461.173ZM522.757 309.2C523.052 307.605 524.256 305.423 526.173 302.725C528.062 300.066 530.528 297.061 533.181 293.836C538.446 287.436 544.461 280.167 547.694 273.413L545.709 272.463C542.617 278.923 536.805 285.968 531.482 292.438C528.842 295.647 526.323 298.716 524.379 301.451C522.464 304.147 520.986 306.679 520.594 308.8L522.757 309.2ZM547.694 273.413C549.354 269.944 550.488 264.678 551.277 258.844C552.069 252.978 552.527 246.42 552.785 240.295C553.044 234.167 553.104 228.455 553.1 224.277C553.098 222.187 553.079 220.48 553.062 219.294C553.053 218.701 553.044 218.239 553.037 217.924C553.034 217.767 553.031 217.646 553.029 217.565C553.028 217.524 553.028 217.493 553.027 217.473C553.027 217.462 553.027 217.454 553.027 217.449C553.027 217.446 553.026 217.444 553.026 217.443C553.026 217.442 553.026 217.441 553.026 217.441C553.026 217.441 553.026 217.44 551.927 217.469C550.827 217.498 550.827 217.498 550.827 217.498C550.827 217.498 550.827 217.499 550.827 217.499C550.827 217.5 550.827 217.502 550.827 217.505C550.827 217.51 550.828 217.517 550.828 217.527C550.828 217.547 550.829 217.577 550.83 217.617C550.832 217.696 550.835 217.814 550.838 217.97C550.844 218.28 550.853 218.739 550.862 219.327C550.879 220.504 550.898 222.201 550.9 224.279C550.904 228.436 550.844 234.115 550.587 240.202C550.33 246.293 549.876 252.776 549.096 258.549C548.312 264.354 547.211 269.326 545.709 272.463L547.694 273.413ZM553.027 217.469V168.607H550.827V217.469H553.027ZM506.001 310.1H521.675V307.9H506.001V310.1ZM553.027 168.607C553.027 164.351 549.58 160.9 545.326 160.9V163.1C548.363 163.1 550.827 165.564 550.827 168.607H553.027ZM466.674 163.1H545.326V160.9H466.674V163.1Z" fill="white"/>
<path d="M472.723 187.326C472.723 186.11 473.708 185.124 474.923 185.124H536.525C537.74 185.124 538.725 186.11 538.725 187.326V248.438C538.725 249.654 537.74 250.64 536.525 250.64H474.923C473.708 250.64 472.723 249.654 472.723 248.438V187.326Z" stroke="white" stroke-opacity="0.7" stroke-width="2.2"/>
<path d="M494.724 213.466H517.275V230.15L505.999 235.057L494.724 230.15V213.466Z" stroke="white" stroke-opacity="0.7" stroke-width="2.2"/>
<path d="M498.645 208.068C498.645 204.002 501.938 200.707 505.999 200.707C510.06 200.707 513.353 204.002 513.353 208.068V213.466H498.645V208.068Z" stroke="white" stroke-opacity="0.7" stroke-width="2.2"/>
<path d="M615 14.2549C615 7.48671 620.505 2 627.295 2H852.705C859.495 2 865 7.48671 865 14.2549V145.995C865 152.763 859.495 158.25 852.705 158.25H627.295C620.505 158.25 615 152.763 615 145.995V14.2549Z" stroke="white" stroke-width="2.2"/>
<path d="M785.082 13.7443C785.082 13.1803 785.541 12.723 786.107 12.723H853.217C853.783 12.723 854.242 13.1803 854.242 13.7443V81.1462C854.242 81.7103 853.783 82.1675 853.217 82.1675H786.107C785.541 82.1675 785.082 81.7103 785.082 81.1462V13.7443Z" stroke="white" stroke-width="2.2"/>
<path d="M797.523 103.255C794.093 107.969 792.249 113.644 792.254 119.467C792.259 125.29 794.113 130.962 797.551 135.67L808.067 128.041C806.245 125.546 805.263 122.541 805.26 119.456C805.257 116.37 806.235 113.363 808.052 110.866L797.523 103.255Z" stroke="white" stroke-opacity="0.7" stroke-width="2.2"/>
<path d="M842.313 103.255C845.742 107.969 847.587 113.644 847.582 119.467C847.577 125.29 845.722 130.962 842.284 135.67L831.769 128.041C833.59 125.546 834.573 122.541 834.576 119.456C834.578 116.37 833.601 113.363 831.784 110.866L842.313 103.255Z" stroke="white" stroke-opacity="0.7" stroke-width="2.2"/>
<path d="M836.178 141.75C831.451 145.173 825.759 147.017 819.916 147.016C814.073 147.016 808.381 145.172 803.654 141.748L811.298 131.265C813.803 133.079 816.82 134.057 819.917 134.057C823.013 134.057 826.031 133.08 828.536 131.266L836.178 141.75Z" stroke="white" stroke-opacity="0.7" stroke-width="2.2"/>
<path d="M836.178 97.1355C831.451 93.7124 825.759 91.869 819.916 91.8694C814.073 91.8698 808.381 93.714 803.654 97.1377L811.298 107.621C813.803 105.807 816.82 104.829 819.917 104.829C823.013 104.829 826.031 105.806 828.536 107.62L836.178 97.1355Z" stroke="white" stroke-opacity="0.7" stroke-width="2.2"/>
<path d="M830.164 119.443C830.164 125.083 825.576 129.655 819.918 129.655C814.259 129.655 809.672 125.083 809.672 119.443C809.672 113.803 814.259 109.23 819.918 109.23C825.576 109.23 830.164 113.803 830.164 119.443Z" stroke="white" stroke-opacity="0.7" stroke-width="2.2"/>
</svg>
