<svg viewBox="0 0 21 21" fill="none" xmlns="http://www.w3.org/2000/svg">
 <path d="M10.1467 0.592102C15.6697 0.592102 20.1467 5.0691 20.1467 10.5921C20.1467 16.1151 15.6697 20.5921 10.1467 20.5921C4.62373 20.5921 0.146729 16.1151 0.146729 10.5921C0.146729 5.0691 4.62373 0.592102 10.1467 0.592102ZM10.1467 2.5921C5.72873 2.5921 2.14673 6.1741 2.14673 10.5921C2.14673 15.0101 5.72873 18.5921 10.1467 18.5921C14.5647 18.5921 18.1467 15.0101 18.1467 10.5921C18.1467 6.1741 14.5647 2.5921 10.1467 2.5921ZM10.1467 3.5921C11.1647 3.5921 12.1317 3.8091 13.0047 4.2001L11.4417 5.7621C11.0287 5.6521 10.5947 5.5921 10.1467 5.5921C7.38573 5.5921 5.14673 7.8311 5.14673 10.5921C5.14673 11.9721 5.70673 13.2221 6.61073 14.1281L5.19673 15.5421L5.04073 15.3811C3.86673 14.1291 3.14673 12.4441 3.14673 10.5921C3.14673 6.7261 6.28073 3.5921 10.1467 3.5921ZM16.5387 7.7351C16.9287 8.6071 17.1467 9.5751 17.1467 10.5921C17.1467 12.5251 16.3627 14.2751 15.0967 15.5421L13.6827 14.1281C14.5867 13.2221 15.1467 11.9721 15.1467 10.5921C15.1467 10.1441 15.0877 9.7101 14.9767 9.2971L16.5387 7.7351ZM14.3887 4.9351L15.8037 6.3491L12.0797 10.0751C12.1237 10.2401 12.1467 10.4131 12.1467 10.5921C12.1467 11.6971 11.2517 12.5921 10.1467 12.5921C9.04173 12.5921 8.14673 11.6971 8.14673 10.5921C8.14673 9.4871 9.04173 8.5921 10.1467 8.5921C10.3257 8.5921 10.4987 8.6151 10.6637 8.6591L14.3897 4.9351H14.3887Z" fill="currentColor"/>
</svg>






