<svg width="24" height="25" viewBox="0 0 24 25" fill="none"
    xmlns="http://www.w3.org/2000/svg">
    <path d="M13 12.5737L14.121 11.4537C14.3095 11.2714 14.562 11.1705 14.8242 11.1726C15.0864 11.1746 15.3373 11.2796 15.5228 11.4649C15.7084 11.6502 15.8137 11.9009 15.8162 12.1631C15.8186 12.4253 15.718 12.678 15.536 12.8667L12.707 15.6957C12.6143 15.7889 12.5042 15.8629 12.3829 15.9133C12.2615 15.9638 12.1314 15.9898 12 15.9898C11.8686 15.9898 11.7385 15.9638 11.6171 15.9133C11.4958 15.8629 11.3857 15.7889 11.293 15.6957L8.464 12.8667C8.37116 12.7738 8.29753 12.6634 8.24734 12.542C8.19714 12.4206 8.17135 12.2904 8.17144 12.159C8.17154 12.0276 8.19751 11.8975 8.24788 11.7762C8.29825 11.6548 8.37202 11.5446 8.465 11.4517C8.55798 11.3589 8.66833 11.2853 8.78976 11.2351C8.91119 11.1849 9.04131 11.1591 9.17271 11.1592C9.3041 11.1593 9.43419 11.1852 9.55555 11.2356C9.67691 11.286 9.78716 11.3598 9.88 11.4527L11 12.5737V6.93274C11 6.66752 11.1054 6.41317 11.2929 6.22563C11.4804 6.0381 11.7348 5.93274 12 5.93274C12.2652 5.93274 12.5196 6.0381 12.7071 6.22563C12.8946 6.41317 13 6.66752 13 6.93274V12.5737ZM6 17.9327H18C18.2652 17.9327 18.5196 18.0381 18.7071 18.2256C18.8946 18.4132 19 18.6675 19 18.9327C19 19.198 18.8946 19.4523 18.7071 19.6398C18.5196 19.8274 18.2652 19.9327 18 19.9327H6C5.73478 19.9327 5.48043 19.8274 5.29289 19.6398C5.10536 19.4523 5 19.198 5 18.9327C5 18.6675 5.10536 18.4132 5.29289 18.2256C5.48043 18.0381 5.73478 17.9327 6 17.9327Z" fill="currentColor"/>
</svg>
