<?xml version="1.0" encoding="utf-8"?>
<svg width="24" height="24" viewBox="0 0 24 24" fill="none" xmlns="http://www.w3.org/2000/svg">
    <path fill-rule="evenodd" clip-rule="evenodd" d="M21.2261 6.51287C21.0302 6.49376 20.8341 6.4959 20.6404 6.51988C19.0328 6.71898 18.2743 8.11274 18.5591 10.4025C18.8192 12.4931 19.8794 14.7096 21.9413 14.4842C22.0724 14.4698 22.1984 14.4488 22.3191 14.4216C21.1886 19.4056 16.7625 23.1241 11.4747 23.1241C5.33101 23.1241 0.350586 18.1045 0.350586 11.9125C0.350586 5.72041 5.33101 0.700775 11.4747 0.700775C15.6761 0.700775 19.3335 3.04828 21.2261 6.51287ZM8.93458 19.6205C13.6754 19.6205 18.2192 15.2518 18.2192 10.511C18.2192 5.77023 15.6024 1.92706 10.8616 1.92706C5.78129 1.92706 1.05137 6.47096 1.05137 11.2117C1.05137 17.3431 4.90538 19.6205 8.93458 19.6205Z" fill="currentColor"/>
    <path d="M23.7919 10.027C24.1657 11.8695 23.6714 13.4148 22.1376 13.6837C20.6037 13.9525 19.7097 12.1986 19.4205 10.5134C19.1038 8.66776 19.6088 7.50546 20.8037 7.27692C21.9986 7.04839 23.3875 8.03376 23.7919 10.027Z" fill="currentColor"/>
    <path d="M11.8308 5.7564C11.0674 5.8635 10.2977 6.42596 9.54123 7.42726C9.18229 7.90181 8.88442 8.39807 8.6642 8.79255C8.6642 8.79255 8.6642 8.79255 8.66695 8.79492L8.66657 8.79222C8.66657 8.79222 9.16757 9.26181 9.71898 9.76289C9.92456 9.38424 10.2241 8.8657 10.5846 8.38543C11.2576 7.495 11.7441 7.25872 12.0358 7.21781C13.1336 7.06381 14.1641 7.93012 14.335 9.14841C14.5048 10.3586 13.75 11.4753 12.6557 11.6371C12.6059 11.6441 12.5408 11.645 12.4575 11.6374C12.7996 11.7491 13.1593 11.8144 13.4865 11.7685C15.497 11.4864 15.681 9.9374 15.692 9.8257C15.713 9.54455 15.7036 9.25389 15.6623 8.95945C15.3789 6.93888 13.6588 5.49997 11.8308 5.7564Z" fill="currentColor"/>
    <path d="M8.10267 12.3991L8.10266 12.3991C7.34822 13.3977 6.5852 13.9523 5.83406 14.0576C4.02642 14.3112 2.3199 12.8879 2.0377 10.8763C1.99671 10.5841 1.98782 10.2984 2.00828 10.0167L1.97654 10.0144L2.00811 10.0184C2.00819 10.0178 2.00827 10.0171 2.00836 10.0164C2.01587 9.95604 2.06614 9.55202 2.3569 9.12714C2.65033 8.69837 3.19047 8.24565 4.18682 8.10588C4.44378 8.06983 4.72261 8.10369 4.99826 8.17579C3.8895 8.34594 3.13114 9.47806 3.3024 10.6989C3.47529 11.9314 4.51932 12.8134 5.63781 12.6593L5.63789 12.6592C5.94169 12.6166 6.43498 12.3726 7.11001 11.4793L7.11007 11.4792C7.46077 11.012 7.75373 10.5092 7.95886 10.1334C8.2235 10.3742 8.47456 10.6058 8.66163 10.7792C8.75869 10.8692 8.83853 10.9436 8.89409 10.9954L8.95835 11.0554L8.9642 11.0609C8.7457 11.4508 8.45332 11.9355 8.10267 12.3991Z" fill="currentColor" stroke="currentColor" stroke-width="0.0636392"/>
    <path d="M13.477 11.7368C12.4438 11.8515 11.2449 11.0776 10.9946 10.8786C10.347 10.3635 8.81982 8.93882 8.70011 8.82616C7.57607 7.74158 6.09293 6.5614 4.80789 6.74167L4.80552 6.742L4.80315 6.74233C3.24421 6.96929 2.1021 8.35799 1.97667 10.0145C1.98797 9.90547 2.28874 8.30977 4.18358 8.09905C5.21673 7.98442 6.42225 8.77109 6.67496 8.96977C7.32261 9.4849 8.84974 10.9096 8.9695 11.0222C10.0931 12.1041 11.5763 13.2843 12.8613 13.104L12.8637 13.1037L12.866 13.1034C14.425 12.8764 15.5694 11.4874 15.6925 9.83121C15.6788 9.94055 15.3738 11.5231 13.477 11.7368Z" fill="currentColor"/>
</svg>
