<svg width="24" height="24" viewBox="0 0 24 24" fill="none" xmlns="http://www.w3.org/2000/svg">
    <path d="M4.22196 19.778C4.68584 20.2425 5.23693 20.6108 5.84358 20.8617C6.45023 21.1126 7.10048 21.2411 7.75696 21.24C8.41359 21.2411 9.06398 21.1125 9.67079 20.8617C10.2776 20.6108 10.8289 20.2425 11.293 19.778L14.121 16.949L12.707 15.535L9.87896 18.364C9.31543 18.925 8.55263 19.2399 7.75746 19.2399C6.96229 19.2399 6.19949 18.925 5.63596 18.364C5.07447 17.8007 4.75917 17.0378 4.75917 16.2425C4.75917 15.4471 5.07447 14.6842 5.63596 14.121L8.46496 11.293L7.05096 9.87896L4.22196 12.707C3.28577 13.6454 2.76001 14.9169 2.76001 16.2425C2.76001 17.568 3.28577 18.8395 4.22196 19.778ZM19.778 11.293C20.7137 10.3542 21.2391 9.08288 21.2391 7.75746C21.2391 6.43204 20.7137 5.16068 19.778 4.22196C18.8395 3.28577 17.568 2.76001 16.2425 2.76001C14.9169 2.76001 13.6454 3.28577 12.707 4.22196L9.87896 7.05096L11.293 8.46496L14.121 5.63596C14.6845 5.07495 15.4473 4.75999 16.2425 4.75999C17.0376 4.75999 17.8004 5.07495 18.364 5.63596C18.9255 6.19923 19.2408 6.96213 19.2408 7.75746C19.2408 8.55279 18.9255 9.31569 18.364 9.87896L15.535 12.707L16.949 14.121L19.778 11.293Z" fill="currentColor"/>
    <path d="M8.46407 16.95L7.04907 15.536L15.5361 7.05005L16.9501 8.46505L8.46407 16.95Z" fill="currentColor"/>
</svg>
