<svg width="24" height="24" viewBox="0 0 24 24" fill="none" xmlns="http://www.w3.org/2000/svg">
<path d="M0 21.9142C0 15.3048 0 8.69543 0 2.08607C0.00774315 2.05724 0.0178327 2.02864 0.0229948 1.9991C0.161902 1.17208 0.613116 0.579711 1.3635 0.21074C1.59227 0.0982204 1.83982 0.0520404 2.08596 0C8.69532 0 15.3047 0 21.914 0C21.9361 0.0072669 21.9577 0.01805 21.9804 0.0210975C23.1497 0.186595 24 1.16528 24 2.34651C24 8.78217 24 15.2176 24 21.6533C24 21.7625 23.9974 21.8706 23.9796 21.9796C23.8362 22.8638 23.3479 23.477 22.5316 23.835C22.3343 23.9215 22.1219 23.9524 21.914 24H2.08596C2.0639 23.9927 2.04255 23.9824 2.02002 23.9787C1.05753 23.8174 0.422823 23.2672 0.102069 22.3518C0.0527942 22.2112 0.033319 22.0602 0 21.9139L0 21.9142ZM21.5504 13.7351C21.5778 13.6869 21.5665 13.6437 21.5665 13.6027C21.5675 13.0401 21.5677 12.4777 21.5665 11.9151C21.5665 11.7984 21.6027 11.6535 21.5478 11.5722C21.4849 11.4794 21.3272 11.474 21.2082 11.4376C20.6292 11.2609 20.0334 11.192 19.4311 11.1657C18.5786 11.1287 17.7337 11.1774 16.9235 11.466C15.7235 11.8933 14.9309 12.6739 14.8239 14.0068C14.753 14.8882 14.9889 15.6681 15.6304 16.3027C16.0647 16.7324 16.5837 17.0303 17.1379 17.2727C17.6523 17.4978 18.1802 17.6928 18.6676 17.976C18.9257 18.126 19.1673 18.2969 19.3485 18.5397C19.6667 18.9661 19.5787 19.5224 19.1439 19.8279C18.8402 20.0412 18.4909 20.1246 18.13 20.1514C16.9497 20.2388 15.8932 19.912 14.9607 19.1827C14.9323 19.1605 14.9107 19.1209 14.8577 19.1279C14.8577 19.8822 14.8582 20.6357 14.8565 21.3891C14.8565 21.4456 14.8908 21.461 14.93 21.4803C15.1336 21.5799 15.3448 21.6605 15.5616 21.7262C16.1517 21.905 16.7576 21.9871 17.3714 22.0189C18.1797 22.0607 18.9803 22.0105 19.7629 21.7934C20.4112 21.6134 20.9858 21.3047 21.4227 20.7754C21.8078 20.3089 21.9854 19.7653 22.0222 19.1694C22.0619 18.5247 21.9776 17.9066 21.6238 17.3482C21.308 16.8501 20.8577 16.5013 20.3565 16.2078C19.8328 15.9014 19.2661 15.6871 18.7166 15.4361C18.3327 15.2607 17.9542 15.0741 17.6408 14.7828C17.1917 14.3653 17.1905 13.7884 17.6387 13.4187C17.9071 13.1972 18.2278 13.1008 18.5641 13.057C19.3604 12.9536 20.1265 13.0811 20.8687 13.3774C21.1076 13.4728 21.3307 13.598 21.5501 13.7354L21.5504 13.7351ZM8.52849 17.6042C8.52849 18.9905 8.52943 20.3769 8.52638 21.7632C8.52638 21.8617 8.54421 21.8947 8.65214 21.8938C9.35114 21.8881 10.0501 21.8917 10.7491 21.8903C10.93 21.89 10.9124 21.9203 10.9124 21.7309C10.9129 18.9699 10.9134 16.2089 10.9106 13.4482C10.9106 13.3434 10.935 13.3111 11.045 13.3116C11.9627 13.3162 12.8804 13.3123 13.7981 13.3172C13.905 13.3177 13.925 13.2869 13.9243 13.1871C13.9194 12.6247 13.9201 12.0624 13.9238 11.5002C13.9243 11.4158 13.9072 11.3884 13.8161 11.3884C11.0903 11.391 8.36471 11.391 5.63889 11.3884C5.55137 11.3884 5.52837 11.4102 5.52908 11.4981C5.5333 12.0642 5.534 12.6306 5.52861 13.1967C5.52767 13.2977 5.55888 13.3167 5.65297 13.3162C6.56666 13.3127 7.48058 13.3158 8.39427 13.3118C8.49846 13.3113 8.5313 13.3345 8.53107 13.4449C8.52708 14.8313 8.52849 16.2176 8.52849 17.604V17.6042Z" fill="currentColor"/>
</svg>
