<?xml version="1.0" encoding="utf-8"?>
<svg width="23" height="18" viewBox="0 0 23 18" fill="none" xmlns="http://www.w3.org/2000/svg">
    <path d="M22.2359 2.81025C22.75 4.815 22.75 9 22.75 9C22.75 9 22.75 13.185 22.2359 15.1898C21.9501 16.2979 21.1142 17.1698 20.0556 17.4645C18.133 18 11.5 18 11.5 18C11.5 18 4.87037 18 2.94437 17.4645C1.88125 17.1653 1.0465 16.2945 0.764125 15.1898C0.25 13.185 0.25 9 0.25 9C0.25 9 0.25 4.815 0.764125 2.81025C1.04988 1.70213 1.88575 0.83025 2.94437 0.5355C4.87037 -2.01166e-07 11.5 0 11.5 0C11.5 0 18.133 -2.01166e-07 20.0556 0.5355C21.1187 0.83475 21.9535 1.7055 22.2359 2.81025V2.81025ZM9.25 12.9375L16 9L9.25 5.0625V12.9375Z" fill="currentColor"/>
</svg>

