<svg width="119" height="118" viewBox="0 0 119 118" fill="none" xmlns="http://www.w3.org/2000/svg">
<path d="M79.9219 40.5692L91.5419 28.9492" stroke="#3B00B9" stroke-width="1.77" stroke-linecap="round" stroke-linejoin="round"/>
<path d="M47.6326 40.1189L37.6426 30.1289" stroke="#3B00B9" stroke-width="1.77" stroke-linecap="round" stroke-linejoin="round"/>
<path d="M88.1326 80.6189L78.1426 70.6289" stroke="#3B00B9" stroke-width="1.77" stroke-linecap="round" stroke-linejoin="round"/>
<path d="M63.5834 76.3583C75.3526 76.3583 84.8934 66.8175 84.8934 55.0483C84.8934 43.2791 75.3526 33.7383 63.5834 33.7383C51.8143 33.7383 42.2734 43.2791 42.2734 55.0483C42.2734 66.8175 51.8143 76.3583 63.5834 76.3583Z" stroke="#3B00B9" stroke-width="1.77"/>
<path d="M80.9935 67.3484C77.1335 61.8984 70.7735 58.3384 63.5835 58.3384C56.3935 58.3384 50.4835 61.6484 46.5935 66.7784" stroke="#3B00B9" stroke-width="1.77"/>
<path d="M63.5834 56.9983C68.333 56.9983 72.1834 53.148 72.1834 48.3983C72.1834 43.6487 68.333 39.7983 63.5834 39.7983C58.8338 39.7983 54.9834 43.6487 54.9834 48.3983C54.9834 53.148 58.8338 56.9983 63.5834 56.9983Z" stroke="#3B00B9" stroke-width="1.77"/>
<path d="M26.9032 33.74C35.3918 33.74 42.2732 26.8586 42.2732 18.37C42.2732 9.88138 35.3918 3 26.9032 3C18.4146 3 11.5332 9.88138 11.5332 18.37C11.5332 26.8586 18.4146 33.74 26.9032 33.74Z" stroke="#3B00B9" stroke-width="1.77"/>
<path d="M39.4633 27.2402C36.6833 23.3102 32.0933 20.7402 26.9033 20.7402C21.7133 20.7402 17.4533 23.1302 14.6433 26.8302" stroke="#3B00B9" stroke-width="1.77"/>
<path d="M26.9031 19.7799C30.3328 19.7799 33.1131 16.9996 33.1131 13.5699C33.1131 10.1402 30.3328 7.35986 26.9031 7.35986C23.4734 7.35986 20.6931 10.1402 20.6931 13.5699C20.6931 16.9996 23.4734 19.7799 26.9031 19.7799Z" stroke="#3B00B9" stroke-width="1.77"/>
<path d="M100.272 107.111C108.761 107.111 115.642 100.23 115.642 91.7411C115.642 83.2525 108.761 76.3711 100.272 76.3711C91.7837 76.3711 84.9023 83.2525 84.9023 91.7411C84.9023 100.23 91.7837 107.111 100.272 107.111Z" stroke="#3B00B9" stroke-width="1.77"/>
<path d="M112.822 100.611C110.042 96.6813 105.452 94.1113 100.262 94.1113C95.0724 94.1113 90.8124 96.5013 88.0024 100.201" stroke="#3B00B9" stroke-width="1.77"/>
<path d="M100.272 93.151C103.702 93.151 106.482 90.3706 106.482 86.941C106.482 83.5113 103.702 80.731 100.272 80.731C96.8426 80.731 94.0623 83.5113 94.0623 86.941C94.0623 90.3706 96.8426 93.151 100.272 93.151Z" stroke="#3B00B9" stroke-width="1.77"/>
<path d="M17.7333 87.7478C26.2219 87.7478 33.1033 80.8664 33.1033 72.3778C33.1033 63.8892 26.2219 57.0078 17.7333 57.0078C9.24466 57.0078 2.36328 63.8892 2.36328 72.3778C2.36328 80.8664 9.24466 87.7478 17.7333 87.7478Z" stroke="#3B00B9" stroke-width="1.77"/>
<path d="M30.2934 81.248C27.5134 77.318 22.9234 74.748 17.7334 74.748C12.5434 74.748 8.28339 77.1381 5.47339 80.8381" stroke="#3B00B9" stroke-width="1.77"/>
<path d="M17.7332 73.7877C21.1629 73.7877 23.9432 71.0074 23.9432 67.5777C23.9432 64.148 21.1629 61.3677 17.7332 61.3677C14.3035 61.3677 11.5232 64.148 11.5232 67.5777C11.5232 71.0074 14.3035 73.7877 17.7332 73.7877Z" stroke="#3B00B9" stroke-width="1.77"/>
<path d="M50.0731 115.978C58.5617 115.978 65.4431 109.097 65.4431 100.608C65.4431 92.1197 58.5617 85.2383 50.0731 85.2383C41.5845 85.2383 34.7031 92.1197 34.7031 100.608C34.7031 109.097 41.5845 115.978 50.0731 115.978Z" stroke="#3B00B9" stroke-width="1.77"/>
<path d="M62.6232 109.479C59.8432 105.549 55.2532 102.979 50.0632 102.979C44.8732 102.979 40.6132 105.369 37.8032 109.069" stroke="#3B00B9" stroke-width="1.77"/>
<path d="M50.073 102.018C53.5027 102.018 56.283 99.2378 56.283 95.8081C56.283 92.3785 53.5027 89.5981 50.073 89.5981C46.6433 89.5981 43.863 92.3785 43.863 95.8081C43.863 99.2378 46.6433 102.018 50.073 102.018Z" stroke="#3B00B9" stroke-width="1.77"/>
<path d="M100.273 32.1911C107.127 32.1911 112.683 26.6349 112.683 19.7811C112.683 12.9272 107.127 7.37109 100.273 7.37109C93.4194 7.37109 87.8633 12.9272 87.8633 19.7811C87.8633 26.6349 93.4194 32.1911 100.273 32.1911Z" stroke="#3B00B9" stroke-width="1.77"/>
</svg>
