<svg xmlns="http://www.w3.org/2000/svg" width="119" height="118" fill="none" viewBox="0 0 119 118"><g stroke="#3B00B9" stroke-width="1.77" clip-path="url(#a)"><path stroke-linecap="round" stroke-linejoin="round" d="M114.017 46.62L79.9567 63.05H79.9467L61.8667 71.77C60.4567 72.45 58.8067 72.45 57.3867 71.79L39.0267 63.12L6.52668 47.76C2.58668 45.91 2.52668 40.34 6.42668 38.4L58.5667 12.44C60.0167 11.71 61.7167 11.7 63.1667 12.42L114.037 37.26C117.937 39.16 117.927 44.73 114.017 46.62Z"/><path stroke-linecap="round" stroke-linejoin="round" d="M98.8567 79.9302C98.8567 90.8302 81.2867 99.6702 59.6067 99.6702C37.9267 99.6702 20.3467 90.8302 20.3467 79.9302"/><path stroke-linecap="round" stroke-linejoin="round" d="M98.8567 79.9201V54.3101"/><path stroke-linecap="round" stroke-linejoin="round" d="M20.3467 79.9201V54.3101"/><path stroke-linecap="round" stroke-linejoin="round" d="M61.3967 42.5498L9.08667 48.9698V75.1598"/><path d="M9.08674 85.11C11.6714 85.11 13.7667 83.0147 13.7667 80.43C13.7667 77.8453 11.6714 75.75 9.08674 75.75C6.50205 75.75 4.40674 77.8453 4.40674 80.43C4.40674 83.0147 6.50205 85.11 9.08674 85.11Z"/><path d="M10.5767 84.8501L16.5367 103.22C16.7767 103.95 16.2267 104.7 15.4567 104.7H2.71674C1.94674 104.7 1.40674 103.95 1.63674 103.22L7.59674 84.8501"/></g><defs><clipPath id="a"><rect width="117.15" height="94.58" fill="#fff" transform="translate(0.696777 11)"/></clipPath></defs></svg>