<svg width="109" height="119" viewBox="0 0 109 119" fill="none" xmlns="http://www.w3.org/2000/svg">
<path d="M45.75 27.5114C45.75 27.5114 41.16 23.2714 35.02 24.1414C28.62 25.0514 30.02 31.5414 32.62 34.1714C35.17 36.7514 40.01 40.0814 45.68 37.7414C45.68 37.7414 48.04 36.9714 48.35 34.2514C48.66 31.5414 48.67 25.4414 51.67 24.0014C54.61 22.5914 59.56 23.3314 63.31 27.4714C66.95 31.5014 65.36 35.9614 61.43 36.8614C57.38 37.7914 52.64 34.8314 52.64 34.8314" stroke="#3B00B9" stroke-width="1.77" stroke-linecap="round"/>
<path d="M14.12 17.4717L32.97 79.8217" stroke="#3B00B9" stroke-width="1.77" stroke-linecap="round"/>
<path d="M30.6201 53.1523C32.3101 51.3823 36.9701 47.5823 45.7501 47.8123C56.9901 48.1023 74.9601 54.8423 86.8501 41.9723C87.1601 41.6423 87.0501 41.1023 86.6401 40.9123C83.7501 39.6123 74.2001 35.0723 71.4901 30.6423C71.3601 30.4323 71.3801 30.1623 71.5201 29.9523C76.2401 22.8523 76.1601 9.80232 75.9801 5.29232C75.9501 4.71232 75.2501 4.44232 74.8501 4.85232C62.9601 17.1223 45.2701 10.5323 34.1701 10.2423C24.1601 9.98232 19.5001 14.9623 18.5001 16.2023" stroke="#3B00B9" stroke-width="1.77" stroke-linecap="round" stroke-linejoin="round"/>
<path d="M58.6396 110.023C72.8168 110.023 84.3096 98.5298 84.3096 84.3526C84.3096 70.1755 72.8168 58.6826 58.6396 58.6826C44.4625 58.6826 32.9696 70.1755 32.9696 84.3526C32.9696 98.5298 44.4625 110.023 58.6396 110.023Z" stroke="#3B00B9" stroke-width="1.77"/>
<path d="M79.6088 99.1637C74.9588 92.5937 67.2988 88.3037 58.6388 88.3037C49.9788 88.3037 42.8588 92.2937 38.1688 98.4737" stroke="#3B00B9" stroke-width="1.77"/>
<path d="M58.6402 86.6917C64.3618 86.6917 69.0001 82.0533 69.0001 76.3317C69.0001 70.61 64.3618 65.9717 58.6402 65.9717C52.9185 65.9717 48.2802 70.61 48.2802 76.3317C48.2802 82.0533 52.9185 86.6917 58.6402 86.6917Z" stroke="#3B00B9" stroke-width="1.77"/>
<path d="M87.2196 67.7521L102.94 59.2021" stroke="#3B00B9" stroke-width="1.77" stroke-linecap="round"/>
<path d="M90.3192 73.4512L100.799 71.2412" stroke="#3B00B9" stroke-width="1.77" stroke-linecap="round"/>
<path d="M83.6395 62.3306L89.4795 53.3506" stroke="#3B00B9" stroke-width="1.77" stroke-linecap="round"/>
</svg>
