<svg width="119" height="119" viewBox="0 0 119 119" fill="none" xmlns="http://www.w3.org/2000/svg">
<path d="M21.2494 56.2054L59.6701 77.4603V42.0464L21.2494 20.7915V56.2054Z" stroke="#3B00B9" stroke-width="1.77" stroke-linejoin="round"/>
<path d="M98.0914 56.2054L59.6708 77.4603V42.0464L98.0914 20.7915V56.2054Z" stroke="#3B00B9" stroke-width="1.77" stroke-linejoin="round"/>
<path d="M59.7357 42.0447L21.2494 20.7898L59.5279 1L98.0142 20.7023L59.7357 42.0447Z" stroke="#3B00B9" stroke-width="1.77" stroke-linejoin="round"/>
<path d="M62.5888 20.1454C62.5888 20.1454 66.8201 18.6912 71.1498 20.7904C75.4795 22.8897 73.424 26.4322 71.1498 27.4381C68.8756 28.444 64.7318 29.3952 60.8175 26.629C60.8175 26.629 59.1009 25.5684 59.3524 23.7644C59.6039 21.9603 60.6863 18.068 58.5761 16.3295C56.466 14.5911 52.1909 13.618 48.1783 15.269C44.1657 16.9199 44.7233 20.4078 48.0252 22.0915C51.3272 23.7753 55.8099 23.0537 55.8099 23.0537" stroke="#3B00B9" stroke-width="1.77"/>
<path d="M53.852 74.7163C49.3146 85.3219 59.7015 96.2227 59.7015 96.2227H59.6687C59.6687 96.2227 70.0556 85.3219 65.5182 74.7163" stroke="#3B00B9" stroke-width="1.77" stroke-linejoin="round"/>
<path d="M70.0555 90.8433V108.392" stroke="#3B00B9" stroke-width="1.77" stroke-linecap="round" stroke-linejoin="round"/>
<path d="M59.6686 100.564V118.112" stroke="#3B00B9" stroke-width="1.77" stroke-linecap="round" stroke-linejoin="round"/>
<path d="M76.9766 80.7598V88.3695" stroke="#3B00B9" stroke-width="1.77" stroke-linecap="round" stroke-linejoin="round"/>
<path d="M49.3479 90.8433V108.392" stroke="#3B00B9" stroke-width="1.77" stroke-linecap="round" stroke-linejoin="round"/>
<path d="M42.4269 80.7598V88.3695" stroke="#3B00B9" stroke-width="1.77" stroke-linecap="round" stroke-linejoin="round"/>
<path d="M87.6914 62.459C94.4921 66.9527 86.609 78.5532 86.609 78.5532C86.609 78.5532 87.3853 70.5061 78.8899 67.7946" stroke="#3B00B9" stroke-width="1.77" stroke-linecap="round" stroke-linejoin="round"/>
<path d="M31.8967 62.459C25.096 66.9527 32.9791 78.5532 32.9791 78.5532C32.9791 78.5532 32.2028 70.5061 40.6982 67.7946" stroke="#3B00B9" stroke-width="1.77" stroke-linecap="round" stroke-linejoin="round"/>
</svg>
