<svg width="119" height="118" viewBox="0 0 119 118" fill="none" xmlns="http://www.w3.org/2000/svg">
<path d="M105.977 31.8152L77.0673 45.7552L61.7173 53.1552C60.5173 53.7352 59.1273 53.7352 57.9173 53.1752L42.3373 45.8152L14.7273 32.7852C11.3873 31.2152 11.3373 26.4852 14.6373 24.8352L58.8973 2.79517C60.1273 2.17517 61.5673 2.17517 62.7973 2.77517L105.987 23.8652C109.297 25.4752 109.297 30.2052 105.967 31.8152H105.977Z" stroke="#3B00B9" stroke-width="1.77" stroke-linecap="round" stroke-linejoin="round"/>
<path d="M26.4573 60.0952C26.4573 65.7352 31.9973 70.7152 40.4873 73.7452" stroke="#3B00B9" stroke-width="1.77" stroke-linecap="round" stroke-linejoin="round"/>
<path d="M81.1572 72.9352C88.4572 69.8752 93.1072 65.2552 93.1072 60.0952" stroke="#3B00B9" stroke-width="1.77" stroke-linecap="round" stroke-linejoin="round"/>
<path d="M93.1073 60.0952V38.3452" stroke="#3B00B9" stroke-width="1.77" stroke-linecap="round" stroke-linejoin="round"/>
<path d="M26.4573 60.0952V38.3452" stroke="#3B00B9" stroke-width="1.77" stroke-linecap="round" stroke-linejoin="round"/>
<path d="M61.2972 28.3652L16.8872 33.8152V56.0552" stroke="#3B00B9" stroke-width="1.77" stroke-linecap="round" stroke-linejoin="round"/>
<path d="M16.8872 64.4952C19.0798 64.4952 20.8572 62.7177 20.8572 60.5252C20.8572 58.3326 19.0798 56.5552 16.8872 56.5552C14.6947 56.5552 12.9172 58.3326 12.9172 60.5252C12.9172 62.7177 14.6947 64.4952 16.8872 64.4952Z" stroke="#3B00B9" stroke-width="1.77"/>
<path d="M18.1573 64.2754L23.2173 79.8654C23.4173 80.4854 22.9573 81.1254 22.3073 81.1254H11.4873C10.8373 81.1254 10.3773 80.4854 10.5773 79.8654L15.6373 64.2754" stroke="#3B00B9" stroke-width="1.77"/>
<path d="M85.3084 91.8242C85.3084 105.454 74.4584 116.504 61.0784 116.504C47.6984 116.504 36.8484 105.454 36.8484 91.8242C36.8484 90.9742 36.8884 90.1342 36.9784 89.3042C38.2384 101.734 48.5484 111.414 61.0784 111.414C73.6084 111.414 83.9184 101.734 85.1784 89.3042C85.2684 90.1342 85.3084 90.9742 85.3084 91.8242Z" stroke="#3B00B9" stroke-width="1.77"/>
<path d="M85.3084 86.7459C85.3084 87.5959 85.2684 88.4359 85.1784 89.2659V89.3059C83.9184 101.736 73.6084 111.416 61.0784 111.416C48.5484 111.416 38.2384 101.736 36.9784 89.3059V89.2659C36.8884 88.4359 36.8484 87.5959 36.8484 86.7459C36.8484 81.9759 38.1784 77.5159 40.4884 73.7459C44.7484 66.7359 52.3784 62.0659 61.0784 62.0659C69.7784 62.0659 76.8084 66.3759 81.1584 72.9359C83.7784 76.8759 85.3084 81.6359 85.3084 86.7459Z" stroke="#3B00B9" stroke-width="1.77"/>
<path d="M66.0075 79.3744C64.7975 75.8344 56.5574 75.4344 56.5574 81.3344C56.5574 86.6844 66.1875 84.3644 66.0075 90.7044C65.8375 96.6444 58.2975 96.6644 56.1375 92.5544" stroke="#3B00B9" stroke-width="1.77" stroke-linecap="round"/>
<path d="M61.3175 73.1245V76.5645" stroke="#3B00B9" stroke-width="1.77" stroke-linecap="round"/>
<path d="M61.3175 95.5244V98.9544" stroke="#3B00B9" stroke-width="1.77" stroke-linecap="round"/>
</svg>
