<svg width="118" height="118" viewBox="0 0 118 118" fill="none" xmlns="http://www.w3.org/2000/svg">
<path d="M117.62 30.1075C117.54 30.0175 117.45 29.9275 117.34 29.8675L59.16 0.0975C58.9 -0.0325 58.61 -0.0325 58.35 0.0975L0.500029 30.0075C0.500029 30.0075 0.490029 30.0075 0.480029 30.0175C0.480029 30.0175 0.460029 30.0175 0.460029 30.0275C0.430029 30.0475 0.400029 30.0675 0.380029 30.0975C0.350029 30.1175 0.320029 30.1375 0.300029 30.1575C0.270029 30.1875 0.250029 30.2175 0.220029 30.2575C0.200029 30.2875 0.170029 30.3175 0.150029 30.3475C0.130029 30.3875 0.120029 30.4275 0.100029 30.4575C0.0900293 30.4875 0.0700293 30.5175 0.0600293 30.5575C0.0500293 30.6075 0.0400293 30.6575 0.0400293 30.6975C0.0400293 30.7275 0.0300293 30.7475 0.0300293 30.7775V84.3075C0.0300293 84.6275 0.200029 84.9275 0.490029 85.0775L58.57 117.217C58.57 117.217 58.63 117.238 58.67 117.257C58.71 117.268 58.74 117.287 58.78 117.298C58.82 117.298 58.85 117.307 58.89 117.317C58.93 117.317 58.96 117.327 59 117.327C59.04 117.327 59.07 117.327 59.11 117.317C59.15 117.317 59.19 117.317 59.22 117.298C59.26 117.298 59.29 117.268 59.33 117.257C59.36 117.247 59.4 117.237 59.43 117.217L117.51 85.0775C117.79 84.9175 117.97 84.6275 117.97 84.3075V30.7875C117.97 30.5175 117.84 30.2775 117.64 30.1075H117.62ZM58.76 1.8775L115.06 30.6975L68.54 56.6375L59.05 61.8875L2.78003 30.8175L58.76 1.8775ZM58.1 114.957L1.79003 83.7975V32.2875L58.1 63.4475V114.957ZM59.87 63.4875L69.36 58.1975L116.18 32.2875V83.7975L59.87 114.957V63.4875Z" fill="#3B00B9"/>
<path d="M57.5699 35.8173C57.5699 37.3073 58.2699 38.4473 58.9099 39.1973C59.5099 39.8873 60.0599 40.2473 60.1899 40.3373C60.1899 40.3373 60.1899 40.3373 60.1999 40.3373L60.2299 40.3573C63.2799 42.4973 66.4499 43.2373 69.2699 43.2373C72.2299 43.2373 74.8299 42.4473 76.6699 41.6373C77.7999 41.1373 78.8599 40.3073 79.6699 39.2673C80.4699 38.2273 81.0299 36.9573 81.0299 35.5773C81.0299 34.5573 80.6999 33.4873 79.9899 32.5273C79.2799 31.5673 78.1999 30.7073 76.6999 29.9873C73.8099 28.5873 70.9599 28.1873 68.6299 28.1873C65.3899 28.1873 63.1399 28.9573 63.0799 28.9773L63.6599 30.6473H63.6699C63.8599 30.5773 65.8599 29.9473 68.6299 29.9473C70.7599 29.9473 73.3299 30.3173 75.9299 31.5773C77.2299 32.2073 78.0699 32.9073 78.5699 33.5773C79.0699 34.2573 79.2599 34.9073 79.2599 35.5673C79.2599 36.4473 78.8899 37.3673 78.2699 38.1773C77.6499 38.9773 76.7999 39.6473 75.9599 40.0073C74.2899 40.7373 71.9099 41.4573 69.2699 41.4573C66.7299 41.4573 63.9499 40.8073 61.1999 38.8673L61.1799 38.8473H61.1599C61.1599 38.8473 60.6499 38.4973 60.1899 37.9573C59.7299 37.4073 59.3299 36.6773 59.3299 35.7973C59.3299 35.6673 59.3299 35.5273 59.3599 35.3773C59.5499 33.9973 60.1199 31.5973 60.1299 29.1973C60.1299 28.1273 60.0199 27.0573 59.6799 26.0373C59.3499 25.0273 58.7699 24.0673 57.8699 23.3273C55.6199 21.4873 52.0899 20.2473 48.1499 20.2373C45.9199 20.2373 43.5599 20.6373 41.2599 21.5873C39.6799 22.2373 38.4799 23.0773 37.6699 24.0773C36.8599 25.0673 36.4399 26.2273 36.4399 27.3773C36.4399 28.5973 36.8899 29.7873 37.6699 30.8373C38.4499 31.8873 39.5699 32.7973 40.9499 33.4973C43.8499 34.9673 47.1799 35.2773 49.6499 35.2773C51.7499 35.2773 53.2199 35.0373 53.2599 35.0373L52.9799 33.2873H52.9299C52.6599 33.3373 51.3799 33.5073 49.6499 33.5073C47.3399 33.5073 44.2399 33.1873 41.7499 31.9173C40.5699 31.3173 39.6699 30.5673 39.0799 29.7673C38.4899 28.9673 38.1999 28.1473 38.1999 27.3673C38.1999 26.6273 38.4499 25.8973 39.0299 25.1873C39.6099 24.4773 40.5499 23.7773 41.9199 23.2173C43.9999 22.3673 46.1299 21.9973 48.1399 21.9973C51.6999 21.9973 54.8999 23.1573 56.7399 24.6773C57.3399 25.1773 57.7399 25.8073 57.9899 26.5773C58.2499 27.3473 58.3499 28.2373 58.3499 29.1773C58.3499 31.3173 57.8099 33.5873 57.5999 35.1173C57.5699 35.3373 57.5499 35.5673 57.5499 35.7773L57.5699 35.8173Z" fill="#3B00B9"/>
</svg>
