<svg width="658" height="54" viewBox="0 0 658 54" fill="none"
  xmlns="http://www.w3.org/2000/svg">
  <path d="M506.125 34.7885C508.389 34.7885 510.209 36.612 510.209 38.8358C510.209 41.0597 508.389 42.8832 506.125 42.8832C503.86 42.8832 502.084 41.0597 502.084 38.8358C502.084 36.612 503.905 34.7885 506.125 34.7885Z" fill="white"/>
  <path d="M653.899 19.6745C652.967 19.9616 651.966 19.5411 651.518 18.6717C650.771 17.2242 649.225 15.7929 646.323 15.7929C643.421 15.7929 641.395 17.7054 641.395 19.7958C641.395 21.5304 642.505 22.9092 644.813 23.3539L649.209 24.199C654.936 25.3109 658 29.0469 658 33.4946C658 38.3426 653.96 43.235 646.634 43.235C639.308 43.235 635.841 39.3777 634.569 35.4678C634.206 34.3558 634.839 33.1671 635.966 32.8679L637.774 32.3867C638.799 32.1158 639.836 32.69 640.2 33.6846C641.043 35.9813 643.142 37.7644 646.682 37.7644C649.968 37.7644 651.788 36.1187 651.788 33.8949C651.788 32.0714 650.412 30.6481 647.97 30.1589L643.574 29.2693C638.557 28.2464 635.316 24.9996 635.316 20.2406C635.316 14.6365 640.333 10.3667 646.283 10.3667C652.232 10.3667 655.542 13.375 656.882 16.4075C657.37 17.5113 656.769 18.793 655.619 19.1448L653.899 19.6745Z" fill="white"/>
  <path d="M157.151 10.3667C165.72 10.3667 173.361 16.638 173.361 26.8271C173.361 37.0163 165.724 43.239 157.151 43.239C148.578 43.239 140.989 36.9678 140.989 26.8271C140.989 16.6865 148.626 10.3667 157.151 10.3667ZM157.151 37.2792C162.035 37.2792 167.008 33.8989 167.008 26.7827C167.008 19.6664 162.035 16.2862 157.151 16.2862C152.267 16.2862 147.339 19.6664 147.339 26.7827C147.339 33.8989 152.311 37.2792 157.151 37.2792Z" fill="white"/>
  <path d="M184.42 40.5502V13.0556C184.42 11.9396 185.324 11.0339 186.439 11.0339H202.297C203.411 11.0339 204.315 11.9396 204.315 13.0556V14.8387C204.315 15.9546 203.411 16.8603 202.297 16.8603H190.552V24.6437H200.788C201.902 24.6437 202.806 25.5495 202.806 26.6654V28.2706C202.806 29.3866 201.902 30.2923 200.788 30.2923H190.596V40.5462C190.596 41.6621 189.692 42.5678 188.578 42.5678H186.443C185.329 42.5678 184.424 41.6621 184.424 40.5462L184.42 40.5502Z" fill="white"/>
  <path d="M217.018 40.5502V13.0556C217.018 11.9396 217.922 11.0339 219.036 11.0339H234.895C236.009 11.0339 236.913 11.9396 236.913 13.0556V14.8387C236.913 15.9546 236.009 16.8603 234.895 16.8603H223.149V24.6437H233.385C234.499 24.6437 235.403 25.5495 235.403 26.6654V28.2706C235.403 29.3866 234.499 30.2923 233.385 30.2923H223.193V40.5462C223.193 41.6621 222.289 42.5678 221.175 42.5678H219.04C217.926 42.5678 217.022 41.6621 217.022 40.5462L217.018 40.5502Z" fill="white"/>
  <path d="M249.611 40.5502V13.0556C249.611 11.9396 250.515 11.0339 251.629 11.0339H253.809C254.923 11.0339 255.827 11.9396 255.827 13.0556V40.5502C255.827 41.6662 254.923 42.5719 253.809 42.5719H251.629C250.515 42.5719 249.611 41.6662 249.611 40.5502Z" fill="white"/>
  <path d="M267.775 26.8271C267.775 16.7754 275.367 10.3667 283.807 10.3667C291.331 10.3667 295.702 14.3575 297.555 18.7445C298.015 19.8322 297.418 21.0816 296.292 21.4374L294.314 22.0601C293.345 22.3674 292.308 21.8983 291.876 20.9764C290.717 18.51 288.271 16.2821 283.807 16.2821C279.101 16.2821 274.128 19.6624 274.128 26.8231C274.128 33.5391 278.834 37.2306 283.896 37.2306C288.328 37.2306 290.887 34.841 292.122 32.3544C292.562 31.4729 293.567 31.0322 294.507 31.3193L296.465 31.9137C297.603 32.2573 298.221 33.5229 297.749 34.6146C295.892 38.9086 291.48 43.235 283.896 43.235C275.105 43.235 267.775 36.8748 267.775 26.8231V26.8271Z" fill="white"/>
  <path d="M309.656 40.5502V13.0556C309.656 11.9396 310.56 11.0339 311.674 11.0339H313.854C314.968 11.0339 315.872 11.9396 315.872 13.0556V40.5502C315.872 41.6662 314.968 42.5719 313.854 42.5719H311.674C310.56 42.5719 309.656 41.6662 309.656 40.5502Z" fill="white"/>
  <path d="M335.505 35.3667L333.369 41.2416C333.079 42.0382 332.32 42.5719 331.472 42.5719H329.337C327.92 42.5719 326.948 41.1486 327.452 39.8265L337.983 12.3318C338.282 11.5514 339.032 11.0339 339.868 11.0339H344.195C345.03 11.0339 345.781 11.5514 346.08 12.3358L356.534 39.8305C357.038 41.1527 356.062 42.5719 354.649 42.5719H352.328C351.48 42.5719 350.722 42.0422 350.431 41.2416L348.296 35.3667H335.505ZM337.547 29.7626H346.249L341.898 17.8429L337.547 29.7626Z" fill="white"/>
  <path d="M367.254 40.5502V13.0556C367.254 11.9396 368.159 11.0339 369.273 11.0339H371.363C372.477 11.0339 373.382 11.9396 373.382 13.0556V36.701H385.394C386.508 36.701 387.412 37.6067 387.412 38.7226V40.5502C387.412 41.6662 386.508 42.5719 385.394 42.5719H369.269C368.155 42.5719 367.25 41.6662 367.25 40.5502H367.254Z" fill="white"/>
  <path d="M415.84 40.5502V13.0556C415.84 11.9396 416.744 11.0339 417.858 11.0339H420.038C421.152 11.0339 422.056 11.9396 422.056 13.0556V40.5502C422.056 41.6662 421.152 42.5719 420.038 42.5719H417.858C416.744 42.5719 415.84 41.6662 415.84 40.5502Z" fill="white"/>
  <path d="M434.003 26.8271C434.003 16.7754 441.596 10.3667 450.036 10.3667C457.559 10.3667 461.931 14.3575 463.783 18.7445C464.244 19.8322 463.646 21.0816 462.52 21.4374L460.542 22.0601C459.574 22.3674 458.536 21.8983 458.104 20.9764C456.946 18.51 454.5 16.2821 450.036 16.2821C445.329 16.2821 440.357 19.6624 440.357 26.8231C440.357 33.5391 445.063 37.2306 450.125 37.2306C454.556 37.2306 457.115 34.841 458.351 32.3544C458.791 31.4729 459.796 31.0322 460.736 31.3193L462.694 31.9137C463.832 32.2573 464.449 33.5229 463.977 34.6146C462.121 38.9086 457.709 43.235 450.125 43.235C441.333 43.235 434.003 36.8748 434.003 26.8231V26.8271Z" fill="white"/>
  <path d="M482.012 40.5502C482.012 41.6662 481.107 42.5719 479.993 42.5719H477.903C476.789 42.5719 475.884 41.6662 475.884 40.5502V13.0556C475.884 11.9396 476.789 11.0339 477.903 11.0339H487.65C493.866 11.0339 497.996 15.1702 497.996 20.8632C497.996 26.5562 493.866 30.6926 487.65 30.6926H482.012V40.5502ZM486.896 25.4039C489.959 25.4039 491.824 23.6248 491.824 20.9118C491.824 18.1987 489.959 16.3751 486.896 16.3751H482.056V25.4039H486.896Z" fill="white"/>
  <path d="M543.118 40.5502V29.4957H529.398V40.5502C529.398 41.6662 528.494 42.5719 527.38 42.5719H525.289C524.175 42.5719 523.271 41.6662 523.271 40.5502V13.0556C523.271 11.9396 524.175 11.0339 525.289 11.0339H527.38C528.494 11.0339 529.398 11.9396 529.398 13.0556V23.7097H543.118V13.0556C543.118 11.9396 544.022 11.0339 545.136 11.0339H547.271C548.385 11.0339 549.289 11.9396 549.289 13.0556V40.5502C549.289 41.6662 548.385 42.5719 547.271 42.5719H545.136C544.022 42.5719 543.118 41.6662 543.118 40.5502Z" fill="white"/>
  <path d="M563.727 31.4082V13.0556C563.727 11.9396 564.631 11.0339 565.745 11.0339H567.836C568.95 11.0339 569.854 11.9396 569.854 13.0556V30.9635C569.854 35.0998 572.163 37.2792 575.804 37.2792C579.445 37.2792 581.798 35.0998 581.798 30.9635V13.0556C581.798 11.9396 582.702 11.0339 583.816 11.0339H585.907C587.021 11.0339 587.925 11.9396 587.925 13.0556V31.4082C587.925 39.1472 582.553 43.2835 575.804 43.2835C569.055 43.2835 563.727 39.1472 563.727 31.4082Z" fill="white"/>
  <path d="M612.797 11.0339C618.924 11.0339 622.387 14.6365 622.387 19.5289C622.387 22.7757 620.434 25.3999 617.814 26.2894C620.878 27.0455 623.364 29.8475 623.364 33.7615C623.364 38.8763 619.546 42.5678 613.641 42.5678H603.493C602.379 42.5678 601.475 41.6621 601.475 40.5462V13.0556C601.475 11.9396 602.379 11.0339 603.493 11.0339H612.797ZM611.865 24.0656C614.662 24.0656 616.349 22.5089 616.349 20.1071C616.349 17.7054 614.795 16.1932 611.82 16.1932H607.514V24.0656H611.865ZM612.486 37.453C615.461 37.453 617.237 35.8963 617.237 33.3612C617.237 30.826 615.639 29.1359 612.575 29.1359H607.514V37.453H612.486Z" fill="white"/>
  <path d="M112.033 26.8271C112.033 12.2145 99.8066 0.327148 84.8035 0.327148C78.5472 0.327148 71.7379 3.53755 64.5209 9.87346C61.1102 12.8696 58.1515 16.0719 55.9316 18.6475C48.1293 9.94219 37.6671 0.327148 27.2291 0.327148C14.6156 0.327148 3.61252 9.08096 0.746723 20.6772C0.746723 20.6651 0.754795 20.653 0.758832 20.6409C0.754795 20.653 0.750759 20.6651 0.746723 20.6772C0.258326 22.6544 0 24.7125 0 26.8271C0 41.4398 12.0323 53.3271 27.0354 53.3271C33.2917 53.3271 40.2948 50.1167 47.5118 43.7808C50.9225 40.7847 53.8811 37.5824 56.1011 35.0068C63.9033 43.7121 74.3615 53.3271 84.7995 53.3271C97.4171 53.3271 108.42 44.5733 111.282 32.9811C111.77 31.0039 112.029 28.9459 112.029 26.8312L112.033 26.8271ZM58.0224 18.6232C60.5733 15.7403 63.1001 13.1971 65.5461 11.0501C72.4684 4.97294 78.9468 1.88787 84.8035 1.88787C98.9589 1.88787 110.479 13.0758 110.479 26.8271C110.479 28.7558 110.245 30.6845 109.788 32.5565C109.712 32.7749 108.771 35.3626 106.083 37.8776C102.592 41.1446 97.857 42.8024 92.0164 42.8064C98.301 40.0691 102.697 33.9272 102.697 26.8312C102.697 17.1838 94.6723 9.33974 84.8035 9.33974C80.9609 9.33974 76.2505 11.7617 70.8095 16.5409C68.3594 18.692 65.8811 21.219 63.2615 24.2435L62.2363 25.4241L56.9729 19.7877L58.0224 18.6313V18.6232ZM48.7146 27.09C46.6359 29.5604 43.6409 32.9285 40.1979 35.9489C33.7842 41.5813 29.6146 42.7619 27.2291 42.7619C18.2321 42.7619 10.8941 35.6133 10.8941 26.8271C10.8941 18.041 18.2241 10.949 27.2291 10.8924C27.5561 10.8924 27.9517 10.9247 28.432 11.0096C33.0738 12.7927 37.2191 15.6352 39.7216 17.9318C41.7358 19.7796 45.3806 23.5601 48.7146 27.0819V27.09ZM54.0103 35.0351C51.4593 37.918 48.9325 40.4613 46.4865 42.6083C39.6611 48.6005 32.9325 51.7705 27.0354 51.7705C20.1978 51.7705 13.7881 49.1706 8.98085 44.448C4.19376 39.7456 1.55399 33.4865 1.55399 26.8312C1.55399 24.9025 1.7881 22.9739 2.2442 21.1018C2.3209 20.8794 3.2654 18.2957 5.94956 15.7848C9.441 12.5178 14.1756 10.86 20.0162 10.856C13.7316 13.5933 9.33605 19.7351 9.33605 26.8312C9.33605 36.4786 17.3643 44.3226 27.2291 44.3226C31.0717 44.3226 35.7821 41.9007 41.2231 37.1215C43.6732 34.9704 46.1515 32.4433 48.7711 29.4189L49.7963 28.2342C49.7963 28.2342 54.979 33.7898 55.0355 33.8504L54.0062 35.0311L54.0103 35.0351ZM63.3181 26.5684C65.3968 24.0979 68.3917 20.7298 71.8347 17.7094C78.2485 12.0771 82.418 10.8964 84.8035 10.8964C93.8005 10.8964 101.139 18.045 101.139 26.8312C101.139 35.6174 93.8086 42.7134 84.8035 42.766C84.4766 42.766 84.081 42.7336 83.6007 42.6487H83.6087C78.9629 40.8656 74.8136 38.0191 72.311 35.7225C70.2969 33.8747 66.6521 30.0942 63.314 26.5684H63.3181ZM111.278 33.0094C111.278 33.0094 111.286 32.9892 111.286 32.9811C111.286 32.9892 111.282 33.0013 111.278 33.0094Z" fill="white"/>
</svg>
